<?xml version="1.0" encoding="utf-8" standalone="no"?>
<!DOCTYPE svg PUBLIC "-//W3C//DTD SVG 1.1//EN"
  "http://www.w3.org/Graphics/SVG/1.1/DTD/svg11.dtd">
<svg xmlns:xlink="http://www.w3.org/1999/xlink" width="344.803509pt" height="232.667717pt" viewBox="0 0 344.803509 232.667717" xmlns="http://www.w3.org/2000/svg" version="1.1">
 <metadata>
  <rdf:RDF xmlns:dc="http://purl.org/dc/elements/1.1/" xmlns:cc="http://creativecommons.org/ns#" xmlns:rdf="http://www.w3.org/1999/02/22-rdf-syntax-ns#">
   <cc:Work>
    <dc:type rdf:resource="http://purl.org/dc/dcmitype/StillImage"/>
    <dc:date>2026-01-27T21:37:17.184460</dc:date>
    <dc:format>image/svg+xml</dc:format>
    <dc:creator>
     <cc:Agent>
      <dc:title>Matplotlib v3.10.8, https://matplotlib.org/</dc:title>
     </cc:Agent>
    </dc:creator>
   </cc:Work>
  </rdf:RDF>
 </metadata>
 <defs>
  <style type="text/css">*{stroke-linejoin: round; stroke-linecap: butt}</style>
 </defs>
 <g id="figure_1">
  <g id="patch_1">
   <path d="M 0 232.667717 
L 344.803509 232.667717 
L 344.803509 0 
L 0 0 
L 0 232.667717 
z
" style="fill: none"/>
  </g>
  <g id="axes_1">
   <g id="patch_2">
    <path d="M 7.2 225.467717 
L 270.822047 225.467717 
L 270.822047 7.2 
L 7.2 7.2 
L 7.2 225.467717 
z
" style="fill: none"/>
   </g>
   <g id="TriContourSet_1">
    <path d="M 179.442624 214.554331 
L 179.156548 213.594644 
L 179.035667 213.391444 
L 177.378619 212.069596 
L 178.074173 214.554331 
L 178.953758 214.554331 
z
" clip-path="url(#p23af8121db)" style="fill: #440154; fill-opacity: 0.7"/>
    <path d="M 178.074173 214.554331 
L 177.378619 212.069596 
L 179.035667 213.391444 
L 179.156548 213.594644 
L 179.442624 214.554331 
L 182.833457 214.554331 
L 180.563126 206.938144 
L 179.603801 205.325529 
L 166.453271 194.835189 
L 171.973267 214.554331 
z
" clip-path="url(#p23af8121db)" style="fill: #450559; fill-opacity: 0.7"/>
    <path d="M 171.973267 214.554331 
L 166.453271 194.835189 
L 179.603801 205.325529 
L 180.563126 206.938144 
L 182.833457 214.554331 
L 186.22429 214.554331 
L 181.969703 200.281643 
L 180.171934 197.259613 
L 155.527923 177.600781 
L 165.87236 214.554331 
z
" clip-path="url(#p23af8121db)" style="fill: #471164; fill-opacity: 0.7"/>
    <path d="M 165.87236 214.554331 
L 155.527923 177.600781 
L 180.171934 197.259613 
L 181.969703 200.281643 
L 186.22429 214.554331 
L 189.615123 214.554331 
L 183.37628 193.625143 
L 180.740067 189.193697 
L 144.602575 160.366373 
L 159.771454 214.554331 
z
" clip-path="url(#p23af8121db)" style="fill: #481c6e; fill-opacity: 0.7"/>
    <path d="M 159.771454 214.554331 
L 144.602575 160.366373 
L 180.740067 189.193697 
L 183.37628 193.625143 
L 189.615123 214.554331 
L 193.005956 214.554331 
L 184.782858 186.968643 
L 181.3082 181.127781 
L 142.153416 149.893525 
L 139.373292 147.926577 
L 137.3797 148.972505 
L 136.708373 150.335081 
L 137.2459 154.330297 
L 139.011024 162.185945 
L 153.670548 214.554331 
z
" clip-path="url(#p23af8121db)" style="fill: #482677; fill-opacity: 0.7"/>
    <path d="M 153.670548 214.554331 
L 139.011024 162.185945 
L 137.2459 154.330297 
L 136.708373 150.335081 
L 137.3797 148.972505 
L 139.373292 147.926577 
L 142.153416 149.893525 
L 181.3082 181.127781 
L 184.782858 186.968643 
L 193.005956 214.554331 
L 196.396789 214.554331 
L 186.189435 180.312142 
L 181.876333 173.061865 
L 148.590055 146.50899 
L 140.115335 140.513092 
L 134.03822 143.70142 
L 131.991795 147.854994 
L 133.630354 160.033712 
L 139.011024 183.980282 
L 147.569642 214.554331 
z
" clip-path="url(#p23af8121db)" style="fill: #472f7d; fill-opacity: 0.7"/>
    <path d="M 199.464505 214.554331 
L 199.071384 212.708582 
L 187.879737 175.599098 
L 186.775513 172.276392 
L 182.444466 164.99595 
L 155.026695 143.124455 
L 140.857377 133.099606 
L 130.69674 138.430336 
L 127.275218 145.374908 
L 130.014808 165.737127 
L 139.011024 205.774618 
L 141.468736 214.554331 
L 147.569642 214.554331 
L 139.011024 183.980282 
L 133.630354 160.033712 
L 131.991795 147.854994 
L 134.03822 143.70142 
L 140.115335 140.513092 
L 148.590055 146.50899 
L 181.876333 173.061865 
L 186.189435 180.312142 
L 196.396789 214.554331 
L 198.925125 214.554331 
z
" clip-path="url(#p23af8121db)" style="fill: #443983; fill-opacity: 0.7"/>
    <path d="M 201.585031 214.554331 
L 199.646387 205.452179 
L 189.896804 173.124316 
L 186.416628 162.652168 
L 183.012599 156.930034 
L 161.463335 139.739919 
L 141.59942 125.686121 
L 127.35526 133.159251 
L 122.55864 142.894822 
L 126.399262 171.440543 
L 136.086706 214.554331 
L 139.011024 214.554331 
L 141.468736 214.554331 
L 139.011024 205.774618 
L 130.014808 165.737127 
L 127.275218 145.374908 
L 130.69674 138.430336 
L 140.857377 133.099606 
L 155.026695 143.124455 
L 182.444466 164.99595 
L 186.775513 172.276392 
L 187.879737 175.599098 
L 199.071384 212.708582 
L 199.464505 214.554331 
z
" clip-path="url(#p23af8121db)" style="fill: #414287; fill-opacity: 0.7"/>
    <path d="M 203.705557 214.554331 
L 200.22139 198.195776 
L 191.91387 170.649535 
L 186.057742 153.027945 
L 183.580732 148.864118 
L 167.899975 136.355384 
L 142.341463 118.272636 
L 124.013779 127.888166 
L 117.842063 140.414735 
L 122.783716 177.143958 
L 131.189632 214.554331 
L 136.086706 214.554331 
L 126.399262 171.440543 
L 122.55864 142.894822 
L 127.35526 133.159251 
L 141.59942 125.686121 
L 161.463335 139.739919 
L 183.012599 156.930034 
L 186.416628 162.652168 
L 189.896804 173.124316 
L 199.646387 205.452179 
L 201.585031 214.554331 
z
" clip-path="url(#p23af8121db)" style="fill: #3e4c8a; fill-opacity: 0.7"/>
    <path d="M 205.826082 214.554331 
L 200.796394 190.939373 
L 193.930937 168.174754 
L 185.698857 143.403721 
L 184.148865 140.798202 
L 174.336615 132.970849 
L 143.083506 110.859151 
L 120.672299 122.617082 
L 113.125486 137.934649 
L 119.16817 182.847373 
L 126.292558 214.554331 
L 131.189632 214.554331 
L 122.783716 177.143958 
L 117.842063 140.414735 
L 124.013779 127.888166 
L 142.341463 118.272636 
L 167.899975 136.355384 
L 183.580732 148.864118 
L 186.057742 153.027945 
L 191.91387 170.649535 
L 200.22139 198.195776 
L 203.705557 214.554331 
z
" clip-path="url(#p23af8121db)" style="fill: #3a538b; fill-opacity: 0.7"/>
    <path d="M 207.946608 214.554331 
L 201.371397 183.682969 
L 195.948003 165.699972 
L 185.339972 133.779498 
L 184.716998 132.732286 
L 180.773255 129.586314 
L 167.38613 120.11487 
L 145.075948 107.459272 
L 141.24874 106.081 
L 136.794084 107.134689 
L 117.330819 117.345997 
L 108.408908 135.454563 
L 115.552624 188.550788 
L 121.395484 214.554331 
L 126.292558 214.554331 
L 119.16817 182.847373 
L 113.125486 137.934649 
L 120.672299 122.617082 
L 143.083506 110.859151 
L 174.336615 132.970849 
L 184.148865 140.798202 
L 185.698857 143.403721 
L 193.930937 168.174754 
L 200.796394 190.939373 
L 205.826082 214.554331 
z
" clip-path="url(#p23af8121db)" style="fill: #365c8d; fill-opacity: 0.7"/>
    <path d="M 210.067134 214.554331 
L 201.9464 176.426566 
L 197.96507 163.225191 
L 187.056287 130.39973 
L 186.066336 128.005602 
L 185.597152 127.049796 
L 184.779057 125.798716 
L 184.604213 125.640016 
L 147.177442 104.409433 
L 139.189242 101.532685 
L 129.891426 103.731959 
L 113.989338 112.074912 
L 103.692331 132.974476 
L 111.937078 194.254203 
L 116.498411 214.554331 
L 121.395484 214.554331 
L 115.552624 188.550788 
L 108.408908 135.454563 
L 117.330819 117.345997 
L 136.794084 107.134689 
L 141.24874 106.081 
L 145.075948 107.459272 
L 167.38613 120.11487 
L 180.773255 129.586314 
L 184.716998 132.732286 
L 185.339972 133.779498 
L 195.948003 165.699972 
L 201.371397 183.682969 
L 207.946608 214.554331 
z
" clip-path="url(#p23af8121db)" style="fill: #32648e; fill-opacity: 0.7"/>
    <path d="M 212.18766 214.554331 
L 202.521404 169.170163 
L 199.982136 160.75041 
L 193.024584 139.814539 
L 189.016322 130.120836 
L 187.116621 126.250824 
L 183.804193 121.185263 
L 183.09626 120.542694 
L 149.278935 101.359593 
L 137.129743 96.98437 
L 122.988768 100.329229 
L 110.647858 106.803828 
L 98.975753 130.49439 
L 108.321532 199.957619 
L 111.601337 214.554331 
L 116.498411 214.554331 
L 111.937078 194.254203 
L 103.692331 132.974476 
L 113.989338 112.074912 
L 129.891426 103.731959 
L 139.189242 101.532685 
L 147.177442 104.409433 
L 184.604213 125.640016 
L 184.779057 125.798716 
L 185.597152 127.049796 
L 186.066336 128.005602 
L 187.056287 130.39973 
L 197.96507 163.225191 
L 201.9464 176.426566 
L 210.067134 214.554331 
z
" clip-path="url(#p23af8121db)" style="fill: #2f6c8e; fill-opacity: 0.7"/>
    <path d="M 214.308186 214.554331 
L 203.096407 161.91376 
L 201.999203 158.275628 
L 198.992881 149.229348 
L 191.966309 132.23607 
L 188.636089 125.451852 
L 182.82933 116.57181 
L 181.588308 115.445372 
L 151.380429 98.309754 
L 135.070245 92.436055 
L 116.08611 96.9265 
L 107.306378 101.532743 
L 94.259176 128.014304 
L 104.705986 205.661034 
L 106.704263 214.554331 
L 111.601337 214.554331 
L 108.321532 199.957619 
L 98.975753 130.49439 
L 110.647858 106.803828 
L 122.988768 100.329229 
L 137.129743 96.98437 
L 149.278935 101.359593 
L 183.09626 120.542694 
L 183.804193 121.185263 
L 187.116621 126.250824 
L 189.016322 130.120836 
L 193.024584 139.814539 
L 199.982136 160.75041 
L 202.521404 169.170163 
L 212.18766 214.554331 
z
" clip-path="url(#p23af8121db)" style="fill: #2c728e; fill-opacity: 0.7"/>
    <path d="M 216.428711 214.554331 
L 204.187382 157.079903 
L 203.972935 156.254161 
L 194.916295 134.351304 
L 190.155558 124.65288 
L 181.854467 111.958357 
L 180.080355 110.348051 
L 153.481922 95.259914 
L 133.010747 87.887741 
L 109.183451 93.52377 
L 103.964898 96.261659 
L 89.542599 125.534217 
L 101.09044 211.364449 
L 101.80719 214.554331 
L 106.704263 214.554331 
L 104.705986 205.661034 
L 94.259176 128.014304 
L 107.306378 101.532743 
L 116.08611 96.9265 
L 135.070245 92.436055 
L 151.380429 98.309754 
L 181.588308 115.445372 
L 182.82933 116.57181 
L 188.636089 125.451852 
L 191.966309 132.23607 
L 198.992881 149.229348 
L 201.999203 158.275628 
L 203.096407 161.91376 
L 214.308186 214.554331 
z
" clip-path="url(#p23af8121db)" style="fill: #297a8e; fill-opacity: 0.7"/>
    <path d="M 218.549237 214.554331 
L 206.919974 159.953624 
L 205.808795 155.674958 
L 197.866281 136.466538 
L 191.675026 123.853908 
L 180.879603 107.344904 
L 178.572402 105.250729 
L 155.583416 92.210075 
L 130.951249 83.339426 
L 102.280793 90.12104 
L 100.623417 90.990574 
L 84.826021 123.054131 
L 93.751373 189.392503 
L 97.257344 214.554331 
L 99.068289 214.554331 
L 101.80719 214.554331 
L 101.09044 211.364449 
L 89.542599 125.534217 
L 103.964898 96.261659 
L 109.183451 93.52377 
L 133.010747 87.887741 
L 153.481922 95.259914 
L 180.080355 110.348051 
L 181.854467 111.958357 
L 190.155558 124.65288 
L 194.916295 134.351304 
L 203.972935 156.254161 
L 204.187382 157.079903 
L 216.428711 214.554331 
z
" clip-path="url(#p23af8121db)" style="fill: #26828e; fill-opacity: 0.7"/>
    <path d="M 220.669763 214.554331 
L 209.652567 162.827346 
L 207.644656 155.095755 
L 200.816268 138.581773 
L 193.194495 123.054936 
L 179.90474 102.73145 
L 177.06445 100.153408 
L 157.684909 89.160236 
L 128.891751 78.791111 
L 101.075811 85.370601 
L 99.068289 88.537406 
L 84.818894 111.015398 
L 80.109444 120.574045 
L 81.686849 132.298235 
L 93.148158 214.554331 
L 97.257344 214.554331 
L 93.751373 189.392503 
L 84.826021 123.054131 
L 100.623417 90.990574 
L 102.280793 90.12104 
L 130.951249 83.339426 
L 155.583416 92.210075 
L 178.572402 105.250729 
L 180.879603 107.344904 
L 191.675026 123.853908 
L 197.866281 136.466538 
L 205.808795 155.674958 
L 206.919974 159.953624 
L 218.549237 214.554331 
z
" clip-path="url(#p23af8121db)" style="fill: #23898e; fill-opacity: 0.7"/>
    <path d="M 222.790289 214.554331 
L 212.385159 165.701067 
L 209.480516 154.516552 
L 203.766254 140.697007 
L 194.713964 122.255964 
L 178.929876 98.117997 
L 175.556497 95.056086 
L 159.786403 86.110396 
L 126.832253 74.242796 
L 104.831003 79.446898 
L 101.075811 85.370601 
L 128.891751 78.791111 
L 157.684909 89.160236 
L 177.06445 100.153408 
L 179.90474 102.73145 
L 193.194495 123.054936 
L 200.816268 138.581773 
L 207.644656 155.095755 
L 209.652567 162.827346 
L 220.669763 214.554331 
z
M 76.451361 124.214929 
L 89.038973 214.554331 
L 93.148158 214.554331 
L 81.686849 132.298235 
L 80.109444 120.574045 
L 84.818894 111.015398 
L 79.096922 120.041637 
z
" clip-path="url(#p23af8121db)" style="fill: #21918c; fill-opacity: 0.7"/>
    <path d="M 224.910814 214.554331 
L 215.117751 168.574788 
L 211.316376 153.937349 
L 206.716241 142.812241 
L 196.233432 121.456992 
L 177.955013 93.504544 
L 174.048544 89.958765 
L 161.887896 83.060557 
L 124.772755 69.694481 
L 108.586195 73.523196 
L 104.831003 79.446898 
L 126.832253 74.242796 
L 159.786403 86.110396 
L 175.556497 95.056086 
L 178.929876 98.117997 
L 194.713964 122.255964 
L 203.766254 140.697007 
L 209.480516 154.516552 
L 212.385159 165.701067 
L 222.790289 214.554331 
z
M 73.082624 129.529012 
L 84.929787 214.554331 
L 89.038973 214.554331 
L 76.451361 124.214929 
z
" clip-path="url(#p23af8121db)" style="fill: #1f978b; fill-opacity: 0.7"/>
    <path d="M 227.03134 214.554331 
L 217.850343 171.44851 
L 213.152236 153.358147 
L 209.666227 144.927475 
L 197.752901 120.65802 
L 176.98015 88.891091 
L 172.540591 84.861443 
L 163.98939 80.010718 
L 122.713257 65.146166 
L 112.341386 67.599494 
L 108.586195 73.523196 
L 124.772755 69.694481 
L 161.887896 83.060557 
L 174.048544 89.958765 
L 177.955013 93.504544 
L 196.233432 121.456992 
L 206.716241 142.812241 
L 211.316376 153.937349 
L 215.117751 168.574788 
L 224.910814 214.554331 
z
M 69.713886 134.843094 
L 80.820602 214.554331 
L 84.929787 214.554331 
L 73.082624 129.529012 
z
" clip-path="url(#p23af8121db)" style="fill: #1f9f88; fill-opacity: 0.7"/>
    <path d="M 229.151866 214.554331 
L 220.582936 174.322231 
L 214.988097 152.778944 
L 212.616213 147.042709 
L 200.86114 123.095642 
L 198.925125 120.041637 
L 184.123009 96.691745 
L 176.005286 84.277638 
L 171.032639 79.764122 
L 166.090883 76.960878 
L 120.653759 60.597852 
L 116.096578 61.675792 
L 112.341386 67.599494 
L 122.713257 65.146166 
L 163.98939 80.010718 
L 172.540591 84.861443 
L 176.98015 88.891091 
L 197.752901 120.65802 
L 209.666227 144.927475 
L 213.152236 153.358147 
L 217.850343 171.44851 
L 227.03134 214.554331 
z
M 66.345148 140.157177 
L 76.711416 214.554331 
L 80.820602 214.554331 
L 69.713886 134.843094 
z
" clip-path="url(#p23af8121db)" style="fill: #21a685; fill-opacity: 0.7"/>
    <path d="M 231.272392 214.554331 
L 223.315528 177.195953 
L 216.823957 152.199741 
L 215.5662 149.157943 
L 209.332745 136.459344 
L 200.86114 123.095642 
L 212.616213 147.042709 
L 214.988097 152.778944 
L 220.582936 174.322231 
L 229.151866 214.554331 
z
M 171.02285 76.026636 
L 169.524686 74.6668 
L 168.192377 73.911039 
L 137.485285 62.852659 
L 119.366458 56.517655 
L 119.039656 57.033175 
L 116.096578 61.675792 
L 120.653759 60.597852 
L 166.090883 76.960878 
L 171.032639 79.764122 
L 176.005286 84.277638 
L 184.123009 96.691745 
L 175.88124 83.690601 
z
M 62.97641 145.471259 
L 72.602231 214.554331 
L 76.711416 214.554331 
L 66.345148 140.157177 
z
" clip-path="url(#p23af8121db)" style="fill: #27ad81; fill-opacity: 0.7"/>
    <path d="M 233.392918 214.554331 
L 226.04812 180.069674 
L 218.659817 151.620538 
L 218.516186 151.273177 
L 217.80435 149.823047 
L 209.332745 136.459344 
L 215.5662 149.157943 
L 216.823957 152.199741 
L 223.315528 177.195953 
L 231.272392 214.554331 
z
M 167.471791 70.424948 
L 120.877578 54.133908 
L 119.366458 56.517655 
L 137.485285 62.852659 
L 168.192377 73.911039 
L 169.524686 74.6668 
L 171.02285 76.026636 
L 168.968074 72.78529 
z
M 59.607673 150.785342 
L 68.493046 214.554331 
L 72.602231 214.554331 
L 62.97641 145.471259 
z
" clip-path="url(#p23af8121db)" style="fill: #2fb47c; fill-opacity: 0.7"/>
    <path d="M 235.513443 214.554331 
L 228.780712 182.943395 
L 221.82743 156.169334 
L 218.896492 151.545868 
L 217.80435 149.823047 
L 218.516186 151.273177 
L 218.659817 151.620538 
L 226.04812 180.069674 
L 233.392918 214.554331 
z
M 165.10006 66.683614 
L 122.388699 51.750161 
L 120.877578 54.133908 
L 167.471791 70.424948 
z
M 56.238935 156.099424 
L 64.38386 214.554331 
L 68.493046 214.554331 
L 59.607673 150.785342 
z
" clip-path="url(#p23af8121db)" style="fill: #3bbb75; fill-opacity: 0.7"/>
    <path d="M 237.633969 214.554331 
L 231.513305 185.817117 
L 225.192139 161.477061 
L 221.82743 156.169334 
L 228.780712 182.943395 
L 235.513443 214.554331 
z
M 162.72833 62.94228 
L 123.899819 49.366414 
L 122.388699 51.750161 
L 165.10006 66.683614 
z
M 52.870197 161.413506 
L 60.274675 214.554331 
L 64.38386 214.554331 
L 56.238935 156.099424 
z
" clip-path="url(#p23af8121db)" style="fill: #4ac16d; fill-opacity: 0.7"/>
    <path d="M 239.754495 214.554331 
L 234.245897 188.690838 
L 228.556847 166.784788 
L 225.192139 161.477061 
L 231.513305 185.817117 
L 237.633969 214.554331 
z
M 160.356599 59.200947 
L 125.41094 46.982667 
L 123.899819 49.366414 
L 162.72833 62.94228 
z
M 49.50146 166.727589 
L 56.165489 214.554331 
L 60.274675 214.554331 
L 52.870197 161.413506 
z
" clip-path="url(#p23af8121db)" style="fill: #5ac864; fill-opacity: 0.7"/>
    <path d="M 241.875021 214.554331 
L 236.978489 191.56456 
L 231.921556 172.092515 
L 228.556847 166.784788 
L 234.245897 188.690838 
L 239.754495 214.554331 
z
M 157.984868 55.459613 
L 126.92206 44.59892 
L 125.41094 46.982667 
L 160.356599 59.200947 
z
M 46.132722 172.041671 
L 52.056304 214.554331 
L 56.165489 214.554331 
L 49.50146 166.727589 
z
" clip-path="url(#p23af8121db)" style="fill: #69cd5b; fill-opacity: 0.7"/>
    <path d="M 243.995546 214.554331 
L 239.711081 194.438281 
L 235.286265 177.400242 
L 231.921556 172.092515 
L 236.978489 191.56456 
L 241.875021 214.554331 
z
M 155.613138 51.718279 
L 128.43318 42.215173 
L 126.92206 44.59892 
L 157.984868 55.459613 
z
M 42.763984 177.355754 
L 47.947118 214.554331 
L 52.056304 214.554331 
L 46.132722 172.041671 
z
" clip-path="url(#p23af8121db)" style="fill: #7cd250; fill-opacity: 0.7"/>
    <path d="M 246.116072 214.554331 
L 242.443673 197.312002 
L 238.650974 182.707969 
L 235.286265 177.400242 
L 239.711081 194.438281 
L 243.995546 214.554331 
z
M 153.241407 47.976945 
L 129.944301 39.831426 
L 128.43318 42.215173 
L 155.613138 51.718279 
z
M 39.395247 182.669836 
L 43.837933 214.554331 
L 47.947118 214.554331 
L 42.763984 177.355754 
z
" clip-path="url(#p23af8121db)" style="fill: #90d743; fill-opacity: 0.7"/>
    <path d="M 248.236598 214.554331 
L 245.176266 200.185724 
L 242.015683 188.015696 
L 238.650974 182.707969 
L 242.443673 197.312002 
L 246.116072 214.554331 
z
M 150.869677 44.235612 
L 131.455421 37.447679 
L 129.944301 39.831426 
L 153.241407 47.976945 
z
M 36.026509 187.983919 
L 39.728747 214.554331 
L 43.837933 214.554331 
L 39.395247 182.669836 
z
" clip-path="url(#p23af8121db)" style="fill: #a5db36; fill-opacity: 0.7"/>
    <path d="M 250.357124 214.554331 
L 247.908858 203.059445 
L 245.380392 193.323423 
L 242.015683 188.015696 
L 245.176266 200.185724 
L 248.236598 214.554331 
z
M 148.497946 40.494278 
L 132.966542 35.063932 
L 131.455421 37.447679 
L 150.869677 44.235612 
z
M 32.657771 193.298001 
L 35.619562 214.554331 
L 39.728747 214.554331 
L 36.026509 187.983919 
z
" clip-path="url(#p23af8121db)" style="fill: #b8de29; fill-opacity: 0.7"/>
    <path d="M 252.47765 214.554331 
L 250.64145 205.933167 
L 248.7451 198.63115 
L 245.380392 193.323423 
L 247.908858 203.059445 
L 250.357124 214.554331 
z
M 146.126215 36.752944 
L 134.477662 32.680185 
L 132.966542 35.063932 
L 148.497946 40.494278 
z
M 29.289033 198.612083 
L 31.510377 214.554331 
L 35.619562 214.554331 
L 32.657771 193.298001 
z
" clip-path="url(#p23af8121db)" style="fill: #cde11d; fill-opacity: 0.7"/>
    <path d="M 254.598175 214.554331 
L 253.374042 208.806888 
L 252.109809 203.938877 
L 248.7451 198.63115 
L 250.64145 205.933167 
L 252.47765 214.554331 
z
M 143.754485 33.011611 
L 135.988783 30.296438 
L 134.477662 32.680185 
L 146.126215 36.752944 
z
M 25.920296 203.926166 
L 27.401191 214.554331 
L 31.510377 214.554331 
L 29.289033 198.612083 
z
" clip-path="url(#p23af8121db)" style="fill: #e2e418; fill-opacity: 0.7"/>
    <path d="M 256.718701 214.554331 
L 256.106635 211.680609 
L 255.474518 209.246604 
L 252.109809 203.938877 
L 253.374042 208.806888 
L 254.598175 214.554331 
z
M 141.382754 29.270277 
L 137.499903 27.91269 
L 135.988783 30.296438 
L 143.754485 33.011611 
z
M 22.551558 209.240248 
L 23.292006 214.554331 
L 27.401191 214.554331 
L 25.920296 203.926166 
z
" clip-path="url(#p23af8121db)" style="fill: #f6e620; fill-opacity: 0.7"/>
    <path d="M 255.474518 209.246604 
L 256.106635 211.680609 
L 256.718701 214.554331 
L 258.839227 214.554331 
z
M 137.499903 27.91269 
L 141.382754 29.270277 
L 139.011024 25.528943 
z
M 23.292006 214.554331 
L 22.551558 209.240248 
L 19.18282 214.554331 
z
" clip-path="url(#p23af8121db)" style="fill: #fde725; fill-opacity: 0.7"/>
   </g>
   <g id="matplotlib.axis_1"/>
   <g id="matplotlib.axis_2"/>
   <g id="line2d_1">
    <path d="M 203.533902 156.392673 
L 258.839227 214.554331 
" clip-path="url(#p23af8121db)" style="fill: none; stroke: #555555; stroke-opacity: 0.9; stroke-width: 0.5; stroke-linecap: square"/>
   </g>
   <g id="line2d_2">
    <path d="M 139.011024 151.545868 
L 99.068289 214.554331 
" clip-path="url(#p23af8121db)" style="fill: none; stroke: #555555; stroke-opacity: 0.9; stroke-width: 0.5; stroke-linecap: square"/>
   </g>
   <g id="line2d_3">
    <path d="M 178.953758 214.554331 
L 186.942305 176.749253 
" clip-path="url(#p23af8121db)" style="fill: none; stroke: #555555; stroke-opacity: 0.9; stroke-width: 0.5; stroke-linecap: square"/>
   </g>
   <g id="line2d_4">
    <path d="M 79.096922 120.041637 
L 99.068289 88.537406 
" clip-path="url(#p23af8121db)" style="fill: none; stroke: #555555; stroke-opacity: 0.9; stroke-width: 0.5; stroke-linecap: square"/>
   </g>
   <g id="line2d_5">
    <path d="M 185.098794 127.311844 
L 143.143031 110.264462 
" clip-path="url(#p23af8121db)" style="fill: none; stroke: #555555; stroke-opacity: 0.9; stroke-width: 0.5; stroke-linecap: square"/>
   </g>
   <g id="line2d_6">
    <path d="M 79.096922 120.041637 
L 139.011024 151.545868 
" clip-path="url(#p23af8121db)" style="fill: none; stroke: #555555; stroke-opacity: 0.9; stroke-width: 0.5; stroke-linecap: square"/>
   </g>
   <g id="line2d_7">
    <path d="M 168.968074 72.78529 
L 175.88124 83.690601 
" clip-path="url(#p23af8121db)" style="fill: none; stroke: #555555; stroke-opacity: 0.9; stroke-width: 0.5; stroke-linecap: square"/>
   </g>
   <g id="line2d_8">
    <path d="M 185.098794 127.311844 
L 203.533902 156.392673 
" clip-path="url(#p23af8121db)" style="fill: none; stroke: #555555; stroke-opacity: 0.9; stroke-width: 0.5; stroke-linecap: square"/>
   </g>
   <g id="line2d_9">
    <path d="M 139.011024 214.554331 
L 178.953758 214.554331 
" clip-path="url(#p23af8121db)" style="fill: none; stroke: #555555; stroke-opacity: 0.9; stroke-width: 0.5; stroke-linecap: square"/>
   </g>
   <g id="line2d_10">
    <path d="M 198.925125 120.041637 
L 185.098794 127.311844 
" clip-path="url(#p23af8121db)" style="fill: none; stroke: #555555; stroke-opacity: 0.9; stroke-width: 0.5; stroke-linecap: square"/>
   </g>
   <g id="line2d_11">
    <path d="M 99.068289 214.554331 
L 19.18282 214.554331 
" clip-path="url(#p23af8121db)" style="fill: none; stroke: #555555; stroke-opacity: 0.9; stroke-width: 0.5; stroke-linecap: square"/>
   </g>
   <g id="line2d_12">
    <path d="M 79.096922 120.041637 
L 19.18282 214.554331 
" clip-path="url(#p23af8121db)" style="fill: none; stroke: #555555; stroke-opacity: 0.9; stroke-width: 0.5; stroke-linecap: square"/>
   </g>
   <g id="line2d_13">
    <path d="M 119.039656 57.033175 
L 143.143031 110.264462 
" clip-path="url(#p23af8121db)" style="fill: none; stroke: #555555; stroke-opacity: 0.9; stroke-width: 0.5; stroke-linecap: square"/>
   </g>
   <g id="line2d_14">
    <path d="M 168.968074 72.78529 
L 143.143031 110.264462 
" clip-path="url(#p23af8121db)" style="fill: none; stroke: #555555; stroke-opacity: 0.9; stroke-width: 0.5; stroke-linecap: square"/>
   </g>
   <g id="line2d_15">
    <path d="M 198.925125 214.554331 
L 258.839227 214.554331 
" clip-path="url(#p23af8121db)" style="fill: none; stroke: #555555; stroke-opacity: 0.9; stroke-width: 0.5; stroke-linecap: square"/>
   </g>
   <g id="line2d_16">
    <path d="M 175.88124 83.690601 
L 185.098794 127.311844 
" clip-path="url(#p23af8121db)" style="fill: none; stroke: #555555; stroke-opacity: 0.9; stroke-width: 0.5; stroke-linecap: square"/>
   </g>
   <g id="line2d_17">
    <path d="M 139.011024 151.545868 
L 143.143031 110.264462 
" clip-path="url(#p23af8121db)" style="fill: none; stroke: #555555; stroke-opacity: 0.9; stroke-width: 0.5; stroke-linecap: square"/>
   </g>
   <g id="line2d_18">
    <path d="M 218.896492 151.545868 
L 203.533902 156.392673 
" clip-path="url(#p23af8121db)" style="fill: none; stroke: #555555; stroke-opacity: 0.9; stroke-width: 0.5; stroke-linecap: square"/>
   </g>
   <g id="line2d_19">
    <path d="M 178.953758 214.554331 
L 198.925125 214.554331 
" clip-path="url(#p23af8121db)" style="fill: none; stroke: #555555; stroke-opacity: 0.9; stroke-width: 0.5; stroke-linecap: square"/>
   </g>
   <g id="line2d_20">
    <path d="M 99.068289 88.537406 
L 119.039656 57.033175 
" clip-path="url(#p23af8121db)" style="fill: none; stroke: #555555; stroke-opacity: 0.9; stroke-width: 0.5; stroke-linecap: square"/>
   </g>
   <g id="line2d_21">
    <path d="M 139.011024 214.554331 
L 99.068289 214.554331 
" clip-path="url(#p23af8121db)" style="fill: none; stroke: #555555; stroke-opacity: 0.9; stroke-width: 0.5; stroke-linecap: square"/>
   </g>
   <g id="line2d_22">
    <path d="M 168.968074 72.78529 
L 185.098794 127.311844 
" clip-path="url(#p23af8121db)" style="fill: none; stroke: #555555; stroke-opacity: 0.9; stroke-width: 0.5; stroke-linecap: square"/>
   </g>
   <g id="line2d_23">
    <path d="M 198.925125 214.554331 
L 186.942305 176.749253 
" clip-path="url(#p23af8121db)" style="fill: none; stroke: #555555; stroke-opacity: 0.9; stroke-width: 0.5; stroke-linecap: square"/>
   </g>
   <g id="line2d_24">
    <path d="M 186.942305 176.749253 
L 203.533902 156.392673 
" clip-path="url(#p23af8121db)" style="fill: none; stroke: #555555; stroke-opacity: 0.9; stroke-width: 0.5; stroke-linecap: square"/>
   </g>
   <g id="line2d_25">
    <path d="M 139.011024 151.545868 
L 178.953758 214.554331 
" clip-path="url(#p23af8121db)" style="fill: none; stroke: #555555; stroke-opacity: 0.9; stroke-width: 0.5; stroke-linecap: square"/>
   </g>
   <g id="line2d_26">
    <path d="M 139.011024 151.545868 
L 185.098794 127.311844 
" clip-path="url(#p23af8121db)" style="fill: none; stroke: #555555; stroke-opacity: 0.9; stroke-width: 0.5; stroke-linecap: square"/>
   </g>
   <g id="line2d_27">
    <path d="M 178.953758 214.554331 
L 185.098794 127.311844 
" clip-path="url(#p23af8121db)" style="fill: none; stroke: #555555; stroke-opacity: 0.9; stroke-width: 0.5; stroke-linecap: square"/>
   </g>
   <g id="line2d_28">
    <path d="M 218.896492 151.545868 
L 258.839227 214.554331 
" clip-path="url(#p23af8121db)" style="fill: none; stroke: #555555; stroke-opacity: 0.9; stroke-width: 0.5; stroke-linecap: square"/>
   </g>
   <g id="line2d_29">
    <path d="M 218.896492 151.545868 
L 185.098794 127.311844 
" clip-path="url(#p23af8121db)" style="fill: none; stroke: #555555; stroke-opacity: 0.9; stroke-width: 0.5; stroke-linecap: square"/>
   </g>
   <g id="line2d_30">
    <path d="M 99.068289 88.537406 
L 139.011024 151.545868 
" clip-path="url(#p23af8121db)" style="fill: none; stroke: #555555; stroke-opacity: 0.9; stroke-width: 0.5; stroke-linecap: square"/>
   </g>
   <g id="line2d_31">
    <path d="M 198.925125 120.041637 
L 218.896492 151.545868 
" clip-path="url(#p23af8121db)" style="fill: none; stroke: #555555; stroke-opacity: 0.9; stroke-width: 0.5; stroke-linecap: square"/>
   </g>
   <g id="line2d_32">
    <path d="M 198.925125 120.041637 
L 175.88124 83.690601 
" clip-path="url(#p23af8121db)" style="fill: none; stroke: #555555; stroke-opacity: 0.9; stroke-width: 0.5; stroke-linecap: square"/>
   </g>
   <g id="line2d_33">
    <path d="M 99.068289 88.537406 
L 143.143031 110.264462 
" clip-path="url(#p23af8121db)" style="fill: none; stroke: #555555; stroke-opacity: 0.9; stroke-width: 0.5; stroke-linecap: square"/>
   </g>
   <g id="line2d_34">
    <path d="M 79.096922 120.041637 
L 99.068289 214.554331 
" clip-path="url(#p23af8121db)" style="fill: none; stroke: #555555; stroke-opacity: 0.9; stroke-width: 0.5; stroke-linecap: square"/>
   </g>
   <g id="line2d_35">
    <path d="M 139.011024 214.554331 
L 139.011024 151.545868 
" clip-path="url(#p23af8121db)" style="fill: none; stroke: #555555; stroke-opacity: 0.9; stroke-width: 0.5; stroke-linecap: square"/>
   </g>
   <g id="line2d_36">
    <path d="M 168.968074 72.78529 
L 119.039656 57.033175 
" clip-path="url(#p23af8121db)" style="fill: none; stroke: #555555; stroke-opacity: 0.9; stroke-width: 0.5; stroke-linecap: square"/>
   </g>
   <g id="line2d_37">
    <path d="M 119.039656 57.033175 
L 139.011024 25.528943 
" clip-path="url(#p23af8121db)" style="fill: none; stroke: #555555; stroke-opacity: 0.9; stroke-width: 0.5; stroke-linecap: square"/>
   </g>
   <g id="line2d_38">
    <path d="M 198.925125 214.554331 
L 203.533902 156.392673 
" clip-path="url(#p23af8121db)" style="fill: none; stroke: #555555; stroke-opacity: 0.9; stroke-width: 0.5; stroke-linecap: square"/>
   </g>
   <g id="line2d_39">
    <path d="M 186.942305 176.749253 
L 185.098794 127.311844 
" clip-path="url(#p23af8121db)" style="fill: none; stroke: #555555; stroke-opacity: 0.9; stroke-width: 0.5; stroke-linecap: square"/>
   </g>
   <g id="line2d_40">
    <path d="M 168.968074 72.78529 
L 139.011024 25.528943 
" clip-path="url(#p23af8121db)" style="fill: none; stroke: #555555; stroke-opacity: 0.9; stroke-width: 0.5; stroke-linecap: square"/>
   </g>
   <g id="PathCollection_1">
    <defs>
     <path id="mf8811a1991" d="M 0 2.738613 
C 0.726289 2.738613 1.422928 2.450055 1.936492 1.936492 
C 2.450055 1.422928 2.738613 0.726289 2.738613 0 
C 2.738613 -0.726289 2.450055 -1.422928 1.936492 -1.936492 
C 1.422928 -2.450055 0.726289 -2.738613 0 -2.738613 
C -0.726289 -2.738613 -1.422928 -2.450055 -1.936492 -1.936492 
C -2.450055 -1.422928 -2.738613 -0.726289 -2.738613 0 
C -2.738613 0.726289 -2.450055 1.422928 -1.936492 1.936492 
C -1.422928 2.450055 -0.726289 2.738613 0 2.738613 
z
" style="stroke: #008000"/>
    </defs>
    <g clip-path="url(#p23af8121db)">
     <use xlink:href="#mf8811a1991" x="203.533902" y="156.392673" style="fill: #008000; stroke: #008000"/>
     <use xlink:href="#mf8811a1991" x="258.839227" y="214.554331" style="fill: #008000; stroke: #008000"/>
     <use xlink:href="#mf8811a1991" x="139.011024" y="151.545868" style="fill: #008000; stroke: #008000"/>
     <use xlink:href="#mf8811a1991" x="99.068289" y="214.554331" style="fill: #008000; stroke: #008000"/>
     <use xlink:href="#mf8811a1991" x="178.953758" y="214.554331" style="fill: #008000; stroke: #008000"/>
     <use xlink:href="#mf8811a1991" x="186.942305" y="176.749253" style="fill: #008000; stroke: #008000"/>
     <use xlink:href="#mf8811a1991" x="79.096922" y="120.041637" style="fill: #008000; stroke: #008000"/>
     <use xlink:href="#mf8811a1991" x="99.068289" y="88.537406" style="fill: #008000; stroke: #008000"/>
     <use xlink:href="#mf8811a1991" x="185.098794" y="127.311844" style="fill: #008000; stroke: #008000"/>
     <use xlink:href="#mf8811a1991" x="143.143031" y="110.264462" style="fill: #008000; stroke: #008000"/>
     <use xlink:href="#mf8811a1991" x="168.968074" y="72.78529" style="fill: #008000; stroke: #008000"/>
     <use xlink:href="#mf8811a1991" x="175.88124" y="83.690601" style="fill: #008000; stroke: #008000"/>
     <use xlink:href="#mf8811a1991" x="139.011024" y="214.554331" style="fill: #008000; stroke: #008000"/>
     <use xlink:href="#mf8811a1991" x="198.925125" y="120.041637" style="fill: #008000; stroke: #008000"/>
     <use xlink:href="#mf8811a1991" x="19.18282" y="214.554331" style="fill: #008000; stroke: #008000"/>
     <use xlink:href="#mf8811a1991" x="119.039656" y="57.033175" style="fill: #008000; stroke: #008000"/>
     <use xlink:href="#mf8811a1991" x="198.925125" y="214.554331" style="fill: #008000; stroke: #008000"/>
     <use xlink:href="#mf8811a1991" x="218.896492" y="151.545868" style="fill: #008000; stroke: #008000"/>
     <use xlink:href="#mf8811a1991" x="139.011024" y="25.528943" style="fill: #008000; stroke: #008000"/>
    </g>
   </g>
   <g id="PathCollection_2">
    <defs>
     <path id="m6234867a09" d="M -0 2.236068 
L 1.341641 0 
L 0 -2.236068 
L -1.341641 -0 
z
" style="stroke: #d3d3d3"/>
    </defs>
    <g clip-path="url(#p23af8121db)">
     <use xlink:href="#m6234867a09" x="139.011024" y="25.528943" style="fill: #d3d3d3; stroke: #d3d3d3"/>
     <use xlink:href="#m6234867a09" x="139.011024" y="25.528943" style="fill: #d3d3d3; stroke: #d3d3d3"/>
     <use xlink:href="#m6234867a09" x="139.011024" y="25.528943" style="fill: #d3d3d3; stroke: #d3d3d3"/>
     <use xlink:href="#m6234867a09" x="139.011024" y="25.528943" style="fill: #d3d3d3; stroke: #d3d3d3"/>
     <use xlink:href="#m6234867a09" x="139.011024" y="25.528943" style="fill: #d3d3d3; stroke: #d3d3d3"/>
     <use xlink:href="#m6234867a09" x="139.011024" y="25.528943" style="fill: #d3d3d3; stroke: #d3d3d3"/>
     <use xlink:href="#m6234867a09" x="139.011024" y="25.528943" style="fill: #d3d3d3; stroke: #d3d3d3"/>
     <use xlink:href="#m6234867a09" x="258.839227" y="214.554331" style="fill: #d3d3d3; stroke: #d3d3d3"/>
     <use xlink:href="#m6234867a09" x="258.839227" y="214.554331" style="fill: #d3d3d3; stroke: #d3d3d3"/>
     <use xlink:href="#m6234867a09" x="258.839227" y="214.554331" style="fill: #d3d3d3; stroke: #d3d3d3"/>
     <use xlink:href="#m6234867a09" x="258.839227" y="214.554331" style="fill: #d3d3d3; stroke: #d3d3d3"/>
     <use xlink:href="#m6234867a09" x="258.839227" y="214.554331" style="fill: #d3d3d3; stroke: #d3d3d3"/>
     <use xlink:href="#m6234867a09" x="258.839227" y="214.554331" style="fill: #d3d3d3; stroke: #d3d3d3"/>
     <use xlink:href="#m6234867a09" x="258.839227" y="214.554331" style="fill: #d3d3d3; stroke: #d3d3d3"/>
     <use xlink:href="#m6234867a09" x="258.839227" y="214.554331" style="fill: #d3d3d3; stroke: #d3d3d3"/>
     <use xlink:href="#m6234867a09" x="258.839227" y="214.554331" style="fill: #d3d3d3; stroke: #d3d3d3"/>
     <use xlink:href="#m6234867a09" x="198.925125" y="120.041637" style="fill: #d3d3d3; stroke: #d3d3d3"/>
     <use xlink:href="#m6234867a09" x="168.968074" y="72.78529" style="fill: #d3d3d3; stroke: #d3d3d3"/>
     <use xlink:href="#m6234867a09" x="168.968074" y="72.78529" style="fill: #d3d3d3; stroke: #d3d3d3"/>
     <use xlink:href="#m6234867a09" x="168.968074" y="72.78529" style="fill: #d3d3d3; stroke: #d3d3d3"/>
     <use xlink:href="#m6234867a09" x="162.976664" y="63.334021" style="fill: #d3d3d3; stroke: #d3d3d3"/>
     <use xlink:href="#m6234867a09" x="218.896492" y="151.545868" style="fill: #d3d3d3; stroke: #d3d3d3"/>
     <use xlink:href="#m6234867a09" x="218.896492" y="151.545868" style="fill: #d3d3d3; stroke: #d3d3d3"/>
     <use xlink:href="#m6234867a09" x="228.882176" y="167.297984" style="fill: #d3d3d3; stroke: #d3d3d3"/>
     <use xlink:href="#m6234867a09" x="228.882176" y="167.297984" style="fill: #d3d3d3; stroke: #d3d3d3"/>
     <use xlink:href="#m6234867a09" x="210.907946" y="138.944176" style="fill: #d3d3d3; stroke: #d3d3d3"/>
     <use xlink:href="#m6234867a09" x="164.238014" y="65.323762" style="fill: #d3d3d3; stroke: #d3d3d3"/>
     <use xlink:href="#m6234867a09" x="19.18282" y="214.554331" style="fill: #d3d3d3; stroke: #d3d3d3"/>
     <use xlink:href="#m6234867a09" x="19.18282" y="214.554331" style="fill: #d3d3d3; stroke: #d3d3d3"/>
     <use xlink:href="#m6234867a09" x="19.18282" y="214.554331" style="fill: #d3d3d3; stroke: #d3d3d3"/>
     <use xlink:href="#m6234867a09" x="19.18282" y="214.554331" style="fill: #d3d3d3; stroke: #d3d3d3"/>
     <use xlink:href="#m6234867a09" x="119.039656" y="57.033175" style="fill: #d3d3d3; stroke: #d3d3d3"/>
     <use xlink:href="#m6234867a09" x="139.011024" y="88.537406" style="fill: #d3d3d3; stroke: #d3d3d3"/>
     <use xlink:href="#m6234867a09" x="198.925125" y="214.554331" style="fill: #d3d3d3; stroke: #d3d3d3"/>
     <use xlink:href="#m6234867a09" x="198.925125" y="214.554331" style="fill: #d3d3d3; stroke: #d3d3d3"/>
     <use xlink:href="#m6234867a09" x="198.925125" y="214.554331" style="fill: #d3d3d3; stroke: #d3d3d3"/>
     <use xlink:href="#m6234867a09" x="115.045383" y="214.554331" style="fill: #d3d3d3; stroke: #d3d3d3"/>
     <use xlink:href="#m6234867a09" x="67.114102" y="214.554331" style="fill: #d3d3d3; stroke: #d3d3d3"/>
    </g>
   </g>
   <g id="PathCollection_3">
    <defs>
     <path id="m89e0e77ebf" d="M 0 -5 
L -1.12257 -1.545085 
L -4.755283 -1.545085 
L -1.816356 0.59017 
L -2.938926 4.045085 
L -0 1.90983 
L 2.938926 4.045085 
L 1.816356 0.59017 
L 4.755283 -1.545085 
L 1.12257 -1.545085 
z
" style="stroke: #ff0000"/>
    </defs>
    <g clip-path="url(#p23af8121db)">
     <use xlink:href="#m89e0e77ebf" x="203.533902" y="156.392673" style="fill: #ff0000; stroke: #ff0000"/>
    </g>
   </g>
   <g id="text_1">
    <!-- $\mathrm{Al}$ -->
    <g transform="translate(249.389691 211.215873) scale(0.1 -0.1)">
     <defs>
      <path id="DejaVuSans-41" d="M 2188 4044 
L 1331 1722 
L 3047 1722 
L 2188 4044 
z
M 1831 4666 
L 2547 4666 
L 4325 0 
L 3669 0 
L 3244 1197 
L 1141 1197 
L 716 0 
L 50 0 
L 1831 4666 
z
" transform="scale(0.015625)"/>
      <path id="DejaVuSans-6c" d="M 603 4863 
L 1178 4863 
L 1178 0 
L 603 0 
L 603 4863 
z
" transform="scale(0.015625)"/>
     </defs>
     <use xlink:href="#DejaVuSans-41" transform="translate(0 0.015625)"/>
     <use xlink:href="#DejaVuSans-6c" transform="translate(68.408203 0.015625)"/>
    </g>
   </g>
   <g id="text_2">
    <!-- $\mathrm{HoAlCu}$ -->
    <g transform="translate(139.038296 155.378101) scale(0.1 -0.1)">
     <defs>
      <path id="DejaVuSans-48" d="M 628 4666 
L 1259 4666 
L 1259 2753 
L 3553 2753 
L 3553 4666 
L 4184 4666 
L 4184 0 
L 3553 0 
L 3553 2222 
L 1259 2222 
L 1259 0 
L 628 0 
L 628 4666 
z
" transform="scale(0.015625)"/>
      <path id="DejaVuSans-6f" d="M 1959 3097 
Q 1497 3097 1228 2736 
Q 959 2375 959 1747 
Q 959 1119 1226 758 
Q 1494 397 1959 397 
Q 2419 397 2687 759 
Q 2956 1122 2956 1747 
Q 2956 2369 2687 2733 
Q 2419 3097 1959 3097 
z
M 1959 3584 
Q 2709 3584 3137 3096 
Q 3566 2609 3566 1747 
Q 3566 888 3137 398 
Q 2709 -91 1959 -91 
Q 1206 -91 779 398 
Q 353 888 353 1747 
Q 353 2609 779 3096 
Q 1206 3584 1959 3584 
z
" transform="scale(0.015625)"/>
      <path id="DejaVuSans-43" d="M 4122 4306 
L 4122 3641 
Q 3803 3938 3442 4084 
Q 3081 4231 2675 4231 
Q 1875 4231 1450 3742 
Q 1025 3253 1025 2328 
Q 1025 1406 1450 917 
Q 1875 428 2675 428 
Q 3081 428 3442 575 
Q 3803 722 4122 1019 
L 4122 359 
Q 3791 134 3420 21 
Q 3050 -91 2638 -91 
Q 1578 -91 968 557 
Q 359 1206 359 2328 
Q 359 3453 968 4101 
Q 1578 4750 2638 4750 
Q 3056 4750 3426 4639 
Q 3797 4528 4122 4306 
z
" transform="scale(0.015625)"/>
      <path id="DejaVuSans-75" d="M 544 1381 
L 544 3500 
L 1119 3500 
L 1119 1403 
Q 1119 906 1312 657 
Q 1506 409 1894 409 
Q 2359 409 2629 706 
Q 2900 1003 2900 1516 
L 2900 3500 
L 3475 3500 
L 3475 0 
L 2900 0 
L 2900 538 
Q 2691 219 2414 64 
Q 2138 -91 1772 -91 
Q 1169 -91 856 284 
Q 544 659 544 1381 
z
M 1991 3584 
L 1991 3584 
z
" transform="scale(0.015625)"/>
     </defs>
     <use xlink:href="#DejaVuSans-48" transform="translate(0 0.015625)"/>
     <use xlink:href="#DejaVuSans-6f" transform="translate(75.195312 0.015625)"/>
     <use xlink:href="#DejaVuSans-41" transform="translate(136.376953 0.015625)"/>
     <use xlink:href="#DejaVuSans-6c" transform="translate(204.785156 0.015625)"/>
     <use xlink:href="#DejaVuSans-43" transform="translate(232.568359 0.015625)"/>
     <use xlink:href="#DejaVuSans-75" transform="translate(302.392578 0.015625)"/>
    </g>
   </g>
   <g id="text_3">
    <!-- $\mathrm{Ho_{2}Al}$ -->
    <g transform="translate(91.563744 210.544971) scale(0.1 -0.1)">
     <defs>
      <path id="DejaVuSans-32" d="M 1228 531 
L 3431 531 
L 3431 0 
L 469 0 
L 469 531 
Q 828 903 1448 1529 
Q 2069 2156 2228 2338 
Q 2531 2678 2651 2914 
Q 2772 3150 2772 3378 
Q 2772 3750 2511 3984 
Q 2250 4219 1831 4219 
Q 1534 4219 1204 4116 
Q 875 4013 500 3803 
L 500 4441 
Q 881 4594 1212 4672 
Q 1544 4750 1819 4750 
Q 2544 4750 2975 4387 
Q 3406 4025 3406 3419 
Q 3406 3131 3298 2873 
Q 3191 2616 2906 2266 
Q 2828 2175 2409 1742 
Q 1991 1309 1228 531 
z
" transform="scale(0.015625)"/>
     </defs>
     <use xlink:href="#DejaVuSans-48" transform="translate(0 0.015625)"/>
     <use xlink:href="#DejaVuSans-6f" transform="translate(75.195312 0.015625)"/>
     <use xlink:href="#DejaVuSans-32" transform="translate(137.333984 -16.390625) scale(0.7)"/>
     <use xlink:href="#DejaVuSans-41" transform="translate(184.604492 0.015625)"/>
     <use xlink:href="#DejaVuSans-6c" transform="translate(253.012695 0.015625)"/>
    </g>
   </g>
   <g id="text_4">
    <!-- $\mathrm{HoAl_{2}}$ -->
    <g transform="translate(171.449213 210.544971) scale(0.1 -0.1)">
     <use xlink:href="#DejaVuSans-48" transform="translate(0 0.015625)"/>
     <use xlink:href="#DejaVuSans-6f" transform="translate(75.195312 0.015625)"/>
     <use xlink:href="#DejaVuSans-41" transform="translate(136.376953 0.015625)"/>
     <use xlink:href="#DejaVuSans-6c" transform="translate(204.785156 0.015625)"/>
     <use xlink:href="#DejaVuSans-32" transform="translate(233.525391 -16.390625) scale(0.7)"/>
    </g>
   </g>
   <g id="text_5">
    <!-- $\mathrm{HoAl_{3}Cu}$ -->
    <g transform="translate(152.49685 185.697136) scale(0.1 -0.1)">
     <defs>
      <path id="DejaVuSans-33" d="M 2597 2516 
Q 3050 2419 3304 2112 
Q 3559 1806 3559 1356 
Q 3559 666 3084 287 
Q 2609 -91 1734 -91 
Q 1441 -91 1130 -33 
Q 819 25 488 141 
L 488 750 
Q 750 597 1062 519 
Q 1375 441 1716 441 
Q 2309 441 2620 675 
Q 2931 909 2931 1356 
Q 2931 1769 2642 2001 
Q 2353 2234 1838 2234 
L 1294 2234 
L 1294 2753 
L 1863 2753 
Q 2328 2753 2575 2939 
Q 2822 3125 2822 3475 
Q 2822 3834 2567 4026 
Q 2313 4219 1838 4219 
Q 1578 4219 1281 4162 
Q 984 4106 628 3988 
L 628 4550 
Q 988 4650 1302 4700 
Q 1616 4750 1894 4750 
Q 2613 4750 3031 4423 
Q 3450 4097 3450 3541 
Q 3450 3153 3228 2886 
Q 3006 2619 2597 2516 
z
" transform="scale(0.015625)"/>
     </defs>
     <use xlink:href="#DejaVuSans-48" transform="translate(0 0.015625)"/>
     <use xlink:href="#DejaVuSans-6f" transform="translate(75.195312 0.015625)"/>
     <use xlink:href="#DejaVuSans-41" transform="translate(136.376953 0.015625)"/>
     <use xlink:href="#DejaVuSans-6c" transform="translate(204.785156 0.015625)"/>
     <use xlink:href="#DejaVuSans-33" transform="translate(233.525391 -16.390625) scale(0.7)"/>
     <use xlink:href="#DejaVuSans-43" transform="translate(280.795898 0.015625)"/>
     <use xlink:href="#DejaVuSans-75" transform="translate(350.620117 0.015625)"/>
    </g>
   </g>
   <g id="text_6">
    <!-- $\mathrm{HoCu}$ -->
    <g transform="translate(57.742377 127.6151) scale(0.1 -0.1)">
     <use xlink:href="#DejaVuSans-48" transform="translate(0 0.78125)"/>
     <use xlink:href="#DejaVuSans-6f" transform="translate(75.195312 0.78125)"/>
     <use xlink:href="#DejaVuSans-43" transform="translate(136.376953 0.78125)"/>
     <use xlink:href="#DejaVuSans-75" transform="translate(206.201172 0.78125)"/>
    </g>
   </g>
   <g id="text_7">
    <!-- $\mathrm{HoCu_{2}}$ -->
    <g transform="translate(74.004653 96.76175) scale(0.1 -0.1)">
     <use xlink:href="#DejaVuSans-48" transform="translate(0 0.78125)"/>
     <use xlink:href="#DejaVuSans-6f" transform="translate(75.195312 0.78125)"/>
     <use xlink:href="#DejaVuSans-43" transform="translate(136.376953 0.78125)"/>
     <use xlink:href="#DejaVuSans-75" transform="translate(206.201172 0.78125)"/>
     <use xlink:href="#DejaVuSans-32" transform="translate(270.537109 -15.625) scale(0.7)"/>
    </g>
   </g>
   <g id="text_8">
    <!-- $\mathrm{Ho(AlCu)_{6}}$ -->
    <g transform="translate(142.776067 136.259727) scale(0.1 -0.1)">
     <defs>
      <path id="DejaVuSans-28" d="M 1984 4856 
Q 1566 4138 1362 3434 
Q 1159 2731 1159 2009 
Q 1159 1288 1364 580 
Q 1569 -128 1984 -844 
L 1484 -844 
Q 1016 -109 783 600 
Q 550 1309 550 2009 
Q 550 2706 781 3412 
Q 1013 4119 1484 4856 
L 1984 4856 
z
" transform="scale(0.015625)"/>
      <path id="DejaVuSans-29" d="M 513 4856 
L 1013 4856 
Q 1481 4119 1714 3412 
Q 1947 2706 1947 2009 
Q 1947 1309 1714 600 
Q 1481 -109 1013 -844 
L 513 -844 
Q 928 -128 1133 580 
Q 1338 1288 1338 2009 
Q 1338 2731 1133 3434 
Q 928 4138 513 4856 
z
" transform="scale(0.015625)"/>
      <path id="DejaVuSans-36" d="M 2113 2584 
Q 1688 2584 1439 2293 
Q 1191 2003 1191 1497 
Q 1191 994 1439 701 
Q 1688 409 2113 409 
Q 2538 409 2786 701 
Q 3034 994 3034 1497 
Q 3034 2003 2786 2293 
Q 2538 2584 2113 2584 
z
M 3366 4563 
L 3366 3988 
Q 3128 4100 2886 4159 
Q 2644 4219 2406 4219 
Q 1781 4219 1451 3797 
Q 1122 3375 1075 2522 
Q 1259 2794 1537 2939 
Q 1816 3084 2150 3084 
Q 2853 3084 3261 2657 
Q 3669 2231 3669 1497 
Q 3669 778 3244 343 
Q 2819 -91 2113 -91 
Q 1303 -91 875 529 
Q 447 1150 447 2328 
Q 447 3434 972 4092 
Q 1497 4750 2381 4750 
Q 2619 4750 2861 4703 
Q 3103 4656 3366 4563 
z
" transform="scale(0.015625)"/>
     </defs>
     <use xlink:href="#DejaVuSans-48" transform="translate(0 0.015625)"/>
     <use xlink:href="#DejaVuSans-6f" transform="translate(75.195312 0.015625)"/>
     <use xlink:href="#DejaVuSans-28" transform="translate(136.376953 0.015625)"/>
     <use xlink:href="#DejaVuSans-41" transform="translate(175.390625 0.015625)"/>
     <use xlink:href="#DejaVuSans-6c" transform="translate(243.798828 0.015625)"/>
     <use xlink:href="#DejaVuSans-43" transform="translate(271.582031 0.015625)"/>
     <use xlink:href="#DejaVuSans-75" transform="translate(341.40625 0.015625)"/>
     <use xlink:href="#DejaVuSans-29" transform="translate(404.785156 0.015625)"/>
     <use xlink:href="#DejaVuSans-36" transform="translate(444.755859 -16.390625) scale(0.7)"/>
    </g>
   </g>
   <g id="text_9">
    <!-- $\mathrm{Ho_{6}Al_{7}Cu_{16}}$ -->
    <g transform="translate(95.102122 119.212345) scale(0.1 -0.1)">
     <defs>
      <path id="DejaVuSans-37" d="M 525 4666 
L 3525 4666 
L 3525 4397 
L 1831 0 
L 1172 0 
L 2766 4134 
L 525 4134 
L 525 4666 
z
" transform="scale(0.015625)"/>
      <path id="DejaVuSans-31" d="M 794 531 
L 1825 531 
L 1825 4091 
L 703 3866 
L 703 4441 
L 1819 4666 
L 2450 4666 
L 2450 531 
L 3481 531 
L 3481 0 
L 794 0 
L 794 531 
z
" transform="scale(0.015625)"/>
     </defs>
     <use xlink:href="#DejaVuSans-48" transform="translate(0 0.015625)"/>
     <use xlink:href="#DejaVuSans-6f" transform="translate(75.195312 0.015625)"/>
     <use xlink:href="#DejaVuSans-36" transform="translate(137.333984 -16.390625) scale(0.7)"/>
     <use xlink:href="#DejaVuSans-41" transform="translate(184.604492 0.015625)"/>
     <use xlink:href="#DejaVuSans-6c" transform="translate(253.012695 0.015625)"/>
     <use xlink:href="#DejaVuSans-37" transform="translate(281.75293 -16.390625) scale(0.7)"/>
     <use xlink:href="#DejaVuSans-43" transform="translate(329.023438 0.015625)"/>
     <use xlink:href="#DejaVuSans-75" transform="translate(398.847656 0.015625)"/>
     <use xlink:href="#DejaVuSans-31" transform="translate(463.183594 -16.390625) scale(0.7)"/>
     <use xlink:href="#DejaVuSans-36" transform="translate(507.719727 -16.390625) scale(0.7)"/>
    </g>
   </g>
   <g id="text_10">
    <!-- $\mathrm{AlCu_{3}}$ -->
    <g transform="translate(161.613529 68.638869) scale(0.1 -0.1)">
     <use xlink:href="#DejaVuSans-41" transform="translate(0 0.015625)"/>
     <use xlink:href="#DejaVuSans-6c" transform="translate(68.408203 0.015625)"/>
     <use xlink:href="#DejaVuSans-43" transform="translate(96.191406 0.015625)"/>
     <use xlink:href="#DejaVuSans-75" transform="translate(166.015625 0.015625)"/>
     <use xlink:href="#DejaVuSans-33" transform="translate(230.351562 -16.390625) scale(0.7)"/>
    </g>
   </g>
   <g id="text_11">
    <!-- $\mathrm{Al_{4}Cu_{9}}$ -->
    <g transform="translate(175.944876 87.026639) scale(0.1 -0.1)">
     <defs>
      <path id="DejaVuSans-34" d="M 2419 4116 
L 825 1625 
L 2419 1625 
L 2419 4116 
z
M 2253 4666 
L 3047 4666 
L 3047 1625 
L 3713 1625 
L 3713 1100 
L 3047 1100 
L 3047 0 
L 2419 0 
L 2419 1100 
L 313 1100 
L 313 1709 
L 2253 4666 
z
" transform="scale(0.015625)"/>
      <path id="DejaVuSans-39" d="M 703 97 
L 703 672 
Q 941 559 1184 500 
Q 1428 441 1663 441 
Q 2288 441 2617 861 
Q 2947 1281 2994 2138 
Q 2813 1869 2534 1725 
Q 2256 1581 1919 1581 
Q 1219 1581 811 2004 
Q 403 2428 403 3163 
Q 403 3881 828 4315 
Q 1253 4750 1959 4750 
Q 2769 4750 3195 4129 
Q 3622 3509 3622 2328 
Q 3622 1225 3098 567 
Q 2575 -91 1691 -91 
Q 1453 -91 1209 -44 
Q 966 3 703 97 
z
M 1959 2075 
Q 2384 2075 2632 2365 
Q 2881 2656 2881 3163 
Q 2881 3666 2632 3958 
Q 2384 4250 1959 4250 
Q 1534 4250 1286 3958 
Q 1038 3666 1038 3163 
Q 1038 2656 1286 2365 
Q 1534 2075 1959 2075 
z
" transform="scale(0.015625)"/>
     </defs>
     <use xlink:href="#DejaVuSans-41" transform="translate(0 0.015625)"/>
     <use xlink:href="#DejaVuSans-6c" transform="translate(68.408203 0.015625)"/>
     <use xlink:href="#DejaVuSans-34" transform="translate(97.148438 -16.390625) scale(0.7)"/>
     <use xlink:href="#DejaVuSans-43" transform="translate(144.418945 0.015625)"/>
     <use xlink:href="#DejaVuSans-75" transform="translate(214.243164 0.015625)"/>
     <use xlink:href="#DejaVuSans-39" transform="translate(278.579102 -16.390625) scale(0.7)"/>
    </g>
   </g>
   <g id="text_12">
    <!-- $\mathrm{HoAl}$ -->
    <g transform="translate(131.942842 211.215873) scale(0.1 -0.1)">
     <use xlink:href="#DejaVuSans-48" transform="translate(0 0.015625)"/>
     <use xlink:href="#DejaVuSans-6f" transform="translate(75.195312 0.015625)"/>
     <use xlink:href="#DejaVuSans-41" transform="translate(136.376953 0.015625)"/>
     <use xlink:href="#DejaVuSans-6c" transform="translate(204.785156 0.015625)"/>
    </g>
   </g>
   <g id="text_13">
    <!-- $\mathrm{AlCu}$ -->
    <g transform="translate(199.206943 117.014949) scale(0.1 -0.1)">
     <use xlink:href="#DejaVuSans-41" transform="translate(0 0.015625)"/>
     <use xlink:href="#DejaVuSans-6c" transform="translate(68.408203 0.015625)"/>
     <use xlink:href="#DejaVuSans-43" transform="translate(96.191406 0.015625)"/>
     <use xlink:href="#DejaVuSans-75" transform="translate(166.015625 0.015625)"/>
    </g>
   </g>
   <g id="text_14">
    <!-- $\mathrm{Ho}$ -->
    <g transform="translate(19.572371 212.151181) scale(0.1 -0.1)">
     <use xlink:href="#DejaVuSans-48" transform="translate(0 0.09375)"/>
     <use xlink:href="#DejaVuSans-6f" transform="translate(75.195312 0.09375)"/>
    </g>
   </g>
   <g id="text_15">
    <!-- $\mathrm{HoCu_{5}}$ -->
    <g transform="translate(93.97602 65.307519) scale(0.1 -0.1)">
     <defs>
      <path id="DejaVuSans-35" d="M 691 4666 
L 3169 4666 
L 3169 4134 
L 1269 4134 
L 1269 2991 
Q 1406 3038 1543 3061 
Q 1681 3084 1819 3084 
Q 2600 3084 3056 2656 
Q 3513 2228 3513 1497 
Q 3513 744 3044 326 
Q 2575 -91 1722 -91 
Q 1428 -91 1123 -41 
Q 819 9 494 109 
L 494 744 
Q 775 591 1075 516 
Q 1375 441 1709 441 
Q 2250 441 2565 725 
Q 2881 1009 2881 1497 
Q 2881 1984 2565 2268 
Q 2250 2553 1709 2553 
Q 1456 2553 1204 2497 
Q 953 2441 691 2322 
L 691 4666 
z
" transform="scale(0.015625)"/>
     </defs>
     <use xlink:href="#DejaVuSans-48" transform="translate(0 0.78125)"/>
     <use xlink:href="#DejaVuSans-6f" transform="translate(75.195312 0.78125)"/>
     <use xlink:href="#DejaVuSans-43" transform="translate(136.376953 0.78125)"/>
     <use xlink:href="#DejaVuSans-75" transform="translate(206.201172 0.78125)"/>
     <use xlink:href="#DejaVuSans-35" transform="translate(270.537109 -15.625) scale(0.7)"/>
    </g>
   </g>
   <g id="text_16">
    <!-- $\mathrm{HoAl_{3}}$ -->
    <g transform="translate(198.62058 210.594971) scale(0.1 -0.1)">
     <use xlink:href="#DejaVuSans-48" transform="translate(0 0.015625)"/>
     <use xlink:href="#DejaVuSans-6f" transform="translate(75.195312 0.015625)"/>
     <use xlink:href="#DejaVuSans-41" transform="translate(136.376953 0.015625)"/>
     <use xlink:href="#DejaVuSans-6c" transform="translate(204.785156 0.015625)"/>
     <use xlink:href="#DejaVuSans-33" transform="translate(233.525391 -16.390625) scale(0.7)"/>
    </g>
   </g>
   <g id="text_17">
    <!-- $\mathrm{Al_{2}Cu}$ -->
    <g transform="translate(211.541947 144.926045) scale(0.1 -0.1)">
     <use xlink:href="#DejaVuSans-41" transform="translate(0 0.015625)"/>
     <use xlink:href="#DejaVuSans-6c" transform="translate(68.408203 0.015625)"/>
     <use xlink:href="#DejaVuSans-32" transform="translate(97.148438 -16.390625) scale(0.7)"/>
     <use xlink:href="#DejaVuSans-43" transform="translate(144.418945 0.015625)"/>
     <use xlink:href="#DejaVuSans-75" transform="translate(214.243164 0.015625)"/>
    </g>
   </g>
   <g id="text_18">
    <!-- $\mathrm{Cu}$ -->
    <g transform="translate(130.347387 33.102406) scale(0.1 -0.1)">
     <use xlink:href="#DejaVuSans-43" transform="translate(0 0.78125)"/>
     <use xlink:href="#DejaVuSans-75" transform="translate(69.824219 0.78125)"/>
    </g>
   </g>
   <g id="text_19">
    <!-- $\mathrm{Ho(Al_{2}Cu)_{4}}$ -->
    <g style="fill: #ff0000" transform="translate(202.911522 164.667018) scale(0.1 -0.1)">
     <use xlink:href="#DejaVuSans-48" transform="translate(0 0.015625)"/>
     <use xlink:href="#DejaVuSans-6f" transform="translate(75.195312 0.015625)"/>
     <use xlink:href="#DejaVuSans-28" transform="translate(136.376953 0.015625)"/>
     <use xlink:href="#DejaVuSans-41" transform="translate(175.390625 0.015625)"/>
     <use xlink:href="#DejaVuSans-6c" transform="translate(243.798828 0.015625)"/>
     <use xlink:href="#DejaVuSans-32" transform="translate(272.539062 -16.390625) scale(0.7)"/>
     <use xlink:href="#DejaVuSans-43" transform="translate(319.80957 0.015625)"/>
     <use xlink:href="#DejaVuSans-75" transform="translate(389.633789 0.015625)"/>
     <use xlink:href="#DejaVuSans-29" transform="translate(453.012695 0.015625)"/>
     <use xlink:href="#DejaVuSans-34" transform="translate(492.983398 -16.390625) scale(0.7)"/>
    </g>
   </g>
  </g>
  <g id="axes_2">
   <g id="patch_3">
    <path d="M 287.298425 195.703937 
L 296.029134 195.703937 
L 296.029134 36.96378 
L 287.298425 36.96378 
L 287.298425 195.703937 
z
" style="fill: none"/>
   </g>
   <g id="patch_4">
    <path d="M 287.298425 195.703937 
L 291.66378 203.640945 
L 296.029134 195.703937 
" style="fill: #440154; opacity: 0.7"/>
   </g>
   <g id="patch_5">
    <path d="M 287.298425 36.96378 
L 291.66378 29.026772 
L 296.029134 36.96378 
" style="fill: #fde725; opacity: 0.7"/>
   </g>
   <g id="QuadMesh_1">
    <path d="M 287.298425 195.703937 
L 296.029134 195.703937 
L 296.029134 190.893629 
L 287.298425 190.893629 
L 287.298425 195.703937 
" clip-path="url(#pa0ab4f6d23)" style="fill: #450559; fill-opacity: 0.7"/>
    <path d="M 287.298425 190.893629 
L 296.029134 190.893629 
L 296.029134 186.083321 
L 287.298425 186.083321 
L 287.298425 190.893629 
" clip-path="url(#pa0ab4f6d23)" style="fill: #471164; fill-opacity: 0.7"/>
    <path d="M 287.298425 186.083321 
L 296.029134 186.083321 
L 296.029134 181.273014 
L 287.298425 181.273014 
L 287.298425 186.083321 
" clip-path="url(#pa0ab4f6d23)" style="fill: #481c6e; fill-opacity: 0.7"/>
    <path d="M 287.298425 181.273014 
L 296.029134 181.273014 
L 296.029134 176.462706 
L 287.298425 176.462706 
L 287.298425 181.273014 
" clip-path="url(#pa0ab4f6d23)" style="fill: #482677; fill-opacity: 0.7"/>
    <path d="M 287.298425 176.462706 
L 296.029134 176.462706 
L 296.029134 171.652398 
L 287.298425 171.652398 
L 287.298425 176.462706 
" clip-path="url(#pa0ab4f6d23)" style="fill: #472f7d; fill-opacity: 0.7"/>
    <path d="M 287.298425 171.652398 
L 296.029134 171.652398 
L 296.029134 166.84209 
L 287.298425 166.84209 
L 287.298425 171.652398 
" clip-path="url(#pa0ab4f6d23)" style="fill: #443983; fill-opacity: 0.7"/>
    <path d="M 287.298425 166.84209 
L 296.029134 166.84209 
L 296.029134 162.031782 
L 287.298425 162.031782 
L 287.298425 166.84209 
" clip-path="url(#pa0ab4f6d23)" style="fill: #414287; fill-opacity: 0.7"/>
    <path d="M 287.298425 162.031782 
L 296.029134 162.031782 
L 296.029134 157.221475 
L 287.298425 157.221475 
L 287.298425 162.031782 
" clip-path="url(#pa0ab4f6d23)" style="fill: #3e4c8a; fill-opacity: 0.7"/>
    <path d="M 287.298425 157.221475 
L 296.029134 157.221475 
L 296.029134 152.411167 
L 287.298425 152.411167 
L 287.298425 157.221475 
" clip-path="url(#pa0ab4f6d23)" style="fill: #3a538b; fill-opacity: 0.7"/>
    <path d="M 287.298425 152.411167 
L 296.029134 152.411167 
L 296.029134 147.600859 
L 287.298425 147.600859 
L 287.298425 152.411167 
" clip-path="url(#pa0ab4f6d23)" style="fill: #365c8d; fill-opacity: 0.7"/>
    <path d="M 287.298425 147.600859 
L 296.029134 147.600859 
L 296.029134 142.790551 
L 287.298425 142.790551 
L 287.298425 147.600859 
" clip-path="url(#pa0ab4f6d23)" style="fill: #32648e; fill-opacity: 0.7"/>
    <path d="M 287.298425 142.790551 
L 296.029134 142.790551 
L 296.029134 137.980243 
L 287.298425 137.980243 
L 287.298425 142.790551 
" clip-path="url(#pa0ab4f6d23)" style="fill: #2f6c8e; fill-opacity: 0.7"/>
    <path d="M 287.298425 137.980243 
L 296.029134 137.980243 
L 296.029134 133.169936 
L 287.298425 133.169936 
L 287.298425 137.980243 
" clip-path="url(#pa0ab4f6d23)" style="fill: #2c728e; fill-opacity: 0.7"/>
    <path d="M 287.298425 133.169936 
L 296.029134 133.169936 
L 296.029134 128.359628 
L 287.298425 128.359628 
L 287.298425 133.169936 
" clip-path="url(#pa0ab4f6d23)" style="fill: #297a8e; fill-opacity: 0.7"/>
    <path d="M 287.298425 128.359628 
L 296.029134 128.359628 
L 296.029134 123.54932 
L 287.298425 123.54932 
L 287.298425 128.359628 
" clip-path="url(#pa0ab4f6d23)" style="fill: #26828e; fill-opacity: 0.7"/>
    <path d="M 287.298425 123.54932 
L 296.029134 123.54932 
L 296.029134 118.739012 
L 287.298425 118.739012 
L 287.298425 123.54932 
" clip-path="url(#pa0ab4f6d23)" style="fill: #23898e; fill-opacity: 0.7"/>
    <path d="M 287.298425 118.739012 
L 296.029134 118.739012 
L 296.029134 113.928704 
L 287.298425 113.928704 
L 287.298425 118.739012 
" clip-path="url(#pa0ab4f6d23)" style="fill: #21918c; fill-opacity: 0.7"/>
    <path d="M 287.298425 113.928704 
L 296.029134 113.928704 
L 296.029134 109.118397 
L 287.298425 109.118397 
L 287.298425 113.928704 
" clip-path="url(#pa0ab4f6d23)" style="fill: #1f978b; fill-opacity: 0.7"/>
    <path d="M 287.298425 109.118397 
L 296.029134 109.118397 
L 296.029134 104.308089 
L 287.298425 104.308089 
L 287.298425 109.118397 
" clip-path="url(#pa0ab4f6d23)" style="fill: #1f9f88; fill-opacity: 0.7"/>
    <path d="M 287.298425 104.308089 
L 296.029134 104.308089 
L 296.029134 99.497781 
L 287.298425 99.497781 
L 287.298425 104.308089 
" clip-path="url(#pa0ab4f6d23)" style="fill: #21a685; fill-opacity: 0.7"/>
    <path d="M 287.298425 99.497781 
L 296.029134 99.497781 
L 296.029134 94.687473 
L 287.298425 94.687473 
L 287.298425 99.497781 
" clip-path="url(#pa0ab4f6d23)" style="fill: #27ad81; fill-opacity: 0.7"/>
    <path d="M 287.298425 94.687473 
L 296.029134 94.687473 
L 296.029134 89.877165 
L 287.298425 89.877165 
L 287.298425 94.687473 
" clip-path="url(#pa0ab4f6d23)" style="fill: #2fb47c; fill-opacity: 0.7"/>
    <path d="M 287.298425 89.877165 
L 296.029134 89.877165 
L 296.029134 85.066858 
L 287.298425 85.066858 
L 287.298425 89.877165 
" clip-path="url(#pa0ab4f6d23)" style="fill: #3bbb75; fill-opacity: 0.7"/>
    <path d="M 287.298425 85.066858 
L 296.029134 85.066858 
L 296.029134 80.25655 
L 287.298425 80.25655 
L 287.298425 85.066858 
" clip-path="url(#pa0ab4f6d23)" style="fill: #4ac16d; fill-opacity: 0.7"/>
    <path d="M 287.298425 80.25655 
L 296.029134 80.25655 
L 296.029134 75.446242 
L 287.298425 75.446242 
L 287.298425 80.25655 
" clip-path="url(#pa0ab4f6d23)" style="fill: #5ac864; fill-opacity: 0.7"/>
    <path d="M 287.298425 75.446242 
L 296.029134 75.446242 
L 296.029134 70.635934 
L 287.298425 70.635934 
L 287.298425 75.446242 
" clip-path="url(#pa0ab4f6d23)" style="fill: #69cd5b; fill-opacity: 0.7"/>
    <path d="M 287.298425 70.635934 
L 296.029134 70.635934 
L 296.029134 65.825626 
L 287.298425 65.825626 
L 287.298425 70.635934 
" clip-path="url(#pa0ab4f6d23)" style="fill: #7cd250; fill-opacity: 0.7"/>
    <path d="M 287.298425 65.825626 
L 296.029134 65.825626 
L 296.029134 61.015319 
L 287.298425 61.015319 
L 287.298425 65.825626 
" clip-path="url(#pa0ab4f6d23)" style="fill: #90d743; fill-opacity: 0.7"/>
    <path d="M 287.298425 61.015319 
L 296.029134 61.015319 
L 296.029134 56.205011 
L 287.298425 56.205011 
L 287.298425 61.015319 
" clip-path="url(#pa0ab4f6d23)" style="fill: #a5db36; fill-opacity: 0.7"/>
    <path d="M 287.298425 56.205011 
L 296.029134 56.205011 
L 296.029134 51.394703 
L 287.298425 51.394703 
L 287.298425 56.205011 
" clip-path="url(#pa0ab4f6d23)" style="fill: #b8de29; fill-opacity: 0.7"/>
    <path d="M 287.298425 51.394703 
L 296.029134 51.394703 
L 296.029134 46.584395 
L 287.298425 46.584395 
L 287.298425 51.394703 
" clip-path="url(#pa0ab4f6d23)" style="fill: #cde11d; fill-opacity: 0.7"/>
    <path d="M 287.298425 46.584395 
L 296.029134 46.584395 
L 296.029134 41.774087 
L 287.298425 41.774087 
L 287.298425 46.584395 
" clip-path="url(#pa0ab4f6d23)" style="fill: #e2e418; fill-opacity: 0.7"/>
    <path d="M 287.298425 41.774087 
L 296.029134 41.774087 
L 296.029134 36.96378 
L 287.298425 36.96378 
L 287.298425 41.774087 
" clip-path="url(#pa0ab4f6d23)" style="fill: #f6e620; fill-opacity: 0.7"/>
   </g>
   <g id="matplotlib.axis_3"/>
   <g id="matplotlib.axis_4">
    <g id="ytick_1">
     <g id="line2d_41">
      <defs>
       <path id="m3164d49f4f" d="M 0 0 
L -2 0 
" style="stroke: #000000; stroke-width: 0.3"/>
      </defs>
      <g>
       <use xlink:href="#m3164d49f4f" x="296.029134" y="190.893629" style="stroke: #000000; stroke-width: 0.3"/>
      </g>
     </g>
     <g id="text_20">
      <!-- 0.495 -->
      <g transform="translate(299.529134 193.756754) scale(0.08 -0.08)">
       <defs>
        <path id="ArialMT-2212" d="M 3381 1997 
L 356 1997 
L 356 2522 
L 3381 2522 
L 3381 1997 
z
" transform="scale(0.015625)"/>
        <path id="ArialMT-30" d="M 266 2259 
Q 266 3072 433 3567 
Q 600 4063 929 4331 
Q 1259 4600 1759 4600 
Q 2128 4600 2406 4451 
Q 2684 4303 2865 4023 
Q 3047 3744 3150 3342 
Q 3253 2941 3253 2259 
Q 3253 1453 3087 958 
Q 2922 463 2592 192 
Q 2263 -78 1759 -78 
Q 1097 -78 719 397 
Q 266 969 266 2259 
z
M 844 2259 
Q 844 1131 1108 757 
Q 1372 384 1759 384 
Q 2147 384 2411 759 
Q 2675 1134 2675 2259 
Q 2675 3391 2411 3762 
Q 2147 4134 1753 4134 
Q 1366 4134 1134 3806 
Q 844 3388 844 2259 
z
" transform="scale(0.015625)"/>
        <path id="ArialMT-2e" d="M 581 0 
L 581 641 
L 1222 641 
L 1222 0 
L 581 0 
z
" transform="scale(0.015625)"/>
        <path id="ArialMT-34" d="M 2069 0 
L 2069 1097 
L 81 1097 
L 81 1613 
L 2172 4581 
L 2631 4581 
L 2631 1613 
L 3250 1613 
L 3250 1097 
L 2631 1097 
L 2631 0 
L 2069 0 
z
M 2069 1613 
L 2069 3678 
L 634 1613 
L 2069 1613 
z
" transform="scale(0.015625)"/>
        <path id="ArialMT-39" d="M 350 1059 
L 891 1109 
Q 959 728 1153 556 
Q 1347 384 1650 384 
Q 1909 384 2104 503 
Q 2300 622 2425 820 
Q 2550 1019 2634 1356 
Q 2719 1694 2719 2044 
Q 2719 2081 2716 2156 
Q 2547 1888 2255 1720 
Q 1963 1553 1622 1553 
Q 1053 1553 659 1965 
Q 266 2378 266 3053 
Q 266 3750 677 4175 
Q 1088 4600 1706 4600 
Q 2153 4600 2523 4359 
Q 2894 4119 3086 3673 
Q 3278 3228 3278 2384 
Q 3278 1506 3087 986 
Q 2897 466 2520 194 
Q 2144 -78 1638 -78 
Q 1100 -78 759 220 
Q 419 519 350 1059 
z
M 2653 3081 
Q 2653 3566 2395 3850 
Q 2138 4134 1775 4134 
Q 1400 4134 1122 3828 
Q 844 3522 844 3034 
Q 844 2597 1108 2323 
Q 1372 2050 1759 2050 
Q 2150 2050 2401 2323 
Q 2653 2597 2653 3081 
z
" transform="scale(0.015625)"/>
        <path id="ArialMT-35" d="M 266 1200 
L 856 1250 
Q 922 819 1161 601 
Q 1400 384 1738 384 
Q 2144 384 2425 690 
Q 2706 997 2706 1503 
Q 2706 1984 2436 2262 
Q 2166 2541 1728 2541 
Q 1456 2541 1237 2417 
Q 1019 2294 894 2097 
L 366 2166 
L 809 4519 
L 3088 4519 
L 3088 3981 
L 1259 3981 
L 1013 2750 
Q 1425 3038 1878 3038 
Q 2478 3038 2890 2622 
Q 3303 2206 3303 1553 
Q 3303 931 2941 478 
Q 2500 -78 1738 -78 
Q 1113 -78 717 272 
Q 322 622 266 1200 
z
" transform="scale(0.015625)"/>
       </defs>
       <use xlink:href="#ArialMT-2212"/>
       <use xlink:href="#ArialMT-30" transform="translate(58.398438 0)"/>
       <use xlink:href="#ArialMT-2e" transform="translate(114.013672 0)"/>
       <use xlink:href="#ArialMT-34" transform="translate(141.796875 0)"/>
       <use xlink:href="#ArialMT-39" transform="translate(197.412109 0)"/>
       <use xlink:href="#ArialMT-35" transform="translate(253.027344 0)"/>
      </g>
     </g>
    </g>
    <g id="ytick_2">
     <g id="line2d_42">
      <g>
       <use xlink:href="#m3164d49f4f" x="296.029134" y="171.652398" style="stroke: #000000; stroke-width: 0.3"/>
      </g>
     </g>
     <g id="text_21">
      <!-- 0.435 -->
      <g transform="translate(299.529134 174.515523) scale(0.08 -0.08)">
       <defs>
        <path id="ArialMT-33" d="M 269 1209 
L 831 1284 
Q 928 806 1161 595 
Q 1394 384 1728 384 
Q 2125 384 2398 659 
Q 2672 934 2672 1341 
Q 2672 1728 2419 1979 
Q 2166 2231 1775 2231 
Q 1616 2231 1378 2169 
L 1441 2663 
Q 1497 2656 1531 2656 
Q 1891 2656 2178 2843 
Q 2466 3031 2466 3422 
Q 2466 3731 2256 3934 
Q 2047 4138 1716 4138 
Q 1388 4138 1169 3931 
Q 950 3725 888 3313 
L 325 3413 
Q 428 3978 793 4289 
Q 1159 4600 1703 4600 
Q 2078 4600 2393 4439 
Q 2709 4278 2876 4000 
Q 3044 3722 3044 3409 
Q 3044 3113 2884 2869 
Q 2725 2625 2413 2481 
Q 2819 2388 3044 2092 
Q 3269 1797 3269 1353 
Q 3269 753 2831 336 
Q 2394 -81 1725 -81 
Q 1122 -81 723 278 
Q 325 638 269 1209 
z
" transform="scale(0.015625)"/>
       </defs>
       <use xlink:href="#ArialMT-2212"/>
       <use xlink:href="#ArialMT-30" transform="translate(58.398438 0)"/>
       <use xlink:href="#ArialMT-2e" transform="translate(114.013672 0)"/>
       <use xlink:href="#ArialMT-34" transform="translate(141.796875 0)"/>
       <use xlink:href="#ArialMT-33" transform="translate(197.412109 0)"/>
       <use xlink:href="#ArialMT-35" transform="translate(253.027344 0)"/>
      </g>
     </g>
    </g>
    <g id="ytick_3">
     <g id="line2d_43">
      <g>
       <use xlink:href="#m3164d49f4f" x="296.029134" y="152.411167" style="stroke: #000000; stroke-width: 0.3"/>
      </g>
     </g>
     <g id="text_22">
      <!-- 0.375 -->
      <g transform="translate(299.529134 155.274292) scale(0.08 -0.08)">
       <defs>
        <path id="ArialMT-37" d="M 303 3981 
L 303 4522 
L 3269 4522 
L 3269 4084 
Q 2831 3619 2401 2847 
Q 1972 2075 1738 1259 
Q 1569 684 1522 0 
L 944 0 
Q 953 541 1156 1306 
Q 1359 2072 1739 2783 
Q 2119 3494 2547 3981 
L 303 3981 
z
" transform="scale(0.015625)"/>
       </defs>
       <use xlink:href="#ArialMT-2212"/>
       <use xlink:href="#ArialMT-30" transform="translate(58.398438 0)"/>
       <use xlink:href="#ArialMT-2e" transform="translate(114.013672 0)"/>
       <use xlink:href="#ArialMT-33" transform="translate(141.796875 0)"/>
       <use xlink:href="#ArialMT-37" transform="translate(197.412109 0)"/>
       <use xlink:href="#ArialMT-35" transform="translate(253.027344 0)"/>
      </g>
     </g>
    </g>
    <g id="ytick_4">
     <g id="line2d_44">
      <g>
       <use xlink:href="#m3164d49f4f" x="296.029134" y="133.169936" style="stroke: #000000; stroke-width: 0.3"/>
      </g>
     </g>
     <g id="text_23">
      <!-- 0.315 -->
      <g transform="translate(299.529134 136.033061) scale(0.08 -0.08)">
       <defs>
        <path id="ArialMT-31" d="M 2384 0 
L 1822 0 
L 1822 3584 
Q 1619 3391 1289 3197 
Q 959 3003 697 2906 
L 697 3450 
Q 1169 3672 1522 3987 
Q 1875 4303 2022 4600 
L 2384 4600 
L 2384 0 
z
" transform="scale(0.015625)"/>
       </defs>
       <use xlink:href="#ArialMT-2212"/>
       <use xlink:href="#ArialMT-30" transform="translate(58.398438 0)"/>
       <use xlink:href="#ArialMT-2e" transform="translate(114.013672 0)"/>
       <use xlink:href="#ArialMT-33" transform="translate(141.796875 0)"/>
       <use xlink:href="#ArialMT-31" transform="translate(197.412109 0)"/>
       <use xlink:href="#ArialMT-35" transform="translate(253.027344 0)"/>
      </g>
     </g>
    </g>
    <g id="ytick_5">
     <g id="line2d_45">
      <g>
       <use xlink:href="#m3164d49f4f" x="296.029134" y="113.928704" style="stroke: #000000; stroke-width: 0.3"/>
      </g>
     </g>
     <g id="text_24">
      <!-- 0.255 -->
      <g transform="translate(299.529134 116.791829) scale(0.08 -0.08)">
       <defs>
        <path id="ArialMT-32" d="M 3222 541 
L 3222 0 
L 194 0 
Q 188 203 259 391 
Q 375 700 629 1000 
Q 884 1300 1366 1694 
Q 2113 2306 2375 2664 
Q 2638 3022 2638 3341 
Q 2638 3675 2398 3904 
Q 2159 4134 1775 4134 
Q 1369 4134 1125 3890 
Q 881 3647 878 3216 
L 300 3275 
Q 359 3922 746 4261 
Q 1134 4600 1788 4600 
Q 2447 4600 2831 4234 
Q 3216 3869 3216 3328 
Q 3216 3053 3103 2787 
Q 2991 2522 2730 2228 
Q 2469 1934 1863 1422 
Q 1356 997 1212 845 
Q 1069 694 975 541 
L 3222 541 
z
" transform="scale(0.015625)"/>
       </defs>
       <use xlink:href="#ArialMT-2212"/>
       <use xlink:href="#ArialMT-30" transform="translate(58.398438 0)"/>
       <use xlink:href="#ArialMT-2e" transform="translate(114.013672 0)"/>
       <use xlink:href="#ArialMT-32" transform="translate(141.796875 0)"/>
       <use xlink:href="#ArialMT-35" transform="translate(197.412109 0)"/>
       <use xlink:href="#ArialMT-35" transform="translate(253.027344 0)"/>
      </g>
     </g>
    </g>
    <g id="ytick_6">
     <g id="line2d_46">
      <g>
       <use xlink:href="#m3164d49f4f" x="296.029134" y="94.687473" style="stroke: #000000; stroke-width: 0.3"/>
      </g>
     </g>
     <g id="text_25">
      <!-- 0.195 -->
      <g transform="translate(299.529134 97.550598) scale(0.08 -0.08)">
       <use xlink:href="#ArialMT-2212"/>
       <use xlink:href="#ArialMT-30" transform="translate(58.398438 0)"/>
       <use xlink:href="#ArialMT-2e" transform="translate(114.013672 0)"/>
       <use xlink:href="#ArialMT-31" transform="translate(141.796875 0)"/>
       <use xlink:href="#ArialMT-39" transform="translate(197.412109 0)"/>
       <use xlink:href="#ArialMT-35" transform="translate(253.027344 0)"/>
      </g>
     </g>
    </g>
    <g id="ytick_7">
     <g id="line2d_47">
      <g>
       <use xlink:href="#m3164d49f4f" x="296.029134" y="75.446242" style="stroke: #000000; stroke-width: 0.3"/>
      </g>
     </g>
     <g id="text_26">
      <!-- 0.135 -->
      <g transform="translate(299.529134 78.309367) scale(0.08 -0.08)">
       <use xlink:href="#ArialMT-2212"/>
       <use xlink:href="#ArialMT-30" transform="translate(58.398438 0)"/>
       <use xlink:href="#ArialMT-2e" transform="translate(114.013672 0)"/>
       <use xlink:href="#ArialMT-31" transform="translate(141.796875 0)"/>
       <use xlink:href="#ArialMT-33" transform="translate(197.412109 0)"/>
       <use xlink:href="#ArialMT-35" transform="translate(253.027344 0)"/>
      </g>
     </g>
    </g>
    <g id="ytick_8">
     <g id="line2d_48">
      <g>
       <use xlink:href="#m3164d49f4f" x="296.029134" y="56.205011" style="stroke: #000000; stroke-width: 0.3"/>
      </g>
     </g>
     <g id="text_27">
      <!-- 0.075 -->
      <g transform="translate(299.529134 59.068136) scale(0.08 -0.08)">
       <use xlink:href="#ArialMT-2212"/>
       <use xlink:href="#ArialMT-30" transform="translate(58.398438 0)"/>
       <use xlink:href="#ArialMT-2e" transform="translate(114.013672 0)"/>
       <use xlink:href="#ArialMT-30" transform="translate(141.796875 0)"/>
       <use xlink:href="#ArialMT-37" transform="translate(197.412109 0)"/>
       <use xlink:href="#ArialMT-35" transform="translate(253.027344 0)"/>
      </g>
     </g>
    </g>
    <g id="ytick_9">
     <g id="line2d_49">
      <g>
       <use xlink:href="#m3164d49f4f" x="296.029134" y="36.96378" style="stroke: #000000; stroke-width: 0.3"/>
      </g>
     </g>
     <g id="text_28">
      <!-- 0.015 -->
      <g transform="translate(299.529134 39.826905) scale(0.08 -0.08)">
       <use xlink:href="#ArialMT-2212"/>
       <use xlink:href="#ArialMT-30" transform="translate(58.398438 0)"/>
       <use xlink:href="#ArialMT-2e" transform="translate(114.013672 0)"/>
       <use xlink:href="#ArialMT-30" transform="translate(141.796875 0)"/>
       <use xlink:href="#ArialMT-31" transform="translate(197.412109 0)"/>
       <use xlink:href="#ArialMT-35" transform="translate(253.027344 0)"/>
      </g>
     </g>
    </g>
    <g id="text_29">
     <!-- Formation Energy (eV/atom) -->
     <g transform="translate(335.498821 179.408077) rotate(-90) scale(0.1 -0.1)">
      <defs>
       <path id="ArialMT-46" d="M 525 0 
L 525 4581 
L 3616 4581 
L 3616 4041 
L 1131 4041 
L 1131 2622 
L 3281 2622 
L 3281 2081 
L 1131 2081 
L 1131 0 
L 525 0 
z
" transform="scale(0.015625)"/>
       <path id="ArialMT-6f" d="M 213 1659 
Q 213 2581 725 3025 
Q 1153 3394 1769 3394 
Q 2453 3394 2887 2945 
Q 3322 2497 3322 1706 
Q 3322 1066 3130 698 
Q 2938 331 2570 128 
Q 2203 -75 1769 -75 
Q 1072 -75 642 372 
Q 213 819 213 1659 
z
M 791 1659 
Q 791 1022 1069 705 
Q 1347 388 1769 388 
Q 2188 388 2466 706 
Q 2744 1025 2744 1678 
Q 2744 2294 2464 2611 
Q 2184 2928 1769 2928 
Q 1347 2928 1069 2612 
Q 791 2297 791 1659 
z
" transform="scale(0.015625)"/>
       <path id="ArialMT-72" d="M 416 0 
L 416 3319 
L 922 3319 
L 922 2816 
Q 1116 3169 1280 3281 
Q 1444 3394 1641 3394 
Q 1925 3394 2219 3213 
L 2025 2691 
Q 1819 2813 1613 2813 
Q 1428 2813 1281 2702 
Q 1134 2591 1072 2394 
Q 978 2094 978 1738 
L 978 0 
L 416 0 
z
" transform="scale(0.015625)"/>
       <path id="ArialMT-6d" d="M 422 0 
L 422 3319 
L 925 3319 
L 925 2853 
Q 1081 3097 1340 3245 
Q 1600 3394 1931 3394 
Q 2300 3394 2536 3241 
Q 2772 3088 2869 2813 
Q 3263 3394 3894 3394 
Q 4388 3394 4653 3120 
Q 4919 2847 4919 2278 
L 4919 0 
L 4359 0 
L 4359 2091 
Q 4359 2428 4304 2576 
Q 4250 2725 4106 2815 
Q 3963 2906 3769 2906 
Q 3419 2906 3187 2673 
Q 2956 2441 2956 1928 
L 2956 0 
L 2394 0 
L 2394 2156 
Q 2394 2531 2256 2718 
Q 2119 2906 1806 2906 
Q 1569 2906 1367 2781 
Q 1166 2656 1075 2415 
Q 984 2175 984 1722 
L 984 0 
L 422 0 
z
" transform="scale(0.015625)"/>
       <path id="ArialMT-61" d="M 2588 409 
Q 2275 144 1986 34 
Q 1697 -75 1366 -75 
Q 819 -75 525 192 
Q 231 459 231 875 
Q 231 1119 342 1320 
Q 453 1522 633 1644 
Q 813 1766 1038 1828 
Q 1203 1872 1538 1913 
Q 2219 1994 2541 2106 
Q 2544 2222 2544 2253 
Q 2544 2597 2384 2738 
Q 2169 2928 1744 2928 
Q 1347 2928 1158 2789 
Q 969 2650 878 2297 
L 328 2372 
Q 403 2725 575 2942 
Q 747 3159 1072 3276 
Q 1397 3394 1825 3394 
Q 2250 3394 2515 3294 
Q 2781 3194 2906 3042 
Q 3031 2891 3081 2659 
Q 3109 2516 3109 2141 
L 3109 1391 
Q 3109 606 3145 398 
Q 3181 191 3288 0 
L 2700 0 
Q 2613 175 2588 409 
z
M 2541 1666 
Q 2234 1541 1622 1453 
Q 1275 1403 1131 1340 
Q 988 1278 909 1158 
Q 831 1038 831 891 
Q 831 666 1001 516 
Q 1172 366 1500 366 
Q 1825 366 2078 508 
Q 2331 650 2450 897 
Q 2541 1088 2541 1459 
L 2541 1666 
z
" transform="scale(0.015625)"/>
       <path id="ArialMT-74" d="M 1650 503 
L 1731 6 
Q 1494 -44 1306 -44 
Q 1000 -44 831 53 
Q 663 150 594 308 
Q 525 466 525 972 
L 525 2881 
L 113 2881 
L 113 3319 
L 525 3319 
L 525 4141 
L 1084 4478 
L 1084 3319 
L 1650 3319 
L 1650 2881 
L 1084 2881 
L 1084 941 
Q 1084 700 1114 631 
Q 1144 563 1211 522 
Q 1278 481 1403 481 
Q 1497 481 1650 503 
z
" transform="scale(0.015625)"/>
       <path id="ArialMT-69" d="M 425 3934 
L 425 4581 
L 988 4581 
L 988 3934 
L 425 3934 
z
M 425 0 
L 425 3319 
L 988 3319 
L 988 0 
L 425 0 
z
" transform="scale(0.015625)"/>
       <path id="ArialMT-6e" d="M 422 0 
L 422 3319 
L 928 3319 
L 928 2847 
Q 1294 3394 1984 3394 
Q 2284 3394 2536 3286 
Q 2788 3178 2913 3003 
Q 3038 2828 3088 2588 
Q 3119 2431 3119 2041 
L 3119 0 
L 2556 0 
L 2556 2019 
Q 2556 2363 2490 2533 
Q 2425 2703 2258 2804 
Q 2091 2906 1866 2906 
Q 1506 2906 1245 2678 
Q 984 2450 984 1813 
L 984 0 
L 422 0 
z
" transform="scale(0.015625)"/>
       <path id="ArialMT-20" transform="scale(0.015625)"/>
       <path id="ArialMT-45" d="M 506 0 
L 506 4581 
L 3819 4581 
L 3819 4041 
L 1113 4041 
L 1113 2638 
L 3647 2638 
L 3647 2100 
L 1113 2100 
L 1113 541 
L 3925 541 
L 3925 0 
L 506 0 
z
" transform="scale(0.015625)"/>
       <path id="ArialMT-65" d="M 2694 1069 
L 3275 997 
Q 3138 488 2766 206 
Q 2394 -75 1816 -75 
Q 1088 -75 661 373 
Q 234 822 234 1631 
Q 234 2469 665 2931 
Q 1097 3394 1784 3394 
Q 2450 3394 2872 2941 
Q 3294 2488 3294 1666 
Q 3294 1616 3291 1516 
L 816 1516 
Q 847 969 1125 678 
Q 1403 388 1819 388 
Q 2128 388 2347 550 
Q 2566 713 2694 1069 
z
M 847 1978 
L 2700 1978 
Q 2663 2397 2488 2606 
Q 2219 2931 1791 2931 
Q 1403 2931 1139 2672 
Q 875 2413 847 1978 
z
" transform="scale(0.015625)"/>
       <path id="ArialMT-67" d="M 319 -275 
L 866 -356 
Q 900 -609 1056 -725 
Q 1266 -881 1628 -881 
Q 2019 -881 2231 -725 
Q 2444 -569 2519 -288 
Q 2563 -116 2559 434 
Q 2191 0 1641 0 
Q 956 0 581 494 
Q 206 988 206 1678 
Q 206 2153 378 2554 
Q 550 2956 876 3175 
Q 1203 3394 1644 3394 
Q 2231 3394 2613 2919 
L 2613 3319 
L 3131 3319 
L 3131 450 
Q 3131 -325 2973 -648 
Q 2816 -972 2473 -1159 
Q 2131 -1347 1631 -1347 
Q 1038 -1347 672 -1080 
Q 306 -813 319 -275 
z
M 784 1719 
Q 784 1066 1043 766 
Q 1303 466 1694 466 
Q 2081 466 2343 764 
Q 2606 1063 2606 1700 
Q 2606 2309 2336 2618 
Q 2066 2928 1684 2928 
Q 1309 2928 1046 2623 
Q 784 2319 784 1719 
z
" transform="scale(0.015625)"/>
       <path id="ArialMT-79" d="M 397 -1278 
L 334 -750 
Q 519 -800 656 -800 
Q 844 -800 956 -737 
Q 1069 -675 1141 -563 
Q 1194 -478 1313 -144 
Q 1328 -97 1363 -6 
L 103 3319 
L 709 3319 
L 1400 1397 
Q 1534 1031 1641 628 
Q 1738 1016 1872 1384 
L 2581 3319 
L 3144 3319 
L 1881 -56 
Q 1678 -603 1566 -809 
Q 1416 -1088 1222 -1217 
Q 1028 -1347 759 -1347 
Q 597 -1347 397 -1278 
z
" transform="scale(0.015625)"/>
       <path id="ArialMT-28" d="M 1497 -1347 
Q 1031 -759 709 28 
Q 388 816 388 1659 
Q 388 2403 628 3084 
Q 909 3875 1497 4659 
L 1900 4659 
Q 1522 4009 1400 3731 
Q 1209 3300 1100 2831 
Q 966 2247 966 1656 
Q 966 153 1900 -1347 
L 1497 -1347 
z
" transform="scale(0.015625)"/>
       <path id="ArialMT-56" d="M 1803 0 
L 28 4581 
L 684 4581 
L 1875 1253 
Q 2019 853 2116 503 
Q 2222 878 2363 1253 
L 3600 4581 
L 4219 4581 
L 2425 0 
L 1803 0 
z
" transform="scale(0.015625)"/>
       <path id="ArialMT-2f" d="M 0 -78 
L 1328 4659 
L 1778 4659 
L 453 -78 
L 0 -78 
z
" transform="scale(0.015625)"/>
       <path id="ArialMT-29" d="M 791 -1347 
L 388 -1347 
Q 1322 153 1322 1656 
Q 1322 2244 1188 2822 
Q 1081 3291 891 3722 
Q 769 4003 388 4659 
L 791 4659 
Q 1378 3875 1659 3084 
Q 1900 2403 1900 1659 
Q 1900 816 1576 28 
Q 1253 -759 791 -1347 
z
" transform="scale(0.015625)"/>
      </defs>
      <use xlink:href="#ArialMT-46"/>
      <use xlink:href="#ArialMT-6f" transform="translate(61.083984 0)"/>
      <use xlink:href="#ArialMT-72" transform="translate(116.699219 0)"/>
      <use xlink:href="#ArialMT-6d" transform="translate(150 0)"/>
      <use xlink:href="#ArialMT-61" transform="translate(233.300781 0)"/>
      <use xlink:href="#ArialMT-74" transform="translate(288.916016 0)"/>
      <use xlink:href="#ArialMT-69" transform="translate(316.699219 0)"/>
      <use xlink:href="#ArialMT-6f" transform="translate(338.916016 0)"/>
      <use xlink:href="#ArialMT-6e" transform="translate(394.53125 0)"/>
      <use xlink:href="#ArialMT-20" transform="translate(450.146484 0)"/>
      <use xlink:href="#ArialMT-45" transform="translate(477.929688 0)"/>
      <use xlink:href="#ArialMT-6e" transform="translate(544.628906 0)"/>
      <use xlink:href="#ArialMT-65" transform="translate(600.244141 0)"/>
      <use xlink:href="#ArialMT-72" transform="translate(655.859375 0)"/>
      <use xlink:href="#ArialMT-67" transform="translate(689.160156 0)"/>
      <use xlink:href="#ArialMT-79" transform="translate(744.775391 0)"/>
      <use xlink:href="#ArialMT-20" transform="translate(794.775391 0)"/>
      <use xlink:href="#ArialMT-28" transform="translate(822.558594 0)"/>
      <use xlink:href="#ArialMT-65" transform="translate(855.859375 0)"/>
      <use xlink:href="#ArialMT-56" transform="translate(911.474609 0)"/>
      <use xlink:href="#ArialMT-2f" transform="translate(978.173828 0)"/>
      <use xlink:href="#ArialMT-61" transform="translate(1005.957031 0)"/>
      <use xlink:href="#ArialMT-74" transform="translate(1061.572266 0)"/>
      <use xlink:href="#ArialMT-6f" transform="translate(1089.355469 0)"/>
      <use xlink:href="#ArialMT-6d" transform="translate(1144.970703 0)"/>
      <use xlink:href="#ArialMT-29" transform="translate(1228.271484 0)"/>
     </g>
    </g>
   </g>
   <g id="LineCollection_1"/>
   <g id="patch_6">
    <path d="M 287.298425 195.703937 
L 291.66378 203.640945 
L 296.029134 195.703937 
L 296.029134 36.96378 
L 291.66378 29.026772 
L 287.298425 36.96378 
L 287.298425 195.703937 
z
" style="fill: none; stroke: #000000; stroke-width: 0.8; stroke-linejoin: miter; stroke-linecap: square"/>
   </g>
  </g>
 </g>
 <defs>
  <clipPath id="p23af8121db">
   <rect x="7.2" y="7.2" width="263.622047" height="218.267717"/>
  </clipPath>
  <clipPath id="pa0ab4f6d23">
   <rect x="287.298425" y="36.96378" width="8.730709" height="158.740157"/>
  </clipPath>
 </defs>
</svg>
