<?xml version="1.0" encoding="utf-8" standalone="no"?>
<!DOCTYPE svg PUBLIC "-//W3C//DTD SVG 1.1//EN"
  "http://www.w3.org/Graphics/SVG/1.1/DTD/svg11.dtd">
<svg xmlns:xlink="http://www.w3.org/1999/xlink" width="344.803509pt" height="232.667717pt" viewBox="0 0 344.803509 232.667717" xmlns="http://www.w3.org/2000/svg" version="1.1">
 <metadata>
  <rdf:RDF xmlns:dc="http://purl.org/dc/elements/1.1/" xmlns:cc="http://creativecommons.org/ns#" xmlns:rdf="http://www.w3.org/1999/02/22-rdf-syntax-ns#">
   <cc:Work>
    <dc:type rdf:resource="http://purl.org/dc/dcmitype/StillImage"/>
    <dc:date>2026-01-27T21:37:41.922461</dc:date>
    <dc:format>image/svg+xml</dc:format>
    <dc:creator>
     <cc:Agent>
      <dc:title>Matplotlib v3.10.8, https://matplotlib.org/</dc:title>
     </cc:Agent>
    </dc:creator>
   </cc:Work>
  </rdf:RDF>
 </metadata>
 <defs>
  <style type="text/css">*{stroke-linejoin: round; stroke-linecap: butt}</style>
 </defs>
 <g id="figure_1">
  <g id="patch_1">
   <path d="M 0 232.667717 
L 344.803509 232.667717 
L 344.803509 0 
L 0 0 
L 0 232.667717 
z
" style="fill: none"/>
  </g>
  <g id="axes_1">
   <g id="patch_2">
    <path d="M 7.2 225.467717 
L 270.822047 225.467717 
L 270.822047 7.2 
L 7.2 7.2 
L 7.2 225.467717 
z
" style="fill: none"/>
   </g>
   <g id="TriContourSet_1">
    <path d="M 78.065875 121.668082 
L 80.778248 121.54073 
L 80.95819 121.509685 
L 81.403079 121.254268 
L 79.865641 118.829006 
L 79.096922 120.041637 
z
" clip-path="url(#p701864ca4a)" style="fill: #440154; fill-opacity: 0.7"/>
    <path d="M 79.865641 118.829006 
L 81.403079 121.254268 
L 80.95819 121.509685 
L 80.778248 121.54073 
L 78.065875 121.668082 
L 76.221017 124.57829 
L 83.786654 124.223065 
L 84.28857 124.136471 
L 85.529501 123.424037 
L 81.241115 116.659237 
z
" clip-path="url(#p701864ca4a)" style="fill: #450559; fill-opacity: 0.7"/>
    <path d="M 81.241115 116.659237 
L 85.529501 123.424037 
L 84.28857 124.136471 
L 83.786654 124.223065 
L 76.221017 124.57829 
L 74.376159 127.488498 
L 86.795061 126.905401 
L 87.618949 126.763258 
L 89.655923 125.593806 
L 82.616589 114.489468 
z
" clip-path="url(#p701864ca4a)" style="fill: #470e61; fill-opacity: 0.7"/>
    <path d="M 82.616589 114.489468 
L 89.655923 125.593806 
L 87.618949 126.763258 
L 86.795061 126.905401 
L 74.376159 127.488498 
L 72.531301 130.398706 
L 89.803467 129.587736 
L 90.949329 129.390045 
L 93.782345 127.763575 
L 83.992063 112.319699 
z
" clip-path="url(#p701864ca4a)" style="fill: #481769; fill-opacity: 0.7"/>
    <path d="M 83.992063 112.319699 
L 93.782345 127.763575 
L 90.949329 129.390045 
L 89.803467 129.587736 
L 72.531301 130.398706 
L 70.686443 133.308914 
L 92.811873 132.270072 
L 94.279708 132.016831 
L 97.908768 129.933344 
L 85.367537 110.14993 
z
" clip-path="url(#p701864ca4a)" style="fill: #481f70; fill-opacity: 0.7"/>
    <path d="M 85.367537 110.14993 
L 97.908768 129.933344 
L 94.279708 132.016831 
L 92.811873 132.270072 
L 70.686443 133.308914 
L 68.841585 136.219122 
L 95.82028 134.952408 
L 97.610087 134.643618 
L 102.03519 132.103113 
L 86.743011 107.980161 
z
" clip-path="url(#p701864ca4a)" style="fill: #482677; fill-opacity: 0.7"/>
    <path d="M 86.743011 107.980161 
L 102.03519 132.103113 
L 97.610087 134.643618 
L 95.82028 134.952408 
L 68.841585 136.219122 
L 66.996727 139.12933 
L 98.828686 137.634743 
L 100.940467 137.270405 
L 106.161612 134.272882 
L 88.118485 105.810392 
z
" clip-path="url(#p701864ca4a)" style="fill: #472e7c; fill-opacity: 0.7"/>
    <path d="M 88.118485 105.810392 
L 106.161612 134.272882 
L 100.940467 137.270405 
L 98.828686 137.634743 
L 66.996727 139.12933 
L 65.151869 142.039538 
L 101.837093 140.317079 
L 104.270846 139.897191 
L 110.288034 136.442651 
L 89.493959 103.640623 
z
" clip-path="url(#p701864ca4a)" style="fill: #453581; fill-opacity: 0.7"/>
    <path d="M 89.493959 103.640623 
L 110.288034 136.442651 
L 104.270846 139.897191 
L 101.837093 140.317079 
L 65.151869 142.039538 
L 63.307011 144.949746 
L 104.845499 142.999415 
L 107.601226 142.523978 
L 114.414456 138.612419 
L 90.869433 101.470855 
z
" clip-path="url(#p701864ca4a)" style="fill: #433d84; fill-opacity: 0.7"/>
    <path d="M 90.869433 101.470855 
L 114.414456 138.612419 
L 107.601226 142.523978 
L 104.845499 142.999415 
L 63.307011 144.949746 
L 61.462153 147.859954 
L 107.853906 145.68175 
L 110.931605 145.150765 
L 118.540878 140.782188 
L 92.244907 99.301086 
z
" clip-path="url(#p701864ca4a)" style="fill: #414487; fill-opacity: 0.7"/>
    <path d="M 92.244907 99.301086 
L 118.540878 140.782188 
L 110.931605 145.150765 
L 107.853906 145.68175 
L 61.462153 147.859954 
L 59.617295 150.770162 
L 110.862312 148.364086 
L 114.261984 147.777551 
L 122.6673 142.951957 
L 93.620381 97.131317 
z
" clip-path="url(#p701864ca4a)" style="fill: #3e4a89; fill-opacity: 0.7"/>
    <path d="M 93.620381 97.131317 
L 122.6673 142.951957 
L 114.261984 147.777551 
L 110.862312 148.364086 
L 59.617295 150.770162 
L 57.772437 153.68037 
L 113.870719 151.046422 
L 117.592364 150.404338 
L 126.793722 145.121726 
L 94.995855 94.961548 
z
" clip-path="url(#p701864ca4a)" style="fill: #3b528b; fill-opacity: 0.7"/>
    <path d="M 94.995855 94.961548 
L 126.793722 145.121726 
L 117.592364 150.404338 
L 113.870719 151.046422 
L 57.772437 153.68037 
L 55.927579 156.590578 
L 116.879125 153.728757 
L 120.922743 153.031125 
L 130.920144 147.291495 
L 96.371329 92.791779 
z
" clip-path="url(#p701864ca4a)" style="fill: #38598c; fill-opacity: 0.7"/>
    <path d="M 96.371329 92.791779 
L 130.920144 147.291495 
L 120.922743 153.031125 
L 116.879125 153.728757 
L 55.927579 156.590578 
L 54.082721 159.500786 
L 119.887532 156.411093 
L 124.253122 155.657911 
L 135.046566 149.461264 
L 97.746803 90.62201 
z
" clip-path="url(#p701864ca4a)" style="fill: #355f8d; fill-opacity: 0.7"/>
    <path d="M 97.746803 90.62201 
L 135.046566 149.461264 
L 124.253122 155.657911 
L 119.887532 156.411093 
L 54.082721 159.500786 
L 53.41945 160.547077 
L 52.583464 161.865819 
L 54.558305 162.104053 
L 56.017108 162.186168 
L 57.375828 162.169755 
L 122.895938 159.093429 
L 127.583502 158.284698 
L 139.172988 151.631033 
L 99.122277 88.452241 
z
" clip-path="url(#p701864ca4a)" style="fill: #32658e; fill-opacity: 0.7"/>
    <path d="M 99.122277 88.452241 
L 139.172988 151.631033 
L 127.583502 158.284698 
L 122.895938 159.093429 
L 57.375828 162.169755 
L 56.017108 162.186168 
L 54.558305 162.104053 
L 52.583464 161.865819 
L 51.278207 163.924824 
L 56.336446 164.53502 
L 60.072935 164.745347 
L 63.553078 164.703305 
L 125.904345 161.775764 
L 130.913881 160.911485 
L 143.29941 153.800802 
L 100.497751 86.282472 
z
" clip-path="url(#p701864ca4a)" style="fill: #2f6b8e; fill-opacity: 0.7"/>
    <path d="M 100.497751 86.282472 
L 143.29941 153.800802 
L 130.913881 160.911485 
L 125.904345 161.775764 
L 63.553078 164.703305 
L 60.072935 164.745347 
L 56.336446 164.53502 
L 51.278207 163.924824 
L 49.972949 165.983828 
L 58.114586 166.965988 
L 64.128763 167.304525 
L 69.730328 167.236856 
L 128.912751 164.4581 
L 134.244261 163.538271 
L 147.425832 155.970571 
L 101.873225 84.112703 
z
" clip-path="url(#p701864ca4a)" style="fill: #2d718e; fill-opacity: 0.7"/>
    <path d="M 101.873225 84.112703 
L 147.425832 155.970571 
L 134.244261 163.538271 
L 128.912751 164.4581 
L 69.730328 167.236856 
L 64.128763 167.304525 
L 58.114586 166.965988 
L 49.972949 165.983828 
L 48.667692 168.042832 
L 59.892726 169.396956 
L 68.18459 169.863703 
L 75.907578 169.770407 
L 131.921158 167.140436 
L 137.57464 166.165058 
L 151.552254 158.14034 
L 103.248699 81.942935 
z
" clip-path="url(#p701864ca4a)" style="fill: #2a768e; fill-opacity: 0.7"/>
    <path d="M 103.248699 81.942935 
L 151.552254 158.14034 
L 137.57464 166.165058 
L 131.921158 167.140436 
L 75.907578 169.770407 
L 68.18459 169.863703 
L 59.892726 169.396956 
L 48.667692 168.042832 
L 47.362435 170.101837 
L 61.670867 171.827924 
L 72.240417 172.422881 
L 82.084828 172.303958 
L 134.929564 169.822771 
L 140.905019 168.791845 
L 155.678676 160.310108 
L 104.624173 79.773166 
z
" clip-path="url(#p701864ca4a)" style="fill: #287c8e; fill-opacity: 0.7"/>
    <path d="M 104.624173 79.773166 
L 155.678676 160.310108 
L 140.905019 168.791845 
L 134.929564 169.822771 
L 82.084828 172.303958 
L 72.240417 172.422881 
L 61.670867 171.827924 
L 47.362435 170.101837 
L 46.057177 172.160841 
L 63.449007 174.258892 
L 76.296245 174.982059 
L 88.262078 174.837509 
L 137.937971 172.505107 
L 144.235399 171.418631 
L 159.805098 162.479877 
L 105.999647 77.603397 
z
" clip-path="url(#p701864ca4a)" style="fill: #26828e; fill-opacity: 0.7"/>
    <path d="M 105.999647 77.603397 
L 159.805098 162.479877 
L 144.235399 171.418631 
L 137.937971 172.505107 
L 88.262078 174.837509 
L 76.296245 174.982059 
L 63.449007 174.258892 
L 46.057177 172.160841 
L 44.75192 174.219845 
L 65.227147 176.68986 
L 80.352072 177.541238 
L 94.439329 177.37106 
L 140.946377 175.187442 
L 147.565778 174.045418 
L 163.93152 164.649646 
L 107.375121 75.433628 
z
" clip-path="url(#p701864ca4a)" style="fill: #24878e; fill-opacity: 0.7"/>
    <path d="M 107.375121 75.433628 
L 163.93152 164.649646 
L 147.565778 174.045418 
L 140.946377 175.187442 
L 94.439329 177.37106 
L 80.352072 177.541238 
L 65.227147 176.68986 
L 44.75192 174.219845 
L 43.446662 176.27885 
L 67.005287 179.120827 
L 84.407899 180.100416 
L 100.616579 179.904611 
L 143.954784 177.869778 
L 150.896158 176.672205 
L 168.057942 166.819415 
L 108.750595 73.263859 
z
" clip-path="url(#p701864ca4a)" style="fill: #228d8d; fill-opacity: 0.7"/>
    <path d="M 108.750595 73.263859 
L 168.057942 166.819415 
L 150.896158 176.672205 
L 143.954784 177.869778 
L 100.616579 179.904611 
L 84.407899 180.100416 
L 67.005287 179.120827 
L 43.446662 176.27885 
L 42.141405 178.337854 
L 68.783428 181.551795 
L 88.463726 182.659594 
L 106.793829 182.438161 
L 146.96319 180.552114 
L 154.226537 179.298991 
L 172.184364 168.989184 
L 110.126069 71.09409 
z
" clip-path="url(#p701864ca4a)" style="fill: #20938c; fill-opacity: 0.7"/>
    <path d="M 110.126069 71.09409 
L 172.184364 168.989184 
L 154.226537 179.298991 
L 146.96319 180.552114 
L 106.793829 182.438161 
L 88.463726 182.659594 
L 68.783428 181.551795 
L 42.141405 178.337854 
L 40.969766 180.186078 
L 40.858818 180.361096 
L 41.427984 180.457138 
L 41.765901 180.509019 
L 70.561568 183.982763 
L 92.519554 185.218772 
L 112.971079 184.971712 
L 149.971597 183.234449 
L 157.556916 181.925778 
L 176.310786 171.158953 
L 111.501543 68.924321 
z
" clip-path="url(#p701864ca4a)" style="fill: #1f998a; fill-opacity: 0.7"/>
    <path d="M 111.501543 68.924321 
L 176.310786 171.158953 
L 157.556916 181.925778 
L 149.971597 183.234449 
L 112.971079 184.971712 
L 92.519554 185.218772 
L 70.561568 183.982763 
L 41.765901 180.509019 
L 41.427984 180.457138 
L 40.858818 180.361096 
L 39.775018 182.070758 
L 45.904084 183.10498 
L 49.542942 183.663659 
L 72.339708 186.413731 
L 96.575381 187.777951 
L 119.148329 187.505263 
L 152.980003 185.916785 
L 160.887296 184.552565 
L 180.437208 173.328722 
L 112.877017 66.754552 
z
" clip-path="url(#p701864ca4a)" style="fill: #1f9f88; fill-opacity: 0.7"/>
    <path d="M 112.877017 66.754552 
L 180.437208 173.328722 
L 160.887296 184.552565 
L 152.980003 185.916785 
L 119.148329 187.505263 
L 96.575381 187.777951 
L 72.339708 186.413731 
L 49.542942 183.663659 
L 45.904084 183.10498 
L 39.775018 182.070758 
L 38.691218 183.78042 
L 50.380183 185.752822 
L 57.319982 186.8183 
L 74.117849 188.844699 
L 100.631208 190.337129 
L 125.325579 190.038814 
L 155.98841 188.599121 
L 164.217675 187.179351 
L 184.56363 175.498491 
L 114.252491 64.584783 
z
" clip-path="url(#p701864ca4a)" style="fill: #20a486; fill-opacity: 0.7"/>
    <path d="M 114.252491 64.584783 
L 184.56363 175.498491 
L 164.217675 187.179351 
L 155.98841 188.599121 
L 125.325579 190.038814 
L 100.631208 190.337129 
L 74.117849 188.844699 
L 57.319982 186.8183 
L 50.380183 185.752822 
L 38.691218 183.78042 
L 37.607418 185.490081 
L 54.856283 188.400664 
L 65.097023 189.972941 
L 75.895989 191.275667 
L 104.687036 192.896307 
L 131.502829 192.572365 
L 158.996816 191.281456 
L 167.548054 189.806138 
L 188.690052 177.66826 
L 115.627965 62.415015 
z
" clip-path="url(#p701864ca4a)" style="fill: #24aa83; fill-opacity: 0.7"/>
    <path d="M 115.627965 62.415015 
L 188.690052 177.66826 
L 167.548054 189.806138 
L 158.996816 191.281456 
L 131.502829 192.572365 
L 104.687036 192.896307 
L 75.895989 191.275667 
L 65.097023 189.972941 
L 54.856283 188.400664 
L 37.607418 185.490081 
L 36.523618 187.199743 
L 59.332383 191.048507 
L 72.874063 193.127582 
L 77.674129 193.706634 
L 108.742863 195.455485 
L 137.68008 195.105916 
L 162.005223 193.963792 
L 170.878434 192.432925 
L 192.816474 179.838028 
L 117.003439 60.245246 
z
" clip-path="url(#p701864ca4a)" style="fill: #29af7f; fill-opacity: 0.7"/>
    <path d="M 117.003439 60.245246 
L 192.816474 179.838028 
L 170.878434 192.432925 
L 162.005223 193.963792 
L 137.68008 195.105916 
L 108.742863 195.455485 
L 77.674129 193.706634 
L 72.874063 193.127582 
L 59.332383 191.048507 
L 36.523618 187.199743 
L 35.439819 188.909405 
L 63.808482 193.696349 
L 79.591045 196.11947 
L 80.893991 196.218756 
L 112.79869 198.014664 
L 143.85733 197.639467 
L 165.013629 196.646128 
L 174.208813 195.059711 
L 196.942896 182.007797 
L 118.378913 58.075477 
z
" clip-path="url(#p701864ca4a)" style="fill: #31b57b; fill-opacity: 0.7"/>
    <path d="M 118.378913 58.075477 
L 196.942896 182.007797 
L 174.208813 195.059711 
L 165.013629 196.646128 
L 143.85733 197.639467 
L 112.79869 198.014664 
L 80.893991 196.218756 
L 79.591045 196.11947 
L 63.808482 193.696349 
L 35.439819 188.909405 
L 34.356019 190.619067 
L 68.284582 196.344191 
L 82.063608 198.459706 
L 89.886424 199.055815 
L 116.854517 200.573842 
L 150.03458 200.173017 
L 168.022036 199.328463 
L 177.539193 197.686498 
L 201.069318 184.177566 
L 119.754387 55.905708 
z
" clip-path="url(#p701864ca4a)" style="fill: #3aba76; fill-opacity: 0.7"/>
    <path d="M 119.754387 55.905708 
L 201.069318 184.177566 
L 177.539193 197.686498 
L 168.022036 199.328463 
L 150.03458 200.173017 
L 116.854517 200.573842 
L 89.886424 199.055815 
L 82.063608 198.459706 
L 68.284582 196.344191 
L 34.356019 190.619067 
L 33.272219 192.328728 
L 72.760681 198.992033 
L 84.53617 200.799942 
L 98.878856 201.892873 
L 120.910345 203.13302 
L 156.21183 202.706568 
L 171.030442 202.010799 
L 180.869572 200.313285 
L 205.19574 186.347335 
L 121.129861 53.735939 
z
" clip-path="url(#p701864ca4a)" style="fill: #44bf70; fill-opacity: 0.7"/>
    <path d="M 121.129861 53.735939 
L 205.19574 186.347335 
L 180.869572 200.313285 
L 171.030442 202.010799 
L 156.21183 202.706568 
L 120.910345 203.13302 
L 98.878856 201.892873 
L 84.53617 200.799942 
L 72.760681 198.992033 
L 33.272219 192.328728 
L 32.188419 194.03839 
L 77.236781 201.639875 
L 87.008733 203.140178 
L 107.871289 204.729932 
L 124.966172 205.692198 
L 162.38908 205.240119 
L 174.038849 204.693135 
L 184.199951 202.940071 
L 209.322162 188.517104 
L 122.505335 51.56617 
z
" clip-path="url(#p701864ca4a)" style="fill: #50c46a; fill-opacity: 0.7"/>
    <path d="M 122.505335 51.56617 
L 209.322162 188.517104 
L 184.199951 202.940071 
L 174.038849 204.693135 
L 162.38908 205.240119 
L 124.966172 205.692198 
L 107.871289 204.729932 
L 87.008733 203.140178 
L 77.236781 201.639875 
L 32.188419 194.03839 
L 31.104619 195.748052 
L 81.712881 204.287718 
L 89.481296 205.480415 
L 116.863722 207.56699 
L 129.021999 208.251376 
L 168.56633 207.77367 
L 177.047255 207.37547 
L 187.530331 205.566858 
L 213.448585 190.686873 
L 123.880809 49.396401 
z
" clip-path="url(#p701864ca4a)" style="fill: #5ec962; fill-opacity: 0.7"/>
    <path d="M 123.880809 49.396401 
L 213.448585 190.686873 
L 187.530331 205.566858 
L 177.047255 207.37547 
L 168.56633 207.77367 
L 129.021999 208.251376 
L 116.863722 207.56699 
L 89.481296 205.480415 
L 81.712881 204.287718 
L 31.104619 195.748052 
L 30.020819 197.457714 
L 86.18898 206.93556 
L 91.953859 207.820651 
L 125.856155 210.404049 
L 133.077827 210.810555 
L 174.743581 210.307221 
L 180.055662 210.057806 
L 190.86071 208.193645 
L 217.575007 192.856642 
L 125.256284 47.226632 
z
" clip-path="url(#p701864ca4a)" style="fill: #6ccd5a; fill-opacity: 0.7"/>
    <path d="M 125.256284 47.226632 
L 217.575007 192.856642 
L 190.86071 208.193645 
L 180.055662 210.057806 
L 174.743581 210.307221 
L 133.077827 210.810555 
L 125.856155 210.404049 
L 91.953859 207.820651 
L 86.18898 206.93556 
L 30.020819 197.457714 
L 28.937019 199.167375 
L 90.66508 209.583402 
L 94.426421 210.160887 
L 134.848588 213.241107 
L 137.133654 213.369733 
L 180.920831 212.840772 
L 183.064068 212.740142 
L 194.19109 210.820431 
L 221.701429 195.026411 
L 126.631758 45.056863 
z
" clip-path="url(#p701864ca4a)" style="fill: #7ad151; fill-opacity: 0.7"/>
    <path d="M 191.104424 214.554331 
L 197.521469 213.447218 
L 225.827851 197.19618 
L 128.007232 42.887094 
L 126.631758 45.056863 
L 221.701429 195.026411 
L 194.19109 210.820431 
L 183.064068 212.740142 
L 180.920831 212.840772 
L 137.133654 213.369733 
L 134.848588 213.241107 
L 94.426421 210.160887 
L 90.66508 209.583402 
L 28.937019 199.167375 
L 27.853219 200.877037 
L 95.14118 212.231244 
L 96.898984 212.501123 
L 123.843521 214.554331 
L 139.011024 214.554331 
L 185.098794 214.554331 
z
" clip-path="url(#p701864ca4a)" style="fill: #89d548; fill-opacity: 0.7"/>
    <path d="M 123.843521 214.554331 
L 96.898984 212.501123 
L 95.14118 212.231244 
L 27.853219 200.877037 
L 26.769419 202.586699 
L 97.692693 214.554331 
L 99.068289 214.554331 
z
M 203.498846 214.554331 
L 229.954273 199.365948 
L 129.382706 40.717326 
L 128.007232 42.887094 
L 225.827851 197.19618 
L 197.521469 213.447218 
L 191.104424 214.554331 
L 198.925125 214.554331 
z
" clip-path="url(#p701864ca4a)" style="fill: #98d83e; fill-opacity: 0.7"/>
    <path d="M 211.404615 214.554331 
L 234.080695 201.535717 
L 130.75818 38.547557 
L 129.382706 40.717326 
L 229.954273 199.365948 
L 203.498846 214.554331 
z
M 25.68562 204.29636 
L 86.476997 214.554331 
L 97.692693 214.554331 
L 26.769419 202.586699 
z
" clip-path="url(#p701864ca4a)" style="fill: #a8db34; fill-opacity: 0.7"/>
    <path d="M 219.310384 214.554331 
L 238.207117 203.705486 
L 132.133654 36.377788 
L 130.75818 38.547557 
L 234.080695 201.535717 
L 211.404615 214.554331 
z
M 24.60182 206.006022 
L 75.261301 214.554331 
L 86.476997 214.554331 
L 25.68562 204.29636 
z
" clip-path="url(#p701864ca4a)" style="fill: #b8de29; fill-opacity: 0.7"/>
    <path d="M 227.216152 214.554331 
L 242.333539 205.875255 
L 133.509128 34.208019 
L 132.133654 36.377788 
L 238.207117 203.705486 
L 219.310384 214.554331 
z
M 23.51802 207.715684 
L 64.045605 214.554331 
L 75.261301 214.554331 
L 24.60182 206.006022 
z
" clip-path="url(#p701864ca4a)" style="fill: #c8e020; fill-opacity: 0.7"/>
    <path d="M 235.121921 214.554331 
L 246.459961 208.045024 
L 134.884602 32.03825 
L 133.509128 34.208019 
L 242.333539 205.875255 
L 227.216152 214.554331 
z
M 22.43422 209.425346 
L 52.829909 214.554331 
L 64.045605 214.554331 
L 23.51802 207.715684 
z
" clip-path="url(#p701864ca4a)" style="fill: #d8e219; fill-opacity: 0.7"/>
    <path d="M 243.02769 214.554331 
L 250.586383 210.214793 
L 136.260076 29.868481 
L 134.884602 32.03825 
L 246.459961 208.045024 
L 235.121921 214.554331 
z
M 21.35042 211.135007 
L 41.614213 214.554331 
L 52.829909 214.554331 
L 22.43422 209.425346 
z
" clip-path="url(#p701864ca4a)" style="fill: #e7e419; fill-opacity: 0.7"/>
    <path d="M 250.933458 214.554331 
L 254.712805 212.384562 
L 137.63555 27.698712 
L 136.260076 29.868481 
L 250.586383 210.214793 
L 243.02769 214.554331 
z
M 20.26662 212.844669 
L 30.398516 214.554331 
L 41.614213 214.554331 
L 21.35042 211.135007 
z
" clip-path="url(#p701864ca4a)" style="fill: #f6e620; fill-opacity: 0.7"/>
    <path d="M 137.63555 27.698712 
L 254.712805 212.384562 
L 250.933458 214.554331 
L 258.839227 214.554331 
L 139.011024 25.528943 
z
M 30.398516 214.554331 
L 20.26662 212.844669 
L 19.18282 214.554331 
z
" clip-path="url(#p701864ca4a)" style="fill: #fde725; fill-opacity: 0.7"/>
   </g>
   <g id="matplotlib.axis_1"/>
   <g id="matplotlib.axis_2"/>
   <g id="line2d_1">
    <path d="M 99.068289 214.554331 
L 79.096922 195.651792 
" clip-path="url(#p701864ca4a)" style="fill: none; stroke: #555555; stroke-opacity: 0.9; stroke-width: 0.5; stroke-linecap: square"/>
   </g>
   <g id="line2d_2">
    <path d="M 99.068289 214.554331 
L 19.18282 214.554331 
" clip-path="url(#p701864ca4a)" style="fill: none; stroke: #555555; stroke-opacity: 0.9; stroke-width: 0.5; stroke-linecap: square"/>
   </g>
   <g id="line2d_3">
    <path d="M 198.925125 214.554331 
L 185.098794 214.554331 
" clip-path="url(#p701864ca4a)" style="fill: none; stroke: #555555; stroke-opacity: 0.9; stroke-width: 0.5; stroke-linecap: square"/>
   </g>
   <g id="line2d_4">
    <path d="M 185.098794 214.554331 
L 53.41945 160.547077 
" clip-path="url(#p701864ca4a)" style="fill: none; stroke: #555555; stroke-opacity: 0.9; stroke-width: 0.5; stroke-linecap: square"/>
   </g>
   <g id="line2d_5">
    <path d="M 53.41945 160.547077 
L 40.969766 180.186078 
" clip-path="url(#p701864ca4a)" style="fill: none; stroke: #555555; stroke-opacity: 0.9; stroke-width: 0.5; stroke-linecap: square"/>
   </g>
   <g id="line2d_6">
    <path d="M 139.011024 214.554331 
L 53.41945 160.547077 
" clip-path="url(#p701864ca4a)" style="fill: none; stroke: #555555; stroke-opacity: 0.9; stroke-width: 0.5; stroke-linecap: square"/>
   </g>
   <g id="line2d_7">
    <path d="M 79.096922 120.041637 
L 53.41945 160.547077 
" clip-path="url(#p701864ca4a)" style="fill: none; stroke: #555555; stroke-opacity: 0.9; stroke-width: 0.5; stroke-linecap: square"/>
   </g>
   <g id="line2d_8">
    <path d="M 79.096922 120.041637 
L 258.839227 214.554331 
" clip-path="url(#p701864ca4a)" style="fill: none; stroke: #555555; stroke-opacity: 0.9; stroke-width: 0.5; stroke-linecap: square"/>
   </g>
   <g id="line2d_9">
    <path d="M 99.068289 214.554331 
L 40.969766 180.186078 
" clip-path="url(#p701864ca4a)" style="fill: none; stroke: #555555; stroke-opacity: 0.9; stroke-width: 0.5; stroke-linecap: square"/>
   </g>
   <g id="line2d_10">
    <path d="M 40.969766 180.186078 
L 19.18282 214.554331 
" clip-path="url(#p701864ca4a)" style="fill: none; stroke: #555555; stroke-opacity: 0.9; stroke-width: 0.5; stroke-linecap: square"/>
   </g>
   <g id="line2d_11">
    <path d="M 198.925125 214.554331 
L 258.839227 214.554331 
" clip-path="url(#p701864ca4a)" style="fill: none; stroke: #555555; stroke-opacity: 0.9; stroke-width: 0.5; stroke-linecap: square"/>
   </g>
   <g id="line2d_12">
    <path d="M 79.096922 120.041637 
L 198.925125 214.554331 
" clip-path="url(#p701864ca4a)" style="fill: none; stroke: #555555; stroke-opacity: 0.9; stroke-width: 0.5; stroke-linecap: square"/>
   </g>
   <g id="line2d_13">
    <path d="M 79.096922 120.041637 
L 139.011024 25.528943 
" clip-path="url(#p701864ca4a)" style="fill: none; stroke: #555555; stroke-opacity: 0.9; stroke-width: 0.5; stroke-linecap: square"/>
   </g>
   <g id="line2d_14">
    <path d="M 79.096922 195.651792 
L 40.969766 180.186078 
" clip-path="url(#p701864ca4a)" style="fill: none; stroke: #555555; stroke-opacity: 0.9; stroke-width: 0.5; stroke-linecap: square"/>
   </g>
   <g id="line2d_15">
    <path d="M 79.096922 120.041637 
L 185.098794 214.554331 
" clip-path="url(#p701864ca4a)" style="fill: none; stroke: #555555; stroke-opacity: 0.9; stroke-width: 0.5; stroke-linecap: square"/>
   </g>
   <g id="line2d_16">
    <path d="M 53.41945 160.547077 
L 79.096922 195.651792 
" clip-path="url(#p701864ca4a)" style="fill: none; stroke: #555555; stroke-opacity: 0.9; stroke-width: 0.5; stroke-linecap: square"/>
   </g>
   <g id="line2d_17">
    <path d="M 139.011024 214.554331 
L 185.098794 214.554331 
" clip-path="url(#p701864ca4a)" style="fill: none; stroke: #555555; stroke-opacity: 0.9; stroke-width: 0.5; stroke-linecap: square"/>
   </g>
   <g id="line2d_18">
    <path d="M 139.011024 214.554331 
L 99.068289 214.554331 
" clip-path="url(#p701864ca4a)" style="fill: none; stroke: #555555; stroke-opacity: 0.9; stroke-width: 0.5; stroke-linecap: square"/>
   </g>
   <g id="line2d_19">
    <path d="M 139.011024 214.554331 
L 79.096922 195.651792 
" clip-path="url(#p701864ca4a)" style="fill: none; stroke: #555555; stroke-opacity: 0.9; stroke-width: 0.5; stroke-linecap: square"/>
   </g>
   <g id="line2d_20">
    <path d="M 139.011024 25.528943 
L 258.839227 214.554331 
" clip-path="url(#p701864ca4a)" style="fill: none; stroke: #555555; stroke-opacity: 0.9; stroke-width: 0.5; stroke-linecap: square"/>
   </g>
   <g id="PathCollection_1">
    <defs>
     <path id="m793a6ed499" d="M 0 2.738613 
C 0.726289 2.738613 1.422928 2.450055 1.936492 1.936492 
C 2.450055 1.422928 2.738613 0.726289 2.738613 0 
C 2.738613 -0.726289 2.450055 -1.422928 1.936492 -1.936492 
C 1.422928 -2.450055 0.726289 -2.738613 0 -2.738613 
C -0.726289 -2.738613 -1.422928 -2.450055 -1.936492 -1.936492 
C -2.450055 -1.422928 -2.738613 -0.726289 -2.738613 0 
C -2.738613 0.726289 -2.450055 1.422928 -1.936492 1.936492 
C -1.422928 2.450055 -0.726289 2.738613 0 2.738613 
z
" style="stroke: #008000"/>
    </defs>
    <g clip-path="url(#p701864ca4a)">
     <use xlink:href="#m793a6ed499" x="99.068289" y="214.554331" style="fill: #008000; stroke: #008000"/>
     <use xlink:href="#m793a6ed499" x="79.096922" y="195.651792" style="fill: #008000; stroke: #008000"/>
     <use xlink:href="#m793a6ed499" x="19.18282" y="214.554331" style="fill: #008000; stroke: #008000"/>
     <use xlink:href="#m793a6ed499" x="198.925125" y="214.554331" style="fill: #008000; stroke: #008000"/>
     <use xlink:href="#m793a6ed499" x="185.098794" y="214.554331" style="fill: #008000; stroke: #008000"/>
     <use xlink:href="#m793a6ed499" x="53.41945" y="160.547077" style="fill: #008000; stroke: #008000"/>
     <use xlink:href="#m793a6ed499" x="40.969766" y="180.186078" style="fill: #008000; stroke: #008000"/>
     <use xlink:href="#m793a6ed499" x="139.011024" y="214.554331" style="fill: #008000; stroke: #008000"/>
     <use xlink:href="#m793a6ed499" x="79.096922" y="120.041637" style="fill: #008000; stroke: #008000"/>
     <use xlink:href="#m793a6ed499" x="258.839227" y="214.554331" style="fill: #008000; stroke: #008000"/>
     <use xlink:href="#m793a6ed499" x="139.011024" y="25.528943" style="fill: #008000; stroke: #008000"/>
    </g>
   </g>
   <g id="PathCollection_2">
    <defs>
     <path id="medca11dd37" d="M -0 2.236068 
L 1.341641 0 
L 0 -2.236068 
L -1.341641 -0 
z
" style="stroke: #d3d3d3"/>
    </defs>
    <g clip-path="url(#p701864ca4a)">
     <use xlink:href="#medca11dd37" x="139.011024" y="25.528943" style="fill: #d3d3d3; stroke: #d3d3d3"/>
     <use xlink:href="#medca11dd37" x="139.011024" y="25.528943" style="fill: #d3d3d3; stroke: #d3d3d3"/>
     <use xlink:href="#medca11dd37" x="139.011024" y="25.528943" style="fill: #d3d3d3; stroke: #d3d3d3"/>
     <use xlink:href="#medca11dd37" x="139.011024" y="25.528943" style="fill: #d3d3d3; stroke: #d3d3d3"/>
     <use xlink:href="#medca11dd37" x="258.839227" y="214.554331" style="fill: #d3d3d3; stroke: #d3d3d3"/>
     <use xlink:href="#medca11dd37" x="258.839227" y="214.554331" style="fill: #d3d3d3; stroke: #d3d3d3"/>
     <use xlink:href="#medca11dd37" x="258.839227" y="214.554331" style="fill: #d3d3d3; stroke: #d3d3d3"/>
     <use xlink:href="#medca11dd37" x="258.839227" y="214.554331" style="fill: #d3d3d3; stroke: #d3d3d3"/>
     <use xlink:href="#medca11dd37" x="258.839227" y="214.554331" style="fill: #d3d3d3; stroke: #d3d3d3"/>
     <use xlink:href="#medca11dd37" x="258.839227" y="214.554331" style="fill: #d3d3d3; stroke: #d3d3d3"/>
     <use xlink:href="#medca11dd37" x="258.839227" y="214.554331" style="fill: #d3d3d3; stroke: #d3d3d3"/>
     <use xlink:href="#medca11dd37" x="198.925125" y="120.041637" style="fill: #d3d3d3; stroke: #d3d3d3"/>
     <use xlink:href="#medca11dd37" x="228.882176" y="167.297984" style="fill: #d3d3d3; stroke: #d3d3d3"/>
     <use xlink:href="#medca11dd37" x="228.882176" y="167.297984" style="fill: #d3d3d3; stroke: #d3d3d3"/>
     <use xlink:href="#medca11dd37" x="19.18282" y="214.554331" style="fill: #d3d3d3; stroke: #d3d3d3"/>
     <use xlink:href="#medca11dd37" x="19.18282" y="214.554331" style="fill: #d3d3d3; stroke: #d3d3d3"/>
     <use xlink:href="#medca11dd37" x="19.18282" y="214.554331" style="fill: #d3d3d3; stroke: #d3d3d3"/>
     <use xlink:href="#medca11dd37" x="19.18282" y="214.554331" style="fill: #d3d3d3; stroke: #d3d3d3"/>
     <use xlink:href="#medca11dd37" x="19.18282" y="214.554331" style="fill: #d3d3d3; stroke: #d3d3d3"/>
     <use xlink:href="#medca11dd37" x="19.18282" y="214.554331" style="fill: #d3d3d3; stroke: #d3d3d3"/>
     <use xlink:href="#medca11dd37" x="19.18282" y="214.554331" style="fill: #d3d3d3; stroke: #d3d3d3"/>
     <use xlink:href="#medca11dd37" x="19.18282" y="214.554331" style="fill: #d3d3d3; stroke: #d3d3d3"/>
     <use xlink:href="#medca11dd37" x="19.18282" y="214.554331" style="fill: #d3d3d3; stroke: #d3d3d3"/>
     <use xlink:href="#medca11dd37" x="109.053973" y="72.78529" style="fill: #d3d3d3; stroke: #d3d3d3"/>
     <use xlink:href="#medca11dd37" x="139.011024" y="214.554331" style="fill: #d3d3d3; stroke: #d3d3d3"/>
     <use xlink:href="#medca11dd37" x="139.011024" y="120.041637" style="fill: #d3d3d3; stroke: #d3d3d3"/>
     <use xlink:href="#medca11dd37" x="139.011024" y="120.041637" style="fill: #d3d3d3; stroke: #d3d3d3"/>
     <use xlink:href="#medca11dd37" x="198.925125" y="214.554331" style="fill: #d3d3d3; stroke: #d3d3d3"/>
     <use xlink:href="#medca11dd37" x="198.925125" y="214.554331" style="fill: #d3d3d3; stroke: #d3d3d3"/>
     <use xlink:href="#medca11dd37" x="198.925125" y="214.554331" style="fill: #d3d3d3; stroke: #d3d3d3"/>
     <use xlink:href="#medca11dd37" x="210.907946" y="214.554331" style="fill: #d3d3d3; stroke: #d3d3d3"/>
     <use xlink:href="#medca11dd37" x="99.068289" y="214.554331" style="fill: #d3d3d3; stroke: #d3d3d3"/>
     <use xlink:href="#medca11dd37" x="99.068289" y="214.554331" style="fill: #d3d3d3; stroke: #d3d3d3"/>
     <use xlink:href="#medca11dd37" x="109.053973" y="167.297984" style="fill: #d3d3d3; stroke: #d3d3d3"/>
     <use xlink:href="#medca11dd37" x="79.096922" y="214.554331" style="fill: #d3d3d3; stroke: #d3d3d3"/>
     <use xlink:href="#medca11dd37" x="79.096922" y="214.554331" style="fill: #d3d3d3; stroke: #d3d3d3"/>
     <use xlink:href="#medca11dd37" x="115.045383" y="214.554331" style="fill: #d3d3d3; stroke: #d3d3d3"/>
     <use xlink:href="#medca11dd37" x="208.385247" y="214.554331" style="fill: #d3d3d3; stroke: #d3d3d3"/>
     <use xlink:href="#medca11dd37" x="102.140807" y="200.013916" style="fill: #d3d3d3; stroke: #d3d3d3"/>
     <use xlink:href="#medca11dd37" x="47.377692" y="170.077769" style="fill: #d3d3d3; stroke: #d3d3d3"/>
    </g>
   </g>
   <g id="PathCollection_3">
    <defs>
     <path id="m40dc3bcc57" d="M 0 -5 
L -1.12257 -1.545085 
L -4.755283 -1.545085 
L -1.816356 0.59017 
L -2.938926 4.045085 
L -0 1.90983 
L 2.938926 4.045085 
L 1.816356 0.59017 
L 4.755283 -1.545085 
L 1.12257 -1.545085 
z
" style="stroke: #0000ff"/>
    </defs>
    <g clip-path="url(#p701864ca4a)">
     <use xlink:href="#m40dc3bcc57" x="102.140807" y="200.013916" style="fill: #0000ff; stroke: #0000ff"/>
    </g>
   </g>
   <g id="text_1">
    <!-- $\mathrm{Al_{2}Cu}$ -->
    <g transform="translate(80.933765 210.544971) scale(0.1 -0.1)">
     <defs>
      <path id="DejaVuSans-41" d="M 2188 4044 
L 1331 1722 
L 3047 1722 
L 2188 4044 
z
M 1831 4666 
L 2547 4666 
L 4325 0 
L 3669 0 
L 3244 1197 
L 1141 1197 
L 716 0 
L 50 0 
L 1831 4666 
z
" transform="scale(0.015625)"/>
      <path id="DejaVuSans-6c" d="M 603 4863 
L 1178 4863 
L 1178 0 
L 603 0 
L 603 4863 
z
" transform="scale(0.015625)"/>
      <path id="DejaVuSans-32" d="M 1228 531 
L 3431 531 
L 3431 0 
L 469 0 
L 469 531 
Q 828 903 1448 1529 
Q 2069 2156 2228 2338 
Q 2531 2678 2651 2914 
Q 2772 3150 2772 3378 
Q 2772 3750 2511 3984 
Q 2250 4219 1831 4219 
Q 1534 4219 1204 4116 
Q 875 4013 500 3803 
L 500 4441 
Q 881 4594 1212 4672 
Q 1544 4750 1819 4750 
Q 2544 4750 2975 4387 
Q 3406 4025 3406 3419 
Q 3406 3131 3298 2873 
Q 3191 2616 2906 2266 
Q 2828 2175 2409 1742 
Q 1991 1309 1228 531 
z
" transform="scale(0.015625)"/>
      <path id="DejaVuSans-43" d="M 4122 4306 
L 4122 3641 
Q 3803 3938 3442 4084 
Q 3081 4231 2675 4231 
Q 1875 4231 1450 3742 
Q 1025 3253 1025 2328 
Q 1025 1406 1450 917 
Q 1875 428 2675 428 
Q 3081 428 3442 575 
Q 3803 722 4122 1019 
L 4122 359 
Q 3791 134 3420 21 
Q 3050 -91 2638 -91 
Q 1578 -91 968 557 
Q 359 1206 359 2328 
Q 359 3453 968 4101 
Q 1578 4750 2638 4750 
Q 3056 4750 3426 4639 
Q 3797 4528 4122 4306 
z
" transform="scale(0.015625)"/>
      <path id="DejaVuSans-75" d="M 544 1381 
L 544 3500 
L 1119 3500 
L 1119 1403 
Q 1119 906 1312 657 
Q 1506 409 1894 409 
Q 2359 409 2629 706 
Q 2900 1003 2900 1516 
L 2900 3500 
L 3475 3500 
L 3475 0 
L 2900 0 
L 2900 538 
Q 2691 219 2414 64 
Q 2138 -91 1772 -91 
Q 1169 -91 856 284 
Q 544 659 544 1381 
z
M 1991 3584 
L 1991 3584 
z
" transform="scale(0.015625)"/>
     </defs>
     <use xlink:href="#DejaVuSans-41" transform="translate(0 0.015625)"/>
     <use xlink:href="#DejaVuSans-6c" transform="translate(68.408203 0.015625)"/>
     <use xlink:href="#DejaVuSans-32" transform="translate(97.148438 -16.390625) scale(0.7)"/>
     <use xlink:href="#DejaVuSans-43" transform="translate(144.418945 0.015625)"/>
     <use xlink:href="#DejaVuSans-75" transform="translate(214.243164 0.015625)"/>
    </g>
   </g>
   <g id="text_2">
    <!-- $\mathrm{Al_{7}Cu_{2}Rh}$ -->
    <g transform="translate(40.437831 191.768462) scale(0.1 -0.1)">
     <defs>
      <path id="DejaVuSans-37" d="M 525 4666 
L 3525 4666 
L 3525 4397 
L 1831 0 
L 1172 0 
L 2766 4134 
L 525 4134 
L 525 4666 
z
" transform="scale(0.015625)"/>
      <path id="DejaVuSans-52" d="M 2841 2188 
Q 3044 2119 3236 1894 
Q 3428 1669 3622 1275 
L 4263 0 
L 3584 0 
L 2988 1197 
Q 2756 1666 2539 1819 
Q 2322 1972 1947 1972 
L 1259 1972 
L 1259 0 
L 628 0 
L 628 4666 
L 2053 4666 
Q 2853 4666 3247 4331 
Q 3641 3997 3641 3322 
Q 3641 2881 3436 2590 
Q 3231 2300 2841 2188 
z
M 1259 4147 
L 1259 2491 
L 2053 2491 
Q 2509 2491 2742 2702 
Q 2975 2913 2975 3322 
Q 2975 3731 2742 3939 
Q 2509 4147 2053 4147 
L 1259 4147 
z
" transform="scale(0.015625)"/>
      <path id="DejaVuSans-68" d="M 3513 2113 
L 3513 0 
L 2938 0 
L 2938 2094 
Q 2938 2591 2744 2837 
Q 2550 3084 2163 3084 
Q 1697 3084 1428 2787 
Q 1159 2491 1159 1978 
L 1159 0 
L 581 0 
L 581 4863 
L 1159 4863 
L 1159 2956 
Q 1366 3272 1645 3428 
Q 1925 3584 2291 3584 
Q 2894 3584 3203 3211 
Q 3513 2838 3513 2113 
z
" transform="scale(0.015625)"/>
     </defs>
     <use xlink:href="#DejaVuSans-41" transform="translate(0 0.015625)"/>
     <use xlink:href="#DejaVuSans-6c" transform="translate(68.408203 0.015625)"/>
     <use xlink:href="#DejaVuSans-37" transform="translate(97.148438 -16.390625) scale(0.7)"/>
     <use xlink:href="#DejaVuSans-43" transform="translate(144.418945 0.015625)"/>
     <use xlink:href="#DejaVuSans-75" transform="translate(214.243164 0.015625)"/>
     <use xlink:href="#DejaVuSans-32" transform="translate(278.579102 -16.390625) scale(0.7)"/>
     <use xlink:href="#DejaVuSans-52" transform="translate(325.849609 0.015625)"/>
     <use xlink:href="#DejaVuSans-68" transform="translate(395.332031 0.015625)"/>
    </g>
   </g>
   <g id="text_3">
    <!-- $\mathrm{Al}$ -->
    <g transform="translate(19.586902 211.839411) scale(0.1 -0.1)">
     <use xlink:href="#DejaVuSans-41" transform="translate(0 0.015625)"/>
     <use xlink:href="#DejaVuSans-6c" transform="translate(68.408203 0.015625)"/>
    </g>
   </g>
   <g id="text_4">
    <!-- $\mathrm{AlCu_{3}}$ -->
    <g transform="translate(198.116034 210.594971) scale(0.1 -0.1)">
     <defs>
      <path id="DejaVuSans-33" d="M 2597 2516 
Q 3050 2419 3304 2112 
Q 3559 1806 3559 1356 
Q 3559 666 3084 287 
Q 2609 -91 1734 -91 
Q 1441 -91 1130 -33 
Q 819 25 488 141 
L 488 750 
Q 750 597 1062 519 
Q 1375 441 1716 441 
Q 2309 441 2620 675 
Q 2931 909 2931 1356 
Q 2931 1769 2642 2001 
Q 2353 2234 1838 2234 
L 1294 2234 
L 1294 2753 
L 1863 2753 
Q 2328 2753 2575 2939 
Q 2822 3125 2822 3475 
Q 2822 3834 2567 4026 
Q 2313 4219 1838 4219 
Q 1578 4219 1281 4162 
Q 984 4106 628 3988 
L 628 4550 
Q 988 4650 1302 4700 
Q 1616 4750 1894 4750 
Q 2613 4750 3031 4423 
Q 3450 4097 3450 3541 
Q 3450 3153 3228 2886 
Q 3006 2619 2597 2516 
z
" transform="scale(0.015625)"/>
     </defs>
     <use xlink:href="#DejaVuSans-41" transform="translate(0 0.015625)"/>
     <use xlink:href="#DejaVuSans-6c" transform="translate(68.408203 0.015625)"/>
     <use xlink:href="#DejaVuSans-43" transform="translate(96.191406 0.015625)"/>
     <use xlink:href="#DejaVuSans-75" transform="translate(166.015625 0.015625)"/>
     <use xlink:href="#DejaVuSans-33" transform="translate(230.351562 -16.390625) scale(0.7)"/>
    </g>
   </g>
   <g id="text_5">
    <!-- $\mathrm{Al_{4}Cu_{9}}$ -->
    <g transform="translate(160.944249 210.594971) scale(0.1 -0.1)">
     <defs>
      <path id="DejaVuSans-34" d="M 2419 4116 
L 825 1625 
L 2419 1625 
L 2419 4116 
z
M 2253 4666 
L 3047 4666 
L 3047 1625 
L 3713 1625 
L 3713 1100 
L 3047 1100 
L 3047 0 
L 2419 0 
L 2419 1100 
L 313 1100 
L 313 1709 
L 2253 4666 
z
" transform="scale(0.015625)"/>
      <path id="DejaVuSans-39" d="M 703 97 
L 703 672 
Q 941 559 1184 500 
Q 1428 441 1663 441 
Q 2288 441 2617 861 
Q 2947 1281 2994 2138 
Q 2813 1869 2534 1725 
Q 2256 1581 1919 1581 
Q 1219 1581 811 2004 
Q 403 2428 403 3163 
Q 403 3881 828 4315 
Q 1253 4750 1959 4750 
Q 2769 4750 3195 4129 
Q 3622 3509 3622 2328 
Q 3622 1225 3098 567 
Q 2575 -91 1691 -91 
Q 1453 -91 1209 -44 
Q 966 3 703 97 
z
M 1959 2075 
Q 2384 2075 2632 2365 
Q 2881 2656 2881 3163 
Q 2881 3666 2632 3958 
Q 2384 4250 1959 4250 
Q 1534 4250 1286 3958 
Q 1038 3666 1038 3163 
Q 1038 2656 1286 2365 
Q 1534 2075 1959 2075 
z
" transform="scale(0.015625)"/>
     </defs>
     <use xlink:href="#DejaVuSans-41" transform="translate(0 0.015625)"/>
     <use xlink:href="#DejaVuSans-6c" transform="translate(68.408203 0.015625)"/>
     <use xlink:href="#DejaVuSans-34" transform="translate(97.148438 -16.390625) scale(0.7)"/>
     <use xlink:href="#DejaVuSans-43" transform="translate(144.418945 0.015625)"/>
     <use xlink:href="#DejaVuSans-75" transform="translate(214.243164 0.015625)"/>
     <use xlink:href="#DejaVuSans-39" transform="translate(278.579102 -16.390625) scale(0.7)"/>
    </g>
   </g>
   <g id="text_6">
    <!-- $\mathrm{Al_{5}Rh_{2}}$ -->
    <g transform="translate(45.628541 156.400656) scale(0.1 -0.1)">
     <defs>
      <path id="DejaVuSans-35" d="M 691 4666 
L 3169 4666 
L 3169 4134 
L 1269 4134 
L 1269 2991 
Q 1406 3038 1543 3061 
Q 1681 3084 1819 3084 
Q 2600 3084 3056 2656 
Q 3513 2228 3513 1497 
Q 3513 744 3044 326 
Q 2575 -91 1722 -91 
Q 1428 -91 1123 -41 
Q 819 9 494 109 
L 494 744 
Q 775 591 1075 516 
Q 1375 441 1709 441 
Q 2250 441 2565 725 
Q 2881 1009 2881 1497 
Q 2881 1984 2565 2268 
Q 2250 2553 1709 2553 
Q 1456 2553 1204 2497 
Q 953 2441 691 2322 
L 691 4666 
z
" transform="scale(0.015625)"/>
     </defs>
     <use xlink:href="#DejaVuSans-41" transform="translate(0 0.015625)"/>
     <use xlink:href="#DejaVuSans-6c" transform="translate(68.408203 0.015625)"/>
     <use xlink:href="#DejaVuSans-35" transform="translate(97.148438 -16.390625) scale(0.7)"/>
     <use xlink:href="#DejaVuSans-52" transform="translate(144.418945 0.015625)"/>
     <use xlink:href="#DejaVuSans-68" transform="translate(213.901367 0.015625)"/>
     <use xlink:href="#DejaVuSans-32" transform="translate(278.237305 -16.390625) scale(0.7)"/>
    </g>
   </g>
   <g id="text_7">
    <!-- $\mathrm{Al_{9}Rh_{2}}$ -->
    <g transform="translate(19.200378 176.039657) scale(0.1 -0.1)">
     <use xlink:href="#DejaVuSans-41" transform="translate(0 0.015625)"/>
     <use xlink:href="#DejaVuSans-6c" transform="translate(68.408203 0.015625)"/>
     <use xlink:href="#DejaVuSans-39" transform="translate(97.148438 -16.390625) scale(0.7)"/>
     <use xlink:href="#DejaVuSans-52" transform="translate(144.418945 0.015625)"/>
     <use xlink:href="#DejaVuSans-68" transform="translate(213.901367 0.015625)"/>
     <use xlink:href="#DejaVuSans-32" transform="translate(278.237305 -16.390625) scale(0.7)"/>
    </g>
   </g>
   <g id="text_8">
    <!-- $\mathrm{AlCu}$ -->
    <g transform="translate(130.783751 211.215873) scale(0.1 -0.1)">
     <use xlink:href="#DejaVuSans-41" transform="translate(0 0.015625)"/>
     <use xlink:href="#DejaVuSans-6c" transform="translate(68.408203 0.015625)"/>
     <use xlink:href="#DejaVuSans-43" transform="translate(96.191406 0.015625)"/>
     <use xlink:href="#DejaVuSans-75" transform="translate(166.015625 0.015625)"/>
    </g>
   </g>
   <g id="text_9">
    <!-- $\mathrm{AlRh}$ -->
    <g transform="translate(61.051467 127.6151) scale(0.1 -0.1)">
     <use xlink:href="#DejaVuSans-41" transform="translate(0 0.015625)"/>
     <use xlink:href="#DejaVuSans-6c" transform="translate(68.408203 0.015625)"/>
     <use xlink:href="#DejaVuSans-52" transform="translate(96.191406 0.015625)"/>
     <use xlink:href="#DejaVuSans-68" transform="translate(165.673828 0.015625)"/>
    </g>
   </g>
   <g id="text_10">
    <!-- $\mathrm{Cu}$ -->
    <g transform="translate(245.859482 211.527642) scale(0.1 -0.1)">
     <use xlink:href="#DejaVuSans-43" transform="translate(0 0.78125)"/>
     <use xlink:href="#DejaVuSans-75" transform="translate(69.824219 0.78125)"/>
    </g>
   </g>
   <g id="text_11">
    <!-- $\mathrm{Rh}$ -->
    <g transform="translate(130.397387 33.414175) scale(0.1 -0.1)">
     <use xlink:href="#DejaVuSans-52" transform="translate(0 0.015625)"/>
     <use xlink:href="#DejaVuSans-68" transform="translate(69.482422 0.015625)"/>
    </g>
   </g>
   <g id="text_12">
    <!-- $\mathrm{Al_{8}Cu_{4}Rh}$ -->
    <g style="fill: #0000ff" transform="translate(99.481716 195.243957) scale(0.1 -0.1)">
     <defs>
      <path id="DejaVuSans-38" d="M 2034 2216 
Q 1584 2216 1326 1975 
Q 1069 1734 1069 1313 
Q 1069 891 1326 650 
Q 1584 409 2034 409 
Q 2484 409 2743 651 
Q 3003 894 3003 1313 
Q 3003 1734 2745 1975 
Q 2488 2216 2034 2216 
z
M 1403 2484 
Q 997 2584 770 2862 
Q 544 3141 544 3541 
Q 544 4100 942 4425 
Q 1341 4750 2034 4750 
Q 2731 4750 3128 4425 
Q 3525 4100 3525 3541 
Q 3525 3141 3298 2862 
Q 3072 2584 2669 2484 
Q 3125 2378 3379 2068 
Q 3634 1759 3634 1313 
Q 3634 634 3220 271 
Q 2806 -91 2034 -91 
Q 1263 -91 848 271 
Q 434 634 434 1313 
Q 434 1759 690 2068 
Q 947 2378 1403 2484 
z
M 1172 3481 
Q 1172 3119 1398 2916 
Q 1625 2713 2034 2713 
Q 2441 2713 2670 2916 
Q 2900 3119 2900 3481 
Q 2900 3844 2670 4047 
Q 2441 4250 2034 4250 
Q 1625 4250 1398 4047 
Q 1172 3844 1172 3481 
z
" transform="scale(0.015625)"/>
     </defs>
     <use xlink:href="#DejaVuSans-41" transform="translate(0 0.015625)"/>
     <use xlink:href="#DejaVuSans-6c" transform="translate(68.408203 0.015625)"/>
     <use xlink:href="#DejaVuSans-38" transform="translate(97.148438 -16.390625) scale(0.7)"/>
     <use xlink:href="#DejaVuSans-43" transform="translate(144.418945 0.015625)"/>
     <use xlink:href="#DejaVuSans-75" transform="translate(214.243164 0.015625)"/>
     <use xlink:href="#DejaVuSans-34" transform="translate(278.579102 -16.390625) scale(0.7)"/>
     <use xlink:href="#DejaVuSans-52" transform="translate(325.849609 0.015625)"/>
     <use xlink:href="#DejaVuSans-68" transform="translate(395.332031 0.015625)"/>
    </g>
   </g>
  </g>
  <g id="axes_2">
   <g id="patch_3">
    <path d="M 287.298425 195.703937 
L 296.029134 195.703937 
L 296.029134 36.96378 
L 287.298425 36.96378 
L 287.298425 195.703937 
z
" style="fill: none"/>
   </g>
   <g id="patch_4">
    <path d="M 287.298425 195.703937 
L 291.66378 203.640945 
L 296.029134 195.703937 
" style="fill: #440154; opacity: 0.7"/>
   </g>
   <g id="patch_5">
    <path d="M 287.298425 36.96378 
L 291.66378 29.026772 
L 296.029134 36.96378 
" style="fill: #fde725; opacity: 0.7"/>
   </g>
   <g id="QuadMesh_1">
    <path d="M 287.298425 195.703937 
L 296.029134 195.703937 
L 296.029134 191.924409 
L 287.298425 191.924409 
L 287.298425 195.703937 
" clip-path="url(#p459aa24621)" style="fill: #450559; fill-opacity: 0.7"/>
    <path d="M 287.298425 191.924409 
L 296.029134 191.924409 
L 296.029134 188.144882 
L 287.298425 188.144882 
L 287.298425 191.924409 
" clip-path="url(#p459aa24621)" style="fill: #470e61; fill-opacity: 0.7"/>
    <path d="M 287.298425 188.144882 
L 296.029134 188.144882 
L 296.029134 184.365354 
L 287.298425 184.365354 
L 287.298425 188.144882 
" clip-path="url(#p459aa24621)" style="fill: #481769; fill-opacity: 0.7"/>
    <path d="M 287.298425 184.365354 
L 296.029134 184.365354 
L 296.029134 180.585827 
L 287.298425 180.585827 
L 287.298425 184.365354 
" clip-path="url(#p459aa24621)" style="fill: #481f70; fill-opacity: 0.7"/>
    <path d="M 287.298425 180.585827 
L 296.029134 180.585827 
L 296.029134 176.806299 
L 287.298425 176.806299 
L 287.298425 180.585827 
" clip-path="url(#p459aa24621)" style="fill: #482677; fill-opacity: 0.7"/>
    <path d="M 287.298425 176.806299 
L 296.029134 176.806299 
L 296.029134 173.026772 
L 287.298425 173.026772 
L 287.298425 176.806299 
" clip-path="url(#p459aa24621)" style="fill: #472e7c; fill-opacity: 0.7"/>
    <path d="M 287.298425 173.026772 
L 296.029134 173.026772 
L 296.029134 169.247244 
L 287.298425 169.247244 
L 287.298425 173.026772 
" clip-path="url(#p459aa24621)" style="fill: #453581; fill-opacity: 0.7"/>
    <path d="M 287.298425 169.247244 
L 296.029134 169.247244 
L 296.029134 165.467717 
L 287.298425 165.467717 
L 287.298425 169.247244 
" clip-path="url(#p459aa24621)" style="fill: #433d84; fill-opacity: 0.7"/>
    <path d="M 287.298425 165.467717 
L 296.029134 165.467717 
L 296.029134 161.688189 
L 287.298425 161.688189 
L 287.298425 165.467717 
" clip-path="url(#p459aa24621)" style="fill: #414487; fill-opacity: 0.7"/>
    <path d="M 287.298425 161.688189 
L 296.029134 161.688189 
L 296.029134 157.908661 
L 287.298425 157.908661 
L 287.298425 161.688189 
" clip-path="url(#p459aa24621)" style="fill: #3e4a89; fill-opacity: 0.7"/>
    <path d="M 287.298425 157.908661 
L 296.029134 157.908661 
L 296.029134 154.129134 
L 287.298425 154.129134 
L 287.298425 157.908661 
" clip-path="url(#p459aa24621)" style="fill: #3b528b; fill-opacity: 0.7"/>
    <path d="M 287.298425 154.129134 
L 296.029134 154.129134 
L 296.029134 150.349606 
L 287.298425 150.349606 
L 287.298425 154.129134 
" clip-path="url(#p459aa24621)" style="fill: #38598c; fill-opacity: 0.7"/>
    <path d="M 287.298425 150.349606 
L 296.029134 150.349606 
L 296.029134 146.570079 
L 287.298425 146.570079 
L 287.298425 150.349606 
" clip-path="url(#p459aa24621)" style="fill: #355f8d; fill-opacity: 0.7"/>
    <path d="M 287.298425 146.570079 
L 296.029134 146.570079 
L 296.029134 142.790551 
L 287.298425 142.790551 
L 287.298425 146.570079 
" clip-path="url(#p459aa24621)" style="fill: #32658e; fill-opacity: 0.7"/>
    <path d="M 287.298425 142.790551 
L 296.029134 142.790551 
L 296.029134 139.011024 
L 287.298425 139.011024 
L 287.298425 142.790551 
" clip-path="url(#p459aa24621)" style="fill: #2f6b8e; fill-opacity: 0.7"/>
    <path d="M 287.298425 139.011024 
L 296.029134 139.011024 
L 296.029134 135.231496 
L 287.298425 135.231496 
L 287.298425 139.011024 
" clip-path="url(#p459aa24621)" style="fill: #2d718e; fill-opacity: 0.7"/>
    <path d="M 287.298425 135.231496 
L 296.029134 135.231496 
L 296.029134 131.451969 
L 287.298425 131.451969 
L 287.298425 135.231496 
" clip-path="url(#p459aa24621)" style="fill: #2a768e; fill-opacity: 0.7"/>
    <path d="M 287.298425 131.451969 
L 296.029134 131.451969 
L 296.029134 127.672441 
L 287.298425 127.672441 
L 287.298425 131.451969 
" clip-path="url(#p459aa24621)" style="fill: #287c8e; fill-opacity: 0.7"/>
    <path d="M 287.298425 127.672441 
L 296.029134 127.672441 
L 296.029134 123.892913 
L 287.298425 123.892913 
L 287.298425 127.672441 
" clip-path="url(#p459aa24621)" style="fill: #26828e; fill-opacity: 0.7"/>
    <path d="M 287.298425 123.892913 
L 296.029134 123.892913 
L 296.029134 120.113386 
L 287.298425 120.113386 
L 287.298425 123.892913 
" clip-path="url(#p459aa24621)" style="fill: #24878e; fill-opacity: 0.7"/>
    <path d="M 287.298425 120.113386 
L 296.029134 120.113386 
L 296.029134 116.333858 
L 287.298425 116.333858 
L 287.298425 120.113386 
" clip-path="url(#p459aa24621)" style="fill: #228d8d; fill-opacity: 0.7"/>
    <path d="M 287.298425 116.333858 
L 296.029134 116.333858 
L 296.029134 112.554331 
L 287.298425 112.554331 
L 287.298425 116.333858 
" clip-path="url(#p459aa24621)" style="fill: #20938c; fill-opacity: 0.7"/>
    <path d="M 287.298425 112.554331 
L 296.029134 112.554331 
L 296.029134 108.774803 
L 287.298425 108.774803 
L 287.298425 112.554331 
" clip-path="url(#p459aa24621)" style="fill: #1f998a; fill-opacity: 0.7"/>
    <path d="M 287.298425 108.774803 
L 296.029134 108.774803 
L 296.029134 104.995276 
L 287.298425 104.995276 
L 287.298425 108.774803 
" clip-path="url(#p459aa24621)" style="fill: #1f9f88; fill-opacity: 0.7"/>
    <path d="M 287.298425 104.995276 
L 296.029134 104.995276 
L 296.029134 101.215748 
L 287.298425 101.215748 
L 287.298425 104.995276 
" clip-path="url(#p459aa24621)" style="fill: #20a486; fill-opacity: 0.7"/>
    <path d="M 287.298425 101.215748 
L 296.029134 101.215748 
L 296.029134 97.43622 
L 287.298425 97.43622 
L 287.298425 101.215748 
" clip-path="url(#p459aa24621)" style="fill: #24aa83; fill-opacity: 0.7"/>
    <path d="M 287.298425 97.43622 
L 296.029134 97.43622 
L 296.029134 93.656693 
L 287.298425 93.656693 
L 287.298425 97.43622 
" clip-path="url(#p459aa24621)" style="fill: #29af7f; fill-opacity: 0.7"/>
    <path d="M 287.298425 93.656693 
L 296.029134 93.656693 
L 296.029134 89.877165 
L 287.298425 89.877165 
L 287.298425 93.656693 
" clip-path="url(#p459aa24621)" style="fill: #31b57b; fill-opacity: 0.7"/>
    <path d="M 287.298425 89.877165 
L 296.029134 89.877165 
L 296.029134 86.097638 
L 287.298425 86.097638 
L 287.298425 89.877165 
" clip-path="url(#p459aa24621)" style="fill: #3aba76; fill-opacity: 0.7"/>
    <path d="M 287.298425 86.097638 
L 296.029134 86.097638 
L 296.029134 82.31811 
L 287.298425 82.31811 
L 287.298425 86.097638 
" clip-path="url(#p459aa24621)" style="fill: #44bf70; fill-opacity: 0.7"/>
    <path d="M 287.298425 82.31811 
L 296.029134 82.31811 
L 296.029134 78.538583 
L 287.298425 78.538583 
L 287.298425 82.31811 
" clip-path="url(#p459aa24621)" style="fill: #50c46a; fill-opacity: 0.7"/>
    <path d="M 287.298425 78.538583 
L 296.029134 78.538583 
L 296.029134 74.759055 
L 287.298425 74.759055 
L 287.298425 78.538583 
" clip-path="url(#p459aa24621)" style="fill: #5ec962; fill-opacity: 0.7"/>
    <path d="M 287.298425 74.759055 
L 296.029134 74.759055 
L 296.029134 70.979528 
L 287.298425 70.979528 
L 287.298425 74.759055 
" clip-path="url(#p459aa24621)" style="fill: #6ccd5a; fill-opacity: 0.7"/>
    <path d="M 287.298425 70.979528 
L 296.029134 70.979528 
L 296.029134 67.2 
L 287.298425 67.2 
L 287.298425 70.979528 
" clip-path="url(#p459aa24621)" style="fill: #7ad151; fill-opacity: 0.7"/>
    <path d="M 287.298425 67.2 
L 296.029134 67.2 
L 296.029134 63.420472 
L 287.298425 63.420472 
L 287.298425 67.2 
" clip-path="url(#p459aa24621)" style="fill: #89d548; fill-opacity: 0.7"/>
    <path d="M 287.298425 63.420472 
L 296.029134 63.420472 
L 296.029134 59.640945 
L 287.298425 59.640945 
L 287.298425 63.420472 
" clip-path="url(#p459aa24621)" style="fill: #98d83e; fill-opacity: 0.7"/>
    <path d="M 287.298425 59.640945 
L 296.029134 59.640945 
L 296.029134 55.861417 
L 287.298425 55.861417 
L 287.298425 59.640945 
" clip-path="url(#p459aa24621)" style="fill: #a8db34; fill-opacity: 0.7"/>
    <path d="M 287.298425 55.861417 
L 296.029134 55.861417 
L 296.029134 52.08189 
L 287.298425 52.08189 
L 287.298425 55.861417 
" clip-path="url(#p459aa24621)" style="fill: #b8de29; fill-opacity: 0.7"/>
    <path d="M 287.298425 52.08189 
L 296.029134 52.08189 
L 296.029134 48.302362 
L 287.298425 48.302362 
L 287.298425 52.08189 
" clip-path="url(#p459aa24621)" style="fill: #c8e020; fill-opacity: 0.7"/>
    <path d="M 287.298425 48.302362 
L 296.029134 48.302362 
L 296.029134 44.522835 
L 287.298425 44.522835 
L 287.298425 48.302362 
" clip-path="url(#p459aa24621)" style="fill: #d8e219; fill-opacity: 0.7"/>
    <path d="M 287.298425 44.522835 
L 296.029134 44.522835 
L 296.029134 40.743307 
L 287.298425 40.743307 
L 287.298425 44.522835 
" clip-path="url(#p459aa24621)" style="fill: #e7e419; fill-opacity: 0.7"/>
    <path d="M 287.298425 40.743307 
L 296.029134 40.743307 
L 296.029134 36.96378 
L 287.298425 36.96378 
L 287.298425 40.743307 
" clip-path="url(#p459aa24621)" style="fill: #f6e620; fill-opacity: 0.7"/>
   </g>
   <g id="matplotlib.axis_3"/>
   <g id="matplotlib.axis_4">
    <g id="ytick_1">
     <g id="line2d_21">
      <defs>
       <path id="m505fe818ec" d="M 0 0 
L -2 0 
" style="stroke: #000000; stroke-width: 0.3"/>
      </defs>
      <g>
       <use xlink:href="#m505fe818ec" x="296.029134" y="188.144882" style="stroke: #000000; stroke-width: 0.3"/>
      </g>
     </g>
     <g id="text_13">
      <!-- 1.025 -->
      <g transform="translate(299.529134 191.008007) scale(0.08 -0.08)">
       <defs>
        <path id="ArialMT-2212" d="M 3381 1997 
L 356 1997 
L 356 2522 
L 3381 2522 
L 3381 1997 
z
" transform="scale(0.015625)"/>
        <path id="ArialMT-31" d="M 2384 0 
L 1822 0 
L 1822 3584 
Q 1619 3391 1289 3197 
Q 959 3003 697 2906 
L 697 3450 
Q 1169 3672 1522 3987 
Q 1875 4303 2022 4600 
L 2384 4600 
L 2384 0 
z
" transform="scale(0.015625)"/>
        <path id="ArialMT-2e" d="M 581 0 
L 581 641 
L 1222 641 
L 1222 0 
L 581 0 
z
" transform="scale(0.015625)"/>
        <path id="ArialMT-30" d="M 266 2259 
Q 266 3072 433 3567 
Q 600 4063 929 4331 
Q 1259 4600 1759 4600 
Q 2128 4600 2406 4451 
Q 2684 4303 2865 4023 
Q 3047 3744 3150 3342 
Q 3253 2941 3253 2259 
Q 3253 1453 3087 958 
Q 2922 463 2592 192 
Q 2263 -78 1759 -78 
Q 1097 -78 719 397 
Q 266 969 266 2259 
z
M 844 2259 
Q 844 1131 1108 757 
Q 1372 384 1759 384 
Q 2147 384 2411 759 
Q 2675 1134 2675 2259 
Q 2675 3391 2411 3762 
Q 2147 4134 1753 4134 
Q 1366 4134 1134 3806 
Q 844 3388 844 2259 
z
" transform="scale(0.015625)"/>
        <path id="ArialMT-32" d="M 3222 541 
L 3222 0 
L 194 0 
Q 188 203 259 391 
Q 375 700 629 1000 
Q 884 1300 1366 1694 
Q 2113 2306 2375 2664 
Q 2638 3022 2638 3341 
Q 2638 3675 2398 3904 
Q 2159 4134 1775 4134 
Q 1369 4134 1125 3890 
Q 881 3647 878 3216 
L 300 3275 
Q 359 3922 746 4261 
Q 1134 4600 1788 4600 
Q 2447 4600 2831 4234 
Q 3216 3869 3216 3328 
Q 3216 3053 3103 2787 
Q 2991 2522 2730 2228 
Q 2469 1934 1863 1422 
Q 1356 997 1212 845 
Q 1069 694 975 541 
L 3222 541 
z
" transform="scale(0.015625)"/>
        <path id="ArialMT-35" d="M 266 1200 
L 856 1250 
Q 922 819 1161 601 
Q 1400 384 1738 384 
Q 2144 384 2425 690 
Q 2706 997 2706 1503 
Q 2706 1984 2436 2262 
Q 2166 2541 1728 2541 
Q 1456 2541 1237 2417 
Q 1019 2294 894 2097 
L 366 2166 
L 809 4519 
L 3088 4519 
L 3088 3981 
L 1259 3981 
L 1013 2750 
Q 1425 3038 1878 3038 
Q 2478 3038 2890 2622 
Q 3303 2206 3303 1553 
Q 3303 931 2941 478 
Q 2500 -78 1738 -78 
Q 1113 -78 717 272 
Q 322 622 266 1200 
z
" transform="scale(0.015625)"/>
       </defs>
       <use xlink:href="#ArialMT-2212"/>
       <use xlink:href="#ArialMT-31" transform="translate(58.398438 0)"/>
       <use xlink:href="#ArialMT-2e" transform="translate(114.013672 0)"/>
       <use xlink:href="#ArialMT-30" transform="translate(141.796875 0)"/>
       <use xlink:href="#ArialMT-32" transform="translate(197.412109 0)"/>
       <use xlink:href="#ArialMT-35" transform="translate(253.027344 0)"/>
      </g>
     </g>
    </g>
    <g id="ytick_2">
     <g id="line2d_22">
      <g>
       <use xlink:href="#m505fe818ec" x="296.029134" y="169.247244" style="stroke: #000000; stroke-width: 0.3"/>
      </g>
     </g>
     <g id="text_14">
      <!-- 0.900 -->
      <g transform="translate(299.529134 172.110369) scale(0.08 -0.08)">
       <defs>
        <path id="ArialMT-39" d="M 350 1059 
L 891 1109 
Q 959 728 1153 556 
Q 1347 384 1650 384 
Q 1909 384 2104 503 
Q 2300 622 2425 820 
Q 2550 1019 2634 1356 
Q 2719 1694 2719 2044 
Q 2719 2081 2716 2156 
Q 2547 1888 2255 1720 
Q 1963 1553 1622 1553 
Q 1053 1553 659 1965 
Q 266 2378 266 3053 
Q 266 3750 677 4175 
Q 1088 4600 1706 4600 
Q 2153 4600 2523 4359 
Q 2894 4119 3086 3673 
Q 3278 3228 3278 2384 
Q 3278 1506 3087 986 
Q 2897 466 2520 194 
Q 2144 -78 1638 -78 
Q 1100 -78 759 220 
Q 419 519 350 1059 
z
M 2653 3081 
Q 2653 3566 2395 3850 
Q 2138 4134 1775 4134 
Q 1400 4134 1122 3828 
Q 844 3522 844 3034 
Q 844 2597 1108 2323 
Q 1372 2050 1759 2050 
Q 2150 2050 2401 2323 
Q 2653 2597 2653 3081 
z
" transform="scale(0.015625)"/>
       </defs>
       <use xlink:href="#ArialMT-2212"/>
       <use xlink:href="#ArialMT-30" transform="translate(58.398438 0)"/>
       <use xlink:href="#ArialMT-2e" transform="translate(114.013672 0)"/>
       <use xlink:href="#ArialMT-39" transform="translate(141.796875 0)"/>
       <use xlink:href="#ArialMT-30" transform="translate(197.412109 0)"/>
       <use xlink:href="#ArialMT-30" transform="translate(253.027344 0)"/>
      </g>
     </g>
    </g>
    <g id="ytick_3">
     <g id="line2d_23">
      <g>
       <use xlink:href="#m505fe818ec" x="296.029134" y="150.349606" style="stroke: #000000; stroke-width: 0.3"/>
      </g>
     </g>
     <g id="text_15">
      <!-- 0.775 -->
      <g transform="translate(299.529134 153.212731) scale(0.08 -0.08)">
       <defs>
        <path id="ArialMT-37" d="M 303 3981 
L 303 4522 
L 3269 4522 
L 3269 4084 
Q 2831 3619 2401 2847 
Q 1972 2075 1738 1259 
Q 1569 684 1522 0 
L 944 0 
Q 953 541 1156 1306 
Q 1359 2072 1739 2783 
Q 2119 3494 2547 3981 
L 303 3981 
z
" transform="scale(0.015625)"/>
       </defs>
       <use xlink:href="#ArialMT-2212"/>
       <use xlink:href="#ArialMT-30" transform="translate(58.398438 0)"/>
       <use xlink:href="#ArialMT-2e" transform="translate(114.013672 0)"/>
       <use xlink:href="#ArialMT-37" transform="translate(141.796875 0)"/>
       <use xlink:href="#ArialMT-37" transform="translate(197.412109 0)"/>
       <use xlink:href="#ArialMT-35" transform="translate(253.027344 0)"/>
      </g>
     </g>
    </g>
    <g id="ytick_4">
     <g id="line2d_24">
      <g>
       <use xlink:href="#m505fe818ec" x="296.029134" y="131.451969" style="stroke: #000000; stroke-width: 0.3"/>
      </g>
     </g>
     <g id="text_16">
      <!-- 0.650 -->
      <g transform="translate(299.529134 134.315094) scale(0.08 -0.08)">
       <defs>
        <path id="ArialMT-36" d="M 3184 3459 
L 2625 3416 
Q 2550 3747 2413 3897 
Q 2184 4138 1850 4138 
Q 1581 4138 1378 3988 
Q 1113 3794 959 3422 
Q 806 3050 800 2363 
Q 1003 2672 1297 2822 
Q 1591 2972 1913 2972 
Q 2475 2972 2870 2558 
Q 3266 2144 3266 1488 
Q 3266 1056 3080 686 
Q 2894 316 2569 119 
Q 2244 -78 1831 -78 
Q 1128 -78 684 439 
Q 241 956 241 2144 
Q 241 3472 731 4075 
Q 1159 4600 1884 4600 
Q 2425 4600 2770 4297 
Q 3116 3994 3184 3459 
z
M 888 1484 
Q 888 1194 1011 928 
Q 1134 663 1356 523 
Q 1578 384 1822 384 
Q 2178 384 2434 671 
Q 2691 959 2691 1453 
Q 2691 1928 2437 2201 
Q 2184 2475 1800 2475 
Q 1419 2475 1153 2201 
Q 888 1928 888 1484 
z
" transform="scale(0.015625)"/>
       </defs>
       <use xlink:href="#ArialMT-2212"/>
       <use xlink:href="#ArialMT-30" transform="translate(58.398438 0)"/>
       <use xlink:href="#ArialMT-2e" transform="translate(114.013672 0)"/>
       <use xlink:href="#ArialMT-36" transform="translate(141.796875 0)"/>
       <use xlink:href="#ArialMT-35" transform="translate(197.412109 0)"/>
       <use xlink:href="#ArialMT-30" transform="translate(253.027344 0)"/>
      </g>
     </g>
    </g>
    <g id="ytick_5">
     <g id="line2d_25">
      <g>
       <use xlink:href="#m505fe818ec" x="296.029134" y="112.554331" style="stroke: #000000; stroke-width: 0.3"/>
      </g>
     </g>
     <g id="text_17">
      <!-- 0.525 -->
      <g transform="translate(299.529134 115.417456) scale(0.08 -0.08)">
       <use xlink:href="#ArialMT-2212"/>
       <use xlink:href="#ArialMT-30" transform="translate(58.398438 0)"/>
       <use xlink:href="#ArialMT-2e" transform="translate(114.013672 0)"/>
       <use xlink:href="#ArialMT-35" transform="translate(141.796875 0)"/>
       <use xlink:href="#ArialMT-32" transform="translate(197.412109 0)"/>
       <use xlink:href="#ArialMT-35" transform="translate(253.027344 0)"/>
      </g>
     </g>
    </g>
    <g id="ytick_6">
     <g id="line2d_26">
      <g>
       <use xlink:href="#m505fe818ec" x="296.029134" y="93.656693" style="stroke: #000000; stroke-width: 0.3"/>
      </g>
     </g>
     <g id="text_18">
      <!-- 0.400 -->
      <g transform="translate(299.529134 96.519818) scale(0.08 -0.08)">
       <defs>
        <path id="ArialMT-34" d="M 2069 0 
L 2069 1097 
L 81 1097 
L 81 1613 
L 2172 4581 
L 2631 4581 
L 2631 1613 
L 3250 1613 
L 3250 1097 
L 2631 1097 
L 2631 0 
L 2069 0 
z
M 2069 1613 
L 2069 3678 
L 634 1613 
L 2069 1613 
z
" transform="scale(0.015625)"/>
       </defs>
       <use xlink:href="#ArialMT-2212"/>
       <use xlink:href="#ArialMT-30" transform="translate(58.398438 0)"/>
       <use xlink:href="#ArialMT-2e" transform="translate(114.013672 0)"/>
       <use xlink:href="#ArialMT-34" transform="translate(141.796875 0)"/>
       <use xlink:href="#ArialMT-30" transform="translate(197.412109 0)"/>
       <use xlink:href="#ArialMT-30" transform="translate(253.027344 0)"/>
      </g>
     </g>
    </g>
    <g id="ytick_7">
     <g id="line2d_27">
      <g>
       <use xlink:href="#m505fe818ec" x="296.029134" y="74.759055" style="stroke: #000000; stroke-width: 0.3"/>
      </g>
     </g>
     <g id="text_19">
      <!-- 0.275 -->
      <g transform="translate(299.529134 77.62218) scale(0.08 -0.08)">
       <use xlink:href="#ArialMT-2212"/>
       <use xlink:href="#ArialMT-30" transform="translate(58.398438 0)"/>
       <use xlink:href="#ArialMT-2e" transform="translate(114.013672 0)"/>
       <use xlink:href="#ArialMT-32" transform="translate(141.796875 0)"/>
       <use xlink:href="#ArialMT-37" transform="translate(197.412109 0)"/>
       <use xlink:href="#ArialMT-35" transform="translate(253.027344 0)"/>
      </g>
     </g>
    </g>
    <g id="ytick_8">
     <g id="line2d_28">
      <g>
       <use xlink:href="#m505fe818ec" x="296.029134" y="55.861417" style="stroke: #000000; stroke-width: 0.3"/>
      </g>
     </g>
     <g id="text_20">
      <!-- 0.150 -->
      <g transform="translate(299.529134 58.724542) scale(0.08 -0.08)">
       <use xlink:href="#ArialMT-2212"/>
       <use xlink:href="#ArialMT-30" transform="translate(58.398438 0)"/>
       <use xlink:href="#ArialMT-2e" transform="translate(114.013672 0)"/>
       <use xlink:href="#ArialMT-31" transform="translate(141.796875 0)"/>
       <use xlink:href="#ArialMT-35" transform="translate(197.412109 0)"/>
       <use xlink:href="#ArialMT-30" transform="translate(253.027344 0)"/>
      </g>
     </g>
    </g>
    <g id="ytick_9">
     <g id="line2d_29">
      <g>
       <use xlink:href="#m505fe818ec" x="296.029134" y="36.96378" style="stroke: #000000; stroke-width: 0.3"/>
      </g>
     </g>
     <g id="text_21">
      <!-- 0.025 -->
      <g transform="translate(299.529134 39.826905) scale(0.08 -0.08)">
       <use xlink:href="#ArialMT-2212"/>
       <use xlink:href="#ArialMT-30" transform="translate(58.398438 0)"/>
       <use xlink:href="#ArialMT-2e" transform="translate(114.013672 0)"/>
       <use xlink:href="#ArialMT-30" transform="translate(141.796875 0)"/>
       <use xlink:href="#ArialMT-32" transform="translate(197.412109 0)"/>
       <use xlink:href="#ArialMT-35" transform="translate(253.027344 0)"/>
      </g>
     </g>
    </g>
    <g id="text_22">
     <!-- Formation Energy (eV/atom) -->
     <g transform="translate(335.498821 179.408077) rotate(-90) scale(0.1 -0.1)">
      <defs>
       <path id="ArialMT-46" d="M 525 0 
L 525 4581 
L 3616 4581 
L 3616 4041 
L 1131 4041 
L 1131 2622 
L 3281 2622 
L 3281 2081 
L 1131 2081 
L 1131 0 
L 525 0 
z
" transform="scale(0.015625)"/>
       <path id="ArialMT-6f" d="M 213 1659 
Q 213 2581 725 3025 
Q 1153 3394 1769 3394 
Q 2453 3394 2887 2945 
Q 3322 2497 3322 1706 
Q 3322 1066 3130 698 
Q 2938 331 2570 128 
Q 2203 -75 1769 -75 
Q 1072 -75 642 372 
Q 213 819 213 1659 
z
M 791 1659 
Q 791 1022 1069 705 
Q 1347 388 1769 388 
Q 2188 388 2466 706 
Q 2744 1025 2744 1678 
Q 2744 2294 2464 2611 
Q 2184 2928 1769 2928 
Q 1347 2928 1069 2612 
Q 791 2297 791 1659 
z
" transform="scale(0.015625)"/>
       <path id="ArialMT-72" d="M 416 0 
L 416 3319 
L 922 3319 
L 922 2816 
Q 1116 3169 1280 3281 
Q 1444 3394 1641 3394 
Q 1925 3394 2219 3213 
L 2025 2691 
Q 1819 2813 1613 2813 
Q 1428 2813 1281 2702 
Q 1134 2591 1072 2394 
Q 978 2094 978 1738 
L 978 0 
L 416 0 
z
" transform="scale(0.015625)"/>
       <path id="ArialMT-6d" d="M 422 0 
L 422 3319 
L 925 3319 
L 925 2853 
Q 1081 3097 1340 3245 
Q 1600 3394 1931 3394 
Q 2300 3394 2536 3241 
Q 2772 3088 2869 2813 
Q 3263 3394 3894 3394 
Q 4388 3394 4653 3120 
Q 4919 2847 4919 2278 
L 4919 0 
L 4359 0 
L 4359 2091 
Q 4359 2428 4304 2576 
Q 4250 2725 4106 2815 
Q 3963 2906 3769 2906 
Q 3419 2906 3187 2673 
Q 2956 2441 2956 1928 
L 2956 0 
L 2394 0 
L 2394 2156 
Q 2394 2531 2256 2718 
Q 2119 2906 1806 2906 
Q 1569 2906 1367 2781 
Q 1166 2656 1075 2415 
Q 984 2175 984 1722 
L 984 0 
L 422 0 
z
" transform="scale(0.015625)"/>
       <path id="ArialMT-61" d="M 2588 409 
Q 2275 144 1986 34 
Q 1697 -75 1366 -75 
Q 819 -75 525 192 
Q 231 459 231 875 
Q 231 1119 342 1320 
Q 453 1522 633 1644 
Q 813 1766 1038 1828 
Q 1203 1872 1538 1913 
Q 2219 1994 2541 2106 
Q 2544 2222 2544 2253 
Q 2544 2597 2384 2738 
Q 2169 2928 1744 2928 
Q 1347 2928 1158 2789 
Q 969 2650 878 2297 
L 328 2372 
Q 403 2725 575 2942 
Q 747 3159 1072 3276 
Q 1397 3394 1825 3394 
Q 2250 3394 2515 3294 
Q 2781 3194 2906 3042 
Q 3031 2891 3081 2659 
Q 3109 2516 3109 2141 
L 3109 1391 
Q 3109 606 3145 398 
Q 3181 191 3288 0 
L 2700 0 
Q 2613 175 2588 409 
z
M 2541 1666 
Q 2234 1541 1622 1453 
Q 1275 1403 1131 1340 
Q 988 1278 909 1158 
Q 831 1038 831 891 
Q 831 666 1001 516 
Q 1172 366 1500 366 
Q 1825 366 2078 508 
Q 2331 650 2450 897 
Q 2541 1088 2541 1459 
L 2541 1666 
z
" transform="scale(0.015625)"/>
       <path id="ArialMT-74" d="M 1650 503 
L 1731 6 
Q 1494 -44 1306 -44 
Q 1000 -44 831 53 
Q 663 150 594 308 
Q 525 466 525 972 
L 525 2881 
L 113 2881 
L 113 3319 
L 525 3319 
L 525 4141 
L 1084 4478 
L 1084 3319 
L 1650 3319 
L 1650 2881 
L 1084 2881 
L 1084 941 
Q 1084 700 1114 631 
Q 1144 563 1211 522 
Q 1278 481 1403 481 
Q 1497 481 1650 503 
z
" transform="scale(0.015625)"/>
       <path id="ArialMT-69" d="M 425 3934 
L 425 4581 
L 988 4581 
L 988 3934 
L 425 3934 
z
M 425 0 
L 425 3319 
L 988 3319 
L 988 0 
L 425 0 
z
" transform="scale(0.015625)"/>
       <path id="ArialMT-6e" d="M 422 0 
L 422 3319 
L 928 3319 
L 928 2847 
Q 1294 3394 1984 3394 
Q 2284 3394 2536 3286 
Q 2788 3178 2913 3003 
Q 3038 2828 3088 2588 
Q 3119 2431 3119 2041 
L 3119 0 
L 2556 0 
L 2556 2019 
Q 2556 2363 2490 2533 
Q 2425 2703 2258 2804 
Q 2091 2906 1866 2906 
Q 1506 2906 1245 2678 
Q 984 2450 984 1813 
L 984 0 
L 422 0 
z
" transform="scale(0.015625)"/>
       <path id="ArialMT-20" transform="scale(0.015625)"/>
       <path id="ArialMT-45" d="M 506 0 
L 506 4581 
L 3819 4581 
L 3819 4041 
L 1113 4041 
L 1113 2638 
L 3647 2638 
L 3647 2100 
L 1113 2100 
L 1113 541 
L 3925 541 
L 3925 0 
L 506 0 
z
" transform="scale(0.015625)"/>
       <path id="ArialMT-65" d="M 2694 1069 
L 3275 997 
Q 3138 488 2766 206 
Q 2394 -75 1816 -75 
Q 1088 -75 661 373 
Q 234 822 234 1631 
Q 234 2469 665 2931 
Q 1097 3394 1784 3394 
Q 2450 3394 2872 2941 
Q 3294 2488 3294 1666 
Q 3294 1616 3291 1516 
L 816 1516 
Q 847 969 1125 678 
Q 1403 388 1819 388 
Q 2128 388 2347 550 
Q 2566 713 2694 1069 
z
M 847 1978 
L 2700 1978 
Q 2663 2397 2488 2606 
Q 2219 2931 1791 2931 
Q 1403 2931 1139 2672 
Q 875 2413 847 1978 
z
" transform="scale(0.015625)"/>
       <path id="ArialMT-67" d="M 319 -275 
L 866 -356 
Q 900 -609 1056 -725 
Q 1266 -881 1628 -881 
Q 2019 -881 2231 -725 
Q 2444 -569 2519 -288 
Q 2563 -116 2559 434 
Q 2191 0 1641 0 
Q 956 0 581 494 
Q 206 988 206 1678 
Q 206 2153 378 2554 
Q 550 2956 876 3175 
Q 1203 3394 1644 3394 
Q 2231 3394 2613 2919 
L 2613 3319 
L 3131 3319 
L 3131 450 
Q 3131 -325 2973 -648 
Q 2816 -972 2473 -1159 
Q 2131 -1347 1631 -1347 
Q 1038 -1347 672 -1080 
Q 306 -813 319 -275 
z
M 784 1719 
Q 784 1066 1043 766 
Q 1303 466 1694 466 
Q 2081 466 2343 764 
Q 2606 1063 2606 1700 
Q 2606 2309 2336 2618 
Q 2066 2928 1684 2928 
Q 1309 2928 1046 2623 
Q 784 2319 784 1719 
z
" transform="scale(0.015625)"/>
       <path id="ArialMT-79" d="M 397 -1278 
L 334 -750 
Q 519 -800 656 -800 
Q 844 -800 956 -737 
Q 1069 -675 1141 -563 
Q 1194 -478 1313 -144 
Q 1328 -97 1363 -6 
L 103 3319 
L 709 3319 
L 1400 1397 
Q 1534 1031 1641 628 
Q 1738 1016 1872 1384 
L 2581 3319 
L 3144 3319 
L 1881 -56 
Q 1678 -603 1566 -809 
Q 1416 -1088 1222 -1217 
Q 1028 -1347 759 -1347 
Q 597 -1347 397 -1278 
z
" transform="scale(0.015625)"/>
       <path id="ArialMT-28" d="M 1497 -1347 
Q 1031 -759 709 28 
Q 388 816 388 1659 
Q 388 2403 628 3084 
Q 909 3875 1497 4659 
L 1900 4659 
Q 1522 4009 1400 3731 
Q 1209 3300 1100 2831 
Q 966 2247 966 1656 
Q 966 153 1900 -1347 
L 1497 -1347 
z
" transform="scale(0.015625)"/>
       <path id="ArialMT-56" d="M 1803 0 
L 28 4581 
L 684 4581 
L 1875 1253 
Q 2019 853 2116 503 
Q 2222 878 2363 1253 
L 3600 4581 
L 4219 4581 
L 2425 0 
L 1803 0 
z
" transform="scale(0.015625)"/>
       <path id="ArialMT-2f" d="M 0 -78 
L 1328 4659 
L 1778 4659 
L 453 -78 
L 0 -78 
z
" transform="scale(0.015625)"/>
       <path id="ArialMT-29" d="M 791 -1347 
L 388 -1347 
Q 1322 153 1322 1656 
Q 1322 2244 1188 2822 
Q 1081 3291 891 3722 
Q 769 4003 388 4659 
L 791 4659 
Q 1378 3875 1659 3084 
Q 1900 2403 1900 1659 
Q 1900 816 1576 28 
Q 1253 -759 791 -1347 
z
" transform="scale(0.015625)"/>
      </defs>
      <use xlink:href="#ArialMT-46"/>
      <use xlink:href="#ArialMT-6f" transform="translate(61.083984 0)"/>
      <use xlink:href="#ArialMT-72" transform="translate(116.699219 0)"/>
      <use xlink:href="#ArialMT-6d" transform="translate(150 0)"/>
      <use xlink:href="#ArialMT-61" transform="translate(233.300781 0)"/>
      <use xlink:href="#ArialMT-74" transform="translate(288.916016 0)"/>
      <use xlink:href="#ArialMT-69" transform="translate(316.699219 0)"/>
      <use xlink:href="#ArialMT-6f" transform="translate(338.916016 0)"/>
      <use xlink:href="#ArialMT-6e" transform="translate(394.53125 0)"/>
      <use xlink:href="#ArialMT-20" transform="translate(450.146484 0)"/>
      <use xlink:href="#ArialMT-45" transform="translate(477.929688 0)"/>
      <use xlink:href="#ArialMT-6e" transform="translate(544.628906 0)"/>
      <use xlink:href="#ArialMT-65" transform="translate(600.244141 0)"/>
      <use xlink:href="#ArialMT-72" transform="translate(655.859375 0)"/>
      <use xlink:href="#ArialMT-67" transform="translate(689.160156 0)"/>
      <use xlink:href="#ArialMT-79" transform="translate(744.775391 0)"/>
      <use xlink:href="#ArialMT-20" transform="translate(794.775391 0)"/>
      <use xlink:href="#ArialMT-28" transform="translate(822.558594 0)"/>
      <use xlink:href="#ArialMT-65" transform="translate(855.859375 0)"/>
      <use xlink:href="#ArialMT-56" transform="translate(911.474609 0)"/>
      <use xlink:href="#ArialMT-2f" transform="translate(978.173828 0)"/>
      <use xlink:href="#ArialMT-61" transform="translate(1005.957031 0)"/>
      <use xlink:href="#ArialMT-74" transform="translate(1061.572266 0)"/>
      <use xlink:href="#ArialMT-6f" transform="translate(1089.355469 0)"/>
      <use xlink:href="#ArialMT-6d" transform="translate(1144.970703 0)"/>
      <use xlink:href="#ArialMT-29" transform="translate(1228.271484 0)"/>
     </g>
    </g>
   </g>
   <g id="LineCollection_1"/>
   <g id="patch_6">
    <path d="M 287.298425 195.703937 
L 291.66378 203.640945 
L 296.029134 195.703937 
L 296.029134 36.96378 
L 291.66378 29.026772 
L 287.298425 36.96378 
L 287.298425 195.703937 
z
" style="fill: none; stroke: #000000; stroke-width: 0.8; stroke-linejoin: miter; stroke-linecap: square"/>
   </g>
  </g>
 </g>
 <defs>
  <clipPath id="p701864ca4a">
   <rect x="7.2" y="7.2" width="263.622047" height="218.267717"/>
  </clipPath>
  <clipPath id="p459aa24621">
   <rect x="287.298425" y="36.96378" width="8.730709" height="158.740157"/>
  </clipPath>
 </defs>
</svg>
