<?xml version="1.0" encoding="utf-8" standalone="no"?>
<!DOCTYPE svg PUBLIC "-//W3C//DTD SVG 1.1//EN"
  "http://www.w3.org/Graphics/SVG/1.1/DTD/svg11.dtd">
<svg xmlns:xlink="http://www.w3.org/1999/xlink" width="340.354759pt" height="232.667717pt" viewBox="0 0 340.354759 232.667717" xmlns="http://www.w3.org/2000/svg" version="1.1">
 <metadata>
  <rdf:RDF xmlns:dc="http://purl.org/dc/elements/1.1/" xmlns:cc="http://creativecommons.org/ns#" xmlns:rdf="http://www.w3.org/1999/02/22-rdf-syntax-ns#">
   <cc:Work>
    <dc:type rdf:resource="http://purl.org/dc/dcmitype/StillImage"/>
    <dc:date>2026-01-27T21:37:16.468359</dc:date>
    <dc:format>image/svg+xml</dc:format>
    <dc:creator>
     <cc:Agent>
      <dc:title>Matplotlib v3.10.8, https://matplotlib.org/</dc:title>
     </cc:Agent>
    </dc:creator>
   </cc:Work>
  </rdf:RDF>
 </metadata>
 <defs>
  <style type="text/css">*{stroke-linejoin: round; stroke-linecap: butt}</style>
 </defs>
 <g id="figure_1">
  <g id="patch_1">
   <path d="M 0 232.667717 
L 340.354759 232.667717 
L 340.354759 0 
L 0 0 
L 0 232.667717 
z
" style="fill: none"/>
  </g>
  <g id="axes_1">
   <g id="patch_2">
    <path d="M 7.2 225.467717 
L 270.822047 225.467717 
L 270.822047 7.2 
L 7.2 7.2 
L 7.2 225.467717 
z
" style="fill: none"/>
   </g>
   <g id="TriContourSet_1">
    <path d="M 179.751445 214.554331 
L 162.393039 185.740197 
L 159.28112 181.29367 
L 158.261446 180.775561 
L 155.906617 185.662683 
L 176.743489 214.554331 
L 178.953758 214.554331 
z
" clip-path="url(#pd4802d8e9f)" style="fill: #440154; fill-opacity: 0.7"/>
    <path d="M 176.743489 214.554331 
L 155.906617 185.662683 
L 158.261446 180.775561 
L 159.28112 181.29367 
L 162.393039 185.740197 
L 179.751445 214.554331 
L 184.04072 214.554331 
L 170.5655 192.186103 
L 159.996925 177.084985 
L 156.533946 175.325403 
L 148.536571 191.922851 
L 164.858562 214.554331 
z
" clip-path="url(#pd4802d8e9f)" style="fill: #450457; fill-opacity: 0.7"/>
    <path d="M 164.858562 214.554331 
L 148.536571 191.922851 
L 156.533946 175.325403 
L 159.996925 177.084985 
L 170.5655 192.186103 
L 184.04072 214.554331 
L 188.329995 214.554331 
L 178.737961 198.632009 
L 160.712729 172.876299 
L 154.806446 169.875245 
L 141.166525 198.183019 
L 152.973636 214.554331 
z
" clip-path="url(#pd4802d8e9f)" style="fill: #470d60; fill-opacity: 0.7"/>
    <path d="M 152.973636 214.554331 
L 141.166525 198.183019 
L 154.806446 169.875245 
L 160.712729 172.876299 
L 178.737961 198.632009 
L 188.329995 214.554331 
L 192.619269 214.554331 
L 186.910423 205.077915 
L 161.428533 168.667613 
L 153.078946 164.425087 
L 133.796478 204.443187 
L 141.08871 214.554331 
z
" clip-path="url(#pd4802d8e9f)" style="fill: #481668; fill-opacity: 0.7"/>
    <path d="M 141.08871 214.554331 
L 133.796478 204.443187 
L 153.078946 164.425087 
L 161.428533 168.667613 
L 186.910423 205.077915 
L 192.619269 214.554331 
L 196.908544 214.554331 
L 195.082884 211.52382 
L 162.144337 164.458928 
L 151.351446 158.974929 
L 126.426432 210.703355 
L 129.203784 214.554331 
z
" clip-path="url(#pd4802d8e9f)" style="fill: #481d6f; fill-opacity: 0.7"/>
    <path d="M 129.203784 214.554331 
L 126.426432 210.703355 
L 151.351446 158.974929 
L 162.144337 164.458928 
L 195.082884 211.52382 
L 196.908544 214.554331 
L 198.925125 214.554331 
L 199.728209 214.554331 
L 199.41225 213.017481 
L 198.925125 211.800833 
L 198.272911 210.850478 
L 162.860141 160.250242 
L 149.623947 153.524771 
L 122.901828 208.982839 
L 120.860017 213.517669 
L 120.88909 214.554331 
L 121.892709 214.554331 
z
" clip-path="url(#pd4802d8e9f)" style="fill: #482576; fill-opacity: 0.7"/>
    <path d="M 120.88909 214.554331 
L 120.860017 213.517669 
L 122.901828 208.982839 
L 149.623947 153.524771 
L 162.860141 160.250242 
L 198.272911 210.850478 
L 198.925125 211.800833 
L 199.41225 213.017481 
L 199.728209 214.554331 
L 201.243876 214.554331 
L 200.331605 210.11697 
L 198.925125 206.604133 
L 197.041982 203.860164 
L 163.575946 156.041557 
L 147.896447 148.074613 
L 125.523974 194.505591 
L 118.176618 210.823953 
L 118.281237 214.554331 
z
" clip-path="url(#pd4802d8e9f)" style="fill: #472d7b; fill-opacity: 0.7"/>
    <path d="M 118.281237 214.554331 
L 118.176618 210.823953 
L 125.523974 194.505591 
L 147.896447 148.074613 
L 163.575946 156.041557 
L 197.041982 203.860164 
L 198.925125 206.604133 
L 200.331605 210.11697 
L 201.243876 214.554331 
L 202.759543 214.554331 
L 201.250961 207.21646 
L 198.925125 201.407434 
L 195.811053 196.869849 
L 164.29175 151.832871 
L 146.168947 142.624454 
L 128.14612 180.028344 
L 115.493219 208.130238 
L 115.673384 214.554331 
z
" clip-path="url(#pd4802d8e9f)" style="fill: #463480; fill-opacity: 0.7"/>
    <path d="M 115.673384 214.554331 
L 115.493219 208.130238 
L 128.14612 180.028344 
L 146.168947 142.624454 
L 164.29175 151.832871 
L 195.811053 196.869849 
L 198.925125 201.407434 
L 201.250961 207.21646 
L 202.759543 214.554331 
L 204.27521 214.554331 
L 202.170316 204.315949 
L 198.925125 196.210734 
L 194.580123 189.879535 
L 165.007554 147.624185 
L 144.441447 137.174296 
L 130.768266 165.551096 
L 112.80982 205.436522 
L 113.065531 214.554331 
z
" clip-path="url(#pd4802d8e9f)" style="fill: #443b84; fill-opacity: 0.7"/>
    <path d="M 113.065531 214.554331 
L 112.80982 205.436522 
L 130.768266 165.551096 
L 144.441447 137.174296 
L 165.007554 147.624185 
L 194.580123 189.879535 
L 198.925125 196.210734 
L 202.170316 204.315949 
L 204.27521 214.554331 
L 205.790878 214.554331 
L 203.089671 201.415439 
L 198.925125 191.014034 
L 193.349194 182.889221 
L 165.723358 143.4155 
L 142.713947 131.724138 
L 133.390412 151.073849 
L 110.126421 202.742807 
L 110.457678 214.554331 
z
" clip-path="url(#pd4802d8e9f)" style="fill: #414287; fill-opacity: 0.7"/>
    <path d="M 110.457678 214.554331 
L 110.126421 202.742807 
L 133.390412 151.073849 
L 142.713947 131.724138 
L 165.723358 143.4155 
L 193.349194 182.889221 
L 198.925125 191.014034 
L 203.089671 201.415439 
L 205.790878 214.554331 
L 207.306545 214.554331 
L 204.009026 198.514928 
L 198.925125 185.817334 
L 192.118265 175.898907 
L 166.439162 139.206814 
L 140.986447 126.27398 
L 136.012558 136.596601 
L 107.443022 200.049092 
L 107.849825 214.554331 
z
" clip-path="url(#pd4802d8e9f)" style="fill: #3e4989; fill-opacity: 0.7"/>
    <path d="M 107.849825 214.554331 
L 107.443022 200.049092 
L 136.012558 136.596601 
L 140.986447 126.27398 
L 166.439162 139.206814 
L 192.118265 175.898907 
L 198.925125 185.817334 
L 204.009026 198.514928 
L 207.306545 214.554331 
L 208.822212 214.554331 
L 204.928382 195.614418 
L 198.925125 180.620634 
L 190.887335 168.908592 
L 167.154966 134.998128 
L 139.258947 120.823822 
L 138.634704 122.119354 
L 104.759623 197.355376 
L 105.241972 214.554331 
z
" clip-path="url(#pd4802d8e9f)" style="fill: #3c508b; fill-opacity: 0.7"/>
    <path d="M 105.241972 214.554331 
L 104.759623 197.355376 
L 138.634704 122.119354 
L 139.258947 120.823822 
L 167.154966 134.998128 
L 190.887335 168.908592 
L 198.925125 180.620634 
L 204.928382 195.614418 
L 208.822212 214.554331 
L 210.337879 214.554331 
L 205.847737 192.713907 
L 198.925125 175.423934 
L 189.656406 161.918278 
L 167.870771 130.789443 
L 141.632243 117.457328 
L 140.855556 117.131943 
L 137.731814 117.375108 
L 137.283594 117.77083 
L 136.197147 119.090464 
L 134.953475 121.641802 
L 102.076223 194.661661 
L 102.634119 214.554331 
z
" clip-path="url(#pd4802d8e9f)" style="fill: #39568c; fill-opacity: 0.7"/>
    <path d="M 102.634119 214.554331 
L 102.076223 194.661661 
L 134.953475 121.641802 
L 136.197147 119.090464 
L 137.283594 117.77083 
L 137.731814 117.375108 
L 140.855556 117.131943 
L 141.632243 117.457328 
L 167.870771 130.789443 
L 189.656406 161.918278 
L 198.925125 175.423934 
L 205.847737 192.713907 
L 210.337879 214.554331 
L 211.853546 214.554331 
L 206.767092 189.813397 
L 198.925125 170.227234 
L 188.425477 154.927964 
L 168.586575 126.580757 
L 144.692685 114.439981 
L 143.009165 113.734689 
L 136.238256 114.261764 
L 135.266708 115.119516 
L 132.911765 117.979909 
L 130.216027 123.510098 
L 99.392824 191.967945 
L 100.026266 214.554331 
z
" clip-path="url(#pd4802d8e9f)" style="fill: #365d8d; fill-opacity: 0.7"/>
    <path d="M 100.026266 214.554331 
L 99.392824 191.967945 
L 130.216027 123.510098 
L 132.911765 117.979909 
L 135.266708 115.119516 
L 136.238256 114.261764 
L 143.009165 113.734689 
L 144.692685 114.439981 
L 168.586575 126.580757 
L 188.425477 154.927964 
L 198.925125 170.227234 
L 206.767092 189.813397 
L 211.853546 214.554331 
L 213.369213 214.554331 
L 207.686447 186.912886 
L 198.925125 165.030534 
L 187.194548 147.93765 
L 169.302379 122.372071 
L 147.753127 111.422634 
L 145.162774 110.337435 
L 134.744697 111.14842 
L 133.249823 112.468203 
L 129.626383 116.869354 
L 125.478579 125.378393 
L 96.709425 189.27423 
L 97.418413 214.554331 
z
" clip-path="url(#pd4802d8e9f)" style="fill: #33638d; fill-opacity: 0.7"/>
    <path d="M 97.418413 214.554331 
L 96.709425 189.27423 
L 125.478579 125.378393 
L 129.626383 116.869354 
L 133.249823 112.468203 
L 134.744697 111.14842 
L 145.162774 110.337435 
L 147.753127 111.422634 
L 169.302379 122.372071 
L 187.194548 147.93765 
L 198.925125 165.030534 
L 207.686447 186.912886 
L 213.369213 214.554331 
L 214.88488 214.554331 
L 208.605803 184.012376 
L 198.925125 159.833834 
L 185.963618 140.947335 
L 170.018183 118.163386 
L 150.813568 108.405287 
L 147.316384 106.940181 
L 133.251138 108.035076 
L 131.232938 109.81689 
L 126.341002 115.758799 
L 120.74113 127.246689 
L 94.026026 186.580515 
L 94.81056 214.554331 
z
" clip-path="url(#pd4802d8e9f)" style="fill: #30698e; fill-opacity: 0.7"/>
    <path d="M 94.81056 214.554331 
L 94.026026 186.580515 
L 120.74113 127.246689 
L 126.341002 115.758799 
L 131.232938 109.81689 
L 133.251138 108.035076 
L 147.316384 106.940181 
L 150.813568 108.405287 
L 170.018183 118.163386 
L 185.963618 140.947335 
L 198.925125 159.833834 
L 208.605803 184.012376 
L 214.88488 214.554331 
L 216.400547 214.554331 
L 209.525158 181.111865 
L 198.925125 154.637135 
L 184.732689 133.957021 
L 170.733987 113.9547 
L 153.87401 105.387941 
L 149.469993 103.542927 
L 131.75758 104.921732 
L 129.216053 107.165577 
L 123.05562 114.648244 
L 116.003682 129.114984 
L 91.342627 183.886799 
L 92.202707 214.554331 
z
" clip-path="url(#pd4802d8e9f)" style="fill: #2e6f8e; fill-opacity: 0.7"/>
    <path d="M 92.202707 214.554331 
L 91.342627 183.886799 
L 116.003682 129.114984 
L 123.05562 114.648244 
L 129.216053 107.165577 
L 131.75758 104.921732 
L 149.469993 103.542927 
L 153.87401 105.387941 
L 170.733987 113.9547 
L 184.732689 133.957021 
L 198.925125 154.637135 
L 209.525158 181.111865 
L 216.400547 214.554331 
L 217.916215 214.554331 
L 210.444513 178.211355 
L 198.925125 149.440435 
L 183.50176 126.966707 
L 171.449792 109.746014 
L 156.934452 102.370594 
L 151.623602 100.145673 
L 130.264021 101.808389 
L 127.199167 104.514264 
L 119.770238 113.537688 
L 111.266234 130.98328 
L 88.659228 181.193084 
L 89.594853 214.554331 
z
" clip-path="url(#pd4802d8e9f)" style="fill: #2b748e; fill-opacity: 0.7"/>
    <path d="M 89.594853 214.554331 
L 88.659228 181.193084 
L 111.266234 130.98328 
L 119.770238 113.537688 
L 127.199167 104.514264 
L 130.264021 101.808389 
L 151.623602 100.145673 
L 156.934452 102.370594 
L 171.449792 109.746014 
L 183.50176 126.966707 
L 198.925125 149.440435 
L 210.444513 178.211355 
L 217.916215 214.554331 
L 219.431882 214.554331 
L 211.363868 175.310844 
L 198.925125 144.243735 
L 182.27083 119.976393 
L 172.165596 105.537329 
L 159.994894 99.353247 
L 153.777212 96.748419 
L 128.770462 98.695045 
L 125.182282 101.86295 
L 116.484857 112.427133 
L 106.528786 132.851575 
L 85.975829 178.499369 
L 86.987 214.554331 
z
" clip-path="url(#pd4802d8e9f)" style="fill: #297a8e; fill-opacity: 0.7"/>
    <path d="M 86.987 214.554331 
L 85.975829 178.499369 
L 106.528786 132.851575 
L 116.484857 112.427133 
L 125.182282 101.86295 
L 128.770462 98.695045 
L 153.777212 96.748419 
L 159.994894 99.353247 
L 172.165596 105.537329 
L 182.27083 119.976393 
L 198.925125 144.243735 
L 211.363868 175.310844 
L 219.431882 214.554331 
L 220.947549 214.554331 
L 212.283224 172.410334 
L 198.925125 139.047035 
L 181.039901 112.986078 
L 172.8814 101.328643 
L 163.055335 96.3359 
L 155.930821 93.351165 
L 127.276903 95.581701 
L 123.165397 99.211637 
L 113.199475 111.316578 
L 101.791337 134.719871 
L 83.29243 175.805653 
L 84.379147 214.554331 
z
" clip-path="url(#pd4802d8e9f)" style="fill: #27808e; fill-opacity: 0.7"/>
    <path d="M 84.379147 214.554331 
L 83.29243 175.805653 
L 101.791337 134.719871 
L 113.199475 111.316578 
L 123.165397 99.211637 
L 127.276903 95.581701 
L 155.930821 93.351165 
L 163.055335 96.3359 
L 172.8814 101.328643 
L 181.039901 112.986078 
L 198.925125 139.047035 
L 212.283224 172.410334 
L 220.947549 214.554331 
L 222.463216 214.554331 
L 213.202579 169.509823 
L 198.925125 133.850335 
L 179.808972 105.995764 
L 173.597204 97.119957 
L 166.115777 93.318553 
L 158.08443 89.953911 
L 125.783345 92.468357 
L 121.148512 96.560324 
L 109.914093 110.206023 
L 97.053889 136.588167 
L 80.609031 173.111938 
L 81.771294 214.554331 
z
" clip-path="url(#pd4802d8e9f)" style="fill: #25858e; fill-opacity: 0.7"/>
    <path d="M 81.771294 214.554331 
L 80.609031 173.111938 
L 97.053889 136.588167 
L 109.914093 110.206023 
L 121.148512 96.560324 
L 125.783345 92.468357 
L 158.08443 89.953911 
L 166.115777 93.318553 
L 173.597204 97.119957 
L 179.808972 105.995764 
L 198.925125 133.850335 
L 213.202579 169.509823 
L 222.463216 214.554331 
L 223.978883 214.554331 
L 214.121934 166.609313 
L 198.925125 128.653635 
L 178.578042 99.00545 
L 174.313008 92.911272 
L 169.176219 90.301207 
L 160.23804 86.556657 
L 124.289786 89.355013 
L 119.131626 93.909011 
L 106.628712 109.095468 
L 92.316441 138.456462 
L 77.925632 170.418222 
L 79.163441 214.554331 
z
" clip-path="url(#pd4802d8e9f)" style="fill: #228b8d; fill-opacity: 0.7"/>
    <path d="M 79.163441 214.554331 
L 77.925632 170.418222 
L 92.316441 138.456462 
L 106.628712 109.095468 
L 119.131626 93.909011 
L 124.289786 89.355013 
L 160.23804 86.556657 
L 169.176219 90.301207 
L 174.313008 92.911272 
L 178.578042 99.00545 
L 198.925125 128.653635 
L 214.121934 166.609313 
L 223.978883 214.554331 
L 225.49455 214.554331 
L 215.041289 163.708802 
L 198.925125 123.456935 
L 177.347113 92.015136 
L 175.028812 88.702586 
L 172.236661 87.28386 
L 162.391649 83.159403 
L 122.796227 86.241669 
L 117.114741 91.257698 
L 103.34333 107.984913 
L 87.578993 140.324758 
L 75.242233 167.724507 
L 76.555588 214.554331 
z
" clip-path="url(#pd4802d8e9f)" style="fill: #21918c; fill-opacity: 0.7"/>
    <path d="M 184.123009 96.691745 
L 176.116184 85.024821 
L 175.744617 84.4939 
L 175.297103 84.266513 
L 164.545259 79.762149 
L 121.302668 83.128325 
L 115.097856 88.606384 
L 100.057948 106.874357 
L 82.841544 142.193053 
L 72.558834 165.030792 
L 73.947735 214.554331 
L 76.555588 214.554331 
L 75.242233 167.724507 
L 87.578993 140.324758 
L 103.34333 107.984913 
L 117.114741 91.257698 
L 122.796227 86.241669 
L 162.391649 83.159403 
L 172.236661 87.28386 
L 175.028812 88.702586 
L 177.347113 92.015136 
L 198.925125 123.456935 
L 215.041289 163.708802 
L 225.49455 214.554331 
L 227.010217 214.554331 
L 215.960645 160.808292 
L 200.86114 123.095642 
L 198.925125 120.041637 
z
" clip-path="url(#pd4802d8e9f)" style="fill: #1f958b; fill-opacity: 0.7"/>
    <path d="M 172.878425 78.953751 
L 166.698868 76.364895 
L 119.80911 80.014982 
L 113.080971 85.955071 
L 96.772566 105.763802 
L 78.104096 144.061349 
L 69.875435 162.337076 
L 71.339882 214.554331 
L 73.947735 214.554331 
L 72.558834 165.030792 
L 82.841544 142.193053 
L 100.057948 106.874357 
L 115.097856 88.606384 
L 121.302668 83.128325 
L 164.545259 79.762149 
L 175.297103 84.266513 
L 175.744617 84.4939 
L 176.116184 85.024821 
L 184.123009 96.691745 
L 175.88124 83.690601 
z
M 228.525884 214.554331 
L 216.88 157.907781 
L 206.508877 132.004777 
L 200.86114 123.095642 
L 215.960645 160.808292 
L 227.010217 214.554331 
z
" clip-path="url(#pd4802d8e9f)" style="fill: #1e9b8a; fill-opacity: 0.7"/>
    <path d="M 169.167274 73.099522 
L 168.852477 72.967641 
L 118.315551 76.901638 
L 111.064085 83.303758 
L 93.487185 104.653247 
L 73.366648 145.929644 
L 67.192036 159.643361 
L 68.732029 214.554331 
L 71.339882 214.554331 
L 69.875435 162.337076 
L 78.104096 144.061349 
L 96.772566 105.763802 
L 113.080971 85.955071 
L 119.80911 80.014982 
L 166.698868 76.364895 
L 172.878425 78.953751 
z
M 230.041552 214.554331 
L 217.799355 155.007271 
L 212.156613 140.913912 
L 206.508877 132.004777 
L 216.88 157.907781 
L 228.525884 214.554331 
z
" clip-path="url(#pd4802d8e9f)" style="fill: #1fa188; fill-opacity: 0.7"/>
    <path d="M 167.471791 70.424948 
L 153.309138 70.947988 
L 116.821992 73.788294 
L 109.0472 80.652445 
L 90.201803 103.542692 
L 68.6292 147.79794 
L 64.508637 156.949645 
L 66.124176 214.554331 
L 68.732029 214.554331 
L 67.192036 159.643361 
L 73.366648 145.929644 
L 93.487185 104.653247 
L 111.064085 83.303758 
L 118.315551 76.901638 
L 168.852477 72.967641 
L 169.167274 73.099522 
L 168.968074 72.78529 
z
M 231.557219 214.554331 
L 218.71871 152.10676 
L 217.80435 149.823047 
L 212.156613 140.913912 
L 217.799355 155.007271 
L 230.041552 214.554331 
z
" clip-path="url(#pd4802d8e9f)" style="fill: #21a685; fill-opacity: 0.7"/>
    <path d="M 165.890637 67.930725 
L 136.762019 69.006474 
L 115.328433 70.67495 
L 107.030315 78.001132 
L 101.453199 84.775282 
L 89.669999 103.362926 
L 75.788511 125.260556 
L 63.891751 149.666235 
L 61.825238 154.25593 
L 63.516323 214.554331 
L 66.124176 214.554331 
L 64.508637 156.949645 
L 68.6292 147.79794 
L 90.201803 103.542692 
L 109.0472 80.652445 
L 116.821992 73.788294 
L 153.309138 70.947988 
L 167.471791 70.424948 
z
M 233.072886 214.554331 
L 220.70586 154.400091 
L 218.896492 151.545868 
L 217.80435 149.823047 
L 218.71871 152.10676 
L 231.557219 214.554331 
z
" clip-path="url(#pd4802d8e9f)" style="fill: #25ac82; fill-opacity: 0.7"/>
    <path d="M 164.309483 65.436503 
L 120.2149 67.06496 
L 113.834875 67.561606 
L 110.497625 70.507973 
L 106.330605 77.081322 
L 101.453199 84.775282 
L 107.030315 78.001132 
L 115.328433 70.67495 
L 136.762019 69.006474 
L 165.890637 67.930725 
z
M 59.226061 151.387322 
L 59.154303 151.534531 
L 59.141839 151.562215 
L 60.90847 214.554331 
L 63.516323 214.554331 
L 61.825238 154.25593 
L 63.891751 149.666235 
L 75.788511 125.260556 
z
M 234.588553 214.554331 
L 222.948999 157.938576 
L 220.70586 154.400091 
L 233.072886 214.554331 
z
" clip-path="url(#pd4802d8e9f)" style="fill: #2cb17e; fill-opacity: 0.7"/>
    <path d="M 162.72833 62.94228 
L 114.156578 64.736083 
L 113.201872 66.242104 
L 110.497625 70.507973 
L 113.834875 67.561606 
L 120.2149 67.06496 
L 164.309483 65.436503 
z
M 56.643342 155.461485 
L 58.300617 214.554331 
L 60.90847 214.554331 
L 59.141839 151.562215 
L 59.154303 151.534531 
L 59.226061 151.387322 
L 59.125555 151.545868 
z
M 236.10422 214.554331 
L 225.192139 161.477061 
L 222.948999 157.938576 
L 234.588553 214.554331 
z
" clip-path="url(#pd4802d8e9f)" style="fill: #34b679; fill-opacity: 0.7"/>
    <path d="M 161.147176 60.448058 
L 115.813541 62.122274 
L 114.156578 64.736083 
L 162.72833 62.94228 
z
M 54.145973 159.401008 
L 55.692763 214.554331 
L 58.300617 214.554331 
L 56.643342 155.461485 
z
M 237.619887 214.554331 
L 227.435278 165.015545 
L 225.192139 161.477061 
L 236.10422 214.554331 
z
" clip-path="url(#pd4802d8e9f)" style="fill: #3dbc74; fill-opacity: 0.7"/>
    <path d="M 159.566022 57.953835 
L 117.470504 59.508465 
L 115.813541 62.122274 
L 161.147176 60.448058 
z
M 51.648605 163.340531 
L 53.08491 214.554331 
L 55.692763 214.554331 
L 54.145973 159.401008 
z
M 239.135554 214.554331 
L 229.678417 168.55403 
L 227.435278 165.015545 
L 237.619887 214.554331 
z
" clip-path="url(#pd4802d8e9f)" style="fill: #48c16e; fill-opacity: 0.7"/>
    <path d="M 157.984868 55.459613 
L 119.127467 56.894655 
L 117.470504 59.508465 
L 159.566022 57.953835 
z
M 49.151237 167.280054 
L 50.477057 214.554331 
L 53.08491 214.554331 
L 51.648605 163.340531 
z
M 240.651221 214.554331 
L 231.921556 172.092515 
L 229.678417 168.55403 
L 239.135554 214.554331 
z
" clip-path="url(#pd4802d8e9f)" style="fill: #54c568; fill-opacity: 0.7"/>
    <path d="M 156.403715 52.96539 
L 120.78443 54.280846 
L 119.127467 56.894655 
L 157.984868 55.459613 
z
M 46.653869 171.219577 
L 47.869204 214.554331 
L 50.477057 214.554331 
L 49.151237 167.280054 
z
M 242.166889 214.554331 
L 234.164695 175.630999 
L 231.921556 172.092515 
L 240.651221 214.554331 
z
" clip-path="url(#pd4802d8e9f)" style="fill: #60ca60; fill-opacity: 0.7"/>
    <path d="M 154.822561 50.471168 
L 122.441393 51.667037 
L 120.78443 54.280846 
L 156.403715 52.96539 
z
M 44.156501 175.1591 
L 45.261351 214.554331 
L 47.869204 214.554331 
L 46.653869 171.219577 
z
M 243.682556 214.554331 
L 236.407835 179.169484 
L 234.164695 175.630999 
L 242.166889 214.554331 
z
" clip-path="url(#pd4802d8e9f)" style="fill: #6ece58; fill-opacity: 0.7"/>
    <path d="M 153.241407 47.976945 
L 124.098356 49.053227 
L 122.441393 51.667037 
L 154.822561 50.471168 
z
M 41.659133 179.098623 
L 42.653498 214.554331 
L 45.261351 214.554331 
L 44.156501 175.1591 
z
M 245.198223 214.554331 
L 238.650974 182.707969 
L 236.407835 179.169484 
L 243.682556 214.554331 
z
" clip-path="url(#pd4802d8e9f)" style="fill: #7cd250; fill-opacity: 0.7"/>
    <path d="M 151.660253 45.482723 
L 125.755319 46.439418 
L 124.098356 49.053227 
L 153.241407 47.976945 
z
M 39.161765 183.038146 
L 40.045645 214.554331 
L 42.653498 214.554331 
L 41.659133 179.098623 
z
M 246.71389 214.554331 
L 240.894113 186.246453 
L 238.650974 182.707969 
L 245.198223 214.554331 
z
" clip-path="url(#pd4802d8e9f)" style="fill: #8bd646; fill-opacity: 0.7"/>
    <path d="M 150.0791 42.988501 
L 127.412283 43.825609 
L 125.755319 46.439418 
L 151.660253 45.482723 
z
M 36.664397 186.977669 
L 37.437792 214.554331 
L 40.045645 214.554331 
L 39.161765 183.038146 
z
M 248.229557 214.554331 
L 243.137252 189.784938 
L 240.894113 186.246453 
L 246.71389 214.554331 
z
" clip-path="url(#pd4802d8e9f)" style="fill: #9bd93c; fill-opacity: 0.7"/>
    <path d="M 148.497946 40.494278 
L 129.069246 41.211799 
L 127.412283 43.825609 
L 150.0791 42.988501 
z
M 34.167029 190.917192 
L 34.829939 214.554331 
L 37.437792 214.554331 
L 36.664397 186.977669 
z
M 249.745224 214.554331 
L 245.380392 193.323423 
L 243.137252 189.784938 
L 248.229557 214.554331 
z
" clip-path="url(#pd4802d8e9f)" style="fill: #aadc32; fill-opacity: 0.7"/>
    <path d="M 146.916792 38.000056 
L 130.726209 38.59799 
L 129.069246 41.211799 
L 148.497946 40.494278 
z
M 31.669661 194.856715 
L 32.222086 214.554331 
L 34.829939 214.554331 
L 34.167029 190.917192 
z
M 251.260891 214.554331 
L 247.623531 196.861907 
L 245.380392 193.323423 
L 249.745224 214.554331 
z
" clip-path="url(#pd4802d8e9f)" style="fill: #bade28; fill-opacity: 0.7"/>
    <path d="M 145.335639 35.505833 
L 132.383172 35.984181 
L 130.726209 38.59799 
L 146.916792 38.000056 
z
M 29.172293 198.796239 
L 29.614233 214.554331 
L 32.222086 214.554331 
L 31.669661 194.856715 
z
M 252.776558 214.554331 
L 249.86667 200.400392 
L 247.623531 196.861907 
L 251.260891 214.554331 
z
" clip-path="url(#pd4802d8e9f)" style="fill: #cae11f; fill-opacity: 0.7"/>
    <path d="M 143.754485 33.011611 
L 134.040135 33.370371 
L 132.383172 35.984181 
L 145.335639 35.505833 
z
M 26.674925 202.735762 
L 27.00638 214.554331 
L 29.614233 214.554331 
L 29.172293 198.796239 
z
M 254.292226 214.554331 
L 252.109809 203.938877 
L 249.86667 200.400392 
L 252.776558 214.554331 
z
" clip-path="url(#pd4802d8e9f)" style="fill: #dae319; fill-opacity: 0.7"/>
    <path d="M 142.173331 30.517388 
L 135.697098 30.756562 
L 134.040135 33.370371 
L 143.754485 33.011611 
z
M 24.177556 206.675285 
L 24.398526 214.554331 
L 27.00638 214.554331 
L 26.674925 202.735762 
z
M 255.807893 214.554331 
L 254.352948 207.477361 
L 252.109809 203.938877 
L 254.292226 214.554331 
z
" clip-path="url(#pd4802d8e9f)" style="fill: #eae51a; fill-opacity: 0.7"/>
    <path d="M 140.592177 28.023166 
L 137.354061 28.142753 
L 135.697098 30.756562 
L 142.173331 30.517388 
z
M 21.680188 210.614808 
L 21.790673 214.554331 
L 24.398526 214.554331 
L 24.177556 206.675285 
z
M 257.32356 214.554331 
L 256.596088 211.015846 
L 254.352948 207.477361 
L 255.807893 214.554331 
z
" clip-path="url(#pd4802d8e9f)" style="fill: #f8e621; fill-opacity: 0.7"/>
    <path d="M 137.354061 28.142753 
L 140.592177 28.023166 
L 139.011024 25.528943 
z
M 21.790673 214.554331 
L 21.680188 210.614808 
L 19.18282 214.554331 
z
M 256.596088 211.015846 
L 257.32356 214.554331 
L 258.839227 214.554331 
z
" clip-path="url(#pd4802d8e9f)" style="fill: #fde725; fill-opacity: 0.7"/>
   </g>
   <g id="matplotlib.axis_1"/>
   <g id="matplotlib.axis_2"/>
   <g id="line2d_1">
    <path d="M 175.88124 83.690601 
L 158.982391 183.050099 
" clip-path="url(#pd4802d8e9f)" style="fill: none; stroke: #555555; stroke-opacity: 0.9; stroke-width: 0.5; stroke-linecap: square"/>
   </g>
   <g id="line2d_2">
    <path d="M 198.925125 214.554331 
L 258.839227 214.554331 
" clip-path="url(#pd4802d8e9f)" style="fill: none; stroke: #555555; stroke-opacity: 0.9; stroke-width: 0.5; stroke-linecap: square"/>
   </g>
   <g id="line2d_3">
    <path d="M 59.125555 151.545868 
L 89.669999 103.362926 
" clip-path="url(#pd4802d8e9f)" style="fill: none; stroke: #555555; stroke-opacity: 0.9; stroke-width: 0.5; stroke-linecap: square"/>
   </g>
   <g id="line2d_4">
    <path d="M 178.953758 214.554331 
L 198.925125 214.554331 
" clip-path="url(#pd4802d8e9f)" style="fill: none; stroke: #555555; stroke-opacity: 0.9; stroke-width: 0.5; stroke-linecap: square"/>
   </g>
   <g id="line2d_5">
    <path d="M 218.896492 151.545868 
L 198.925125 214.554331 
" clip-path="url(#pd4802d8e9f)" style="fill: none; stroke: #555555; stroke-opacity: 0.9; stroke-width: 0.5; stroke-linecap: square"/>
   </g>
   <g id="line2d_6">
    <path d="M 178.953758 214.554331 
L 121.892709 214.554331 
" clip-path="url(#pd4802d8e9f)" style="fill: none; stroke: #555555; stroke-opacity: 0.9; stroke-width: 0.5; stroke-linecap: square"/>
   </g>
   <g id="line2d_7">
    <path d="M 168.968074 72.78529 
L 175.88124 83.690601 
" clip-path="url(#pd4802d8e9f)" style="fill: none; stroke: #555555; stroke-opacity: 0.9; stroke-width: 0.5; stroke-linecap: square"/>
   </g>
   <g id="line2d_8">
    <path d="M 106.330605 77.081322 
L 89.669999 103.362926 
" clip-path="url(#pd4802d8e9f)" style="fill: none; stroke: #555555; stroke-opacity: 0.9; stroke-width: 0.5; stroke-linecap: square"/>
   </g>
   <g id="line2d_9">
    <path d="M 175.88124 83.690601 
L 139.011024 120.041637 
" clip-path="url(#pd4802d8e9f)" style="fill: none; stroke: #555555; stroke-opacity: 0.9; stroke-width: 0.5; stroke-linecap: square"/>
   </g>
   <g id="line2d_10">
    <path d="M 158.982391 183.050099 
L 121.892709 214.554331 
" clip-path="url(#pd4802d8e9f)" style="fill: none; stroke: #555555; stroke-opacity: 0.9; stroke-width: 0.5; stroke-linecap: square"/>
   </g>
   <g id="line2d_11">
    <path d="M 178.953758 214.554331 
L 158.982391 183.050099 
" clip-path="url(#pd4802d8e9f)" style="fill: none; stroke: #555555; stroke-opacity: 0.9; stroke-width: 0.5; stroke-linecap: square"/>
   </g>
   <g id="line2d_12">
    <path d="M 121.892709 214.554331 
L 19.18282 214.554331 
" clip-path="url(#pd4802d8e9f)" style="fill: none; stroke: #555555; stroke-opacity: 0.9; stroke-width: 0.5; stroke-linecap: square"/>
   </g>
   <g id="line2d_13">
    <path d="M 218.896492 151.545868 
L 258.839227 214.554331 
" clip-path="url(#pd4802d8e9f)" style="fill: none; stroke: #555555; stroke-opacity: 0.9; stroke-width: 0.5; stroke-linecap: square"/>
   </g>
   <g id="line2d_14">
    <path d="M 168.968074 72.78529 
L 139.011024 120.041637 
" clip-path="url(#pd4802d8e9f)" style="fill: none; stroke: #555555; stroke-opacity: 0.9; stroke-width: 0.5; stroke-linecap: square"/>
   </g>
   <g id="line2d_15">
    <path d="M 198.925125 120.041637 
L 198.925125 214.554331 
" clip-path="url(#pd4802d8e9f)" style="fill: none; stroke: #555555; stroke-opacity: 0.9; stroke-width: 0.5; stroke-linecap: square"/>
   </g>
   <g id="line2d_16">
    <path d="M 139.011024 120.041637 
L 106.330605 77.081322 
" clip-path="url(#pd4802d8e9f)" style="fill: none; stroke: #555555; stroke-opacity: 0.9; stroke-width: 0.5; stroke-linecap: square"/>
   </g>
   <g id="line2d_17">
    <path d="M 139.011024 120.041637 
L 121.892709 214.554331 
" clip-path="url(#pd4802d8e9f)" style="fill: none; stroke: #555555; stroke-opacity: 0.9; stroke-width: 0.5; stroke-linecap: square"/>
   </g>
   <g id="line2d_18">
    <path d="M 175.88124 83.690601 
L 198.925125 214.554331 
" clip-path="url(#pd4802d8e9f)" style="fill: none; stroke: #555555; stroke-opacity: 0.9; stroke-width: 0.5; stroke-linecap: square"/>
   </g>
   <g id="line2d_19">
    <path d="M 139.011024 120.041637 
L 113.201872 66.242104 
" clip-path="url(#pd4802d8e9f)" style="fill: none; stroke: #555555; stroke-opacity: 0.9; stroke-width: 0.5; stroke-linecap: square"/>
   </g>
   <g id="line2d_20">
    <path d="M 168.968074 72.78529 
L 139.011024 25.528943 
" clip-path="url(#pd4802d8e9f)" style="fill: none; stroke: #555555; stroke-opacity: 0.9; stroke-width: 0.5; stroke-linecap: square"/>
   </g>
   <g id="line2d_21">
    <path d="M 59.125555 151.545868 
L 121.892709 214.554331 
" clip-path="url(#pd4802d8e9f)" style="fill: none; stroke: #555555; stroke-opacity: 0.9; stroke-width: 0.5; stroke-linecap: square"/>
   </g>
   <g id="line2d_22">
    <path d="M 59.125555 151.545868 
L 19.18282 214.554331 
" clip-path="url(#pd4802d8e9f)" style="fill: none; stroke: #555555; stroke-opacity: 0.9; stroke-width: 0.5; stroke-linecap: square"/>
   </g>
   <g id="line2d_23">
    <path d="M 198.925125 120.041637 
L 218.896492 151.545868 
" clip-path="url(#pd4802d8e9f)" style="fill: none; stroke: #555555; stroke-opacity: 0.9; stroke-width: 0.5; stroke-linecap: square"/>
   </g>
   <g id="line2d_24">
    <path d="M 198.925125 120.041637 
L 175.88124 83.690601 
" clip-path="url(#pd4802d8e9f)" style="fill: none; stroke: #555555; stroke-opacity: 0.9; stroke-width: 0.5; stroke-linecap: square"/>
   </g>
   <g id="line2d_25">
    <path d="M 106.330605 77.081322 
L 113.201872 66.242104 
" clip-path="url(#pd4802d8e9f)" style="fill: none; stroke: #555555; stroke-opacity: 0.9; stroke-width: 0.5; stroke-linecap: square"/>
   </g>
   <g id="line2d_26">
    <path d="M 139.011024 120.041637 
L 59.125555 151.545868 
" clip-path="url(#pd4802d8e9f)" style="fill: none; stroke: #555555; stroke-opacity: 0.9; stroke-width: 0.5; stroke-linecap: square"/>
   </g>
   <g id="line2d_27">
    <path d="M 198.925125 214.554331 
L 158.982391 183.050099 
" clip-path="url(#pd4802d8e9f)" style="fill: none; stroke: #555555; stroke-opacity: 0.9; stroke-width: 0.5; stroke-linecap: square"/>
   </g>
   <g id="line2d_28">
    <path d="M 139.011024 120.041637 
L 158.982391 183.050099 
" clip-path="url(#pd4802d8e9f)" style="fill: none; stroke: #555555; stroke-opacity: 0.9; stroke-width: 0.5; stroke-linecap: square"/>
   </g>
   <g id="line2d_29">
    <path d="M 139.011024 120.041637 
L 89.669999 103.362926 
" clip-path="url(#pd4802d8e9f)" style="fill: none; stroke: #555555; stroke-opacity: 0.9; stroke-width: 0.5; stroke-linecap: square"/>
   </g>
   <g id="line2d_30">
    <path d="M 168.968074 72.78529 
L 113.201872 66.242104 
" clip-path="url(#pd4802d8e9f)" style="fill: none; stroke: #555555; stroke-opacity: 0.9; stroke-width: 0.5; stroke-linecap: square"/>
   </g>
   <g id="line2d_31">
    <path d="M 113.201872 66.242104 
L 139.011024 25.528943 
" clip-path="url(#pd4802d8e9f)" style="fill: none; stroke: #555555; stroke-opacity: 0.9; stroke-width: 0.5; stroke-linecap: square"/>
   </g>
   <g id="PathCollection_1">
    <defs>
     <path id="m488918bd90" d="M 0 2.738613 
C 0.726289 2.738613 1.422928 2.450055 1.936492 1.936492 
C 2.450055 1.422928 2.738613 0.726289 2.738613 0 
C 2.738613 -0.726289 2.450055 -1.422928 1.936492 -1.936492 
C 1.422928 -2.450055 0.726289 -2.738613 0 -2.738613 
C -0.726289 -2.738613 -1.422928 -2.450055 -1.936492 -1.936492 
C -2.450055 -1.422928 -2.738613 -0.726289 -2.738613 0 
C -2.738613 0.726289 -2.450055 1.422928 -1.936492 1.936492 
C -1.422928 2.450055 -0.726289 2.738613 0 2.738613 
z
" style="stroke: #008000"/>
    </defs>
    <g clip-path="url(#pd4802d8e9f)">
     <use xlink:href="#m488918bd90" x="175.88124" y="83.690601" style="fill: #008000; stroke: #008000"/>
     <use xlink:href="#m488918bd90" x="158.982391" y="183.050099" style="fill: #008000; stroke: #008000"/>
     <use xlink:href="#m488918bd90" x="198.925125" y="214.554331" style="fill: #008000; stroke: #008000"/>
     <use xlink:href="#m488918bd90" x="258.839227" y="214.554331" style="fill: #008000; stroke: #008000"/>
     <use xlink:href="#m488918bd90" x="59.125555" y="151.545868" style="fill: #008000; stroke: #008000"/>
     <use xlink:href="#m488918bd90" x="89.669999" y="103.362926" style="fill: #008000; stroke: #008000"/>
     <use xlink:href="#m488918bd90" x="178.953758" y="214.554331" style="fill: #008000; stroke: #008000"/>
     <use xlink:href="#m488918bd90" x="218.896492" y="151.545868" style="fill: #008000; stroke: #008000"/>
     <use xlink:href="#m488918bd90" x="121.892709" y="214.554331" style="fill: #008000; stroke: #008000"/>
     <use xlink:href="#m488918bd90" x="168.968074" y="72.78529" style="fill: #008000; stroke: #008000"/>
     <use xlink:href="#m488918bd90" x="106.330605" y="77.081322" style="fill: #008000; stroke: #008000"/>
     <use xlink:href="#m488918bd90" x="139.011024" y="120.041637" style="fill: #008000; stroke: #008000"/>
     <use xlink:href="#m488918bd90" x="19.18282" y="214.554331" style="fill: #008000; stroke: #008000"/>
     <use xlink:href="#m488918bd90" x="198.925125" y="120.041637" style="fill: #008000; stroke: #008000"/>
     <use xlink:href="#m488918bd90" x="113.201872" y="66.242104" style="fill: #008000; stroke: #008000"/>
     <use xlink:href="#m488918bd90" x="139.011024" y="25.528943" style="fill: #008000; stroke: #008000"/>
    </g>
   </g>
   <g id="PathCollection_2">
    <defs>
     <path id="mdaac6c2f3c" d="M -0 2.236068 
L 1.341641 0 
L 0 -2.236068 
L -1.341641 -0 
z
" style="stroke: #d3d3d3"/>
    </defs>
    <g clip-path="url(#pd4802d8e9f)">
     <use xlink:href="#mdaac6c2f3c" x="139.011024" y="25.528943" style="fill: #d3d3d3; stroke: #d3d3d3"/>
     <use xlink:href="#mdaac6c2f3c" x="139.011024" y="25.528943" style="fill: #d3d3d3; stroke: #d3d3d3"/>
     <use xlink:href="#mdaac6c2f3c" x="139.011024" y="25.528943" style="fill: #d3d3d3; stroke: #d3d3d3"/>
     <use xlink:href="#mdaac6c2f3c" x="139.011024" y="25.528943" style="fill: #d3d3d3; stroke: #d3d3d3"/>
     <use xlink:href="#mdaac6c2f3c" x="139.011024" y="25.528943" style="fill: #d3d3d3; stroke: #d3d3d3"/>
     <use xlink:href="#mdaac6c2f3c" x="139.011024" y="25.528943" style="fill: #d3d3d3; stroke: #d3d3d3"/>
     <use xlink:href="#mdaac6c2f3c" x="139.011024" y="25.528943" style="fill: #d3d3d3; stroke: #d3d3d3"/>
     <use xlink:href="#mdaac6c2f3c" x="258.839227" y="214.554331" style="fill: #d3d3d3; stroke: #d3d3d3"/>
     <use xlink:href="#mdaac6c2f3c" x="258.839227" y="214.554331" style="fill: #d3d3d3; stroke: #d3d3d3"/>
     <use xlink:href="#mdaac6c2f3c" x="258.839227" y="214.554331" style="fill: #d3d3d3; stroke: #d3d3d3"/>
     <use xlink:href="#mdaac6c2f3c" x="258.839227" y="214.554331" style="fill: #d3d3d3; stroke: #d3d3d3"/>
     <use xlink:href="#mdaac6c2f3c" x="258.839227" y="214.554331" style="fill: #d3d3d3; stroke: #d3d3d3"/>
     <use xlink:href="#mdaac6c2f3c" x="258.839227" y="214.554331" style="fill: #d3d3d3; stroke: #d3d3d3"/>
     <use xlink:href="#mdaac6c2f3c" x="258.839227" y="214.554331" style="fill: #d3d3d3; stroke: #d3d3d3"/>
     <use xlink:href="#mdaac6c2f3c" x="258.839227" y="214.554331" style="fill: #d3d3d3; stroke: #d3d3d3"/>
     <use xlink:href="#mdaac6c2f3c" x="258.839227" y="214.554331" style="fill: #d3d3d3; stroke: #d3d3d3"/>
     <use xlink:href="#mdaac6c2f3c" x="198.925125" y="120.041637" style="fill: #d3d3d3; stroke: #d3d3d3"/>
     <use xlink:href="#mdaac6c2f3c" x="168.968074" y="72.78529" style="fill: #d3d3d3; stroke: #d3d3d3"/>
     <use xlink:href="#mdaac6c2f3c" x="168.968074" y="72.78529" style="fill: #d3d3d3; stroke: #d3d3d3"/>
     <use xlink:href="#mdaac6c2f3c" x="168.968074" y="72.78529" style="fill: #d3d3d3; stroke: #d3d3d3"/>
     <use xlink:href="#mdaac6c2f3c" x="162.976664" y="63.334021" style="fill: #d3d3d3; stroke: #d3d3d3"/>
     <use xlink:href="#mdaac6c2f3c" x="218.896492" y="151.545868" style="fill: #d3d3d3; stroke: #d3d3d3"/>
     <use xlink:href="#mdaac6c2f3c" x="218.896492" y="151.545868" style="fill: #d3d3d3; stroke: #d3d3d3"/>
     <use xlink:href="#mdaac6c2f3c" x="228.882176" y="167.297984" style="fill: #d3d3d3; stroke: #d3d3d3"/>
     <use xlink:href="#mdaac6c2f3c" x="228.882176" y="167.297984" style="fill: #d3d3d3; stroke: #d3d3d3"/>
     <use xlink:href="#mdaac6c2f3c" x="210.907946" y="138.944176" style="fill: #d3d3d3; stroke: #d3d3d3"/>
     <use xlink:href="#mdaac6c2f3c" x="164.238014" y="65.323762" style="fill: #d3d3d3; stroke: #d3d3d3"/>
     <use xlink:href="#mdaac6c2f3c" x="19.18282" y="214.554331" style="fill: #d3d3d3; stroke: #d3d3d3"/>
     <use xlink:href="#mdaac6c2f3c" x="19.18282" y="214.554331" style="fill: #d3d3d3; stroke: #d3d3d3"/>
     <use xlink:href="#mdaac6c2f3c" x="19.18282" y="214.554331" style="fill: #d3d3d3; stroke: #d3d3d3"/>
     <use xlink:href="#mdaac6c2f3c" x="109.053973" y="72.78529" style="fill: #d3d3d3; stroke: #d3d3d3"/>
     <use xlink:href="#mdaac6c2f3c" x="109.053973" y="72.78529" style="fill: #d3d3d3; stroke: #d3d3d3"/>
     <use xlink:href="#mdaac6c2f3c" x="139.011024" y="214.554331" style="fill: #d3d3d3; stroke: #d3d3d3"/>
     <use xlink:href="#mdaac6c2f3c" x="139.011024" y="151.545868" style="fill: #d3d3d3; stroke: #d3d3d3"/>
     <use xlink:href="#mdaac6c2f3c" x="198.925125" y="214.554331" style="fill: #d3d3d3; stroke: #d3d3d3"/>
     <use xlink:href="#mdaac6c2f3c" x="198.925125" y="214.554331" style="fill: #d3d3d3; stroke: #d3d3d3"/>
     <use xlink:href="#mdaac6c2f3c" x="203.533902" y="156.392673" style="fill: #d3d3d3; stroke: #d3d3d3"/>
     <use xlink:href="#mdaac6c2f3c" x="99.068289" y="214.554331" style="fill: #d3d3d3; stroke: #d3d3d3"/>
     <use xlink:href="#mdaac6c2f3c" x="162.976664" y="214.554331" style="fill: #d3d3d3; stroke: #d3d3d3"/>
     <use xlink:href="#mdaac6c2f3c" x="79.096922" y="214.554331" style="fill: #d3d3d3; stroke: #d3d3d3"/>
     <use xlink:href="#mdaac6c2f3c" x="115.045383" y="214.554331" style="fill: #d3d3d3; stroke: #d3d3d3"/>
     <use xlink:href="#mdaac6c2f3c" x="109.053973" y="214.554331" style="fill: #d3d3d3; stroke: #d3d3d3"/>
    </g>
   </g>
   <g id="PathCollection_3">
    <defs>
     <path id="md77423362d" d="M 0 -5 
L -1.12257 -1.545085 
L -4.755283 -1.545085 
L -1.816356 0.59017 
L -2.938926 4.045085 
L -0 1.90983 
L 2.938926 4.045085 
L 1.816356 0.59017 
L 4.755283 -1.545085 
L 1.12257 -1.545085 
z
" style="stroke: #0000ff"/>
    </defs>
    <g clip-path="url(#pd4802d8e9f)">
     <use xlink:href="#md77423362d" x="203.533902" y="156.392673" style="fill: #0000ff; stroke: #0000ff"/>
    </g>
   </g>
   <g id="text_1">
    <!-- $\mathrm{Al_{4}Cu_{9}}$ -->
    <g transform="translate(175.944876 87.026639) scale(0.1 -0.1)">
     <defs>
      <path id="DejaVuSans-41" d="M 2188 4044 
L 1331 1722 
L 3047 1722 
L 2188 4044 
z
M 1831 4666 
L 2547 4666 
L 4325 0 
L 3669 0 
L 3244 1197 
L 1141 1197 
L 716 0 
L 50 0 
L 1831 4666 
z
" transform="scale(0.015625)"/>
      <path id="DejaVuSans-6c" d="M 603 4863 
L 1178 4863 
L 1178 0 
L 603 0 
L 603 4863 
z
" transform="scale(0.015625)"/>
      <path id="DejaVuSans-34" d="M 2419 4116 
L 825 1625 
L 2419 1625 
L 2419 4116 
z
M 2253 4666 
L 3047 4666 
L 3047 1625 
L 3713 1625 
L 3713 1100 
L 3047 1100 
L 3047 0 
L 2419 0 
L 2419 1100 
L 313 1100 
L 313 1709 
L 2253 4666 
z
" transform="scale(0.015625)"/>
      <path id="DejaVuSans-43" d="M 4122 4306 
L 4122 3641 
Q 3803 3938 3442 4084 
Q 3081 4231 2675 4231 
Q 1875 4231 1450 3742 
Q 1025 3253 1025 2328 
Q 1025 1406 1450 917 
Q 1875 428 2675 428 
Q 3081 428 3442 575 
Q 3803 722 4122 1019 
L 4122 359 
Q 3791 134 3420 21 
Q 3050 -91 2638 -91 
Q 1578 -91 968 557 
Q 359 1206 359 2328 
Q 359 3453 968 4101 
Q 1578 4750 2638 4750 
Q 3056 4750 3426 4639 
Q 3797 4528 4122 4306 
z
" transform="scale(0.015625)"/>
      <path id="DejaVuSans-75" d="M 544 1381 
L 544 3500 
L 1119 3500 
L 1119 1403 
Q 1119 906 1312 657 
Q 1506 409 1894 409 
Q 2359 409 2629 706 
Q 2900 1003 2900 1516 
L 2900 3500 
L 3475 3500 
L 3475 0 
L 2900 0 
L 2900 538 
Q 2691 219 2414 64 
Q 2138 -91 1772 -91 
Q 1169 -91 856 284 
Q 544 659 544 1381 
z
M 1991 3584 
L 1991 3584 
z
" transform="scale(0.015625)"/>
      <path id="DejaVuSans-39" d="M 703 97 
L 703 672 
Q 941 559 1184 500 
Q 1428 441 1663 441 
Q 2288 441 2617 861 
Q 2947 1281 2994 2138 
Q 2813 1869 2534 1725 
Q 2256 1581 1919 1581 
Q 1219 1581 811 2004 
Q 403 2428 403 3163 
Q 403 3881 828 4315 
Q 1253 4750 1959 4750 
Q 2769 4750 3195 4129 
Q 3622 3509 3622 2328 
Q 3622 1225 3098 567 
Q 2575 -91 1691 -91 
Q 1453 -91 1209 -44 
Q 966 3 703 97 
z
M 1959 2075 
Q 2384 2075 2632 2365 
Q 2881 2656 2881 3163 
Q 2881 3666 2632 3958 
Q 2384 4250 1959 4250 
Q 1534 4250 1286 3958 
Q 1038 3666 1038 3163 
Q 1038 2656 1286 2365 
Q 1534 2075 1959 2075 
z
" transform="scale(0.015625)"/>
     </defs>
     <use xlink:href="#DejaVuSans-41" transform="translate(0 0.015625)"/>
     <use xlink:href="#DejaVuSans-6c" transform="translate(68.408203 0.015625)"/>
     <use xlink:href="#DejaVuSans-34" transform="translate(97.148438 -16.390625) scale(0.7)"/>
     <use xlink:href="#DejaVuSans-43" transform="translate(144.418945 0.015625)"/>
     <use xlink:href="#DejaVuSans-75" transform="translate(214.243164 0.015625)"/>
     <use xlink:href="#DejaVuSans-39" transform="translate(278.579102 -16.390625) scale(0.7)"/>
    </g>
   </g>
   <g id="text_2">
    <!-- $\mathrm{Hf_{2}Al_{3}Cu}$ -->
    <g transform="translate(121.4233 192.621521) scale(0.1 -0.1)">
     <defs>
      <path id="DejaVuSans-48" d="M 628 4666 
L 1259 4666 
L 1259 2753 
L 3553 2753 
L 3553 4666 
L 4184 4666 
L 4184 0 
L 3553 0 
L 3553 2222 
L 1259 2222 
L 1259 0 
L 628 0 
L 628 4666 
z
" transform="scale(0.015625)"/>
      <path id="DejaVuSans-66" d="M 2375 4863 
L 2375 4384 
L 1825 4384 
Q 1516 4384 1395 4259 
Q 1275 4134 1275 3809 
L 1275 3500 
L 2222 3500 
L 2222 3053 
L 1275 3053 
L 1275 0 
L 697 0 
L 697 3053 
L 147 3053 
L 147 3500 
L 697 3500 
L 697 3744 
Q 697 4328 969 4595 
Q 1241 4863 1831 4863 
L 2375 4863 
z
" transform="scale(0.015625)"/>
      <path id="DejaVuSans-32" d="M 1228 531 
L 3431 531 
L 3431 0 
L 469 0 
L 469 531 
Q 828 903 1448 1529 
Q 2069 2156 2228 2338 
Q 2531 2678 2651 2914 
Q 2772 3150 2772 3378 
Q 2772 3750 2511 3984 
Q 2250 4219 1831 4219 
Q 1534 4219 1204 4116 
Q 875 4013 500 3803 
L 500 4441 
Q 881 4594 1212 4672 
Q 1544 4750 1819 4750 
Q 2544 4750 2975 4387 
Q 3406 4025 3406 3419 
Q 3406 3131 3298 2873 
Q 3191 2616 2906 2266 
Q 2828 2175 2409 1742 
Q 1991 1309 1228 531 
z
" transform="scale(0.015625)"/>
      <path id="DejaVuSans-33" d="M 2597 2516 
Q 3050 2419 3304 2112 
Q 3559 1806 3559 1356 
Q 3559 666 3084 287 
Q 2609 -91 1734 -91 
Q 1441 -91 1130 -33 
Q 819 25 488 141 
L 488 750 
Q 750 597 1062 519 
Q 1375 441 1716 441 
Q 2309 441 2620 675 
Q 2931 909 2931 1356 
Q 2931 1769 2642 2001 
Q 2353 2234 1838 2234 
L 1294 2234 
L 1294 2753 
L 1863 2753 
Q 2328 2753 2575 2939 
Q 2822 3125 2822 3475 
Q 2822 3834 2567 4026 
Q 2313 4219 1838 4219 
Q 1578 4219 1281 4162 
Q 984 4106 628 3988 
L 628 4550 
Q 988 4650 1302 4700 
Q 1616 4750 1894 4750 
Q 2613 4750 3031 4423 
Q 3450 4097 3450 3541 
Q 3450 3153 3228 2886 
Q 3006 2619 2597 2516 
z
" transform="scale(0.015625)"/>
     </defs>
     <use xlink:href="#DejaVuSans-48" transform="translate(0 0.015625)"/>
     <use xlink:href="#DejaVuSans-66" transform="translate(75.195312 0.015625)"/>
     <use xlink:href="#DejaVuSans-32" transform="translate(111.357422 -16.390625) scale(0.7)"/>
     <use xlink:href="#DejaVuSans-41" transform="translate(158.62793 0.015625)"/>
     <use xlink:href="#DejaVuSans-6c" transform="translate(227.036133 0.015625)"/>
     <use xlink:href="#DejaVuSans-33" transform="translate(255.776367 -16.390625) scale(0.7)"/>
     <use xlink:href="#DejaVuSans-43" transform="translate(303.046875 0.015625)"/>
     <use xlink:href="#DejaVuSans-75" transform="translate(372.871094 0.015625)"/>
    </g>
   </g>
   <g id="text_3">
    <!-- $\mathrm{HfAl_{3}}$ -->
    <g transform="translate(197.956943 210.594971) scale(0.1 -0.1)">
     <use xlink:href="#DejaVuSans-48" transform="translate(0 0.015625)"/>
     <use xlink:href="#DejaVuSans-66" transform="translate(75.195312 0.015625)"/>
     <use xlink:href="#DejaVuSans-41" transform="translate(110.400391 0.015625)"/>
     <use xlink:href="#DejaVuSans-6c" transform="translate(178.808594 0.015625)"/>
     <use xlink:href="#DejaVuSans-33" transform="translate(207.548828 -16.390625) scale(0.7)"/>
    </g>
   </g>
   <g id="text_4">
    <!-- $\mathrm{Al}$ -->
    <g transform="translate(249.389691 211.215873) scale(0.1 -0.1)">
     <use xlink:href="#DejaVuSans-41" transform="translate(0 0.015625)"/>
     <use xlink:href="#DejaVuSans-6c" transform="translate(68.408203 0.015625)"/>
    </g>
   </g>
   <g id="text_5">
    <!-- $\mathrm{Hf_{2}Cu}$ -->
    <g transform="translate(35.361918 161.067289) scale(0.1 -0.1)">
     <use xlink:href="#DejaVuSans-48" transform="translate(0 0.015625)"/>
     <use xlink:href="#DejaVuSans-66" transform="translate(75.195312 0.015625)"/>
     <use xlink:href="#DejaVuSans-32" transform="translate(111.357422 -16.390625) scale(0.7)"/>
     <use xlink:href="#DejaVuSans-43" transform="translate(158.62793 0.015625)"/>
     <use xlink:href="#DejaVuSans-75" transform="translate(228.452148 0.015625)"/>
    </g>
   </g>
   <g id="text_6">
    <!-- $\mathrm{Hf_{7}Cu_{10}}$ -->
    <g transform="translate(57.32909 112.934348) scale(0.1 -0.1)">
     <defs>
      <path id="DejaVuSans-37" d="M 525 4666 
L 3525 4666 
L 3525 4397 
L 1831 0 
L 1172 0 
L 2766 4134 
L 525 4134 
L 525 4666 
z
" transform="scale(0.015625)"/>
      <path id="DejaVuSans-31" d="M 794 531 
L 1825 531 
L 1825 4091 
L 703 3866 
L 703 4441 
L 1819 4666 
L 2450 4666 
L 2450 531 
L 3481 531 
L 3481 0 
L 794 0 
L 794 531 
z
" transform="scale(0.015625)"/>
      <path id="DejaVuSans-30" d="M 2034 4250 
Q 1547 4250 1301 3770 
Q 1056 3291 1056 2328 
Q 1056 1369 1301 889 
Q 1547 409 2034 409 
Q 2525 409 2770 889 
Q 3016 1369 3016 2328 
Q 3016 3291 2770 3770 
Q 2525 4250 2034 4250 
z
M 2034 4750 
Q 2819 4750 3233 4129 
Q 3647 3509 3647 2328 
Q 3647 1150 3233 529 
Q 2819 -91 2034 -91 
Q 1250 -91 836 529 
Q 422 1150 422 2328 
Q 422 3509 836 4129 
Q 1250 4750 2034 4750 
z
" transform="scale(0.015625)"/>
     </defs>
     <use xlink:href="#DejaVuSans-48" transform="translate(0 0.015625)"/>
     <use xlink:href="#DejaVuSans-66" transform="translate(75.195312 0.015625)"/>
     <use xlink:href="#DejaVuSans-37" transform="translate(111.357422 -16.390625) scale(0.7)"/>
     <use xlink:href="#DejaVuSans-43" transform="translate(158.62793 0.015625)"/>
     <use xlink:href="#DejaVuSans-75" transform="translate(228.452148 0.015625)"/>
     <use xlink:href="#DejaVuSans-31" transform="translate(292.788086 -16.390625) scale(0.7)"/>
     <use xlink:href="#DejaVuSans-30" transform="translate(337.324219 -16.390625) scale(0.7)"/>
    </g>
   </g>
   <g id="text_7">
    <!-- $\mathrm{HfAl_{2}}$ -->
    <g transform="translate(172.094667 210.544971) scale(0.1 -0.1)">
     <use xlink:href="#DejaVuSans-48" transform="translate(0 0.015625)"/>
     <use xlink:href="#DejaVuSans-66" transform="translate(75.195312 0.015625)"/>
     <use xlink:href="#DejaVuSans-41" transform="translate(110.400391 0.015625)"/>
     <use xlink:href="#DejaVuSans-6c" transform="translate(178.808594 0.015625)"/>
     <use xlink:href="#DejaVuSans-32" transform="translate(207.548828 -16.390625) scale(0.7)"/>
    </g>
   </g>
   <g id="text_8">
    <!-- $\mathrm{Al_{2}Cu}$ -->
    <g transform="translate(211.541947 147.420198) scale(0.1 -0.1)">
     <use xlink:href="#DejaVuSans-41" transform="translate(0 0.015625)"/>
     <use xlink:href="#DejaVuSans-6c" transform="translate(68.408203 0.015625)"/>
     <use xlink:href="#DejaVuSans-32" transform="translate(97.148438 -16.390625) scale(0.7)"/>
     <use xlink:href="#DejaVuSans-43" transform="translate(144.418945 0.015625)"/>
     <use xlink:href="#DejaVuSans-75" transform="translate(214.243164 0.015625)"/>
    </g>
   </g>
   <g id="text_9">
    <!-- $\mathrm{Hf_{4}Al_{3}}$ -->
    <g transform="translate(114.547254 210.594971) scale(0.1 -0.1)">
     <use xlink:href="#DejaVuSans-48" transform="translate(0 0.015625)"/>
     <use xlink:href="#DejaVuSans-66" transform="translate(75.195312 0.015625)"/>
     <use xlink:href="#DejaVuSans-34" transform="translate(111.357422 -16.390625) scale(0.7)"/>
     <use xlink:href="#DejaVuSans-41" transform="translate(158.62793 0.015625)"/>
     <use xlink:href="#DejaVuSans-6c" transform="translate(227.036133 0.015625)"/>
     <use xlink:href="#DejaVuSans-33" transform="translate(255.776367 -16.390625) scale(0.7)"/>
    </g>
   </g>
   <g id="text_10">
    <!-- $\mathrm{AlCu_{3}}$ -->
    <g transform="translate(161.613529 68.638869) scale(0.1 -0.1)">
     <use xlink:href="#DejaVuSans-41" transform="translate(0 0.015625)"/>
     <use xlink:href="#DejaVuSans-6c" transform="translate(68.408203 0.015625)"/>
     <use xlink:href="#DejaVuSans-43" transform="translate(96.191406 0.015625)"/>
     <use xlink:href="#DejaVuSans-75" transform="translate(166.015625 0.015625)"/>
     <use xlink:href="#DejaVuSans-33" transform="translate(230.351562 -16.390625) scale(0.7)"/>
    </g>
   </g>
   <g id="text_11">
    <!-- $\mathrm{Hf_{3}Cu_{8}}$ -->
    <g transform="translate(78.153332 86.652743) scale(0.1 -0.1)">
     <defs>
      <path id="DejaVuSans-38" d="M 2034 2216 
Q 1584 2216 1326 1975 
Q 1069 1734 1069 1313 
Q 1069 891 1326 650 
Q 1584 409 2034 409 
Q 2484 409 2743 651 
Q 3003 894 3003 1313 
Q 3003 1734 2745 1975 
Q 2488 2216 2034 2216 
z
M 1403 2484 
Q 997 2584 770 2862 
Q 544 3141 544 3541 
Q 544 4100 942 4425 
Q 1341 4750 2034 4750 
Q 2731 4750 3128 4425 
Q 3525 4100 3525 3541 
Q 3525 3141 3298 2862 
Q 3072 2584 2669 2484 
Q 3125 2378 3379 2068 
Q 3634 1759 3634 1313 
Q 3634 634 3220 271 
Q 2806 -91 2034 -91 
Q 1263 -91 848 271 
Q 434 634 434 1313 
Q 434 1759 690 2068 
Q 947 2378 1403 2484 
z
M 1172 3481 
Q 1172 3119 1398 2916 
Q 1625 2713 2034 2713 
Q 2441 2713 2670 2916 
Q 2900 3119 2900 3481 
Q 2900 3844 2670 4047 
Q 2441 4250 2034 4250 
Q 1625 4250 1398 4047 
Q 1172 3844 1172 3481 
z
" transform="scale(0.015625)"/>
     </defs>
     <use xlink:href="#DejaVuSans-48" transform="translate(0 0.015625)"/>
     <use xlink:href="#DejaVuSans-66" transform="translate(75.195312 0.015625)"/>
     <use xlink:href="#DejaVuSans-33" transform="translate(111.357422 -16.390625) scale(0.7)"/>
     <use xlink:href="#DejaVuSans-43" transform="translate(158.62793 0.015625)"/>
     <use xlink:href="#DejaVuSans-75" transform="translate(228.452148 0.015625)"/>
     <use xlink:href="#DejaVuSans-38" transform="translate(292.788086 -16.390625) scale(0.7)"/>
    </g>
   </g>
   <g id="text_12">
    <!-- $\mathrm{HfAlCu_{2}}$ -->
    <g transform="translate(106.470115 129.563058) scale(0.1 -0.1)">
     <use xlink:href="#DejaVuSans-48" transform="translate(0 0.015625)"/>
     <use xlink:href="#DejaVuSans-66" transform="translate(75.195312 0.015625)"/>
     <use xlink:href="#DejaVuSans-41" transform="translate(110.400391 0.015625)"/>
     <use xlink:href="#DejaVuSans-6c" transform="translate(178.808594 0.015625)"/>
     <use xlink:href="#DejaVuSans-43" transform="translate(206.591797 0.015625)"/>
     <use xlink:href="#DejaVuSans-75" transform="translate(276.416016 0.015625)"/>
     <use xlink:href="#DejaVuSans-32" transform="translate(340.751953 -16.390625) scale(0.7)"/>
    </g>
   </g>
   <g id="text_13">
    <!-- $\mathrm{Hf}$ -->
    <g transform="translate(20.054189 211.839411) scale(0.1 -0.1)">
     <use xlink:href="#DejaVuSans-48" transform="translate(0 0.015625)"/>
     <use xlink:href="#DejaVuSans-66" transform="translate(75.195312 0.015625)"/>
    </g>
   </g>
   <g id="text_14">
    <!-- $\mathrm{AlCu}$ -->
    <g transform="translate(180.225125 128.238638) scale(0.1 -0.1)">
     <use xlink:href="#DejaVuSans-41" transform="translate(0 0.015625)"/>
     <use xlink:href="#DejaVuSans-6c" transform="translate(68.408203 0.015625)"/>
     <use xlink:href="#DejaVuSans-43" transform="translate(96.191406 0.015625)"/>
     <use xlink:href="#DejaVuSans-75" transform="translate(166.015625 0.015625)"/>
    </g>
   </g>
   <g id="text_15">
    <!-- $\mathrm{Hf_{14}Cu_{51}}$ -->
    <g transform="translate(105.447327 62.095683) scale(0.1 -0.1)">
     <defs>
      <path id="DejaVuSans-35" d="M 691 4666 
L 3169 4666 
L 3169 4134 
L 1269 4134 
L 1269 2991 
Q 1406 3038 1543 3061 
Q 1681 3084 1819 3084 
Q 2600 3084 3056 2656 
Q 3513 2228 3513 1497 
Q 3513 744 3044 326 
Q 2575 -91 1722 -91 
Q 1428 -91 1123 -41 
Q 819 9 494 109 
L 494 744 
Q 775 591 1075 516 
Q 1375 441 1709 441 
Q 2250 441 2565 725 
Q 2881 1009 2881 1497 
Q 2881 1984 2565 2268 
Q 2250 2553 1709 2553 
Q 1456 2553 1204 2497 
Q 953 2441 691 2322 
L 691 4666 
z
" transform="scale(0.015625)"/>
     </defs>
     <use xlink:href="#DejaVuSans-48" transform="translate(0 0.015625)"/>
     <use xlink:href="#DejaVuSans-66" transform="translate(75.195312 0.015625)"/>
     <use xlink:href="#DejaVuSans-31" transform="translate(111.357422 -16.390625) scale(0.7)"/>
     <use xlink:href="#DejaVuSans-34" transform="translate(155.893555 -16.390625) scale(0.7)"/>
     <use xlink:href="#DejaVuSans-43" transform="translate(203.164062 0.015625)"/>
     <use xlink:href="#DejaVuSans-75" transform="translate(272.988281 0.015625)"/>
     <use xlink:href="#DejaVuSans-35" transform="translate(337.324219 -16.390625) scale(0.7)"/>
     <use xlink:href="#DejaVuSans-31" transform="translate(381.860352 -16.390625) scale(0.7)"/>
    </g>
   </g>
   <g id="text_16">
    <!-- $\mathrm{Cu}$ -->
    <g transform="translate(129.692842 33.725944) scale(0.1 -0.1)">
     <use xlink:href="#DejaVuSans-43" transform="translate(0 0.78125)"/>
     <use xlink:href="#DejaVuSans-75" transform="translate(69.824219 0.78125)"/>
    </g>
   </g>
   <g id="text_17">
    <!-- $\mathrm{Hf(Al_{2}Cu)_{4}}$ -->
    <g style="fill: #0000ff" transform="translate(158.802084 165.290556) scale(0.1 -0.1)">
     <defs>
      <path id="DejaVuSans-28" d="M 1984 4856 
Q 1566 4138 1362 3434 
Q 1159 2731 1159 2009 
Q 1159 1288 1364 580 
Q 1569 -128 1984 -844 
L 1484 -844 
Q 1016 -109 783 600 
Q 550 1309 550 2009 
Q 550 2706 781 3412 
Q 1013 4119 1484 4856 
L 1984 4856 
z
" transform="scale(0.015625)"/>
      <path id="DejaVuSans-29" d="M 513 4856 
L 1013 4856 
Q 1481 4119 1714 3412 
Q 1947 2706 1947 2009 
Q 1947 1309 1714 600 
Q 1481 -109 1013 -844 
L 513 -844 
Q 928 -128 1133 580 
Q 1338 1288 1338 2009 
Q 1338 2731 1133 3434 
Q 928 4138 513 4856 
z
" transform="scale(0.015625)"/>
     </defs>
     <use xlink:href="#DejaVuSans-48" transform="translate(0 0.015625)"/>
     <use xlink:href="#DejaVuSans-66" transform="translate(75.195312 0.015625)"/>
     <use xlink:href="#DejaVuSans-28" transform="translate(110.400391 0.015625)"/>
     <use xlink:href="#DejaVuSans-41" transform="translate(149.414062 0.015625)"/>
     <use xlink:href="#DejaVuSans-6c" transform="translate(217.822266 0.015625)"/>
     <use xlink:href="#DejaVuSans-32" transform="translate(246.5625 -16.390625) scale(0.7)"/>
     <use xlink:href="#DejaVuSans-43" transform="translate(293.833008 0.015625)"/>
     <use xlink:href="#DejaVuSans-75" transform="translate(363.657227 0.015625)"/>
     <use xlink:href="#DejaVuSans-29" transform="translate(427.036133 0.015625)"/>
     <use xlink:href="#DejaVuSans-34" transform="translate(467.006836 -16.390625) scale(0.7)"/>
    </g>
   </g>
  </g>
  <g id="axes_2">
   <g id="patch_3">
    <path d="M 287.298425 195.703937 
L 296.029134 195.703937 
L 296.029134 36.96378 
L 287.298425 36.96378 
L 287.298425 195.703937 
z
" style="fill: none"/>
   </g>
   <g id="patch_4">
    <path d="M 287.298425 195.703937 
L 291.66378 203.640945 
L 296.029134 195.703937 
" style="fill: #440154; opacity: 0.7"/>
   </g>
   <g id="patch_5">
    <path d="M 287.298425 36.96378 
L 291.66378 29.026772 
L 296.029134 36.96378 
" style="fill: #fde725; opacity: 0.7"/>
   </g>
   <g id="QuadMesh_1">
    <path d="M 287.298425 195.703937 
L 296.029134 195.703937 
L 296.029134 192.012305 
L 287.298425 192.012305 
L 287.298425 195.703937 
" clip-path="url(#p65278a22ae)" style="fill: #450457; fill-opacity: 0.7"/>
    <path d="M 287.298425 192.012305 
L 296.029134 192.012305 
L 296.029134 188.320674 
L 287.298425 188.320674 
L 287.298425 192.012305 
" clip-path="url(#p65278a22ae)" style="fill: #470d60; fill-opacity: 0.7"/>
    <path d="M 287.298425 188.320674 
L 296.029134 188.320674 
L 296.029134 184.629042 
L 287.298425 184.629042 
L 287.298425 188.320674 
" clip-path="url(#p65278a22ae)" style="fill: #481668; fill-opacity: 0.7"/>
    <path d="M 287.298425 184.629042 
L 296.029134 184.629042 
L 296.029134 180.937411 
L 287.298425 180.937411 
L 287.298425 184.629042 
" clip-path="url(#p65278a22ae)" style="fill: #481d6f; fill-opacity: 0.7"/>
    <path d="M 287.298425 180.937411 
L 296.029134 180.937411 
L 296.029134 177.245779 
L 287.298425 177.245779 
L 287.298425 180.937411 
" clip-path="url(#p65278a22ae)" style="fill: #482576; fill-opacity: 0.7"/>
    <path d="M 287.298425 177.245779 
L 296.029134 177.245779 
L 296.029134 173.554148 
L 287.298425 173.554148 
L 287.298425 177.245779 
" clip-path="url(#p65278a22ae)" style="fill: #472d7b; fill-opacity: 0.7"/>
    <path d="M 287.298425 173.554148 
L 296.029134 173.554148 
L 296.029134 169.862516 
L 287.298425 169.862516 
L 287.298425 173.554148 
" clip-path="url(#p65278a22ae)" style="fill: #463480; fill-opacity: 0.7"/>
    <path d="M 287.298425 169.862516 
L 296.029134 169.862516 
L 296.029134 166.170884 
L 287.298425 166.170884 
L 287.298425 169.862516 
" clip-path="url(#p65278a22ae)" style="fill: #443b84; fill-opacity: 0.7"/>
    <path d="M 287.298425 166.170884 
L 296.029134 166.170884 
L 296.029134 162.479253 
L 287.298425 162.479253 
L 287.298425 166.170884 
" clip-path="url(#p65278a22ae)" style="fill: #414287; fill-opacity: 0.7"/>
    <path d="M 287.298425 162.479253 
L 296.029134 162.479253 
L 296.029134 158.787621 
L 287.298425 158.787621 
L 287.298425 162.479253 
" clip-path="url(#p65278a22ae)" style="fill: #3e4989; fill-opacity: 0.7"/>
    <path d="M 287.298425 158.787621 
L 296.029134 158.787621 
L 296.029134 155.09599 
L 287.298425 155.09599 
L 287.298425 158.787621 
" clip-path="url(#p65278a22ae)" style="fill: #3c508b; fill-opacity: 0.7"/>
    <path d="M 287.298425 155.09599 
L 296.029134 155.09599 
L 296.029134 151.404358 
L 287.298425 151.404358 
L 287.298425 155.09599 
" clip-path="url(#p65278a22ae)" style="fill: #39568c; fill-opacity: 0.7"/>
    <path d="M 287.298425 151.404358 
L 296.029134 151.404358 
L 296.029134 147.712727 
L 287.298425 147.712727 
L 287.298425 151.404358 
" clip-path="url(#p65278a22ae)" style="fill: #365d8d; fill-opacity: 0.7"/>
    <path d="M 287.298425 147.712727 
L 296.029134 147.712727 
L 296.029134 144.021095 
L 287.298425 144.021095 
L 287.298425 147.712727 
" clip-path="url(#p65278a22ae)" style="fill: #33638d; fill-opacity: 0.7"/>
    <path d="M 287.298425 144.021095 
L 296.029134 144.021095 
L 296.029134 140.329463 
L 287.298425 140.329463 
L 287.298425 144.021095 
" clip-path="url(#p65278a22ae)" style="fill: #30698e; fill-opacity: 0.7"/>
    <path d="M 287.298425 140.329463 
L 296.029134 140.329463 
L 296.029134 136.637832 
L 287.298425 136.637832 
L 287.298425 140.329463 
" clip-path="url(#p65278a22ae)" style="fill: #2e6f8e; fill-opacity: 0.7"/>
    <path d="M 287.298425 136.637832 
L 296.029134 136.637832 
L 296.029134 132.9462 
L 287.298425 132.9462 
L 287.298425 136.637832 
" clip-path="url(#p65278a22ae)" style="fill: #2b748e; fill-opacity: 0.7"/>
    <path d="M 287.298425 132.9462 
L 296.029134 132.9462 
L 296.029134 129.254569 
L 287.298425 129.254569 
L 287.298425 132.9462 
" clip-path="url(#p65278a22ae)" style="fill: #297a8e; fill-opacity: 0.7"/>
    <path d="M 287.298425 129.254569 
L 296.029134 129.254569 
L 296.029134 125.562937 
L 287.298425 125.562937 
L 287.298425 129.254569 
" clip-path="url(#p65278a22ae)" style="fill: #27808e; fill-opacity: 0.7"/>
    <path d="M 287.298425 125.562937 
L 296.029134 125.562937 
L 296.029134 121.871306 
L 287.298425 121.871306 
L 287.298425 125.562937 
" clip-path="url(#p65278a22ae)" style="fill: #25858e; fill-opacity: 0.7"/>
    <path d="M 287.298425 121.871306 
L 296.029134 121.871306 
L 296.029134 118.179674 
L 287.298425 118.179674 
L 287.298425 121.871306 
" clip-path="url(#p65278a22ae)" style="fill: #228b8d; fill-opacity: 0.7"/>
    <path d="M 287.298425 118.179674 
L 296.029134 118.179674 
L 296.029134 114.488042 
L 287.298425 114.488042 
L 287.298425 118.179674 
" clip-path="url(#p65278a22ae)" style="fill: #21918c; fill-opacity: 0.7"/>
    <path d="M 287.298425 114.488042 
L 296.029134 114.488042 
L 296.029134 110.796411 
L 287.298425 110.796411 
L 287.298425 114.488042 
" clip-path="url(#p65278a22ae)" style="fill: #1f958b; fill-opacity: 0.7"/>
    <path d="M 287.298425 110.796411 
L 296.029134 110.796411 
L 296.029134 107.104779 
L 287.298425 107.104779 
L 287.298425 110.796411 
" clip-path="url(#p65278a22ae)" style="fill: #1e9b8a; fill-opacity: 0.7"/>
    <path d="M 287.298425 107.104779 
L 296.029134 107.104779 
L 296.029134 103.413148 
L 287.298425 103.413148 
L 287.298425 107.104779 
" clip-path="url(#p65278a22ae)" style="fill: #1fa188; fill-opacity: 0.7"/>
    <path d="M 287.298425 103.413148 
L 296.029134 103.413148 
L 296.029134 99.721516 
L 287.298425 99.721516 
L 287.298425 103.413148 
" clip-path="url(#p65278a22ae)" style="fill: #21a685; fill-opacity: 0.7"/>
    <path d="M 287.298425 99.721516 
L 296.029134 99.721516 
L 296.029134 96.029885 
L 287.298425 96.029885 
L 287.298425 99.721516 
" clip-path="url(#p65278a22ae)" style="fill: #25ac82; fill-opacity: 0.7"/>
    <path d="M 287.298425 96.029885 
L 296.029134 96.029885 
L 296.029134 92.338253 
L 287.298425 92.338253 
L 287.298425 96.029885 
" clip-path="url(#p65278a22ae)" style="fill: #2cb17e; fill-opacity: 0.7"/>
    <path d="M 287.298425 92.338253 
L 296.029134 92.338253 
L 296.029134 88.646621 
L 287.298425 88.646621 
L 287.298425 92.338253 
" clip-path="url(#p65278a22ae)" style="fill: #34b679; fill-opacity: 0.7"/>
    <path d="M 287.298425 88.646621 
L 296.029134 88.646621 
L 296.029134 84.95499 
L 287.298425 84.95499 
L 287.298425 88.646621 
" clip-path="url(#p65278a22ae)" style="fill: #3dbc74; fill-opacity: 0.7"/>
    <path d="M 287.298425 84.95499 
L 296.029134 84.95499 
L 296.029134 81.263358 
L 287.298425 81.263358 
L 287.298425 84.95499 
" clip-path="url(#p65278a22ae)" style="fill: #48c16e; fill-opacity: 0.7"/>
    <path d="M 287.298425 81.263358 
L 296.029134 81.263358 
L 296.029134 77.571727 
L 287.298425 77.571727 
L 287.298425 81.263358 
" clip-path="url(#p65278a22ae)" style="fill: #54c568; fill-opacity: 0.7"/>
    <path d="M 287.298425 77.571727 
L 296.029134 77.571727 
L 296.029134 73.880095 
L 287.298425 73.880095 
L 287.298425 77.571727 
" clip-path="url(#p65278a22ae)" style="fill: #60ca60; fill-opacity: 0.7"/>
    <path d="M 287.298425 73.880095 
L 296.029134 73.880095 
L 296.029134 70.188464 
L 287.298425 70.188464 
L 287.298425 73.880095 
" clip-path="url(#p65278a22ae)" style="fill: #6ece58; fill-opacity: 0.7"/>
    <path d="M 287.298425 70.188464 
L 296.029134 70.188464 
L 296.029134 66.496832 
L 287.298425 66.496832 
L 287.298425 70.188464 
" clip-path="url(#p65278a22ae)" style="fill: #7cd250; fill-opacity: 0.7"/>
    <path d="M 287.298425 66.496832 
L 296.029134 66.496832 
L 296.029134 62.805201 
L 287.298425 62.805201 
L 287.298425 66.496832 
" clip-path="url(#p65278a22ae)" style="fill: #8bd646; fill-opacity: 0.7"/>
    <path d="M 287.298425 62.805201 
L 296.029134 62.805201 
L 296.029134 59.113569 
L 287.298425 59.113569 
L 287.298425 62.805201 
" clip-path="url(#p65278a22ae)" style="fill: #9bd93c; fill-opacity: 0.7"/>
    <path d="M 287.298425 59.113569 
L 296.029134 59.113569 
L 296.029134 55.421937 
L 287.298425 55.421937 
L 287.298425 59.113569 
" clip-path="url(#p65278a22ae)" style="fill: #aadc32; fill-opacity: 0.7"/>
    <path d="M 287.298425 55.421937 
L 296.029134 55.421937 
L 296.029134 51.730306 
L 287.298425 51.730306 
L 287.298425 55.421937 
" clip-path="url(#p65278a22ae)" style="fill: #bade28; fill-opacity: 0.7"/>
    <path d="M 287.298425 51.730306 
L 296.029134 51.730306 
L 296.029134 48.038674 
L 287.298425 48.038674 
L 287.298425 51.730306 
" clip-path="url(#p65278a22ae)" style="fill: #cae11f; fill-opacity: 0.7"/>
    <path d="M 287.298425 48.038674 
L 296.029134 48.038674 
L 296.029134 44.347043 
L 287.298425 44.347043 
L 287.298425 48.038674 
" clip-path="url(#p65278a22ae)" style="fill: #dae319; fill-opacity: 0.7"/>
    <path d="M 287.298425 44.347043 
L 296.029134 44.347043 
L 296.029134 40.655411 
L 287.298425 40.655411 
L 287.298425 44.347043 
" clip-path="url(#p65278a22ae)" style="fill: #eae51a; fill-opacity: 0.7"/>
    <path d="M 287.298425 40.655411 
L 296.029134 40.655411 
L 296.029134 36.96378 
L 287.298425 36.96378 
L 287.298425 40.655411 
" clip-path="url(#p65278a22ae)" style="fill: #f8e621; fill-opacity: 0.7"/>
   </g>
   <g id="matplotlib.axis_3"/>
   <g id="matplotlib.axis_4">
    <g id="ytick_1">
     <g id="line2d_32">
      <defs>
       <path id="m16350fa43e" d="M 0 0 
L -2 0 
" style="stroke: #000000; stroke-width: 0.3"/>
      </defs>
      <g>
       <use xlink:href="#m16350fa43e" x="296.029134" y="184.629042" style="stroke: #000000; stroke-width: 0.3"/>
      </g>
     </g>
     <g id="text_18">
      <!-- 0.41 -->
      <g transform="translate(299.529134 187.492167) scale(0.08 -0.08)">
       <defs>
        <path id="ArialMT-2212" d="M 3381 1997 
L 356 1997 
L 356 2522 
L 3381 2522 
L 3381 1997 
z
" transform="scale(0.015625)"/>
        <path id="ArialMT-30" d="M 266 2259 
Q 266 3072 433 3567 
Q 600 4063 929 4331 
Q 1259 4600 1759 4600 
Q 2128 4600 2406 4451 
Q 2684 4303 2865 4023 
Q 3047 3744 3150 3342 
Q 3253 2941 3253 2259 
Q 3253 1453 3087 958 
Q 2922 463 2592 192 
Q 2263 -78 1759 -78 
Q 1097 -78 719 397 
Q 266 969 266 2259 
z
M 844 2259 
Q 844 1131 1108 757 
Q 1372 384 1759 384 
Q 2147 384 2411 759 
Q 2675 1134 2675 2259 
Q 2675 3391 2411 3762 
Q 2147 4134 1753 4134 
Q 1366 4134 1134 3806 
Q 844 3388 844 2259 
z
" transform="scale(0.015625)"/>
        <path id="ArialMT-2e" d="M 581 0 
L 581 641 
L 1222 641 
L 1222 0 
L 581 0 
z
" transform="scale(0.015625)"/>
        <path id="ArialMT-34" d="M 2069 0 
L 2069 1097 
L 81 1097 
L 81 1613 
L 2172 4581 
L 2631 4581 
L 2631 1613 
L 3250 1613 
L 3250 1097 
L 2631 1097 
L 2631 0 
L 2069 0 
z
M 2069 1613 
L 2069 3678 
L 634 1613 
L 2069 1613 
z
" transform="scale(0.015625)"/>
        <path id="ArialMT-31" d="M 2384 0 
L 1822 0 
L 1822 3584 
Q 1619 3391 1289 3197 
Q 959 3003 697 2906 
L 697 3450 
Q 1169 3672 1522 3987 
Q 1875 4303 2022 4600 
L 2384 4600 
L 2384 0 
z
" transform="scale(0.015625)"/>
       </defs>
       <use xlink:href="#ArialMT-2212"/>
       <use xlink:href="#ArialMT-30" transform="translate(58.398438 0)"/>
       <use xlink:href="#ArialMT-2e" transform="translate(114.013672 0)"/>
       <use xlink:href="#ArialMT-34" transform="translate(141.796875 0)"/>
       <use xlink:href="#ArialMT-31" transform="translate(197.412109 0)"/>
      </g>
     </g>
    </g>
    <g id="ytick_2">
     <g id="line2d_33">
      <g>
       <use xlink:href="#m16350fa43e" x="296.029134" y="166.170884" style="stroke: #000000; stroke-width: 0.3"/>
      </g>
     </g>
     <g id="text_19">
      <!-- 0.36 -->
      <g transform="translate(299.529134 169.034009) scale(0.08 -0.08)">
       <defs>
        <path id="ArialMT-33" d="M 269 1209 
L 831 1284 
Q 928 806 1161 595 
Q 1394 384 1728 384 
Q 2125 384 2398 659 
Q 2672 934 2672 1341 
Q 2672 1728 2419 1979 
Q 2166 2231 1775 2231 
Q 1616 2231 1378 2169 
L 1441 2663 
Q 1497 2656 1531 2656 
Q 1891 2656 2178 2843 
Q 2466 3031 2466 3422 
Q 2466 3731 2256 3934 
Q 2047 4138 1716 4138 
Q 1388 4138 1169 3931 
Q 950 3725 888 3313 
L 325 3413 
Q 428 3978 793 4289 
Q 1159 4600 1703 4600 
Q 2078 4600 2393 4439 
Q 2709 4278 2876 4000 
Q 3044 3722 3044 3409 
Q 3044 3113 2884 2869 
Q 2725 2625 2413 2481 
Q 2819 2388 3044 2092 
Q 3269 1797 3269 1353 
Q 3269 753 2831 336 
Q 2394 -81 1725 -81 
Q 1122 -81 723 278 
Q 325 638 269 1209 
z
" transform="scale(0.015625)"/>
        <path id="ArialMT-36" d="M 3184 3459 
L 2625 3416 
Q 2550 3747 2413 3897 
Q 2184 4138 1850 4138 
Q 1581 4138 1378 3988 
Q 1113 3794 959 3422 
Q 806 3050 800 2363 
Q 1003 2672 1297 2822 
Q 1591 2972 1913 2972 
Q 2475 2972 2870 2558 
Q 3266 2144 3266 1488 
Q 3266 1056 3080 686 
Q 2894 316 2569 119 
Q 2244 -78 1831 -78 
Q 1128 -78 684 439 
Q 241 956 241 2144 
Q 241 3472 731 4075 
Q 1159 4600 1884 4600 
Q 2425 4600 2770 4297 
Q 3116 3994 3184 3459 
z
M 888 1484 
Q 888 1194 1011 928 
Q 1134 663 1356 523 
Q 1578 384 1822 384 
Q 2178 384 2434 671 
Q 2691 959 2691 1453 
Q 2691 1928 2437 2201 
Q 2184 2475 1800 2475 
Q 1419 2475 1153 2201 
Q 888 1928 888 1484 
z
" transform="scale(0.015625)"/>
       </defs>
       <use xlink:href="#ArialMT-2212"/>
       <use xlink:href="#ArialMT-30" transform="translate(58.398438 0)"/>
       <use xlink:href="#ArialMT-2e" transform="translate(114.013672 0)"/>
       <use xlink:href="#ArialMT-33" transform="translate(141.796875 0)"/>
       <use xlink:href="#ArialMT-36" transform="translate(197.412109 0)"/>
      </g>
     </g>
    </g>
    <g id="ytick_3">
     <g id="line2d_34">
      <g>
       <use xlink:href="#m16350fa43e" x="296.029134" y="147.712727" style="stroke: #000000; stroke-width: 0.3"/>
      </g>
     </g>
     <g id="text_20">
      <!-- 0.31 -->
      <g transform="translate(299.529134 150.575852) scale(0.08 -0.08)">
       <use xlink:href="#ArialMT-2212"/>
       <use xlink:href="#ArialMT-30" transform="translate(58.398438 0)"/>
       <use xlink:href="#ArialMT-2e" transform="translate(114.013672 0)"/>
       <use xlink:href="#ArialMT-33" transform="translate(141.796875 0)"/>
       <use xlink:href="#ArialMT-31" transform="translate(197.412109 0)"/>
      </g>
     </g>
    </g>
    <g id="ytick_4">
     <g id="line2d_35">
      <g>
       <use xlink:href="#m16350fa43e" x="296.029134" y="129.254569" style="stroke: #000000; stroke-width: 0.3"/>
      </g>
     </g>
     <g id="text_21">
      <!-- 0.26 -->
      <g transform="translate(299.529134 132.117694) scale(0.08 -0.08)">
       <defs>
        <path id="ArialMT-32" d="M 3222 541 
L 3222 0 
L 194 0 
Q 188 203 259 391 
Q 375 700 629 1000 
Q 884 1300 1366 1694 
Q 2113 2306 2375 2664 
Q 2638 3022 2638 3341 
Q 2638 3675 2398 3904 
Q 2159 4134 1775 4134 
Q 1369 4134 1125 3890 
Q 881 3647 878 3216 
L 300 3275 
Q 359 3922 746 4261 
Q 1134 4600 1788 4600 
Q 2447 4600 2831 4234 
Q 3216 3869 3216 3328 
Q 3216 3053 3103 2787 
Q 2991 2522 2730 2228 
Q 2469 1934 1863 1422 
Q 1356 997 1212 845 
Q 1069 694 975 541 
L 3222 541 
z
" transform="scale(0.015625)"/>
       </defs>
       <use xlink:href="#ArialMT-2212"/>
       <use xlink:href="#ArialMT-30" transform="translate(58.398438 0)"/>
       <use xlink:href="#ArialMT-2e" transform="translate(114.013672 0)"/>
       <use xlink:href="#ArialMT-32" transform="translate(141.796875 0)"/>
       <use xlink:href="#ArialMT-36" transform="translate(197.412109 0)"/>
      </g>
     </g>
    </g>
    <g id="ytick_5">
     <g id="line2d_36">
      <g>
       <use xlink:href="#m16350fa43e" x="296.029134" y="110.796411" style="stroke: #000000; stroke-width: 0.3"/>
      </g>
     </g>
     <g id="text_22">
      <!-- 0.21 -->
      <g transform="translate(299.529134 113.659536) scale(0.08 -0.08)">
       <use xlink:href="#ArialMT-2212"/>
       <use xlink:href="#ArialMT-30" transform="translate(58.398438 0)"/>
       <use xlink:href="#ArialMT-2e" transform="translate(114.013672 0)"/>
       <use xlink:href="#ArialMT-32" transform="translate(141.796875 0)"/>
       <use xlink:href="#ArialMT-31" transform="translate(197.412109 0)"/>
      </g>
     </g>
    </g>
    <g id="ytick_6">
     <g id="line2d_37">
      <g>
       <use xlink:href="#m16350fa43e" x="296.029134" y="92.338253" style="stroke: #000000; stroke-width: 0.3"/>
      </g>
     </g>
     <g id="text_23">
      <!-- 0.16 -->
      <g transform="translate(299.529134 95.201378) scale(0.08 -0.08)">
       <use xlink:href="#ArialMT-2212"/>
       <use xlink:href="#ArialMT-30" transform="translate(58.398438 0)"/>
       <use xlink:href="#ArialMT-2e" transform="translate(114.013672 0)"/>
       <use xlink:href="#ArialMT-31" transform="translate(141.796875 0)"/>
       <use xlink:href="#ArialMT-36" transform="translate(197.412109 0)"/>
      </g>
     </g>
    </g>
    <g id="ytick_7">
     <g id="line2d_38">
      <g>
       <use xlink:href="#m16350fa43e" x="296.029134" y="73.880095" style="stroke: #000000; stroke-width: 0.3"/>
      </g>
     </g>
     <g id="text_24">
      <!-- 0.11 -->
      <g transform="translate(299.529134 76.74322) scale(0.08 -0.08)">
       <use xlink:href="#ArialMT-2212"/>
       <use xlink:href="#ArialMT-30" transform="translate(58.398438 0)"/>
       <use xlink:href="#ArialMT-2e" transform="translate(114.013672 0)"/>
       <use xlink:href="#ArialMT-31" transform="translate(141.796875 0)"/>
       <use xlink:href="#ArialMT-31" transform="translate(190.037109 0)"/>
      </g>
     </g>
    </g>
    <g id="ytick_8">
     <g id="line2d_39">
      <g>
       <use xlink:href="#m16350fa43e" x="296.029134" y="55.421937" style="stroke: #000000; stroke-width: 0.3"/>
      </g>
     </g>
     <g id="text_25">
      <!-- 0.06 -->
      <g transform="translate(299.529134 58.285062) scale(0.08 -0.08)">
       <use xlink:href="#ArialMT-2212"/>
       <use xlink:href="#ArialMT-30" transform="translate(58.398438 0)"/>
       <use xlink:href="#ArialMT-2e" transform="translate(114.013672 0)"/>
       <use xlink:href="#ArialMT-30" transform="translate(141.796875 0)"/>
       <use xlink:href="#ArialMT-36" transform="translate(197.412109 0)"/>
      </g>
     </g>
    </g>
    <g id="ytick_9">
     <g id="line2d_40">
      <g>
       <use xlink:href="#m16350fa43e" x="296.029134" y="36.96378" style="stroke: #000000; stroke-width: 0.3"/>
      </g>
     </g>
     <g id="text_26">
      <!-- 0.01 -->
      <g transform="translate(299.529134 39.826905) scale(0.08 -0.08)">
       <use xlink:href="#ArialMT-2212"/>
       <use xlink:href="#ArialMT-30" transform="translate(58.398438 0)"/>
       <use xlink:href="#ArialMT-2e" transform="translate(114.013672 0)"/>
       <use xlink:href="#ArialMT-30" transform="translate(141.796875 0)"/>
       <use xlink:href="#ArialMT-31" transform="translate(197.412109 0)"/>
      </g>
     </g>
    </g>
    <g id="text_27">
     <!-- Formation Energy (eV/atom) -->
     <g transform="translate(331.050071 179.408077) rotate(-90) scale(0.1 -0.1)">
      <defs>
       <path id="ArialMT-46" d="M 525 0 
L 525 4581 
L 3616 4581 
L 3616 4041 
L 1131 4041 
L 1131 2622 
L 3281 2622 
L 3281 2081 
L 1131 2081 
L 1131 0 
L 525 0 
z
" transform="scale(0.015625)"/>
       <path id="ArialMT-6f" d="M 213 1659 
Q 213 2581 725 3025 
Q 1153 3394 1769 3394 
Q 2453 3394 2887 2945 
Q 3322 2497 3322 1706 
Q 3322 1066 3130 698 
Q 2938 331 2570 128 
Q 2203 -75 1769 -75 
Q 1072 -75 642 372 
Q 213 819 213 1659 
z
M 791 1659 
Q 791 1022 1069 705 
Q 1347 388 1769 388 
Q 2188 388 2466 706 
Q 2744 1025 2744 1678 
Q 2744 2294 2464 2611 
Q 2184 2928 1769 2928 
Q 1347 2928 1069 2612 
Q 791 2297 791 1659 
z
" transform="scale(0.015625)"/>
       <path id="ArialMT-72" d="M 416 0 
L 416 3319 
L 922 3319 
L 922 2816 
Q 1116 3169 1280 3281 
Q 1444 3394 1641 3394 
Q 1925 3394 2219 3213 
L 2025 2691 
Q 1819 2813 1613 2813 
Q 1428 2813 1281 2702 
Q 1134 2591 1072 2394 
Q 978 2094 978 1738 
L 978 0 
L 416 0 
z
" transform="scale(0.015625)"/>
       <path id="ArialMT-6d" d="M 422 0 
L 422 3319 
L 925 3319 
L 925 2853 
Q 1081 3097 1340 3245 
Q 1600 3394 1931 3394 
Q 2300 3394 2536 3241 
Q 2772 3088 2869 2813 
Q 3263 3394 3894 3394 
Q 4388 3394 4653 3120 
Q 4919 2847 4919 2278 
L 4919 0 
L 4359 0 
L 4359 2091 
Q 4359 2428 4304 2576 
Q 4250 2725 4106 2815 
Q 3963 2906 3769 2906 
Q 3419 2906 3187 2673 
Q 2956 2441 2956 1928 
L 2956 0 
L 2394 0 
L 2394 2156 
Q 2394 2531 2256 2718 
Q 2119 2906 1806 2906 
Q 1569 2906 1367 2781 
Q 1166 2656 1075 2415 
Q 984 2175 984 1722 
L 984 0 
L 422 0 
z
" transform="scale(0.015625)"/>
       <path id="ArialMT-61" d="M 2588 409 
Q 2275 144 1986 34 
Q 1697 -75 1366 -75 
Q 819 -75 525 192 
Q 231 459 231 875 
Q 231 1119 342 1320 
Q 453 1522 633 1644 
Q 813 1766 1038 1828 
Q 1203 1872 1538 1913 
Q 2219 1994 2541 2106 
Q 2544 2222 2544 2253 
Q 2544 2597 2384 2738 
Q 2169 2928 1744 2928 
Q 1347 2928 1158 2789 
Q 969 2650 878 2297 
L 328 2372 
Q 403 2725 575 2942 
Q 747 3159 1072 3276 
Q 1397 3394 1825 3394 
Q 2250 3394 2515 3294 
Q 2781 3194 2906 3042 
Q 3031 2891 3081 2659 
Q 3109 2516 3109 2141 
L 3109 1391 
Q 3109 606 3145 398 
Q 3181 191 3288 0 
L 2700 0 
Q 2613 175 2588 409 
z
M 2541 1666 
Q 2234 1541 1622 1453 
Q 1275 1403 1131 1340 
Q 988 1278 909 1158 
Q 831 1038 831 891 
Q 831 666 1001 516 
Q 1172 366 1500 366 
Q 1825 366 2078 508 
Q 2331 650 2450 897 
Q 2541 1088 2541 1459 
L 2541 1666 
z
" transform="scale(0.015625)"/>
       <path id="ArialMT-74" d="M 1650 503 
L 1731 6 
Q 1494 -44 1306 -44 
Q 1000 -44 831 53 
Q 663 150 594 308 
Q 525 466 525 972 
L 525 2881 
L 113 2881 
L 113 3319 
L 525 3319 
L 525 4141 
L 1084 4478 
L 1084 3319 
L 1650 3319 
L 1650 2881 
L 1084 2881 
L 1084 941 
Q 1084 700 1114 631 
Q 1144 563 1211 522 
Q 1278 481 1403 481 
Q 1497 481 1650 503 
z
" transform="scale(0.015625)"/>
       <path id="ArialMT-69" d="M 425 3934 
L 425 4581 
L 988 4581 
L 988 3934 
L 425 3934 
z
M 425 0 
L 425 3319 
L 988 3319 
L 988 0 
L 425 0 
z
" transform="scale(0.015625)"/>
       <path id="ArialMT-6e" d="M 422 0 
L 422 3319 
L 928 3319 
L 928 2847 
Q 1294 3394 1984 3394 
Q 2284 3394 2536 3286 
Q 2788 3178 2913 3003 
Q 3038 2828 3088 2588 
Q 3119 2431 3119 2041 
L 3119 0 
L 2556 0 
L 2556 2019 
Q 2556 2363 2490 2533 
Q 2425 2703 2258 2804 
Q 2091 2906 1866 2906 
Q 1506 2906 1245 2678 
Q 984 2450 984 1813 
L 984 0 
L 422 0 
z
" transform="scale(0.015625)"/>
       <path id="ArialMT-20" transform="scale(0.015625)"/>
       <path id="ArialMT-45" d="M 506 0 
L 506 4581 
L 3819 4581 
L 3819 4041 
L 1113 4041 
L 1113 2638 
L 3647 2638 
L 3647 2100 
L 1113 2100 
L 1113 541 
L 3925 541 
L 3925 0 
L 506 0 
z
" transform="scale(0.015625)"/>
       <path id="ArialMT-65" d="M 2694 1069 
L 3275 997 
Q 3138 488 2766 206 
Q 2394 -75 1816 -75 
Q 1088 -75 661 373 
Q 234 822 234 1631 
Q 234 2469 665 2931 
Q 1097 3394 1784 3394 
Q 2450 3394 2872 2941 
Q 3294 2488 3294 1666 
Q 3294 1616 3291 1516 
L 816 1516 
Q 847 969 1125 678 
Q 1403 388 1819 388 
Q 2128 388 2347 550 
Q 2566 713 2694 1069 
z
M 847 1978 
L 2700 1978 
Q 2663 2397 2488 2606 
Q 2219 2931 1791 2931 
Q 1403 2931 1139 2672 
Q 875 2413 847 1978 
z
" transform="scale(0.015625)"/>
       <path id="ArialMT-67" d="M 319 -275 
L 866 -356 
Q 900 -609 1056 -725 
Q 1266 -881 1628 -881 
Q 2019 -881 2231 -725 
Q 2444 -569 2519 -288 
Q 2563 -116 2559 434 
Q 2191 0 1641 0 
Q 956 0 581 494 
Q 206 988 206 1678 
Q 206 2153 378 2554 
Q 550 2956 876 3175 
Q 1203 3394 1644 3394 
Q 2231 3394 2613 2919 
L 2613 3319 
L 3131 3319 
L 3131 450 
Q 3131 -325 2973 -648 
Q 2816 -972 2473 -1159 
Q 2131 -1347 1631 -1347 
Q 1038 -1347 672 -1080 
Q 306 -813 319 -275 
z
M 784 1719 
Q 784 1066 1043 766 
Q 1303 466 1694 466 
Q 2081 466 2343 764 
Q 2606 1063 2606 1700 
Q 2606 2309 2336 2618 
Q 2066 2928 1684 2928 
Q 1309 2928 1046 2623 
Q 784 2319 784 1719 
z
" transform="scale(0.015625)"/>
       <path id="ArialMT-79" d="M 397 -1278 
L 334 -750 
Q 519 -800 656 -800 
Q 844 -800 956 -737 
Q 1069 -675 1141 -563 
Q 1194 -478 1313 -144 
Q 1328 -97 1363 -6 
L 103 3319 
L 709 3319 
L 1400 1397 
Q 1534 1031 1641 628 
Q 1738 1016 1872 1384 
L 2581 3319 
L 3144 3319 
L 1881 -56 
Q 1678 -603 1566 -809 
Q 1416 -1088 1222 -1217 
Q 1028 -1347 759 -1347 
Q 597 -1347 397 -1278 
z
" transform="scale(0.015625)"/>
       <path id="ArialMT-28" d="M 1497 -1347 
Q 1031 -759 709 28 
Q 388 816 388 1659 
Q 388 2403 628 3084 
Q 909 3875 1497 4659 
L 1900 4659 
Q 1522 4009 1400 3731 
Q 1209 3300 1100 2831 
Q 966 2247 966 1656 
Q 966 153 1900 -1347 
L 1497 -1347 
z
" transform="scale(0.015625)"/>
       <path id="ArialMT-56" d="M 1803 0 
L 28 4581 
L 684 4581 
L 1875 1253 
Q 2019 853 2116 503 
Q 2222 878 2363 1253 
L 3600 4581 
L 4219 4581 
L 2425 0 
L 1803 0 
z
" transform="scale(0.015625)"/>
       <path id="ArialMT-2f" d="M 0 -78 
L 1328 4659 
L 1778 4659 
L 453 -78 
L 0 -78 
z
" transform="scale(0.015625)"/>
       <path id="ArialMT-29" d="M 791 -1347 
L 388 -1347 
Q 1322 153 1322 1656 
Q 1322 2244 1188 2822 
Q 1081 3291 891 3722 
Q 769 4003 388 4659 
L 791 4659 
Q 1378 3875 1659 3084 
Q 1900 2403 1900 1659 
Q 1900 816 1576 28 
Q 1253 -759 791 -1347 
z
" transform="scale(0.015625)"/>
      </defs>
      <use xlink:href="#ArialMT-46"/>
      <use xlink:href="#ArialMT-6f" transform="translate(61.083984 0)"/>
      <use xlink:href="#ArialMT-72" transform="translate(116.699219 0)"/>
      <use xlink:href="#ArialMT-6d" transform="translate(150 0)"/>
      <use xlink:href="#ArialMT-61" transform="translate(233.300781 0)"/>
      <use xlink:href="#ArialMT-74" transform="translate(288.916016 0)"/>
      <use xlink:href="#ArialMT-69" transform="translate(316.699219 0)"/>
      <use xlink:href="#ArialMT-6f" transform="translate(338.916016 0)"/>
      <use xlink:href="#ArialMT-6e" transform="translate(394.53125 0)"/>
      <use xlink:href="#ArialMT-20" transform="translate(450.146484 0)"/>
      <use xlink:href="#ArialMT-45" transform="translate(477.929688 0)"/>
      <use xlink:href="#ArialMT-6e" transform="translate(544.628906 0)"/>
      <use xlink:href="#ArialMT-65" transform="translate(600.244141 0)"/>
      <use xlink:href="#ArialMT-72" transform="translate(655.859375 0)"/>
      <use xlink:href="#ArialMT-67" transform="translate(689.160156 0)"/>
      <use xlink:href="#ArialMT-79" transform="translate(744.775391 0)"/>
      <use xlink:href="#ArialMT-20" transform="translate(794.775391 0)"/>
      <use xlink:href="#ArialMT-28" transform="translate(822.558594 0)"/>
      <use xlink:href="#ArialMT-65" transform="translate(855.859375 0)"/>
      <use xlink:href="#ArialMT-56" transform="translate(911.474609 0)"/>
      <use xlink:href="#ArialMT-2f" transform="translate(978.173828 0)"/>
      <use xlink:href="#ArialMT-61" transform="translate(1005.957031 0)"/>
      <use xlink:href="#ArialMT-74" transform="translate(1061.572266 0)"/>
      <use xlink:href="#ArialMT-6f" transform="translate(1089.355469 0)"/>
      <use xlink:href="#ArialMT-6d" transform="translate(1144.970703 0)"/>
      <use xlink:href="#ArialMT-29" transform="translate(1228.271484 0)"/>
     </g>
    </g>
   </g>
   <g id="LineCollection_1"/>
   <g id="patch_6">
    <path d="M 287.298425 195.703937 
L 291.66378 203.640945 
L 296.029134 195.703937 
L 296.029134 36.96378 
L 291.66378 29.026772 
L 287.298425 36.96378 
L 287.298425 195.703937 
z
" style="fill: none; stroke: #000000; stroke-width: 0.8; stroke-linejoin: miter; stroke-linecap: square"/>
   </g>
  </g>
 </g>
 <defs>
  <clipPath id="pd4802d8e9f">
   <rect x="7.2" y="7.2" width="263.622047" height="218.267717"/>
  </clipPath>
  <clipPath id="p65278a22ae">
   <rect x="287.298425" y="36.96378" width="8.730709" height="158.740157"/>
  </clipPath>
 </defs>
</svg>
