<?xml version="1.0" encoding="utf-8" standalone="no"?>
<!DOCTYPE svg PUBLIC "-//W3C//DTD SVG 1.1//EN"
  "http://www.w3.org/Graphics/SVG/1.1/DTD/svg11.dtd">
<svg xmlns:xlink="http://www.w3.org/1999/xlink" width="344.803509pt" height="232.667717pt" viewBox="0 0 344.803509 232.667717" xmlns="http://www.w3.org/2000/svg" version="1.1">
 <metadata>
  <rdf:RDF xmlns:dc="http://purl.org/dc/elements/1.1/" xmlns:cc="http://creativecommons.org/ns#" xmlns:rdf="http://www.w3.org/1999/02/22-rdf-syntax-ns#">
   <cc:Work>
    <dc:type rdf:resource="http://purl.org/dc/dcmitype/StillImage"/>
    <dc:date>2026-01-27T21:37:43.747785</dc:date>
    <dc:format>image/svg+xml</dc:format>
    <dc:creator>
     <cc:Agent>
      <dc:title>Matplotlib v3.10.8, https://matplotlib.org/</dc:title>
     </cc:Agent>
    </dc:creator>
   </cc:Work>
  </rdf:RDF>
 </metadata>
 <defs>
  <style type="text/css">*{stroke-linejoin: round; stroke-linecap: butt}</style>
 </defs>
 <g id="figure_1">
  <g id="patch_1">
   <path d="M 0 232.667717 
L 344.803509 232.667717 
L 344.803509 0 
L 0 0 
L 0 232.667717 
z
" style="fill: none"/>
  </g>
  <g id="axes_1">
   <g id="patch_2">
    <path d="M 7.2 225.467717 
L 270.822047 225.467717 
L 270.822047 7.2 
L 7.2 7.2 
L 7.2 225.467717 
z
" style="fill: none"/>
   </g>
   <g id="TriContourSet_1">
    <path d="M 58.233554 152.952972 
L 59.861127 153.170348 
L 61.312413 153.27072 
L 62.538029 153.252697 
L 62.779308 153.192636 
L 62.969461 152.758598 
L 68.238556 139.387624 
L 68.510601 136.74124 
L 67.114102 138.944176 
L 59.125555 151.545868 
z
" clip-path="url(#pdb9ea39602)" style="fill: #440154; fill-opacity: 0.7"/>
    <path d="M 68.510601 136.74124 
L 68.238556 139.387624 
L 62.969461 152.758598 
L 62.779308 153.192636 
L 62.538029 153.252697 
L 61.312413 153.27072 
L 59.861127 153.170348 
L 58.233554 152.952972 
L 57.266476 154.47851 
L 60.658611 154.931558 
L 63.683335 155.140749 
L 66.237726 155.103187 
L 66.740591 154.978009 
L 67.136903 154.073401 
L 72.29389 140.986916 
L 73.547062 128.796375 
z
" clip-path="url(#pdb9ea39602)" style="fill: #450457; fill-opacity: 0.7"/>
    <path d="M 73.547062 128.796375 
L 72.29389 140.986916 
L 67.136903 154.073401 
L 66.740591 154.978009 
L 66.237726 155.103187 
L 63.683335 155.140749 
L 60.658611 154.931558 
L 57.266476 154.47851 
L 56.299397 156.004047 
L 61.456095 156.692767 
L 66.054258 157.010778 
L 69.937423 156.953677 
L 70.701875 156.763382 
L 71.304345 155.388203 
L 76.349223 142.586207 
L 78.583522 120.85151 
z
" clip-path="url(#pdb9ea39602)" style="fill: #470d60; fill-opacity: 0.7"/>
    <path d="M 78.583522 120.85151 
L 76.349223 142.586207 
L 71.304345 155.388203 
L 70.701875 156.763382 
L 69.937423 156.953677 
L 66.054258 157.010778 
L 61.456095 156.692767 
L 56.299397 156.004047 
L 55.332318 157.529585 
L 62.253578 158.453977 
L 68.42518 158.880808 
L 73.63712 158.804167 
L 74.663158 158.548755 
L 75.471787 156.703006 
L 80.404557 144.185499 
L 82.692177 121.932106 
L 80.29534 118.151168 
L 79.096922 120.041637 
z
" clip-path="url(#pdb9ea39602)" style="fill: #481467; fill-opacity: 0.7"/>
    <path d="M 80.29534 118.151168 
L 82.692177 121.932106 
L 80.404557 144.185499 
L 75.471787 156.703006 
L 74.663158 158.548755 
L 73.63712 158.804167 
L 68.42518 158.880808 
L 62.253578 158.453977 
L 55.332318 157.529585 
L 54.36524 159.055122 
L 63.051062 160.215186 
L 70.796102 160.750837 
L 77.336817 160.654657 
L 78.624442 160.334128 
L 79.639229 158.017809 
L 84.45989 145.784791 
L 86.695519 124.037156 
L 81.629788 116.046118 
z
" clip-path="url(#pdb9ea39602)" style="fill: #481c6e; fill-opacity: 0.7"/>
    <path d="M 81.629788 116.046118 
L 86.695519 124.037156 
L 84.45989 145.784791 
L 79.639229 158.017809 
L 78.624442 160.334128 
L 77.336817 160.654657 
L 70.796102 160.750837 
L 63.051062 160.215186 
L 54.36524 159.055122 
L 53.398161 160.58066 
L 63.848546 161.976396 
L 73.167025 162.620866 
L 81.036514 162.505147 
L 82.585725 162.119501 
L 83.80667 159.332612 
L 88.515223 147.384082 
L 90.698861 126.142207 
L 82.964235 113.941067 
z
" clip-path="url(#pdb9ea39602)" style="fill: #482475; fill-opacity: 0.7"/>
    <path d="M 82.964235 113.941067 
L 90.698861 126.142207 
L 88.515223 147.384082 
L 83.80667 159.332612 
L 82.585725 162.119501 
L 81.036514 162.505147 
L 73.167025 162.620866 
L 63.848546 161.976396 
L 53.398161 160.58066 
L 52.431082 162.106197 
L 64.64603 163.737605 
L 75.537947 164.490896 
L 84.736211 164.355637 
L 86.547009 163.904874 
L 87.974112 160.647415 
L 92.570557 148.983374 
L 94.702203 128.247257 
L 84.298682 111.836017 
z
" clip-path="url(#pdb9ea39602)" style="fill: #472a7a; fill-opacity: 0.7"/>
    <path d="M 84.298682 111.836017 
L 94.702203 128.247257 
L 92.570557 148.983374 
L 87.974112 160.647415 
L 86.547009 163.904874 
L 84.736211 164.355637 
L 75.537947 164.490896 
L 64.64603 163.737605 
L 52.431082 162.106197 
L 51.464004 163.631735 
L 65.443514 165.498815 
L 77.908869 166.360925 
L 88.435908 166.206127 
L 90.508292 165.690247 
L 92.141554 161.962217 
L 96.62589 150.582666 
L 98.705545 130.352308 
L 85.63313 109.730966 
z
" clip-path="url(#pdb9ea39602)" style="fill: #46327e; fill-opacity: 0.7"/>
    <path d="M 85.63313 109.730966 
L 98.705545 130.352308 
L 96.62589 150.582666 
L 92.141554 161.962217 
L 90.508292 165.690247 
L 88.435908 166.206127 
L 77.908869 166.360925 
L 65.443514 165.498815 
L 51.464004 163.631735 
L 50.496925 165.157272 
L 66.240998 167.260025 
L 80.279792 168.230955 
L 92.135605 168.056617 
L 94.469576 167.47562 
L 96.308996 163.27702 
L 100.681224 152.181957 
L 102.708887 132.457359 
L 86.967577 107.625915 
z
" clip-path="url(#pdb9ea39602)" style="fill: #453882; fill-opacity: 0.7"/>
    <path d="M 86.967577 107.625915 
L 102.708887 132.457359 
L 100.681224 152.181957 
L 96.308996 163.27702 
L 94.469576 167.47562 
L 92.135605 168.056617 
L 80.279792 168.230955 
L 66.240998 167.260025 
L 50.496925 165.157272 
L 49.529846 166.68281 
L 67.038482 169.021234 
L 82.650714 170.100984 
L 95.835302 169.907107 
L 98.430859 169.260993 
L 100.476438 164.591823 
L 104.736557 153.781249 
L 106.712229 134.562409 
L 88.302024 105.520865 
z
" clip-path="url(#pdb9ea39602)" style="fill: #423f85; fill-opacity: 0.7"/>
    <path d="M 88.302024 105.520865 
L 106.712229 134.562409 
L 104.736557 153.781249 
L 100.476438 164.591823 
L 98.430859 169.260993 
L 95.835302 169.907107 
L 82.650714 170.100984 
L 67.038482 169.021234 
L 49.529846 166.68281 
L 48.562768 168.208347 
L 67.835965 170.782444 
L 85.021636 171.971013 
L 99.534998 171.757597 
L 102.392143 171.046366 
L 104.64388 165.906626 
L 108.791891 155.38054 
L 110.715571 136.66746 
L 89.636472 103.415814 
z
" clip-path="url(#pdb9ea39602)" style="fill: #404588; fill-opacity: 0.7"/>
    <path d="M 89.636472 103.415814 
L 110.715571 136.66746 
L 108.791891 155.38054 
L 104.64388 165.906626 
L 102.392143 171.046366 
L 99.534998 171.757597 
L 85.021636 171.971013 
L 67.835965 170.782444 
L 48.562768 168.208347 
L 47.595689 169.733885 
L 68.633449 172.543653 
L 87.392559 173.841043 
L 103.234695 173.608087 
L 106.353426 172.831739 
L 108.811321 167.221429 
L 112.847224 156.979832 
L 114.718913 138.77251 
L 90.970919 101.310764 
z
" clip-path="url(#pdb9ea39602)" style="fill: #3e4c8a; fill-opacity: 0.7"/>
    <path d="M 46.756701 171.057363 
L 49.282986 171.613936 
L 69.430933 174.304863 
L 89.763481 175.711072 
L 106.934392 175.458577 
L 110.31471 174.617112 
L 112.978763 168.536232 
L 116.902557 158.579124 
L 118.722255 140.877561 
L 92.305366 99.205713 
L 90.970919 101.310764 
L 114.718913 138.77251 
L 112.847224 156.979832 
L 108.811321 167.221429 
L 106.353426 172.831739 
L 103.234695 173.608087 
L 87.392559 173.841043 
L 68.633449 172.543653 
L 47.595689 169.733885 
L 47.377692 170.077769 
z
" clip-path="url(#pdb9ea39602)" style="fill: #3b528b; fill-opacity: 0.7"/>
    <path d="M 45.95499 172.322038 
L 51.742759 173.597159 
L 70.228417 176.066072 
L 92.134403 177.581101 
L 110.634089 177.309067 
L 114.275993 176.402485 
L 117.146205 169.851034 
L 120.957891 160.178415 
L 122.725597 142.982611 
L 93.639814 97.100663 
L 92.305366 99.205713 
L 118.722255 140.877561 
L 116.902557 158.579124 
L 112.978763 168.536232 
L 110.31471 174.617112 
L 106.934392 175.458577 
L 89.763481 175.711072 
L 69.430933 174.304863 
L 49.282986 171.613936 
L 46.756701 171.057363 
z
" clip-path="url(#pdb9ea39602)" style="fill: #38588c; fill-opacity: 0.7"/>
    <path d="M 45.153279 173.586713 
L 54.202531 175.580381 
L 71.025901 177.827282 
L 94.505326 179.451131 
L 114.333786 179.159557 
L 118.237277 178.187858 
L 121.313647 171.165837 
L 125.013224 161.777707 
L 126.728939 145.087662 
L 94.974261 94.995612 
L 93.639814 97.100663 
L 122.725597 142.982611 
L 120.957891 160.178415 
L 117.146205 169.851034 
L 114.275993 176.402485 
L 110.634089 177.309067 
L 92.134403 177.581101 
L 70.228417 176.066072 
L 51.742759 173.597159 
L 45.95499 172.322038 
z
" clip-path="url(#pdb9ea39602)" style="fill: #355e8d; fill-opacity: 0.7"/>
    <path d="M 44.351568 174.851387 
L 56.662304 177.563603 
L 71.823385 179.588491 
L 96.876248 181.32116 
L 118.033483 181.010047 
L 122.19856 179.973231 
L 125.481089 172.48064 
L 129.068558 163.376999 
L 130.732281 147.192713 
L 96.308708 92.890562 
L 94.974261 94.995612 
L 126.728939 145.087662 
L 125.013224 161.777707 
L 121.313647 171.165837 
L 118.237277 178.187858 
L 114.333786 179.159557 
L 94.505326 179.451131 
L 71.025901 177.827282 
L 54.202531 175.580381 
L 45.153279 173.586713 
z
" clip-path="url(#pdb9ea39602)" style="fill: #33638d; fill-opacity: 0.7"/>
    <path d="M 43.549858 176.116062 
L 59.122076 179.546825 
L 72.620869 181.349701 
L 99.24717 183.191189 
L 121.73318 182.860537 
L 126.159844 181.758604 
L 129.648531 173.795443 
L 133.123891 164.97629 
L 134.735623 149.297763 
L 97.643156 90.785511 
L 96.308708 92.890562 
L 130.732281 147.192713 
L 129.068558 163.376999 
L 125.481089 172.48064 
L 122.19856 179.973231 
L 118.033483 181.010047 
L 96.876248 181.32116 
L 71.823385 179.588491 
L 56.662304 177.563603 
L 44.351568 174.851387 
z
" clip-path="url(#pdb9ea39602)" style="fill: #30698e; fill-opacity: 0.7"/>
    <path d="M 42.748147 177.380737 
L 61.581849 181.530047 
L 73.418353 183.110911 
L 101.618093 185.061219 
L 125.432877 184.711026 
L 130.121127 183.543977 
L 133.815972 175.110246 
L 137.179224 166.575582 
L 138.738965 151.402814 
L 98.977603 88.68046 
L 97.643156 90.785511 
L 134.735623 149.297763 
L 133.123891 164.97629 
L 129.648531 173.795443 
L 126.159844 181.758604 
L 121.73318 182.860537 
L 99.24717 183.191189 
L 72.620869 181.349701 
L 59.122076 179.546825 
L 43.549858 176.116062 
z
" clip-path="url(#pdb9ea39602)" style="fill: #2e6e8e; fill-opacity: 0.7"/>
    <path d="M 41.946436 178.645412 
L 64.041621 183.513269 
L 74.215836 184.87212 
L 103.989015 186.931248 
L 129.132574 186.561516 
L 134.082411 185.32935 
L 137.983414 176.425049 
L 141.234558 168.174873 
L 142.742307 153.507864 
L 100.31205 86.57541 
L 98.977603 88.68046 
L 138.738965 151.402814 
L 137.179224 166.575582 
L 133.815972 175.110246 
L 130.121127 183.543977 
L 125.432877 184.711026 
L 101.618093 185.061219 
L 73.418353 183.110911 
L 61.581849 181.530047 
L 42.748147 177.380737 
z
" clip-path="url(#pdb9ea39602)" style="fill: #2c738e; fill-opacity: 0.7"/>
    <path d="M 41.144725 179.910087 
L 66.501393 185.496491 
L 75.01332 186.63333 
L 106.359937 188.801277 
L 132.832271 188.412006 
L 138.043694 187.114723 
L 142.150856 177.739851 
L 145.289891 169.774165 
L 146.745649 155.612915 
L 101.646498 84.470359 
L 100.31205 86.57541 
L 142.742307 153.507864 
L 141.234558 168.174873 
L 137.983414 176.425049 
L 134.082411 185.32935 
L 129.132574 186.561516 
L 103.989015 186.931248 
L 74.215836 184.87212 
L 64.041621 183.513269 
L 41.946436 178.645412 
z
" clip-path="url(#pdb9ea39602)" style="fill: #2a788e; fill-opacity: 0.7"/>
    <path d="M 40.343014 181.174761 
L 68.961166 187.479713 
L 75.810804 188.394539 
L 108.73086 190.671307 
L 136.531968 190.262496 
L 142.004978 188.900096 
L 146.318298 179.054654 
L 149.345225 171.373457 
L 150.748992 157.717965 
L 102.980945 82.365309 
L 101.646498 84.470359 
L 146.745649 155.612915 
L 145.289891 169.774165 
L 142.150856 177.739851 
L 138.043694 187.114723 
L 132.832271 188.412006 
L 106.359937 188.801277 
L 75.01332 186.63333 
L 66.501393 185.496491 
L 41.144725 179.910087 
z
" clip-path="url(#pdb9ea39602)" style="fill: #277e8e; fill-opacity: 0.7"/>
    <path d="M 39.541303 182.439436 
L 71.420938 189.462935 
L 76.608288 190.155749 
L 111.101782 192.541336 
L 140.231664 192.112986 
L 145.966261 190.685469 
L 150.48574 180.369457 
L 153.400558 172.972748 
L 154.752334 159.823016 
L 104.315393 80.260258 
L 102.980945 82.365309 
L 150.748992 157.717965 
L 149.345225 171.373457 
L 146.318298 179.054654 
L 142.004978 188.900096 
L 136.531968 190.262496 
L 108.73086 190.671307 
L 75.810804 188.394539 
L 68.961166 187.479713 
L 40.343014 181.174761 
z
" clip-path="url(#pdb9ea39602)" style="fill: #25838e; fill-opacity: 0.7"/>
    <path d="M 38.739592 183.704111 
L 73.880711 191.446157 
L 77.405772 191.916958 
L 113.472704 194.411365 
L 143.931361 193.963476 
L 149.927545 192.470842 
L 154.653181 181.68426 
L 157.455892 174.57204 
L 158.755676 161.928067 
L 105.64984 78.155208 
L 104.315393 80.260258 
L 154.752334 159.823016 
L 153.400558 172.972748 
L 150.48574 180.369457 
L 145.966261 190.685469 
L 140.231664 192.112986 
L 111.101782 192.541336 
L 76.608288 190.155749 
L 71.420938 189.462935 
L 39.541303 182.439436 
z
" clip-path="url(#pdb9ea39602)" style="fill: #23888e; fill-opacity: 0.7"/>
    <path d="M 37.937881 184.968786 
L 76.340483 193.429379 
L 78.203256 193.678168 
L 115.843627 196.281395 
L 147.631058 195.813966 
L 153.888828 194.256215 
L 158.820623 182.999063 
L 161.511225 176.171332 
L 162.759018 164.033117 
L 106.984287 76.050157 
L 105.64984 78.155208 
L 158.755676 161.928067 
L 157.455892 174.57204 
L 154.653181 181.68426 
L 149.927545 192.470842 
L 143.931361 193.963476 
L 113.472704 194.411365 
L 77.405772 191.916958 
L 73.880711 191.446157 
L 38.739592 183.704111 
z
" clip-path="url(#pdb9ea39602)" style="fill: #218e8d; fill-opacity: 0.7"/>
    <path d="M 37.13617 186.233461 
L 78.800256 195.412601 
L 79.00074 195.439377 
L 118.214549 198.151424 
L 151.330755 197.664456 
L 157.850112 196.041588 
L 162.988065 184.313866 
L 165.566558 177.770623 
L 166.76236 166.138168 
L 108.318735 73.945106 
L 106.984287 76.050157 
L 162.759018 164.033117 
L 161.511225 176.171332 
L 158.820623 182.999063 
L 153.888828 194.256215 
L 147.631058 195.813966 
L 115.843627 196.281395 
L 78.203256 193.678168 
L 76.340483 193.429379 
L 37.937881 184.968786 
z
" clip-path="url(#pdb9ea39602)" style="fill: #20928c; fill-opacity: 0.7"/>
    <path d="M 36.33446 187.498136 
L 38.232688 187.91634 
L 76.794062 196.37833 
L 80.692324 197.161811 
L 85.187416 197.573306 
L 120.585471 200.021453 
L 155.030452 199.514946 
L 161.811395 197.826961 
L 167.155507 185.628668 
L 169.621892 179.369915 
L 170.765702 168.243218 
L 109.653182 71.840056 
L 108.318735 73.945106 
L 166.76236 166.138168 
L 165.566558 177.770623 
L 162.988065 184.313866 
L 157.850112 196.041588 
L 151.330755 197.664456 
L 118.214549 198.151424 
L 79.00074 195.439377 
L 78.800256 195.412601 
L 37.13617 186.233461 
z
" clip-path="url(#pdb9ea39602)" style="fill: #1f988b; fill-opacity: 0.7"/>
    <path d="M 35.553961 188.729348 
L 74.17537 197.204512 
L 82.506532 198.878926 
L 92.113211 199.758353 
L 122.956394 201.891483 
L 158.730149 201.365436 
L 165.772679 199.612334 
L 171.322949 186.943471 
L 173.677225 180.969207 
L 174.769044 170.348269 
L 110.987629 69.735005 
L 109.653182 71.840056 
L 170.765702 168.243218 
L 169.621892 179.369915 
L 167.155507 185.628668 
L 161.811395 197.826961 
L 155.030452 199.514946 
L 120.585471 200.021453 
L 85.187416 197.573306 
L 80.692324 197.161811 
L 76.794062 196.37833 
L 38.232688 187.91634 
L 36.33446 187.498136 
L 36.301135 187.550704 
z
" clip-path="url(#pdb9ea39602)" style="fill: #1e9d89; fill-opacity: 0.7"/>
    <path d="M 34.774383 189.959109 
L 71.556677 198.030694 
L 84.32074 200.596041 
L 99.039006 201.943399 
L 125.327316 203.761512 
L 162.429846 203.215926 
L 169.733962 201.397707 
L 175.490391 188.258274 
L 177.732559 182.568498 
L 178.772386 172.453319 
L 112.322077 67.629955 
L 110.987629 69.735005 
L 174.769044 170.348269 
L 173.677225 180.969207 
L 171.322949 186.943471 
L 165.772679 199.612334 
L 158.730149 201.365436 
L 122.956394 201.891483 
L 92.113211 199.758353 
L 82.506532 198.878926 
L 74.17537 197.204512 
L 35.553961 188.729348 
z
" clip-path="url(#pdb9ea39602)" style="fill: #1fa287; fill-opacity: 0.7"/>
    <path d="M 33.994805 191.18887 
L 68.937984 198.856876 
L 86.134948 202.313157 
L 105.9648 204.128446 
L 127.698238 205.631542 
L 166.129543 205.066416 
L 173.695246 203.18308 
L 179.657832 189.573077 
L 181.787892 184.16779 
L 182.775728 174.55837 
L 113.656524 65.524904 
L 112.322077 67.629955 
L 178.772386 172.453319 
L 177.732559 182.568498 
L 175.490391 188.258274 
L 169.733962 201.397707 
L 162.429846 203.215926 
L 125.327316 203.761512 
L 99.039006 201.943399 
L 84.32074 200.596041 
L 71.556677 198.030694 
L 34.774383 189.959109 
z
" clip-path="url(#pdb9ea39602)" style="fill: #22a884; fill-opacity: 0.7"/>
    <path d="M 33.215227 192.418631 
L 66.319291 199.683058 
L 87.949156 204.030272 
L 112.890595 206.313493 
L 130.069161 207.501571 
L 169.82924 206.916906 
L 177.656529 204.968453 
L 183.825274 190.88788 
L 185.843225 185.767081 
L 186.77907 176.663421 
L 114.990971 63.419854 
L 113.656524 65.524904 
L 182.775728 174.55837 
L 181.787892 184.16779 
L 179.657832 189.573077 
L 173.695246 203.18308 
L 166.129543 205.066416 
L 127.698238 205.631542 
L 105.9648 204.128446 
L 86.134948 202.313157 
L 68.937984 198.856876 
L 33.994805 191.18887 
z
" clip-path="url(#pdb9ea39602)" style="fill: #26ad81; fill-opacity: 0.7"/>
    <path d="M 32.435649 193.648392 
L 63.700598 200.509239 
L 89.763364 205.747387 
L 119.81639 208.498539 
L 132.440083 209.3716 
L 173.528937 208.767396 
L 181.617813 206.753826 
L 187.992716 192.202683 
L 189.898559 187.366373 
L 190.782412 178.768471 
L 116.325419 61.314803 
L 114.990971 63.419854 
L 186.77907 176.663421 
L 185.843225 185.767081 
L 183.825274 190.88788 
L 177.656529 204.968453 
L 169.82924 206.916906 
L 130.069161 207.501571 
L 112.890595 206.313493 
L 87.949156 204.030272 
L 66.319291 199.683058 
L 33.215227 192.418631 
z
" clip-path="url(#pdb9ea39602)" style="fill: #2db27d; fill-opacity: 0.7"/>
    <path d="M 31.656071 194.878153 
L 61.081905 201.335421 
L 91.577572 207.464502 
L 126.742185 210.683586 
L 134.811006 211.24163 
L 177.228634 210.617886 
L 185.579096 208.539199 
L 192.160158 193.517485 
L 193.953892 188.965665 
L 194.785754 180.873522 
L 117.659866 59.209752 
L 116.325419 61.314803 
L 190.782412 178.768471 
L 189.898559 187.366373 
L 187.992716 192.202683 
L 181.617813 206.753826 
L 173.528937 208.767396 
L 132.440083 209.3716 
L 119.81639 208.498539 
L 89.763364 205.747387 
L 63.700598 200.509239 
L 32.435649 193.648392 
z
" clip-path="url(#pdb9ea39602)" style="fill: #34b679; fill-opacity: 0.7"/>
    <path d="M 30.876493 196.107914 
L 58.463213 202.161603 
L 93.391781 209.181618 
L 133.66798 212.868633 
L 137.181928 213.111659 
L 180.92833 212.468376 
L 189.54038 210.324573 
L 196.3276 194.832288 
L 198.009226 190.564956 
L 198.789096 182.978572 
L 118.994313 57.104702 
L 117.659866 59.209752 
L 194.785754 180.873522 
L 193.953892 188.965665 
L 192.160158 193.517485 
L 185.579096 208.539199 
L 177.228634 210.617886 
L 134.811006 211.24163 
L 126.742185 210.683586 
L 91.577572 207.464502 
L 61.081905 201.335421 
L 31.656071 194.878153 
z
" clip-path="url(#pdb9ea39602)" style="fill: #3dbc74; fill-opacity: 0.7"/>
    <path d="M 30.096914 197.337675 
L 55.84452 202.987785 
L 95.205989 210.898733 
L 135.138994 214.554331 
L 139.011024 214.554331 
L 168.615255 214.554331 
L 184.628027 214.318866 
L 193.501663 212.109946 
L 200.495041 196.147091 
L 202.064559 192.164248 
L 202.792438 185.083623 
L 120.328761 54.999651 
L 118.994313 57.104702 
L 198.789096 182.978572 
L 198.009226 190.564956 
L 196.3276 194.832288 
L 189.54038 210.324573 
L 180.92833 212.468376 
L 137.181928 213.111659 
L 133.66798 212.868633 
L 93.391781 209.181618 
L 58.463213 202.161603 
L 30.876493 196.107914 
z
" clip-path="url(#pdb9ea39602)" style="fill: #46c06f; fill-opacity: 0.7"/>
    <path d="M 29.317336 198.567437 
L 53.225827 203.813967 
L 97.020197 212.615848 
L 118.195784 214.554331 
L 135.138994 214.554331 
L 95.205989 210.898733 
L 55.84452 202.987785 
L 30.096914 197.337675 
z
M 194.815575 214.554331 
L 197.462947 213.895319 
L 204.662483 197.461894 
L 206.119893 193.76354 
L 206.79578 187.188673 
L 121.663208 52.894601 
L 120.328761 54.999651 
L 202.792438 185.083623 
L 202.064559 192.164248 
L 200.495041 196.147091 
L 193.501663 212.109946 
L 184.628027 214.318866 
L 168.615255 214.554331 
L 185.098794 214.554331 
z
" clip-path="url(#pdb9ea39602)" style="fill: #52c569; fill-opacity: 0.7"/>
    <path d="M 28.537758 199.797198 
L 50.607134 204.640149 
L 98.834405 214.332964 
L 101.252574 214.554331 
L 118.195784 214.554331 
L 97.020197 212.615848 
L 53.225827 203.813967 
L 29.317336 198.567437 
z
M 201.917693 214.554331 
L 208.829925 198.776697 
L 210.175226 195.362831 
L 210.799122 189.293724 
L 122.997655 50.78955 
L 121.663208 52.894601 
L 206.79578 187.188673 
L 206.119893 193.76354 
L 204.662483 197.461894 
L 197.462947 213.895319 
L 194.815575 214.554331 
L 198.925125 214.554331 
z
" clip-path="url(#pdb9ea39602)" style="fill: #5ec962; fill-opacity: 0.7"/>
    <path d="M 27.75818 201.026959 
L 47.988441 205.466331 
L 93.206415 214.554331 
L 99.068289 214.554331 
L 101.252574 214.554331 
L 98.834405 214.332964 
L 50.607134 204.640149 
L 28.537758 199.797198 
z
M 206.661154 214.554331 
L 212.997367 200.0915 
L 214.230559 196.962123 
L 214.802464 191.398774 
L 124.332103 48.6845 
L 122.997655 50.78955 
L 210.799122 189.293724 
L 210.175226 195.362831 
L 208.829925 198.776697 
L 201.917693 214.554331 
z
" clip-path="url(#pdb9ea39602)" style="fill: #69cd5b; fill-opacity: 0.7"/>
    <path d="M 26.978602 202.25672 
L 45.369749 206.292512 
L 86.476997 214.554331 
L 93.206415 214.554331 
L 47.988441 205.466331 
L 27.75818 201.026959 
z
M 211.404615 214.554331 
L 217.164809 201.406302 
L 218.285893 198.561414 
L 218.805806 193.503825 
L 125.66655 46.579449 
L 124.332103 48.6845 
L 214.802464 191.398774 
L 214.230559 196.962123 
L 212.997367 200.0915 
L 206.661154 214.554331 
z
" clip-path="url(#pdb9ea39602)" style="fill: #77d153; fill-opacity: 0.7"/>
    <path d="M 26.199024 203.486481 
L 42.751056 207.118694 
L 79.747579 214.554331 
L 86.476997 214.554331 
L 45.369749 206.292512 
L 26.978602 202.25672 
z
M 216.148076 214.554331 
L 221.332251 202.721105 
L 222.341226 200.160706 
L 222.809148 195.608876 
L 127.000997 44.474398 
L 125.66655 46.579449 
L 218.805806 193.503825 
L 218.285893 198.561414 
L 217.164809 201.406302 
L 211.404615 214.554331 
z
" clip-path="url(#pdb9ea39602)" style="fill: #84d44b; fill-opacity: 0.7"/>
    <path d="M 25.419446 204.716242 
L 40.132363 207.944876 
L 73.018162 214.554331 
L 79.747579 214.554331 
L 42.751056 207.118694 
L 26.199024 203.486481 
z
M 220.891537 214.554331 
L 225.499692 204.035908 
L 226.39656 201.759998 
L 226.812491 197.713926 
L 128.335445 42.369348 
L 127.000997 44.474398 
L 222.809148 195.608876 
L 222.341226 200.160706 
L 221.332251 202.721105 
L 216.148076 214.554331 
z
" clip-path="url(#pdb9ea39602)" style="fill: #93d741; fill-opacity: 0.7"/>
    <path d="M 24.639867 205.946003 
L 37.51367 208.771058 
L 66.288744 214.554331 
L 73.018162 214.554331 
L 40.132363 207.944876 
L 25.419446 204.716242 
z
M 225.634999 214.554331 
L 229.667134 205.350711 
L 230.451893 203.359289 
L 230.815833 199.818977 
L 129.669892 40.264297 
L 128.335445 42.369348 
L 226.812491 197.713926 
L 226.39656 201.759998 
L 225.499692 204.035908 
L 220.891537 214.554331 
z
" clip-path="url(#pdb9ea39602)" style="fill: #a0da39; fill-opacity: 0.7"/>
    <path d="M 23.860289 207.175764 
L 34.894977 209.59724 
L 59.559326 214.554331 
L 66.288744 214.554331 
L 37.51367 208.771058 
L 24.639867 205.946003 
z
M 230.37846 214.554331 
L 233.834576 206.665514 
L 234.507226 204.958581 
L 234.819175 201.924027 
L 131.00434 38.159247 
L 129.669892 40.264297 
L 230.815833 199.818977 
L 230.451893 203.359289 
L 229.667134 205.350711 
L 225.634999 214.554331 
z
" clip-path="url(#pdb9ea39602)" style="fill: #b0dd2f; fill-opacity: 0.7"/>
    <path d="M 23.080711 208.405525 
L 32.276284 210.423422 
L 52.829909 214.554331 
L 59.559326 214.554331 
L 34.894977 209.59724 
L 23.860289 207.175764 
z
M 235.121921 214.554331 
L 238.002018 207.980317 
L 238.56256 206.557873 
L 238.822517 204.029078 
L 132.338787 36.054196 
L 131.00434 38.159247 
L 234.819175 201.924027 
L 234.507226 204.958581 
L 233.834576 206.665514 
L 230.37846 214.554331 
z
" clip-path="url(#pdb9ea39602)" style="fill: #bddf26; fill-opacity: 0.7"/>
    <path d="M 22.301133 209.635286 
L 29.657592 211.249603 
L 46.100491 214.554331 
L 52.829909 214.554331 
L 32.276284 210.423422 
L 23.080711 208.405525 
z
M 239.865382 214.554331 
L 242.16946 209.295119 
L 242.617893 208.157164 
L 242.825859 206.134128 
L 133.673234 33.949146 
L 132.338787 36.054196 
L 238.822517 204.029078 
L 238.56256 206.557873 
L 238.002018 207.980317 
L 235.121921 214.554331 
z
" clip-path="url(#pdb9ea39602)" style="fill: #cde11d; fill-opacity: 0.7"/>
    <path d="M 21.521555 210.865047 
L 27.038899 212.075785 
L 39.371073 214.554331 
L 46.100491 214.554331 
L 29.657592 211.249603 
L 22.301133 209.635286 
z
M 244.608843 214.554331 
L 246.336901 210.609922 
L 246.673227 209.756456 
L 246.829201 208.239179 
L 135.007682 31.844095 
L 133.673234 33.949146 
L 242.825859 206.134128 
L 242.617893 208.157164 
L 242.16946 209.295119 
L 239.865382 214.554331 
z
" clip-path="url(#pdb9ea39602)" style="fill: #dde318; fill-opacity: 0.7"/>
    <path d="M 20.741977 212.094809 
L 24.420206 212.901967 
L 32.641656 214.554331 
L 39.371073 214.554331 
L 27.038899 212.075785 
L 21.521555 210.865047 
z
M 249.352305 214.554331 
L 250.504343 211.924725 
L 250.72856 211.355747 
L 250.832543 210.34423 
L 136.342129 29.739044 
L 135.007682 31.844095 
L 246.829201 208.239179 
L 246.673227 209.756456 
L 246.336901 210.609922 
L 244.608843 214.554331 
z
" clip-path="url(#pdb9ea39602)" style="fill: #eae51a; fill-opacity: 0.7"/>
    <path d="M 19.962398 213.32457 
L 21.801513 213.728149 
L 25.912238 214.554331 
L 32.641656 214.554331 
L 24.420206 212.901967 
L 20.741977 212.094809 
z
M 254.095766 214.554331 
L 254.671785 213.239528 
L 254.783893 212.955039 
L 254.835885 212.44928 
L 137.676576 27.633994 
L 136.342129 29.739044 
L 250.832543 210.34423 
L 250.72856 211.355747 
L 250.504343 211.924725 
L 249.352305 214.554331 
z
" clip-path="url(#pdb9ea39602)" style="fill: #f8e621; fill-opacity: 0.7"/>
    <path d="M 25.912238 214.554331 
L 21.801513 213.728149 
L 19.962398 213.32457 
L 19.18282 214.554331 
z
M 137.676576 27.633994 
L 254.835885 212.44928 
L 254.783893 212.955039 
L 254.671785 213.239528 
L 254.095766 214.554331 
L 258.839227 214.554331 
L 139.011024 25.528943 
z
" clip-path="url(#pdb9ea39602)" style="fill: #fde725; fill-opacity: 0.7"/>
   </g>
   <g id="matplotlib.axis_1"/>
   <g id="matplotlib.axis_2"/>
   <g id="line2d_1">
    <path d="M 36.301135 187.550704 
L 47.377692 170.077769 
" clip-path="url(#pdb9ea39602)" style="fill: none; stroke: #555555; stroke-opacity: 0.9; stroke-width: 0.5; stroke-linecap: square"/>
   </g>
   <g id="line2d_2">
    <path d="M 36.301135 187.550704 
L 79.096922 195.651792 
" clip-path="url(#pdb9ea39602)" style="fill: none; stroke: #555555; stroke-opacity: 0.9; stroke-width: 0.5; stroke-linecap: square"/>
   </g>
   <g id="line2d_3">
    <path d="M 36.301135 187.550704 
L 19.18282 214.554331 
" clip-path="url(#pdb9ea39602)" style="fill: none; stroke: #555555; stroke-opacity: 0.9; stroke-width: 0.5; stroke-linecap: square"/>
   </g>
   <g id="line2d_4">
    <path d="M 99.068289 214.554331 
L 79.096922 195.651792 
" clip-path="url(#pdb9ea39602)" style="fill: none; stroke: #555555; stroke-opacity: 0.9; stroke-width: 0.5; stroke-linecap: square"/>
   </g>
   <g id="line2d_5">
    <path d="M 59.125555 151.545868 
L 258.839227 214.554331 
" clip-path="url(#pdb9ea39602)" style="fill: none; stroke: #555555; stroke-opacity: 0.9; stroke-width: 0.5; stroke-linecap: square"/>
   </g>
   <g id="line2d_6">
    <path d="M 99.068289 214.554331 
L 19.18282 214.554331 
" clip-path="url(#pdb9ea39602)" style="fill: none; stroke: #555555; stroke-opacity: 0.9; stroke-width: 0.5; stroke-linecap: square"/>
   </g>
   <g id="line2d_7">
    <path d="M 139.011024 25.528943 
L 258.839227 214.554331 
" clip-path="url(#pdb9ea39602)" style="fill: none; stroke: #555555; stroke-opacity: 0.9; stroke-width: 0.5; stroke-linecap: square"/>
   </g>
   <g id="line2d_8">
    <path d="M 79.096922 120.041637 
L 139.011024 25.528943 
" clip-path="url(#pdb9ea39602)" style="fill: none; stroke: #555555; stroke-opacity: 0.9; stroke-width: 0.5; stroke-linecap: square"/>
   </g>
   <g id="line2d_9">
    <path d="M 79.096922 120.041637 
L 67.114102 138.944176 
" clip-path="url(#pdb9ea39602)" style="fill: none; stroke: #555555; stroke-opacity: 0.9; stroke-width: 0.5; stroke-linecap: square"/>
   </g>
   <g id="line2d_10">
    <path d="M 198.925125 214.554331 
L 59.125555 151.545868 
" clip-path="url(#pdb9ea39602)" style="fill: none; stroke: #555555; stroke-opacity: 0.9; stroke-width: 0.5; stroke-linecap: square"/>
   </g>
   <g id="line2d_11">
    <path d="M 139.011024 214.554331 
L 99.068289 214.554331 
" clip-path="url(#pdb9ea39602)" style="fill: none; stroke: #555555; stroke-opacity: 0.9; stroke-width: 0.5; stroke-linecap: square"/>
   </g>
   <g id="line2d_12">
    <path d="M 198.925125 214.554331 
L 185.098794 214.554331 
" clip-path="url(#pdb9ea39602)" style="fill: none; stroke: #555555; stroke-opacity: 0.9; stroke-width: 0.5; stroke-linecap: square"/>
   </g>
   <g id="line2d_13">
    <path d="M 79.096922 195.651792 
L 47.377692 170.077769 
" clip-path="url(#pdb9ea39602)" style="fill: none; stroke: #555555; stroke-opacity: 0.9; stroke-width: 0.5; stroke-linecap: square"/>
   </g>
   <g id="line2d_14">
    <path d="M 79.096922 195.651792 
L 19.18282 214.554331 
" clip-path="url(#pdb9ea39602)" style="fill: none; stroke: #555555; stroke-opacity: 0.9; stroke-width: 0.5; stroke-linecap: square"/>
   </g>
   <g id="line2d_15">
    <path d="M 67.114102 138.944176 
L 258.839227 214.554331 
" clip-path="url(#pdb9ea39602)" style="fill: none; stroke: #555555; stroke-opacity: 0.9; stroke-width: 0.5; stroke-linecap: square"/>
   </g>
   <g id="line2d_16">
    <path d="M 59.125555 151.545868 
L 67.114102 138.944176 
" clip-path="url(#pdb9ea39602)" style="fill: none; stroke: #555555; stroke-opacity: 0.9; stroke-width: 0.5; stroke-linecap: square"/>
   </g>
   <g id="line2d_17">
    <path d="M 59.125555 151.545868 
L 185.098794 214.554331 
" clip-path="url(#pdb9ea39602)" style="fill: none; stroke: #555555; stroke-opacity: 0.9; stroke-width: 0.5; stroke-linecap: square"/>
   </g>
   <g id="line2d_18">
    <path d="M 59.125555 151.545868 
L 47.377692 170.077769 
" clip-path="url(#pdb9ea39602)" style="fill: none; stroke: #555555; stroke-opacity: 0.9; stroke-width: 0.5; stroke-linecap: square"/>
   </g>
   <g id="line2d_19">
    <path d="M 59.125555 151.545868 
L 79.096922 195.651792 
" clip-path="url(#pdb9ea39602)" style="fill: none; stroke: #555555; stroke-opacity: 0.9; stroke-width: 0.5; stroke-linecap: square"/>
   </g>
   <g id="line2d_20">
    <path d="M 139.011024 214.554331 
L 59.125555 151.545868 
" clip-path="url(#pdb9ea39602)" style="fill: none; stroke: #555555; stroke-opacity: 0.9; stroke-width: 0.5; stroke-linecap: square"/>
   </g>
   <g id="line2d_21">
    <path d="M 139.011024 214.554331 
L 79.096922 195.651792 
" clip-path="url(#pdb9ea39602)" style="fill: none; stroke: #555555; stroke-opacity: 0.9; stroke-width: 0.5; stroke-linecap: square"/>
   </g>
   <g id="line2d_22">
    <path d="M 198.925125 214.554331 
L 258.839227 214.554331 
" clip-path="url(#pdb9ea39602)" style="fill: none; stroke: #555555; stroke-opacity: 0.9; stroke-width: 0.5; stroke-linecap: square"/>
   </g>
   <g id="line2d_23">
    <path d="M 139.011024 214.554331 
L 185.098794 214.554331 
" clip-path="url(#pdb9ea39602)" style="fill: none; stroke: #555555; stroke-opacity: 0.9; stroke-width: 0.5; stroke-linecap: square"/>
   </g>
   <g id="line2d_24">
    <path d="M 79.096922 120.041637 
L 258.839227 214.554331 
" clip-path="url(#pdb9ea39602)" style="fill: none; stroke: #555555; stroke-opacity: 0.9; stroke-width: 0.5; stroke-linecap: square"/>
   </g>
   <g id="PathCollection_1">
    <defs>
     <path id="m19263f296a" d="M 0 2.738613 
C 0.726289 2.738613 1.422928 2.450055 1.936492 1.936492 
C 2.450055 1.422928 2.738613 0.726289 2.738613 0 
C 2.738613 -0.726289 2.450055 -1.422928 1.936492 -1.936492 
C 1.422928 -2.450055 0.726289 -2.738613 0 -2.738613 
C -0.726289 -2.738613 -1.422928 -2.450055 -1.936492 -1.936492 
C -2.450055 -1.422928 -2.738613 -0.726289 -2.738613 0 
C -2.738613 0.726289 -2.450055 1.422928 -1.936492 1.936492 
C -1.422928 2.450055 -0.726289 2.738613 0 2.738613 
z
" style="stroke: #008000"/>
    </defs>
    <g clip-path="url(#pdb9ea39602)">
     <use xlink:href="#m19263f296a" x="36.301135" y="187.550704" style="fill: #008000; stroke: #008000"/>
     <use xlink:href="#m19263f296a" x="47.377692" y="170.077769" style="fill: #008000; stroke: #008000"/>
     <use xlink:href="#m19263f296a" x="79.096922" y="195.651792" style="fill: #008000; stroke: #008000"/>
     <use xlink:href="#m19263f296a" x="19.18282" y="214.554331" style="fill: #008000; stroke: #008000"/>
     <use xlink:href="#m19263f296a" x="99.068289" y="214.554331" style="fill: #008000; stroke: #008000"/>
     <use xlink:href="#m19263f296a" x="59.125555" y="151.545868" style="fill: #008000; stroke: #008000"/>
     <use xlink:href="#m19263f296a" x="258.839227" y="214.554331" style="fill: #008000; stroke: #008000"/>
     <use xlink:href="#m19263f296a" x="139.011024" y="25.528943" style="fill: #008000; stroke: #008000"/>
     <use xlink:href="#m19263f296a" x="79.096922" y="120.041637" style="fill: #008000; stroke: #008000"/>
     <use xlink:href="#m19263f296a" x="67.114102" y="138.944176" style="fill: #008000; stroke: #008000"/>
     <use xlink:href="#m19263f296a" x="198.925125" y="214.554331" style="fill: #008000; stroke: #008000"/>
     <use xlink:href="#m19263f296a" x="139.011024" y="214.554331" style="fill: #008000; stroke: #008000"/>
     <use xlink:href="#m19263f296a" x="185.098794" y="214.554331" style="fill: #008000; stroke: #008000"/>
    </g>
   </g>
   <g id="PathCollection_2">
    <defs>
     <path id="m227d3ab159" d="M -0 2.236068 
L 1.341641 0 
L 0 -2.236068 
L -1.341641 -0 
z
" style="stroke: #d3d3d3"/>
    </defs>
    <g clip-path="url(#pdb9ea39602)">
     <use xlink:href="#m227d3ab159" x="139.011024" y="25.528943" style="fill: #d3d3d3; stroke: #d3d3d3"/>
     <use xlink:href="#m227d3ab159" x="258.839227" y="214.554331" style="fill: #d3d3d3; stroke: #d3d3d3"/>
     <use xlink:href="#m227d3ab159" x="258.839227" y="214.554331" style="fill: #d3d3d3; stroke: #d3d3d3"/>
     <use xlink:href="#m227d3ab159" x="258.839227" y="214.554331" style="fill: #d3d3d3; stroke: #d3d3d3"/>
     <use xlink:href="#m227d3ab159" x="258.839227" y="214.554331" style="fill: #d3d3d3; stroke: #d3d3d3"/>
     <use xlink:href="#m227d3ab159" x="258.839227" y="214.554331" style="fill: #d3d3d3; stroke: #d3d3d3"/>
     <use xlink:href="#m227d3ab159" x="258.839227" y="214.554331" style="fill: #d3d3d3; stroke: #d3d3d3"/>
     <use xlink:href="#m227d3ab159" x="258.839227" y="214.554331" style="fill: #d3d3d3; stroke: #d3d3d3"/>
     <use xlink:href="#m227d3ab159" x="168.968074" y="72.78529" style="fill: #d3d3d3; stroke: #d3d3d3"/>
     <use xlink:href="#m227d3ab159" x="228.882176" y="167.297984" style="fill: #d3d3d3; stroke: #d3d3d3"/>
     <use xlink:href="#m227d3ab159" x="19.18282" y="214.554331" style="fill: #d3d3d3; stroke: #d3d3d3"/>
     <use xlink:href="#m227d3ab159" x="19.18282" y="214.554331" style="fill: #d3d3d3; stroke: #d3d3d3"/>
     <use xlink:href="#m227d3ab159" x="19.18282" y="214.554331" style="fill: #d3d3d3; stroke: #d3d3d3"/>
     <use xlink:href="#m227d3ab159" x="19.18282" y="214.554331" style="fill: #d3d3d3; stroke: #d3d3d3"/>
     <use xlink:href="#m227d3ab159" x="19.18282" y="214.554331" style="fill: #d3d3d3; stroke: #d3d3d3"/>
     <use xlink:href="#m227d3ab159" x="19.18282" y="214.554331" style="fill: #d3d3d3; stroke: #d3d3d3"/>
     <use xlink:href="#m227d3ab159" x="19.18282" y="214.554331" style="fill: #d3d3d3; stroke: #d3d3d3"/>
     <use xlink:href="#m227d3ab159" x="19.18282" y="214.554331" style="fill: #d3d3d3; stroke: #d3d3d3"/>
     <use xlink:href="#m227d3ab159" x="19.18282" y="214.554331" style="fill: #d3d3d3; stroke: #d3d3d3"/>
     <use xlink:href="#m227d3ab159" x="139.011024" y="214.554331" style="fill: #d3d3d3; stroke: #d3d3d3"/>
     <use xlink:href="#m227d3ab159" x="198.925125" y="214.554331" style="fill: #d3d3d3; stroke: #d3d3d3"/>
     <use xlink:href="#m227d3ab159" x="198.925125" y="214.554331" style="fill: #d3d3d3; stroke: #d3d3d3"/>
     <use xlink:href="#m227d3ab159" x="198.925125" y="214.554331" style="fill: #d3d3d3; stroke: #d3d3d3"/>
     <use xlink:href="#m227d3ab159" x="210.907946" y="214.554331" style="fill: #d3d3d3; stroke: #d3d3d3"/>
     <use xlink:href="#m227d3ab159" x="59.125555" y="151.545868" style="fill: #d3d3d3; stroke: #d3d3d3"/>
     <use xlink:href="#m227d3ab159" x="99.068289" y="214.554331" style="fill: #d3d3d3; stroke: #d3d3d3"/>
     <use xlink:href="#m227d3ab159" x="99.068289" y="214.554331" style="fill: #d3d3d3; stroke: #d3d3d3"/>
     <use xlink:href="#m227d3ab159" x="49.139871" y="167.297984" style="fill: #d3d3d3; stroke: #d3d3d3"/>
     <use xlink:href="#m227d3ab159" x="67.114102" y="138.944176" style="fill: #d3d3d3; stroke: #d3d3d3"/>
     <use xlink:href="#m227d3ab159" x="79.096922" y="214.554331" style="fill: #d3d3d3; stroke: #d3d3d3"/>
     <use xlink:href="#m227d3ab159" x="79.096922" y="214.554331" style="fill: #d3d3d3; stroke: #d3d3d3"/>
     <use xlink:href="#m227d3ab159" x="115.045383" y="214.554331" style="fill: #d3d3d3; stroke: #d3d3d3"/>
     <use xlink:href="#m227d3ab159" x="208.385247" y="214.554331" style="fill: #d3d3d3; stroke: #d3d3d3"/>
     <use xlink:href="#m227d3ab159" x="102.140807" y="200.013916" style="fill: #d3d3d3; stroke: #d3d3d3"/>
     <use xlink:href="#m227d3ab159" x="28.400374" y="200.013916" style="fill: #d3d3d3; stroke: #d3d3d3"/>
    </g>
   </g>
   <g id="PathCollection_3">
    <defs>
     <path id="mbe5d461934" d="M 0 -5 
L -1.12257 -1.545085 
L -4.755283 -1.545085 
L -1.816356 0.59017 
L -2.938926 4.045085 
L -0 1.90983 
L 2.938926 4.045085 
L 1.816356 0.59017 
L 4.755283 -1.545085 
L 1.12257 -1.545085 
z
" style="stroke: #0000ff"/>
    </defs>
    <g clip-path="url(#pdb9ea39602)">
     <use xlink:href="#mbe5d461934" x="102.140807" y="200.013916" style="fill: #0000ff; stroke: #0000ff"/>
    </g>
   </g>
   <g id="text_1">
    <!-- $\mathrm{Al_{6}Ru}$ -->
    <g transform="translate(18.768627 197.122125) scale(0.1 -0.1)">
     <defs>
      <path id="DejaVuSans-41" d="M 2188 4044 
L 1331 1722 
L 3047 1722 
L 2188 4044 
z
M 1831 4666 
L 2547 4666 
L 4325 0 
L 3669 0 
L 3244 1197 
L 1141 1197 
L 716 0 
L 50 0 
L 1831 4666 
z
" transform="scale(0.015625)"/>
      <path id="DejaVuSans-6c" d="M 603 4863 
L 1178 4863 
L 1178 0 
L 603 0 
L 603 4863 
z
" transform="scale(0.015625)"/>
      <path id="DejaVuSans-36" d="M 2113 2584 
Q 1688 2584 1439 2293 
Q 1191 2003 1191 1497 
Q 1191 994 1439 701 
Q 1688 409 2113 409 
Q 2538 409 2786 701 
Q 3034 994 3034 1497 
Q 3034 2003 2786 2293 
Q 2538 2584 2113 2584 
z
M 3366 4563 
L 3366 3988 
Q 3128 4100 2886 4159 
Q 2644 4219 2406 4219 
Q 1781 4219 1451 3797 
Q 1122 3375 1075 2522 
Q 1259 2794 1537 2939 
Q 1816 3084 2150 3084 
Q 2853 3084 3261 2657 
Q 3669 2231 3669 1497 
Q 3669 778 3244 343 
Q 2819 -91 2113 -91 
Q 1303 -91 875 529 
Q 447 1150 447 2328 
Q 447 3434 972 4092 
Q 1497 4750 2381 4750 
Q 2619 4750 2861 4703 
Q 3103 4656 3366 4563 
z
" transform="scale(0.015625)"/>
      <path id="DejaVuSans-52" d="M 2841 2188 
Q 3044 2119 3236 1894 
Q 3428 1669 3622 1275 
L 4263 0 
L 3584 0 
L 2988 1197 
Q 2756 1666 2539 1819 
Q 2322 1972 1947 1972 
L 1259 1972 
L 1259 0 
L 628 0 
L 628 4666 
L 2053 4666 
Q 2853 4666 3247 4331 
Q 3641 3997 3641 3322 
Q 3641 2881 3436 2590 
Q 3231 2300 2841 2188 
z
M 1259 4147 
L 1259 2491 
L 2053 2491 
Q 2509 2491 2742 2702 
Q 2975 2913 2975 3322 
Q 2975 3731 2742 3939 
Q 2509 4147 2053 4147 
L 1259 4147 
z
" transform="scale(0.015625)"/>
      <path id="DejaVuSans-75" d="M 544 1381 
L 544 3500 
L 1119 3500 
L 1119 1403 
Q 1119 906 1312 657 
Q 1506 409 1894 409 
Q 2359 409 2629 706 
Q 2900 1003 2900 1516 
L 2900 3500 
L 3475 3500 
L 3475 0 
L 2900 0 
L 2900 538 
Q 2691 219 2414 64 
Q 2138 -91 1772 -91 
Q 1169 -91 856 284 
Q 544 659 544 1381 
z
M 1991 3584 
L 1991 3584 
z
" transform="scale(0.015625)"/>
     </defs>
     <use xlink:href="#DejaVuSans-41" transform="translate(0 0.015625)"/>
     <use xlink:href="#DejaVuSans-6c" transform="translate(68.408203 0.015625)"/>
     <use xlink:href="#DejaVuSans-36" transform="translate(97.148438 -16.390625) scale(0.7)"/>
     <use xlink:href="#DejaVuSans-52" transform="translate(144.418945 0.015625)"/>
     <use xlink:href="#DejaVuSans-75" transform="translate(213.901367 0.015625)"/>
    </g>
   </g>
   <g id="text_2">
    <!-- $\mathrm{Al_{13}Ru_{4}}$ -->
    <g transform="translate(17.776133 175.90796) scale(0.1 -0.1)">
     <defs>
      <path id="DejaVuSans-31" d="M 794 531 
L 1825 531 
L 1825 4091 
L 703 3866 
L 703 4441 
L 1819 4666 
L 2450 4666 
L 2450 531 
L 3481 531 
L 3481 0 
L 794 0 
L 794 531 
z
" transform="scale(0.015625)"/>
      <path id="DejaVuSans-33" d="M 2597 2516 
Q 3050 2419 3304 2112 
Q 3559 1806 3559 1356 
Q 3559 666 3084 287 
Q 2609 -91 1734 -91 
Q 1441 -91 1130 -33 
Q 819 25 488 141 
L 488 750 
Q 750 597 1062 519 
Q 1375 441 1716 441 
Q 2309 441 2620 675 
Q 2931 909 2931 1356 
Q 2931 1769 2642 2001 
Q 2353 2234 1838 2234 
L 1294 2234 
L 1294 2753 
L 1863 2753 
Q 2328 2753 2575 2939 
Q 2822 3125 2822 3475 
Q 2822 3834 2567 4026 
Q 2313 4219 1838 4219 
Q 1578 4219 1281 4162 
Q 984 4106 628 3988 
L 628 4550 
Q 988 4650 1302 4700 
Q 1616 4750 1894 4750 
Q 2613 4750 3031 4423 
Q 3450 4097 3450 3541 
Q 3450 3153 3228 2886 
Q 3006 2619 2597 2516 
z
" transform="scale(0.015625)"/>
      <path id="DejaVuSans-34" d="M 2419 4116 
L 825 1625 
L 2419 1625 
L 2419 4116 
z
M 2253 4666 
L 3047 4666 
L 3047 1625 
L 3713 1625 
L 3713 1100 
L 3047 1100 
L 3047 0 
L 2419 0 
L 2419 1100 
L 313 1100 
L 313 1709 
L 2253 4666 
z
" transform="scale(0.015625)"/>
     </defs>
     <use xlink:href="#DejaVuSans-41" transform="translate(0 0.015625)"/>
     <use xlink:href="#DejaVuSans-6c" transform="translate(68.408203 0.015625)"/>
     <use xlink:href="#DejaVuSans-31" transform="translate(97.148438 -16.390625) scale(0.7)"/>
     <use xlink:href="#DejaVuSans-33" transform="translate(141.68457 -16.390625) scale(0.7)"/>
     <use xlink:href="#DejaVuSans-52" transform="translate(188.955078 0.015625)"/>
     <use xlink:href="#DejaVuSans-75" transform="translate(258.4375 0.015625)"/>
     <use xlink:href="#DejaVuSans-34" transform="translate(322.773438 -16.390625) scale(0.7)"/>
    </g>
   </g>
   <g id="text_3">
    <!-- $\mathrm{Al_{7}Cu_{2}Ru}$ -->
    <g transform="translate(49.601467 194.886153) scale(0.1 -0.1)">
     <defs>
      <path id="DejaVuSans-37" d="M 525 4666 
L 3525 4666 
L 3525 4397 
L 1831 0 
L 1172 0 
L 2766 4134 
L 525 4134 
L 525 4666 
z
" transform="scale(0.015625)"/>
      <path id="DejaVuSans-43" d="M 4122 4306 
L 4122 3641 
Q 3803 3938 3442 4084 
Q 3081 4231 2675 4231 
Q 1875 4231 1450 3742 
Q 1025 3253 1025 2328 
Q 1025 1406 1450 917 
Q 1875 428 2675 428 
Q 3081 428 3442 575 
Q 3803 722 4122 1019 
L 4122 359 
Q 3791 134 3420 21 
Q 3050 -91 2638 -91 
Q 1578 -91 968 557 
Q 359 1206 359 2328 
Q 359 3453 968 4101 
Q 1578 4750 2638 4750 
Q 3056 4750 3426 4639 
Q 3797 4528 4122 4306 
z
" transform="scale(0.015625)"/>
      <path id="DejaVuSans-32" d="M 1228 531 
L 3431 531 
L 3431 0 
L 469 0 
L 469 531 
Q 828 903 1448 1529 
Q 2069 2156 2228 2338 
Q 2531 2678 2651 2914 
Q 2772 3150 2772 3378 
Q 2772 3750 2511 3984 
Q 2250 4219 1831 4219 
Q 1534 4219 1204 4116 
Q 875 4013 500 3803 
L 500 4441 
Q 881 4594 1212 4672 
Q 1544 4750 1819 4750 
Q 2544 4750 2975 4387 
Q 3406 4025 3406 3419 
Q 3406 3131 3298 2873 
Q 3191 2616 2906 2266 
Q 2828 2175 2409 1742 
Q 1991 1309 1228 531 
z
" transform="scale(0.015625)"/>
     </defs>
     <use xlink:href="#DejaVuSans-41" transform="translate(0 0.015625)"/>
     <use xlink:href="#DejaVuSans-6c" transform="translate(68.408203 0.015625)"/>
     <use xlink:href="#DejaVuSans-37" transform="translate(97.148438 -16.390625) scale(0.7)"/>
     <use xlink:href="#DejaVuSans-43" transform="translate(144.418945 0.015625)"/>
     <use xlink:href="#DejaVuSans-75" transform="translate(214.243164 0.015625)"/>
     <use xlink:href="#DejaVuSans-32" transform="translate(278.579102 -16.390625) scale(0.7)"/>
     <use xlink:href="#DejaVuSans-52" transform="translate(325.849609 0.015625)"/>
     <use xlink:href="#DejaVuSans-75" transform="translate(395.332031 0.015625)"/>
    </g>
   </g>
   <g id="text_4">
    <!-- $\mathrm{Al}$ -->
    <g transform="translate(19.586902 211.839411) scale(0.1 -0.1)">
     <use xlink:href="#DejaVuSans-41" transform="translate(0 0.015625)"/>
     <use xlink:href="#DejaVuSans-6c" transform="translate(68.408203 0.015625)"/>
    </g>
   </g>
   <g id="text_5">
    <!-- $\mathrm{Al_{2}Cu}$ -->
    <g transform="translate(92.061037 210.544971) scale(0.1 -0.1)">
     <use xlink:href="#DejaVuSans-41" transform="translate(0 0.015625)"/>
     <use xlink:href="#DejaVuSans-6c" transform="translate(68.408203 0.015625)"/>
     <use xlink:href="#DejaVuSans-32" transform="translate(97.148438 -16.390625) scale(0.7)"/>
     <use xlink:href="#DejaVuSans-43" transform="translate(144.418945 0.015625)"/>
     <use xlink:href="#DejaVuSans-75" transform="translate(214.243164 0.015625)"/>
    </g>
   </g>
   <g id="text_6">
    <!-- $\mathrm{Al_{2}Ru}$ -->
    <g transform="translate(37.602632 161.067289) scale(0.1 -0.1)">
     <use xlink:href="#DejaVuSans-41" transform="translate(0 0.015625)"/>
     <use xlink:href="#DejaVuSans-6c" transform="translate(68.408203 0.015625)"/>
     <use xlink:href="#DejaVuSans-32" transform="translate(97.148438 -16.390625) scale(0.7)"/>
     <use xlink:href="#DejaVuSans-52" transform="translate(144.418945 0.015625)"/>
     <use xlink:href="#DejaVuSans-75" transform="translate(213.901367 0.015625)"/>
    </g>
   </g>
   <g id="text_7">
    <!-- $\mathrm{Cu}$ -->
    <g transform="translate(245.859482 211.527642) scale(0.1 -0.1)">
     <use xlink:href="#DejaVuSans-43" transform="translate(0 0.78125)"/>
     <use xlink:href="#DejaVuSans-75" transform="translate(69.824219 0.78125)"/>
    </g>
   </g>
   <g id="text_8">
    <!-- $\mathrm{Ru}$ -->
    <g transform="translate(139.561024 32.478868) scale(0.1 -0.1)">
     <use xlink:href="#DejaVuSans-52" transform="translate(0 0.09375)"/>
     <use xlink:href="#DejaVuSans-75" transform="translate(69.482422 0.09375)"/>
    </g>
   </g>
   <g id="text_9">
    <!-- $\mathrm{AlRu}$ -->
    <g transform="translate(79.37874 117.014949) scale(0.1 -0.1)">
     <use xlink:href="#DejaVuSans-41" transform="translate(0 0.015625)"/>
     <use xlink:href="#DejaVuSans-6c" transform="translate(68.408203 0.015625)"/>
     <use xlink:href="#DejaVuSans-52" transform="translate(96.191406 0.015625)"/>
     <use xlink:href="#DejaVuSans-75" transform="translate(165.673828 0.015625)"/>
    </g>
   </g>
   <g id="text_10">
    <!-- $\mathrm{Al_{3}Ru_{2}}$ -->
    <g transform="translate(35.360129 145.397906) scale(0.1 -0.1)">
     <use xlink:href="#DejaVuSans-41" transform="translate(0 0.015625)"/>
     <use xlink:href="#DejaVuSans-6c" transform="translate(68.408203 0.015625)"/>
     <use xlink:href="#DejaVuSans-33" transform="translate(97.148438 -16.390625) scale(0.7)"/>
     <use xlink:href="#DejaVuSans-52" transform="translate(144.418945 0.015625)"/>
     <use xlink:href="#DejaVuSans-75" transform="translate(213.901367 0.015625)"/>
     <use xlink:href="#DejaVuSans-32" transform="translate(278.237305 -16.390625) scale(0.7)"/>
    </g>
   </g>
   <g id="text_11">
    <!-- $\mathrm{AlCu_{3}}$ -->
    <g transform="translate(204.661489 210.594971) scale(0.1 -0.1)">
     <use xlink:href="#DejaVuSans-41" transform="translate(0 0.015625)"/>
     <use xlink:href="#DejaVuSans-6c" transform="translate(68.408203 0.015625)"/>
     <use xlink:href="#DejaVuSans-43" transform="translate(96.191406 0.015625)"/>
     <use xlink:href="#DejaVuSans-75" transform="translate(166.015625 0.015625)"/>
     <use xlink:href="#DejaVuSans-33" transform="translate(230.351562 -16.390625) scale(0.7)"/>
    </g>
   </g>
   <g id="text_12">
    <!-- $\mathrm{AlCu}$ -->
    <g transform="translate(132.092842 211.215873) scale(0.1 -0.1)">
     <use xlink:href="#DejaVuSans-41" transform="translate(0 0.015625)"/>
     <use xlink:href="#DejaVuSans-6c" transform="translate(68.408203 0.015625)"/>
     <use xlink:href="#DejaVuSans-43" transform="translate(96.191406 0.015625)"/>
     <use xlink:href="#DejaVuSans-75" transform="translate(166.015625 0.015625)"/>
    </g>
   </g>
   <g id="text_13">
    <!-- $\mathrm{Al_{4}Cu_{9}}$ -->
    <g transform="translate(172.071521 210.594971) scale(0.1 -0.1)">
     <defs>
      <path id="DejaVuSans-39" d="M 703 97 
L 703 672 
Q 941 559 1184 500 
Q 1428 441 1663 441 
Q 2288 441 2617 861 
Q 2947 1281 2994 2138 
Q 2813 1869 2534 1725 
Q 2256 1581 1919 1581 
Q 1219 1581 811 2004 
Q 403 2428 403 3163 
Q 403 3881 828 4315 
Q 1253 4750 1959 4750 
Q 2769 4750 3195 4129 
Q 3622 3509 3622 2328 
Q 3622 1225 3098 567 
Q 2575 -91 1691 -91 
Q 1453 -91 1209 -44 
Q 966 3 703 97 
z
M 1959 2075 
Q 2384 2075 2632 2365 
Q 2881 2656 2881 3163 
Q 2881 3666 2632 3958 
Q 2384 4250 1959 4250 
Q 1534 4250 1286 3958 
Q 1038 3666 1038 3163 
Q 1038 2656 1286 2365 
Q 1534 2075 1959 2075 
z
" transform="scale(0.015625)"/>
     </defs>
     <use xlink:href="#DejaVuSans-41" transform="translate(0 0.015625)"/>
     <use xlink:href="#DejaVuSans-6c" transform="translate(68.408203 0.015625)"/>
     <use xlink:href="#DejaVuSans-34" transform="translate(97.148438 -16.390625) scale(0.7)"/>
     <use xlink:href="#DejaVuSans-43" transform="translate(144.418945 0.015625)"/>
     <use xlink:href="#DejaVuSans-75" transform="translate(214.243164 0.015625)"/>
     <use xlink:href="#DejaVuSans-39" transform="translate(278.579102 -16.390625) scale(0.7)"/>
    </g>
   </g>
   <g id="text_14">
    <!-- $\mathrm{Al_{8}Cu_{4}Ru}$ -->
    <g style="fill: #0000ff" transform="translate(100.136262 195.867495) scale(0.1 -0.1)">
     <defs>
      <path id="DejaVuSans-38" d="M 2034 2216 
Q 1584 2216 1326 1975 
Q 1069 1734 1069 1313 
Q 1069 891 1326 650 
Q 1584 409 2034 409 
Q 2484 409 2743 651 
Q 3003 894 3003 1313 
Q 3003 1734 2745 1975 
Q 2488 2216 2034 2216 
z
M 1403 2484 
Q 997 2584 770 2862 
Q 544 3141 544 3541 
Q 544 4100 942 4425 
Q 1341 4750 2034 4750 
Q 2731 4750 3128 4425 
Q 3525 4100 3525 3541 
Q 3525 3141 3298 2862 
Q 3072 2584 2669 2484 
Q 3125 2378 3379 2068 
Q 3634 1759 3634 1313 
Q 3634 634 3220 271 
Q 2806 -91 2034 -91 
Q 1263 -91 848 271 
Q 434 634 434 1313 
Q 434 1759 690 2068 
Q 947 2378 1403 2484 
z
M 1172 3481 
Q 1172 3119 1398 2916 
Q 1625 2713 2034 2713 
Q 2441 2713 2670 2916 
Q 2900 3119 2900 3481 
Q 2900 3844 2670 4047 
Q 2441 4250 2034 4250 
Q 1625 4250 1398 4047 
Q 1172 3844 1172 3481 
z
" transform="scale(0.015625)"/>
     </defs>
     <use xlink:href="#DejaVuSans-41" transform="translate(0 0.015625)"/>
     <use xlink:href="#DejaVuSans-6c" transform="translate(68.408203 0.015625)"/>
     <use xlink:href="#DejaVuSans-38" transform="translate(97.148438 -16.390625) scale(0.7)"/>
     <use xlink:href="#DejaVuSans-43" transform="translate(144.418945 0.015625)"/>
     <use xlink:href="#DejaVuSans-75" transform="translate(214.243164 0.015625)"/>
     <use xlink:href="#DejaVuSans-34" transform="translate(278.579102 -16.390625) scale(0.7)"/>
     <use xlink:href="#DejaVuSans-52" transform="translate(325.849609 0.015625)"/>
     <use xlink:href="#DejaVuSans-75" transform="translate(395.332031 0.015625)"/>
    </g>
   </g>
  </g>
  <g id="axes_2">
   <g id="patch_3">
    <path d="M 287.298425 195.703937 
L 296.029134 195.703937 
L 296.029134 36.96378 
L 287.298425 36.96378 
L 287.298425 195.703937 
z
" style="fill: none"/>
   </g>
   <g id="patch_4">
    <path d="M 287.298425 195.703937 
L 291.66378 203.640945 
L 296.029134 195.703937 
" style="fill: #440154; opacity: 0.7"/>
   </g>
   <g id="patch_5">
    <path d="M 287.298425 36.96378 
L 291.66378 29.026772 
L 296.029134 36.96378 
" style="fill: #fde725; opacity: 0.7"/>
   </g>
   <g id="QuadMesh_1">
    <path d="M 287.298425 195.703937 
L 296.029134 195.703937 
L 296.029134 192.253064 
L 287.298425 192.253064 
L 287.298425 195.703937 
" clip-path="url(#p787608fe4c)" style="fill: #450457; fill-opacity: 0.7"/>
    <path d="M 287.298425 192.253064 
L 296.029134 192.253064 
L 296.029134 188.802191 
L 287.298425 188.802191 
L 287.298425 192.253064 
" clip-path="url(#p787608fe4c)" style="fill: #470d60; fill-opacity: 0.7"/>
    <path d="M 287.298425 188.802191 
L 296.029134 188.802191 
L 296.029134 185.351318 
L 287.298425 185.351318 
L 287.298425 188.802191 
" clip-path="url(#p787608fe4c)" style="fill: #481467; fill-opacity: 0.7"/>
    <path d="M 287.298425 185.351318 
L 296.029134 185.351318 
L 296.029134 181.900445 
L 287.298425 181.900445 
L 287.298425 185.351318 
" clip-path="url(#p787608fe4c)" style="fill: #481c6e; fill-opacity: 0.7"/>
    <path d="M 287.298425 181.900445 
L 296.029134 181.900445 
L 296.029134 178.449572 
L 287.298425 178.449572 
L 287.298425 181.900445 
" clip-path="url(#p787608fe4c)" style="fill: #482475; fill-opacity: 0.7"/>
    <path d="M 287.298425 178.449572 
L 296.029134 178.449572 
L 296.029134 174.998699 
L 287.298425 174.998699 
L 287.298425 178.449572 
" clip-path="url(#p787608fe4c)" style="fill: #472a7a; fill-opacity: 0.7"/>
    <path d="M 287.298425 174.998699 
L 296.029134 174.998699 
L 296.029134 171.547826 
L 287.298425 171.547826 
L 287.298425 174.998699 
" clip-path="url(#p787608fe4c)" style="fill: #46327e; fill-opacity: 0.7"/>
    <path d="M 287.298425 171.547826 
L 296.029134 171.547826 
L 296.029134 168.096953 
L 287.298425 168.096953 
L 287.298425 171.547826 
" clip-path="url(#p787608fe4c)" style="fill: #453882; fill-opacity: 0.7"/>
    <path d="M 287.298425 168.096953 
L 296.029134 168.096953 
L 296.029134 164.64608 
L 287.298425 164.64608 
L 287.298425 168.096953 
" clip-path="url(#p787608fe4c)" style="fill: #423f85; fill-opacity: 0.7"/>
    <path d="M 287.298425 164.64608 
L 296.029134 164.64608 
L 296.029134 161.195207 
L 287.298425 161.195207 
L 287.298425 164.64608 
" clip-path="url(#p787608fe4c)" style="fill: #404588; fill-opacity: 0.7"/>
    <path d="M 287.298425 161.195207 
L 296.029134 161.195207 
L 296.029134 157.744334 
L 287.298425 157.744334 
L 287.298425 161.195207 
" clip-path="url(#p787608fe4c)" style="fill: #3e4c8a; fill-opacity: 0.7"/>
    <path d="M 287.298425 157.744334 
L 296.029134 157.744334 
L 296.029134 154.293461 
L 287.298425 154.293461 
L 287.298425 157.744334 
" clip-path="url(#p787608fe4c)" style="fill: #3b528b; fill-opacity: 0.7"/>
    <path d="M 287.298425 154.293461 
L 296.029134 154.293461 
L 296.029134 150.842588 
L 287.298425 150.842588 
L 287.298425 154.293461 
" clip-path="url(#p787608fe4c)" style="fill: #38588c; fill-opacity: 0.7"/>
    <path d="M 287.298425 150.842588 
L 296.029134 150.842588 
L 296.029134 147.391715 
L 287.298425 147.391715 
L 287.298425 150.842588 
" clip-path="url(#p787608fe4c)" style="fill: #355e8d; fill-opacity: 0.7"/>
    <path d="M 287.298425 147.391715 
L 296.029134 147.391715 
L 296.029134 143.940842 
L 287.298425 143.940842 
L 287.298425 147.391715 
" clip-path="url(#p787608fe4c)" style="fill: #33638d; fill-opacity: 0.7"/>
    <path d="M 287.298425 143.940842 
L 296.029134 143.940842 
L 296.029134 140.489969 
L 287.298425 140.489969 
L 287.298425 143.940842 
" clip-path="url(#p787608fe4c)" style="fill: #30698e; fill-opacity: 0.7"/>
    <path d="M 287.298425 140.489969 
L 296.029134 140.489969 
L 296.029134 137.039096 
L 287.298425 137.039096 
L 287.298425 140.489969 
" clip-path="url(#p787608fe4c)" style="fill: #2e6e8e; fill-opacity: 0.7"/>
    <path d="M 287.298425 137.039096 
L 296.029134 137.039096 
L 296.029134 133.588223 
L 287.298425 133.588223 
L 287.298425 137.039096 
" clip-path="url(#p787608fe4c)" style="fill: #2c738e; fill-opacity: 0.7"/>
    <path d="M 287.298425 133.588223 
L 296.029134 133.588223 
L 296.029134 130.13735 
L 287.298425 130.13735 
L 287.298425 133.588223 
" clip-path="url(#p787608fe4c)" style="fill: #2a788e; fill-opacity: 0.7"/>
    <path d="M 287.298425 130.13735 
L 296.029134 130.13735 
L 296.029134 126.686477 
L 287.298425 126.686477 
L 287.298425 130.13735 
" clip-path="url(#p787608fe4c)" style="fill: #277e8e; fill-opacity: 0.7"/>
    <path d="M 287.298425 126.686477 
L 296.029134 126.686477 
L 296.029134 123.235604 
L 287.298425 123.235604 
L 287.298425 126.686477 
" clip-path="url(#p787608fe4c)" style="fill: #25838e; fill-opacity: 0.7"/>
    <path d="M 287.298425 123.235604 
L 296.029134 123.235604 
L 296.029134 119.784731 
L 287.298425 119.784731 
L 287.298425 123.235604 
" clip-path="url(#p787608fe4c)" style="fill: #23888e; fill-opacity: 0.7"/>
    <path d="M 287.298425 119.784731 
L 296.029134 119.784731 
L 296.029134 116.333858 
L 287.298425 116.333858 
L 287.298425 119.784731 
" clip-path="url(#p787608fe4c)" style="fill: #218e8d; fill-opacity: 0.7"/>
    <path d="M 287.298425 116.333858 
L 296.029134 116.333858 
L 296.029134 112.882985 
L 287.298425 112.882985 
L 287.298425 116.333858 
" clip-path="url(#p787608fe4c)" style="fill: #20928c; fill-opacity: 0.7"/>
    <path d="M 287.298425 112.882985 
L 296.029134 112.882985 
L 296.029134 109.432112 
L 287.298425 109.432112 
L 287.298425 112.882985 
" clip-path="url(#p787608fe4c)" style="fill: #1f988b; fill-opacity: 0.7"/>
    <path d="M 287.298425 109.432112 
L 296.029134 109.432112 
L 296.029134 105.981239 
L 287.298425 105.981239 
L 287.298425 109.432112 
" clip-path="url(#p787608fe4c)" style="fill: #1e9d89; fill-opacity: 0.7"/>
    <path d="M 287.298425 105.981239 
L 296.029134 105.981239 
L 296.029134 102.530366 
L 287.298425 102.530366 
L 287.298425 105.981239 
" clip-path="url(#p787608fe4c)" style="fill: #1fa287; fill-opacity: 0.7"/>
    <path d="M 287.298425 102.530366 
L 296.029134 102.530366 
L 296.029134 99.079493 
L 287.298425 99.079493 
L 287.298425 102.530366 
" clip-path="url(#p787608fe4c)" style="fill: #22a884; fill-opacity: 0.7"/>
    <path d="M 287.298425 99.079493 
L 296.029134 99.079493 
L 296.029134 95.62862 
L 287.298425 95.62862 
L 287.298425 99.079493 
" clip-path="url(#p787608fe4c)" style="fill: #26ad81; fill-opacity: 0.7"/>
    <path d="M 287.298425 95.62862 
L 296.029134 95.62862 
L 296.029134 92.177747 
L 287.298425 92.177747 
L 287.298425 95.62862 
" clip-path="url(#p787608fe4c)" style="fill: #2db27d; fill-opacity: 0.7"/>
    <path d="M 287.298425 92.177747 
L 296.029134 92.177747 
L 296.029134 88.726874 
L 287.298425 88.726874 
L 287.298425 92.177747 
" clip-path="url(#p787608fe4c)" style="fill: #34b679; fill-opacity: 0.7"/>
    <path d="M 287.298425 88.726874 
L 296.029134 88.726874 
L 296.029134 85.276001 
L 287.298425 85.276001 
L 287.298425 88.726874 
" clip-path="url(#p787608fe4c)" style="fill: #3dbc74; fill-opacity: 0.7"/>
    <path d="M 287.298425 85.276001 
L 296.029134 85.276001 
L 296.029134 81.825128 
L 287.298425 81.825128 
L 287.298425 85.276001 
" clip-path="url(#p787608fe4c)" style="fill: #46c06f; fill-opacity: 0.7"/>
    <path d="M 287.298425 81.825128 
L 296.029134 81.825128 
L 296.029134 78.374255 
L 287.298425 78.374255 
L 287.298425 81.825128 
" clip-path="url(#p787608fe4c)" style="fill: #52c569; fill-opacity: 0.7"/>
    <path d="M 287.298425 78.374255 
L 296.029134 78.374255 
L 296.029134 74.923382 
L 287.298425 74.923382 
L 287.298425 78.374255 
" clip-path="url(#p787608fe4c)" style="fill: #5ec962; fill-opacity: 0.7"/>
    <path d="M 287.298425 74.923382 
L 296.029134 74.923382 
L 296.029134 71.472509 
L 287.298425 71.472509 
L 287.298425 74.923382 
" clip-path="url(#p787608fe4c)" style="fill: #69cd5b; fill-opacity: 0.7"/>
    <path d="M 287.298425 71.472509 
L 296.029134 71.472509 
L 296.029134 68.021636 
L 287.298425 68.021636 
L 287.298425 71.472509 
" clip-path="url(#p787608fe4c)" style="fill: #77d153; fill-opacity: 0.7"/>
    <path d="M 287.298425 68.021636 
L 296.029134 68.021636 
L 296.029134 64.570763 
L 287.298425 64.570763 
L 287.298425 68.021636 
" clip-path="url(#p787608fe4c)" style="fill: #84d44b; fill-opacity: 0.7"/>
    <path d="M 287.298425 64.570763 
L 296.029134 64.570763 
L 296.029134 61.11989 
L 287.298425 61.11989 
L 287.298425 64.570763 
" clip-path="url(#p787608fe4c)" style="fill: #93d741; fill-opacity: 0.7"/>
    <path d="M 287.298425 61.11989 
L 296.029134 61.11989 
L 296.029134 57.669017 
L 287.298425 57.669017 
L 287.298425 61.11989 
" clip-path="url(#p787608fe4c)" style="fill: #a0da39; fill-opacity: 0.7"/>
    <path d="M 287.298425 57.669017 
L 296.029134 57.669017 
L 296.029134 54.218144 
L 287.298425 54.218144 
L 287.298425 57.669017 
" clip-path="url(#p787608fe4c)" style="fill: #b0dd2f; fill-opacity: 0.7"/>
    <path d="M 287.298425 54.218144 
L 296.029134 54.218144 
L 296.029134 50.767271 
L 287.298425 50.767271 
L 287.298425 54.218144 
" clip-path="url(#p787608fe4c)" style="fill: #bddf26; fill-opacity: 0.7"/>
    <path d="M 287.298425 50.767271 
L 296.029134 50.767271 
L 296.029134 47.316398 
L 287.298425 47.316398 
L 287.298425 50.767271 
" clip-path="url(#p787608fe4c)" style="fill: #cde11d; fill-opacity: 0.7"/>
    <path d="M 287.298425 47.316398 
L 296.029134 47.316398 
L 296.029134 43.865526 
L 287.298425 43.865526 
L 287.298425 47.316398 
" clip-path="url(#p787608fe4c)" style="fill: #dde318; fill-opacity: 0.7"/>
    <path d="M 287.298425 43.865526 
L 296.029134 43.865526 
L 296.029134 40.414653 
L 287.298425 40.414653 
L 287.298425 43.865526 
" clip-path="url(#p787608fe4c)" style="fill: #eae51a; fill-opacity: 0.7"/>
    <path d="M 287.298425 40.414653 
L 296.029134 40.414653 
L 296.029134 36.96378 
L 287.298425 36.96378 
L 287.298425 40.414653 
" clip-path="url(#p787608fe4c)" style="fill: #f8e621; fill-opacity: 0.7"/>
   </g>
   <g id="matplotlib.axis_3"/>
   <g id="matplotlib.axis_4">
    <g id="ytick_1">
     <g id="line2d_25">
      <defs>
       <path id="mb2f52a54fe" d="M 0 0 
L -2 0 
" style="stroke: #000000; stroke-width: 0.3"/>
      </defs>
      <g>
       <use xlink:href="#mb2f52a54fe" x="296.029134" y="192.253064" style="stroke: #000000; stroke-width: 0.3"/>
      </g>
     </g>
     <g id="text_15">
      <!-- 0.690 -->
      <g transform="translate(299.529134 195.116189) scale(0.08 -0.08)">
       <defs>
        <path id="ArialMT-2212" d="M 3381 1997 
L 356 1997 
L 356 2522 
L 3381 2522 
L 3381 1997 
z
" transform="scale(0.015625)"/>
        <path id="ArialMT-30" d="M 266 2259 
Q 266 3072 433 3567 
Q 600 4063 929 4331 
Q 1259 4600 1759 4600 
Q 2128 4600 2406 4451 
Q 2684 4303 2865 4023 
Q 3047 3744 3150 3342 
Q 3253 2941 3253 2259 
Q 3253 1453 3087 958 
Q 2922 463 2592 192 
Q 2263 -78 1759 -78 
Q 1097 -78 719 397 
Q 266 969 266 2259 
z
M 844 2259 
Q 844 1131 1108 757 
Q 1372 384 1759 384 
Q 2147 384 2411 759 
Q 2675 1134 2675 2259 
Q 2675 3391 2411 3762 
Q 2147 4134 1753 4134 
Q 1366 4134 1134 3806 
Q 844 3388 844 2259 
z
" transform="scale(0.015625)"/>
        <path id="ArialMT-2e" d="M 581 0 
L 581 641 
L 1222 641 
L 1222 0 
L 581 0 
z
" transform="scale(0.015625)"/>
        <path id="ArialMT-36" d="M 3184 3459 
L 2625 3416 
Q 2550 3747 2413 3897 
Q 2184 4138 1850 4138 
Q 1581 4138 1378 3988 
Q 1113 3794 959 3422 
Q 806 3050 800 2363 
Q 1003 2672 1297 2822 
Q 1591 2972 1913 2972 
Q 2475 2972 2870 2558 
Q 3266 2144 3266 1488 
Q 3266 1056 3080 686 
Q 2894 316 2569 119 
Q 2244 -78 1831 -78 
Q 1128 -78 684 439 
Q 241 956 241 2144 
Q 241 3472 731 4075 
Q 1159 4600 1884 4600 
Q 2425 4600 2770 4297 
Q 3116 3994 3184 3459 
z
M 888 1484 
Q 888 1194 1011 928 
Q 1134 663 1356 523 
Q 1578 384 1822 384 
Q 2178 384 2434 671 
Q 2691 959 2691 1453 
Q 2691 1928 2437 2201 
Q 2184 2475 1800 2475 
Q 1419 2475 1153 2201 
Q 888 1928 888 1484 
z
" transform="scale(0.015625)"/>
        <path id="ArialMT-39" d="M 350 1059 
L 891 1109 
Q 959 728 1153 556 
Q 1347 384 1650 384 
Q 1909 384 2104 503 
Q 2300 622 2425 820 
Q 2550 1019 2634 1356 
Q 2719 1694 2719 2044 
Q 2719 2081 2716 2156 
Q 2547 1888 2255 1720 
Q 1963 1553 1622 1553 
Q 1053 1553 659 1965 
Q 266 2378 266 3053 
Q 266 3750 677 4175 
Q 1088 4600 1706 4600 
Q 2153 4600 2523 4359 
Q 2894 4119 3086 3673 
Q 3278 3228 3278 2384 
Q 3278 1506 3087 986 
Q 2897 466 2520 194 
Q 2144 -78 1638 -78 
Q 1100 -78 759 220 
Q 419 519 350 1059 
z
M 2653 3081 
Q 2653 3566 2395 3850 
Q 2138 4134 1775 4134 
Q 1400 4134 1122 3828 
Q 844 3522 844 3034 
Q 844 2597 1108 2323 
Q 1372 2050 1759 2050 
Q 2150 2050 2401 2323 
Q 2653 2597 2653 3081 
z
" transform="scale(0.015625)"/>
       </defs>
       <use xlink:href="#ArialMT-2212"/>
       <use xlink:href="#ArialMT-30" transform="translate(58.398438 0)"/>
       <use xlink:href="#ArialMT-2e" transform="translate(114.013672 0)"/>
       <use xlink:href="#ArialMT-36" transform="translate(141.796875 0)"/>
       <use xlink:href="#ArialMT-39" transform="translate(197.412109 0)"/>
       <use xlink:href="#ArialMT-30" transform="translate(253.027344 0)"/>
      </g>
     </g>
    </g>
    <g id="ytick_2">
     <g id="line2d_26">
      <g>
       <use xlink:href="#mb2f52a54fe" x="296.029134" y="174.998699" style="stroke: #000000; stroke-width: 0.3"/>
      </g>
     </g>
     <g id="text_16">
      <!-- 0.615 -->
      <g transform="translate(299.529134 177.861824) scale(0.08 -0.08)">
       <defs>
        <path id="ArialMT-31" d="M 2384 0 
L 1822 0 
L 1822 3584 
Q 1619 3391 1289 3197 
Q 959 3003 697 2906 
L 697 3450 
Q 1169 3672 1522 3987 
Q 1875 4303 2022 4600 
L 2384 4600 
L 2384 0 
z
" transform="scale(0.015625)"/>
        <path id="ArialMT-35" d="M 266 1200 
L 856 1250 
Q 922 819 1161 601 
Q 1400 384 1738 384 
Q 2144 384 2425 690 
Q 2706 997 2706 1503 
Q 2706 1984 2436 2262 
Q 2166 2541 1728 2541 
Q 1456 2541 1237 2417 
Q 1019 2294 894 2097 
L 366 2166 
L 809 4519 
L 3088 4519 
L 3088 3981 
L 1259 3981 
L 1013 2750 
Q 1425 3038 1878 3038 
Q 2478 3038 2890 2622 
Q 3303 2206 3303 1553 
Q 3303 931 2941 478 
Q 2500 -78 1738 -78 
Q 1113 -78 717 272 
Q 322 622 266 1200 
z
" transform="scale(0.015625)"/>
       </defs>
       <use xlink:href="#ArialMT-2212"/>
       <use xlink:href="#ArialMT-30" transform="translate(58.398438 0)"/>
       <use xlink:href="#ArialMT-2e" transform="translate(114.013672 0)"/>
       <use xlink:href="#ArialMT-36" transform="translate(141.796875 0)"/>
       <use xlink:href="#ArialMT-31" transform="translate(197.412109 0)"/>
       <use xlink:href="#ArialMT-35" transform="translate(253.027344 0)"/>
      </g>
     </g>
    </g>
    <g id="ytick_3">
     <g id="line2d_27">
      <g>
       <use xlink:href="#mb2f52a54fe" x="296.029134" y="157.744334" style="stroke: #000000; stroke-width: 0.3"/>
      </g>
     </g>
     <g id="text_17">
      <!-- 0.540 -->
      <g transform="translate(299.529134 160.607459) scale(0.08 -0.08)">
       <defs>
        <path id="ArialMT-34" d="M 2069 0 
L 2069 1097 
L 81 1097 
L 81 1613 
L 2172 4581 
L 2631 4581 
L 2631 1613 
L 3250 1613 
L 3250 1097 
L 2631 1097 
L 2631 0 
L 2069 0 
z
M 2069 1613 
L 2069 3678 
L 634 1613 
L 2069 1613 
z
" transform="scale(0.015625)"/>
       </defs>
       <use xlink:href="#ArialMT-2212"/>
       <use xlink:href="#ArialMT-30" transform="translate(58.398438 0)"/>
       <use xlink:href="#ArialMT-2e" transform="translate(114.013672 0)"/>
       <use xlink:href="#ArialMT-35" transform="translate(141.796875 0)"/>
       <use xlink:href="#ArialMT-34" transform="translate(197.412109 0)"/>
       <use xlink:href="#ArialMT-30" transform="translate(253.027344 0)"/>
      </g>
     </g>
    </g>
    <g id="ytick_4">
     <g id="line2d_28">
      <g>
       <use xlink:href="#mb2f52a54fe" x="296.029134" y="140.489969" style="stroke: #000000; stroke-width: 0.3"/>
      </g>
     </g>
     <g id="text_18">
      <!-- 0.465 -->
      <g transform="translate(299.529134 143.353094) scale(0.08 -0.08)">
       <use xlink:href="#ArialMT-2212"/>
       <use xlink:href="#ArialMT-30" transform="translate(58.398438 0)"/>
       <use xlink:href="#ArialMT-2e" transform="translate(114.013672 0)"/>
       <use xlink:href="#ArialMT-34" transform="translate(141.796875 0)"/>
       <use xlink:href="#ArialMT-36" transform="translate(197.412109 0)"/>
       <use xlink:href="#ArialMT-35" transform="translate(253.027344 0)"/>
      </g>
     </g>
    </g>
    <g id="ytick_5">
     <g id="line2d_29">
      <g>
       <use xlink:href="#mb2f52a54fe" x="296.029134" y="123.235604" style="stroke: #000000; stroke-width: 0.3"/>
      </g>
     </g>
     <g id="text_19">
      <!-- 0.390 -->
      <g transform="translate(299.529134 126.098729) scale(0.08 -0.08)">
       <defs>
        <path id="ArialMT-33" d="M 269 1209 
L 831 1284 
Q 928 806 1161 595 
Q 1394 384 1728 384 
Q 2125 384 2398 659 
Q 2672 934 2672 1341 
Q 2672 1728 2419 1979 
Q 2166 2231 1775 2231 
Q 1616 2231 1378 2169 
L 1441 2663 
Q 1497 2656 1531 2656 
Q 1891 2656 2178 2843 
Q 2466 3031 2466 3422 
Q 2466 3731 2256 3934 
Q 2047 4138 1716 4138 
Q 1388 4138 1169 3931 
Q 950 3725 888 3313 
L 325 3413 
Q 428 3978 793 4289 
Q 1159 4600 1703 4600 
Q 2078 4600 2393 4439 
Q 2709 4278 2876 4000 
Q 3044 3722 3044 3409 
Q 3044 3113 2884 2869 
Q 2725 2625 2413 2481 
Q 2819 2388 3044 2092 
Q 3269 1797 3269 1353 
Q 3269 753 2831 336 
Q 2394 -81 1725 -81 
Q 1122 -81 723 278 
Q 325 638 269 1209 
z
" transform="scale(0.015625)"/>
       </defs>
       <use xlink:href="#ArialMT-2212"/>
       <use xlink:href="#ArialMT-30" transform="translate(58.398438 0)"/>
       <use xlink:href="#ArialMT-2e" transform="translate(114.013672 0)"/>
       <use xlink:href="#ArialMT-33" transform="translate(141.796875 0)"/>
       <use xlink:href="#ArialMT-39" transform="translate(197.412109 0)"/>
       <use xlink:href="#ArialMT-30" transform="translate(253.027344 0)"/>
      </g>
     </g>
    </g>
    <g id="ytick_6">
     <g id="line2d_30">
      <g>
       <use xlink:href="#mb2f52a54fe" x="296.029134" y="105.981239" style="stroke: #000000; stroke-width: 0.3"/>
      </g>
     </g>
     <g id="text_20">
      <!-- 0.315 -->
      <g transform="translate(299.529134 108.844364) scale(0.08 -0.08)">
       <use xlink:href="#ArialMT-2212"/>
       <use xlink:href="#ArialMT-30" transform="translate(58.398438 0)"/>
       <use xlink:href="#ArialMT-2e" transform="translate(114.013672 0)"/>
       <use xlink:href="#ArialMT-33" transform="translate(141.796875 0)"/>
       <use xlink:href="#ArialMT-31" transform="translate(197.412109 0)"/>
       <use xlink:href="#ArialMT-35" transform="translate(253.027344 0)"/>
      </g>
     </g>
    </g>
    <g id="ytick_7">
     <g id="line2d_31">
      <g>
       <use xlink:href="#mb2f52a54fe" x="296.029134" y="88.726874" style="stroke: #000000; stroke-width: 0.3"/>
      </g>
     </g>
     <g id="text_21">
      <!-- 0.240 -->
      <g transform="translate(299.529134 91.589999) scale(0.08 -0.08)">
       <defs>
        <path id="ArialMT-32" d="M 3222 541 
L 3222 0 
L 194 0 
Q 188 203 259 391 
Q 375 700 629 1000 
Q 884 1300 1366 1694 
Q 2113 2306 2375 2664 
Q 2638 3022 2638 3341 
Q 2638 3675 2398 3904 
Q 2159 4134 1775 4134 
Q 1369 4134 1125 3890 
Q 881 3647 878 3216 
L 300 3275 
Q 359 3922 746 4261 
Q 1134 4600 1788 4600 
Q 2447 4600 2831 4234 
Q 3216 3869 3216 3328 
Q 3216 3053 3103 2787 
Q 2991 2522 2730 2228 
Q 2469 1934 1863 1422 
Q 1356 997 1212 845 
Q 1069 694 975 541 
L 3222 541 
z
" transform="scale(0.015625)"/>
       </defs>
       <use xlink:href="#ArialMT-2212"/>
       <use xlink:href="#ArialMT-30" transform="translate(58.398438 0)"/>
       <use xlink:href="#ArialMT-2e" transform="translate(114.013672 0)"/>
       <use xlink:href="#ArialMT-32" transform="translate(141.796875 0)"/>
       <use xlink:href="#ArialMT-34" transform="translate(197.412109 0)"/>
       <use xlink:href="#ArialMT-30" transform="translate(253.027344 0)"/>
      </g>
     </g>
    </g>
    <g id="ytick_8">
     <g id="line2d_32">
      <g>
       <use xlink:href="#mb2f52a54fe" x="296.029134" y="71.472509" style="stroke: #000000; stroke-width: 0.3"/>
      </g>
     </g>
     <g id="text_22">
      <!-- 0.165 -->
      <g transform="translate(299.529134 74.335634) scale(0.08 -0.08)">
       <use xlink:href="#ArialMT-2212"/>
       <use xlink:href="#ArialMT-30" transform="translate(58.398438 0)"/>
       <use xlink:href="#ArialMT-2e" transform="translate(114.013672 0)"/>
       <use xlink:href="#ArialMT-31" transform="translate(141.796875 0)"/>
       <use xlink:href="#ArialMT-36" transform="translate(197.412109 0)"/>
       <use xlink:href="#ArialMT-35" transform="translate(253.027344 0)"/>
      </g>
     </g>
    </g>
    <g id="ytick_9">
     <g id="line2d_33">
      <g>
       <use xlink:href="#mb2f52a54fe" x="296.029134" y="54.218144" style="stroke: #000000; stroke-width: 0.3"/>
      </g>
     </g>
     <g id="text_23">
      <!-- 0.090 -->
      <g transform="translate(299.529134 57.081269) scale(0.08 -0.08)">
       <use xlink:href="#ArialMT-2212"/>
       <use xlink:href="#ArialMT-30" transform="translate(58.398438 0)"/>
       <use xlink:href="#ArialMT-2e" transform="translate(114.013672 0)"/>
       <use xlink:href="#ArialMT-30" transform="translate(141.796875 0)"/>
       <use xlink:href="#ArialMT-39" transform="translate(197.412109 0)"/>
       <use xlink:href="#ArialMT-30" transform="translate(253.027344 0)"/>
      </g>
     </g>
    </g>
    <g id="ytick_10">
     <g id="line2d_34">
      <g>
       <use xlink:href="#mb2f52a54fe" x="296.029134" y="36.96378" style="stroke: #000000; stroke-width: 0.3"/>
      </g>
     </g>
     <g id="text_24">
      <!-- 0.015 -->
      <g transform="translate(299.529134 39.826905) scale(0.08 -0.08)">
       <use xlink:href="#ArialMT-2212"/>
       <use xlink:href="#ArialMT-30" transform="translate(58.398438 0)"/>
       <use xlink:href="#ArialMT-2e" transform="translate(114.013672 0)"/>
       <use xlink:href="#ArialMT-30" transform="translate(141.796875 0)"/>
       <use xlink:href="#ArialMT-31" transform="translate(197.412109 0)"/>
       <use xlink:href="#ArialMT-35" transform="translate(253.027344 0)"/>
      </g>
     </g>
    </g>
    <g id="text_25">
     <!-- Formation Energy (eV/atom) -->
     <g transform="translate(335.498821 179.408077) rotate(-90) scale(0.1 -0.1)">
      <defs>
       <path id="ArialMT-46" d="M 525 0 
L 525 4581 
L 3616 4581 
L 3616 4041 
L 1131 4041 
L 1131 2622 
L 3281 2622 
L 3281 2081 
L 1131 2081 
L 1131 0 
L 525 0 
z
" transform="scale(0.015625)"/>
       <path id="ArialMT-6f" d="M 213 1659 
Q 213 2581 725 3025 
Q 1153 3394 1769 3394 
Q 2453 3394 2887 2945 
Q 3322 2497 3322 1706 
Q 3322 1066 3130 698 
Q 2938 331 2570 128 
Q 2203 -75 1769 -75 
Q 1072 -75 642 372 
Q 213 819 213 1659 
z
M 791 1659 
Q 791 1022 1069 705 
Q 1347 388 1769 388 
Q 2188 388 2466 706 
Q 2744 1025 2744 1678 
Q 2744 2294 2464 2611 
Q 2184 2928 1769 2928 
Q 1347 2928 1069 2612 
Q 791 2297 791 1659 
z
" transform="scale(0.015625)"/>
       <path id="ArialMT-72" d="M 416 0 
L 416 3319 
L 922 3319 
L 922 2816 
Q 1116 3169 1280 3281 
Q 1444 3394 1641 3394 
Q 1925 3394 2219 3213 
L 2025 2691 
Q 1819 2813 1613 2813 
Q 1428 2813 1281 2702 
Q 1134 2591 1072 2394 
Q 978 2094 978 1738 
L 978 0 
L 416 0 
z
" transform="scale(0.015625)"/>
       <path id="ArialMT-6d" d="M 422 0 
L 422 3319 
L 925 3319 
L 925 2853 
Q 1081 3097 1340 3245 
Q 1600 3394 1931 3394 
Q 2300 3394 2536 3241 
Q 2772 3088 2869 2813 
Q 3263 3394 3894 3394 
Q 4388 3394 4653 3120 
Q 4919 2847 4919 2278 
L 4919 0 
L 4359 0 
L 4359 2091 
Q 4359 2428 4304 2576 
Q 4250 2725 4106 2815 
Q 3963 2906 3769 2906 
Q 3419 2906 3187 2673 
Q 2956 2441 2956 1928 
L 2956 0 
L 2394 0 
L 2394 2156 
Q 2394 2531 2256 2718 
Q 2119 2906 1806 2906 
Q 1569 2906 1367 2781 
Q 1166 2656 1075 2415 
Q 984 2175 984 1722 
L 984 0 
L 422 0 
z
" transform="scale(0.015625)"/>
       <path id="ArialMT-61" d="M 2588 409 
Q 2275 144 1986 34 
Q 1697 -75 1366 -75 
Q 819 -75 525 192 
Q 231 459 231 875 
Q 231 1119 342 1320 
Q 453 1522 633 1644 
Q 813 1766 1038 1828 
Q 1203 1872 1538 1913 
Q 2219 1994 2541 2106 
Q 2544 2222 2544 2253 
Q 2544 2597 2384 2738 
Q 2169 2928 1744 2928 
Q 1347 2928 1158 2789 
Q 969 2650 878 2297 
L 328 2372 
Q 403 2725 575 2942 
Q 747 3159 1072 3276 
Q 1397 3394 1825 3394 
Q 2250 3394 2515 3294 
Q 2781 3194 2906 3042 
Q 3031 2891 3081 2659 
Q 3109 2516 3109 2141 
L 3109 1391 
Q 3109 606 3145 398 
Q 3181 191 3288 0 
L 2700 0 
Q 2613 175 2588 409 
z
M 2541 1666 
Q 2234 1541 1622 1453 
Q 1275 1403 1131 1340 
Q 988 1278 909 1158 
Q 831 1038 831 891 
Q 831 666 1001 516 
Q 1172 366 1500 366 
Q 1825 366 2078 508 
Q 2331 650 2450 897 
Q 2541 1088 2541 1459 
L 2541 1666 
z
" transform="scale(0.015625)"/>
       <path id="ArialMT-74" d="M 1650 503 
L 1731 6 
Q 1494 -44 1306 -44 
Q 1000 -44 831 53 
Q 663 150 594 308 
Q 525 466 525 972 
L 525 2881 
L 113 2881 
L 113 3319 
L 525 3319 
L 525 4141 
L 1084 4478 
L 1084 3319 
L 1650 3319 
L 1650 2881 
L 1084 2881 
L 1084 941 
Q 1084 700 1114 631 
Q 1144 563 1211 522 
Q 1278 481 1403 481 
Q 1497 481 1650 503 
z
" transform="scale(0.015625)"/>
       <path id="ArialMT-69" d="M 425 3934 
L 425 4581 
L 988 4581 
L 988 3934 
L 425 3934 
z
M 425 0 
L 425 3319 
L 988 3319 
L 988 0 
L 425 0 
z
" transform="scale(0.015625)"/>
       <path id="ArialMT-6e" d="M 422 0 
L 422 3319 
L 928 3319 
L 928 2847 
Q 1294 3394 1984 3394 
Q 2284 3394 2536 3286 
Q 2788 3178 2913 3003 
Q 3038 2828 3088 2588 
Q 3119 2431 3119 2041 
L 3119 0 
L 2556 0 
L 2556 2019 
Q 2556 2363 2490 2533 
Q 2425 2703 2258 2804 
Q 2091 2906 1866 2906 
Q 1506 2906 1245 2678 
Q 984 2450 984 1813 
L 984 0 
L 422 0 
z
" transform="scale(0.015625)"/>
       <path id="ArialMT-20" transform="scale(0.015625)"/>
       <path id="ArialMT-45" d="M 506 0 
L 506 4581 
L 3819 4581 
L 3819 4041 
L 1113 4041 
L 1113 2638 
L 3647 2638 
L 3647 2100 
L 1113 2100 
L 1113 541 
L 3925 541 
L 3925 0 
L 506 0 
z
" transform="scale(0.015625)"/>
       <path id="ArialMT-65" d="M 2694 1069 
L 3275 997 
Q 3138 488 2766 206 
Q 2394 -75 1816 -75 
Q 1088 -75 661 373 
Q 234 822 234 1631 
Q 234 2469 665 2931 
Q 1097 3394 1784 3394 
Q 2450 3394 2872 2941 
Q 3294 2488 3294 1666 
Q 3294 1616 3291 1516 
L 816 1516 
Q 847 969 1125 678 
Q 1403 388 1819 388 
Q 2128 388 2347 550 
Q 2566 713 2694 1069 
z
M 847 1978 
L 2700 1978 
Q 2663 2397 2488 2606 
Q 2219 2931 1791 2931 
Q 1403 2931 1139 2672 
Q 875 2413 847 1978 
z
" transform="scale(0.015625)"/>
       <path id="ArialMT-67" d="M 319 -275 
L 866 -356 
Q 900 -609 1056 -725 
Q 1266 -881 1628 -881 
Q 2019 -881 2231 -725 
Q 2444 -569 2519 -288 
Q 2563 -116 2559 434 
Q 2191 0 1641 0 
Q 956 0 581 494 
Q 206 988 206 1678 
Q 206 2153 378 2554 
Q 550 2956 876 3175 
Q 1203 3394 1644 3394 
Q 2231 3394 2613 2919 
L 2613 3319 
L 3131 3319 
L 3131 450 
Q 3131 -325 2973 -648 
Q 2816 -972 2473 -1159 
Q 2131 -1347 1631 -1347 
Q 1038 -1347 672 -1080 
Q 306 -813 319 -275 
z
M 784 1719 
Q 784 1066 1043 766 
Q 1303 466 1694 466 
Q 2081 466 2343 764 
Q 2606 1063 2606 1700 
Q 2606 2309 2336 2618 
Q 2066 2928 1684 2928 
Q 1309 2928 1046 2623 
Q 784 2319 784 1719 
z
" transform="scale(0.015625)"/>
       <path id="ArialMT-79" d="M 397 -1278 
L 334 -750 
Q 519 -800 656 -800 
Q 844 -800 956 -737 
Q 1069 -675 1141 -563 
Q 1194 -478 1313 -144 
Q 1328 -97 1363 -6 
L 103 3319 
L 709 3319 
L 1400 1397 
Q 1534 1031 1641 628 
Q 1738 1016 1872 1384 
L 2581 3319 
L 3144 3319 
L 1881 -56 
Q 1678 -603 1566 -809 
Q 1416 -1088 1222 -1217 
Q 1028 -1347 759 -1347 
Q 597 -1347 397 -1278 
z
" transform="scale(0.015625)"/>
       <path id="ArialMT-28" d="M 1497 -1347 
Q 1031 -759 709 28 
Q 388 816 388 1659 
Q 388 2403 628 3084 
Q 909 3875 1497 4659 
L 1900 4659 
Q 1522 4009 1400 3731 
Q 1209 3300 1100 2831 
Q 966 2247 966 1656 
Q 966 153 1900 -1347 
L 1497 -1347 
z
" transform="scale(0.015625)"/>
       <path id="ArialMT-56" d="M 1803 0 
L 28 4581 
L 684 4581 
L 1875 1253 
Q 2019 853 2116 503 
Q 2222 878 2363 1253 
L 3600 4581 
L 4219 4581 
L 2425 0 
L 1803 0 
z
" transform="scale(0.015625)"/>
       <path id="ArialMT-2f" d="M 0 -78 
L 1328 4659 
L 1778 4659 
L 453 -78 
L 0 -78 
z
" transform="scale(0.015625)"/>
       <path id="ArialMT-29" d="M 791 -1347 
L 388 -1347 
Q 1322 153 1322 1656 
Q 1322 2244 1188 2822 
Q 1081 3291 891 3722 
Q 769 4003 388 4659 
L 791 4659 
Q 1378 3875 1659 3084 
Q 1900 2403 1900 1659 
Q 1900 816 1576 28 
Q 1253 -759 791 -1347 
z
" transform="scale(0.015625)"/>
      </defs>
      <use xlink:href="#ArialMT-46"/>
      <use xlink:href="#ArialMT-6f" transform="translate(61.083984 0)"/>
      <use xlink:href="#ArialMT-72" transform="translate(116.699219 0)"/>
      <use xlink:href="#ArialMT-6d" transform="translate(150 0)"/>
      <use xlink:href="#ArialMT-61" transform="translate(233.300781 0)"/>
      <use xlink:href="#ArialMT-74" transform="translate(288.916016 0)"/>
      <use xlink:href="#ArialMT-69" transform="translate(316.699219 0)"/>
      <use xlink:href="#ArialMT-6f" transform="translate(338.916016 0)"/>
      <use xlink:href="#ArialMT-6e" transform="translate(394.53125 0)"/>
      <use xlink:href="#ArialMT-20" transform="translate(450.146484 0)"/>
      <use xlink:href="#ArialMT-45" transform="translate(477.929688 0)"/>
      <use xlink:href="#ArialMT-6e" transform="translate(544.628906 0)"/>
      <use xlink:href="#ArialMT-65" transform="translate(600.244141 0)"/>
      <use xlink:href="#ArialMT-72" transform="translate(655.859375 0)"/>
      <use xlink:href="#ArialMT-67" transform="translate(689.160156 0)"/>
      <use xlink:href="#ArialMT-79" transform="translate(744.775391 0)"/>
      <use xlink:href="#ArialMT-20" transform="translate(794.775391 0)"/>
      <use xlink:href="#ArialMT-28" transform="translate(822.558594 0)"/>
      <use xlink:href="#ArialMT-65" transform="translate(855.859375 0)"/>
      <use xlink:href="#ArialMT-56" transform="translate(911.474609 0)"/>
      <use xlink:href="#ArialMT-2f" transform="translate(978.173828 0)"/>
      <use xlink:href="#ArialMT-61" transform="translate(1005.957031 0)"/>
      <use xlink:href="#ArialMT-74" transform="translate(1061.572266 0)"/>
      <use xlink:href="#ArialMT-6f" transform="translate(1089.355469 0)"/>
      <use xlink:href="#ArialMT-6d" transform="translate(1144.970703 0)"/>
      <use xlink:href="#ArialMT-29" transform="translate(1228.271484 0)"/>
     </g>
    </g>
   </g>
   <g id="LineCollection_1"/>
   <g id="patch_6">
    <path d="M 287.298425 195.703937 
L 291.66378 203.640945 
L 296.029134 195.703937 
L 296.029134 36.96378 
L 291.66378 29.026772 
L 287.298425 36.96378 
L 287.298425 195.703937 
z
" style="fill: none; stroke: #000000; stroke-width: 0.8; stroke-linejoin: miter; stroke-linecap: square"/>
   </g>
  </g>
 </g>
 <defs>
  <clipPath id="pdb9ea39602">
   <rect x="7.2" y="7.2" width="263.622047" height="218.267717"/>
  </clipPath>
  <clipPath id="p787608fe4c">
   <rect x="287.298425" y="36.96378" width="8.730709" height="158.740157"/>
  </clipPath>
 </defs>
</svg>
