<?xml version="1.0" encoding="utf-8" standalone="no"?>
<!DOCTYPE svg PUBLIC "-//W3C//DTD SVG 1.1//EN"
  "http://www.w3.org/Graphics/SVG/1.1/DTD/svg11.dtd">
<svg xmlns:xlink="http://www.w3.org/1999/xlink" width="344.803509pt" height="232.667717pt" viewBox="0 0 344.803509 232.667717" xmlns="http://www.w3.org/2000/svg" version="1.1">
 <metadata>
  <rdf:RDF xmlns:dc="http://purl.org/dc/elements/1.1/" xmlns:cc="http://creativecommons.org/ns#" xmlns:rdf="http://www.w3.org/1999/02/22-rdf-syntax-ns#">
   <cc:Work>
    <dc:type rdf:resource="http://purl.org/dc/dcmitype/StillImage"/>
    <dc:date>2025-12-17T19:50:33.913484</dc:date>
    <dc:format>image/svg+xml</dc:format>
    <dc:creator>
     <cc:Agent>
      <dc:title>Matplotlib v3.10.3, https://matplotlib.org/</dc:title>
     </cc:Agent>
    </dc:creator>
   </cc:Work>
  </rdf:RDF>
 </metadata>
 <defs>
  <style type="text/css">*{stroke-linejoin: round; stroke-linecap: butt}</style>
 </defs>
 <g id="figure_1">
  <g id="patch_1">
   <path d="M 0 232.667717 
L 344.803509 232.667717 
L 344.803509 0 
L 0 0 
z
" style="fill: #ffffff"/>
  </g>
  <g id="axes_1">
   <g id="patch_2">
    <path d="M 7.2 225.467717 
L 270.822047 225.467717 
L 270.822047 7.2 
L 7.2 7.2 
z
" style="fill: #ffffff"/>
   </g>
   <g id="TriContourSet_1">
    <path d="M 142.234845 214.554331 
L 137.509721 207.449552 
L 136.873524 206.967688 
L 77.083869 207.11029 
L 75.782483 208.924897 
L 74.722389 210.754481 
L 74.407705 214.554331 
L 75.572563 214.554331 
L 139.011024 214.554331 
z
M 136.873524 206.967688 
L 81.277091 201.466188 
L 77.083869 207.11029 
L 75.572563 214.554331 
L 139.011024 214.554331 
z
" clip-path="url(#pb881119bc7)" style="fill: #440154; fill-opacity: 0.7"/>
    <path d="M 74.407705 214.554331 
L 74.722389 210.754481 
L 75.782483 208.924897 
L 77.083869 207.11029 
L 136.873524 206.967688 
L 137.509721 207.449552 
L 142.234845 214.554331 
L 145.979657 214.554331 
L 135.765799 199.196596 
L 134.390591 198.154995 
L 78.875111 198.287403 
L 76.031287 202.252735 
L 73.714739 206.250792 
L 73.027083 214.554331 
z
M 134.390591 198.154995 
L 82.768573 193.046781 
L 78.875111 198.287403 
L 77.083869 207.11029 
L 81.277091 201.466188 
L 136.873524 206.967688 
z
" clip-path="url(#pb881119bc7)" style="fill: #450559; fill-opacity: 0.7"/>
    <path d="M 73.027083 214.554331 
L 73.714739 206.250792 
L 76.031287 202.252735 
L 78.875111 198.287403 
L 134.390591 198.154995 
L 135.765799 199.196596 
L 145.979657 214.554331 
L 149.724468 214.554331 
L 134.021876 190.943641 
L 131.907658 189.342303 
L 80.666353 189.464517 
L 76.280091 195.580572 
L 72.70709 201.747103 
L 71.646461 214.554331 
z
M 131.907658 189.342303 
L 84.260054 184.627373 
L 80.666353 189.464517 
L 78.875111 198.287403 
L 82.768573 193.046781 
L 134.390591 198.154995 
z
" clip-path="url(#pb881119bc7)" style="fill: #470e61; fill-opacity: 0.7"/>
    <path d="M 71.646461 214.554331 
L 72.70709 201.747103 
L 76.280091 195.580572 
L 80.666353 189.464517 
L 131.907658 189.342303 
L 134.021876 190.943641 
L 149.724468 214.554331 
L 153.46928 214.554331 
L 132.277954 182.690685 
L 129.424725 180.52961 
L 82.457595 180.64163 
L 76.528894 188.908409 
L 71.69944 197.243414 
L 70.265839 214.554331 
z
M 129.424725 180.52961 
L 85.751536 176.207966 
L 82.457595 180.64163 
L 80.666353 189.464517 
L 84.260054 184.627373 
L 131.907658 189.342303 
z
" clip-path="url(#pb881119bc7)" style="fill: #48186a; fill-opacity: 0.7"/>
    <path d="M 70.265839 214.554331 
L 71.69944 197.243414 
L 76.528894 188.908409 
L 82.457595 180.64163 
L 129.424725 180.52961 
L 132.277954 182.690685 
L 153.46928 214.554331 
L 157.214092 214.554331 
L 130.534031 174.437729 
L 126.941792 171.716918 
L 84.248837 171.818743 
L 76.777698 182.236246 
L 70.69179 192.739725 
L 68.885217 214.554331 
z
M 126.941792 171.716918 
L 87.243018 167.788558 
L 84.248837 171.818743 
L 82.457595 180.64163 
L 85.751536 176.207966 
L 129.424725 180.52961 
z
" clip-path="url(#pb881119bc7)" style="fill: #482071; fill-opacity: 0.7"/>
    <path d="M 68.885217 214.554331 
L 70.69179 192.739725 
L 76.777698 182.236246 
L 84.248837 171.818743 
L 126.941792 171.716918 
L 130.534031 174.437729 
L 157.214092 214.554331 
L 160.958903 214.554331 
L 128.790109 166.184774 
L 124.458859 162.904225 
L 86.040079 162.995857 
L 77.026501 175.564083 
L 69.68414 188.236035 
L 67.504595 214.554331 
z
M 124.458859 162.904225 
L 88.734499 159.369151 
L 86.040079 162.995857 
L 84.248837 171.818743 
L 87.243018 167.788558 
L 126.941792 171.716918 
z
" clip-path="url(#pb881119bc7)" style="fill: #482979; fill-opacity: 0.7"/>
    <path d="M 67.504595 214.554331 
L 69.68414 188.236035 
L 77.026501 175.564083 
L 86.040079 162.995857 
L 124.458859 162.904225 
L 128.790109 166.184774 
L 160.958903 214.554331 
L 164.703715 214.554331 
L 127.046186 157.931818 
L 121.975926 154.091533 
L 87.831321 154.17297 
L 77.275305 168.89192 
L 68.67649 183.732346 
L 66.123973 214.554331 
z
M 121.975926 154.091533 
L 90.225981 150.949743 
L 87.831321 154.17297 
L 86.040079 162.995857 
L 88.734499 159.369151 
L 124.458859 162.904225 
z
" clip-path="url(#pb881119bc7)" style="fill: #46327e; fill-opacity: 0.7"/>
    <path d="M 66.123973 214.554331 
L 68.67649 183.732346 
L 77.275305 168.89192 
L 87.831321 154.17297 
L 121.975926 154.091533 
L 127.046186 157.931818 
L 164.703715 214.554331 
L 168.448526 214.554331 
L 125.302264 149.678862 
L 119.492993 145.27884 
L 89.622563 145.350083 
L 77.524109 162.219758 
L 67.66884 179.228657 
L 64.74335 214.554331 
z
M 119.492993 145.27884 
L 91.717463 142.530336 
L 89.622563 145.350083 
L 87.831321 154.17297 
L 90.225981 150.949743 
L 121.975926 154.091533 
z
" clip-path="url(#pb881119bc7)" style="fill: #443983; fill-opacity: 0.7"/>
    <path d="M 64.74335 214.554331 
L 67.66884 179.228657 
L 77.524109 162.219758 
L 89.622563 145.350083 
L 119.492993 145.27884 
L 125.302264 149.678862 
L 168.448526 214.554331 
L 172.193338 214.554331 
L 123.558342 141.425907 
L 117.01006 136.466148 
L 91.413805 136.527197 
L 77.772912 155.547595 
L 68.047383 172.332581 
L 66.761775 175.637683 
L 66.450183 177.272909 
L 63.362728 214.554331 
z
M 117.01006 136.466148 
L 93.208944 134.110928 
L 91.413805 136.527197 
L 89.622563 145.350083 
L 91.717463 142.530336 
L 119.492993 145.27884 
z
" clip-path="url(#pb881119bc7)" style="fill: #424186; fill-opacity: 0.7"/>
    <path d="M 63.362728 214.554331 
L 66.450183 177.272909 
L 66.761775 175.637683 
L 68.047383 172.332581 
L 77.772912 155.547595 
L 91.413805 136.527197 
L 117.01006 136.466148 
L 123.558342 141.425907 
L 172.193338 214.554331 
L 175.938149 214.554331 
L 121.814419 133.172951 
L 114.527127 127.653456 
L 93.205047 127.70431 
L 78.021716 148.875432 
L 70.123776 162.506239 
L 65.977907 173.164627 
L 64.973078 178.437953 
L 61.982106 214.554331 
z
M 114.527127 127.653456 
L 94.700426 125.691521 
L 93.205047 127.70431 
L 91.413805 136.527197 
L 93.208944 134.110928 
L 117.01006 136.466148 
z
" clip-path="url(#pb881119bc7)" style="fill: #3f4889; fill-opacity: 0.7"/>
    <path d="M 61.982106 214.554331 
L 64.973078 178.437953 
L 65.977907 173.164627 
L 70.123776 162.506239 
L 78.021716 148.875432 
L 93.205047 127.70431 
L 114.527127 127.653456 
L 121.814419 133.172951 
L 175.938149 214.554331 
L 179.682961 214.554331 
L 120.070497 124.919995 
L 112.044194 118.840763 
L 94.996289 118.881424 
L 78.270519 142.203269 
L 72.200169 152.679897 
L 65.194039 170.691572 
L 63.495973 179.602998 
L 60.601484 214.554331 
z
M 112.044194 118.840763 
L 96.191908 117.272113 
L 94.996289 118.881424 
L 93.205047 127.70431 
L 94.700426 125.691521 
L 114.527127 127.653456 
z
" clip-path="url(#pb881119bc7)" style="fill: #3c508b; fill-opacity: 0.7"/>
    <path d="M 60.601484 214.554331 
L 63.495973 179.602998 
L 65.194039 170.691572 
L 72.200169 152.679897 
L 78.270519 142.203269 
L 94.996289 118.881424 
L 112.044194 118.840763 
L 120.070497 124.919995 
L 179.682961 214.554331 
L 183.427773 214.554331 
L 118.326574 116.66704 
L 109.561261 110.028071 
L 96.78753 110.058537 
L 78.519323 135.531106 
L 74.276562 142.853555 
L 64.410172 168.218517 
L 62.018868 180.768042 
L 59.220862 214.554331 
z
M 109.561261 110.028071 
L 97.683389 108.852706 
L 96.78753 110.058537 
L 94.996289 118.881424 
L 96.191908 117.272113 
L 112.044194 118.840763 
z
" clip-path="url(#pb881119bc7)" style="fill: #39568c; fill-opacity: 0.7"/>
    <path d="M 59.220862 214.554331 
L 62.018868 180.768042 
L 64.410172 168.218517 
L 74.276562 142.853555 
L 78.519323 135.531106 
L 96.78753 110.058537 
L 109.561261 110.028071 
L 118.326574 116.66704 
L 183.427773 214.554331 
L 187.172584 214.554331 
L 116.582652 108.414084 
L 107.078328 101.215378 
L 98.578772 101.23565 
L 78.768126 128.858944 
L 76.352955 133.027212 
L 63.626304 165.745462 
L 60.541763 181.933087 
L 57.84024 214.554331 
z
M 107.078328 101.215378 
L 99.174871 100.433298 
L 98.578772 101.23565 
L 96.78753 110.058537 
L 97.683389 108.852706 
L 109.561261 110.028071 
z
" clip-path="url(#pb881119bc7)" style="fill: #355e8d; fill-opacity: 0.7"/>
    <path d="M 57.84024 214.554331 
L 60.541763 181.933087 
L 63.626304 165.745462 
L 76.352955 133.027212 
L 78.768126 128.858944 
L 98.578772 101.23565 
L 107.078328 101.215378 
L 116.582652 108.414084 
L 187.172584 214.554331 
L 190.917396 214.554331 
L 114.838729 100.161128 
L 104.595395 92.402686 
L 100.370014 92.412764 
L 79.01693 122.186781 
L 78.429348 123.20087 
L 62.842437 163.272407 
L 59.064658 183.098131 
L 56.459618 214.554331 
z
M 104.595395 92.402686 
L 100.666353 92.013891 
L 100.370014 92.412764 
L 98.578772 101.23565 
L 99.174871 100.433298 
L 107.078328 101.215378 
z
" clip-path="url(#pb881119bc7)" style="fill: #32658e; fill-opacity: 0.7"/>
    <path d="M 76.03136 124.877469 
L 62.058569 160.799351 
L 57.587553 184.263175 
L 55.078996 214.554331 
L 56.459618 214.554331 
L 59.064658 183.098131 
L 62.842437 163.272407 
L 78.429348 123.20087 
L 79.01693 122.186781 
L 100.370014 92.412764 
L 104.595395 92.402686 
L 114.838729 100.161128 
L 190.917396 214.554331 
L 194.662207 214.554331 
L 113.094807 91.908173 
L 102.174701 83.637134 
L 102.140807 83.690601 
L 79.096922 120.041637 
z
M 100.370014 92.412764 
L 100.666353 92.013891 
L 104.595395 92.402686 
L 102.140807 83.690601 
z
" clip-path="url(#pb881119bc7)" style="fill: #2f6b8e; fill-opacity: 0.7"/>
    <path d="M 102.174701 83.637134 
L 113.094807 91.908173 
L 194.662207 214.554331 
L 198.407019 214.554331 
L 111.350884 83.655217 
L 105.143622 78.953751 
z
M 71.513171 132.004777 
L 61.274701 158.326296 
L 56.110448 185.42822 
L 53.698373 214.554331 
L 55.078996 214.554331 
L 57.587553 184.263175 
L 62.058569 160.799351 
L 76.03136 124.877469 
z
" clip-path="url(#pb881119bc7)" style="fill: #2c718e; fill-opacity: 0.7"/>
    <path d="M 201.001609 214.554331 
L 196.848642 208.00315 
L 133.230337 110.922778 
L 109.606962 75.402261 
L 108.112543 74.270368 
L 105.143622 78.953751 
L 111.350884 83.655217 
L 198.407019 214.554331 
L 198.925125 214.554331 
z
M 66.994981 139.132085 
L 60.490834 155.853241 
L 54.633343 186.593264 
L 52.317751 214.554331 
L 53.698373 214.554331 
L 56.110448 185.42822 
L 61.274701 158.326296 
L 71.513171 132.004777 
z
" clip-path="url(#pb881119bc7)" style="fill: #2a778e; fill-opacity: 0.7"/>
    <path d="M 203.411509 214.554331 
L 194.438741 200.400058 
L 109.917795 71.422637 
L 109.053973 72.78529 
L 108.112543 74.270368 
L 109.606962 75.402261 
L 133.230337 110.922778 
L 196.848642 208.00315 
L 201.001609 214.554331 
z
M 62.476792 146.259393 
L 59.706966 153.380186 
L 53.156237 187.758309 
L 50.937129 214.554331 
L 52.317751 214.554331 
L 54.633343 186.593264 
L 60.490834 155.853241 
L 66.994981 139.132085 
z
" clip-path="url(#pb881119bc7)" style="fill: #277e8e; fill-opacity: 0.7"/>
    <path d="M 205.82141 214.554331 
L 192.02884 192.796966 
L 111.182718 69.427259 
L 109.917795 71.422637 
L 194.438741 200.400058 
L 203.411509 214.554331 
z
M 58.662071 152.277001 
L 51.679132 188.923353 
L 49.556507 214.554331 
L 50.937129 214.554331 
L 53.156237 187.758309 
L 59.706966 153.380186 
L 62.476792 146.259393 
L 59.125555 151.545868 
z
" clip-path="url(#pb881119bc7)" style="fill: #25838e; fill-opacity: 0.7"/>
    <path d="M 208.231311 214.554331 
L 189.61894 185.193874 
L 112.447641 67.431881 
L 111.182718 69.427259 
L 192.02884 192.796966 
L 205.82141 214.554331 
z
M 56.867559 155.107788 
L 50.202027 190.088398 
L 48.175885 214.554331 
L 49.556507 214.554331 
L 51.679132 188.923353 
L 58.662071 152.277001 
z
" clip-path="url(#pb881119bc7)" style="fill: #238a8d; fill-opacity: 0.7"/>
    <path d="M 210.641212 214.554331 
L 187.209039 177.590782 
L 113.712564 65.436503 
L 112.447641 67.431881 
L 189.61894 185.193874 
L 208.231311 214.554331 
z
M 55.073048 157.938576 
L 48.724922 191.253442 
L 46.795263 214.554331 
L 48.175885 214.554331 
L 50.202027 190.088398 
L 56.867559 155.107788 
z
" clip-path="url(#pb881119bc7)" style="fill: #21918c; fill-opacity: 0.7"/>
    <path d="M 213.051113 214.554331 
L 184.799138 169.987691 
L 114.977487 63.441125 
L 113.712564 65.436503 
L 187.209039 177.590782 
L 210.641212 214.554331 
z
M 53.278536 160.769364 
L 47.247817 192.418486 
L 45.414641 214.554331 
L 46.795263 214.554331 
L 48.724922 191.253442 
L 55.073048 157.938576 
z
" clip-path="url(#pb881119bc7)" style="fill: #1f968b; fill-opacity: 0.7"/>
    <path d="M 215.461013 214.554331 
L 182.389237 162.384599 
L 116.24241 61.445747 
L 114.977487 63.441125 
L 184.799138 169.987691 
L 213.051113 214.554331 
z
M 51.484025 163.600152 
L 45.770712 193.583531 
L 44.034019 214.554331 
L 45.414641 214.554331 
L 47.247817 192.418486 
L 53.278536 160.769364 
z
" clip-path="url(#pb881119bc7)" style="fill: #1e9d89; fill-opacity: 0.7"/>
    <path d="M 217.870914 214.554331 
L 179.979337 154.781507 
L 117.507333 59.450369 
L 116.24241 61.445747 
L 182.389237 162.384599 
L 215.461013 214.554331 
z
M 49.689514 166.430939 
L 44.293607 194.748575 
L 42.653396 214.554331 
L 44.034019 214.554331 
L 45.770712 193.583531 
L 51.484025 163.600152 
z
" clip-path="url(#pb881119bc7)" style="fill: #1fa287; fill-opacity: 0.7"/>
    <path d="M 220.280815 214.554331 
L 177.569436 147.178415 
L 118.772256 57.454991 
L 117.507333 59.450369 
L 179.979337 154.781507 
L 217.870914 214.554331 
z
M 47.895002 169.261727 
L 42.816502 195.91362 
L 41.272774 214.554331 
L 42.653396 214.554331 
L 44.293607 194.748575 
L 49.689514 166.430939 
z
" clip-path="url(#pb881119bc7)" style="fill: #23a983; fill-opacity: 0.7"/>
    <path d="M 222.690716 214.554331 
L 175.159535 139.575323 
L 120.037179 55.459613 
L 118.772256 57.454991 
L 177.569436 147.178415 
L 220.280815 214.554331 
z
M 46.100491 172.092515 
L 41.339397 197.078664 
L 39.892152 214.554331 
L 41.272774 214.554331 
L 42.816502 195.91362 
L 47.895002 169.261727 
z
" clip-path="url(#pb881119bc7)" style="fill: #28ae80; fill-opacity: 0.7"/>
    <path d="M 225.100616 214.554331 
L 172.749634 131.972231 
L 121.302102 53.464235 
L 120.037179 55.459613 
L 175.159535 139.575323 
L 222.690716 214.554331 
z
M 44.30598 174.923302 
L 39.862292 198.243709 
L 38.51153 214.554331 
L 39.892152 214.554331 
L 41.339397 197.078664 
L 46.100491 172.092515 
z
" clip-path="url(#pb881119bc7)" style="fill: #31b57b; fill-opacity: 0.7"/>
    <path d="M 227.510517 214.554331 
L 170.339733 124.369139 
L 122.567025 51.468857 
L 121.302102 53.464235 
L 172.749634 131.972231 
L 225.100616 214.554331 
z
M 42.511468 177.75409 
L 38.385187 199.408753 
L 37.130908 214.554331 
L 38.51153 214.554331 
L 39.862292 198.243709 
L 44.30598 174.923302 
z
" clip-path="url(#pb881119bc7)" style="fill: #3aba76; fill-opacity: 0.7"/>
    <path d="M 229.920418 214.554331 
L 167.929833 116.766047 
L 123.831948 49.473479 
L 122.567025 51.468857 
L 170.339733 124.369139 
L 227.510517 214.554331 
z
M 40.716957 180.584878 
L 36.908081 200.573798 
L 35.750286 214.554331 
L 37.130908 214.554331 
L 38.385187 199.408753 
L 42.511468 177.75409 
z
" clip-path="url(#pb881119bc7)" style="fill: #46c06f; fill-opacity: 0.7"/>
    <path d="M 232.330319 214.554331 
L 165.519932 109.162955 
L 125.096871 47.478101 
L 123.831948 49.473479 
L 167.929833 116.766047 
L 229.920418 214.554331 
z
M 38.922445 183.415666 
L 35.430976 201.738842 
L 34.369664 214.554331 
L 35.750286 214.554331 
L 36.908081 200.573798 
L 40.716957 180.584878 
z
" clip-path="url(#pb881119bc7)" style="fill: #54c568; fill-opacity: 0.7"/>
    <path d="M 234.740219 214.554331 
L 163.110031 101.559863 
L 126.361794 45.482723 
L 125.096871 47.478101 
L 165.519932 109.162955 
L 232.330319 214.554331 
z
M 37.127934 186.246453 
L 33.953871 202.903886 
L 32.989042 214.554331 
L 34.369664 214.554331 
L 35.430976 201.738842 
L 38.922445 183.415666 
z
" clip-path="url(#pb881119bc7)" style="fill: #60ca60; fill-opacity: 0.7"/>
    <path d="M 237.15012 214.554331 
L 160.70013 93.956771 
L 127.626717 43.487345 
L 126.361794 45.482723 
L 163.110031 101.559863 
L 234.740219 214.554331 
z
M 35.333423 189.077241 
L 32.476766 204.068931 
L 31.608419 214.554331 
L 32.989042 214.554331 
L 33.953871 202.903886 
L 37.127934 186.246453 
z
" clip-path="url(#pb881119bc7)" style="fill: #70cf57; fill-opacity: 0.7"/>
    <path d="M 239.560021 214.554331 
L 158.29023 86.353679 
L 128.89164 41.491967 
L 127.626717 43.487345 
L 160.70013 93.956771 
L 237.15012 214.554331 
z
M 33.538911 191.908029 
L 30.999661 205.233975 
L 30.227797 214.554331 
L 31.608419 214.554331 
L 32.476766 204.068931 
L 35.333423 189.077241 
z
" clip-path="url(#pb881119bc7)" style="fill: #7fd34e; fill-opacity: 0.7"/>
    <path d="M 241.969922 214.554331 
L 155.880329 78.750587 
L 130.156563 39.496589 
L 128.89164 41.491967 
L 158.29023 86.353679 
L 239.560021 214.554331 
z
M 31.7444 194.738817 
L 29.522556 206.39902 
L 28.847175 214.554331 
L 30.227797 214.554331 
L 30.999661 205.233975 
L 33.538911 191.908029 
z
" clip-path="url(#pb881119bc7)" style="fill: #90d743; fill-opacity: 0.7"/>
    <path d="M 244.379822 214.554331 
L 153.470428 71.147495 
L 131.421486 37.501211 
L 130.156563 39.496589 
L 155.880329 78.750587 
L 241.969922 214.554331 
z
M 29.949889 197.569604 
L 28.045451 207.564064 
L 27.466553 214.554331 
L 28.847175 214.554331 
L 29.522556 206.39902 
L 31.7444 194.738817 
z
" clip-path="url(#pb881119bc7)" style="fill: #a0da39; fill-opacity: 0.7"/>
    <path d="M 246.789723 214.554331 
L 151.060527 63.544403 
L 132.686409 35.505833 
L 131.421486 37.501211 
L 153.470428 71.147495 
L 244.379822 214.554331 
z
M 28.155377 200.400392 
L 26.568346 208.729109 
L 26.085931 214.554331 
L 27.466553 214.554331 
L 28.045451 207.564064 
L 29.949889 197.569604 
z
" clip-path="url(#pb881119bc7)" style="fill: #b2dd2d; fill-opacity: 0.7"/>
    <path d="M 249.199624 214.554331 
L 148.650627 55.941311 
L 133.951332 33.510455 
L 132.686409 35.505833 
L 151.060527 63.544403 
L 246.789723 214.554331 
z
M 26.360866 203.23118 
L 25.091241 209.894153 
L 24.705309 214.554331 
L 26.085931 214.554331 
L 26.568346 208.729109 
L 28.155377 200.400392 
z
" clip-path="url(#pb881119bc7)" style="fill: #c5e021; fill-opacity: 0.7"/>
    <path d="M 251.609525 214.554331 
L 146.240726 48.338219 
L 135.216255 31.515077 
L 133.951332 33.510455 
L 148.650627 55.941311 
L 249.199624 214.554331 
z
M 24.566354 206.061968 
L 23.614136 211.059197 
L 23.324687 214.554331 
L 24.705309 214.554331 
L 25.091241 209.894153 
L 26.360866 203.23118 
z
" clip-path="url(#pb881119bc7)" style="fill: #d5e21a; fill-opacity: 0.7"/>
    <path d="M 254.019425 214.554331 
L 143.830825 40.735127 
L 136.481178 29.519699 
L 135.216255 31.515077 
L 146.240726 48.338219 
L 251.609525 214.554331 
z
M 22.771843 208.892755 
L 22.137031 212.224242 
L 21.944065 214.554331 
L 23.324687 214.554331 
L 23.614136 211.059197 
L 24.566354 206.061968 
z
" clip-path="url(#pb881119bc7)" style="fill: #e7e419; fill-opacity: 0.7"/>
    <path d="M 256.429326 214.554331 
L 141.420924 33.132035 
L 137.746101 27.524321 
L 136.481178 29.519699 
L 143.830825 40.735127 
L 254.019425 214.554331 
z
M 20.977332 211.723543 
L 20.659925 213.389286 
L 20.563442 214.554331 
L 21.944065 214.554331 
L 22.137031 212.224242 
L 22.771843 208.892755 
z
" clip-path="url(#pb881119bc7)" style="fill: #f6e620; fill-opacity: 0.7"/>
    <path d="M 137.746101 27.524321 
L 141.420924 33.132035 
L 256.429326 214.554331 
L 258.839227 214.554331 
L 139.011024 25.528943 
z
M 20.563442 214.554331 
L 20.659925 213.389286 
L 20.977332 211.723543 
L 19.18282 214.554331 
z
" clip-path="url(#pb881119bc7)" style="fill: #fde725; fill-opacity: 0.7"/>
   </g>
   <g id="matplotlib.axis_1"/>
   <g id="matplotlib.axis_2"/>
   <g id="line2d_1">
    <path d="M 139.011024 25.528943 
L 258.839227 214.554331 
" clip-path="url(#pb881119bc7)" style="fill: none; stroke: #555555; stroke-opacity: 0.9; stroke-width: 0.5; stroke-linecap: square"/>
   </g>
   <g id="line2d_2">
    <path d="M 67.114102 176.749253 
L 75.572563 214.554331 
" clip-path="url(#pb881119bc7)" style="fill: none; stroke: #555555; stroke-opacity: 0.9; stroke-width: 0.5; stroke-linecap: square"/>
   </g>
   <g id="line2d_3">
    <path d="M 139.011024 214.554331 
L 75.572563 214.554331 
" clip-path="url(#pb881119bc7)" style="fill: none; stroke: #555555; stroke-opacity: 0.9; stroke-width: 0.5; stroke-linecap: square"/>
   </g>
   <g id="line2d_4">
    <path d="M 79.096922 120.041637 
L 67.114102 176.749253 
" clip-path="url(#pb881119bc7)" style="fill: none; stroke: #555555; stroke-opacity: 0.9; stroke-width: 0.5; stroke-linecap: square"/>
   </g>
   <g id="line2d_5">
    <path d="M 198.925125 214.554331 
L 139.011024 25.528943 
" clip-path="url(#pb881119bc7)" style="fill: none; stroke: #555555; stroke-opacity: 0.9; stroke-width: 0.5; stroke-linecap: square"/>
   </g>
   <g id="line2d_6">
    <path d="M 109.053973 72.78529 
L 139.011024 214.554331 
" clip-path="url(#pb881119bc7)" style="fill: none; stroke: #555555; stroke-opacity: 0.9; stroke-width: 0.5; stroke-linecap: square"/>
   </g>
   <g id="line2d_7">
    <path d="M 79.096922 120.041637 
L 102.140807 83.690601 
" clip-path="url(#pb881119bc7)" style="fill: none; stroke: #555555; stroke-opacity: 0.9; stroke-width: 0.5; stroke-linecap: square"/>
   </g>
   <g id="line2d_8">
    <path d="M 75.572563 214.554331 
L 19.18282 214.554331 
" clip-path="url(#pb881119bc7)" style="fill: none; stroke: #555555; stroke-opacity: 0.9; stroke-width: 0.5; stroke-linecap: square"/>
   </g>
   <g id="line2d_9">
    <path d="M 102.140807 83.690601 
L 80.271708 207.14157 
" clip-path="url(#pb881119bc7)" style="fill: none; stroke: #555555; stroke-opacity: 0.9; stroke-width: 0.5; stroke-linecap: square"/>
   </g>
   <g id="line2d_10">
    <path d="M 67.114102 176.749253 
L 19.18282 214.554331 
" clip-path="url(#pb881119bc7)" style="fill: none; stroke: #555555; stroke-opacity: 0.9; stroke-width: 0.5; stroke-linecap: square"/>
   </g>
   <g id="line2d_11">
    <path d="M 79.096922 120.041637 
L 59.125555 151.545868 
" clip-path="url(#pb881119bc7)" style="fill: none; stroke: #555555; stroke-opacity: 0.9; stroke-width: 0.5; stroke-linecap: square"/>
   </g>
   <g id="line2d_12">
    <path d="M 109.053973 72.78529 
L 198.925125 214.554331 
" clip-path="url(#pb881119bc7)" style="fill: none; stroke: #555555; stroke-opacity: 0.9; stroke-width: 0.5; stroke-linecap: square"/>
   </g>
   <g id="line2d_13">
    <path d="M 109.053973 72.78529 
L 102.140807 83.690601 
" clip-path="url(#pb881119bc7)" style="fill: none; stroke: #555555; stroke-opacity: 0.9; stroke-width: 0.5; stroke-linecap: square"/>
   </g>
   <g id="line2d_14">
    <path d="M 102.140807 83.690601 
L 75.572563 214.554331 
" clip-path="url(#pb881119bc7)" style="fill: none; stroke: #555555; stroke-opacity: 0.9; stroke-width: 0.5; stroke-linecap: square"/>
   </g>
   <g id="line2d_15">
    <path d="M 79.096922 120.041637 
L 75.572563 214.554331 
" clip-path="url(#pb881119bc7)" style="fill: none; stroke: #555555; stroke-opacity: 0.9; stroke-width: 0.5; stroke-linecap: square"/>
   </g>
   <g id="line2d_16">
    <path d="M 75.572563 214.554331 
L 80.271708 207.14157 
" clip-path="url(#pb881119bc7)" style="fill: none; stroke: #555555; stroke-opacity: 0.9; stroke-width: 0.5; stroke-linecap: square"/>
   </g>
   <g id="line2d_17">
    <path d="M 59.125555 151.545868 
L 19.18282 214.554331 
" clip-path="url(#pb881119bc7)" style="fill: none; stroke: #555555; stroke-opacity: 0.9; stroke-width: 0.5; stroke-linecap: square"/>
   </g>
   <g id="line2d_18">
    <path d="M 139.011024 214.554331 
L 198.925125 214.554331 
" clip-path="url(#pb881119bc7)" style="fill: none; stroke: #555555; stroke-opacity: 0.9; stroke-width: 0.5; stroke-linecap: square"/>
   </g>
   <g id="line2d_19">
    <path d="M 139.011024 214.554331 
L 102.140807 83.690601 
" clip-path="url(#pb881119bc7)" style="fill: none; stroke: #555555; stroke-opacity: 0.9; stroke-width: 0.5; stroke-linecap: square"/>
   </g>
   <g id="line2d_20">
    <path d="M 109.053973 72.78529 
L 139.011024 25.528943 
" clip-path="url(#pb881119bc7)" style="fill: none; stroke: #555555; stroke-opacity: 0.9; stroke-width: 0.5; stroke-linecap: square"/>
   </g>
   <g id="line2d_21">
    <path d="M 139.011024 214.554331 
L 80.271708 207.14157 
" clip-path="url(#pb881119bc7)" style="fill: none; stroke: #555555; stroke-opacity: 0.9; stroke-width: 0.5; stroke-linecap: square"/>
   </g>
   <g id="line2d_22">
    <path d="M 198.925125 214.554331 
L 258.839227 214.554331 
" clip-path="url(#pb881119bc7)" style="fill: none; stroke: #555555; stroke-opacity: 0.9; stroke-width: 0.5; stroke-linecap: square"/>
   </g>
   <g id="line2d_23">
    <path d="M 59.125555 151.545868 
L 67.114102 176.749253 
" clip-path="url(#pb881119bc7)" style="fill: none; stroke: #555555; stroke-opacity: 0.9; stroke-width: 0.5; stroke-linecap: square"/>
   </g>
   <g id="PathCollection_1">
    <defs>
     <path id="m548698eaeb" d="M 0 2.738613 
C 0.726289 2.738613 1.422928 2.450055 1.936492 1.936492 
C 2.450055 1.422928 2.738613 0.726289 2.738613 0 
C 2.738613 -0.726289 2.450055 -1.422928 1.936492 -1.936492 
C 1.422928 -2.450055 0.726289 -2.738613 0 -2.738613 
C -0.726289 -2.738613 -1.422928 -2.450055 -1.936492 -1.936492 
C -2.450055 -1.422928 -2.738613 -0.726289 -2.738613 0 
C -2.738613 0.726289 -2.450055 1.422928 -1.936492 1.936492 
C -1.422928 2.450055 -0.726289 2.738613 0 2.738613 
z
" style="stroke: #008000"/>
    </defs>
    <g clip-path="url(#pb881119bc7)">
     <use xlink:href="#m548698eaeb" x="139.011024" y="25.528943" style="fill: #008000; stroke: #008000"/>
     <use xlink:href="#m548698eaeb" x="258.839227" y="214.554331" style="fill: #008000; stroke: #008000"/>
     <use xlink:href="#m548698eaeb" x="67.114102" y="176.749253" style="fill: #008000; stroke: #008000"/>
     <use xlink:href="#m548698eaeb" x="75.572563" y="214.554331" style="fill: #008000; stroke: #008000"/>
     <use xlink:href="#m548698eaeb" x="139.011024" y="214.554331" style="fill: #008000; stroke: #008000"/>
     <use xlink:href="#m548698eaeb" x="79.096922" y="120.041637" style="fill: #008000; stroke: #008000"/>
     <use xlink:href="#m548698eaeb" x="198.925125" y="214.554331" style="fill: #008000; stroke: #008000"/>
     <use xlink:href="#m548698eaeb" x="109.053973" y="72.78529" style="fill: #008000; stroke: #008000"/>
     <use xlink:href="#m548698eaeb" x="102.140807" y="83.690601" style="fill: #008000; stroke: #008000"/>
     <use xlink:href="#m548698eaeb" x="19.18282" y="214.554331" style="fill: #008000; stroke: #008000"/>
     <use xlink:href="#m548698eaeb" x="80.271708" y="207.14157" style="fill: #008000; stroke: #008000"/>
     <use xlink:href="#m548698eaeb" x="59.125555" y="151.545868" style="fill: #008000; stroke: #008000"/>
    </g>
   </g>
   <g id="PathCollection_2">
    <defs>
     <path id="m87698b54c6" d="M -0 2.236068 
L 1.341641 0 
L 0 -2.236068 
L -1.341641 -0 
z
" style="stroke: #d3d3d3"/>
    </defs>
    <g clip-path="url(#pb881119bc7)">
     <use xlink:href="#m87698b54c6" x="139.011024" y="25.528943" style="fill: #d3d3d3; stroke: #d3d3d3"/>
     <use xlink:href="#m87698b54c6" x="139.011024" y="25.528943" style="fill: #d3d3d3; stroke: #d3d3d3"/>
     <use xlink:href="#m87698b54c6" x="139.011024" y="25.528943" style="fill: #d3d3d3; stroke: #d3d3d3"/>
     <use xlink:href="#m87698b54c6" x="139.011024" y="25.528943" style="fill: #d3d3d3; stroke: #d3d3d3"/>
     <use xlink:href="#m87698b54c6" x="139.011024" y="25.528943" style="fill: #d3d3d3; stroke: #d3d3d3"/>
     <use xlink:href="#m87698b54c6" x="139.011024" y="25.528943" style="fill: #d3d3d3; stroke: #d3d3d3"/>
     <use xlink:href="#m87698b54c6" x="139.011024" y="25.528943" style="fill: #d3d3d3; stroke: #d3d3d3"/>
     <use xlink:href="#m87698b54c6" x="258.839227" y="214.554331" style="fill: #d3d3d3; stroke: #d3d3d3"/>
     <use xlink:href="#m87698b54c6" x="258.839227" y="214.554331" style="fill: #d3d3d3; stroke: #d3d3d3"/>
     <use xlink:href="#m87698b54c6" x="258.839227" y="214.554331" style="fill: #d3d3d3; stroke: #d3d3d3"/>
     <use xlink:href="#m87698b54c6" x="258.839227" y="214.554331" style="fill: #d3d3d3; stroke: #d3d3d3"/>
     <use xlink:href="#m87698b54c6" x="258.839227" y="214.554331" style="fill: #d3d3d3; stroke: #d3d3d3"/>
     <use xlink:href="#m87698b54c6" x="258.839227" y="214.554331" style="fill: #d3d3d3; stroke: #d3d3d3"/>
     <use xlink:href="#m87698b54c6" x="258.839227" y="214.554331" style="fill: #d3d3d3; stroke: #d3d3d3"/>
     <use xlink:href="#m87698b54c6" x="258.839227" y="214.554331" style="fill: #d3d3d3; stroke: #d3d3d3"/>
     <use xlink:href="#m87698b54c6" x="258.839227" y="214.554331" style="fill: #d3d3d3; stroke: #d3d3d3"/>
     <use xlink:href="#m87698b54c6" x="198.925125" y="120.041637" style="fill: #d3d3d3; stroke: #d3d3d3"/>
     <use xlink:href="#m87698b54c6" x="168.968074" y="72.78529" style="fill: #d3d3d3; stroke: #d3d3d3"/>
     <use xlink:href="#m87698b54c6" x="168.968074" y="72.78529" style="fill: #d3d3d3; stroke: #d3d3d3"/>
     <use xlink:href="#m87698b54c6" x="162.976664" y="63.334021" style="fill: #d3d3d3; stroke: #d3d3d3"/>
     <use xlink:href="#m87698b54c6" x="228.882176" y="167.297984" style="fill: #d3d3d3; stroke: #d3d3d3"/>
     <use xlink:href="#m87698b54c6" x="228.882176" y="167.297984" style="fill: #d3d3d3; stroke: #d3d3d3"/>
     <use xlink:href="#m87698b54c6" x="228.882176" y="167.297984" style="fill: #d3d3d3; stroke: #d3d3d3"/>
     <use xlink:href="#m87698b54c6" x="19.18282" y="214.554331" style="fill: #d3d3d3; stroke: #d3d3d3"/>
     <use xlink:href="#m87698b54c6" x="19.18282" y="214.554331" style="fill: #d3d3d3; stroke: #d3d3d3"/>
     <use xlink:href="#m87698b54c6" x="19.18282" y="214.554331" style="fill: #d3d3d3; stroke: #d3d3d3"/>
     <use xlink:href="#m87698b54c6" x="19.18282" y="214.554331" style="fill: #d3d3d3; stroke: #d3d3d3"/>
     <use xlink:href="#m87698b54c6" x="19.18282" y="214.554331" style="fill: #d3d3d3; stroke: #d3d3d3"/>
     <use xlink:href="#m87698b54c6" x="19.18282" y="214.554331" style="fill: #d3d3d3; stroke: #d3d3d3"/>
     <use xlink:href="#m87698b54c6" x="19.18282" y="214.554331" style="fill: #d3d3d3; stroke: #d3d3d3"/>
     <use xlink:href="#m87698b54c6" x="19.18282" y="214.554331" style="fill: #d3d3d3; stroke: #d3d3d3"/>
     <use xlink:href="#m87698b54c6" x="19.18282" y="214.554331" style="fill: #d3d3d3; stroke: #d3d3d3"/>
     <use xlink:href="#m87698b54c6" x="79.096922" y="120.041637" style="fill: #d3d3d3; stroke: #d3d3d3"/>
     <use xlink:href="#m87698b54c6" x="109.053973" y="72.78529" style="fill: #d3d3d3; stroke: #d3d3d3"/>
     <use xlink:href="#m87698b54c6" x="109.053973" y="72.78529" style="fill: #d3d3d3; stroke: #d3d3d3"/>
     <use xlink:href="#m87698b54c6" x="109.053973" y="72.78529" style="fill: #d3d3d3; stroke: #d3d3d3"/>
     <use xlink:href="#m87698b54c6" x="115.045383" y="63.334021" style="fill: #d3d3d3; stroke: #d3d3d3"/>
     <use xlink:href="#m87698b54c6" x="139.011024" y="214.554331" style="fill: #d3d3d3; stroke: #d3d3d3"/>
     <use xlink:href="#m87698b54c6" x="178.953758" y="214.554331" style="fill: #d3d3d3; stroke: #d3d3d3"/>
     <use xlink:href="#m87698b54c6" x="178.953758" y="214.554331" style="fill: #d3d3d3; stroke: #d3d3d3"/>
     <use xlink:href="#m87698b54c6" x="198.925125" y="214.554331" style="fill: #d3d3d3; stroke: #d3d3d3"/>
     <use xlink:href="#m87698b54c6" x="198.925125" y="214.554331" style="fill: #d3d3d3; stroke: #d3d3d3"/>
     <use xlink:href="#m87698b54c6" x="210.907946" y="214.554331" style="fill: #d3d3d3; stroke: #d3d3d3"/>
     <use xlink:href="#m87698b54c6" x="59.125555" y="151.545868" style="fill: #d3d3d3; stroke: #d3d3d3"/>
     <use xlink:href="#m87698b54c6" x="59.125555" y="151.545868" style="fill: #d3d3d3; stroke: #d3d3d3"/>
     <use xlink:href="#m87698b54c6" x="109.053973" y="167.297984" style="fill: #d3d3d3; stroke: #d3d3d3"/>
     <use xlink:href="#m87698b54c6" x="49.139871" y="167.297984" style="fill: #d3d3d3; stroke: #d3d3d3"/>
     <use xlink:href="#m87698b54c6" x="49.139871" y="167.297984" style="fill: #d3d3d3; stroke: #d3d3d3"/>
     <use xlink:href="#m87698b54c6" x="67.114102" y="138.944176" style="fill: #d3d3d3; stroke: #d3d3d3"/>
     <use xlink:href="#m87698b54c6" x="79.096922" y="214.554331" style="fill: #d3d3d3; stroke: #d3d3d3"/>
     <use xlink:href="#m87698b54c6" x="113.784033" y="65.323762" style="fill: #d3d3d3; stroke: #d3d3d3"/>
     <use xlink:href="#m87698b54c6" x="53.41945" y="214.554331" style="fill: #d3d3d3; stroke: #d3d3d3"/>
     <use xlink:href="#m87698b54c6" x="74.488145" y="156.392673" style="fill: #d3d3d3; stroke: #d3d3d3"/>
     <use xlink:href="#m87698b54c6" x="111.358361" y="214.554331" style="fill: #d3d3d3; stroke: #d3d3d3"/>
     <use xlink:href="#m87698b54c6" x="62.756712" y="214.554331" style="fill: #d3d3d3; stroke: #d3d3d3"/>
     <use xlink:href="#m87698b54c6" x="107.477286" y="214.554331" style="fill: #d3d3d3; stroke: #d3d3d3"/>
     <use xlink:href="#m87698b54c6" x="84.232416" y="149.745626" style="fill: #d3d3d3; stroke: #d3d3d3"/>
    </g>
   </g>
   <g id="text_1">
    <!-- $\mathrm{Cu}$ -->
    <g transform="translate(129.692842 33.725944) scale(0.1 -0.1)">
     <defs>
      <path id="DejaVuSans-43" d="M 4122 4306 
L 4122 3641 
Q 3803 3938 3442 4084 
Q 3081 4231 2675 4231 
Q 1875 4231 1450 3742 
Q 1025 3253 1025 2328 
Q 1025 1406 1450 917 
Q 1875 428 2675 428 
Q 3081 428 3442 575 
Q 3803 722 4122 1019 
L 4122 359 
Q 3791 134 3420 21 
Q 3050 -91 2638 -91 
Q 1578 -91 968 557 
Q 359 1206 359 2328 
Q 359 3453 968 4101 
Q 1578 4750 2638 4750 
Q 3056 4750 3426 4639 
Q 3797 4528 4122 4306 
z
" transform="scale(0.015625)"/>
      <path id="DejaVuSans-75" d="M 544 1381 
L 544 3500 
L 1119 3500 
L 1119 1403 
Q 1119 906 1312 657 
Q 1506 409 1894 409 
Q 2359 409 2629 706 
Q 2900 1003 2900 1516 
L 2900 3500 
L 3475 3500 
L 3475 0 
L 2900 0 
L 2900 538 
Q 2691 219 2414 64 
Q 2138 -91 1772 -91 
Q 1169 -91 856 284 
Q 544 659 544 1381 
z
M 1991 3584 
L 1991 3584 
z
" transform="scale(0.015625)"/>
     </defs>
     <use xlink:href="#DejaVuSans-43" transform="translate(0 0.78125)"/>
     <use xlink:href="#DejaVuSans-75" transform="translate(69.824219 0.78125)"/>
    </g>
   </g>
   <g id="text_2">
    <!-- $\mathrm{Fe}$ -->
    <g transform="translate(247.015954 211.527642) scale(0.1 -0.1)">
     <defs>
      <path id="DejaVuSans-46" d="M 628 4666 
L 3309 4666 
L 3309 4134 
L 1259 4134 
L 1259 2759 
L 3109 2759 
L 3109 2228 
L 1259 2228 
L 1259 0 
L 628 0 
L 628 4666 
z
" transform="scale(0.015625)"/>
      <path id="DejaVuSans-65" d="M 3597 1894 
L 3597 1613 
L 953 1613 
Q 991 1019 1311 708 
Q 1631 397 2203 397 
Q 2534 397 2845 478 
Q 3156 559 3463 722 
L 3463 178 
Q 3153 47 2828 -22 
Q 2503 -91 2169 -91 
Q 1331 -91 842 396 
Q 353 884 353 1716 
Q 353 2575 817 3079 
Q 1281 3584 2069 3584 
Q 2775 3584 3186 3129 
Q 3597 2675 3597 1894 
z
M 3022 2063 
Q 3016 2534 2758 2815 
Q 2500 3097 2075 3097 
Q 1594 3097 1305 2825 
Q 1016 2553 972 2059 
L 3022 2063 
z
" transform="scale(0.015625)"/>
     </defs>
     <use xlink:href="#DejaVuSans-46" transform="translate(0 0.09375)"/>
     <use xlink:href="#DejaVuSans-65" transform="translate(57.519531 0.09375)"/>
    </g>
   </g>
   <g id="text_3">
    <!-- $\mathrm{Al_{7}FeCu_{2}}$ -->
    <g transform="translate(23.918647 183.152983) scale(0.1 -0.1)">
     <defs>
      <path id="DejaVuSans-41" d="M 2188 4044 
L 1331 1722 
L 3047 1722 
L 2188 4044 
z
M 1831 4666 
L 2547 4666 
L 4325 0 
L 3669 0 
L 3244 1197 
L 1141 1197 
L 716 0 
L 50 0 
L 1831 4666 
z
" transform="scale(0.015625)"/>
      <path id="DejaVuSans-6c" d="M 603 4863 
L 1178 4863 
L 1178 0 
L 603 0 
L 603 4863 
z
" transform="scale(0.015625)"/>
      <path id="DejaVuSans-37" d="M 525 4666 
L 3525 4666 
L 3525 4397 
L 1831 0 
L 1172 0 
L 2766 4134 
L 525 4134 
L 525 4666 
z
" transform="scale(0.015625)"/>
      <path id="DejaVuSans-32" d="M 1228 531 
L 3431 531 
L 3431 0 
L 469 0 
L 469 531 
Q 828 903 1448 1529 
Q 2069 2156 2228 2338 
Q 2531 2678 2651 2914 
Q 2772 3150 2772 3378 
Q 2772 3750 2511 3984 
Q 2250 4219 1831 4219 
Q 1534 4219 1204 4116 
Q 875 4013 500 3803 
L 500 4441 
Q 881 4594 1212 4672 
Q 1544 4750 1819 4750 
Q 2544 4750 2975 4387 
Q 3406 4025 3406 3419 
Q 3406 3131 3298 2873 
Q 3191 2616 2906 2266 
Q 2828 2175 2409 1742 
Q 1991 1309 1228 531 
z
" transform="scale(0.015625)"/>
     </defs>
     <use xlink:href="#DejaVuSans-41" transform="translate(0 0.015625)"/>
     <use xlink:href="#DejaVuSans-6c" transform="translate(68.408203 0.015625)"/>
     <use xlink:href="#DejaVuSans-37" transform="translate(97.148438 -16.390625) scale(0.7)"/>
     <use xlink:href="#DejaVuSans-46" transform="translate(144.418945 0.015625)"/>
     <use xlink:href="#DejaVuSans-65" transform="translate(201.938477 0.015625)"/>
     <use xlink:href="#DejaVuSans-43" transform="translate(263.461914 0.015625)"/>
     <use xlink:href="#DejaVuSans-75" transform="translate(333.286133 0.015625)"/>
     <use xlink:href="#DejaVuSans-32" transform="translate(397.62207 -16.390625) scale(0.7)"/>
    </g>
   </g>
   <g id="text_4">
    <!-- $\mathrm{Al_{13}Fe_{4}}$ -->
    <g transform="translate(43.977109 210.594971) scale(0.1 -0.1)">
     <defs>
      <path id="DejaVuSans-31" d="M 794 531 
L 1825 531 
L 1825 4091 
L 703 3866 
L 703 4441 
L 1819 4666 
L 2450 4666 
L 2450 531 
L 3481 531 
L 3481 0 
L 794 0 
L 794 531 
z
" transform="scale(0.015625)"/>
      <path id="DejaVuSans-33" d="M 2597 2516 
Q 3050 2419 3304 2112 
Q 3559 1806 3559 1356 
Q 3559 666 3084 287 
Q 2609 -91 1734 -91 
Q 1441 -91 1130 -33 
Q 819 25 488 141 
L 488 750 
Q 750 597 1062 519 
Q 1375 441 1716 441 
Q 2309 441 2620 675 
Q 2931 909 2931 1356 
Q 2931 1769 2642 2001 
Q 2353 2234 1838 2234 
L 1294 2234 
L 1294 2753 
L 1863 2753 
Q 2328 2753 2575 2939 
Q 2822 3125 2822 3475 
Q 2822 3834 2567 4026 
Q 2313 4219 1838 4219 
Q 1578 4219 1281 4162 
Q 984 4106 628 3988 
L 628 4550 
Q 988 4650 1302 4700 
Q 1616 4750 1894 4750 
Q 2613 4750 3031 4423 
Q 3450 4097 3450 3541 
Q 3450 3153 3228 2886 
Q 3006 2619 2597 2516 
z
" transform="scale(0.015625)"/>
      <path id="DejaVuSans-34" d="M 2419 4116 
L 825 1625 
L 2419 1625 
L 2419 4116 
z
M 2253 4666 
L 3047 4666 
L 3047 1625 
L 3713 1625 
L 3713 1100 
L 3047 1100 
L 3047 0 
L 2419 0 
L 2419 1100 
L 313 1100 
L 313 1709 
L 2253 4666 
z
" transform="scale(0.015625)"/>
     </defs>
     <use xlink:href="#DejaVuSans-41" transform="translate(0 0.015625)"/>
     <use xlink:href="#DejaVuSans-6c" transform="translate(68.408203 0.015625)"/>
     <use xlink:href="#DejaVuSans-31" transform="translate(97.148438 -16.390625) scale(0.7)"/>
     <use xlink:href="#DejaVuSans-33" transform="translate(141.68457 -16.390625) scale(0.7)"/>
     <use xlink:href="#DejaVuSans-46" transform="translate(188.955078 0.015625)"/>
     <use xlink:href="#DejaVuSans-65" transform="translate(246.474609 0.015625)"/>
     <use xlink:href="#DejaVuSans-34" transform="translate(308.955078 -16.390625) scale(0.7)"/>
    </g>
   </g>
   <g id="text_5">
    <!-- $\mathrm{AlFe}$ -->
    <g transform="translate(132.138296 211.215873) scale(0.1 -0.1)">
     <use xlink:href="#DejaVuSans-41" transform="translate(0 0.015625)"/>
     <use xlink:href="#DejaVuSans-6c" transform="translate(68.408203 0.015625)"/>
     <use xlink:href="#DejaVuSans-46" transform="translate(96.191406 0.015625)"/>
     <use xlink:href="#DejaVuSans-65" transform="translate(153.710938 0.015625)"/>
    </g>
   </g>
   <g id="text_6">
    <!-- $\mathrm{AlCu}$ -->
    <g transform="translate(60.396922 128.238638) scale(0.1 -0.1)">
     <use xlink:href="#DejaVuSans-41" transform="translate(0 0.015625)"/>
     <use xlink:href="#DejaVuSans-6c" transform="translate(68.408203 0.015625)"/>
     <use xlink:href="#DejaVuSans-43" transform="translate(96.191406 0.015625)"/>
     <use xlink:href="#DejaVuSans-75" transform="translate(166.015625 0.015625)"/>
    </g>
   </g>
   <g id="text_7">
    <!-- $\mathrm{AlFe_{3}}$ -->
    <g transform="translate(191.616034 210.594971) scale(0.1 -0.1)">
     <use xlink:href="#DejaVuSans-41" transform="translate(0 0.015625)"/>
     <use xlink:href="#DejaVuSans-6c" transform="translate(68.408203 0.015625)"/>
     <use xlink:href="#DejaVuSans-46" transform="translate(96.191406 0.015625)"/>
     <use xlink:href="#DejaVuSans-65" transform="translate(153.710938 0.015625)"/>
     <use xlink:href="#DejaVuSans-33" transform="translate(216.191406 -16.390625) scale(0.7)"/>
    </g>
   </g>
   <g id="text_8">
    <!-- $\mathrm{AlCu_{3}}$ -->
    <g transform="translate(102.353973 68.638869) scale(0.1 -0.1)">
     <use xlink:href="#DejaVuSans-41" transform="translate(0 0.015625)"/>
     <use xlink:href="#DejaVuSans-6c" transform="translate(68.408203 0.015625)"/>
     <use xlink:href="#DejaVuSans-43" transform="translate(96.191406 0.015625)"/>
     <use xlink:href="#DejaVuSans-75" transform="translate(166.015625 0.015625)"/>
     <use xlink:href="#DejaVuSans-33" transform="translate(230.351562 -16.390625) scale(0.7)"/>
    </g>
   </g>
   <g id="text_9">
    <!-- $\mathrm{Al_{4}Cu_{9}}$ -->
    <g transform="translate(75.36808 93.262022) scale(0.1 -0.1)">
     <defs>
      <path id="DejaVuSans-39" d="M 703 97 
L 703 672 
Q 941 559 1184 500 
Q 1428 441 1663 441 
Q 2288 441 2617 861 
Q 2947 1281 2994 2138 
Q 2813 1869 2534 1725 
Q 2256 1581 1919 1581 
Q 1219 1581 811 2004 
Q 403 2428 403 3163 
Q 403 3881 828 4315 
Q 1253 4750 1959 4750 
Q 2769 4750 3195 4129 
Q 3622 3509 3622 2328 
Q 3622 1225 3098 567 
Q 2575 -91 1691 -91 
Q 1453 -91 1209 -44 
Q 966 3 703 97 
z
M 1959 2075 
Q 2384 2075 2632 2365 
Q 2881 2656 2881 3163 
Q 2881 3666 2632 3958 
Q 2384 4250 1959 4250 
Q 1534 4250 1286 3958 
Q 1038 3666 1038 3163 
Q 1038 2656 1286 2365 
Q 1534 2075 1959 2075 
z
" transform="scale(0.015625)"/>
     </defs>
     <use xlink:href="#DejaVuSans-41" transform="translate(0 0.015625)"/>
     <use xlink:href="#DejaVuSans-6c" transform="translate(68.408203 0.015625)"/>
     <use xlink:href="#DejaVuSans-34" transform="translate(97.148438 -16.390625) scale(0.7)"/>
     <use xlink:href="#DejaVuSans-43" transform="translate(144.418945 0.015625)"/>
     <use xlink:href="#DejaVuSans-75" transform="translate(214.243164 0.015625)"/>
     <use xlink:href="#DejaVuSans-39" transform="translate(278.579102 -16.390625) scale(0.7)"/>
    </g>
   </g>
   <g id="text_10">
    <!-- $\mathrm{Al}$ -->
    <g transform="translate(19.586902 211.839411) scale(0.1 -0.1)">
     <use xlink:href="#DejaVuSans-41" transform="translate(0 0.015625)"/>
     <use xlink:href="#DejaVuSans-6c" transform="translate(68.408203 0.015625)"/>
    </g>
   </g>
   <g id="text_11">
    <!-- $\mathrm{Al_{37}(Fe_{6}Cu)_{2}}$ -->
    <g transform="translate(80.705259 198.630381) scale(0.1 -0.1)">
     <defs>
      <path id="DejaVuSans-28" d="M 1984 4856 
Q 1566 4138 1362 3434 
Q 1159 2731 1159 2009 
Q 1159 1288 1364 580 
Q 1569 -128 1984 -844 
L 1484 -844 
Q 1016 -109 783 600 
Q 550 1309 550 2009 
Q 550 2706 781 3412 
Q 1013 4119 1484 4856 
L 1984 4856 
z
" transform="scale(0.015625)"/>
      <path id="DejaVuSans-36" d="M 2113 2584 
Q 1688 2584 1439 2293 
Q 1191 2003 1191 1497 
Q 1191 994 1439 701 
Q 1688 409 2113 409 
Q 2538 409 2786 701 
Q 3034 994 3034 1497 
Q 3034 2003 2786 2293 
Q 2538 2584 2113 2584 
z
M 3366 4563 
L 3366 3988 
Q 3128 4100 2886 4159 
Q 2644 4219 2406 4219 
Q 1781 4219 1451 3797 
Q 1122 3375 1075 2522 
Q 1259 2794 1537 2939 
Q 1816 3084 2150 3084 
Q 2853 3084 3261 2657 
Q 3669 2231 3669 1497 
Q 3669 778 3244 343 
Q 2819 -91 2113 -91 
Q 1303 -91 875 529 
Q 447 1150 447 2328 
Q 447 3434 972 4092 
Q 1497 4750 2381 4750 
Q 2619 4750 2861 4703 
Q 3103 4656 3366 4563 
z
" transform="scale(0.015625)"/>
      <path id="DejaVuSans-29" d="M 513 4856 
L 1013 4856 
Q 1481 4119 1714 3412 
Q 1947 2706 1947 2009 
Q 1947 1309 1714 600 
Q 1481 -109 1013 -844 
L 513 -844 
Q 928 -128 1133 580 
Q 1338 1288 1338 2009 
Q 1338 2731 1133 3434 
Q 928 4138 513 4856 
z
" transform="scale(0.015625)"/>
     </defs>
     <use xlink:href="#DejaVuSans-41" transform="translate(0 0.015625)"/>
     <use xlink:href="#DejaVuSans-6c" transform="translate(68.408203 0.015625)"/>
     <use xlink:href="#DejaVuSans-33" transform="translate(97.148438 -16.390625) scale(0.7)"/>
     <use xlink:href="#DejaVuSans-37" transform="translate(141.68457 -16.390625) scale(0.7)"/>
     <use xlink:href="#DejaVuSans-28" transform="translate(188.955078 0.015625)"/>
     <use xlink:href="#DejaVuSans-46" transform="translate(227.96875 0.015625)"/>
     <use xlink:href="#DejaVuSans-65" transform="translate(285.488281 0.015625)"/>
     <use xlink:href="#DejaVuSans-36" transform="translate(347.96875 -16.390625) scale(0.7)"/>
     <use xlink:href="#DejaVuSans-43" transform="translate(395.239258 0.015625)"/>
     <use xlink:href="#DejaVuSans-75" transform="translate(465.063477 0.015625)"/>
     <use xlink:href="#DejaVuSans-29" transform="translate(528.442383 0.015625)"/>
     <use xlink:href="#DejaVuSans-32" transform="translate(568.413086 -16.390625) scale(0.7)"/>
    </g>
   </g>
   <g id="text_12">
    <!-- $\mathrm{Al_{2}Cu}$ -->
    <g transform="translate(58.971009 154.831907) scale(0.1 -0.1)">
     <use xlink:href="#DejaVuSans-41" transform="translate(0 0.015625)"/>
     <use xlink:href="#DejaVuSans-6c" transform="translate(68.408203 0.015625)"/>
     <use xlink:href="#DejaVuSans-32" transform="translate(97.148438 -16.390625) scale(0.7)"/>
     <use xlink:href="#DejaVuSans-43" transform="translate(144.418945 0.015625)"/>
     <use xlink:href="#DejaVuSans-75" transform="translate(214.243164 0.015625)"/>
    </g>
   </g>
  </g>
  <g id="axes_2">
   <g id="patch_3">
    <path d="M 287.298425 195.703937 
L 296.029134 195.703937 
L 296.029134 36.96378 
L 287.298425 36.96378 
z
" style="fill: #ffffff"/>
   </g>
   <g id="patch_4">
    <path d="M 287.298425 195.703937 
L 291.66378 203.640945 
L 296.029134 195.703937 
" style="fill: #440154; opacity: 0.7"/>
   </g>
   <g id="patch_5">
    <path d="M 287.298425 36.96378 
L 291.66378 29.026772 
L 296.029134 36.96378 
" style="fill: #fde725; opacity: 0.7"/>
   </g>
   <g id="QuadMesh_1">
    <path d="M 287.298425 195.703937 
L 296.029134 195.703937 
L 296.029134 191.633677 
L 287.298425 191.633677 
L 287.298425 195.703937 
" clip-path="url(#p1447d09ee0)" style="fill: #450559; fill-opacity: 0.7"/>
    <path d="M 287.298425 191.633677 
L 296.029134 191.633677 
L 296.029134 187.563416 
L 287.298425 187.563416 
L 287.298425 191.633677 
" clip-path="url(#p1447d09ee0)" style="fill: #470e61; fill-opacity: 0.7"/>
    <path d="M 287.298425 187.563416 
L 296.029134 187.563416 
L 296.029134 183.493156 
L 287.298425 183.493156 
L 287.298425 187.563416 
" clip-path="url(#p1447d09ee0)" style="fill: #48186a; fill-opacity: 0.7"/>
    <path d="M 287.298425 183.493156 
L 296.029134 183.493156 
L 296.029134 179.422895 
L 287.298425 179.422895 
L 287.298425 183.493156 
" clip-path="url(#p1447d09ee0)" style="fill: #482071; fill-opacity: 0.7"/>
    <path d="M 287.298425 179.422895 
L 296.029134 179.422895 
L 296.029134 175.352635 
L 287.298425 175.352635 
L 287.298425 179.422895 
" clip-path="url(#p1447d09ee0)" style="fill: #482979; fill-opacity: 0.7"/>
    <path d="M 287.298425 175.352635 
L 296.029134 175.352635 
L 296.029134 171.282374 
L 287.298425 171.282374 
L 287.298425 175.352635 
" clip-path="url(#p1447d09ee0)" style="fill: #46327e; fill-opacity: 0.7"/>
    <path d="M 287.298425 171.282374 
L 296.029134 171.282374 
L 296.029134 167.212114 
L 287.298425 167.212114 
L 287.298425 171.282374 
" clip-path="url(#p1447d09ee0)" style="fill: #443983; fill-opacity: 0.7"/>
    <path d="M 287.298425 167.212114 
L 296.029134 167.212114 
L 296.029134 163.141853 
L 287.298425 163.141853 
L 287.298425 167.212114 
" clip-path="url(#p1447d09ee0)" style="fill: #424186; fill-opacity: 0.7"/>
    <path d="M 287.298425 163.141853 
L 296.029134 163.141853 
L 296.029134 159.071593 
L 287.298425 159.071593 
L 287.298425 163.141853 
" clip-path="url(#p1447d09ee0)" style="fill: #3f4889; fill-opacity: 0.7"/>
    <path d="M 287.298425 159.071593 
L 296.029134 159.071593 
L 296.029134 155.001333 
L 287.298425 155.001333 
L 287.298425 159.071593 
" clip-path="url(#p1447d09ee0)" style="fill: #3c508b; fill-opacity: 0.7"/>
    <path d="M 287.298425 155.001333 
L 296.029134 155.001333 
L 296.029134 150.931072 
L 287.298425 150.931072 
L 287.298425 155.001333 
" clip-path="url(#p1447d09ee0)" style="fill: #39568c; fill-opacity: 0.7"/>
    <path d="M 287.298425 150.931072 
L 296.029134 150.931072 
L 296.029134 146.860812 
L 287.298425 146.860812 
L 287.298425 150.931072 
" clip-path="url(#p1447d09ee0)" style="fill: #355e8d; fill-opacity: 0.7"/>
    <path d="M 287.298425 146.860812 
L 296.029134 146.860812 
L 296.029134 142.790551 
L 287.298425 142.790551 
L 287.298425 146.860812 
" clip-path="url(#p1447d09ee0)" style="fill: #32658e; fill-opacity: 0.7"/>
    <path d="M 287.298425 142.790551 
L 296.029134 142.790551 
L 296.029134 138.720291 
L 287.298425 138.720291 
L 287.298425 142.790551 
" clip-path="url(#p1447d09ee0)" style="fill: #2f6b8e; fill-opacity: 0.7"/>
    <path d="M 287.298425 138.720291 
L 296.029134 138.720291 
L 296.029134 134.65003 
L 287.298425 134.65003 
L 287.298425 138.720291 
" clip-path="url(#p1447d09ee0)" style="fill: #2c718e; fill-opacity: 0.7"/>
    <path d="M 287.298425 134.65003 
L 296.029134 134.65003 
L 296.029134 130.57977 
L 287.298425 130.57977 
L 287.298425 134.65003 
" clip-path="url(#p1447d09ee0)" style="fill: #2a778e; fill-opacity: 0.7"/>
    <path d="M 287.298425 130.57977 
L 296.029134 130.57977 
L 296.029134 126.509509 
L 287.298425 126.509509 
L 287.298425 130.57977 
" clip-path="url(#p1447d09ee0)" style="fill: #277e8e; fill-opacity: 0.7"/>
    <path d="M 287.298425 126.509509 
L 296.029134 126.509509 
L 296.029134 122.439249 
L 287.298425 122.439249 
L 287.298425 126.509509 
" clip-path="url(#p1447d09ee0)" style="fill: #25838e; fill-opacity: 0.7"/>
    <path d="M 287.298425 122.439249 
L 296.029134 122.439249 
L 296.029134 118.368988 
L 287.298425 118.368988 
L 287.298425 122.439249 
" clip-path="url(#p1447d09ee0)" style="fill: #238a8d; fill-opacity: 0.7"/>
    <path d="M 287.298425 118.368988 
L 296.029134 118.368988 
L 296.029134 114.298728 
L 287.298425 114.298728 
L 287.298425 118.368988 
" clip-path="url(#p1447d09ee0)" style="fill: #21918c; fill-opacity: 0.7"/>
    <path d="M 287.298425 114.298728 
L 296.029134 114.298728 
L 296.029134 110.228468 
L 287.298425 110.228468 
L 287.298425 114.298728 
" clip-path="url(#p1447d09ee0)" style="fill: #1f968b; fill-opacity: 0.7"/>
    <path d="M 287.298425 110.228468 
L 296.029134 110.228468 
L 296.029134 106.158207 
L 287.298425 106.158207 
L 287.298425 110.228468 
" clip-path="url(#p1447d09ee0)" style="fill: #1e9d89; fill-opacity: 0.7"/>
    <path d="M 287.298425 106.158207 
L 296.029134 106.158207 
L 296.029134 102.087947 
L 287.298425 102.087947 
L 287.298425 106.158207 
" clip-path="url(#p1447d09ee0)" style="fill: #1fa287; fill-opacity: 0.7"/>
    <path d="M 287.298425 102.087947 
L 296.029134 102.087947 
L 296.029134 98.017686 
L 287.298425 98.017686 
L 287.298425 102.087947 
" clip-path="url(#p1447d09ee0)" style="fill: #23a983; fill-opacity: 0.7"/>
    <path d="M 287.298425 98.017686 
L 296.029134 98.017686 
L 296.029134 93.947426 
L 287.298425 93.947426 
L 287.298425 98.017686 
" clip-path="url(#p1447d09ee0)" style="fill: #28ae80; fill-opacity: 0.7"/>
    <path d="M 287.298425 93.947426 
L 296.029134 93.947426 
L 296.029134 89.877165 
L 287.298425 89.877165 
L 287.298425 93.947426 
" clip-path="url(#p1447d09ee0)" style="fill: #31b57b; fill-opacity: 0.7"/>
    <path d="M 287.298425 89.877165 
L 296.029134 89.877165 
L 296.029134 85.806905 
L 287.298425 85.806905 
L 287.298425 89.877165 
" clip-path="url(#p1447d09ee0)" style="fill: #3aba76; fill-opacity: 0.7"/>
    <path d="M 287.298425 85.806905 
L 296.029134 85.806905 
L 296.029134 81.736644 
L 287.298425 81.736644 
L 287.298425 85.806905 
" clip-path="url(#p1447d09ee0)" style="fill: #46c06f; fill-opacity: 0.7"/>
    <path d="M 287.298425 81.736644 
L 296.029134 81.736644 
L 296.029134 77.666384 
L 287.298425 77.666384 
L 287.298425 81.736644 
" clip-path="url(#p1447d09ee0)" style="fill: #54c568; fill-opacity: 0.7"/>
    <path d="M 287.298425 77.666384 
L 296.029134 77.666384 
L 296.029134 73.596124 
L 287.298425 73.596124 
L 287.298425 77.666384 
" clip-path="url(#p1447d09ee0)" style="fill: #60ca60; fill-opacity: 0.7"/>
    <path d="M 287.298425 73.596124 
L 296.029134 73.596124 
L 296.029134 69.525863 
L 287.298425 69.525863 
L 287.298425 73.596124 
" clip-path="url(#p1447d09ee0)" style="fill: #70cf57; fill-opacity: 0.7"/>
    <path d="M 287.298425 69.525863 
L 296.029134 69.525863 
L 296.029134 65.455603 
L 287.298425 65.455603 
L 287.298425 69.525863 
" clip-path="url(#p1447d09ee0)" style="fill: #7fd34e; fill-opacity: 0.7"/>
    <path d="M 287.298425 65.455603 
L 296.029134 65.455603 
L 296.029134 61.385342 
L 287.298425 61.385342 
L 287.298425 65.455603 
" clip-path="url(#p1447d09ee0)" style="fill: #90d743; fill-opacity: 0.7"/>
    <path d="M 287.298425 61.385342 
L 296.029134 61.385342 
L 296.029134 57.315082 
L 287.298425 57.315082 
L 287.298425 61.385342 
" clip-path="url(#p1447d09ee0)" style="fill: #a0da39; fill-opacity: 0.7"/>
    <path d="M 287.298425 57.315082 
L 296.029134 57.315082 
L 296.029134 53.244821 
L 287.298425 53.244821 
L 287.298425 57.315082 
" clip-path="url(#p1447d09ee0)" style="fill: #b2dd2d; fill-opacity: 0.7"/>
    <path d="M 287.298425 53.244821 
L 296.029134 53.244821 
L 296.029134 49.174561 
L 287.298425 49.174561 
L 287.298425 53.244821 
" clip-path="url(#p1447d09ee0)" style="fill: #c5e021; fill-opacity: 0.7"/>
    <path d="M 287.298425 49.174561 
L 296.029134 49.174561 
L 296.029134 45.1043 
L 287.298425 45.1043 
L 287.298425 49.174561 
" clip-path="url(#p1447d09ee0)" style="fill: #d5e21a; fill-opacity: 0.7"/>
    <path d="M 287.298425 45.1043 
L 296.029134 45.1043 
L 296.029134 41.03404 
L 287.298425 41.03404 
L 287.298425 45.1043 
" clip-path="url(#p1447d09ee0)" style="fill: #e7e419; fill-opacity: 0.7"/>
    <path d="M 287.298425 41.03404 
L 296.029134 41.03404 
L 296.029134 36.96378 
L 287.298425 36.96378 
L 287.298425 41.03404 
" clip-path="url(#p1447d09ee0)" style="fill: #f6e620; fill-opacity: 0.7"/>
   </g>
   <g id="matplotlib.axis_3"/>
   <g id="matplotlib.axis_4">
    <g id="ytick_1">
     <g id="line2d_24">
      <defs>
       <path id="m12fbfa4193" d="M 0 0 
L -2 0 
" style="stroke: #000000; stroke-width: 0.3"/>
      </defs>
      <g>
       <use xlink:href="#m12fbfa4193" x="296.029134" y="183.493156" style="stroke: #000000; stroke-width: 0.3"/>
      </g>
     </g>
     <g id="text_13">
      <!-- 0.296 -->
      <g transform="translate(299.529134 186.356281) scale(0.08 -0.08)">
       <defs>
        <path id="ArialMT-2212" d="M 3381 1997 
L 356 1997 
L 356 2522 
L 3381 2522 
L 3381 1997 
z
" transform="scale(0.015625)"/>
        <path id="ArialMT-30" d="M 266 2259 
Q 266 3072 433 3567 
Q 600 4063 929 4331 
Q 1259 4600 1759 4600 
Q 2128 4600 2406 4451 
Q 2684 4303 2865 4023 
Q 3047 3744 3150 3342 
Q 3253 2941 3253 2259 
Q 3253 1453 3087 958 
Q 2922 463 2592 192 
Q 2263 -78 1759 -78 
Q 1097 -78 719 397 
Q 266 969 266 2259 
z
M 844 2259 
Q 844 1131 1108 757 
Q 1372 384 1759 384 
Q 2147 384 2411 759 
Q 2675 1134 2675 2259 
Q 2675 3391 2411 3762 
Q 2147 4134 1753 4134 
Q 1366 4134 1134 3806 
Q 844 3388 844 2259 
z
" transform="scale(0.015625)"/>
        <path id="ArialMT-2e" d="M 581 0 
L 581 641 
L 1222 641 
L 1222 0 
L 581 0 
z
" transform="scale(0.015625)"/>
        <path id="ArialMT-32" d="M 3222 541 
L 3222 0 
L 194 0 
Q 188 203 259 391 
Q 375 700 629 1000 
Q 884 1300 1366 1694 
Q 2113 2306 2375 2664 
Q 2638 3022 2638 3341 
Q 2638 3675 2398 3904 
Q 2159 4134 1775 4134 
Q 1369 4134 1125 3890 
Q 881 3647 878 3216 
L 300 3275 
Q 359 3922 746 4261 
Q 1134 4600 1788 4600 
Q 2447 4600 2831 4234 
Q 3216 3869 3216 3328 
Q 3216 3053 3103 2787 
Q 2991 2522 2730 2228 
Q 2469 1934 1863 1422 
Q 1356 997 1212 845 
Q 1069 694 975 541 
L 3222 541 
z
" transform="scale(0.015625)"/>
        <path id="ArialMT-39" d="M 350 1059 
L 891 1109 
Q 959 728 1153 556 
Q 1347 384 1650 384 
Q 1909 384 2104 503 
Q 2300 622 2425 820 
Q 2550 1019 2634 1356 
Q 2719 1694 2719 2044 
Q 2719 2081 2716 2156 
Q 2547 1888 2255 1720 
Q 1963 1553 1622 1553 
Q 1053 1553 659 1965 
Q 266 2378 266 3053 
Q 266 3750 677 4175 
Q 1088 4600 1706 4600 
Q 2153 4600 2523 4359 
Q 2894 4119 3086 3673 
Q 3278 3228 3278 2384 
Q 3278 1506 3087 986 
Q 2897 466 2520 194 
Q 2144 -78 1638 -78 
Q 1100 -78 759 220 
Q 419 519 350 1059 
z
M 2653 3081 
Q 2653 3566 2395 3850 
Q 2138 4134 1775 4134 
Q 1400 4134 1122 3828 
Q 844 3522 844 3034 
Q 844 2597 1108 2323 
Q 1372 2050 1759 2050 
Q 2150 2050 2401 2323 
Q 2653 2597 2653 3081 
z
" transform="scale(0.015625)"/>
        <path id="ArialMT-36" d="M 3184 3459 
L 2625 3416 
Q 2550 3747 2413 3897 
Q 2184 4138 1850 4138 
Q 1581 4138 1378 3988 
Q 1113 3794 959 3422 
Q 806 3050 800 2363 
Q 1003 2672 1297 2822 
Q 1591 2972 1913 2972 
Q 2475 2972 2870 2558 
Q 3266 2144 3266 1488 
Q 3266 1056 3080 686 
Q 2894 316 2569 119 
Q 2244 -78 1831 -78 
Q 1128 -78 684 439 
Q 241 956 241 2144 
Q 241 3472 731 4075 
Q 1159 4600 1884 4600 
Q 2425 4600 2770 4297 
Q 3116 3994 3184 3459 
z
M 888 1484 
Q 888 1194 1011 928 
Q 1134 663 1356 523 
Q 1578 384 1822 384 
Q 2178 384 2434 671 
Q 2691 959 2691 1453 
Q 2691 1928 2437 2201 
Q 2184 2475 1800 2475 
Q 1419 2475 1153 2201 
Q 888 1928 888 1484 
z
" transform="scale(0.015625)"/>
       </defs>
       <use xlink:href="#ArialMT-2212"/>
       <use xlink:href="#ArialMT-30" transform="translate(58.398438 0)"/>
       <use xlink:href="#ArialMT-2e" transform="translate(114.013672 0)"/>
       <use xlink:href="#ArialMT-32" transform="translate(141.796875 0)"/>
       <use xlink:href="#ArialMT-39" transform="translate(197.412109 0)"/>
       <use xlink:href="#ArialMT-36" transform="translate(253.027344 0)"/>
      </g>
     </g>
    </g>
    <g id="ytick_2">
     <g id="line2d_25">
      <g>
       <use xlink:href="#m12fbfa4193" x="296.029134" y="167.212114" style="stroke: #000000; stroke-width: 0.3"/>
      </g>
     </g>
     <g id="text_14">
      <!-- 0.264 -->
      <g transform="translate(299.529134 170.075239) scale(0.08 -0.08)">
       <defs>
        <path id="ArialMT-34" d="M 2069 0 
L 2069 1097 
L 81 1097 
L 81 1613 
L 2172 4581 
L 2631 4581 
L 2631 1613 
L 3250 1613 
L 3250 1097 
L 2631 1097 
L 2631 0 
L 2069 0 
z
M 2069 1613 
L 2069 3678 
L 634 1613 
L 2069 1613 
z
" transform="scale(0.015625)"/>
       </defs>
       <use xlink:href="#ArialMT-2212"/>
       <use xlink:href="#ArialMT-30" transform="translate(58.398438 0)"/>
       <use xlink:href="#ArialMT-2e" transform="translate(114.013672 0)"/>
       <use xlink:href="#ArialMT-32" transform="translate(141.796875 0)"/>
       <use xlink:href="#ArialMT-36" transform="translate(197.412109 0)"/>
       <use xlink:href="#ArialMT-34" transform="translate(253.027344 0)"/>
      </g>
     </g>
    </g>
    <g id="ytick_3">
     <g id="line2d_26">
      <g>
       <use xlink:href="#m12fbfa4193" x="296.029134" y="150.931072" style="stroke: #000000; stroke-width: 0.3"/>
      </g>
     </g>
     <g id="text_15">
      <!-- 0.232 -->
      <g transform="translate(299.529134 153.794197) scale(0.08 -0.08)">
       <defs>
        <path id="ArialMT-33" d="M 269 1209 
L 831 1284 
Q 928 806 1161 595 
Q 1394 384 1728 384 
Q 2125 384 2398 659 
Q 2672 934 2672 1341 
Q 2672 1728 2419 1979 
Q 2166 2231 1775 2231 
Q 1616 2231 1378 2169 
L 1441 2663 
Q 1497 2656 1531 2656 
Q 1891 2656 2178 2843 
Q 2466 3031 2466 3422 
Q 2466 3731 2256 3934 
Q 2047 4138 1716 4138 
Q 1388 4138 1169 3931 
Q 950 3725 888 3313 
L 325 3413 
Q 428 3978 793 4289 
Q 1159 4600 1703 4600 
Q 2078 4600 2393 4439 
Q 2709 4278 2876 4000 
Q 3044 3722 3044 3409 
Q 3044 3113 2884 2869 
Q 2725 2625 2413 2481 
Q 2819 2388 3044 2092 
Q 3269 1797 3269 1353 
Q 3269 753 2831 336 
Q 2394 -81 1725 -81 
Q 1122 -81 723 278 
Q 325 638 269 1209 
z
" transform="scale(0.015625)"/>
       </defs>
       <use xlink:href="#ArialMT-2212"/>
       <use xlink:href="#ArialMT-30" transform="translate(58.398438 0)"/>
       <use xlink:href="#ArialMT-2e" transform="translate(114.013672 0)"/>
       <use xlink:href="#ArialMT-32" transform="translate(141.796875 0)"/>
       <use xlink:href="#ArialMT-33" transform="translate(197.412109 0)"/>
       <use xlink:href="#ArialMT-32" transform="translate(253.027344 0)"/>
      </g>
     </g>
    </g>
    <g id="ytick_4">
     <g id="line2d_27">
      <g>
       <use xlink:href="#m12fbfa4193" x="296.029134" y="134.65003" style="stroke: #000000; stroke-width: 0.3"/>
      </g>
     </g>
     <g id="text_16">
      <!-- 0.200 -->
      <g transform="translate(299.529134 137.513155) scale(0.08 -0.08)">
       <use xlink:href="#ArialMT-2212"/>
       <use xlink:href="#ArialMT-30" transform="translate(58.398438 0)"/>
       <use xlink:href="#ArialMT-2e" transform="translate(114.013672 0)"/>
       <use xlink:href="#ArialMT-32" transform="translate(141.796875 0)"/>
       <use xlink:href="#ArialMT-30" transform="translate(197.412109 0)"/>
       <use xlink:href="#ArialMT-30" transform="translate(253.027344 0)"/>
      </g>
     </g>
    </g>
    <g id="ytick_5">
     <g id="line2d_28">
      <g>
       <use xlink:href="#m12fbfa4193" x="296.029134" y="118.368988" style="stroke: #000000; stroke-width: 0.3"/>
      </g>
     </g>
     <g id="text_17">
      <!-- 0.168 -->
      <g transform="translate(299.529134 121.232113) scale(0.08 -0.08)">
       <defs>
        <path id="ArialMT-31" d="M 2384 0 
L 1822 0 
L 1822 3584 
Q 1619 3391 1289 3197 
Q 959 3003 697 2906 
L 697 3450 
Q 1169 3672 1522 3987 
Q 1875 4303 2022 4600 
L 2384 4600 
L 2384 0 
z
" transform="scale(0.015625)"/>
        <path id="ArialMT-38" d="M 1131 2484 
Q 781 2613 612 2850 
Q 444 3088 444 3419 
Q 444 3919 803 4259 
Q 1163 4600 1759 4600 
Q 2359 4600 2725 4251 
Q 3091 3903 3091 3403 
Q 3091 3084 2923 2848 
Q 2756 2613 2416 2484 
Q 2838 2347 3058 2040 
Q 3278 1734 3278 1309 
Q 3278 722 2862 322 
Q 2447 -78 1769 -78 
Q 1091 -78 675 323 
Q 259 725 259 1325 
Q 259 1772 486 2073 
Q 713 2375 1131 2484 
z
M 1019 3438 
Q 1019 3113 1228 2906 
Q 1438 2700 1772 2700 
Q 2097 2700 2305 2904 
Q 2513 3109 2513 3406 
Q 2513 3716 2298 3927 
Q 2084 4138 1766 4138 
Q 1444 4138 1231 3931 
Q 1019 3725 1019 3438 
z
M 838 1322 
Q 838 1081 952 856 
Q 1066 631 1291 507 
Q 1516 384 1775 384 
Q 2178 384 2440 643 
Q 2703 903 2703 1303 
Q 2703 1709 2433 1975 
Q 2163 2241 1756 2241 
Q 1359 2241 1098 1978 
Q 838 1716 838 1322 
z
" transform="scale(0.015625)"/>
       </defs>
       <use xlink:href="#ArialMT-2212"/>
       <use xlink:href="#ArialMT-30" transform="translate(58.398438 0)"/>
       <use xlink:href="#ArialMT-2e" transform="translate(114.013672 0)"/>
       <use xlink:href="#ArialMT-31" transform="translate(141.796875 0)"/>
       <use xlink:href="#ArialMT-36" transform="translate(197.412109 0)"/>
       <use xlink:href="#ArialMT-38" transform="translate(253.027344 0)"/>
      </g>
     </g>
    </g>
    <g id="ytick_6">
     <g id="line2d_29">
      <g>
       <use xlink:href="#m12fbfa4193" x="296.029134" y="102.087947" style="stroke: #000000; stroke-width: 0.3"/>
      </g>
     </g>
     <g id="text_18">
      <!-- 0.136 -->
      <g transform="translate(299.529134 104.951072) scale(0.08 -0.08)">
       <use xlink:href="#ArialMT-2212"/>
       <use xlink:href="#ArialMT-30" transform="translate(58.398438 0)"/>
       <use xlink:href="#ArialMT-2e" transform="translate(114.013672 0)"/>
       <use xlink:href="#ArialMT-31" transform="translate(141.796875 0)"/>
       <use xlink:href="#ArialMT-33" transform="translate(197.412109 0)"/>
       <use xlink:href="#ArialMT-36" transform="translate(253.027344 0)"/>
      </g>
     </g>
    </g>
    <g id="ytick_7">
     <g id="line2d_30">
      <g>
       <use xlink:href="#m12fbfa4193" x="296.029134" y="85.806905" style="stroke: #000000; stroke-width: 0.3"/>
      </g>
     </g>
     <g id="text_19">
      <!-- 0.104 -->
      <g transform="translate(299.529134 88.67003) scale(0.08 -0.08)">
       <use xlink:href="#ArialMT-2212"/>
       <use xlink:href="#ArialMT-30" transform="translate(58.398438 0)"/>
       <use xlink:href="#ArialMT-2e" transform="translate(114.013672 0)"/>
       <use xlink:href="#ArialMT-31" transform="translate(141.796875 0)"/>
       <use xlink:href="#ArialMT-30" transform="translate(197.412109 0)"/>
       <use xlink:href="#ArialMT-34" transform="translate(253.027344 0)"/>
      </g>
     </g>
    </g>
    <g id="ytick_8">
     <g id="line2d_31">
      <g>
       <use xlink:href="#m12fbfa4193" x="296.029134" y="69.525863" style="stroke: #000000; stroke-width: 0.3"/>
      </g>
     </g>
     <g id="text_20">
      <!-- 0.072 -->
      <g transform="translate(299.529134 72.388988) scale(0.08 -0.08)">
       <defs>
        <path id="ArialMT-37" d="M 303 3981 
L 303 4522 
L 3269 4522 
L 3269 4084 
Q 2831 3619 2401 2847 
Q 1972 2075 1738 1259 
Q 1569 684 1522 0 
L 944 0 
Q 953 541 1156 1306 
Q 1359 2072 1739 2783 
Q 2119 3494 2547 3981 
L 303 3981 
z
" transform="scale(0.015625)"/>
       </defs>
       <use xlink:href="#ArialMT-2212"/>
       <use xlink:href="#ArialMT-30" transform="translate(58.398438 0)"/>
       <use xlink:href="#ArialMT-2e" transform="translate(114.013672 0)"/>
       <use xlink:href="#ArialMT-30" transform="translate(141.796875 0)"/>
       <use xlink:href="#ArialMT-37" transform="translate(197.412109 0)"/>
       <use xlink:href="#ArialMT-32" transform="translate(253.027344 0)"/>
      </g>
     </g>
    </g>
    <g id="ytick_9">
     <g id="line2d_32">
      <g>
       <use xlink:href="#m12fbfa4193" x="296.029134" y="53.244821" style="stroke: #000000; stroke-width: 0.3"/>
      </g>
     </g>
     <g id="text_21">
      <!-- 0.040 -->
      <g transform="translate(299.529134 56.107946) scale(0.08 -0.08)">
       <use xlink:href="#ArialMT-2212"/>
       <use xlink:href="#ArialMT-30" transform="translate(58.398438 0)"/>
       <use xlink:href="#ArialMT-2e" transform="translate(114.013672 0)"/>
       <use xlink:href="#ArialMT-30" transform="translate(141.796875 0)"/>
       <use xlink:href="#ArialMT-34" transform="translate(197.412109 0)"/>
       <use xlink:href="#ArialMT-30" transform="translate(253.027344 0)"/>
      </g>
     </g>
    </g>
    <g id="ytick_10">
     <g id="line2d_33">
      <g>
       <use xlink:href="#m12fbfa4193" x="296.029134" y="36.96378" style="stroke: #000000; stroke-width: 0.3"/>
      </g>
     </g>
     <g id="text_22">
      <!-- 0.008 -->
      <g transform="translate(299.529134 39.826905) scale(0.08 -0.08)">
       <use xlink:href="#ArialMT-2212"/>
       <use xlink:href="#ArialMT-30" transform="translate(58.398438 0)"/>
       <use xlink:href="#ArialMT-2e" transform="translate(114.013672 0)"/>
       <use xlink:href="#ArialMT-30" transform="translate(141.796875 0)"/>
       <use xlink:href="#ArialMT-30" transform="translate(197.412109 0)"/>
       <use xlink:href="#ArialMT-38" transform="translate(253.027344 0)"/>
      </g>
     </g>
    </g>
    <g id="text_23">
     <!-- Formation Energy (eV/atom) -->
     <g transform="translate(335.498821 179.408077) rotate(-90) scale(0.1 -0.1)">
      <defs>
       <path id="ArialMT-46" d="M 525 0 
L 525 4581 
L 3616 4581 
L 3616 4041 
L 1131 4041 
L 1131 2622 
L 3281 2622 
L 3281 2081 
L 1131 2081 
L 1131 0 
L 525 0 
z
" transform="scale(0.015625)"/>
       <path id="ArialMT-6f" d="M 213 1659 
Q 213 2581 725 3025 
Q 1153 3394 1769 3394 
Q 2453 3394 2887 2945 
Q 3322 2497 3322 1706 
Q 3322 1066 3130 698 
Q 2938 331 2570 128 
Q 2203 -75 1769 -75 
Q 1072 -75 642 372 
Q 213 819 213 1659 
z
M 791 1659 
Q 791 1022 1069 705 
Q 1347 388 1769 388 
Q 2188 388 2466 706 
Q 2744 1025 2744 1678 
Q 2744 2294 2464 2611 
Q 2184 2928 1769 2928 
Q 1347 2928 1069 2612 
Q 791 2297 791 1659 
z
" transform="scale(0.015625)"/>
       <path id="ArialMT-72" d="M 416 0 
L 416 3319 
L 922 3319 
L 922 2816 
Q 1116 3169 1280 3281 
Q 1444 3394 1641 3394 
Q 1925 3394 2219 3213 
L 2025 2691 
Q 1819 2813 1613 2813 
Q 1428 2813 1281 2702 
Q 1134 2591 1072 2394 
Q 978 2094 978 1738 
L 978 0 
L 416 0 
z
" transform="scale(0.015625)"/>
       <path id="ArialMT-6d" d="M 422 0 
L 422 3319 
L 925 3319 
L 925 2853 
Q 1081 3097 1340 3245 
Q 1600 3394 1931 3394 
Q 2300 3394 2536 3241 
Q 2772 3088 2869 2813 
Q 3263 3394 3894 3394 
Q 4388 3394 4653 3120 
Q 4919 2847 4919 2278 
L 4919 0 
L 4359 0 
L 4359 2091 
Q 4359 2428 4304 2576 
Q 4250 2725 4106 2815 
Q 3963 2906 3769 2906 
Q 3419 2906 3187 2673 
Q 2956 2441 2956 1928 
L 2956 0 
L 2394 0 
L 2394 2156 
Q 2394 2531 2256 2718 
Q 2119 2906 1806 2906 
Q 1569 2906 1367 2781 
Q 1166 2656 1075 2415 
Q 984 2175 984 1722 
L 984 0 
L 422 0 
z
" transform="scale(0.015625)"/>
       <path id="ArialMT-61" d="M 2588 409 
Q 2275 144 1986 34 
Q 1697 -75 1366 -75 
Q 819 -75 525 192 
Q 231 459 231 875 
Q 231 1119 342 1320 
Q 453 1522 633 1644 
Q 813 1766 1038 1828 
Q 1203 1872 1538 1913 
Q 2219 1994 2541 2106 
Q 2544 2222 2544 2253 
Q 2544 2597 2384 2738 
Q 2169 2928 1744 2928 
Q 1347 2928 1158 2789 
Q 969 2650 878 2297 
L 328 2372 
Q 403 2725 575 2942 
Q 747 3159 1072 3276 
Q 1397 3394 1825 3394 
Q 2250 3394 2515 3294 
Q 2781 3194 2906 3042 
Q 3031 2891 3081 2659 
Q 3109 2516 3109 2141 
L 3109 1391 
Q 3109 606 3145 398 
Q 3181 191 3288 0 
L 2700 0 
Q 2613 175 2588 409 
z
M 2541 1666 
Q 2234 1541 1622 1453 
Q 1275 1403 1131 1340 
Q 988 1278 909 1158 
Q 831 1038 831 891 
Q 831 666 1001 516 
Q 1172 366 1500 366 
Q 1825 366 2078 508 
Q 2331 650 2450 897 
Q 2541 1088 2541 1459 
L 2541 1666 
z
" transform="scale(0.015625)"/>
       <path id="ArialMT-74" d="M 1650 503 
L 1731 6 
Q 1494 -44 1306 -44 
Q 1000 -44 831 53 
Q 663 150 594 308 
Q 525 466 525 972 
L 525 2881 
L 113 2881 
L 113 3319 
L 525 3319 
L 525 4141 
L 1084 4478 
L 1084 3319 
L 1650 3319 
L 1650 2881 
L 1084 2881 
L 1084 941 
Q 1084 700 1114 631 
Q 1144 563 1211 522 
Q 1278 481 1403 481 
Q 1497 481 1650 503 
z
" transform="scale(0.015625)"/>
       <path id="ArialMT-69" d="M 425 3934 
L 425 4581 
L 988 4581 
L 988 3934 
L 425 3934 
z
M 425 0 
L 425 3319 
L 988 3319 
L 988 0 
L 425 0 
z
" transform="scale(0.015625)"/>
       <path id="ArialMT-6e" d="M 422 0 
L 422 3319 
L 928 3319 
L 928 2847 
Q 1294 3394 1984 3394 
Q 2284 3394 2536 3286 
Q 2788 3178 2913 3003 
Q 3038 2828 3088 2588 
Q 3119 2431 3119 2041 
L 3119 0 
L 2556 0 
L 2556 2019 
Q 2556 2363 2490 2533 
Q 2425 2703 2258 2804 
Q 2091 2906 1866 2906 
Q 1506 2906 1245 2678 
Q 984 2450 984 1813 
L 984 0 
L 422 0 
z
" transform="scale(0.015625)"/>
       <path id="ArialMT-20" transform="scale(0.015625)"/>
       <path id="ArialMT-45" d="M 506 0 
L 506 4581 
L 3819 4581 
L 3819 4041 
L 1113 4041 
L 1113 2638 
L 3647 2638 
L 3647 2100 
L 1113 2100 
L 1113 541 
L 3925 541 
L 3925 0 
L 506 0 
z
" transform="scale(0.015625)"/>
       <path id="ArialMT-65" d="M 2694 1069 
L 3275 997 
Q 3138 488 2766 206 
Q 2394 -75 1816 -75 
Q 1088 -75 661 373 
Q 234 822 234 1631 
Q 234 2469 665 2931 
Q 1097 3394 1784 3394 
Q 2450 3394 2872 2941 
Q 3294 2488 3294 1666 
Q 3294 1616 3291 1516 
L 816 1516 
Q 847 969 1125 678 
Q 1403 388 1819 388 
Q 2128 388 2347 550 
Q 2566 713 2694 1069 
z
M 847 1978 
L 2700 1978 
Q 2663 2397 2488 2606 
Q 2219 2931 1791 2931 
Q 1403 2931 1139 2672 
Q 875 2413 847 1978 
z
" transform="scale(0.015625)"/>
       <path id="ArialMT-67" d="M 319 -275 
L 866 -356 
Q 900 -609 1056 -725 
Q 1266 -881 1628 -881 
Q 2019 -881 2231 -725 
Q 2444 -569 2519 -288 
Q 2563 -116 2559 434 
Q 2191 0 1641 0 
Q 956 0 581 494 
Q 206 988 206 1678 
Q 206 2153 378 2554 
Q 550 2956 876 3175 
Q 1203 3394 1644 3394 
Q 2231 3394 2613 2919 
L 2613 3319 
L 3131 3319 
L 3131 450 
Q 3131 -325 2973 -648 
Q 2816 -972 2473 -1159 
Q 2131 -1347 1631 -1347 
Q 1038 -1347 672 -1080 
Q 306 -813 319 -275 
z
M 784 1719 
Q 784 1066 1043 766 
Q 1303 466 1694 466 
Q 2081 466 2343 764 
Q 2606 1063 2606 1700 
Q 2606 2309 2336 2618 
Q 2066 2928 1684 2928 
Q 1309 2928 1046 2623 
Q 784 2319 784 1719 
z
" transform="scale(0.015625)"/>
       <path id="ArialMT-79" d="M 397 -1278 
L 334 -750 
Q 519 -800 656 -800 
Q 844 -800 956 -737 
Q 1069 -675 1141 -563 
Q 1194 -478 1313 -144 
Q 1328 -97 1363 -6 
L 103 3319 
L 709 3319 
L 1400 1397 
Q 1534 1031 1641 628 
Q 1738 1016 1872 1384 
L 2581 3319 
L 3144 3319 
L 1881 -56 
Q 1678 -603 1566 -809 
Q 1416 -1088 1222 -1217 
Q 1028 -1347 759 -1347 
Q 597 -1347 397 -1278 
z
" transform="scale(0.015625)"/>
       <path id="ArialMT-28" d="M 1497 -1347 
Q 1031 -759 709 28 
Q 388 816 388 1659 
Q 388 2403 628 3084 
Q 909 3875 1497 4659 
L 1900 4659 
Q 1522 4009 1400 3731 
Q 1209 3300 1100 2831 
Q 966 2247 966 1656 
Q 966 153 1900 -1347 
L 1497 -1347 
z
" transform="scale(0.015625)"/>
       <path id="ArialMT-56" d="M 1803 0 
L 28 4581 
L 684 4581 
L 1875 1253 
Q 2019 853 2116 503 
Q 2222 878 2363 1253 
L 3600 4581 
L 4219 4581 
L 2425 0 
L 1803 0 
z
" transform="scale(0.015625)"/>
       <path id="ArialMT-2f" d="M 0 -78 
L 1328 4659 
L 1778 4659 
L 453 -78 
L 0 -78 
z
" transform="scale(0.015625)"/>
       <path id="ArialMT-29" d="M 791 -1347 
L 388 -1347 
Q 1322 153 1322 1656 
Q 1322 2244 1188 2822 
Q 1081 3291 891 3722 
Q 769 4003 388 4659 
L 791 4659 
Q 1378 3875 1659 3084 
Q 1900 2403 1900 1659 
Q 1900 816 1576 28 
Q 1253 -759 791 -1347 
z
" transform="scale(0.015625)"/>
      </defs>
      <use xlink:href="#ArialMT-46"/>
      <use xlink:href="#ArialMT-6f" transform="translate(61.083984 0)"/>
      <use xlink:href="#ArialMT-72" transform="translate(116.699219 0)"/>
      <use xlink:href="#ArialMT-6d" transform="translate(150 0)"/>
      <use xlink:href="#ArialMT-61" transform="translate(233.300781 0)"/>
      <use xlink:href="#ArialMT-74" transform="translate(288.916016 0)"/>
      <use xlink:href="#ArialMT-69" transform="translate(316.699219 0)"/>
      <use xlink:href="#ArialMT-6f" transform="translate(338.916016 0)"/>
      <use xlink:href="#ArialMT-6e" transform="translate(394.53125 0)"/>
      <use xlink:href="#ArialMT-20" transform="translate(450.146484 0)"/>
      <use xlink:href="#ArialMT-45" transform="translate(477.929688 0)"/>
      <use xlink:href="#ArialMT-6e" transform="translate(544.628906 0)"/>
      <use xlink:href="#ArialMT-65" transform="translate(600.244141 0)"/>
      <use xlink:href="#ArialMT-72" transform="translate(655.859375 0)"/>
      <use xlink:href="#ArialMT-67" transform="translate(689.160156 0)"/>
      <use xlink:href="#ArialMT-79" transform="translate(744.775391 0)"/>
      <use xlink:href="#ArialMT-20" transform="translate(794.775391 0)"/>
      <use xlink:href="#ArialMT-28" transform="translate(822.558594 0)"/>
      <use xlink:href="#ArialMT-65" transform="translate(855.859375 0)"/>
      <use xlink:href="#ArialMT-56" transform="translate(911.474609 0)"/>
      <use xlink:href="#ArialMT-2f" transform="translate(978.173828 0)"/>
      <use xlink:href="#ArialMT-61" transform="translate(1005.957031 0)"/>
      <use xlink:href="#ArialMT-74" transform="translate(1061.572266 0)"/>
      <use xlink:href="#ArialMT-6f" transform="translate(1089.355469 0)"/>
      <use xlink:href="#ArialMT-6d" transform="translate(1144.970703 0)"/>
      <use xlink:href="#ArialMT-29" transform="translate(1228.271484 0)"/>
     </g>
    </g>
   </g>
   <g id="LineCollection_1"/>
   <g id="patch_6">
    <path d="M 287.298425 195.703937 
L 291.66378 203.640945 
L 296.029134 195.703937 
L 296.029134 36.96378 
L 291.66378 29.026772 
L 287.298425 36.96378 
L 287.298425 195.703937 
z
" style="fill: none; stroke: #000000; stroke-width: 0.8; stroke-linejoin: miter; stroke-linecap: square"/>
   </g>
  </g>
 </g>
 <defs>
  <clipPath id="pb881119bc7">
   <rect x="7.2" y="7.2" width="263.622047" height="218.267717"/>
  </clipPath>
  <clipPath id="p1447d09ee0">
   <rect x="287.298425" y="36.96378" width="8.730709" height="158.740157"/>
  </clipPath>
 </defs>
</svg>
