<?xml version="1.0" encoding="utf-8" standalone="no"?>
<!DOCTYPE svg PUBLIC "-//W3C//DTD SVG 1.1//EN"
  "http://www.w3.org/Graphics/SVG/1.1/DTD/svg11.dtd">
<svg xmlns:xlink="http://www.w3.org/1999/xlink" width="344.803509pt" height="232.667717pt" viewBox="0 0 344.803509 232.667717" xmlns="http://www.w3.org/2000/svg" version="1.1">
 <metadata>
  <rdf:RDF xmlns:dc="http://purl.org/dc/elements/1.1/" xmlns:cc="http://creativecommons.org/ns#" xmlns:rdf="http://www.w3.org/1999/02/22-rdf-syntax-ns#">
   <cc:Work>
    <dc:type rdf:resource="http://purl.org/dc/dcmitype/StillImage"/>
    <dc:date>2026-01-27T21:37:03.559607</dc:date>
    <dc:format>image/svg+xml</dc:format>
    <dc:creator>
     <cc:Agent>
      <dc:title>Matplotlib v3.10.8, https://matplotlib.org/</dc:title>
     </cc:Agent>
    </dc:creator>
   </cc:Work>
  </rdf:RDF>
 </metadata>
 <defs>
  <style type="text/css">*{stroke-linejoin: round; stroke-linecap: butt}</style>
 </defs>
 <g id="figure_1">
  <g id="patch_1">
   <path d="M 0 232.667717 
L 344.803509 232.667717 
L 344.803509 0 
L 0 0 
L 0 232.667717 
z
" style="fill: none"/>
  </g>
  <g id="axes_1">
   <g id="patch_2">
    <path d="M 7.2 225.467717 
L 270.822047 225.467717 
L 270.822047 7.2 
L 7.2 7.2 
L 7.2 225.467717 
z
" style="fill: none"/>
   </g>
   <g id="TriContourSet_1">
    <path d="M 211.142759 214.554331 
L 211.057494 213.374791 
L 210.397807 210.530688 
L 209.65726 209.881628 
L 176.29171 202.183955 
L 172.050271 214.554331 
L 176.334562 214.554331 
L 210.907946 214.554331 
z
" clip-path="url(#p64a6952917)" style="fill: #440154; fill-opacity: 0.7"/>
    <path d="M 212.136436 214.554331 
L 211.690347 208.383255 
L 208.23902 193.503578 
L 204.364651 190.107844 
L 176.227391 183.616376 
L 165.619673 214.554331 
L 172.050271 214.554331 
L 176.29171 202.183955 
L 209.65726 209.881628 
L 210.397807 210.530688 
L 211.057494 213.374791 
L 211.142759 214.554331 
z
" clip-path="url(#p64a6952917)" style="fill: #450457; fill-opacity: 0.7"/>
    <path d="M 213.130112 214.554331 
L 212.323201 203.39172 
L 206.080232 176.476468 
L 199.072043 170.334061 
L 176.163071 165.048796 
L 160.679475 210.207503 
L 159.498267 214.554331 
L 160.157177 214.554331 
L 165.619673 214.554331 
L 176.227391 183.616376 
L 204.364651 190.107844 
L 208.23902 193.503578 
L 211.690347 208.383255 
L 212.136436 214.554331 
z
" clip-path="url(#p64a6952917)" style="fill: #470d60; fill-opacity: 0.7"/>
    <path d="M 214.123789 214.554331 
L 212.956054 198.400184 
L 203.921445 159.449358 
L 193.779434 150.560277 
L 176.098752 146.481217 
L 164.148824 181.333797 
L 155.121473 214.554331 
L 159.498267 214.554331 
L 160.679475 210.207503 
L 176.163071 165.048796 
L 199.072043 170.334061 
L 206.080232 176.476468 
L 212.323201 203.39172 
L 213.130112 214.554331 
z
" clip-path="url(#p64a6952917)" style="fill: #481467; fill-opacity: 0.7"/>
    <path d="M 215.117465 214.554331 
L 213.588907 193.408649 
L 201.762658 142.422248 
L 188.486826 130.786494 
L 176.034432 127.913637 
L 167.618173 152.46009 
L 155.426684 197.32461 
L 151.433569 213.403452 
L 151.241399 214.554331 
L 152.325268 214.554331 
L 155.121473 214.554331 
L 164.148824 181.333797 
L 176.098752 146.481217 
L 193.779434 150.560277 
L 203.921445 159.449358 
L 212.956054 198.400184 
L 214.123789 214.554331 
z
" clip-path="url(#p64a6952917)" style="fill: #481c6e; fill-opacity: 0.7"/>
    <path d="M 216.111141 214.554331 
L 214.221761 188.417113 
L 199.60387 125.395138 
L 183.194217 111.012711 
L 175.970113 109.346058 
L 171.087522 123.586384 
L 164.014778 149.61399 
L 148.964373 210.216566 
L 148.240067 214.554331 
L 151.241399 214.554331 
L 151.433569 213.403452 
L 155.426684 197.32461 
L 167.618173 152.46009 
L 176.034432 127.913637 
L 188.486826 130.786494 
L 201.762658 142.422248 
L 213.588907 193.408649 
L 215.117465 214.554331 
z
" clip-path="url(#p64a6952917)" style="fill: #482374; fill-opacity: 0.7"/>
    <path d="M 217.104818 214.554331 
L 214.854614 183.425578 
L 200.86114 123.095642 
L 198.925125 120.041637 
L 184.123009 96.691745 
L 177.901609 91.238927 
L 175.905793 90.778478 
L 174.556871 94.712678 
L 172.602872 101.903369 
L 146.495177 207.029681 
L 145.238736 214.554331 
L 148.240067 214.554331 
L 148.964373 210.216566 
L 164.014778 149.61399 
L 171.087522 123.586384 
L 175.970113 109.346058 
L 183.194217 111.012711 
L 199.60387 125.395138 
L 214.221761 188.417113 
L 216.111141 214.554331 
z
" clip-path="url(#p64a6952917)" style="fill: #482979; fill-opacity: 0.7"/>
    <path d="M 218.098494 214.554331 
L 215.487467 178.434042 
L 203.685008 127.55021 
L 200.86114 123.095642 
L 214.854614 183.425578 
L 217.104818 214.554331 
z
M 174.734001 81.880866 
L 173.657911 84.525657 
L 144.025981 203.842795 
L 142.237405 214.554331 
L 145.238736 214.554331 
L 146.495177 207.029681 
L 172.602872 101.903369 
L 174.556871 94.712678 
L 175.905793 90.778478 
L 177.901609 91.238927 
L 184.123009 96.691745 
L 175.88124 83.690601 
z
" clip-path="url(#p64a6952917)" style="fill: #46307e; fill-opacity: 0.7"/>
    <path d="M 219.092171 214.554331 
L 216.120321 173.442507 
L 206.508877 132.004777 
L 203.685008 127.55021 
L 215.487467 178.434042 
L 218.098494 214.554331 
z
M 172.878425 78.953751 
L 170.061838 85.876299 
L 141.556785 200.65591 
L 139.236073 214.554331 
L 142.237405 214.554331 
L 144.025981 203.842795 
L 173.657911 84.525657 
L 174.734001 81.880866 
z
" clip-path="url(#p64a6952917)" style="fill: #453781; fill-opacity: 0.7"/>
    <path d="M 220.085847 214.554331 
L 216.753174 168.450971 
L 209.332745 136.459344 
L 206.508877 132.004777 
L 216.120321 173.442507 
L 219.092171 214.554331 
z
M 171.02285 76.026636 
L 166.465766 87.226941 
L 139.087589 197.469024 
L 136.234742 214.554331 
L 139.236073 214.554331 
L 141.556785 200.65591 
L 170.061838 85.876299 
L 172.878425 78.953751 
z
" clip-path="url(#p64a6952917)" style="fill: #433e85; fill-opacity: 0.7"/>
    <path d="M 221.079523 214.554331 
L 217.386027 163.459436 
L 212.156613 140.913912 
L 209.332745 136.459344 
L 216.753174 168.450971 
L 220.085847 214.554331 
z
M 169.167274 73.099522 
L 162.869693 88.577583 
L 136.618393 194.282139 
L 133.233411 214.554331 
L 136.234742 214.554331 
L 139.087589 197.469024 
L 166.465766 87.226941 
L 171.02285 76.026636 
z
" clip-path="url(#p64a6952917)" style="fill: #414487; fill-opacity: 0.7"/>
    <path d="M 222.0732 214.554331 
L 218.018881 158.4679 
L 214.980482 145.368479 
L 212.156613 140.913912 
L 217.386027 163.459436 
L 221.079523 214.554331 
z
M 168.262368 71.672059 
L 165.508425 74.604454 
L 159.273621 89.928225 
L 134.149197 191.095253 
L 130.232079 214.554331 
L 133.233411 214.554331 
L 136.618393 194.282139 
L 162.869693 88.577583 
L 169.167274 73.099522 
L 168.968074 72.78529 
z
" clip-path="url(#p64a6952917)" style="fill: #3e4a89; fill-opacity: 0.7"/>
    <path d="M 223.066876 214.554331 
L 218.651734 153.476365 
L 217.80435 149.823047 
L 214.980482 145.368479 
L 218.018881 158.4679 
L 222.0732 214.554331 
z
M 167.471791 70.424948 
L 161.63271 76.642396 
L 155.677548 91.278867 
L 131.680001 187.908368 
L 127.230748 214.554331 
L 130.232079 214.554331 
L 134.149197 191.095253 
L 159.273621 89.928225 
L 165.508425 74.604454 
L 168.262368 71.672059 
z
" clip-path="url(#p64a6952917)" style="fill: #3c508b; fill-opacity: 0.7"/>
    <path d="M 224.060553 214.554331 
L 219.584291 152.630849 
L 218.896492 151.545868 
L 217.80435 149.823047 
L 218.651734 153.476365 
L 223.066876 214.554331 
z
M 166.681214 69.177836 
L 157.756995 78.680337 
L 152.081476 92.629509 
L 129.210806 184.721482 
L 124.229417 214.554331 
L 127.230748 214.554331 
L 131.680001 187.908368 
L 155.677548 91.278867 
L 161.63271 76.642396 
L 167.471791 70.424948 
z
" clip-path="url(#p64a6952917)" style="fill: #39568c; fill-opacity: 0.7"/>
    <path d="M 225.054229 214.554331 
L 220.70586 154.400091 
L 219.584291 152.630849 
L 224.060553 214.554331 
z
M 165.890637 67.930725 
L 153.88128 80.718278 
L 148.485403 93.980151 
L 126.74161 181.534597 
L 121.228085 214.554331 
L 124.229417 214.554331 
L 129.210806 184.721482 
L 152.081476 92.629509 
L 157.756995 78.680337 
L 166.681214 69.177836 
z
" clip-path="url(#p64a6952917)" style="fill: #365c8d; fill-opacity: 0.7"/>
    <path d="M 226.047905 214.554331 
L 221.82743 156.169334 
L 220.70586 154.400091 
L 225.054229 214.554331 
z
M 165.10006 66.683614 
L 150.005565 82.75622 
L 144.889331 95.330793 
L 124.272414 178.347712 
L 118.226754 214.554331 
L 121.228085 214.554331 
L 126.74161 181.534597 
L 148.485403 93.980151 
L 153.88128 80.718278 
L 165.890637 67.930725 
z
" clip-path="url(#p64a6952917)" style="fill: #34618d; fill-opacity: 0.7"/>
    <path d="M 227.041582 214.554331 
L 222.948999 157.938576 
L 221.82743 156.169334 
L 226.047905 214.554331 
z
M 164.309483 65.436503 
L 146.12985 84.794161 
L 141.293258 96.681435 
L 121.803218 175.160826 
L 115.225423 214.554331 
L 118.226754 214.554331 
L 124.272414 178.347712 
L 144.889331 95.330793 
L 150.005565 82.75622 
L 165.10006 66.683614 
z
" clip-path="url(#p64a6952917)" style="fill: #31678e; fill-opacity: 0.7"/>
    <path d="M 228.035258 214.554331 
L 224.070569 159.707818 
L 222.948999 157.938576 
L 227.041582 214.554331 
z
M 163.518906 64.189391 
L 142.254135 86.832102 
L 137.697186 98.032077 
L 119.334022 171.973941 
L 112.224091 214.554331 
L 115.225423 214.554331 
L 121.803218 175.160826 
L 141.293258 96.681435 
L 146.12985 84.794161 
L 164.309483 65.436503 
z
" clip-path="url(#p64a6952917)" style="fill: #2f6c8e; fill-opacity: 0.7"/>
    <path d="M 229.028935 214.554331 
L 225.192139 161.477061 
L 224.070569 159.707818 
L 228.035258 214.554331 
z
M 162.72833 62.94228 
L 138.37842 88.870043 
L 134.101113 99.382719 
L 116.864826 168.787055 
L 109.22276 214.554331 
L 112.224091 214.554331 
L 119.334022 171.973941 
L 137.697186 98.032077 
L 142.254135 86.832102 
L 163.518906 64.189391 
z
" clip-path="url(#p64a6952917)" style="fill: #2c718e; fill-opacity: 0.7"/>
    <path d="M 230.022611 214.554331 
L 226.313708 163.246303 
L 225.192139 161.477061 
L 229.028935 214.554331 
z
M 161.937753 61.695169 
L 134.502705 90.907985 
L 130.505041 100.733361 
L 114.39563 165.60017 
L 106.221429 214.554331 
L 109.22276 214.554331 
L 116.864826 168.787055 
L 134.101113 99.382719 
L 138.37842 88.870043 
L 162.72833 62.94228 
z
" clip-path="url(#p64a6952917)" style="fill: #2a768e; fill-opacity: 0.7"/>
    <path d="M 231.016287 214.554331 
L 227.435278 165.015545 
L 226.313708 163.246303 
L 230.022611 214.554331 
z
M 161.147176 60.448058 
L 130.62699 92.945926 
L 126.908968 102.084003 
L 111.926434 162.413284 
L 103.220097 214.554331 
L 106.221429 214.554331 
L 114.39563 165.60017 
L 130.505041 100.733361 
L 134.502705 90.907985 
L 161.937753 61.695169 
z
" clip-path="url(#p64a6952917)" style="fill: #287c8e; fill-opacity: 0.7"/>
    <path d="M 232.009964 214.554331 
L 228.556847 166.784788 
L 227.435278 165.015545 
L 231.016287 214.554331 
z
M 160.356599 59.200947 
L 126.751275 94.983867 
L 123.312896 103.434644 
L 109.457239 159.226399 
L 100.218766 214.554331 
L 103.220097 214.554331 
L 111.926434 162.413284 
L 126.908968 102.084003 
L 130.62699 92.945926 
L 161.147176 60.448058 
z
" clip-path="url(#p64a6952917)" style="fill: #26818e; fill-opacity: 0.7"/>
    <path d="M 233.00364 214.554331 
L 229.678417 168.55403 
L 228.556847 166.784788 
L 232.009964 214.554331 
z
M 159.566022 57.953835 
L 122.87556 97.021808 
L 119.716823 104.785286 
L 106.988043 156.039513 
L 97.217435 214.554331 
L 100.218766 214.554331 
L 109.457239 159.226399 
L 123.312896 103.434644 
L 126.751275 94.983867 
L 160.356599 59.200947 
z
" clip-path="url(#p64a6952917)" style="fill: #24868e; fill-opacity: 0.7"/>
    <path d="M 233.997317 214.554331 
L 230.799987 170.323272 
L 229.678417 168.55403 
L 233.00364 214.554331 
z
M 158.775445 56.706724 
L 118.999845 99.05975 
L 116.12075 106.135928 
L 104.518847 152.852628 
L 94.216103 214.554331 
L 97.217435 214.554331 
L 106.988043 156.039513 
L 119.716823 104.785286 
L 122.87556 97.021808 
L 159.566022 57.953835 
z
" clip-path="url(#p64a6952917)" style="fill: #228b8d; fill-opacity: 0.7"/>
    <path d="M 234.990993 214.554331 
L 231.921556 172.092515 
L 230.799987 170.323272 
L 233.997317 214.554331 
z
M 157.984868 55.459613 
L 115.124131 101.097691 
L 112.524678 107.48657 
L 102.049651 149.665742 
L 91.214772 214.554331 
L 94.216103 214.554331 
L 104.518847 152.852628 
L 116.12075 106.135928 
L 118.999845 99.05975 
L 158.775445 56.706724 
z
" clip-path="url(#p64a6952917)" style="fill: #21918c; fill-opacity: 0.7"/>
    <path d="M 235.98467 214.554331 
L 233.043126 173.861757 
L 231.921556 172.092515 
L 234.990993 214.554331 
z
M 157.194291 54.212502 
L 111.248416 103.135632 
L 108.928605 108.837212 
L 99.580455 146.478857 
L 88.213441 214.554331 
L 91.214772 214.554331 
L 102.049651 149.665742 
L 112.524678 107.48657 
L 115.124131 101.097691 
L 157.984868 55.459613 
z
" clip-path="url(#p64a6952917)" style="fill: #1f958b; fill-opacity: 0.7"/>
    <path d="M 236.978346 214.554331 
L 234.164695 175.630999 
L 233.043126 173.861757 
L 235.98467 214.554331 
z
M 156.403715 52.96539 
L 107.372701 105.173574 
L 105.332533 110.187854 
L 97.111259 143.291971 
L 85.212109 214.554331 
L 88.213441 214.554331 
L 99.580455 146.478857 
L 108.928605 108.837212 
L 111.248416 103.135632 
L 157.194291 54.212502 
z
" clip-path="url(#p64a6952917)" style="fill: #1f9a8a; fill-opacity: 0.7"/>
    <path d="M 237.972022 214.554331 
L 235.286265 177.400242 
L 234.164695 175.630999 
L 236.978346 214.554331 
z
M 155.613138 51.718279 
L 103.496986 107.211515 
L 101.73646 111.538496 
L 94.642063 140.105086 
L 82.210778 214.554331 
L 85.212109 214.554331 
L 97.111259 143.291971 
L 105.332533 110.187854 
L 107.372701 105.173574 
L 156.403715 52.96539 
z
" clip-path="url(#p64a6952917)" style="fill: #1fa088; fill-opacity: 0.7"/>
    <path d="M 238.965699 214.554331 
L 236.407835 179.169484 
L 235.286265 177.400242 
L 237.972022 214.554331 
z
M 154.822561 50.471168 
L 99.621271 109.249456 
L 98.140388 112.889138 
L 92.172867 136.9182 
L 79.209447 214.554331 
L 82.210778 214.554331 
L 94.642063 140.105086 
L 101.73646 111.538496 
L 103.496986 107.211515 
L 155.613138 51.718279 
z
" clip-path="url(#p64a6952917)" style="fill: #20a486; fill-opacity: 0.7"/>
    <path d="M 239.959375 214.554331 
L 237.529404 180.938726 
L 236.407835 179.169484 
L 238.965699 214.554331 
z
M 154.031984 49.224057 
L 95.745556 111.287397 
L 94.544315 114.23978 
L 89.703671 133.731315 
L 76.208116 214.554331 
L 79.209447 214.554331 
L 92.172867 136.9182 
L 98.140388 112.889138 
L 99.621271 109.249456 
L 154.822561 50.471168 
z
" clip-path="url(#p64a6952917)" style="fill: #24aa83; fill-opacity: 0.7"/>
    <path d="M 240.953052 214.554331 
L 238.650974 182.707969 
L 237.529404 180.938726 
L 239.959375 214.554331 
z
M 153.241407 47.976945 
L 91.869841 113.325339 
L 90.948243 115.590422 
L 87.234476 130.544429 
L 73.206784 214.554331 
L 76.208116 214.554331 
L 89.703671 133.731315 
L 94.544315 114.23978 
L 95.745556 111.287397 
L 154.031984 49.224057 
z
" clip-path="url(#p64a6952917)" style="fill: #28ae80; fill-opacity: 0.7"/>
    <path d="M 241.946728 214.554331 
L 239.772544 184.477211 
L 238.650974 182.707969 
L 240.953052 214.554331 
z
M 152.45083 46.729834 
L 87.994126 115.36328 
L 87.35217 116.941064 
L 84.76528 127.357544 
L 70.205453 214.554331 
L 73.206784 214.554331 
L 87.234476 130.544429 
L 90.948243 115.590422 
L 91.869841 113.325339 
L 153.241407 47.976945 
z
" clip-path="url(#p64a6952917)" style="fill: #2fb47c; fill-opacity: 0.7"/>
    <path d="M 242.940404 214.554331 
L 240.894113 186.246453 
L 239.772544 184.477211 
L 241.946728 214.554331 
z
M 151.660253 45.482723 
L 84.118411 117.401221 
L 83.756098 118.291706 
L 82.296084 124.170658 
L 67.204122 214.554331 
L 70.205453 214.554331 
L 84.76528 127.357544 
L 87.35217 116.941064 
L 87.994126 115.36328 
L 152.45083 46.729834 
z
" clip-path="url(#p64a6952917)" style="fill: #37b878; fill-opacity: 0.7"/>
    <path d="M 243.934081 214.554331 
L 242.015683 188.015696 
L 240.894113 186.246453 
L 242.940404 214.554331 
z
M 150.869677 44.235612 
L 80.242696 119.439162 
L 80.160025 119.642348 
L 79.826888 120.983773 
L 64.20279 214.554331 
L 67.204122 214.554331 
L 82.296084 124.170658 
L 83.756098 118.291706 
L 84.118411 117.401221 
L 151.660253 45.482723 
z
" clip-path="url(#p64a6952917)" style="fill: #40bd72; fill-opacity: 0.7"/>
    <path d="M 244.927757 214.554331 
L 243.137252 189.784938 
L 242.015683 188.015696 
L 243.934081 214.554331 
z
M 150.0791 42.988501 
L 81.966936 115.514276 
L 79.096922 120.041637 
L 76.226908 124.568998 
L 61.201459 214.554331 
L 64.20279 214.554331 
L 79.826888 120.983773 
L 80.160025 119.642348 
L 80.242696 119.439162 
L 150.869677 44.235612 
z
" clip-path="url(#p64a6952917)" style="fill: #4ac16d; fill-opacity: 0.7"/>
    <path d="M 245.921434 214.554331 
L 244.258822 191.55418 
L 243.137252 189.784938 
L 244.927757 214.554331 
z
M 149.288523 41.741389 
L 86.041514 109.086752 
L 81.966936 115.514276 
L 150.0791 42.988501 
z
M 72.15233 130.996522 
L 58.200128 214.554331 
L 61.201459 214.554331 
L 76.226908 124.568998 
z
" clip-path="url(#p64a6952917)" style="fill: #54c568; fill-opacity: 0.7"/>
    <path d="M 246.91511 214.554331 
L 245.380392 193.323423 
L 244.258822 191.55418 
L 245.921434 214.554331 
z
M 148.497946 40.494278 
L 90.116092 102.659228 
L 86.041514 109.086752 
L 149.288523 41.741389 
z
M 68.077752 137.424046 
L 55.198796 214.554331 
L 58.200128 214.554331 
L 72.15233 130.996522 
z
" clip-path="url(#p64a6952917)" style="fill: #60ca60; fill-opacity: 0.7"/>
    <path d="M 247.908786 214.554331 
L 246.501961 195.092665 
L 245.380392 193.323423 
L 246.91511 214.554331 
z
M 147.707369 39.247167 
L 94.190669 96.231704 
L 90.116092 102.659228 
L 148.497946 40.494278 
z
M 64.003175 143.85157 
L 52.197465 214.554331 
L 55.198796 214.554331 
L 68.077752 137.424046 
z
" clip-path="url(#p64a6952917)" style="fill: #6ccd5a; fill-opacity: 0.7"/>
    <path d="M 248.902463 214.554331 
L 247.623531 196.861907 
L 246.501961 195.092665 
L 247.908786 214.554331 
z
M 146.916792 38.000056 
L 98.265247 89.804181 
L 94.190669 96.231704 
L 147.707369 39.247167 
z
M 59.928597 150.279093 
L 49.196134 214.554331 
L 52.197465 214.554331 
L 64.003175 143.85157 
z
" clip-path="url(#p64a6952917)" style="fill: #7ad151; fill-opacity: 0.7"/>
    <path d="M 249.896139 214.554331 
L 248.7451 198.63115 
L 247.623531 196.861907 
L 248.902463 214.554331 
z
M 146.126215 36.752944 
L 102.339825 83.376657 
L 98.265247 89.804181 
L 146.916792 38.000056 
z
M 55.854019 156.706617 
L 46.194802 214.554331 
L 49.196134 214.554331 
L 59.928597 150.279093 
z
" clip-path="url(#p64a6952917)" style="fill: #86d549; fill-opacity: 0.7"/>
    <path d="M 250.889816 214.554331 
L 249.86667 200.400392 
L 248.7451 198.63115 
L 249.896139 214.554331 
z
M 145.335639 35.505833 
L 106.414402 76.949133 
L 102.339825 83.376657 
L 146.126215 36.752944 
z
M 51.779442 163.134141 
L 43.193471 214.554331 
L 46.194802 214.554331 
L 55.854019 156.706617 
z
" clip-path="url(#p64a6952917)" style="fill: #95d840; fill-opacity: 0.7"/>
    <path d="M 251.883492 214.554331 
L 250.98824 202.169634 
L 249.86667 200.400392 
L 250.889816 214.554331 
z
M 144.545062 34.258722 
L 110.48898 70.52161 
L 106.414402 76.949133 
L 145.335639 35.505833 
z
M 47.704864 169.561665 
L 40.19214 214.554331 
L 43.193471 214.554331 
L 51.779442 163.134141 
z
" clip-path="url(#p64a6952917)" style="fill: #a2da37; fill-opacity: 0.7"/>
    <path d="M 252.877168 214.554331 
L 252.109809 203.938877 
L 250.98824 202.169634 
L 251.883492 214.554331 
z
M 143.754485 33.011611 
L 114.563558 64.094086 
L 110.48898 70.52161 
L 144.545062 34.258722 
z
M 43.630286 175.989188 
L 37.190808 214.554331 
L 40.19214 214.554331 
L 47.704864 169.561665 
z
" clip-path="url(#p64a6952917)" style="fill: #b2dd2d; fill-opacity: 0.7"/>
    <path d="M 253.870845 214.554331 
L 253.231379 205.708119 
L 252.109809 203.938877 
L 252.877168 214.554331 
z
M 142.963908 31.7645 
L 118.638135 57.666562 
L 114.563558 64.094086 
L 143.754485 33.011611 
z
M 39.555709 182.416712 
L 34.189477 214.554331 
L 37.190808 214.554331 
L 43.630286 175.989188 
z
" clip-path="url(#p64a6952917)" style="fill: #c0df25; fill-opacity: 0.7"/>
    <path d="M 254.864521 214.554331 
L 254.352948 207.477361 
L 253.231379 205.708119 
L 253.870845 214.554331 
z
M 142.173331 30.517388 
L 122.712713 51.239038 
L 118.638135 57.666562 
L 142.963908 31.7645 
z
M 35.481131 188.844236 
L 31.188146 214.554331 
L 34.189477 214.554331 
L 39.555709 182.416712 
z
" clip-path="url(#p64a6952917)" style="fill: #cde11d; fill-opacity: 0.7"/>
    <path d="M 255.858198 214.554331 
L 255.474518 209.246604 
L 254.352948 207.477361 
L 254.864521 214.554331 
z
M 141.382754 29.270277 
L 126.787291 44.811515 
L 122.712713 51.239038 
L 142.173331 30.517388 
z
M 31.406553 195.271759 
L 28.186814 214.554331 
L 31.188146 214.554331 
L 35.481131 188.844236 
z
" clip-path="url(#p64a6952917)" style="fill: #dde318; fill-opacity: 0.7"/>
    <path d="M 256.851874 214.554331 
L 256.596088 211.015846 
L 255.474518 209.246604 
L 255.858198 214.554331 
z
M 140.592177 28.023166 
L 130.861868 38.383991 
L 126.787291 44.811515 
L 141.382754 29.270277 
z
M 27.331976 201.699283 
L 25.185483 214.554331 
L 28.186814 214.554331 
L 31.406553 195.271759 
z
" clip-path="url(#p64a6952917)" style="fill: #eae51a; fill-opacity: 0.7"/>
    <path d="M 257.845551 214.554331 
L 257.717657 212.785088 
L 256.596088 211.015846 
L 256.851874 214.554331 
z
M 139.8016 26.776055 
L 134.936446 31.956467 
L 130.861868 38.383991 
L 140.592177 28.023166 
z
M 23.257398 208.126807 
L 22.184152 214.554331 
L 25.185483 214.554331 
L 27.331976 201.699283 
z
" clip-path="url(#p64a6952917)" style="fill: #f8e621; fill-opacity: 0.7"/>
    <path d="M 257.717657 212.785088 
L 257.845551 214.554331 
L 258.839227 214.554331 
z
M 134.936446 31.956467 
L 139.8016 26.776055 
L 139.011024 25.528943 
z
M 22.184152 214.554331 
L 23.257398 208.126807 
L 19.18282 214.554331 
z
" clip-path="url(#p64a6952917)" style="fill: #fde725; fill-opacity: 0.7"/>
   </g>
   <g id="matplotlib.axis_1"/>
   <g id="matplotlib.axis_2"/>
   <g id="line2d_1">
    <path d="M 175.88124 83.690601 
L 210.907946 214.554331 
" clip-path="url(#p64a6952917)" style="fill: none; stroke: #555555; stroke-opacity: 0.9; stroke-width: 0.5; stroke-linecap: square"/>
   </g>
   <g id="line2d_2">
    <path d="M 175.88124 83.690601 
L 176.334562 214.554331 
" clip-path="url(#p64a6952917)" style="fill: none; stroke: #555555; stroke-opacity: 0.9; stroke-width: 0.5; stroke-linecap: square"/>
   </g>
   <g id="line2d_3">
    <path d="M 152.325268 214.554331 
L 19.18282 214.554331 
" clip-path="url(#p64a6952917)" style="fill: none; stroke: #555555; stroke-opacity: 0.9; stroke-width: 0.5; stroke-linecap: square"/>
   </g>
   <g id="line2d_4">
    <path d="M 175.88124 83.690601 
L 152.325268 214.554331 
" clip-path="url(#p64a6952917)" style="fill: none; stroke: #555555; stroke-opacity: 0.9; stroke-width: 0.5; stroke-linecap: square"/>
   </g>
   <g id="line2d_5">
    <path d="M 168.968074 72.78529 
L 175.88124 83.690601 
" clip-path="url(#p64a6952917)" style="fill: none; stroke: #555555; stroke-opacity: 0.9; stroke-width: 0.5; stroke-linecap: square"/>
   </g>
   <g id="line2d_6">
    <path d="M 79.096922 120.041637 
L 152.325268 214.554331 
" clip-path="url(#p64a6952917)" style="fill: none; stroke: #555555; stroke-opacity: 0.9; stroke-width: 0.5; stroke-linecap: square"/>
   </g>
   <g id="line2d_7">
    <path d="M 79.096922 120.041637 
L 19.18282 214.554331 
" clip-path="url(#p64a6952917)" style="fill: none; stroke: #555555; stroke-opacity: 0.9; stroke-width: 0.5; stroke-linecap: square"/>
   </g>
   <g id="line2d_8">
    <path d="M 175.88124 83.690601 
L 79.096922 120.041637 
" clip-path="url(#p64a6952917)" style="fill: none; stroke: #555555; stroke-opacity: 0.9; stroke-width: 0.5; stroke-linecap: square"/>
   </g>
   <g id="line2d_9">
    <path d="M 218.896492 151.545868 
L 210.907946 214.554331 
" clip-path="url(#p64a6952917)" style="fill: none; stroke: #555555; stroke-opacity: 0.9; stroke-width: 0.5; stroke-linecap: square"/>
   </g>
   <g id="line2d_10">
    <path d="M 210.907946 214.554331 
L 176.334562 214.554331 
" clip-path="url(#p64a6952917)" style="fill: none; stroke: #555555; stroke-opacity: 0.9; stroke-width: 0.5; stroke-linecap: square"/>
   </g>
   <g id="line2d_11">
    <path d="M 168.968074 72.78529 
L 79.096922 120.041637 
" clip-path="url(#p64a6952917)" style="fill: none; stroke: #555555; stroke-opacity: 0.9; stroke-width: 0.5; stroke-linecap: square"/>
   </g>
   <g id="line2d_12">
    <path d="M 152.325268 214.554331 
L 160.157177 214.554331 
" clip-path="url(#p64a6952917)" style="fill: none; stroke: #555555; stroke-opacity: 0.9; stroke-width: 0.5; stroke-linecap: square"/>
   </g>
   <g id="line2d_13">
    <path d="M 175.88124 83.690601 
L 160.157177 214.554331 
" clip-path="url(#p64a6952917)" style="fill: none; stroke: #555555; stroke-opacity: 0.9; stroke-width: 0.5; stroke-linecap: square"/>
   </g>
   <g id="line2d_14">
    <path d="M 160.157177 214.554331 
L 176.334562 214.554331 
" clip-path="url(#p64a6952917)" style="fill: none; stroke: #555555; stroke-opacity: 0.9; stroke-width: 0.5; stroke-linecap: square"/>
   </g>
   <g id="line2d_15">
    <path d="M 210.907946 214.554331 
L 258.839227 214.554331 
" clip-path="url(#p64a6952917)" style="fill: none; stroke: #555555; stroke-opacity: 0.9; stroke-width: 0.5; stroke-linecap: square"/>
   </g>
   <g id="line2d_16">
    <path d="M 218.896492 151.545868 
L 258.839227 214.554331 
" clip-path="url(#p64a6952917)" style="fill: none; stroke: #555555; stroke-opacity: 0.9; stroke-width: 0.5; stroke-linecap: square"/>
   </g>
   <g id="line2d_17">
    <path d="M 198.925125 120.041637 
L 218.896492 151.545868 
" clip-path="url(#p64a6952917)" style="fill: none; stroke: #555555; stroke-opacity: 0.9; stroke-width: 0.5; stroke-linecap: square"/>
   </g>
   <g id="line2d_18">
    <path d="M 198.925125 120.041637 
L 175.88124 83.690601 
" clip-path="url(#p64a6952917)" style="fill: none; stroke: #555555; stroke-opacity: 0.9; stroke-width: 0.5; stroke-linecap: square"/>
   </g>
   <g id="line2d_19">
    <path d="M 198.925125 120.041637 
L 210.907946 214.554331 
" clip-path="url(#p64a6952917)" style="fill: none; stroke: #555555; stroke-opacity: 0.9; stroke-width: 0.5; stroke-linecap: square"/>
   </g>
   <g id="line2d_20">
    <path d="M 79.096922 120.041637 
L 139.011024 25.528943 
" clip-path="url(#p64a6952917)" style="fill: none; stroke: #555555; stroke-opacity: 0.9; stroke-width: 0.5; stroke-linecap: square"/>
   </g>
   <g id="line2d_21">
    <path d="M 168.968074 72.78529 
L 139.011024 25.528943 
" clip-path="url(#p64a6952917)" style="fill: none; stroke: #555555; stroke-opacity: 0.9; stroke-width: 0.5; stroke-linecap: square"/>
   </g>
   <g id="PathCollection_1">
    <defs>
     <path id="m832a09de0b" d="M 0 2.738613 
C 0.726289 2.738613 1.422928 2.450055 1.936492 1.936492 
C 2.450055 1.422928 2.738613 0.726289 2.738613 0 
C 2.738613 -0.726289 2.450055 -1.422928 1.936492 -1.936492 
C 1.422928 -2.450055 0.726289 -2.738613 0 -2.738613 
C -0.726289 -2.738613 -1.422928 -2.450055 -1.936492 -1.936492 
C -2.450055 -1.422928 -2.738613 -0.726289 -2.738613 0 
C -2.738613 0.726289 -2.450055 1.422928 -1.936492 1.936492 
C -1.422928 2.450055 -0.726289 2.738613 0 2.738613 
z
" style="stroke: #008000"/>
    </defs>
    <g clip-path="url(#p64a6952917)">
     <use xlink:href="#m832a09de0b" x="175.88124" y="83.690601" style="fill: #008000; stroke: #008000"/>
     <use xlink:href="#m832a09de0b" x="210.907946" y="214.554331" style="fill: #008000; stroke: #008000"/>
     <use xlink:href="#m832a09de0b" x="176.334562" y="214.554331" style="fill: #008000; stroke: #008000"/>
     <use xlink:href="#m832a09de0b" x="152.325268" y="214.554331" style="fill: #008000; stroke: #008000"/>
     <use xlink:href="#m832a09de0b" x="19.18282" y="214.554331" style="fill: #008000; stroke: #008000"/>
     <use xlink:href="#m832a09de0b" x="168.968074" y="72.78529" style="fill: #008000; stroke: #008000"/>
     <use xlink:href="#m832a09de0b" x="79.096922" y="120.041637" style="fill: #008000; stroke: #008000"/>
     <use xlink:href="#m832a09de0b" x="218.896492" y="151.545868" style="fill: #008000; stroke: #008000"/>
     <use xlink:href="#m832a09de0b" x="160.157177" y="214.554331" style="fill: #008000; stroke: #008000"/>
     <use xlink:href="#m832a09de0b" x="258.839227" y="214.554331" style="fill: #008000; stroke: #008000"/>
     <use xlink:href="#m832a09de0b" x="198.925125" y="120.041637" style="fill: #008000; stroke: #008000"/>
     <use xlink:href="#m832a09de0b" x="139.011024" y="25.528943" style="fill: #008000; stroke: #008000"/>
    </g>
   </g>
   <g id="PathCollection_2">
    <defs>
     <path id="m7d22beae46" d="M -0 2.236068 
L 1.341641 0 
L 0 -2.236068 
L -1.341641 -0 
z
" style="stroke: #d3d3d3"/>
    </defs>
    <g clip-path="url(#p64a6952917)">
     <use xlink:href="#m7d22beae46" x="139.011024" y="25.528943" style="fill: #d3d3d3; stroke: #d3d3d3"/>
     <use xlink:href="#m7d22beae46" x="139.011024" y="25.528943" style="fill: #d3d3d3; stroke: #d3d3d3"/>
     <use xlink:href="#m7d22beae46" x="139.011024" y="25.528943" style="fill: #d3d3d3; stroke: #d3d3d3"/>
     <use xlink:href="#m7d22beae46" x="139.011024" y="25.528943" style="fill: #d3d3d3; stroke: #d3d3d3"/>
     <use xlink:href="#m7d22beae46" x="139.011024" y="25.528943" style="fill: #d3d3d3; stroke: #d3d3d3"/>
     <use xlink:href="#m7d22beae46" x="139.011024" y="25.528943" style="fill: #d3d3d3; stroke: #d3d3d3"/>
     <use xlink:href="#m7d22beae46" x="139.011024" y="25.528943" style="fill: #d3d3d3; stroke: #d3d3d3"/>
     <use xlink:href="#m7d22beae46" x="258.839227" y="214.554331" style="fill: #d3d3d3; stroke: #d3d3d3"/>
     <use xlink:href="#m7d22beae46" x="258.839227" y="214.554331" style="fill: #d3d3d3; stroke: #d3d3d3"/>
     <use xlink:href="#m7d22beae46" x="258.839227" y="214.554331" style="fill: #d3d3d3; stroke: #d3d3d3"/>
     <use xlink:href="#m7d22beae46" x="258.839227" y="214.554331" style="fill: #d3d3d3; stroke: #d3d3d3"/>
     <use xlink:href="#m7d22beae46" x="258.839227" y="214.554331" style="fill: #d3d3d3; stroke: #d3d3d3"/>
     <use xlink:href="#m7d22beae46" x="258.839227" y="214.554331" style="fill: #d3d3d3; stroke: #d3d3d3"/>
     <use xlink:href="#m7d22beae46" x="258.839227" y="214.554331" style="fill: #d3d3d3; stroke: #d3d3d3"/>
     <use xlink:href="#m7d22beae46" x="258.839227" y="214.554331" style="fill: #d3d3d3; stroke: #d3d3d3"/>
     <use xlink:href="#m7d22beae46" x="258.839227" y="214.554331" style="fill: #d3d3d3; stroke: #d3d3d3"/>
     <use xlink:href="#m7d22beae46" x="198.925125" y="120.041637" style="fill: #d3d3d3; stroke: #d3d3d3"/>
     <use xlink:href="#m7d22beae46" x="168.968074" y="72.78529" style="fill: #d3d3d3; stroke: #d3d3d3"/>
     <use xlink:href="#m7d22beae46" x="168.968074" y="72.78529" style="fill: #d3d3d3; stroke: #d3d3d3"/>
     <use xlink:href="#m7d22beae46" x="168.968074" y="72.78529" style="fill: #d3d3d3; stroke: #d3d3d3"/>
     <use xlink:href="#m7d22beae46" x="162.976664" y="63.334021" style="fill: #d3d3d3; stroke: #d3d3d3"/>
     <use xlink:href="#m7d22beae46" x="218.896492" y="151.545868" style="fill: #d3d3d3; stroke: #d3d3d3"/>
     <use xlink:href="#m7d22beae46" x="218.896492" y="151.545868" style="fill: #d3d3d3; stroke: #d3d3d3"/>
     <use xlink:href="#m7d22beae46" x="228.882176" y="167.297984" style="fill: #d3d3d3; stroke: #d3d3d3"/>
     <use xlink:href="#m7d22beae46" x="228.882176" y="167.297984" style="fill: #d3d3d3; stroke: #d3d3d3"/>
     <use xlink:href="#m7d22beae46" x="210.907946" y="138.944176" style="fill: #d3d3d3; stroke: #d3d3d3"/>
     <use xlink:href="#m7d22beae46" x="164.238014" y="65.323762" style="fill: #d3d3d3; stroke: #d3d3d3"/>
     <use xlink:href="#m7d22beae46" x="19.18282" y="214.554331" style="fill: #d3d3d3; stroke: #d3d3d3"/>
     <use xlink:href="#m7d22beae46" x="19.18282" y="214.554331" style="fill: #d3d3d3; stroke: #d3d3d3"/>
     <use xlink:href="#m7d22beae46" x="19.18282" y="214.554331" style="fill: #d3d3d3; stroke: #d3d3d3"/>
     <use xlink:href="#m7d22beae46" x="19.18282" y="214.554331" style="fill: #d3d3d3; stroke: #d3d3d3"/>
     <use xlink:href="#m7d22beae46" x="19.18282" y="214.554331" style="fill: #d3d3d3; stroke: #d3d3d3"/>
     <use xlink:href="#m7d22beae46" x="19.18282" y="214.554331" style="fill: #d3d3d3; stroke: #d3d3d3"/>
     <use xlink:href="#m7d22beae46" x="19.18282" y="214.554331" style="fill: #d3d3d3; stroke: #d3d3d3"/>
     <use xlink:href="#m7d22beae46" x="19.18282" y="214.554331" style="fill: #d3d3d3; stroke: #d3d3d3"/>
     <use xlink:href="#m7d22beae46" x="19.18282" y="214.554331" style="fill: #d3d3d3; stroke: #d3d3d3"/>
     <use xlink:href="#m7d22beae46" x="19.18282" y="214.554331" style="fill: #d3d3d3; stroke: #d3d3d3"/>
     <use xlink:href="#m7d22beae46" x="130.451866" y="39.030757" style="fill: #d3d3d3; stroke: #d3d3d3"/>
     <use xlink:href="#m7d22beae46" x="139.011024" y="214.554331" style="fill: #d3d3d3; stroke: #d3d3d3"/>
     <use xlink:href="#m7d22beae46" x="178.953758" y="214.554331" style="fill: #d3d3d3; stroke: #d3d3d3"/>
     <use xlink:href="#m7d22beae46" x="203.533902" y="156.392673" style="fill: #d3d3d3; stroke: #d3d3d3"/>
     <use xlink:href="#m7d22beae46" x="168.968074" y="214.554331" style="fill: #d3d3d3; stroke: #d3d3d3"/>
     <use xlink:href="#m7d22beae46" x="67.114102" y="214.554331" style="fill: #d3d3d3; stroke: #d3d3d3"/>
     <use xlink:href="#m7d22beae46" x="115.045383" y="176.749253" style="fill: #d3d3d3; stroke: #d3d3d3"/>
     <use xlink:href="#m7d22beae46" x="174.959485" y="214.554331" style="fill: #d3d3d3; stroke: #d3d3d3"/>
    </g>
   </g>
   <g id="PathCollection_3">
    <defs>
     <path id="m7fc913a9f0" d="M 0 -5 
L -1.12257 -1.545085 
L -4.755283 -1.545085 
L -1.816356 0.59017 
L -2.938926 4.045085 
L -0 1.90983 
L 2.938926 4.045085 
L 1.816356 0.59017 
L 4.755283 -1.545085 
L 1.12257 -1.545085 
z
" style="stroke: #0000ff"/>
    </defs>
    <g clip-path="url(#p64a6952917)">
     <use xlink:href="#m7fc913a9f0" x="203.533902" y="156.392673" style="fill: #0000ff; stroke: #0000ff"/>
    </g>
   </g>
   <g id="text_1">
    <!-- $\mathrm{Al_{4}Cu_{9}}$ -->
    <g transform="translate(175.944876 87.026639) scale(0.1 -0.1)">
     <defs>
      <path id="DejaVuSans-41" d="M 2188 4044 
L 1331 1722 
L 3047 1722 
L 2188 4044 
z
M 1831 4666 
L 2547 4666 
L 4325 0 
L 3669 0 
L 3244 1197 
L 1141 1197 
L 716 0 
L 50 0 
L 1831 4666 
z
" transform="scale(0.015625)"/>
      <path id="DejaVuSans-6c" d="M 603 4863 
L 1178 4863 
L 1178 0 
L 603 0 
L 603 4863 
z
" transform="scale(0.015625)"/>
      <path id="DejaVuSans-34" d="M 2419 4116 
L 825 1625 
L 2419 1625 
L 2419 4116 
z
M 2253 4666 
L 3047 4666 
L 3047 1625 
L 3713 1625 
L 3713 1100 
L 3047 1100 
L 3047 0 
L 2419 0 
L 2419 1100 
L 313 1100 
L 313 1709 
L 2253 4666 
z
" transform="scale(0.015625)"/>
      <path id="DejaVuSans-43" d="M 4122 4306 
L 4122 3641 
Q 3803 3938 3442 4084 
Q 3081 4231 2675 4231 
Q 1875 4231 1450 3742 
Q 1025 3253 1025 2328 
Q 1025 1406 1450 917 
Q 1875 428 2675 428 
Q 3081 428 3442 575 
Q 3803 722 4122 1019 
L 4122 359 
Q 3791 134 3420 21 
Q 3050 -91 2638 -91 
Q 1578 -91 968 557 
Q 359 1206 359 2328 
Q 359 3453 968 4101 
Q 1578 4750 2638 4750 
Q 3056 4750 3426 4639 
Q 3797 4528 4122 4306 
z
" transform="scale(0.015625)"/>
      <path id="DejaVuSans-75" d="M 544 1381 
L 544 3500 
L 1119 3500 
L 1119 1403 
Q 1119 906 1312 657 
Q 1506 409 1894 409 
Q 2359 409 2629 706 
Q 2900 1003 2900 1516 
L 2900 3500 
L 3475 3500 
L 3475 0 
L 2900 0 
L 2900 538 
Q 2691 219 2414 64 
Q 2138 -91 1772 -91 
Q 1169 -91 856 284 
Q 544 659 544 1381 
z
M 1991 3584 
L 1991 3584 
z
" transform="scale(0.015625)"/>
      <path id="DejaVuSans-39" d="M 703 97 
L 703 672 
Q 941 559 1184 500 
Q 1428 441 1663 441 
Q 2288 441 2617 861 
Q 2947 1281 2994 2138 
Q 2813 1869 2534 1725 
Q 2256 1581 1919 1581 
Q 1219 1581 811 2004 
Q 403 2428 403 3163 
Q 403 3881 828 4315 
Q 1253 4750 1959 4750 
Q 2769 4750 3195 4129 
Q 3622 3509 3622 2328 
Q 3622 1225 3098 567 
Q 2575 -91 1691 -91 
Q 1453 -91 1209 -44 
Q 966 3 703 97 
z
M 1959 2075 
Q 2384 2075 2632 2365 
Q 2881 2656 2881 3163 
Q 2881 3666 2632 3958 
Q 2384 4250 1959 4250 
Q 1534 4250 1286 3958 
Q 1038 3666 1038 3163 
Q 1038 2656 1286 2365 
Q 1534 2075 1959 2075 
z
" transform="scale(0.015625)"/>
     </defs>
     <use xlink:href="#DejaVuSans-41" transform="translate(0 0.015625)"/>
     <use xlink:href="#DejaVuSans-6c" transform="translate(68.408203 0.015625)"/>
     <use xlink:href="#DejaVuSans-34" transform="translate(97.148438 -16.390625) scale(0.7)"/>
     <use xlink:href="#DejaVuSans-43" transform="translate(144.418945 0.015625)"/>
     <use xlink:href="#DejaVuSans-75" transform="translate(214.243164 0.015625)"/>
     <use xlink:href="#DejaVuSans-39" transform="translate(278.579102 -16.390625) scale(0.7)"/>
    </g>
   </g>
   <g id="text_2">
    <!-- $\mathrm{BaAl_{4}}$ -->
    <g transform="translate(216.139764 211.792048) scale(0.1 -0.1)">
     <defs>
      <path id="DejaVuSans-42" d="M 1259 2228 
L 1259 519 
L 2272 519 
Q 2781 519 3026 730 
Q 3272 941 3272 1375 
Q 3272 1813 3026 2020 
Q 2781 2228 2272 2228 
L 1259 2228 
z
M 1259 4147 
L 1259 2741 
L 2194 2741 
Q 2656 2741 2882 2914 
Q 3109 3088 3109 3444 
Q 3109 3797 2882 3972 
Q 2656 4147 2194 4147 
L 1259 4147 
z
M 628 4666 
L 2241 4666 
Q 2963 4666 3353 4366 
Q 3744 4066 3744 3513 
Q 3744 3084 3544 2831 
Q 3344 2578 2956 2516 
Q 3422 2416 3680 2098 
Q 3938 1781 3938 1306 
Q 3938 681 3513 340 
Q 3088 0 2303 0 
L 628 0 
L 628 4666 
z
" transform="scale(0.015625)"/>
      <path id="DejaVuSans-61" d="M 2194 1759 
Q 1497 1759 1228 1600 
Q 959 1441 959 1056 
Q 959 750 1161 570 
Q 1363 391 1709 391 
Q 2188 391 2477 730 
Q 2766 1069 2766 1631 
L 2766 1759 
L 2194 1759 
z
M 3341 1997 
L 3341 0 
L 2766 0 
L 2766 531 
Q 2569 213 2275 61 
Q 1981 -91 1556 -91 
Q 1019 -91 701 211 
Q 384 513 384 1019 
Q 384 1609 779 1909 
Q 1175 2209 1959 2209 
L 2766 2209 
L 2766 2266 
Q 2766 2663 2505 2880 
Q 2244 3097 1772 3097 
Q 1472 3097 1187 3025 
Q 903 2953 641 2809 
L 641 3341 
Q 956 3463 1253 3523 
Q 1550 3584 1831 3584 
Q 2591 3584 2966 3190 
Q 3341 2797 3341 1997 
z
" transform="scale(0.015625)"/>
     </defs>
     <use xlink:href="#DejaVuSans-42" transform="translate(0 0.015625)"/>
     <use xlink:href="#DejaVuSans-61" transform="translate(68.603516 0.015625)"/>
     <use xlink:href="#DejaVuSans-41" transform="translate(129.882812 0.015625)"/>
     <use xlink:href="#DejaVuSans-6c" transform="translate(198.291016 0.015625)"/>
     <use xlink:href="#DejaVuSans-34" transform="translate(227.03125 -16.390625) scale(0.7)"/>
    </g>
   </g>
   <g id="text_3">
    <!-- $\mathrm{Ba_{21}Al_{40}}$ -->
    <g transform="translate(187.80729 199.371282) scale(0.1 -0.1)">
     <defs>
      <path id="DejaVuSans-32" d="M 1228 531 
L 3431 531 
L 3431 0 
L 469 0 
L 469 531 
Q 828 903 1448 1529 
Q 2069 2156 2228 2338 
Q 2531 2678 2651 2914 
Q 2772 3150 2772 3378 
Q 2772 3750 2511 3984 
Q 2250 4219 1831 4219 
Q 1534 4219 1204 4116 
Q 875 4013 500 3803 
L 500 4441 
Q 881 4594 1212 4672 
Q 1544 4750 1819 4750 
Q 2544 4750 2975 4387 
Q 3406 4025 3406 3419 
Q 3406 3131 3298 2873 
Q 3191 2616 2906 2266 
Q 2828 2175 2409 1742 
Q 1991 1309 1228 531 
z
" transform="scale(0.015625)"/>
      <path id="DejaVuSans-31" d="M 794 531 
L 1825 531 
L 1825 4091 
L 703 3866 
L 703 4441 
L 1819 4666 
L 2450 4666 
L 2450 531 
L 3481 531 
L 3481 0 
L 794 0 
L 794 531 
z
" transform="scale(0.015625)"/>
      <path id="DejaVuSans-30" d="M 2034 4250 
Q 1547 4250 1301 3770 
Q 1056 3291 1056 2328 
Q 1056 1369 1301 889 
Q 1547 409 2034 409 
Q 2525 409 2770 889 
Q 3016 1369 3016 2328 
Q 3016 3291 2770 3770 
Q 2525 4250 2034 4250 
z
M 2034 4750 
Q 2819 4750 3233 4129 
Q 3647 3509 3647 2328 
Q 3647 1150 3233 529 
Q 2819 -91 2034 -91 
Q 1250 -91 836 529 
Q 422 1150 422 2328 
Q 422 3509 836 4129 
Q 1250 4750 2034 4750 
z
" transform="scale(0.015625)"/>
     </defs>
     <use xlink:href="#DejaVuSans-42" transform="translate(0 0.015625)"/>
     <use xlink:href="#DejaVuSans-61" transform="translate(68.603516 0.015625)"/>
     <use xlink:href="#DejaVuSans-32" transform="translate(130.839844 -16.390625) scale(0.7)"/>
     <use xlink:href="#DejaVuSans-31" transform="translate(175.375977 -16.390625) scale(0.7)"/>
     <use xlink:href="#DejaVuSans-41" transform="translate(222.646484 0.015625)"/>
     <use xlink:href="#DejaVuSans-6c" transform="translate(291.054688 0.015625)"/>
     <use xlink:href="#DejaVuSans-34" transform="translate(319.794922 -16.390625) scale(0.7)"/>
     <use xlink:href="#DejaVuSans-30" transform="translate(364.331055 -16.390625) scale(0.7)"/>
    </g>
   </g>
   <g id="text_4">
    <!-- $\mathrm{Ba_{4}Al_{5}}$ -->
    <g transform="translate(118.502541 206.230203) scale(0.1 -0.1)">
     <defs>
      <path id="DejaVuSans-35" d="M 691 4666 
L 3169 4666 
L 3169 4134 
L 1269 4134 
L 1269 2991 
Q 1406 3038 1543 3061 
Q 1681 3084 1819 3084 
Q 2600 3084 3056 2656 
Q 3513 2228 3513 1497 
Q 3513 744 3044 326 
Q 2575 -91 1722 -91 
Q 1428 -91 1123 -41 
Q 819 9 494 109 
L 494 744 
Q 775 591 1075 516 
Q 1375 441 1709 441 
Q 2250 441 2565 725 
Q 2881 1009 2881 1497 
Q 2881 1984 2565 2268 
Q 2250 2553 1709 2553 
Q 1456 2553 1204 2497 
Q 953 2441 691 2322 
L 691 4666 
z
" transform="scale(0.015625)"/>
     </defs>
     <use xlink:href="#DejaVuSans-42" transform="translate(0 0.015625)"/>
     <use xlink:href="#DejaVuSans-61" transform="translate(68.603516 0.015625)"/>
     <use xlink:href="#DejaVuSans-34" transform="translate(130.839844 -16.390625) scale(0.7)"/>
     <use xlink:href="#DejaVuSans-41" transform="translate(178.110352 0.015625)"/>
     <use xlink:href="#DejaVuSans-6c" transform="translate(246.518555 0.015625)"/>
     <use xlink:href="#DejaVuSans-35" transform="translate(275.258789 -16.390625) scale(0.7)"/>
    </g>
   </g>
   <g id="text_5">
    <!-- $\mathrm{Ba}$ -->
    <g transform="translate(19.500316 212.151181) scale(0.1 -0.1)">
     <use xlink:href="#DejaVuSans-42" transform="translate(0 0.09375)"/>
     <use xlink:href="#DejaVuSans-61" transform="translate(68.603516 0.09375)"/>
    </g>
   </g>
   <g id="text_6">
    <!-- $\mathrm{AlCu_{3}}$ -->
    <g transform="translate(161.613529 68.638869) scale(0.1 -0.1)">
     <defs>
      <path id="DejaVuSans-33" d="M 2597 2516 
Q 3050 2419 3304 2112 
Q 3559 1806 3559 1356 
Q 3559 666 3084 287 
Q 2609 -91 1734 -91 
Q 1441 -91 1130 -33 
Q 819 25 488 141 
L 488 750 
Q 750 597 1062 519 
Q 1375 441 1716 441 
Q 2309 441 2620 675 
Q 2931 909 2931 1356 
Q 2931 1769 2642 2001 
Q 2353 2234 1838 2234 
L 1294 2234 
L 1294 2753 
L 1863 2753 
Q 2328 2753 2575 2939 
Q 2822 3125 2822 3475 
Q 2822 3834 2567 4026 
Q 2313 4219 1838 4219 
Q 1578 4219 1281 4162 
Q 984 4106 628 3988 
L 628 4550 
Q 988 4650 1302 4700 
Q 1616 4750 1894 4750 
Q 2613 4750 3031 4423 
Q 3450 4097 3450 3541 
Q 3450 3153 3228 2886 
Q 3006 2619 2597 2516 
z
" transform="scale(0.015625)"/>
     </defs>
     <use xlink:href="#DejaVuSans-41" transform="translate(0 0.015625)"/>
     <use xlink:href="#DejaVuSans-6c" transform="translate(68.408203 0.015625)"/>
     <use xlink:href="#DejaVuSans-43" transform="translate(96.191406 0.015625)"/>
     <use xlink:href="#DejaVuSans-75" transform="translate(166.015625 0.015625)"/>
     <use xlink:href="#DejaVuSans-33" transform="translate(230.351562 -16.390625) scale(0.7)"/>
    </g>
   </g>
   <g id="text_7">
    <!-- $\mathrm{BaCu}$ -->
    <g transform="translate(58.042377 128.238638) scale(0.1 -0.1)">
     <use xlink:href="#DejaVuSans-42" transform="translate(0 0.78125)"/>
     <use xlink:href="#DejaVuSans-61" transform="translate(68.603516 0.78125)"/>
     <use xlink:href="#DejaVuSans-43" transform="translate(129.882812 0.78125)"/>
     <use xlink:href="#DejaVuSans-75" transform="translate(199.707031 0.78125)"/>
    </g>
   </g>
   <g id="text_8">
    <!-- $\mathrm{Al_{2}Cu}$ -->
    <g transform="translate(211.541947 147.420198) scale(0.1 -0.1)">
     <use xlink:href="#DejaVuSans-41" transform="translate(0 0.015625)"/>
     <use xlink:href="#DejaVuSans-6c" transform="translate(68.408203 0.015625)"/>
     <use xlink:href="#DejaVuSans-32" transform="translate(97.148438 -16.390625) scale(0.7)"/>
     <use xlink:href="#DejaVuSans-43" transform="translate(144.418945 0.015625)"/>
     <use xlink:href="#DejaVuSans-75" transform="translate(214.243164 0.015625)"/>
    </g>
   </g>
   <g id="text_9">
    <!-- $\mathrm{Ba_{7}Al_{10}}$ -->
    <g transform="translate(152.229904 210.594971) scale(0.1 -0.1)">
     <defs>
      <path id="DejaVuSans-37" d="M 525 4666 
L 3525 4666 
L 3525 4397 
L 1831 0 
L 1172 0 
L 2766 4134 
L 525 4134 
L 525 4666 
z
" transform="scale(0.015625)"/>
     </defs>
     <use xlink:href="#DejaVuSans-42" transform="translate(0 0.015625)"/>
     <use xlink:href="#DejaVuSans-61" transform="translate(68.603516 0.015625)"/>
     <use xlink:href="#DejaVuSans-37" transform="translate(130.839844 -16.390625) scale(0.7)"/>
     <use xlink:href="#DejaVuSans-41" transform="translate(178.110352 0.015625)"/>
     <use xlink:href="#DejaVuSans-6c" transform="translate(246.518555 0.015625)"/>
     <use xlink:href="#DejaVuSans-31" transform="translate(275.258789 -16.390625) scale(0.7)"/>
     <use xlink:href="#DejaVuSans-30" transform="translate(319.794922 -16.390625) scale(0.7)"/>
    </g>
   </g>
   <g id="text_10">
    <!-- $\mathrm{Al}$ -->
    <g transform="translate(249.389691 206.851105) scale(0.1 -0.1)">
     <use xlink:href="#DejaVuSans-41" transform="translate(0 0.015625)"/>
     <use xlink:href="#DejaVuSans-6c" transform="translate(68.408203 0.015625)"/>
    </g>
   </g>
   <g id="text_11">
    <!-- $\mathrm{AlCu}$ -->
    <g transform="translate(180.225125 128.238638) scale(0.1 -0.1)">
     <use xlink:href="#DejaVuSans-41" transform="translate(0 0.015625)"/>
     <use xlink:href="#DejaVuSans-6c" transform="translate(68.408203 0.015625)"/>
     <use xlink:href="#DejaVuSans-43" transform="translate(96.191406 0.015625)"/>
     <use xlink:href="#DejaVuSans-75" transform="translate(166.015625 0.015625)"/>
    </g>
   </g>
   <g id="text_12">
    <!-- $\mathrm{Cu}$ -->
    <g transform="translate(129.692842 33.725944) scale(0.1 -0.1)">
     <use xlink:href="#DejaVuSans-43" transform="translate(0 0.78125)"/>
     <use xlink:href="#DejaVuSans-75" transform="translate(69.824219 0.78125)"/>
    </g>
   </g>
   <g id="text_13">
    <!-- $\mathrm{Ba(Al_{2}Cu)_{4}}$ -->
    <g style="fill: #0000ff" transform="translate(157.197539 165.290556) scale(0.1 -0.1)">
     <defs>
      <path id="DejaVuSans-28" d="M 1984 4856 
Q 1566 4138 1362 3434 
Q 1159 2731 1159 2009 
Q 1159 1288 1364 580 
Q 1569 -128 1984 -844 
L 1484 -844 
Q 1016 -109 783 600 
Q 550 1309 550 2009 
Q 550 2706 781 3412 
Q 1013 4119 1484 4856 
L 1984 4856 
z
" transform="scale(0.015625)"/>
      <path id="DejaVuSans-29" d="M 513 4856 
L 1013 4856 
Q 1481 4119 1714 3412 
Q 1947 2706 1947 2009 
Q 1947 1309 1714 600 
Q 1481 -109 1013 -844 
L 513 -844 
Q 928 -128 1133 580 
Q 1338 1288 1338 2009 
Q 1338 2731 1133 3434 
Q 928 4138 513 4856 
z
" transform="scale(0.015625)"/>
     </defs>
     <use xlink:href="#DejaVuSans-42" transform="translate(0 0.015625)"/>
     <use xlink:href="#DejaVuSans-61" transform="translate(68.603516 0.015625)"/>
     <use xlink:href="#DejaVuSans-28" transform="translate(129.882812 0.015625)"/>
     <use xlink:href="#DejaVuSans-41" transform="translate(168.896484 0.015625)"/>
     <use xlink:href="#DejaVuSans-6c" transform="translate(237.304688 0.015625)"/>
     <use xlink:href="#DejaVuSans-32" transform="translate(266.044922 -16.390625) scale(0.7)"/>
     <use xlink:href="#DejaVuSans-43" transform="translate(313.31543 0.015625)"/>
     <use xlink:href="#DejaVuSans-75" transform="translate(383.139648 0.015625)"/>
     <use xlink:href="#DejaVuSans-29" transform="translate(446.518555 0.015625)"/>
     <use xlink:href="#DejaVuSans-34" transform="translate(486.489258 -16.390625) scale(0.7)"/>
    </g>
   </g>
  </g>
  <g id="axes_2">
   <g id="patch_3">
    <path d="M 287.298425 195.703937 
L 296.029134 195.703937 
L 296.029134 36.96378 
L 287.298425 36.96378 
L 287.298425 195.703937 
z
" style="fill: none"/>
   </g>
   <g id="patch_4">
    <path d="M 287.298425 195.703937 
L 291.66378 203.640945 
L 296.029134 195.703937 
" style="fill: #440154; opacity: 0.7"/>
   </g>
   <g id="patch_5">
    <path d="M 287.298425 36.96378 
L 291.66378 29.026772 
L 296.029134 36.96378 
" style="fill: #fde725; opacity: 0.7"/>
   </g>
   <g id="QuadMesh_1">
    <path d="M 287.298425 195.703937 
L 296.029134 195.703937 
L 296.029134 192.326487 
L 287.298425 192.326487 
L 287.298425 195.703937 
" clip-path="url(#p68c9597ea0)" style="fill: #450457; fill-opacity: 0.7"/>
    <path d="M 287.298425 192.326487 
L 296.029134 192.326487 
L 296.029134 188.949037 
L 287.298425 188.949037 
L 287.298425 192.326487 
" clip-path="url(#p68c9597ea0)" style="fill: #470d60; fill-opacity: 0.7"/>
    <path d="M 287.298425 188.949037 
L 296.029134 188.949037 
L 296.029134 185.571587 
L 287.298425 185.571587 
L 287.298425 188.949037 
" clip-path="url(#p68c9597ea0)" style="fill: #481467; fill-opacity: 0.7"/>
    <path d="M 287.298425 185.571587 
L 296.029134 185.571587 
L 296.029134 182.194136 
L 287.298425 182.194136 
L 287.298425 185.571587 
" clip-path="url(#p68c9597ea0)" style="fill: #481c6e; fill-opacity: 0.7"/>
    <path d="M 287.298425 182.194136 
L 296.029134 182.194136 
L 296.029134 178.816686 
L 287.298425 178.816686 
L 287.298425 182.194136 
" clip-path="url(#p68c9597ea0)" style="fill: #482374; fill-opacity: 0.7"/>
    <path d="M 287.298425 178.816686 
L 296.029134 178.816686 
L 296.029134 175.439236 
L 287.298425 175.439236 
L 287.298425 178.816686 
" clip-path="url(#p68c9597ea0)" style="fill: #482979; fill-opacity: 0.7"/>
    <path d="M 287.298425 175.439236 
L 296.029134 175.439236 
L 296.029134 172.061786 
L 287.298425 172.061786 
L 287.298425 175.439236 
" clip-path="url(#p68c9597ea0)" style="fill: #46307e; fill-opacity: 0.7"/>
    <path d="M 287.298425 172.061786 
L 296.029134 172.061786 
L 296.029134 168.684336 
L 287.298425 168.684336 
L 287.298425 172.061786 
" clip-path="url(#p68c9597ea0)" style="fill: #453781; fill-opacity: 0.7"/>
    <path d="M 287.298425 168.684336 
L 296.029134 168.684336 
L 296.029134 165.306886 
L 287.298425 165.306886 
L 287.298425 168.684336 
" clip-path="url(#p68c9597ea0)" style="fill: #433e85; fill-opacity: 0.7"/>
    <path d="M 287.298425 165.306886 
L 296.029134 165.306886 
L 296.029134 161.929435 
L 287.298425 161.929435 
L 287.298425 165.306886 
" clip-path="url(#p68c9597ea0)" style="fill: #414487; fill-opacity: 0.7"/>
    <path d="M 287.298425 161.929435 
L 296.029134 161.929435 
L 296.029134 158.551985 
L 287.298425 158.551985 
L 287.298425 161.929435 
" clip-path="url(#p68c9597ea0)" style="fill: #3e4a89; fill-opacity: 0.7"/>
    <path d="M 287.298425 158.551985 
L 296.029134 158.551985 
L 296.029134 155.174535 
L 287.298425 155.174535 
L 287.298425 158.551985 
" clip-path="url(#p68c9597ea0)" style="fill: #3c508b; fill-opacity: 0.7"/>
    <path d="M 287.298425 155.174535 
L 296.029134 155.174535 
L 296.029134 151.797085 
L 287.298425 151.797085 
L 287.298425 155.174535 
" clip-path="url(#p68c9597ea0)" style="fill: #39568c; fill-opacity: 0.7"/>
    <path d="M 287.298425 151.797085 
L 296.029134 151.797085 
L 296.029134 148.419635 
L 287.298425 148.419635 
L 287.298425 151.797085 
" clip-path="url(#p68c9597ea0)" style="fill: #365c8d; fill-opacity: 0.7"/>
    <path d="M 287.298425 148.419635 
L 296.029134 148.419635 
L 296.029134 145.042185 
L 287.298425 145.042185 
L 287.298425 148.419635 
" clip-path="url(#p68c9597ea0)" style="fill: #34618d; fill-opacity: 0.7"/>
    <path d="M 287.298425 145.042185 
L 296.029134 145.042185 
L 296.029134 141.664734 
L 287.298425 141.664734 
L 287.298425 145.042185 
" clip-path="url(#p68c9597ea0)" style="fill: #31678e; fill-opacity: 0.7"/>
    <path d="M 287.298425 141.664734 
L 296.029134 141.664734 
L 296.029134 138.287284 
L 287.298425 138.287284 
L 287.298425 141.664734 
" clip-path="url(#p68c9597ea0)" style="fill: #2f6c8e; fill-opacity: 0.7"/>
    <path d="M 287.298425 138.287284 
L 296.029134 138.287284 
L 296.029134 134.909834 
L 287.298425 134.909834 
L 287.298425 138.287284 
" clip-path="url(#p68c9597ea0)" style="fill: #2c718e; fill-opacity: 0.7"/>
    <path d="M 287.298425 134.909834 
L 296.029134 134.909834 
L 296.029134 131.532384 
L 287.298425 131.532384 
L 287.298425 134.909834 
" clip-path="url(#p68c9597ea0)" style="fill: #2a768e; fill-opacity: 0.7"/>
    <path d="M 287.298425 131.532384 
L 296.029134 131.532384 
L 296.029134 128.154934 
L 287.298425 128.154934 
L 287.298425 131.532384 
" clip-path="url(#p68c9597ea0)" style="fill: #287c8e; fill-opacity: 0.7"/>
    <path d="M 287.298425 128.154934 
L 296.029134 128.154934 
L 296.029134 124.777484 
L 287.298425 124.777484 
L 287.298425 128.154934 
" clip-path="url(#p68c9597ea0)" style="fill: #26818e; fill-opacity: 0.7"/>
    <path d="M 287.298425 124.777484 
L 296.029134 124.777484 
L 296.029134 121.400034 
L 287.298425 121.400034 
L 287.298425 124.777484 
" clip-path="url(#p68c9597ea0)" style="fill: #24868e; fill-opacity: 0.7"/>
    <path d="M 287.298425 121.400034 
L 296.029134 121.400034 
L 296.029134 118.022583 
L 287.298425 118.022583 
L 287.298425 121.400034 
" clip-path="url(#p68c9597ea0)" style="fill: #228b8d; fill-opacity: 0.7"/>
    <path d="M 287.298425 118.022583 
L 296.029134 118.022583 
L 296.029134 114.645133 
L 287.298425 114.645133 
L 287.298425 118.022583 
" clip-path="url(#p68c9597ea0)" style="fill: #21918c; fill-opacity: 0.7"/>
    <path d="M 287.298425 114.645133 
L 296.029134 114.645133 
L 296.029134 111.267683 
L 287.298425 111.267683 
L 287.298425 114.645133 
" clip-path="url(#p68c9597ea0)" style="fill: #1f958b; fill-opacity: 0.7"/>
    <path d="M 287.298425 111.267683 
L 296.029134 111.267683 
L 296.029134 107.890233 
L 287.298425 107.890233 
L 287.298425 111.267683 
" clip-path="url(#p68c9597ea0)" style="fill: #1f9a8a; fill-opacity: 0.7"/>
    <path d="M 287.298425 107.890233 
L 296.029134 107.890233 
L 296.029134 104.512783 
L 287.298425 104.512783 
L 287.298425 107.890233 
" clip-path="url(#p68c9597ea0)" style="fill: #1fa088; fill-opacity: 0.7"/>
    <path d="M 287.298425 104.512783 
L 296.029134 104.512783 
L 296.029134 101.135333 
L 287.298425 101.135333 
L 287.298425 104.512783 
" clip-path="url(#p68c9597ea0)" style="fill: #20a486; fill-opacity: 0.7"/>
    <path d="M 287.298425 101.135333 
L 296.029134 101.135333 
L 296.029134 97.757882 
L 287.298425 97.757882 
L 287.298425 101.135333 
" clip-path="url(#p68c9597ea0)" style="fill: #24aa83; fill-opacity: 0.7"/>
    <path d="M 287.298425 97.757882 
L 296.029134 97.757882 
L 296.029134 94.380432 
L 287.298425 94.380432 
L 287.298425 97.757882 
" clip-path="url(#p68c9597ea0)" style="fill: #28ae80; fill-opacity: 0.7"/>
    <path d="M 287.298425 94.380432 
L 296.029134 94.380432 
L 296.029134 91.002982 
L 287.298425 91.002982 
L 287.298425 94.380432 
" clip-path="url(#p68c9597ea0)" style="fill: #2fb47c; fill-opacity: 0.7"/>
    <path d="M 287.298425 91.002982 
L 296.029134 91.002982 
L 296.029134 87.625532 
L 287.298425 87.625532 
L 287.298425 91.002982 
" clip-path="url(#p68c9597ea0)" style="fill: #37b878; fill-opacity: 0.7"/>
    <path d="M 287.298425 87.625532 
L 296.029134 87.625532 
L 296.029134 84.248082 
L 287.298425 84.248082 
L 287.298425 87.625532 
" clip-path="url(#p68c9597ea0)" style="fill: #40bd72; fill-opacity: 0.7"/>
    <path d="M 287.298425 84.248082 
L 296.029134 84.248082 
L 296.029134 80.870632 
L 287.298425 80.870632 
L 287.298425 84.248082 
" clip-path="url(#p68c9597ea0)" style="fill: #4ac16d; fill-opacity: 0.7"/>
    <path d="M 287.298425 80.870632 
L 296.029134 80.870632 
L 296.029134 77.493181 
L 287.298425 77.493181 
L 287.298425 80.870632 
" clip-path="url(#p68c9597ea0)" style="fill: #54c568; fill-opacity: 0.7"/>
    <path d="M 287.298425 77.493181 
L 296.029134 77.493181 
L 296.029134 74.115731 
L 287.298425 74.115731 
L 287.298425 77.493181 
" clip-path="url(#p68c9597ea0)" style="fill: #60ca60; fill-opacity: 0.7"/>
    <path d="M 287.298425 74.115731 
L 296.029134 74.115731 
L 296.029134 70.738281 
L 287.298425 70.738281 
L 287.298425 74.115731 
" clip-path="url(#p68c9597ea0)" style="fill: #6ccd5a; fill-opacity: 0.7"/>
    <path d="M 287.298425 70.738281 
L 296.029134 70.738281 
L 296.029134 67.360831 
L 287.298425 67.360831 
L 287.298425 70.738281 
" clip-path="url(#p68c9597ea0)" style="fill: #7ad151; fill-opacity: 0.7"/>
    <path d="M 287.298425 67.360831 
L 296.029134 67.360831 
L 296.029134 63.983381 
L 287.298425 63.983381 
L 287.298425 67.360831 
" clip-path="url(#p68c9597ea0)" style="fill: #86d549; fill-opacity: 0.7"/>
    <path d="M 287.298425 63.983381 
L 296.029134 63.983381 
L 296.029134 60.605931 
L 287.298425 60.605931 
L 287.298425 63.983381 
" clip-path="url(#p68c9597ea0)" style="fill: #95d840; fill-opacity: 0.7"/>
    <path d="M 287.298425 60.605931 
L 296.029134 60.605931 
L 296.029134 57.22848 
L 287.298425 57.22848 
L 287.298425 60.605931 
" clip-path="url(#p68c9597ea0)" style="fill: #a2da37; fill-opacity: 0.7"/>
    <path d="M 287.298425 57.22848 
L 296.029134 57.22848 
L 296.029134 53.85103 
L 287.298425 53.85103 
L 287.298425 57.22848 
" clip-path="url(#p68c9597ea0)" style="fill: #b2dd2d; fill-opacity: 0.7"/>
    <path d="M 287.298425 53.85103 
L 296.029134 53.85103 
L 296.029134 50.47358 
L 287.298425 50.47358 
L 287.298425 53.85103 
" clip-path="url(#p68c9597ea0)" style="fill: #c0df25; fill-opacity: 0.7"/>
    <path d="M 287.298425 50.47358 
L 296.029134 50.47358 
L 296.029134 47.09613 
L 287.298425 47.09613 
L 287.298425 50.47358 
" clip-path="url(#p68c9597ea0)" style="fill: #cde11d; fill-opacity: 0.7"/>
    <path d="M 287.298425 47.09613 
L 296.029134 47.09613 
L 296.029134 43.71868 
L 287.298425 43.71868 
L 287.298425 47.09613 
" clip-path="url(#p68c9597ea0)" style="fill: #dde318; fill-opacity: 0.7"/>
    <path d="M 287.298425 43.71868 
L 296.029134 43.71868 
L 296.029134 40.34123 
L 287.298425 40.34123 
L 287.298425 43.71868 
" clip-path="url(#p68c9597ea0)" style="fill: #eae51a; fill-opacity: 0.7"/>
    <path d="M 287.298425 40.34123 
L 296.029134 40.34123 
L 296.029134 36.96378 
L 287.298425 36.96378 
L 287.298425 40.34123 
" clip-path="url(#p68c9597ea0)" style="fill: #f8e621; fill-opacity: 0.7"/>
   </g>
   <g id="matplotlib.axis_3"/>
   <g id="matplotlib.axis_4">
    <g id="ytick_1">
     <g id="line2d_22">
      <defs>
       <path id="m77b7635174" d="M 0 0 
L -2 0 
" style="stroke: #000000; stroke-width: 0.3"/>
      </defs>
      <g>
       <use xlink:href="#m77b7635174" x="296.029134" y="188.949037" style="stroke: #000000; stroke-width: 0.3"/>
      </g>
     </g>
     <g id="text_14">
      <!-- 0.230 -->
      <g transform="translate(299.529134 191.812162) scale(0.08 -0.08)">
       <defs>
        <path id="ArialMT-2212" d="M 3381 1997 
L 356 1997 
L 356 2522 
L 3381 2522 
L 3381 1997 
z
" transform="scale(0.015625)"/>
        <path id="ArialMT-30" d="M 266 2259 
Q 266 3072 433 3567 
Q 600 4063 929 4331 
Q 1259 4600 1759 4600 
Q 2128 4600 2406 4451 
Q 2684 4303 2865 4023 
Q 3047 3744 3150 3342 
Q 3253 2941 3253 2259 
Q 3253 1453 3087 958 
Q 2922 463 2592 192 
Q 2263 -78 1759 -78 
Q 1097 -78 719 397 
Q 266 969 266 2259 
z
M 844 2259 
Q 844 1131 1108 757 
Q 1372 384 1759 384 
Q 2147 384 2411 759 
Q 2675 1134 2675 2259 
Q 2675 3391 2411 3762 
Q 2147 4134 1753 4134 
Q 1366 4134 1134 3806 
Q 844 3388 844 2259 
z
" transform="scale(0.015625)"/>
        <path id="ArialMT-2e" d="M 581 0 
L 581 641 
L 1222 641 
L 1222 0 
L 581 0 
z
" transform="scale(0.015625)"/>
        <path id="ArialMT-32" d="M 3222 541 
L 3222 0 
L 194 0 
Q 188 203 259 391 
Q 375 700 629 1000 
Q 884 1300 1366 1694 
Q 2113 2306 2375 2664 
Q 2638 3022 2638 3341 
Q 2638 3675 2398 3904 
Q 2159 4134 1775 4134 
Q 1369 4134 1125 3890 
Q 881 3647 878 3216 
L 300 3275 
Q 359 3922 746 4261 
Q 1134 4600 1788 4600 
Q 2447 4600 2831 4234 
Q 3216 3869 3216 3328 
Q 3216 3053 3103 2787 
Q 2991 2522 2730 2228 
Q 2469 1934 1863 1422 
Q 1356 997 1212 845 
Q 1069 694 975 541 
L 3222 541 
z
" transform="scale(0.015625)"/>
        <path id="ArialMT-33" d="M 269 1209 
L 831 1284 
Q 928 806 1161 595 
Q 1394 384 1728 384 
Q 2125 384 2398 659 
Q 2672 934 2672 1341 
Q 2672 1728 2419 1979 
Q 2166 2231 1775 2231 
Q 1616 2231 1378 2169 
L 1441 2663 
Q 1497 2656 1531 2656 
Q 1891 2656 2178 2843 
Q 2466 3031 2466 3422 
Q 2466 3731 2256 3934 
Q 2047 4138 1716 4138 
Q 1388 4138 1169 3931 
Q 950 3725 888 3313 
L 325 3413 
Q 428 3978 793 4289 
Q 1159 4600 1703 4600 
Q 2078 4600 2393 4439 
Q 2709 4278 2876 4000 
Q 3044 3722 3044 3409 
Q 3044 3113 2884 2869 
Q 2725 2625 2413 2481 
Q 2819 2388 3044 2092 
Q 3269 1797 3269 1353 
Q 3269 753 2831 336 
Q 2394 -81 1725 -81 
Q 1122 -81 723 278 
Q 325 638 269 1209 
z
" transform="scale(0.015625)"/>
       </defs>
       <use xlink:href="#ArialMT-2212"/>
       <use xlink:href="#ArialMT-30" transform="translate(58.398438 0)"/>
       <use xlink:href="#ArialMT-2e" transform="translate(114.013672 0)"/>
       <use xlink:href="#ArialMT-32" transform="translate(141.796875 0)"/>
       <use xlink:href="#ArialMT-33" transform="translate(197.412109 0)"/>
       <use xlink:href="#ArialMT-30" transform="translate(253.027344 0)"/>
      </g>
     </g>
    </g>
    <g id="ytick_2">
     <g id="line2d_23">
      <g>
       <use xlink:href="#m77b7635174" x="296.029134" y="172.061786" style="stroke: #000000; stroke-width: 0.3"/>
      </g>
     </g>
     <g id="text_15">
      <!-- 0.205 -->
      <g transform="translate(299.529134 174.924911) scale(0.08 -0.08)">
       <defs>
        <path id="ArialMT-35" d="M 266 1200 
L 856 1250 
Q 922 819 1161 601 
Q 1400 384 1738 384 
Q 2144 384 2425 690 
Q 2706 997 2706 1503 
Q 2706 1984 2436 2262 
Q 2166 2541 1728 2541 
Q 1456 2541 1237 2417 
Q 1019 2294 894 2097 
L 366 2166 
L 809 4519 
L 3088 4519 
L 3088 3981 
L 1259 3981 
L 1013 2750 
Q 1425 3038 1878 3038 
Q 2478 3038 2890 2622 
Q 3303 2206 3303 1553 
Q 3303 931 2941 478 
Q 2500 -78 1738 -78 
Q 1113 -78 717 272 
Q 322 622 266 1200 
z
" transform="scale(0.015625)"/>
       </defs>
       <use xlink:href="#ArialMT-2212"/>
       <use xlink:href="#ArialMT-30" transform="translate(58.398438 0)"/>
       <use xlink:href="#ArialMT-2e" transform="translate(114.013672 0)"/>
       <use xlink:href="#ArialMT-32" transform="translate(141.796875 0)"/>
       <use xlink:href="#ArialMT-30" transform="translate(197.412109 0)"/>
       <use xlink:href="#ArialMT-35" transform="translate(253.027344 0)"/>
      </g>
     </g>
    </g>
    <g id="ytick_3">
     <g id="line2d_24">
      <g>
       <use xlink:href="#m77b7635174" x="296.029134" y="155.174535" style="stroke: #000000; stroke-width: 0.3"/>
      </g>
     </g>
     <g id="text_16">
      <!-- 0.180 -->
      <g transform="translate(299.529134 158.03766) scale(0.08 -0.08)">
       <defs>
        <path id="ArialMT-31" d="M 2384 0 
L 1822 0 
L 1822 3584 
Q 1619 3391 1289 3197 
Q 959 3003 697 2906 
L 697 3450 
Q 1169 3672 1522 3987 
Q 1875 4303 2022 4600 
L 2384 4600 
L 2384 0 
z
" transform="scale(0.015625)"/>
        <path id="ArialMT-38" d="M 1131 2484 
Q 781 2613 612 2850 
Q 444 3088 444 3419 
Q 444 3919 803 4259 
Q 1163 4600 1759 4600 
Q 2359 4600 2725 4251 
Q 3091 3903 3091 3403 
Q 3091 3084 2923 2848 
Q 2756 2613 2416 2484 
Q 2838 2347 3058 2040 
Q 3278 1734 3278 1309 
Q 3278 722 2862 322 
Q 2447 -78 1769 -78 
Q 1091 -78 675 323 
Q 259 725 259 1325 
Q 259 1772 486 2073 
Q 713 2375 1131 2484 
z
M 1019 3438 
Q 1019 3113 1228 2906 
Q 1438 2700 1772 2700 
Q 2097 2700 2305 2904 
Q 2513 3109 2513 3406 
Q 2513 3716 2298 3927 
Q 2084 4138 1766 4138 
Q 1444 4138 1231 3931 
Q 1019 3725 1019 3438 
z
M 838 1322 
Q 838 1081 952 856 
Q 1066 631 1291 507 
Q 1516 384 1775 384 
Q 2178 384 2440 643 
Q 2703 903 2703 1303 
Q 2703 1709 2433 1975 
Q 2163 2241 1756 2241 
Q 1359 2241 1098 1978 
Q 838 1716 838 1322 
z
" transform="scale(0.015625)"/>
       </defs>
       <use xlink:href="#ArialMT-2212"/>
       <use xlink:href="#ArialMT-30" transform="translate(58.398438 0)"/>
       <use xlink:href="#ArialMT-2e" transform="translate(114.013672 0)"/>
       <use xlink:href="#ArialMT-31" transform="translate(141.796875 0)"/>
       <use xlink:href="#ArialMT-38" transform="translate(197.412109 0)"/>
       <use xlink:href="#ArialMT-30" transform="translate(253.027344 0)"/>
      </g>
     </g>
    </g>
    <g id="ytick_4">
     <g id="line2d_25">
      <g>
       <use xlink:href="#m77b7635174" x="296.029134" y="138.287284" style="stroke: #000000; stroke-width: 0.3"/>
      </g>
     </g>
     <g id="text_17">
      <!-- 0.155 -->
      <g transform="translate(299.529134 141.150409) scale(0.08 -0.08)">
       <use xlink:href="#ArialMT-2212"/>
       <use xlink:href="#ArialMT-30" transform="translate(58.398438 0)"/>
       <use xlink:href="#ArialMT-2e" transform="translate(114.013672 0)"/>
       <use xlink:href="#ArialMT-31" transform="translate(141.796875 0)"/>
       <use xlink:href="#ArialMT-35" transform="translate(197.412109 0)"/>
       <use xlink:href="#ArialMT-35" transform="translate(253.027344 0)"/>
      </g>
     </g>
    </g>
    <g id="ytick_5">
     <g id="line2d_26">
      <g>
       <use xlink:href="#m77b7635174" x="296.029134" y="121.400034" style="stroke: #000000; stroke-width: 0.3"/>
      </g>
     </g>
     <g id="text_18">
      <!-- 0.130 -->
      <g transform="translate(299.529134 124.263159) scale(0.08 -0.08)">
       <use xlink:href="#ArialMT-2212"/>
       <use xlink:href="#ArialMT-30" transform="translate(58.398438 0)"/>
       <use xlink:href="#ArialMT-2e" transform="translate(114.013672 0)"/>
       <use xlink:href="#ArialMT-31" transform="translate(141.796875 0)"/>
       <use xlink:href="#ArialMT-33" transform="translate(197.412109 0)"/>
       <use xlink:href="#ArialMT-30" transform="translate(253.027344 0)"/>
      </g>
     </g>
    </g>
    <g id="ytick_6">
     <g id="line2d_27">
      <g>
       <use xlink:href="#m77b7635174" x="296.029134" y="104.512783" style="stroke: #000000; stroke-width: 0.3"/>
      </g>
     </g>
     <g id="text_19">
      <!-- 0.105 -->
      <g transform="translate(299.529134 107.375908) scale(0.08 -0.08)">
       <use xlink:href="#ArialMT-2212"/>
       <use xlink:href="#ArialMT-30" transform="translate(58.398438 0)"/>
       <use xlink:href="#ArialMT-2e" transform="translate(114.013672 0)"/>
       <use xlink:href="#ArialMT-31" transform="translate(141.796875 0)"/>
       <use xlink:href="#ArialMT-30" transform="translate(197.412109 0)"/>
       <use xlink:href="#ArialMT-35" transform="translate(253.027344 0)"/>
      </g>
     </g>
    </g>
    <g id="ytick_7">
     <g id="line2d_28">
      <g>
       <use xlink:href="#m77b7635174" x="296.029134" y="87.625532" style="stroke: #000000; stroke-width: 0.3"/>
      </g>
     </g>
     <g id="text_20">
      <!-- 0.080 -->
      <g transform="translate(299.529134 90.488657) scale(0.08 -0.08)">
       <use xlink:href="#ArialMT-2212"/>
       <use xlink:href="#ArialMT-30" transform="translate(58.398438 0)"/>
       <use xlink:href="#ArialMT-2e" transform="translate(114.013672 0)"/>
       <use xlink:href="#ArialMT-30" transform="translate(141.796875 0)"/>
       <use xlink:href="#ArialMT-38" transform="translate(197.412109 0)"/>
       <use xlink:href="#ArialMT-30" transform="translate(253.027344 0)"/>
      </g>
     </g>
    </g>
    <g id="ytick_8">
     <g id="line2d_29">
      <g>
       <use xlink:href="#m77b7635174" x="296.029134" y="70.738281" style="stroke: #000000; stroke-width: 0.3"/>
      </g>
     </g>
     <g id="text_21">
      <!-- 0.055 -->
      <g transform="translate(299.529134 73.601406) scale(0.08 -0.08)">
       <use xlink:href="#ArialMT-2212"/>
       <use xlink:href="#ArialMT-30" transform="translate(58.398438 0)"/>
       <use xlink:href="#ArialMT-2e" transform="translate(114.013672 0)"/>
       <use xlink:href="#ArialMT-30" transform="translate(141.796875 0)"/>
       <use xlink:href="#ArialMT-35" transform="translate(197.412109 0)"/>
       <use xlink:href="#ArialMT-35" transform="translate(253.027344 0)"/>
      </g>
     </g>
    </g>
    <g id="ytick_9">
     <g id="line2d_30">
      <g>
       <use xlink:href="#m77b7635174" x="296.029134" y="53.85103" style="stroke: #000000; stroke-width: 0.3"/>
      </g>
     </g>
     <g id="text_22">
      <!-- 0.030 -->
      <g transform="translate(299.529134 56.714155) scale(0.08 -0.08)">
       <use xlink:href="#ArialMT-2212"/>
       <use xlink:href="#ArialMT-30" transform="translate(58.398438 0)"/>
       <use xlink:href="#ArialMT-2e" transform="translate(114.013672 0)"/>
       <use xlink:href="#ArialMT-30" transform="translate(141.796875 0)"/>
       <use xlink:href="#ArialMT-33" transform="translate(197.412109 0)"/>
       <use xlink:href="#ArialMT-30" transform="translate(253.027344 0)"/>
      </g>
     </g>
    </g>
    <g id="ytick_10">
     <g id="line2d_31">
      <g>
       <use xlink:href="#m77b7635174" x="296.029134" y="36.96378" style="stroke: #000000; stroke-width: 0.3"/>
      </g>
     </g>
     <g id="text_23">
      <!-- 0.005 -->
      <g transform="translate(299.529134 39.826905) scale(0.08 -0.08)">
       <use xlink:href="#ArialMT-2212"/>
       <use xlink:href="#ArialMT-30" transform="translate(58.398438 0)"/>
       <use xlink:href="#ArialMT-2e" transform="translate(114.013672 0)"/>
       <use xlink:href="#ArialMT-30" transform="translate(141.796875 0)"/>
       <use xlink:href="#ArialMT-30" transform="translate(197.412109 0)"/>
       <use xlink:href="#ArialMT-35" transform="translate(253.027344 0)"/>
      </g>
     </g>
    </g>
    <g id="text_24">
     <!-- Formation Energy (eV/atom) -->
     <g transform="translate(335.498821 179.408077) rotate(-90) scale(0.1 -0.1)">
      <defs>
       <path id="ArialMT-46" d="M 525 0 
L 525 4581 
L 3616 4581 
L 3616 4041 
L 1131 4041 
L 1131 2622 
L 3281 2622 
L 3281 2081 
L 1131 2081 
L 1131 0 
L 525 0 
z
" transform="scale(0.015625)"/>
       <path id="ArialMT-6f" d="M 213 1659 
Q 213 2581 725 3025 
Q 1153 3394 1769 3394 
Q 2453 3394 2887 2945 
Q 3322 2497 3322 1706 
Q 3322 1066 3130 698 
Q 2938 331 2570 128 
Q 2203 -75 1769 -75 
Q 1072 -75 642 372 
Q 213 819 213 1659 
z
M 791 1659 
Q 791 1022 1069 705 
Q 1347 388 1769 388 
Q 2188 388 2466 706 
Q 2744 1025 2744 1678 
Q 2744 2294 2464 2611 
Q 2184 2928 1769 2928 
Q 1347 2928 1069 2612 
Q 791 2297 791 1659 
z
" transform="scale(0.015625)"/>
       <path id="ArialMT-72" d="M 416 0 
L 416 3319 
L 922 3319 
L 922 2816 
Q 1116 3169 1280 3281 
Q 1444 3394 1641 3394 
Q 1925 3394 2219 3213 
L 2025 2691 
Q 1819 2813 1613 2813 
Q 1428 2813 1281 2702 
Q 1134 2591 1072 2394 
Q 978 2094 978 1738 
L 978 0 
L 416 0 
z
" transform="scale(0.015625)"/>
       <path id="ArialMT-6d" d="M 422 0 
L 422 3319 
L 925 3319 
L 925 2853 
Q 1081 3097 1340 3245 
Q 1600 3394 1931 3394 
Q 2300 3394 2536 3241 
Q 2772 3088 2869 2813 
Q 3263 3394 3894 3394 
Q 4388 3394 4653 3120 
Q 4919 2847 4919 2278 
L 4919 0 
L 4359 0 
L 4359 2091 
Q 4359 2428 4304 2576 
Q 4250 2725 4106 2815 
Q 3963 2906 3769 2906 
Q 3419 2906 3187 2673 
Q 2956 2441 2956 1928 
L 2956 0 
L 2394 0 
L 2394 2156 
Q 2394 2531 2256 2718 
Q 2119 2906 1806 2906 
Q 1569 2906 1367 2781 
Q 1166 2656 1075 2415 
Q 984 2175 984 1722 
L 984 0 
L 422 0 
z
" transform="scale(0.015625)"/>
       <path id="ArialMT-61" d="M 2588 409 
Q 2275 144 1986 34 
Q 1697 -75 1366 -75 
Q 819 -75 525 192 
Q 231 459 231 875 
Q 231 1119 342 1320 
Q 453 1522 633 1644 
Q 813 1766 1038 1828 
Q 1203 1872 1538 1913 
Q 2219 1994 2541 2106 
Q 2544 2222 2544 2253 
Q 2544 2597 2384 2738 
Q 2169 2928 1744 2928 
Q 1347 2928 1158 2789 
Q 969 2650 878 2297 
L 328 2372 
Q 403 2725 575 2942 
Q 747 3159 1072 3276 
Q 1397 3394 1825 3394 
Q 2250 3394 2515 3294 
Q 2781 3194 2906 3042 
Q 3031 2891 3081 2659 
Q 3109 2516 3109 2141 
L 3109 1391 
Q 3109 606 3145 398 
Q 3181 191 3288 0 
L 2700 0 
Q 2613 175 2588 409 
z
M 2541 1666 
Q 2234 1541 1622 1453 
Q 1275 1403 1131 1340 
Q 988 1278 909 1158 
Q 831 1038 831 891 
Q 831 666 1001 516 
Q 1172 366 1500 366 
Q 1825 366 2078 508 
Q 2331 650 2450 897 
Q 2541 1088 2541 1459 
L 2541 1666 
z
" transform="scale(0.015625)"/>
       <path id="ArialMT-74" d="M 1650 503 
L 1731 6 
Q 1494 -44 1306 -44 
Q 1000 -44 831 53 
Q 663 150 594 308 
Q 525 466 525 972 
L 525 2881 
L 113 2881 
L 113 3319 
L 525 3319 
L 525 4141 
L 1084 4478 
L 1084 3319 
L 1650 3319 
L 1650 2881 
L 1084 2881 
L 1084 941 
Q 1084 700 1114 631 
Q 1144 563 1211 522 
Q 1278 481 1403 481 
Q 1497 481 1650 503 
z
" transform="scale(0.015625)"/>
       <path id="ArialMT-69" d="M 425 3934 
L 425 4581 
L 988 4581 
L 988 3934 
L 425 3934 
z
M 425 0 
L 425 3319 
L 988 3319 
L 988 0 
L 425 0 
z
" transform="scale(0.015625)"/>
       <path id="ArialMT-6e" d="M 422 0 
L 422 3319 
L 928 3319 
L 928 2847 
Q 1294 3394 1984 3394 
Q 2284 3394 2536 3286 
Q 2788 3178 2913 3003 
Q 3038 2828 3088 2588 
Q 3119 2431 3119 2041 
L 3119 0 
L 2556 0 
L 2556 2019 
Q 2556 2363 2490 2533 
Q 2425 2703 2258 2804 
Q 2091 2906 1866 2906 
Q 1506 2906 1245 2678 
Q 984 2450 984 1813 
L 984 0 
L 422 0 
z
" transform="scale(0.015625)"/>
       <path id="ArialMT-20" transform="scale(0.015625)"/>
       <path id="ArialMT-45" d="M 506 0 
L 506 4581 
L 3819 4581 
L 3819 4041 
L 1113 4041 
L 1113 2638 
L 3647 2638 
L 3647 2100 
L 1113 2100 
L 1113 541 
L 3925 541 
L 3925 0 
L 506 0 
z
" transform="scale(0.015625)"/>
       <path id="ArialMT-65" d="M 2694 1069 
L 3275 997 
Q 3138 488 2766 206 
Q 2394 -75 1816 -75 
Q 1088 -75 661 373 
Q 234 822 234 1631 
Q 234 2469 665 2931 
Q 1097 3394 1784 3394 
Q 2450 3394 2872 2941 
Q 3294 2488 3294 1666 
Q 3294 1616 3291 1516 
L 816 1516 
Q 847 969 1125 678 
Q 1403 388 1819 388 
Q 2128 388 2347 550 
Q 2566 713 2694 1069 
z
M 847 1978 
L 2700 1978 
Q 2663 2397 2488 2606 
Q 2219 2931 1791 2931 
Q 1403 2931 1139 2672 
Q 875 2413 847 1978 
z
" transform="scale(0.015625)"/>
       <path id="ArialMT-67" d="M 319 -275 
L 866 -356 
Q 900 -609 1056 -725 
Q 1266 -881 1628 -881 
Q 2019 -881 2231 -725 
Q 2444 -569 2519 -288 
Q 2563 -116 2559 434 
Q 2191 0 1641 0 
Q 956 0 581 494 
Q 206 988 206 1678 
Q 206 2153 378 2554 
Q 550 2956 876 3175 
Q 1203 3394 1644 3394 
Q 2231 3394 2613 2919 
L 2613 3319 
L 3131 3319 
L 3131 450 
Q 3131 -325 2973 -648 
Q 2816 -972 2473 -1159 
Q 2131 -1347 1631 -1347 
Q 1038 -1347 672 -1080 
Q 306 -813 319 -275 
z
M 784 1719 
Q 784 1066 1043 766 
Q 1303 466 1694 466 
Q 2081 466 2343 764 
Q 2606 1063 2606 1700 
Q 2606 2309 2336 2618 
Q 2066 2928 1684 2928 
Q 1309 2928 1046 2623 
Q 784 2319 784 1719 
z
" transform="scale(0.015625)"/>
       <path id="ArialMT-79" d="M 397 -1278 
L 334 -750 
Q 519 -800 656 -800 
Q 844 -800 956 -737 
Q 1069 -675 1141 -563 
Q 1194 -478 1313 -144 
Q 1328 -97 1363 -6 
L 103 3319 
L 709 3319 
L 1400 1397 
Q 1534 1031 1641 628 
Q 1738 1016 1872 1384 
L 2581 3319 
L 3144 3319 
L 1881 -56 
Q 1678 -603 1566 -809 
Q 1416 -1088 1222 -1217 
Q 1028 -1347 759 -1347 
Q 597 -1347 397 -1278 
z
" transform="scale(0.015625)"/>
       <path id="ArialMT-28" d="M 1497 -1347 
Q 1031 -759 709 28 
Q 388 816 388 1659 
Q 388 2403 628 3084 
Q 909 3875 1497 4659 
L 1900 4659 
Q 1522 4009 1400 3731 
Q 1209 3300 1100 2831 
Q 966 2247 966 1656 
Q 966 153 1900 -1347 
L 1497 -1347 
z
" transform="scale(0.015625)"/>
       <path id="ArialMT-56" d="M 1803 0 
L 28 4581 
L 684 4581 
L 1875 1253 
Q 2019 853 2116 503 
Q 2222 878 2363 1253 
L 3600 4581 
L 4219 4581 
L 2425 0 
L 1803 0 
z
" transform="scale(0.015625)"/>
       <path id="ArialMT-2f" d="M 0 -78 
L 1328 4659 
L 1778 4659 
L 453 -78 
L 0 -78 
z
" transform="scale(0.015625)"/>
       <path id="ArialMT-29" d="M 791 -1347 
L 388 -1347 
Q 1322 153 1322 1656 
Q 1322 2244 1188 2822 
Q 1081 3291 891 3722 
Q 769 4003 388 4659 
L 791 4659 
Q 1378 3875 1659 3084 
Q 1900 2403 1900 1659 
Q 1900 816 1576 28 
Q 1253 -759 791 -1347 
z
" transform="scale(0.015625)"/>
      </defs>
      <use xlink:href="#ArialMT-46"/>
      <use xlink:href="#ArialMT-6f" transform="translate(61.083984 0)"/>
      <use xlink:href="#ArialMT-72" transform="translate(116.699219 0)"/>
      <use xlink:href="#ArialMT-6d" transform="translate(150 0)"/>
      <use xlink:href="#ArialMT-61" transform="translate(233.300781 0)"/>
      <use xlink:href="#ArialMT-74" transform="translate(288.916016 0)"/>
      <use xlink:href="#ArialMT-69" transform="translate(316.699219 0)"/>
      <use xlink:href="#ArialMT-6f" transform="translate(338.916016 0)"/>
      <use xlink:href="#ArialMT-6e" transform="translate(394.53125 0)"/>
      <use xlink:href="#ArialMT-20" transform="translate(450.146484 0)"/>
      <use xlink:href="#ArialMT-45" transform="translate(477.929688 0)"/>
      <use xlink:href="#ArialMT-6e" transform="translate(544.628906 0)"/>
      <use xlink:href="#ArialMT-65" transform="translate(600.244141 0)"/>
      <use xlink:href="#ArialMT-72" transform="translate(655.859375 0)"/>
      <use xlink:href="#ArialMT-67" transform="translate(689.160156 0)"/>
      <use xlink:href="#ArialMT-79" transform="translate(744.775391 0)"/>
      <use xlink:href="#ArialMT-20" transform="translate(794.775391 0)"/>
      <use xlink:href="#ArialMT-28" transform="translate(822.558594 0)"/>
      <use xlink:href="#ArialMT-65" transform="translate(855.859375 0)"/>
      <use xlink:href="#ArialMT-56" transform="translate(911.474609 0)"/>
      <use xlink:href="#ArialMT-2f" transform="translate(978.173828 0)"/>
      <use xlink:href="#ArialMT-61" transform="translate(1005.957031 0)"/>
      <use xlink:href="#ArialMT-74" transform="translate(1061.572266 0)"/>
      <use xlink:href="#ArialMT-6f" transform="translate(1089.355469 0)"/>
      <use xlink:href="#ArialMT-6d" transform="translate(1144.970703 0)"/>
      <use xlink:href="#ArialMT-29" transform="translate(1228.271484 0)"/>
     </g>
    </g>
   </g>
   <g id="LineCollection_1"/>
   <g id="patch_6">
    <path d="M 287.298425 195.703937 
L 291.66378 203.640945 
L 296.029134 195.703937 
L 296.029134 36.96378 
L 291.66378 29.026772 
L 287.298425 36.96378 
L 287.298425 195.703937 
z
" style="fill: none; stroke: #000000; stroke-width: 0.8; stroke-linejoin: miter; stroke-linecap: square"/>
   </g>
  </g>
 </g>
 <defs>
  <clipPath id="p64a6952917">
   <rect x="7.2" y="7.2" width="263.622047" height="218.267717"/>
  </clipPath>
  <clipPath id="p68c9597ea0">
   <rect x="287.298425" y="36.96378" width="8.730709" height="158.740157"/>
  </clipPath>
 </defs>
</svg>
