<?xml version="1.0" encoding="utf-8" standalone="no"?>
<!DOCTYPE svg PUBLIC "-//W3C//DTD SVG 1.1//EN"
  "http://www.w3.org/Graphics/SVG/1.1/DTD/svg11.dtd">
<svg xmlns:xlink="http://www.w3.org/1999/xlink" width="344.803509pt" height="232.667717pt" viewBox="0 0 344.803509 232.667717" xmlns="http://www.w3.org/2000/svg" version="1.1">
 <metadata>
  <rdf:RDF xmlns:dc="http://purl.org/dc/elements/1.1/" xmlns:cc="http://creativecommons.org/ns#" xmlns:rdf="http://www.w3.org/1999/02/22-rdf-syntax-ns#">
   <cc:Work>
    <dc:type rdf:resource="http://purl.org/dc/dcmitype/StillImage"/>
    <dc:date>2026-01-27T21:37:34.165389</dc:date>
    <dc:format>image/svg+xml</dc:format>
    <dc:creator>
     <cc:Agent>
      <dc:title>Matplotlib v3.10.8, https://matplotlib.org/</dc:title>
     </cc:Agent>
    </dc:creator>
   </cc:Work>
  </rdf:RDF>
 </metadata>
 <defs>
  <style type="text/css">*{stroke-linejoin: round; stroke-linecap: butt}</style>
 </defs>
 <g id="figure_1">
  <g id="patch_1">
   <path d="M 0 232.667717 
L 344.803509 232.667717 
L 344.803509 0 
L 0 0 
L 0 232.667717 
z
" style="fill: none"/>
  </g>
  <g id="axes_1">
   <g id="patch_2">
    <path d="M 7.2 225.467717 
L 270.822047 225.467717 
L 270.822047 7.2 
L 7.2 7.2 
L 7.2 225.467717 
z
" style="fill: none"/>
   </g>
   <g id="TriContourSet_1">
    <path d="M 58.388929 152.707874 
L 60.828272 152.888861 
L 61.770171 152.868635 
L 61.913853 152.80257 
L 61.767029 152.379237 
L 60.182144 149.87913 
L 59.125555 151.545868 
z
" clip-path="url(#p881992ade7)" style="fill: #440154; fill-opacity: 0.7"/>
    <path d="M 60.182144 149.87913 
L 61.767029 152.379237 
L 61.913853 152.80257 
L 61.770171 152.868635 
L 60.828272 152.888861 
L 58.388929 152.707874 
L 56.903594 155.050945 
L 64.261636 155.596876 
L 67.102783 155.535866 
L 67.536185 155.336587 
L 67.093304 154.059645 
L 62.312655 146.518314 
z
" clip-path="url(#p881992ade7)" style="fill: #450559; fill-opacity: 0.7"/>
    <path d="M 62.312655 146.518314 
L 67.093304 154.059645 
L 67.536185 155.336587 
L 67.102783 155.535866 
L 64.261636 155.596876 
L 56.903594 155.050945 
L 55.418259 157.394015 
L 67.695001 158.30489 
L 72.435395 158.203096 
L 73.158517 157.870604 
L 72.41958 155.740053 
L 64.443165 143.157498 
z
" clip-path="url(#p881992ade7)" style="fill: #471063; fill-opacity: 0.7"/>
    <path d="M 64.443165 143.157498 
L 72.41958 155.740053 
L 73.158517 157.870604 
L 72.435395 158.203096 
L 67.695001 158.30489 
L 55.418259 157.394015 
L 53.932924 159.737086 
L 71.128365 161.012904 
L 77.768007 160.870327 
L 78.780849 160.404621 
L 77.745856 157.420461 
L 66.573675 139.796682 
z
" clip-path="url(#p881992ade7)" style="fill: #481a6c; fill-opacity: 0.7"/>
    <path d="M 66.573675 139.796682 
L 77.745856 157.420461 
L 78.780849 160.404621 
L 77.768007 160.870327 
L 71.128365 161.012904 
L 53.932924 159.737086 
L 52.44759 162.080157 
L 74.561729 163.720919 
L 83.100619 163.537558 
L 84.403182 162.938639 
L 83.072131 159.100869 
L 68.704185 136.435866 
z
" clip-path="url(#p881992ade7)" style="fill: #482374; fill-opacity: 0.7"/>
    <path d="M 68.704185 136.435866 
L 83.072131 159.100869 
L 84.403182 162.938639 
L 83.100619 163.537558 
L 74.561729 163.720919 
L 52.44759 162.080157 
L 50.962255 164.423228 
L 77.995093 166.428933 
L 88.433231 166.204788 
L 90.025514 165.472656 
L 88.398407 160.781277 
L 70.834696 133.075051 
z
" clip-path="url(#p881992ade7)" style="fill: #472d7b; fill-opacity: 0.7"/>
    <path d="M 70.834696 133.075051 
L 88.398407 160.781277 
L 90.025514 165.472656 
L 88.433231 166.204788 
L 77.995093 166.428933 
L 50.962255 164.423228 
L 49.47692 166.766299 
L 81.428458 169.136948 
L 93.765843 168.872019 
L 95.647846 168.006673 
L 93.724683 162.461685 
L 72.965206 129.714235 
z
" clip-path="url(#p881992ade7)" style="fill: #453581; fill-opacity: 0.7"/>
    <path d="M 72.965206 129.714235 
L 93.724683 162.461685 
L 95.647846 168.006673 
L 93.765843 168.872019 
L 81.428458 169.136948 
L 49.47692 166.766299 
L 47.991585 169.10937 
L 84.861822 171.844962 
L 99.098455 171.53925 
L 101.270178 170.54069 
L 99.050958 164.142093 
L 75.095716 126.353419 
z
" clip-path="url(#p881992ade7)" style="fill: #433e85; fill-opacity: 0.7"/>
    <path d="M 75.095716 126.353419 
L 99.050958 164.142093 
L 101.270178 170.54069 
L 99.098455 171.53925 
L 84.861822 171.844962 
L 47.991585 169.10937 
L 47.377692 170.077769 
L 46.818595 170.959728 
L 49.089555 171.550721 
L 50.878173 171.776816 
L 88.295186 174.552976 
L 104.431067 174.20648 
L 106.89251 173.074707 
L 104.377234 165.822501 
L 77.226226 122.992603 
z
" clip-path="url(#p881992ade7)" style="fill: #404688; fill-opacity: 0.7"/>
    <path d="M 77.226226 122.992603 
L 104.377234 165.822501 
L 106.89251 173.074707 
L 104.431067 174.20648 
L 88.295186 174.552976 
L 50.878173 171.776816 
L 49.089555 171.550721 
L 46.818595 170.959728 
L 45.865637 172.46299 
L 52.007353 174.061306 
L 56.844597 174.672771 
L 91.72855 177.260991 
L 109.763679 176.873711 
L 112.514842 175.608724 
L 109.703509 167.502909 
L 79.356737 119.631787 
z
" clip-path="url(#p881992ade7)" style="fill: #3d4e8a; fill-opacity: 0.7"/>
    <path d="M 79.356737 119.631787 
L 109.703509 167.502909 
L 112.514842 175.608724 
L 109.763679 176.873711 
L 91.72855 177.260991 
L 56.844597 174.672771 
L 52.007353 174.061306 
L 45.865637 172.46299 
L 44.912679 173.966252 
L 54.925152 176.571892 
L 62.81102 177.568727 
L 95.161915 179.969005 
L 115.096291 179.540941 
L 118.137175 178.142741 
L 115.029785 169.183317 
L 81.487247 116.270971 
z
" clip-path="url(#p881992ade7)" style="fill: #39558c; fill-opacity: 0.7"/>
    <path d="M 81.487247 116.270971 
L 115.029785 169.183317 
L 118.137175 178.142741 
L 115.096291 179.540941 
L 95.161915 179.969005 
L 62.81102 177.568727 
L 54.925152 176.571892 
L 44.912679 173.966252 
L 43.959721 175.469514 
L 57.842951 179.082477 
L 68.777444 180.464682 
L 98.595279 182.67702 
L 120.428903 182.208172 
L 123.759507 180.676758 
L 120.356061 170.863725 
L 83.617757 112.910156 
z
" clip-path="url(#p881992ade7)" style="fill: #365d8d; fill-opacity: 0.7"/>
    <path d="M 83.617757 112.910156 
L 120.356061 170.863725 
L 123.759507 180.676758 
L 120.428903 182.208172 
L 98.595279 182.67702 
L 68.777444 180.464682 
L 57.842951 179.082477 
L 43.959721 175.469514 
L 43.006764 176.972777 
L 60.760749 181.593062 
L 74.743868 183.360637 
L 102.028643 185.385034 
L 125.761515 184.875403 
L 129.381839 183.210776 
L 125.682336 172.544133 
L 85.748267 109.54934 
z
" clip-path="url(#p881992ade7)" style="fill: #32648e; fill-opacity: 0.7"/>
    <path d="M 85.748267 109.54934 
L 125.682336 172.544133 
L 129.381839 183.210776 
L 125.761515 184.875403 
L 102.028643 185.385034 
L 74.743868 183.360637 
L 60.760749 181.593062 
L 43.006764 176.972777 
L 42.053806 178.476039 
L 63.678548 184.103648 
L 80.710292 186.256592 
L 105.462007 188.093049 
L 131.094127 187.542633 
L 135.004171 185.744793 
L 131.008612 174.22454 
L 87.878778 106.188524 
z
" clip-path="url(#p881992ade7)" style="fill: #2f6b8e; fill-opacity: 0.7"/>
    <path d="M 87.878778 106.188524 
L 131.008612 174.22454 
L 135.004171 185.744793 
L 131.094127 187.542633 
L 105.462007 188.093049 
L 80.710292 186.256592 
L 63.678548 184.103648 
L 42.053806 178.476039 
L 41.100848 179.979301 
L 66.596347 186.614233 
L 86.676716 189.152547 
L 108.895372 190.801063 
L 136.426739 190.209864 
L 140.626503 188.27881 
L 136.334888 175.904948 
L 90.009288 102.827708 
z
" clip-path="url(#p881992ade7)" style="fill: #2c728e; fill-opacity: 0.7"/>
    <path d="M 90.009288 102.827708 
L 136.334888 175.904948 
L 140.626503 188.27881 
L 136.426739 190.209864 
L 108.895372 190.801063 
L 86.676716 189.152547 
L 66.596347 186.614233 
L 41.100848 179.979301 
L 40.14789 181.482563 
L 69.514145 189.124818 
L 92.643139 192.048502 
L 112.328736 193.509077 
L 141.759351 192.877095 
L 146.248835 190.812827 
L 141.661163 177.585356 
L 92.139798 99.466892 
z
" clip-path="url(#p881992ade7)" style="fill: #29798e; fill-opacity: 0.7"/>
    <path d="M 92.139798 99.466892 
L 141.661163 177.585356 
L 146.248835 190.812827 
L 141.759351 192.877095 
L 112.328736 193.509077 
L 92.643139 192.048502 
L 69.514145 189.124818 
L 40.14789 181.482563 
L 39.194933 182.985825 
L 72.431944 191.635403 
L 98.609563 194.944457 
L 115.7621 196.217092 
L 147.091964 195.544325 
L 151.871168 193.346844 
L 146.987439 179.265764 
L 94.270308 96.106076 
z
" clip-path="url(#p881992ade7)" style="fill: #27808e; fill-opacity: 0.7"/>
    <path d="M 94.270308 96.106076 
L 146.987439 179.265764 
L 151.871168 193.346844 
L 147.091964 195.544325 
L 115.7621 196.217092 
L 98.609563 194.944457 
L 72.431944 191.635403 
L 39.194933 182.985825 
L 38.241975 184.489087 
L 75.349743 194.145989 
L 104.575987 197.840412 
L 119.195464 198.925106 
L 152.424576 198.211556 
L 157.4935 195.880861 
L 152.313714 180.946172 
L 96.400819 92.74526 
z
" clip-path="url(#p881992ade7)" style="fill: #24868e; fill-opacity: 0.7"/>
    <path d="M 96.400819 92.74526 
L 152.313714 180.946172 
L 157.4935 195.880861 
L 152.424576 198.211556 
L 119.195464 198.925106 
L 104.575987 197.840412 
L 75.349743 194.145989 
L 38.241975 184.489087 
L 37.289017 185.99235 
L 78.267542 196.656574 
L 110.542411 200.736367 
L 122.628829 201.633121 
L 157.757188 200.878787 
L 163.115832 198.414878 
L 157.63999 182.62658 
L 98.531329 89.384445 
z
" clip-path="url(#p881992ade7)" style="fill: #228d8d; fill-opacity: 0.7"/>
    <path d="M 98.531329 89.384445 
L 157.63999 182.62658 
L 163.115832 198.414878 
L 157.757188 200.878787 
L 122.628829 201.633121 
L 110.542411 200.736367 
L 78.267542 196.656574 
L 37.289017 185.99235 
L 36.336059 187.495612 
L 81.18534 199.167159 
L 116.508835 203.632323 
L 126.062193 204.341135 
L 163.0898 203.546017 
L 168.738164 200.948895 
L 162.966266 184.306988 
L 100.661839 86.023629 
z
" clip-path="url(#p881992ade7)" style="fill: #20938c; fill-opacity: 0.7"/>
    <path d="M 100.661839 86.023629 
L 162.966266 184.306988 
L 168.738164 200.948895 
L 163.0898 203.546017 
L 126.062193 204.341135 
L 116.508835 203.632323 
L 81.18534 199.167159 
L 36.336059 187.495612 
L 35.383102 188.998874 
L 84.103139 201.677745 
L 122.475258 206.528278 
L 129.495557 207.04915 
L 168.422412 206.213248 
L 174.360496 203.482913 
L 168.292541 185.987396 
L 102.792349 82.662813 
z
" clip-path="url(#p881992ade7)" style="fill: #1f9a8a; fill-opacity: 0.7"/>
    <path d="M 102.792349 82.662813 
L 168.292541 185.987396 
L 174.360496 203.482913 
L 168.422412 206.213248 
L 129.495557 207.04915 
L 122.475258 206.528278 
L 84.103139 201.677745 
L 35.383102 188.998874 
L 34.430144 190.502136 
L 87.020938 204.18833 
L 128.441682 209.424233 
L 132.928921 209.757164 
L 173.755024 208.880479 
L 179.982829 206.01693 
L 173.618817 187.667804 
L 104.92286 79.301997 
z
" clip-path="url(#p881992ade7)" style="fill: #1fa188; fill-opacity: 0.7"/>
    <path d="M 104.92286 79.301997 
L 173.618817 187.667804 
L 179.982829 206.01693 
L 173.755024 208.880479 
L 132.928921 209.757164 
L 128.441682 209.424233 
L 87.020938 204.18833 
L 34.430144 190.502136 
L 33.477186 192.005398 
L 89.938736 206.698915 
L 134.408106 212.320188 
L 136.362286 212.465178 
L 179.087636 211.547709 
L 185.605161 208.550947 
L 178.945093 189.348212 
L 107.05337 75.941181 
z
" clip-path="url(#p881992ade7)" style="fill: #22a785; fill-opacity: 0.7"/>
    <path d="M 107.05337 75.941181 
L 178.945093 189.348212 
L 185.605161 208.550947 
L 179.087636 211.547709 
L 136.362286 212.465178 
L 134.408106 212.320188 
L 89.938736 206.698915 
L 33.477186 192.005398 
L 32.524229 193.50866 
L 92.856535 209.2095 
L 135.138994 214.554331 
L 139.011024 214.554331 
L 168.615255 214.554331 
L 184.420248 214.21494 
L 191.227493 211.084964 
L 184.271368 191.02862 
L 109.18388 72.580365 
z
" clip-path="url(#p881992ade7)" style="fill: #28ae80; fill-opacity: 0.7"/>
    <path d="M 109.18388 72.580365 
L 184.271368 191.02862 
L 191.227493 211.084964 
L 184.420248 214.21494 
L 168.615255 214.554331 
L 185.098794 214.554331 
L 194.815575 214.554331 
L 196.849825 213.618981 
L 189.597644 192.709028 
L 111.31439 69.219549 
z
M 31.571271 195.011923 
L 95.774334 211.720086 
L 118.195784 214.554331 
L 135.138994 214.554331 
L 92.856535 209.2095 
L 32.524229 193.50866 
z
" clip-path="url(#p881992ade7)" style="fill: #31b57b; fill-opacity: 0.7"/>
    <path d="M 201.917693 214.554331 
L 194.923919 194.389436 
L 113.444901 65.858734 
L 111.31439 69.219549 
L 189.597644 192.709028 
L 196.849825 213.618981 
L 194.815575 214.554331 
L 198.925125 214.554331 
z
M 30.618313 196.515185 
L 98.692132 214.230671 
L 101.252574 214.554331 
L 118.195784 214.554331 
L 95.774334 211.720086 
L 31.571271 195.011923 
z
" clip-path="url(#p881992ade7)" style="fill: #3bbb75; fill-opacity: 0.7"/>
    <path d="M 206.661154 214.554331 
L 200.250195 196.069844 
L 115.575411 62.497918 
L 113.444901 65.858734 
L 194.923919 194.389436 
L 201.917693 214.554331 
z
M 29.665355 198.018447 
L 93.206415 214.554331 
L 99.068289 214.554331 
L 101.252574 214.554331 
L 98.692132 214.230671 
L 30.618313 196.515185 
z
" clip-path="url(#p881992ade7)" style="fill: #48c16e; fill-opacity: 0.7"/>
    <path d="M 211.404615 214.554331 
L 205.576471 197.750251 
L 117.705921 59.137102 
L 115.575411 62.497918 
L 200.250195 196.069844 
L 206.661154 214.554331 
z
M 28.712398 199.521709 
L 86.476997 214.554331 
L 93.206415 214.554331 
L 29.665355 198.018447 
z
" clip-path="url(#p881992ade7)" style="fill: #56c667; fill-opacity: 0.7"/>
    <path d="M 216.148076 214.554331 
L 210.902746 199.430659 
L 119.836431 55.776286 
L 117.705921 59.137102 
L 205.576471 197.750251 
L 211.404615 214.554331 
z
M 27.75944 201.024971 
L 79.747579 214.554331 
L 86.476997 214.554331 
L 28.712398 199.521709 
z
" clip-path="url(#p881992ade7)" style="fill: #65cb5e; fill-opacity: 0.7"/>
    <path d="M 220.891537 214.554331 
L 216.229022 201.111067 
L 121.966942 52.41547 
L 119.836431 55.776286 
L 210.902746 199.430659 
L 216.148076 214.554331 
z
M 26.806482 202.528233 
L 73.018162 214.554331 
L 79.747579 214.554331 
L 27.75944 201.024971 
z
" clip-path="url(#p881992ade7)" style="fill: #75d054; fill-opacity: 0.7"/>
    <path d="M 225.634999 214.554331 
L 221.555298 202.791475 
L 124.097452 49.054654 
L 121.966942 52.41547 
L 216.229022 201.111067 
L 220.891537 214.554331 
z
M 25.853524 204.031496 
L 66.288744 214.554331 
L 73.018162 214.554331 
L 26.806482 202.528233 
z
" clip-path="url(#p881992ade7)" style="fill: #86d549; fill-opacity: 0.7"/>
    <path d="M 230.37846 214.554331 
L 226.881573 204.471883 
L 126.227962 45.693838 
L 124.097452 49.054654 
L 221.555298 202.791475 
L 225.634999 214.554331 
z
M 24.900567 205.534758 
L 59.559326 214.554331 
L 66.288744 214.554331 
L 25.853524 204.031496 
z
" clip-path="url(#p881992ade7)" style="fill: #98d83e; fill-opacity: 0.7"/>
    <path d="M 235.121921 214.554331 
L 232.207849 206.152291 
L 128.358472 42.333023 
L 126.227962 45.693838 
L 226.881573 204.471883 
L 230.37846 214.554331 
z
M 23.947609 207.03802 
L 52.829909 214.554331 
L 59.559326 214.554331 
L 24.900567 205.534758 
z
" clip-path="url(#p881992ade7)" style="fill: #addc30; fill-opacity: 0.7"/>
    <path d="M 239.865382 214.554331 
L 237.534124 207.832699 
L 130.488983 38.972207 
L 128.358472 42.333023 
L 232.207849 206.152291 
L 235.121921 214.554331 
z
M 22.994651 208.541282 
L 46.100491 214.554331 
L 52.829909 214.554331 
L 23.947609 207.03802 
z
" clip-path="url(#p881992ade7)" style="fill: #c0df25; fill-opacity: 0.7"/>
    <path d="M 244.608843 214.554331 
L 242.8604 209.513107 
L 132.619493 35.611391 
L 130.488983 38.972207 
L 237.534124 207.832699 
L 239.865382 214.554331 
z
M 22.041694 210.044544 
L 39.371073 214.554331 
L 46.100491 214.554331 
L 22.994651 208.541282 
z
" clip-path="url(#p881992ade7)" style="fill: #d2e21b; fill-opacity: 0.7"/>
    <path d="M 249.352305 214.554331 
L 248.186676 211.193515 
L 134.750003 32.250575 
L 132.619493 35.611391 
L 242.8604 209.513107 
L 244.608843 214.554331 
z
M 21.088736 211.547806 
L 32.641656 214.554331 
L 39.371073 214.554331 
L 22.041694 210.044544 
z
" clip-path="url(#p881992ade7)" style="fill: #e5e419; fill-opacity: 0.7"/>
    <path d="M 254.095766 214.554331 
L 253.512951 212.873923 
L 136.880513 28.889759 
L 134.750003 32.250575 
L 248.186676 211.193515 
L 249.352305 214.554331 
z
M 20.135778 213.051069 
L 25.912238 214.554331 
L 32.641656 214.554331 
L 21.088736 211.547806 
z
" clip-path="url(#p881992ade7)" style="fill: #f6e620; fill-opacity: 0.7"/>
    <path d="M 136.880513 28.889759 
L 253.512951 212.873923 
L 254.095766 214.554331 
L 258.839227 214.554331 
L 139.011024 25.528943 
z
M 25.912238 214.554331 
L 20.135778 213.051069 
L 19.18282 214.554331 
z
" clip-path="url(#p881992ade7)" style="fill: #fde725; fill-opacity: 0.7"/>
   </g>
   <g id="matplotlib.axis_1"/>
   <g id="matplotlib.axis_2"/>
   <g id="line2d_1">
    <path d="M 198.925125 214.554331 
L 59.125555 151.545868 
" clip-path="url(#p881992ade7)" style="fill: none; stroke: #555555; stroke-opacity: 0.9; stroke-width: 0.5; stroke-linecap: square"/>
   </g>
   <g id="line2d_2">
    <path d="M 99.068289 214.554331 
L 47.377692 170.077769 
" clip-path="url(#p881992ade7)" style="fill: none; stroke: #555555; stroke-opacity: 0.9; stroke-width: 0.5; stroke-linecap: square"/>
   </g>
   <g id="line2d_3">
    <path d="M 59.125555 151.545868 
L 258.839227 214.554331 
" clip-path="url(#p881992ade7)" style="fill: none; stroke: #555555; stroke-opacity: 0.9; stroke-width: 0.5; stroke-linecap: square"/>
   </g>
   <g id="line2d_4">
    <path d="M 139.011024 214.554331 
L 99.068289 214.554331 
" clip-path="url(#p881992ade7)" style="fill: none; stroke: #555555; stroke-opacity: 0.9; stroke-width: 0.5; stroke-linecap: square"/>
   </g>
   <g id="line2d_5">
    <path d="M 139.011024 214.554331 
L 47.377692 170.077769 
" clip-path="url(#p881992ade7)" style="fill: none; stroke: #555555; stroke-opacity: 0.9; stroke-width: 0.5; stroke-linecap: square"/>
   </g>
   <g id="line2d_6">
    <path d="M 99.068289 214.554331 
L 19.18282 214.554331 
" clip-path="url(#p881992ade7)" style="fill: none; stroke: #555555; stroke-opacity: 0.9; stroke-width: 0.5; stroke-linecap: square"/>
   </g>
   <g id="line2d_7">
    <path d="M 59.125555 151.545868 
L 185.098794 214.554331 
" clip-path="url(#p881992ade7)" style="fill: none; stroke: #555555; stroke-opacity: 0.9; stroke-width: 0.5; stroke-linecap: square"/>
   </g>
   <g id="line2d_8">
    <path d="M 139.011024 25.528943 
L 258.839227 214.554331 
" clip-path="url(#p881992ade7)" style="fill: none; stroke: #555555; stroke-opacity: 0.9; stroke-width: 0.5; stroke-linecap: square"/>
   </g>
   <g id="line2d_9">
    <path d="M 59.125555 151.545868 
L 139.011024 25.528943 
" clip-path="url(#p881992ade7)" style="fill: none; stroke: #555555; stroke-opacity: 0.9; stroke-width: 0.5; stroke-linecap: square"/>
   </g>
   <g id="line2d_10">
    <path d="M 139.011024 214.554331 
L 59.125555 151.545868 
" clip-path="url(#p881992ade7)" style="fill: none; stroke: #555555; stroke-opacity: 0.9; stroke-width: 0.5; stroke-linecap: square"/>
   </g>
   <g id="line2d_11">
    <path d="M 198.925125 214.554331 
L 258.839227 214.554331 
" clip-path="url(#p881992ade7)" style="fill: none; stroke: #555555; stroke-opacity: 0.9; stroke-width: 0.5; stroke-linecap: square"/>
   </g>
   <g id="line2d_12">
    <path d="M 198.925125 214.554331 
L 185.098794 214.554331 
" clip-path="url(#p881992ade7)" style="fill: none; stroke: #555555; stroke-opacity: 0.9; stroke-width: 0.5; stroke-linecap: square"/>
   </g>
   <g id="line2d_13">
    <path d="M 59.125555 151.545868 
L 47.377692 170.077769 
" clip-path="url(#p881992ade7)" style="fill: none; stroke: #555555; stroke-opacity: 0.9; stroke-width: 0.5; stroke-linecap: square"/>
   </g>
   <g id="line2d_14">
    <path d="M 47.377692 170.077769 
L 19.18282 214.554331 
" clip-path="url(#p881992ade7)" style="fill: none; stroke: #555555; stroke-opacity: 0.9; stroke-width: 0.5; stroke-linecap: square"/>
   </g>
   <g id="line2d_15">
    <path d="M 139.011024 214.554331 
L 185.098794 214.554331 
" clip-path="url(#p881992ade7)" style="fill: none; stroke: #555555; stroke-opacity: 0.9; stroke-width: 0.5; stroke-linecap: square"/>
   </g>
   <g id="PathCollection_1">
    <defs>
     <path id="m4e5be63fbf" d="M 0 2.738613 
C 0.726289 2.738613 1.422928 2.450055 1.936492 1.936492 
C 2.450055 1.422928 2.738613 0.726289 2.738613 0 
C 2.738613 -0.726289 2.450055 -1.422928 1.936492 -1.936492 
C 1.422928 -2.450055 0.726289 -2.738613 0 -2.738613 
C -0.726289 -2.738613 -1.422928 -2.450055 -1.936492 -1.936492 
C -2.450055 -1.422928 -2.738613 -0.726289 -2.738613 0 
C -2.738613 0.726289 -2.450055 1.422928 -1.936492 1.936492 
C -1.422928 2.450055 -0.726289 2.738613 0 2.738613 
z
" style="stroke: #008000"/>
    </defs>
    <g clip-path="url(#p881992ade7)">
     <use xlink:href="#m4e5be63fbf" x="198.925125" y="214.554331" style="fill: #008000; stroke: #008000"/>
     <use xlink:href="#m4e5be63fbf" x="59.125555" y="151.545868" style="fill: #008000; stroke: #008000"/>
     <use xlink:href="#m4e5be63fbf" x="99.068289" y="214.554331" style="fill: #008000; stroke: #008000"/>
     <use xlink:href="#m4e5be63fbf" x="47.377692" y="170.077769" style="fill: #008000; stroke: #008000"/>
     <use xlink:href="#m4e5be63fbf" x="258.839227" y="214.554331" style="fill: #008000; stroke: #008000"/>
     <use xlink:href="#m4e5be63fbf" x="139.011024" y="214.554331" style="fill: #008000; stroke: #008000"/>
     <use xlink:href="#m4e5be63fbf" x="19.18282" y="214.554331" style="fill: #008000; stroke: #008000"/>
     <use xlink:href="#m4e5be63fbf" x="185.098794" y="214.554331" style="fill: #008000; stroke: #008000"/>
     <use xlink:href="#m4e5be63fbf" x="139.011024" y="25.528943" style="fill: #008000; stroke: #008000"/>
    </g>
   </g>
   <g id="PathCollection_2">
    <defs>
     <path id="macbfb13282" d="M -0 2.236068 
L 1.341641 0 
L 0 -2.236068 
L -1.341641 -0 
z
" style="stroke: #d3d3d3"/>
    </defs>
    <g clip-path="url(#p881992ade7)">
     <use xlink:href="#macbfb13282" x="139.011024" y="25.528943" style="fill: #d3d3d3; stroke: #d3d3d3"/>
     <use xlink:href="#macbfb13282" x="139.011024" y="25.528943" style="fill: #d3d3d3; stroke: #d3d3d3"/>
     <use xlink:href="#macbfb13282" x="139.011024" y="25.528943" style="fill: #d3d3d3; stroke: #d3d3d3"/>
     <use xlink:href="#macbfb13282" x="139.011024" y="25.528943" style="fill: #d3d3d3; stroke: #d3d3d3"/>
     <use xlink:href="#macbfb13282" x="258.839227" y="214.554331" style="fill: #d3d3d3; stroke: #d3d3d3"/>
     <use xlink:href="#macbfb13282" x="258.839227" y="214.554331" style="fill: #d3d3d3; stroke: #d3d3d3"/>
     <use xlink:href="#macbfb13282" x="258.839227" y="214.554331" style="fill: #d3d3d3; stroke: #d3d3d3"/>
     <use xlink:href="#macbfb13282" x="258.839227" y="214.554331" style="fill: #d3d3d3; stroke: #d3d3d3"/>
     <use xlink:href="#macbfb13282" x="258.839227" y="214.554331" style="fill: #d3d3d3; stroke: #d3d3d3"/>
     <use xlink:href="#macbfb13282" x="258.839227" y="214.554331" style="fill: #d3d3d3; stroke: #d3d3d3"/>
     <use xlink:href="#macbfb13282" x="258.839227" y="214.554331" style="fill: #d3d3d3; stroke: #d3d3d3"/>
     <use xlink:href="#macbfb13282" x="19.18282" y="214.554331" style="fill: #d3d3d3; stroke: #d3d3d3"/>
     <use xlink:href="#macbfb13282" x="19.18282" y="214.554331" style="fill: #d3d3d3; stroke: #d3d3d3"/>
     <use xlink:href="#macbfb13282" x="19.18282" y="214.554331" style="fill: #d3d3d3; stroke: #d3d3d3"/>
     <use xlink:href="#macbfb13282" x="19.18282" y="214.554331" style="fill: #d3d3d3; stroke: #d3d3d3"/>
     <use xlink:href="#macbfb13282" x="19.18282" y="214.554331" style="fill: #d3d3d3; stroke: #d3d3d3"/>
     <use xlink:href="#macbfb13282" x="19.18282" y="214.554331" style="fill: #d3d3d3; stroke: #d3d3d3"/>
     <use xlink:href="#macbfb13282" x="19.18282" y="214.554331" style="fill: #d3d3d3; stroke: #d3d3d3"/>
     <use xlink:href="#macbfb13282" x="19.18282" y="214.554331" style="fill: #d3d3d3; stroke: #d3d3d3"/>
     <use xlink:href="#macbfb13282" x="19.18282" y="214.554331" style="fill: #d3d3d3; stroke: #d3d3d3"/>
     <use xlink:href="#macbfb13282" x="79.096922" y="120.041637" style="fill: #d3d3d3; stroke: #d3d3d3"/>
     <use xlink:href="#macbfb13282" x="139.011024" y="214.554331" style="fill: #d3d3d3; stroke: #d3d3d3"/>
     <use xlink:href="#macbfb13282" x="198.925125" y="214.554331" style="fill: #d3d3d3; stroke: #d3d3d3"/>
     <use xlink:href="#macbfb13282" x="198.925125" y="214.554331" style="fill: #d3d3d3; stroke: #d3d3d3"/>
     <use xlink:href="#macbfb13282" x="198.925125" y="214.554331" style="fill: #d3d3d3; stroke: #d3d3d3"/>
     <use xlink:href="#macbfb13282" x="210.907946" y="214.554331" style="fill: #d3d3d3; stroke: #d3d3d3"/>
     <use xlink:href="#macbfb13282" x="99.068289" y="214.554331" style="fill: #d3d3d3; stroke: #d3d3d3"/>
     <use xlink:href="#macbfb13282" x="99.068289" y="214.554331" style="fill: #d3d3d3; stroke: #d3d3d3"/>
     <use xlink:href="#macbfb13282" x="67.114102" y="138.944176" style="fill: #d3d3d3; stroke: #d3d3d3"/>
     <use xlink:href="#macbfb13282" x="79.096922" y="214.554331" style="fill: #d3d3d3; stroke: #d3d3d3"/>
     <use xlink:href="#macbfb13282" x="79.096922" y="214.554331" style="fill: #d3d3d3; stroke: #d3d3d3"/>
     <use xlink:href="#macbfb13282" x="115.045383" y="214.554331" style="fill: #d3d3d3; stroke: #d3d3d3"/>
     <use xlink:href="#macbfb13282" x="208.385247" y="214.554331" style="fill: #d3d3d3; stroke: #d3d3d3"/>
     <use xlink:href="#macbfb13282" x="102.140807" y="200.013916" style="fill: #d3d3d3; stroke: #d3d3d3"/>
    </g>
   </g>
   <g id="PathCollection_3">
    <defs>
     <path id="m973c7bbd24" d="M 0 -5 
L -1.12257 -1.545085 
L -4.755283 -1.545085 
L -1.816356 0.59017 
L -2.938926 4.045085 
L -0 1.90983 
L 2.938926 4.045085 
L 1.816356 0.59017 
L 4.755283 -1.545085 
L 1.12257 -1.545085 
z
" style="stroke: #0000ff"/>
    </defs>
    <g clip-path="url(#p881992ade7)">
     <use xlink:href="#m973c7bbd24" x="102.140807" y="200.013916" style="fill: #0000ff; stroke: #0000ff"/>
    </g>
   </g>
   <g id="text_1">
    <!-- $\mathrm{AlCu_{3}}$ -->
    <g transform="translate(194.843307 210.594971) scale(0.1 -0.1)">
     <defs>
      <path id="DejaVuSans-41" d="M 2188 4044 
L 1331 1722 
L 3047 1722 
L 2188 4044 
z
M 1831 4666 
L 2547 4666 
L 4325 0 
L 3669 0 
L 3244 1197 
L 1141 1197 
L 716 0 
L 50 0 
L 1831 4666 
z
" transform="scale(0.015625)"/>
      <path id="DejaVuSans-6c" d="M 603 4863 
L 1178 4863 
L 1178 0 
L 603 0 
L 603 4863 
z
" transform="scale(0.015625)"/>
      <path id="DejaVuSans-43" d="M 4122 4306 
L 4122 3641 
Q 3803 3938 3442 4084 
Q 3081 4231 2675 4231 
Q 1875 4231 1450 3742 
Q 1025 3253 1025 2328 
Q 1025 1406 1450 917 
Q 1875 428 2675 428 
Q 3081 428 3442 575 
Q 3803 722 4122 1019 
L 4122 359 
Q 3791 134 3420 21 
Q 3050 -91 2638 -91 
Q 1578 -91 968 557 
Q 359 1206 359 2328 
Q 359 3453 968 4101 
Q 1578 4750 2638 4750 
Q 3056 4750 3426 4639 
Q 3797 4528 4122 4306 
z
" transform="scale(0.015625)"/>
      <path id="DejaVuSans-75" d="M 544 1381 
L 544 3500 
L 1119 3500 
L 1119 1403 
Q 1119 906 1312 657 
Q 1506 409 1894 409 
Q 2359 409 2629 706 
Q 2900 1003 2900 1516 
L 2900 3500 
L 3475 3500 
L 3475 0 
L 2900 0 
L 2900 538 
Q 2691 219 2414 64 
Q 2138 -91 1772 -91 
Q 1169 -91 856 284 
Q 544 659 544 1381 
z
M 1991 3584 
L 1991 3584 
z
" transform="scale(0.015625)"/>
      <path id="DejaVuSans-33" d="M 2597 2516 
Q 3050 2419 3304 2112 
Q 3559 1806 3559 1356 
Q 3559 666 3084 287 
Q 2609 -91 1734 -91 
Q 1441 -91 1130 -33 
Q 819 25 488 141 
L 488 750 
Q 750 597 1062 519 
Q 1375 441 1716 441 
Q 2309 441 2620 675 
Q 2931 909 2931 1356 
Q 2931 1769 2642 2001 
Q 2353 2234 1838 2234 
L 1294 2234 
L 1294 2753 
L 1863 2753 
Q 2328 2753 2575 2939 
Q 2822 3125 2822 3475 
Q 2822 3834 2567 4026 
Q 2313 4219 1838 4219 
Q 1578 4219 1281 4162 
Q 984 4106 628 3988 
L 628 4550 
Q 988 4650 1302 4700 
Q 1616 4750 1894 4750 
Q 2613 4750 3031 4423 
Q 3450 4097 3450 3541 
Q 3450 3153 3228 2886 
Q 3006 2619 2597 2516 
z
" transform="scale(0.015625)"/>
     </defs>
     <use xlink:href="#DejaVuSans-41" transform="translate(0 0.015625)"/>
     <use xlink:href="#DejaVuSans-6c" transform="translate(68.408203 0.015625)"/>
     <use xlink:href="#DejaVuSans-43" transform="translate(96.191406 0.015625)"/>
     <use xlink:href="#DejaVuSans-75" transform="translate(166.015625 0.015625)"/>
     <use xlink:href="#DejaVuSans-33" transform="translate(230.351562 -16.390625) scale(0.7)"/>
    </g>
   </g>
   <g id="text_2">
    <!-- $\mathrm{Al_{2}Os}$ -->
    <g transform="translate(52.525555 147.349447) scale(0.1 -0.1)">
     <defs>
      <path id="DejaVuSans-32" d="M 1228 531 
L 3431 531 
L 3431 0 
L 469 0 
L 469 531 
Q 828 903 1448 1529 
Q 2069 2156 2228 2338 
Q 2531 2678 2651 2914 
Q 2772 3150 2772 3378 
Q 2772 3750 2511 3984 
Q 2250 4219 1831 4219 
Q 1534 4219 1204 4116 
Q 875 4013 500 3803 
L 500 4441 
Q 881 4594 1212 4672 
Q 1544 4750 1819 4750 
Q 2544 4750 2975 4387 
Q 3406 4025 3406 3419 
Q 3406 3131 3298 2873 
Q 3191 2616 2906 2266 
Q 2828 2175 2409 1742 
Q 1991 1309 1228 531 
z
" transform="scale(0.015625)"/>
      <path id="DejaVuSans-4f" d="M 2522 4238 
Q 1834 4238 1429 3725 
Q 1025 3213 1025 2328 
Q 1025 1447 1429 934 
Q 1834 422 2522 422 
Q 3209 422 3611 934 
Q 4013 1447 4013 2328 
Q 4013 3213 3611 3725 
Q 3209 4238 2522 4238 
z
M 2522 4750 
Q 3503 4750 4090 4092 
Q 4678 3434 4678 2328 
Q 4678 1225 4090 567 
Q 3503 -91 2522 -91 
Q 1538 -91 948 565 
Q 359 1222 359 2328 
Q 359 3434 948 4092 
Q 1538 4750 2522 4750 
z
" transform="scale(0.015625)"/>
      <path id="DejaVuSans-73" d="M 2834 3397 
L 2834 2853 
Q 2591 2978 2328 3040 
Q 2066 3103 1784 3103 
Q 1356 3103 1142 2972 
Q 928 2841 928 2578 
Q 928 2378 1081 2264 
Q 1234 2150 1697 2047 
L 1894 2003 
Q 2506 1872 2764 1633 
Q 3022 1394 3022 966 
Q 3022 478 2636 193 
Q 2250 -91 1575 -91 
Q 1294 -91 989 -36 
Q 684 19 347 128 
L 347 722 
Q 666 556 975 473 
Q 1284 391 1588 391 
Q 1994 391 2212 530 
Q 2431 669 2431 922 
Q 2431 1156 2273 1281 
Q 2116 1406 1581 1522 
L 1381 1569 
Q 847 1681 609 1914 
Q 372 2147 372 2553 
Q 372 3047 722 3315 
Q 1072 3584 1716 3584 
Q 2034 3584 2315 3537 
Q 2597 3491 2834 3397 
z
" transform="scale(0.015625)"/>
     </defs>
     <use xlink:href="#DejaVuSans-41" transform="translate(0 0.015625)"/>
     <use xlink:href="#DejaVuSans-6c" transform="translate(68.408203 0.015625)"/>
     <use xlink:href="#DejaVuSans-32" transform="translate(97.148438 -16.390625) scale(0.7)"/>
     <use xlink:href="#DejaVuSans-4f" transform="translate(144.418945 0.015625)"/>
     <use xlink:href="#DejaVuSans-73" transform="translate(223.129883 0.015625)"/>
    </g>
   </g>
   <g id="text_3">
    <!-- $\mathrm{Al_{2}Cu}$ -->
    <g transform="translate(82.242856 210.544971) scale(0.1 -0.1)">
     <use xlink:href="#DejaVuSans-41" transform="translate(0 0.015625)"/>
     <use xlink:href="#DejaVuSans-6c" transform="translate(68.408203 0.015625)"/>
     <use xlink:href="#DejaVuSans-32" transform="translate(97.148438 -16.390625) scale(0.7)"/>
     <use xlink:href="#DejaVuSans-43" transform="translate(144.418945 0.015625)"/>
     <use xlink:href="#DejaVuSans-75" transform="translate(214.243164 0.015625)"/>
    </g>
   </g>
   <g id="text_4">
    <!-- $\mathrm{Al_{13}Os_{4}}$ -->
    <g transform="translate(20.468601 179.025652) scale(0.1 -0.1)">
     <defs>
      <path id="DejaVuSans-31" d="M 794 531 
L 1825 531 
L 1825 4091 
L 703 3866 
L 703 4441 
L 1819 4666 
L 2450 4666 
L 2450 531 
L 3481 531 
L 3481 0 
L 794 0 
L 794 531 
z
" transform="scale(0.015625)"/>
      <path id="DejaVuSans-34" d="M 2419 4116 
L 825 1625 
L 2419 1625 
L 2419 4116 
z
M 2253 4666 
L 3047 4666 
L 3047 1625 
L 3713 1625 
L 3713 1100 
L 3047 1100 
L 3047 0 
L 2419 0 
L 2419 1100 
L 313 1100 
L 313 1709 
L 2253 4666 
z
" transform="scale(0.015625)"/>
     </defs>
     <use xlink:href="#DejaVuSans-41" transform="translate(0 0.015625)"/>
     <use xlink:href="#DejaVuSans-6c" transform="translate(68.408203 0.015625)"/>
     <use xlink:href="#DejaVuSans-31" transform="translate(97.148438 -16.390625) scale(0.7)"/>
     <use xlink:href="#DejaVuSans-33" transform="translate(141.68457 -16.390625) scale(0.7)"/>
     <use xlink:href="#DejaVuSans-4f" transform="translate(188.955078 0.015625)"/>
     <use xlink:href="#DejaVuSans-73" transform="translate(267.666016 0.015625)"/>
     <use xlink:href="#DejaVuSans-34" transform="translate(320.722656 -16.390625) scale(0.7)"/>
    </g>
   </g>
   <g id="text_5">
    <!-- $\mathrm{Cu}$ -->
    <g transform="translate(245.859482 211.527642) scale(0.1 -0.1)">
     <use xlink:href="#DejaVuSans-43" transform="translate(0 0.78125)"/>
     <use xlink:href="#DejaVuSans-75" transform="translate(69.824219 0.78125)"/>
    </g>
   </g>
   <g id="text_6">
    <!-- $\mathrm{AlCu}$ -->
    <g transform="translate(125.547387 211.215873) scale(0.1 -0.1)">
     <use xlink:href="#DejaVuSans-41" transform="translate(0 0.015625)"/>
     <use xlink:href="#DejaVuSans-6c" transform="translate(68.408203 0.015625)"/>
     <use xlink:href="#DejaVuSans-43" transform="translate(96.191406 0.015625)"/>
     <use xlink:href="#DejaVuSans-75" transform="translate(166.015625 0.015625)"/>
    </g>
   </g>
   <g id="text_7">
    <!-- $\mathrm{Al}$ -->
    <g transform="translate(19.586902 211.839411) scale(0.1 -0.1)">
     <use xlink:href="#DejaVuSans-41" transform="translate(0 0.015625)"/>
     <use xlink:href="#DejaVuSans-6c" transform="translate(68.408203 0.015625)"/>
    </g>
   </g>
   <g id="text_8">
    <!-- $\mathrm{Al_{4}Cu_{9}}$ -->
    <g transform="translate(159.635158 210.594971) scale(0.1 -0.1)">
     <defs>
      <path id="DejaVuSans-39" d="M 703 97 
L 703 672 
Q 941 559 1184 500 
Q 1428 441 1663 441 
Q 2288 441 2617 861 
Q 2947 1281 2994 2138 
Q 2813 1869 2534 1725 
Q 2256 1581 1919 1581 
Q 1219 1581 811 2004 
Q 403 2428 403 3163 
Q 403 3881 828 4315 
Q 1253 4750 1959 4750 
Q 2769 4750 3195 4129 
Q 3622 3509 3622 2328 
Q 3622 1225 3098 567 
Q 2575 -91 1691 -91 
Q 1453 -91 1209 -44 
Q 966 3 703 97 
z
M 1959 2075 
Q 2384 2075 2632 2365 
Q 2881 2656 2881 3163 
Q 2881 3666 2632 3958 
Q 2384 4250 1959 4250 
Q 1534 4250 1286 3958 
Q 1038 3666 1038 3163 
Q 1038 2656 1286 2365 
Q 1534 2075 1959 2075 
z
" transform="scale(0.015625)"/>
     </defs>
     <use xlink:href="#DejaVuSans-41" transform="translate(0 0.015625)"/>
     <use xlink:href="#DejaVuSans-6c" transform="translate(68.408203 0.015625)"/>
     <use xlink:href="#DejaVuSans-34" transform="translate(97.148438 -16.390625) scale(0.7)"/>
     <use xlink:href="#DejaVuSans-43" transform="translate(144.418945 0.015625)"/>
     <use xlink:href="#DejaVuSans-75" transform="translate(214.243164 0.015625)"/>
     <use xlink:href="#DejaVuSans-39" transform="translate(278.579102 -16.390625) scale(0.7)"/>
    </g>
   </g>
   <g id="text_9">
    <!-- $\mathrm{Os}$ -->
    <g transform="translate(135.733751 33.102406) scale(0.1 -0.1)">
     <use xlink:href="#DejaVuSans-4f" transform="translate(0 0.78125)"/>
     <use xlink:href="#DejaVuSans-73" transform="translate(78.710938 0.78125)"/>
    </g>
   </g>
   <g id="text_10">
    <!-- $\mathrm{Al_{8}Cu_{4}Os}$ -->
    <g style="fill: #0000ff" transform="translate(91.032584 195.867495) scale(0.1 -0.1)">
     <defs>
      <path id="DejaVuSans-38" d="M 2034 2216 
Q 1584 2216 1326 1975 
Q 1069 1734 1069 1313 
Q 1069 891 1326 650 
Q 1584 409 2034 409 
Q 2484 409 2743 651 
Q 3003 894 3003 1313 
Q 3003 1734 2745 1975 
Q 2488 2216 2034 2216 
z
M 1403 2484 
Q 997 2584 770 2862 
Q 544 3141 544 3541 
Q 544 4100 942 4425 
Q 1341 4750 2034 4750 
Q 2731 4750 3128 4425 
Q 3525 4100 3525 3541 
Q 3525 3141 3298 2862 
Q 3072 2584 2669 2484 
Q 3125 2378 3379 2068 
Q 3634 1759 3634 1313 
Q 3634 634 3220 271 
Q 2806 -91 2034 -91 
Q 1263 -91 848 271 
Q 434 634 434 1313 
Q 434 1759 690 2068 
Q 947 2378 1403 2484 
z
M 1172 3481 
Q 1172 3119 1398 2916 
Q 1625 2713 2034 2713 
Q 2441 2713 2670 2916 
Q 2900 3119 2900 3481 
Q 2900 3844 2670 4047 
Q 2441 4250 2034 4250 
Q 1625 4250 1398 4047 
Q 1172 3844 1172 3481 
z
" transform="scale(0.015625)"/>
     </defs>
     <use xlink:href="#DejaVuSans-41" transform="translate(0 0.015625)"/>
     <use xlink:href="#DejaVuSans-6c" transform="translate(68.408203 0.015625)"/>
     <use xlink:href="#DejaVuSans-38" transform="translate(97.148438 -16.390625) scale(0.7)"/>
     <use xlink:href="#DejaVuSans-43" transform="translate(144.418945 0.015625)"/>
     <use xlink:href="#DejaVuSans-75" transform="translate(214.243164 0.015625)"/>
     <use xlink:href="#DejaVuSans-34" transform="translate(278.579102 -16.390625) scale(0.7)"/>
     <use xlink:href="#DejaVuSans-4f" transform="translate(325.849609 0.015625)"/>
     <use xlink:href="#DejaVuSans-73" transform="translate(404.560547 0.015625)"/>
    </g>
   </g>
  </g>
  <g id="axes_2">
   <g id="patch_3">
    <path d="M 287.298425 195.703937 
L 296.029134 195.703937 
L 296.029134 36.96378 
L 287.298425 36.96378 
L 287.298425 195.703937 
z
" style="fill: none"/>
   </g>
   <g id="patch_4">
    <path d="M 287.298425 195.703937 
L 291.66378 203.640945 
L 296.029134 195.703937 
" style="fill: #440154; opacity: 0.7"/>
   </g>
   <g id="patch_5">
    <path d="M 287.298425 36.96378 
L 291.66378 29.026772 
L 296.029134 36.96378 
" style="fill: #fde725; opacity: 0.7"/>
   </g>
   <g id="QuadMesh_1">
    <path d="M 287.298425 195.703937 
L 296.029134 195.703937 
L 296.029134 191.294488 
L 287.298425 191.294488 
L 287.298425 195.703937 
" clip-path="url(#p5856514122)" style="fill: #450559; fill-opacity: 0.7"/>
    <path d="M 287.298425 191.294488 
L 296.029134 191.294488 
L 296.029134 186.885039 
L 287.298425 186.885039 
L 287.298425 191.294488 
" clip-path="url(#p5856514122)" style="fill: #471063; fill-opacity: 0.7"/>
    <path d="M 287.298425 186.885039 
L 296.029134 186.885039 
L 296.029134 182.475591 
L 287.298425 182.475591 
L 287.298425 186.885039 
" clip-path="url(#p5856514122)" style="fill: #481a6c; fill-opacity: 0.7"/>
    <path d="M 287.298425 182.475591 
L 296.029134 182.475591 
L 296.029134 178.066142 
L 287.298425 178.066142 
L 287.298425 182.475591 
" clip-path="url(#p5856514122)" style="fill: #482374; fill-opacity: 0.7"/>
    <path d="M 287.298425 178.066142 
L 296.029134 178.066142 
L 296.029134 173.656693 
L 287.298425 173.656693 
L 287.298425 178.066142 
" clip-path="url(#p5856514122)" style="fill: #472d7b; fill-opacity: 0.7"/>
    <path d="M 287.298425 173.656693 
L 296.029134 173.656693 
L 296.029134 169.247244 
L 287.298425 169.247244 
L 287.298425 173.656693 
" clip-path="url(#p5856514122)" style="fill: #453581; fill-opacity: 0.7"/>
    <path d="M 287.298425 169.247244 
L 296.029134 169.247244 
L 296.029134 164.837795 
L 287.298425 164.837795 
L 287.298425 169.247244 
" clip-path="url(#p5856514122)" style="fill: #433e85; fill-opacity: 0.7"/>
    <path d="M 287.298425 164.837795 
L 296.029134 164.837795 
L 296.029134 160.428346 
L 287.298425 160.428346 
L 287.298425 164.837795 
" clip-path="url(#p5856514122)" style="fill: #404688; fill-opacity: 0.7"/>
    <path d="M 287.298425 160.428346 
L 296.029134 160.428346 
L 296.029134 156.018898 
L 287.298425 156.018898 
L 287.298425 160.428346 
" clip-path="url(#p5856514122)" style="fill: #3d4e8a; fill-opacity: 0.7"/>
    <path d="M 287.298425 156.018898 
L 296.029134 156.018898 
L 296.029134 151.609449 
L 287.298425 151.609449 
L 287.298425 156.018898 
" clip-path="url(#p5856514122)" style="fill: #39558c; fill-opacity: 0.7"/>
    <path d="M 287.298425 151.609449 
L 296.029134 151.609449 
L 296.029134 147.2 
L 287.298425 147.2 
L 287.298425 151.609449 
" clip-path="url(#p5856514122)" style="fill: #365d8d; fill-opacity: 0.7"/>
    <path d="M 287.298425 147.2 
L 296.029134 147.2 
L 296.029134 142.790551 
L 287.298425 142.790551 
L 287.298425 147.2 
" clip-path="url(#p5856514122)" style="fill: #32648e; fill-opacity: 0.7"/>
    <path d="M 287.298425 142.790551 
L 296.029134 142.790551 
L 296.029134 138.381102 
L 287.298425 138.381102 
L 287.298425 142.790551 
" clip-path="url(#p5856514122)" style="fill: #2f6b8e; fill-opacity: 0.7"/>
    <path d="M 287.298425 138.381102 
L 296.029134 138.381102 
L 296.029134 133.971654 
L 287.298425 133.971654 
L 287.298425 138.381102 
" clip-path="url(#p5856514122)" style="fill: #2c728e; fill-opacity: 0.7"/>
    <path d="M 287.298425 133.971654 
L 296.029134 133.971654 
L 296.029134 129.562205 
L 287.298425 129.562205 
L 287.298425 133.971654 
" clip-path="url(#p5856514122)" style="fill: #29798e; fill-opacity: 0.7"/>
    <path d="M 287.298425 129.562205 
L 296.029134 129.562205 
L 296.029134 125.152756 
L 287.298425 125.152756 
L 287.298425 129.562205 
" clip-path="url(#p5856514122)" style="fill: #27808e; fill-opacity: 0.7"/>
    <path d="M 287.298425 125.152756 
L 296.029134 125.152756 
L 296.029134 120.743307 
L 287.298425 120.743307 
L 287.298425 125.152756 
" clip-path="url(#p5856514122)" style="fill: #24868e; fill-opacity: 0.7"/>
    <path d="M 287.298425 120.743307 
L 296.029134 120.743307 
L 296.029134 116.333858 
L 287.298425 116.333858 
L 287.298425 120.743307 
" clip-path="url(#p5856514122)" style="fill: #228d8d; fill-opacity: 0.7"/>
    <path d="M 287.298425 116.333858 
L 296.029134 116.333858 
L 296.029134 111.924409 
L 287.298425 111.924409 
L 287.298425 116.333858 
" clip-path="url(#p5856514122)" style="fill: #20938c; fill-opacity: 0.7"/>
    <path d="M 287.298425 111.924409 
L 296.029134 111.924409 
L 296.029134 107.514961 
L 287.298425 107.514961 
L 287.298425 111.924409 
" clip-path="url(#p5856514122)" style="fill: #1f9a8a; fill-opacity: 0.7"/>
    <path d="M 287.298425 107.514961 
L 296.029134 107.514961 
L 296.029134 103.105512 
L 287.298425 103.105512 
L 287.298425 107.514961 
" clip-path="url(#p5856514122)" style="fill: #1fa188; fill-opacity: 0.7"/>
    <path d="M 287.298425 103.105512 
L 296.029134 103.105512 
L 296.029134 98.696063 
L 287.298425 98.696063 
L 287.298425 103.105512 
" clip-path="url(#p5856514122)" style="fill: #22a785; fill-opacity: 0.7"/>
    <path d="M 287.298425 98.696063 
L 296.029134 98.696063 
L 296.029134 94.286614 
L 287.298425 94.286614 
L 287.298425 98.696063 
" clip-path="url(#p5856514122)" style="fill: #28ae80; fill-opacity: 0.7"/>
    <path d="M 287.298425 94.286614 
L 296.029134 94.286614 
L 296.029134 89.877165 
L 287.298425 89.877165 
L 287.298425 94.286614 
" clip-path="url(#p5856514122)" style="fill: #31b57b; fill-opacity: 0.7"/>
    <path d="M 287.298425 89.877165 
L 296.029134 89.877165 
L 296.029134 85.467717 
L 287.298425 85.467717 
L 287.298425 89.877165 
" clip-path="url(#p5856514122)" style="fill: #3bbb75; fill-opacity: 0.7"/>
    <path d="M 287.298425 85.467717 
L 296.029134 85.467717 
L 296.029134 81.058268 
L 287.298425 81.058268 
L 287.298425 85.467717 
" clip-path="url(#p5856514122)" style="fill: #48c16e; fill-opacity: 0.7"/>
    <path d="M 287.298425 81.058268 
L 296.029134 81.058268 
L 296.029134 76.648819 
L 287.298425 76.648819 
L 287.298425 81.058268 
" clip-path="url(#p5856514122)" style="fill: #56c667; fill-opacity: 0.7"/>
    <path d="M 287.298425 76.648819 
L 296.029134 76.648819 
L 296.029134 72.23937 
L 287.298425 72.23937 
L 287.298425 76.648819 
" clip-path="url(#p5856514122)" style="fill: #65cb5e; fill-opacity: 0.7"/>
    <path d="M 287.298425 72.23937 
L 296.029134 72.23937 
L 296.029134 67.829921 
L 287.298425 67.829921 
L 287.298425 72.23937 
" clip-path="url(#p5856514122)" style="fill: #75d054; fill-opacity: 0.7"/>
    <path d="M 287.298425 67.829921 
L 296.029134 67.829921 
L 296.029134 63.420472 
L 287.298425 63.420472 
L 287.298425 67.829921 
" clip-path="url(#p5856514122)" style="fill: #86d549; fill-opacity: 0.7"/>
    <path d="M 287.298425 63.420472 
L 296.029134 63.420472 
L 296.029134 59.011024 
L 287.298425 59.011024 
L 287.298425 63.420472 
" clip-path="url(#p5856514122)" style="fill: #98d83e; fill-opacity: 0.7"/>
    <path d="M 287.298425 59.011024 
L 296.029134 59.011024 
L 296.029134 54.601575 
L 287.298425 54.601575 
L 287.298425 59.011024 
" clip-path="url(#p5856514122)" style="fill: #addc30; fill-opacity: 0.7"/>
    <path d="M 287.298425 54.601575 
L 296.029134 54.601575 
L 296.029134 50.192126 
L 287.298425 50.192126 
L 287.298425 54.601575 
" clip-path="url(#p5856514122)" style="fill: #c0df25; fill-opacity: 0.7"/>
    <path d="M 287.298425 50.192126 
L 296.029134 50.192126 
L 296.029134 45.782677 
L 287.298425 45.782677 
L 287.298425 50.192126 
" clip-path="url(#p5856514122)" style="fill: #d2e21b; fill-opacity: 0.7"/>
    <path d="M 287.298425 45.782677 
L 296.029134 45.782677 
L 296.029134 41.373228 
L 287.298425 41.373228 
L 287.298425 45.782677 
" clip-path="url(#p5856514122)" style="fill: #e5e419; fill-opacity: 0.7"/>
    <path d="M 287.298425 41.373228 
L 296.029134 41.373228 
L 296.029134 36.96378 
L 287.298425 36.96378 
L 287.298425 41.373228 
" clip-path="url(#p5856514122)" style="fill: #f6e620; fill-opacity: 0.7"/>
   </g>
   <g id="matplotlib.axis_3"/>
   <g id="matplotlib.axis_4">
    <g id="ytick_1">
     <g id="line2d_16">
      <defs>
       <path id="mcdec9b7c25" d="M 0 0 
L -2 0 
" style="stroke: #000000; stroke-width: 0.3"/>
      </defs>
      <g>
       <use xlink:href="#mcdec9b7c25" x="296.029134" y="195.703937" style="stroke: #000000; stroke-width: 0.3"/>
      </g>
     </g>
     <g id="text_11">
      <!-- −0.555 -->
      <g transform="translate(299.529134 198.567062) scale(0.08 -0.08)">
       <defs>
        <path id="ArialMT-2212" d="M 3381 1997 
L 356 1997 
L 356 2522 
L 3381 2522 
L 3381 1997 
z
" transform="scale(0.015625)"/>
        <path id="ArialMT-30" d="M 266 2259 
Q 266 3072 433 3567 
Q 600 4063 929 4331 
Q 1259 4600 1759 4600 
Q 2128 4600 2406 4451 
Q 2684 4303 2865 4023 
Q 3047 3744 3150 3342 
Q 3253 2941 3253 2259 
Q 3253 1453 3087 958 
Q 2922 463 2592 192 
Q 2263 -78 1759 -78 
Q 1097 -78 719 397 
Q 266 969 266 2259 
z
M 844 2259 
Q 844 1131 1108 757 
Q 1372 384 1759 384 
Q 2147 384 2411 759 
Q 2675 1134 2675 2259 
Q 2675 3391 2411 3762 
Q 2147 4134 1753 4134 
Q 1366 4134 1134 3806 
Q 844 3388 844 2259 
z
" transform="scale(0.015625)"/>
        <path id="ArialMT-2e" d="M 581 0 
L 581 641 
L 1222 641 
L 1222 0 
L 581 0 
z
" transform="scale(0.015625)"/>
        <path id="ArialMT-35" d="M 266 1200 
L 856 1250 
Q 922 819 1161 601 
Q 1400 384 1738 384 
Q 2144 384 2425 690 
Q 2706 997 2706 1503 
Q 2706 1984 2436 2262 
Q 2166 2541 1728 2541 
Q 1456 2541 1237 2417 
Q 1019 2294 894 2097 
L 366 2166 
L 809 4519 
L 3088 4519 
L 3088 3981 
L 1259 3981 
L 1013 2750 
Q 1425 3038 1878 3038 
Q 2478 3038 2890 2622 
Q 3303 2206 3303 1553 
Q 3303 931 2941 478 
Q 2500 -78 1738 -78 
Q 1113 -78 717 272 
Q 322 622 266 1200 
z
" transform="scale(0.015625)"/>
       </defs>
       <use xlink:href="#ArialMT-2212"/>
       <use xlink:href="#ArialMT-30" transform="translate(58.398438 0)"/>
       <use xlink:href="#ArialMT-2e" transform="translate(114.013672 0)"/>
       <use xlink:href="#ArialMT-35" transform="translate(141.796875 0)"/>
       <use xlink:href="#ArialMT-35" transform="translate(197.412109 0)"/>
       <use xlink:href="#ArialMT-35" transform="translate(253.027344 0)"/>
      </g>
     </g>
    </g>
    <g id="ytick_2">
     <g id="line2d_17">
      <g>
       <use xlink:href="#mcdec9b7c25" x="296.029134" y="178.066142" style="stroke: #000000; stroke-width: 0.3"/>
      </g>
     </g>
     <g id="text_12">
      <!-- −0.495 -->
      <g transform="translate(299.529134 180.929267) scale(0.08 -0.08)">
       <defs>
        <path id="ArialMT-34" d="M 2069 0 
L 2069 1097 
L 81 1097 
L 81 1613 
L 2172 4581 
L 2631 4581 
L 2631 1613 
L 3250 1613 
L 3250 1097 
L 2631 1097 
L 2631 0 
L 2069 0 
z
M 2069 1613 
L 2069 3678 
L 634 1613 
L 2069 1613 
z
" transform="scale(0.015625)"/>
        <path id="ArialMT-39" d="M 350 1059 
L 891 1109 
Q 959 728 1153 556 
Q 1347 384 1650 384 
Q 1909 384 2104 503 
Q 2300 622 2425 820 
Q 2550 1019 2634 1356 
Q 2719 1694 2719 2044 
Q 2719 2081 2716 2156 
Q 2547 1888 2255 1720 
Q 1963 1553 1622 1553 
Q 1053 1553 659 1965 
Q 266 2378 266 3053 
Q 266 3750 677 4175 
Q 1088 4600 1706 4600 
Q 2153 4600 2523 4359 
Q 2894 4119 3086 3673 
Q 3278 3228 3278 2384 
Q 3278 1506 3087 986 
Q 2897 466 2520 194 
Q 2144 -78 1638 -78 
Q 1100 -78 759 220 
Q 419 519 350 1059 
z
M 2653 3081 
Q 2653 3566 2395 3850 
Q 2138 4134 1775 4134 
Q 1400 4134 1122 3828 
Q 844 3522 844 3034 
Q 844 2597 1108 2323 
Q 1372 2050 1759 2050 
Q 2150 2050 2401 2323 
Q 2653 2597 2653 3081 
z
" transform="scale(0.015625)"/>
       </defs>
       <use xlink:href="#ArialMT-2212"/>
       <use xlink:href="#ArialMT-30" transform="translate(58.398438 0)"/>
       <use xlink:href="#ArialMT-2e" transform="translate(114.013672 0)"/>
       <use xlink:href="#ArialMT-34" transform="translate(141.796875 0)"/>
       <use xlink:href="#ArialMT-39" transform="translate(197.412109 0)"/>
       <use xlink:href="#ArialMT-35" transform="translate(253.027344 0)"/>
      </g>
     </g>
    </g>
    <g id="ytick_3">
     <g id="line2d_18">
      <g>
       <use xlink:href="#mcdec9b7c25" x="296.029134" y="160.428346" style="stroke: #000000; stroke-width: 0.3"/>
      </g>
     </g>
     <g id="text_13">
      <!-- −0.435 -->
      <g transform="translate(299.529134 163.291471) scale(0.08 -0.08)">
       <defs>
        <path id="ArialMT-33" d="M 269 1209 
L 831 1284 
Q 928 806 1161 595 
Q 1394 384 1728 384 
Q 2125 384 2398 659 
Q 2672 934 2672 1341 
Q 2672 1728 2419 1979 
Q 2166 2231 1775 2231 
Q 1616 2231 1378 2169 
L 1441 2663 
Q 1497 2656 1531 2656 
Q 1891 2656 2178 2843 
Q 2466 3031 2466 3422 
Q 2466 3731 2256 3934 
Q 2047 4138 1716 4138 
Q 1388 4138 1169 3931 
Q 950 3725 888 3313 
L 325 3413 
Q 428 3978 793 4289 
Q 1159 4600 1703 4600 
Q 2078 4600 2393 4439 
Q 2709 4278 2876 4000 
Q 3044 3722 3044 3409 
Q 3044 3113 2884 2869 
Q 2725 2625 2413 2481 
Q 2819 2388 3044 2092 
Q 3269 1797 3269 1353 
Q 3269 753 2831 336 
Q 2394 -81 1725 -81 
Q 1122 -81 723 278 
Q 325 638 269 1209 
z
" transform="scale(0.015625)"/>
       </defs>
       <use xlink:href="#ArialMT-2212"/>
       <use xlink:href="#ArialMT-30" transform="translate(58.398438 0)"/>
       <use xlink:href="#ArialMT-2e" transform="translate(114.013672 0)"/>
       <use xlink:href="#ArialMT-34" transform="translate(141.796875 0)"/>
       <use xlink:href="#ArialMT-33" transform="translate(197.412109 0)"/>
       <use xlink:href="#ArialMT-35" transform="translate(253.027344 0)"/>
      </g>
     </g>
    </g>
    <g id="ytick_4">
     <g id="line2d_19">
      <g>
       <use xlink:href="#mcdec9b7c25" x="296.029134" y="142.790551" style="stroke: #000000; stroke-width: 0.3"/>
      </g>
     </g>
     <g id="text_14">
      <!-- −0.375 -->
      <g transform="translate(299.529134 145.653676) scale(0.08 -0.08)">
       <defs>
        <path id="ArialMT-37" d="M 303 3981 
L 303 4522 
L 3269 4522 
L 3269 4084 
Q 2831 3619 2401 2847 
Q 1972 2075 1738 1259 
Q 1569 684 1522 0 
L 944 0 
Q 953 541 1156 1306 
Q 1359 2072 1739 2783 
Q 2119 3494 2547 3981 
L 303 3981 
z
" transform="scale(0.015625)"/>
       </defs>
       <use xlink:href="#ArialMT-2212"/>
       <use xlink:href="#ArialMT-30" transform="translate(58.398438 0)"/>
       <use xlink:href="#ArialMT-2e" transform="translate(114.013672 0)"/>
       <use xlink:href="#ArialMT-33" transform="translate(141.796875 0)"/>
       <use xlink:href="#ArialMT-37" transform="translate(197.412109 0)"/>
       <use xlink:href="#ArialMT-35" transform="translate(253.027344 0)"/>
      </g>
     </g>
    </g>
    <g id="ytick_5">
     <g id="line2d_20">
      <g>
       <use xlink:href="#mcdec9b7c25" x="296.029134" y="125.152756" style="stroke: #000000; stroke-width: 0.3"/>
      </g>
     </g>
     <g id="text_15">
      <!-- −0.315 -->
      <g transform="translate(299.529134 128.015881) scale(0.08 -0.08)">
       <defs>
        <path id="ArialMT-31" d="M 2384 0 
L 1822 0 
L 1822 3584 
Q 1619 3391 1289 3197 
Q 959 3003 697 2906 
L 697 3450 
Q 1169 3672 1522 3987 
Q 1875 4303 2022 4600 
L 2384 4600 
L 2384 0 
z
" transform="scale(0.015625)"/>
       </defs>
       <use xlink:href="#ArialMT-2212"/>
       <use xlink:href="#ArialMT-30" transform="translate(58.398438 0)"/>
       <use xlink:href="#ArialMT-2e" transform="translate(114.013672 0)"/>
       <use xlink:href="#ArialMT-33" transform="translate(141.796875 0)"/>
       <use xlink:href="#ArialMT-31" transform="translate(197.412109 0)"/>
       <use xlink:href="#ArialMT-35" transform="translate(253.027344 0)"/>
      </g>
     </g>
    </g>
    <g id="ytick_6">
     <g id="line2d_21">
      <g>
       <use xlink:href="#mcdec9b7c25" x="296.029134" y="107.514961" style="stroke: #000000; stroke-width: 0.3"/>
      </g>
     </g>
     <g id="text_16">
      <!-- −0.255 -->
      <g transform="translate(299.529134 110.378086) scale(0.08 -0.08)">
       <defs>
        <path id="ArialMT-32" d="M 3222 541 
L 3222 0 
L 194 0 
Q 188 203 259 391 
Q 375 700 629 1000 
Q 884 1300 1366 1694 
Q 2113 2306 2375 2664 
Q 2638 3022 2638 3341 
Q 2638 3675 2398 3904 
Q 2159 4134 1775 4134 
Q 1369 4134 1125 3890 
Q 881 3647 878 3216 
L 300 3275 
Q 359 3922 746 4261 
Q 1134 4600 1788 4600 
Q 2447 4600 2831 4234 
Q 3216 3869 3216 3328 
Q 3216 3053 3103 2787 
Q 2991 2522 2730 2228 
Q 2469 1934 1863 1422 
Q 1356 997 1212 845 
Q 1069 694 975 541 
L 3222 541 
z
" transform="scale(0.015625)"/>
       </defs>
       <use xlink:href="#ArialMT-2212"/>
       <use xlink:href="#ArialMT-30" transform="translate(58.398438 0)"/>
       <use xlink:href="#ArialMT-2e" transform="translate(114.013672 0)"/>
       <use xlink:href="#ArialMT-32" transform="translate(141.796875 0)"/>
       <use xlink:href="#ArialMT-35" transform="translate(197.412109 0)"/>
       <use xlink:href="#ArialMT-35" transform="translate(253.027344 0)"/>
      </g>
     </g>
    </g>
    <g id="ytick_7">
     <g id="line2d_22">
      <g>
       <use xlink:href="#mcdec9b7c25" x="296.029134" y="89.877165" style="stroke: #000000; stroke-width: 0.3"/>
      </g>
     </g>
     <g id="text_17">
      <!-- −0.195 -->
      <g transform="translate(299.529134 92.74029) scale(0.08 -0.08)">
       <use xlink:href="#ArialMT-2212"/>
       <use xlink:href="#ArialMT-30" transform="translate(58.398438 0)"/>
       <use xlink:href="#ArialMT-2e" transform="translate(114.013672 0)"/>
       <use xlink:href="#ArialMT-31" transform="translate(141.796875 0)"/>
       <use xlink:href="#ArialMT-39" transform="translate(197.412109 0)"/>
       <use xlink:href="#ArialMT-35" transform="translate(253.027344 0)"/>
      </g>
     </g>
    </g>
    <g id="ytick_8">
     <g id="line2d_23">
      <g>
       <use xlink:href="#mcdec9b7c25" x="296.029134" y="72.23937" style="stroke: #000000; stroke-width: 0.3"/>
      </g>
     </g>
     <g id="text_18">
      <!-- −0.135 -->
      <g transform="translate(299.529134 75.102495) scale(0.08 -0.08)">
       <use xlink:href="#ArialMT-2212"/>
       <use xlink:href="#ArialMT-30" transform="translate(58.398438 0)"/>
       <use xlink:href="#ArialMT-2e" transform="translate(114.013672 0)"/>
       <use xlink:href="#ArialMT-31" transform="translate(141.796875 0)"/>
       <use xlink:href="#ArialMT-33" transform="translate(197.412109 0)"/>
       <use xlink:href="#ArialMT-35" transform="translate(253.027344 0)"/>
      </g>
     </g>
    </g>
    <g id="ytick_9">
     <g id="line2d_24">
      <g>
       <use xlink:href="#mcdec9b7c25" x="296.029134" y="54.601575" style="stroke: #000000; stroke-width: 0.3"/>
      </g>
     </g>
     <g id="text_19">
      <!-- −0.075 -->
      <g transform="translate(299.529134 57.4647) scale(0.08 -0.08)">
       <use xlink:href="#ArialMT-2212"/>
       <use xlink:href="#ArialMT-30" transform="translate(58.398438 0)"/>
       <use xlink:href="#ArialMT-2e" transform="translate(114.013672 0)"/>
       <use xlink:href="#ArialMT-30" transform="translate(141.796875 0)"/>
       <use xlink:href="#ArialMT-37" transform="translate(197.412109 0)"/>
       <use xlink:href="#ArialMT-35" transform="translate(253.027344 0)"/>
      </g>
     </g>
    </g>
    <g id="ytick_10">
     <g id="line2d_25">
      <g>
       <use xlink:href="#mcdec9b7c25" x="296.029134" y="36.96378" style="stroke: #000000; stroke-width: 0.3"/>
      </g>
     </g>
     <g id="text_20">
      <!-- −0.015 -->
      <g transform="translate(299.529134 39.826905) scale(0.08 -0.08)">
       <use xlink:href="#ArialMT-2212"/>
       <use xlink:href="#ArialMT-30" transform="translate(58.398438 0)"/>
       <use xlink:href="#ArialMT-2e" transform="translate(114.013672 0)"/>
       <use xlink:href="#ArialMT-30" transform="translate(141.796875 0)"/>
       <use xlink:href="#ArialMT-31" transform="translate(197.412109 0)"/>
       <use xlink:href="#ArialMT-35" transform="translate(253.027344 0)"/>
      </g>
     </g>
    </g>
    <g id="text_21">
     <!-- Formation Energy (eV/atom) -->
     <g transform="translate(335.498821 179.408077) rotate(-90) scale(0.1 -0.1)">
      <defs>
       <path id="ArialMT-46" d="M 525 0 
L 525 4581 
L 3616 4581 
L 3616 4041 
L 1131 4041 
L 1131 2622 
L 3281 2622 
L 3281 2081 
L 1131 2081 
L 1131 0 
L 525 0 
z
" transform="scale(0.015625)"/>
       <path id="ArialMT-6f" d="M 213 1659 
Q 213 2581 725 3025 
Q 1153 3394 1769 3394 
Q 2453 3394 2887 2945 
Q 3322 2497 3322 1706 
Q 3322 1066 3130 698 
Q 2938 331 2570 128 
Q 2203 -75 1769 -75 
Q 1072 -75 642 372 
Q 213 819 213 1659 
z
M 791 1659 
Q 791 1022 1069 705 
Q 1347 388 1769 388 
Q 2188 388 2466 706 
Q 2744 1025 2744 1678 
Q 2744 2294 2464 2611 
Q 2184 2928 1769 2928 
Q 1347 2928 1069 2612 
Q 791 2297 791 1659 
z
" transform="scale(0.015625)"/>
       <path id="ArialMT-72" d="M 416 0 
L 416 3319 
L 922 3319 
L 922 2816 
Q 1116 3169 1280 3281 
Q 1444 3394 1641 3394 
Q 1925 3394 2219 3213 
L 2025 2691 
Q 1819 2813 1613 2813 
Q 1428 2813 1281 2702 
Q 1134 2591 1072 2394 
Q 978 2094 978 1738 
L 978 0 
L 416 0 
z
" transform="scale(0.015625)"/>
       <path id="ArialMT-6d" d="M 422 0 
L 422 3319 
L 925 3319 
L 925 2853 
Q 1081 3097 1340 3245 
Q 1600 3394 1931 3394 
Q 2300 3394 2536 3241 
Q 2772 3088 2869 2813 
Q 3263 3394 3894 3394 
Q 4388 3394 4653 3120 
Q 4919 2847 4919 2278 
L 4919 0 
L 4359 0 
L 4359 2091 
Q 4359 2428 4304 2576 
Q 4250 2725 4106 2815 
Q 3963 2906 3769 2906 
Q 3419 2906 3187 2673 
Q 2956 2441 2956 1928 
L 2956 0 
L 2394 0 
L 2394 2156 
Q 2394 2531 2256 2718 
Q 2119 2906 1806 2906 
Q 1569 2906 1367 2781 
Q 1166 2656 1075 2415 
Q 984 2175 984 1722 
L 984 0 
L 422 0 
z
" transform="scale(0.015625)"/>
       <path id="ArialMT-61" d="M 2588 409 
Q 2275 144 1986 34 
Q 1697 -75 1366 -75 
Q 819 -75 525 192 
Q 231 459 231 875 
Q 231 1119 342 1320 
Q 453 1522 633 1644 
Q 813 1766 1038 1828 
Q 1203 1872 1538 1913 
Q 2219 1994 2541 2106 
Q 2544 2222 2544 2253 
Q 2544 2597 2384 2738 
Q 2169 2928 1744 2928 
Q 1347 2928 1158 2789 
Q 969 2650 878 2297 
L 328 2372 
Q 403 2725 575 2942 
Q 747 3159 1072 3276 
Q 1397 3394 1825 3394 
Q 2250 3394 2515 3294 
Q 2781 3194 2906 3042 
Q 3031 2891 3081 2659 
Q 3109 2516 3109 2141 
L 3109 1391 
Q 3109 606 3145 398 
Q 3181 191 3288 0 
L 2700 0 
Q 2613 175 2588 409 
z
M 2541 1666 
Q 2234 1541 1622 1453 
Q 1275 1403 1131 1340 
Q 988 1278 909 1158 
Q 831 1038 831 891 
Q 831 666 1001 516 
Q 1172 366 1500 366 
Q 1825 366 2078 508 
Q 2331 650 2450 897 
Q 2541 1088 2541 1459 
L 2541 1666 
z
" transform="scale(0.015625)"/>
       <path id="ArialMT-74" d="M 1650 503 
L 1731 6 
Q 1494 -44 1306 -44 
Q 1000 -44 831 53 
Q 663 150 594 308 
Q 525 466 525 972 
L 525 2881 
L 113 2881 
L 113 3319 
L 525 3319 
L 525 4141 
L 1084 4478 
L 1084 3319 
L 1650 3319 
L 1650 2881 
L 1084 2881 
L 1084 941 
Q 1084 700 1114 631 
Q 1144 563 1211 522 
Q 1278 481 1403 481 
Q 1497 481 1650 503 
z
" transform="scale(0.015625)"/>
       <path id="ArialMT-69" d="M 425 3934 
L 425 4581 
L 988 4581 
L 988 3934 
L 425 3934 
z
M 425 0 
L 425 3319 
L 988 3319 
L 988 0 
L 425 0 
z
" transform="scale(0.015625)"/>
       <path id="ArialMT-6e" d="M 422 0 
L 422 3319 
L 928 3319 
L 928 2847 
Q 1294 3394 1984 3394 
Q 2284 3394 2536 3286 
Q 2788 3178 2913 3003 
Q 3038 2828 3088 2588 
Q 3119 2431 3119 2041 
L 3119 0 
L 2556 0 
L 2556 2019 
Q 2556 2363 2490 2533 
Q 2425 2703 2258 2804 
Q 2091 2906 1866 2906 
Q 1506 2906 1245 2678 
Q 984 2450 984 1813 
L 984 0 
L 422 0 
z
" transform="scale(0.015625)"/>
       <path id="ArialMT-20" transform="scale(0.015625)"/>
       <path id="ArialMT-45" d="M 506 0 
L 506 4581 
L 3819 4581 
L 3819 4041 
L 1113 4041 
L 1113 2638 
L 3647 2638 
L 3647 2100 
L 1113 2100 
L 1113 541 
L 3925 541 
L 3925 0 
L 506 0 
z
" transform="scale(0.015625)"/>
       <path id="ArialMT-65" d="M 2694 1069 
L 3275 997 
Q 3138 488 2766 206 
Q 2394 -75 1816 -75 
Q 1088 -75 661 373 
Q 234 822 234 1631 
Q 234 2469 665 2931 
Q 1097 3394 1784 3394 
Q 2450 3394 2872 2941 
Q 3294 2488 3294 1666 
Q 3294 1616 3291 1516 
L 816 1516 
Q 847 969 1125 678 
Q 1403 388 1819 388 
Q 2128 388 2347 550 
Q 2566 713 2694 1069 
z
M 847 1978 
L 2700 1978 
Q 2663 2397 2488 2606 
Q 2219 2931 1791 2931 
Q 1403 2931 1139 2672 
Q 875 2413 847 1978 
z
" transform="scale(0.015625)"/>
       <path id="ArialMT-67" d="M 319 -275 
L 866 -356 
Q 900 -609 1056 -725 
Q 1266 -881 1628 -881 
Q 2019 -881 2231 -725 
Q 2444 -569 2519 -288 
Q 2563 -116 2559 434 
Q 2191 0 1641 0 
Q 956 0 581 494 
Q 206 988 206 1678 
Q 206 2153 378 2554 
Q 550 2956 876 3175 
Q 1203 3394 1644 3394 
Q 2231 3394 2613 2919 
L 2613 3319 
L 3131 3319 
L 3131 450 
Q 3131 -325 2973 -648 
Q 2816 -972 2473 -1159 
Q 2131 -1347 1631 -1347 
Q 1038 -1347 672 -1080 
Q 306 -813 319 -275 
z
M 784 1719 
Q 784 1066 1043 766 
Q 1303 466 1694 466 
Q 2081 466 2343 764 
Q 2606 1063 2606 1700 
Q 2606 2309 2336 2618 
Q 2066 2928 1684 2928 
Q 1309 2928 1046 2623 
Q 784 2319 784 1719 
z
" transform="scale(0.015625)"/>
       <path id="ArialMT-79" d="M 397 -1278 
L 334 -750 
Q 519 -800 656 -800 
Q 844 -800 956 -737 
Q 1069 -675 1141 -563 
Q 1194 -478 1313 -144 
Q 1328 -97 1363 -6 
L 103 3319 
L 709 3319 
L 1400 1397 
Q 1534 1031 1641 628 
Q 1738 1016 1872 1384 
L 2581 3319 
L 3144 3319 
L 1881 -56 
Q 1678 -603 1566 -809 
Q 1416 -1088 1222 -1217 
Q 1028 -1347 759 -1347 
Q 597 -1347 397 -1278 
z
" transform="scale(0.015625)"/>
       <path id="ArialMT-28" d="M 1497 -1347 
Q 1031 -759 709 28 
Q 388 816 388 1659 
Q 388 2403 628 3084 
Q 909 3875 1497 4659 
L 1900 4659 
Q 1522 4009 1400 3731 
Q 1209 3300 1100 2831 
Q 966 2247 966 1656 
Q 966 153 1900 -1347 
L 1497 -1347 
z
" transform="scale(0.015625)"/>
       <path id="ArialMT-56" d="M 1803 0 
L 28 4581 
L 684 4581 
L 1875 1253 
Q 2019 853 2116 503 
Q 2222 878 2363 1253 
L 3600 4581 
L 4219 4581 
L 2425 0 
L 1803 0 
z
" transform="scale(0.015625)"/>
       <path id="ArialMT-2f" d="M 0 -78 
L 1328 4659 
L 1778 4659 
L 453 -78 
L 0 -78 
z
" transform="scale(0.015625)"/>
       <path id="ArialMT-29" d="M 791 -1347 
L 388 -1347 
Q 1322 153 1322 1656 
Q 1322 2244 1188 2822 
Q 1081 3291 891 3722 
Q 769 4003 388 4659 
L 791 4659 
Q 1378 3875 1659 3084 
Q 1900 2403 1900 1659 
Q 1900 816 1576 28 
Q 1253 -759 791 -1347 
z
" transform="scale(0.015625)"/>
      </defs>
      <use xlink:href="#ArialMT-46"/>
      <use xlink:href="#ArialMT-6f" transform="translate(61.083984 0)"/>
      <use xlink:href="#ArialMT-72" transform="translate(116.699219 0)"/>
      <use xlink:href="#ArialMT-6d" transform="translate(150 0)"/>
      <use xlink:href="#ArialMT-61" transform="translate(233.300781 0)"/>
      <use xlink:href="#ArialMT-74" transform="translate(288.916016 0)"/>
      <use xlink:href="#ArialMT-69" transform="translate(316.699219 0)"/>
      <use xlink:href="#ArialMT-6f" transform="translate(338.916016 0)"/>
      <use xlink:href="#ArialMT-6e" transform="translate(394.53125 0)"/>
      <use xlink:href="#ArialMT-20" transform="translate(450.146484 0)"/>
      <use xlink:href="#ArialMT-45" transform="translate(477.929688 0)"/>
      <use xlink:href="#ArialMT-6e" transform="translate(544.628906 0)"/>
      <use xlink:href="#ArialMT-65" transform="translate(600.244141 0)"/>
      <use xlink:href="#ArialMT-72" transform="translate(655.859375 0)"/>
      <use xlink:href="#ArialMT-67" transform="translate(689.160156 0)"/>
      <use xlink:href="#ArialMT-79" transform="translate(744.775391 0)"/>
      <use xlink:href="#ArialMT-20" transform="translate(794.775391 0)"/>
      <use xlink:href="#ArialMT-28" transform="translate(822.558594 0)"/>
      <use xlink:href="#ArialMT-65" transform="translate(855.859375 0)"/>
      <use xlink:href="#ArialMT-56" transform="translate(911.474609 0)"/>
      <use xlink:href="#ArialMT-2f" transform="translate(978.173828 0)"/>
      <use xlink:href="#ArialMT-61" transform="translate(1005.957031 0)"/>
      <use xlink:href="#ArialMT-74" transform="translate(1061.572266 0)"/>
      <use xlink:href="#ArialMT-6f" transform="translate(1089.355469 0)"/>
      <use xlink:href="#ArialMT-6d" transform="translate(1144.970703 0)"/>
      <use xlink:href="#ArialMT-29" transform="translate(1228.271484 0)"/>
     </g>
    </g>
   </g>
   <g id="LineCollection_1"/>
   <g id="patch_6">
    <path d="M 287.298425 195.703937 
L 291.66378 203.640945 
L 296.029134 195.703937 
L 296.029134 36.96378 
L 291.66378 29.026772 
L 287.298425 36.96378 
L 287.298425 195.703937 
z
" style="fill: none; stroke: #000000; stroke-width: 0.8; stroke-linejoin: miter; stroke-linecap: square"/>
   </g>
  </g>
 </g>
 <defs>
  <clipPath id="p881992ade7">
   <rect x="7.2" y="7.2" width="263.622047" height="218.267717"/>
  </clipPath>
  <clipPath id="p5856514122">
   <rect x="287.298425" y="36.96378" width="8.730709" height="158.740157"/>
  </clipPath>
 </defs>
</svg>
