<?xml version="1.0" encoding="utf-8" standalone="no"?>
<!DOCTYPE svg PUBLIC "-//W3C//DTD SVG 1.1//EN"
  "http://www.w3.org/Graphics/SVG/1.1/DTD/svg11.dtd">
<svg xmlns:xlink="http://www.w3.org/1999/xlink" width="344.803509pt" height="232.667717pt" viewBox="0 0 344.803509 232.667717" xmlns="http://www.w3.org/2000/svg" version="1.1">
 <metadata>
  <rdf:RDF xmlns:dc="http://purl.org/dc/elements/1.1/" xmlns:cc="http://creativecommons.org/ns#" xmlns:rdf="http://www.w3.org/1999/02/22-rdf-syntax-ns#">
   <cc:Work>
    <dc:type rdf:resource="http://purl.org/dc/dcmitype/StillImage"/>
    <dc:date>2026-01-27T21:37:24.834702</dc:date>
    <dc:format>image/svg+xml</dc:format>
    <dc:creator>
     <cc:Agent>
      <dc:title>Matplotlib v3.10.8, https://matplotlib.org/</dc:title>
     </cc:Agent>
    </dc:creator>
   </cc:Work>
  </rdf:RDF>
 </metadata>
 <defs>
  <style type="text/css">*{stroke-linejoin: round; stroke-linecap: butt}</style>
 </defs>
 <g id="figure_1">
  <g id="patch_1">
   <path d="M 0 232.667717 
L 344.803509 232.667717 
L 344.803509 0 
L 0 0 
L 0 232.667717 
z
" style="fill: none"/>
  </g>
  <g id="axes_1">
   <g id="patch_2">
    <path d="M 7.2 225.467717 
L 270.822047 225.467717 
L 270.822047 7.2 
L 7.2 7.2 
L 7.2 225.467717 
z
" style="fill: none"/>
   </g>
   <g id="TriContourSet_1">
    <path d="M 166.851727 130.574761 
L 170.625601 129.150021 
L 172.407854 126.01738 
L 168.027551 120.857478 
L 157.96755 127.997739 
z
" clip-path="url(#p97cd7a739b)" style="fill: #440154; fill-opacity: 0.7"/>
    <path d="M 157.96755 127.997739 
L 168.027551 120.857478 
L 172.407854 126.01738 
L 170.625601 129.150021 
L 166.851727 130.574761 
z
M 167.052929 134.066052 
L 174.864815 131.116855 
L 178.554064 124.632314 
L 169.486874 113.951362 
L 148.662761 128.73164 
z
" clip-path="url(#p97cd7a739b)" style="fill: #450457; fill-opacity: 0.7"/>
    <path d="M 148.662761 128.73164 
L 169.486874 113.951362 
L 178.554064 124.632314 
L 174.864815 131.116855 
L 167.052929 134.066052 
z
M 167.254131 137.557344 
L 179.10403 133.083688 
L 184.700274 123.247248 
L 170.946197 107.045247 
L 139.357972 129.465541 
z
" clip-path="url(#p97cd7a739b)" style="fill: #470d60; fill-opacity: 0.7"/>
    <path d="M 139.357972 129.465541 
L 170.946197 107.045247 
L 184.700274 123.247248 
L 179.10403 133.083688 
L 167.254131 137.557344 
z
M 167.455333 141.048636 
L 183.343244 135.050521 
L 190.846483 121.862182 
L 172.40552 100.139131 
L 130.053183 130.199443 
z
" clip-path="url(#p97cd7a739b)" style="fill: #481467; fill-opacity: 0.7"/>
    <path d="M 130.053183 130.199443 
L 172.40552 100.139131 
L 190.846483 121.862182 
L 183.343244 135.050521 
L 167.455333 141.048636 
z
M 167.656535 144.539928 
L 187.582459 137.017354 
L 196.992693 120.477116 
L 173.864843 93.233016 
L 139.643998 117.521859 
L 129.77755 125.096107 
L 124.752903 129.054111 
L 124.112124 131.042996 
L 124.231748 131.716165 
L 128.960758 133.315494 
z
" clip-path="url(#p97cd7a739b)" style="fill: #481c6e; fill-opacity: 0.7"/>
    <path d="M 184.123009 96.691745 
L 175.324167 86.3269 
L 165.869915 93.037221 
L 137.450905 114.853849 
L 122.978067 126.254362 
L 121.132389 131.983085 
L 121.476949 133.92206 
L 135.098243 138.528716 
L 167.857737 148.03122 
L 191.821673 138.984188 
L 200.86114 123.095642 
L 198.925125 120.041637 
z
M 128.960758 133.315494 
L 124.231748 131.716165 
L 124.112124 131.042996 
L 124.752903 129.054111 
L 129.77755 125.096107 
L 139.643998 117.521859 
L 173.864843 93.233016 
L 196.992693 120.477116 
L 187.582459 137.017354 
L 167.656535 144.539928 
z
" clip-path="url(#p97cd7a739b)" style="fill: #482475; fill-opacity: 0.7"/>
    <path d="M 200.86114 123.095642 
L 191.821673 138.984188 
L 167.857737 148.03122 
L 135.098243 138.528716 
L 121.476949 133.92206 
L 121.132389 131.983085 
L 122.978067 126.254362 
L 137.450905 114.853849 
L 165.869915 93.037221 
L 175.324167 86.3269 
L 184.123009 96.691745 
L 175.88124 83.690601 
L 174.734001 81.880866 
L 145.12426 104.611591 
L 121.203232 123.454613 
L 118.152653 132.923174 
L 118.722151 136.127954 
L 141.235727 143.741937 
L 168.058939 151.522512 
L 196.060887 140.951021 
L 203.685008 127.55021 
z
" clip-path="url(#p97cd7a739b)" style="fill: #472a7a; fill-opacity: 0.7"/>
    <path d="M 203.685008 127.55021 
L 196.060887 140.951021 
L 168.058939 151.522512 
L 141.235727 143.741937 
L 118.722151 136.127954 
L 118.152653 132.923174 
L 121.203232 123.454613 
L 145.12426 104.611591 
L 174.734001 81.880866 
L 172.878425 78.953751 
L 152.797615 94.369333 
L 119.428397 120.654864 
L 115.172918 133.863262 
L 115.967352 138.333848 
L 147.373212 148.955159 
L 168.260141 155.013804 
L 200.300102 142.917854 
L 206.508877 132.004777 
z
" clip-path="url(#p97cd7a739b)" style="fill: #46327e; fill-opacity: 0.7"/>
    <path d="M 206.508877 132.004777 
L 200.300102 142.917854 
L 168.260141 155.013804 
L 147.373212 148.955159 
L 115.967352 138.333848 
L 115.172918 133.863262 
L 119.428397 120.654864 
L 152.797615 94.369333 
L 172.878425 78.953751 
L 171.02285 76.026636 
L 160.47097 84.127075 
L 117.653562 117.855114 
L 112.193183 134.803351 
L 113.212554 140.539743 
L 153.510697 154.168381 
L 168.461343 158.505095 
L 204.539316 144.884688 
L 209.332745 136.459344 
z
" clip-path="url(#p97cd7a739b)" style="fill: #453882; fill-opacity: 0.7"/>
    <path d="M 209.332745 136.459344 
L 204.539316 144.884688 
L 168.461343 158.505095 
L 153.510697 154.168381 
L 113.212554 140.539743 
L 112.193183 134.803351 
L 117.653562 117.855114 
L 160.47097 84.127075 
L 171.02285 76.026636 
L 169.167274 73.099522 
L 168.144324 73.884817 
L 115.878726 115.055365 
L 109.213447 135.743439 
L 110.457755 142.745637 
L 159.648181 159.381602 
L 168.662545 161.996387 
L 208.778531 146.851521 
L 212.156613 140.913912 
z
" clip-path="url(#p97cd7a739b)" style="fill: #423f85; fill-opacity: 0.7"/>
    <path d="M 212.156613 140.913912 
L 208.778531 146.851521 
L 168.662545 161.996387 
L 159.648181 159.381602 
L 110.457755 142.745637 
L 109.213447 135.743439 
L 115.878726 115.055365 
L 168.144324 73.884817 
L 169.167274 73.099522 
L 168.968074 72.78529 
L 168.262368 71.672059 
L 162.304833 74.286871 
L 114.103891 112.255616 
L 106.233712 136.683528 
L 107.702957 144.951531 
L 165.785666 164.594824 
L 168.863747 165.487679 
L 213.017745 148.818354 
L 214.980482 145.368479 
z
" clip-path="url(#p97cd7a739b)" style="fill: #404588; fill-opacity: 0.7"/>
    <path d="M 214.980482 145.368479 
L 213.017745 148.818354 
L 168.863747 165.487679 
L 165.785666 164.594824 
L 107.702957 144.951531 
L 106.233712 136.683528 
L 114.103891 112.255616 
L 162.304833 74.286871 
L 168.262368 71.672059 
L 167.471791 70.424948 
L 154.840253 75.969035 
L 112.329056 109.455867 
L 103.253977 137.623617 
L 104.948158 147.157426 
L 166.669047 168.031133 
L 168.183823 168.030165 
L 169.117898 168.007013 
L 170.154188 167.92167 
L 196.655927 158.562633 
L 217.256959 150.785188 
L 217.80435 149.823047 
z
" clip-path="url(#p97cd7a739b)" style="fill: #3e4c8a; fill-opacity: 0.7"/>
    <path d="M 217.80435 149.823047 
L 217.256959 150.785188 
L 196.655927 158.562633 
L 170.154188 167.92167 
L 169.117898 168.007013 
L 168.183823 168.030165 
L 166.669047 168.031133 
L 104.948158 147.157426 
L 103.253977 137.623617 
L 112.329056 109.455867 
L 154.840253 75.969035 
L 167.471791 70.424948 
L 166.681214 69.177836 
L 147.375674 77.651199 
L 110.554221 106.656117 
L 100.274241 138.563705 
L 102.19336 149.36332 
L 161.89413 169.553833 
L 166.554987 169.550854 
L 169.429072 169.479615 
L 172.617661 169.217021 
L 219.584291 152.630849 
L 218.896492 151.545868 
z
" clip-path="url(#p97cd7a739b)" style="fill: #3b518b; fill-opacity: 0.7"/>
    <path d="M 219.584291 152.630849 
L 172.617661 169.217021 
L 169.429072 169.479615 
L 166.554987 169.550854 
L 161.89413 169.553833 
L 102.19336 149.36332 
L 100.274241 138.563705 
L 110.554221 106.656117 
L 147.375674 77.651199 
L 166.681214 69.177836 
L 165.890637 67.930725 
L 139.911094 79.333363 
L 108.779385 103.856368 
L 97.294506 139.503794 
L 99.438561 151.569214 
L 157.119212 171.076533 
L 164.926151 171.071542 
L 169.740246 170.952218 
L 175.081134 170.512373 
L 220.70586 154.400091 
z
" clip-path="url(#p97cd7a739b)" style="fill: #38588c; fill-opacity: 0.7"/>
    <path d="M 220.70586 154.400091 
L 175.081134 170.512373 
L 169.740246 170.952218 
L 164.926151 171.071542 
L 157.119212 171.076533 
L 99.438561 151.569214 
L 97.294506 139.503794 
L 108.779385 103.856368 
L 139.911094 79.333363 
L 165.890637 67.930725 
L 165.10006 66.683614 
L 132.446515 81.015528 
L 107.00455 101.056619 
L 94.314771 140.443882 
L 96.683763 153.775109 
L 152.344295 172.599233 
L 163.297315 172.592231 
L 170.05142 172.424821 
L 177.544608 171.807725 
L 221.82743 156.169334 
z
" clip-path="url(#p97cd7a739b)" style="fill: #355e8d; fill-opacity: 0.7"/>
    <path d="M 221.82743 156.169334 
L 177.544608 171.807725 
L 170.05142 172.424821 
L 163.297315 172.592231 
L 152.344295 172.599233 
L 96.683763 153.775109 
L 94.314771 140.443882 
L 107.00455 101.056619 
L 132.446515 81.015528 
L 165.10006 66.683614 
L 164.309483 65.436503 
L 124.981935 82.697692 
L 105.229715 98.25687 
L 91.335035 141.383971 
L 93.928964 155.981003 
L 147.569378 174.121933 
L 161.66848 174.11292 
L 170.362594 173.897424 
L 180.008081 173.103077 
L 222.948999 157.938576 
z
" clip-path="url(#p97cd7a739b)" style="fill: #33638d; fill-opacity: 0.7"/>
    <path d="M 222.948999 157.938576 
L 180.008081 173.103077 
L 170.362594 173.897424 
L 161.66848 174.11292 
L 147.569378 174.121933 
L 93.928964 155.981003 
L 91.335035 141.383971 
L 105.229715 98.25687 
L 124.981935 82.697692 
L 164.309483 65.436503 
L 163.518906 64.189391 
L 117.517356 84.379856 
L 103.45488 95.45712 
L 88.3553 142.324059 
L 91.174166 158.186897 
L 142.79446 175.644633 
L 160.039644 175.633608 
L 170.673768 175.370027 
L 182.471554 174.398428 
L 224.070569 159.707818 
z
" clip-path="url(#p97cd7a739b)" style="fill: #30698e; fill-opacity: 0.7"/>
    <path d="M 224.070569 159.707818 
L 182.471554 174.398428 
L 170.673768 175.370027 
L 160.039644 175.633608 
L 142.79446 175.644633 
L 91.174166 158.186897 
L 88.3553 142.324059 
L 103.45488 95.45712 
L 117.517356 84.379856 
L 163.518906 64.189391 
L 162.72833 62.94228 
L 110.052776 86.06202 
L 101.680044 92.657371 
L 85.375565 143.264148 
L 88.419367 160.392792 
L 138.019543 177.167332 
L 158.410808 177.154297 
L 170.984942 176.84263 
L 184.935027 175.69378 
L 225.192139 161.477061 
z
" clip-path="url(#p97cd7a739b)" style="fill: #2e6e8e; fill-opacity: 0.7"/>
    <path d="M 225.192139 161.477061 
L 184.935027 175.69378 
L 170.984942 176.84263 
L 158.410808 177.154297 
L 138.019543 177.167332 
L 88.419367 160.392792 
L 85.375565 143.264148 
L 101.680044 92.657371 
L 110.052776 86.06202 
L 162.72833 62.94228 
L 161.937753 61.695169 
L 102.588197 87.744185 
L 99.905209 89.857622 
L 82.395829 144.204237 
L 85.664569 162.598686 
L 133.244626 178.690032 
L 156.781972 178.674986 
L 171.296116 178.315232 
L 187.398501 176.989132 
L 226.313708 163.246303 
z
" clip-path="url(#p97cd7a739b)" style="fill: #2c738e; fill-opacity: 0.7"/>
    <path d="M 226.313708 163.246303 
L 187.398501 176.989132 
L 171.296116 178.315232 
L 156.781972 178.674986 
L 133.244626 178.690032 
L 85.664569 162.598686 
L 82.395829 144.204237 
L 99.905209 89.857622 
L 102.588197 87.744185 
L 161.937753 61.695169 
L 161.147176 60.448058 
L 99.808176 87.370257 
L 99.068289 88.537406 
L 96.191766 93.075034 
L 79.416094 145.144325 
L 82.90977 164.80458 
L 128.469708 180.212732 
L 155.153136 180.195674 
L 171.60729 179.787835 
L 189.861974 178.284483 
L 227.435278 165.015545 
z
" clip-path="url(#p97cd7a739b)" style="fill: #2a788e; fill-opacity: 0.7"/>
    <path d="M 227.435278 165.015545 
L 189.861974 178.284483 
L 171.60729 179.787835 
L 155.153136 180.195674 
L 128.469708 180.212732 
L 82.90977 164.80458 
L 79.416094 145.144325 
L 96.191766 93.075034 
L 90.748466 101.661677 
L 76.436359 146.084414 
L 80.154972 167.010475 
L 123.694791 181.735432 
L 153.524301 181.716363 
L 171.918464 181.260438 
L 192.325447 179.579835 
L 228.556847 166.784788 
z
M 160.356599 59.200947 
L 101.208277 85.161639 
L 99.808176 87.370257 
L 161.147176 60.448058 
z
" clip-path="url(#p97cd7a739b)" style="fill: #277e8e; fill-opacity: 0.7"/>
    <path d="M 228.556847 166.784788 
L 192.325447 179.579835 
L 171.918464 181.260438 
L 153.524301 181.716363 
L 123.694791 181.735432 
L 80.154972 167.010475 
L 76.436359 146.084414 
L 90.748466 101.661677 
L 85.305165 110.24832 
L 73.456623 147.024502 
L 77.400173 169.216369 
L 118.919873 183.258132 
L 151.895465 183.237052 
L 172.229638 182.733041 
L 194.788921 180.875187 
L 229.678417 168.55403 
z
M 159.566022 57.953835 
L 102.608379 82.95302 
L 101.208277 85.161639 
L 160.356599 59.200947 
z
" clip-path="url(#p97cd7a739b)" style="fill: #25838e; fill-opacity: 0.7"/>
    <path d="M 229.678417 168.55403 
L 194.788921 180.875187 
L 172.229638 182.733041 
L 151.895465 183.237052 
L 118.919873 183.258132 
L 77.400173 169.216369 
L 73.456623 147.024502 
L 85.305165 110.24832 
L 79.861865 118.834963 
L 70.476888 147.964591 
L 74.645374 171.422263 
L 114.144956 184.780832 
L 150.266629 184.75774 
L 172.540812 184.205644 
L 197.252394 182.170538 
L 230.799987 170.323272 
z
M 158.775445 56.706724 
L 104.008481 80.744402 
L 102.608379 82.95302 
L 159.566022 57.953835 
z
" clip-path="url(#p97cd7a739b)" style="fill: #23888e; fill-opacity: 0.7"/>
    <path d="M 230.799987 170.323272 
L 197.252394 182.170538 
L 172.540812 184.205644 
L 150.266629 184.75774 
L 114.144956 184.780832 
L 74.645374 171.422263 
L 70.476888 147.964591 
L 79.861865 118.834963 
L 74.418564 127.421605 
L 67.497153 148.90468 
L 71.890576 173.628158 
L 109.370039 186.303532 
L 148.637793 186.278429 
L 172.851986 185.678246 
L 199.715867 183.46589 
L 231.921556 172.092515 
z
M 157.984868 55.459613 
L 105.408583 78.535784 
L 104.008481 80.744402 
L 158.775445 56.706724 
z
" clip-path="url(#p97cd7a739b)" style="fill: #218e8d; fill-opacity: 0.7"/>
    <path d="M 231.921556 172.092515 
L 199.715867 183.46589 
L 172.851986 185.678246 
L 148.637793 186.278429 
L 109.370039 186.303532 
L 71.890576 173.628158 
L 67.497153 148.90468 
L 74.418564 127.421605 
L 68.975264 136.008248 
L 64.517417 149.844768 
L 69.135777 175.834052 
L 104.595121 187.826231 
L 147.008958 187.799117 
L 173.16316 187.150849 
L 202.179341 184.761242 
L 233.043126 173.861757 
z
M 157.194291 54.212502 
L 106.808684 76.327165 
L 105.408583 78.535784 
L 157.984868 55.459613 
z
" clip-path="url(#p97cd7a739b)" style="fill: #20928c; fill-opacity: 0.7"/>
    <path d="M 233.043126 173.861757 
L 202.179341 184.761242 
L 173.16316 187.150849 
L 147.008958 187.799117 
L 104.595121 187.826231 
L 69.135777 175.834052 
L 64.517417 149.844768 
L 68.975264 136.008248 
L 63.531964 144.594891 
L 61.537682 150.784857 
L 66.380979 178.039946 
L 99.820204 189.348931 
L 145.380122 189.319806 
L 173.474334 188.623452 
L 204.642814 186.056593 
L 234.164695 175.630999 
z
M 156.403715 52.96539 
L 108.208786 74.118547 
L 106.808684 76.327165 
L 157.194291 54.212502 
z
" clip-path="url(#p97cd7a739b)" style="fill: #1f988b; fill-opacity: 0.7"/>
    <path d="M 234.164695 175.630999 
L 204.642814 186.056593 
L 173.474334 188.623452 
L 145.380122 189.319806 
L 99.820204 189.348931 
L 66.380979 178.039946 
L 61.537682 150.784857 
L 63.531964 144.594891 
L 59.125555 151.545868 
L 58.766494 152.112276 
L 58.661599 152.308239 
L 63.62618 180.245841 
L 95.045286 190.871631 
L 143.751286 190.840495 
L 173.785508 190.096055 
L 207.106287 187.351945 
L 235.286265 177.400242 
z
M 155.613138 51.718279 
L 109.608888 71.909929 
L 108.208786 74.118547 
L 156.403715 52.96539 
z
" clip-path="url(#p97cd7a739b)" style="fill: #1e9d89; fill-opacity: 0.7"/>
    <path d="M 235.286265 177.400242 
L 207.106287 187.351945 
L 173.785508 190.096055 
L 143.751286 190.840495 
L 95.045286 190.871631 
L 63.62618 180.245841 
L 58.661599 152.308239 
L 58.766494 152.112276 
L 56.881557 155.085707 
L 56.226003 156.310406 
L 60.871382 182.451735 
L 90.270369 192.394331 
L 142.12245 192.361183 
L 174.096682 191.568658 
L 209.569761 188.647297 
L 236.407835 179.169484 
z
M 154.822561 50.471168 
L 111.008989 69.70131 
L 109.608888 71.909929 
L 155.613138 51.718279 
z
" clip-path="url(#p97cd7a739b)" style="fill: #1fa287; fill-opacity: 0.7"/>
    <path d="M 236.407835 179.169484 
L 209.569761 188.647297 
L 174.096682 191.568658 
L 142.12245 192.361183 
L 90.270369 192.394331 
L 60.871382 182.451735 
L 56.226003 156.310406 
L 56.881557 155.085707 
L 54.99662 158.059138 
L 53.790406 160.312573 
L 58.116583 184.657629 
L 85.495452 193.917031 
L 140.493615 193.881872 
L 174.407856 193.04126 
L 212.033234 189.942649 
L 237.529404 180.938726 
z
M 154.031984 49.224057 
L 112.409091 67.492692 
L 111.008989 69.70131 
L 154.822561 50.471168 
z
" clip-path="url(#p97cd7a739b)" style="fill: #22a884; fill-opacity: 0.7"/>
    <path d="M 237.529404 180.938726 
L 212.033234 189.942649 
L 174.407856 193.04126 
L 140.493615 193.881872 
L 85.495452 193.917031 
L 58.116583 184.657629 
L 53.790406 160.312573 
L 54.99662 158.059138 
L 53.111684 161.032569 
L 51.35481 164.314739 
L 55.361785 186.863524 
L 80.720534 195.439731 
L 138.864779 195.402561 
L 174.71903 194.513863 
L 214.496707 191.238 
L 238.650974 182.707969 
z
M 153.241407 47.976945 
L 113.809193 65.284074 
L 112.409091 67.492692 
L 154.031984 49.224057 
z
" clip-path="url(#p97cd7a739b)" style="fill: #26ad81; fill-opacity: 0.7"/>
    <path d="M 238.650974 182.707969 
L 214.496707 191.238 
L 174.71903 194.513863 
L 138.864779 195.402561 
L 80.720534 195.439731 
L 55.361785 186.863524 
L 51.35481 164.314739 
L 53.111684 161.032569 
L 51.226747 164.006 
L 48.919213 168.316906 
L 52.606986 189.069418 
L 75.945617 196.962431 
L 137.235943 196.923249 
L 175.030204 195.986466 
L 216.960181 192.533352 
L 239.772544 184.477211 
z
M 152.45083 46.729834 
L 115.209295 63.075455 
L 113.809193 65.284074 
L 153.241407 47.976945 
z
" clip-path="url(#p97cd7a739b)" style="fill: #2db27d; fill-opacity: 0.7"/>
    <path d="M 239.772544 184.477211 
L 216.960181 192.533352 
L 175.030204 195.986466 
L 137.235943 196.923249 
L 75.945617 196.962431 
L 52.606986 189.069418 
L 48.919213 168.316906 
L 51.226747 164.006 
L 49.34181 166.979432 
L 46.483617 172.319073 
L 49.852188 191.275312 
L 71.1707 198.48513 
L 135.607107 198.443938 
L 175.341378 197.459069 
L 219.423654 193.828704 
L 240.894113 186.246453 
z
M 151.660253 45.482723 
L 116.609396 60.866837 
L 115.209295 63.075455 
L 152.45083 46.729834 
z
" clip-path="url(#p97cd7a739b)" style="fill: #34b679; fill-opacity: 0.7"/>
    <path d="M 240.894113 186.246453 
L 219.423654 193.828704 
L 175.341378 197.459069 
L 135.607107 198.443938 
L 71.1707 198.48513 
L 49.852188 191.275312 
L 46.483617 172.319073 
L 49.34181 166.979432 
L 47.456873 169.952863 
L 44.048021 176.32124 
L 47.097389 193.481207 
L 66.395782 200.00783 
L 133.978272 199.964627 
L 175.652552 198.931672 
L 221.887127 195.124055 
L 242.015683 188.015696 
z
M 150.869677 44.235612 
L 118.009498 58.658219 
L 116.609396 60.866837 
L 151.660253 45.482723 
z
" clip-path="url(#p97cd7a739b)" style="fill: #3dbc74; fill-opacity: 0.7"/>
    <path d="M 242.015683 188.015696 
L 221.887127 195.124055 
L 175.652552 198.931672 
L 133.978272 199.964627 
L 66.395782 200.00783 
L 47.097389 193.481207 
L 44.048021 176.32124 
L 47.456873 169.952863 
L 45.571936 172.926294 
L 41.612424 180.323407 
L 44.342591 195.687101 
L 61.620865 201.53053 
L 132.349436 201.485315 
L 175.963726 200.404274 
L 224.350601 196.419407 
L 243.137252 189.784938 
z
M 150.0791 42.988501 
L 119.4096 56.4496 
L 118.009498 58.658219 
L 150.869677 44.235612 
z
" clip-path="url(#p97cd7a739b)" style="fill: #46c06f; fill-opacity: 0.7"/>
    <path d="M 243.137252 189.784938 
L 224.350601 196.419407 
L 175.963726 200.404274 
L 132.349436 201.485315 
L 61.620865 201.53053 
L 44.342591 195.687101 
L 41.612424 180.323407 
L 45.571936 172.926294 
L 43.686999 175.899725 
L 39.176828 184.325574 
L 41.587792 197.892995 
L 56.845947 203.05323 
L 130.7206 203.006004 
L 176.2749 201.876877 
L 226.814074 197.714759 
L 244.258822 191.55418 
z
M 149.288523 41.741389 
L 120.809701 54.240982 
L 119.4096 56.4496 
L 150.0791 42.988501 
z
" clip-path="url(#p97cd7a739b)" style="fill: #52c569; fill-opacity: 0.7"/>
    <path d="M 244.258822 191.55418 
L 226.814074 197.714759 
L 176.2749 201.876877 
L 130.7206 203.006004 
L 56.845947 203.05323 
L 41.587792 197.892995 
L 39.176828 184.325574 
L 43.686999 175.899725 
L 41.802062 178.873156 
L 36.741231 188.32774 
L 38.832994 200.09889 
L 52.07103 204.57593 
L 129.091764 204.526693 
L 176.586074 203.34948 
L 229.277547 199.01011 
L 245.380392 193.323423 
z
M 148.497946 40.494278 
L 122.209803 52.032364 
L 120.809701 54.240982 
L 149.288523 41.741389 
z
" clip-path="url(#p97cd7a739b)" style="fill: #5cc863; fill-opacity: 0.7"/>
    <path d="M 245.380392 193.323423 
L 229.277547 199.01011 
L 176.586074 203.34948 
L 129.091764 204.526693 
L 52.07103 204.57593 
L 38.832994 200.09889 
L 36.741231 188.32774 
L 41.802062 178.873156 
L 39.917126 181.846588 
L 34.305635 192.329907 
L 36.078195 202.304784 
L 47.296113 206.09863 
L 127.462928 206.047381 
L 176.897248 204.822083 
L 231.74102 200.305462 
L 246.501961 195.092665 
z
M 147.707369 39.247167 
L 123.609905 49.823745 
L 122.209803 52.032364 
L 148.497946 40.494278 
z
" clip-path="url(#p97cd7a739b)" style="fill: #69cd5b; fill-opacity: 0.7"/>
    <path d="M 246.501961 195.092665 
L 231.74102 200.305462 
L 176.897248 204.822083 
L 127.462928 206.047381 
L 47.296113 206.09863 
L 36.078195 202.304784 
L 34.305635 192.329907 
L 39.917126 181.846588 
L 38.032189 184.820019 
L 31.870038 196.332074 
L 33.323397 204.510678 
L 42.521195 207.621329 
L 125.834093 207.56807 
L 177.208422 206.294686 
L 234.204494 201.600814 
L 247.623531 196.861907 
z
M 146.916792 38.000056 
L 125.010007 47.615127 
L 123.609905 49.823745 
L 147.707369 39.247167 
z
" clip-path="url(#p97cd7a739b)" style="fill: #77d153; fill-opacity: 0.7"/>
    <path d="M 247.623531 196.861907 
L 234.204494 201.600814 
L 177.208422 206.294686 
L 125.834093 207.56807 
L 42.521195 207.621329 
L 33.323397 204.510678 
L 31.870038 196.332074 
L 38.032189 184.820019 
L 36.147252 187.79345 
L 29.434442 200.334241 
L 30.568598 206.716573 
L 37.746278 209.144029 
L 124.205257 209.088759 
L 177.519596 207.767288 
L 236.667967 202.896165 
L 248.7451 198.63115 
z
M 146.126215 36.752944 
L 126.410108 45.406508 
L 125.010007 47.615127 
L 146.916792 38.000056 
z
" clip-path="url(#p97cd7a739b)" style="fill: #84d44b; fill-opacity: 0.7"/>
    <path d="M 248.7451 198.63115 
L 236.667967 202.896165 
L 177.519596 207.767288 
L 124.205257 209.088759 
L 37.746278 209.144029 
L 30.568598 206.716573 
L 29.434442 200.334241 
L 36.147252 187.79345 
L 34.262315 190.766881 
L 26.998845 204.336408 
L 27.8138 208.922467 
L 32.97136 210.666729 
L 122.576421 210.609447 
L 177.83077 209.239891 
L 239.13144 204.191517 
L 249.86667 200.400392 
z
M 145.335639 35.505833 
L 127.81021 43.19789 
L 126.410108 45.406508 
L 146.126215 36.752944 
z
" clip-path="url(#p97cd7a739b)" style="fill: #93d741; fill-opacity: 0.7"/>
    <path d="M 249.86667 200.400392 
L 239.13144 204.191517 
L 177.83077 209.239891 
L 122.576421 210.609447 
L 32.97136 210.666729 
L 27.8138 208.922467 
L 26.998845 204.336408 
L 34.262315 190.766881 
L 32.377378 193.740312 
L 24.563249 208.338574 
L 25.059001 211.128361 
L 28.196443 212.189429 
L 120.947585 212.130136 
L 178.141944 210.712494 
L 241.594914 205.486869 
L 250.98824 202.169634 
z
M 144.545062 34.258722 
L 129.210312 40.989272 
L 127.81021 43.19789 
L 145.335639 35.505833 
z
" clip-path="url(#p97cd7a739b)" style="fill: #a0da39; fill-opacity: 0.7"/>
    <path d="M 250.98824 202.169634 
L 241.594914 205.486869 
L 178.141944 210.712494 
L 120.947585 212.130136 
L 28.196443 212.189429 
L 25.059001 211.128361 
L 24.563249 208.338574 
L 32.377378 193.740312 
L 30.492441 196.713744 
L 22.127653 212.340741 
L 22.304203 213.334256 
L 23.421526 213.712129 
L 119.31875 213.650824 
L 178.453118 212.185097 
L 244.058387 206.782221 
L 252.109809 203.938877 
z
M 143.754485 33.011611 
L 130.610413 38.780653 
L 129.210312 40.989272 
L 144.545062 34.258722 
z
" clip-path="url(#p97cd7a739b)" style="fill: #b0dd2f; fill-opacity: 0.7"/>
    <path d="M 252.109809 203.938877 
L 244.058387 206.782221 
L 178.453118 212.185097 
L 119.31875 213.650824 
L 23.421526 213.712129 
L 22.304203 213.334256 
L 22.127653 212.340741 
L 30.492441 196.713744 
L 28.607505 199.687175 
L 20.649442 214.554331 
L 20.78053 214.554331 
L 118.350989 214.554331 
L 142.589964 214.554331 
L 178.764292 213.6577 
L 246.52186 208.077572 
L 253.231379 205.708119 
z
M 142.963908 31.7645 
L 132.010515 36.572035 
L 130.610413 38.780653 
L 143.754485 33.011611 
z
" clip-path="url(#p97cd7a739b)" style="fill: #bddf26; fill-opacity: 0.7"/>
    <path d="M 253.231379 205.708119 
L 246.52186 208.077572 
L 178.764292 213.6577 
L 142.589964 214.554331 
L 178.953758 214.554331 
L 186.069293 214.554331 
L 248.985334 209.372924 
L 254.352948 207.477361 
z
M 142.173331 30.517388 
L 133.410617 34.363417 
L 132.010515 36.572035 
L 142.963908 31.7645 
z
M 26.722568 202.660606 
L 20.356118 214.554331 
L 20.649442 214.554331 
L 28.607505 199.687175 
z
" clip-path="url(#p97cd7a739b)" style="fill: #cde11d; fill-opacity: 0.7"/>
    <path d="M 254.352948 207.477361 
L 248.985334 209.372924 
L 186.069293 214.554331 
L 204.261777 214.554331 
L 251.448807 210.668276 
L 255.474518 209.246604 
z
M 141.382754 29.270277 
L 134.810718 32.154798 
L 133.410617 34.363417 
L 142.173331 30.517388 
z
M 24.837631 205.634037 
L 20.062794 214.554331 
L 20.356118 214.554331 
L 26.722568 202.660606 
z
" clip-path="url(#p97cd7a739b)" style="fill: #dde318; fill-opacity: 0.7"/>
    <path d="M 255.474518 209.246604 
L 251.448807 210.668276 
L 204.261777 214.554331 
L 222.45426 214.554331 
L 253.91228 211.963627 
L 256.596088 211.015846 
z
M 140.592177 28.023166 
L 136.21082 29.94618 
L 134.810718 32.154798 
L 141.382754 29.270277 
z
M 22.952694 208.607468 
L 19.769469 214.554331 
L 20.062794 214.554331 
L 24.837631 205.634037 
z
" clip-path="url(#p97cd7a739b)" style="fill: #eae51a; fill-opacity: 0.7"/>
    <path d="M 256.596088 211.015846 
L 253.91228 211.963627 
L 222.45426 214.554331 
L 240.646743 214.554331 
L 256.375754 213.258979 
L 257.717657 212.785088 
z
M 139.8016 26.776055 
L 137.610922 27.737562 
L 136.21082 29.94618 
L 140.592177 28.023166 
z
M 21.067757 211.5809 
L 19.476145 214.554331 
L 19.769469 214.554331 
L 22.952694 208.607468 
z
" clip-path="url(#p97cd7a739b)" style="fill: #f8e621; fill-opacity: 0.7"/>
    <path d="M 257.717657 212.785088 
L 256.375754 213.258979 
L 240.646743 214.554331 
L 258.839227 214.554331 
z
M 137.610922 27.737562 
L 139.8016 26.776055 
L 139.011024 25.528943 
z
M 19.476145 214.554331 
L 21.067757 211.5809 
L 19.18282 214.554331 
z
" clip-path="url(#p97cd7a739b)" style="fill: #fde725; fill-opacity: 0.7"/>
   </g>
   <g id="matplotlib.axis_1"/>
   <g id="matplotlib.axis_2"/>
   <g id="line2d_1">
    <path d="M 168.968074 167.297984 
L 125.696779 130.543047 
" clip-path="url(#p97cd7a739b)" style="fill: none; stroke: #555555; stroke-opacity: 0.9; stroke-width: 0.5; stroke-linecap: square"/>
   </g>
   <g id="line2d_2">
    <path d="M 175.88124 83.690601 
L 166.663686 127.311844 
" clip-path="url(#p97cd7a739b)" style="fill: none; stroke: #555555; stroke-opacity: 0.9; stroke-width: 0.5; stroke-linecap: square"/>
   </g>
   <g id="line2d_3">
    <path d="M 175.88124 83.690601 
L 125.696779 130.543047 
" clip-path="url(#p97cd7a739b)" style="fill: none; stroke: #555555; stroke-opacity: 0.9; stroke-width: 0.5; stroke-linecap: square"/>
   </g>
   <g id="line2d_4">
    <path d="M 168.968074 167.297984 
L 258.839227 214.554331 
" clip-path="url(#p97cd7a739b)" style="fill: none; stroke: #555555; stroke-opacity: 0.9; stroke-width: 0.5; stroke-linecap: square"/>
   </g>
   <g id="line2d_5">
    <path d="M 125.696779 130.543047 
L 20.78053 214.554331 
" clip-path="url(#p97cd7a739b)" style="fill: none; stroke: #555555; stroke-opacity: 0.9; stroke-width: 0.5; stroke-linecap: square"/>
   </g>
   <g id="line2d_6">
    <path d="M 178.953758 214.554331 
L 118.350989 214.554331 
" clip-path="url(#p97cd7a739b)" style="fill: none; stroke: #555555; stroke-opacity: 0.9; stroke-width: 0.5; stroke-linecap: square"/>
   </g>
   <g id="line2d_7">
    <path d="M 59.125555 151.545868 
L 125.696779 130.543047 
" clip-path="url(#p97cd7a739b)" style="fill: none; stroke: #555555; stroke-opacity: 0.9; stroke-width: 0.5; stroke-linecap: square"/>
   </g>
   <g id="line2d_8">
    <path d="M 168.968074 72.78529 
L 175.88124 83.690601 
" clip-path="url(#p97cd7a739b)" style="fill: none; stroke: #555555; stroke-opacity: 0.9; stroke-width: 0.5; stroke-linecap: square"/>
   </g>
   <g id="line2d_9">
    <path d="M 99.068289 88.537406 
L 59.125555 151.545868 
" clip-path="url(#p97cd7a739b)" style="fill: none; stroke: #555555; stroke-opacity: 0.9; stroke-width: 0.5; stroke-linecap: square"/>
   </g>
   <g id="line2d_10">
    <path d="M 168.968074 72.78529 
L 99.068289 88.537406 
" clip-path="url(#p97cd7a739b)" style="fill: none; stroke: #555555; stroke-opacity: 0.9; stroke-width: 0.5; stroke-linecap: square"/>
   </g>
   <g id="line2d_11">
    <path d="M 99.068289 88.537406 
L 139.011024 25.528943 
" clip-path="url(#p97cd7a739b)" style="fill: none; stroke: #555555; stroke-opacity: 0.9; stroke-width: 0.5; stroke-linecap: square"/>
   </g>
   <g id="line2d_12">
    <path d="M 168.968074 72.78529 
L 125.696779 130.543047 
" clip-path="url(#p97cd7a739b)" style="fill: none; stroke: #555555; stroke-opacity: 0.9; stroke-width: 0.5; stroke-linecap: square"/>
   </g>
   <g id="line2d_13">
    <path d="M 118.350989 214.554331 
L 20.78053 214.554331 
" clip-path="url(#p97cd7a739b)" style="fill: none; stroke: #555555; stroke-opacity: 0.9; stroke-width: 0.5; stroke-linecap: square"/>
   </g>
   <g id="line2d_14">
    <path d="M 218.896492 151.545868 
L 166.663686 127.311844 
" clip-path="url(#p97cd7a739b)" style="fill: none; stroke: #555555; stroke-opacity: 0.9; stroke-width: 0.5; stroke-linecap: square"/>
   </g>
   <g id="line2d_15">
    <path d="M 218.896492 151.545868 
L 168.968074 167.297984 
" clip-path="url(#p97cd7a739b)" style="fill: none; stroke: #555555; stroke-opacity: 0.9; stroke-width: 0.5; stroke-linecap: square"/>
   </g>
   <g id="line2d_16">
    <path d="M 178.953758 214.554331 
L 168.968074 167.297984 
" clip-path="url(#p97cd7a739b)" style="fill: none; stroke: #555555; stroke-opacity: 0.9; stroke-width: 0.5; stroke-linecap: square"/>
   </g>
   <g id="line2d_17">
    <path d="M 218.896492 151.545868 
L 258.839227 214.554331 
" clip-path="url(#p97cd7a739b)" style="fill: none; stroke: #555555; stroke-opacity: 0.9; stroke-width: 0.5; stroke-linecap: square"/>
   </g>
   <g id="line2d_18">
    <path d="M 178.953758 214.554331 
L 258.839227 214.554331 
" clip-path="url(#p97cd7a739b)" style="fill: none; stroke: #555555; stroke-opacity: 0.9; stroke-width: 0.5; stroke-linecap: square"/>
   </g>
   <g id="line2d_19">
    <path d="M 168.968074 167.297984 
L 118.350989 214.554331 
" clip-path="url(#p97cd7a739b)" style="fill: none; stroke: #555555; stroke-opacity: 0.9; stroke-width: 0.5; stroke-linecap: square"/>
   </g>
   <g id="line2d_20">
    <path d="M 166.663686 127.311844 
L 125.696779 130.543047 
" clip-path="url(#p97cd7a739b)" style="fill: none; stroke: #555555; stroke-opacity: 0.9; stroke-width: 0.5; stroke-linecap: square"/>
   </g>
   <g id="line2d_21">
    <path d="M 168.968074 72.78529 
L 139.011024 25.528943 
" clip-path="url(#p97cd7a739b)" style="fill: none; stroke: #555555; stroke-opacity: 0.9; stroke-width: 0.5; stroke-linecap: square"/>
   </g>
   <g id="line2d_22">
    <path d="M 168.968074 167.297984 
L 20.78053 214.554331 
" clip-path="url(#p97cd7a739b)" style="fill: none; stroke: #555555; stroke-opacity: 0.9; stroke-width: 0.5; stroke-linecap: square"/>
   </g>
   <g id="line2d_23">
    <path d="M 198.925125 120.041637 
L 218.896492 151.545868 
" clip-path="url(#p97cd7a739b)" style="fill: none; stroke: #555555; stroke-opacity: 0.9; stroke-width: 0.5; stroke-linecap: square"/>
   </g>
   <g id="line2d_24">
    <path d="M 198.925125 120.041637 
L 175.88124 83.690601 
" clip-path="url(#p97cd7a739b)" style="fill: none; stroke: #555555; stroke-opacity: 0.9; stroke-width: 0.5; stroke-linecap: square"/>
   </g>
   <g id="line2d_25">
    <path d="M 99.068289 88.537406 
L 125.696779 130.543047 
" clip-path="url(#p97cd7a739b)" style="fill: none; stroke: #555555; stroke-opacity: 0.9; stroke-width: 0.5; stroke-linecap: square"/>
   </g>
   <g id="line2d_26">
    <path d="M 59.125555 151.545868 
L 20.78053 214.554331 
" clip-path="url(#p97cd7a739b)" style="fill: none; stroke: #555555; stroke-opacity: 0.9; stroke-width: 0.5; stroke-linecap: square"/>
   </g>
   <g id="line2d_27">
    <path d="M 20.78053 214.554331 
L 19.18282 214.554331 
" clip-path="url(#p97cd7a739b)" style="fill: none; stroke: #555555; stroke-opacity: 0.9; stroke-width: 0.5; stroke-linecap: square"/>
   </g>
   <g id="line2d_28">
    <path d="M 59.125555 151.545868 
L 19.18282 214.554331 
" clip-path="url(#p97cd7a739b)" style="fill: none; stroke: #555555; stroke-opacity: 0.9; stroke-width: 0.5; stroke-linecap: square"/>
   </g>
   <g id="line2d_29">
    <path d="M 198.925125 120.041637 
L 166.663686 127.311844 
" clip-path="url(#p97cd7a739b)" style="fill: none; stroke: #555555; stroke-opacity: 0.9; stroke-width: 0.5; stroke-linecap: square"/>
   </g>
   <g id="line2d_30">
    <path d="M 168.968074 167.297984 
L 166.663686 127.311844 
" clip-path="url(#p97cd7a739b)" style="fill: none; stroke: #555555; stroke-opacity: 0.9; stroke-width: 0.5; stroke-linecap: square"/>
   </g>
   <g id="PathCollection_1">
    <defs>
     <path id="mf886604e5c" d="M 0 2.738613 
C 0.726289 2.738613 1.422928 2.450055 1.936492 1.936492 
C 2.450055 1.422928 2.738613 0.726289 2.738613 0 
C 2.738613 -0.726289 2.450055 -1.422928 1.936492 -1.936492 
C 1.422928 -2.450055 0.726289 -2.738613 0 -2.738613 
C -0.726289 -2.738613 -1.422928 -2.450055 -1.936492 -1.936492 
C -2.450055 -1.422928 -2.738613 -0.726289 -2.738613 0 
C -2.738613 0.726289 -2.450055 1.422928 -1.936492 1.936492 
C -1.422928 2.450055 -0.726289 2.738613 0 2.738613 
z
" style="stroke: #008000"/>
    </defs>
    <g clip-path="url(#p97cd7a739b)">
     <use xlink:href="#mf886604e5c" x="168.968074" y="167.297984" style="fill: #008000; stroke: #008000"/>
     <use xlink:href="#mf886604e5c" x="125.696779" y="130.543047" style="fill: #008000; stroke: #008000"/>
     <use xlink:href="#mf886604e5c" x="175.88124" y="83.690601" style="fill: #008000; stroke: #008000"/>
     <use xlink:href="#mf886604e5c" x="166.663686" y="127.311844" style="fill: #008000; stroke: #008000"/>
     <use xlink:href="#mf886604e5c" x="258.839227" y="214.554331" style="fill: #008000; stroke: #008000"/>
     <use xlink:href="#mf886604e5c" x="20.78053" y="214.554331" style="fill: #008000; stroke: #008000"/>
     <use xlink:href="#mf886604e5c" x="178.953758" y="214.554331" style="fill: #008000; stroke: #008000"/>
     <use xlink:href="#mf886604e5c" x="118.350989" y="214.554331" style="fill: #008000; stroke: #008000"/>
     <use xlink:href="#mf886604e5c" x="59.125555" y="151.545868" style="fill: #008000; stroke: #008000"/>
     <use xlink:href="#mf886604e5c" x="168.968074" y="72.78529" style="fill: #008000; stroke: #008000"/>
     <use xlink:href="#mf886604e5c" x="99.068289" y="88.537406" style="fill: #008000; stroke: #008000"/>
     <use xlink:href="#mf886604e5c" x="139.011024" y="25.528943" style="fill: #008000; stroke: #008000"/>
     <use xlink:href="#mf886604e5c" x="218.896492" y="151.545868" style="fill: #008000; stroke: #008000"/>
     <use xlink:href="#mf886604e5c" x="198.925125" y="120.041637" style="fill: #008000; stroke: #008000"/>
     <use xlink:href="#mf886604e5c" x="19.18282" y="214.554331" style="fill: #008000; stroke: #008000"/>
    </g>
   </g>
   <g id="PathCollection_2">
    <defs>
     <path id="ma9d0d1dd9c" d="M -0 2.236068 
L 1.341641 0 
L 0 -2.236068 
L -1.341641 -0 
z
" style="stroke: #d3d3d3"/>
    </defs>
    <g clip-path="url(#p97cd7a739b)">
     <use xlink:href="#ma9d0d1dd9c" x="139.011024" y="25.528943" style="fill: #d3d3d3; stroke: #d3d3d3"/>
     <use xlink:href="#ma9d0d1dd9c" x="139.011024" y="25.528943" style="fill: #d3d3d3; stroke: #d3d3d3"/>
     <use xlink:href="#ma9d0d1dd9c" x="139.011024" y="25.528943" style="fill: #d3d3d3; stroke: #d3d3d3"/>
     <use xlink:href="#ma9d0d1dd9c" x="139.011024" y="25.528943" style="fill: #d3d3d3; stroke: #d3d3d3"/>
     <use xlink:href="#ma9d0d1dd9c" x="139.011024" y="25.528943" style="fill: #d3d3d3; stroke: #d3d3d3"/>
     <use xlink:href="#ma9d0d1dd9c" x="139.011024" y="25.528943" style="fill: #d3d3d3; stroke: #d3d3d3"/>
     <use xlink:href="#ma9d0d1dd9c" x="139.011024" y="25.528943" style="fill: #d3d3d3; stroke: #d3d3d3"/>
     <use xlink:href="#ma9d0d1dd9c" x="258.839227" y="214.554331" style="fill: #d3d3d3; stroke: #d3d3d3"/>
     <use xlink:href="#ma9d0d1dd9c" x="258.839227" y="214.554331" style="fill: #d3d3d3; stroke: #d3d3d3"/>
     <use xlink:href="#ma9d0d1dd9c" x="258.839227" y="214.554331" style="fill: #d3d3d3; stroke: #d3d3d3"/>
     <use xlink:href="#ma9d0d1dd9c" x="258.839227" y="214.554331" style="fill: #d3d3d3; stroke: #d3d3d3"/>
     <use xlink:href="#ma9d0d1dd9c" x="258.839227" y="214.554331" style="fill: #d3d3d3; stroke: #d3d3d3"/>
     <use xlink:href="#ma9d0d1dd9c" x="258.839227" y="214.554331" style="fill: #d3d3d3; stroke: #d3d3d3"/>
     <use xlink:href="#ma9d0d1dd9c" x="258.839227" y="214.554331" style="fill: #d3d3d3; stroke: #d3d3d3"/>
     <use xlink:href="#ma9d0d1dd9c" x="258.839227" y="214.554331" style="fill: #d3d3d3; stroke: #d3d3d3"/>
     <use xlink:href="#ma9d0d1dd9c" x="258.839227" y="214.554331" style="fill: #d3d3d3; stroke: #d3d3d3"/>
     <use xlink:href="#ma9d0d1dd9c" x="198.925125" y="120.041637" style="fill: #d3d3d3; stroke: #d3d3d3"/>
     <use xlink:href="#ma9d0d1dd9c" x="168.968074" y="72.78529" style="fill: #d3d3d3; stroke: #d3d3d3"/>
     <use xlink:href="#ma9d0d1dd9c" x="168.968074" y="72.78529" style="fill: #d3d3d3; stroke: #d3d3d3"/>
     <use xlink:href="#ma9d0d1dd9c" x="168.968074" y="72.78529" style="fill: #d3d3d3; stroke: #d3d3d3"/>
     <use xlink:href="#ma9d0d1dd9c" x="162.976664" y="63.334021" style="fill: #d3d3d3; stroke: #d3d3d3"/>
     <use xlink:href="#ma9d0d1dd9c" x="218.896492" y="151.545868" style="fill: #d3d3d3; stroke: #d3d3d3"/>
     <use xlink:href="#ma9d0d1dd9c" x="218.896492" y="151.545868" style="fill: #d3d3d3; stroke: #d3d3d3"/>
     <use xlink:href="#ma9d0d1dd9c" x="228.882176" y="167.297984" style="fill: #d3d3d3; stroke: #d3d3d3"/>
     <use xlink:href="#ma9d0d1dd9c" x="228.882176" y="167.297984" style="fill: #d3d3d3; stroke: #d3d3d3"/>
     <use xlink:href="#ma9d0d1dd9c" x="210.907946" y="138.944176" style="fill: #d3d3d3; stroke: #d3d3d3"/>
     <use xlink:href="#ma9d0d1dd9c" x="164.238014" y="65.323762" style="fill: #d3d3d3; stroke: #d3d3d3"/>
     <use xlink:href="#ma9d0d1dd9c" x="19.18282" y="214.554331" style="fill: #d3d3d3; stroke: #d3d3d3"/>
     <use xlink:href="#ma9d0d1dd9c" x="19.18282" y="214.554331" style="fill: #d3d3d3; stroke: #d3d3d3"/>
     <use xlink:href="#ma9d0d1dd9c" x="19.18282" y="214.554331" style="fill: #d3d3d3; stroke: #d3d3d3"/>
     <use xlink:href="#ma9d0d1dd9c" x="19.18282" y="214.554331" style="fill: #d3d3d3; stroke: #d3d3d3"/>
     <use xlink:href="#ma9d0d1dd9c" x="19.18282" y="214.554331" style="fill: #d3d3d3; stroke: #d3d3d3"/>
     <use xlink:href="#ma9d0d1dd9c" x="19.18282" y="214.554331" style="fill: #d3d3d3; stroke: #d3d3d3"/>
     <use xlink:href="#ma9d0d1dd9c" x="19.18282" y="214.554331" style="fill: #d3d3d3; stroke: #d3d3d3"/>
     <use xlink:href="#ma9d0d1dd9c" x="79.096922" y="120.041637" style="fill: #d3d3d3; stroke: #d3d3d3"/>
     <use xlink:href="#ma9d0d1dd9c" x="79.096922" y="120.041637" style="fill: #d3d3d3; stroke: #d3d3d3"/>
     <use xlink:href="#ma9d0d1dd9c" x="109.053973" y="72.78529" style="fill: #d3d3d3; stroke: #d3d3d3"/>
     <use xlink:href="#ma9d0d1dd9c" x="119.039656" y="57.033175" style="fill: #d3d3d3; stroke: #d3d3d3"/>
     <use xlink:href="#ma9d0d1dd9c" x="139.011024" y="214.554331" style="fill: #d3d3d3; stroke: #d3d3d3"/>
     <use xlink:href="#ma9d0d1dd9c" x="139.011024" y="214.554331" style="fill: #d3d3d3; stroke: #d3d3d3"/>
     <use xlink:href="#ma9d0d1dd9c" x="139.011024" y="214.554331" style="fill: #d3d3d3; stroke: #d3d3d3"/>
     <use xlink:href="#ma9d0d1dd9c" x="139.011024" y="214.554331" style="fill: #d3d3d3; stroke: #d3d3d3"/>
     <use xlink:href="#ma9d0d1dd9c" x="139.011024" y="214.554331" style="fill: #d3d3d3; stroke: #d3d3d3"/>
     <use xlink:href="#ma9d0d1dd9c" x="139.011024" y="214.554331" style="fill: #d3d3d3; stroke: #d3d3d3"/>
     <use xlink:href="#ma9d0d1dd9c" x="139.011024" y="214.554331" style="fill: #d3d3d3; stroke: #d3d3d3"/>
     <use xlink:href="#ma9d0d1dd9c" x="139.011024" y="214.554331" style="fill: #d3d3d3; stroke: #d3d3d3"/>
     <use xlink:href="#ma9d0d1dd9c" x="139.011024" y="151.545868" style="fill: #d3d3d3; stroke: #d3d3d3"/>
     <use xlink:href="#ma9d0d1dd9c" x="178.953758" y="214.554331" style="fill: #d3d3d3; stroke: #d3d3d3"/>
     <use xlink:href="#ma9d0d1dd9c" x="178.953758" y="214.554331" style="fill: #d3d3d3; stroke: #d3d3d3"/>
     <use xlink:href="#ma9d0d1dd9c" x="178.953758" y="214.554331" style="fill: #d3d3d3; stroke: #d3d3d3"/>
     <use xlink:href="#ma9d0d1dd9c" x="198.925125" y="214.554331" style="fill: #d3d3d3; stroke: #d3d3d3"/>
     <use xlink:href="#ma9d0d1dd9c" x="198.925125" y="214.554331" style="fill: #d3d3d3; stroke: #d3d3d3"/>
     <use xlink:href="#ma9d0d1dd9c" x="198.925125" y="214.554331" style="fill: #d3d3d3; stroke: #d3d3d3"/>
     <use xlink:href="#ma9d0d1dd9c" x="203.533902" y="156.392673" style="fill: #d3d3d3; stroke: #d3d3d3"/>
     <use xlink:href="#ma9d0d1dd9c" x="59.125555" y="151.545868" style="fill: #d3d3d3; stroke: #d3d3d3"/>
     <use xlink:href="#ma9d0d1dd9c" x="59.125555" y="151.545868" style="fill: #d3d3d3; stroke: #d3d3d3"/>
     <use xlink:href="#ma9d0d1dd9c" x="162.976664" y="214.554331" style="fill: #d3d3d3; stroke: #d3d3d3"/>
     <use xlink:href="#ma9d0d1dd9c" x="49.139871" y="167.297984" style="fill: #d3d3d3; stroke: #d3d3d3"/>
     <use xlink:href="#ma9d0d1dd9c" x="49.139871" y="167.297984" style="fill: #d3d3d3; stroke: #d3d3d3"/>
     <use xlink:href="#ma9d0d1dd9c" x="49.139871" y="167.297984" style="fill: #d3d3d3; stroke: #d3d3d3"/>
     <use xlink:href="#ma9d0d1dd9c" x="79.096922" y="214.554331" style="fill: #d3d3d3; stroke: #d3d3d3"/>
     <use xlink:href="#ma9d0d1dd9c" x="79.096922" y="214.554331" style="fill: #d3d3d3; stroke: #d3d3d3"/>
     <use xlink:href="#ma9d0d1dd9c" x="79.096922" y="214.554331" style="fill: #d3d3d3; stroke: #d3d3d3"/>
     <use xlink:href="#ma9d0d1dd9c" x="79.096922" y="214.554331" style="fill: #d3d3d3; stroke: #d3d3d3"/>
     <use xlink:href="#ma9d0d1dd9c" x="79.096922" y="214.554331" style="fill: #d3d3d3; stroke: #d3d3d3"/>
     <use xlink:href="#ma9d0d1dd9c" x="125.696779" y="130.543047" style="fill: #d3d3d3; stroke: #d3d3d3"/>
     <use xlink:href="#ma9d0d1dd9c" x="43.148461" y="176.749253" style="fill: #d3d3d3; stroke: #d3d3d3"/>
     <use xlink:href="#ma9d0d1dd9c" x="39.154188" y="183.050099" style="fill: #d3d3d3; stroke: #d3d3d3"/>
     <use xlink:href="#ma9d0d1dd9c" x="64.118397" y="190.926157" style="fill: #d3d3d3; stroke: #d3d3d3"/>
     <use xlink:href="#ma9d0d1dd9c" x="64.118397" y="190.926157" style="fill: #d3d3d3; stroke: #d3d3d3"/>
     <use xlink:href="#ma9d0d1dd9c" x="34.161346" y="190.926157" style="fill: #d3d3d3; stroke: #d3d3d3"/>
     <use xlink:href="#ma9d0d1dd9c" x="49.139871" y="214.554331" style="fill: #d3d3d3; stroke: #d3d3d3"/>
     <use xlink:href="#ma9d0d1dd9c" x="143.143031" y="175.44563" style="fill: #d3d3d3; stroke: #d3d3d3"/>
     <use xlink:href="#ma9d0d1dd9c" x="143.449105" y="214.554331" style="fill: #d3d3d3; stroke: #d3d3d3"/>
     <use xlink:href="#ma9d0d1dd9c" x="151.407045" y="214.554331" style="fill: #d3d3d3; stroke: #d3d3d3"/>
     <use xlink:href="#ma9d0d1dd9c" x="41.650608" y="202.740244" style="fill: #d3d3d3; stroke: #d3d3d3"/>
     <use xlink:href="#ma9d0d1dd9c" x="41.650608" y="202.740244" style="fill: #d3d3d3; stroke: #d3d3d3"/>
     <use xlink:href="#ma9d0d1dd9c" x="26.672083" y="202.740244" style="fill: #d3d3d3; stroke: #d3d3d3"/>
     <use xlink:href="#ma9d0d1dd9c" x="34.161346" y="214.554331" style="fill: #d3d3d3; stroke: #d3d3d3"/>
     <use xlink:href="#ma9d0d1dd9c" x="122.482996" y="208.036214" style="fill: #d3d3d3; stroke: #d3d3d3"/>
     <use xlink:href="#ma9d0d1dd9c" x="126.615003" y="214.554331" style="fill: #d3d3d3; stroke: #d3d3d3"/>
     <use xlink:href="#ma9d0d1dd9c" x="126.615003" y="214.554331" style="fill: #d3d3d3; stroke: #d3d3d3"/>
     <use xlink:href="#ma9d0d1dd9c" x="126.615003" y="214.554331" style="fill: #d3d3d3; stroke: #d3d3d3"/>
     <use xlink:href="#ma9d0d1dd9c" x="110.086975" y="214.554331" style="fill: #d3d3d3; stroke: #d3d3d3"/>
     <use xlink:href="#ma9d0d1dd9c" x="154.83739" y="214.554331" style="fill: #d3d3d3; stroke: #d3d3d3"/>
     <use xlink:href="#ma9d0d1dd9c" x="167.858554" y="214.554331" style="fill: #d3d3d3; stroke: #d3d3d3"/>
    </g>
   </g>
   <g id="PathCollection_3">
    <defs>
     <path id="m2121e557c2" d="M 0 -5 
L -1.12257 -1.545085 
L -4.755283 -1.545085 
L -1.816356 0.59017 
L -2.938926 4.045085 
L -0 1.90983 
L 2.938926 4.045085 
L 1.816356 0.59017 
L 4.755283 -1.545085 
L 1.12257 -1.545085 
z
" style="stroke: #0000ff"/>
    </defs>
    <g clip-path="url(#p97cd7a739b)">
     <use xlink:href="#m2121e557c2" x="203.533902" y="156.392673" style="fill: #0000ff; stroke: #0000ff"/>
    </g>
   </g>
   <g id="text_1">
    <!-- $\mathrm{MgAl_{2}Cu}$ -->
    <g transform="translate(132.513529 176.283367) scale(0.1 -0.1)">
     <defs>
      <path id="DejaVuSans-4d" d="M 628 4666 
L 1569 4666 
L 2759 1491 
L 3956 4666 
L 4897 4666 
L 4897 0 
L 4281 0 
L 4281 4097 
L 3078 897 
L 2444 897 
L 1241 4097 
L 1241 0 
L 628 0 
L 628 4666 
z
" transform="scale(0.015625)"/>
      <path id="DejaVuSans-67" d="M 2906 1791 
Q 2906 2416 2648 2759 
Q 2391 3103 1925 3103 
Q 1463 3103 1205 2759 
Q 947 2416 947 1791 
Q 947 1169 1205 825 
Q 1463 481 1925 481 
Q 2391 481 2648 825 
Q 2906 1169 2906 1791 
z
M 3481 434 
Q 3481 -459 3084 -895 
Q 2688 -1331 1869 -1331 
Q 1566 -1331 1297 -1286 
Q 1028 -1241 775 -1147 
L 775 -588 
Q 1028 -725 1275 -790 
Q 1522 -856 1778 -856 
Q 2344 -856 2625 -561 
Q 2906 -266 2906 331 
L 2906 616 
Q 2728 306 2450 153 
Q 2172 0 1784 0 
Q 1141 0 747 490 
Q 353 981 353 1791 
Q 353 2603 747 3093 
Q 1141 3584 1784 3584 
Q 2172 3584 2450 3431 
Q 2728 3278 2906 2969 
L 2906 3500 
L 3481 3500 
L 3481 434 
z
" transform="scale(0.015625)"/>
      <path id="DejaVuSans-41" d="M 2188 4044 
L 1331 1722 
L 3047 1722 
L 2188 4044 
z
M 1831 4666 
L 2547 4666 
L 4325 0 
L 3669 0 
L 3244 1197 
L 1141 1197 
L 716 0 
L 50 0 
L 1831 4666 
z
" transform="scale(0.015625)"/>
      <path id="DejaVuSans-6c" d="M 603 4863 
L 1178 4863 
L 1178 0 
L 603 0 
L 603 4863 
z
" transform="scale(0.015625)"/>
      <path id="DejaVuSans-32" d="M 1228 531 
L 3431 531 
L 3431 0 
L 469 0 
L 469 531 
Q 828 903 1448 1529 
Q 2069 2156 2228 2338 
Q 2531 2678 2651 2914 
Q 2772 3150 2772 3378 
Q 2772 3750 2511 3984 
Q 2250 4219 1831 4219 
Q 1534 4219 1204 4116 
Q 875 4013 500 3803 
L 500 4441 
Q 881 4594 1212 4672 
Q 1544 4750 1819 4750 
Q 2544 4750 2975 4387 
Q 3406 4025 3406 3419 
Q 3406 3131 3298 2873 
Q 3191 2616 2906 2266 
Q 2828 2175 2409 1742 
Q 1991 1309 1228 531 
z
" transform="scale(0.015625)"/>
      <path id="DejaVuSans-43" d="M 4122 4306 
L 4122 3641 
Q 3803 3938 3442 4084 
Q 3081 4231 2675 4231 
Q 1875 4231 1450 3742 
Q 1025 3253 1025 2328 
Q 1025 1406 1450 917 
Q 1875 428 2675 428 
Q 3081 428 3442 575 
Q 3803 722 4122 1019 
L 4122 359 
Q 3791 134 3420 21 
Q 3050 -91 2638 -91 
Q 1578 -91 968 557 
Q 359 1206 359 2328 
Q 359 3453 968 4101 
Q 1578 4750 2638 4750 
Q 3056 4750 3426 4639 
Q 3797 4528 4122 4306 
z
" transform="scale(0.015625)"/>
      <path id="DejaVuSans-75" d="M 544 1381 
L 544 3500 
L 1119 3500 
L 1119 1403 
Q 1119 906 1312 657 
Q 1506 409 1894 409 
Q 2359 409 2629 706 
Q 2900 1003 2900 1516 
L 2900 3500 
L 3475 3500 
L 3475 0 
L 2900 0 
L 2900 538 
Q 2691 219 2414 64 
Q 2138 -91 1772 -91 
Q 1169 -91 856 284 
Q 544 659 544 1381 
z
M 1991 3584 
L 1991 3584 
z
" transform="scale(0.015625)"/>
     </defs>
     <use xlink:href="#DejaVuSans-4d" transform="translate(0 0.015625)"/>
     <use xlink:href="#DejaVuSans-67" transform="translate(86.279297 0.015625)"/>
     <use xlink:href="#DejaVuSans-41" transform="translate(149.755859 0.015625)"/>
     <use xlink:href="#DejaVuSans-6c" transform="translate(218.164062 0.015625)"/>
     <use xlink:href="#DejaVuSans-32" transform="translate(246.904297 -16.390625) scale(0.7)"/>
     <use xlink:href="#DejaVuSans-43" transform="translate(294.174805 0.015625)"/>
     <use xlink:href="#DejaVuSans-75" transform="translate(363.999023 0.015625)"/>
    </g>
   </g>
   <g id="text_2">
    <!-- $\mathrm{Mg_{3}(AlCu_{2})_{2}}$ -->
    <g transform="translate(72.687688 139.52843) scale(0.1 -0.1)">
     <defs>
      <path id="DejaVuSans-33" d="M 2597 2516 
Q 3050 2419 3304 2112 
Q 3559 1806 3559 1356 
Q 3559 666 3084 287 
Q 2609 -91 1734 -91 
Q 1441 -91 1130 -33 
Q 819 25 488 141 
L 488 750 
Q 750 597 1062 519 
Q 1375 441 1716 441 
Q 2309 441 2620 675 
Q 2931 909 2931 1356 
Q 2931 1769 2642 2001 
Q 2353 2234 1838 2234 
L 1294 2234 
L 1294 2753 
L 1863 2753 
Q 2328 2753 2575 2939 
Q 2822 3125 2822 3475 
Q 2822 3834 2567 4026 
Q 2313 4219 1838 4219 
Q 1578 4219 1281 4162 
Q 984 4106 628 3988 
L 628 4550 
Q 988 4650 1302 4700 
Q 1616 4750 1894 4750 
Q 2613 4750 3031 4423 
Q 3450 4097 3450 3541 
Q 3450 3153 3228 2886 
Q 3006 2619 2597 2516 
z
" transform="scale(0.015625)"/>
      <path id="DejaVuSans-28" d="M 1984 4856 
Q 1566 4138 1362 3434 
Q 1159 2731 1159 2009 
Q 1159 1288 1364 580 
Q 1569 -128 1984 -844 
L 1484 -844 
Q 1016 -109 783 600 
Q 550 1309 550 2009 
Q 550 2706 781 3412 
Q 1013 4119 1484 4856 
L 1984 4856 
z
" transform="scale(0.015625)"/>
      <path id="DejaVuSans-29" d="M 513 4856 
L 1013 4856 
Q 1481 4119 1714 3412 
Q 1947 2706 1947 2009 
Q 1947 1309 1714 600 
Q 1481 -109 1013 -844 
L 513 -844 
Q 928 -128 1133 580 
Q 1338 1288 1338 2009 
Q 1338 2731 1133 3434 
Q 928 4138 513 4856 
z
" transform="scale(0.015625)"/>
     </defs>
     <use xlink:href="#DejaVuSans-4d" transform="translate(0 0.015625)"/>
     <use xlink:href="#DejaVuSans-67" transform="translate(86.279297 0.015625)"/>
     <use xlink:href="#DejaVuSans-33" transform="translate(150.712891 -16.390625) scale(0.7)"/>
     <use xlink:href="#DejaVuSans-28" transform="translate(197.983398 0.015625)"/>
     <use xlink:href="#DejaVuSans-41" transform="translate(236.99707 0.015625)"/>
     <use xlink:href="#DejaVuSans-6c" transform="translate(305.405273 0.015625)"/>
     <use xlink:href="#DejaVuSans-43" transform="translate(333.188477 0.015625)"/>
     <use xlink:href="#DejaVuSans-75" transform="translate(403.012695 0.015625)"/>
     <use xlink:href="#DejaVuSans-32" transform="translate(467.348633 -16.390625) scale(0.7)"/>
     <use xlink:href="#DejaVuSans-29" transform="translate(514.619141 0.015625)"/>
     <use xlink:href="#DejaVuSans-32" transform="translate(554.589844 -16.390625) scale(0.7)"/>
    </g>
   </g>
   <g id="text_3">
    <!-- $\mathrm{Al_{4}Cu_{9}}$ -->
    <g transform="translate(175.944876 87.026639) scale(0.1 -0.1)">
     <defs>
      <path id="DejaVuSans-34" d="M 2419 4116 
L 825 1625 
L 2419 1625 
L 2419 4116 
z
M 2253 4666 
L 3047 4666 
L 3047 1625 
L 3713 1625 
L 3713 1100 
L 3047 1100 
L 3047 0 
L 2419 0 
L 2419 1100 
L 313 1100 
L 313 1709 
L 2253 4666 
z
" transform="scale(0.015625)"/>
      <path id="DejaVuSans-39" d="M 703 97 
L 703 672 
Q 941 559 1184 500 
Q 1428 441 1663 441 
Q 2288 441 2617 861 
Q 2947 1281 2994 2138 
Q 2813 1869 2534 1725 
Q 2256 1581 1919 1581 
Q 1219 1581 811 2004 
Q 403 2428 403 3163 
Q 403 3881 828 4315 
Q 1253 4750 1959 4750 
Q 2769 4750 3195 4129 
Q 3622 3509 3622 2328 
Q 3622 1225 3098 567 
Q 2575 -91 1691 -91 
Q 1453 -91 1209 -44 
Q 966 3 703 97 
z
M 1959 2075 
Q 2384 2075 2632 2365 
Q 2881 2656 2881 3163 
Q 2881 3666 2632 3958 
Q 2384 4250 1959 4250 
Q 1534 4250 1286 3958 
Q 1038 3666 1038 3163 
Q 1038 2656 1286 2365 
Q 1534 2075 1959 2075 
z
" transform="scale(0.015625)"/>
     </defs>
     <use xlink:href="#DejaVuSans-41" transform="translate(0 0.015625)"/>
     <use xlink:href="#DejaVuSans-6c" transform="translate(68.408203 0.015625)"/>
     <use xlink:href="#DejaVuSans-34" transform="translate(97.148438 -16.390625) scale(0.7)"/>
     <use xlink:href="#DejaVuSans-43" transform="translate(144.418945 0.015625)"/>
     <use xlink:href="#DejaVuSans-75" transform="translate(214.243164 0.015625)"/>
     <use xlink:href="#DejaVuSans-39" transform="translate(278.579102 -16.390625) scale(0.7)"/>
    </g>
   </g>
   <g id="text_4">
    <!-- $\mathrm{Mg_{2}Al_{5}Cu_{6}}$ -->
    <g transform="translate(164.027322 136.297227) scale(0.1 -0.1)">
     <defs>
      <path id="DejaVuSans-35" d="M 691 4666 
L 3169 4666 
L 3169 4134 
L 1269 4134 
L 1269 2991 
Q 1406 3038 1543 3061 
Q 1681 3084 1819 3084 
Q 2600 3084 3056 2656 
Q 3513 2228 3513 1497 
Q 3513 744 3044 326 
Q 2575 -91 1722 -91 
Q 1428 -91 1123 -41 
Q 819 9 494 109 
L 494 744 
Q 775 591 1075 516 
Q 1375 441 1709 441 
Q 2250 441 2565 725 
Q 2881 1009 2881 1497 
Q 2881 1984 2565 2268 
Q 2250 2553 1709 2553 
Q 1456 2553 1204 2497 
Q 953 2441 691 2322 
L 691 4666 
z
" transform="scale(0.015625)"/>
      <path id="DejaVuSans-36" d="M 2113 2584 
Q 1688 2584 1439 2293 
Q 1191 2003 1191 1497 
Q 1191 994 1439 701 
Q 1688 409 2113 409 
Q 2538 409 2786 701 
Q 3034 994 3034 1497 
Q 3034 2003 2786 2293 
Q 2538 2584 2113 2584 
z
M 3366 4563 
L 3366 3988 
Q 3128 4100 2886 4159 
Q 2644 4219 2406 4219 
Q 1781 4219 1451 3797 
Q 1122 3375 1075 2522 
Q 1259 2794 1537 2939 
Q 1816 3084 2150 3084 
Q 2853 3084 3261 2657 
Q 3669 2231 3669 1497 
Q 3669 778 3244 343 
Q 2819 -91 2113 -91 
Q 1303 -91 875 529 
Q 447 1150 447 2328 
Q 447 3434 972 4092 
Q 1497 4750 2381 4750 
Q 2619 4750 2861 4703 
Q 3103 4656 3366 4563 
z
" transform="scale(0.015625)"/>
     </defs>
     <use xlink:href="#DejaVuSans-4d" transform="translate(0 0.015625)"/>
     <use xlink:href="#DejaVuSans-67" transform="translate(86.279297 0.015625)"/>
     <use xlink:href="#DejaVuSans-32" transform="translate(150.712891 -16.390625) scale(0.7)"/>
     <use xlink:href="#DejaVuSans-41" transform="translate(197.983398 0.015625)"/>
     <use xlink:href="#DejaVuSans-6c" transform="translate(266.391602 0.015625)"/>
     <use xlink:href="#DejaVuSans-35" transform="translate(295.131836 -16.390625) scale(0.7)"/>
     <use xlink:href="#DejaVuSans-43" transform="translate(342.402344 0.015625)"/>
     <use xlink:href="#DejaVuSans-75" transform="translate(412.226562 0.015625)"/>
     <use xlink:href="#DejaVuSans-36" transform="translate(476.5625 -16.390625) scale(0.7)"/>
    </g>
   </g>
   <g id="text_5">
    <!-- $\mathrm{Al}$ -->
    <g transform="translate(249.389691 211.215873) scale(0.1 -0.1)">
     <use xlink:href="#DejaVuSans-41" transform="translate(0 0.015625)"/>
     <use xlink:href="#DejaVuSans-6c" transform="translate(68.408203 0.015625)"/>
    </g>
   </g>
   <g id="text_6">
    <!-- $\mathrm{Mg_{149}Al}$ -->
    <g transform="translate(20.244579 211.068948) scale(0.1 -0.1)">
     <defs>
      <path id="DejaVuSans-31" d="M 794 531 
L 1825 531 
L 1825 4091 
L 703 3866 
L 703 4441 
L 1819 4666 
L 2450 4666 
L 2450 531 
L 3481 531 
L 3481 0 
L 794 0 
L 794 531 
z
" transform="scale(0.015625)"/>
     </defs>
     <use xlink:href="#DejaVuSans-4d" transform="translate(0 0.015625)"/>
     <use xlink:href="#DejaVuSans-67" transform="translate(86.279297 0.015625)"/>
     <use xlink:href="#DejaVuSans-31" transform="translate(150.712891 -16.390625) scale(0.7)"/>
     <use xlink:href="#DejaVuSans-34" transform="translate(195.249023 -16.390625) scale(0.7)"/>
     <use xlink:href="#DejaVuSans-39" transform="translate(239.785156 -16.390625) scale(0.7)"/>
     <use xlink:href="#DejaVuSans-41" transform="translate(287.055664 0.015625)"/>
     <use xlink:href="#DejaVuSans-6c" transform="translate(355.463867 0.015625)"/>
    </g>
   </g>
   <g id="text_7">
    <!-- $\mathrm{MgAl_{2}}$ -->
    <g transform="translate(171.403758 210.44541) scale(0.1 -0.1)">
     <use xlink:href="#DejaVuSans-4d" transform="translate(0 0.015625)"/>
     <use xlink:href="#DejaVuSans-67" transform="translate(86.279297 0.015625)"/>
     <use xlink:href="#DejaVuSans-41" transform="translate(149.755859 0.015625)"/>
     <use xlink:href="#DejaVuSans-6c" transform="translate(218.164062 0.015625)"/>
     <use xlink:href="#DejaVuSans-32" transform="translate(246.904297 -16.390625) scale(0.7)"/>
    </g>
   </g>
   <g id="text_8">
    <!-- $\mathrm{Mg_{17}Al_{12}}$ -->
    <g transform="translate(110.496443 210.44541) scale(0.1 -0.1)">
     <defs>
      <path id="DejaVuSans-37" d="M 525 4666 
L 3525 4666 
L 3525 4397 
L 1831 0 
L 1172 0 
L 2766 4134 
L 525 4134 
L 525 4666 
z
" transform="scale(0.015625)"/>
     </defs>
     <use xlink:href="#DejaVuSans-4d" transform="translate(0 0.015625)"/>
     <use xlink:href="#DejaVuSans-67" transform="translate(86.279297 0.015625)"/>
     <use xlink:href="#DejaVuSans-31" transform="translate(150.712891 -16.390625) scale(0.7)"/>
     <use xlink:href="#DejaVuSans-37" transform="translate(195.249023 -16.390625) scale(0.7)"/>
     <use xlink:href="#DejaVuSans-41" transform="translate(242.519531 0.015625)"/>
     <use xlink:href="#DejaVuSans-6c" transform="translate(310.927734 0.015625)"/>
     <use xlink:href="#DejaVuSans-31" transform="translate(339.667969 -16.390625) scale(0.7)"/>
     <use xlink:href="#DejaVuSans-32" transform="translate(384.204102 -16.390625) scale(0.7)"/>
    </g>
   </g>
   <g id="text_9">
    <!-- $\mathrm{Mg_{2}Cu}$ -->
    <g transform="translate(32.707373 160.481251) scale(0.1 -0.1)">
     <use xlink:href="#DejaVuSans-4d" transform="translate(0 0.78125)"/>
     <use xlink:href="#DejaVuSans-67" transform="translate(86.279297 0.78125)"/>
     <use xlink:href="#DejaVuSans-32" transform="translate(150.712891 -15.625) scale(0.7)"/>
     <use xlink:href="#DejaVuSans-43" transform="translate(197.983398 0.78125)"/>
     <use xlink:href="#DejaVuSans-75" transform="translate(267.807617 0.78125)"/>
    </g>
   </g>
   <g id="text_10">
    <!-- $\mathrm{AlCu_{3}}$ -->
    <g transform="translate(161.613529 68.638869) scale(0.1 -0.1)">
     <use xlink:href="#DejaVuSans-41" transform="translate(0 0.015625)"/>
     <use xlink:href="#DejaVuSans-6c" transform="translate(68.408203 0.015625)"/>
     <use xlink:href="#DejaVuSans-43" transform="translate(96.191406 0.015625)"/>
     <use xlink:href="#DejaVuSans-75" transform="translate(166.015625 0.015625)"/>
     <use xlink:href="#DejaVuSans-33" transform="translate(230.351562 -16.390625) scale(0.7)"/>
    </g>
   </g>
   <g id="text_11">
    <!-- $\mathrm{MgCu_{2}}$ -->
    <g transform="translate(72.650107 97.472789) scale(0.1 -0.1)">
     <use xlink:href="#DejaVuSans-4d" transform="translate(0 0.78125)"/>
     <use xlink:href="#DejaVuSans-67" transform="translate(86.279297 0.78125)"/>
     <use xlink:href="#DejaVuSans-43" transform="translate(149.755859 0.78125)"/>
     <use xlink:href="#DejaVuSans-75" transform="translate(219.580078 0.78125)"/>
     <use xlink:href="#DejaVuSans-32" transform="translate(283.916016 -15.625) scale(0.7)"/>
    </g>
   </g>
   <g id="text_12">
    <!-- $\mathrm{Cu}$ -->
    <g transform="translate(130.347387 33.102406) scale(0.1 -0.1)">
     <use xlink:href="#DejaVuSans-43" transform="translate(0 0.78125)"/>
     <use xlink:href="#DejaVuSans-75" transform="translate(69.824219 0.78125)"/>
    </g>
   </g>
   <g id="text_13">
    <!-- $\mathrm{Al_{2}Cu}$ -->
    <g transform="translate(218.741947 147.420198) scale(0.1 -0.1)">
     <use xlink:href="#DejaVuSans-41" transform="translate(0 0.015625)"/>
     <use xlink:href="#DejaVuSans-6c" transform="translate(68.408203 0.015625)"/>
     <use xlink:href="#DejaVuSans-32" transform="translate(97.148438 -16.390625) scale(0.7)"/>
     <use xlink:href="#DejaVuSans-43" transform="translate(144.418945 0.015625)"/>
     <use xlink:href="#DejaVuSans-75" transform="translate(214.243164 0.015625)"/>
    </g>
   </g>
   <g id="text_14">
    <!-- $\mathrm{AlCu}$ -->
    <g transform="translate(199.206943 117.014949) scale(0.1 -0.1)">
     <use xlink:href="#DejaVuSans-41" transform="translate(0 0.015625)"/>
     <use xlink:href="#DejaVuSans-6c" transform="translate(68.408203 0.015625)"/>
     <use xlink:href="#DejaVuSans-43" transform="translate(96.191406 0.015625)"/>
     <use xlink:href="#DejaVuSans-75" transform="translate(166.015625 0.015625)"/>
    </g>
   </g>
   <g id="text_15">
    <!-- $\mathrm{Mg}$ -->
    <g transform="translate(24.621139 196.265798) scale(0.1 -0.1)">
     <use xlink:href="#DejaVuSans-4d" transform="translate(0 0.09375)"/>
     <use xlink:href="#DejaVuSans-67" transform="translate(86.279297 0.09375)"/>
    </g>
   </g>
   <g id="text_16">
    <!-- $\mathrm{Mg(Al_{2}Cu)_{4}}$ -->
    <g style="fill: #0000ff" transform="translate(202.670266 163.507441) scale(0.1 -0.1)">
     <use xlink:href="#DejaVuSans-4d" transform="translate(0 0.015625)"/>
     <use xlink:href="#DejaVuSans-67" transform="translate(86.279297 0.015625)"/>
     <use xlink:href="#DejaVuSans-28" transform="translate(149.755859 0.015625)"/>
     <use xlink:href="#DejaVuSans-41" transform="translate(188.769531 0.015625)"/>
     <use xlink:href="#DejaVuSans-6c" transform="translate(257.177734 0.015625)"/>
     <use xlink:href="#DejaVuSans-32" transform="translate(285.917969 -16.390625) scale(0.7)"/>
     <use xlink:href="#DejaVuSans-43" transform="translate(333.188477 0.015625)"/>
     <use xlink:href="#DejaVuSans-75" transform="translate(403.012695 0.015625)"/>
     <use xlink:href="#DejaVuSans-29" transform="translate(466.391602 0.015625)"/>
     <use xlink:href="#DejaVuSans-34" transform="translate(506.362305 -16.390625) scale(0.7)"/>
    </g>
   </g>
  </g>
  <g id="axes_2">
   <g id="patch_3">
    <path d="M 287.298425 195.703937 
L 296.029134 195.703937 
L 296.029134 36.96378 
L 287.298425 36.96378 
L 287.298425 195.703937 
z
" style="fill: none"/>
   </g>
   <g id="patch_4">
    <path d="M 287.298425 195.703937 
L 291.66378 203.640945 
L 296.029134 195.703937 
" style="fill: #440154; opacity: 0.7"/>
   </g>
   <g id="patch_5">
    <path d="M 287.298425 36.96378 
L 291.66378 29.026772 
L 296.029134 36.96378 
" style="fill: #fde725; opacity: 0.7"/>
   </g>
   <g id="QuadMesh_1">
    <path d="M 287.298425 195.703937 
L 296.029134 195.703937 
L 296.029134 192.253064 
L 287.298425 192.253064 
L 287.298425 195.703937 
" clip-path="url(#p32bec7cb68)" style="fill: #450457; fill-opacity: 0.7"/>
    <path d="M 287.298425 192.253064 
L 296.029134 192.253064 
L 296.029134 188.802191 
L 287.298425 188.802191 
L 287.298425 192.253064 
" clip-path="url(#p32bec7cb68)" style="fill: #470d60; fill-opacity: 0.7"/>
    <path d="M 287.298425 188.802191 
L 296.029134 188.802191 
L 296.029134 185.351318 
L 287.298425 185.351318 
L 287.298425 188.802191 
" clip-path="url(#p32bec7cb68)" style="fill: #481467; fill-opacity: 0.7"/>
    <path d="M 287.298425 185.351318 
L 296.029134 185.351318 
L 296.029134 181.900445 
L 287.298425 181.900445 
L 287.298425 185.351318 
" clip-path="url(#p32bec7cb68)" style="fill: #481c6e; fill-opacity: 0.7"/>
    <path d="M 287.298425 181.900445 
L 296.029134 181.900445 
L 296.029134 178.449572 
L 287.298425 178.449572 
L 287.298425 181.900445 
" clip-path="url(#p32bec7cb68)" style="fill: #482475; fill-opacity: 0.7"/>
    <path d="M 287.298425 178.449572 
L 296.029134 178.449572 
L 296.029134 174.998699 
L 287.298425 174.998699 
L 287.298425 178.449572 
" clip-path="url(#p32bec7cb68)" style="fill: #472a7a; fill-opacity: 0.7"/>
    <path d="M 287.298425 174.998699 
L 296.029134 174.998699 
L 296.029134 171.547826 
L 287.298425 171.547826 
L 287.298425 174.998699 
" clip-path="url(#p32bec7cb68)" style="fill: #46327e; fill-opacity: 0.7"/>
    <path d="M 287.298425 171.547826 
L 296.029134 171.547826 
L 296.029134 168.096953 
L 287.298425 168.096953 
L 287.298425 171.547826 
" clip-path="url(#p32bec7cb68)" style="fill: #453882; fill-opacity: 0.7"/>
    <path d="M 287.298425 168.096953 
L 296.029134 168.096953 
L 296.029134 164.64608 
L 287.298425 164.64608 
L 287.298425 168.096953 
" clip-path="url(#p32bec7cb68)" style="fill: #423f85; fill-opacity: 0.7"/>
    <path d="M 287.298425 164.64608 
L 296.029134 164.64608 
L 296.029134 161.195207 
L 287.298425 161.195207 
L 287.298425 164.64608 
" clip-path="url(#p32bec7cb68)" style="fill: #404588; fill-opacity: 0.7"/>
    <path d="M 287.298425 161.195207 
L 296.029134 161.195207 
L 296.029134 157.744334 
L 287.298425 157.744334 
L 287.298425 161.195207 
" clip-path="url(#p32bec7cb68)" style="fill: #3e4c8a; fill-opacity: 0.7"/>
    <path d="M 287.298425 157.744334 
L 296.029134 157.744334 
L 296.029134 154.293461 
L 287.298425 154.293461 
L 287.298425 157.744334 
" clip-path="url(#p32bec7cb68)" style="fill: #3b518b; fill-opacity: 0.7"/>
    <path d="M 287.298425 154.293461 
L 296.029134 154.293461 
L 296.029134 150.842588 
L 287.298425 150.842588 
L 287.298425 154.293461 
" clip-path="url(#p32bec7cb68)" style="fill: #38588c; fill-opacity: 0.7"/>
    <path d="M 287.298425 150.842588 
L 296.029134 150.842588 
L 296.029134 147.391715 
L 287.298425 147.391715 
L 287.298425 150.842588 
" clip-path="url(#p32bec7cb68)" style="fill: #355e8d; fill-opacity: 0.7"/>
    <path d="M 287.298425 147.391715 
L 296.029134 147.391715 
L 296.029134 143.940842 
L 287.298425 143.940842 
L 287.298425 147.391715 
" clip-path="url(#p32bec7cb68)" style="fill: #33638d; fill-opacity: 0.7"/>
    <path d="M 287.298425 143.940842 
L 296.029134 143.940842 
L 296.029134 140.489969 
L 287.298425 140.489969 
L 287.298425 143.940842 
" clip-path="url(#p32bec7cb68)" style="fill: #30698e; fill-opacity: 0.7"/>
    <path d="M 287.298425 140.489969 
L 296.029134 140.489969 
L 296.029134 137.039096 
L 287.298425 137.039096 
L 287.298425 140.489969 
" clip-path="url(#p32bec7cb68)" style="fill: #2e6e8e; fill-opacity: 0.7"/>
    <path d="M 287.298425 137.039096 
L 296.029134 137.039096 
L 296.029134 133.588223 
L 287.298425 133.588223 
L 287.298425 137.039096 
" clip-path="url(#p32bec7cb68)" style="fill: #2c738e; fill-opacity: 0.7"/>
    <path d="M 287.298425 133.588223 
L 296.029134 133.588223 
L 296.029134 130.13735 
L 287.298425 130.13735 
L 287.298425 133.588223 
" clip-path="url(#p32bec7cb68)" style="fill: #2a788e; fill-opacity: 0.7"/>
    <path d="M 287.298425 130.13735 
L 296.029134 130.13735 
L 296.029134 126.686477 
L 287.298425 126.686477 
L 287.298425 130.13735 
" clip-path="url(#p32bec7cb68)" style="fill: #277e8e; fill-opacity: 0.7"/>
    <path d="M 287.298425 126.686477 
L 296.029134 126.686477 
L 296.029134 123.235604 
L 287.298425 123.235604 
L 287.298425 126.686477 
" clip-path="url(#p32bec7cb68)" style="fill: #25838e; fill-opacity: 0.7"/>
    <path d="M 287.298425 123.235604 
L 296.029134 123.235604 
L 296.029134 119.784731 
L 287.298425 119.784731 
L 287.298425 123.235604 
" clip-path="url(#p32bec7cb68)" style="fill: #23888e; fill-opacity: 0.7"/>
    <path d="M 287.298425 119.784731 
L 296.029134 119.784731 
L 296.029134 116.333858 
L 287.298425 116.333858 
L 287.298425 119.784731 
" clip-path="url(#p32bec7cb68)" style="fill: #218e8d; fill-opacity: 0.7"/>
    <path d="M 287.298425 116.333858 
L 296.029134 116.333858 
L 296.029134 112.882985 
L 287.298425 112.882985 
L 287.298425 116.333858 
" clip-path="url(#p32bec7cb68)" style="fill: #20928c; fill-opacity: 0.7"/>
    <path d="M 287.298425 112.882985 
L 296.029134 112.882985 
L 296.029134 109.432112 
L 287.298425 109.432112 
L 287.298425 112.882985 
" clip-path="url(#p32bec7cb68)" style="fill: #1f988b; fill-opacity: 0.7"/>
    <path d="M 287.298425 109.432112 
L 296.029134 109.432112 
L 296.029134 105.981239 
L 287.298425 105.981239 
L 287.298425 109.432112 
" clip-path="url(#p32bec7cb68)" style="fill: #1e9d89; fill-opacity: 0.7"/>
    <path d="M 287.298425 105.981239 
L 296.029134 105.981239 
L 296.029134 102.530366 
L 287.298425 102.530366 
L 287.298425 105.981239 
" clip-path="url(#p32bec7cb68)" style="fill: #1fa287; fill-opacity: 0.7"/>
    <path d="M 287.298425 102.530366 
L 296.029134 102.530366 
L 296.029134 99.079493 
L 287.298425 99.079493 
L 287.298425 102.530366 
" clip-path="url(#p32bec7cb68)" style="fill: #22a884; fill-opacity: 0.7"/>
    <path d="M 287.298425 99.079493 
L 296.029134 99.079493 
L 296.029134 95.62862 
L 287.298425 95.62862 
L 287.298425 99.079493 
" clip-path="url(#p32bec7cb68)" style="fill: #26ad81; fill-opacity: 0.7"/>
    <path d="M 287.298425 95.62862 
L 296.029134 95.62862 
L 296.029134 92.177747 
L 287.298425 92.177747 
L 287.298425 95.62862 
" clip-path="url(#p32bec7cb68)" style="fill: #2db27d; fill-opacity: 0.7"/>
    <path d="M 287.298425 92.177747 
L 296.029134 92.177747 
L 296.029134 88.726874 
L 287.298425 88.726874 
L 287.298425 92.177747 
" clip-path="url(#p32bec7cb68)" style="fill: #34b679; fill-opacity: 0.7"/>
    <path d="M 287.298425 88.726874 
L 296.029134 88.726874 
L 296.029134 85.276001 
L 287.298425 85.276001 
L 287.298425 88.726874 
" clip-path="url(#p32bec7cb68)" style="fill: #3dbc74; fill-opacity: 0.7"/>
    <path d="M 287.298425 85.276001 
L 296.029134 85.276001 
L 296.029134 81.825128 
L 287.298425 81.825128 
L 287.298425 85.276001 
" clip-path="url(#p32bec7cb68)" style="fill: #46c06f; fill-opacity: 0.7"/>
    <path d="M 287.298425 81.825128 
L 296.029134 81.825128 
L 296.029134 78.374255 
L 287.298425 78.374255 
L 287.298425 81.825128 
" clip-path="url(#p32bec7cb68)" style="fill: #52c569; fill-opacity: 0.7"/>
    <path d="M 287.298425 78.374255 
L 296.029134 78.374255 
L 296.029134 74.923382 
L 287.298425 74.923382 
L 287.298425 78.374255 
" clip-path="url(#p32bec7cb68)" style="fill: #5cc863; fill-opacity: 0.7"/>
    <path d="M 287.298425 74.923382 
L 296.029134 74.923382 
L 296.029134 71.472509 
L 287.298425 71.472509 
L 287.298425 74.923382 
" clip-path="url(#p32bec7cb68)" style="fill: #69cd5b; fill-opacity: 0.7"/>
    <path d="M 287.298425 71.472509 
L 296.029134 71.472509 
L 296.029134 68.021636 
L 287.298425 68.021636 
L 287.298425 71.472509 
" clip-path="url(#p32bec7cb68)" style="fill: #77d153; fill-opacity: 0.7"/>
    <path d="M 287.298425 68.021636 
L 296.029134 68.021636 
L 296.029134 64.570763 
L 287.298425 64.570763 
L 287.298425 68.021636 
" clip-path="url(#p32bec7cb68)" style="fill: #84d44b; fill-opacity: 0.7"/>
    <path d="M 287.298425 64.570763 
L 296.029134 64.570763 
L 296.029134 61.11989 
L 287.298425 61.11989 
L 287.298425 64.570763 
" clip-path="url(#p32bec7cb68)" style="fill: #93d741; fill-opacity: 0.7"/>
    <path d="M 287.298425 61.11989 
L 296.029134 61.11989 
L 296.029134 57.669017 
L 287.298425 57.669017 
L 287.298425 61.11989 
" clip-path="url(#p32bec7cb68)" style="fill: #a0da39; fill-opacity: 0.7"/>
    <path d="M 287.298425 57.669017 
L 296.029134 57.669017 
L 296.029134 54.218144 
L 287.298425 54.218144 
L 287.298425 57.669017 
" clip-path="url(#p32bec7cb68)" style="fill: #b0dd2f; fill-opacity: 0.7"/>
    <path d="M 287.298425 54.218144 
L 296.029134 54.218144 
L 296.029134 50.767271 
L 287.298425 50.767271 
L 287.298425 54.218144 
" clip-path="url(#p32bec7cb68)" style="fill: #bddf26; fill-opacity: 0.7"/>
    <path d="M 287.298425 50.767271 
L 296.029134 50.767271 
L 296.029134 47.316398 
L 287.298425 47.316398 
L 287.298425 50.767271 
" clip-path="url(#p32bec7cb68)" style="fill: #cde11d; fill-opacity: 0.7"/>
    <path d="M 287.298425 47.316398 
L 296.029134 47.316398 
L 296.029134 43.865526 
L 287.298425 43.865526 
L 287.298425 47.316398 
" clip-path="url(#p32bec7cb68)" style="fill: #dde318; fill-opacity: 0.7"/>
    <path d="M 287.298425 43.865526 
L 296.029134 43.865526 
L 296.029134 40.414653 
L 287.298425 40.414653 
L 287.298425 43.865526 
" clip-path="url(#p32bec7cb68)" style="fill: #eae51a; fill-opacity: 0.7"/>
    <path d="M 287.298425 40.414653 
L 296.029134 40.414653 
L 296.029134 36.96378 
L 287.298425 36.96378 
L 287.298425 40.414653 
" clip-path="url(#p32bec7cb68)" style="fill: #f8e621; fill-opacity: 0.7"/>
   </g>
   <g id="matplotlib.axis_3"/>
   <g id="matplotlib.axis_4">
    <g id="ytick_1">
     <g id="line2d_31">
      <defs>
       <path id="mc399a28d75" d="M 0 0 
L -2 0 
" style="stroke: #000000; stroke-width: 0.3"/>
      </defs>
      <g>
       <use xlink:href="#mc399a28d75" x="296.029134" y="192.253064" style="stroke: #000000; stroke-width: 0.3"/>
      </g>
     </g>
     <g id="text_17">
      <!-- 0.230 -->
      <g transform="translate(299.529134 195.116189) scale(0.08 -0.08)">
       <defs>
        <path id="ArialMT-2212" d="M 3381 1997 
L 356 1997 
L 356 2522 
L 3381 2522 
L 3381 1997 
z
" transform="scale(0.015625)"/>
        <path id="ArialMT-30" d="M 266 2259 
Q 266 3072 433 3567 
Q 600 4063 929 4331 
Q 1259 4600 1759 4600 
Q 2128 4600 2406 4451 
Q 2684 4303 2865 4023 
Q 3047 3744 3150 3342 
Q 3253 2941 3253 2259 
Q 3253 1453 3087 958 
Q 2922 463 2592 192 
Q 2263 -78 1759 -78 
Q 1097 -78 719 397 
Q 266 969 266 2259 
z
M 844 2259 
Q 844 1131 1108 757 
Q 1372 384 1759 384 
Q 2147 384 2411 759 
Q 2675 1134 2675 2259 
Q 2675 3391 2411 3762 
Q 2147 4134 1753 4134 
Q 1366 4134 1134 3806 
Q 844 3388 844 2259 
z
" transform="scale(0.015625)"/>
        <path id="ArialMT-2e" d="M 581 0 
L 581 641 
L 1222 641 
L 1222 0 
L 581 0 
z
" transform="scale(0.015625)"/>
        <path id="ArialMT-32" d="M 3222 541 
L 3222 0 
L 194 0 
Q 188 203 259 391 
Q 375 700 629 1000 
Q 884 1300 1366 1694 
Q 2113 2306 2375 2664 
Q 2638 3022 2638 3341 
Q 2638 3675 2398 3904 
Q 2159 4134 1775 4134 
Q 1369 4134 1125 3890 
Q 881 3647 878 3216 
L 300 3275 
Q 359 3922 746 4261 
Q 1134 4600 1788 4600 
Q 2447 4600 2831 4234 
Q 3216 3869 3216 3328 
Q 3216 3053 3103 2787 
Q 2991 2522 2730 2228 
Q 2469 1934 1863 1422 
Q 1356 997 1212 845 
Q 1069 694 975 541 
L 3222 541 
z
" transform="scale(0.015625)"/>
        <path id="ArialMT-33" d="M 269 1209 
L 831 1284 
Q 928 806 1161 595 
Q 1394 384 1728 384 
Q 2125 384 2398 659 
Q 2672 934 2672 1341 
Q 2672 1728 2419 1979 
Q 2166 2231 1775 2231 
Q 1616 2231 1378 2169 
L 1441 2663 
Q 1497 2656 1531 2656 
Q 1891 2656 2178 2843 
Q 2466 3031 2466 3422 
Q 2466 3731 2256 3934 
Q 2047 4138 1716 4138 
Q 1388 4138 1169 3931 
Q 950 3725 888 3313 
L 325 3413 
Q 428 3978 793 4289 
Q 1159 4600 1703 4600 
Q 2078 4600 2393 4439 
Q 2709 4278 2876 4000 
Q 3044 3722 3044 3409 
Q 3044 3113 2884 2869 
Q 2725 2625 2413 2481 
Q 2819 2388 3044 2092 
Q 3269 1797 3269 1353 
Q 3269 753 2831 336 
Q 2394 -81 1725 -81 
Q 1122 -81 723 278 
Q 325 638 269 1209 
z
" transform="scale(0.015625)"/>
       </defs>
       <use xlink:href="#ArialMT-2212"/>
       <use xlink:href="#ArialMT-30" transform="translate(58.398438 0)"/>
       <use xlink:href="#ArialMT-2e" transform="translate(114.013672 0)"/>
       <use xlink:href="#ArialMT-32" transform="translate(141.796875 0)"/>
       <use xlink:href="#ArialMT-33" transform="translate(197.412109 0)"/>
       <use xlink:href="#ArialMT-30" transform="translate(253.027344 0)"/>
      </g>
     </g>
    </g>
    <g id="ytick_2">
     <g id="line2d_32">
      <g>
       <use xlink:href="#mc399a28d75" x="296.029134" y="174.998699" style="stroke: #000000; stroke-width: 0.3"/>
      </g>
     </g>
     <g id="text_18">
      <!-- 0.205 -->
      <g transform="translate(299.529134 177.861824) scale(0.08 -0.08)">
       <defs>
        <path id="ArialMT-35" d="M 266 1200 
L 856 1250 
Q 922 819 1161 601 
Q 1400 384 1738 384 
Q 2144 384 2425 690 
Q 2706 997 2706 1503 
Q 2706 1984 2436 2262 
Q 2166 2541 1728 2541 
Q 1456 2541 1237 2417 
Q 1019 2294 894 2097 
L 366 2166 
L 809 4519 
L 3088 4519 
L 3088 3981 
L 1259 3981 
L 1013 2750 
Q 1425 3038 1878 3038 
Q 2478 3038 2890 2622 
Q 3303 2206 3303 1553 
Q 3303 931 2941 478 
Q 2500 -78 1738 -78 
Q 1113 -78 717 272 
Q 322 622 266 1200 
z
" transform="scale(0.015625)"/>
       </defs>
       <use xlink:href="#ArialMT-2212"/>
       <use xlink:href="#ArialMT-30" transform="translate(58.398438 0)"/>
       <use xlink:href="#ArialMT-2e" transform="translate(114.013672 0)"/>
       <use xlink:href="#ArialMT-32" transform="translate(141.796875 0)"/>
       <use xlink:href="#ArialMT-30" transform="translate(197.412109 0)"/>
       <use xlink:href="#ArialMT-35" transform="translate(253.027344 0)"/>
      </g>
     </g>
    </g>
    <g id="ytick_3">
     <g id="line2d_33">
      <g>
       <use xlink:href="#mc399a28d75" x="296.029134" y="157.744334" style="stroke: #000000; stroke-width: 0.3"/>
      </g>
     </g>
     <g id="text_19">
      <!-- 0.180 -->
      <g transform="translate(299.529134 160.607459) scale(0.08 -0.08)">
       <defs>
        <path id="ArialMT-31" d="M 2384 0 
L 1822 0 
L 1822 3584 
Q 1619 3391 1289 3197 
Q 959 3003 697 2906 
L 697 3450 
Q 1169 3672 1522 3987 
Q 1875 4303 2022 4600 
L 2384 4600 
L 2384 0 
z
" transform="scale(0.015625)"/>
        <path id="ArialMT-38" d="M 1131 2484 
Q 781 2613 612 2850 
Q 444 3088 444 3419 
Q 444 3919 803 4259 
Q 1163 4600 1759 4600 
Q 2359 4600 2725 4251 
Q 3091 3903 3091 3403 
Q 3091 3084 2923 2848 
Q 2756 2613 2416 2484 
Q 2838 2347 3058 2040 
Q 3278 1734 3278 1309 
Q 3278 722 2862 322 
Q 2447 -78 1769 -78 
Q 1091 -78 675 323 
Q 259 725 259 1325 
Q 259 1772 486 2073 
Q 713 2375 1131 2484 
z
M 1019 3438 
Q 1019 3113 1228 2906 
Q 1438 2700 1772 2700 
Q 2097 2700 2305 2904 
Q 2513 3109 2513 3406 
Q 2513 3716 2298 3927 
Q 2084 4138 1766 4138 
Q 1444 4138 1231 3931 
Q 1019 3725 1019 3438 
z
M 838 1322 
Q 838 1081 952 856 
Q 1066 631 1291 507 
Q 1516 384 1775 384 
Q 2178 384 2440 643 
Q 2703 903 2703 1303 
Q 2703 1709 2433 1975 
Q 2163 2241 1756 2241 
Q 1359 2241 1098 1978 
Q 838 1716 838 1322 
z
" transform="scale(0.015625)"/>
       </defs>
       <use xlink:href="#ArialMT-2212"/>
       <use xlink:href="#ArialMT-30" transform="translate(58.398438 0)"/>
       <use xlink:href="#ArialMT-2e" transform="translate(114.013672 0)"/>
       <use xlink:href="#ArialMT-31" transform="translate(141.796875 0)"/>
       <use xlink:href="#ArialMT-38" transform="translate(197.412109 0)"/>
       <use xlink:href="#ArialMT-30" transform="translate(253.027344 0)"/>
      </g>
     </g>
    </g>
    <g id="ytick_4">
     <g id="line2d_34">
      <g>
       <use xlink:href="#mc399a28d75" x="296.029134" y="140.489969" style="stroke: #000000; stroke-width: 0.3"/>
      </g>
     </g>
     <g id="text_20">
      <!-- 0.155 -->
      <g transform="translate(299.529134 143.353094) scale(0.08 -0.08)">
       <use xlink:href="#ArialMT-2212"/>
       <use xlink:href="#ArialMT-30" transform="translate(58.398438 0)"/>
       <use xlink:href="#ArialMT-2e" transform="translate(114.013672 0)"/>
       <use xlink:href="#ArialMT-31" transform="translate(141.796875 0)"/>
       <use xlink:href="#ArialMT-35" transform="translate(197.412109 0)"/>
       <use xlink:href="#ArialMT-35" transform="translate(253.027344 0)"/>
      </g>
     </g>
    </g>
    <g id="ytick_5">
     <g id="line2d_35">
      <g>
       <use xlink:href="#mc399a28d75" x="296.029134" y="123.235604" style="stroke: #000000; stroke-width: 0.3"/>
      </g>
     </g>
     <g id="text_21">
      <!-- 0.130 -->
      <g transform="translate(299.529134 126.098729) scale(0.08 -0.08)">
       <use xlink:href="#ArialMT-2212"/>
       <use xlink:href="#ArialMT-30" transform="translate(58.398438 0)"/>
       <use xlink:href="#ArialMT-2e" transform="translate(114.013672 0)"/>
       <use xlink:href="#ArialMT-31" transform="translate(141.796875 0)"/>
       <use xlink:href="#ArialMT-33" transform="translate(197.412109 0)"/>
       <use xlink:href="#ArialMT-30" transform="translate(253.027344 0)"/>
      </g>
     </g>
    </g>
    <g id="ytick_6">
     <g id="line2d_36">
      <g>
       <use xlink:href="#mc399a28d75" x="296.029134" y="105.981239" style="stroke: #000000; stroke-width: 0.3"/>
      </g>
     </g>
     <g id="text_22">
      <!-- 0.105 -->
      <g transform="translate(299.529134 108.844364) scale(0.08 -0.08)">
       <use xlink:href="#ArialMT-2212"/>
       <use xlink:href="#ArialMT-30" transform="translate(58.398438 0)"/>
       <use xlink:href="#ArialMT-2e" transform="translate(114.013672 0)"/>
       <use xlink:href="#ArialMT-31" transform="translate(141.796875 0)"/>
       <use xlink:href="#ArialMT-30" transform="translate(197.412109 0)"/>
       <use xlink:href="#ArialMT-35" transform="translate(253.027344 0)"/>
      </g>
     </g>
    </g>
    <g id="ytick_7">
     <g id="line2d_37">
      <g>
       <use xlink:href="#mc399a28d75" x="296.029134" y="88.726874" style="stroke: #000000; stroke-width: 0.3"/>
      </g>
     </g>
     <g id="text_23">
      <!-- 0.080 -->
      <g transform="translate(299.529134 91.589999) scale(0.08 -0.08)">
       <use xlink:href="#ArialMT-2212"/>
       <use xlink:href="#ArialMT-30" transform="translate(58.398438 0)"/>
       <use xlink:href="#ArialMT-2e" transform="translate(114.013672 0)"/>
       <use xlink:href="#ArialMT-30" transform="translate(141.796875 0)"/>
       <use xlink:href="#ArialMT-38" transform="translate(197.412109 0)"/>
       <use xlink:href="#ArialMT-30" transform="translate(253.027344 0)"/>
      </g>
     </g>
    </g>
    <g id="ytick_8">
     <g id="line2d_38">
      <g>
       <use xlink:href="#mc399a28d75" x="296.029134" y="71.472509" style="stroke: #000000; stroke-width: 0.3"/>
      </g>
     </g>
     <g id="text_24">
      <!-- 0.055 -->
      <g transform="translate(299.529134 74.335634) scale(0.08 -0.08)">
       <use xlink:href="#ArialMT-2212"/>
       <use xlink:href="#ArialMT-30" transform="translate(58.398438 0)"/>
       <use xlink:href="#ArialMT-2e" transform="translate(114.013672 0)"/>
       <use xlink:href="#ArialMT-30" transform="translate(141.796875 0)"/>
       <use xlink:href="#ArialMT-35" transform="translate(197.412109 0)"/>
       <use xlink:href="#ArialMT-35" transform="translate(253.027344 0)"/>
      </g>
     </g>
    </g>
    <g id="ytick_9">
     <g id="line2d_39">
      <g>
       <use xlink:href="#mc399a28d75" x="296.029134" y="54.218144" style="stroke: #000000; stroke-width: 0.3"/>
      </g>
     </g>
     <g id="text_25">
      <!-- 0.030 -->
      <g transform="translate(299.529134 57.081269) scale(0.08 -0.08)">
       <use xlink:href="#ArialMT-2212"/>
       <use xlink:href="#ArialMT-30" transform="translate(58.398438 0)"/>
       <use xlink:href="#ArialMT-2e" transform="translate(114.013672 0)"/>
       <use xlink:href="#ArialMT-30" transform="translate(141.796875 0)"/>
       <use xlink:href="#ArialMT-33" transform="translate(197.412109 0)"/>
       <use xlink:href="#ArialMT-30" transform="translate(253.027344 0)"/>
      </g>
     </g>
    </g>
    <g id="ytick_10">
     <g id="line2d_40">
      <g>
       <use xlink:href="#mc399a28d75" x="296.029134" y="36.96378" style="stroke: #000000; stroke-width: 0.3"/>
      </g>
     </g>
     <g id="text_26">
      <!-- 0.005 -->
      <g transform="translate(299.529134 39.826905) scale(0.08 -0.08)">
       <use xlink:href="#ArialMT-2212"/>
       <use xlink:href="#ArialMT-30" transform="translate(58.398438 0)"/>
       <use xlink:href="#ArialMT-2e" transform="translate(114.013672 0)"/>
       <use xlink:href="#ArialMT-30" transform="translate(141.796875 0)"/>
       <use xlink:href="#ArialMT-30" transform="translate(197.412109 0)"/>
       <use xlink:href="#ArialMT-35" transform="translate(253.027344 0)"/>
      </g>
     </g>
    </g>
    <g id="text_27">
     <!-- Formation Energy (eV/atom) -->
     <g transform="translate(335.498821 179.408077) rotate(-90) scale(0.1 -0.1)">
      <defs>
       <path id="ArialMT-46" d="M 525 0 
L 525 4581 
L 3616 4581 
L 3616 4041 
L 1131 4041 
L 1131 2622 
L 3281 2622 
L 3281 2081 
L 1131 2081 
L 1131 0 
L 525 0 
z
" transform="scale(0.015625)"/>
       <path id="ArialMT-6f" d="M 213 1659 
Q 213 2581 725 3025 
Q 1153 3394 1769 3394 
Q 2453 3394 2887 2945 
Q 3322 2497 3322 1706 
Q 3322 1066 3130 698 
Q 2938 331 2570 128 
Q 2203 -75 1769 -75 
Q 1072 -75 642 372 
Q 213 819 213 1659 
z
M 791 1659 
Q 791 1022 1069 705 
Q 1347 388 1769 388 
Q 2188 388 2466 706 
Q 2744 1025 2744 1678 
Q 2744 2294 2464 2611 
Q 2184 2928 1769 2928 
Q 1347 2928 1069 2612 
Q 791 2297 791 1659 
z
" transform="scale(0.015625)"/>
       <path id="ArialMT-72" d="M 416 0 
L 416 3319 
L 922 3319 
L 922 2816 
Q 1116 3169 1280 3281 
Q 1444 3394 1641 3394 
Q 1925 3394 2219 3213 
L 2025 2691 
Q 1819 2813 1613 2813 
Q 1428 2813 1281 2702 
Q 1134 2591 1072 2394 
Q 978 2094 978 1738 
L 978 0 
L 416 0 
z
" transform="scale(0.015625)"/>
       <path id="ArialMT-6d" d="M 422 0 
L 422 3319 
L 925 3319 
L 925 2853 
Q 1081 3097 1340 3245 
Q 1600 3394 1931 3394 
Q 2300 3394 2536 3241 
Q 2772 3088 2869 2813 
Q 3263 3394 3894 3394 
Q 4388 3394 4653 3120 
Q 4919 2847 4919 2278 
L 4919 0 
L 4359 0 
L 4359 2091 
Q 4359 2428 4304 2576 
Q 4250 2725 4106 2815 
Q 3963 2906 3769 2906 
Q 3419 2906 3187 2673 
Q 2956 2441 2956 1928 
L 2956 0 
L 2394 0 
L 2394 2156 
Q 2394 2531 2256 2718 
Q 2119 2906 1806 2906 
Q 1569 2906 1367 2781 
Q 1166 2656 1075 2415 
Q 984 2175 984 1722 
L 984 0 
L 422 0 
z
" transform="scale(0.015625)"/>
       <path id="ArialMT-61" d="M 2588 409 
Q 2275 144 1986 34 
Q 1697 -75 1366 -75 
Q 819 -75 525 192 
Q 231 459 231 875 
Q 231 1119 342 1320 
Q 453 1522 633 1644 
Q 813 1766 1038 1828 
Q 1203 1872 1538 1913 
Q 2219 1994 2541 2106 
Q 2544 2222 2544 2253 
Q 2544 2597 2384 2738 
Q 2169 2928 1744 2928 
Q 1347 2928 1158 2789 
Q 969 2650 878 2297 
L 328 2372 
Q 403 2725 575 2942 
Q 747 3159 1072 3276 
Q 1397 3394 1825 3394 
Q 2250 3394 2515 3294 
Q 2781 3194 2906 3042 
Q 3031 2891 3081 2659 
Q 3109 2516 3109 2141 
L 3109 1391 
Q 3109 606 3145 398 
Q 3181 191 3288 0 
L 2700 0 
Q 2613 175 2588 409 
z
M 2541 1666 
Q 2234 1541 1622 1453 
Q 1275 1403 1131 1340 
Q 988 1278 909 1158 
Q 831 1038 831 891 
Q 831 666 1001 516 
Q 1172 366 1500 366 
Q 1825 366 2078 508 
Q 2331 650 2450 897 
Q 2541 1088 2541 1459 
L 2541 1666 
z
" transform="scale(0.015625)"/>
       <path id="ArialMT-74" d="M 1650 503 
L 1731 6 
Q 1494 -44 1306 -44 
Q 1000 -44 831 53 
Q 663 150 594 308 
Q 525 466 525 972 
L 525 2881 
L 113 2881 
L 113 3319 
L 525 3319 
L 525 4141 
L 1084 4478 
L 1084 3319 
L 1650 3319 
L 1650 2881 
L 1084 2881 
L 1084 941 
Q 1084 700 1114 631 
Q 1144 563 1211 522 
Q 1278 481 1403 481 
Q 1497 481 1650 503 
z
" transform="scale(0.015625)"/>
       <path id="ArialMT-69" d="M 425 3934 
L 425 4581 
L 988 4581 
L 988 3934 
L 425 3934 
z
M 425 0 
L 425 3319 
L 988 3319 
L 988 0 
L 425 0 
z
" transform="scale(0.015625)"/>
       <path id="ArialMT-6e" d="M 422 0 
L 422 3319 
L 928 3319 
L 928 2847 
Q 1294 3394 1984 3394 
Q 2284 3394 2536 3286 
Q 2788 3178 2913 3003 
Q 3038 2828 3088 2588 
Q 3119 2431 3119 2041 
L 3119 0 
L 2556 0 
L 2556 2019 
Q 2556 2363 2490 2533 
Q 2425 2703 2258 2804 
Q 2091 2906 1866 2906 
Q 1506 2906 1245 2678 
Q 984 2450 984 1813 
L 984 0 
L 422 0 
z
" transform="scale(0.015625)"/>
       <path id="ArialMT-20" transform="scale(0.015625)"/>
       <path id="ArialMT-45" d="M 506 0 
L 506 4581 
L 3819 4581 
L 3819 4041 
L 1113 4041 
L 1113 2638 
L 3647 2638 
L 3647 2100 
L 1113 2100 
L 1113 541 
L 3925 541 
L 3925 0 
L 506 0 
z
" transform="scale(0.015625)"/>
       <path id="ArialMT-65" d="M 2694 1069 
L 3275 997 
Q 3138 488 2766 206 
Q 2394 -75 1816 -75 
Q 1088 -75 661 373 
Q 234 822 234 1631 
Q 234 2469 665 2931 
Q 1097 3394 1784 3394 
Q 2450 3394 2872 2941 
Q 3294 2488 3294 1666 
Q 3294 1616 3291 1516 
L 816 1516 
Q 847 969 1125 678 
Q 1403 388 1819 388 
Q 2128 388 2347 550 
Q 2566 713 2694 1069 
z
M 847 1978 
L 2700 1978 
Q 2663 2397 2488 2606 
Q 2219 2931 1791 2931 
Q 1403 2931 1139 2672 
Q 875 2413 847 1978 
z
" transform="scale(0.015625)"/>
       <path id="ArialMT-67" d="M 319 -275 
L 866 -356 
Q 900 -609 1056 -725 
Q 1266 -881 1628 -881 
Q 2019 -881 2231 -725 
Q 2444 -569 2519 -288 
Q 2563 -116 2559 434 
Q 2191 0 1641 0 
Q 956 0 581 494 
Q 206 988 206 1678 
Q 206 2153 378 2554 
Q 550 2956 876 3175 
Q 1203 3394 1644 3394 
Q 2231 3394 2613 2919 
L 2613 3319 
L 3131 3319 
L 3131 450 
Q 3131 -325 2973 -648 
Q 2816 -972 2473 -1159 
Q 2131 -1347 1631 -1347 
Q 1038 -1347 672 -1080 
Q 306 -813 319 -275 
z
M 784 1719 
Q 784 1066 1043 766 
Q 1303 466 1694 466 
Q 2081 466 2343 764 
Q 2606 1063 2606 1700 
Q 2606 2309 2336 2618 
Q 2066 2928 1684 2928 
Q 1309 2928 1046 2623 
Q 784 2319 784 1719 
z
" transform="scale(0.015625)"/>
       <path id="ArialMT-79" d="M 397 -1278 
L 334 -750 
Q 519 -800 656 -800 
Q 844 -800 956 -737 
Q 1069 -675 1141 -563 
Q 1194 -478 1313 -144 
Q 1328 -97 1363 -6 
L 103 3319 
L 709 3319 
L 1400 1397 
Q 1534 1031 1641 628 
Q 1738 1016 1872 1384 
L 2581 3319 
L 3144 3319 
L 1881 -56 
Q 1678 -603 1566 -809 
Q 1416 -1088 1222 -1217 
Q 1028 -1347 759 -1347 
Q 597 -1347 397 -1278 
z
" transform="scale(0.015625)"/>
       <path id="ArialMT-28" d="M 1497 -1347 
Q 1031 -759 709 28 
Q 388 816 388 1659 
Q 388 2403 628 3084 
Q 909 3875 1497 4659 
L 1900 4659 
Q 1522 4009 1400 3731 
Q 1209 3300 1100 2831 
Q 966 2247 966 1656 
Q 966 153 1900 -1347 
L 1497 -1347 
z
" transform="scale(0.015625)"/>
       <path id="ArialMT-56" d="M 1803 0 
L 28 4581 
L 684 4581 
L 1875 1253 
Q 2019 853 2116 503 
Q 2222 878 2363 1253 
L 3600 4581 
L 4219 4581 
L 2425 0 
L 1803 0 
z
" transform="scale(0.015625)"/>
       <path id="ArialMT-2f" d="M 0 -78 
L 1328 4659 
L 1778 4659 
L 453 -78 
L 0 -78 
z
" transform="scale(0.015625)"/>
       <path id="ArialMT-29" d="M 791 -1347 
L 388 -1347 
Q 1322 153 1322 1656 
Q 1322 2244 1188 2822 
Q 1081 3291 891 3722 
Q 769 4003 388 4659 
L 791 4659 
Q 1378 3875 1659 3084 
Q 1900 2403 1900 1659 
Q 1900 816 1576 28 
Q 1253 -759 791 -1347 
z
" transform="scale(0.015625)"/>
      </defs>
      <use xlink:href="#ArialMT-46"/>
      <use xlink:href="#ArialMT-6f" transform="translate(61.083984 0)"/>
      <use xlink:href="#ArialMT-72" transform="translate(116.699219 0)"/>
      <use xlink:href="#ArialMT-6d" transform="translate(150 0)"/>
      <use xlink:href="#ArialMT-61" transform="translate(233.300781 0)"/>
      <use xlink:href="#ArialMT-74" transform="translate(288.916016 0)"/>
      <use xlink:href="#ArialMT-69" transform="translate(316.699219 0)"/>
      <use xlink:href="#ArialMT-6f" transform="translate(338.916016 0)"/>
      <use xlink:href="#ArialMT-6e" transform="translate(394.53125 0)"/>
      <use xlink:href="#ArialMT-20" transform="translate(450.146484 0)"/>
      <use xlink:href="#ArialMT-45" transform="translate(477.929688 0)"/>
      <use xlink:href="#ArialMT-6e" transform="translate(544.628906 0)"/>
      <use xlink:href="#ArialMT-65" transform="translate(600.244141 0)"/>
      <use xlink:href="#ArialMT-72" transform="translate(655.859375 0)"/>
      <use xlink:href="#ArialMT-67" transform="translate(689.160156 0)"/>
      <use xlink:href="#ArialMT-79" transform="translate(744.775391 0)"/>
      <use xlink:href="#ArialMT-20" transform="translate(794.775391 0)"/>
      <use xlink:href="#ArialMT-28" transform="translate(822.558594 0)"/>
      <use xlink:href="#ArialMT-65" transform="translate(855.859375 0)"/>
      <use xlink:href="#ArialMT-56" transform="translate(911.474609 0)"/>
      <use xlink:href="#ArialMT-2f" transform="translate(978.173828 0)"/>
      <use xlink:href="#ArialMT-61" transform="translate(1005.957031 0)"/>
      <use xlink:href="#ArialMT-74" transform="translate(1061.572266 0)"/>
      <use xlink:href="#ArialMT-6f" transform="translate(1089.355469 0)"/>
      <use xlink:href="#ArialMT-6d" transform="translate(1144.970703 0)"/>
      <use xlink:href="#ArialMT-29" transform="translate(1228.271484 0)"/>
     </g>
    </g>
   </g>
   <g id="LineCollection_1"/>
   <g id="patch_6">
    <path d="M 287.298425 195.703937 
L 291.66378 203.640945 
L 296.029134 195.703937 
L 296.029134 36.96378 
L 291.66378 29.026772 
L 287.298425 36.96378 
L 287.298425 195.703937 
z
" style="fill: none; stroke: #000000; stroke-width: 0.8; stroke-linejoin: miter; stroke-linecap: square"/>
   </g>
  </g>
 </g>
 <defs>
  <clipPath id="p97cd7a739b">
   <rect x="7.2" y="7.2" width="263.622047" height="218.267717"/>
  </clipPath>
  <clipPath id="p32bec7cb68">
   <rect x="287.298425" y="36.96378" width="8.730709" height="158.740157"/>
  </clipPath>
 </defs>
</svg>
