<?xml version="1.0" encoding="utf-8" standalone="no"?>
<!DOCTYPE svg PUBLIC "-//W3C//DTD SVG 1.1//EN"
  "http://www.w3.org/Graphics/SVG/1.1/DTD/svg11.dtd">
<svg xmlns:xlink="http://www.w3.org/1999/xlink" width="340.354759pt" height="232.667717pt" viewBox="0 0 340.354759 232.667717" xmlns="http://www.w3.org/2000/svg" version="1.1">
 <metadata>
  <rdf:RDF xmlns:dc="http://purl.org/dc/elements/1.1/" xmlns:cc="http://creativecommons.org/ns#" xmlns:rdf="http://www.w3.org/1999/02/22-rdf-syntax-ns#">
   <cc:Work>
    <dc:type rdf:resource="http://purl.org/dc/dcmitype/StillImage"/>
    <dc:date>2026-01-27T21:37:23.915370</dc:date>
    <dc:format>image/svg+xml</dc:format>
    <dc:creator>
     <cc:Agent>
      <dc:title>Matplotlib v3.10.8, https://matplotlib.org/</dc:title>
     </cc:Agent>
    </dc:creator>
   </cc:Work>
  </rdf:RDF>
 </metadata>
 <defs>
  <style type="text/css">*{stroke-linejoin: round; stroke-linecap: butt}</style>
 </defs>
 <g id="figure_1">
  <g id="patch_1">
   <path d="M 0 232.667717 
L 340.354759 232.667717 
L 340.354759 0 
L 0 0 
L 0 232.667717 
z
" style="fill: none"/>
  </g>
  <g id="axes_1">
   <g id="patch_2">
    <path d="M 7.2 225.467717 
L 270.822047 225.467717 
L 270.822047 7.2 
L 7.2 7.2 
L 7.2 225.467717 
z
" style="fill: none"/>
   </g>
   <g id="TriContourSet_1">
    <path d="M 179.522158 214.554331 
L 179.057924 213.075461 
L 178.104986 212.545963 
L 177.867855 212.841351 
L 177.832821 214.554331 
L 178.953758 214.554331 
z
" clip-path="url(#p753129bbff)" style="fill: #440154; fill-opacity: 0.7"/>
    <path d="M 177.832821 214.554331 
L 177.867855 212.841351 
L 178.104986 212.545963 
L 179.057924 213.075461 
L 179.522158 214.554331 
L 181.991613 214.554331 
L 179.510482 206.650397 
L 174.417433 203.820456 
L 173.150064 205.399179 
L 172.962826 214.554331 
z
" clip-path="url(#p753129bbff)" style="fill: #450457; fill-opacity: 0.7"/>
    <path d="M 172.962826 214.554331 
L 173.150064 205.399179 
L 174.417433 203.820456 
L 179.510482 206.650397 
L 181.991613 214.554331 
L 184.461069 214.554331 
L 179.963039 200.225333 
L 170.729879 195.094948 
L 168.432274 197.957006 
L 168.09283 214.554331 
z
" clip-path="url(#p753129bbff)" style="fill: #470d60; fill-opacity: 0.7"/>
    <path d="M 168.09283 214.554331 
L 168.432274 197.957006 
L 170.729879 195.094948 
L 179.963039 200.225333 
L 184.461069 214.554331 
L 186.930524 214.554331 
L 180.415597 193.800269 
L 167.042325 186.36944 
L 163.714484 190.514834 
L 163.222835 214.554331 
z
" clip-path="url(#p753129bbff)" style="fill: #481467; fill-opacity: 0.7"/>
    <path d="M 163.222835 214.554331 
L 163.714484 190.514834 
L 167.042325 186.36944 
L 180.415597 193.800269 
L 186.930524 214.554331 
L 189.39998 214.554331 
L 180.868155 187.375205 
L 163.354772 177.643933 
L 158.996693 183.072661 
L 158.352839 214.554331 
z
" clip-path="url(#p753129bbff)" style="fill: #481c6e; fill-opacity: 0.7"/>
    <path d="M 158.352839 214.554331 
L 158.996693 183.072661 
L 163.354772 177.643933 
L 180.868155 187.375205 
L 189.39998 214.554331 
L 191.869436 214.554331 
L 181.320712 180.95014 
L 159.667218 168.918425 
L 154.278903 175.630489 
L 153.482844 214.554331 
z
" clip-path="url(#p753129bbff)" style="fill: #482374; fill-opacity: 0.7"/>
    <path d="M 153.482844 214.554331 
L 154.278903 175.630489 
L 159.667218 168.918425 
L 181.320712 180.95014 
L 191.869436 214.554331 
L 194.338891 214.554331 
L 181.77327 174.525076 
L 155.979664 160.192918 
L 149.561112 168.188316 
L 148.612848 214.554331 
z
" clip-path="url(#p753129bbff)" style="fill: #482979; fill-opacity: 0.7"/>
    <path d="M 148.612848 214.554331 
L 149.561112 168.188316 
L 155.979664 160.192918 
L 181.77327 174.525076 
L 194.338891 214.554331 
L 196.808347 214.554331 
L 182.225827 168.100012 
L 152.292111 151.46741 
L 144.843322 160.746144 
L 143.742853 214.554331 
z
" clip-path="url(#p753129bbff)" style="fill: #46307e; fill-opacity: 0.7"/>
    <path d="M 143.742853 214.554331 
L 144.843322 160.746144 
L 152.292111 151.46741 
L 182.225827 168.100012 
L 196.808347 214.554331 
L 198.925125 214.554331 
L 199.052821 214.15146 
L 198.565522 212.285279 
L 182.678385 161.674948 
L 148.604557 142.741902 
L 140.125532 153.303971 
L 139.011024 207.798594 
L 138.904109 214.21702 
L 138.918469 214.554331 
L 139.011024 214.554331 
z
M 199.138281 214.554331 
L 199.052821 214.15146 
L 198.982333 213.83238 
L 198.565522 212.285279 
L 198.925125 214.554331 
z
" clip-path="url(#p753129bbff)" style="fill: #453781; fill-opacity: 0.7"/>
    <path d="M 138.918469 214.554331 
L 138.904109 214.21702 
L 139.011024 207.798594 
L 140.125532 153.303971 
L 148.604557 142.741902 
L 182.678385 161.674948 
L 198.565522 212.285279 
L 199.052821 214.15146 
L 199.946946 211.330547 
L 196.047572 196.397315 
L 183.130943 155.249884 
L 144.917003 134.016395 
L 139.011024 141.373297 
L 136.059102 146.889301 
L 135.135635 202.327714 
L 135.656165 214.554331 
z
M 198.565522 212.285279 
L 198.982333 213.83238 
L 199.052821 214.15146 
L 199.138281 214.554331 
L 200.630805 214.554331 
L 199.946946 211.330547 
L 199.382905 208.777259 
L 196.047572 196.397315 
z
" clip-path="url(#p753129bbff)" style="fill: #433e85; fill-opacity: 0.7"/>
    <path d="M 135.656165 214.554331 
L 135.135635 202.327714 
L 136.059102 146.889301 
L 139.011024 141.373297 
L 144.917003 134.016395 
L 183.130943 155.249884 
L 196.047572 196.397315 
L 199.946946 211.330547 
L 200.841072 208.509633 
L 193.529621 180.509351 
L 183.5835 148.82482 
L 141.229449 125.290887 
L 139.011024 128.054314 
L 132.194141 140.792441 
L 131.367162 190.438408 
L 132.393861 214.554331 
z
M 196.047572 196.397315 
L 199.382905 208.777259 
L 199.946946 211.330547 
L 200.630805 214.554331 
L 202.123328 214.554331 
L 200.841072 208.509633 
L 199.783477 203.722139 
L 193.529621 180.509351 
z
" clip-path="url(#p753129bbff)" style="fill: #414487; fill-opacity: 0.7"/>
    <path d="M 132.393861 214.554331 
L 131.367162 190.438408 
L 132.194141 140.792441 
L 139.011024 128.054314 
L 141.229449 125.290887 
L 183.5835 148.82482 
L 193.529621 180.509351 
L 200.841072 208.509633 
L 201.735198 205.68872 
L 191.011671 164.621387 
L 184.036058 142.399756 
L 145.695957 121.096165 
L 138.545005 118.571376 
L 137.014182 118.466658 
L 128.32918 134.695582 
L 127.598689 178.549102 
L 129.131556 214.554331 
z
M 193.529621 180.509351 
L 199.783477 203.722139 
L 200.841072 208.509633 
L 202.123328 214.554331 
L 203.615852 214.554331 
L 201.735198 205.68872 
L 200.184049 198.667019 
L 191.011671 164.621387 
z
" clip-path="url(#p753129bbff)" style="fill: #3e4a89; fill-opacity: 0.7"/>
    <path d="M 129.131556 214.554331 
L 127.598689 178.549102 
L 128.32918 134.695582 
L 137.014182 118.466658 
L 138.545005 118.571376 
L 145.695957 121.096165 
L 184.036058 142.399756 
L 191.011671 164.621387 
L 201.735198 205.68872 
L 202.629324 202.867807 
L 188.493721 148.733423 
L 184.488615 135.974692 
L 162.475333 123.743061 
L 137.375284 114.880977 
L 132.002052 114.513416 
L 124.464219 128.598722 
L 123.830216 166.659795 
L 125.869252 214.554331 
z
M 191.011671 164.621387 
L 200.184049 198.667019 
L 201.735198 205.68872 
L 203.615852 214.554331 
L 205.108376 214.554331 
L 202.629324 202.867807 
L 200.584621 193.611898 
L 188.493721 148.733423 
z
" clip-path="url(#p753129bbff)" style="fill: #3c508b; fill-opacity: 0.7"/>
    <path d="M 125.869252 214.554331 
L 123.830216 166.659795 
L 124.464219 128.598722 
L 132.002052 114.513416 
L 137.375284 114.880977 
L 162.475333 123.743061 
L 184.488615 135.974692 
L 188.493721 148.733423 
L 202.629324 202.867807 
L 203.52345 200.046894 
L 185.97577 132.845458 
L 184.941173 129.549628 
L 179.25471 126.389958 
L 136.205563 111.190578 
L 126.989922 110.560174 
L 120.599258 122.501862 
L 120.061743 154.770489 
L 122.606948 214.554331 
z
M 188.493721 148.733423 
L 200.584621 193.611898 
L 202.629324 202.867807 
L 205.108376 214.554331 
L 206.600899 214.554331 
L 203.52345 200.046894 
L 200.985193 188.556778 
L 185.97577 132.845458 
z
" clip-path="url(#p753129bbff)" style="fill: #39568c; fill-opacity: 0.7"/>
    <path d="M 122.606948 214.554331 
L 120.061743 154.770489 
L 120.599258 122.501862 
L 126.989922 110.560174 
L 136.205563 111.190578 
L 179.25471 126.389958 
L 184.941173 129.549628 
L 185.97577 132.845458 
L 203.52345 200.046894 
L 204.417576 197.22598 
L 186.406375 128.249421 
L 185.098794 127.311844 
L 185.97577 132.845458 
L 200.985193 188.556778 
L 203.52345 200.046894 
L 206.600899 214.554331 
L 208.093423 214.554331 
L 204.417576 197.22598 
L 201.385764 183.501657 
L 187.096395 130.463 
L 186.406375 128.249421 
L 185.775841 126.955837 
L 184.66483 125.258151 
L 184.429434 125.049212 
L 182.093864 124.114974 
L 135.035842 107.500179 
L 121.977792 106.606931 
L 116.734297 116.405002 
L 116.29327 142.881183 
L 119.344644 214.554331 
z
" clip-path="url(#p753129bbff)" style="fill: #365c8d; fill-opacity: 0.7"/>
    <path d="M 119.344644 214.554331 
L 116.29327 142.881183 
L 116.734297 116.405002 
L 121.977792 106.606931 
L 135.035842 107.500179 
L 182.093864 124.114974 
L 184.429434 125.049212 
L 184.66483 125.258151 
L 185.775841 126.955837 
L 186.406375 128.249421 
L 187.096395 130.463 
L 201.385764 183.501657 
L 204.417576 197.22598 
L 208.093423 214.554331 
L 209.585947 214.554331 
L 205.311701 194.405067 
L 201.786336 178.446537 
L 190.161563 135.29821 
L 188.412758 129.688062 
L 186.814719 126.409571 
L 183.998946 122.106913 
L 183.402352 121.577374 
L 177.483026 119.209618 
L 133.866122 103.80978 
L 116.965661 102.653689 
L 112.869336 110.308143 
L 112.524796 130.991877 
L 116.082339 214.554331 
z
M 205.311701 194.405067 
L 188.412758 129.688062 
L 186.406375 128.249421 
L 204.417576 197.22598 
z
" clip-path="url(#p753129bbff)" style="fill: #34618d; fill-opacity: 0.7"/>
    <path d="M 116.082339 214.554331 
L 112.524796 130.991877 
L 112.869336 110.308143 
L 116.965661 102.653689 
L 133.866122 103.80978 
L 177.483026 119.209618 
L 183.402352 121.577374 
L 183.998946 122.106913 
L 186.814719 126.409571 
L 188.412758 129.688062 
L 190.161563 135.29821 
L 201.786336 178.446537 
L 205.311701 194.405067 
L 209.585947 214.554331 
L 211.07847 214.554331 
L 206.205827 191.584154 
L 202.186908 173.391417 
L 193.22673 140.133419 
L 190.419141 131.126702 
L 187.853596 125.863305 
L 183.333062 118.955676 
L 182.37527 118.105536 
L 172.872188 114.304263 
L 132.696401 100.119382 
L 111.953531 98.700447 
L 109.004375 104.211283 
L 108.756323 119.102571 
L 111.695006 188.128738 
L 113.044545 214.554331 
L 115.045383 214.554331 
z
M 206.205827 191.584154 
L 190.419141 131.126702 
L 188.412758 129.688062 
L 205.311701 194.405067 
z
" clip-path="url(#p753129bbff)" style="fill: #31678e; fill-opacity: 0.7"/>
    <path d="M 113.044545 214.554331 
L 111.695006 188.128738 
L 108.756323 119.102571 
L 109.004375 104.211283 
L 111.953531 98.700447 
L 132.696401 100.119382 
L 172.872188 114.304263 
L 182.37527 118.105536 
L 183.333062 118.955676 
L 187.853596 125.863305 
L 190.419141 131.126702 
L 193.22673 140.133419 
L 202.186908 173.391417 
L 206.205827 191.584154 
L 211.07847 214.554331 
L 212.570994 214.554331 
L 207.099953 188.76324 
L 202.58748 168.336296 
L 196.291898 144.968629 
L 192.425524 132.565342 
L 188.892473 125.317039 
L 182.667178 115.804439 
L 181.348188 114.633698 
L 168.26135 109.398908 
L 131.52668 96.428983 
L 106.941401 94.747204 
L 105.139414 98.114423 
L 104.98785 107.213265 
L 106.783438 149.389479 
L 110.111366 214.554331 
z
M 207.099953 188.76324 
L 192.425524 132.565342 
L 190.419141 131.126702 
L 206.205827 191.584154 
z
" clip-path="url(#p753129bbff)" style="fill: #2f6c8e; fill-opacity: 0.7"/>
    <path d="M 110.111366 214.554331 
L 106.783438 149.389479 
L 104.98785 107.213265 
L 105.139414 98.114423 
L 106.941401 94.747204 
L 131.52668 96.428983 
L 168.26135 109.398908 
L 181.348188 114.633698 
L 182.667178 115.804439 
L 188.892473 125.317039 
L 192.425524 132.565342 
L 196.291898 144.968629 
L 202.58748 168.336296 
L 207.099953 188.76324 
L 212.570994 214.554331 
L 214.063518 214.554331 
L 207.994079 185.942327 
L 202.988052 163.281176 
L 199.357065 149.803838 
L 194.431907 134.003983 
L 189.931351 124.770773 
L 182.001294 112.653202 
L 180.321106 111.161861 
L 163.650512 104.493552 
L 130.356959 92.738584 
L 101.929271 90.793962 
L 101.274453 92.017563 
L 101.219377 95.323958 
L 101.871869 110.65022 
L 107.178187 214.554331 
z
M 207.994079 185.942327 
L 194.431907 134.003983 
L 192.425524 132.565342 
L 207.099953 188.76324 
z
" clip-path="url(#p753129bbff)" style="fill: #2c718e; fill-opacity: 0.7"/>
    <path d="M 97.903258 90.375208 
L 104.245008 214.554331 
L 107.178187 214.554331 
L 101.871869 110.65022 
L 101.219377 95.323958 
L 101.274453 92.017563 
L 101.929271 90.793962 
L 130.356959 92.738584 
L 163.650512 104.493552 
L 180.321106 111.161861 
L 182.001294 112.653202 
L 189.931351 124.770773 
L 194.431907 134.003983 
L 199.357065 149.803838 
L 202.988052 163.281176 
L 207.994079 185.942327 
L 214.063518 214.554331 
L 215.556041 214.554331 
L 208.888205 183.121414 
L 203.388624 158.226055 
L 202.422233 154.639048 
L 196.43829 135.442623 
L 190.970228 124.224507 
L 181.335409 109.501965 
L 179.294024 107.690023 
L 159.039675 99.588197 
L 129.187238 89.048185 
L 100.009754 87.052273 
L 99.068289 88.537406 
z
M 208.888205 183.121414 
L 196.43829 135.442623 
L 194.431907 134.003983 
L 207.994079 185.942327 
z
" clip-path="url(#p753129bbff)" style="fill: #2a768e; fill-opacity: 0.7"/>
    <path d="M 100.009754 87.052273 
L 129.187238 89.048185 
L 159.039675 99.588197 
L 179.294024 107.690023 
L 181.335409 109.501965 
L 190.970228 124.224507 
L 196.43829 135.442623 
L 202.422233 154.639048 
L 203.388624 158.226055 
L 208.888205 183.121414 
L 215.556041 214.554331 
L 217.048565 214.554331 
L 209.782331 180.300501 
L 204.437899 156.107468 
L 198.444673 136.881264 
L 192.009105 123.678241 
L 180.669525 106.350728 
L 178.266942 104.218185 
L 154.428837 94.682841 
L 128.017517 85.357786 
L 102.203348 83.591945 
z
M 95.18876 94.657246 
L 101.311829 214.554331 
L 104.245008 214.554331 
L 97.903258 90.375208 
z
M 209.782331 180.300501 
L 198.444673 136.881264 
L 196.43829 135.442623 
L 208.888205 183.121414 
z
" clip-path="url(#p753129bbff)" style="fill: #287c8e; fill-opacity: 0.7"/>
    <path d="M 102.203348 83.591945 
L 128.017517 85.357786 
L 154.428837 94.682841 
L 178.266942 104.218185 
L 180.669525 106.350728 
L 192.009105 123.678241 
L 198.444673 136.881264 
L 204.437899 156.107468 
L 209.782331 180.300501 
L 217.048565 214.554331 
L 218.541089 214.554331 
L 210.676457 177.479587 
L 205.856329 155.659961 
L 200.451056 138.319904 
L 193.047983 123.131976 
L 180.003641 103.199491 
L 177.23986 100.746347 
L 149.817999 89.777486 
L 126.847797 81.667388 
L 104.396942 80.131616 
z
M 92.474262 98.939285 
L 98.37865 214.554331 
L 101.311829 214.554331 
L 95.18876 94.657246 
z
M 210.676457 177.479587 
L 200.451056 138.319904 
L 198.444673 136.881264 
L 209.782331 180.300501 
z
" clip-path="url(#p753129bbff)" style="fill: #26818e; fill-opacity: 0.7"/>
    <path d="M 104.396942 80.131616 
L 126.847797 81.667388 
L 149.817999 89.777486 
L 177.23986 100.746347 
L 180.003641 103.199491 
L 193.047983 123.131976 
L 200.451056 138.319904 
L 205.856329 155.659961 
L 210.676457 177.479587 
L 218.541089 214.554331 
L 220.033612 214.554331 
L 211.570582 174.658674 
L 207.274759 155.212455 
L 202.457439 139.758545 
L 194.08686 122.58571 
L 179.337757 100.048254 
L 176.212778 97.274509 
L 145.207161 84.872131 
L 125.678076 77.976989 
L 106.590536 76.671288 
z
M 89.759764 103.221324 
L 95.445471 214.554331 
L 98.37865 214.554331 
L 92.474262 98.939285 
z
M 211.570582 174.658674 
L 202.457439 139.758545 
L 200.451056 138.319904 
L 210.676457 177.479587 
z
" clip-path="url(#p753129bbff)" style="fill: #24868e; fill-opacity: 0.7"/>
    <path d="M 106.590536 76.671288 
L 125.678076 77.976989 
L 145.207161 84.872131 
L 176.212778 97.274509 
L 179.337757 100.048254 
L 194.08686 122.58571 
L 202.457439 139.758545 
L 207.274759 155.212455 
L 211.570582 174.658674 
L 220.033612 214.554331 
L 221.526136 214.554331 
L 212.464708 171.837761 
L 208.693189 154.764949 
L 204.463822 141.197185 
L 195.125738 122.039444 
L 178.671872 96.897017 
L 175.185696 93.802671 
L 140.596324 79.966775 
L 124.508355 74.28659 
L 108.78413 73.21096 
z
M 87.045267 107.503363 
L 92.512293 214.554331 
L 95.445471 214.554331 
L 89.759764 103.221324 
z
M 212.464708 171.837761 
L 204.463822 141.197185 
L 202.457439 139.758545 
L 211.570582 174.658674 
z
" clip-path="url(#p753129bbff)" style="fill: #228b8d; fill-opacity: 0.7"/>
    <path d="M 108.78413 73.21096 
L 124.508355 74.28659 
L 140.596324 79.966775 
L 175.185696 93.802671 
L 178.671872 96.897017 
L 195.125738 122.039444 
L 204.463822 141.197185 
L 208.693189 154.764949 
L 212.464708 171.837761 
L 221.526136 214.554331 
L 223.018659 214.554331 
L 213.358834 169.016848 
L 210.11162 154.317443 
L 206.470206 142.635826 
L 196.164615 121.493178 
L 178.005988 93.74578 
L 174.158614 90.330834 
L 135.985486 75.06142 
L 123.338634 70.596191 
L 110.977723 69.750632 
z
M 84.330769 111.785401 
L 89.579114 214.554331 
L 92.512293 214.554331 
L 87.045267 107.503363 
z
M 213.358834 169.016848 
L 206.470206 142.635826 
L 204.463822 141.197185 
L 212.464708 171.837761 
z
" clip-path="url(#p753129bbff)" style="fill: #21918c; fill-opacity: 0.7"/>
    <path d="M 110.977723 69.750632 
L 123.338634 70.596191 
L 135.985486 75.06142 
L 174.158614 90.330834 
L 178.005988 93.74578 
L 196.164615 121.493178 
L 206.470206 142.635826 
L 210.11162 154.317443 
L 213.358834 169.016848 
L 223.018659 214.554331 
L 224.511183 214.554331 
L 214.25296 166.195934 
L 211.53005 153.869937 
L 208.476589 144.074466 
L 197.203492 120.946912 
L 177.340104 90.594542 
L 173.131532 86.858996 
L 131.374648 70.156065 
L 122.168913 66.905792 
L 113.171317 66.290303 
z
M 81.616271 116.06744 
L 86.645935 214.554331 
L 89.579114 214.554331 
L 84.330769 111.785401 
z
M 214.25296 166.195934 
L 208.476589 144.074466 
L 206.470206 142.635826 
L 213.358834 169.016848 
z
" clip-path="url(#p753129bbff)" style="fill: #1f958b; fill-opacity: 0.7"/>
    <path d="M 113.171317 66.290303 
L 122.168913 66.905792 
L 131.374648 70.156065 
L 173.131532 86.858996 
L 177.340104 90.594542 
L 197.203492 120.946912 
L 208.476589 144.074466 
L 211.53005 153.869937 
L 214.25296 166.195934 
L 224.511183 214.554331 
L 226.003707 214.554331 
L 215.147086 163.375021 
L 212.94848 153.42243 
L 210.482972 145.513106 
L 198.24237 120.400646 
L 176.67422 87.443305 
L 172.10445 83.387158 
L 126.76381 65.250709 
L 120.999193 63.215393 
L 115.364911 62.829975 
z
M 78.901773 120.349479 
L 83.712756 214.554331 
L 86.645935 214.554331 
L 81.616271 116.06744 
z
M 215.147086 163.375021 
L 210.482972 145.513106 
L 208.476589 144.074466 
L 214.25296 166.195934 
z
" clip-path="url(#p753129bbff)" style="fill: #1f9a8a; fill-opacity: 0.7"/>
    <path d="M 184.123009 96.691745 
L 176.008335 84.292068 
L 171.077368 79.91532 
L 122.152972 60.345354 
L 119.829472 59.524995 
L 117.558505 59.369647 
L 115.364911 62.829975 
L 120.999193 63.215393 
L 126.76381 65.250709 
L 172.10445 83.387158 
L 176.67422 87.443305 
L 198.24237 120.400646 
L 210.482972 145.513106 
L 212.94848 153.42243 
L 215.147086 163.375021 
L 226.003707 214.554331 
L 227.49623 214.554331 
L 216.041212 160.554108 
L 214.36691 152.974924 
L 212.489355 146.951747 
L 200.86114 123.095642 
L 198.925125 120.041637 
z
M 76.187275 124.631517 
L 80.779577 214.554331 
L 83.712756 214.554331 
L 78.901773 120.349479 
z
M 216.041212 160.554108 
L 212.489355 146.951747 
L 210.482972 145.513106 
L 215.147086 163.375021 
z
" clip-path="url(#p753129bbff)" style="fill: #1fa088; fill-opacity: 0.7"/>
    <path d="M 172.878425 78.953751 
L 170.050286 76.443482 
L 130.803446 60.744579 
L 119.358792 56.529748 
L 119.039656 57.033175 
L 117.558505 59.369647 
L 119.829472 59.524995 
L 122.152972 60.345354 
L 171.077368 79.91532 
L 176.008335 84.292068 
L 184.123009 96.691745 
L 175.88124 83.690601 
z
M 73.472777 128.913556 
L 77.846398 214.554331 
L 80.779577 214.554331 
L 76.187275 124.631517 
z
M 216.935337 157.733195 
L 214.495738 148.390387 
L 212.489355 146.951747 
L 216.041212 160.554108 
z
M 228.988754 214.554331 
L 216.935337 157.733195 
L 215.78534 152.527418 
L 214.495738 148.390387 
L 206.508877 132.004777 
L 200.86114 123.095642 
L 212.489355 146.951747 
L 214.36691 152.974924 
L 216.041212 160.554108 
L 227.49623 214.554331 
z
" clip-path="url(#p753129bbff)" style="fill: #20a486; fill-opacity: 0.7"/>
    <path d="M 169.167274 73.099522 
L 169.023204 72.971645 
L 167.023905 72.171916 
L 120.341404 54.979708 
L 119.358792 56.529748 
L 130.803446 60.744579 
L 170.050286 76.443482 
L 172.878425 78.953751 
z
M 70.758279 133.195595 
L 74.913219 214.554331 
L 77.846398 214.554331 
L 73.472777 128.913556 
z
M 217.829463 154.912281 
L 216.502121 149.829028 
L 214.495738 148.390387 
L 216.935337 157.733195 
z
M 230.481278 214.554331 
L 217.829463 154.912281 
L 217.203771 152.079912 
L 216.502121 149.829028 
L 212.156613 140.913912 
L 206.508877 132.004777 
L 214.495738 148.390387 
L 215.78534 152.527418 
L 216.935337 157.733195 
L 228.988754 214.554331 
z
" clip-path="url(#p753129bbff)" style="fill: #24aa83; fill-opacity: 0.7"/>
    <path d="M 167.471791 70.424948 
L 121.324015 53.429667 
L 120.341404 54.979708 
L 167.023905 72.171916 
L 169.023204 72.971645 
L 169.167274 73.099522 
L 168.968074 72.78529 
z
M 68.043782 137.477634 
L 71.98004 214.554331 
L 74.913219 214.554331 
L 70.758279 133.195595 
z
M 218.723589 152.091368 
L 218.508504 151.267668 
L 216.502121 149.829028 
L 217.829463 154.912281 
z
M 231.973801 214.554331 
L 218.723589 152.091368 
L 218.622201 151.632406 
L 218.508504 151.267668 
L 217.80435 149.823047 
L 212.156613 140.913912 
L 216.502121 149.829028 
L 217.203771 152.079912 
L 217.829463 154.912281 
L 230.481278 214.554331 
z
" clip-path="url(#p753129bbff)" style="fill: #28ae80; fill-opacity: 0.7"/>
    <path d="M 165.890637 67.930725 
L 122.306627 51.879627 
L 121.324015 53.429667 
L 167.471791 70.424948 
z
M 65.329284 141.759672 
L 69.046861 214.554331 
L 71.98004 214.554331 
L 68.043782 137.477634 
z
M 218.508504 151.267668 
L 218.723589 152.091368 
L 218.896492 151.545868 
z
M 233.466325 214.554331 
L 220.70586 154.400091 
L 218.896492 151.545868 
L 217.80435 149.823047 
L 218.508504 151.267668 
L 218.622201 151.632406 
L 218.723589 152.091368 
L 231.973801 214.554331 
z
" clip-path="url(#p753129bbff)" style="fill: #2fb47c; fill-opacity: 0.7"/>
    <path d="M 164.309483 65.436503 
L 123.289238 50.329587 
L 122.306627 51.879627 
L 165.890637 67.930725 
z
M 62.614786 146.041711 
L 66.113683 214.554331 
L 69.046861 214.554331 
L 65.329284 141.759672 
z
M 234.958849 214.554331 
L 222.948999 157.938576 
L 220.70586 154.400091 
L 233.466325 214.554331 
z
" clip-path="url(#p753129bbff)" style="fill: #37b878; fill-opacity: 0.7"/>
    <path d="M 162.72833 62.94228 
L 124.27185 48.779547 
L 123.289238 50.329587 
L 164.309483 65.436503 
z
M 59.900288 150.32375 
L 63.180504 214.554331 
L 66.113683 214.554331 
L 62.614786 146.041711 
z
M 236.451372 214.554331 
L 225.192139 161.477061 
L 222.948999 157.938576 
L 234.958849 214.554331 
z
" clip-path="url(#p753129bbff)" style="fill: #40bd72; fill-opacity: 0.7"/>
    <path d="M 161.147176 60.448058 
L 125.254461 47.229507 
L 124.27185 48.779547 
L 162.72833 62.94228 
z
M 57.18579 154.605789 
L 60.247325 214.554331 
L 63.180504 214.554331 
L 59.900288 150.32375 
z
M 237.943896 214.554331 
L 227.435278 165.015545 
L 225.192139 161.477061 
L 236.451372 214.554331 
z
" clip-path="url(#p753129bbff)" style="fill: #4ac16d; fill-opacity: 0.7"/>
    <path d="M 159.566022 57.953835 
L 126.237073 45.679466 
L 125.254461 47.229507 
L 161.147176 60.448058 
z
M 54.471292 158.887827 
L 57.314146 214.554331 
L 60.247325 214.554331 
L 57.18579 154.605789 
z
M 239.43642 214.554331 
L 229.678417 168.55403 
L 227.435278 165.015545 
L 237.943896 214.554331 
z
" clip-path="url(#p753129bbff)" style="fill: #54c568; fill-opacity: 0.7"/>
    <path d="M 157.984868 55.459613 
L 127.219685 44.129426 
L 126.237073 45.679466 
L 159.566022 57.953835 
z
M 51.756795 163.169866 
L 54.380967 214.554331 
L 57.314146 214.554331 
L 54.471292 158.887827 
z
M 240.928943 214.554331 
L 231.921556 172.092515 
L 229.678417 168.55403 
L 239.43642 214.554331 
z
" clip-path="url(#p753129bbff)" style="fill: #60ca60; fill-opacity: 0.7"/>
    <path d="M 156.403715 52.96539 
L 128.202296 42.579386 
L 127.219685 44.129426 
L 157.984868 55.459613 
z
M 49.042297 167.451905 
L 51.447788 214.554331 
L 54.380967 214.554331 
L 51.756795 163.169866 
z
M 242.421467 214.554331 
L 234.164695 175.630999 
L 231.921556 172.092515 
L 240.928943 214.554331 
z
" clip-path="url(#p753129bbff)" style="fill: #6ccd5a; fill-opacity: 0.7"/>
    <path d="M 154.822561 50.471168 
L 129.184908 41.029346 
L 128.202296 42.579386 
L 156.403715 52.96539 
z
M 46.327799 171.733943 
L 48.514609 214.554331 
L 51.447788 214.554331 
L 49.042297 167.451905 
z
M 243.91399 214.554331 
L 236.407835 179.169484 
L 234.164695 175.630999 
L 242.421467 214.554331 
z
" clip-path="url(#p753129bbff)" style="fill: #7ad151; fill-opacity: 0.7"/>
    <path d="M 153.241407 47.976945 
L 130.167519 39.479305 
L 129.184908 41.029346 
L 154.822561 50.471168 
z
M 43.613301 176.015982 
L 45.58143 214.554331 
L 48.514609 214.554331 
L 46.327799 171.733943 
z
M 245.406514 214.554331 
L 238.650974 182.707969 
L 236.407835 179.169484 
L 243.91399 214.554331 
z
" clip-path="url(#p753129bbff)" style="fill: #86d549; fill-opacity: 0.7"/>
    <path d="M 151.660253 45.482723 
L 131.150131 37.929265 
L 130.167519 39.479305 
L 153.241407 47.976945 
z
M 40.898803 180.298021 
L 42.648251 214.554331 
L 45.58143 214.554331 
L 43.613301 176.015982 
z
M 246.899038 214.554331 
L 240.894113 186.246453 
L 238.650974 182.707969 
L 245.406514 214.554331 
z
" clip-path="url(#p753129bbff)" style="fill: #95d840; fill-opacity: 0.7"/>
    <path d="M 150.0791 42.988501 
L 132.132743 36.379225 
L 131.150131 37.929265 
L 151.660253 45.482723 
z
M 38.184305 184.58006 
L 39.715073 214.554331 
L 42.648251 214.554331 
L 40.898803 180.298021 
z
M 248.391561 214.554331 
L 243.137252 189.784938 
L 240.894113 186.246453 
L 246.899038 214.554331 
z
" clip-path="url(#p753129bbff)" style="fill: #a2da37; fill-opacity: 0.7"/>
    <path d="M 148.497946 40.494278 
L 133.115354 34.829185 
L 132.132743 36.379225 
L 150.0791 42.988501 
z
M 35.469807 188.862098 
L 36.781894 214.554331 
L 39.715073 214.554331 
L 38.184305 184.58006 
z
M 249.884085 214.554331 
L 245.380392 193.323423 
L 243.137252 189.784938 
L 248.391561 214.554331 
z
" clip-path="url(#p753129bbff)" style="fill: #b2dd2d; fill-opacity: 0.7"/>
    <path d="M 146.916792 38.000056 
L 134.097966 33.279144 
L 133.115354 34.829185 
L 148.497946 40.494278 
z
M 32.75531 193.144137 
L 33.848715 214.554331 
L 36.781894 214.554331 
L 35.469807 188.862098 
z
M 251.376609 214.554331 
L 247.623531 196.861907 
L 245.380392 193.323423 
L 249.884085 214.554331 
z
" clip-path="url(#p753129bbff)" style="fill: #c0df25; fill-opacity: 0.7"/>
    <path d="M 145.335639 35.505833 
L 135.080577 31.729104 
L 134.097966 33.279144 
L 146.916792 38.000056 
z
M 30.040812 197.426176 
L 30.915536 214.554331 
L 33.848715 214.554331 
L 32.75531 193.144137 
z
M 252.869132 214.554331 
L 249.86667 200.400392 
L 247.623531 196.861907 
L 251.376609 214.554331 
z
" clip-path="url(#p753129bbff)" style="fill: #cde11d; fill-opacity: 0.7"/>
    <path d="M 143.754485 33.011611 
L 136.063189 30.179064 
L 135.080577 31.729104 
L 145.335639 35.505833 
z
M 27.326314 201.708215 
L 27.982357 214.554331 
L 30.915536 214.554331 
L 30.040812 197.426176 
z
M 254.361656 214.554331 
L 252.109809 203.938877 
L 249.86667 200.400392 
L 252.869132 214.554331 
z
" clip-path="url(#p753129bbff)" style="fill: #dde318; fill-opacity: 0.7"/>
    <path d="M 142.173331 30.517388 
L 137.0458 28.629024 
L 136.063189 30.179064 
L 143.754485 33.011611 
z
M 24.611816 205.990253 
L 25.049178 214.554331 
L 27.982357 214.554331 
L 27.326314 201.708215 
z
M 255.85418 214.554331 
L 254.352948 207.477361 
L 252.109809 203.938877 
L 254.361656 214.554331 
z
" clip-path="url(#p753129bbff)" style="fill: #eae51a; fill-opacity: 0.7"/>
    <path d="M 140.592177 28.023166 
L 138.028412 27.078984 
L 137.0458 28.629024 
L 142.173331 30.517388 
z
M 21.897318 210.272292 
L 22.115999 214.554331 
L 25.049178 214.554331 
L 24.611816 205.990253 
z
M 257.346703 214.554331 
L 256.596088 211.015846 
L 254.352948 207.477361 
L 255.85418 214.554331 
z
" clip-path="url(#p753129bbff)" style="fill: #f8e621; fill-opacity: 0.7"/>
    <path d="M 138.028412 27.078984 
L 140.592177 28.023166 
L 139.011024 25.528943 
z
M 22.115999 214.554331 
L 21.897318 210.272292 
L 19.18282 214.554331 
z
M 256.596088 211.015846 
L 257.346703 214.554331 
L 258.839227 214.554331 
z
" clip-path="url(#p753129bbff)" style="fill: #fde725; fill-opacity: 0.7"/>
   </g>
   <g id="matplotlib.axis_1"/>
   <g id="matplotlib.axis_2"/>
   <g id="line2d_1">
    <path d="M 175.88124 83.690601 
L 185.098794 127.311844 
" clip-path="url(#p753129bbff)" style="fill: none; stroke: #555555; stroke-opacity: 0.9; stroke-width: 0.5; stroke-linecap: square"/>
   </g>
   <g id="line2d_2">
    <path d="M 139.011024 120.041637 
L 178.953758 214.554331 
" clip-path="url(#p753129bbff)" style="fill: none; stroke: #555555; stroke-opacity: 0.9; stroke-width: 0.5; stroke-linecap: square"/>
   </g>
   <g id="line2d_3">
    <path d="M 218.896492 151.545868 
L 203.533902 156.392673 
" clip-path="url(#p753129bbff)" style="fill: none; stroke: #555555; stroke-opacity: 0.9; stroke-width: 0.5; stroke-linecap: square"/>
   </g>
   <g id="line2d_4">
    <path d="M 198.925125 214.554331 
L 203.533902 156.392673 
" clip-path="url(#p753129bbff)" style="fill: none; stroke: #555555; stroke-opacity: 0.9; stroke-width: 0.5; stroke-linecap: square"/>
   </g>
   <g id="line2d_5">
    <path d="M 99.068289 88.537406 
L 119.039656 57.033175 
" clip-path="url(#p753129bbff)" style="fill: none; stroke: #555555; stroke-opacity: 0.9; stroke-width: 0.5; stroke-linecap: square"/>
   </g>
   <g id="line2d_6">
    <path d="M 99.068289 88.537406 
L 139.011024 120.041637 
" clip-path="url(#p753129bbff)" style="fill: none; stroke: #555555; stroke-opacity: 0.9; stroke-width: 0.5; stroke-linecap: square"/>
   </g>
   <g id="line2d_7">
    <path d="M 99.068289 88.537406 
L 115.045383 214.554331 
" clip-path="url(#p753129bbff)" style="fill: none; stroke: #555555; stroke-opacity: 0.9; stroke-width: 0.5; stroke-linecap: square"/>
   </g>
   <g id="line2d_8">
    <path d="M 168.968074 72.78529 
L 175.88124 83.690601 
" clip-path="url(#p753129bbff)" style="fill: none; stroke: #555555; stroke-opacity: 0.9; stroke-width: 0.5; stroke-linecap: square"/>
   </g>
   <g id="line2d_9">
    <path d="M 168.968074 72.78529 
L 119.039656 57.033175 
" clip-path="url(#p753129bbff)" style="fill: none; stroke: #555555; stroke-opacity: 0.9; stroke-width: 0.5; stroke-linecap: square"/>
   </g>
   <g id="line2d_10">
    <path d="M 119.039656 57.033175 
L 139.011024 25.528943 
" clip-path="url(#p753129bbff)" style="fill: none; stroke: #555555; stroke-opacity: 0.9; stroke-width: 0.5; stroke-linecap: square"/>
   </g>
   <g id="line2d_11">
    <path d="M 139.011024 214.554331 
L 115.045383 214.554331 
" clip-path="url(#p753129bbff)" style="fill: none; stroke: #555555; stroke-opacity: 0.9; stroke-width: 0.5; stroke-linecap: square"/>
   </g>
   <g id="line2d_12">
    <path d="M 178.953758 214.554331 
L 198.925125 214.554331 
" clip-path="url(#p753129bbff)" style="fill: none; stroke: #555555; stroke-opacity: 0.9; stroke-width: 0.5; stroke-linecap: square"/>
   </g>
   <g id="line2d_13">
    <path d="M 168.968074 72.78529 
L 185.098794 127.311844 
" clip-path="url(#p753129bbff)" style="fill: none; stroke: #555555; stroke-opacity: 0.9; stroke-width: 0.5; stroke-linecap: square"/>
   </g>
   <g id="line2d_14">
    <path d="M 115.045383 214.554331 
L 19.18282 214.554331 
" clip-path="url(#p753129bbff)" style="fill: none; stroke: #555555; stroke-opacity: 0.9; stroke-width: 0.5; stroke-linecap: square"/>
   </g>
   <g id="line2d_15">
    <path d="M 139.011024 120.041637 
L 185.098794 127.311844 
" clip-path="url(#p753129bbff)" style="fill: none; stroke: #555555; stroke-opacity: 0.9; stroke-width: 0.5; stroke-linecap: square"/>
   </g>
   <g id="line2d_16">
    <path d="M 218.896492 151.545868 
L 185.098794 127.311844 
" clip-path="url(#p753129bbff)" style="fill: none; stroke: #555555; stroke-opacity: 0.9; stroke-width: 0.5; stroke-linecap: square"/>
   </g>
   <g id="line2d_17">
    <path d="M 198.925125 214.554331 
L 185.098794 127.311844 
" clip-path="url(#p753129bbff)" style="fill: none; stroke: #555555; stroke-opacity: 0.9; stroke-width: 0.5; stroke-linecap: square"/>
   </g>
   <g id="line2d_18">
    <path d="M 99.068289 88.537406 
L 139.011024 151.545868 
" clip-path="url(#p753129bbff)" style="fill: none; stroke: #555555; stroke-opacity: 0.9; stroke-width: 0.5; stroke-linecap: square"/>
   </g>
   <g id="line2d_19">
    <path d="M 198.925125 214.554331 
L 258.839227 214.554331 
" clip-path="url(#p753129bbff)" style="fill: none; stroke: #555555; stroke-opacity: 0.9; stroke-width: 0.5; stroke-linecap: square"/>
   </g>
   <g id="line2d_20">
    <path d="M 218.896492 151.545868 
L 258.839227 214.554331 
" clip-path="url(#p753129bbff)" style="fill: none; stroke: #555555; stroke-opacity: 0.9; stroke-width: 0.5; stroke-linecap: square"/>
   </g>
   <g id="line2d_21">
    <path d="M 139.011024 214.554331 
L 139.011024 151.545868 
" clip-path="url(#p753129bbff)" style="fill: none; stroke: #555555; stroke-opacity: 0.9; stroke-width: 0.5; stroke-linecap: square"/>
   </g>
   <g id="line2d_22">
    <path d="M 139.011024 151.545868 
L 178.953758 214.554331 
" clip-path="url(#p753129bbff)" style="fill: none; stroke: #555555; stroke-opacity: 0.9; stroke-width: 0.5; stroke-linecap: square"/>
   </g>
   <g id="line2d_23">
    <path d="M 168.968074 72.78529 
L 139.011024 25.528943 
" clip-path="url(#p753129bbff)" style="fill: none; stroke: #555555; stroke-opacity: 0.9; stroke-width: 0.5; stroke-linecap: square"/>
   </g>
   <g id="line2d_24">
    <path d="M 185.098794 127.311844 
L 203.533902 156.392673 
" clip-path="url(#p753129bbff)" style="fill: none; stroke: #555555; stroke-opacity: 0.9; stroke-width: 0.5; stroke-linecap: square"/>
   </g>
   <g id="line2d_25">
    <path d="M 218.896492 151.545868 
L 198.925125 214.554331 
" clip-path="url(#p753129bbff)" style="fill: none; stroke: #555555; stroke-opacity: 0.9; stroke-width: 0.5; stroke-linecap: square"/>
   </g>
   <g id="line2d_26">
    <path d="M 119.039656 57.033175 
L 139.011024 120.041637 
" clip-path="url(#p753129bbff)" style="fill: none; stroke: #555555; stroke-opacity: 0.9; stroke-width: 0.5; stroke-linecap: square"/>
   </g>
   <g id="line2d_27">
    <path d="M 198.925125 120.041637 
L 218.896492 151.545868 
" clip-path="url(#p753129bbff)" style="fill: none; stroke: #555555; stroke-opacity: 0.9; stroke-width: 0.5; stroke-linecap: square"/>
   </g>
   <g id="line2d_28">
    <path d="M 99.068289 88.537406 
L 139.011024 214.554331 
" clip-path="url(#p753129bbff)" style="fill: none; stroke: #555555; stroke-opacity: 0.9; stroke-width: 0.5; stroke-linecap: square"/>
   </g>
   <g id="line2d_29">
    <path d="M 139.011024 214.554331 
L 178.953758 214.554331 
" clip-path="url(#p753129bbff)" style="fill: none; stroke: #555555; stroke-opacity: 0.9; stroke-width: 0.5; stroke-linecap: square"/>
   </g>
   <g id="line2d_30">
    <path d="M 119.039656 57.033175 
L 185.098794 127.311844 
" clip-path="url(#p753129bbff)" style="fill: none; stroke: #555555; stroke-opacity: 0.9; stroke-width: 0.5; stroke-linecap: square"/>
   </g>
   <g id="line2d_31">
    <path d="M 139.011024 151.545868 
L 139.011024 120.041637 
" clip-path="url(#p753129bbff)" style="fill: none; stroke: #555555; stroke-opacity: 0.9; stroke-width: 0.5; stroke-linecap: square"/>
   </g>
   <g id="line2d_32">
    <path d="M 198.925125 120.041637 
L 175.88124 83.690601 
" clip-path="url(#p753129bbff)" style="fill: none; stroke: #555555; stroke-opacity: 0.9; stroke-width: 0.5; stroke-linecap: square"/>
   </g>
   <g id="line2d_33">
    <path d="M 198.925125 120.041637 
L 185.098794 127.311844 
" clip-path="url(#p753129bbff)" style="fill: none; stroke: #555555; stroke-opacity: 0.9; stroke-width: 0.5; stroke-linecap: square"/>
   </g>
   <g id="line2d_34">
    <path d="M 99.068289 88.537406 
L 19.18282 214.554331 
" clip-path="url(#p753129bbff)" style="fill: none; stroke: #555555; stroke-opacity: 0.9; stroke-width: 0.5; stroke-linecap: square"/>
   </g>
   <g id="line2d_35">
    <path d="M 178.953758 214.554331 
L 185.098794 127.311844 
" clip-path="url(#p753129bbff)" style="fill: none; stroke: #555555; stroke-opacity: 0.9; stroke-width: 0.5; stroke-linecap: square"/>
   </g>
   <g id="PathCollection_1">
    <defs>
     <path id="m172835f25f" d="M 0 2.738613 
C 0.726289 2.738613 1.422928 2.450055 1.936492 1.936492 
C 2.450055 1.422928 2.738613 0.726289 2.738613 0 
C 2.738613 -0.726289 2.450055 -1.422928 1.936492 -1.936492 
C 1.422928 -2.450055 0.726289 -2.738613 0 -2.738613 
C -0.726289 -2.738613 -1.422928 -2.450055 -1.936492 -1.936492 
C -2.450055 -1.422928 -2.738613 -0.726289 -2.738613 0 
C -2.738613 0.726289 -2.450055 1.422928 -1.936492 1.936492 
C -1.422928 2.450055 -0.726289 2.738613 0 2.738613 
z
" style="stroke: #008000"/>
    </defs>
    <g clip-path="url(#p753129bbff)">
     <use xlink:href="#m172835f25f" x="175.88124" y="83.690601" style="fill: #008000; stroke: #008000"/>
     <use xlink:href="#m172835f25f" x="185.098794" y="127.311844" style="fill: #008000; stroke: #008000"/>
     <use xlink:href="#m172835f25f" x="139.011024" y="120.041637" style="fill: #008000; stroke: #008000"/>
     <use xlink:href="#m172835f25f" x="178.953758" y="214.554331" style="fill: #008000; stroke: #008000"/>
     <use xlink:href="#m172835f25f" x="218.896492" y="151.545868" style="fill: #008000; stroke: #008000"/>
     <use xlink:href="#m172835f25f" x="203.533902" y="156.392673" style="fill: #008000; stroke: #008000"/>
     <use xlink:href="#m172835f25f" x="198.925125" y="214.554331" style="fill: #008000; stroke: #008000"/>
     <use xlink:href="#m172835f25f" x="99.068289" y="88.537406" style="fill: #008000; stroke: #008000"/>
     <use xlink:href="#m172835f25f" x="119.039656" y="57.033175" style="fill: #008000; stroke: #008000"/>
     <use xlink:href="#m172835f25f" x="115.045383" y="214.554331" style="fill: #008000; stroke: #008000"/>
     <use xlink:href="#m172835f25f" x="168.968074" y="72.78529" style="fill: #008000; stroke: #008000"/>
     <use xlink:href="#m172835f25f" x="139.011024" y="25.528943" style="fill: #008000; stroke: #008000"/>
     <use xlink:href="#m172835f25f" x="139.011024" y="214.554331" style="fill: #008000; stroke: #008000"/>
     <use xlink:href="#m172835f25f" x="19.18282" y="214.554331" style="fill: #008000; stroke: #008000"/>
     <use xlink:href="#m172835f25f" x="139.011024" y="151.545868" style="fill: #008000; stroke: #008000"/>
     <use xlink:href="#m172835f25f" x="258.839227" y="214.554331" style="fill: #008000; stroke: #008000"/>
     <use xlink:href="#m172835f25f" x="198.925125" y="120.041637" style="fill: #008000; stroke: #008000"/>
    </g>
   </g>
   <g id="PathCollection_2">
    <defs>
     <path id="m1191707f4a" d="M -0 2.236068 
L 1.341641 0 
L 0 -2.236068 
L -1.341641 -0 
z
" style="stroke: #d3d3d3"/>
    </defs>
    <g clip-path="url(#p753129bbff)">
     <use xlink:href="#m1191707f4a" x="139.011024" y="25.528943" style="fill: #d3d3d3; stroke: #d3d3d3"/>
     <use xlink:href="#m1191707f4a" x="139.011024" y="25.528943" style="fill: #d3d3d3; stroke: #d3d3d3"/>
     <use xlink:href="#m1191707f4a" x="139.011024" y="25.528943" style="fill: #d3d3d3; stroke: #d3d3d3"/>
     <use xlink:href="#m1191707f4a" x="139.011024" y="25.528943" style="fill: #d3d3d3; stroke: #d3d3d3"/>
     <use xlink:href="#m1191707f4a" x="139.011024" y="25.528943" style="fill: #d3d3d3; stroke: #d3d3d3"/>
     <use xlink:href="#m1191707f4a" x="139.011024" y="25.528943" style="fill: #d3d3d3; stroke: #d3d3d3"/>
     <use xlink:href="#m1191707f4a" x="139.011024" y="25.528943" style="fill: #d3d3d3; stroke: #d3d3d3"/>
     <use xlink:href="#m1191707f4a" x="258.839227" y="214.554331" style="fill: #d3d3d3; stroke: #d3d3d3"/>
     <use xlink:href="#m1191707f4a" x="258.839227" y="214.554331" style="fill: #d3d3d3; stroke: #d3d3d3"/>
     <use xlink:href="#m1191707f4a" x="258.839227" y="214.554331" style="fill: #d3d3d3; stroke: #d3d3d3"/>
     <use xlink:href="#m1191707f4a" x="258.839227" y="214.554331" style="fill: #d3d3d3; stroke: #d3d3d3"/>
     <use xlink:href="#m1191707f4a" x="258.839227" y="214.554331" style="fill: #d3d3d3; stroke: #d3d3d3"/>
     <use xlink:href="#m1191707f4a" x="258.839227" y="214.554331" style="fill: #d3d3d3; stroke: #d3d3d3"/>
     <use xlink:href="#m1191707f4a" x="258.839227" y="214.554331" style="fill: #d3d3d3; stroke: #d3d3d3"/>
     <use xlink:href="#m1191707f4a" x="258.839227" y="214.554331" style="fill: #d3d3d3; stroke: #d3d3d3"/>
     <use xlink:href="#m1191707f4a" x="258.839227" y="214.554331" style="fill: #d3d3d3; stroke: #d3d3d3"/>
     <use xlink:href="#m1191707f4a" x="198.925125" y="120.041637" style="fill: #d3d3d3; stroke: #d3d3d3"/>
     <use xlink:href="#m1191707f4a" x="168.968074" y="72.78529" style="fill: #d3d3d3; stroke: #d3d3d3"/>
     <use xlink:href="#m1191707f4a" x="168.968074" y="72.78529" style="fill: #d3d3d3; stroke: #d3d3d3"/>
     <use xlink:href="#m1191707f4a" x="168.968074" y="72.78529" style="fill: #d3d3d3; stroke: #d3d3d3"/>
     <use xlink:href="#m1191707f4a" x="162.976664" y="63.334021" style="fill: #d3d3d3; stroke: #d3d3d3"/>
     <use xlink:href="#m1191707f4a" x="218.896492" y="151.545868" style="fill: #d3d3d3; stroke: #d3d3d3"/>
     <use xlink:href="#m1191707f4a" x="218.896492" y="151.545868" style="fill: #d3d3d3; stroke: #d3d3d3"/>
     <use xlink:href="#m1191707f4a" x="228.882176" y="167.297984" style="fill: #d3d3d3; stroke: #d3d3d3"/>
     <use xlink:href="#m1191707f4a" x="228.882176" y="167.297984" style="fill: #d3d3d3; stroke: #d3d3d3"/>
     <use xlink:href="#m1191707f4a" x="210.907946" y="138.944176" style="fill: #d3d3d3; stroke: #d3d3d3"/>
     <use xlink:href="#m1191707f4a" x="164.238014" y="65.323762" style="fill: #d3d3d3; stroke: #d3d3d3"/>
     <use xlink:href="#m1191707f4a" x="19.18282" y="214.554331" style="fill: #d3d3d3; stroke: #d3d3d3"/>
     <use xlink:href="#m1191707f4a" x="19.18282" y="214.554331" style="fill: #d3d3d3; stroke: #d3d3d3"/>
     <use xlink:href="#m1191707f4a" x="198.925125" y="214.554331" style="fill: #d3d3d3; stroke: #d3d3d3"/>
     <use xlink:href="#m1191707f4a" x="79.096922" y="214.554331" style="fill: #d3d3d3; stroke: #d3d3d3"/>
     <use xlink:href="#m1191707f4a" x="79.096922" y="214.554331" style="fill: #d3d3d3; stroke: #d3d3d3"/>
     <use xlink:href="#m1191707f4a" x="67.114102" y="214.554331" style="fill: #d3d3d3; stroke: #d3d3d3"/>
     <use xlink:href="#m1191707f4a" x="114.218982" y="64.637644" style="fill: #d3d3d3; stroke: #d3d3d3"/>
    </g>
   </g>
   <g id="PathCollection_3">
    <defs>
     <path id="ma2c51a6369" d="M 0 -5 
L -1.12257 -1.545085 
L -4.755283 -1.545085 
L -1.816356 0.59017 
L -2.938926 4.045085 
L -0 1.90983 
L 2.938926 4.045085 
L 1.816356 0.59017 
L 4.755283 -1.545085 
L 1.12257 -1.545085 
z
" style="stroke: #ff0000"/>
    </defs>
    <g clip-path="url(#p753129bbff)">
     <use xlink:href="#ma2c51a6369" x="203.533902" y="156.392673" style="fill: #ff0000; stroke: #ff0000"/>
    </g>
   </g>
   <g id="text_1">
    <!-- $\mathrm{Al_{4}Cu_{9}}$ -->
    <g transform="translate(175.944876 87.026639) scale(0.1 -0.1)">
     <defs>
      <path id="DejaVuSans-41" d="M 2188 4044 
L 1331 1722 
L 3047 1722 
L 2188 4044 
z
M 1831 4666 
L 2547 4666 
L 4325 0 
L 3669 0 
L 3244 1197 
L 1141 1197 
L 716 0 
L 50 0 
L 1831 4666 
z
" transform="scale(0.015625)"/>
      <path id="DejaVuSans-6c" d="M 603 4863 
L 1178 4863 
L 1178 0 
L 603 0 
L 603 4863 
z
" transform="scale(0.015625)"/>
      <path id="DejaVuSans-34" d="M 2419 4116 
L 825 1625 
L 2419 1625 
L 2419 4116 
z
M 2253 4666 
L 3047 4666 
L 3047 1625 
L 3713 1625 
L 3713 1100 
L 3047 1100 
L 3047 0 
L 2419 0 
L 2419 1100 
L 313 1100 
L 313 1709 
L 2253 4666 
z
" transform="scale(0.015625)"/>
      <path id="DejaVuSans-43" d="M 4122 4306 
L 4122 3641 
Q 3803 3938 3442 4084 
Q 3081 4231 2675 4231 
Q 1875 4231 1450 3742 
Q 1025 3253 1025 2328 
Q 1025 1406 1450 917 
Q 1875 428 2675 428 
Q 3081 428 3442 575 
Q 3803 722 4122 1019 
L 4122 359 
Q 3791 134 3420 21 
Q 3050 -91 2638 -91 
Q 1578 -91 968 557 
Q 359 1206 359 2328 
Q 359 3453 968 4101 
Q 1578 4750 2638 4750 
Q 3056 4750 3426 4639 
Q 3797 4528 4122 4306 
z
" transform="scale(0.015625)"/>
      <path id="DejaVuSans-75" d="M 544 1381 
L 544 3500 
L 1119 3500 
L 1119 1403 
Q 1119 906 1312 657 
Q 1506 409 1894 409 
Q 2359 409 2629 706 
Q 2900 1003 2900 1516 
L 2900 3500 
L 3475 3500 
L 3475 0 
L 2900 0 
L 2900 538 
Q 2691 219 2414 64 
Q 2138 -91 1772 -91 
Q 1169 -91 856 284 
Q 544 659 544 1381 
z
M 1991 3584 
L 1991 3584 
z
" transform="scale(0.015625)"/>
      <path id="DejaVuSans-39" d="M 703 97 
L 703 672 
Q 941 559 1184 500 
Q 1428 441 1663 441 
Q 2288 441 2617 861 
Q 2947 1281 2994 2138 
Q 2813 1869 2534 1725 
Q 2256 1581 1919 1581 
Q 1219 1581 811 2004 
Q 403 2428 403 3163 
Q 403 3881 828 4315 
Q 1253 4750 1959 4750 
Q 2769 4750 3195 4129 
Q 3622 3509 3622 2328 
Q 3622 1225 3098 567 
Q 2575 -91 1691 -91 
Q 1453 -91 1209 -44 
Q 966 3 703 97 
z
M 1959 2075 
Q 2384 2075 2632 2365 
Q 2881 2656 2881 3163 
Q 2881 3666 2632 3958 
Q 2384 4250 1959 4250 
Q 1534 4250 1286 3958 
Q 1038 3666 1038 3163 
Q 1038 2656 1286 2365 
Q 1534 2075 1959 2075 
z
" transform="scale(0.015625)"/>
     </defs>
     <use xlink:href="#DejaVuSans-41" transform="translate(0 0.015625)"/>
     <use xlink:href="#DejaVuSans-6c" transform="translate(68.408203 0.015625)"/>
     <use xlink:href="#DejaVuSans-34" transform="translate(97.148438 -16.390625) scale(0.7)"/>
     <use xlink:href="#DejaVuSans-43" transform="translate(144.418945 0.015625)"/>
     <use xlink:href="#DejaVuSans-75" transform="translate(214.243164 0.015625)"/>
     <use xlink:href="#DejaVuSans-39" transform="translate(278.579102 -16.390625) scale(0.7)"/>
    </g>
   </g>
   <g id="text_2">
    <!-- $\mathrm{Lu(AlCu)_{6}}$ -->
    <g transform="translate(143.676067 136.883265) scale(0.1 -0.1)">
     <defs>
      <path id="DejaVuSans-4c" d="M 628 4666 
L 1259 4666 
L 1259 531 
L 3531 531 
L 3531 0 
L 628 0 
L 628 4666 
z
" transform="scale(0.015625)"/>
      <path id="DejaVuSans-28" d="M 1984 4856 
Q 1566 4138 1362 3434 
Q 1159 2731 1159 2009 
Q 1159 1288 1364 580 
Q 1569 -128 1984 -844 
L 1484 -844 
Q 1016 -109 783 600 
Q 550 1309 550 2009 
Q 550 2706 781 3412 
Q 1013 4119 1484 4856 
L 1984 4856 
z
" transform="scale(0.015625)"/>
      <path id="DejaVuSans-29" d="M 513 4856 
L 1013 4856 
Q 1481 4119 1714 3412 
Q 1947 2706 1947 2009 
Q 1947 1309 1714 600 
Q 1481 -109 1013 -844 
L 513 -844 
Q 928 -128 1133 580 
Q 1338 1288 1338 2009 
Q 1338 2731 1133 3434 
Q 928 4138 513 4856 
z
" transform="scale(0.015625)"/>
      <path id="DejaVuSans-36" d="M 2113 2584 
Q 1688 2584 1439 2293 
Q 1191 2003 1191 1497 
Q 1191 994 1439 701 
Q 1688 409 2113 409 
Q 2538 409 2786 701 
Q 3034 994 3034 1497 
Q 3034 2003 2786 2293 
Q 2538 2584 2113 2584 
z
M 3366 4563 
L 3366 3988 
Q 3128 4100 2886 4159 
Q 2644 4219 2406 4219 
Q 1781 4219 1451 3797 
Q 1122 3375 1075 2522 
Q 1259 2794 1537 2939 
Q 1816 3084 2150 3084 
Q 2853 3084 3261 2657 
Q 3669 2231 3669 1497 
Q 3669 778 3244 343 
Q 2819 -91 2113 -91 
Q 1303 -91 875 529 
Q 447 1150 447 2328 
Q 447 3434 972 4092 
Q 1497 4750 2381 4750 
Q 2619 4750 2861 4703 
Q 3103 4656 3366 4563 
z
" transform="scale(0.015625)"/>
     </defs>
     <use xlink:href="#DejaVuSans-4c" transform="translate(0 0.015625)"/>
     <use xlink:href="#DejaVuSans-75" transform="translate(55.712891 0.015625)"/>
     <use xlink:href="#DejaVuSans-28" transform="translate(119.091797 0.015625)"/>
     <use xlink:href="#DejaVuSans-41" transform="translate(158.105469 0.015625)"/>
     <use xlink:href="#DejaVuSans-6c" transform="translate(226.513672 0.015625)"/>
     <use xlink:href="#DejaVuSans-43" transform="translate(254.296875 0.015625)"/>
     <use xlink:href="#DejaVuSans-75" transform="translate(324.121094 0.015625)"/>
     <use xlink:href="#DejaVuSans-29" transform="translate(387.5 0.015625)"/>
     <use xlink:href="#DejaVuSans-36" transform="translate(427.470703 -16.390625) scale(0.7)"/>
    </g>
   </g>
   <g id="text_3">
    <!-- $\mathrm{LuAlCu_{2}}$ -->
    <g transform="translate(105.415569 129.563058) scale(0.1 -0.1)">
     <defs>
      <path id="DejaVuSans-32" d="M 1228 531 
L 3431 531 
L 3431 0 
L 469 0 
L 469 531 
Q 828 903 1448 1529 
Q 2069 2156 2228 2338 
Q 2531 2678 2651 2914 
Q 2772 3150 2772 3378 
Q 2772 3750 2511 3984 
Q 2250 4219 1831 4219 
Q 1534 4219 1204 4116 
Q 875 4013 500 3803 
L 500 4441 
Q 881 4594 1212 4672 
Q 1544 4750 1819 4750 
Q 2544 4750 2975 4387 
Q 3406 4025 3406 3419 
Q 3406 3131 3298 2873 
Q 3191 2616 2906 2266 
Q 2828 2175 2409 1742 
Q 1991 1309 1228 531 
z
" transform="scale(0.015625)"/>
     </defs>
     <use xlink:href="#DejaVuSans-4c" transform="translate(0 0.015625)"/>
     <use xlink:href="#DejaVuSans-75" transform="translate(55.712891 0.015625)"/>
     <use xlink:href="#DejaVuSans-41" transform="translate(119.091797 0.015625)"/>
     <use xlink:href="#DejaVuSans-6c" transform="translate(187.5 0.015625)"/>
     <use xlink:href="#DejaVuSans-43" transform="translate(215.283203 0.015625)"/>
     <use xlink:href="#DejaVuSans-75" transform="translate(285.107422 0.015625)"/>
     <use xlink:href="#DejaVuSans-32" transform="translate(349.443359 -16.390625) scale(0.7)"/>
    </g>
   </g>
   <g id="text_4">
    <!-- $\mathrm{LuAl_{2}}$ -->
    <g transform="translate(171.644667 210.544971) scale(0.1 -0.1)">
     <use xlink:href="#DejaVuSans-4c" transform="translate(0 0.015625)"/>
     <use xlink:href="#DejaVuSans-75" transform="translate(55.712891 0.015625)"/>
     <use xlink:href="#DejaVuSans-41" transform="translate(119.091797 0.015625)"/>
     <use xlink:href="#DejaVuSans-6c" transform="translate(187.5 0.015625)"/>
     <use xlink:href="#DejaVuSans-32" transform="translate(216.240234 -16.390625) scale(0.7)"/>
    </g>
   </g>
   <g id="text_5">
    <!-- $\mathrm{Al_{2}Cu}$ -->
    <g transform="translate(211.541947 147.420198) scale(0.1 -0.1)">
     <use xlink:href="#DejaVuSans-41" transform="translate(0 0.015625)"/>
     <use xlink:href="#DejaVuSans-6c" transform="translate(68.408203 0.015625)"/>
     <use xlink:href="#DejaVuSans-32" transform="translate(97.148438 -16.390625) scale(0.7)"/>
     <use xlink:href="#DejaVuSans-43" transform="translate(144.418945 0.015625)"/>
     <use xlink:href="#DejaVuSans-75" transform="translate(214.243164 0.015625)"/>
    </g>
   </g>
   <g id="text_6">
    <!-- $\mathrm{LuAl_{3}}$ -->
    <g transform="translate(198.161489 210.594971) scale(0.1 -0.1)">
     <defs>
      <path id="DejaVuSans-33" d="M 2597 2516 
Q 3050 2419 3304 2112 
Q 3559 1806 3559 1356 
Q 3559 666 3084 287 
Q 2609 -91 1734 -91 
Q 1441 -91 1130 -33 
Q 819 25 488 141 
L 488 750 
Q 750 597 1062 519 
Q 1375 441 1716 441 
Q 2309 441 2620 675 
Q 2931 909 2931 1356 
Q 2931 1769 2642 2001 
Q 2353 2234 1838 2234 
L 1294 2234 
L 1294 2753 
L 1863 2753 
Q 2328 2753 2575 2939 
Q 2822 3125 2822 3475 
Q 2822 3834 2567 4026 
Q 2313 4219 1838 4219 
Q 1578 4219 1281 4162 
Q 984 4106 628 3988 
L 628 4550 
Q 988 4650 1302 4700 
Q 1616 4750 1894 4750 
Q 2613 4750 3031 4423 
Q 3450 4097 3450 3541 
Q 3450 3153 3228 2886 
Q 3006 2619 2597 2516 
z
" transform="scale(0.015625)"/>
     </defs>
     <use xlink:href="#DejaVuSans-4c" transform="translate(0 0.015625)"/>
     <use xlink:href="#DejaVuSans-75" transform="translate(55.712891 0.015625)"/>
     <use xlink:href="#DejaVuSans-41" transform="translate(119.091797 0.015625)"/>
     <use xlink:href="#DejaVuSans-6c" transform="translate(187.5 0.015625)"/>
     <use xlink:href="#DejaVuSans-33" transform="translate(216.240234 -16.390625) scale(0.7)"/>
    </g>
   </g>
   <g id="text_7">
    <!-- $\mathrm{LuCu_{2}}$ -->
    <g transform="translate(74.854653 97.385289) scale(0.1 -0.1)">
     <use xlink:href="#DejaVuSans-4c" transform="translate(0 0.78125)"/>
     <use xlink:href="#DejaVuSans-75" transform="translate(55.712891 0.78125)"/>
     <use xlink:href="#DejaVuSans-43" transform="translate(119.091797 0.78125)"/>
     <use xlink:href="#DejaVuSans-75" transform="translate(188.916016 0.78125)"/>
     <use xlink:href="#DejaVuSans-32" transform="translate(253.251953 -15.625) scale(0.7)"/>
    </g>
   </g>
   <g id="text_8">
    <!-- $\mathrm{LuCu_{5}}$ -->
    <g transform="translate(94.82602 65.931057) scale(0.1 -0.1)">
     <defs>
      <path id="DejaVuSans-35" d="M 691 4666 
L 3169 4666 
L 3169 4134 
L 1269 4134 
L 1269 2991 
Q 1406 3038 1543 3061 
Q 1681 3084 1819 3084 
Q 2600 3084 3056 2656 
Q 3513 2228 3513 1497 
Q 3513 744 3044 326 
Q 2575 -91 1722 -91 
Q 1428 -91 1123 -41 
Q 819 9 494 109 
L 494 744 
Q 775 591 1075 516 
Q 1375 441 1709 441 
Q 2250 441 2565 725 
Q 2881 1009 2881 1497 
Q 2881 1984 2565 2268 
Q 2250 2553 1709 2553 
Q 1456 2553 1204 2497 
Q 953 2441 691 2322 
L 691 4666 
z
" transform="scale(0.015625)"/>
     </defs>
     <use xlink:href="#DejaVuSans-4c" transform="translate(0 0.78125)"/>
     <use xlink:href="#DejaVuSans-75" transform="translate(55.712891 0.78125)"/>
     <use xlink:href="#DejaVuSans-43" transform="translate(119.091797 0.78125)"/>
     <use xlink:href="#DejaVuSans-75" transform="translate(188.916016 0.78125)"/>
     <use xlink:href="#DejaVuSans-35" transform="translate(253.251953 -15.625) scale(0.7)"/>
    </g>
   </g>
   <g id="text_9">
    <!-- $\mathrm{Lu_{3}Al_{2}}$ -->
    <g transform="translate(107.299928 210.594971) scale(0.1 -0.1)">
     <use xlink:href="#DejaVuSans-4c" transform="translate(0 0.015625)"/>
     <use xlink:href="#DejaVuSans-75" transform="translate(55.712891 0.015625)"/>
     <use xlink:href="#DejaVuSans-33" transform="translate(120.048828 -16.390625) scale(0.7)"/>
     <use xlink:href="#DejaVuSans-41" transform="translate(167.319336 0.015625)"/>
     <use xlink:href="#DejaVuSans-6c" transform="translate(235.727539 0.015625)"/>
     <use xlink:href="#DejaVuSans-32" transform="translate(264.467773 -16.390625) scale(0.7)"/>
    </g>
   </g>
   <g id="text_10">
    <!-- $\mathrm{AlCu_{3}}$ -->
    <g transform="translate(161.613529 68.638869) scale(0.1 -0.1)">
     <use xlink:href="#DejaVuSans-41" transform="translate(0 0.015625)"/>
     <use xlink:href="#DejaVuSans-6c" transform="translate(68.408203 0.015625)"/>
     <use xlink:href="#DejaVuSans-43" transform="translate(96.191406 0.015625)"/>
     <use xlink:href="#DejaVuSans-75" transform="translate(166.015625 0.015625)"/>
     <use xlink:href="#DejaVuSans-33" transform="translate(230.351562 -16.390625) scale(0.7)"/>
    </g>
   </g>
   <g id="text_11">
    <!-- $\mathrm{Cu}$ -->
    <g transform="translate(129.692842 33.725944) scale(0.1 -0.1)">
     <use xlink:href="#DejaVuSans-43" transform="translate(0 0.78125)"/>
     <use xlink:href="#DejaVuSans-75" transform="translate(69.824219 0.78125)"/>
    </g>
   </g>
   <g id="text_12">
    <!-- $\mathrm{LuAl}$ -->
    <g transform="translate(139.338296 209.968797) scale(0.1 -0.1)">
     <use xlink:href="#DejaVuSans-4c" transform="translate(0 0.015625)"/>
     <use xlink:href="#DejaVuSans-75" transform="translate(55.712891 0.015625)"/>
     <use xlink:href="#DejaVuSans-41" transform="translate(119.091797 0.015625)"/>
     <use xlink:href="#DejaVuSans-6c" transform="translate(187.5 0.015625)"/>
    </g>
   </g>
   <g id="text_13">
    <!-- $\mathrm{Lu}$ -->
    <g transform="translate(19.476328 212.151181) scale(0.1 -0.1)">
     <use xlink:href="#DejaVuSans-4c" transform="translate(0 0.09375)"/>
     <use xlink:href="#DejaVuSans-75" transform="translate(55.712891 0.09375)"/>
    </g>
   </g>
   <g id="text_14">
    <!-- $\mathrm{LuAlCu}$ -->
    <g transform="translate(110.433751 159.742869) scale(0.1 -0.1)">
     <use xlink:href="#DejaVuSans-4c" transform="translate(0 0.015625)"/>
     <use xlink:href="#DejaVuSans-75" transform="translate(55.712891 0.015625)"/>
     <use xlink:href="#DejaVuSans-41" transform="translate(119.091797 0.015625)"/>
     <use xlink:href="#DejaVuSans-6c" transform="translate(187.5 0.015625)"/>
     <use xlink:href="#DejaVuSans-43" transform="translate(215.283203 0.015625)"/>
     <use xlink:href="#DejaVuSans-75" transform="translate(285.107422 0.015625)"/>
    </g>
   </g>
   <g id="text_15">
    <!-- $\mathrm{Al}$ -->
    <g transform="translate(249.389691 211.215873) scale(0.1 -0.1)">
     <use xlink:href="#DejaVuSans-41" transform="translate(0 0.015625)"/>
     <use xlink:href="#DejaVuSans-6c" transform="translate(68.408203 0.015625)"/>
    </g>
   </g>
   <g id="text_16">
    <!-- $\mathrm{AlCu}$ -->
    <g transform="translate(199.206943 117.014949) scale(0.1 -0.1)">
     <use xlink:href="#DejaVuSans-41" transform="translate(0 0.015625)"/>
     <use xlink:href="#DejaVuSans-6c" transform="translate(68.408203 0.015625)"/>
     <use xlink:href="#DejaVuSans-43" transform="translate(96.191406 0.015625)"/>
     <use xlink:href="#DejaVuSans-75" transform="translate(166.015625 0.015625)"/>
    </g>
   </g>
   <g id="text_17">
    <!-- $\mathrm{Lu(Al_{2}Cu)_{4}}$ -->
    <g style="fill: #ff0000" transform="translate(158.402084 165.290556) scale(0.1 -0.1)">
     <use xlink:href="#DejaVuSans-4c" transform="translate(0 0.015625)"/>
     <use xlink:href="#DejaVuSans-75" transform="translate(55.712891 0.015625)"/>
     <use xlink:href="#DejaVuSans-28" transform="translate(119.091797 0.015625)"/>
     <use xlink:href="#DejaVuSans-41" transform="translate(158.105469 0.015625)"/>
     <use xlink:href="#DejaVuSans-6c" transform="translate(226.513672 0.015625)"/>
     <use xlink:href="#DejaVuSans-32" transform="translate(255.253906 -16.390625) scale(0.7)"/>
     <use xlink:href="#DejaVuSans-43" transform="translate(302.524414 0.015625)"/>
     <use xlink:href="#DejaVuSans-75" transform="translate(372.348633 0.015625)"/>
     <use xlink:href="#DejaVuSans-29" transform="translate(435.727539 0.015625)"/>
     <use xlink:href="#DejaVuSans-34" transform="translate(475.698242 -16.390625) scale(0.7)"/>
    </g>
   </g>
  </g>
  <g id="axes_2">
   <g id="patch_3">
    <path d="M 287.298425 195.703937 
L 296.029134 195.703937 
L 296.029134 36.96378 
L 287.298425 36.96378 
L 287.298425 195.703937 
z
" style="fill: none"/>
   </g>
   <g id="patch_4">
    <path d="M 287.298425 195.703937 
L 291.66378 203.640945 
L 296.029134 195.703937 
" style="fill: #440154; opacity: 0.7"/>
   </g>
   <g id="patch_5">
    <path d="M 287.298425 36.96378 
L 291.66378 29.026772 
L 296.029134 36.96378 
" style="fill: #fde725; opacity: 0.7"/>
   </g>
   <g id="QuadMesh_1">
    <path d="M 287.298425 195.703937 
L 296.029134 195.703937 
L 296.029134 192.326487 
L 287.298425 192.326487 
L 287.298425 195.703937 
" clip-path="url(#p7416afcd1c)" style="fill: #450457; fill-opacity: 0.7"/>
    <path d="M 287.298425 192.326487 
L 296.029134 192.326487 
L 296.029134 188.949037 
L 287.298425 188.949037 
L 287.298425 192.326487 
" clip-path="url(#p7416afcd1c)" style="fill: #470d60; fill-opacity: 0.7"/>
    <path d="M 287.298425 188.949037 
L 296.029134 188.949037 
L 296.029134 185.571587 
L 287.298425 185.571587 
L 287.298425 188.949037 
" clip-path="url(#p7416afcd1c)" style="fill: #481467; fill-opacity: 0.7"/>
    <path d="M 287.298425 185.571587 
L 296.029134 185.571587 
L 296.029134 182.194136 
L 287.298425 182.194136 
L 287.298425 185.571587 
" clip-path="url(#p7416afcd1c)" style="fill: #481c6e; fill-opacity: 0.7"/>
    <path d="M 287.298425 182.194136 
L 296.029134 182.194136 
L 296.029134 178.816686 
L 287.298425 178.816686 
L 287.298425 182.194136 
" clip-path="url(#p7416afcd1c)" style="fill: #482374; fill-opacity: 0.7"/>
    <path d="M 287.298425 178.816686 
L 296.029134 178.816686 
L 296.029134 175.439236 
L 287.298425 175.439236 
L 287.298425 178.816686 
" clip-path="url(#p7416afcd1c)" style="fill: #482979; fill-opacity: 0.7"/>
    <path d="M 287.298425 175.439236 
L 296.029134 175.439236 
L 296.029134 172.061786 
L 287.298425 172.061786 
L 287.298425 175.439236 
" clip-path="url(#p7416afcd1c)" style="fill: #46307e; fill-opacity: 0.7"/>
    <path d="M 287.298425 172.061786 
L 296.029134 172.061786 
L 296.029134 168.684336 
L 287.298425 168.684336 
L 287.298425 172.061786 
" clip-path="url(#p7416afcd1c)" style="fill: #453781; fill-opacity: 0.7"/>
    <path d="M 287.298425 168.684336 
L 296.029134 168.684336 
L 296.029134 165.306886 
L 287.298425 165.306886 
L 287.298425 168.684336 
" clip-path="url(#p7416afcd1c)" style="fill: #433e85; fill-opacity: 0.7"/>
    <path d="M 287.298425 165.306886 
L 296.029134 165.306886 
L 296.029134 161.929435 
L 287.298425 161.929435 
L 287.298425 165.306886 
" clip-path="url(#p7416afcd1c)" style="fill: #414487; fill-opacity: 0.7"/>
    <path d="M 287.298425 161.929435 
L 296.029134 161.929435 
L 296.029134 158.551985 
L 287.298425 158.551985 
L 287.298425 161.929435 
" clip-path="url(#p7416afcd1c)" style="fill: #3e4a89; fill-opacity: 0.7"/>
    <path d="M 287.298425 158.551985 
L 296.029134 158.551985 
L 296.029134 155.174535 
L 287.298425 155.174535 
L 287.298425 158.551985 
" clip-path="url(#p7416afcd1c)" style="fill: #3c508b; fill-opacity: 0.7"/>
    <path d="M 287.298425 155.174535 
L 296.029134 155.174535 
L 296.029134 151.797085 
L 287.298425 151.797085 
L 287.298425 155.174535 
" clip-path="url(#p7416afcd1c)" style="fill: #39568c; fill-opacity: 0.7"/>
    <path d="M 287.298425 151.797085 
L 296.029134 151.797085 
L 296.029134 148.419635 
L 287.298425 148.419635 
L 287.298425 151.797085 
" clip-path="url(#p7416afcd1c)" style="fill: #365c8d; fill-opacity: 0.7"/>
    <path d="M 287.298425 148.419635 
L 296.029134 148.419635 
L 296.029134 145.042185 
L 287.298425 145.042185 
L 287.298425 148.419635 
" clip-path="url(#p7416afcd1c)" style="fill: #34618d; fill-opacity: 0.7"/>
    <path d="M 287.298425 145.042185 
L 296.029134 145.042185 
L 296.029134 141.664734 
L 287.298425 141.664734 
L 287.298425 145.042185 
" clip-path="url(#p7416afcd1c)" style="fill: #31678e; fill-opacity: 0.7"/>
    <path d="M 287.298425 141.664734 
L 296.029134 141.664734 
L 296.029134 138.287284 
L 287.298425 138.287284 
L 287.298425 141.664734 
" clip-path="url(#p7416afcd1c)" style="fill: #2f6c8e; fill-opacity: 0.7"/>
    <path d="M 287.298425 138.287284 
L 296.029134 138.287284 
L 296.029134 134.909834 
L 287.298425 134.909834 
L 287.298425 138.287284 
" clip-path="url(#p7416afcd1c)" style="fill: #2c718e; fill-opacity: 0.7"/>
    <path d="M 287.298425 134.909834 
L 296.029134 134.909834 
L 296.029134 131.532384 
L 287.298425 131.532384 
L 287.298425 134.909834 
" clip-path="url(#p7416afcd1c)" style="fill: #2a768e; fill-opacity: 0.7"/>
    <path d="M 287.298425 131.532384 
L 296.029134 131.532384 
L 296.029134 128.154934 
L 287.298425 128.154934 
L 287.298425 131.532384 
" clip-path="url(#p7416afcd1c)" style="fill: #287c8e; fill-opacity: 0.7"/>
    <path d="M 287.298425 128.154934 
L 296.029134 128.154934 
L 296.029134 124.777484 
L 287.298425 124.777484 
L 287.298425 128.154934 
" clip-path="url(#p7416afcd1c)" style="fill: #26818e; fill-opacity: 0.7"/>
    <path d="M 287.298425 124.777484 
L 296.029134 124.777484 
L 296.029134 121.400034 
L 287.298425 121.400034 
L 287.298425 124.777484 
" clip-path="url(#p7416afcd1c)" style="fill: #24868e; fill-opacity: 0.7"/>
    <path d="M 287.298425 121.400034 
L 296.029134 121.400034 
L 296.029134 118.022583 
L 287.298425 118.022583 
L 287.298425 121.400034 
" clip-path="url(#p7416afcd1c)" style="fill: #228b8d; fill-opacity: 0.7"/>
    <path d="M 287.298425 118.022583 
L 296.029134 118.022583 
L 296.029134 114.645133 
L 287.298425 114.645133 
L 287.298425 118.022583 
" clip-path="url(#p7416afcd1c)" style="fill: #21918c; fill-opacity: 0.7"/>
    <path d="M 287.298425 114.645133 
L 296.029134 114.645133 
L 296.029134 111.267683 
L 287.298425 111.267683 
L 287.298425 114.645133 
" clip-path="url(#p7416afcd1c)" style="fill: #1f958b; fill-opacity: 0.7"/>
    <path d="M 287.298425 111.267683 
L 296.029134 111.267683 
L 296.029134 107.890233 
L 287.298425 107.890233 
L 287.298425 111.267683 
" clip-path="url(#p7416afcd1c)" style="fill: #1f9a8a; fill-opacity: 0.7"/>
    <path d="M 287.298425 107.890233 
L 296.029134 107.890233 
L 296.029134 104.512783 
L 287.298425 104.512783 
L 287.298425 107.890233 
" clip-path="url(#p7416afcd1c)" style="fill: #1fa088; fill-opacity: 0.7"/>
    <path d="M 287.298425 104.512783 
L 296.029134 104.512783 
L 296.029134 101.135333 
L 287.298425 101.135333 
L 287.298425 104.512783 
" clip-path="url(#p7416afcd1c)" style="fill: #20a486; fill-opacity: 0.7"/>
    <path d="M 287.298425 101.135333 
L 296.029134 101.135333 
L 296.029134 97.757882 
L 287.298425 97.757882 
L 287.298425 101.135333 
" clip-path="url(#p7416afcd1c)" style="fill: #24aa83; fill-opacity: 0.7"/>
    <path d="M 287.298425 97.757882 
L 296.029134 97.757882 
L 296.029134 94.380432 
L 287.298425 94.380432 
L 287.298425 97.757882 
" clip-path="url(#p7416afcd1c)" style="fill: #28ae80; fill-opacity: 0.7"/>
    <path d="M 287.298425 94.380432 
L 296.029134 94.380432 
L 296.029134 91.002982 
L 287.298425 91.002982 
L 287.298425 94.380432 
" clip-path="url(#p7416afcd1c)" style="fill: #2fb47c; fill-opacity: 0.7"/>
    <path d="M 287.298425 91.002982 
L 296.029134 91.002982 
L 296.029134 87.625532 
L 287.298425 87.625532 
L 287.298425 91.002982 
" clip-path="url(#p7416afcd1c)" style="fill: #37b878; fill-opacity: 0.7"/>
    <path d="M 287.298425 87.625532 
L 296.029134 87.625532 
L 296.029134 84.248082 
L 287.298425 84.248082 
L 287.298425 87.625532 
" clip-path="url(#p7416afcd1c)" style="fill: #40bd72; fill-opacity: 0.7"/>
    <path d="M 287.298425 84.248082 
L 296.029134 84.248082 
L 296.029134 80.870632 
L 287.298425 80.870632 
L 287.298425 84.248082 
" clip-path="url(#p7416afcd1c)" style="fill: #4ac16d; fill-opacity: 0.7"/>
    <path d="M 287.298425 80.870632 
L 296.029134 80.870632 
L 296.029134 77.493181 
L 287.298425 77.493181 
L 287.298425 80.870632 
" clip-path="url(#p7416afcd1c)" style="fill: #54c568; fill-opacity: 0.7"/>
    <path d="M 287.298425 77.493181 
L 296.029134 77.493181 
L 296.029134 74.115731 
L 287.298425 74.115731 
L 287.298425 77.493181 
" clip-path="url(#p7416afcd1c)" style="fill: #60ca60; fill-opacity: 0.7"/>
    <path d="M 287.298425 74.115731 
L 296.029134 74.115731 
L 296.029134 70.738281 
L 287.298425 70.738281 
L 287.298425 74.115731 
" clip-path="url(#p7416afcd1c)" style="fill: #6ccd5a; fill-opacity: 0.7"/>
    <path d="M 287.298425 70.738281 
L 296.029134 70.738281 
L 296.029134 67.360831 
L 287.298425 67.360831 
L 287.298425 70.738281 
" clip-path="url(#p7416afcd1c)" style="fill: #7ad151; fill-opacity: 0.7"/>
    <path d="M 287.298425 67.360831 
L 296.029134 67.360831 
L 296.029134 63.983381 
L 287.298425 63.983381 
L 287.298425 67.360831 
" clip-path="url(#p7416afcd1c)" style="fill: #86d549; fill-opacity: 0.7"/>
    <path d="M 287.298425 63.983381 
L 296.029134 63.983381 
L 296.029134 60.605931 
L 287.298425 60.605931 
L 287.298425 63.983381 
" clip-path="url(#p7416afcd1c)" style="fill: #95d840; fill-opacity: 0.7"/>
    <path d="M 287.298425 60.605931 
L 296.029134 60.605931 
L 296.029134 57.22848 
L 287.298425 57.22848 
L 287.298425 60.605931 
" clip-path="url(#p7416afcd1c)" style="fill: #a2da37; fill-opacity: 0.7"/>
    <path d="M 287.298425 57.22848 
L 296.029134 57.22848 
L 296.029134 53.85103 
L 287.298425 53.85103 
L 287.298425 57.22848 
" clip-path="url(#p7416afcd1c)" style="fill: #b2dd2d; fill-opacity: 0.7"/>
    <path d="M 287.298425 53.85103 
L 296.029134 53.85103 
L 296.029134 50.47358 
L 287.298425 50.47358 
L 287.298425 53.85103 
" clip-path="url(#p7416afcd1c)" style="fill: #c0df25; fill-opacity: 0.7"/>
    <path d="M 287.298425 50.47358 
L 296.029134 50.47358 
L 296.029134 47.09613 
L 287.298425 47.09613 
L 287.298425 50.47358 
" clip-path="url(#p7416afcd1c)" style="fill: #cde11d; fill-opacity: 0.7"/>
    <path d="M 287.298425 47.09613 
L 296.029134 47.09613 
L 296.029134 43.71868 
L 287.298425 43.71868 
L 287.298425 47.09613 
" clip-path="url(#p7416afcd1c)" style="fill: #dde318; fill-opacity: 0.7"/>
    <path d="M 287.298425 43.71868 
L 296.029134 43.71868 
L 296.029134 40.34123 
L 287.298425 40.34123 
L 287.298425 43.71868 
" clip-path="url(#p7416afcd1c)" style="fill: #eae51a; fill-opacity: 0.7"/>
    <path d="M 287.298425 40.34123 
L 296.029134 40.34123 
L 296.029134 36.96378 
L 287.298425 36.96378 
L 287.298425 40.34123 
" clip-path="url(#p7416afcd1c)" style="fill: #f8e621; fill-opacity: 0.7"/>
   </g>
   <g id="matplotlib.axis_3"/>
   <g id="matplotlib.axis_4">
    <g id="ytick_1">
     <g id="line2d_36">
      <defs>
       <path id="m34fc0c147a" d="M 0 0 
L -2 0 
" style="stroke: #000000; stroke-width: 0.3"/>
      </defs>
      <g>
       <use xlink:href="#m34fc0c147a" x="296.029134" y="188.949037" style="stroke: #000000; stroke-width: 0.3"/>
      </g>
     </g>
     <g id="text_18">
      <!-- 0.46 -->
      <g transform="translate(299.529134 191.812162) scale(0.08 -0.08)">
       <defs>
        <path id="ArialMT-2212" d="M 3381 1997 
L 356 1997 
L 356 2522 
L 3381 2522 
L 3381 1997 
z
" transform="scale(0.015625)"/>
        <path id="ArialMT-30" d="M 266 2259 
Q 266 3072 433 3567 
Q 600 4063 929 4331 
Q 1259 4600 1759 4600 
Q 2128 4600 2406 4451 
Q 2684 4303 2865 4023 
Q 3047 3744 3150 3342 
Q 3253 2941 3253 2259 
Q 3253 1453 3087 958 
Q 2922 463 2592 192 
Q 2263 -78 1759 -78 
Q 1097 -78 719 397 
Q 266 969 266 2259 
z
M 844 2259 
Q 844 1131 1108 757 
Q 1372 384 1759 384 
Q 2147 384 2411 759 
Q 2675 1134 2675 2259 
Q 2675 3391 2411 3762 
Q 2147 4134 1753 4134 
Q 1366 4134 1134 3806 
Q 844 3388 844 2259 
z
" transform="scale(0.015625)"/>
        <path id="ArialMT-2e" d="M 581 0 
L 581 641 
L 1222 641 
L 1222 0 
L 581 0 
z
" transform="scale(0.015625)"/>
        <path id="ArialMT-34" d="M 2069 0 
L 2069 1097 
L 81 1097 
L 81 1613 
L 2172 4581 
L 2631 4581 
L 2631 1613 
L 3250 1613 
L 3250 1097 
L 2631 1097 
L 2631 0 
L 2069 0 
z
M 2069 1613 
L 2069 3678 
L 634 1613 
L 2069 1613 
z
" transform="scale(0.015625)"/>
        <path id="ArialMT-36" d="M 3184 3459 
L 2625 3416 
Q 2550 3747 2413 3897 
Q 2184 4138 1850 4138 
Q 1581 4138 1378 3988 
Q 1113 3794 959 3422 
Q 806 3050 800 2363 
Q 1003 2672 1297 2822 
Q 1591 2972 1913 2972 
Q 2475 2972 2870 2558 
Q 3266 2144 3266 1488 
Q 3266 1056 3080 686 
Q 2894 316 2569 119 
Q 2244 -78 1831 -78 
Q 1128 -78 684 439 
Q 241 956 241 2144 
Q 241 3472 731 4075 
Q 1159 4600 1884 4600 
Q 2425 4600 2770 4297 
Q 3116 3994 3184 3459 
z
M 888 1484 
Q 888 1194 1011 928 
Q 1134 663 1356 523 
Q 1578 384 1822 384 
Q 2178 384 2434 671 
Q 2691 959 2691 1453 
Q 2691 1928 2437 2201 
Q 2184 2475 1800 2475 
Q 1419 2475 1153 2201 
Q 888 1928 888 1484 
z
" transform="scale(0.015625)"/>
       </defs>
       <use xlink:href="#ArialMT-2212"/>
       <use xlink:href="#ArialMT-30" transform="translate(58.398438 0)"/>
       <use xlink:href="#ArialMT-2e" transform="translate(114.013672 0)"/>
       <use xlink:href="#ArialMT-34" transform="translate(141.796875 0)"/>
       <use xlink:href="#ArialMT-36" transform="translate(197.412109 0)"/>
      </g>
     </g>
    </g>
    <g id="ytick_2">
     <g id="line2d_37">
      <g>
       <use xlink:href="#m34fc0c147a" x="296.029134" y="172.061786" style="stroke: #000000; stroke-width: 0.3"/>
      </g>
     </g>
     <g id="text_19">
      <!-- 0.41 -->
      <g transform="translate(299.529134 174.924911) scale(0.08 -0.08)">
       <defs>
        <path id="ArialMT-31" d="M 2384 0 
L 1822 0 
L 1822 3584 
Q 1619 3391 1289 3197 
Q 959 3003 697 2906 
L 697 3450 
Q 1169 3672 1522 3987 
Q 1875 4303 2022 4600 
L 2384 4600 
L 2384 0 
z
" transform="scale(0.015625)"/>
       </defs>
       <use xlink:href="#ArialMT-2212"/>
       <use xlink:href="#ArialMT-30" transform="translate(58.398438 0)"/>
       <use xlink:href="#ArialMT-2e" transform="translate(114.013672 0)"/>
       <use xlink:href="#ArialMT-34" transform="translate(141.796875 0)"/>
       <use xlink:href="#ArialMT-31" transform="translate(197.412109 0)"/>
      </g>
     </g>
    </g>
    <g id="ytick_3">
     <g id="line2d_38">
      <g>
       <use xlink:href="#m34fc0c147a" x="296.029134" y="155.174535" style="stroke: #000000; stroke-width: 0.3"/>
      </g>
     </g>
     <g id="text_20">
      <!-- 0.36 -->
      <g transform="translate(299.529134 158.03766) scale(0.08 -0.08)">
       <defs>
        <path id="ArialMT-33" d="M 269 1209 
L 831 1284 
Q 928 806 1161 595 
Q 1394 384 1728 384 
Q 2125 384 2398 659 
Q 2672 934 2672 1341 
Q 2672 1728 2419 1979 
Q 2166 2231 1775 2231 
Q 1616 2231 1378 2169 
L 1441 2663 
Q 1497 2656 1531 2656 
Q 1891 2656 2178 2843 
Q 2466 3031 2466 3422 
Q 2466 3731 2256 3934 
Q 2047 4138 1716 4138 
Q 1388 4138 1169 3931 
Q 950 3725 888 3313 
L 325 3413 
Q 428 3978 793 4289 
Q 1159 4600 1703 4600 
Q 2078 4600 2393 4439 
Q 2709 4278 2876 4000 
Q 3044 3722 3044 3409 
Q 3044 3113 2884 2869 
Q 2725 2625 2413 2481 
Q 2819 2388 3044 2092 
Q 3269 1797 3269 1353 
Q 3269 753 2831 336 
Q 2394 -81 1725 -81 
Q 1122 -81 723 278 
Q 325 638 269 1209 
z
" transform="scale(0.015625)"/>
       </defs>
       <use xlink:href="#ArialMT-2212"/>
       <use xlink:href="#ArialMT-30" transform="translate(58.398438 0)"/>
       <use xlink:href="#ArialMT-2e" transform="translate(114.013672 0)"/>
       <use xlink:href="#ArialMT-33" transform="translate(141.796875 0)"/>
       <use xlink:href="#ArialMT-36" transform="translate(197.412109 0)"/>
      </g>
     </g>
    </g>
    <g id="ytick_4">
     <g id="line2d_39">
      <g>
       <use xlink:href="#m34fc0c147a" x="296.029134" y="138.287284" style="stroke: #000000; stroke-width: 0.3"/>
      </g>
     </g>
     <g id="text_21">
      <!-- 0.31 -->
      <g transform="translate(299.529134 141.150409) scale(0.08 -0.08)">
       <use xlink:href="#ArialMT-2212"/>
       <use xlink:href="#ArialMT-30" transform="translate(58.398438 0)"/>
       <use xlink:href="#ArialMT-2e" transform="translate(114.013672 0)"/>
       <use xlink:href="#ArialMT-33" transform="translate(141.796875 0)"/>
       <use xlink:href="#ArialMT-31" transform="translate(197.412109 0)"/>
      </g>
     </g>
    </g>
    <g id="ytick_5">
     <g id="line2d_40">
      <g>
       <use xlink:href="#m34fc0c147a" x="296.029134" y="121.400034" style="stroke: #000000; stroke-width: 0.3"/>
      </g>
     </g>
     <g id="text_22">
      <!-- 0.26 -->
      <g transform="translate(299.529134 124.263159) scale(0.08 -0.08)">
       <defs>
        <path id="ArialMT-32" d="M 3222 541 
L 3222 0 
L 194 0 
Q 188 203 259 391 
Q 375 700 629 1000 
Q 884 1300 1366 1694 
Q 2113 2306 2375 2664 
Q 2638 3022 2638 3341 
Q 2638 3675 2398 3904 
Q 2159 4134 1775 4134 
Q 1369 4134 1125 3890 
Q 881 3647 878 3216 
L 300 3275 
Q 359 3922 746 4261 
Q 1134 4600 1788 4600 
Q 2447 4600 2831 4234 
Q 3216 3869 3216 3328 
Q 3216 3053 3103 2787 
Q 2991 2522 2730 2228 
Q 2469 1934 1863 1422 
Q 1356 997 1212 845 
Q 1069 694 975 541 
L 3222 541 
z
" transform="scale(0.015625)"/>
       </defs>
       <use xlink:href="#ArialMT-2212"/>
       <use xlink:href="#ArialMT-30" transform="translate(58.398438 0)"/>
       <use xlink:href="#ArialMT-2e" transform="translate(114.013672 0)"/>
       <use xlink:href="#ArialMT-32" transform="translate(141.796875 0)"/>
       <use xlink:href="#ArialMT-36" transform="translate(197.412109 0)"/>
      </g>
     </g>
    </g>
    <g id="ytick_6">
     <g id="line2d_41">
      <g>
       <use xlink:href="#m34fc0c147a" x="296.029134" y="104.512783" style="stroke: #000000; stroke-width: 0.3"/>
      </g>
     </g>
     <g id="text_23">
      <!-- 0.21 -->
      <g transform="translate(299.529134 107.375908) scale(0.08 -0.08)">
       <use xlink:href="#ArialMT-2212"/>
       <use xlink:href="#ArialMT-30" transform="translate(58.398438 0)"/>
       <use xlink:href="#ArialMT-2e" transform="translate(114.013672 0)"/>
       <use xlink:href="#ArialMT-32" transform="translate(141.796875 0)"/>
       <use xlink:href="#ArialMT-31" transform="translate(197.412109 0)"/>
      </g>
     </g>
    </g>
    <g id="ytick_7">
     <g id="line2d_42">
      <g>
       <use xlink:href="#m34fc0c147a" x="296.029134" y="87.625532" style="stroke: #000000; stroke-width: 0.3"/>
      </g>
     </g>
     <g id="text_24">
      <!-- 0.16 -->
      <g transform="translate(299.529134 90.488657) scale(0.08 -0.08)">
       <use xlink:href="#ArialMT-2212"/>
       <use xlink:href="#ArialMT-30" transform="translate(58.398438 0)"/>
       <use xlink:href="#ArialMT-2e" transform="translate(114.013672 0)"/>
       <use xlink:href="#ArialMT-31" transform="translate(141.796875 0)"/>
       <use xlink:href="#ArialMT-36" transform="translate(197.412109 0)"/>
      </g>
     </g>
    </g>
    <g id="ytick_8">
     <g id="line2d_43">
      <g>
       <use xlink:href="#m34fc0c147a" x="296.029134" y="70.738281" style="stroke: #000000; stroke-width: 0.3"/>
      </g>
     </g>
     <g id="text_25">
      <!-- 0.11 -->
      <g transform="translate(299.529134 73.601406) scale(0.08 -0.08)">
       <use xlink:href="#ArialMT-2212"/>
       <use xlink:href="#ArialMT-30" transform="translate(58.398438 0)"/>
       <use xlink:href="#ArialMT-2e" transform="translate(114.013672 0)"/>
       <use xlink:href="#ArialMT-31" transform="translate(141.796875 0)"/>
       <use xlink:href="#ArialMT-31" transform="translate(190.037109 0)"/>
      </g>
     </g>
    </g>
    <g id="ytick_9">
     <g id="line2d_44">
      <g>
       <use xlink:href="#m34fc0c147a" x="296.029134" y="53.85103" style="stroke: #000000; stroke-width: 0.3"/>
      </g>
     </g>
     <g id="text_26">
      <!-- 0.06 -->
      <g transform="translate(299.529134 56.714155) scale(0.08 -0.08)">
       <use xlink:href="#ArialMT-2212"/>
       <use xlink:href="#ArialMT-30" transform="translate(58.398438 0)"/>
       <use xlink:href="#ArialMT-2e" transform="translate(114.013672 0)"/>
       <use xlink:href="#ArialMT-30" transform="translate(141.796875 0)"/>
       <use xlink:href="#ArialMT-36" transform="translate(197.412109 0)"/>
      </g>
     </g>
    </g>
    <g id="ytick_10">
     <g id="line2d_45">
      <g>
       <use xlink:href="#m34fc0c147a" x="296.029134" y="36.96378" style="stroke: #000000; stroke-width: 0.3"/>
      </g>
     </g>
     <g id="text_27">
      <!-- 0.01 -->
      <g transform="translate(299.529134 39.826905) scale(0.08 -0.08)">
       <use xlink:href="#ArialMT-2212"/>
       <use xlink:href="#ArialMT-30" transform="translate(58.398438 0)"/>
       <use xlink:href="#ArialMT-2e" transform="translate(114.013672 0)"/>
       <use xlink:href="#ArialMT-30" transform="translate(141.796875 0)"/>
       <use xlink:href="#ArialMT-31" transform="translate(197.412109 0)"/>
      </g>
     </g>
    </g>
    <g id="text_28">
     <!-- Formation Energy (eV/atom) -->
     <g transform="translate(331.050071 179.408077) rotate(-90) scale(0.1 -0.1)">
      <defs>
       <path id="ArialMT-46" d="M 525 0 
L 525 4581 
L 3616 4581 
L 3616 4041 
L 1131 4041 
L 1131 2622 
L 3281 2622 
L 3281 2081 
L 1131 2081 
L 1131 0 
L 525 0 
z
" transform="scale(0.015625)"/>
       <path id="ArialMT-6f" d="M 213 1659 
Q 213 2581 725 3025 
Q 1153 3394 1769 3394 
Q 2453 3394 2887 2945 
Q 3322 2497 3322 1706 
Q 3322 1066 3130 698 
Q 2938 331 2570 128 
Q 2203 -75 1769 -75 
Q 1072 -75 642 372 
Q 213 819 213 1659 
z
M 791 1659 
Q 791 1022 1069 705 
Q 1347 388 1769 388 
Q 2188 388 2466 706 
Q 2744 1025 2744 1678 
Q 2744 2294 2464 2611 
Q 2184 2928 1769 2928 
Q 1347 2928 1069 2612 
Q 791 2297 791 1659 
z
" transform="scale(0.015625)"/>
       <path id="ArialMT-72" d="M 416 0 
L 416 3319 
L 922 3319 
L 922 2816 
Q 1116 3169 1280 3281 
Q 1444 3394 1641 3394 
Q 1925 3394 2219 3213 
L 2025 2691 
Q 1819 2813 1613 2813 
Q 1428 2813 1281 2702 
Q 1134 2591 1072 2394 
Q 978 2094 978 1738 
L 978 0 
L 416 0 
z
" transform="scale(0.015625)"/>
       <path id="ArialMT-6d" d="M 422 0 
L 422 3319 
L 925 3319 
L 925 2853 
Q 1081 3097 1340 3245 
Q 1600 3394 1931 3394 
Q 2300 3394 2536 3241 
Q 2772 3088 2869 2813 
Q 3263 3394 3894 3394 
Q 4388 3394 4653 3120 
Q 4919 2847 4919 2278 
L 4919 0 
L 4359 0 
L 4359 2091 
Q 4359 2428 4304 2576 
Q 4250 2725 4106 2815 
Q 3963 2906 3769 2906 
Q 3419 2906 3187 2673 
Q 2956 2441 2956 1928 
L 2956 0 
L 2394 0 
L 2394 2156 
Q 2394 2531 2256 2718 
Q 2119 2906 1806 2906 
Q 1569 2906 1367 2781 
Q 1166 2656 1075 2415 
Q 984 2175 984 1722 
L 984 0 
L 422 0 
z
" transform="scale(0.015625)"/>
       <path id="ArialMT-61" d="M 2588 409 
Q 2275 144 1986 34 
Q 1697 -75 1366 -75 
Q 819 -75 525 192 
Q 231 459 231 875 
Q 231 1119 342 1320 
Q 453 1522 633 1644 
Q 813 1766 1038 1828 
Q 1203 1872 1538 1913 
Q 2219 1994 2541 2106 
Q 2544 2222 2544 2253 
Q 2544 2597 2384 2738 
Q 2169 2928 1744 2928 
Q 1347 2928 1158 2789 
Q 969 2650 878 2297 
L 328 2372 
Q 403 2725 575 2942 
Q 747 3159 1072 3276 
Q 1397 3394 1825 3394 
Q 2250 3394 2515 3294 
Q 2781 3194 2906 3042 
Q 3031 2891 3081 2659 
Q 3109 2516 3109 2141 
L 3109 1391 
Q 3109 606 3145 398 
Q 3181 191 3288 0 
L 2700 0 
Q 2613 175 2588 409 
z
M 2541 1666 
Q 2234 1541 1622 1453 
Q 1275 1403 1131 1340 
Q 988 1278 909 1158 
Q 831 1038 831 891 
Q 831 666 1001 516 
Q 1172 366 1500 366 
Q 1825 366 2078 508 
Q 2331 650 2450 897 
Q 2541 1088 2541 1459 
L 2541 1666 
z
" transform="scale(0.015625)"/>
       <path id="ArialMT-74" d="M 1650 503 
L 1731 6 
Q 1494 -44 1306 -44 
Q 1000 -44 831 53 
Q 663 150 594 308 
Q 525 466 525 972 
L 525 2881 
L 113 2881 
L 113 3319 
L 525 3319 
L 525 4141 
L 1084 4478 
L 1084 3319 
L 1650 3319 
L 1650 2881 
L 1084 2881 
L 1084 941 
Q 1084 700 1114 631 
Q 1144 563 1211 522 
Q 1278 481 1403 481 
Q 1497 481 1650 503 
z
" transform="scale(0.015625)"/>
       <path id="ArialMT-69" d="M 425 3934 
L 425 4581 
L 988 4581 
L 988 3934 
L 425 3934 
z
M 425 0 
L 425 3319 
L 988 3319 
L 988 0 
L 425 0 
z
" transform="scale(0.015625)"/>
       <path id="ArialMT-6e" d="M 422 0 
L 422 3319 
L 928 3319 
L 928 2847 
Q 1294 3394 1984 3394 
Q 2284 3394 2536 3286 
Q 2788 3178 2913 3003 
Q 3038 2828 3088 2588 
Q 3119 2431 3119 2041 
L 3119 0 
L 2556 0 
L 2556 2019 
Q 2556 2363 2490 2533 
Q 2425 2703 2258 2804 
Q 2091 2906 1866 2906 
Q 1506 2906 1245 2678 
Q 984 2450 984 1813 
L 984 0 
L 422 0 
z
" transform="scale(0.015625)"/>
       <path id="ArialMT-20" transform="scale(0.015625)"/>
       <path id="ArialMT-45" d="M 506 0 
L 506 4581 
L 3819 4581 
L 3819 4041 
L 1113 4041 
L 1113 2638 
L 3647 2638 
L 3647 2100 
L 1113 2100 
L 1113 541 
L 3925 541 
L 3925 0 
L 506 0 
z
" transform="scale(0.015625)"/>
       <path id="ArialMT-65" d="M 2694 1069 
L 3275 997 
Q 3138 488 2766 206 
Q 2394 -75 1816 -75 
Q 1088 -75 661 373 
Q 234 822 234 1631 
Q 234 2469 665 2931 
Q 1097 3394 1784 3394 
Q 2450 3394 2872 2941 
Q 3294 2488 3294 1666 
Q 3294 1616 3291 1516 
L 816 1516 
Q 847 969 1125 678 
Q 1403 388 1819 388 
Q 2128 388 2347 550 
Q 2566 713 2694 1069 
z
M 847 1978 
L 2700 1978 
Q 2663 2397 2488 2606 
Q 2219 2931 1791 2931 
Q 1403 2931 1139 2672 
Q 875 2413 847 1978 
z
" transform="scale(0.015625)"/>
       <path id="ArialMT-67" d="M 319 -275 
L 866 -356 
Q 900 -609 1056 -725 
Q 1266 -881 1628 -881 
Q 2019 -881 2231 -725 
Q 2444 -569 2519 -288 
Q 2563 -116 2559 434 
Q 2191 0 1641 0 
Q 956 0 581 494 
Q 206 988 206 1678 
Q 206 2153 378 2554 
Q 550 2956 876 3175 
Q 1203 3394 1644 3394 
Q 2231 3394 2613 2919 
L 2613 3319 
L 3131 3319 
L 3131 450 
Q 3131 -325 2973 -648 
Q 2816 -972 2473 -1159 
Q 2131 -1347 1631 -1347 
Q 1038 -1347 672 -1080 
Q 306 -813 319 -275 
z
M 784 1719 
Q 784 1066 1043 766 
Q 1303 466 1694 466 
Q 2081 466 2343 764 
Q 2606 1063 2606 1700 
Q 2606 2309 2336 2618 
Q 2066 2928 1684 2928 
Q 1309 2928 1046 2623 
Q 784 2319 784 1719 
z
" transform="scale(0.015625)"/>
       <path id="ArialMT-79" d="M 397 -1278 
L 334 -750 
Q 519 -800 656 -800 
Q 844 -800 956 -737 
Q 1069 -675 1141 -563 
Q 1194 -478 1313 -144 
Q 1328 -97 1363 -6 
L 103 3319 
L 709 3319 
L 1400 1397 
Q 1534 1031 1641 628 
Q 1738 1016 1872 1384 
L 2581 3319 
L 3144 3319 
L 1881 -56 
Q 1678 -603 1566 -809 
Q 1416 -1088 1222 -1217 
Q 1028 -1347 759 -1347 
Q 597 -1347 397 -1278 
z
" transform="scale(0.015625)"/>
       <path id="ArialMT-28" d="M 1497 -1347 
Q 1031 -759 709 28 
Q 388 816 388 1659 
Q 388 2403 628 3084 
Q 909 3875 1497 4659 
L 1900 4659 
Q 1522 4009 1400 3731 
Q 1209 3300 1100 2831 
Q 966 2247 966 1656 
Q 966 153 1900 -1347 
L 1497 -1347 
z
" transform="scale(0.015625)"/>
       <path id="ArialMT-56" d="M 1803 0 
L 28 4581 
L 684 4581 
L 1875 1253 
Q 2019 853 2116 503 
Q 2222 878 2363 1253 
L 3600 4581 
L 4219 4581 
L 2425 0 
L 1803 0 
z
" transform="scale(0.015625)"/>
       <path id="ArialMT-2f" d="M 0 -78 
L 1328 4659 
L 1778 4659 
L 453 -78 
L 0 -78 
z
" transform="scale(0.015625)"/>
       <path id="ArialMT-29" d="M 791 -1347 
L 388 -1347 
Q 1322 153 1322 1656 
Q 1322 2244 1188 2822 
Q 1081 3291 891 3722 
Q 769 4003 388 4659 
L 791 4659 
Q 1378 3875 1659 3084 
Q 1900 2403 1900 1659 
Q 1900 816 1576 28 
Q 1253 -759 791 -1347 
z
" transform="scale(0.015625)"/>
      </defs>
      <use xlink:href="#ArialMT-46"/>
      <use xlink:href="#ArialMT-6f" transform="translate(61.083984 0)"/>
      <use xlink:href="#ArialMT-72" transform="translate(116.699219 0)"/>
      <use xlink:href="#ArialMT-6d" transform="translate(150 0)"/>
      <use xlink:href="#ArialMT-61" transform="translate(233.300781 0)"/>
      <use xlink:href="#ArialMT-74" transform="translate(288.916016 0)"/>
      <use xlink:href="#ArialMT-69" transform="translate(316.699219 0)"/>
      <use xlink:href="#ArialMT-6f" transform="translate(338.916016 0)"/>
      <use xlink:href="#ArialMT-6e" transform="translate(394.53125 0)"/>
      <use xlink:href="#ArialMT-20" transform="translate(450.146484 0)"/>
      <use xlink:href="#ArialMT-45" transform="translate(477.929688 0)"/>
      <use xlink:href="#ArialMT-6e" transform="translate(544.628906 0)"/>
      <use xlink:href="#ArialMT-65" transform="translate(600.244141 0)"/>
      <use xlink:href="#ArialMT-72" transform="translate(655.859375 0)"/>
      <use xlink:href="#ArialMT-67" transform="translate(689.160156 0)"/>
      <use xlink:href="#ArialMT-79" transform="translate(744.775391 0)"/>
      <use xlink:href="#ArialMT-20" transform="translate(794.775391 0)"/>
      <use xlink:href="#ArialMT-28" transform="translate(822.558594 0)"/>
      <use xlink:href="#ArialMT-65" transform="translate(855.859375 0)"/>
      <use xlink:href="#ArialMT-56" transform="translate(911.474609 0)"/>
      <use xlink:href="#ArialMT-2f" transform="translate(978.173828 0)"/>
      <use xlink:href="#ArialMT-61" transform="translate(1005.957031 0)"/>
      <use xlink:href="#ArialMT-74" transform="translate(1061.572266 0)"/>
      <use xlink:href="#ArialMT-6f" transform="translate(1089.355469 0)"/>
      <use xlink:href="#ArialMT-6d" transform="translate(1144.970703 0)"/>
      <use xlink:href="#ArialMT-29" transform="translate(1228.271484 0)"/>
     </g>
    </g>
   </g>
   <g id="LineCollection_1"/>
   <g id="patch_6">
    <path d="M 287.298425 195.703937 
L 291.66378 203.640945 
L 296.029134 195.703937 
L 296.029134 36.96378 
L 291.66378 29.026772 
L 287.298425 36.96378 
L 287.298425 195.703937 
z
" style="fill: none; stroke: #000000; stroke-width: 0.8; stroke-linejoin: miter; stroke-linecap: square"/>
   </g>
  </g>
 </g>
 <defs>
  <clipPath id="p753129bbff">
   <rect x="7.2" y="7.2" width="263.622047" height="218.267717"/>
  </clipPath>
  <clipPath id="p7416afcd1c">
   <rect x="287.298425" y="36.96378" width="8.730709" height="158.740157"/>
  </clipPath>
 </defs>
</svg>
