<?xml version="1.0" encoding="utf-8" standalone="no"?>
<!DOCTYPE svg PUBLIC "-//W3C//DTD SVG 1.1//EN"
  "http://www.w3.org/Graphics/SVG/1.1/DTD/svg11.dtd">
<svg xmlns:xlink="http://www.w3.org/1999/xlink" width="344.803509pt" height="232.667717pt" viewBox="0 0 344.803509 232.667717" xmlns="http://www.w3.org/2000/svg" version="1.1">
 <metadata>
  <rdf:RDF xmlns:dc="http://purl.org/dc/elements/1.1/" xmlns:cc="http://creativecommons.org/ns#" xmlns:rdf="http://www.w3.org/1999/02/22-rdf-syntax-ns#">
   <cc:Work>
    <dc:type rdf:resource="http://purl.org/dc/dcmitype/StillImage"/>
    <dc:date>2026-01-27T21:38:04.891228</dc:date>
    <dc:format>image/svg+xml</dc:format>
    <dc:creator>
     <cc:Agent>
      <dc:title>Matplotlib v3.10.8, https://matplotlib.org/</dc:title>
     </cc:Agent>
    </dc:creator>
   </cc:Work>
  </rdf:RDF>
 </metadata>
 <defs>
  <style type="text/css">*{stroke-linejoin: round; stroke-linecap: butt}</style>
 </defs>
 <g id="figure_1">
  <g id="patch_1">
   <path d="M 0 232.667717 
L 344.803509 232.667717 
L 344.803509 0 
L 0 0 
L 0 232.667717 
z
" style="fill: none"/>
  </g>
  <g id="axes_1">
   <g id="patch_2">
    <path d="M 7.2 225.467717 
L 270.822047 225.467717 
L 270.822047 7.2 
L 7.2 7.2 
L 7.2 225.467717 
z
" style="fill: none"/>
   </g>
   <g id="TriContourSet_1">
    <path d="M 184.018133 214.554331 
L 178.793809 209.255724 
L 176.464094 207.303801 
L 166.484337 214.554331 
L 178.953758 214.554331 
z
" clip-path="url(#p8451e82319)" style="fill: #440154; fill-opacity: 0.7"/>
    <path d="M 166.484337 214.554331 
L 176.464094 207.303801 
L 178.793809 209.255724 
L 184.018133 214.554331 
L 189.94249 214.554331 
L 178.606699 203.057361 
L 173.55166 198.822058 
L 161.631699 207.482192 
L 160.672132 208.495446 
L 155.319987 214.554331 
L 162.976664 214.554331 
z
M 161.631699 207.482192 
L 155.319987 214.554331 
L 162.976664 214.554331 
z
" clip-path="url(#p8451e82319)" style="fill: #450559; fill-opacity: 0.7"/>
    <path d="M 155.319987 214.554331 
L 160.672132 208.495446 
L 161.631699 207.482192 
L 173.55166 198.822058 
L 178.606699 203.057361 
L 189.94249 214.554331 
L 195.866846 214.554331 
L 178.419589 196.858998 
L 170.639226 190.340316 
L 159.860918 198.171012 
L 157.637984 200.518317 
L 145.239204 214.554331 
z
M 155.319987 214.554331 
L 161.631699 207.482192 
L 159.860918 198.171012 
L 145.239204 214.554331 
z
" clip-path="url(#p8451e82319)" style="fill: #471164; fill-opacity: 0.7"/>
    <path d="M 145.239204 214.554331 
L 157.637984 200.518317 
L 159.860918 198.171012 
L 170.639226 190.340316 
L 178.419589 196.858998 
L 195.866846 214.554331 
L 198.925125 214.554331 
L 199.817422 214.554331 
L 199.393852 213.075526 
L 198.925125 212.049669 
L 198.326118 211.152633 
L 198.070853 210.781083 
L 178.23248 190.660635 
L 167.726792 181.858574 
L 158.090137 188.859831 
L 154.603835 192.541188 
L 135.158421 214.554331 
z
M 145.239204 214.554331 
L 159.860918 198.171012 
L 158.090137 188.859831 
L 135.158421 214.554331 
z
" clip-path="url(#p8451e82319)" style="fill: #481b6d; fill-opacity: 0.7"/>
    <path d="M 135.158421 214.554331 
L 154.603835 192.541188 
L 158.090137 188.859831 
L 167.726792 181.858574 
L 178.23248 190.660635 
L 198.070853 210.781083 
L 198.326118 211.152633 
L 198.925125 212.049669 
L 199.393852 213.075526 
L 199.817422 214.554331 
L 201.661853 214.554331 
L 200.362739 210.018747 
L 198.925125 206.87238 
L 197.087933 204.121116 
L 196.305021 202.98155 
L 178.04537 184.462272 
L 164.814358 173.376831 
L 156.319356 179.548651 
L 151.569687 184.564058 
L 125.077637 214.554331 
z
M 135.158421 214.554331 
L 158.090137 188.859831 
L 156.319356 179.548651 
L 125.077637 214.554331 
z
" clip-path="url(#p8451e82319)" style="fill: #482576; fill-opacity: 0.7"/>
    <path d="M 125.077637 214.554331 
L 151.569687 184.564058 
L 156.319356 179.548651 
L 164.814358 173.376831 
L 178.04537 184.462272 
L 196.305021 202.98155 
L 197.087933 204.121116 
L 198.925125 206.87238 
L 200.362739 210.018747 
L 201.661853 214.554331 
L 203.506285 214.554331 
L 201.331625 206.961968 
L 198.925125 201.695091 
L 195.849748 197.089598 
L 194.539189 195.182018 
L 177.85826 178.263909 
L 161.901924 164.895089 
L 154.548575 170.237471 
L 148.535539 176.586929 
L 124.955601 203.280551 
L 123.932909 204.541671 
L 120.797701 210.775769 
L 119.917945 212.571975 
L 119.112579 214.554331 
L 121.892709 214.554331 
z
M 125.077637 214.554331 
L 156.319356 179.548651 
L 154.548575 170.237471 
L 123.932909 204.541671 
L 121.892709 214.554331 
z
" clip-path="url(#p8451e82319)" style="fill: #472e7c; fill-opacity: 0.7"/>
    <path d="M 119.112579 214.554331 
L 119.917945 212.571975 
L 120.797701 210.775769 
L 123.932909 204.541671 
L 124.955601 203.280551 
L 148.535539 176.586929 
L 154.548575 170.237471 
L 161.901924 164.895089 
L 177.85826 178.263909 
L 194.539189 195.182018 
L 195.849748 197.089598 
L 198.925125 201.695091 
L 201.331625 206.961968 
L 203.506285 214.554331 
L 205.350716 214.554331 
L 202.300512 203.905189 
L 198.925125 196.517803 
L 194.611564 190.058081 
L 192.773356 187.382485 
L 177.67115 172.065546 
L 158.98949 156.413346 
L 152.777793 160.926291 
L 145.501391 168.6098 
L 129.433124 186.799849 
L 126.915399 189.904552 
L 119.196951 205.252036 
L 117.031115 209.674046 
L 115.048414 214.554331 
z
M 152.777793 160.926291 
L 126.915399 189.904552 
L 123.932909 204.541671 
L 154.548575 170.237471 
z
" clip-path="url(#p8451e82319)" style="fill: #453882; fill-opacity: 0.7"/>
    <path d="M 115.048414 214.554331 
L 117.031115 209.674046 
L 119.196951 205.252036 
L 126.915399 189.904552 
L 129.433124 186.799849 
L 145.501391 168.6098 
L 152.777793 160.926291 
L 158.98949 156.413346 
L 177.67115 172.065546 
L 192.773356 187.382485 
L 194.611564 190.058081 
L 198.925125 196.517803 
L 202.300512 203.905189 
L 205.350716 214.554331 
L 207.195147 214.554331 
L 203.269399 200.848409 
L 198.925125 191.340514 
L 193.373379 183.026564 
L 191.007524 179.582952 
L 177.48404 165.867183 
L 156.077056 147.931604 
L 151.007012 151.61511 
L 142.467242 160.63267 
L 133.910647 170.319147 
L 129.897889 175.267433 
L 117.5962 199.728303 
L 114.144284 206.776117 
L 110.98425 214.554331 
z
M 151.007012 151.61511 
L 129.897889 175.267433 
L 126.915399 189.904552 
L 152.777793 160.926291 
z
" clip-path="url(#p8451e82319)" style="fill: #424086; fill-opacity: 0.7"/>
    <path d="M 110.98425 214.554331 
L 114.144284 206.776117 
L 117.5962 199.728303 
L 129.897889 175.267433 
L 133.910647 170.319147 
L 142.467242 160.63267 
L 151.007012 151.61511 
L 156.077056 147.931604 
L 177.48404 165.867183 
L 191.007524 179.582952 
L 193.373379 183.026564 
L 198.925125 191.340514 
L 203.269399 200.848409 
L 207.195147 214.554331 
L 209.039579 214.554331 
L 204.238285 197.79163 
L 198.925125 186.163225 
L 192.135194 175.995047 
L 189.241692 171.783419 
L 177.29693 159.66882 
L 153.164621 139.449862 
L 149.236231 142.30393 
L 139.433094 152.655541 
L 138.38817 153.838446 
L 132.880379 160.630313 
L 115.99545 194.20457 
L 111.257454 203.878188 
L 106.920085 214.554331 
z
M 149.236231 142.30393 
L 132.880379 160.630313 
L 129.897889 175.267433 
L 151.007012 151.61511 
z
" clip-path="url(#p8451e82319)" style="fill: #3e4989; fill-opacity: 0.7"/>
    <path d="M 106.920085 214.554331 
L 111.257454 203.878188 
L 115.99545 194.20457 
L 132.880379 160.630313 
L 138.38817 153.838446 
L 139.433094 152.655541 
L 149.236231 142.30393 
L 153.164621 139.449862 
L 177.29693 159.66882 
L 189.241692 171.783419 
L 192.135194 175.995047 
L 198.925125 186.163225 
L 204.238285 197.79163 
L 209.039579 214.554331 
L 210.88401 214.554331 
L 205.207172 194.734851 
L 198.925125 180.985937 
L 190.897009 168.96353 
L 187.475859 163.983886 
L 177.109821 153.470457 
L 150.252187 130.968119 
L 147.46545 132.99275 
L 140.088361 140.782579 
L 135.862869 145.993194 
L 114.3947 188.680836 
L 108.370623 200.98026 
L 102.855921 214.554331 
z
M 147.46545 132.99275 
L 135.862869 145.993194 
L 132.880379 160.630313 
L 149.236231 142.30393 
z
" clip-path="url(#p8451e82319)" style="fill: #3b528b; fill-opacity: 0.7"/>
    <path d="M 102.855921 214.554331 
L 108.370623 200.98026 
L 114.3947 188.680836 
L 135.862869 145.993194 
L 140.088361 140.782579 
L 147.46545 132.99275 
L 150.252187 130.968119 
L 177.109821 153.470457 
L 187.475859 163.983886 
L 190.897009 168.96353 
L 198.925125 180.985937 
L 205.207172 194.734851 
L 210.88401 214.554331 
L 212.728442 214.554331 
L 206.176059 191.678072 
L 198.925125 175.808648 
L 189.658825 161.932013 
L 185.710027 156.184354 
L 176.922711 147.272094 
L 147.339753 122.486377 
L 145.694669 123.68157 
L 141.339778 128.280111 
L 138.84536 131.356075 
L 112.79395 183.157103 
L 105.483793 198.082331 
L 98.791757 214.554331 
z
M 145.694669 123.68157 
L 138.84536 131.356075 
L 135.862869 145.993194 
L 147.46545 132.99275 
z
" clip-path="url(#p8451e82319)" style="fill: #375a8c; fill-opacity: 0.7"/>
    <path d="M 98.791757 214.554331 
L 105.483793 198.082331 
L 112.79395 183.157103 
L 138.84536 131.356075 
L 141.339778 128.280111 
L 145.694669 123.68157 
L 147.339753 122.486377 
L 176.922711 147.272094 
L 185.710027 156.184354 
L 189.658825 161.932013 
L 198.925125 175.808648 
L 206.176059 191.678072 
L 212.728442 214.554331 
L 214.572873 214.554331 
L 207.144945 188.621293 
L 198.925125 170.631359 
L 188.42064 154.900496 
L 183.944194 148.384821 
L 176.735601 141.073731 
L 144.427319 114.004634 
L 143.923888 114.370389 
L 142.591196 115.777643 
L 141.82785 116.718955 
L 111.1932 177.63337 
L 102.596962 195.184402 
L 94.727592 214.554331 
z
M 143.923888 114.370389 
L 141.82785 116.718955 
L 138.84536 131.356075 
L 145.694669 123.68157 
z
" clip-path="url(#p8451e82319)" style="fill: #33628d; fill-opacity: 0.7"/>
    <path d="M 94.727592 214.554331 
L 102.596962 195.184402 
L 111.1932 177.63337 
L 141.82785 116.718955 
L 142.591196 115.777643 
L 143.923888 114.370389 
L 144.427319 114.004634 
L 176.735601 141.073731 
L 183.944194 148.384821 
L 188.42064 154.900496 
L 198.925125 170.631359 
L 207.144945 188.621293 
L 214.572873 214.554331 
L 216.417305 214.554331 
L 208.113832 185.564513 
L 198.925125 165.45407 
L 187.182455 147.868978 
L 182.178362 140.585288 
L 176.548491 134.875368 
L 147.579677 110.604203 
L 145.032479 108.730782 
L 144.464118 108.347204 
L 143.044982 108.253772 
L 141.823351 108.324143 
L 141.486163 108.770943 
L 140.844393 109.967786 
L 109.59245 172.109637 
L 99.710132 192.286473 
L 90.663428 214.554331 
z
M 141.82785 116.718955 
L 143.923888 114.370389 
L 143.143031 110.264462 
z
" clip-path="url(#p8451e82319)" style="fill: #30698e; fill-opacity: 0.7"/>
    <path d="M 90.663428 214.554331 
L 99.710132 192.286473 
L 109.59245 172.109637 
L 140.844393 109.967786 
L 141.486163 108.770943 
L 141.823351 108.324143 
L 143.044982 108.253772 
L 144.464118 108.347204 
L 145.032479 108.730782 
L 147.579677 110.604203 
L 176.548491 134.875368 
L 182.178362 140.585288 
L 187.182455 147.868978 
L 198.925125 165.45407 
L 208.113832 185.564513 
L 216.417305 214.554331 
L 218.261736 214.554331 
L 209.082719 182.507734 
L 198.925125 160.276782 
L 185.94427 140.837461 
L 180.41253 132.785755 
L 176.361381 128.677005 
L 155.515972 111.211935 
L 148.412334 105.987327 
L 146.827285 104.917605 
L 142.869593 104.65704 
L 139.462703 104.853291 
L 138.522352 106.099329 
L 136.732579 109.437092 
L 107.9917 166.585904 
L 96.823302 189.388544 
L 86.599263 214.554331 
z
" clip-path="url(#p8451e82319)" style="fill: #2d718e; fill-opacity: 0.7"/>
    <path d="M 86.599263 214.554331 
L 96.823302 189.388544 
L 107.9917 166.585904 
L 136.732579 109.437092 
L 138.522352 106.099329 
L 139.462703 104.853291 
L 142.869593 104.65704 
L 146.827285 104.917605 
L 148.412334 105.987327 
L 155.515972 111.211935 
L 176.361381 128.677005 
L 180.41253 132.785755 
L 185.94427 140.837461 
L 198.925125 160.276782 
L 209.082719 182.507734 
L 218.261736 214.554331 
L 220.106167 214.554331 
L 210.051605 179.450955 
L 198.925125 155.099493 
L 184.706086 133.805944 
L 178.646697 124.986223 
L 176.174271 122.478642 
L 163.452266 111.819666 
L 151.792189 103.243873 
L 149.190452 101.488006 
L 142.694203 101.060308 
L 137.102054 101.38244 
L 135.55854 103.427715 
L 132.620765 108.906398 
L 106.39095 161.062171 
L 93.936471 186.490615 
L 82.535099 214.554331 
z
" clip-path="url(#p8451e82319)" style="fill: #2a778e; fill-opacity: 0.7"/>
    <path d="M 82.535099 214.554331 
L 93.936471 186.490615 
L 106.39095 161.062171 
L 132.620765 108.906398 
L 135.55854 103.427715 
L 137.102054 101.38244 
L 142.694203 101.060308 
L 149.190452 101.488006 
L 151.792189 103.243873 
L 163.452266 111.819666 
L 176.174271 122.478642 
L 178.646697 124.986223 
L 184.706086 133.805944 
L 198.925125 155.099493 
L 210.051605 179.450955 
L 220.106167 214.554331 
L 221.950599 214.554331 
L 211.020492 176.394176 
L 198.925125 149.922204 
L 183.467901 126.774427 
L 176.880865 117.18669 
L 175.987162 116.280279 
L 171.38856 112.427397 
L 155.172043 100.500418 
L 151.553619 98.058407 
L 142.518814 97.463577 
L 134.741406 97.911588 
L 132.594728 100.756102 
L 128.50895 108.375704 
L 104.7902 155.538438 
L 91.049641 183.592686 
L 78.822576 213.688787 
L 78.639031 214.554331 
L 79.096922 214.554331 
z
" clip-path="url(#p8451e82319)" style="fill: #277f8e; fill-opacity: 0.7"/>
    <path d="M 78.639031 214.554331 
L 78.822576 213.688787 
L 91.049641 183.592686 
L 104.7902 155.538438 
L 128.50895 108.375704 
L 132.594728 100.756102 
L 134.741406 97.911588 
L 142.518814 97.463577 
L 151.553619 98.058407 
L 155.172043 100.500418 
L 171.38856 112.427397 
L 175.987162 116.280279 
L 176.880865 117.18669 
L 183.467901 126.774427 
L 198.925125 149.922204 
L 211.020492 176.394176 
L 221.950599 214.554331 
L 223.79503 214.554331 
L 211.989379 173.337397 
L 198.925125 144.744916 
L 182.229716 119.74291 
L 175.88124 110.502407 
L 158.551898 97.756964 
L 153.916786 94.628809 
L 142.343424 93.866845 
L 132.380757 94.440737 
L 129.630916 98.084488 
L 124.397136 107.845009 
L 103.18945 150.014705 
L 88.16281 180.694757 
L 77.041415 208.069329 
L 75.666221 214.554331 
z
" clip-path="url(#p8451e82319)" style="fill: #25858e; fill-opacity: 0.7"/>
    <path d="M 75.666221 214.554331 
L 77.041415 208.069329 
L 88.16281 180.694757 
L 103.18945 150.014705 
L 124.397136 107.845009 
L 129.630916 98.084488 
L 132.380757 94.440737 
L 142.343424 93.866845 
L 153.916786 94.628809 
L 158.551898 97.756964 
L 175.88124 110.502407 
L 182.229716 119.74291 
L 198.925125 144.744916 
L 211.989379 173.337397 
L 223.79503 214.554331 
L 225.639462 214.554331 
L 212.958265 170.280617 
L 198.925125 139.567627 
L 180.991531 112.711393 
L 175.88124 105.273126 
L 161.931753 95.013509 
L 156.279953 91.19921 
L 142.168035 90.270113 
L 130.020108 90.969885 
L 126.667104 95.412874 
L 120.285322 107.314315 
L 101.588699 144.490971 
L 85.27598 177.796829 
L 75.260253 202.44987 
L 72.69341 214.554331 
z
" clip-path="url(#p8451e82319)" style="fill: #228d8d; fill-opacity: 0.7"/>
    <path d="M 72.69341 214.554331 
L 75.260253 202.44987 
L 85.27598 177.796829 
L 101.588699 144.490971 
L 120.285322 107.314315 
L 126.667104 95.412874 
L 130.020108 90.969885 
L 142.168035 90.270113 
L 156.279953 91.19921 
L 161.931753 95.013509 
L 175.88124 105.273126 
L 180.991531 112.711393 
L 198.925125 139.567627 
L 212.958265 170.280617 
L 225.639462 214.554331 
L 227.483893 214.554331 
L 213.927152 167.223838 
L 198.925125 134.390338 
L 179.753347 105.679876 
L 175.88124 100.043844 
L 165.311607 92.270055 
L 158.64312 87.769611 
L 141.992645 86.673382 
L 127.65946 87.499033 
L 123.703293 92.741261 
L 116.173508 106.783621 
L 99.987949 138.967238 
L 82.389149 174.8989 
L 73.479091 196.830412 
L 69.7206 214.554331 
z
" clip-path="url(#p8451e82319)" style="fill: #20938c; fill-opacity: 0.7"/>
    <path d="M 69.7206 214.554331 
L 73.479091 196.830412 
L 82.389149 174.8989 
L 99.987949 138.967238 
L 116.173508 106.783621 
L 123.703293 92.741261 
L 127.65946 87.499033 
L 141.992645 86.673382 
L 158.64312 87.769611 
L 165.311607 92.270055 
L 175.88124 100.043844 
L 179.753347 105.679876 
L 198.925125 134.390338 
L 213.927152 167.223838 
L 227.483893 214.554331 
L 229.328324 214.554331 
L 214.896039 164.167059 
L 198.925125 129.213049 
L 178.515162 98.648358 
L 175.88124 94.814562 
L 168.691462 89.5266 
L 161.006287 84.340012 
L 141.817256 83.07665 
L 125.298811 84.028182 
L 120.739481 90.069647 
L 112.061694 106.252927 
L 98.387199 133.443505 
L 79.502319 172.000971 
L 71.697929 191.210954 
L 66.747789 214.554331 
z
" clip-path="url(#p8451e82319)" style="fill: #1e9b8a; fill-opacity: 0.7"/>
    <path d="M 66.747789 214.554331 
L 71.697929 191.210954 
L 79.502319 172.000971 
L 98.387199 133.443505 
L 112.061694 106.252927 
L 120.739481 90.069647 
L 125.298811 84.028182 
L 141.817256 83.07665 
L 161.006287 84.340012 
L 168.691462 89.5266 
L 175.88124 94.814562 
L 178.515162 98.648358 
L 198.925125 129.213049 
L 214.896039 164.167059 
L 229.328324 214.554331 
L 231.172756 214.554331 
L 215.864926 161.11028 
L 198.925125 124.035761 
L 177.276977 91.616841 
L 175.88124 89.585281 
L 172.071317 86.783145 
L 163.369454 80.910413 
L 141.641866 79.479918 
L 122.938163 80.55733 
L 117.775669 87.398033 
L 107.94988 105.722232 
L 96.786449 127.919772 
L 76.615488 169.103042 
L 69.916767 185.591495 
L 63.774979 214.554331 
z
" clip-path="url(#p8451e82319)" style="fill: #1fa187; fill-opacity: 0.7"/>
    <path d="M 63.774979 214.554331 
L 69.916767 185.591495 
L 76.615488 169.103042 
L 96.786449 127.919772 
L 107.94988 105.722232 
L 117.775669 87.398033 
L 122.938163 80.55733 
L 141.641866 79.479918 
L 163.369454 80.910413 
L 172.071317 86.783145 
L 175.88124 89.585281 
L 177.276977 91.616841 
L 198.925125 124.035761 
L 215.864926 161.11028 
L 231.172756 214.554331 
L 233.017187 214.554331 
L 216.833812 158.053501 
L 200.86114 123.095642 
L 198.925125 120.041637 
L 184.123009 96.691745 
L 176.038792 84.585324 
L 175.88124 84.355999 
L 175.451171 84.039691 
L 165.732621 77.480814 
L 141.466477 75.883187 
L 120.577514 77.086479 
L 114.811857 84.726419 
L 103.838066 105.191538 
L 95.185699 122.396039 
L 73.728658 166.205113 
L 68.135606 179.972037 
L 60.802168 214.554331 
z
" clip-path="url(#p8451e82319)" style="fill: #23a983; fill-opacity: 0.7"/>
    <path d="M 60.802168 214.554331 
L 68.135606 179.972037 
L 73.728658 166.205113 
L 95.185699 122.396039 
L 103.838066 105.191538 
L 114.811857 84.726419 
L 120.577514 77.086479 
L 141.466477 75.883187 
L 165.732621 77.480814 
L 175.451171 84.039691 
L 175.88124 84.355999 
L 176.038792 84.585324 
L 184.123009 96.691745 
L 175.88124 83.690601 
L 171.02285 76.026636 
L 168.095789 74.051215 
L 141.291087 72.286455 
L 118.216865 73.615627 
L 111.848045 82.054806 
L 99.726252 104.660844 
L 93.584949 116.872306 
L 70.841827 163.307184 
L 66.354444 174.352579 
L 57.829358 214.554331 
z
M 234.861619 214.554331 
L 217.802699 154.996721 
L 209.332745 136.459344 
L 200.86114 123.095642 
L 216.833812 158.053501 
L 233.017187 214.554331 
z
" clip-path="url(#p8451e82319)" style="fill: #29af7f; fill-opacity: 0.7"/>
    <path d="M 57.829358 214.554331 
L 66.354444 174.352579 
L 70.841827 163.307184 
L 93.584949 116.872306 
L 99.726252 104.660844 
L 111.848045 82.054806 
L 118.216865 73.615627 
L 141.291087 72.286455 
L 168.095789 74.051215 
L 171.02285 76.026636 
L 168.968074 72.78529 
L 167.471791 70.424948 
L 141.115698 68.689723 
L 115.856217 70.144775 
L 108.884234 79.383192 
L 95.614437 104.13015 
L 91.984199 111.348573 
L 67.954997 160.409255 
L 64.573282 168.73312 
L 54.856547 214.554331 
z
M 236.70605 214.554331 
L 218.771586 151.939942 
L 217.80435 149.823047 
L 209.332745 136.459344 
L 217.802699 154.996721 
L 234.861619 214.554331 
z
" clip-path="url(#p8451e82319)" style="fill: #34b679; fill-opacity: 0.7"/>
    <path d="M 54.856547 214.554331 
L 64.573282 168.73312 
L 67.954997 160.409255 
L 91.984199 111.348573 
L 95.614437 104.13015 
L 108.884234 79.383192 
L 115.856217 70.144775 
L 141.115698 68.689723 
L 167.471791 70.424948 
L 165.10006 66.683614 
L 140.940308 65.092992 
L 113.495568 66.673924 
L 109.949043 71.373343 
L 106.330605 77.081322 
L 102.382991 83.308563 
L 91.502623 103.599455 
L 90.383449 105.82484 
L 65.068166 157.511326 
L 62.79212 163.113662 
L 51.883736 214.554331 
z
M 238.550481 214.554331 
L 221.82743 156.169334 
L 218.896492 151.545868 
L 217.80435 149.823047 
L 218.771586 151.939942 
L 236.70605 214.554331 
z
" clip-path="url(#p8451e82319)" style="fill: #3fbc73; fill-opacity: 0.7"/>
    <path d="M 79.172367 119.922624 
L 62.181336 154.613397 
L 61.010958 157.494204 
L 48.910926 214.554331 
L 51.883736 214.554331 
L 62.79212 163.113662 
L 65.068166 157.511326 
L 90.383449 105.82484 
L 91.502623 103.599455 
L 102.382991 83.308563 
L 89.669999 103.362926 
z
M 240.394913 214.554331 
L 225.192139 161.477061 
L 221.82743 156.169334 
L 238.550481 214.554331 
z
M 162.72833 62.94228 
L 140.764919 61.49626 
L 115.279751 62.964313 
L 113.201872 66.242104 
L 109.949043 71.373343 
L 113.495568 66.673924 
L 140.940308 65.092992 
L 165.10006 66.683614 
z
" clip-path="url(#p8451e82319)" style="fill: #4ec36b; fill-opacity: 0.7"/>
    <path d="M 60.233921 149.797454 
L 59.294506 151.715469 
L 59.229797 151.874745 
L 45.938115 214.554331 
L 48.910926 214.554331 
L 61.010958 157.494204 
L 62.181336 154.613397 
L 79.172367 119.922624 
z
M 242.239344 214.554331 
L 228.556847 166.784788 
L 225.192139 161.477061 
L 240.394913 214.554331 
z
M 160.356599 59.200947 
L 140.589529 57.899528 
L 117.652878 59.220776 
L 115.279751 62.964313 
L 140.764919 61.49626 
L 162.72833 62.94228 
z
" clip-path="url(#p8451e82319)" style="fill: #5cc863; fill-opacity: 0.7"/>
    <path d="M 54.919862 158.180222 
L 42.965305 214.554331 
L 45.938115 214.554331 
L 59.229797 151.874745 
L 59.294506 151.715469 
L 60.233921 149.797454 
L 59.125555 151.545868 
z
M 244.083776 214.554331 
L 231.921556 172.092515 
L 228.556847 166.784788 
L 242.239344 214.554331 
z
M 157.984868 55.459613 
L 140.41414 54.302797 
L 120.026005 55.477239 
L 117.652878 59.220776 
L 140.589529 57.899528 
L 160.356599 59.200947 
z
" clip-path="url(#p8451e82319)" style="fill: #6ece58; fill-opacity: 0.7"/>
    <path d="M 50.452732 165.226986 
L 39.992494 214.554331 
L 42.965305 214.554331 
L 54.919862 158.180222 
z
M 245.928207 214.554331 
L 235.286265 177.400242 
L 231.921556 172.092515 
L 244.083776 214.554331 
z
M 155.613138 51.718279 
L 140.23875 50.706065 
L 122.399133 51.733702 
L 120.026005 55.477239 
L 140.41414 54.302797 
L 157.984868 55.459613 
z
" clip-path="url(#p8451e82319)" style="fill: #81d34d; fill-opacity: 0.7"/>
    <path d="M 45.985601 172.273749 
L 37.019684 214.554331 
L 39.992494 214.554331 
L 50.452732 165.226986 
z
M 247.772638 214.554331 
L 238.650974 182.707969 
L 235.286265 177.400242 
L 245.928207 214.554331 
z
M 153.241407 47.976945 
L 140.063361 47.109333 
L 124.77226 47.990165 
L 122.399133 51.733702 
L 140.23875 50.706065 
L 155.613138 51.718279 
z
" clip-path="url(#p8451e82319)" style="fill: #93d741; fill-opacity: 0.7"/>
    <path d="M 41.518471 179.320513 
L 34.046873 214.554331 
L 37.019684 214.554331 
L 45.985601 172.273749 
z
M 249.61707 214.554331 
L 242.015683 188.015696 
L 238.650974 182.707969 
L 247.772638 214.554331 
z
M 150.869677 44.235612 
L 139.887971 43.512602 
L 127.145387 44.246628 
L 124.77226 47.990165 
L 140.063361 47.109333 
L 153.241407 47.976945 
z
" clip-path="url(#p8451e82319)" style="fill: #a8db34; fill-opacity: 0.7"/>
    <path d="M 37.051341 186.367277 
L 31.074063 214.554331 
L 34.046873 214.554331 
L 41.518471 179.320513 
z
M 251.461501 214.554331 
L 245.380392 193.323423 
L 242.015683 188.015696 
L 249.61707 214.554331 
z
M 148.497946 40.494278 
L 139.712582 39.91587 
L 129.518515 40.503091 
L 127.145387 44.246628 
L 139.887971 43.512602 
L 150.869677 44.235612 
z
" clip-path="url(#p8451e82319)" style="fill: #bade28; fill-opacity: 0.7"/>
    <path d="M 32.584211 193.41404 
L 28.101252 214.554331 
L 31.074063 214.554331 
L 37.051341 186.367277 
z
M 253.305933 214.554331 
L 248.7451 198.63115 
L 245.380392 193.323423 
L 251.461501 214.554331 
z
M 146.126215 36.752944 
L 139.537192 36.319138 
L 131.891642 36.759554 
L 129.518515 40.503091 
L 139.712582 39.91587 
L 148.497946 40.494278 
z
" clip-path="url(#p8451e82319)" style="fill: #d0e11c; fill-opacity: 0.7"/>
    <path d="M 28.117081 200.460804 
L 25.128441 214.554331 
L 28.101252 214.554331 
L 32.584211 193.41404 
z
M 255.150364 214.554331 
L 252.109809 203.938877 
L 248.7451 198.63115 
L 253.305933 214.554331 
z
M 143.754485 33.011611 
L 139.361803 32.722407 
L 134.264769 33.016017 
L 131.891642 36.759554 
L 139.537192 36.319138 
L 146.126215 36.752944 
z
" clip-path="url(#p8451e82319)" style="fill: #e2e418; fill-opacity: 0.7"/>
    <path d="M 23.649951 207.507567 
L 22.155631 214.554331 
L 25.128441 214.554331 
L 28.117081 200.460804 
z
M 256.994796 214.554331 
L 255.474518 209.246604 
L 252.109809 203.938877 
L 255.150364 214.554331 
z
M 141.382754 29.270277 
L 139.186413 29.125675 
L 136.637896 29.27248 
L 134.264769 33.016017 
L 139.361803 32.722407 
L 143.754485 33.011611 
z
" clip-path="url(#p8451e82319)" style="fill: #f6e620; fill-opacity: 0.7"/>
    <path d="M 22.155631 214.554331 
L 23.649951 207.507567 
L 19.18282 214.554331 
z
M 255.474518 209.246604 
L 256.994796 214.554331 
L 258.839227 214.554331 
z
M 136.637896 29.27248 
L 139.186413 29.125675 
L 141.382754 29.270277 
L 139.011024 25.528943 
z
" clip-path="url(#p8451e82319)" style="fill: #fde725; fill-opacity: 0.7"/>
   </g>
   <g id="matplotlib.axis_1"/>
   <g id="matplotlib.axis_2"/>
   <g id="line2d_1">
    <path d="M 121.892709 214.554331 
L 89.669999 103.362926 
" clip-path="url(#p8451e82319)" style="fill: none; stroke: #555555; stroke-opacity: 0.9; stroke-width: 0.5; stroke-linecap: square"/>
   </g>
   <g id="line2d_2">
    <path d="M 218.896492 151.545868 
L 198.925125 214.554331 
" clip-path="url(#p8451e82319)" style="fill: none; stroke: #555555; stroke-opacity: 0.9; stroke-width: 0.5; stroke-linecap: square"/>
   </g>
   <g id="line2d_3">
    <path d="M 113.201872 66.242104 
L 139.011024 25.528943 
" clip-path="url(#p8451e82319)" style="fill: none; stroke: #555555; stroke-opacity: 0.9; stroke-width: 0.5; stroke-linecap: square"/>
   </g>
   <g id="line2d_4">
    <path d="M 143.143031 110.264462 
L 139.011024 25.528943 
" clip-path="url(#p8451e82319)" style="fill: none; stroke: #555555; stroke-opacity: 0.9; stroke-width: 0.5; stroke-linecap: square"/>
   </g>
   <g id="line2d_5">
    <path d="M 162.976664 214.554331 
L 121.892709 214.554331 
" clip-path="url(#p8451e82319)" style="fill: none; stroke: #555555; stroke-opacity: 0.9; stroke-width: 0.5; stroke-linecap: square"/>
   </g>
   <g id="line2d_6">
    <path d="M 106.330605 77.081322 
L 113.201872 66.242104 
" clip-path="url(#p8451e82319)" style="fill: none; stroke: #555555; stroke-opacity: 0.9; stroke-width: 0.5; stroke-linecap: square"/>
   </g>
   <g id="line2d_7">
    <path d="M 162.976664 214.554331 
L 143.143031 110.264462 
" clip-path="url(#p8451e82319)" style="fill: none; stroke: #555555; stroke-opacity: 0.9; stroke-width: 0.5; stroke-linecap: square"/>
   </g>
   <g id="line2d_8">
    <path d="M 168.968074 72.78529 
L 175.88124 83.690601 
" clip-path="url(#p8451e82319)" style="fill: none; stroke: #555555; stroke-opacity: 0.9; stroke-width: 0.5; stroke-linecap: square"/>
   </g>
   <g id="line2d_9">
    <path d="M 59.125555 151.545868 
L 79.096922 214.554331 
" clip-path="url(#p8451e82319)" style="fill: none; stroke: #555555; stroke-opacity: 0.9; stroke-width: 0.5; stroke-linecap: square"/>
   </g>
   <g id="line2d_10">
    <path d="M 59.125555 151.545868 
L 89.669999 103.362926 
" clip-path="url(#p8451e82319)" style="fill: none; stroke: #555555; stroke-opacity: 0.9; stroke-width: 0.5; stroke-linecap: square"/>
   </g>
   <g id="line2d_11">
    <path d="M 178.953758 214.554331 
L 175.88124 112.77143 
" clip-path="url(#p8451e82319)" style="fill: none; stroke: #555555; stroke-opacity: 0.9; stroke-width: 0.5; stroke-linecap: square"/>
   </g>
   <g id="line2d_12">
    <path d="M 59.125555 151.545868 
L 19.18282 214.554331 
" clip-path="url(#p8451e82319)" style="fill: none; stroke: #555555; stroke-opacity: 0.9; stroke-width: 0.5; stroke-linecap: square"/>
   </g>
   <g id="line2d_13">
    <path d="M 79.096922 214.554331 
L 121.892709 214.554331 
" clip-path="url(#p8451e82319)" style="fill: none; stroke: #555555; stroke-opacity: 0.9; stroke-width: 0.5; stroke-linecap: square"/>
   </g>
   <g id="line2d_14">
    <path d="M 139.011024 151.545868 
L 121.892709 214.554331 
" clip-path="url(#p8451e82319)" style="fill: none; stroke: #555555; stroke-opacity: 0.9; stroke-width: 0.5; stroke-linecap: square"/>
   </g>
   <g id="line2d_15">
    <path d="M 139.011024 151.545868 
L 143.143031 110.264462 
" clip-path="url(#p8451e82319)" style="fill: none; stroke: #555555; stroke-opacity: 0.9; stroke-width: 0.5; stroke-linecap: square"/>
   </g>
   <g id="line2d_16">
    <path d="M 175.88124 83.690601 
L 175.88124 112.77143 
" clip-path="url(#p8451e82319)" style="fill: none; stroke: #555555; stroke-opacity: 0.9; stroke-width: 0.5; stroke-linecap: square"/>
   </g>
   <g id="line2d_17">
    <path d="M 178.953758 214.554331 
L 143.143031 110.264462 
" clip-path="url(#p8451e82319)" style="fill: none; stroke: #555555; stroke-opacity: 0.9; stroke-width: 0.5; stroke-linecap: square"/>
   </g>
   <g id="line2d_18">
    <path d="M 121.892709 214.554331 
L 143.143031 110.264462 
" clip-path="url(#p8451e82319)" style="fill: none; stroke: #555555; stroke-opacity: 0.9; stroke-width: 0.5; stroke-linecap: square"/>
   </g>
   <g id="line2d_19">
    <path d="M 143.143031 110.264462 
L 113.201872 66.242104 
" clip-path="url(#p8451e82319)" style="fill: none; stroke: #555555; stroke-opacity: 0.9; stroke-width: 0.5; stroke-linecap: square"/>
   </g>
   <g id="line2d_20">
    <path d="M 175.88124 83.690601 
L 143.143031 110.264462 
" clip-path="url(#p8451e82319)" style="fill: none; stroke: #555555; stroke-opacity: 0.9; stroke-width: 0.5; stroke-linecap: square"/>
   </g>
   <g id="line2d_21">
    <path d="M 106.330605 77.081322 
L 89.669999 103.362926 
" clip-path="url(#p8451e82319)" style="fill: none; stroke: #555555; stroke-opacity: 0.9; stroke-width: 0.5; stroke-linecap: square"/>
   </g>
   <g id="line2d_22">
    <path d="M 218.896492 151.545868 
L 258.839227 214.554331 
" clip-path="url(#p8451e82319)" style="fill: none; stroke: #555555; stroke-opacity: 0.9; stroke-width: 0.5; stroke-linecap: square"/>
   </g>
   <g id="line2d_23">
    <path d="M 198.925125 120.041637 
L 198.925125 214.554331 
" clip-path="url(#p8451e82319)" style="fill: none; stroke: #555555; stroke-opacity: 0.9; stroke-width: 0.5; stroke-linecap: square"/>
   </g>
   <g id="line2d_24">
    <path d="M 175.88124 112.77143 
L 143.143031 110.264462 
" clip-path="url(#p8451e82319)" style="fill: none; stroke: #555555; stroke-opacity: 0.9; stroke-width: 0.5; stroke-linecap: square"/>
   </g>
   <g id="line2d_25">
    <path d="M 59.125555 151.545868 
L 121.892709 214.554331 
" clip-path="url(#p8451e82319)" style="fill: none; stroke: #555555; stroke-opacity: 0.9; stroke-width: 0.5; stroke-linecap: square"/>
   </g>
   <g id="line2d_26">
    <path d="M 178.953758 214.554331 
L 198.925125 214.554331 
" clip-path="url(#p8451e82319)" style="fill: none; stroke: #555555; stroke-opacity: 0.9; stroke-width: 0.5; stroke-linecap: square"/>
   </g>
   <g id="line2d_27">
    <path d="M 139.011024 151.545868 
L 162.976664 214.554331 
" clip-path="url(#p8451e82319)" style="fill: none; stroke: #555555; stroke-opacity: 0.9; stroke-width: 0.5; stroke-linecap: square"/>
   </g>
   <g id="line2d_28">
    <path d="M 168.968074 72.78529 
L 139.011024 25.528943 
" clip-path="url(#p8451e82319)" style="fill: none; stroke: #555555; stroke-opacity: 0.9; stroke-width: 0.5; stroke-linecap: square"/>
   </g>
   <g id="line2d_29">
    <path d="M 175.88124 83.690601 
L 198.925125 214.554331 
" clip-path="url(#p8451e82319)" style="fill: none; stroke: #555555; stroke-opacity: 0.9; stroke-width: 0.5; stroke-linecap: square"/>
   </g>
   <g id="line2d_30">
    <path d="M 168.968074 72.78529 
L 143.143031 110.264462 
" clip-path="url(#p8451e82319)" style="fill: none; stroke: #555555; stroke-opacity: 0.9; stroke-width: 0.5; stroke-linecap: square"/>
   </g>
   <g id="line2d_31">
    <path d="M 178.953758 214.554331 
L 162.976664 214.554331 
" clip-path="url(#p8451e82319)" style="fill: none; stroke: #555555; stroke-opacity: 0.9; stroke-width: 0.5; stroke-linecap: square"/>
   </g>
   <g id="line2d_32">
    <path d="M 79.096922 214.554331 
L 19.18282 214.554331 
" clip-path="url(#p8451e82319)" style="fill: none; stroke: #555555; stroke-opacity: 0.9; stroke-width: 0.5; stroke-linecap: square"/>
   </g>
   <g id="line2d_33">
    <path d="M 198.925125 214.554331 
L 258.839227 214.554331 
" clip-path="url(#p8451e82319)" style="fill: none; stroke: #555555; stroke-opacity: 0.9; stroke-width: 0.5; stroke-linecap: square"/>
   </g>
   <g id="line2d_34">
    <path d="M 143.143031 110.264462 
L 89.669999 103.362926 
" clip-path="url(#p8451e82319)" style="fill: none; stroke: #555555; stroke-opacity: 0.9; stroke-width: 0.5; stroke-linecap: square"/>
   </g>
   <g id="line2d_35">
    <path d="M 198.925125 120.041637 
L 218.896492 151.545868 
" clip-path="url(#p8451e82319)" style="fill: none; stroke: #555555; stroke-opacity: 0.9; stroke-width: 0.5; stroke-linecap: square"/>
   </g>
   <g id="line2d_36">
    <path d="M 106.330605 77.081322 
L 143.143031 110.264462 
" clip-path="url(#p8451e82319)" style="fill: none; stroke: #555555; stroke-opacity: 0.9; stroke-width: 0.5; stroke-linecap: square"/>
   </g>
   <g id="line2d_37">
    <path d="M 198.925125 120.041637 
L 175.88124 83.690601 
" clip-path="url(#p8451e82319)" style="fill: none; stroke: #555555; stroke-opacity: 0.9; stroke-width: 0.5; stroke-linecap: square"/>
   </g>
   <g id="line2d_38">
    <path d="M 198.925125 214.554331 
L 175.88124 112.77143 
" clip-path="url(#p8451e82319)" style="fill: none; stroke: #555555; stroke-opacity: 0.9; stroke-width: 0.5; stroke-linecap: square"/>
   </g>
   <g id="PathCollection_1">
    <defs>
     <path id="m2b44c36fe1" d="M 0 2.738613 
C 0.726289 2.738613 1.422928 2.450055 1.936492 1.936492 
C 2.450055 1.422928 2.738613 0.726289 2.738613 0 
C 2.738613 -0.726289 2.450055 -1.422928 1.936492 -1.936492 
C 1.422928 -2.450055 0.726289 -2.738613 0 -2.738613 
C -0.726289 -2.738613 -1.422928 -2.450055 -1.936492 -1.936492 
C -2.450055 -1.422928 -2.738613 -0.726289 -2.738613 0 
C -2.738613 0.726289 -2.450055 1.422928 -1.936492 1.936492 
C -1.422928 2.450055 -0.726289 2.738613 0 2.738613 
z
" style="stroke: #008000"/>
    </defs>
    <g clip-path="url(#p8451e82319)">
     <use xlink:href="#m2b44c36fe1" x="121.892709" y="214.554331" style="fill: #008000; stroke: #008000"/>
     <use xlink:href="#m2b44c36fe1" x="89.669999" y="103.362926" style="fill: #008000; stroke: #008000"/>
     <use xlink:href="#m2b44c36fe1" x="218.896492" y="151.545868" style="fill: #008000; stroke: #008000"/>
     <use xlink:href="#m2b44c36fe1" x="198.925125" y="214.554331" style="fill: #008000; stroke: #008000"/>
     <use xlink:href="#m2b44c36fe1" x="113.201872" y="66.242104" style="fill: #008000; stroke: #008000"/>
     <use xlink:href="#m2b44c36fe1" x="139.011024" y="25.528943" style="fill: #008000; stroke: #008000"/>
     <use xlink:href="#m2b44c36fe1" x="143.143031" y="110.264462" style="fill: #008000; stroke: #008000"/>
     <use xlink:href="#m2b44c36fe1" x="162.976664" y="214.554331" style="fill: #008000; stroke: #008000"/>
     <use xlink:href="#m2b44c36fe1" x="106.330605" y="77.081322" style="fill: #008000; stroke: #008000"/>
     <use xlink:href="#m2b44c36fe1" x="168.968074" y="72.78529" style="fill: #008000; stroke: #008000"/>
     <use xlink:href="#m2b44c36fe1" x="175.88124" y="83.690601" style="fill: #008000; stroke: #008000"/>
     <use xlink:href="#m2b44c36fe1" x="59.125555" y="151.545868" style="fill: #008000; stroke: #008000"/>
     <use xlink:href="#m2b44c36fe1" x="79.096922" y="214.554331" style="fill: #008000; stroke: #008000"/>
     <use xlink:href="#m2b44c36fe1" x="178.953758" y="214.554331" style="fill: #008000; stroke: #008000"/>
     <use xlink:href="#m2b44c36fe1" x="175.88124" y="112.77143" style="fill: #008000; stroke: #008000"/>
     <use xlink:href="#m2b44c36fe1" x="19.18282" y="214.554331" style="fill: #008000; stroke: #008000"/>
     <use xlink:href="#m2b44c36fe1" x="139.011024" y="151.545868" style="fill: #008000; stroke: #008000"/>
     <use xlink:href="#m2b44c36fe1" x="258.839227" y="214.554331" style="fill: #008000; stroke: #008000"/>
     <use xlink:href="#m2b44c36fe1" x="198.925125" y="120.041637" style="fill: #008000; stroke: #008000"/>
    </g>
   </g>
   <g id="PathCollection_2">
    <defs>
     <path id="mcd8e743531" d="M -0 2.236068 
L 1.341641 0 
L 0 -2.236068 
L -1.341641 -0 
z
" style="stroke: #d3d3d3"/>
    </defs>
    <g clip-path="url(#p8451e82319)">
     <use xlink:href="#mcd8e743531" x="139.011024" y="25.528943" style="fill: #d3d3d3; stroke: #d3d3d3"/>
     <use xlink:href="#mcd8e743531" x="139.011024" y="25.528943" style="fill: #d3d3d3; stroke: #d3d3d3"/>
     <use xlink:href="#mcd8e743531" x="139.011024" y="25.528943" style="fill: #d3d3d3; stroke: #d3d3d3"/>
     <use xlink:href="#mcd8e743531" x="139.011024" y="25.528943" style="fill: #d3d3d3; stroke: #d3d3d3"/>
     <use xlink:href="#mcd8e743531" x="139.011024" y="25.528943" style="fill: #d3d3d3; stroke: #d3d3d3"/>
     <use xlink:href="#mcd8e743531" x="139.011024" y="25.528943" style="fill: #d3d3d3; stroke: #d3d3d3"/>
     <use xlink:href="#mcd8e743531" x="139.011024" y="25.528943" style="fill: #d3d3d3; stroke: #d3d3d3"/>
     <use xlink:href="#mcd8e743531" x="258.839227" y="214.554331" style="fill: #d3d3d3; stroke: #d3d3d3"/>
     <use xlink:href="#mcd8e743531" x="258.839227" y="214.554331" style="fill: #d3d3d3; stroke: #d3d3d3"/>
     <use xlink:href="#mcd8e743531" x="258.839227" y="214.554331" style="fill: #d3d3d3; stroke: #d3d3d3"/>
     <use xlink:href="#mcd8e743531" x="258.839227" y="214.554331" style="fill: #d3d3d3; stroke: #d3d3d3"/>
     <use xlink:href="#mcd8e743531" x="258.839227" y="214.554331" style="fill: #d3d3d3; stroke: #d3d3d3"/>
     <use xlink:href="#mcd8e743531" x="258.839227" y="214.554331" style="fill: #d3d3d3; stroke: #d3d3d3"/>
     <use xlink:href="#mcd8e743531" x="258.839227" y="214.554331" style="fill: #d3d3d3; stroke: #d3d3d3"/>
     <use xlink:href="#mcd8e743531" x="258.839227" y="214.554331" style="fill: #d3d3d3; stroke: #d3d3d3"/>
     <use xlink:href="#mcd8e743531" x="258.839227" y="214.554331" style="fill: #d3d3d3; stroke: #d3d3d3"/>
     <use xlink:href="#mcd8e743531" x="198.925125" y="120.041637" style="fill: #d3d3d3; stroke: #d3d3d3"/>
     <use xlink:href="#mcd8e743531" x="168.968074" y="72.78529" style="fill: #d3d3d3; stroke: #d3d3d3"/>
     <use xlink:href="#mcd8e743531" x="168.968074" y="72.78529" style="fill: #d3d3d3; stroke: #d3d3d3"/>
     <use xlink:href="#mcd8e743531" x="168.968074" y="72.78529" style="fill: #d3d3d3; stroke: #d3d3d3"/>
     <use xlink:href="#mcd8e743531" x="162.976664" y="63.334021" style="fill: #d3d3d3; stroke: #d3d3d3"/>
     <use xlink:href="#mcd8e743531" x="218.896492" y="151.545868" style="fill: #d3d3d3; stroke: #d3d3d3"/>
     <use xlink:href="#mcd8e743531" x="218.896492" y="151.545868" style="fill: #d3d3d3; stroke: #d3d3d3"/>
     <use xlink:href="#mcd8e743531" x="228.882176" y="167.297984" style="fill: #d3d3d3; stroke: #d3d3d3"/>
     <use xlink:href="#mcd8e743531" x="228.882176" y="167.297984" style="fill: #d3d3d3; stroke: #d3d3d3"/>
     <use xlink:href="#mcd8e743531" x="210.907946" y="138.944176" style="fill: #d3d3d3; stroke: #d3d3d3"/>
     <use xlink:href="#mcd8e743531" x="164.238014" y="65.323762" style="fill: #d3d3d3; stroke: #d3d3d3"/>
     <use xlink:href="#mcd8e743531" x="19.18282" y="214.554331" style="fill: #d3d3d3; stroke: #d3d3d3"/>
     <use xlink:href="#mcd8e743531" x="19.18282" y="214.554331" style="fill: #d3d3d3; stroke: #d3d3d3"/>
     <use xlink:href="#mcd8e743531" x="19.18282" y="214.554331" style="fill: #d3d3d3; stroke: #d3d3d3"/>
     <use xlink:href="#mcd8e743531" x="19.18282" y="214.554331" style="fill: #d3d3d3; stroke: #d3d3d3"/>
     <use xlink:href="#mcd8e743531" x="19.18282" y="214.554331" style="fill: #d3d3d3; stroke: #d3d3d3"/>
     <use xlink:href="#mcd8e743531" x="79.096922" y="120.041637" style="fill: #d3d3d3; stroke: #d3d3d3"/>
     <use xlink:href="#mcd8e743531" x="79.096922" y="120.041637" style="fill: #d3d3d3; stroke: #d3d3d3"/>
     <use xlink:href="#mcd8e743531" x="79.096922" y="120.041637" style="fill: #d3d3d3; stroke: #d3d3d3"/>
     <use xlink:href="#mcd8e743531" x="99.068289" y="88.537406" style="fill: #d3d3d3; stroke: #d3d3d3"/>
     <use xlink:href="#mcd8e743531" x="109.053973" y="72.78529" style="fill: #d3d3d3; stroke: #d3d3d3"/>
     <use xlink:href="#mcd8e743531" x="119.039656" y="57.033175" style="fill: #d3d3d3; stroke: #d3d3d3"/>
     <use xlink:href="#mcd8e743531" x="139.011024" y="214.554331" style="fill: #d3d3d3; stroke: #d3d3d3"/>
     <use xlink:href="#mcd8e743531" x="139.011024" y="120.041637" style="fill: #d3d3d3; stroke: #d3d3d3"/>
     <use xlink:href="#mcd8e743531" x="139.011024" y="120.041637" style="fill: #d3d3d3; stroke: #d3d3d3"/>
     <use xlink:href="#mcd8e743531" x="198.925125" y="214.554331" style="fill: #d3d3d3; stroke: #d3d3d3"/>
     <use xlink:href="#mcd8e743531" x="198.925125" y="214.554331" style="fill: #d3d3d3; stroke: #d3d3d3"/>
     <use xlink:href="#mcd8e743531" x="203.533902" y="156.392673" style="fill: #d3d3d3; stroke: #d3d3d3"/>
     <use xlink:href="#mcd8e743531" x="59.125555" y="151.545868" style="fill: #d3d3d3; stroke: #d3d3d3"/>
     <use xlink:href="#mcd8e743531" x="59.125555" y="151.545868" style="fill: #d3d3d3; stroke: #d3d3d3"/>
     <use xlink:href="#mcd8e743531" x="99.068289" y="214.554331" style="fill: #d3d3d3; stroke: #d3d3d3"/>
     <use xlink:href="#mcd8e743531" x="99.068289" y="214.554331" style="fill: #d3d3d3; stroke: #d3d3d3"/>
     <use xlink:href="#mcd8e743531" x="115.045383" y="138.944176" style="fill: #d3d3d3; stroke: #d3d3d3"/>
     <use xlink:href="#mcd8e743531" x="49.139871" y="167.297984" style="fill: #d3d3d3; stroke: #d3d3d3"/>
     <use xlink:href="#mcd8e743531" x="79.096922" y="214.554331" style="fill: #d3d3d3; stroke: #d3d3d3"/>
     <use xlink:href="#mcd8e743531" x="115.045383" y="214.554331" style="fill: #d3d3d3; stroke: #d3d3d3"/>
     <use xlink:href="#mcd8e743531" x="109.053973" y="214.554331" style="fill: #d3d3d3; stroke: #d3d3d3"/>
     <use xlink:href="#mcd8e743531" x="109.053973" y="214.554331" style="fill: #d3d3d3; stroke: #d3d3d3"/>
     <use xlink:href="#mcd8e743531" x="125.696779" y="214.554331" style="fill: #d3d3d3; stroke: #d3d3d3"/>
    </g>
   </g>
   <g id="PathCollection_3">
    <defs>
     <path id="m34401fd627" d="M 0 -5 
L -1.12257 -1.545085 
L -4.755283 -1.545085 
L -1.816356 0.59017 
L -2.938926 4.045085 
L -0 1.90983 
L 2.938926 4.045085 
L 1.816356 0.59017 
L 4.755283 -1.545085 
L 1.12257 -1.545085 
z
" style="stroke: #0000ff"/>
    </defs>
    <g clip-path="url(#p8451e82319)">
     <use xlink:href="#m34401fd627" x="203.533902" y="156.392673" style="fill: #0000ff; stroke: #0000ff"/>
    </g>
   </g>
   <g id="text_1">
    <!-- $\mathrm{Zr_{4}Al_{3}}$ -->
    <g transform="translate(114.597254 210.594971) scale(0.1 -0.1)">
     <defs>
      <path id="DejaVuSans-5a" d="M 359 4666 
L 4025 4666 
L 4025 4184 
L 1075 531 
L 4097 531 
L 4097 0 
L 288 0 
L 288 481 
L 3238 4134 
L 359 4134 
L 359 4666 
z
" transform="scale(0.015625)"/>
      <path id="DejaVuSans-72" d="M 2631 2963 
Q 2534 3019 2420 3045 
Q 2306 3072 2169 3072 
Q 1681 3072 1420 2755 
Q 1159 2438 1159 1844 
L 1159 0 
L 581 0 
L 581 3500 
L 1159 3500 
L 1159 2956 
Q 1341 3275 1631 3429 
Q 1922 3584 2338 3584 
Q 2397 3584 2469 3576 
Q 2541 3569 2628 3553 
L 2631 2963 
z
" transform="scale(0.015625)"/>
      <path id="DejaVuSans-34" d="M 2419 4116 
L 825 1625 
L 2419 1625 
L 2419 4116 
z
M 2253 4666 
L 3047 4666 
L 3047 1625 
L 3713 1625 
L 3713 1100 
L 3047 1100 
L 3047 0 
L 2419 0 
L 2419 1100 
L 313 1100 
L 313 1709 
L 2253 4666 
z
" transform="scale(0.015625)"/>
      <path id="DejaVuSans-41" d="M 2188 4044 
L 1331 1722 
L 3047 1722 
L 2188 4044 
z
M 1831 4666 
L 2547 4666 
L 4325 0 
L 3669 0 
L 3244 1197 
L 1141 1197 
L 716 0 
L 50 0 
L 1831 4666 
z
" transform="scale(0.015625)"/>
      <path id="DejaVuSans-6c" d="M 603 4863 
L 1178 4863 
L 1178 0 
L 603 0 
L 603 4863 
z
" transform="scale(0.015625)"/>
      <path id="DejaVuSans-33" d="M 2597 2516 
Q 3050 2419 3304 2112 
Q 3559 1806 3559 1356 
Q 3559 666 3084 287 
Q 2609 -91 1734 -91 
Q 1441 -91 1130 -33 
Q 819 25 488 141 
L 488 750 
Q 750 597 1062 519 
Q 1375 441 1716 441 
Q 2309 441 2620 675 
Q 2931 909 2931 1356 
Q 2931 1769 2642 2001 
Q 2353 2234 1838 2234 
L 1294 2234 
L 1294 2753 
L 1863 2753 
Q 2328 2753 2575 2939 
Q 2822 3125 2822 3475 
Q 2822 3834 2567 4026 
Q 2313 4219 1838 4219 
Q 1578 4219 1281 4162 
Q 984 4106 628 3988 
L 628 4550 
Q 988 4650 1302 4700 
Q 1616 4750 1894 4750 
Q 2613 4750 3031 4423 
Q 3450 4097 3450 3541 
Q 3450 3153 3228 2886 
Q 3006 2619 2597 2516 
z
" transform="scale(0.015625)"/>
     </defs>
     <use xlink:href="#DejaVuSans-5a" transform="translate(0 0.015625)"/>
     <use xlink:href="#DejaVuSans-72" transform="translate(68.505859 0.015625)"/>
     <use xlink:href="#DejaVuSans-34" transform="translate(110.576172 -16.390625) scale(0.7)"/>
     <use xlink:href="#DejaVuSans-41" transform="translate(157.84668 0.015625)"/>
     <use xlink:href="#DejaVuSans-6c" transform="translate(226.254883 0.015625)"/>
     <use xlink:href="#DejaVuSans-33" transform="translate(254.995117 -16.390625) scale(0.7)"/>
    </g>
   </g>
   <g id="text_2">
    <!-- $\mathrm{Zr_{7}Cu_{10}}$ -->
    <g transform="translate(57.37909 112.260809) scale(0.1 -0.1)">
     <defs>
      <path id="DejaVuSans-37" d="M 525 4666 
L 3525 4666 
L 3525 4397 
L 1831 0 
L 1172 0 
L 2766 4134 
L 525 4134 
L 525 4666 
z
" transform="scale(0.015625)"/>
      <path id="DejaVuSans-43" d="M 4122 4306 
L 4122 3641 
Q 3803 3938 3442 4084 
Q 3081 4231 2675 4231 
Q 1875 4231 1450 3742 
Q 1025 3253 1025 2328 
Q 1025 1406 1450 917 
Q 1875 428 2675 428 
Q 3081 428 3442 575 
Q 3803 722 4122 1019 
L 4122 359 
Q 3791 134 3420 21 
Q 3050 -91 2638 -91 
Q 1578 -91 968 557 
Q 359 1206 359 2328 
Q 359 3453 968 4101 
Q 1578 4750 2638 4750 
Q 3056 4750 3426 4639 
Q 3797 4528 4122 4306 
z
" transform="scale(0.015625)"/>
      <path id="DejaVuSans-75" d="M 544 1381 
L 544 3500 
L 1119 3500 
L 1119 1403 
Q 1119 906 1312 657 
Q 1506 409 1894 409 
Q 2359 409 2629 706 
Q 2900 1003 2900 1516 
L 2900 3500 
L 3475 3500 
L 3475 0 
L 2900 0 
L 2900 538 
Q 2691 219 2414 64 
Q 2138 -91 1772 -91 
Q 1169 -91 856 284 
Q 544 659 544 1381 
z
M 1991 3584 
L 1991 3584 
z
" transform="scale(0.015625)"/>
      <path id="DejaVuSans-31" d="M 794 531 
L 1825 531 
L 1825 4091 
L 703 3866 
L 703 4441 
L 1819 4666 
L 2450 4666 
L 2450 531 
L 3481 531 
L 3481 0 
L 794 0 
L 794 531 
z
" transform="scale(0.015625)"/>
      <path id="DejaVuSans-30" d="M 2034 4250 
Q 1547 4250 1301 3770 
Q 1056 3291 1056 2328 
Q 1056 1369 1301 889 
Q 1547 409 2034 409 
Q 2525 409 2770 889 
Q 3016 1369 3016 2328 
Q 3016 3291 2770 3770 
Q 2525 4250 2034 4250 
z
M 2034 4750 
Q 2819 4750 3233 4129 
Q 3647 3509 3647 2328 
Q 3647 1150 3233 529 
Q 2819 -91 2034 -91 
Q 1250 -91 836 529 
Q 422 1150 422 2328 
Q 422 3509 836 4129 
Q 1250 4750 2034 4750 
z
" transform="scale(0.015625)"/>
     </defs>
     <use xlink:href="#DejaVuSans-5a" transform="translate(0 0.78125)"/>
     <use xlink:href="#DejaVuSans-72" transform="translate(68.505859 0.78125)"/>
     <use xlink:href="#DejaVuSans-37" transform="translate(110.576172 -15.625) scale(0.7)"/>
     <use xlink:href="#DejaVuSans-43" transform="translate(157.84668 0.78125)"/>
     <use xlink:href="#DejaVuSans-75" transform="translate(227.670898 0.78125)"/>
     <use xlink:href="#DejaVuSans-31" transform="translate(292.006836 -15.625) scale(0.7)"/>
     <use xlink:href="#DejaVuSans-30" transform="translate(336.542969 -15.625) scale(0.7)"/>
    </g>
   </g>
   <g id="text_3">
    <!-- $\mathrm{Al_{2}Cu}$ -->
    <g transform="translate(211.541947 147.420198) scale(0.1 -0.1)">
     <defs>
      <path id="DejaVuSans-32" d="M 1228 531 
L 3431 531 
L 3431 0 
L 469 0 
L 469 531 
Q 828 903 1448 1529 
Q 2069 2156 2228 2338 
Q 2531 2678 2651 2914 
Q 2772 3150 2772 3378 
Q 2772 3750 2511 3984 
Q 2250 4219 1831 4219 
Q 1534 4219 1204 4116 
Q 875 4013 500 3803 
L 500 4441 
Q 881 4594 1212 4672 
Q 1544 4750 1819 4750 
Q 2544 4750 2975 4387 
Q 3406 4025 3406 3419 
Q 3406 3131 3298 2873 
Q 3191 2616 2906 2266 
Q 2828 2175 2409 1742 
Q 1991 1309 1228 531 
z
" transform="scale(0.015625)"/>
     </defs>
     <use xlink:href="#DejaVuSans-41" transform="translate(0 0.015625)"/>
     <use xlink:href="#DejaVuSans-6c" transform="translate(68.408203 0.015625)"/>
     <use xlink:href="#DejaVuSans-32" transform="translate(97.148438 -16.390625) scale(0.7)"/>
     <use xlink:href="#DejaVuSans-43" transform="translate(144.418945 0.015625)"/>
     <use xlink:href="#DejaVuSans-75" transform="translate(214.243164 0.015625)"/>
    </g>
   </g>
   <g id="text_4">
    <!-- $\mathrm{ZrAl_{3}}$ -->
    <g transform="translate(207.12058 210.594971) scale(0.1 -0.1)">
     <use xlink:href="#DejaVuSans-5a" transform="translate(0 0.015625)"/>
     <use xlink:href="#DejaVuSans-72" transform="translate(68.505859 0.015625)"/>
     <use xlink:href="#DejaVuSans-41" transform="translate(109.619141 0.015625)"/>
     <use xlink:href="#DejaVuSans-6c" transform="translate(178.027344 0.015625)"/>
     <use xlink:href="#DejaVuSans-33" transform="translate(206.767578 -16.390625) scale(0.7)"/>
    </g>
   </g>
   <g id="text_5">
    <!-- $\mathrm{Zr_{14}Cu_{51}}$ -->
    <g transform="translate(105.497327 62.669221) scale(0.1 -0.1)">
     <defs>
      <path id="DejaVuSans-35" d="M 691 4666 
L 3169 4666 
L 3169 4134 
L 1269 4134 
L 1269 2991 
Q 1406 3038 1543 3061 
Q 1681 3084 1819 3084 
Q 2600 3084 3056 2656 
Q 3513 2228 3513 1497 
Q 3513 744 3044 326 
Q 2575 -91 1722 -91 
Q 1428 -91 1123 -41 
Q 819 9 494 109 
L 494 744 
Q 775 591 1075 516 
Q 1375 441 1709 441 
Q 2250 441 2565 725 
Q 2881 1009 2881 1497 
Q 2881 1984 2565 2268 
Q 2250 2553 1709 2553 
Q 1456 2553 1204 2497 
Q 953 2441 691 2322 
L 691 4666 
z
" transform="scale(0.015625)"/>
     </defs>
     <use xlink:href="#DejaVuSans-5a" transform="translate(0 0.78125)"/>
     <use xlink:href="#DejaVuSans-72" transform="translate(68.505859 0.78125)"/>
     <use xlink:href="#DejaVuSans-31" transform="translate(110.576172 -15.625) scale(0.7)"/>
     <use xlink:href="#DejaVuSans-34" transform="translate(155.112305 -15.625) scale(0.7)"/>
     <use xlink:href="#DejaVuSans-43" transform="translate(202.382812 0.78125)"/>
     <use xlink:href="#DejaVuSans-75" transform="translate(272.207031 0.78125)"/>
     <use xlink:href="#DejaVuSans-35" transform="translate(336.542969 -15.625) scale(0.7)"/>
     <use xlink:href="#DejaVuSans-31" transform="translate(381.079102 -15.625) scale(0.7)"/>
    </g>
   </g>
   <g id="text_6">
    <!-- $\mathrm{Cu}$ -->
    <g transform="translate(129.692842 33.725944) scale(0.1 -0.1)">
     <use xlink:href="#DejaVuSans-43" transform="translate(0 0.78125)"/>
     <use xlink:href="#DejaVuSans-75" transform="translate(69.824219 0.78125)"/>
    </g>
   </g>
   <g id="text_7">
    <!-- $\mathrm{Zr_{6}Al_{7}Cu_{16}}$ -->
    <g transform="translate(97.056667 119.212345) scale(0.1 -0.1)">
     <defs>
      <path id="DejaVuSans-36" d="M 2113 2584 
Q 1688 2584 1439 2293 
Q 1191 2003 1191 1497 
Q 1191 994 1439 701 
Q 1688 409 2113 409 
Q 2538 409 2786 701 
Q 3034 994 3034 1497 
Q 3034 2003 2786 2293 
Q 2538 2584 2113 2584 
z
M 3366 4563 
L 3366 3988 
Q 3128 4100 2886 4159 
Q 2644 4219 2406 4219 
Q 1781 4219 1451 3797 
Q 1122 3375 1075 2522 
Q 1259 2794 1537 2939 
Q 1816 3084 2150 3084 
Q 2853 3084 3261 2657 
Q 3669 2231 3669 1497 
Q 3669 778 3244 343 
Q 2819 -91 2113 -91 
Q 1303 -91 875 529 
Q 447 1150 447 2328 
Q 447 3434 972 4092 
Q 1497 4750 2381 4750 
Q 2619 4750 2861 4703 
Q 3103 4656 3366 4563 
z
" transform="scale(0.015625)"/>
     </defs>
     <use xlink:href="#DejaVuSans-5a" transform="translate(0 0.015625)"/>
     <use xlink:href="#DejaVuSans-72" transform="translate(68.505859 0.015625)"/>
     <use xlink:href="#DejaVuSans-36" transform="translate(110.576172 -16.390625) scale(0.7)"/>
     <use xlink:href="#DejaVuSans-41" transform="translate(157.84668 0.015625)"/>
     <use xlink:href="#DejaVuSans-6c" transform="translate(226.254883 0.015625)"/>
     <use xlink:href="#DejaVuSans-37" transform="translate(254.995117 -16.390625) scale(0.7)"/>
     <use xlink:href="#DejaVuSans-43" transform="translate(302.265625 0.015625)"/>
     <use xlink:href="#DejaVuSans-75" transform="translate(372.089844 0.015625)"/>
     <use xlink:href="#DejaVuSans-31" transform="translate(436.425781 -16.390625) scale(0.7)"/>
     <use xlink:href="#DejaVuSans-36" transform="translate(480.961914 -16.390625) scale(0.7)"/>
    </g>
   </g>
   <g id="text_8">
    <!-- $\mathrm{Zr_{2}Al_{3}}$ -->
    <g transform="translate(148.48121 210.594971) scale(0.1 -0.1)">
     <use xlink:href="#DejaVuSans-5a" transform="translate(0 0.015625)"/>
     <use xlink:href="#DejaVuSans-72" transform="translate(68.505859 0.015625)"/>
     <use xlink:href="#DejaVuSans-32" transform="translate(110.576172 -16.390625) scale(0.7)"/>
     <use xlink:href="#DejaVuSans-41" transform="translate(157.84668 0.015625)"/>
     <use xlink:href="#DejaVuSans-6c" transform="translate(226.254883 0.015625)"/>
     <use xlink:href="#DejaVuSans-33" transform="translate(254.995117 -16.390625) scale(0.7)"/>
    </g>
   </g>
   <g id="text_9">
    <!-- $\mathrm{Zr_{3}Cu_{8}}$ -->
    <g transform="translate(78.203332 85.979205) scale(0.1 -0.1)">
     <defs>
      <path id="DejaVuSans-38" d="M 2034 2216 
Q 1584 2216 1326 1975 
Q 1069 1734 1069 1313 
Q 1069 891 1326 650 
Q 1584 409 2034 409 
Q 2484 409 2743 651 
Q 3003 894 3003 1313 
Q 3003 1734 2745 1975 
Q 2488 2216 2034 2216 
z
M 1403 2484 
Q 997 2584 770 2862 
Q 544 3141 544 3541 
Q 544 4100 942 4425 
Q 1341 4750 2034 4750 
Q 2731 4750 3128 4425 
Q 3525 4100 3525 3541 
Q 3525 3141 3298 2862 
Q 3072 2584 2669 2484 
Q 3125 2378 3379 2068 
Q 3634 1759 3634 1313 
Q 3634 634 3220 271 
Q 2806 -91 2034 -91 
Q 1263 -91 848 271 
Q 434 634 434 1313 
Q 434 1759 690 2068 
Q 947 2378 1403 2484 
z
M 1172 3481 
Q 1172 3119 1398 2916 
Q 1625 2713 2034 2713 
Q 2441 2713 2670 2916 
Q 2900 3119 2900 3481 
Q 2900 3844 2670 4047 
Q 2441 4250 2034 4250 
Q 1625 4250 1398 4047 
Q 1172 3844 1172 3481 
z
" transform="scale(0.015625)"/>
     </defs>
     <use xlink:href="#DejaVuSans-5a" transform="translate(0 0.78125)"/>
     <use xlink:href="#DejaVuSans-72" transform="translate(68.505859 0.78125)"/>
     <use xlink:href="#DejaVuSans-33" transform="translate(110.576172 -15.625) scale(0.7)"/>
     <use xlink:href="#DejaVuSans-43" transform="translate(157.84668 0.78125)"/>
     <use xlink:href="#DejaVuSans-75" transform="translate(227.670898 0.78125)"/>
     <use xlink:href="#DejaVuSans-38" transform="translate(292.006836 -15.625) scale(0.7)"/>
    </g>
   </g>
   <g id="text_10">
    <!-- $\mathrm{AlCu_{3}}$ -->
    <g transform="translate(161.613529 68.638869) scale(0.1 -0.1)">
     <use xlink:href="#DejaVuSans-41" transform="translate(0 0.015625)"/>
     <use xlink:href="#DejaVuSans-6c" transform="translate(68.408203 0.015625)"/>
     <use xlink:href="#DejaVuSans-43" transform="translate(96.191406 0.015625)"/>
     <use xlink:href="#DejaVuSans-75" transform="translate(166.015625 0.015625)"/>
     <use xlink:href="#DejaVuSans-33" transform="translate(230.351562 -16.390625) scale(0.7)"/>
    </g>
   </g>
   <g id="text_11">
    <!-- $\mathrm{Al_{4}Cu_{9}}$ -->
    <g transform="translate(175.944876 87.026639) scale(0.1 -0.1)">
     <defs>
      <path id="DejaVuSans-39" d="M 703 97 
L 703 672 
Q 941 559 1184 500 
Q 1428 441 1663 441 
Q 2288 441 2617 861 
Q 2947 1281 2994 2138 
Q 2813 1869 2534 1725 
Q 2256 1581 1919 1581 
Q 1219 1581 811 2004 
Q 403 2428 403 3163 
Q 403 3881 828 4315 
Q 1253 4750 1959 4750 
Q 2769 4750 3195 4129 
Q 3622 3509 3622 2328 
Q 3622 1225 3098 567 
Q 2575 -91 1691 -91 
Q 1453 -91 1209 -44 
Q 966 3 703 97 
z
M 1959 2075 
Q 2384 2075 2632 2365 
Q 2881 2656 2881 3163 
Q 2881 3666 2632 3958 
Q 2384 4250 1959 4250 
Q 1534 4250 1286 3958 
Q 1038 3666 1038 3163 
Q 1038 2656 1286 2365 
Q 1534 2075 1959 2075 
z
" transform="scale(0.015625)"/>
     </defs>
     <use xlink:href="#DejaVuSans-41" transform="translate(0 0.015625)"/>
     <use xlink:href="#DejaVuSans-6c" transform="translate(68.408203 0.015625)"/>
     <use xlink:href="#DejaVuSans-34" transform="translate(97.148438 -16.390625) scale(0.7)"/>
     <use xlink:href="#DejaVuSans-43" transform="translate(144.418945 0.015625)"/>
     <use xlink:href="#DejaVuSans-75" transform="translate(214.243164 0.015625)"/>
     <use xlink:href="#DejaVuSans-39" transform="translate(278.579102 -16.390625) scale(0.7)"/>
    </g>
   </g>
   <g id="text_12">
    <!-- $\mathrm{Zr_{2}Cu}$ -->
    <g transform="translate(58.925555 154.781907) scale(0.1 -0.1)">
     <use xlink:href="#DejaVuSans-5a" transform="translate(0 0.78125)"/>
     <use xlink:href="#DejaVuSans-72" transform="translate(68.505859 0.78125)"/>
     <use xlink:href="#DejaVuSans-32" transform="translate(110.576172 -15.625) scale(0.7)"/>
     <use xlink:href="#DejaVuSans-43" transform="translate(157.84668 0.78125)"/>
     <use xlink:href="#DejaVuSans-75" transform="translate(227.670898 0.78125)"/>
    </g>
   </g>
   <g id="text_13">
    <!-- $\mathrm{Zr_{3}Al}$ -->
    <g transform="translate(71.583286 210.594971) scale(0.1 -0.1)">
     <use xlink:href="#DejaVuSans-5a" transform="translate(0 0.015625)"/>
     <use xlink:href="#DejaVuSans-72" transform="translate(68.505859 0.015625)"/>
     <use xlink:href="#DejaVuSans-33" transform="translate(110.576172 -16.390625) scale(0.7)"/>
     <use xlink:href="#DejaVuSans-41" transform="translate(157.84668 0.015625)"/>
     <use xlink:href="#DejaVuSans-6c" transform="translate(226.254883 0.015625)"/>
    </g>
   </g>
   <g id="text_14">
    <!-- $\mathrm{ZrAl_{2}}$ -->
    <g transform="translate(179.549785 210.544971) scale(0.1 -0.1)">
     <use xlink:href="#DejaVuSans-5a" transform="translate(0 0.015625)"/>
     <use xlink:href="#DejaVuSans-72" transform="translate(68.505859 0.015625)"/>
     <use xlink:href="#DejaVuSans-41" transform="translate(109.619141 0.015625)"/>
     <use xlink:href="#DejaVuSans-6c" transform="translate(178.027344 0.015625)"/>
     <use xlink:href="#DejaVuSans-32" transform="translate(206.767578 -16.390625) scale(0.7)"/>
    </g>
   </g>
   <g id="text_15">
    <!-- $\mathrm{ZrAl_{5}Cu_{7}}$ -->
    <g transform="translate(167.826695 108.00147) scale(0.1 -0.1)">
     <use xlink:href="#DejaVuSans-5a" transform="translate(0 0.015625)"/>
     <use xlink:href="#DejaVuSans-72" transform="translate(68.505859 0.015625)"/>
     <use xlink:href="#DejaVuSans-41" transform="translate(109.619141 0.015625)"/>
     <use xlink:href="#DejaVuSans-6c" transform="translate(178.027344 0.015625)"/>
     <use xlink:href="#DejaVuSans-35" transform="translate(206.767578 -16.390625) scale(0.7)"/>
     <use xlink:href="#DejaVuSans-43" transform="translate(254.038086 0.015625)"/>
     <use xlink:href="#DejaVuSans-75" transform="translate(323.862305 0.015625)"/>
     <use xlink:href="#DejaVuSans-37" transform="translate(388.198242 -16.390625) scale(0.7)"/>
    </g>
   </g>
   <g id="text_16">
    <!-- $\mathrm{Zr}$ -->
    <g transform="translate(19.984518 212.151181) scale(0.1 -0.1)">
     <use xlink:href="#DejaVuSans-5a" transform="translate(0 0.09375)"/>
     <use xlink:href="#DejaVuSans-72" transform="translate(68.505859 0.09375)"/>
    </g>
   </g>
   <g id="text_17">
    <!-- $\mathrm{ZrAlCu}$ -->
    <g transform="translate(110.883751 159.742869) scale(0.1 -0.1)">
     <use xlink:href="#DejaVuSans-5a" transform="translate(0 0.015625)"/>
     <use xlink:href="#DejaVuSans-72" transform="translate(68.505859 0.015625)"/>
     <use xlink:href="#DejaVuSans-41" transform="translate(109.619141 0.015625)"/>
     <use xlink:href="#DejaVuSans-6c" transform="translate(178.027344 0.015625)"/>
     <use xlink:href="#DejaVuSans-43" transform="translate(205.810547 0.015625)"/>
     <use xlink:href="#DejaVuSans-75" transform="translate(275.634766 0.015625)"/>
    </g>
   </g>
   <g id="text_18">
    <!-- $\mathrm{Al}$ -->
    <g transform="translate(249.389691 211.215873) scale(0.1 -0.1)">
     <use xlink:href="#DejaVuSans-41" transform="translate(0 0.015625)"/>
     <use xlink:href="#DejaVuSans-6c" transform="translate(68.408203 0.015625)"/>
    </g>
   </g>
   <g id="text_19">
    <!-- $\mathrm{AlCu}$ -->
    <g transform="translate(199.206943 123.87387) scale(0.1 -0.1)">
     <use xlink:href="#DejaVuSans-41" transform="translate(0 0.015625)"/>
     <use xlink:href="#DejaVuSans-6c" transform="translate(68.408203 0.015625)"/>
     <use xlink:href="#DejaVuSans-43" transform="translate(96.191406 0.015625)"/>
     <use xlink:href="#DejaVuSans-75" transform="translate(166.015625 0.015625)"/>
    </g>
   </g>
   <g id="text_20">
    <!-- $\mathrm{Zr(Al_{2}Cu)_{4}}$ -->
    <g style="fill: #0000ff" transform="translate(159.50663 165.290556) scale(0.1 -0.1)">
     <defs>
      <path id="DejaVuSans-28" d="M 1984 4856 
Q 1566 4138 1362 3434 
Q 1159 2731 1159 2009 
Q 1159 1288 1364 580 
Q 1569 -128 1984 -844 
L 1484 -844 
Q 1016 -109 783 600 
Q 550 1309 550 2009 
Q 550 2706 781 3412 
Q 1013 4119 1484 4856 
L 1984 4856 
z
" transform="scale(0.015625)"/>
      <path id="DejaVuSans-29" d="M 513 4856 
L 1013 4856 
Q 1481 4119 1714 3412 
Q 1947 2706 1947 2009 
Q 1947 1309 1714 600 
Q 1481 -109 1013 -844 
L 513 -844 
Q 928 -128 1133 580 
Q 1338 1288 1338 2009 
Q 1338 2731 1133 3434 
Q 928 4138 513 4856 
z
" transform="scale(0.015625)"/>
     </defs>
     <use xlink:href="#DejaVuSans-5a" transform="translate(0 0.015625)"/>
     <use xlink:href="#DejaVuSans-72" transform="translate(68.505859 0.015625)"/>
     <use xlink:href="#DejaVuSans-28" transform="translate(109.619141 0.015625)"/>
     <use xlink:href="#DejaVuSans-41" transform="translate(148.632812 0.015625)"/>
     <use xlink:href="#DejaVuSans-6c" transform="translate(217.041016 0.015625)"/>
     <use xlink:href="#DejaVuSans-32" transform="translate(245.78125 -16.390625) scale(0.7)"/>
     <use xlink:href="#DejaVuSans-43" transform="translate(293.051758 0.015625)"/>
     <use xlink:href="#DejaVuSans-75" transform="translate(362.875977 0.015625)"/>
     <use xlink:href="#DejaVuSans-29" transform="translate(426.254883 0.015625)"/>
     <use xlink:href="#DejaVuSans-34" transform="translate(466.225586 -16.390625) scale(0.7)"/>
    </g>
   </g>
  </g>
  <g id="axes_2">
   <g id="patch_3">
    <path d="M 287.298425 195.703937 
L 296.029134 195.703937 
L 296.029134 36.96378 
L 287.298425 36.96378 
L 287.298425 195.703937 
z
" style="fill: none"/>
   </g>
   <g id="patch_4">
    <path d="M 287.298425 195.703937 
L 291.66378 203.640945 
L 296.029134 195.703937 
" style="fill: #440154; opacity: 0.7"/>
   </g>
   <g id="patch_5">
    <path d="M 287.298425 36.96378 
L 291.66378 29.026772 
L 296.029134 36.96378 
" style="fill: #fde725; opacity: 0.7"/>
   </g>
   <g id="QuadMesh_1">
    <path d="M 287.298425 195.703937 
L 296.029134 195.703937 
L 296.029134 191.035109 
L 287.298425 191.035109 
L 287.298425 195.703937 
" clip-path="url(#pf038a59989)" style="fill: #450559; fill-opacity: 0.7"/>
    <path d="M 287.298425 191.035109 
L 296.029134 191.035109 
L 296.029134 186.366281 
L 287.298425 186.366281 
L 287.298425 191.035109 
" clip-path="url(#pf038a59989)" style="fill: #471164; fill-opacity: 0.7"/>
    <path d="M 287.298425 186.366281 
L 296.029134 186.366281 
L 296.029134 181.697453 
L 287.298425 181.697453 
L 287.298425 186.366281 
" clip-path="url(#pf038a59989)" style="fill: #481b6d; fill-opacity: 0.7"/>
    <path d="M 287.298425 181.697453 
L 296.029134 181.697453 
L 296.029134 177.028624 
L 287.298425 177.028624 
L 287.298425 181.697453 
" clip-path="url(#pf038a59989)" style="fill: #482576; fill-opacity: 0.7"/>
    <path d="M 287.298425 177.028624 
L 296.029134 177.028624 
L 296.029134 172.359796 
L 287.298425 172.359796 
L 287.298425 177.028624 
" clip-path="url(#pf038a59989)" style="fill: #472e7c; fill-opacity: 0.7"/>
    <path d="M 287.298425 172.359796 
L 296.029134 172.359796 
L 296.029134 167.690968 
L 287.298425 167.690968 
L 287.298425 172.359796 
" clip-path="url(#pf038a59989)" style="fill: #453882; fill-opacity: 0.7"/>
    <path d="M 287.298425 167.690968 
L 296.029134 167.690968 
L 296.029134 163.02214 
L 287.298425 163.02214 
L 287.298425 167.690968 
" clip-path="url(#pf038a59989)" style="fill: #424086; fill-opacity: 0.7"/>
    <path d="M 287.298425 163.02214 
L 296.029134 163.02214 
L 296.029134 158.353312 
L 287.298425 158.353312 
L 287.298425 163.02214 
" clip-path="url(#pf038a59989)" style="fill: #3e4989; fill-opacity: 0.7"/>
    <path d="M 287.298425 158.353312 
L 296.029134 158.353312 
L 296.029134 153.684484 
L 287.298425 153.684484 
L 287.298425 158.353312 
" clip-path="url(#pf038a59989)" style="fill: #3b528b; fill-opacity: 0.7"/>
    <path d="M 287.298425 153.684484 
L 296.029134 153.684484 
L 296.029134 149.015655 
L 287.298425 149.015655 
L 287.298425 153.684484 
" clip-path="url(#pf038a59989)" style="fill: #375a8c; fill-opacity: 0.7"/>
    <path d="M 287.298425 149.015655 
L 296.029134 149.015655 
L 296.029134 144.346827 
L 287.298425 144.346827 
L 287.298425 149.015655 
" clip-path="url(#pf038a59989)" style="fill: #33628d; fill-opacity: 0.7"/>
    <path d="M 287.298425 144.346827 
L 296.029134 144.346827 
L 296.029134 139.677999 
L 287.298425 139.677999 
L 287.298425 144.346827 
" clip-path="url(#pf038a59989)" style="fill: #30698e; fill-opacity: 0.7"/>
    <path d="M 287.298425 139.677999 
L 296.029134 139.677999 
L 296.029134 135.009171 
L 287.298425 135.009171 
L 287.298425 139.677999 
" clip-path="url(#pf038a59989)" style="fill: #2d718e; fill-opacity: 0.7"/>
    <path d="M 287.298425 135.009171 
L 296.029134 135.009171 
L 296.029134 130.340343 
L 287.298425 130.340343 
L 287.298425 135.009171 
" clip-path="url(#pf038a59989)" style="fill: #2a778e; fill-opacity: 0.7"/>
    <path d="M 287.298425 130.340343 
L 296.029134 130.340343 
L 296.029134 125.671515 
L 287.298425 125.671515 
L 287.298425 130.340343 
" clip-path="url(#pf038a59989)" style="fill: #277f8e; fill-opacity: 0.7"/>
    <path d="M 287.298425 125.671515 
L 296.029134 125.671515 
L 296.029134 121.002686 
L 287.298425 121.002686 
L 287.298425 125.671515 
" clip-path="url(#pf038a59989)" style="fill: #25858e; fill-opacity: 0.7"/>
    <path d="M 287.298425 121.002686 
L 296.029134 121.002686 
L 296.029134 116.333858 
L 287.298425 116.333858 
L 287.298425 121.002686 
" clip-path="url(#pf038a59989)" style="fill: #228d8d; fill-opacity: 0.7"/>
    <path d="M 287.298425 116.333858 
L 296.029134 116.333858 
L 296.029134 111.66503 
L 287.298425 111.66503 
L 287.298425 116.333858 
" clip-path="url(#pf038a59989)" style="fill: #20938c; fill-opacity: 0.7"/>
    <path d="M 287.298425 111.66503 
L 296.029134 111.66503 
L 296.029134 106.996202 
L 287.298425 106.996202 
L 287.298425 111.66503 
" clip-path="url(#pf038a59989)" style="fill: #1e9b8a; fill-opacity: 0.7"/>
    <path d="M 287.298425 106.996202 
L 296.029134 106.996202 
L 296.029134 102.327374 
L 287.298425 102.327374 
L 287.298425 106.996202 
" clip-path="url(#pf038a59989)" style="fill: #1fa187; fill-opacity: 0.7"/>
    <path d="M 287.298425 102.327374 
L 296.029134 102.327374 
L 296.029134 97.658546 
L 287.298425 97.658546 
L 287.298425 102.327374 
" clip-path="url(#pf038a59989)" style="fill: #23a983; fill-opacity: 0.7"/>
    <path d="M 287.298425 97.658546 
L 296.029134 97.658546 
L 296.029134 92.989717 
L 287.298425 92.989717 
L 287.298425 97.658546 
" clip-path="url(#pf038a59989)" style="fill: #29af7f; fill-opacity: 0.7"/>
    <path d="M 287.298425 92.989717 
L 296.029134 92.989717 
L 296.029134 88.320889 
L 287.298425 88.320889 
L 287.298425 92.989717 
" clip-path="url(#pf038a59989)" style="fill: #34b679; fill-opacity: 0.7"/>
    <path d="M 287.298425 88.320889 
L 296.029134 88.320889 
L 296.029134 83.652061 
L 287.298425 83.652061 
L 287.298425 88.320889 
" clip-path="url(#pf038a59989)" style="fill: #3fbc73; fill-opacity: 0.7"/>
    <path d="M 287.298425 83.652061 
L 296.029134 83.652061 
L 296.029134 78.983233 
L 287.298425 78.983233 
L 287.298425 83.652061 
" clip-path="url(#pf038a59989)" style="fill: #4ec36b; fill-opacity: 0.7"/>
    <path d="M 287.298425 78.983233 
L 296.029134 78.983233 
L 296.029134 74.314405 
L 287.298425 74.314405 
L 287.298425 78.983233 
" clip-path="url(#pf038a59989)" style="fill: #5cc863; fill-opacity: 0.7"/>
    <path d="M 287.298425 74.314405 
L 296.029134 74.314405 
L 296.029134 69.645577 
L 287.298425 69.645577 
L 287.298425 74.314405 
" clip-path="url(#pf038a59989)" style="fill: #6ece58; fill-opacity: 0.7"/>
    <path d="M 287.298425 69.645577 
L 296.029134 69.645577 
L 296.029134 64.976748 
L 287.298425 64.976748 
L 287.298425 69.645577 
" clip-path="url(#pf038a59989)" style="fill: #81d34d; fill-opacity: 0.7"/>
    <path d="M 287.298425 64.976748 
L 296.029134 64.976748 
L 296.029134 60.30792 
L 287.298425 60.30792 
L 287.298425 64.976748 
" clip-path="url(#pf038a59989)" style="fill: #93d741; fill-opacity: 0.7"/>
    <path d="M 287.298425 60.30792 
L 296.029134 60.30792 
L 296.029134 55.639092 
L 287.298425 55.639092 
L 287.298425 60.30792 
" clip-path="url(#pf038a59989)" style="fill: #a8db34; fill-opacity: 0.7"/>
    <path d="M 287.298425 55.639092 
L 296.029134 55.639092 
L 296.029134 50.970264 
L 287.298425 50.970264 
L 287.298425 55.639092 
" clip-path="url(#pf038a59989)" style="fill: #bade28; fill-opacity: 0.7"/>
    <path d="M 287.298425 50.970264 
L 296.029134 50.970264 
L 296.029134 46.301436 
L 287.298425 46.301436 
L 287.298425 50.970264 
" clip-path="url(#pf038a59989)" style="fill: #d0e11c; fill-opacity: 0.7"/>
    <path d="M 287.298425 46.301436 
L 296.029134 46.301436 
L 296.029134 41.632608 
L 287.298425 41.632608 
L 287.298425 46.301436 
" clip-path="url(#pf038a59989)" style="fill: #e2e418; fill-opacity: 0.7"/>
    <path d="M 287.298425 41.632608 
L 296.029134 41.632608 
L 296.029134 36.96378 
L 287.298425 36.96378 
L 287.298425 41.632608 
" clip-path="url(#pf038a59989)" style="fill: #f6e620; fill-opacity: 0.7"/>
   </g>
   <g id="matplotlib.axis_3"/>
   <g id="matplotlib.axis_4">
    <g id="ytick_1">
     <g id="line2d_39">
      <defs>
       <path id="m410e169df1" d="M 0 0 
L -2 0 
" style="stroke: #000000; stroke-width: 0.3"/>
      </defs>
      <g>
       <use xlink:href="#m410e169df1" x="296.029134" y="186.366281" style="stroke: #000000; stroke-width: 0.3"/>
      </g>
     </g>
     <g id="text_21">
      <!-- 0.495 -->
      <g transform="translate(299.529134 189.229406) scale(0.08 -0.08)">
       <defs>
        <path id="ArialMT-2212" d="M 3381 1997 
L 356 1997 
L 356 2522 
L 3381 2522 
L 3381 1997 
z
" transform="scale(0.015625)"/>
        <path id="ArialMT-30" d="M 266 2259 
Q 266 3072 433 3567 
Q 600 4063 929 4331 
Q 1259 4600 1759 4600 
Q 2128 4600 2406 4451 
Q 2684 4303 2865 4023 
Q 3047 3744 3150 3342 
Q 3253 2941 3253 2259 
Q 3253 1453 3087 958 
Q 2922 463 2592 192 
Q 2263 -78 1759 -78 
Q 1097 -78 719 397 
Q 266 969 266 2259 
z
M 844 2259 
Q 844 1131 1108 757 
Q 1372 384 1759 384 
Q 2147 384 2411 759 
Q 2675 1134 2675 2259 
Q 2675 3391 2411 3762 
Q 2147 4134 1753 4134 
Q 1366 4134 1134 3806 
Q 844 3388 844 2259 
z
" transform="scale(0.015625)"/>
        <path id="ArialMT-2e" d="M 581 0 
L 581 641 
L 1222 641 
L 1222 0 
L 581 0 
z
" transform="scale(0.015625)"/>
        <path id="ArialMT-34" d="M 2069 0 
L 2069 1097 
L 81 1097 
L 81 1613 
L 2172 4581 
L 2631 4581 
L 2631 1613 
L 3250 1613 
L 3250 1097 
L 2631 1097 
L 2631 0 
L 2069 0 
z
M 2069 1613 
L 2069 3678 
L 634 1613 
L 2069 1613 
z
" transform="scale(0.015625)"/>
        <path id="ArialMT-39" d="M 350 1059 
L 891 1109 
Q 959 728 1153 556 
Q 1347 384 1650 384 
Q 1909 384 2104 503 
Q 2300 622 2425 820 
Q 2550 1019 2634 1356 
Q 2719 1694 2719 2044 
Q 2719 2081 2716 2156 
Q 2547 1888 2255 1720 
Q 1963 1553 1622 1553 
Q 1053 1553 659 1965 
Q 266 2378 266 3053 
Q 266 3750 677 4175 
Q 1088 4600 1706 4600 
Q 2153 4600 2523 4359 
Q 2894 4119 3086 3673 
Q 3278 3228 3278 2384 
Q 3278 1506 3087 986 
Q 2897 466 2520 194 
Q 2144 -78 1638 -78 
Q 1100 -78 759 220 
Q 419 519 350 1059 
z
M 2653 3081 
Q 2653 3566 2395 3850 
Q 2138 4134 1775 4134 
Q 1400 4134 1122 3828 
Q 844 3522 844 3034 
Q 844 2597 1108 2323 
Q 1372 2050 1759 2050 
Q 2150 2050 2401 2323 
Q 2653 2597 2653 3081 
z
" transform="scale(0.015625)"/>
        <path id="ArialMT-35" d="M 266 1200 
L 856 1250 
Q 922 819 1161 601 
Q 1400 384 1738 384 
Q 2144 384 2425 690 
Q 2706 997 2706 1503 
Q 2706 1984 2436 2262 
Q 2166 2541 1728 2541 
Q 1456 2541 1237 2417 
Q 1019 2294 894 2097 
L 366 2166 
L 809 4519 
L 3088 4519 
L 3088 3981 
L 1259 3981 
L 1013 2750 
Q 1425 3038 1878 3038 
Q 2478 3038 2890 2622 
Q 3303 2206 3303 1553 
Q 3303 931 2941 478 
Q 2500 -78 1738 -78 
Q 1113 -78 717 272 
Q 322 622 266 1200 
z
" transform="scale(0.015625)"/>
       </defs>
       <use xlink:href="#ArialMT-2212"/>
       <use xlink:href="#ArialMT-30" transform="translate(58.398438 0)"/>
       <use xlink:href="#ArialMT-2e" transform="translate(114.013672 0)"/>
       <use xlink:href="#ArialMT-34" transform="translate(141.796875 0)"/>
       <use xlink:href="#ArialMT-39" transform="translate(197.412109 0)"/>
       <use xlink:href="#ArialMT-35" transform="translate(253.027344 0)"/>
      </g>
     </g>
    </g>
    <g id="ytick_2">
     <g id="line2d_40">
      <g>
       <use xlink:href="#m410e169df1" x="296.029134" y="167.690968" style="stroke: #000000; stroke-width: 0.3"/>
      </g>
     </g>
     <g id="text_22">
      <!-- 0.435 -->
      <g transform="translate(299.529134 170.554093) scale(0.08 -0.08)">
       <defs>
        <path id="ArialMT-33" d="M 269 1209 
L 831 1284 
Q 928 806 1161 595 
Q 1394 384 1728 384 
Q 2125 384 2398 659 
Q 2672 934 2672 1341 
Q 2672 1728 2419 1979 
Q 2166 2231 1775 2231 
Q 1616 2231 1378 2169 
L 1441 2663 
Q 1497 2656 1531 2656 
Q 1891 2656 2178 2843 
Q 2466 3031 2466 3422 
Q 2466 3731 2256 3934 
Q 2047 4138 1716 4138 
Q 1388 4138 1169 3931 
Q 950 3725 888 3313 
L 325 3413 
Q 428 3978 793 4289 
Q 1159 4600 1703 4600 
Q 2078 4600 2393 4439 
Q 2709 4278 2876 4000 
Q 3044 3722 3044 3409 
Q 3044 3113 2884 2869 
Q 2725 2625 2413 2481 
Q 2819 2388 3044 2092 
Q 3269 1797 3269 1353 
Q 3269 753 2831 336 
Q 2394 -81 1725 -81 
Q 1122 -81 723 278 
Q 325 638 269 1209 
z
" transform="scale(0.015625)"/>
       </defs>
       <use xlink:href="#ArialMT-2212"/>
       <use xlink:href="#ArialMT-30" transform="translate(58.398438 0)"/>
       <use xlink:href="#ArialMT-2e" transform="translate(114.013672 0)"/>
       <use xlink:href="#ArialMT-34" transform="translate(141.796875 0)"/>
       <use xlink:href="#ArialMT-33" transform="translate(197.412109 0)"/>
       <use xlink:href="#ArialMT-35" transform="translate(253.027344 0)"/>
      </g>
     </g>
    </g>
    <g id="ytick_3">
     <g id="line2d_41">
      <g>
       <use xlink:href="#m410e169df1" x="296.029134" y="149.015655" style="stroke: #000000; stroke-width: 0.3"/>
      </g>
     </g>
     <g id="text_23">
      <!-- 0.375 -->
      <g transform="translate(299.529134 151.87878) scale(0.08 -0.08)">
       <defs>
        <path id="ArialMT-37" d="M 303 3981 
L 303 4522 
L 3269 4522 
L 3269 4084 
Q 2831 3619 2401 2847 
Q 1972 2075 1738 1259 
Q 1569 684 1522 0 
L 944 0 
Q 953 541 1156 1306 
Q 1359 2072 1739 2783 
Q 2119 3494 2547 3981 
L 303 3981 
z
" transform="scale(0.015625)"/>
       </defs>
       <use xlink:href="#ArialMT-2212"/>
       <use xlink:href="#ArialMT-30" transform="translate(58.398438 0)"/>
       <use xlink:href="#ArialMT-2e" transform="translate(114.013672 0)"/>
       <use xlink:href="#ArialMT-33" transform="translate(141.796875 0)"/>
       <use xlink:href="#ArialMT-37" transform="translate(197.412109 0)"/>
       <use xlink:href="#ArialMT-35" transform="translate(253.027344 0)"/>
      </g>
     </g>
    </g>
    <g id="ytick_4">
     <g id="line2d_42">
      <g>
       <use xlink:href="#m410e169df1" x="296.029134" y="130.340343" style="stroke: #000000; stroke-width: 0.3"/>
      </g>
     </g>
     <g id="text_24">
      <!-- 0.315 -->
      <g transform="translate(299.529134 133.203468) scale(0.08 -0.08)">
       <defs>
        <path id="ArialMT-31" d="M 2384 0 
L 1822 0 
L 1822 3584 
Q 1619 3391 1289 3197 
Q 959 3003 697 2906 
L 697 3450 
Q 1169 3672 1522 3987 
Q 1875 4303 2022 4600 
L 2384 4600 
L 2384 0 
z
" transform="scale(0.015625)"/>
       </defs>
       <use xlink:href="#ArialMT-2212"/>
       <use xlink:href="#ArialMT-30" transform="translate(58.398438 0)"/>
       <use xlink:href="#ArialMT-2e" transform="translate(114.013672 0)"/>
       <use xlink:href="#ArialMT-33" transform="translate(141.796875 0)"/>
       <use xlink:href="#ArialMT-31" transform="translate(197.412109 0)"/>
       <use xlink:href="#ArialMT-35" transform="translate(253.027344 0)"/>
      </g>
     </g>
    </g>
    <g id="ytick_5">
     <g id="line2d_43">
      <g>
       <use xlink:href="#m410e169df1" x="296.029134" y="111.66503" style="stroke: #000000; stroke-width: 0.3"/>
      </g>
     </g>
     <g id="text_25">
      <!-- 0.255 -->
      <g transform="translate(299.529134 114.528155) scale(0.08 -0.08)">
       <defs>
        <path id="ArialMT-32" d="M 3222 541 
L 3222 0 
L 194 0 
Q 188 203 259 391 
Q 375 700 629 1000 
Q 884 1300 1366 1694 
Q 2113 2306 2375 2664 
Q 2638 3022 2638 3341 
Q 2638 3675 2398 3904 
Q 2159 4134 1775 4134 
Q 1369 4134 1125 3890 
Q 881 3647 878 3216 
L 300 3275 
Q 359 3922 746 4261 
Q 1134 4600 1788 4600 
Q 2447 4600 2831 4234 
Q 3216 3869 3216 3328 
Q 3216 3053 3103 2787 
Q 2991 2522 2730 2228 
Q 2469 1934 1863 1422 
Q 1356 997 1212 845 
Q 1069 694 975 541 
L 3222 541 
z
" transform="scale(0.015625)"/>
       </defs>
       <use xlink:href="#ArialMT-2212"/>
       <use xlink:href="#ArialMT-30" transform="translate(58.398438 0)"/>
       <use xlink:href="#ArialMT-2e" transform="translate(114.013672 0)"/>
       <use xlink:href="#ArialMT-32" transform="translate(141.796875 0)"/>
       <use xlink:href="#ArialMT-35" transform="translate(197.412109 0)"/>
       <use xlink:href="#ArialMT-35" transform="translate(253.027344 0)"/>
      </g>
     </g>
    </g>
    <g id="ytick_6">
     <g id="line2d_44">
      <g>
       <use xlink:href="#m410e169df1" x="296.029134" y="92.989717" style="stroke: #000000; stroke-width: 0.3"/>
      </g>
     </g>
     <g id="text_26">
      <!-- 0.195 -->
      <g transform="translate(299.529134 95.852842) scale(0.08 -0.08)">
       <use xlink:href="#ArialMT-2212"/>
       <use xlink:href="#ArialMT-30" transform="translate(58.398438 0)"/>
       <use xlink:href="#ArialMT-2e" transform="translate(114.013672 0)"/>
       <use xlink:href="#ArialMT-31" transform="translate(141.796875 0)"/>
       <use xlink:href="#ArialMT-39" transform="translate(197.412109 0)"/>
       <use xlink:href="#ArialMT-35" transform="translate(253.027344 0)"/>
      </g>
     </g>
    </g>
    <g id="ytick_7">
     <g id="line2d_45">
      <g>
       <use xlink:href="#m410e169df1" x="296.029134" y="74.314405" style="stroke: #000000; stroke-width: 0.3"/>
      </g>
     </g>
     <g id="text_27">
      <!-- 0.135 -->
      <g transform="translate(299.529134 77.17753) scale(0.08 -0.08)">
       <use xlink:href="#ArialMT-2212"/>
       <use xlink:href="#ArialMT-30" transform="translate(58.398438 0)"/>
       <use xlink:href="#ArialMT-2e" transform="translate(114.013672 0)"/>
       <use xlink:href="#ArialMT-31" transform="translate(141.796875 0)"/>
       <use xlink:href="#ArialMT-33" transform="translate(197.412109 0)"/>
       <use xlink:href="#ArialMT-35" transform="translate(253.027344 0)"/>
      </g>
     </g>
    </g>
    <g id="ytick_8">
     <g id="line2d_46">
      <g>
       <use xlink:href="#m410e169df1" x="296.029134" y="55.639092" style="stroke: #000000; stroke-width: 0.3"/>
      </g>
     </g>
     <g id="text_28">
      <!-- 0.075 -->
      <g transform="translate(299.529134 58.502217) scale(0.08 -0.08)">
       <use xlink:href="#ArialMT-2212"/>
       <use xlink:href="#ArialMT-30" transform="translate(58.398438 0)"/>
       <use xlink:href="#ArialMT-2e" transform="translate(114.013672 0)"/>
       <use xlink:href="#ArialMT-30" transform="translate(141.796875 0)"/>
       <use xlink:href="#ArialMT-37" transform="translate(197.412109 0)"/>
       <use xlink:href="#ArialMT-35" transform="translate(253.027344 0)"/>
      </g>
     </g>
    </g>
    <g id="ytick_9">
     <g id="line2d_47">
      <g>
       <use xlink:href="#m410e169df1" x="296.029134" y="36.96378" style="stroke: #000000; stroke-width: 0.3"/>
      </g>
     </g>
     <g id="text_29">
      <!-- 0.015 -->
      <g transform="translate(299.529134 39.826905) scale(0.08 -0.08)">
       <use xlink:href="#ArialMT-2212"/>
       <use xlink:href="#ArialMT-30" transform="translate(58.398438 0)"/>
       <use xlink:href="#ArialMT-2e" transform="translate(114.013672 0)"/>
       <use xlink:href="#ArialMT-30" transform="translate(141.796875 0)"/>
       <use xlink:href="#ArialMT-31" transform="translate(197.412109 0)"/>
       <use xlink:href="#ArialMT-35" transform="translate(253.027344 0)"/>
      </g>
     </g>
    </g>
    <g id="text_30">
     <!-- Formation Energy (eV/atom) -->
     <g transform="translate(335.498821 179.408077) rotate(-90) scale(0.1 -0.1)">
      <defs>
       <path id="ArialMT-46" d="M 525 0 
L 525 4581 
L 3616 4581 
L 3616 4041 
L 1131 4041 
L 1131 2622 
L 3281 2622 
L 3281 2081 
L 1131 2081 
L 1131 0 
L 525 0 
z
" transform="scale(0.015625)"/>
       <path id="ArialMT-6f" d="M 213 1659 
Q 213 2581 725 3025 
Q 1153 3394 1769 3394 
Q 2453 3394 2887 2945 
Q 3322 2497 3322 1706 
Q 3322 1066 3130 698 
Q 2938 331 2570 128 
Q 2203 -75 1769 -75 
Q 1072 -75 642 372 
Q 213 819 213 1659 
z
M 791 1659 
Q 791 1022 1069 705 
Q 1347 388 1769 388 
Q 2188 388 2466 706 
Q 2744 1025 2744 1678 
Q 2744 2294 2464 2611 
Q 2184 2928 1769 2928 
Q 1347 2928 1069 2612 
Q 791 2297 791 1659 
z
" transform="scale(0.015625)"/>
       <path id="ArialMT-72" d="M 416 0 
L 416 3319 
L 922 3319 
L 922 2816 
Q 1116 3169 1280 3281 
Q 1444 3394 1641 3394 
Q 1925 3394 2219 3213 
L 2025 2691 
Q 1819 2813 1613 2813 
Q 1428 2813 1281 2702 
Q 1134 2591 1072 2394 
Q 978 2094 978 1738 
L 978 0 
L 416 0 
z
" transform="scale(0.015625)"/>
       <path id="ArialMT-6d" d="M 422 0 
L 422 3319 
L 925 3319 
L 925 2853 
Q 1081 3097 1340 3245 
Q 1600 3394 1931 3394 
Q 2300 3394 2536 3241 
Q 2772 3088 2869 2813 
Q 3263 3394 3894 3394 
Q 4388 3394 4653 3120 
Q 4919 2847 4919 2278 
L 4919 0 
L 4359 0 
L 4359 2091 
Q 4359 2428 4304 2576 
Q 4250 2725 4106 2815 
Q 3963 2906 3769 2906 
Q 3419 2906 3187 2673 
Q 2956 2441 2956 1928 
L 2956 0 
L 2394 0 
L 2394 2156 
Q 2394 2531 2256 2718 
Q 2119 2906 1806 2906 
Q 1569 2906 1367 2781 
Q 1166 2656 1075 2415 
Q 984 2175 984 1722 
L 984 0 
L 422 0 
z
" transform="scale(0.015625)"/>
       <path id="ArialMT-61" d="M 2588 409 
Q 2275 144 1986 34 
Q 1697 -75 1366 -75 
Q 819 -75 525 192 
Q 231 459 231 875 
Q 231 1119 342 1320 
Q 453 1522 633 1644 
Q 813 1766 1038 1828 
Q 1203 1872 1538 1913 
Q 2219 1994 2541 2106 
Q 2544 2222 2544 2253 
Q 2544 2597 2384 2738 
Q 2169 2928 1744 2928 
Q 1347 2928 1158 2789 
Q 969 2650 878 2297 
L 328 2372 
Q 403 2725 575 2942 
Q 747 3159 1072 3276 
Q 1397 3394 1825 3394 
Q 2250 3394 2515 3294 
Q 2781 3194 2906 3042 
Q 3031 2891 3081 2659 
Q 3109 2516 3109 2141 
L 3109 1391 
Q 3109 606 3145 398 
Q 3181 191 3288 0 
L 2700 0 
Q 2613 175 2588 409 
z
M 2541 1666 
Q 2234 1541 1622 1453 
Q 1275 1403 1131 1340 
Q 988 1278 909 1158 
Q 831 1038 831 891 
Q 831 666 1001 516 
Q 1172 366 1500 366 
Q 1825 366 2078 508 
Q 2331 650 2450 897 
Q 2541 1088 2541 1459 
L 2541 1666 
z
" transform="scale(0.015625)"/>
       <path id="ArialMT-74" d="M 1650 503 
L 1731 6 
Q 1494 -44 1306 -44 
Q 1000 -44 831 53 
Q 663 150 594 308 
Q 525 466 525 972 
L 525 2881 
L 113 2881 
L 113 3319 
L 525 3319 
L 525 4141 
L 1084 4478 
L 1084 3319 
L 1650 3319 
L 1650 2881 
L 1084 2881 
L 1084 941 
Q 1084 700 1114 631 
Q 1144 563 1211 522 
Q 1278 481 1403 481 
Q 1497 481 1650 503 
z
" transform="scale(0.015625)"/>
       <path id="ArialMT-69" d="M 425 3934 
L 425 4581 
L 988 4581 
L 988 3934 
L 425 3934 
z
M 425 0 
L 425 3319 
L 988 3319 
L 988 0 
L 425 0 
z
" transform="scale(0.015625)"/>
       <path id="ArialMT-6e" d="M 422 0 
L 422 3319 
L 928 3319 
L 928 2847 
Q 1294 3394 1984 3394 
Q 2284 3394 2536 3286 
Q 2788 3178 2913 3003 
Q 3038 2828 3088 2588 
Q 3119 2431 3119 2041 
L 3119 0 
L 2556 0 
L 2556 2019 
Q 2556 2363 2490 2533 
Q 2425 2703 2258 2804 
Q 2091 2906 1866 2906 
Q 1506 2906 1245 2678 
Q 984 2450 984 1813 
L 984 0 
L 422 0 
z
" transform="scale(0.015625)"/>
       <path id="ArialMT-20" transform="scale(0.015625)"/>
       <path id="ArialMT-45" d="M 506 0 
L 506 4581 
L 3819 4581 
L 3819 4041 
L 1113 4041 
L 1113 2638 
L 3647 2638 
L 3647 2100 
L 1113 2100 
L 1113 541 
L 3925 541 
L 3925 0 
L 506 0 
z
" transform="scale(0.015625)"/>
       <path id="ArialMT-65" d="M 2694 1069 
L 3275 997 
Q 3138 488 2766 206 
Q 2394 -75 1816 -75 
Q 1088 -75 661 373 
Q 234 822 234 1631 
Q 234 2469 665 2931 
Q 1097 3394 1784 3394 
Q 2450 3394 2872 2941 
Q 3294 2488 3294 1666 
Q 3294 1616 3291 1516 
L 816 1516 
Q 847 969 1125 678 
Q 1403 388 1819 388 
Q 2128 388 2347 550 
Q 2566 713 2694 1069 
z
M 847 1978 
L 2700 1978 
Q 2663 2397 2488 2606 
Q 2219 2931 1791 2931 
Q 1403 2931 1139 2672 
Q 875 2413 847 1978 
z
" transform="scale(0.015625)"/>
       <path id="ArialMT-67" d="M 319 -275 
L 866 -356 
Q 900 -609 1056 -725 
Q 1266 -881 1628 -881 
Q 2019 -881 2231 -725 
Q 2444 -569 2519 -288 
Q 2563 -116 2559 434 
Q 2191 0 1641 0 
Q 956 0 581 494 
Q 206 988 206 1678 
Q 206 2153 378 2554 
Q 550 2956 876 3175 
Q 1203 3394 1644 3394 
Q 2231 3394 2613 2919 
L 2613 3319 
L 3131 3319 
L 3131 450 
Q 3131 -325 2973 -648 
Q 2816 -972 2473 -1159 
Q 2131 -1347 1631 -1347 
Q 1038 -1347 672 -1080 
Q 306 -813 319 -275 
z
M 784 1719 
Q 784 1066 1043 766 
Q 1303 466 1694 466 
Q 2081 466 2343 764 
Q 2606 1063 2606 1700 
Q 2606 2309 2336 2618 
Q 2066 2928 1684 2928 
Q 1309 2928 1046 2623 
Q 784 2319 784 1719 
z
" transform="scale(0.015625)"/>
       <path id="ArialMT-79" d="M 397 -1278 
L 334 -750 
Q 519 -800 656 -800 
Q 844 -800 956 -737 
Q 1069 -675 1141 -563 
Q 1194 -478 1313 -144 
Q 1328 -97 1363 -6 
L 103 3319 
L 709 3319 
L 1400 1397 
Q 1534 1031 1641 628 
Q 1738 1016 1872 1384 
L 2581 3319 
L 3144 3319 
L 1881 -56 
Q 1678 -603 1566 -809 
Q 1416 -1088 1222 -1217 
Q 1028 -1347 759 -1347 
Q 597 -1347 397 -1278 
z
" transform="scale(0.015625)"/>
       <path id="ArialMT-28" d="M 1497 -1347 
Q 1031 -759 709 28 
Q 388 816 388 1659 
Q 388 2403 628 3084 
Q 909 3875 1497 4659 
L 1900 4659 
Q 1522 4009 1400 3731 
Q 1209 3300 1100 2831 
Q 966 2247 966 1656 
Q 966 153 1900 -1347 
L 1497 -1347 
z
" transform="scale(0.015625)"/>
       <path id="ArialMT-56" d="M 1803 0 
L 28 4581 
L 684 4581 
L 1875 1253 
Q 2019 853 2116 503 
Q 2222 878 2363 1253 
L 3600 4581 
L 4219 4581 
L 2425 0 
L 1803 0 
z
" transform="scale(0.015625)"/>
       <path id="ArialMT-2f" d="M 0 -78 
L 1328 4659 
L 1778 4659 
L 453 -78 
L 0 -78 
z
" transform="scale(0.015625)"/>
       <path id="ArialMT-29" d="M 791 -1347 
L 388 -1347 
Q 1322 153 1322 1656 
Q 1322 2244 1188 2822 
Q 1081 3291 891 3722 
Q 769 4003 388 4659 
L 791 4659 
Q 1378 3875 1659 3084 
Q 1900 2403 1900 1659 
Q 1900 816 1576 28 
Q 1253 -759 791 -1347 
z
" transform="scale(0.015625)"/>
      </defs>
      <use xlink:href="#ArialMT-46"/>
      <use xlink:href="#ArialMT-6f" transform="translate(61.083984 0)"/>
      <use xlink:href="#ArialMT-72" transform="translate(116.699219 0)"/>
      <use xlink:href="#ArialMT-6d" transform="translate(150 0)"/>
      <use xlink:href="#ArialMT-61" transform="translate(233.300781 0)"/>
      <use xlink:href="#ArialMT-74" transform="translate(288.916016 0)"/>
      <use xlink:href="#ArialMT-69" transform="translate(316.699219 0)"/>
      <use xlink:href="#ArialMT-6f" transform="translate(338.916016 0)"/>
      <use xlink:href="#ArialMT-6e" transform="translate(394.53125 0)"/>
      <use xlink:href="#ArialMT-20" transform="translate(450.146484 0)"/>
      <use xlink:href="#ArialMT-45" transform="translate(477.929688 0)"/>
      <use xlink:href="#ArialMT-6e" transform="translate(544.628906 0)"/>
      <use xlink:href="#ArialMT-65" transform="translate(600.244141 0)"/>
      <use xlink:href="#ArialMT-72" transform="translate(655.859375 0)"/>
      <use xlink:href="#ArialMT-67" transform="translate(689.160156 0)"/>
      <use xlink:href="#ArialMT-79" transform="translate(744.775391 0)"/>
      <use xlink:href="#ArialMT-20" transform="translate(794.775391 0)"/>
      <use xlink:href="#ArialMT-28" transform="translate(822.558594 0)"/>
      <use xlink:href="#ArialMT-65" transform="translate(855.859375 0)"/>
      <use xlink:href="#ArialMT-56" transform="translate(911.474609 0)"/>
      <use xlink:href="#ArialMT-2f" transform="translate(978.173828 0)"/>
      <use xlink:href="#ArialMT-61" transform="translate(1005.957031 0)"/>
      <use xlink:href="#ArialMT-74" transform="translate(1061.572266 0)"/>
      <use xlink:href="#ArialMT-6f" transform="translate(1089.355469 0)"/>
      <use xlink:href="#ArialMT-6d" transform="translate(1144.970703 0)"/>
      <use xlink:href="#ArialMT-29" transform="translate(1228.271484 0)"/>
     </g>
    </g>
   </g>
   <g id="LineCollection_1"/>
   <g id="patch_6">
    <path d="M 287.298425 195.703937 
L 291.66378 203.640945 
L 296.029134 195.703937 
L 296.029134 36.96378 
L 291.66378 29.026772 
L 287.298425 36.96378 
L 287.298425 195.703937 
z
" style="fill: none; stroke: #000000; stroke-width: 0.8; stroke-linejoin: miter; stroke-linecap: square"/>
   </g>
  </g>
 </g>
 <defs>
  <clipPath id="p8451e82319">
   <rect x="7.2" y="7.2" width="263.622047" height="218.267717"/>
  </clipPath>
  <clipPath id="pf038a59989">
   <rect x="287.298425" y="36.96378" width="8.730709" height="158.740157"/>
  </clipPath>
 </defs>
</svg>
