<?xml version="1.0" encoding="utf-8" standalone="no"?>
<!DOCTYPE svg PUBLIC "-//W3C//DTD SVG 1.1//EN"
  "http://www.w3.org/Graphics/SVG/1.1/DTD/svg11.dtd">
<svg xmlns:xlink="http://www.w3.org/1999/xlink" width="344.803509pt" height="232.667717pt" viewBox="0 0 344.803509 232.667717" xmlns="http://www.w3.org/2000/svg" version="1.1">
 <metadata>
  <rdf:RDF xmlns:dc="http://purl.org/dc/elements/1.1/" xmlns:cc="http://creativecommons.org/ns#" xmlns:rdf="http://www.w3.org/1999/02/22-rdf-syntax-ns#">
   <cc:Work>
    <dc:type rdf:resource="http://purl.org/dc/dcmitype/StillImage"/>
    <dc:date>2026-01-27T21:37:51.261389</dc:date>
    <dc:format>image/svg+xml</dc:format>
    <dc:creator>
     <cc:Agent>
      <dc:title>Matplotlib v3.10.8, https://matplotlib.org/</dc:title>
     </cc:Agent>
    </dc:creator>
   </cc:Work>
  </rdf:RDF>
 </metadata>
 <defs>
  <style type="text/css">*{stroke-linejoin: round; stroke-linecap: butt}</style>
 </defs>
 <g id="figure_1">
  <g id="patch_1">
   <path d="M 0 232.667717 
L 344.803509 232.667717 
L 344.803509 0 
L 0 0 
L 0 232.667717 
z
" style="fill: none"/>
  </g>
  <g id="axes_1">
   <g id="patch_2">
    <path d="M 7.2 225.467717 
L 270.822047 225.467717 
L 270.822047 7.2 
L 7.2 7.2 
L 7.2 225.467717 
z
" style="fill: none"/>
   </g>
   <g id="TriContourSet_1">
    <path d="M 200.238052 214.554331 
L 199.915756 211.428951 
L 198.925125 208.295831 
L 197.472621 206.305718 
L 193.749897 209.11182 
L 189.131225 214.554331 
L 198.925125 214.554331 
z
" clip-path="url(#p3d756e88e2)" style="fill: #440154; fill-opacity: 0.7"/>
    <path d="M 189.131225 214.554331 
L 193.749897 209.11182 
L 197.472621 206.305718 
L 198.925125 208.295831 
L 199.915756 211.428951 
L 200.238052 214.554331 
L 201.740646 214.554331 
L 201.049494 207.852074 
L 198.925125 201.133217 
L 195.810286 196.865496 
L 187.827046 202.883074 
L 177.922479 214.554331 
z
" clip-path="url(#p3d756e88e2)" style="fill: #450559; fill-opacity: 0.7"/>
    <path d="M 177.922479 214.554331 
L 187.827046 202.883074 
L 195.810286 196.865496 
L 198.925125 201.133217 
L 201.049494 207.852074 
L 201.740646 214.554331 
L 203.24324 214.554331 
L 202.183233 204.275197 
L 198.925125 193.970603 
L 194.147951 187.425274 
L 181.904196 196.654328 
L 166.713734 214.554331 
z
" clip-path="url(#p3d756e88e2)" style="fill: #471063; fill-opacity: 0.7"/>
    <path d="M 166.713734 214.554331 
L 181.904196 196.654328 
L 194.147951 187.425274 
L 198.925125 193.970603 
L 202.183233 204.275197 
L 203.24324 214.554331 
L 204.745834 214.554331 
L 203.316972 200.698319 
L 198.925125 186.807989 
L 192.485615 177.985052 
L 175.981345 190.425581 
L 155.504988 214.554331 
z
" clip-path="url(#p3d756e88e2)" style="fill: #48186a; fill-opacity: 0.7"/>
    <path d="M 155.504988 214.554331 
L 175.981345 190.425581 
L 192.485615 177.985052 
L 198.925125 186.807989 
L 203.316972 200.698319 
L 204.745834 214.554331 
L 206.248429 214.554331 
L 204.45071 197.121442 
L 198.925125 179.645375 
L 190.82328 168.544829 
L 170.058494 184.196835 
L 144.296242 214.554331 
z
" clip-path="url(#p3d756e88e2)" style="fill: #482173; fill-opacity: 0.7"/>
    <path d="M 144.296242 214.554331 
L 170.058494 184.196835 
L 190.82328 168.544829 
L 198.925125 179.645375 
L 204.45071 197.121442 
L 206.248429 214.554331 
L 207.751023 214.554331 
L 205.584449 193.544565 
L 198.925125 172.482761 
L 189.160945 159.104607 
L 164.135643 177.968089 
L 133.087497 214.554331 
z
" clip-path="url(#p3d756e88e2)" style="fill: #472a7a; fill-opacity: 0.7"/>
    <path d="M 133.087497 214.554331 
L 164.135643 177.968089 
L 189.160945 159.104607 
L 198.925125 172.482761 
L 205.584449 193.544565 
L 207.751023 214.554331 
L 209.253617 214.554331 
L 206.718188 189.967687 
L 198.925125 165.320148 
L 187.49861 149.664385 
L 158.212792 171.739343 
L 121.878751 214.554331 
z
" clip-path="url(#p3d756e88e2)" style="fill: #46337f; fill-opacity: 0.7"/>
    <path d="M 121.878751 214.554331 
L 158.212792 171.739343 
L 187.49861 149.664385 
L 198.925125 165.320148 
L 206.718188 189.967687 
L 209.253617 214.554331 
L 210.756211 214.554331 
L 207.851926 186.39081 
L 198.925125 158.157534 
L 185.836274 140.224163 
L 152.289941 165.510597 
L 110.670006 214.554331 
z
" clip-path="url(#p3d756e88e2)" style="fill: #443a83; fill-opacity: 0.7"/>
    <path d="M 110.670006 214.554331 
L 152.289941 165.510597 
L 185.836274 140.224163 
L 198.925125 158.157534 
L 207.851926 186.39081 
L 210.756211 214.554331 
L 212.258806 214.554331 
L 208.985665 182.813933 
L 198.925125 150.99492 
L 184.173939 130.78394 
L 146.36709 159.281851 
L 99.46126 214.554331 
z
" clip-path="url(#p3d756e88e2)" style="fill: #414287; fill-opacity: 0.7"/>
    <path d="M 99.46126 214.554331 
L 146.36709 159.281851 
L 184.173939 130.78394 
L 198.925125 150.99492 
L 208.985665 182.813933 
L 212.258806 214.554331 
L 213.7614 214.554331 
L 210.119404 179.237055 
L 198.925125 143.832306 
L 182.511604 121.343718 
L 140.444239 153.053105 
L 131.002737 164.178699 
L 108.330692 195.768552 
L 96.578869 214.554331 
L 99.068289 214.554331 
z
" clip-path="url(#p3d756e88e2)" style="fill: #3e4a89; fill-opacity: 0.7"/>
    <path d="M 96.578869 214.554331 
L 108.330692 195.768552 
L 131.002737 164.178699 
L 140.444239 153.053105 
L 182.511604 121.343718 
L 198.925125 143.832306 
L 210.119404 179.237055 
L 213.7614 214.554331 
L 215.263994 214.554331 
L 211.253142 175.660178 
L 198.925125 136.669692 
L 180.849268 111.903496 
L 146.47067 137.817272 
L 142.748899 141.718557 
L 117.929626 176.300226 
L 93.999001 214.554331 
z
" clip-path="url(#p3d756e88e2)" style="fill: #3b528b; fill-opacity: 0.7"/>
    <path d="M 93.999001 214.554331 
L 117.929626 176.300226 
L 142.748899 141.718557 
L 146.47067 137.817272 
L 180.849268 111.903496 
L 198.925125 136.669692 
L 211.253142 175.660178 
L 215.263994 214.554331 
L 216.766588 214.554331 
L 212.386881 172.083301 
L 198.925125 129.507078 
L 179.186933 102.463274 
L 156.311642 119.706128 
L 147.680008 128.754097 
L 127.528561 156.831901 
L 91.419133 214.554331 
z
" clip-path="url(#p3d756e88e2)" style="fill: #38598c; fill-opacity: 0.7"/>
    <path d="M 91.419133 214.554331 
L 127.528561 156.831901 
L 147.680008 128.754097 
L 156.311642 119.706128 
L 179.186933 102.463274 
L 198.925125 129.507078 
L 212.386881 172.083301 
L 216.766588 214.554331 
L 218.269183 214.554331 
L 213.52062 168.506423 
L 198.925125 122.344464 
L 177.524598 93.023052 
L 166.152615 101.594984 
L 152.611117 115.789637 
L 137.127496 137.363575 
L 88.839264 214.554331 
z
" clip-path="url(#p3d756e88e2)" style="fill: #34608d; fill-opacity: 0.7"/>
    <path d="M 88.839264 214.554331 
L 137.127496 137.363575 
L 152.611117 115.789637 
L 166.152615 101.594984 
L 177.524598 93.023052 
L 198.925125 122.344464 
L 213.52062 168.506423 
L 218.269183 214.554331 
L 219.771777 214.554331 
L 214.654358 164.929546 
L 201.990687 124.877469 
L 198.925125 120.041637 
L 175.88124 83.690601 
L 175.847346 83.637134 
L 157.542226 102.825176 
L 146.726431 117.89525 
L 86.259396 214.554331 
z
" clip-path="url(#p3d756e88e2)" style="fill: #31678e; fill-opacity: 0.7"/>
    <path d="M 86.259396 214.554331 
L 146.726431 117.89525 
L 157.542226 102.825176 
L 175.847346 83.637134 
L 172.878425 78.953751 
L 162.473335 89.860716 
L 156.325365 98.426924 
L 83.679528 214.554331 
z
M 221.274371 214.554331 
L 215.788097 161.352669 
L 206.508877 132.004777 
L 201.990687 124.877469 
L 214.654358 164.929546 
L 219.771777 214.554331 
z
" clip-path="url(#p3d756e88e2)" style="fill: #2e6d8e; fill-opacity: 0.7"/>
    <path d="M 83.679528 214.554331 
L 156.325365 98.426924 
L 162.473335 89.860716 
L 172.878425 78.953751 
L 169.909504 74.270368 
L 167.404444 76.896256 
L 165.9243 78.958599 
L 81.09966 214.554331 
z
M 222.776965 214.554331 
L 216.921836 157.775792 
L 211.027066 139.132085 
L 206.508877 132.004777 
L 215.788097 161.352669 
L 221.274371 214.554331 
z
" clip-path="url(#p3d756e88e2)" style="fill: #2c738e; fill-opacity: 0.7"/>
    <path d="M 81.09966 214.554331 
L 165.9243 78.958599 
L 167.404444 76.896256 
L 169.909504 74.270368 
L 168.968074 72.78529 
L 168.104252 71.422637 
L 164.648963 76.873251 
L 78.519791 214.554331 
z
M 224.279559 214.554331 
L 218.055574 154.198914 
L 215.545255 146.259393 
L 211.027066 139.132085 
L 216.921836 157.775792 
L 222.776965 214.554331 
z
" clip-path="url(#p3d756e88e2)" style="fill: #297a8e; fill-opacity: 0.7"/>
    <path d="M 78.519791 214.554331 
L 164.648963 76.873251 
L 168.104252 71.422637 
L 166.839329 69.427259 
L 158.324348 82.859385 
L 75.939923 214.554331 
z
M 225.782154 214.554331 
L 219.359977 152.277001 
L 218.896492 151.545868 
L 215.545255 146.259393 
L 218.055574 154.198914 
L 224.279559 214.554331 
z
" clip-path="url(#p3d756e88e2)" style="fill: #26818e; fill-opacity: 0.7"/>
    <path d="M 75.939923 214.554331 
L 158.324348 82.859385 
L 166.839329 69.427259 
L 165.574406 67.431881 
L 151.999733 88.845519 
L 73.360055 214.554331 
z
M 227.284748 214.554331 
L 221.154488 155.107788 
L 219.359977 152.277001 
L 225.782154 214.554331 
z
" clip-path="url(#p3d756e88e2)" style="fill: #24868e; fill-opacity: 0.7"/>
    <path d="M 73.360055 214.554331 
L 151.999733 88.845519 
L 165.574406 67.431881 
L 164.309483 65.436503 
L 145.675119 94.831653 
L 70.780186 214.554331 
z
M 228.787342 214.554331 
L 222.948999 157.938576 
L 221.154488 155.107788 
L 227.284748 214.554331 
z
" clip-path="url(#p3d756e88e2)" style="fill: #228d8d; fill-opacity: 0.7"/>
    <path d="M 70.780186 214.554331 
L 145.675119 94.831653 
L 164.309483 65.436503 
L 163.04456 63.441125 
L 139.350504 100.817787 
L 68.200318 214.554331 
z
M 230.289936 214.554331 
L 224.743511 160.769364 
L 222.948999 157.938576 
L 228.787342 214.554331 
z
" clip-path="url(#p3d756e88e2)" style="fill: #20938c; fill-opacity: 0.7"/>
    <path d="M 68.200318 214.554331 
L 139.350504 100.817787 
L 163.04456 63.441125 
L 161.779637 61.445747 
L 133.025889 106.80392 
L 65.62045 214.554331 
z
M 231.792531 214.554331 
L 226.538022 163.600152 
L 224.743511 160.769364 
L 230.289936 214.554331 
z
" clip-path="url(#p3d756e88e2)" style="fill: #1f9a8a; fill-opacity: 0.7"/>
    <path d="M 65.62045 214.554331 
L 133.025889 106.80392 
L 161.779637 61.445747 
L 160.514714 59.450369 
L 126.701274 112.790054 
L 63.040581 214.554331 
z
M 233.295125 214.554331 
L 228.332534 166.430939 
L 226.538022 163.600152 
L 231.792531 214.554331 
z
" clip-path="url(#p3d756e88e2)" style="fill: #1fa088; fill-opacity: 0.7"/>
    <path d="M 63.040581 214.554331 
L 126.701274 112.790054 
L 160.514714 59.450369 
L 159.249791 57.454991 
L 120.376659 118.776188 
L 60.460713 214.554331 
z
M 234.797719 214.554331 
L 230.127045 169.261727 
L 228.332534 166.430939 
L 233.295125 214.554331 
z
" clip-path="url(#p3d756e88e2)" style="fill: #21a685; fill-opacity: 0.7"/>
    <path d="M 60.460713 214.554331 
L 120.376659 118.776188 
L 159.249791 57.454991 
L 157.984868 55.459613 
L 114.052044 124.762322 
L 57.880845 214.554331 
z
M 236.300313 214.554331 
L 231.921556 172.092515 
L 230.127045 169.261727 
L 234.797719 214.554331 
z
" clip-path="url(#p3d756e88e2)" style="fill: #26ad81; fill-opacity: 0.7"/>
    <path d="M 57.880845 214.554331 
L 114.052044 124.762322 
L 157.984868 55.459613 
L 156.719945 53.464235 
L 107.727429 130.748456 
L 55.300977 214.554331 
z
M 237.802908 214.554331 
L 233.716068 174.923302 
L 231.921556 172.092515 
L 236.300313 214.554331 
z
" clip-path="url(#p3d756e88e2)" style="fill: #2eb37c; fill-opacity: 0.7"/>
    <path d="M 55.300977 214.554331 
L 107.727429 130.748456 
L 156.719945 53.464235 
L 155.455022 51.468857 
L 101.402814 136.73459 
L 52.721108 214.554331 
z
M 239.305502 214.554331 
L 235.510579 177.75409 
L 233.716068 174.923302 
L 237.802908 214.554331 
z
" clip-path="url(#p3d756e88e2)" style="fill: #37b878; fill-opacity: 0.7"/>
    <path d="M 52.721108 214.554331 
L 101.402814 136.73459 
L 155.455022 51.468857 
L 154.190099 49.473479 
L 95.078199 142.720724 
L 50.14124 214.554331 
z
M 240.808096 214.554331 
L 237.30509 180.584878 
L 235.510579 177.75409 
L 239.305502 214.554331 
z
" clip-path="url(#p3d756e88e2)" style="fill: #42be71; fill-opacity: 0.7"/>
    <path d="M 50.14124 214.554331 
L 95.078199 142.720724 
L 154.190099 49.473479 
L 152.925176 47.478101 
L 88.753584 148.706858 
L 47.561372 214.554331 
z
M 242.31069 214.554331 
L 239.099602 183.415666 
L 237.30509 180.584878 
L 240.808096 214.554331 
z
" clip-path="url(#p3d756e88e2)" style="fill: #50c46a; fill-opacity: 0.7"/>
    <path d="M 47.561372 214.554331 
L 88.753584 148.706858 
L 152.925176 47.478101 
L 151.660253 45.482723 
L 82.428969 154.692992 
L 44.981503 214.554331 
z
M 243.813285 214.554331 
L 240.894113 186.246453 
L 239.099602 183.415666 
L 242.31069 214.554331 
z
" clip-path="url(#p3d756e88e2)" style="fill: #5ec962; fill-opacity: 0.7"/>
    <path d="M 44.981503 214.554331 
L 82.428969 154.692992 
L 151.660253 45.482723 
L 150.39533 43.487345 
L 76.104355 160.679126 
L 42.401635 214.554331 
z
M 245.315879 214.554331 
L 242.688625 189.077241 
L 240.894113 186.246453 
L 243.813285 214.554331 
z
" clip-path="url(#p3d756e88e2)" style="fill: #6ccd5a; fill-opacity: 0.7"/>
    <path d="M 42.401635 214.554331 
L 76.104355 160.679126 
L 150.39533 43.487345 
L 149.130407 41.491967 
L 69.77974 166.665259 
L 39.821767 214.554331 
z
M 246.818473 214.554331 
L 244.483136 191.908029 
L 242.688625 189.077241 
L 245.315879 214.554331 
z
" clip-path="url(#p3d756e88e2)" style="fill: #7cd250; fill-opacity: 0.7"/>
    <path d="M 39.821767 214.554331 
L 69.77974 166.665259 
L 149.130407 41.491967 
L 147.865484 39.496589 
L 63.455125 172.651393 
L 37.241898 214.554331 
z
M 248.321067 214.554331 
L 246.277647 194.738817 
L 244.483136 191.908029 
L 246.818473 214.554331 
z
" clip-path="url(#p3d756e88e2)" style="fill: #8ed645; fill-opacity: 0.7"/>
    <path d="M 37.241898 214.554331 
L 63.455125 172.651393 
L 147.865484 39.496589 
L 146.600562 37.501211 
L 57.13051 178.637527 
L 34.66203 214.554331 
z
M 249.823662 214.554331 
L 248.072159 197.569604 
L 246.277647 194.738817 
L 248.321067 214.554331 
z
" clip-path="url(#p3d756e88e2)" style="fill: #9dd93b; fill-opacity: 0.7"/>
    <path d="M 34.66203 214.554331 
L 57.13051 178.637527 
L 146.600562 37.501211 
L 145.335639 35.505833 
L 50.805895 184.623661 
L 32.082162 214.554331 
z
M 251.326256 214.554331 
L 249.86667 200.400392 
L 248.072159 197.569604 
L 249.823662 214.554331 
z
" clip-path="url(#p3d756e88e2)" style="fill: #b0dd2f; fill-opacity: 0.7"/>
    <path d="M 32.082162 214.554331 
L 50.805895 184.623661 
L 145.335639 35.505833 
L 144.070716 33.510455 
L 44.48128 190.609795 
L 29.502294 214.554331 
z
M 252.82885 214.554331 
L 251.661181 203.23118 
L 249.86667 200.400392 
L 251.326256 214.554331 
z
" clip-path="url(#p3d756e88e2)" style="fill: #c2df23; fill-opacity: 0.7"/>
    <path d="M 29.502294 214.554331 
L 44.48128 190.609795 
L 144.070716 33.510455 
L 142.805793 31.515077 
L 38.156665 196.595929 
L 26.922425 214.554331 
z
M 254.331444 214.554331 
L 253.455693 206.061968 
L 251.661181 203.23118 
L 252.82885 214.554331 
z
" clip-path="url(#p3d756e88e2)" style="fill: #d5e21a; fill-opacity: 0.7"/>
    <path d="M 26.922425 214.554331 
L 38.156665 196.595929 
L 142.805793 31.515077 
L 141.54087 29.519699 
L 31.83205 202.582063 
L 24.342557 214.554331 
z
M 255.834038 214.554331 
L 255.250204 208.892755 
L 253.455693 206.061968 
L 254.331444 214.554331 
z
" clip-path="url(#p3d756e88e2)" style="fill: #e5e419; fill-opacity: 0.7"/>
    <path d="M 24.342557 214.554331 
L 31.83205 202.582063 
L 141.54087 29.519699 
L 140.275947 27.524321 
L 25.507435 208.568197 
L 21.762689 214.554331 
z
M 257.336633 214.554331 
L 257.044716 211.723543 
L 255.250204 208.892755 
L 255.834038 214.554331 
z
" clip-path="url(#p3d756e88e2)" style="fill: #f6e620; fill-opacity: 0.7"/>
    <path d="M 21.762689 214.554331 
L 25.507435 208.568197 
L 140.275947 27.524321 
L 139.011024 25.528943 
L 19.18282 214.554331 
z
M 257.044716 211.723543 
L 257.336633 214.554331 
L 258.839227 214.554331 
z
" clip-path="url(#p3d756e88e2)" style="fill: #fde725; fill-opacity: 0.7"/>
   </g>
   <g id="matplotlib.axis_1"/>
   <g id="matplotlib.axis_2"/>
   <g id="line2d_1">
    <path d="M 168.968074 72.78529 
L 99.068289 214.554331 
" clip-path="url(#p3d756e88e2)" style="fill: none; stroke: #555555; stroke-opacity: 0.9; stroke-width: 0.5; stroke-linecap: square"/>
   </g>
   <g id="line2d_2">
    <path d="M 99.068289 214.554331 
L 19.18282 214.554331 
" clip-path="url(#p3d756e88e2)" style="fill: none; stroke: #555555; stroke-opacity: 0.9; stroke-width: 0.5; stroke-linecap: square"/>
   </g>
   <g id="line2d_3">
    <path d="M 198.925125 120.041637 
L 218.896492 151.545868 
" clip-path="url(#p3d756e88e2)" style="fill: none; stroke: #555555; stroke-opacity: 0.9; stroke-width: 0.5; stroke-linecap: square"/>
   </g>
   <g id="line2d_4">
    <path d="M 198.925125 120.041637 
L 198.925125 214.554331 
" clip-path="url(#p3d756e88e2)" style="fill: none; stroke: #555555; stroke-opacity: 0.9; stroke-width: 0.5; stroke-linecap: square"/>
   </g>
   <g id="line2d_5">
    <path d="M 139.011024 25.528943 
L 19.18282 214.554331 
" clip-path="url(#p3d756e88e2)" style="fill: none; stroke: #555555; stroke-opacity: 0.9; stroke-width: 0.5; stroke-linecap: square"/>
   </g>
   <g id="line2d_6">
    <path d="M 198.925125 214.554331 
L 99.068289 214.554331 
" clip-path="url(#p3d756e88e2)" style="fill: none; stroke: #555555; stroke-opacity: 0.9; stroke-width: 0.5; stroke-linecap: square"/>
   </g>
   <g id="line2d_7">
    <path d="M 168.968074 72.78529 
L 139.011024 151.545868 
" clip-path="url(#p3d756e88e2)" style="fill: none; stroke: #555555; stroke-opacity: 0.9; stroke-width: 0.5; stroke-linecap: square"/>
   </g>
   <g id="line2d_8">
    <path d="M 168.968074 72.78529 
L 139.011024 25.528943 
" clip-path="url(#p3d756e88e2)" style="fill: none; stroke: #555555; stroke-opacity: 0.9; stroke-width: 0.5; stroke-linecap: square"/>
   </g>
   <g id="line2d_9">
    <path d="M 175.88124 83.690601 
L 139.011024 151.545868 
" clip-path="url(#p3d756e88e2)" style="fill: none; stroke: #555555; stroke-opacity: 0.9; stroke-width: 0.5; stroke-linecap: square"/>
   </g>
   <g id="line2d_10">
    <path d="M 198.925125 120.041637 
L 175.88124 83.690601 
" clip-path="url(#p3d756e88e2)" style="fill: none; stroke: #555555; stroke-opacity: 0.9; stroke-width: 0.5; stroke-linecap: square"/>
   </g>
   <g id="line2d_11">
    <path d="M 198.925125 214.554331 
L 258.839227 214.554331 
" clip-path="url(#p3d756e88e2)" style="fill: none; stroke: #555555; stroke-opacity: 0.9; stroke-width: 0.5; stroke-linecap: square"/>
   </g>
   <g id="line2d_12">
    <path d="M 218.896492 151.545868 
L 198.925125 214.554331 
" clip-path="url(#p3d756e88e2)" style="fill: none; stroke: #555555; stroke-opacity: 0.9; stroke-width: 0.5; stroke-linecap: square"/>
   </g>
   <g id="line2d_13">
    <path d="M 139.011024 151.545868 
L 198.925125 214.554331 
" clip-path="url(#p3d756e88e2)" style="fill: none; stroke: #555555; stroke-opacity: 0.9; stroke-width: 0.5; stroke-linecap: square"/>
   </g>
   <g id="line2d_14">
    <path d="M 218.896492 151.545868 
L 258.839227 214.554331 
" clip-path="url(#p3d756e88e2)" style="fill: none; stroke: #555555; stroke-opacity: 0.9; stroke-width: 0.5; stroke-linecap: square"/>
   </g>
   <g id="line2d_15">
    <path d="M 168.968074 72.78529 
L 175.88124 83.690601 
" clip-path="url(#p3d756e88e2)" style="fill: none; stroke: #555555; stroke-opacity: 0.9; stroke-width: 0.5; stroke-linecap: square"/>
   </g>
   <g id="line2d_16">
    <path d="M 168.968074 72.78529 
L 19.18282 214.554331 
" clip-path="url(#p3d756e88e2)" style="fill: none; stroke: #555555; stroke-opacity: 0.9; stroke-width: 0.5; stroke-linecap: square"/>
   </g>
   <g id="line2d_17">
    <path d="M 175.88124 83.690601 
L 198.925125 214.554331 
" clip-path="url(#p3d756e88e2)" style="fill: none; stroke: #555555; stroke-opacity: 0.9; stroke-width: 0.5; stroke-linecap: square"/>
   </g>
   <g id="line2d_18">
    <path d="M 139.011024 151.545868 
L 99.068289 214.554331 
" clip-path="url(#p3d756e88e2)" style="fill: none; stroke: #555555; stroke-opacity: 0.9; stroke-width: 0.5; stroke-linecap: square"/>
   </g>
   <g id="PathCollection_1">
    <defs>
     <path id="mc2452fc732" d="M 0 2.738613 
C 0.726289 2.738613 1.422928 2.450055 1.936492 1.936492 
C 2.450055 1.422928 2.738613 0.726289 2.738613 0 
C 2.738613 -0.726289 2.450055 -1.422928 1.936492 -1.936492 
C 1.422928 -2.450055 0.726289 -2.738613 0 -2.738613 
C -0.726289 -2.738613 -1.422928 -2.450055 -1.936492 -1.936492 
C -2.450055 -1.422928 -2.738613 -0.726289 -2.738613 0 
C -2.738613 0.726289 -2.450055 1.422928 -1.936492 1.936492 
C -1.422928 2.450055 -0.726289 2.738613 0 2.738613 
z
" style="stroke: #008000"/>
    </defs>
    <g clip-path="url(#p3d756e88e2)">
     <use xlink:href="#mc2452fc732" x="168.968074" y="72.78529" style="fill: #008000; stroke: #008000"/>
     <use xlink:href="#mc2452fc732" x="99.068289" y="214.554331" style="fill: #008000; stroke: #008000"/>
     <use xlink:href="#mc2452fc732" x="19.18282" y="214.554331" style="fill: #008000; stroke: #008000"/>
     <use xlink:href="#mc2452fc732" x="198.925125" y="120.041637" style="fill: #008000; stroke: #008000"/>
     <use xlink:href="#mc2452fc732" x="218.896492" y="151.545868" style="fill: #008000; stroke: #008000"/>
     <use xlink:href="#mc2452fc732" x="198.925125" y="214.554331" style="fill: #008000; stroke: #008000"/>
     <use xlink:href="#mc2452fc732" x="139.011024" y="25.528943" style="fill: #008000; stroke: #008000"/>
     <use xlink:href="#mc2452fc732" x="139.011024" y="151.545868" style="fill: #008000; stroke: #008000"/>
     <use xlink:href="#mc2452fc732" x="175.88124" y="83.690601" style="fill: #008000; stroke: #008000"/>
     <use xlink:href="#mc2452fc732" x="258.839227" y="214.554331" style="fill: #008000; stroke: #008000"/>
    </g>
   </g>
   <g id="PathCollection_2">
    <defs>
     <path id="m9e0eee155c" d="M -0 2.236068 
L 1.341641 0 
L 0 -2.236068 
L -1.341641 -0 
z
" style="stroke: #d3d3d3"/>
    </defs>
    <g clip-path="url(#p3d756e88e2)">
     <use xlink:href="#m9e0eee155c" x="139.011024" y="25.528943" style="fill: #d3d3d3; stroke: #d3d3d3"/>
     <use xlink:href="#m9e0eee155c" x="139.011024" y="25.528943" style="fill: #d3d3d3; stroke: #d3d3d3"/>
     <use xlink:href="#m9e0eee155c" x="139.011024" y="25.528943" style="fill: #d3d3d3; stroke: #d3d3d3"/>
     <use xlink:href="#m9e0eee155c" x="139.011024" y="25.528943" style="fill: #d3d3d3; stroke: #d3d3d3"/>
     <use xlink:href="#m9e0eee155c" x="139.011024" y="25.528943" style="fill: #d3d3d3; stroke: #d3d3d3"/>
     <use xlink:href="#m9e0eee155c" x="139.011024" y="25.528943" style="fill: #d3d3d3; stroke: #d3d3d3"/>
     <use xlink:href="#m9e0eee155c" x="139.011024" y="25.528943" style="fill: #d3d3d3; stroke: #d3d3d3"/>
     <use xlink:href="#m9e0eee155c" x="258.839227" y="214.554331" style="fill: #d3d3d3; stroke: #d3d3d3"/>
     <use xlink:href="#m9e0eee155c" x="258.839227" y="214.554331" style="fill: #d3d3d3; stroke: #d3d3d3"/>
     <use xlink:href="#m9e0eee155c" x="258.839227" y="214.554331" style="fill: #d3d3d3; stroke: #d3d3d3"/>
     <use xlink:href="#m9e0eee155c" x="258.839227" y="214.554331" style="fill: #d3d3d3; stroke: #d3d3d3"/>
     <use xlink:href="#m9e0eee155c" x="258.839227" y="214.554331" style="fill: #d3d3d3; stroke: #d3d3d3"/>
     <use xlink:href="#m9e0eee155c" x="258.839227" y="214.554331" style="fill: #d3d3d3; stroke: #d3d3d3"/>
     <use xlink:href="#m9e0eee155c" x="258.839227" y="214.554331" style="fill: #d3d3d3; stroke: #d3d3d3"/>
     <use xlink:href="#m9e0eee155c" x="258.839227" y="214.554331" style="fill: #d3d3d3; stroke: #d3d3d3"/>
     <use xlink:href="#m9e0eee155c" x="258.839227" y="214.554331" style="fill: #d3d3d3; stroke: #d3d3d3"/>
     <use xlink:href="#m9e0eee155c" x="198.925125" y="120.041637" style="fill: #d3d3d3; stroke: #d3d3d3"/>
     <use xlink:href="#m9e0eee155c" x="168.968074" y="72.78529" style="fill: #d3d3d3; stroke: #d3d3d3"/>
     <use xlink:href="#m9e0eee155c" x="168.968074" y="72.78529" style="fill: #d3d3d3; stroke: #d3d3d3"/>
     <use xlink:href="#m9e0eee155c" x="168.968074" y="72.78529" style="fill: #d3d3d3; stroke: #d3d3d3"/>
     <use xlink:href="#m9e0eee155c" x="162.976664" y="63.334021" style="fill: #d3d3d3; stroke: #d3d3d3"/>
     <use xlink:href="#m9e0eee155c" x="218.896492" y="151.545868" style="fill: #d3d3d3; stroke: #d3d3d3"/>
     <use xlink:href="#m9e0eee155c" x="218.896492" y="151.545868" style="fill: #d3d3d3; stroke: #d3d3d3"/>
     <use xlink:href="#m9e0eee155c" x="228.882176" y="167.297984" style="fill: #d3d3d3; stroke: #d3d3d3"/>
     <use xlink:href="#m9e0eee155c" x="228.882176" y="167.297984" style="fill: #d3d3d3; stroke: #d3d3d3"/>
     <use xlink:href="#m9e0eee155c" x="210.907946" y="138.944176" style="fill: #d3d3d3; stroke: #d3d3d3"/>
     <use xlink:href="#m9e0eee155c" x="164.238014" y="65.323762" style="fill: #d3d3d3; stroke: #d3d3d3"/>
     <use xlink:href="#m9e0eee155c" x="19.18282" y="214.554331" style="fill: #d3d3d3; stroke: #d3d3d3"/>
     <use xlink:href="#m9e0eee155c" x="19.18282" y="214.554331" style="fill: #d3d3d3; stroke: #d3d3d3"/>
     <use xlink:href="#m9e0eee155c" x="19.18282" y="214.554331" style="fill: #d3d3d3; stroke: #d3d3d3"/>
     <use xlink:href="#m9e0eee155c" x="19.18282" y="214.554331" style="fill: #d3d3d3; stroke: #d3d3d3"/>
     <use xlink:href="#m9e0eee155c" x="19.18282" y="214.554331" style="fill: #d3d3d3; stroke: #d3d3d3"/>
     <use xlink:href="#m9e0eee155c" x="19.18282" y="214.554331" style="fill: #d3d3d3; stroke: #d3d3d3"/>
     <use xlink:href="#m9e0eee155c" x="19.18282" y="214.554331" style="fill: #d3d3d3; stroke: #d3d3d3"/>
     <use xlink:href="#m9e0eee155c" x="19.18282" y="214.554331" style="fill: #d3d3d3; stroke: #d3d3d3"/>
     <use xlink:href="#m9e0eee155c" x="19.18282" y="214.554331" style="fill: #d3d3d3; stroke: #d3d3d3"/>
     <use xlink:href="#m9e0eee155c" x="139.011024" y="151.545868" style="fill: #d3d3d3; stroke: #d3d3d3"/>
     <use xlink:href="#m9e0eee155c" x="203.533902" y="156.392673" style="fill: #d3d3d3; stroke: #d3d3d3"/>
     <use xlink:href="#m9e0eee155c" x="99.068289" y="214.554331" style="fill: #d3d3d3; stroke: #d3d3d3"/>
     <use xlink:href="#m9e0eee155c" x="49.139871" y="167.297984" style="fill: #d3d3d3; stroke: #d3d3d3"/>
     <use xlink:href="#m9e0eee155c" x="109.053973" y="214.554331" style="fill: #d3d3d3; stroke: #d3d3d3"/>
     <use xlink:href="#m9e0eee155c" x="83.091195" y="214.554331" style="fill: #d3d3d3; stroke: #d3d3d3"/>
     <use xlink:href="#m9e0eee155c" x="172.296636" y="214.554331" style="fill: #d3d3d3; stroke: #d3d3d3"/>
     <use xlink:href="#m9e0eee155c" x="118.350989" y="214.554331" style="fill: #d3d3d3; stroke: #d3d3d3"/>
     <use xlink:href="#m9e0eee155c" x="125.077512" y="214.554331" style="fill: #d3d3d3; stroke: #d3d3d3"/>
    </g>
   </g>
   <g id="PathCollection_3">
    <defs>
     <path id="m4b9fad1d36" d="M 0 -5 
L -1.12257 -1.545085 
L -4.755283 -1.545085 
L -1.816356 0.59017 
L -2.938926 4.045085 
L -0 1.90983 
L 2.938926 4.045085 
L 1.816356 0.59017 
L 4.755283 -1.545085 
L 1.12257 -1.545085 
z
" style="stroke: #0000ff"/>
    </defs>
    <g clip-path="url(#p3d756e88e2)">
     <use xlink:href="#m4b9fad1d36" x="203.533902" y="156.392673" style="fill: #0000ff; stroke: #0000ff"/>
    </g>
   </g>
   <g id="text_1">
    <!-- $\mathrm{AlCu_{3}}$ -->
    <g transform="translate(161.613529 68.638869) scale(0.1 -0.1)">
     <defs>
      <path id="DejaVuSans-41" d="M 2188 4044 
L 1331 1722 
L 3047 1722 
L 2188 4044 
z
M 1831 4666 
L 2547 4666 
L 4325 0 
L 3669 0 
L 3244 1197 
L 1141 1197 
L 716 0 
L 50 0 
L 1831 4666 
z
" transform="scale(0.015625)"/>
      <path id="DejaVuSans-6c" d="M 603 4863 
L 1178 4863 
L 1178 0 
L 603 0 
L 603 4863 
z
" transform="scale(0.015625)"/>
      <path id="DejaVuSans-43" d="M 4122 4306 
L 4122 3641 
Q 3803 3938 3442 4084 
Q 3081 4231 2675 4231 
Q 1875 4231 1450 3742 
Q 1025 3253 1025 2328 
Q 1025 1406 1450 917 
Q 1875 428 2675 428 
Q 3081 428 3442 575 
Q 3803 722 4122 1019 
L 4122 359 
Q 3791 134 3420 21 
Q 3050 -91 2638 -91 
Q 1578 -91 968 557 
Q 359 1206 359 2328 
Q 359 3453 968 4101 
Q 1578 4750 2638 4750 
Q 3056 4750 3426 4639 
Q 3797 4528 4122 4306 
z
" transform="scale(0.015625)"/>
      <path id="DejaVuSans-75" d="M 544 1381 
L 544 3500 
L 1119 3500 
L 1119 1403 
Q 1119 906 1312 657 
Q 1506 409 1894 409 
Q 2359 409 2629 706 
Q 2900 1003 2900 1516 
L 2900 3500 
L 3475 3500 
L 3475 0 
L 2900 0 
L 2900 538 
Q 2691 219 2414 64 
Q 2138 -91 1772 -91 
Q 1169 -91 856 284 
Q 544 659 544 1381 
z
M 1991 3584 
L 1991 3584 
z
" transform="scale(0.015625)"/>
      <path id="DejaVuSans-33" d="M 2597 2516 
Q 3050 2419 3304 2112 
Q 3559 1806 3559 1356 
Q 3559 666 3084 287 
Q 2609 -91 1734 -91 
Q 1441 -91 1130 -33 
Q 819 25 488 141 
L 488 750 
Q 750 597 1062 519 
Q 1375 441 1716 441 
Q 2309 441 2620 675 
Q 2931 909 2931 1356 
Q 2931 1769 2642 2001 
Q 2353 2234 1838 2234 
L 1294 2234 
L 1294 2753 
L 1863 2753 
Q 2328 2753 2575 2939 
Q 2822 3125 2822 3475 
Q 2822 3834 2567 4026 
Q 2313 4219 1838 4219 
Q 1578 4219 1281 4162 
Q 984 4106 628 3988 
L 628 4550 
Q 988 4650 1302 4700 
Q 1616 4750 1894 4750 
Q 2613 4750 3031 4423 
Q 3450 4097 3450 3541 
Q 3450 3153 3228 2886 
Q 3006 2619 2597 2516 
z
" transform="scale(0.015625)"/>
     </defs>
     <use xlink:href="#DejaVuSans-41" transform="translate(0 0.015625)"/>
     <use xlink:href="#DejaVuSans-6c" transform="translate(68.408203 0.015625)"/>
     <use xlink:href="#DejaVuSans-43" transform="translate(96.191406 0.015625)"/>
     <use xlink:href="#DejaVuSans-75" transform="translate(166.015625 0.015625)"/>
     <use xlink:href="#DejaVuSans-33" transform="translate(230.351562 -16.390625) scale(0.7)"/>
    </g>
   </g>
   <g id="text_2">
    <!-- $\mathrm{Ta_{2}Al}$ -->
    <g transform="translate(91.609198 210.544971) scale(0.1 -0.1)">
     <defs>
      <path id="DejaVuSans-54" d="M -19 4666 
L 3928 4666 
L 3928 4134 
L 2272 4134 
L 2272 0 
L 1638 0 
L 1638 4134 
L -19 4134 
L -19 4666 
z
" transform="scale(0.015625)"/>
      <path id="DejaVuSans-61" d="M 2194 1759 
Q 1497 1759 1228 1600 
Q 959 1441 959 1056 
Q 959 750 1161 570 
Q 1363 391 1709 391 
Q 2188 391 2477 730 
Q 2766 1069 2766 1631 
L 2766 1759 
L 2194 1759 
z
M 3341 1997 
L 3341 0 
L 2766 0 
L 2766 531 
Q 2569 213 2275 61 
Q 1981 -91 1556 -91 
Q 1019 -91 701 211 
Q 384 513 384 1019 
Q 384 1609 779 1909 
Q 1175 2209 1959 2209 
L 2766 2209 
L 2766 2266 
Q 2766 2663 2505 2880 
Q 2244 3097 1772 3097 
Q 1472 3097 1187 3025 
Q 903 2953 641 2809 
L 641 3341 
Q 956 3463 1253 3523 
Q 1550 3584 1831 3584 
Q 2591 3584 2966 3190 
Q 3341 2797 3341 1997 
z
" transform="scale(0.015625)"/>
      <path id="DejaVuSans-32" d="M 1228 531 
L 3431 531 
L 3431 0 
L 469 0 
L 469 531 
Q 828 903 1448 1529 
Q 2069 2156 2228 2338 
Q 2531 2678 2651 2914 
Q 2772 3150 2772 3378 
Q 2772 3750 2511 3984 
Q 2250 4219 1831 4219 
Q 1534 4219 1204 4116 
Q 875 4013 500 3803 
L 500 4441 
Q 881 4594 1212 4672 
Q 1544 4750 1819 4750 
Q 2544 4750 2975 4387 
Q 3406 4025 3406 3419 
Q 3406 3131 3298 2873 
Q 3191 2616 2906 2266 
Q 2828 2175 2409 1742 
Q 1991 1309 1228 531 
z
" transform="scale(0.015625)"/>
     </defs>
     <use xlink:href="#DejaVuSans-54" transform="translate(0 0.015625)"/>
     <use xlink:href="#DejaVuSans-61" transform="translate(61.083984 0.015625)"/>
     <use xlink:href="#DejaVuSans-32" transform="translate(123.320312 -16.390625) scale(0.7)"/>
     <use xlink:href="#DejaVuSans-41" transform="translate(170.59082 0.015625)"/>
     <use xlink:href="#DejaVuSans-6c" transform="translate(238.999023 0.015625)"/>
    </g>
   </g>
   <g id="text_3">
    <!-- $\mathrm{Ta}$ -->
    <g transform="translate(19.508861 212.151181) scale(0.1 -0.1)">
     <use xlink:href="#DejaVuSans-54" transform="translate(0 0.09375)"/>
     <use xlink:href="#DejaVuSans-61" transform="translate(61.083984 0.09375)"/>
    </g>
   </g>
   <g id="text_4">
    <!-- $\mathrm{AlCu}$ -->
    <g transform="translate(180.879671 127.6151) scale(0.1 -0.1)">
     <use xlink:href="#DejaVuSans-41" transform="translate(0 0.015625)"/>
     <use xlink:href="#DejaVuSans-6c" transform="translate(68.408203 0.015625)"/>
     <use xlink:href="#DejaVuSans-43" transform="translate(96.191406 0.015625)"/>
     <use xlink:href="#DejaVuSans-75" transform="translate(166.015625 0.015625)"/>
    </g>
   </g>
   <g id="text_5">
    <!-- $\mathrm{Al_{2}Cu}$ -->
    <g transform="translate(211.541947 147.420198) scale(0.1 -0.1)">
     <use xlink:href="#DejaVuSans-41" transform="translate(0 0.015625)"/>
     <use xlink:href="#DejaVuSans-6c" transform="translate(68.408203 0.015625)"/>
     <use xlink:href="#DejaVuSans-32" transform="translate(97.148438 -16.390625) scale(0.7)"/>
     <use xlink:href="#DejaVuSans-43" transform="translate(144.418945 0.015625)"/>
     <use xlink:href="#DejaVuSans-75" transform="translate(214.243164 0.015625)"/>
    </g>
   </g>
   <g id="text_6">
    <!-- $\mathrm{TaAl_{3}}$ -->
    <g transform="translate(191.466034 210.594971) scale(0.1 -0.1)">
     <use xlink:href="#DejaVuSans-54" transform="translate(0 0.015625)"/>
     <use xlink:href="#DejaVuSans-61" transform="translate(61.083984 0.015625)"/>
     <use xlink:href="#DejaVuSans-41" transform="translate(122.363281 0.015625)"/>
     <use xlink:href="#DejaVuSans-6c" transform="translate(190.771484 0.015625)"/>
     <use xlink:href="#DejaVuSans-33" transform="translate(219.511719 -16.390625) scale(0.7)"/>
    </g>
   </g>
   <g id="text_7">
    <!-- $\mathrm{Cu}$ -->
    <g transform="translate(130.347387 33.102406) scale(0.1 -0.1)">
     <use xlink:href="#DejaVuSans-43" transform="translate(0 0.78125)"/>
     <use xlink:href="#DejaVuSans-75" transform="translate(69.824219 0.78125)"/>
    </g>
   </g>
   <g id="text_8">
    <!-- $\mathrm{TaAlCu}$ -->
    <g transform="translate(110.938296 159.119331) scale(0.1 -0.1)">
     <use xlink:href="#DejaVuSans-54" transform="translate(0 0.015625)"/>
     <use xlink:href="#DejaVuSans-61" transform="translate(61.083984 0.015625)"/>
     <use xlink:href="#DejaVuSans-41" transform="translate(122.363281 0.015625)"/>
     <use xlink:href="#DejaVuSans-6c" transform="translate(190.771484 0.015625)"/>
     <use xlink:href="#DejaVuSans-43" transform="translate(218.554688 0.015625)"/>
     <use xlink:href="#DejaVuSans-75" transform="translate(288.378906 0.015625)"/>
    </g>
   </g>
   <g id="text_9">
    <!-- $\mathrm{Al_{4}Cu_{9}}$ -->
    <g transform="translate(175.944876 87.026639) scale(0.1 -0.1)">
     <defs>
      <path id="DejaVuSans-34" d="M 2419 4116 
L 825 1625 
L 2419 1625 
L 2419 4116 
z
M 2253 4666 
L 3047 4666 
L 3047 1625 
L 3713 1625 
L 3713 1100 
L 3047 1100 
L 3047 0 
L 2419 0 
L 2419 1100 
L 313 1100 
L 313 1709 
L 2253 4666 
z
" transform="scale(0.015625)"/>
      <path id="DejaVuSans-39" d="M 703 97 
L 703 672 
Q 941 559 1184 500 
Q 1428 441 1663 441 
Q 2288 441 2617 861 
Q 2947 1281 2994 2138 
Q 2813 1869 2534 1725 
Q 2256 1581 1919 1581 
Q 1219 1581 811 2004 
Q 403 2428 403 3163 
Q 403 3881 828 4315 
Q 1253 4750 1959 4750 
Q 2769 4750 3195 4129 
Q 3622 3509 3622 2328 
Q 3622 1225 3098 567 
Q 2575 -91 1691 -91 
Q 1453 -91 1209 -44 
Q 966 3 703 97 
z
M 1959 2075 
Q 2384 2075 2632 2365 
Q 2881 2656 2881 3163 
Q 2881 3666 2632 3958 
Q 2384 4250 1959 4250 
Q 1534 4250 1286 3958 
Q 1038 3666 1038 3163 
Q 1038 2656 1286 2365 
Q 1534 2075 1959 2075 
z
" transform="scale(0.015625)"/>
     </defs>
     <use xlink:href="#DejaVuSans-41" transform="translate(0 0.015625)"/>
     <use xlink:href="#DejaVuSans-6c" transform="translate(68.408203 0.015625)"/>
     <use xlink:href="#DejaVuSans-34" transform="translate(97.148438 -16.390625) scale(0.7)"/>
     <use xlink:href="#DejaVuSans-43" transform="translate(144.418945 0.015625)"/>
     <use xlink:href="#DejaVuSans-75" transform="translate(214.243164 0.015625)"/>
     <use xlink:href="#DejaVuSans-39" transform="translate(278.579102 -16.390625) scale(0.7)"/>
    </g>
   </g>
   <g id="text_10">
    <!-- $\mathrm{Al}$ -->
    <g transform="translate(249.389691 211.215873) scale(0.1 -0.1)">
     <use xlink:href="#DejaVuSans-41" transform="translate(0 0.015625)"/>
     <use xlink:href="#DejaVuSans-6c" transform="translate(68.408203 0.015625)"/>
    </g>
   </g>
   <g id="text_11">
    <!-- $\mathrm{Ta(Al_{2}Cu)_{4}}$ -->
    <g style="fill: #0000ff" transform="translate(157.547539 165.914094) scale(0.1 -0.1)">
     <defs>
      <path id="DejaVuSans-28" d="M 1984 4856 
Q 1566 4138 1362 3434 
Q 1159 2731 1159 2009 
Q 1159 1288 1364 580 
Q 1569 -128 1984 -844 
L 1484 -844 
Q 1016 -109 783 600 
Q 550 1309 550 2009 
Q 550 2706 781 3412 
Q 1013 4119 1484 4856 
L 1984 4856 
z
" transform="scale(0.015625)"/>
      <path id="DejaVuSans-29" d="M 513 4856 
L 1013 4856 
Q 1481 4119 1714 3412 
Q 1947 2706 1947 2009 
Q 1947 1309 1714 600 
Q 1481 -109 1013 -844 
L 513 -844 
Q 928 -128 1133 580 
Q 1338 1288 1338 2009 
Q 1338 2731 1133 3434 
Q 928 4138 513 4856 
z
" transform="scale(0.015625)"/>
     </defs>
     <use xlink:href="#DejaVuSans-54" transform="translate(0 0.015625)"/>
     <use xlink:href="#DejaVuSans-61" transform="translate(61.083984 0.015625)"/>
     <use xlink:href="#DejaVuSans-28" transform="translate(122.363281 0.015625)"/>
     <use xlink:href="#DejaVuSans-41" transform="translate(161.376953 0.015625)"/>
     <use xlink:href="#DejaVuSans-6c" transform="translate(229.785156 0.015625)"/>
     <use xlink:href="#DejaVuSans-32" transform="translate(258.525391 -16.390625) scale(0.7)"/>
     <use xlink:href="#DejaVuSans-43" transform="translate(305.795898 0.015625)"/>
     <use xlink:href="#DejaVuSans-75" transform="translate(375.620117 0.015625)"/>
     <use xlink:href="#DejaVuSans-29" transform="translate(438.999023 0.015625)"/>
     <use xlink:href="#DejaVuSans-34" transform="translate(478.969727 -16.390625) scale(0.7)"/>
    </g>
   </g>
  </g>
  <g id="axes_2">
   <g id="patch_3">
    <path d="M 287.298425 195.703937 
L 296.029134 195.703937 
L 296.029134 36.96378 
L 287.298425 36.96378 
L 287.298425 195.703937 
z
" style="fill: none"/>
   </g>
   <g id="patch_4">
    <path d="M 287.298425 195.703937 
L 291.66378 203.640945 
L 296.029134 195.703937 
" style="fill: #440154; opacity: 0.7"/>
   </g>
   <g id="patch_5">
    <path d="M 287.298425 36.96378 
L 291.66378 29.026772 
L 296.029134 36.96378 
" style="fill: #fde725; opacity: 0.7"/>
   </g>
   <g id="QuadMesh_1">
    <path d="M 287.298425 195.703937 
L 296.029134 195.703937 
L 296.029134 191.526564 
L 287.298425 191.526564 
L 287.298425 195.703937 
" clip-path="url(#pa1299e9241)" style="fill: #450559; fill-opacity: 0.7"/>
    <path d="M 287.298425 191.526564 
L 296.029134 191.526564 
L 296.029134 187.349192 
L 287.298425 187.349192 
L 287.298425 191.526564 
" clip-path="url(#pa1299e9241)" style="fill: #471063; fill-opacity: 0.7"/>
    <path d="M 287.298425 187.349192 
L 296.029134 187.349192 
L 296.029134 183.171819 
L 287.298425 183.171819 
L 287.298425 187.349192 
" clip-path="url(#pa1299e9241)" style="fill: #48186a; fill-opacity: 0.7"/>
    <path d="M 287.298425 183.171819 
L 296.029134 183.171819 
L 296.029134 178.994447 
L 287.298425 178.994447 
L 287.298425 183.171819 
" clip-path="url(#pa1299e9241)" style="fill: #482173; fill-opacity: 0.7"/>
    <path d="M 287.298425 178.994447 
L 296.029134 178.994447 
L 296.029134 174.817074 
L 287.298425 174.817074 
L 287.298425 178.994447 
" clip-path="url(#pa1299e9241)" style="fill: #472a7a; fill-opacity: 0.7"/>
    <path d="M 287.298425 174.817074 
L 296.029134 174.817074 
L 296.029134 170.639702 
L 287.298425 170.639702 
L 287.298425 174.817074 
" clip-path="url(#pa1299e9241)" style="fill: #46337f; fill-opacity: 0.7"/>
    <path d="M 287.298425 170.639702 
L 296.029134 170.639702 
L 296.029134 166.462329 
L 287.298425 166.462329 
L 287.298425 170.639702 
" clip-path="url(#pa1299e9241)" style="fill: #443a83; fill-opacity: 0.7"/>
    <path d="M 287.298425 166.462329 
L 296.029134 166.462329 
L 296.029134 162.284956 
L 287.298425 162.284956 
L 287.298425 166.462329 
" clip-path="url(#pa1299e9241)" style="fill: #414287; fill-opacity: 0.7"/>
    <path d="M 287.298425 162.284956 
L 296.029134 162.284956 
L 296.029134 158.107584 
L 287.298425 158.107584 
L 287.298425 162.284956 
" clip-path="url(#pa1299e9241)" style="fill: #3e4a89; fill-opacity: 0.7"/>
    <path d="M 287.298425 158.107584 
L 296.029134 158.107584 
L 296.029134 153.930211 
L 287.298425 153.930211 
L 287.298425 158.107584 
" clip-path="url(#pa1299e9241)" style="fill: #3b528b; fill-opacity: 0.7"/>
    <path d="M 287.298425 153.930211 
L 296.029134 153.930211 
L 296.029134 149.752839 
L 287.298425 149.752839 
L 287.298425 153.930211 
" clip-path="url(#pa1299e9241)" style="fill: #38598c; fill-opacity: 0.7"/>
    <path d="M 287.298425 149.752839 
L 296.029134 149.752839 
L 296.029134 145.575466 
L 287.298425 145.575466 
L 287.298425 149.752839 
" clip-path="url(#pa1299e9241)" style="fill: #34608d; fill-opacity: 0.7"/>
    <path d="M 287.298425 145.575466 
L 296.029134 145.575466 
L 296.029134 141.398094 
L 287.298425 141.398094 
L 287.298425 145.575466 
" clip-path="url(#pa1299e9241)" style="fill: #31678e; fill-opacity: 0.7"/>
    <path d="M 287.298425 141.398094 
L 296.029134 141.398094 
L 296.029134 137.220721 
L 287.298425 137.220721 
L 287.298425 141.398094 
" clip-path="url(#pa1299e9241)" style="fill: #2e6d8e; fill-opacity: 0.7"/>
    <path d="M 287.298425 137.220721 
L 296.029134 137.220721 
L 296.029134 133.043349 
L 287.298425 133.043349 
L 287.298425 137.220721 
" clip-path="url(#pa1299e9241)" style="fill: #2c738e; fill-opacity: 0.7"/>
    <path d="M 287.298425 133.043349 
L 296.029134 133.043349 
L 296.029134 128.865976 
L 287.298425 128.865976 
L 287.298425 133.043349 
" clip-path="url(#pa1299e9241)" style="fill: #297a8e; fill-opacity: 0.7"/>
    <path d="M 287.298425 128.865976 
L 296.029134 128.865976 
L 296.029134 124.688603 
L 287.298425 124.688603 
L 287.298425 128.865976 
" clip-path="url(#pa1299e9241)" style="fill: #26818e; fill-opacity: 0.7"/>
    <path d="M 287.298425 124.688603 
L 296.029134 124.688603 
L 296.029134 120.511231 
L 287.298425 120.511231 
L 287.298425 124.688603 
" clip-path="url(#pa1299e9241)" style="fill: #24868e; fill-opacity: 0.7"/>
    <path d="M 287.298425 120.511231 
L 296.029134 120.511231 
L 296.029134 116.333858 
L 287.298425 116.333858 
L 287.298425 120.511231 
" clip-path="url(#pa1299e9241)" style="fill: #228d8d; fill-opacity: 0.7"/>
    <path d="M 287.298425 116.333858 
L 296.029134 116.333858 
L 296.029134 112.156486 
L 287.298425 112.156486 
L 287.298425 116.333858 
" clip-path="url(#pa1299e9241)" style="fill: #20938c; fill-opacity: 0.7"/>
    <path d="M 287.298425 112.156486 
L 296.029134 112.156486 
L 296.029134 107.979113 
L 287.298425 107.979113 
L 287.298425 112.156486 
" clip-path="url(#pa1299e9241)" style="fill: #1f9a8a; fill-opacity: 0.7"/>
    <path d="M 287.298425 107.979113 
L 296.029134 107.979113 
L 296.029134 103.801741 
L 287.298425 103.801741 
L 287.298425 107.979113 
" clip-path="url(#pa1299e9241)" style="fill: #1fa088; fill-opacity: 0.7"/>
    <path d="M 287.298425 103.801741 
L 296.029134 103.801741 
L 296.029134 99.624368 
L 287.298425 99.624368 
L 287.298425 103.801741 
" clip-path="url(#pa1299e9241)" style="fill: #21a685; fill-opacity: 0.7"/>
    <path d="M 287.298425 99.624368 
L 296.029134 99.624368 
L 296.029134 95.446995 
L 287.298425 95.446995 
L 287.298425 99.624368 
" clip-path="url(#pa1299e9241)" style="fill: #26ad81; fill-opacity: 0.7"/>
    <path d="M 287.298425 95.446995 
L 296.029134 95.446995 
L 296.029134 91.269623 
L 287.298425 91.269623 
L 287.298425 95.446995 
" clip-path="url(#pa1299e9241)" style="fill: #2eb37c; fill-opacity: 0.7"/>
    <path d="M 287.298425 91.269623 
L 296.029134 91.269623 
L 296.029134 87.09225 
L 287.298425 87.09225 
L 287.298425 91.269623 
" clip-path="url(#pa1299e9241)" style="fill: #37b878; fill-opacity: 0.7"/>
    <path d="M 287.298425 87.09225 
L 296.029134 87.09225 
L 296.029134 82.914878 
L 287.298425 82.914878 
L 287.298425 87.09225 
" clip-path="url(#pa1299e9241)" style="fill: #42be71; fill-opacity: 0.7"/>
    <path d="M 287.298425 82.914878 
L 296.029134 82.914878 
L 296.029134 78.737505 
L 287.298425 78.737505 
L 287.298425 82.914878 
" clip-path="url(#pa1299e9241)" style="fill: #50c46a; fill-opacity: 0.7"/>
    <path d="M 287.298425 78.737505 
L 296.029134 78.737505 
L 296.029134 74.560133 
L 287.298425 74.560133 
L 287.298425 78.737505 
" clip-path="url(#pa1299e9241)" style="fill: #5ec962; fill-opacity: 0.7"/>
    <path d="M 287.298425 74.560133 
L 296.029134 74.560133 
L 296.029134 70.38276 
L 287.298425 70.38276 
L 287.298425 74.560133 
" clip-path="url(#pa1299e9241)" style="fill: #6ccd5a; fill-opacity: 0.7"/>
    <path d="M 287.298425 70.38276 
L 296.029134 70.38276 
L 296.029134 66.205387 
L 287.298425 66.205387 
L 287.298425 70.38276 
" clip-path="url(#pa1299e9241)" style="fill: #7cd250; fill-opacity: 0.7"/>
    <path d="M 287.298425 66.205387 
L 296.029134 66.205387 
L 296.029134 62.028015 
L 287.298425 62.028015 
L 287.298425 66.205387 
" clip-path="url(#pa1299e9241)" style="fill: #8ed645; fill-opacity: 0.7"/>
    <path d="M 287.298425 62.028015 
L 296.029134 62.028015 
L 296.029134 57.850642 
L 287.298425 57.850642 
L 287.298425 62.028015 
" clip-path="url(#pa1299e9241)" style="fill: #9dd93b; fill-opacity: 0.7"/>
    <path d="M 287.298425 57.850642 
L 296.029134 57.850642 
L 296.029134 53.67327 
L 287.298425 53.67327 
L 287.298425 57.850642 
" clip-path="url(#pa1299e9241)" style="fill: #b0dd2f; fill-opacity: 0.7"/>
    <path d="M 287.298425 53.67327 
L 296.029134 53.67327 
L 296.029134 49.495897 
L 287.298425 49.495897 
L 287.298425 53.67327 
" clip-path="url(#pa1299e9241)" style="fill: #c2df23; fill-opacity: 0.7"/>
    <path d="M 287.298425 49.495897 
L 296.029134 49.495897 
L 296.029134 45.318525 
L 287.298425 45.318525 
L 287.298425 49.495897 
" clip-path="url(#pa1299e9241)" style="fill: #d5e21a; fill-opacity: 0.7"/>
    <path d="M 287.298425 45.318525 
L 296.029134 45.318525 
L 296.029134 41.141152 
L 287.298425 41.141152 
L 287.298425 45.318525 
" clip-path="url(#pa1299e9241)" style="fill: #e5e419; fill-opacity: 0.7"/>
    <path d="M 287.298425 41.141152 
L 296.029134 41.141152 
L 296.029134 36.96378 
L 287.298425 36.96378 
L 287.298425 41.141152 
" clip-path="url(#pa1299e9241)" style="fill: #f6e620; fill-opacity: 0.7"/>
   </g>
   <g id="matplotlib.axis_3"/>
   <g id="matplotlib.axis_4">
    <g id="ytick_1">
     <g id="line2d_19">
      <defs>
       <path id="m05978f8e75" d="M 0 0 
L -2 0 
" style="stroke: #000000; stroke-width: 0.3"/>
      </defs>
      <g>
       <use xlink:href="#m05978f8e75" x="296.029134" y="187.349192" style="stroke: #000000; stroke-width: 0.3"/>
      </g>
     </g>
     <g id="text_12">
      <!-- −0.296 -->
      <g transform="translate(299.529134 190.212317) scale(0.08 -0.08)">
       <defs>
        <path id="ArialMT-2212" d="M 3381 1997 
L 356 1997 
L 356 2522 
L 3381 2522 
L 3381 1997 
z
" transform="scale(0.015625)"/>
        <path id="ArialMT-30" d="M 266 2259 
Q 266 3072 433 3567 
Q 600 4063 929 4331 
Q 1259 4600 1759 4600 
Q 2128 4600 2406 4451 
Q 2684 4303 2865 4023 
Q 3047 3744 3150 3342 
Q 3253 2941 3253 2259 
Q 3253 1453 3087 958 
Q 2922 463 2592 192 
Q 2263 -78 1759 -78 
Q 1097 -78 719 397 
Q 266 969 266 2259 
z
M 844 2259 
Q 844 1131 1108 757 
Q 1372 384 1759 384 
Q 2147 384 2411 759 
Q 2675 1134 2675 2259 
Q 2675 3391 2411 3762 
Q 2147 4134 1753 4134 
Q 1366 4134 1134 3806 
Q 844 3388 844 2259 
z
" transform="scale(0.015625)"/>
        <path id="ArialMT-2e" d="M 581 0 
L 581 641 
L 1222 641 
L 1222 0 
L 581 0 
z
" transform="scale(0.015625)"/>
        <path id="ArialMT-32" d="M 3222 541 
L 3222 0 
L 194 0 
Q 188 203 259 391 
Q 375 700 629 1000 
Q 884 1300 1366 1694 
Q 2113 2306 2375 2664 
Q 2638 3022 2638 3341 
Q 2638 3675 2398 3904 
Q 2159 4134 1775 4134 
Q 1369 4134 1125 3890 
Q 881 3647 878 3216 
L 300 3275 
Q 359 3922 746 4261 
Q 1134 4600 1788 4600 
Q 2447 4600 2831 4234 
Q 3216 3869 3216 3328 
Q 3216 3053 3103 2787 
Q 2991 2522 2730 2228 
Q 2469 1934 1863 1422 
Q 1356 997 1212 845 
Q 1069 694 975 541 
L 3222 541 
z
" transform="scale(0.015625)"/>
        <path id="ArialMT-39" d="M 350 1059 
L 891 1109 
Q 959 728 1153 556 
Q 1347 384 1650 384 
Q 1909 384 2104 503 
Q 2300 622 2425 820 
Q 2550 1019 2634 1356 
Q 2719 1694 2719 2044 
Q 2719 2081 2716 2156 
Q 2547 1888 2255 1720 
Q 1963 1553 1622 1553 
Q 1053 1553 659 1965 
Q 266 2378 266 3053 
Q 266 3750 677 4175 
Q 1088 4600 1706 4600 
Q 2153 4600 2523 4359 
Q 2894 4119 3086 3673 
Q 3278 3228 3278 2384 
Q 3278 1506 3087 986 
Q 2897 466 2520 194 
Q 2144 -78 1638 -78 
Q 1100 -78 759 220 
Q 419 519 350 1059 
z
M 2653 3081 
Q 2653 3566 2395 3850 
Q 2138 4134 1775 4134 
Q 1400 4134 1122 3828 
Q 844 3522 844 3034 
Q 844 2597 1108 2323 
Q 1372 2050 1759 2050 
Q 2150 2050 2401 2323 
Q 2653 2597 2653 3081 
z
" transform="scale(0.015625)"/>
        <path id="ArialMT-36" d="M 3184 3459 
L 2625 3416 
Q 2550 3747 2413 3897 
Q 2184 4138 1850 4138 
Q 1581 4138 1378 3988 
Q 1113 3794 959 3422 
Q 806 3050 800 2363 
Q 1003 2672 1297 2822 
Q 1591 2972 1913 2972 
Q 2475 2972 2870 2558 
Q 3266 2144 3266 1488 
Q 3266 1056 3080 686 
Q 2894 316 2569 119 
Q 2244 -78 1831 -78 
Q 1128 -78 684 439 
Q 241 956 241 2144 
Q 241 3472 731 4075 
Q 1159 4600 1884 4600 
Q 2425 4600 2770 4297 
Q 3116 3994 3184 3459 
z
M 888 1484 
Q 888 1194 1011 928 
Q 1134 663 1356 523 
Q 1578 384 1822 384 
Q 2178 384 2434 671 
Q 2691 959 2691 1453 
Q 2691 1928 2437 2201 
Q 2184 2475 1800 2475 
Q 1419 2475 1153 2201 
Q 888 1928 888 1484 
z
" transform="scale(0.015625)"/>
       </defs>
       <use xlink:href="#ArialMT-2212"/>
       <use xlink:href="#ArialMT-30" transform="translate(58.398438 0)"/>
       <use xlink:href="#ArialMT-2e" transform="translate(114.013672 0)"/>
       <use xlink:href="#ArialMT-32" transform="translate(141.796875 0)"/>
       <use xlink:href="#ArialMT-39" transform="translate(197.412109 0)"/>
       <use xlink:href="#ArialMT-36" transform="translate(253.027344 0)"/>
      </g>
     </g>
    </g>
    <g id="ytick_2">
     <g id="line2d_20">
      <g>
       <use xlink:href="#m05978f8e75" x="296.029134" y="170.639702" style="stroke: #000000; stroke-width: 0.3"/>
      </g>
     </g>
     <g id="text_13">
      <!-- −0.264 -->
      <g transform="translate(299.529134 173.502827) scale(0.08 -0.08)">
       <defs>
        <path id="ArialMT-34" d="M 2069 0 
L 2069 1097 
L 81 1097 
L 81 1613 
L 2172 4581 
L 2631 4581 
L 2631 1613 
L 3250 1613 
L 3250 1097 
L 2631 1097 
L 2631 0 
L 2069 0 
z
M 2069 1613 
L 2069 3678 
L 634 1613 
L 2069 1613 
z
" transform="scale(0.015625)"/>
       </defs>
       <use xlink:href="#ArialMT-2212"/>
       <use xlink:href="#ArialMT-30" transform="translate(58.398438 0)"/>
       <use xlink:href="#ArialMT-2e" transform="translate(114.013672 0)"/>
       <use xlink:href="#ArialMT-32" transform="translate(141.796875 0)"/>
       <use xlink:href="#ArialMT-36" transform="translate(197.412109 0)"/>
       <use xlink:href="#ArialMT-34" transform="translate(253.027344 0)"/>
      </g>
     </g>
    </g>
    <g id="ytick_3">
     <g id="line2d_21">
      <g>
       <use xlink:href="#m05978f8e75" x="296.029134" y="153.930211" style="stroke: #000000; stroke-width: 0.3"/>
      </g>
     </g>
     <g id="text_14">
      <!-- −0.232 -->
      <g transform="translate(299.529134 156.793336) scale(0.08 -0.08)">
       <defs>
        <path id="ArialMT-33" d="M 269 1209 
L 831 1284 
Q 928 806 1161 595 
Q 1394 384 1728 384 
Q 2125 384 2398 659 
Q 2672 934 2672 1341 
Q 2672 1728 2419 1979 
Q 2166 2231 1775 2231 
Q 1616 2231 1378 2169 
L 1441 2663 
Q 1497 2656 1531 2656 
Q 1891 2656 2178 2843 
Q 2466 3031 2466 3422 
Q 2466 3731 2256 3934 
Q 2047 4138 1716 4138 
Q 1388 4138 1169 3931 
Q 950 3725 888 3313 
L 325 3413 
Q 428 3978 793 4289 
Q 1159 4600 1703 4600 
Q 2078 4600 2393 4439 
Q 2709 4278 2876 4000 
Q 3044 3722 3044 3409 
Q 3044 3113 2884 2869 
Q 2725 2625 2413 2481 
Q 2819 2388 3044 2092 
Q 3269 1797 3269 1353 
Q 3269 753 2831 336 
Q 2394 -81 1725 -81 
Q 1122 -81 723 278 
Q 325 638 269 1209 
z
" transform="scale(0.015625)"/>
       </defs>
       <use xlink:href="#ArialMT-2212"/>
       <use xlink:href="#ArialMT-30" transform="translate(58.398438 0)"/>
       <use xlink:href="#ArialMT-2e" transform="translate(114.013672 0)"/>
       <use xlink:href="#ArialMT-32" transform="translate(141.796875 0)"/>
       <use xlink:href="#ArialMT-33" transform="translate(197.412109 0)"/>
       <use xlink:href="#ArialMT-32" transform="translate(253.027344 0)"/>
      </g>
     </g>
    </g>
    <g id="ytick_4">
     <g id="line2d_22">
      <g>
       <use xlink:href="#m05978f8e75" x="296.029134" y="137.220721" style="stroke: #000000; stroke-width: 0.3"/>
      </g>
     </g>
     <g id="text_15">
      <!-- −0.200 -->
      <g transform="translate(299.529134 140.083846) scale(0.08 -0.08)">
       <use xlink:href="#ArialMT-2212"/>
       <use xlink:href="#ArialMT-30" transform="translate(58.398438 0)"/>
       <use xlink:href="#ArialMT-2e" transform="translate(114.013672 0)"/>
       <use xlink:href="#ArialMT-32" transform="translate(141.796875 0)"/>
       <use xlink:href="#ArialMT-30" transform="translate(197.412109 0)"/>
       <use xlink:href="#ArialMT-30" transform="translate(253.027344 0)"/>
      </g>
     </g>
    </g>
    <g id="ytick_5">
     <g id="line2d_23">
      <g>
       <use xlink:href="#m05978f8e75" x="296.029134" y="120.511231" style="stroke: #000000; stroke-width: 0.3"/>
      </g>
     </g>
     <g id="text_16">
      <!-- −0.168 -->
      <g transform="translate(299.529134 123.374356) scale(0.08 -0.08)">
       <defs>
        <path id="ArialMT-31" d="M 2384 0 
L 1822 0 
L 1822 3584 
Q 1619 3391 1289 3197 
Q 959 3003 697 2906 
L 697 3450 
Q 1169 3672 1522 3987 
Q 1875 4303 2022 4600 
L 2384 4600 
L 2384 0 
z
" transform="scale(0.015625)"/>
        <path id="ArialMT-38" d="M 1131 2484 
Q 781 2613 612 2850 
Q 444 3088 444 3419 
Q 444 3919 803 4259 
Q 1163 4600 1759 4600 
Q 2359 4600 2725 4251 
Q 3091 3903 3091 3403 
Q 3091 3084 2923 2848 
Q 2756 2613 2416 2484 
Q 2838 2347 3058 2040 
Q 3278 1734 3278 1309 
Q 3278 722 2862 322 
Q 2447 -78 1769 -78 
Q 1091 -78 675 323 
Q 259 725 259 1325 
Q 259 1772 486 2073 
Q 713 2375 1131 2484 
z
M 1019 3438 
Q 1019 3113 1228 2906 
Q 1438 2700 1772 2700 
Q 2097 2700 2305 2904 
Q 2513 3109 2513 3406 
Q 2513 3716 2298 3927 
Q 2084 4138 1766 4138 
Q 1444 4138 1231 3931 
Q 1019 3725 1019 3438 
z
M 838 1322 
Q 838 1081 952 856 
Q 1066 631 1291 507 
Q 1516 384 1775 384 
Q 2178 384 2440 643 
Q 2703 903 2703 1303 
Q 2703 1709 2433 1975 
Q 2163 2241 1756 2241 
Q 1359 2241 1098 1978 
Q 838 1716 838 1322 
z
" transform="scale(0.015625)"/>
       </defs>
       <use xlink:href="#ArialMT-2212"/>
       <use xlink:href="#ArialMT-30" transform="translate(58.398438 0)"/>
       <use xlink:href="#ArialMT-2e" transform="translate(114.013672 0)"/>
       <use xlink:href="#ArialMT-31" transform="translate(141.796875 0)"/>
       <use xlink:href="#ArialMT-36" transform="translate(197.412109 0)"/>
       <use xlink:href="#ArialMT-38" transform="translate(253.027344 0)"/>
      </g>
     </g>
    </g>
    <g id="ytick_6">
     <g id="line2d_24">
      <g>
       <use xlink:href="#m05978f8e75" x="296.029134" y="103.801741" style="stroke: #000000; stroke-width: 0.3"/>
      </g>
     </g>
     <g id="text_17">
      <!-- −0.136 -->
      <g transform="translate(299.529134 106.664866) scale(0.08 -0.08)">
       <use xlink:href="#ArialMT-2212"/>
       <use xlink:href="#ArialMT-30" transform="translate(58.398438 0)"/>
       <use xlink:href="#ArialMT-2e" transform="translate(114.013672 0)"/>
       <use xlink:href="#ArialMT-31" transform="translate(141.796875 0)"/>
       <use xlink:href="#ArialMT-33" transform="translate(197.412109 0)"/>
       <use xlink:href="#ArialMT-36" transform="translate(253.027344 0)"/>
      </g>
     </g>
    </g>
    <g id="ytick_7">
     <g id="line2d_25">
      <g>
       <use xlink:href="#m05978f8e75" x="296.029134" y="87.09225" style="stroke: #000000; stroke-width: 0.3"/>
      </g>
     </g>
     <g id="text_18">
      <!-- −0.104 -->
      <g transform="translate(299.529134 89.955375) scale(0.08 -0.08)">
       <use xlink:href="#ArialMT-2212"/>
       <use xlink:href="#ArialMT-30" transform="translate(58.398438 0)"/>
       <use xlink:href="#ArialMT-2e" transform="translate(114.013672 0)"/>
       <use xlink:href="#ArialMT-31" transform="translate(141.796875 0)"/>
       <use xlink:href="#ArialMT-30" transform="translate(197.412109 0)"/>
       <use xlink:href="#ArialMT-34" transform="translate(253.027344 0)"/>
      </g>
     </g>
    </g>
    <g id="ytick_8">
     <g id="line2d_26">
      <g>
       <use xlink:href="#m05978f8e75" x="296.029134" y="70.38276" style="stroke: #000000; stroke-width: 0.3"/>
      </g>
     </g>
     <g id="text_19">
      <!-- −0.072 -->
      <g transform="translate(299.529134 73.245885) scale(0.08 -0.08)">
       <defs>
        <path id="ArialMT-37" d="M 303 3981 
L 303 4522 
L 3269 4522 
L 3269 4084 
Q 2831 3619 2401 2847 
Q 1972 2075 1738 1259 
Q 1569 684 1522 0 
L 944 0 
Q 953 541 1156 1306 
Q 1359 2072 1739 2783 
Q 2119 3494 2547 3981 
L 303 3981 
z
" transform="scale(0.015625)"/>
       </defs>
       <use xlink:href="#ArialMT-2212"/>
       <use xlink:href="#ArialMT-30" transform="translate(58.398438 0)"/>
       <use xlink:href="#ArialMT-2e" transform="translate(114.013672 0)"/>
       <use xlink:href="#ArialMT-30" transform="translate(141.796875 0)"/>
       <use xlink:href="#ArialMT-37" transform="translate(197.412109 0)"/>
       <use xlink:href="#ArialMT-32" transform="translate(253.027344 0)"/>
      </g>
     </g>
    </g>
    <g id="ytick_9">
     <g id="line2d_27">
      <g>
       <use xlink:href="#m05978f8e75" x="296.029134" y="53.67327" style="stroke: #000000; stroke-width: 0.3"/>
      </g>
     </g>
     <g id="text_20">
      <!-- −0.040 -->
      <g transform="translate(299.529134 56.536395) scale(0.08 -0.08)">
       <use xlink:href="#ArialMT-2212"/>
       <use xlink:href="#ArialMT-30" transform="translate(58.398438 0)"/>
       <use xlink:href="#ArialMT-2e" transform="translate(114.013672 0)"/>
       <use xlink:href="#ArialMT-30" transform="translate(141.796875 0)"/>
       <use xlink:href="#ArialMT-34" transform="translate(197.412109 0)"/>
       <use xlink:href="#ArialMT-30" transform="translate(253.027344 0)"/>
      </g>
     </g>
    </g>
    <g id="ytick_10">
     <g id="line2d_28">
      <g>
       <use xlink:href="#m05978f8e75" x="296.029134" y="36.96378" style="stroke: #000000; stroke-width: 0.3"/>
      </g>
     </g>
     <g id="text_21">
      <!-- −0.008 -->
      <g transform="translate(299.529134 39.826905) scale(0.08 -0.08)">
       <use xlink:href="#ArialMT-2212"/>
       <use xlink:href="#ArialMT-30" transform="translate(58.398438 0)"/>
       <use xlink:href="#ArialMT-2e" transform="translate(114.013672 0)"/>
       <use xlink:href="#ArialMT-30" transform="translate(141.796875 0)"/>
       <use xlink:href="#ArialMT-30" transform="translate(197.412109 0)"/>
       <use xlink:href="#ArialMT-38" transform="translate(253.027344 0)"/>
      </g>
     </g>
    </g>
    <g id="text_22">
     <!-- Formation Energy (eV/atom) -->
     <g transform="translate(335.498821 179.408077) rotate(-90) scale(0.1 -0.1)">
      <defs>
       <path id="ArialMT-46" d="M 525 0 
L 525 4581 
L 3616 4581 
L 3616 4041 
L 1131 4041 
L 1131 2622 
L 3281 2622 
L 3281 2081 
L 1131 2081 
L 1131 0 
L 525 0 
z
" transform="scale(0.015625)"/>
       <path id="ArialMT-6f" d="M 213 1659 
Q 213 2581 725 3025 
Q 1153 3394 1769 3394 
Q 2453 3394 2887 2945 
Q 3322 2497 3322 1706 
Q 3322 1066 3130 698 
Q 2938 331 2570 128 
Q 2203 -75 1769 -75 
Q 1072 -75 642 372 
Q 213 819 213 1659 
z
M 791 1659 
Q 791 1022 1069 705 
Q 1347 388 1769 388 
Q 2188 388 2466 706 
Q 2744 1025 2744 1678 
Q 2744 2294 2464 2611 
Q 2184 2928 1769 2928 
Q 1347 2928 1069 2612 
Q 791 2297 791 1659 
z
" transform="scale(0.015625)"/>
       <path id="ArialMT-72" d="M 416 0 
L 416 3319 
L 922 3319 
L 922 2816 
Q 1116 3169 1280 3281 
Q 1444 3394 1641 3394 
Q 1925 3394 2219 3213 
L 2025 2691 
Q 1819 2813 1613 2813 
Q 1428 2813 1281 2702 
Q 1134 2591 1072 2394 
Q 978 2094 978 1738 
L 978 0 
L 416 0 
z
" transform="scale(0.015625)"/>
       <path id="ArialMT-6d" d="M 422 0 
L 422 3319 
L 925 3319 
L 925 2853 
Q 1081 3097 1340 3245 
Q 1600 3394 1931 3394 
Q 2300 3394 2536 3241 
Q 2772 3088 2869 2813 
Q 3263 3394 3894 3394 
Q 4388 3394 4653 3120 
Q 4919 2847 4919 2278 
L 4919 0 
L 4359 0 
L 4359 2091 
Q 4359 2428 4304 2576 
Q 4250 2725 4106 2815 
Q 3963 2906 3769 2906 
Q 3419 2906 3187 2673 
Q 2956 2441 2956 1928 
L 2956 0 
L 2394 0 
L 2394 2156 
Q 2394 2531 2256 2718 
Q 2119 2906 1806 2906 
Q 1569 2906 1367 2781 
Q 1166 2656 1075 2415 
Q 984 2175 984 1722 
L 984 0 
L 422 0 
z
" transform="scale(0.015625)"/>
       <path id="ArialMT-61" d="M 2588 409 
Q 2275 144 1986 34 
Q 1697 -75 1366 -75 
Q 819 -75 525 192 
Q 231 459 231 875 
Q 231 1119 342 1320 
Q 453 1522 633 1644 
Q 813 1766 1038 1828 
Q 1203 1872 1538 1913 
Q 2219 1994 2541 2106 
Q 2544 2222 2544 2253 
Q 2544 2597 2384 2738 
Q 2169 2928 1744 2928 
Q 1347 2928 1158 2789 
Q 969 2650 878 2297 
L 328 2372 
Q 403 2725 575 2942 
Q 747 3159 1072 3276 
Q 1397 3394 1825 3394 
Q 2250 3394 2515 3294 
Q 2781 3194 2906 3042 
Q 3031 2891 3081 2659 
Q 3109 2516 3109 2141 
L 3109 1391 
Q 3109 606 3145 398 
Q 3181 191 3288 0 
L 2700 0 
Q 2613 175 2588 409 
z
M 2541 1666 
Q 2234 1541 1622 1453 
Q 1275 1403 1131 1340 
Q 988 1278 909 1158 
Q 831 1038 831 891 
Q 831 666 1001 516 
Q 1172 366 1500 366 
Q 1825 366 2078 508 
Q 2331 650 2450 897 
Q 2541 1088 2541 1459 
L 2541 1666 
z
" transform="scale(0.015625)"/>
       <path id="ArialMT-74" d="M 1650 503 
L 1731 6 
Q 1494 -44 1306 -44 
Q 1000 -44 831 53 
Q 663 150 594 308 
Q 525 466 525 972 
L 525 2881 
L 113 2881 
L 113 3319 
L 525 3319 
L 525 4141 
L 1084 4478 
L 1084 3319 
L 1650 3319 
L 1650 2881 
L 1084 2881 
L 1084 941 
Q 1084 700 1114 631 
Q 1144 563 1211 522 
Q 1278 481 1403 481 
Q 1497 481 1650 503 
z
" transform="scale(0.015625)"/>
       <path id="ArialMT-69" d="M 425 3934 
L 425 4581 
L 988 4581 
L 988 3934 
L 425 3934 
z
M 425 0 
L 425 3319 
L 988 3319 
L 988 0 
L 425 0 
z
" transform="scale(0.015625)"/>
       <path id="ArialMT-6e" d="M 422 0 
L 422 3319 
L 928 3319 
L 928 2847 
Q 1294 3394 1984 3394 
Q 2284 3394 2536 3286 
Q 2788 3178 2913 3003 
Q 3038 2828 3088 2588 
Q 3119 2431 3119 2041 
L 3119 0 
L 2556 0 
L 2556 2019 
Q 2556 2363 2490 2533 
Q 2425 2703 2258 2804 
Q 2091 2906 1866 2906 
Q 1506 2906 1245 2678 
Q 984 2450 984 1813 
L 984 0 
L 422 0 
z
" transform="scale(0.015625)"/>
       <path id="ArialMT-20" transform="scale(0.015625)"/>
       <path id="ArialMT-45" d="M 506 0 
L 506 4581 
L 3819 4581 
L 3819 4041 
L 1113 4041 
L 1113 2638 
L 3647 2638 
L 3647 2100 
L 1113 2100 
L 1113 541 
L 3925 541 
L 3925 0 
L 506 0 
z
" transform="scale(0.015625)"/>
       <path id="ArialMT-65" d="M 2694 1069 
L 3275 997 
Q 3138 488 2766 206 
Q 2394 -75 1816 -75 
Q 1088 -75 661 373 
Q 234 822 234 1631 
Q 234 2469 665 2931 
Q 1097 3394 1784 3394 
Q 2450 3394 2872 2941 
Q 3294 2488 3294 1666 
Q 3294 1616 3291 1516 
L 816 1516 
Q 847 969 1125 678 
Q 1403 388 1819 388 
Q 2128 388 2347 550 
Q 2566 713 2694 1069 
z
M 847 1978 
L 2700 1978 
Q 2663 2397 2488 2606 
Q 2219 2931 1791 2931 
Q 1403 2931 1139 2672 
Q 875 2413 847 1978 
z
" transform="scale(0.015625)"/>
       <path id="ArialMT-67" d="M 319 -275 
L 866 -356 
Q 900 -609 1056 -725 
Q 1266 -881 1628 -881 
Q 2019 -881 2231 -725 
Q 2444 -569 2519 -288 
Q 2563 -116 2559 434 
Q 2191 0 1641 0 
Q 956 0 581 494 
Q 206 988 206 1678 
Q 206 2153 378 2554 
Q 550 2956 876 3175 
Q 1203 3394 1644 3394 
Q 2231 3394 2613 2919 
L 2613 3319 
L 3131 3319 
L 3131 450 
Q 3131 -325 2973 -648 
Q 2816 -972 2473 -1159 
Q 2131 -1347 1631 -1347 
Q 1038 -1347 672 -1080 
Q 306 -813 319 -275 
z
M 784 1719 
Q 784 1066 1043 766 
Q 1303 466 1694 466 
Q 2081 466 2343 764 
Q 2606 1063 2606 1700 
Q 2606 2309 2336 2618 
Q 2066 2928 1684 2928 
Q 1309 2928 1046 2623 
Q 784 2319 784 1719 
z
" transform="scale(0.015625)"/>
       <path id="ArialMT-79" d="M 397 -1278 
L 334 -750 
Q 519 -800 656 -800 
Q 844 -800 956 -737 
Q 1069 -675 1141 -563 
Q 1194 -478 1313 -144 
Q 1328 -97 1363 -6 
L 103 3319 
L 709 3319 
L 1400 1397 
Q 1534 1031 1641 628 
Q 1738 1016 1872 1384 
L 2581 3319 
L 3144 3319 
L 1881 -56 
Q 1678 -603 1566 -809 
Q 1416 -1088 1222 -1217 
Q 1028 -1347 759 -1347 
Q 597 -1347 397 -1278 
z
" transform="scale(0.015625)"/>
       <path id="ArialMT-28" d="M 1497 -1347 
Q 1031 -759 709 28 
Q 388 816 388 1659 
Q 388 2403 628 3084 
Q 909 3875 1497 4659 
L 1900 4659 
Q 1522 4009 1400 3731 
Q 1209 3300 1100 2831 
Q 966 2247 966 1656 
Q 966 153 1900 -1347 
L 1497 -1347 
z
" transform="scale(0.015625)"/>
       <path id="ArialMT-56" d="M 1803 0 
L 28 4581 
L 684 4581 
L 1875 1253 
Q 2019 853 2116 503 
Q 2222 878 2363 1253 
L 3600 4581 
L 4219 4581 
L 2425 0 
L 1803 0 
z
" transform="scale(0.015625)"/>
       <path id="ArialMT-2f" d="M 0 -78 
L 1328 4659 
L 1778 4659 
L 453 -78 
L 0 -78 
z
" transform="scale(0.015625)"/>
       <path id="ArialMT-29" d="M 791 -1347 
L 388 -1347 
Q 1322 153 1322 1656 
Q 1322 2244 1188 2822 
Q 1081 3291 891 3722 
Q 769 4003 388 4659 
L 791 4659 
Q 1378 3875 1659 3084 
Q 1900 2403 1900 1659 
Q 1900 816 1576 28 
Q 1253 -759 791 -1347 
z
" transform="scale(0.015625)"/>
      </defs>
      <use xlink:href="#ArialMT-46"/>
      <use xlink:href="#ArialMT-6f" transform="translate(61.083984 0)"/>
      <use xlink:href="#ArialMT-72" transform="translate(116.699219 0)"/>
      <use xlink:href="#ArialMT-6d" transform="translate(150 0)"/>
      <use xlink:href="#ArialMT-61" transform="translate(233.300781 0)"/>
      <use xlink:href="#ArialMT-74" transform="translate(288.916016 0)"/>
      <use xlink:href="#ArialMT-69" transform="translate(316.699219 0)"/>
      <use xlink:href="#ArialMT-6f" transform="translate(338.916016 0)"/>
      <use xlink:href="#ArialMT-6e" transform="translate(394.53125 0)"/>
      <use xlink:href="#ArialMT-20" transform="translate(450.146484 0)"/>
      <use xlink:href="#ArialMT-45" transform="translate(477.929688 0)"/>
      <use xlink:href="#ArialMT-6e" transform="translate(544.628906 0)"/>
      <use xlink:href="#ArialMT-65" transform="translate(600.244141 0)"/>
      <use xlink:href="#ArialMT-72" transform="translate(655.859375 0)"/>
      <use xlink:href="#ArialMT-67" transform="translate(689.160156 0)"/>
      <use xlink:href="#ArialMT-79" transform="translate(744.775391 0)"/>
      <use xlink:href="#ArialMT-20" transform="translate(794.775391 0)"/>
      <use xlink:href="#ArialMT-28" transform="translate(822.558594 0)"/>
      <use xlink:href="#ArialMT-65" transform="translate(855.859375 0)"/>
      <use xlink:href="#ArialMT-56" transform="translate(911.474609 0)"/>
      <use xlink:href="#ArialMT-2f" transform="translate(978.173828 0)"/>
      <use xlink:href="#ArialMT-61" transform="translate(1005.957031 0)"/>
      <use xlink:href="#ArialMT-74" transform="translate(1061.572266 0)"/>
      <use xlink:href="#ArialMT-6f" transform="translate(1089.355469 0)"/>
      <use xlink:href="#ArialMT-6d" transform="translate(1144.970703 0)"/>
      <use xlink:href="#ArialMT-29" transform="translate(1228.271484 0)"/>
     </g>
    </g>
   </g>
   <g id="LineCollection_1"/>
   <g id="patch_6">
    <path d="M 287.298425 195.703937 
L 291.66378 203.640945 
L 296.029134 195.703937 
L 296.029134 36.96378 
L 291.66378 29.026772 
L 287.298425 36.96378 
L 287.298425 195.703937 
z
" style="fill: none; stroke: #000000; stroke-width: 0.8; stroke-linejoin: miter; stroke-linecap: square"/>
   </g>
  </g>
 </g>
 <defs>
  <clipPath id="p3d756e88e2">
   <rect x="7.2" y="7.2" width="263.622047" height="218.267717"/>
  </clipPath>
  <clipPath id="pa1299e9241">
   <rect x="287.298425" y="36.96378" width="8.730709" height="158.740157"/>
  </clipPath>
 </defs>
</svg>
