<?xml version="1.0" encoding="utf-8" standalone="no"?>
<!DOCTYPE svg PUBLIC "-//W3C//DTD SVG 1.1//EN"
  "http://www.w3.org/Graphics/SVG/1.1/DTD/svg11.dtd">
<svg xmlns:xlink="http://www.w3.org/1999/xlink" width="344.803509pt" height="232.667717pt" viewBox="0 0 344.803509 232.667717" xmlns="http://www.w3.org/2000/svg" version="1.1">
 <metadata>
  <rdf:RDF xmlns:dc="http://purl.org/dc/elements/1.1/" xmlns:cc="http://creativecommons.org/ns#" xmlns:rdf="http://www.w3.org/1999/02/22-rdf-syntax-ns#">
   <cc:Work>
    <dc:type rdf:resource="http://purl.org/dc/dcmitype/StillImage"/>
    <dc:date>2025-12-17T19:50:30.285584</dc:date>
    <dc:format>image/svg+xml</dc:format>
    <dc:creator>
     <cc:Agent>
      <dc:title>Matplotlib v3.10.3, https://matplotlib.org/</dc:title>
     </cc:Agent>
    </dc:creator>
   </cc:Work>
  </rdf:RDF>
 </metadata>
 <defs>
  <style type="text/css">*{stroke-linejoin: round; stroke-linecap: butt}</style>
 </defs>
 <g id="figure_1">
  <g id="patch_1">
   <path d="M 0 232.667717 
L 344.803509 232.667717 
L 344.803509 0 
L 0 0 
z
" style="fill: #ffffff"/>
  </g>
  <g id="axes_1">
   <g id="patch_2">
    <path d="M 7.2 225.467717 
L 270.822047 225.467717 
L 270.822047 7.2 
L 7.2 7.2 
z
" style="fill: #ffffff"/>
   </g>
   <g id="TriContourSet_1">
    <path d="M 141.260025 214.554331 
L 139.011024 211.006598 
L 138.19635 210.698963 
L 137.962046 210.831187 
L 135.096707 214.554331 
L 139.011024 214.554331 
z
" clip-path="url(#p35ef5cdfbc)" style="fill: #440154; fill-opacity: 0.7"/>
    <path d="M 135.096707 214.554331 
L 137.962046 210.831187 
L 138.19635 210.698963 
L 139.011024 211.006598 
L 141.260025 214.554331 
L 144.199505 214.554331 
L 139.011024 206.369657 
L 137.13156 205.659938 
L 136.591016 205.964979 
L 129.980635 214.554331 
z
" clip-path="url(#p35ef5cdfbc)" style="fill: #450559; fill-opacity: 0.7"/>
    <path d="M 129.980635 214.554331 
L 136.591016 205.964979 
L 137.13156 205.659938 
L 139.011024 206.369657 
L 144.199505 214.554331 
L 147.138985 214.554331 
L 139.011024 201.732716 
L 136.066769 200.620913 
L 135.219986 201.098772 
L 124.864563 214.554331 
z
" clip-path="url(#p35ef5cdfbc)" style="fill: #470e61; fill-opacity: 0.7"/>
    <path d="M 124.864563 214.554331 
L 135.219986 201.098772 
L 136.066769 200.620913 
L 139.011024 201.732716 
L 147.138985 214.554331 
L 150.078465 214.554331 
L 139.011024 197.095774 
L 135.001979 195.581888 
L 133.848956 196.232565 
L 119.748491 214.554331 
z
" clip-path="url(#p35ef5cdfbc)" style="fill: #48186a; fill-opacity: 0.7"/>
    <path d="M 119.748491 214.554331 
L 133.848956 196.232565 
L 135.001979 195.581888 
L 139.011024 197.095774 
L 150.078465 214.554331 
L 153.017945 214.554331 
L 139.011024 192.458833 
L 133.937188 190.542862 
L 132.477926 191.366358 
L 114.632418 214.554331 
z
" clip-path="url(#p35ef5cdfbc)" style="fill: #482071; fill-opacity: 0.7"/>
    <path d="M 114.632418 214.554331 
L 132.477926 191.366358 
L 133.937188 190.542862 
L 139.011024 192.458833 
L 153.017945 214.554331 
L 155.957425 214.554331 
L 139.011024 187.821891 
L 132.872398 185.503837 
L 131.106896 186.500151 
L 109.516346 214.554331 
z
" clip-path="url(#p35ef5cdfbc)" style="fill: #482979; fill-opacity: 0.7"/>
    <path d="M 109.516346 214.554331 
L 131.106896 186.500151 
L 132.872398 185.503837 
L 139.011024 187.821891 
L 155.957425 214.554331 
L 158.896905 214.554331 
L 139.011024 183.18495 
L 131.807607 180.464812 
L 129.735865 181.633944 
L 104.400274 214.554331 
z
" clip-path="url(#p35ef5cdfbc)" style="fill: #46327e; fill-opacity: 0.7"/>
    <path d="M 104.400274 214.554331 
L 129.735865 181.633944 
L 131.807607 180.464812 
L 139.011024 183.18495 
L 158.896905 214.554331 
L 161.836385 214.554331 
L 139.011024 178.548009 
L 130.742817 175.425787 
L 128.364835 176.767736 
L 99.284202 214.554331 
z
" clip-path="url(#p35ef5cdfbc)" style="fill: #443983; fill-opacity: 0.7"/>
    <path d="M 99.284202 214.554331 
L 128.364835 176.767736 
L 130.742817 175.425787 
L 139.011024 178.548009 
L 161.836385 214.554331 
L 164.775866 214.554331 
L 139.011024 173.911067 
L 129.678026 170.386761 
L 126.993805 171.901529 
L 94.168129 214.554331 
z
" clip-path="url(#p35ef5cdfbc)" style="fill: #424186; fill-opacity: 0.7"/>
    <path d="M 94.168129 214.554331 
L 126.993805 171.901529 
L 129.678026 170.386761 
L 139.011024 173.911067 
L 164.775866 214.554331 
L 167.715346 214.554331 
L 139.011024 169.274126 
L 128.613235 165.347736 
L 125.622775 167.035322 
L 89.052057 214.554331 
z
" clip-path="url(#p35ef5cdfbc)" style="fill: #3f4889; fill-opacity: 0.7"/>
    <path d="M 89.052057 214.554331 
L 125.622775 167.035322 
L 128.613235 165.347736 
L 139.011024 169.274126 
L 167.715346 214.554331 
L 170.654826 214.554331 
L 139.011024 164.637185 
L 127.548445 160.308711 
L 124.251745 162.169115 
L 88.280985 208.908554 
L 87.069788 210.669934 
L 86.467362 211.929099 
L 85.5512 214.554331 
L 87.656079 214.554331 
z
" clip-path="url(#p35ef5cdfbc)" style="fill: #3c508b; fill-opacity: 0.7"/>
    <path d="M 85.5512 214.554331 
L 86.467362 211.929099 
L 87.069788 210.669934 
L 88.280985 208.908554 
L 124.251745 162.169115 
L 127.548445 160.308711 
L 139.011024 164.637185 
L 170.654826 214.554331 
L 173.594306 214.554331 
L 139.011024 160.000243 
L 126.483654 155.269686 
L 122.880715 157.302908 
L 89.14039 201.14418 
L 86.26349 205.327905 
L 84.832575 208.31874 
L 82.656458 214.554331 
z
" clip-path="url(#p35ef5cdfbc)" style="fill: #39568c; fill-opacity: 0.7"/>
    <path d="M 82.656458 214.554331 
L 84.832575 208.31874 
L 86.26349 205.327905 
L 89.14039 201.14418 
L 122.880715 157.302908 
L 126.483654 155.269686 
L 139.011024 160.000243 
L 173.594306 214.554331 
L 176.533786 214.554331 
L 139.011024 155.363302 
L 125.418864 150.23066 
L 121.509685 152.436701 
L 89.999794 193.379806 
L 85.457191 199.985876 
L 83.197788 204.708381 
L 79.761716 214.554331 
z
" clip-path="url(#p35ef5cdfbc)" style="fill: #355e8d; fill-opacity: 0.7"/>
    <path d="M 79.761716 214.554331 
L 83.197788 204.708381 
L 85.457191 199.985876 
L 89.999794 193.379806 
L 121.509685 152.436701 
L 125.418864 150.23066 
L 139.011024 155.363302 
L 176.533786 214.554331 
L 179.473266 214.554331 
L 139.011024 150.72636 
L 124.354073 145.191635 
L 120.138655 147.570493 
L 90.859198 185.615433 
L 84.650893 194.643847 
L 82.318518 199.518873 
L 81.517422 201.535586 
L 80.292448 204.738749 
L 76.866974 214.554331 
z
" clip-path="url(#p35ef5cdfbc)" style="fill: #32658e; fill-opacity: 0.7"/>
    <path d="M 76.866974 214.554331 
L 80.292448 204.738749 
L 81.517422 201.535586 
L 82.318518 199.518873 
L 84.650893 194.643847 
L 90.859198 185.615433 
L 120.138655 147.570493 
L 124.354073 145.191635 
L 139.011024 150.72636 
L 179.473266 214.554331 
L 182.412746 214.554331 
L 139.011024 146.089419 
L 123.289283 140.15261 
L 118.767625 142.704286 
L 91.718602 177.851059 
L 83.844594 189.301818 
L 81.850822 193.469111 
L 79.812228 198.601158 
L 76.694964 206.752431 
L 73.972232 214.554331 
z
" clip-path="url(#p35ef5cdfbc)" style="fill: #2f6b8e; fill-opacity: 0.7"/>
    <path d="M 73.972232 214.554331 
L 76.694964 206.752431 
L 79.812228 198.601158 
L 81.850822 193.469111 
L 83.844594 189.301818 
L 91.718602 177.851059 
L 118.767625 142.704286 
L 123.289283 140.15261 
L 139.011024 146.089419 
L 182.412746 214.554331 
L 185.352226 214.554331 
L 139.011024 141.452478 
L 122.224492 135.113585 
L 117.396595 137.838079 
L 92.578006 170.086686 
L 83.038296 183.959789 
L 81.383127 187.41935 
L 78.107034 195.66673 
L 73.097481 208.766113 
L 71.07749 214.554331 
z
" clip-path="url(#p35ef5cdfbc)" style="fill: #2c718e; fill-opacity: 0.7"/>
    <path d="M 71.07749 214.554331 
L 73.097481 208.766113 
L 78.107034 195.66673 
L 81.383127 187.41935 
L 83.038296 183.959789 
L 92.578006 170.086686 
L 117.396595 137.838079 
L 122.224492 135.113585 
L 139.011024 141.452478 
L 185.352226 214.554331 
L 188.291706 214.554331 
L 139.011024 136.815536 
L 121.159702 130.074559 
L 116.025564 132.971872 
L 93.437411 162.322312 
L 82.231997 178.61776 
L 80.915431 181.369588 
L 76.40184 192.732301 
L 69.499997 210.779795 
L 68.182747 214.554331 
z
" clip-path="url(#p35ef5cdfbc)" style="fill: #2a778e; fill-opacity: 0.7"/>
    <path d="M 68.182747 214.554331 
L 69.499997 210.779795 
L 76.40184 192.732301 
L 80.915431 181.369588 
L 82.231997 178.61776 
L 93.437411 162.322312 
L 116.025564 132.971872 
L 121.159702 130.074559 
L 139.011024 136.815536 
L 188.291706 214.554331 
L 191.231186 214.554331 
L 139.011024 132.178595 
L 120.094911 125.035534 
L 114.654534 128.105665 
L 94.296815 154.557938 
L 81.425699 173.275731 
L 80.447735 175.319827 
L 74.696646 189.797873 
L 65.902514 212.793477 
L 65.288005 214.554331 
z
" clip-path="url(#p35ef5cdfbc)" style="fill: #277e8e; fill-opacity: 0.7"/>
    <path d="M 65.288005 214.554331 
L 65.902514 212.793477 
L 74.696646 189.797873 
L 80.447735 175.319827 
L 81.425699 173.275731 
L 94.296815 154.557938 
L 114.654534 128.105665 
L 120.094911 125.035534 
L 139.011024 132.178595 
L 191.231186 214.554331 
L 194.170666 214.554331 
L 139.011024 127.541654 
L 119.03012 119.996509 
L 113.283504 123.239457 
L 95.156219 146.793565 
L 80.6194 167.933702 
L 79.98004 169.270065 
L 72.991451 186.863445 
L 62.909861 213.225598 
L 62.712253 213.78286 
L 62.509445 214.554331 
L 62.756712 214.554331 
z
" clip-path="url(#p35ef5cdfbc)" style="fill: #25838e; fill-opacity: 0.7"/>
    <path d="M 62.509445 214.554331 
L 62.712253 213.78286 
L 62.909861 213.225598 
L 72.991451 186.863445 
L 79.98004 169.270065 
L 80.6194 167.933702 
L 95.156219 146.793565 
L 113.283504 123.239457 
L 119.03012 119.996509 
L 139.011024 127.541654 
L 194.170666 214.554331 
L 197.110146 214.554331 
L 139.011024 122.904712 
L 117.96533 114.957484 
L 111.912474 118.37325 
L 96.015623 139.029191 
L 79.813102 162.591673 
L 79.512344 163.220304 
L 71.286257 183.929017 
L 64.129637 202.642724 
L 62.358148 207.638374 
L 60.540053 214.554331 
z
" clip-path="url(#p35ef5cdfbc)" style="fill: #238a8d; fill-opacity: 0.7"/>
    <path d="M 60.540053 214.554331 
L 62.358148 207.638374 
L 64.129637 202.642724 
L 71.286257 183.929017 
L 79.512344 163.220304 
L 79.813102 162.591673 
L 96.015623 139.029191 
L 111.912474 118.37325 
L 117.96533 114.957484 
L 139.011024 122.904712 
L 197.110146 214.554331 
L 200.049626 214.554331 
L 139.011024 118.267771 
L 116.900539 109.918458 
L 110.541444 113.507043 
L 96.875027 131.264818 
L 79.50974 156.518249 
L 79.096922 157.128502 
L 78.82605 157.761256 
L 78.23757 159.202316 
L 69.581063 180.994589 
L 65.349412 192.059851 
L 62.004043 201.493889 
L 58.570661 214.554331 
z
" clip-path="url(#p35ef5cdfbc)" style="fill: #21918c; fill-opacity: 0.7"/>
    <path d="M 58.570661 214.554331 
L 62.004043 201.493889 
L 65.349412 192.059851 
L 69.581063 180.994589 
L 78.23757 159.202316 
L 78.82605 157.761256 
L 79.096922 157.128502 
L 79.50974 156.518249 
L 96.875027 131.264818 
L 110.541444 113.507043 
L 116.900539 109.918458 
L 139.011024 118.267771 
L 200.049626 214.554331 
L 202.989106 214.554331 
L 139.011024 113.630829 
L 115.835749 104.879433 
L 109.170414 108.640836 
L 97.734432 123.500444 
L 83.203255 144.632377 
L 79.096922 150.702606 
L 76.402543 156.996654 
L 70.548892 171.330975 
L 67.875869 178.06016 
L 66.569187 181.476977 
L 61.649939 195.349403 
L 56.601269 214.554331 
z
" clip-path="url(#p35ef5cdfbc)" style="fill: #1f968b; fill-opacity: 0.7"/>
    <path d="M 56.601269 214.554331 
L 61.649939 195.349403 
L 66.569187 181.476977 
L 67.875869 178.06016 
L 70.548892 171.330975 
L 76.402543 156.996654 
L 79.096922 150.702606 
L 83.203255 144.632377 
L 97.734432 123.500444 
L 109.170414 108.640836 
L 115.835749 104.879433 
L 139.011024 113.630829 
L 202.989106 214.554331 
L 205.928586 214.554331 
L 139.011024 108.993888 
L 114.770958 99.840408 
L 107.799384 103.774629 
L 98.593836 115.736071 
L 86.896769 132.746504 
L 79.096922 144.276711 
L 73.979035 156.232052 
L 66.452672 174.662482 
L 61.295834 189.204917 
L 54.631877 214.554331 
z
" clip-path="url(#p35ef5cdfbc)" style="fill: #1e9d89; fill-opacity: 0.7"/>
    <path d="M 54.631877 214.554331 
L 61.295834 189.204917 
L 66.452672 174.662482 
L 73.979035 156.232052 
L 79.096922 144.276711 
L 86.896769 132.746504 
L 98.593836 115.736071 
L 107.799384 103.774629 
L 114.770958 99.840408 
L 139.011024 108.993888 
L 205.928586 214.554331 
L 208.868066 214.554331 
L 139.011024 104.356947 
L 113.706168 94.801383 
L 106.428354 98.908422 
L 99.45324 107.971697 
L 90.590284 120.860632 
L 79.096922 137.850815 
L 71.555527 155.46745 
L 65.257173 170.890754 
L 60.941729 183.060432 
L 52.662485 214.554331 
z
" clip-path="url(#p35ef5cdfbc)" style="fill: #1fa287; fill-opacity: 0.7"/>
    <path d="M 52.662485 214.554331 
L 60.941729 183.060432 
L 65.257173 170.890754 
L 71.555527 155.46745 
L 79.096922 137.850815 
L 90.590284 120.860632 
L 99.45324 107.971697 
L 106.428354 98.908422 
L 113.706168 94.801383 
L 139.011024 104.356947 
L 208.868066 214.554331 
L 211.807546 214.554331 
L 139.011024 99.720005 
L 112.641377 89.762357 
L 105.057324 94.042214 
L 100.312644 100.207323 
L 94.283798 108.97476 
L 79.096922 131.424919 
L 69.132019 154.702848 
L 64.061673 167.119025 
L 60.587624 176.915946 
L 50.693093 214.554331 
z
" clip-path="url(#p35ef5cdfbc)" style="fill: #23a983; fill-opacity: 0.7"/>
    <path d="M 50.693093 214.554331 
L 60.587624 176.915946 
L 64.061673 167.119025 
L 69.132019 154.702848 
L 79.096922 131.424919 
L 94.283798 108.97476 
L 100.312644 100.207323 
L 105.057324 94.042214 
L 112.641377 89.762357 
L 139.011024 99.720005 
L 211.807546 214.554331 
L 214.747026 214.554331 
L 139.011024 95.083064 
L 111.576587 84.723332 
L 103.686294 89.176007 
L 101.172048 92.44295 
L 97.977313 97.088887 
L 79.096922 124.999024 
L 66.708512 153.938246 
L 62.866174 163.347297 
L 60.23352 170.77146 
L 48.723701 214.554331 
z
" clip-path="url(#p35ef5cdfbc)" style="fill: #28ae80; fill-opacity: 0.7"/>
    <path d="M 48.723701 214.554331 
L 60.23352 170.77146 
L 62.866174 163.347297 
L 66.708512 153.938246 
L 79.096922 124.999024 
L 97.977313 97.088887 
L 101.172048 92.44295 
L 103.686294 89.176007 
L 111.576587 84.723332 
L 139.011024 95.083064 
L 214.747026 214.554331 
L 217.686506 214.554331 
L 139.011024 90.446123 
L 110.511796 79.684307 
L 102.315264 84.3098 
L 102.031453 84.678576 
L 101.670827 85.203015 
L 93.899038 96.691745 
L 79.096922 120.041637 
L 77.160907 123.095642 
L 64.285004 153.173643 
L 61.670675 159.575569 
L 59.879415 164.626974 
L 46.754309 214.554331 
z
" clip-path="url(#p35ef5cdfbc)" style="fill: #31b57b; fill-opacity: 0.7"/>
    <path d="M 46.754309 214.554331 
L 59.879415 164.626974 
L 61.670675 159.575569 
L 64.285004 153.173643 
L 77.160907 123.095642 
L 68.689302 136.459344 
L 61.861496 152.409041 
L 60.475175 155.80384 
L 59.52531 158.482489 
L 44.784917 214.554331 
z
M 220.625986 214.554331 
L 139.011024 85.809181 
L 109.447005 74.645282 
L 106.999198 76.026636 
L 102.140807 83.690601 
L 93.899038 96.691745 
L 101.670827 85.203015 
L 102.031453 84.678576 
L 102.315264 84.3098 
L 110.511796 79.684307 
L 139.011024 90.446123 
L 217.686506 214.554331 
z
" clip-path="url(#p35ef5cdfbc)" style="fill: #3aba76; fill-opacity: 0.7"/>
    <path d="M 44.784917 214.554331 
L 59.52531 158.482489 
L 60.475175 155.80384 
L 61.861496 152.409041 
L 68.689302 136.459344 
L 60.217697 149.823047 
L 59.437989 151.644439 
L 59.279676 152.032112 
L 59.171205 152.338003 
L 42.815525 214.554331 
z
M 223.565466 214.554331 
L 139.011024 81.17224 
L 110.550257 70.424948 
L 109.053973 72.78529 
L 106.999198 76.026636 
L 109.447005 74.645282 
L 139.011024 85.809181 
L 220.625986 214.554331 
z
" clip-path="url(#p35ef5cdfbc)" style="fill: #46c06f; fill-opacity: 0.7"/>
    <path d="M 56.194617 156.169334 
L 40.846133 214.554331 
L 42.815525 214.554331 
L 59.171205 152.338003 
L 59.279676 152.032112 
L 59.437989 151.644439 
L 60.217697 149.823047 
L 59.125555 151.545868 
z
M 226.504946 214.554331 
L 139.011024 76.535298 
L 112.921987 66.683614 
L 110.550257 70.424948 
L 139.011024 81.17224 
L 223.565466 214.554331 
z
" clip-path="url(#p35ef5cdfbc)" style="fill: #54c568; fill-opacity: 0.7"/>
    <path d="M 52.829909 161.477061 
L 38.876741 214.554331 
L 40.846133 214.554331 
L 56.194617 156.169334 
z
M 229.444426 214.554331 
L 139.011024 71.898357 
L 115.293718 62.94228 
L 112.921987 66.683614 
L 139.011024 76.535298 
L 226.504946 214.554331 
z
" clip-path="url(#p35ef5cdfbc)" style="fill: #60ca60; fill-opacity: 0.7"/>
    <path d="M 49.4652 166.784788 
L 36.907349 214.554331 
L 38.876741 214.554331 
L 52.829909 161.477061 
z
M 232.383907 214.554331 
L 139.011024 67.261416 
L 117.665448 59.200947 
L 115.293718 62.94228 
L 139.011024 71.898357 
L 229.444426 214.554331 
z
" clip-path="url(#p35ef5cdfbc)" style="fill: #70cf57; fill-opacity: 0.7"/>
    <path d="M 46.100491 172.092515 
L 34.937957 214.554331 
L 36.907349 214.554331 
L 49.4652 166.784788 
z
M 235.323387 214.554331 
L 139.011024 62.624474 
L 120.037179 55.459613 
L 117.665448 59.200947 
L 139.011024 67.261416 
L 232.383907 214.554331 
z
" clip-path="url(#p35ef5cdfbc)" style="fill: #7fd34e; fill-opacity: 0.7"/>
    <path d="M 42.735782 177.400242 
L 32.968565 214.554331 
L 34.937957 214.554331 
L 46.100491 172.092515 
z
M 238.262867 214.554331 
L 139.011024 57.987533 
L 122.408909 51.718279 
L 120.037179 55.459613 
L 139.011024 62.624474 
L 235.323387 214.554331 
z
" clip-path="url(#p35ef5cdfbc)" style="fill: #90d743; fill-opacity: 0.7"/>
    <path d="M 39.371073 182.707969 
L 30.999173 214.554331 
L 32.968565 214.554331 
L 42.735782 177.400242 
z
M 241.202347 214.554331 
L 139.011024 53.350592 
L 124.78064 47.976945 
L 122.408909 51.718279 
L 139.011024 57.987533 
L 238.262867 214.554331 
z
" clip-path="url(#p35ef5cdfbc)" style="fill: #a0da39; fill-opacity: 0.7"/>
    <path d="M 36.006364 188.015696 
L 29.029781 214.554331 
L 30.999173 214.554331 
L 39.371073 182.707969 
z
M 244.141827 214.554331 
L 139.011024 48.71365 
L 127.152371 44.235612 
L 124.78064 47.976945 
L 139.011024 53.350592 
L 241.202347 214.554331 
z
" clip-path="url(#p35ef5cdfbc)" style="fill: #b2dd2d; fill-opacity: 0.7"/>
    <path d="M 32.641656 193.323423 
L 27.060389 214.554331 
L 29.029781 214.554331 
L 36.006364 188.015696 
z
M 247.081307 214.554331 
L 139.011024 44.076709 
L 129.524101 40.494278 
L 127.152371 44.235612 
L 139.011024 48.71365 
L 244.141827 214.554331 
z
" clip-path="url(#p35ef5cdfbc)" style="fill: #c5e021; fill-opacity: 0.7"/>
    <path d="M 29.276947 198.63115 
L 25.090996 214.554331 
L 27.060389 214.554331 
L 32.641656 193.323423 
z
M 250.020787 214.554331 
L 139.011024 39.439767 
L 131.895832 36.752944 
L 129.524101 40.494278 
L 139.011024 44.076709 
L 247.081307 214.554331 
z
" clip-path="url(#p35ef5cdfbc)" style="fill: #d5e21a; fill-opacity: 0.7"/>
    <path d="M 25.912238 203.938877 
L 23.121604 214.554331 
L 25.090996 214.554331 
L 29.276947 198.63115 
z
M 252.960267 214.554331 
L 139.011024 34.802826 
L 134.267562 33.011611 
L 131.895832 36.752944 
L 139.011024 39.439767 
L 250.020787 214.554331 
z
" clip-path="url(#p35ef5cdfbc)" style="fill: #e7e419; fill-opacity: 0.7"/>
    <path d="M 22.547529 209.246604 
L 21.152212 214.554331 
L 23.121604 214.554331 
L 25.912238 203.938877 
z
M 255.899747 214.554331 
L 139.011024 30.165885 
L 136.639293 29.270277 
L 134.267562 33.011611 
L 139.011024 34.802826 
L 252.960267 214.554331 
z
" clip-path="url(#p35ef5cdfbc)" style="fill: #f6e620; fill-opacity: 0.7"/>
    <path d="M 21.152212 214.554331 
L 22.547529 209.246604 
L 19.18282 214.554331 
z
M 136.639293 29.270277 
L 139.011024 30.165885 
L 255.899747 214.554331 
L 258.839227 214.554331 
L 139.011024 25.528943 
z
" clip-path="url(#p35ef5cdfbc)" style="fill: #fde725; fill-opacity: 0.7"/>
   </g>
   <g id="matplotlib.axis_1"/>
   <g id="matplotlib.axis_2"/>
   <g id="line2d_1">
    <path d="M 62.756712 214.554331 
L 19.18282 214.554331 
" clip-path="url(#p35ef5cdfbc)" style="fill: none; stroke: #555555; stroke-opacity: 0.9; stroke-width: 0.5; stroke-linecap: square"/>
   </g>
   <g id="line2d_2">
    <path d="M 59.125555 151.545868 
L 79.096922 157.846715 
" clip-path="url(#p35ef5cdfbc)" style="fill: none; stroke: #555555; stroke-opacity: 0.9; stroke-width: 0.5; stroke-linecap: square"/>
   </g>
   <g id="line2d_3">
    <path d="M 59.125555 151.545868 
L 62.756712 214.554331 
" clip-path="url(#p35ef5cdfbc)" style="fill: none; stroke: #555555; stroke-opacity: 0.9; stroke-width: 0.5; stroke-linecap: square"/>
   </g>
   <g id="line2d_4">
    <path d="M 59.125555 151.545868 
L 19.18282 214.554331 
" clip-path="url(#p35ef5cdfbc)" style="fill: none; stroke: #555555; stroke-opacity: 0.9; stroke-width: 0.5; stroke-linecap: square"/>
   </g>
   <g id="line2d_5">
    <path d="M 79.096922 157.846715 
L 82.621281 203.43519 
" clip-path="url(#p35ef5cdfbc)" style="fill: none; stroke: #555555; stroke-opacity: 0.9; stroke-width: 0.5; stroke-linecap: square"/>
   </g>
   <g id="line2d_6">
    <path d="M 79.096922 157.846715 
L 67.114102 176.749253 
" clip-path="url(#p35ef5cdfbc)" style="fill: none; stroke: #555555; stroke-opacity: 0.9; stroke-width: 0.5; stroke-linecap: square"/>
   </g>
   <g id="line2d_7">
    <path d="M 139.011024 214.554331 
L 139.011024 25.528943 
" clip-path="url(#p35ef5cdfbc)" style="fill: none; stroke: #555555; stroke-opacity: 0.9; stroke-width: 0.5; stroke-linecap: square"/>
   </g>
   <g id="line2d_8">
    <path d="M 102.140807 83.690601 
L 87.656079 214.554331 
" clip-path="url(#p35ef5cdfbc)" style="fill: none; stroke: #555555; stroke-opacity: 0.9; stroke-width: 0.5; stroke-linecap: square"/>
   </g>
   <g id="line2d_9">
    <path d="M 109.053973 72.78529 
L 139.011024 214.554331 
" clip-path="url(#p35ef5cdfbc)" style="fill: none; stroke: #555555; stroke-opacity: 0.9; stroke-width: 0.5; stroke-linecap: square"/>
   </g>
   <g id="line2d_10">
    <path d="M 109.053973 72.78529 
L 102.140807 83.690601 
" clip-path="url(#p35ef5cdfbc)" style="fill: none; stroke: #555555; stroke-opacity: 0.9; stroke-width: 0.5; stroke-linecap: square"/>
   </g>
   <g id="line2d_11">
    <path d="M 139.011024 214.554331 
L 102.140807 83.690601 
" clip-path="url(#p35ef5cdfbc)" style="fill: none; stroke: #555555; stroke-opacity: 0.9; stroke-width: 0.5; stroke-linecap: square"/>
   </g>
   <g id="line2d_12">
    <path d="M 87.656079 214.554331 
L 82.621281 203.43519 
" clip-path="url(#p35ef5cdfbc)" style="fill: none; stroke: #555555; stroke-opacity: 0.9; stroke-width: 0.5; stroke-linecap: square"/>
   </g>
   <g id="line2d_13">
    <path d="M 139.011024 25.528943 
L 258.839227 214.554331 
" clip-path="url(#p35ef5cdfbc)" style="fill: none; stroke: #555555; stroke-opacity: 0.9; stroke-width: 0.5; stroke-linecap: square"/>
   </g>
   <g id="line2d_14">
    <path d="M 67.114102 176.749253 
L 82.621281 203.43519 
" clip-path="url(#p35ef5cdfbc)" style="fill: none; stroke: #555555; stroke-opacity: 0.9; stroke-width: 0.5; stroke-linecap: square"/>
   </g>
   <g id="line2d_15">
    <path d="M 62.756712 214.554331 
L 82.621281 203.43519 
" clip-path="url(#p35ef5cdfbc)" style="fill: none; stroke: #555555; stroke-opacity: 0.9; stroke-width: 0.5; stroke-linecap: square"/>
   </g>
   <g id="line2d_16">
    <path d="M 59.125555 151.545868 
L 67.114102 176.749253 
" clip-path="url(#p35ef5cdfbc)" style="fill: none; stroke: #555555; stroke-opacity: 0.9; stroke-width: 0.5; stroke-linecap: square"/>
   </g>
   <g id="line2d_17">
    <path d="M 139.011024 214.554331 
L 87.656079 214.554331 
" clip-path="url(#p35ef5cdfbc)" style="fill: none; stroke: #555555; stroke-opacity: 0.9; stroke-width: 0.5; stroke-linecap: square"/>
   </g>
   <g id="line2d_18">
    <path d="M 139.011024 214.554331 
L 258.839227 214.554331 
" clip-path="url(#p35ef5cdfbc)" style="fill: none; stroke: #555555; stroke-opacity: 0.9; stroke-width: 0.5; stroke-linecap: square"/>
   </g>
   <g id="line2d_19">
    <path d="M 102.140807 83.690601 
L 79.096922 157.846715 
" clip-path="url(#p35ef5cdfbc)" style="fill: none; stroke: #555555; stroke-opacity: 0.9; stroke-width: 0.5; stroke-linecap: square"/>
   </g>
   <g id="line2d_20">
    <path d="M 79.096922 120.041637 
L 102.140807 83.690601 
" clip-path="url(#p35ef5cdfbc)" style="fill: none; stroke: #555555; stroke-opacity: 0.9; stroke-width: 0.5; stroke-linecap: square"/>
   </g>
   <g id="line2d_21">
    <path d="M 79.096922 120.041637 
L 59.125555 151.545868 
" clip-path="url(#p35ef5cdfbc)" style="fill: none; stroke: #555555; stroke-opacity: 0.9; stroke-width: 0.5; stroke-linecap: square"/>
   </g>
   <g id="line2d_22">
    <path d="M 79.096922 120.041637 
L 79.096922 157.846715 
" clip-path="url(#p35ef5cdfbc)" style="fill: none; stroke: #555555; stroke-opacity: 0.9; stroke-width: 0.5; stroke-linecap: square"/>
   </g>
   <g id="line2d_23">
    <path d="M 87.656079 214.554331 
L 79.096922 157.846715 
" clip-path="url(#p35ef5cdfbc)" style="fill: none; stroke: #555555; stroke-opacity: 0.9; stroke-width: 0.5; stroke-linecap: square"/>
   </g>
   <g id="line2d_24">
    <path d="M 87.656079 214.554331 
L 62.756712 214.554331 
" clip-path="url(#p35ef5cdfbc)" style="fill: none; stroke: #555555; stroke-opacity: 0.9; stroke-width: 0.5; stroke-linecap: square"/>
   </g>
   <g id="line2d_25">
    <path d="M 67.114102 176.749253 
L 62.756712 214.554331 
" clip-path="url(#p35ef5cdfbc)" style="fill: none; stroke: #555555; stroke-opacity: 0.9; stroke-width: 0.5; stroke-linecap: square"/>
   </g>
   <g id="line2d_26">
    <path d="M 109.053973 72.78529 
L 139.011024 25.528943 
" clip-path="url(#p35ef5cdfbc)" style="fill: none; stroke: #555555; stroke-opacity: 0.9; stroke-width: 0.5; stroke-linecap: square"/>
   </g>
   <g id="PathCollection_1">
    <defs>
     <path id="m994ebd6758" d="M 0 2.738613 
C 0.726289 2.738613 1.422928 2.450055 1.936492 1.936492 
C 2.450055 1.422928 2.738613 0.726289 2.738613 0 
C 2.738613 -0.726289 2.450055 -1.422928 1.936492 -1.936492 
C 1.422928 -2.450055 0.726289 -2.738613 0 -2.738613 
C -0.726289 -2.738613 -1.422928 -2.450055 -1.936492 -1.936492 
C -2.450055 -1.422928 -2.738613 -0.726289 -2.738613 0 
C -2.738613 0.726289 -2.450055 1.422928 -1.936492 1.936492 
C -1.422928 2.450055 -0.726289 2.738613 0 2.738613 
z
" style="stroke: #008000"/>
    </defs>
    <g clip-path="url(#p35ef5cdfbc)">
     <use xlink:href="#m994ebd6758" x="62.756712" y="214.554331" style="fill: #008000; stroke: #008000"/>
     <use xlink:href="#m994ebd6758" x="19.18282" y="214.554331" style="fill: #008000; stroke: #008000"/>
     <use xlink:href="#m994ebd6758" x="59.125555" y="151.545868" style="fill: #008000; stroke: #008000"/>
     <use xlink:href="#m994ebd6758" x="79.096922" y="157.846715" style="fill: #008000; stroke: #008000"/>
     <use xlink:href="#m994ebd6758" x="82.621281" y="203.43519" style="fill: #008000; stroke: #008000"/>
     <use xlink:href="#m994ebd6758" x="67.114102" y="176.749253" style="fill: #008000; stroke: #008000"/>
     <use xlink:href="#m994ebd6758" x="139.011024" y="214.554331" style="fill: #008000; stroke: #008000"/>
     <use xlink:href="#m994ebd6758" x="139.011024" y="25.528943" style="fill: #008000; stroke: #008000"/>
     <use xlink:href="#m994ebd6758" x="102.140807" y="83.690601" style="fill: #008000; stroke: #008000"/>
     <use xlink:href="#m994ebd6758" x="87.656079" y="214.554331" style="fill: #008000; stroke: #008000"/>
     <use xlink:href="#m994ebd6758" x="109.053973" y="72.78529" style="fill: #008000; stroke: #008000"/>
     <use xlink:href="#m994ebd6758" x="258.839227" y="214.554331" style="fill: #008000; stroke: #008000"/>
     <use xlink:href="#m994ebd6758" x="79.096922" y="120.041637" style="fill: #008000; stroke: #008000"/>
    </g>
   </g>
   <g id="PathCollection_2">
    <defs>
     <path id="m08175f53e9" d="M -0 2.236068 
L 1.341641 0 
L 0 -2.236068 
L -1.341641 -0 
z
" style="stroke: #d3d3d3"/>
    </defs>
    <g clip-path="url(#p35ef5cdfbc)">
     <use xlink:href="#m08175f53e9" x="139.011024" y="25.528943" style="fill: #d3d3d3; stroke: #d3d3d3"/>
     <use xlink:href="#m08175f53e9" x="139.011024" y="25.528943" style="fill: #d3d3d3; stroke: #d3d3d3"/>
     <use xlink:href="#m08175f53e9" x="139.011024" y="25.528943" style="fill: #d3d3d3; stroke: #d3d3d3"/>
     <use xlink:href="#m08175f53e9" x="139.011024" y="25.528943" style="fill: #d3d3d3; stroke: #d3d3d3"/>
     <use xlink:href="#m08175f53e9" x="139.011024" y="25.528943" style="fill: #d3d3d3; stroke: #d3d3d3"/>
     <use xlink:href="#m08175f53e9" x="139.011024" y="25.528943" style="fill: #d3d3d3; stroke: #d3d3d3"/>
     <use xlink:href="#m08175f53e9" x="139.011024" y="25.528943" style="fill: #d3d3d3; stroke: #d3d3d3"/>
     <use xlink:href="#m08175f53e9" x="258.839227" y="214.554331" style="fill: #d3d3d3; stroke: #d3d3d3"/>
     <use xlink:href="#m08175f53e9" x="258.839227" y="214.554331" style="fill: #d3d3d3; stroke: #d3d3d3"/>
     <use xlink:href="#m08175f53e9" x="258.839227" y="214.554331" style="fill: #d3d3d3; stroke: #d3d3d3"/>
     <use xlink:href="#m08175f53e9" x="258.839227" y="214.554331" style="fill: #d3d3d3; stroke: #d3d3d3"/>
     <use xlink:href="#m08175f53e9" x="258.839227" y="214.554331" style="fill: #d3d3d3; stroke: #d3d3d3"/>
     <use xlink:href="#m08175f53e9" x="258.839227" y="214.554331" style="fill: #d3d3d3; stroke: #d3d3d3"/>
     <use xlink:href="#m08175f53e9" x="258.839227" y="214.554331" style="fill: #d3d3d3; stroke: #d3d3d3"/>
     <use xlink:href="#m08175f53e9" x="228.882176" y="167.297984" style="fill: #d3d3d3; stroke: #d3d3d3"/>
     <use xlink:href="#m08175f53e9" x="19.18282" y="214.554331" style="fill: #d3d3d3; stroke: #d3d3d3"/>
     <use xlink:href="#m08175f53e9" x="19.18282" y="214.554331" style="fill: #d3d3d3; stroke: #d3d3d3"/>
     <use xlink:href="#m08175f53e9" x="19.18282" y="214.554331" style="fill: #d3d3d3; stroke: #d3d3d3"/>
     <use xlink:href="#m08175f53e9" x="19.18282" y="214.554331" style="fill: #d3d3d3; stroke: #d3d3d3"/>
     <use xlink:href="#m08175f53e9" x="19.18282" y="214.554331" style="fill: #d3d3d3; stroke: #d3d3d3"/>
     <use xlink:href="#m08175f53e9" x="19.18282" y="214.554331" style="fill: #d3d3d3; stroke: #d3d3d3"/>
     <use xlink:href="#m08175f53e9" x="19.18282" y="214.554331" style="fill: #d3d3d3; stroke: #d3d3d3"/>
     <use xlink:href="#m08175f53e9" x="19.18282" y="214.554331" style="fill: #d3d3d3; stroke: #d3d3d3"/>
     <use xlink:href="#m08175f53e9" x="19.18282" y="214.554331" style="fill: #d3d3d3; stroke: #d3d3d3"/>
     <use xlink:href="#m08175f53e9" x="79.096922" y="120.041637" style="fill: #d3d3d3; stroke: #d3d3d3"/>
     <use xlink:href="#m08175f53e9" x="109.053973" y="72.78529" style="fill: #d3d3d3; stroke: #d3d3d3"/>
     <use xlink:href="#m08175f53e9" x="109.053973" y="72.78529" style="fill: #d3d3d3; stroke: #d3d3d3"/>
     <use xlink:href="#m08175f53e9" x="109.053973" y="72.78529" style="fill: #d3d3d3; stroke: #d3d3d3"/>
     <use xlink:href="#m08175f53e9" x="115.045383" y="63.334021" style="fill: #d3d3d3; stroke: #d3d3d3"/>
     <use xlink:href="#m08175f53e9" x="198.925125" y="214.554331" style="fill: #d3d3d3; stroke: #d3d3d3"/>
     <use xlink:href="#m08175f53e9" x="198.925125" y="214.554331" style="fill: #d3d3d3; stroke: #d3d3d3"/>
     <use xlink:href="#m08175f53e9" x="210.907946" y="214.554331" style="fill: #d3d3d3; stroke: #d3d3d3"/>
     <use xlink:href="#m08175f53e9" x="59.125555" y="151.545868" style="fill: #d3d3d3; stroke: #d3d3d3"/>
     <use xlink:href="#m08175f53e9" x="59.125555" y="151.545868" style="fill: #d3d3d3; stroke: #d3d3d3"/>
     <use xlink:href="#m08175f53e9" x="49.139871" y="167.297984" style="fill: #d3d3d3; stroke: #d3d3d3"/>
     <use xlink:href="#m08175f53e9" x="49.139871" y="167.297984" style="fill: #d3d3d3; stroke: #d3d3d3"/>
     <use xlink:href="#m08175f53e9" x="67.114102" y="138.944176" style="fill: #d3d3d3; stroke: #d3d3d3"/>
     <use xlink:href="#m08175f53e9" x="113.784033" y="65.323762" style="fill: #d3d3d3; stroke: #d3d3d3"/>
     <use xlink:href="#m08175f53e9" x="74.488145" y="156.392673" style="fill: #d3d3d3; stroke: #d3d3d3"/>
     <use xlink:href="#m08175f53e9" x="75.572563" y="214.554331" style="fill: #d3d3d3; stroke: #d3d3d3"/>
     <use xlink:href="#m08175f53e9" x="75.572563" y="214.554331" style="fill: #d3d3d3; stroke: #d3d3d3"/>
     <use xlink:href="#m08175f53e9" x="76.700358" y="214.554331" style="fill: #d3d3d3; stroke: #d3d3d3"/>
    </g>
   </g>
   <g id="text_1">
    <!-- $\mathrm{Al_{9}Co_{2}}$ -->
    <g transform="translate(55.720349 211.218509) scale(0.1 -0.1)">
     <defs>
      <path id="DejaVuSans-41" d="M 2188 4044 
L 1331 1722 
L 3047 1722 
L 2188 4044 
z
M 1831 4666 
L 2547 4666 
L 4325 0 
L 3669 0 
L 3244 1197 
L 1141 1197 
L 716 0 
L 50 0 
L 1831 4666 
z
" transform="scale(0.015625)"/>
      <path id="DejaVuSans-6c" d="M 603 4863 
L 1178 4863 
L 1178 0 
L 603 0 
L 603 4863 
z
" transform="scale(0.015625)"/>
      <path id="DejaVuSans-39" d="M 703 97 
L 703 672 
Q 941 559 1184 500 
Q 1428 441 1663 441 
Q 2288 441 2617 861 
Q 2947 1281 2994 2138 
Q 2813 1869 2534 1725 
Q 2256 1581 1919 1581 
Q 1219 1581 811 2004 
Q 403 2428 403 3163 
Q 403 3881 828 4315 
Q 1253 4750 1959 4750 
Q 2769 4750 3195 4129 
Q 3622 3509 3622 2328 
Q 3622 1225 3098 567 
Q 2575 -91 1691 -91 
Q 1453 -91 1209 -44 
Q 966 3 703 97 
z
M 1959 2075 
Q 2384 2075 2632 2365 
Q 2881 2656 2881 3163 
Q 2881 3666 2632 3958 
Q 2384 4250 1959 4250 
Q 1534 4250 1286 3958 
Q 1038 3666 1038 3163 
Q 1038 2656 1286 2365 
Q 1534 2075 1959 2075 
z
" transform="scale(0.015625)"/>
      <path id="DejaVuSans-43" d="M 4122 4306 
L 4122 3641 
Q 3803 3938 3442 4084 
Q 3081 4231 2675 4231 
Q 1875 4231 1450 3742 
Q 1025 3253 1025 2328 
Q 1025 1406 1450 917 
Q 1875 428 2675 428 
Q 3081 428 3442 575 
Q 3803 722 4122 1019 
L 4122 359 
Q 3791 134 3420 21 
Q 3050 -91 2638 -91 
Q 1578 -91 968 557 
Q 359 1206 359 2328 
Q 359 3453 968 4101 
Q 1578 4750 2638 4750 
Q 3056 4750 3426 4639 
Q 3797 4528 4122 4306 
z
" transform="scale(0.015625)"/>
      <path id="DejaVuSans-6f" d="M 1959 3097 
Q 1497 3097 1228 2736 
Q 959 2375 959 1747 
Q 959 1119 1226 758 
Q 1494 397 1959 397 
Q 2419 397 2687 759 
Q 2956 1122 2956 1747 
Q 2956 2369 2687 2733 
Q 2419 3097 1959 3097 
z
M 1959 3584 
Q 2709 3584 3137 3096 
Q 3566 2609 3566 1747 
Q 3566 888 3137 398 
Q 2709 -91 1959 -91 
Q 1206 -91 779 398 
Q 353 888 353 1747 
Q 353 2609 779 3096 
Q 1206 3584 1959 3584 
z
" transform="scale(0.015625)"/>
      <path id="DejaVuSans-32" d="M 1228 531 
L 3431 531 
L 3431 0 
L 469 0 
L 469 531 
Q 828 903 1448 1529 
Q 2069 2156 2228 2338 
Q 2531 2678 2651 2914 
Q 2772 3150 2772 3378 
Q 2772 3750 2511 3984 
Q 2250 4219 1831 4219 
Q 1534 4219 1204 4116 
Q 875 4013 500 3803 
L 500 4441 
Q 881 4594 1212 4672 
Q 1544 4750 1819 4750 
Q 2544 4750 2975 4387 
Q 3406 4025 3406 3419 
Q 3406 3131 3298 2873 
Q 3191 2616 2906 2266 
Q 2828 2175 2409 1742 
Q 1991 1309 1228 531 
z
" transform="scale(0.015625)"/>
     </defs>
     <use xlink:href="#DejaVuSans-41" transform="translate(0 0.015625)"/>
     <use xlink:href="#DejaVuSans-6c" transform="translate(68.408203 0.015625)"/>
     <use xlink:href="#DejaVuSans-39" transform="translate(97.148438 -16.390625) scale(0.7)"/>
     <use xlink:href="#DejaVuSans-43" transform="translate(144.418945 0.015625)"/>
     <use xlink:href="#DejaVuSans-6f" transform="translate(214.243164 0.015625)"/>
     <use xlink:href="#DejaVuSans-32" transform="translate(276.381836 -16.390625) scale(0.7)"/>
    </g>
   </g>
   <g id="text_2">
    <!-- $\mathrm{Al}$ -->
    <g transform="translate(19.586902 211.839411) scale(0.1 -0.1)">
     <use xlink:href="#DejaVuSans-41" transform="translate(0 0.015625)"/>
     <use xlink:href="#DejaVuSans-6c" transform="translate(68.408203 0.015625)"/>
    </g>
   </g>
   <g id="text_3">
    <!-- $\mathrm{Al_{2}Cu}$ -->
    <g transform="translate(51.771009 144.231756) scale(0.1 -0.1)">
     <defs>
      <path id="DejaVuSans-75" d="M 544 1381 
L 544 3500 
L 1119 3500 
L 1119 1403 
Q 1119 906 1312 657 
Q 1506 409 1894 409 
Q 2359 409 2629 706 
Q 2900 1003 2900 1516 
L 2900 3500 
L 3475 3500 
L 3475 0 
L 2900 0 
L 2900 538 
Q 2691 219 2414 64 
Q 2138 -91 1772 -91 
Q 1169 -91 856 284 
Q 544 659 544 1381 
z
M 1991 3584 
L 1991 3584 
z
" transform="scale(0.015625)"/>
     </defs>
     <use xlink:href="#DejaVuSans-41" transform="translate(0 0.015625)"/>
     <use xlink:href="#DejaVuSans-6c" transform="translate(68.408203 0.015625)"/>
     <use xlink:href="#DejaVuSans-32" transform="translate(97.148438 -16.390625) scale(0.7)"/>
     <use xlink:href="#DejaVuSans-43" transform="translate(144.418945 0.015625)"/>
     <use xlink:href="#DejaVuSans-75" transform="translate(214.243164 0.015625)"/>
    </g>
   </g>
   <g id="text_4">
    <!-- $\mathrm{Al_{6}CoCu_{3}}$ -->
    <g transform="translate(78.501467 153.700293) scale(0.1 -0.1)">
     <defs>
      <path id="DejaVuSans-36" d="M 2113 2584 
Q 1688 2584 1439 2293 
Q 1191 2003 1191 1497 
Q 1191 994 1439 701 
Q 1688 409 2113 409 
Q 2538 409 2786 701 
Q 3034 994 3034 1497 
Q 3034 2003 2786 2293 
Q 2538 2584 2113 2584 
z
M 3366 4563 
L 3366 3988 
Q 3128 4100 2886 4159 
Q 2644 4219 2406 4219 
Q 1781 4219 1451 3797 
Q 1122 3375 1075 2522 
Q 1259 2794 1537 2939 
Q 1816 3084 2150 3084 
Q 2853 3084 3261 2657 
Q 3669 2231 3669 1497 
Q 3669 778 3244 343 
Q 2819 -91 2113 -91 
Q 1303 -91 875 529 
Q 447 1150 447 2328 
Q 447 3434 972 4092 
Q 1497 4750 2381 4750 
Q 2619 4750 2861 4703 
Q 3103 4656 3366 4563 
z
" transform="scale(0.015625)"/>
      <path id="DejaVuSans-33" d="M 2597 2516 
Q 3050 2419 3304 2112 
Q 3559 1806 3559 1356 
Q 3559 666 3084 287 
Q 2609 -91 1734 -91 
Q 1441 -91 1130 -33 
Q 819 25 488 141 
L 488 750 
Q 750 597 1062 519 
Q 1375 441 1716 441 
Q 2309 441 2620 675 
Q 2931 909 2931 1356 
Q 2931 1769 2642 2001 
Q 2353 2234 1838 2234 
L 1294 2234 
L 1294 2753 
L 1863 2753 
Q 2328 2753 2575 2939 
Q 2822 3125 2822 3475 
Q 2822 3834 2567 4026 
Q 2313 4219 1838 4219 
Q 1578 4219 1281 4162 
Q 984 4106 628 3988 
L 628 4550 
Q 988 4650 1302 4700 
Q 1616 4750 1894 4750 
Q 2613 4750 3031 4423 
Q 3450 4097 3450 3541 
Q 3450 3153 3228 2886 
Q 3006 2619 2597 2516 
z
" transform="scale(0.015625)"/>
     </defs>
     <use xlink:href="#DejaVuSans-41" transform="translate(0 0.015625)"/>
     <use xlink:href="#DejaVuSans-6c" transform="translate(68.408203 0.015625)"/>
     <use xlink:href="#DejaVuSans-36" transform="translate(97.148438 -16.390625) scale(0.7)"/>
     <use xlink:href="#DejaVuSans-43" transform="translate(144.418945 0.015625)"/>
     <use xlink:href="#DejaVuSans-6f" transform="translate(214.243164 0.015625)"/>
     <use xlink:href="#DejaVuSans-43" transform="translate(275.424805 0.015625)"/>
     <use xlink:href="#DejaVuSans-75" transform="translate(345.249023 0.015625)"/>
     <use xlink:href="#DejaVuSans-33" transform="translate(409.584961 -16.390625) scale(0.7)"/>
    </g>
   </g>
   <g id="text_5">
    <!-- $\mathrm{Al_{12}Co_{4}Cu}$ -->
    <g transform="translate(75.194008 194.874001) scale(0.1 -0.1)">
     <defs>
      <path id="DejaVuSans-31" d="M 794 531 
L 1825 531 
L 1825 4091 
L 703 3866 
L 703 4441 
L 1819 4666 
L 2450 4666 
L 2450 531 
L 3481 531 
L 3481 0 
L 794 0 
L 794 531 
z
" transform="scale(0.015625)"/>
      <path id="DejaVuSans-34" d="M 2419 4116 
L 825 1625 
L 2419 1625 
L 2419 4116 
z
M 2253 4666 
L 3047 4666 
L 3047 1625 
L 3713 1625 
L 3713 1100 
L 3047 1100 
L 3047 0 
L 2419 0 
L 2419 1100 
L 313 1100 
L 313 1709 
L 2253 4666 
z
" transform="scale(0.015625)"/>
     </defs>
     <use xlink:href="#DejaVuSans-41" transform="translate(0 0.015625)"/>
     <use xlink:href="#DejaVuSans-6c" transform="translate(68.408203 0.015625)"/>
     <use xlink:href="#DejaVuSans-31" transform="translate(97.148438 -16.390625) scale(0.7)"/>
     <use xlink:href="#DejaVuSans-32" transform="translate(141.68457 -16.390625) scale(0.7)"/>
     <use xlink:href="#DejaVuSans-43" transform="translate(188.955078 0.015625)"/>
     <use xlink:href="#DejaVuSans-6f" transform="translate(258.779297 0.015625)"/>
     <use xlink:href="#DejaVuSans-34" transform="translate(320.917969 -16.390625) scale(0.7)"/>
     <use xlink:href="#DejaVuSans-43" transform="translate(368.188477 0.015625)"/>
     <use xlink:href="#DejaVuSans-75" transform="translate(438.012695 0.015625)"/>
    </g>
   </g>
   <g id="text_6">
    <!-- $\mathrm{Al_{7}CoCu_{2}}$ -->
    <g transform="translate(23.318647 185.647136) scale(0.1 -0.1)">
     <defs>
      <path id="DejaVuSans-37" d="M 525 4666 
L 3525 4666 
L 3525 4397 
L 1831 0 
L 1172 0 
L 2766 4134 
L 525 4134 
L 525 4666 
z
" transform="scale(0.015625)"/>
     </defs>
     <use xlink:href="#DejaVuSans-41" transform="translate(0 0.015625)"/>
     <use xlink:href="#DejaVuSans-6c" transform="translate(68.408203 0.015625)"/>
     <use xlink:href="#DejaVuSans-37" transform="translate(97.148438 -16.390625) scale(0.7)"/>
     <use xlink:href="#DejaVuSans-43" transform="translate(144.418945 0.015625)"/>
     <use xlink:href="#DejaVuSans-6f" transform="translate(214.243164 0.015625)"/>
     <use xlink:href="#DejaVuSans-43" transform="translate(275.424805 0.015625)"/>
     <use xlink:href="#DejaVuSans-75" transform="translate(345.249023 0.015625)"/>
     <use xlink:href="#DejaVuSans-32" transform="translate(409.584961 -16.390625) scale(0.7)"/>
    </g>
   </g>
   <g id="text_7">
    <!-- $\mathrm{AlCo}$ -->
    <g transform="translate(132.192842 211.215873) scale(0.1 -0.1)">
     <use xlink:href="#DejaVuSans-41" transform="translate(0 0.015625)"/>
     <use xlink:href="#DejaVuSans-6c" transform="translate(68.408203 0.015625)"/>
     <use xlink:href="#DejaVuSans-43" transform="translate(96.191406 0.015625)"/>
     <use xlink:href="#DejaVuSans-6f" transform="translate(166.015625 0.015625)"/>
    </g>
   </g>
   <g id="text_8">
    <!-- $\mathrm{Cu}$ -->
    <g transform="translate(129.692842 33.725944) scale(0.1 -0.1)">
     <use xlink:href="#DejaVuSans-43" transform="translate(0 0.78125)"/>
     <use xlink:href="#DejaVuSans-75" transform="translate(69.824219 0.78125)"/>
    </g>
   </g>
   <g id="text_9">
    <!-- $\mathrm{Al_{4}Cu_{9}}$ -->
    <g transform="translate(75.36808 93.262022) scale(0.1 -0.1)">
     <use xlink:href="#DejaVuSans-41" transform="translate(0 0.015625)"/>
     <use xlink:href="#DejaVuSans-6c" transform="translate(68.408203 0.015625)"/>
     <use xlink:href="#DejaVuSans-34" transform="translate(97.148438 -16.390625) scale(0.7)"/>
     <use xlink:href="#DejaVuSans-43" transform="translate(144.418945 0.015625)"/>
     <use xlink:href="#DejaVuSans-75" transform="translate(214.243164 0.015625)"/>
     <use xlink:href="#DejaVuSans-39" transform="translate(278.579102 -16.390625) scale(0.7)"/>
    </g>
   </g>
   <g id="text_10">
    <!-- $\mathrm{Al_{5}Co_{2}}$ -->
    <g transform="translate(87.819716 211.842048) scale(0.1 -0.1)">
     <defs>
      <path id="DejaVuSans-35" d="M 691 4666 
L 3169 4666 
L 3169 4134 
L 1269 4134 
L 1269 2991 
Q 1406 3038 1543 3061 
Q 1681 3084 1819 3084 
Q 2600 3084 3056 2656 
Q 3513 2228 3513 1497 
Q 3513 744 3044 326 
Q 2575 -91 1722 -91 
Q 1428 -91 1123 -41 
Q 819 9 494 109 
L 494 744 
Q 775 591 1075 516 
Q 1375 441 1709 441 
Q 2250 441 2565 725 
Q 2881 1009 2881 1497 
Q 2881 1984 2565 2268 
Q 2250 2553 1709 2553 
Q 1456 2553 1204 2497 
Q 953 2441 691 2322 
L 691 4666 
z
" transform="scale(0.015625)"/>
     </defs>
     <use xlink:href="#DejaVuSans-41" transform="translate(0 0.015625)"/>
     <use xlink:href="#DejaVuSans-6c" transform="translate(68.408203 0.015625)"/>
     <use xlink:href="#DejaVuSans-35" transform="translate(97.148438 -16.390625) scale(0.7)"/>
     <use xlink:href="#DejaVuSans-43" transform="translate(144.418945 0.015625)"/>
     <use xlink:href="#DejaVuSans-6f" transform="translate(214.243164 0.015625)"/>
     <use xlink:href="#DejaVuSans-32" transform="translate(276.381836 -16.390625) scale(0.7)"/>
    </g>
   </g>
   <g id="text_11">
    <!-- $\mathrm{AlCu_{3}}$ -->
    <g transform="translate(102.353973 68.638869) scale(0.1 -0.1)">
     <use xlink:href="#DejaVuSans-41" transform="translate(0 0.015625)"/>
     <use xlink:href="#DejaVuSans-6c" transform="translate(68.408203 0.015625)"/>
     <use xlink:href="#DejaVuSans-43" transform="translate(96.191406 0.015625)"/>
     <use xlink:href="#DejaVuSans-75" transform="translate(166.015625 0.015625)"/>
     <use xlink:href="#DejaVuSans-33" transform="translate(230.351562 -16.390625) scale(0.7)"/>
    </g>
   </g>
   <g id="text_12">
    <!-- $\mathrm{Co}$ -->
    <g transform="translate(245.898118 211.527642) scale(0.1 -0.1)">
     <use xlink:href="#DejaVuSans-43" transform="translate(0 0.78125)"/>
     <use xlink:href="#DejaVuSans-6f" transform="translate(69.824219 0.78125)"/>
    </g>
   </g>
   <g id="text_13">
    <!-- $\mathrm{AlCu}$ -->
    <g transform="translate(60.396922 128.238638) scale(0.1 -0.1)">
     <use xlink:href="#DejaVuSans-41" transform="translate(0 0.015625)"/>
     <use xlink:href="#DejaVuSans-6c" transform="translate(68.408203 0.015625)"/>
     <use xlink:href="#DejaVuSans-43" transform="translate(96.191406 0.015625)"/>
     <use xlink:href="#DejaVuSans-75" transform="translate(166.015625 0.015625)"/>
    </g>
   </g>
  </g>
  <g id="axes_2">
   <g id="patch_3">
    <path d="M 287.298425 195.703937 
L 296.029134 195.703937 
L 296.029134 36.96378 
L 287.298425 36.96378 
z
" style="fill: #ffffff"/>
   </g>
   <g id="patch_4">
    <path d="M 287.298425 195.703937 
L 291.66378 203.640945 
L 296.029134 195.703937 
" style="fill: #440154; opacity: 0.7"/>
   </g>
   <g id="patch_5">
    <path d="M 287.298425 36.96378 
L 291.66378 29.026772 
L 296.029134 36.96378 
" style="fill: #fde725; opacity: 0.7"/>
   </g>
   <g id="QuadMesh_1">
    <path d="M 287.298425 195.703937 
L 296.029134 195.703937 
L 296.029134 191.633677 
L 287.298425 191.633677 
L 287.298425 195.703937 
" clip-path="url(#p464d4483bc)" style="fill: #450559; fill-opacity: 0.7"/>
    <path d="M 287.298425 191.633677 
L 296.029134 191.633677 
L 296.029134 187.563416 
L 287.298425 187.563416 
L 287.298425 191.633677 
" clip-path="url(#p464d4483bc)" style="fill: #470e61; fill-opacity: 0.7"/>
    <path d="M 287.298425 187.563416 
L 296.029134 187.563416 
L 296.029134 183.493156 
L 287.298425 183.493156 
L 287.298425 187.563416 
" clip-path="url(#p464d4483bc)" style="fill: #48186a; fill-opacity: 0.7"/>
    <path d="M 287.298425 183.493156 
L 296.029134 183.493156 
L 296.029134 179.422895 
L 287.298425 179.422895 
L 287.298425 183.493156 
" clip-path="url(#p464d4483bc)" style="fill: #482071; fill-opacity: 0.7"/>
    <path d="M 287.298425 179.422895 
L 296.029134 179.422895 
L 296.029134 175.352635 
L 287.298425 175.352635 
L 287.298425 179.422895 
" clip-path="url(#p464d4483bc)" style="fill: #482979; fill-opacity: 0.7"/>
    <path d="M 287.298425 175.352635 
L 296.029134 175.352635 
L 296.029134 171.282374 
L 287.298425 171.282374 
L 287.298425 175.352635 
" clip-path="url(#p464d4483bc)" style="fill: #46327e; fill-opacity: 0.7"/>
    <path d="M 287.298425 171.282374 
L 296.029134 171.282374 
L 296.029134 167.212114 
L 287.298425 167.212114 
L 287.298425 171.282374 
" clip-path="url(#p464d4483bc)" style="fill: #443983; fill-opacity: 0.7"/>
    <path d="M 287.298425 167.212114 
L 296.029134 167.212114 
L 296.029134 163.141853 
L 287.298425 163.141853 
L 287.298425 167.212114 
" clip-path="url(#p464d4483bc)" style="fill: #424186; fill-opacity: 0.7"/>
    <path d="M 287.298425 163.141853 
L 296.029134 163.141853 
L 296.029134 159.071593 
L 287.298425 159.071593 
L 287.298425 163.141853 
" clip-path="url(#p464d4483bc)" style="fill: #3f4889; fill-opacity: 0.7"/>
    <path d="M 287.298425 159.071593 
L 296.029134 159.071593 
L 296.029134 155.001333 
L 287.298425 155.001333 
L 287.298425 159.071593 
" clip-path="url(#p464d4483bc)" style="fill: #3c508b; fill-opacity: 0.7"/>
    <path d="M 287.298425 155.001333 
L 296.029134 155.001333 
L 296.029134 150.931072 
L 287.298425 150.931072 
L 287.298425 155.001333 
" clip-path="url(#p464d4483bc)" style="fill: #39568c; fill-opacity: 0.7"/>
    <path d="M 287.298425 150.931072 
L 296.029134 150.931072 
L 296.029134 146.860812 
L 287.298425 146.860812 
L 287.298425 150.931072 
" clip-path="url(#p464d4483bc)" style="fill: #355e8d; fill-opacity: 0.7"/>
    <path d="M 287.298425 146.860812 
L 296.029134 146.860812 
L 296.029134 142.790551 
L 287.298425 142.790551 
L 287.298425 146.860812 
" clip-path="url(#p464d4483bc)" style="fill: #32658e; fill-opacity: 0.7"/>
    <path d="M 287.298425 142.790551 
L 296.029134 142.790551 
L 296.029134 138.720291 
L 287.298425 138.720291 
L 287.298425 142.790551 
" clip-path="url(#p464d4483bc)" style="fill: #2f6b8e; fill-opacity: 0.7"/>
    <path d="M 287.298425 138.720291 
L 296.029134 138.720291 
L 296.029134 134.65003 
L 287.298425 134.65003 
L 287.298425 138.720291 
" clip-path="url(#p464d4483bc)" style="fill: #2c718e; fill-opacity: 0.7"/>
    <path d="M 287.298425 134.65003 
L 296.029134 134.65003 
L 296.029134 130.57977 
L 287.298425 130.57977 
L 287.298425 134.65003 
" clip-path="url(#p464d4483bc)" style="fill: #2a778e; fill-opacity: 0.7"/>
    <path d="M 287.298425 130.57977 
L 296.029134 130.57977 
L 296.029134 126.509509 
L 287.298425 126.509509 
L 287.298425 130.57977 
" clip-path="url(#p464d4483bc)" style="fill: #277e8e; fill-opacity: 0.7"/>
    <path d="M 287.298425 126.509509 
L 296.029134 126.509509 
L 296.029134 122.439249 
L 287.298425 122.439249 
L 287.298425 126.509509 
" clip-path="url(#p464d4483bc)" style="fill: #25838e; fill-opacity: 0.7"/>
    <path d="M 287.298425 122.439249 
L 296.029134 122.439249 
L 296.029134 118.368988 
L 287.298425 118.368988 
L 287.298425 122.439249 
" clip-path="url(#p464d4483bc)" style="fill: #238a8d; fill-opacity: 0.7"/>
    <path d="M 287.298425 118.368988 
L 296.029134 118.368988 
L 296.029134 114.298728 
L 287.298425 114.298728 
L 287.298425 118.368988 
" clip-path="url(#p464d4483bc)" style="fill: #21918c; fill-opacity: 0.7"/>
    <path d="M 287.298425 114.298728 
L 296.029134 114.298728 
L 296.029134 110.228468 
L 287.298425 110.228468 
L 287.298425 114.298728 
" clip-path="url(#p464d4483bc)" style="fill: #1f968b; fill-opacity: 0.7"/>
    <path d="M 287.298425 110.228468 
L 296.029134 110.228468 
L 296.029134 106.158207 
L 287.298425 106.158207 
L 287.298425 110.228468 
" clip-path="url(#p464d4483bc)" style="fill: #1e9d89; fill-opacity: 0.7"/>
    <path d="M 287.298425 106.158207 
L 296.029134 106.158207 
L 296.029134 102.087947 
L 287.298425 102.087947 
L 287.298425 106.158207 
" clip-path="url(#p464d4483bc)" style="fill: #1fa287; fill-opacity: 0.7"/>
    <path d="M 287.298425 102.087947 
L 296.029134 102.087947 
L 296.029134 98.017686 
L 287.298425 98.017686 
L 287.298425 102.087947 
" clip-path="url(#p464d4483bc)" style="fill: #23a983; fill-opacity: 0.7"/>
    <path d="M 287.298425 98.017686 
L 296.029134 98.017686 
L 296.029134 93.947426 
L 287.298425 93.947426 
L 287.298425 98.017686 
" clip-path="url(#p464d4483bc)" style="fill: #28ae80; fill-opacity: 0.7"/>
    <path d="M 287.298425 93.947426 
L 296.029134 93.947426 
L 296.029134 89.877165 
L 287.298425 89.877165 
L 287.298425 93.947426 
" clip-path="url(#p464d4483bc)" style="fill: #31b57b; fill-opacity: 0.7"/>
    <path d="M 287.298425 89.877165 
L 296.029134 89.877165 
L 296.029134 85.806905 
L 287.298425 85.806905 
L 287.298425 89.877165 
" clip-path="url(#p464d4483bc)" style="fill: #3aba76; fill-opacity: 0.7"/>
    <path d="M 287.298425 85.806905 
L 296.029134 85.806905 
L 296.029134 81.736644 
L 287.298425 81.736644 
L 287.298425 85.806905 
" clip-path="url(#p464d4483bc)" style="fill: #46c06f; fill-opacity: 0.7"/>
    <path d="M 287.298425 81.736644 
L 296.029134 81.736644 
L 296.029134 77.666384 
L 287.298425 77.666384 
L 287.298425 81.736644 
" clip-path="url(#p464d4483bc)" style="fill: #54c568; fill-opacity: 0.7"/>
    <path d="M 287.298425 77.666384 
L 296.029134 77.666384 
L 296.029134 73.596124 
L 287.298425 73.596124 
L 287.298425 77.666384 
" clip-path="url(#p464d4483bc)" style="fill: #60ca60; fill-opacity: 0.7"/>
    <path d="M 287.298425 73.596124 
L 296.029134 73.596124 
L 296.029134 69.525863 
L 287.298425 69.525863 
L 287.298425 73.596124 
" clip-path="url(#p464d4483bc)" style="fill: #70cf57; fill-opacity: 0.7"/>
    <path d="M 287.298425 69.525863 
L 296.029134 69.525863 
L 296.029134 65.455603 
L 287.298425 65.455603 
L 287.298425 69.525863 
" clip-path="url(#p464d4483bc)" style="fill: #7fd34e; fill-opacity: 0.7"/>
    <path d="M 287.298425 65.455603 
L 296.029134 65.455603 
L 296.029134 61.385342 
L 287.298425 61.385342 
L 287.298425 65.455603 
" clip-path="url(#p464d4483bc)" style="fill: #90d743; fill-opacity: 0.7"/>
    <path d="M 287.298425 61.385342 
L 296.029134 61.385342 
L 296.029134 57.315082 
L 287.298425 57.315082 
L 287.298425 61.385342 
" clip-path="url(#p464d4483bc)" style="fill: #a0da39; fill-opacity: 0.7"/>
    <path d="M 287.298425 57.315082 
L 296.029134 57.315082 
L 296.029134 53.244821 
L 287.298425 53.244821 
L 287.298425 57.315082 
" clip-path="url(#p464d4483bc)" style="fill: #b2dd2d; fill-opacity: 0.7"/>
    <path d="M 287.298425 53.244821 
L 296.029134 53.244821 
L 296.029134 49.174561 
L 287.298425 49.174561 
L 287.298425 53.244821 
" clip-path="url(#p464d4483bc)" style="fill: #c5e021; fill-opacity: 0.7"/>
    <path d="M 287.298425 49.174561 
L 296.029134 49.174561 
L 296.029134 45.1043 
L 287.298425 45.1043 
L 287.298425 49.174561 
" clip-path="url(#p464d4483bc)" style="fill: #d5e21a; fill-opacity: 0.7"/>
    <path d="M 287.298425 45.1043 
L 296.029134 45.1043 
L 296.029134 41.03404 
L 287.298425 41.03404 
L 287.298425 45.1043 
" clip-path="url(#p464d4483bc)" style="fill: #e7e419; fill-opacity: 0.7"/>
    <path d="M 287.298425 41.03404 
L 296.029134 41.03404 
L 296.029134 36.96378 
L 287.298425 36.96378 
L 287.298425 41.03404 
" clip-path="url(#p464d4483bc)" style="fill: #f6e620; fill-opacity: 0.7"/>
   </g>
   <g id="matplotlib.axis_3"/>
   <g id="matplotlib.axis_4">
    <g id="ytick_1">
     <g id="line2d_27">
      <defs>
       <path id="me893b6ada4" d="M 0 0 
L -2 0 
" style="stroke: #000000; stroke-width: 0.3"/>
      </defs>
      <g>
       <use xlink:href="#me893b6ada4" x="296.029134" y="183.493156" style="stroke: #000000; stroke-width: 0.3"/>
      </g>
     </g>
     <g id="text_14">
      <!-- 0.555 -->
      <g transform="translate(299.529134 186.356281) scale(0.08 -0.08)">
       <defs>
        <path id="ArialMT-2212" d="M 3381 1997 
L 356 1997 
L 356 2522 
L 3381 2522 
L 3381 1997 
z
" transform="scale(0.015625)"/>
        <path id="ArialMT-30" d="M 266 2259 
Q 266 3072 433 3567 
Q 600 4063 929 4331 
Q 1259 4600 1759 4600 
Q 2128 4600 2406 4451 
Q 2684 4303 2865 4023 
Q 3047 3744 3150 3342 
Q 3253 2941 3253 2259 
Q 3253 1453 3087 958 
Q 2922 463 2592 192 
Q 2263 -78 1759 -78 
Q 1097 -78 719 397 
Q 266 969 266 2259 
z
M 844 2259 
Q 844 1131 1108 757 
Q 1372 384 1759 384 
Q 2147 384 2411 759 
Q 2675 1134 2675 2259 
Q 2675 3391 2411 3762 
Q 2147 4134 1753 4134 
Q 1366 4134 1134 3806 
Q 844 3388 844 2259 
z
" transform="scale(0.015625)"/>
        <path id="ArialMT-2e" d="M 581 0 
L 581 641 
L 1222 641 
L 1222 0 
L 581 0 
z
" transform="scale(0.015625)"/>
        <path id="ArialMT-35" d="M 266 1200 
L 856 1250 
Q 922 819 1161 601 
Q 1400 384 1738 384 
Q 2144 384 2425 690 
Q 2706 997 2706 1503 
Q 2706 1984 2436 2262 
Q 2166 2541 1728 2541 
Q 1456 2541 1237 2417 
Q 1019 2294 894 2097 
L 366 2166 
L 809 4519 
L 3088 4519 
L 3088 3981 
L 1259 3981 
L 1013 2750 
Q 1425 3038 1878 3038 
Q 2478 3038 2890 2622 
Q 3303 2206 3303 1553 
Q 3303 931 2941 478 
Q 2500 -78 1738 -78 
Q 1113 -78 717 272 
Q 322 622 266 1200 
z
" transform="scale(0.015625)"/>
       </defs>
       <use xlink:href="#ArialMT-2212"/>
       <use xlink:href="#ArialMT-30" transform="translate(58.398438 0)"/>
       <use xlink:href="#ArialMT-2e" transform="translate(114.013672 0)"/>
       <use xlink:href="#ArialMT-35" transform="translate(141.796875 0)"/>
       <use xlink:href="#ArialMT-35" transform="translate(197.412109 0)"/>
       <use xlink:href="#ArialMT-35" transform="translate(253.027344 0)"/>
      </g>
     </g>
    </g>
    <g id="ytick_2">
     <g id="line2d_28">
      <g>
       <use xlink:href="#me893b6ada4" x="296.029134" y="167.212114" style="stroke: #000000; stroke-width: 0.3"/>
      </g>
     </g>
     <g id="text_15">
      <!-- 0.495 -->
      <g transform="translate(299.529134 170.075239) scale(0.08 -0.08)">
       <defs>
        <path id="ArialMT-34" d="M 2069 0 
L 2069 1097 
L 81 1097 
L 81 1613 
L 2172 4581 
L 2631 4581 
L 2631 1613 
L 3250 1613 
L 3250 1097 
L 2631 1097 
L 2631 0 
L 2069 0 
z
M 2069 1613 
L 2069 3678 
L 634 1613 
L 2069 1613 
z
" transform="scale(0.015625)"/>
        <path id="ArialMT-39" d="M 350 1059 
L 891 1109 
Q 959 728 1153 556 
Q 1347 384 1650 384 
Q 1909 384 2104 503 
Q 2300 622 2425 820 
Q 2550 1019 2634 1356 
Q 2719 1694 2719 2044 
Q 2719 2081 2716 2156 
Q 2547 1888 2255 1720 
Q 1963 1553 1622 1553 
Q 1053 1553 659 1965 
Q 266 2378 266 3053 
Q 266 3750 677 4175 
Q 1088 4600 1706 4600 
Q 2153 4600 2523 4359 
Q 2894 4119 3086 3673 
Q 3278 3228 3278 2384 
Q 3278 1506 3087 986 
Q 2897 466 2520 194 
Q 2144 -78 1638 -78 
Q 1100 -78 759 220 
Q 419 519 350 1059 
z
M 2653 3081 
Q 2653 3566 2395 3850 
Q 2138 4134 1775 4134 
Q 1400 4134 1122 3828 
Q 844 3522 844 3034 
Q 844 2597 1108 2323 
Q 1372 2050 1759 2050 
Q 2150 2050 2401 2323 
Q 2653 2597 2653 3081 
z
" transform="scale(0.015625)"/>
       </defs>
       <use xlink:href="#ArialMT-2212"/>
       <use xlink:href="#ArialMT-30" transform="translate(58.398438 0)"/>
       <use xlink:href="#ArialMT-2e" transform="translate(114.013672 0)"/>
       <use xlink:href="#ArialMT-34" transform="translate(141.796875 0)"/>
       <use xlink:href="#ArialMT-39" transform="translate(197.412109 0)"/>
       <use xlink:href="#ArialMT-35" transform="translate(253.027344 0)"/>
      </g>
     </g>
    </g>
    <g id="ytick_3">
     <g id="line2d_29">
      <g>
       <use xlink:href="#me893b6ada4" x="296.029134" y="150.931072" style="stroke: #000000; stroke-width: 0.3"/>
      </g>
     </g>
     <g id="text_16">
      <!-- 0.435 -->
      <g transform="translate(299.529134 153.794197) scale(0.08 -0.08)">
       <defs>
        <path id="ArialMT-33" d="M 269 1209 
L 831 1284 
Q 928 806 1161 595 
Q 1394 384 1728 384 
Q 2125 384 2398 659 
Q 2672 934 2672 1341 
Q 2672 1728 2419 1979 
Q 2166 2231 1775 2231 
Q 1616 2231 1378 2169 
L 1441 2663 
Q 1497 2656 1531 2656 
Q 1891 2656 2178 2843 
Q 2466 3031 2466 3422 
Q 2466 3731 2256 3934 
Q 2047 4138 1716 4138 
Q 1388 4138 1169 3931 
Q 950 3725 888 3313 
L 325 3413 
Q 428 3978 793 4289 
Q 1159 4600 1703 4600 
Q 2078 4600 2393 4439 
Q 2709 4278 2876 4000 
Q 3044 3722 3044 3409 
Q 3044 3113 2884 2869 
Q 2725 2625 2413 2481 
Q 2819 2388 3044 2092 
Q 3269 1797 3269 1353 
Q 3269 753 2831 336 
Q 2394 -81 1725 -81 
Q 1122 -81 723 278 
Q 325 638 269 1209 
z
" transform="scale(0.015625)"/>
       </defs>
       <use xlink:href="#ArialMT-2212"/>
       <use xlink:href="#ArialMT-30" transform="translate(58.398438 0)"/>
       <use xlink:href="#ArialMT-2e" transform="translate(114.013672 0)"/>
       <use xlink:href="#ArialMT-34" transform="translate(141.796875 0)"/>
       <use xlink:href="#ArialMT-33" transform="translate(197.412109 0)"/>
       <use xlink:href="#ArialMT-35" transform="translate(253.027344 0)"/>
      </g>
     </g>
    </g>
    <g id="ytick_4">
     <g id="line2d_30">
      <g>
       <use xlink:href="#me893b6ada4" x="296.029134" y="134.65003" style="stroke: #000000; stroke-width: 0.3"/>
      </g>
     </g>
     <g id="text_17">
      <!-- 0.375 -->
      <g transform="translate(299.529134 137.513155) scale(0.08 -0.08)">
       <defs>
        <path id="ArialMT-37" d="M 303 3981 
L 303 4522 
L 3269 4522 
L 3269 4084 
Q 2831 3619 2401 2847 
Q 1972 2075 1738 1259 
Q 1569 684 1522 0 
L 944 0 
Q 953 541 1156 1306 
Q 1359 2072 1739 2783 
Q 2119 3494 2547 3981 
L 303 3981 
z
" transform="scale(0.015625)"/>
       </defs>
       <use xlink:href="#ArialMT-2212"/>
       <use xlink:href="#ArialMT-30" transform="translate(58.398438 0)"/>
       <use xlink:href="#ArialMT-2e" transform="translate(114.013672 0)"/>
       <use xlink:href="#ArialMT-33" transform="translate(141.796875 0)"/>
       <use xlink:href="#ArialMT-37" transform="translate(197.412109 0)"/>
       <use xlink:href="#ArialMT-35" transform="translate(253.027344 0)"/>
      </g>
     </g>
    </g>
    <g id="ytick_5">
     <g id="line2d_31">
      <g>
       <use xlink:href="#me893b6ada4" x="296.029134" y="118.368988" style="stroke: #000000; stroke-width: 0.3"/>
      </g>
     </g>
     <g id="text_18">
      <!-- 0.315 -->
      <g transform="translate(299.529134 121.232113) scale(0.08 -0.08)">
       <defs>
        <path id="ArialMT-31" d="M 2384 0 
L 1822 0 
L 1822 3584 
Q 1619 3391 1289 3197 
Q 959 3003 697 2906 
L 697 3450 
Q 1169 3672 1522 3987 
Q 1875 4303 2022 4600 
L 2384 4600 
L 2384 0 
z
" transform="scale(0.015625)"/>
       </defs>
       <use xlink:href="#ArialMT-2212"/>
       <use xlink:href="#ArialMT-30" transform="translate(58.398438 0)"/>
       <use xlink:href="#ArialMT-2e" transform="translate(114.013672 0)"/>
       <use xlink:href="#ArialMT-33" transform="translate(141.796875 0)"/>
       <use xlink:href="#ArialMT-31" transform="translate(197.412109 0)"/>
       <use xlink:href="#ArialMT-35" transform="translate(253.027344 0)"/>
      </g>
     </g>
    </g>
    <g id="ytick_6">
     <g id="line2d_32">
      <g>
       <use xlink:href="#me893b6ada4" x="296.029134" y="102.087947" style="stroke: #000000; stroke-width: 0.3"/>
      </g>
     </g>
     <g id="text_19">
      <!-- 0.255 -->
      <g transform="translate(299.529134 104.951072) scale(0.08 -0.08)">
       <defs>
        <path id="ArialMT-32" d="M 3222 541 
L 3222 0 
L 194 0 
Q 188 203 259 391 
Q 375 700 629 1000 
Q 884 1300 1366 1694 
Q 2113 2306 2375 2664 
Q 2638 3022 2638 3341 
Q 2638 3675 2398 3904 
Q 2159 4134 1775 4134 
Q 1369 4134 1125 3890 
Q 881 3647 878 3216 
L 300 3275 
Q 359 3922 746 4261 
Q 1134 4600 1788 4600 
Q 2447 4600 2831 4234 
Q 3216 3869 3216 3328 
Q 3216 3053 3103 2787 
Q 2991 2522 2730 2228 
Q 2469 1934 1863 1422 
Q 1356 997 1212 845 
Q 1069 694 975 541 
L 3222 541 
z
" transform="scale(0.015625)"/>
       </defs>
       <use xlink:href="#ArialMT-2212"/>
       <use xlink:href="#ArialMT-30" transform="translate(58.398438 0)"/>
       <use xlink:href="#ArialMT-2e" transform="translate(114.013672 0)"/>
       <use xlink:href="#ArialMT-32" transform="translate(141.796875 0)"/>
       <use xlink:href="#ArialMT-35" transform="translate(197.412109 0)"/>
       <use xlink:href="#ArialMT-35" transform="translate(253.027344 0)"/>
      </g>
     </g>
    </g>
    <g id="ytick_7">
     <g id="line2d_33">
      <g>
       <use xlink:href="#me893b6ada4" x="296.029134" y="85.806905" style="stroke: #000000; stroke-width: 0.3"/>
      </g>
     </g>
     <g id="text_20">
      <!-- 0.195 -->
      <g transform="translate(299.529134 88.67003) scale(0.08 -0.08)">
       <use xlink:href="#ArialMT-2212"/>
       <use xlink:href="#ArialMT-30" transform="translate(58.398438 0)"/>
       <use xlink:href="#ArialMT-2e" transform="translate(114.013672 0)"/>
       <use xlink:href="#ArialMT-31" transform="translate(141.796875 0)"/>
       <use xlink:href="#ArialMT-39" transform="translate(197.412109 0)"/>
       <use xlink:href="#ArialMT-35" transform="translate(253.027344 0)"/>
      </g>
     </g>
    </g>
    <g id="ytick_8">
     <g id="line2d_34">
      <g>
       <use xlink:href="#me893b6ada4" x="296.029134" y="69.525863" style="stroke: #000000; stroke-width: 0.3"/>
      </g>
     </g>
     <g id="text_21">
      <!-- 0.135 -->
      <g transform="translate(299.529134 72.388988) scale(0.08 -0.08)">
       <use xlink:href="#ArialMT-2212"/>
       <use xlink:href="#ArialMT-30" transform="translate(58.398438 0)"/>
       <use xlink:href="#ArialMT-2e" transform="translate(114.013672 0)"/>
       <use xlink:href="#ArialMT-31" transform="translate(141.796875 0)"/>
       <use xlink:href="#ArialMT-33" transform="translate(197.412109 0)"/>
       <use xlink:href="#ArialMT-35" transform="translate(253.027344 0)"/>
      </g>
     </g>
    </g>
    <g id="ytick_9">
     <g id="line2d_35">
      <g>
       <use xlink:href="#me893b6ada4" x="296.029134" y="53.244821" style="stroke: #000000; stroke-width: 0.3"/>
      </g>
     </g>
     <g id="text_22">
      <!-- 0.075 -->
      <g transform="translate(299.529134 56.107946) scale(0.08 -0.08)">
       <use xlink:href="#ArialMT-2212"/>
       <use xlink:href="#ArialMT-30" transform="translate(58.398438 0)"/>
       <use xlink:href="#ArialMT-2e" transform="translate(114.013672 0)"/>
       <use xlink:href="#ArialMT-30" transform="translate(141.796875 0)"/>
       <use xlink:href="#ArialMT-37" transform="translate(197.412109 0)"/>
       <use xlink:href="#ArialMT-35" transform="translate(253.027344 0)"/>
      </g>
     </g>
    </g>
    <g id="ytick_10">
     <g id="line2d_36">
      <g>
       <use xlink:href="#me893b6ada4" x="296.029134" y="36.96378" style="stroke: #000000; stroke-width: 0.3"/>
      </g>
     </g>
     <g id="text_23">
      <!-- 0.015 -->
      <g transform="translate(299.529134 39.826905) scale(0.08 -0.08)">
       <use xlink:href="#ArialMT-2212"/>
       <use xlink:href="#ArialMT-30" transform="translate(58.398438 0)"/>
       <use xlink:href="#ArialMT-2e" transform="translate(114.013672 0)"/>
       <use xlink:href="#ArialMT-30" transform="translate(141.796875 0)"/>
       <use xlink:href="#ArialMT-31" transform="translate(197.412109 0)"/>
       <use xlink:href="#ArialMT-35" transform="translate(253.027344 0)"/>
      </g>
     </g>
    </g>
    <g id="text_24">
     <!-- Formation Energy (eV/atom) -->
     <g transform="translate(335.498821 179.408077) rotate(-90) scale(0.1 -0.1)">
      <defs>
       <path id="ArialMT-46" d="M 525 0 
L 525 4581 
L 3616 4581 
L 3616 4041 
L 1131 4041 
L 1131 2622 
L 3281 2622 
L 3281 2081 
L 1131 2081 
L 1131 0 
L 525 0 
z
" transform="scale(0.015625)"/>
       <path id="ArialMT-6f" d="M 213 1659 
Q 213 2581 725 3025 
Q 1153 3394 1769 3394 
Q 2453 3394 2887 2945 
Q 3322 2497 3322 1706 
Q 3322 1066 3130 698 
Q 2938 331 2570 128 
Q 2203 -75 1769 -75 
Q 1072 -75 642 372 
Q 213 819 213 1659 
z
M 791 1659 
Q 791 1022 1069 705 
Q 1347 388 1769 388 
Q 2188 388 2466 706 
Q 2744 1025 2744 1678 
Q 2744 2294 2464 2611 
Q 2184 2928 1769 2928 
Q 1347 2928 1069 2612 
Q 791 2297 791 1659 
z
" transform="scale(0.015625)"/>
       <path id="ArialMT-72" d="M 416 0 
L 416 3319 
L 922 3319 
L 922 2816 
Q 1116 3169 1280 3281 
Q 1444 3394 1641 3394 
Q 1925 3394 2219 3213 
L 2025 2691 
Q 1819 2813 1613 2813 
Q 1428 2813 1281 2702 
Q 1134 2591 1072 2394 
Q 978 2094 978 1738 
L 978 0 
L 416 0 
z
" transform="scale(0.015625)"/>
       <path id="ArialMT-6d" d="M 422 0 
L 422 3319 
L 925 3319 
L 925 2853 
Q 1081 3097 1340 3245 
Q 1600 3394 1931 3394 
Q 2300 3394 2536 3241 
Q 2772 3088 2869 2813 
Q 3263 3394 3894 3394 
Q 4388 3394 4653 3120 
Q 4919 2847 4919 2278 
L 4919 0 
L 4359 0 
L 4359 2091 
Q 4359 2428 4304 2576 
Q 4250 2725 4106 2815 
Q 3963 2906 3769 2906 
Q 3419 2906 3187 2673 
Q 2956 2441 2956 1928 
L 2956 0 
L 2394 0 
L 2394 2156 
Q 2394 2531 2256 2718 
Q 2119 2906 1806 2906 
Q 1569 2906 1367 2781 
Q 1166 2656 1075 2415 
Q 984 2175 984 1722 
L 984 0 
L 422 0 
z
" transform="scale(0.015625)"/>
       <path id="ArialMT-61" d="M 2588 409 
Q 2275 144 1986 34 
Q 1697 -75 1366 -75 
Q 819 -75 525 192 
Q 231 459 231 875 
Q 231 1119 342 1320 
Q 453 1522 633 1644 
Q 813 1766 1038 1828 
Q 1203 1872 1538 1913 
Q 2219 1994 2541 2106 
Q 2544 2222 2544 2253 
Q 2544 2597 2384 2738 
Q 2169 2928 1744 2928 
Q 1347 2928 1158 2789 
Q 969 2650 878 2297 
L 328 2372 
Q 403 2725 575 2942 
Q 747 3159 1072 3276 
Q 1397 3394 1825 3394 
Q 2250 3394 2515 3294 
Q 2781 3194 2906 3042 
Q 3031 2891 3081 2659 
Q 3109 2516 3109 2141 
L 3109 1391 
Q 3109 606 3145 398 
Q 3181 191 3288 0 
L 2700 0 
Q 2613 175 2588 409 
z
M 2541 1666 
Q 2234 1541 1622 1453 
Q 1275 1403 1131 1340 
Q 988 1278 909 1158 
Q 831 1038 831 891 
Q 831 666 1001 516 
Q 1172 366 1500 366 
Q 1825 366 2078 508 
Q 2331 650 2450 897 
Q 2541 1088 2541 1459 
L 2541 1666 
z
" transform="scale(0.015625)"/>
       <path id="ArialMT-74" d="M 1650 503 
L 1731 6 
Q 1494 -44 1306 -44 
Q 1000 -44 831 53 
Q 663 150 594 308 
Q 525 466 525 972 
L 525 2881 
L 113 2881 
L 113 3319 
L 525 3319 
L 525 4141 
L 1084 4478 
L 1084 3319 
L 1650 3319 
L 1650 2881 
L 1084 2881 
L 1084 941 
Q 1084 700 1114 631 
Q 1144 563 1211 522 
Q 1278 481 1403 481 
Q 1497 481 1650 503 
z
" transform="scale(0.015625)"/>
       <path id="ArialMT-69" d="M 425 3934 
L 425 4581 
L 988 4581 
L 988 3934 
L 425 3934 
z
M 425 0 
L 425 3319 
L 988 3319 
L 988 0 
L 425 0 
z
" transform="scale(0.015625)"/>
       <path id="ArialMT-6e" d="M 422 0 
L 422 3319 
L 928 3319 
L 928 2847 
Q 1294 3394 1984 3394 
Q 2284 3394 2536 3286 
Q 2788 3178 2913 3003 
Q 3038 2828 3088 2588 
Q 3119 2431 3119 2041 
L 3119 0 
L 2556 0 
L 2556 2019 
Q 2556 2363 2490 2533 
Q 2425 2703 2258 2804 
Q 2091 2906 1866 2906 
Q 1506 2906 1245 2678 
Q 984 2450 984 1813 
L 984 0 
L 422 0 
z
" transform="scale(0.015625)"/>
       <path id="ArialMT-20" transform="scale(0.015625)"/>
       <path id="ArialMT-45" d="M 506 0 
L 506 4581 
L 3819 4581 
L 3819 4041 
L 1113 4041 
L 1113 2638 
L 3647 2638 
L 3647 2100 
L 1113 2100 
L 1113 541 
L 3925 541 
L 3925 0 
L 506 0 
z
" transform="scale(0.015625)"/>
       <path id="ArialMT-65" d="M 2694 1069 
L 3275 997 
Q 3138 488 2766 206 
Q 2394 -75 1816 -75 
Q 1088 -75 661 373 
Q 234 822 234 1631 
Q 234 2469 665 2931 
Q 1097 3394 1784 3394 
Q 2450 3394 2872 2941 
Q 3294 2488 3294 1666 
Q 3294 1616 3291 1516 
L 816 1516 
Q 847 969 1125 678 
Q 1403 388 1819 388 
Q 2128 388 2347 550 
Q 2566 713 2694 1069 
z
M 847 1978 
L 2700 1978 
Q 2663 2397 2488 2606 
Q 2219 2931 1791 2931 
Q 1403 2931 1139 2672 
Q 875 2413 847 1978 
z
" transform="scale(0.015625)"/>
       <path id="ArialMT-67" d="M 319 -275 
L 866 -356 
Q 900 -609 1056 -725 
Q 1266 -881 1628 -881 
Q 2019 -881 2231 -725 
Q 2444 -569 2519 -288 
Q 2563 -116 2559 434 
Q 2191 0 1641 0 
Q 956 0 581 494 
Q 206 988 206 1678 
Q 206 2153 378 2554 
Q 550 2956 876 3175 
Q 1203 3394 1644 3394 
Q 2231 3394 2613 2919 
L 2613 3319 
L 3131 3319 
L 3131 450 
Q 3131 -325 2973 -648 
Q 2816 -972 2473 -1159 
Q 2131 -1347 1631 -1347 
Q 1038 -1347 672 -1080 
Q 306 -813 319 -275 
z
M 784 1719 
Q 784 1066 1043 766 
Q 1303 466 1694 466 
Q 2081 466 2343 764 
Q 2606 1063 2606 1700 
Q 2606 2309 2336 2618 
Q 2066 2928 1684 2928 
Q 1309 2928 1046 2623 
Q 784 2319 784 1719 
z
" transform="scale(0.015625)"/>
       <path id="ArialMT-79" d="M 397 -1278 
L 334 -750 
Q 519 -800 656 -800 
Q 844 -800 956 -737 
Q 1069 -675 1141 -563 
Q 1194 -478 1313 -144 
Q 1328 -97 1363 -6 
L 103 3319 
L 709 3319 
L 1400 1397 
Q 1534 1031 1641 628 
Q 1738 1016 1872 1384 
L 2581 3319 
L 3144 3319 
L 1881 -56 
Q 1678 -603 1566 -809 
Q 1416 -1088 1222 -1217 
Q 1028 -1347 759 -1347 
Q 597 -1347 397 -1278 
z
" transform="scale(0.015625)"/>
       <path id="ArialMT-28" d="M 1497 -1347 
Q 1031 -759 709 28 
Q 388 816 388 1659 
Q 388 2403 628 3084 
Q 909 3875 1497 4659 
L 1900 4659 
Q 1522 4009 1400 3731 
Q 1209 3300 1100 2831 
Q 966 2247 966 1656 
Q 966 153 1900 -1347 
L 1497 -1347 
z
" transform="scale(0.015625)"/>
       <path id="ArialMT-56" d="M 1803 0 
L 28 4581 
L 684 4581 
L 1875 1253 
Q 2019 853 2116 503 
Q 2222 878 2363 1253 
L 3600 4581 
L 4219 4581 
L 2425 0 
L 1803 0 
z
" transform="scale(0.015625)"/>
       <path id="ArialMT-2f" d="M 0 -78 
L 1328 4659 
L 1778 4659 
L 453 -78 
L 0 -78 
z
" transform="scale(0.015625)"/>
       <path id="ArialMT-29" d="M 791 -1347 
L 388 -1347 
Q 1322 153 1322 1656 
Q 1322 2244 1188 2822 
Q 1081 3291 891 3722 
Q 769 4003 388 4659 
L 791 4659 
Q 1378 3875 1659 3084 
Q 1900 2403 1900 1659 
Q 1900 816 1576 28 
Q 1253 -759 791 -1347 
z
" transform="scale(0.015625)"/>
      </defs>
      <use xlink:href="#ArialMT-46"/>
      <use xlink:href="#ArialMT-6f" transform="translate(61.083984 0)"/>
      <use xlink:href="#ArialMT-72" transform="translate(116.699219 0)"/>
      <use xlink:href="#ArialMT-6d" transform="translate(150 0)"/>
      <use xlink:href="#ArialMT-61" transform="translate(233.300781 0)"/>
      <use xlink:href="#ArialMT-74" transform="translate(288.916016 0)"/>
      <use xlink:href="#ArialMT-69" transform="translate(316.699219 0)"/>
      <use xlink:href="#ArialMT-6f" transform="translate(338.916016 0)"/>
      <use xlink:href="#ArialMT-6e" transform="translate(394.53125 0)"/>
      <use xlink:href="#ArialMT-20" transform="translate(450.146484 0)"/>
      <use xlink:href="#ArialMT-45" transform="translate(477.929688 0)"/>
      <use xlink:href="#ArialMT-6e" transform="translate(544.628906 0)"/>
      <use xlink:href="#ArialMT-65" transform="translate(600.244141 0)"/>
      <use xlink:href="#ArialMT-72" transform="translate(655.859375 0)"/>
      <use xlink:href="#ArialMT-67" transform="translate(689.160156 0)"/>
      <use xlink:href="#ArialMT-79" transform="translate(744.775391 0)"/>
      <use xlink:href="#ArialMT-20" transform="translate(794.775391 0)"/>
      <use xlink:href="#ArialMT-28" transform="translate(822.558594 0)"/>
      <use xlink:href="#ArialMT-65" transform="translate(855.859375 0)"/>
      <use xlink:href="#ArialMT-56" transform="translate(911.474609 0)"/>
      <use xlink:href="#ArialMT-2f" transform="translate(978.173828 0)"/>
      <use xlink:href="#ArialMT-61" transform="translate(1005.957031 0)"/>
      <use xlink:href="#ArialMT-74" transform="translate(1061.572266 0)"/>
      <use xlink:href="#ArialMT-6f" transform="translate(1089.355469 0)"/>
      <use xlink:href="#ArialMT-6d" transform="translate(1144.970703 0)"/>
      <use xlink:href="#ArialMT-29" transform="translate(1228.271484 0)"/>
     </g>
    </g>
   </g>
   <g id="LineCollection_1"/>
   <g id="patch_6">
    <path d="M 287.298425 195.703937 
L 291.66378 203.640945 
L 296.029134 195.703937 
L 296.029134 36.96378 
L 291.66378 29.026772 
L 287.298425 36.96378 
L 287.298425 195.703937 
z
" style="fill: none; stroke: #000000; stroke-width: 0.8; stroke-linejoin: miter; stroke-linecap: square"/>
   </g>
  </g>
 </g>
 <defs>
  <clipPath id="p35ef5cdfbc">
   <rect x="7.2" y="7.2" width="263.622047" height="218.267717"/>
  </clipPath>
  <clipPath id="p464d4483bc">
   <rect x="287.298425" y="36.96378" width="8.730709" height="158.740157"/>
  </clipPath>
 </defs>
</svg>
