<?xml version="1.0" encoding="utf-8" standalone="no"?>
<!DOCTYPE svg PUBLIC "-//W3C//DTD SVG 1.1//EN"
  "http://www.w3.org/Graphics/SVG/1.1/DTD/svg11.dtd">
<svg xmlns:xlink="http://www.w3.org/1999/xlink" width="344.803509pt" height="232.667717pt" viewBox="0 0 344.803509 232.667717" xmlns="http://www.w3.org/2000/svg" version="1.1">
 <metadata>
  <rdf:RDF xmlns:dc="http://purl.org/dc/elements/1.1/" xmlns:cc="http://creativecommons.org/ns#" xmlns:rdf="http://www.w3.org/1999/02/22-rdf-syntax-ns#">
   <cc:Work>
    <dc:type rdf:resource="http://purl.org/dc/dcmitype/StillImage"/>
    <dc:date>2026-01-27T21:37:39.150555</dc:date>
    <dc:format>image/svg+xml</dc:format>
    <dc:creator>
     <cc:Agent>
      <dc:title>Matplotlib v3.10.8, https://matplotlib.org/</dc:title>
     </cc:Agent>
    </dc:creator>
   </cc:Work>
  </rdf:RDF>
 </metadata>
 <defs>
  <style type="text/css">*{stroke-linejoin: round; stroke-linecap: butt}</style>
 </defs>
 <g id="figure_1">
  <g id="patch_1">
   <path d="M 0 232.667717 
L 344.803509 232.667717 
L 344.803509 0 
L 0 0 
L 0 232.667717 
z
" style="fill: none"/>
  </g>
  <g id="axes_1">
   <g id="patch_2">
    <path d="M 7.2 225.467717 
L 270.822047 225.467717 
L 270.822047 7.2 
L 7.2 7.2 
L 7.2 225.467717 
z
" style="fill: none"/>
   </g>
   <g id="TriContourSet_1">
    <path d="M 74.752518 126.894803 
L 82.101346 121.621433 
L 82.124789 120.041637 
L 81.035096 116.984225 
L 79.096922 120.041637 
z
" clip-path="url(#pf47f0287b9)" style="fill: #440154; fill-opacity: 0.7"/>
    <path d="M 81.035096 116.984225 
L 82.124789 120.041637 
L 82.101346 121.621433 
L 74.752518 126.894803 
L 68.519266 136.727572 
L 86.412026 123.888089 
L 86.469106 120.041637 
L 83.815946 112.597519 
z
" clip-path="url(#pf47f0287b9)" style="fill: #450559; fill-opacity: 0.7"/>
    <path d="M 83.815946 112.597519 
L 86.469106 120.041637 
L 86.412026 123.888089 
L 68.519266 136.727572 
L 67.114102 138.944176 
L 65.573414 141.374565 
L 70.019816 140.806294 
L 70.2852 140.763199 
L 70.847755 140.416607 
L 90.722706 126.154745 
L 90.813422 120.041637 
L 86.596795 108.210813 
z
" clip-path="url(#pf47f0287b9)" style="fill: #470e61; fill-opacity: 0.7"/>
    <path d="M 86.596795 108.210813 
L 90.813422 120.041637 
L 90.722706 126.154745 
L 70.847755 140.416607 
L 70.2852 140.763199 
L 70.019816 140.806294 
L 65.573414 141.374565 
L 63.584325 144.512293 
L 73.771207 143.210363 
L 74.379214 143.111629 
L 75.668049 142.317575 
L 95.033386 128.421401 
L 95.157739 120.041637 
L 89.377644 103.824107 
z
" clip-path="url(#pf47f0287b9)" style="fill: #481769; fill-opacity: 0.7"/>
    <path d="M 89.377644 103.824107 
L 95.157739 120.041637 
L 95.033386 128.421401 
L 75.668049 142.317575 
L 74.379214 143.111629 
L 73.771207 143.210363 
L 63.584325 144.512293 
L 61.595236 147.650021 
L 77.522598 145.614431 
L 78.473227 145.460059 
L 80.488344 144.218542 
L 99.344066 130.688057 
L 99.502055 120.041637 
L 92.158493 99.437401 
z
" clip-path="url(#pf47f0287b9)" style="fill: #482071; fill-opacity: 0.7"/>
    <path d="M 92.158493 99.437401 
L 99.502055 120.041637 
L 99.344066 130.688057 
L 80.488344 144.218542 
L 78.473227 145.460059 
L 77.522598 145.614431 
L 61.595236 147.650021 
L 59.606147 150.787749 
L 81.273989 148.0185 
L 82.567241 147.808489 
L 85.308638 146.119509 
L 103.654746 132.954713 
L 103.846371 120.041637 
L 95.736307 97.286782 
L 94.790104 95.286114 
L 94.075447 96.413464 
z
" clip-path="url(#pf47f0287b9)" style="fill: #482878; fill-opacity: 0.7"/>
    <path d="M 94.790104 95.286114 
L 95.736307 97.286782 
L 103.846371 120.041637 
L 103.654746 132.954713 
L 85.308638 146.119509 
L 82.567241 147.808489 
L 81.273989 148.0185 
L 59.606147 150.787749 
L 59.125555 151.545868 
L 58.175385 153.044733 
L 60.183394 153.214578 
L 61.351168 153.301287 
L 62.607868 153.287629 
L 85.02538 150.422568 
L 86.661255 150.15692 
L 90.128932 148.020476 
L 107.965426 135.221369 
L 108.190688 120.041637 
L 101.082558 100.097966 
L 97.09056 91.657214 
z
" clip-path="url(#pf47f0287b9)" style="fill: #46307e; fill-opacity: 0.7"/>
    <path d="M 97.09056 91.657214 
L 101.082558 100.097966 
L 108.190688 120.041637 
L 107.965426 135.221369 
L 90.128932 148.020476 
L 86.661255 150.15692 
L 85.02538 150.422568 
L 62.607868 153.287629 
L 61.351168 153.301287 
L 60.183394 153.214578 
L 58.175385 153.044733 
L 56.922501 155.02112 
L 61.57825 155.414922 
L 64.285839 155.615965 
L 67.199611 155.584296 
L 88.776772 152.826636 
L 90.755268 152.50535 
L 94.949226 149.921444 
L 112.276106 137.488025 
L 112.535004 120.041637 
L 106.428809 102.909149 
L 99.967048 89.246289 
L 99.285827 88.194246 
L 99.068289 88.537406 
z
" clip-path="url(#pf47f0287b9)" style="fill: #453882; fill-opacity: 0.7"/>
    <path d="M 99.285827 88.194246 
L 99.967048 89.246289 
L 106.428809 102.909149 
L 112.535004 120.041637 
L 112.276106 137.488025 
L 94.949226 149.921444 
L 90.755268 152.50535 
L 88.776772 152.826636 
L 67.199611 155.584296 
L 64.285839 155.615965 
L 61.57825 155.414922 
L 56.922501 155.02112 
L 55.669616 156.997507 
L 62.973107 157.615265 
L 67.22051 157.930643 
L 71.791354 157.880964 
L 92.528163 155.230705 
L 94.849282 154.85378 
L 99.76952 151.822411 
L 116.586786 139.754681 
L 116.87932 120.041637 
L 111.77506 105.720333 
L 106.373577 94.299342 
L 100.836482 85.748135 
z
" clip-path="url(#pf47f0287b9)" style="fill: #423f85; fill-opacity: 0.7"/>
    <path d="M 100.836482 85.748135 
L 106.373577 94.299342 
L 111.77506 105.720333 
L 116.87932 120.041637 
L 116.586786 139.754681 
L 99.76952 151.822411 
L 94.849282 154.85378 
L 92.528163 155.230705 
L 71.791354 157.880964 
L 67.22051 157.930643 
L 62.973107 157.615265 
L 55.669616 156.997507 
L 54.416732 158.973895 
L 64.367963 159.815609 
L 70.155182 160.245321 
L 76.383097 160.177632 
L 96.279554 157.634773 
L 98.943295 157.202211 
L 104.589814 153.723378 
L 120.897466 142.021338 
L 121.223637 120.041637 
L 117.121311 108.531516 
L 112.780106 99.352395 
L 102.387137 83.302024 
z
" clip-path="url(#pf47f0287b9)" style="fill: #3f4788; fill-opacity: 0.7"/>
    <path d="M 102.387137 83.302024 
L 112.780106 99.352395 
L 117.121311 108.531516 
L 121.223637 120.041637 
L 120.897466 142.021338 
L 104.589814 153.723378 
L 98.943295 157.202211 
L 96.279554 157.634773 
L 76.383097 160.177632 
L 70.155182 160.245321 
L 64.367963 159.815609 
L 54.416732 158.973895 
L 53.163848 160.950282 
L 65.762819 162.015953 
L 73.089853 162.559998 
L 80.97484 162.474299 
L 100.030945 160.038842 
L 103.037309 159.550641 
L 109.410108 155.624345 
L 125.208146 144.287994 
L 125.567953 120.041637 
L 122.467562 111.342699 
L 119.186634 104.405448 
L 103.937791 80.855913 
z
" clip-path="url(#pf47f0287b9)" style="fill: #3d4e8a; fill-opacity: 0.7"/>
    <path d="M 103.937791 80.855913 
L 119.186634 104.405448 
L 122.467562 111.342699 
L 125.567953 120.041637 
L 125.208146 144.287994 
L 109.410108 155.624345 
L 103.037309 159.550641 
L 100.030945 160.038842 
L 80.97484 162.474299 
L 73.089853 162.559998 
L 65.762819 162.015953 
L 53.163848 160.950282 
L 52.238876 162.409396 
L 51.952982 162.860385 
L 52.768565 162.999209 
L 67.157675 164.216296 
L 76.024524 164.874676 
L 85.566583 164.770967 
L 103.782337 162.44291 
L 107.131322 161.899071 
L 114.230403 157.525313 
L 129.518826 146.55465 
L 129.912269 120.041637 
L 127.813813 114.153883 
L 125.593163 109.458501 
L 105.488446 78.409802 
z
" clip-path="url(#pf47f0287b9)" style="fill: #39558c; fill-opacity: 0.7"/>
    <path d="M 105.488446 78.409802 
L 125.593163 109.458501 
L 127.813813 114.153883 
L 129.912269 120.041637 
L 129.518826 146.55465 
L 114.230403 157.525313 
L 107.131322 161.899071 
L 103.782337 162.44291 
L 85.566583 164.770967 
L 76.024524 164.874676 
L 67.157675 164.216296 
L 52.768565 162.999209 
L 51.952982 162.860385 
L 50.860644 164.583517 
L 54.792388 165.252753 
L 68.552531 166.41664 
L 78.959195 167.189354 
L 90.158326 167.067635 
L 107.533728 164.846978 
L 111.225336 164.247501 
L 119.050697 159.42628 
L 133.829506 148.821306 
L 134.256586 120.041637 
L 133.160064 116.965066 
L 131.999692 114.511554 
L 107.0391 75.963691 
z
" clip-path="url(#pf47f0287b9)" style="fill: #365c8d; fill-opacity: 0.7"/>
    <path d="M 107.0391 75.963691 
L 131.999692 114.511554 
L 133.160064 116.965066 
L 134.256586 120.041637 
L 133.829506 148.821306 
L 119.050697 159.42628 
L 111.225336 164.247501 
L 107.533728 164.846978 
L 90.158326 167.067635 
L 78.959195 167.189354 
L 68.552531 166.41664 
L 54.792388 165.252753 
L 50.860644 164.583517 
L 49.768305 166.306648 
L 56.816212 167.506297 
L 69.947387 168.616984 
L 81.893866 169.504031 
L 94.750069 169.364302 
L 111.285119 167.251047 
L 115.319349 166.595932 
L 123.870991 161.327247 
L 138.140186 151.087962 
L 138.600902 120.041637 
L 138.506315 119.77625 
L 138.40622 119.564608 
L 108.589755 73.51758 
z
" clip-path="url(#pf47f0287b9)" style="fill: #33638d; fill-opacity: 0.7"/>
    <path d="M 108.589755 73.51758 
L 138.40622 119.564608 
L 138.506315 119.77625 
L 138.600902 120.041637 
L 138.140186 151.087962 
L 123.870991 161.327247 
L 115.319349 166.595932 
L 111.285119 167.251047 
L 94.750069 169.364302 
L 81.893866 169.504031 
L 69.947387 168.616984 
L 56.816212 167.506297 
L 49.768305 166.306648 
L 48.675966 168.02978 
L 58.840036 169.759841 
L 71.342244 170.817328 
L 84.828537 171.818709 
L 99.341811 171.66097 
L 115.03651 169.655115 
L 119.413363 168.944362 
L 128.691285 163.228215 
L 142.450866 153.354618 
L 142.899703 123.108775 
L 142.652727 121.95653 
L 141.530711 120.041637 
L 112.006178 74.337629 
L 110.267037 72.147433 
L 109.811675 71.590037 
L 109.053973 72.78529 
z
" clip-path="url(#pf47f0287b9)" style="fill: #30698e; fill-opacity: 0.7"/>
    <path d="M 109.811675 71.590037 
L 110.267037 72.147433 
L 112.006178 74.337629 
L 141.530711 120.041637 
L 142.652727 121.95653 
L 142.899703 123.108775 
L 142.450866 153.354618 
L 128.691285 163.228215 
L 119.413363 168.944362 
L 115.03651 169.655115 
L 99.341811 171.66097 
L 84.828537 171.818709 
L 71.342244 170.817328 
L 58.840036 169.759841 
L 48.675966 168.02978 
L 47.583627 169.752912 
L 60.863859 172.013386 
L 72.7371 173.017671 
L 87.763208 174.133387 
L 103.933554 173.957637 
L 118.787902 172.059184 
L 123.507376 171.292792 
L 133.511579 165.129182 
L 146.761546 155.621274 
L 147.19376 126.495647 
L 146.674062 124.071041 
L 144.313065 120.041637 
L 116.219815 76.553257 
L 111.998424 71.237029 
L 110.893133 69.884071 
z
" clip-path="url(#pf47f0287b9)" style="fill: #2e6f8e; fill-opacity: 0.7"/>
    <path d="M 110.893133 69.884071 
L 111.998424 71.237029 
L 116.219815 76.553257 
L 144.313065 120.041637 
L 146.674062 124.071041 
L 147.19376 126.495647 
L 146.761546 155.621274 
L 133.511579 165.129182 
L 123.507376 171.292792 
L 118.787902 172.059184 
L 103.933554 173.957637 
L 87.763208 174.133387 
L 72.7371 173.017671 
L 60.863859 172.013386 
L 47.583627 169.752912 
L 46.491289 171.476043 
L 62.887683 174.26693 
L 74.131956 175.218015 
L 90.697879 176.448065 
L 108.525297 176.254305 
L 122.539293 174.463252 
L 127.60139 173.641222 
L 138.331873 167.030149 
L 151.072226 157.88793 
L 151.487816 129.882519 
L 150.695397 126.185553 
L 147.095418 120.041637 
L 120.433452 78.768886 
L 113.729811 70.326625 
L 111.97459 68.178104 
z
" clip-path="url(#pf47f0287b9)" style="fill: #2b758e; fill-opacity: 0.7"/>
    <path d="M 111.97459 68.178104 
L 113.729811 70.326625 
L 120.433452 78.768886 
L 147.095418 120.041637 
L 150.695397 126.185553 
L 151.487816 129.882519 
L 151.072226 157.88793 
L 138.331873 167.030149 
L 127.60139 173.641222 
L 122.539293 174.463252 
L 108.525297 176.254305 
L 90.697879 176.448065 
L 74.131956 175.218015 
L 62.887683 174.26693 
L 46.491289 171.476043 
L 45.39895 173.199175 
L 64.911507 176.520474 
L 75.526812 177.418359 
L 93.63255 178.762742 
L 113.11704 178.550973 
L 126.290684 176.86732 
L 131.695403 175.989653 
L 143.152167 168.931116 
L 155.382906 160.154586 
L 155.781872 133.269392 
L 154.716732 128.300064 
L 149.877771 120.041637 
L 124.647089 80.984514 
L 115.461199 69.416221 
L 113.056047 66.472138 
z
" clip-path="url(#pf47f0287b9)" style="fill: #297b8e; fill-opacity: 0.7"/>
    <path d="M 113.056047 66.472138 
L 115.461199 69.416221 
L 124.647089 80.984514 
L 149.877771 120.041637 
L 154.716732 128.300064 
L 155.781872 133.269392 
L 155.382906 160.154586 
L 143.152167 168.931116 
L 131.695403 175.989653 
L 126.290684 176.86732 
L 113.11704 178.550973 
L 93.63255 178.762742 
L 75.526812 177.418359 
L 64.911507 176.520474 
L 45.39895 173.199175 
L 44.306611 174.922306 
L 66.935331 178.774018 
L 76.921668 179.618702 
L 96.567221 181.07742 
L 117.708783 180.84764 
L 130.042075 179.271389 
L 135.789417 178.338083 
L 147.972462 170.832084 
L 159.693586 162.421242 
L 160.075929 136.656264 
L 158.738067 130.414576 
L 152.660125 120.041637 
L 128.860726 83.200143 
L 117.192586 68.505818 
L 114.137505 64.766171 
z
" clip-path="url(#pf47f0287b9)" style="fill: #26828e; fill-opacity: 0.7"/>
    <path d="M 114.137505 64.766171 
L 117.192586 68.505818 
L 128.860726 83.200143 
L 152.660125 120.041637 
L 158.738067 130.414576 
L 160.075929 136.656264 
L 159.693586 162.421242 
L 147.972462 170.832084 
L 135.789417 178.338083 
L 130.042075 179.271389 
L 117.708783 180.84764 
L 96.567221 181.07742 
L 76.921668 179.618702 
L 66.935331 178.774018 
L 44.306611 174.922306 
L 43.214273 176.645438 
L 68.959154 181.027562 
L 78.316524 181.819046 
L 99.501893 183.392098 
L 122.300526 183.144308 
L 133.793467 181.675457 
L 139.88343 180.686513 
L 152.792756 172.733051 
L 164.004266 164.687898 
L 164.369985 140.043137 
L 162.759401 132.529088 
L 155.442478 120.041637 
L 133.074363 85.415771 
L 118.923974 67.595414 
L 115.218962 63.060205 
z
" clip-path="url(#pf47f0287b9)" style="fill: #24878e; fill-opacity: 0.7"/>
    <path d="M 115.218962 63.060205 
L 118.923974 67.595414 
L 133.074363 85.415771 
L 155.442478 120.041637 
L 162.759401 132.529088 
L 164.369985 140.043137 
L 164.004266 164.687898 
L 152.792756 172.733051 
L 139.88343 180.686513 
L 133.793467 181.675457 
L 122.300526 183.144308 
L 99.501893 183.392098 
L 78.316524 181.819046 
L 68.959154 181.027562 
L 43.214273 176.645438 
L 42.121934 178.368569 
L 70.982978 183.281107 
L 79.711381 184.01939 
L 102.436564 185.706775 
L 126.892269 185.440975 
L 137.544858 184.079526 
L 143.977444 183.034943 
L 157.61305 174.634018 
L 168.314946 166.954554 
L 168.664042 143.430009 
L 166.780736 134.643599 
L 158.224832 120.041637 
L 137.288 87.6314 
L 120.655361 66.68501 
L 116.30042 61.354238 
z
" clip-path="url(#pf47f0287b9)" style="fill: #228d8d; fill-opacity: 0.7"/>
    <path d="M 116.30042 61.354238 
L 120.655361 66.68501 
L 137.288 87.6314 
L 158.224832 120.041637 
L 166.780736 134.643599 
L 168.664042 143.430009 
L 168.314946 166.954554 
L 157.61305 174.634018 
L 143.977444 183.034943 
L 137.544858 184.079526 
L 126.892269 185.440975 
L 102.436564 185.706775 
L 79.711381 184.01939 
L 70.982978 183.281107 
L 42.121934 178.368569 
L 41.029595 180.091701 
L 73.006802 185.534651 
L 81.106237 186.219733 
L 105.371235 188.021453 
L 131.484012 187.737643 
L 141.296249 186.483594 
L 148.071457 185.383374 
L 162.433344 176.534985 
L 172.625626 169.22121 
L 172.958098 146.816882 
L 170.802071 136.758111 
L 161.007185 120.041637 
L 141.501637 89.847029 
L 122.386748 65.774606 
L 117.381877 59.648272 
z
" clip-path="url(#pf47f0287b9)" style="fill: #20938c; fill-opacity: 0.7"/>
    <path d="M 117.381877 59.648272 
L 122.386748 65.774606 
L 141.501637 89.847029 
L 161.007185 120.041637 
L 170.802071 136.758111 
L 172.958098 146.816882 
L 172.625626 169.22121 
L 162.433344 176.534985 
L 148.071457 185.383374 
L 141.296249 186.483594 
L 131.484012 187.737643 
L 105.371235 188.021453 
L 81.106237 186.219733 
L 73.006802 185.534651 
L 41.029595 180.091701 
L 39.937256 181.814832 
L 75.030625 187.788195 
L 82.501093 188.420077 
L 108.305906 190.336131 
L 136.075755 190.034311 
L 145.04764 188.887663 
L 152.165471 187.731804 
L 167.253638 178.435953 
L 176.936306 171.487866 
L 177.252155 150.203754 
L 174.823406 138.872622 
L 163.789539 120.041637 
L 145.715274 92.062657 
L 124.118136 64.864202 
L 118.463334 57.942306 
z
" clip-path="url(#pf47f0287b9)" style="fill: #1f998a; fill-opacity: 0.7"/>
    <path d="M 118.463334 57.942306 
L 124.118136 64.864202 
L 145.715274 92.062657 
L 163.789539 120.041637 
L 174.823406 138.872622 
L 177.252155 150.203754 
L 176.936306 171.487866 
L 167.253638 178.435953 
L 152.165471 187.731804 
L 145.04764 188.887663 
L 136.075755 190.034311 
L 108.305906 190.336131 
L 82.501093 188.420077 
L 75.030625 187.788195 
L 39.937256 181.814832 
L 38.844918 183.537964 
L 77.054449 190.041739 
L 83.895949 190.620421 
L 111.240577 192.650808 
L 140.667497 192.330978 
L 148.799032 191.291731 
L 156.259484 190.080234 
L 172.073932 180.33692 
L 181.246986 173.754522 
L 181.546211 153.590627 
L 178.84474 140.987134 
L 166.571892 120.041637 
L 149.928912 94.278286 
L 125.849523 63.953798 
L 119.544792 56.236339 
z
" clip-path="url(#pf47f0287b9)" style="fill: #1fa088; fill-opacity: 0.7"/>
    <path d="M 119.544792 56.236339 
L 125.849523 63.953798 
L 149.928912 94.278286 
L 166.571892 120.041637 
L 178.84474 140.987134 
L 181.546211 153.590627 
L 181.246986 173.754522 
L 172.073932 180.33692 
L 156.259484 190.080234 
L 148.799032 191.291731 
L 140.667497 192.330978 
L 111.240577 192.650808 
L 83.895949 190.620421 
L 77.054449 190.041739 
L 38.844918 183.537964 
L 37.752579 185.261095 
L 79.078273 192.295284 
L 85.290805 192.820764 
L 114.175248 194.965486 
L 145.25924 194.627646 
L 152.550423 193.695799 
L 160.353498 192.428664 
L 176.894226 182.237887 
L 185.557666 176.021178 
L 185.840267 156.977499 
L 182.866075 143.101645 
L 169.354245 120.041637 
L 154.142549 96.493914 
L 127.58091 63.043395 
L 120.626249 54.530373 
z
" clip-path="url(#pf47f0287b9)" style="fill: #21a585; fill-opacity: 0.7"/>
    <path d="M 120.626249 54.530373 
L 127.58091 63.043395 
L 154.142549 96.493914 
L 169.354245 120.041637 
L 182.866075 143.101645 
L 185.840267 156.977499 
L 185.557666 176.021178 
L 176.894226 182.237887 
L 160.353498 192.428664 
L 152.550423 193.695799 
L 145.25924 194.627646 
L 114.175248 194.965486 
L 85.290805 192.820764 
L 79.078273 192.295284 
L 37.752579 185.261095 
L 36.66024 186.984227 
L 81.102096 194.548828 
L 86.685662 195.021108 
L 117.109919 197.280164 
L 149.850983 196.924314 
L 156.301814 196.099868 
L 164.447512 194.777095 
L 181.714521 184.138854 
L 189.868347 178.287834 
L 190.134324 160.364371 
L 186.88741 145.216157 
L 172.136599 120.041637 
L 158.356186 98.709543 
L 129.312298 62.132991 
L 121.707706 52.824406 
z
" clip-path="url(#pf47f0287b9)" style="fill: #25ab82; fill-opacity: 0.7"/>
    <path d="M 121.707706 52.824406 
L 129.312298 62.132991 
L 158.356186 98.709543 
L 172.136599 120.041637 
L 186.88741 145.216157 
L 190.134324 160.364371 
L 189.868347 178.287834 
L 181.714521 184.138854 
L 164.447512 194.777095 
L 156.301814 196.099868 
L 149.850983 196.924314 
L 117.109919 197.280164 
L 86.685662 195.021108 
L 81.102096 194.548828 
L 36.66024 186.984227 
L 35.567901 188.707358 
L 83.12592 196.802372 
L 88.080518 197.221452 
L 120.04459 199.594842 
L 154.442726 199.220981 
L 160.053205 198.503936 
L 168.541525 197.125525 
L 186.534815 186.039822 
L 194.179027 180.55449 
L 194.42838 163.751244 
L 190.908745 147.330668 
L 174.918952 120.041637 
L 162.569823 100.925171 
L 131.043685 61.222587 
L 122.789164 51.11844 
z
" clip-path="url(#pf47f0287b9)" style="fill: #2cb17e; fill-opacity: 0.7"/>
    <path d="M 122.789164 51.11844 
L 131.043685 61.222587 
L 162.569823 100.925171 
L 174.918952 120.041637 
L 190.908745 147.330668 
L 194.42838 163.751244 
L 194.179027 180.55449 
L 186.534815 186.039822 
L 168.541525 197.125525 
L 160.053205 198.503936 
L 154.442726 199.220981 
L 120.04459 199.594842 
L 88.080518 197.221452 
L 83.12592 196.802372 
L 35.567901 188.707358 
L 34.475563 190.43049 
L 85.149744 199.055916 
L 89.475374 199.421795 
L 122.979261 201.909519 
L 159.034469 201.517649 
L 163.804596 200.908005 
L 172.635539 199.473955 
L 191.355109 187.940789 
L 198.489707 182.821146 
L 198.722437 167.138116 
L 194.930079 149.44518 
L 177.701306 120.041637 
L 166.78346 103.1408 
L 132.775072 60.312183 
L 123.870621 49.412473 
z
" clip-path="url(#pf47f0287b9)" style="fill: #34b679; fill-opacity: 0.7"/>
    <path d="M 123.870621 49.412473 
L 132.775072 60.312183 
L 166.78346 103.1408 
L 177.701306 120.041637 
L 194.930079 149.44518 
L 198.722437 167.138116 
L 198.489707 182.821146 
L 191.355109 187.940789 
L 172.635539 199.473955 
L 163.804596 200.908005 
L 159.034469 201.517649 
L 122.979261 201.909519 
L 89.475374 199.421795 
L 85.149744 199.055916 
L 34.475563 190.43049 
L 33.383224 192.153621 
L 87.173567 201.309461 
L 90.87023 201.622139 
L 125.913933 204.224197 
L 163.626212 203.814316 
L 167.555988 203.312073 
L 176.729552 201.822386 
L 196.175403 189.841756 
L 202.800387 185.087802 
L 203.016493 170.524989 
L 198.951414 151.559692 
L 180.483659 120.041637 
L 170.997097 105.356429 
L 134.50646 59.401779 
L 124.952078 47.706507 
z
" clip-path="url(#pf47f0287b9)" style="fill: #3fbc73; fill-opacity: 0.7"/>
    <path d="M 124.952078 47.706507 
L 134.50646 59.401779 
L 170.997097 105.356429 
L 180.483659 120.041637 
L 198.951414 151.559692 
L 203.016493 170.524989 
L 202.800387 185.087802 
L 196.175403 189.841756 
L 176.729552 201.822386 
L 167.555988 203.312073 
L 163.626212 203.814316 
L 125.913933 204.224197 
L 90.87023 201.622139 
L 87.173567 201.309461 
L 33.383224 192.153621 
L 32.290885 193.876753 
L 89.197391 203.563005 
L 92.265086 203.822483 
L 128.848604 206.538875 
L 168.217955 206.110984 
L 171.307379 205.716141 
L 180.823566 204.170816 
L 200.995697 191.742724 
L 207.111067 187.354458 
L 207.31055 173.911861 
L 202.972749 153.674203 
L 183.266012 120.041637 
L 175.210734 107.572057 
L 136.237847 58.491375 
L 126.033536 46.000541 
z
" clip-path="url(#pf47f0287b9)" style="fill: #4ac16d; fill-opacity: 0.7"/>
    <path d="M 126.033536 46.000541 
L 136.237847 58.491375 
L 175.210734 107.572057 
L 183.266012 120.041637 
L 202.972749 153.674203 
L 207.31055 173.911861 
L 207.111067 187.354458 
L 200.995697 191.742724 
L 180.823566 204.170816 
L 171.307379 205.716141 
L 168.217955 206.110984 
L 128.848604 206.538875 
L 92.265086 203.822483 
L 89.197391 203.563005 
L 32.290885 193.876753 
L 31.198546 195.599884 
L 91.221215 205.816549 
L 93.659942 206.022826 
L 131.783275 208.853552 
L 172.809698 208.407652 
L 175.05877 208.12021 
L 184.917579 206.519246 
L 205.815991 193.643691 
L 211.421747 189.621114 
L 211.604606 177.298734 
L 206.994084 155.788715 
L 186.048366 120.041637 
L 179.424371 109.787686 
L 137.969235 57.580972 
L 127.114993 44.294574 
z
" clip-path="url(#pf47f0287b9)" style="fill: #56c667; fill-opacity: 0.7"/>
    <path d="M 127.114993 44.294574 
L 137.969235 57.580972 
L 179.424371 109.787686 
L 186.048366 120.041637 
L 206.994084 155.788715 
L 211.604606 177.298734 
L 211.421747 189.621114 
L 205.815991 193.643691 
L 184.917579 206.519246 
L 175.05877 208.12021 
L 172.809698 208.407652 
L 131.783275 208.853552 
L 93.659942 206.022826 
L 91.221215 205.816549 
L 31.198546 195.599884 
L 30.106208 197.323016 
L 93.245038 208.070093 
L 95.054799 208.22317 
L 134.717946 211.16823 
L 177.401441 210.704319 
L 178.810161 210.524278 
L 189.011593 208.867676 
L 210.636285 195.544658 
L 215.732427 191.88777 
L 215.898663 180.685606 
L 211.015418 157.903226 
L 188.830719 120.041637 
L 183.638008 112.003314 
L 139.700622 56.670568 
L 128.19645 42.588608 
z
" clip-path="url(#pf47f0287b9)" style="fill: #65cb5e; fill-opacity: 0.7"/>
    <path d="M 128.19645 42.588608 
L 139.700622 56.670568 
L 183.638008 112.003314 
L 188.830719 120.041637 
L 211.015418 157.903226 
L 215.898663 180.685606 
L 215.732427 191.88777 
L 210.636285 195.544658 
L 189.011593 208.867676 
L 178.810161 210.524278 
L 177.401441 210.704319 
L 134.717946 211.16823 
L 95.054799 208.22317 
L 93.245038 208.070093 
L 30.106208 197.323016 
L 29.013869 199.046147 
L 95.268862 210.323638 
L 96.449655 210.423514 
L 137.652617 213.482908 
L 181.993183 213.000987 
L 182.561553 212.928347 
L 193.105606 211.216107 
L 215.45658 197.445625 
L 220.043107 194.154426 
L 220.192719 184.072479 
L 215.036753 160.017738 
L 191.613073 120.041637 
L 187.851645 114.218943 
L 141.432009 55.760164 
L 129.277908 40.882641 
z
" clip-path="url(#pf47f0287b9)" style="fill: #73d056; fill-opacity: 0.7"/>
    <path d="M 129.277908 40.882641 
L 141.432009 55.760164 
L 187.851645 114.218943 
L 191.613073 120.041637 
L 215.036753 160.017738 
L 220.192719 184.072479 
L 220.043107 194.154426 
L 215.45658 197.445625 
L 193.105606 211.216107 
L 182.561553 212.928347 
L 181.993183 213.000987 
L 137.652617 213.482908 
L 96.449655 210.423514 
L 95.268862 210.323638 
L 29.013869 199.046147 
L 27.92153 200.769279 
L 97.292686 212.577182 
L 97.844511 212.623857 
L 123.843521 214.554331 
L 139.011024 214.554331 
L 185.098794 214.554331 
L 191.104424 214.554331 
L 197.19962 213.564537 
L 220.276874 199.346593 
L 224.353787 196.421082 
L 224.486775 187.459351 
L 219.058088 162.132249 
L 194.395426 120.041637 
L 192.065282 116.434572 
L 143.163397 54.84976 
L 130.359365 39.176675 
z
" clip-path="url(#pf47f0287b9)" style="fill: #84d44b; fill-opacity: 0.7"/>
    <path d="M 130.359365 39.176675 
L 143.163397 54.84976 
L 192.065282 116.434572 
L 194.395426 120.041637 
L 219.058088 162.132249 
L 224.486775 187.459351 
L 224.353787 196.421082 
L 220.276874 199.346593 
L 197.19962 213.564537 
L 191.104424 214.554331 
L 198.925125 214.554331 
L 203.498846 214.554331 
L 225.097168 201.24756 
L 228.664467 198.687738 
L 228.780832 190.846224 
L 223.079423 164.246761 
L 197.177779 120.041637 
L 196.278919 118.6502 
L 144.894784 53.939356 
L 131.440822 37.470708 
z
M 26.829191 202.49241 
L 97.692693 214.554331 
L 99.068289 214.554331 
L 123.843521 214.554331 
L 97.844511 212.623857 
L 97.292686 212.577182 
L 27.92153 200.769279 
z
" clip-path="url(#pf47f0287b9)" style="fill: #93d741; fill-opacity: 0.7"/>
    <path d="M 195.310841 114.340212 
L 146.626171 53.028952 
L 132.52228 35.764742 
L 131.440822 37.470708 
L 144.894784 53.939356 
L 196.278919 118.6502 
L 197.177779 120.041637 
L 223.079423 164.246761 
L 228.780832 190.846224 
L 228.664467 198.687738 
L 225.097168 201.24756 
L 203.498846 214.554331 
L 211.404615 214.554331 
L 229.917462 203.148527 
L 232.975147 200.954394 
L 233.074888 194.233096 
L 227.100757 166.361272 
L 212.598709 141.611304 
L 198.925125 120.041637 
z
M 25.736853 204.215542 
L 86.476997 214.554331 
L 97.692693 214.554331 
L 26.829191 202.49241 
z
" clip-path="url(#pf47f0287b9)" style="fill: #a2da37; fill-opacity: 0.7"/>
    <path d="M 212.598709 141.611304 
L 227.100757 166.361272 
L 233.074888 194.233096 
L 232.975147 200.954394 
L 229.917462 203.148527 
L 211.404615 214.554331 
L 219.310384 214.554331 
L 234.737756 205.049494 
L 237.285827 203.221051 
L 237.368945 197.619968 
L 231.884929 172.034736 
L 228.882176 167.297984 
z
M 185.594761 99.013389 
L 148.357559 52.118549 
L 133.603737 34.058776 
L 132.52228 35.764742 
L 146.626171 53.028952 
L 195.310841 114.340212 
z
M 24.644514 205.938673 
L 75.261301 214.554331 
L 86.476997 214.554331 
L 25.736853 204.215542 
z
" clip-path="url(#pf47f0287b9)" style="fill: #b5de2b; fill-opacity: 0.7"/>
    <path d="M 231.884929 172.034736 
L 237.368945 197.619968 
L 237.285827 203.221051 
L 234.737756 205.049494 
L 219.310384 214.554331 
L 227.216152 214.554331 
L 239.55805 206.950462 
L 241.596507 205.487707 
L 241.663001 201.006841 
L 237.275788 180.538655 
z
M 175.878682 83.686566 
L 150.088946 51.208145 
L 134.685194 32.352809 
L 133.603737 34.058776 
L 148.357559 52.118549 
L 185.594761 99.013389 
z
M 23.552175 207.661805 
L 64.045605 214.554331 
L 75.261301 214.554331 
L 24.644514 205.938673 
z
" clip-path="url(#pf47f0287b9)" style="fill: #c5e021; fill-opacity: 0.7"/>
    <path d="M 237.275788 180.538655 
L 241.663001 201.006841 
L 241.596507 205.487707 
L 239.55805 206.950462 
L 227.216152 214.554331 
L 235.121921 214.554331 
L 244.378344 208.851429 
L 245.907187 207.754363 
L 245.957058 204.393713 
L 242.666648 189.042574 
z
M 166.162602 68.359743 
L 151.820333 50.297741 
L 135.766652 30.646843 
L 134.685194 32.352809 
L 150.088946 51.208145 
L 175.878682 83.686566 
z
M 22.459837 209.384936 
L 52.829909 214.554331 
L 64.045605 214.554331 
L 23.552175 207.661805 
z
" clip-path="url(#pf47f0287b9)" style="fill: #d8e219; fill-opacity: 0.7"/>
    <path d="M 242.666648 189.042574 
L 245.957058 204.393713 
L 245.907187 207.754363 
L 244.378344 208.851429 
L 235.121921 214.554331 
L 243.02769 214.554331 
L 249.198639 210.752396 
L 250.217867 210.021019 
L 250.251114 207.780586 
L 248.057508 197.546493 
z
M 156.446523 53.032919 
L 153.551721 49.387337 
L 136.848109 28.940876 
L 135.766652 30.646843 
L 151.820333 50.297741 
L 166.162602 68.359743 
z
M 21.367498 211.108068 
L 41.614213 214.554331 
L 52.829909 214.554331 
L 22.459837 209.384936 
z
" clip-path="url(#pf47f0287b9)" style="fill: #e7e419; fill-opacity: 0.7"/>
    <path d="M 248.057508 197.546493 
L 250.251114 207.780586 
L 250.217867 210.021019 
L 249.198639 210.752396 
L 243.02769 214.554331 
L 250.933458 214.554331 
L 254.018933 212.653363 
L 254.528547 212.287675 
L 254.54517 211.167458 
L 253.448367 206.050412 
z
M 147.584276 39.052991 
L 137.929566 27.23491 
L 136.848109 28.940876 
L 153.551721 49.387337 
L 156.446523 53.032919 
L 153.989549 49.157117 
z
M 20.275159 212.831199 
L 30.398516 214.554331 
L 41.614213 214.554331 
L 21.367498 211.108068 
z
" clip-path="url(#pf47f0287b9)" style="fill: #f6e620; fill-opacity: 0.7"/>
    <path d="M 253.448367 206.050412 
L 254.54517 211.167458 
L 254.528547 212.287675 
L 254.018933 212.653363 
L 250.933458 214.554331 
L 258.839227 214.554331 
z
M 137.929566 27.23491 
L 147.584276 39.052991 
L 139.011024 25.528943 
z
M 30.398516 214.554331 
L 20.275159 212.831199 
L 19.18282 214.554331 
z
" clip-path="url(#pf47f0287b9)" style="fill: #fde725; fill-opacity: 0.7"/>
   </g>
   <g id="matplotlib.axis_1"/>
   <g id="matplotlib.axis_2"/>
   <g id="line2d_1">
    <path d="M 139.011024 120.041637 
L 258.839227 214.554331 
" clip-path="url(#pf47f0287b9)" style="fill: none; stroke: #555555; stroke-opacity: 0.9; stroke-width: 0.5; stroke-linecap: square"/>
   </g>
   <g id="line2d_2">
    <path d="M 79.096922 120.041637 
L 139.011024 120.041637 
" clip-path="url(#pf47f0287b9)" style="fill: none; stroke: #555555; stroke-opacity: 0.9; stroke-width: 0.5; stroke-linecap: square"/>
   </g>
   <g id="line2d_3">
    <path d="M 109.053973 72.78529 
L 139.011024 120.041637 
" clip-path="url(#pf47f0287b9)" style="fill: none; stroke: #555555; stroke-opacity: 0.9; stroke-width: 0.5; stroke-linecap: square"/>
   </g>
   <g id="line2d_4">
    <path d="M 79.096922 120.041637 
L 67.114102 138.944176 
" clip-path="url(#pf47f0287b9)" style="fill: none; stroke: #555555; stroke-opacity: 0.9; stroke-width: 0.5; stroke-linecap: square"/>
   </g>
   <g id="line2d_5">
    <path d="M 198.925125 120.041637 
L 228.882176 167.297984 
" clip-path="url(#pf47f0287b9)" style="fill: none; stroke: #555555; stroke-opacity: 0.9; stroke-width: 0.5; stroke-linecap: square"/>
   </g>
   <g id="line2d_6">
    <path d="M 198.925125 120.041637 
L 109.053973 72.78529 
" clip-path="url(#pf47f0287b9)" style="fill: none; stroke: #555555; stroke-opacity: 0.9; stroke-width: 0.5; stroke-linecap: square"/>
   </g>
   <g id="line2d_7">
    <path d="M 109.053973 72.78529 
L 139.011024 25.528943 
" clip-path="url(#pf47f0287b9)" style="fill: none; stroke: #555555; stroke-opacity: 0.9; stroke-width: 0.5; stroke-linecap: square"/>
   </g>
   <g id="line2d_8">
    <path d="M 59.125555 151.545868 
L 52.238876 162.409396 
" clip-path="url(#pf47f0287b9)" style="fill: none; stroke: #555555; stroke-opacity: 0.9; stroke-width: 0.5; stroke-linecap: square"/>
   </g>
   <g id="line2d_9">
    <path d="M 228.882176 167.297984 
L 258.839227 214.554331 
" clip-path="url(#pf47f0287b9)" style="fill: none; stroke: #555555; stroke-opacity: 0.9; stroke-width: 0.5; stroke-linecap: square"/>
   </g>
   <g id="line2d_10">
    <path d="M 67.114102 138.944176 
L 258.839227 214.554331 
" clip-path="url(#pf47f0287b9)" style="fill: none; stroke: #555555; stroke-opacity: 0.9; stroke-width: 0.5; stroke-linecap: square"/>
   </g>
   <g id="line2d_11">
    <path d="M 139.011024 214.554331 
L 99.068289 214.554331 
" clip-path="url(#pf47f0287b9)" style="fill: none; stroke: #555555; stroke-opacity: 0.9; stroke-width: 0.5; stroke-linecap: square"/>
   </g>
   <g id="line2d_12">
    <path d="M 67.114102 138.944176 
L 185.098794 214.554331 
" clip-path="url(#pf47f0287b9)" style="fill: none; stroke: #555555; stroke-opacity: 0.9; stroke-width: 0.5; stroke-linecap: square"/>
   </g>
   <g id="line2d_13">
    <path d="M 139.011024 214.554331 
L 185.098794 214.554331 
" clip-path="url(#pf47f0287b9)" style="fill: none; stroke: #555555; stroke-opacity: 0.9; stroke-width: 0.5; stroke-linecap: square"/>
   </g>
   <g id="line2d_14">
    <path d="M 99.068289 88.537406 
L 109.053973 72.78529 
" clip-path="url(#pf47f0287b9)" style="fill: none; stroke: #555555; stroke-opacity: 0.9; stroke-width: 0.5; stroke-linecap: square"/>
   </g>
   <g id="line2d_15">
    <path d="M 52.238876 162.409396 
L 19.18282 214.554331 
" clip-path="url(#pf47f0287b9)" style="fill: none; stroke: #555555; stroke-opacity: 0.9; stroke-width: 0.5; stroke-linecap: square"/>
   </g>
   <g id="line2d_16">
    <path d="M 99.068289 88.537406 
L 94.075447 96.413464 
" clip-path="url(#pf47f0287b9)" style="fill: none; stroke: #555555; stroke-opacity: 0.9; stroke-width: 0.5; stroke-linecap: square"/>
   </g>
   <g id="line2d_17">
    <path d="M 198.925125 120.041637 
L 153.989549 49.157117 
" clip-path="url(#pf47f0287b9)" style="fill: none; stroke: #555555; stroke-opacity: 0.9; stroke-width: 0.5; stroke-linecap: square"/>
   </g>
   <g id="line2d_18">
    <path d="M 198.925125 120.041637 
L 139.011024 120.041637 
" clip-path="url(#pf47f0287b9)" style="fill: none; stroke: #555555; stroke-opacity: 0.9; stroke-width: 0.5; stroke-linecap: square"/>
   </g>
   <g id="line2d_19">
    <path d="M 59.125555 151.545868 
L 99.068289 214.554331 
" clip-path="url(#pf47f0287b9)" style="fill: none; stroke: #555555; stroke-opacity: 0.9; stroke-width: 0.5; stroke-linecap: square"/>
   </g>
   <g id="line2d_20">
    <path d="M 228.882176 167.297984 
L 139.011024 120.041637 
" clip-path="url(#pf47f0287b9)" style="fill: none; stroke: #555555; stroke-opacity: 0.9; stroke-width: 0.5; stroke-linecap: square"/>
   </g>
   <g id="line2d_21">
    <path d="M 153.989549 49.157117 
L 109.053973 72.78529 
" clip-path="url(#pf47f0287b9)" style="fill: none; stroke: #555555; stroke-opacity: 0.9; stroke-width: 0.5; stroke-linecap: square"/>
   </g>
   <g id="line2d_22">
    <path d="M 198.925125 214.554331 
L 258.839227 214.554331 
" clip-path="url(#pf47f0287b9)" style="fill: none; stroke: #555555; stroke-opacity: 0.9; stroke-width: 0.5; stroke-linecap: square"/>
   </g>
   <g id="line2d_23">
    <path d="M 198.925125 214.554331 
L 185.098794 214.554331 
" clip-path="url(#pf47f0287b9)" style="fill: none; stroke: #555555; stroke-opacity: 0.9; stroke-width: 0.5; stroke-linecap: square"/>
   </g>
   <g id="line2d_24">
    <path d="M 59.125555 151.545868 
L 185.098794 214.554331 
" clip-path="url(#pf47f0287b9)" style="fill: none; stroke: #555555; stroke-opacity: 0.9; stroke-width: 0.5; stroke-linecap: square"/>
   </g>
   <g id="line2d_25">
    <path d="M 139.011024 214.554331 
L 59.125555 151.545868 
" clip-path="url(#pf47f0287b9)" style="fill: none; stroke: #555555; stroke-opacity: 0.9; stroke-width: 0.5; stroke-linecap: square"/>
   </g>
   <g id="line2d_26">
    <path d="M 99.068289 88.537406 
L 139.011024 120.041637 
" clip-path="url(#pf47f0287b9)" style="fill: none; stroke: #555555; stroke-opacity: 0.9; stroke-width: 0.5; stroke-linecap: square"/>
   </g>
   <g id="line2d_27">
    <path d="M 139.011024 120.041637 
L 94.075447 96.413464 
" clip-path="url(#pf47f0287b9)" style="fill: none; stroke: #555555; stroke-opacity: 0.9; stroke-width: 0.5; stroke-linecap: square"/>
   </g>
   <g id="line2d_28">
    <path d="M 79.096922 120.041637 
L 94.075447 96.413464 
" clip-path="url(#pf47f0287b9)" style="fill: none; stroke: #555555; stroke-opacity: 0.9; stroke-width: 0.5; stroke-linecap: square"/>
   </g>
   <g id="line2d_29">
    <path d="M 79.096922 120.041637 
L 258.839227 214.554331 
" clip-path="url(#pf47f0287b9)" style="fill: none; stroke: #555555; stroke-opacity: 0.9; stroke-width: 0.5; stroke-linecap: square"/>
   </g>
   <g id="line2d_30">
    <path d="M 59.125555 151.545868 
L 67.114102 138.944176 
" clip-path="url(#pf47f0287b9)" style="fill: none; stroke: #555555; stroke-opacity: 0.9; stroke-width: 0.5; stroke-linecap: square"/>
   </g>
   <g id="line2d_31">
    <path d="M 198.925125 214.554331 
L 67.114102 138.944176 
" clip-path="url(#pf47f0287b9)" style="fill: none; stroke: #555555; stroke-opacity: 0.9; stroke-width: 0.5; stroke-linecap: square"/>
   </g>
   <g id="line2d_32">
    <path d="M 99.068289 214.554331 
L 52.238876 162.409396 
" clip-path="url(#pf47f0287b9)" style="fill: none; stroke: #555555; stroke-opacity: 0.9; stroke-width: 0.5; stroke-linecap: square"/>
   </g>
   <g id="line2d_33">
    <path d="M 99.068289 214.554331 
L 19.18282 214.554331 
" clip-path="url(#pf47f0287b9)" style="fill: none; stroke: #555555; stroke-opacity: 0.9; stroke-width: 0.5; stroke-linecap: square"/>
   </g>
   <g id="line2d_34">
    <path d="M 153.989549 49.157117 
L 139.011024 25.528943 
" clip-path="url(#pf47f0287b9)" style="fill: none; stroke: #555555; stroke-opacity: 0.9; stroke-width: 0.5; stroke-linecap: square"/>
   </g>
   <g id="PathCollection_1">
    <defs>
     <path id="md94c70bc2d" d="M 0 2.738613 
C 0.726289 2.738613 1.422928 2.450055 1.936492 1.936492 
C 2.450055 1.422928 2.738613 0.726289 2.738613 0 
C 2.738613 -0.726289 2.450055 -1.422928 1.936492 -1.936492 
C 1.422928 -2.450055 0.726289 -2.738613 0 -2.738613 
C -0.726289 -2.738613 -1.422928 -2.450055 -1.936492 -1.936492 
C -2.450055 -1.422928 -2.738613 -0.726289 -2.738613 0 
C -2.738613 0.726289 -2.450055 1.422928 -1.936492 1.936492 
C -1.422928 2.450055 -0.726289 2.738613 0 2.738613 
z
" style="stroke: #008000"/>
    </defs>
    <g clip-path="url(#pf47f0287b9)">
     <use xlink:href="#md94c70bc2d" x="139.011024" y="120.041637" style="fill: #008000; stroke: #008000"/>
     <use xlink:href="#md94c70bc2d" x="258.839227" y="214.554331" style="fill: #008000; stroke: #008000"/>
     <use xlink:href="#md94c70bc2d" x="79.096922" y="120.041637" style="fill: #008000; stroke: #008000"/>
     <use xlink:href="#md94c70bc2d" x="109.053973" y="72.78529" style="fill: #008000; stroke: #008000"/>
     <use xlink:href="#md94c70bc2d" x="67.114102" y="138.944176" style="fill: #008000; stroke: #008000"/>
     <use xlink:href="#md94c70bc2d" x="198.925125" y="120.041637" style="fill: #008000; stroke: #008000"/>
     <use xlink:href="#md94c70bc2d" x="228.882176" y="167.297984" style="fill: #008000; stroke: #008000"/>
     <use xlink:href="#md94c70bc2d" x="139.011024" y="25.528943" style="fill: #008000; stroke: #008000"/>
     <use xlink:href="#md94c70bc2d" x="59.125555" y="151.545868" style="fill: #008000; stroke: #008000"/>
     <use xlink:href="#md94c70bc2d" x="52.238876" y="162.409396" style="fill: #008000; stroke: #008000"/>
     <use xlink:href="#md94c70bc2d" x="139.011024" y="214.554331" style="fill: #008000; stroke: #008000"/>
     <use xlink:href="#md94c70bc2d" x="99.068289" y="214.554331" style="fill: #008000; stroke: #008000"/>
     <use xlink:href="#md94c70bc2d" x="185.098794" y="214.554331" style="fill: #008000; stroke: #008000"/>
     <use xlink:href="#md94c70bc2d" x="99.068289" y="88.537406" style="fill: #008000; stroke: #008000"/>
     <use xlink:href="#md94c70bc2d" x="19.18282" y="214.554331" style="fill: #008000; stroke: #008000"/>
     <use xlink:href="#md94c70bc2d" x="94.075447" y="96.413464" style="fill: #008000; stroke: #008000"/>
     <use xlink:href="#md94c70bc2d" x="153.989549" y="49.157117" style="fill: #008000; stroke: #008000"/>
     <use xlink:href="#md94c70bc2d" x="198.925125" y="214.554331" style="fill: #008000; stroke: #008000"/>
    </g>
   </g>
   <g id="PathCollection_2">
    <defs>
     <path id="m2a2e69ab34" d="M -0 2.236068 
L 1.341641 0 
L 0 -2.236068 
L -1.341641 -0 
z
" style="stroke: #d3d3d3"/>
    </defs>
    <g clip-path="url(#pf47f0287b9)">
     <use xlink:href="#m2a2e69ab34" x="139.011024" y="25.528943" style="fill: #d3d3d3; stroke: #d3d3d3"/>
     <use xlink:href="#m2a2e69ab34" x="139.011024" y="25.528943" style="fill: #d3d3d3; stroke: #d3d3d3"/>
     <use xlink:href="#m2a2e69ab34" x="258.839227" y="214.554331" style="fill: #d3d3d3; stroke: #d3d3d3"/>
     <use xlink:href="#m2a2e69ab34" x="258.839227" y="214.554331" style="fill: #d3d3d3; stroke: #d3d3d3"/>
     <use xlink:href="#m2a2e69ab34" x="258.839227" y="214.554331" style="fill: #d3d3d3; stroke: #d3d3d3"/>
     <use xlink:href="#m2a2e69ab34" x="258.839227" y="214.554331" style="fill: #d3d3d3; stroke: #d3d3d3"/>
     <use xlink:href="#m2a2e69ab34" x="258.839227" y="214.554331" style="fill: #d3d3d3; stroke: #d3d3d3"/>
     <use xlink:href="#m2a2e69ab34" x="258.839227" y="214.554331" style="fill: #d3d3d3; stroke: #d3d3d3"/>
     <use xlink:href="#m2a2e69ab34" x="258.839227" y="214.554331" style="fill: #d3d3d3; stroke: #d3d3d3"/>
     <use xlink:href="#m2a2e69ab34" x="168.968074" y="72.78529" style="fill: #d3d3d3; stroke: #d3d3d3"/>
     <use xlink:href="#m2a2e69ab34" x="19.18282" y="214.554331" style="fill: #d3d3d3; stroke: #d3d3d3"/>
     <use xlink:href="#m2a2e69ab34" x="19.18282" y="214.554331" style="fill: #d3d3d3; stroke: #d3d3d3"/>
     <use xlink:href="#m2a2e69ab34" x="19.18282" y="214.554331" style="fill: #d3d3d3; stroke: #d3d3d3"/>
     <use xlink:href="#m2a2e69ab34" x="19.18282" y="214.554331" style="fill: #d3d3d3; stroke: #d3d3d3"/>
     <use xlink:href="#m2a2e69ab34" x="19.18282" y="214.554331" style="fill: #d3d3d3; stroke: #d3d3d3"/>
     <use xlink:href="#m2a2e69ab34" x="19.18282" y="214.554331" style="fill: #d3d3d3; stroke: #d3d3d3"/>
     <use xlink:href="#m2a2e69ab34" x="19.18282" y="214.554331" style="fill: #d3d3d3; stroke: #d3d3d3"/>
     <use xlink:href="#m2a2e69ab34" x="19.18282" y="214.554331" style="fill: #d3d3d3; stroke: #d3d3d3"/>
     <use xlink:href="#m2a2e69ab34" x="19.18282" y="214.554331" style="fill: #d3d3d3; stroke: #d3d3d3"/>
     <use xlink:href="#m2a2e69ab34" x="79.096922" y="120.041637" style="fill: #d3d3d3; stroke: #d3d3d3"/>
     <use xlink:href="#m2a2e69ab34" x="99.068289" y="88.537406" style="fill: #d3d3d3; stroke: #d3d3d3"/>
     <use xlink:href="#m2a2e69ab34" x="109.053973" y="72.78529" style="fill: #d3d3d3; stroke: #d3d3d3"/>
     <use xlink:href="#m2a2e69ab34" x="109.053973" y="72.78529" style="fill: #d3d3d3; stroke: #d3d3d3"/>
     <use xlink:href="#m2a2e69ab34" x="109.053973" y="72.78529" style="fill: #d3d3d3; stroke: #d3d3d3"/>
     <use xlink:href="#m2a2e69ab34" x="109.053973" y="72.78529" style="fill: #d3d3d3; stroke: #d3d3d3"/>
     <use xlink:href="#m2a2e69ab34" x="139.011024" y="214.554331" style="fill: #d3d3d3; stroke: #d3d3d3"/>
     <use xlink:href="#m2a2e69ab34" x="198.925125" y="214.554331" style="fill: #d3d3d3; stroke: #d3d3d3"/>
     <use xlink:href="#m2a2e69ab34" x="198.925125" y="214.554331" style="fill: #d3d3d3; stroke: #d3d3d3"/>
     <use xlink:href="#m2a2e69ab34" x="198.925125" y="214.554331" style="fill: #d3d3d3; stroke: #d3d3d3"/>
     <use xlink:href="#m2a2e69ab34" x="210.907946" y="214.554331" style="fill: #d3d3d3; stroke: #d3d3d3"/>
     <use xlink:href="#m2a2e69ab34" x="99.068289" y="214.554331" style="fill: #d3d3d3; stroke: #d3d3d3"/>
     <use xlink:href="#m2a2e69ab34" x="99.068289" y="214.554331" style="fill: #d3d3d3; stroke: #d3d3d3"/>
     <use xlink:href="#m2a2e69ab34" x="49.139871" y="167.297984" style="fill: #d3d3d3; stroke: #d3d3d3"/>
     <use xlink:href="#m2a2e69ab34" x="67.114102" y="138.944176" style="fill: #d3d3d3; stroke: #d3d3d3"/>
     <use xlink:href="#m2a2e69ab34" x="79.096922" y="214.554331" style="fill: #d3d3d3; stroke: #d3d3d3"/>
     <use xlink:href="#m2a2e69ab34" x="79.096922" y="214.554331" style="fill: #d3d3d3; stroke: #d3d3d3"/>
     <use xlink:href="#m2a2e69ab34" x="115.045383" y="214.554331" style="fill: #d3d3d3; stroke: #d3d3d3"/>
     <use xlink:href="#m2a2e69ab34" x="208.385247" y="214.554331" style="fill: #d3d3d3; stroke: #d3d3d3"/>
     <use xlink:href="#m2a2e69ab34" x="102.140807" y="200.013916" style="fill: #d3d3d3; stroke: #d3d3d3"/>
     <use xlink:href="#m2a2e69ab34" x="42.226706" y="178.203295" style="fill: #d3d3d3; stroke: #d3d3d3"/>
    </g>
   </g>
   <g id="PathCollection_3">
    <defs>
     <path id="mef96380684" d="M 0 -5 
L -1.12257 -1.545085 
L -4.755283 -1.545085 
L -1.816356 0.59017 
L -2.938926 4.045085 
L -0 1.90983 
L 2.938926 4.045085 
L 1.816356 0.59017 
L 4.755283 -1.545085 
L 1.12257 -1.545085 
z
" style="stroke: #0000ff"/>
    </defs>
    <g clip-path="url(#pf47f0287b9)">
     <use xlink:href="#mef96380684" x="102.140807" y="200.013916" style="fill: #0000ff; stroke: #0000ff"/>
    </g>
   </g>
   <g id="text_1">
    <!-- $\mathrm{AlCuPt_{2}}$ -->
    <g transform="translate(107.67466 129.563058) scale(0.1 -0.1)">
     <defs>
      <path id="DejaVuSans-41" d="M 2188 4044 
L 1331 1722 
L 3047 1722 
L 2188 4044 
z
M 1831 4666 
L 2547 4666 
L 4325 0 
L 3669 0 
L 3244 1197 
L 1141 1197 
L 716 0 
L 50 0 
L 1831 4666 
z
" transform="scale(0.015625)"/>
      <path id="DejaVuSans-6c" d="M 603 4863 
L 1178 4863 
L 1178 0 
L 603 0 
L 603 4863 
z
" transform="scale(0.015625)"/>
      <path id="DejaVuSans-43" d="M 4122 4306 
L 4122 3641 
Q 3803 3938 3442 4084 
Q 3081 4231 2675 4231 
Q 1875 4231 1450 3742 
Q 1025 3253 1025 2328 
Q 1025 1406 1450 917 
Q 1875 428 2675 428 
Q 3081 428 3442 575 
Q 3803 722 4122 1019 
L 4122 359 
Q 3791 134 3420 21 
Q 3050 -91 2638 -91 
Q 1578 -91 968 557 
Q 359 1206 359 2328 
Q 359 3453 968 4101 
Q 1578 4750 2638 4750 
Q 3056 4750 3426 4639 
Q 3797 4528 4122 4306 
z
" transform="scale(0.015625)"/>
      <path id="DejaVuSans-75" d="M 544 1381 
L 544 3500 
L 1119 3500 
L 1119 1403 
Q 1119 906 1312 657 
Q 1506 409 1894 409 
Q 2359 409 2629 706 
Q 2900 1003 2900 1516 
L 2900 3500 
L 3475 3500 
L 3475 0 
L 2900 0 
L 2900 538 
Q 2691 219 2414 64 
Q 2138 -91 1772 -91 
Q 1169 -91 856 284 
Q 544 659 544 1381 
z
M 1991 3584 
L 1991 3584 
z
" transform="scale(0.015625)"/>
      <path id="DejaVuSans-50" d="M 1259 4147 
L 1259 2394 
L 2053 2394 
Q 2494 2394 2734 2622 
Q 2975 2850 2975 3272 
Q 2975 3691 2734 3919 
Q 2494 4147 2053 4147 
L 1259 4147 
z
M 628 4666 
L 2053 4666 
Q 2838 4666 3239 4311 
Q 3641 3956 3641 3272 
Q 3641 2581 3239 2228 
Q 2838 1875 2053 1875 
L 1259 1875 
L 1259 0 
L 628 0 
L 628 4666 
z
" transform="scale(0.015625)"/>
      <path id="DejaVuSans-74" d="M 1172 4494 
L 1172 3500 
L 2356 3500 
L 2356 3053 
L 1172 3053 
L 1172 1153 
Q 1172 725 1289 603 
Q 1406 481 1766 481 
L 2356 481 
L 2356 0 
L 1766 0 
Q 1100 0 847 248 
Q 594 497 594 1153 
L 594 3053 
L 172 3053 
L 172 3500 
L 594 3500 
L 594 4494 
L 1172 4494 
z
" transform="scale(0.015625)"/>
      <path id="DejaVuSans-32" d="M 1228 531 
L 3431 531 
L 3431 0 
L 469 0 
L 469 531 
Q 828 903 1448 1529 
Q 2069 2156 2228 2338 
Q 2531 2678 2651 2914 
Q 2772 3150 2772 3378 
Q 2772 3750 2511 3984 
Q 2250 4219 1831 4219 
Q 1534 4219 1204 4116 
Q 875 4013 500 3803 
L 500 4441 
Q 881 4594 1212 4672 
Q 1544 4750 1819 4750 
Q 2544 4750 2975 4387 
Q 3406 4025 3406 3419 
Q 3406 3131 3298 2873 
Q 3191 2616 2906 2266 
Q 2828 2175 2409 1742 
Q 1991 1309 1228 531 
z
" transform="scale(0.015625)"/>
     </defs>
     <use xlink:href="#DejaVuSans-41" transform="translate(0 0.015625)"/>
     <use xlink:href="#DejaVuSans-6c" transform="translate(68.408203 0.015625)"/>
     <use xlink:href="#DejaVuSans-43" transform="translate(96.191406 0.015625)"/>
     <use xlink:href="#DejaVuSans-75" transform="translate(166.015625 0.015625)"/>
     <use xlink:href="#DejaVuSans-50" transform="translate(229.394531 0.015625)"/>
     <use xlink:href="#DejaVuSans-74" transform="translate(289.697266 0.015625)"/>
     <use xlink:href="#DejaVuSans-32" transform="translate(329.863281 -16.390625) scale(0.7)"/>
    </g>
   </g>
   <g id="text_2">
    <!-- $\mathrm{Cu}$ -->
    <g transform="translate(245.859482 211.527642) scale(0.1 -0.1)">
     <use xlink:href="#DejaVuSans-43" transform="translate(0 0.78125)"/>
     <use xlink:href="#DejaVuSans-75" transform="translate(69.824219 0.78125)"/>
    </g>
   </g>
   <g id="text_3">
    <!-- $\mathrm{AlPt}$ -->
    <g transform="translate(80.424195 119.509102) scale(0.1 -0.1)">
     <use xlink:href="#DejaVuSans-41" transform="translate(0 0.015625)"/>
     <use xlink:href="#DejaVuSans-6c" transform="translate(68.408203 0.015625)"/>
     <use xlink:href="#DejaVuSans-50" transform="translate(96.191406 0.015625)"/>
     <use xlink:href="#DejaVuSans-74" transform="translate(156.494141 0.015625)"/>
    </g>
   </g>
   <g id="text_4">
    <!-- $\mathrm{AlPt_{3}}$ -->
    <g transform="translate(103.399427 68.638869) scale(0.1 -0.1)">
     <defs>
      <path id="DejaVuSans-33" d="M 2597 2516 
Q 3050 2419 3304 2112 
Q 3559 1806 3559 1356 
Q 3559 666 3084 287 
Q 2609 -91 1734 -91 
Q 1441 -91 1130 -33 
Q 819 25 488 141 
L 488 750 
Q 750 597 1062 519 
Q 1375 441 1716 441 
Q 2309 441 2620 675 
Q 2931 909 2931 1356 
Q 2931 1769 2642 2001 
Q 2353 2234 1838 2234 
L 1294 2234 
L 1294 2753 
L 1863 2753 
Q 2328 2753 2575 2939 
Q 2822 3125 2822 3475 
Q 2822 3834 2567 4026 
Q 2313 4219 1838 4219 
Q 1578 4219 1281 4162 
Q 984 4106 628 3988 
L 628 4550 
Q 988 4650 1302 4700 
Q 1616 4750 1894 4750 
Q 2613 4750 3031 4423 
Q 3450 4097 3450 3541 
Q 3450 3153 3228 2886 
Q 3006 2619 2597 2516 
z
" transform="scale(0.015625)"/>
     </defs>
     <use xlink:href="#DejaVuSans-41" transform="translate(0 0.015625)"/>
     <use xlink:href="#DejaVuSans-6c" transform="translate(68.408203 0.015625)"/>
     <use xlink:href="#DejaVuSans-50" transform="translate(96.191406 0.015625)"/>
     <use xlink:href="#DejaVuSans-74" transform="translate(156.494141 0.015625)"/>
     <use xlink:href="#DejaVuSans-33" transform="translate(196.660156 -16.390625) scale(0.7)"/>
    </g>
   </g>
   <g id="text_5">
    <!-- $\mathrm{Al_{3}Pt_{2}}$ -->
    <g transform="translate(60.063529 134.174216) scale(0.1 -0.1)">
     <use xlink:href="#DejaVuSans-41" transform="translate(0 0.015625)"/>
     <use xlink:href="#DejaVuSans-6c" transform="translate(68.408203 0.015625)"/>
     <use xlink:href="#DejaVuSans-33" transform="translate(97.148438 -16.390625) scale(0.7)"/>
     <use xlink:href="#DejaVuSans-50" transform="translate(144.418945 0.015625)"/>
     <use xlink:href="#DejaVuSans-74" transform="translate(204.72168 0.015625)"/>
     <use xlink:href="#DejaVuSans-32" transform="translate(244.887695 -16.390625) scale(0.7)"/>
    </g>
   </g>
   <g id="text_6">
    <!-- $\mathrm{CuPt}$ -->
    <g transform="translate(180.075125 128.238638) scale(0.1 -0.1)">
     <use xlink:href="#DejaVuSans-43" transform="translate(0 0.78125)"/>
     <use xlink:href="#DejaVuSans-75" transform="translate(69.824219 0.78125)"/>
     <use xlink:href="#DejaVuSans-50" transform="translate(133.203125 0.78125)"/>
     <use xlink:href="#DejaVuSans-74" transform="translate(193.505859 0.78125)"/>
    </g>
   </g>
   <g id="text_7">
    <!-- $\mathrm{Cu_{3}Pt}$ -->
    <g transform="translate(205.66854 176.195867) scale(0.1 -0.1)">
     <use xlink:href="#DejaVuSans-43" transform="translate(0 0.78125)"/>
     <use xlink:href="#DejaVuSans-75" transform="translate(69.824219 0.78125)"/>
     <use xlink:href="#DejaVuSans-33" transform="translate(134.160156 -15.625) scale(0.7)"/>
     <use xlink:href="#DejaVuSans-50" transform="translate(181.430664 0.78125)"/>
     <use xlink:href="#DejaVuSans-74" transform="translate(241.733398 0.78125)"/>
    </g>
   </g>
   <g id="text_8">
    <!-- $\mathrm{Pt}$ -->
    <g transform="translate(139.901933 32.478868) scale(0.1 -0.1)">
     <use xlink:href="#DejaVuSans-50" transform="translate(0 0.09375)"/>
     <use xlink:href="#DejaVuSans-74" transform="translate(60.302734 0.09375)"/>
    </g>
   </g>
   <g id="text_9">
    <!-- $\mathrm{Al_{2}Pt}$ -->
    <g transform="translate(48.158581 147.972985) scale(0.1 -0.1)">
     <use xlink:href="#DejaVuSans-41" transform="translate(0 0.015625)"/>
     <use xlink:href="#DejaVuSans-6c" transform="translate(68.408203 0.015625)"/>
     <use xlink:href="#DejaVuSans-32" transform="translate(97.148438 -16.390625) scale(0.7)"/>
     <use xlink:href="#DejaVuSans-50" transform="translate(144.418945 0.015625)"/>
     <use xlink:href="#DejaVuSans-74" transform="translate(204.72168 0.015625)"/>
    </g>
   </g>
   <g id="text_10">
    <!-- $\mathrm{Al_{21}Pt_{8}}$ -->
    <g transform="translate(24.261604 171.980817) scale(0.1 -0.1)">
     <defs>
      <path id="DejaVuSans-31" d="M 794 531 
L 1825 531 
L 1825 4091 
L 703 3866 
L 703 4441 
L 1819 4666 
L 2450 4666 
L 2450 531 
L 3481 531 
L 3481 0 
L 794 0 
L 794 531 
z
" transform="scale(0.015625)"/>
      <path id="DejaVuSans-38" d="M 2034 2216 
Q 1584 2216 1326 1975 
Q 1069 1734 1069 1313 
Q 1069 891 1326 650 
Q 1584 409 2034 409 
Q 2484 409 2743 651 
Q 3003 894 3003 1313 
Q 3003 1734 2745 1975 
Q 2488 2216 2034 2216 
z
M 1403 2484 
Q 997 2584 770 2862 
Q 544 3141 544 3541 
Q 544 4100 942 4425 
Q 1341 4750 2034 4750 
Q 2731 4750 3128 4425 
Q 3525 4100 3525 3541 
Q 3525 3141 3298 2862 
Q 3072 2584 2669 2484 
Q 3125 2378 3379 2068 
Q 3634 1759 3634 1313 
Q 3634 634 3220 271 
Q 2806 -91 2034 -91 
Q 1263 -91 848 271 
Q 434 634 434 1313 
Q 434 1759 690 2068 
Q 947 2378 1403 2484 
z
M 1172 3481 
Q 1172 3119 1398 2916 
Q 1625 2713 2034 2713 
Q 2441 2713 2670 2916 
Q 2900 3119 2900 3481 
Q 2900 3844 2670 4047 
Q 2441 4250 2034 4250 
Q 1625 4250 1398 4047 
Q 1172 3844 1172 3481 
z
" transform="scale(0.015625)"/>
     </defs>
     <use xlink:href="#DejaVuSans-41" transform="translate(0 0.015625)"/>
     <use xlink:href="#DejaVuSans-6c" transform="translate(68.408203 0.015625)"/>
     <use xlink:href="#DejaVuSans-32" transform="translate(97.148438 -16.390625) scale(0.7)"/>
     <use xlink:href="#DejaVuSans-31" transform="translate(141.68457 -16.390625) scale(0.7)"/>
     <use xlink:href="#DejaVuSans-50" transform="translate(188.955078 0.015625)"/>
     <use xlink:href="#DejaVuSans-74" transform="translate(249.257812 0.015625)"/>
     <use xlink:href="#DejaVuSans-38" transform="translate(289.423828 -16.390625) scale(0.7)"/>
    </g>
   </g>
   <g id="text_11">
    <!-- $\mathrm{AlCu}$ -->
    <g transform="translate(132.092842 211.215873) scale(0.1 -0.1)">
     <use xlink:href="#DejaVuSans-41" transform="translate(0 0.015625)"/>
     <use xlink:href="#DejaVuSans-6c" transform="translate(68.408203 0.015625)"/>
     <use xlink:href="#DejaVuSans-43" transform="translate(96.191406 0.015625)"/>
     <use xlink:href="#DejaVuSans-75" transform="translate(166.015625 0.015625)"/>
    </g>
   </g>
   <g id="text_12">
    <!-- $\mathrm{Al_{2}Cu}$ -->
    <g transform="translate(92.061037 210.544971) scale(0.1 -0.1)">
     <use xlink:href="#DejaVuSans-41" transform="translate(0 0.015625)"/>
     <use xlink:href="#DejaVuSans-6c" transform="translate(68.408203 0.015625)"/>
     <use xlink:href="#DejaVuSans-32" transform="translate(97.148438 -16.390625) scale(0.7)"/>
     <use xlink:href="#DejaVuSans-43" transform="translate(144.418945 0.015625)"/>
     <use xlink:href="#DejaVuSans-75" transform="translate(214.243164 0.015625)"/>
    </g>
   </g>
   <g id="text_13">
    <!-- $\mathrm{Al_{4}Cu_{9}}$ -->
    <g transform="translate(172.071521 210.594971) scale(0.1 -0.1)">
     <defs>
      <path id="DejaVuSans-34" d="M 2419 4116 
L 825 1625 
L 2419 1625 
L 2419 4116 
z
M 2253 4666 
L 3047 4666 
L 3047 1625 
L 3713 1625 
L 3713 1100 
L 3047 1100 
L 3047 0 
L 2419 0 
L 2419 1100 
L 313 1100 
L 313 1709 
L 2253 4666 
z
" transform="scale(0.015625)"/>
      <path id="DejaVuSans-39" d="M 703 97 
L 703 672 
Q 941 559 1184 500 
Q 1428 441 1663 441 
Q 2288 441 2617 861 
Q 2947 1281 2994 2138 
Q 2813 1869 2534 1725 
Q 2256 1581 1919 1581 
Q 1219 1581 811 2004 
Q 403 2428 403 3163 
Q 403 3881 828 4315 
Q 1253 4750 1959 4750 
Q 2769 4750 3195 4129 
Q 3622 3509 3622 2328 
Q 3622 1225 3098 567 
Q 2575 -91 1691 -91 
Q 1453 -91 1209 -44 
Q 966 3 703 97 
z
M 1959 2075 
Q 2384 2075 2632 2365 
Q 2881 2656 2881 3163 
Q 2881 3666 2632 3958 
Q 2384 4250 1959 4250 
Q 1534 4250 1286 3958 
Q 1038 3666 1038 3163 
Q 1038 2656 1286 2365 
Q 1534 2075 1959 2075 
z
" transform="scale(0.015625)"/>
     </defs>
     <use xlink:href="#DejaVuSans-41" transform="translate(0 0.015625)"/>
     <use xlink:href="#DejaVuSans-6c" transform="translate(68.408203 0.015625)"/>
     <use xlink:href="#DejaVuSans-34" transform="translate(97.148438 -16.390625) scale(0.7)"/>
     <use xlink:href="#DejaVuSans-43" transform="translate(144.418945 0.015625)"/>
     <use xlink:href="#DejaVuSans-75" transform="translate(214.243164 0.015625)"/>
     <use xlink:href="#DejaVuSans-39" transform="translate(278.579102 -16.390625) scale(0.7)"/>
    </g>
   </g>
   <g id="text_14">
    <!-- $\mathrm{AlPt_{2}}$ -->
    <g transform="translate(92.104653 84.340985) scale(0.1 -0.1)">
     <use xlink:href="#DejaVuSans-41" transform="translate(0 0.015625)"/>
     <use xlink:href="#DejaVuSans-6c" transform="translate(68.408203 0.015625)"/>
     <use xlink:href="#DejaVuSans-50" transform="translate(96.191406 0.015625)"/>
     <use xlink:href="#DejaVuSans-74" transform="translate(156.494141 0.015625)"/>
     <use xlink:href="#DejaVuSans-32" transform="translate(196.660156 -16.390625) scale(0.7)"/>
    </g>
   </g>
   <g id="text_15">
    <!-- $\mathrm{Al}$ -->
    <g transform="translate(19.586902 211.839411) scale(0.1 -0.1)">
     <use xlink:href="#DejaVuSans-41" transform="translate(0 0.015625)"/>
     <use xlink:href="#DejaVuSans-6c" transform="translate(68.408203 0.015625)"/>
    </g>
   </g>
   <g id="text_16">
    <!-- $\mathrm{Al_{3}Pt_{5}}$ -->
    <g transform="translate(65.835254 103.490732) scale(0.1 -0.1)">
     <defs>
      <path id="DejaVuSans-35" d="M 691 4666 
L 3169 4666 
L 3169 4134 
L 1269 4134 
L 1269 2991 
Q 1406 3038 1543 3061 
Q 1681 3084 1819 3084 
Q 2600 3084 3056 2656 
Q 3513 2228 3513 1497 
Q 3513 744 3044 326 
Q 2575 -91 1722 -91 
Q 1428 -91 1123 -41 
Q 819 9 494 109 
L 494 744 
Q 775 591 1075 516 
Q 1375 441 1709 441 
Q 2250 441 2565 725 
Q 2881 1009 2881 1497 
Q 2881 1984 2565 2268 
Q 2250 2553 1709 2553 
Q 1456 2553 1204 2497 
Q 953 2441 691 2322 
L 691 4666 
z
" transform="scale(0.015625)"/>
     </defs>
     <use xlink:href="#DejaVuSans-41" transform="translate(0 0.015625)"/>
     <use xlink:href="#DejaVuSans-6c" transform="translate(68.408203 0.015625)"/>
     <use xlink:href="#DejaVuSans-33" transform="translate(97.148438 -16.390625) scale(0.7)"/>
     <use xlink:href="#DejaVuSans-50" transform="translate(144.418945 0.015625)"/>
     <use xlink:href="#DejaVuSans-74" transform="translate(204.72168 0.015625)"/>
     <use xlink:href="#DejaVuSans-35" transform="translate(244.887695 -16.390625) scale(0.7)"/>
    </g>
   </g>
   <g id="text_17">
    <!-- $\mathrm{CuPt_{7}}$ -->
    <g transform="translate(131.430458 58.005) scale(0.1 -0.1)">
     <defs>
      <path id="DejaVuSans-37" d="M 525 4666 
L 3525 4666 
L 3525 4397 
L 1831 0 
L 1172 0 
L 2766 4134 
L 525 4134 
L 525 4666 
z
" transform="scale(0.015625)"/>
     </defs>
     <use xlink:href="#DejaVuSans-43" transform="translate(0 0.78125)"/>
     <use xlink:href="#DejaVuSans-75" transform="translate(69.824219 0.78125)"/>
     <use xlink:href="#DejaVuSans-50" transform="translate(133.203125 0.78125)"/>
     <use xlink:href="#DejaVuSans-74" transform="translate(193.505859 0.78125)"/>
     <use xlink:href="#DejaVuSans-37" transform="translate(233.671875 -15.625) scale(0.7)"/>
    </g>
   </g>
   <g id="text_18">
    <!-- $\mathrm{AlCu_{3}}$ -->
    <g transform="translate(204.661489 210.594971) scale(0.1 -0.1)">
     <use xlink:href="#DejaVuSans-41" transform="translate(0 0.015625)"/>
     <use xlink:href="#DejaVuSans-6c" transform="translate(68.408203 0.015625)"/>
     <use xlink:href="#DejaVuSans-43" transform="translate(96.191406 0.015625)"/>
     <use xlink:href="#DejaVuSans-75" transform="translate(166.015625 0.015625)"/>
     <use xlink:href="#DejaVuSans-33" transform="translate(230.351562 -16.390625) scale(0.7)"/>
    </g>
   </g>
   <g id="text_19">
    <!-- $\mathrm{Al_{8}Cu_{4}Pt}$ -->
    <g style="fill: #0000ff" transform="translate(94.54622 195.867495) scale(0.1 -0.1)">
     <use xlink:href="#DejaVuSans-41" transform="translate(0 0.015625)"/>
     <use xlink:href="#DejaVuSans-6c" transform="translate(68.408203 0.015625)"/>
     <use xlink:href="#DejaVuSans-38" transform="translate(97.148438 -16.390625) scale(0.7)"/>
     <use xlink:href="#DejaVuSans-43" transform="translate(144.418945 0.015625)"/>
     <use xlink:href="#DejaVuSans-75" transform="translate(214.243164 0.015625)"/>
     <use xlink:href="#DejaVuSans-34" transform="translate(278.579102 -16.390625) scale(0.7)"/>
     <use xlink:href="#DejaVuSans-50" transform="translate(325.849609 0.015625)"/>
     <use xlink:href="#DejaVuSans-74" transform="translate(386.152344 0.015625)"/>
    </g>
   </g>
  </g>
  <g id="axes_2">
   <g id="patch_3">
    <path d="M 287.298425 195.703937 
L 296.029134 195.703937 
L 296.029134 36.96378 
L 287.298425 36.96378 
L 287.298425 195.703937 
z
" style="fill: none"/>
   </g>
   <g id="patch_4">
    <path d="M 287.298425 195.703937 
L 291.66378 203.640945 
L 296.029134 195.703937 
" style="fill: #440154; opacity: 0.7"/>
   </g>
   <g id="patch_5">
    <path d="M 287.298425 36.96378 
L 291.66378 29.026772 
L 296.029134 36.96378 
" style="fill: #fde725; opacity: 0.7"/>
   </g>
   <g id="QuadMesh_1">
    <path d="M 287.298425 195.703937 
L 296.029134 195.703937 
L 296.029134 191.735433 
L 287.298425 191.735433 
L 287.298425 195.703937 
" clip-path="url(#pcbc5aedbee)" style="fill: #450559; fill-opacity: 0.7"/>
    <path d="M 287.298425 191.735433 
L 296.029134 191.735433 
L 296.029134 187.766929 
L 287.298425 187.766929 
L 287.298425 191.735433 
" clip-path="url(#pcbc5aedbee)" style="fill: #470e61; fill-opacity: 0.7"/>
    <path d="M 287.298425 187.766929 
L 296.029134 187.766929 
L 296.029134 183.798425 
L 287.298425 183.798425 
L 287.298425 187.766929 
" clip-path="url(#pcbc5aedbee)" style="fill: #481769; fill-opacity: 0.7"/>
    <path d="M 287.298425 183.798425 
L 296.029134 183.798425 
L 296.029134 179.829921 
L 287.298425 179.829921 
L 287.298425 183.798425 
" clip-path="url(#pcbc5aedbee)" style="fill: #482071; fill-opacity: 0.7"/>
    <path d="M 287.298425 179.829921 
L 296.029134 179.829921 
L 296.029134 175.861417 
L 287.298425 175.861417 
L 287.298425 179.829921 
" clip-path="url(#pcbc5aedbee)" style="fill: #482878; fill-opacity: 0.7"/>
    <path d="M 287.298425 175.861417 
L 296.029134 175.861417 
L 296.029134 171.892913 
L 287.298425 171.892913 
L 287.298425 175.861417 
" clip-path="url(#pcbc5aedbee)" style="fill: #46307e; fill-opacity: 0.7"/>
    <path d="M 287.298425 171.892913 
L 296.029134 171.892913 
L 296.029134 167.924409 
L 287.298425 167.924409 
L 287.298425 171.892913 
" clip-path="url(#pcbc5aedbee)" style="fill: #453882; fill-opacity: 0.7"/>
    <path d="M 287.298425 167.924409 
L 296.029134 167.924409 
L 296.029134 163.955906 
L 287.298425 163.955906 
L 287.298425 167.924409 
" clip-path="url(#pcbc5aedbee)" style="fill: #423f85; fill-opacity: 0.7"/>
    <path d="M 287.298425 163.955906 
L 296.029134 163.955906 
L 296.029134 159.987402 
L 287.298425 159.987402 
L 287.298425 163.955906 
" clip-path="url(#pcbc5aedbee)" style="fill: #3f4788; fill-opacity: 0.7"/>
    <path d="M 287.298425 159.987402 
L 296.029134 159.987402 
L 296.029134 156.018898 
L 287.298425 156.018898 
L 287.298425 159.987402 
" clip-path="url(#pcbc5aedbee)" style="fill: #3d4e8a; fill-opacity: 0.7"/>
    <path d="M 287.298425 156.018898 
L 296.029134 156.018898 
L 296.029134 152.050394 
L 287.298425 152.050394 
L 287.298425 156.018898 
" clip-path="url(#pcbc5aedbee)" style="fill: #39558c; fill-opacity: 0.7"/>
    <path d="M 287.298425 152.050394 
L 296.029134 152.050394 
L 296.029134 148.08189 
L 287.298425 148.08189 
L 287.298425 152.050394 
" clip-path="url(#pcbc5aedbee)" style="fill: #365c8d; fill-opacity: 0.7"/>
    <path d="M 287.298425 148.08189 
L 296.029134 148.08189 
L 296.029134 144.113386 
L 287.298425 144.113386 
L 287.298425 148.08189 
" clip-path="url(#pcbc5aedbee)" style="fill: #33638d; fill-opacity: 0.7"/>
    <path d="M 287.298425 144.113386 
L 296.029134 144.113386 
L 296.029134 140.144882 
L 287.298425 140.144882 
L 287.298425 144.113386 
" clip-path="url(#pcbc5aedbee)" style="fill: #30698e; fill-opacity: 0.7"/>
    <path d="M 287.298425 140.144882 
L 296.029134 140.144882 
L 296.029134 136.176378 
L 287.298425 136.176378 
L 287.298425 140.144882 
" clip-path="url(#pcbc5aedbee)" style="fill: #2e6f8e; fill-opacity: 0.7"/>
    <path d="M 287.298425 136.176378 
L 296.029134 136.176378 
L 296.029134 132.207874 
L 287.298425 132.207874 
L 287.298425 136.176378 
" clip-path="url(#pcbc5aedbee)" style="fill: #2b758e; fill-opacity: 0.7"/>
    <path d="M 287.298425 132.207874 
L 296.029134 132.207874 
L 296.029134 128.23937 
L 287.298425 128.23937 
L 287.298425 132.207874 
" clip-path="url(#pcbc5aedbee)" style="fill: #297b8e; fill-opacity: 0.7"/>
    <path d="M 287.298425 128.23937 
L 296.029134 128.23937 
L 296.029134 124.270866 
L 287.298425 124.270866 
L 287.298425 128.23937 
" clip-path="url(#pcbc5aedbee)" style="fill: #26828e; fill-opacity: 0.7"/>
    <path d="M 287.298425 124.270866 
L 296.029134 124.270866 
L 296.029134 120.302362 
L 287.298425 120.302362 
L 287.298425 124.270866 
" clip-path="url(#pcbc5aedbee)" style="fill: #24878e; fill-opacity: 0.7"/>
    <path d="M 287.298425 120.302362 
L 296.029134 120.302362 
L 296.029134 116.333858 
L 287.298425 116.333858 
L 287.298425 120.302362 
" clip-path="url(#pcbc5aedbee)" style="fill: #228d8d; fill-opacity: 0.7"/>
    <path d="M 287.298425 116.333858 
L 296.029134 116.333858 
L 296.029134 112.365354 
L 287.298425 112.365354 
L 287.298425 116.333858 
" clip-path="url(#pcbc5aedbee)" style="fill: #20938c; fill-opacity: 0.7"/>
    <path d="M 287.298425 112.365354 
L 296.029134 112.365354 
L 296.029134 108.39685 
L 287.298425 108.39685 
L 287.298425 112.365354 
" clip-path="url(#pcbc5aedbee)" style="fill: #1f998a; fill-opacity: 0.7"/>
    <path d="M 287.298425 108.39685 
L 296.029134 108.39685 
L 296.029134 104.428346 
L 287.298425 104.428346 
L 287.298425 108.39685 
" clip-path="url(#pcbc5aedbee)" style="fill: #1fa088; fill-opacity: 0.7"/>
    <path d="M 287.298425 104.428346 
L 296.029134 104.428346 
L 296.029134 100.459843 
L 287.298425 100.459843 
L 287.298425 104.428346 
" clip-path="url(#pcbc5aedbee)" style="fill: #21a585; fill-opacity: 0.7"/>
    <path d="M 287.298425 100.459843 
L 296.029134 100.459843 
L 296.029134 96.491339 
L 287.298425 96.491339 
L 287.298425 100.459843 
" clip-path="url(#pcbc5aedbee)" style="fill: #25ab82; fill-opacity: 0.7"/>
    <path d="M 287.298425 96.491339 
L 296.029134 96.491339 
L 296.029134 92.522835 
L 287.298425 92.522835 
L 287.298425 96.491339 
" clip-path="url(#pcbc5aedbee)" style="fill: #2cb17e; fill-opacity: 0.7"/>
    <path d="M 287.298425 92.522835 
L 296.029134 92.522835 
L 296.029134 88.554331 
L 287.298425 88.554331 
L 287.298425 92.522835 
" clip-path="url(#pcbc5aedbee)" style="fill: #34b679; fill-opacity: 0.7"/>
    <path d="M 287.298425 88.554331 
L 296.029134 88.554331 
L 296.029134 84.585827 
L 287.298425 84.585827 
L 287.298425 88.554331 
" clip-path="url(#pcbc5aedbee)" style="fill: #3fbc73; fill-opacity: 0.7"/>
    <path d="M 287.298425 84.585827 
L 296.029134 84.585827 
L 296.029134 80.617323 
L 287.298425 80.617323 
L 287.298425 84.585827 
" clip-path="url(#pcbc5aedbee)" style="fill: #4ac16d; fill-opacity: 0.7"/>
    <path d="M 287.298425 80.617323 
L 296.029134 80.617323 
L 296.029134 76.648819 
L 287.298425 76.648819 
L 287.298425 80.617323 
" clip-path="url(#pcbc5aedbee)" style="fill: #56c667; fill-opacity: 0.7"/>
    <path d="M 287.298425 76.648819 
L 296.029134 76.648819 
L 296.029134 72.680315 
L 287.298425 72.680315 
L 287.298425 76.648819 
" clip-path="url(#pcbc5aedbee)" style="fill: #65cb5e; fill-opacity: 0.7"/>
    <path d="M 287.298425 72.680315 
L 296.029134 72.680315 
L 296.029134 68.711811 
L 287.298425 68.711811 
L 287.298425 72.680315 
" clip-path="url(#pcbc5aedbee)" style="fill: #73d056; fill-opacity: 0.7"/>
    <path d="M 287.298425 68.711811 
L 296.029134 68.711811 
L 296.029134 64.743307 
L 287.298425 64.743307 
L 287.298425 68.711811 
" clip-path="url(#pcbc5aedbee)" style="fill: #84d44b; fill-opacity: 0.7"/>
    <path d="M 287.298425 64.743307 
L 296.029134 64.743307 
L 296.029134 60.774803 
L 287.298425 60.774803 
L 287.298425 64.743307 
" clip-path="url(#pcbc5aedbee)" style="fill: #93d741; fill-opacity: 0.7"/>
    <path d="M 287.298425 60.774803 
L 296.029134 60.774803 
L 296.029134 56.806299 
L 287.298425 56.806299 
L 287.298425 60.774803 
" clip-path="url(#pcbc5aedbee)" style="fill: #a2da37; fill-opacity: 0.7"/>
    <path d="M 287.298425 56.806299 
L 296.029134 56.806299 
L 296.029134 52.837795 
L 287.298425 52.837795 
L 287.298425 56.806299 
" clip-path="url(#pcbc5aedbee)" style="fill: #b5de2b; fill-opacity: 0.7"/>
    <path d="M 287.298425 52.837795 
L 296.029134 52.837795 
L 296.029134 48.869291 
L 287.298425 48.869291 
L 287.298425 52.837795 
" clip-path="url(#pcbc5aedbee)" style="fill: #c5e021; fill-opacity: 0.7"/>
    <path d="M 287.298425 48.869291 
L 296.029134 48.869291 
L 296.029134 44.900787 
L 287.298425 44.900787 
L 287.298425 48.869291 
" clip-path="url(#pcbc5aedbee)" style="fill: #d8e219; fill-opacity: 0.7"/>
    <path d="M 287.298425 44.900787 
L 296.029134 44.900787 
L 296.029134 40.932283 
L 287.298425 40.932283 
L 287.298425 44.900787 
" clip-path="url(#pcbc5aedbee)" style="fill: #e7e419; fill-opacity: 0.7"/>
    <path d="M 287.298425 40.932283 
L 296.029134 40.932283 
L 296.029134 36.96378 
L 287.298425 36.96378 
L 287.298425 40.932283 
" clip-path="url(#pcbc5aedbee)" style="fill: #f6e620; fill-opacity: 0.7"/>
   </g>
   <g id="matplotlib.axis_3"/>
   <g id="matplotlib.axis_4">
    <g id="ytick_1">
     <g id="line2d_35">
      <defs>
       <path id="mb1aa6563f1" d="M 0 0 
L -2 0 
" style="stroke: #000000; stroke-width: 0.3"/>
      </defs>
      <g>
       <use xlink:href="#mb1aa6563f1" x="296.029134" y="195.703937" style="stroke: #000000; stroke-width: 0.3"/>
      </g>
     </g>
     <g id="text_20">
      <!-- 1.025 -->
      <g transform="translate(299.529134 198.567062) scale(0.08 -0.08)">
       <defs>
        <path id="ArialMT-2212" d="M 3381 1997 
L 356 1997 
L 356 2522 
L 3381 2522 
L 3381 1997 
z
" transform="scale(0.015625)"/>
        <path id="ArialMT-31" d="M 2384 0 
L 1822 0 
L 1822 3584 
Q 1619 3391 1289 3197 
Q 959 3003 697 2906 
L 697 3450 
Q 1169 3672 1522 3987 
Q 1875 4303 2022 4600 
L 2384 4600 
L 2384 0 
z
" transform="scale(0.015625)"/>
        <path id="ArialMT-2e" d="M 581 0 
L 581 641 
L 1222 641 
L 1222 0 
L 581 0 
z
" transform="scale(0.015625)"/>
        <path id="ArialMT-30" d="M 266 2259 
Q 266 3072 433 3567 
Q 600 4063 929 4331 
Q 1259 4600 1759 4600 
Q 2128 4600 2406 4451 
Q 2684 4303 2865 4023 
Q 3047 3744 3150 3342 
Q 3253 2941 3253 2259 
Q 3253 1453 3087 958 
Q 2922 463 2592 192 
Q 2263 -78 1759 -78 
Q 1097 -78 719 397 
Q 266 969 266 2259 
z
M 844 2259 
Q 844 1131 1108 757 
Q 1372 384 1759 384 
Q 2147 384 2411 759 
Q 2675 1134 2675 2259 
Q 2675 3391 2411 3762 
Q 2147 4134 1753 4134 
Q 1366 4134 1134 3806 
Q 844 3388 844 2259 
z
" transform="scale(0.015625)"/>
        <path id="ArialMT-32" d="M 3222 541 
L 3222 0 
L 194 0 
Q 188 203 259 391 
Q 375 700 629 1000 
Q 884 1300 1366 1694 
Q 2113 2306 2375 2664 
Q 2638 3022 2638 3341 
Q 2638 3675 2398 3904 
Q 2159 4134 1775 4134 
Q 1369 4134 1125 3890 
Q 881 3647 878 3216 
L 300 3275 
Q 359 3922 746 4261 
Q 1134 4600 1788 4600 
Q 2447 4600 2831 4234 
Q 3216 3869 3216 3328 
Q 3216 3053 3103 2787 
Q 2991 2522 2730 2228 
Q 2469 1934 1863 1422 
Q 1356 997 1212 845 
Q 1069 694 975 541 
L 3222 541 
z
" transform="scale(0.015625)"/>
        <path id="ArialMT-35" d="M 266 1200 
L 856 1250 
Q 922 819 1161 601 
Q 1400 384 1738 384 
Q 2144 384 2425 690 
Q 2706 997 2706 1503 
Q 2706 1984 2436 2262 
Q 2166 2541 1728 2541 
Q 1456 2541 1237 2417 
Q 1019 2294 894 2097 
L 366 2166 
L 809 4519 
L 3088 4519 
L 3088 3981 
L 1259 3981 
L 1013 2750 
Q 1425 3038 1878 3038 
Q 2478 3038 2890 2622 
Q 3303 2206 3303 1553 
Q 3303 931 2941 478 
Q 2500 -78 1738 -78 
Q 1113 -78 717 272 
Q 322 622 266 1200 
z
" transform="scale(0.015625)"/>
       </defs>
       <use xlink:href="#ArialMT-2212"/>
       <use xlink:href="#ArialMT-31" transform="translate(58.398438 0)"/>
       <use xlink:href="#ArialMT-2e" transform="translate(114.013672 0)"/>
       <use xlink:href="#ArialMT-30" transform="translate(141.796875 0)"/>
       <use xlink:href="#ArialMT-32" transform="translate(197.412109 0)"/>
       <use xlink:href="#ArialMT-35" transform="translate(253.027344 0)"/>
      </g>
     </g>
    </g>
    <g id="ytick_2">
     <g id="line2d_36">
      <g>
       <use xlink:href="#mb1aa6563f1" x="296.029134" y="175.861417" style="stroke: #000000; stroke-width: 0.3"/>
      </g>
     </g>
     <g id="text_21">
      <!-- 0.900 -->
      <g transform="translate(299.529134 178.724542) scale(0.08 -0.08)">
       <defs>
        <path id="ArialMT-39" d="M 350 1059 
L 891 1109 
Q 959 728 1153 556 
Q 1347 384 1650 384 
Q 1909 384 2104 503 
Q 2300 622 2425 820 
Q 2550 1019 2634 1356 
Q 2719 1694 2719 2044 
Q 2719 2081 2716 2156 
Q 2547 1888 2255 1720 
Q 1963 1553 1622 1553 
Q 1053 1553 659 1965 
Q 266 2378 266 3053 
Q 266 3750 677 4175 
Q 1088 4600 1706 4600 
Q 2153 4600 2523 4359 
Q 2894 4119 3086 3673 
Q 3278 3228 3278 2384 
Q 3278 1506 3087 986 
Q 2897 466 2520 194 
Q 2144 -78 1638 -78 
Q 1100 -78 759 220 
Q 419 519 350 1059 
z
M 2653 3081 
Q 2653 3566 2395 3850 
Q 2138 4134 1775 4134 
Q 1400 4134 1122 3828 
Q 844 3522 844 3034 
Q 844 2597 1108 2323 
Q 1372 2050 1759 2050 
Q 2150 2050 2401 2323 
Q 2653 2597 2653 3081 
z
" transform="scale(0.015625)"/>
       </defs>
       <use xlink:href="#ArialMT-2212"/>
       <use xlink:href="#ArialMT-30" transform="translate(58.398438 0)"/>
       <use xlink:href="#ArialMT-2e" transform="translate(114.013672 0)"/>
       <use xlink:href="#ArialMT-39" transform="translate(141.796875 0)"/>
       <use xlink:href="#ArialMT-30" transform="translate(197.412109 0)"/>
       <use xlink:href="#ArialMT-30" transform="translate(253.027344 0)"/>
      </g>
     </g>
    </g>
    <g id="ytick_3">
     <g id="line2d_37">
      <g>
       <use xlink:href="#mb1aa6563f1" x="296.029134" y="156.018898" style="stroke: #000000; stroke-width: 0.3"/>
      </g>
     </g>
     <g id="text_22">
      <!-- 0.775 -->
      <g transform="translate(299.529134 158.882023) scale(0.08 -0.08)">
       <defs>
        <path id="ArialMT-37" d="M 303 3981 
L 303 4522 
L 3269 4522 
L 3269 4084 
Q 2831 3619 2401 2847 
Q 1972 2075 1738 1259 
Q 1569 684 1522 0 
L 944 0 
Q 953 541 1156 1306 
Q 1359 2072 1739 2783 
Q 2119 3494 2547 3981 
L 303 3981 
z
" transform="scale(0.015625)"/>
       </defs>
       <use xlink:href="#ArialMT-2212"/>
       <use xlink:href="#ArialMT-30" transform="translate(58.398438 0)"/>
       <use xlink:href="#ArialMT-2e" transform="translate(114.013672 0)"/>
       <use xlink:href="#ArialMT-37" transform="translate(141.796875 0)"/>
       <use xlink:href="#ArialMT-37" transform="translate(197.412109 0)"/>
       <use xlink:href="#ArialMT-35" transform="translate(253.027344 0)"/>
      </g>
     </g>
    </g>
    <g id="ytick_4">
     <g id="line2d_38">
      <g>
       <use xlink:href="#mb1aa6563f1" x="296.029134" y="136.176378" style="stroke: #000000; stroke-width: 0.3"/>
      </g>
     </g>
     <g id="text_23">
      <!-- 0.650 -->
      <g transform="translate(299.529134 139.039503) scale(0.08 -0.08)">
       <defs>
        <path id="ArialMT-36" d="M 3184 3459 
L 2625 3416 
Q 2550 3747 2413 3897 
Q 2184 4138 1850 4138 
Q 1581 4138 1378 3988 
Q 1113 3794 959 3422 
Q 806 3050 800 2363 
Q 1003 2672 1297 2822 
Q 1591 2972 1913 2972 
Q 2475 2972 2870 2558 
Q 3266 2144 3266 1488 
Q 3266 1056 3080 686 
Q 2894 316 2569 119 
Q 2244 -78 1831 -78 
Q 1128 -78 684 439 
Q 241 956 241 2144 
Q 241 3472 731 4075 
Q 1159 4600 1884 4600 
Q 2425 4600 2770 4297 
Q 3116 3994 3184 3459 
z
M 888 1484 
Q 888 1194 1011 928 
Q 1134 663 1356 523 
Q 1578 384 1822 384 
Q 2178 384 2434 671 
Q 2691 959 2691 1453 
Q 2691 1928 2437 2201 
Q 2184 2475 1800 2475 
Q 1419 2475 1153 2201 
Q 888 1928 888 1484 
z
" transform="scale(0.015625)"/>
       </defs>
       <use xlink:href="#ArialMT-2212"/>
       <use xlink:href="#ArialMT-30" transform="translate(58.398438 0)"/>
       <use xlink:href="#ArialMT-2e" transform="translate(114.013672 0)"/>
       <use xlink:href="#ArialMT-36" transform="translate(141.796875 0)"/>
       <use xlink:href="#ArialMT-35" transform="translate(197.412109 0)"/>
       <use xlink:href="#ArialMT-30" transform="translate(253.027344 0)"/>
      </g>
     </g>
    </g>
    <g id="ytick_5">
     <g id="line2d_39">
      <g>
       <use xlink:href="#mb1aa6563f1" x="296.029134" y="116.333858" style="stroke: #000000; stroke-width: 0.3"/>
      </g>
     </g>
     <g id="text_24">
      <!-- 0.525 -->
      <g transform="translate(299.529134 119.196983) scale(0.08 -0.08)">
       <use xlink:href="#ArialMT-2212"/>
       <use xlink:href="#ArialMT-30" transform="translate(58.398438 0)"/>
       <use xlink:href="#ArialMT-2e" transform="translate(114.013672 0)"/>
       <use xlink:href="#ArialMT-35" transform="translate(141.796875 0)"/>
       <use xlink:href="#ArialMT-32" transform="translate(197.412109 0)"/>
       <use xlink:href="#ArialMT-35" transform="translate(253.027344 0)"/>
      </g>
     </g>
    </g>
    <g id="ytick_6">
     <g id="line2d_40">
      <g>
       <use xlink:href="#mb1aa6563f1" x="296.029134" y="96.491339" style="stroke: #000000; stroke-width: 0.3"/>
      </g>
     </g>
     <g id="text_25">
      <!-- 0.400 -->
      <g transform="translate(299.529134 99.354464) scale(0.08 -0.08)">
       <defs>
        <path id="ArialMT-34" d="M 2069 0 
L 2069 1097 
L 81 1097 
L 81 1613 
L 2172 4581 
L 2631 4581 
L 2631 1613 
L 3250 1613 
L 3250 1097 
L 2631 1097 
L 2631 0 
L 2069 0 
z
M 2069 1613 
L 2069 3678 
L 634 1613 
L 2069 1613 
z
" transform="scale(0.015625)"/>
       </defs>
       <use xlink:href="#ArialMT-2212"/>
       <use xlink:href="#ArialMT-30" transform="translate(58.398438 0)"/>
       <use xlink:href="#ArialMT-2e" transform="translate(114.013672 0)"/>
       <use xlink:href="#ArialMT-34" transform="translate(141.796875 0)"/>
       <use xlink:href="#ArialMT-30" transform="translate(197.412109 0)"/>
       <use xlink:href="#ArialMT-30" transform="translate(253.027344 0)"/>
      </g>
     </g>
    </g>
    <g id="ytick_7">
     <g id="line2d_41">
      <g>
       <use xlink:href="#mb1aa6563f1" x="296.029134" y="76.648819" style="stroke: #000000; stroke-width: 0.3"/>
      </g>
     </g>
     <g id="text_26">
      <!-- 0.275 -->
      <g transform="translate(299.529134 79.511944) scale(0.08 -0.08)">
       <use xlink:href="#ArialMT-2212"/>
       <use xlink:href="#ArialMT-30" transform="translate(58.398438 0)"/>
       <use xlink:href="#ArialMT-2e" transform="translate(114.013672 0)"/>
       <use xlink:href="#ArialMT-32" transform="translate(141.796875 0)"/>
       <use xlink:href="#ArialMT-37" transform="translate(197.412109 0)"/>
       <use xlink:href="#ArialMT-35" transform="translate(253.027344 0)"/>
      </g>
     </g>
    </g>
    <g id="ytick_8">
     <g id="line2d_42">
      <g>
       <use xlink:href="#mb1aa6563f1" x="296.029134" y="56.806299" style="stroke: #000000; stroke-width: 0.3"/>
      </g>
     </g>
     <g id="text_27">
      <!-- 0.150 -->
      <g transform="translate(299.529134 59.669424) scale(0.08 -0.08)">
       <use xlink:href="#ArialMT-2212"/>
       <use xlink:href="#ArialMT-30" transform="translate(58.398438 0)"/>
       <use xlink:href="#ArialMT-2e" transform="translate(114.013672 0)"/>
       <use xlink:href="#ArialMT-31" transform="translate(141.796875 0)"/>
       <use xlink:href="#ArialMT-35" transform="translate(197.412109 0)"/>
       <use xlink:href="#ArialMT-30" transform="translate(253.027344 0)"/>
      </g>
     </g>
    </g>
    <g id="ytick_9">
     <g id="line2d_43">
      <g>
       <use xlink:href="#mb1aa6563f1" x="296.029134" y="36.96378" style="stroke: #000000; stroke-width: 0.3"/>
      </g>
     </g>
     <g id="text_28">
      <!-- 0.025 -->
      <g transform="translate(299.529134 39.826905) scale(0.08 -0.08)">
       <use xlink:href="#ArialMT-2212"/>
       <use xlink:href="#ArialMT-30" transform="translate(58.398438 0)"/>
       <use xlink:href="#ArialMT-2e" transform="translate(114.013672 0)"/>
       <use xlink:href="#ArialMT-30" transform="translate(141.796875 0)"/>
       <use xlink:href="#ArialMT-32" transform="translate(197.412109 0)"/>
       <use xlink:href="#ArialMT-35" transform="translate(253.027344 0)"/>
      </g>
     </g>
    </g>
    <g id="text_29">
     <!-- Formation Energy (eV/atom) -->
     <g transform="translate(335.498821 179.408077) rotate(-90) scale(0.1 -0.1)">
      <defs>
       <path id="ArialMT-46" d="M 525 0 
L 525 4581 
L 3616 4581 
L 3616 4041 
L 1131 4041 
L 1131 2622 
L 3281 2622 
L 3281 2081 
L 1131 2081 
L 1131 0 
L 525 0 
z
" transform="scale(0.015625)"/>
       <path id="ArialMT-6f" d="M 213 1659 
Q 213 2581 725 3025 
Q 1153 3394 1769 3394 
Q 2453 3394 2887 2945 
Q 3322 2497 3322 1706 
Q 3322 1066 3130 698 
Q 2938 331 2570 128 
Q 2203 -75 1769 -75 
Q 1072 -75 642 372 
Q 213 819 213 1659 
z
M 791 1659 
Q 791 1022 1069 705 
Q 1347 388 1769 388 
Q 2188 388 2466 706 
Q 2744 1025 2744 1678 
Q 2744 2294 2464 2611 
Q 2184 2928 1769 2928 
Q 1347 2928 1069 2612 
Q 791 2297 791 1659 
z
" transform="scale(0.015625)"/>
       <path id="ArialMT-72" d="M 416 0 
L 416 3319 
L 922 3319 
L 922 2816 
Q 1116 3169 1280 3281 
Q 1444 3394 1641 3394 
Q 1925 3394 2219 3213 
L 2025 2691 
Q 1819 2813 1613 2813 
Q 1428 2813 1281 2702 
Q 1134 2591 1072 2394 
Q 978 2094 978 1738 
L 978 0 
L 416 0 
z
" transform="scale(0.015625)"/>
       <path id="ArialMT-6d" d="M 422 0 
L 422 3319 
L 925 3319 
L 925 2853 
Q 1081 3097 1340 3245 
Q 1600 3394 1931 3394 
Q 2300 3394 2536 3241 
Q 2772 3088 2869 2813 
Q 3263 3394 3894 3394 
Q 4388 3394 4653 3120 
Q 4919 2847 4919 2278 
L 4919 0 
L 4359 0 
L 4359 2091 
Q 4359 2428 4304 2576 
Q 4250 2725 4106 2815 
Q 3963 2906 3769 2906 
Q 3419 2906 3187 2673 
Q 2956 2441 2956 1928 
L 2956 0 
L 2394 0 
L 2394 2156 
Q 2394 2531 2256 2718 
Q 2119 2906 1806 2906 
Q 1569 2906 1367 2781 
Q 1166 2656 1075 2415 
Q 984 2175 984 1722 
L 984 0 
L 422 0 
z
" transform="scale(0.015625)"/>
       <path id="ArialMT-61" d="M 2588 409 
Q 2275 144 1986 34 
Q 1697 -75 1366 -75 
Q 819 -75 525 192 
Q 231 459 231 875 
Q 231 1119 342 1320 
Q 453 1522 633 1644 
Q 813 1766 1038 1828 
Q 1203 1872 1538 1913 
Q 2219 1994 2541 2106 
Q 2544 2222 2544 2253 
Q 2544 2597 2384 2738 
Q 2169 2928 1744 2928 
Q 1347 2928 1158 2789 
Q 969 2650 878 2297 
L 328 2372 
Q 403 2725 575 2942 
Q 747 3159 1072 3276 
Q 1397 3394 1825 3394 
Q 2250 3394 2515 3294 
Q 2781 3194 2906 3042 
Q 3031 2891 3081 2659 
Q 3109 2516 3109 2141 
L 3109 1391 
Q 3109 606 3145 398 
Q 3181 191 3288 0 
L 2700 0 
Q 2613 175 2588 409 
z
M 2541 1666 
Q 2234 1541 1622 1453 
Q 1275 1403 1131 1340 
Q 988 1278 909 1158 
Q 831 1038 831 891 
Q 831 666 1001 516 
Q 1172 366 1500 366 
Q 1825 366 2078 508 
Q 2331 650 2450 897 
Q 2541 1088 2541 1459 
L 2541 1666 
z
" transform="scale(0.015625)"/>
       <path id="ArialMT-74" d="M 1650 503 
L 1731 6 
Q 1494 -44 1306 -44 
Q 1000 -44 831 53 
Q 663 150 594 308 
Q 525 466 525 972 
L 525 2881 
L 113 2881 
L 113 3319 
L 525 3319 
L 525 4141 
L 1084 4478 
L 1084 3319 
L 1650 3319 
L 1650 2881 
L 1084 2881 
L 1084 941 
Q 1084 700 1114 631 
Q 1144 563 1211 522 
Q 1278 481 1403 481 
Q 1497 481 1650 503 
z
" transform="scale(0.015625)"/>
       <path id="ArialMT-69" d="M 425 3934 
L 425 4581 
L 988 4581 
L 988 3934 
L 425 3934 
z
M 425 0 
L 425 3319 
L 988 3319 
L 988 0 
L 425 0 
z
" transform="scale(0.015625)"/>
       <path id="ArialMT-6e" d="M 422 0 
L 422 3319 
L 928 3319 
L 928 2847 
Q 1294 3394 1984 3394 
Q 2284 3394 2536 3286 
Q 2788 3178 2913 3003 
Q 3038 2828 3088 2588 
Q 3119 2431 3119 2041 
L 3119 0 
L 2556 0 
L 2556 2019 
Q 2556 2363 2490 2533 
Q 2425 2703 2258 2804 
Q 2091 2906 1866 2906 
Q 1506 2906 1245 2678 
Q 984 2450 984 1813 
L 984 0 
L 422 0 
z
" transform="scale(0.015625)"/>
       <path id="ArialMT-20" transform="scale(0.015625)"/>
       <path id="ArialMT-45" d="M 506 0 
L 506 4581 
L 3819 4581 
L 3819 4041 
L 1113 4041 
L 1113 2638 
L 3647 2638 
L 3647 2100 
L 1113 2100 
L 1113 541 
L 3925 541 
L 3925 0 
L 506 0 
z
" transform="scale(0.015625)"/>
       <path id="ArialMT-65" d="M 2694 1069 
L 3275 997 
Q 3138 488 2766 206 
Q 2394 -75 1816 -75 
Q 1088 -75 661 373 
Q 234 822 234 1631 
Q 234 2469 665 2931 
Q 1097 3394 1784 3394 
Q 2450 3394 2872 2941 
Q 3294 2488 3294 1666 
Q 3294 1616 3291 1516 
L 816 1516 
Q 847 969 1125 678 
Q 1403 388 1819 388 
Q 2128 388 2347 550 
Q 2566 713 2694 1069 
z
M 847 1978 
L 2700 1978 
Q 2663 2397 2488 2606 
Q 2219 2931 1791 2931 
Q 1403 2931 1139 2672 
Q 875 2413 847 1978 
z
" transform="scale(0.015625)"/>
       <path id="ArialMT-67" d="M 319 -275 
L 866 -356 
Q 900 -609 1056 -725 
Q 1266 -881 1628 -881 
Q 2019 -881 2231 -725 
Q 2444 -569 2519 -288 
Q 2563 -116 2559 434 
Q 2191 0 1641 0 
Q 956 0 581 494 
Q 206 988 206 1678 
Q 206 2153 378 2554 
Q 550 2956 876 3175 
Q 1203 3394 1644 3394 
Q 2231 3394 2613 2919 
L 2613 3319 
L 3131 3319 
L 3131 450 
Q 3131 -325 2973 -648 
Q 2816 -972 2473 -1159 
Q 2131 -1347 1631 -1347 
Q 1038 -1347 672 -1080 
Q 306 -813 319 -275 
z
M 784 1719 
Q 784 1066 1043 766 
Q 1303 466 1694 466 
Q 2081 466 2343 764 
Q 2606 1063 2606 1700 
Q 2606 2309 2336 2618 
Q 2066 2928 1684 2928 
Q 1309 2928 1046 2623 
Q 784 2319 784 1719 
z
" transform="scale(0.015625)"/>
       <path id="ArialMT-79" d="M 397 -1278 
L 334 -750 
Q 519 -800 656 -800 
Q 844 -800 956 -737 
Q 1069 -675 1141 -563 
Q 1194 -478 1313 -144 
Q 1328 -97 1363 -6 
L 103 3319 
L 709 3319 
L 1400 1397 
Q 1534 1031 1641 628 
Q 1738 1016 1872 1384 
L 2581 3319 
L 3144 3319 
L 1881 -56 
Q 1678 -603 1566 -809 
Q 1416 -1088 1222 -1217 
Q 1028 -1347 759 -1347 
Q 597 -1347 397 -1278 
z
" transform="scale(0.015625)"/>
       <path id="ArialMT-28" d="M 1497 -1347 
Q 1031 -759 709 28 
Q 388 816 388 1659 
Q 388 2403 628 3084 
Q 909 3875 1497 4659 
L 1900 4659 
Q 1522 4009 1400 3731 
Q 1209 3300 1100 2831 
Q 966 2247 966 1656 
Q 966 153 1900 -1347 
L 1497 -1347 
z
" transform="scale(0.015625)"/>
       <path id="ArialMT-56" d="M 1803 0 
L 28 4581 
L 684 4581 
L 1875 1253 
Q 2019 853 2116 503 
Q 2222 878 2363 1253 
L 3600 4581 
L 4219 4581 
L 2425 0 
L 1803 0 
z
" transform="scale(0.015625)"/>
       <path id="ArialMT-2f" d="M 0 -78 
L 1328 4659 
L 1778 4659 
L 453 -78 
L 0 -78 
z
" transform="scale(0.015625)"/>
       <path id="ArialMT-29" d="M 791 -1347 
L 388 -1347 
Q 1322 153 1322 1656 
Q 1322 2244 1188 2822 
Q 1081 3291 891 3722 
Q 769 4003 388 4659 
L 791 4659 
Q 1378 3875 1659 3084 
Q 1900 2403 1900 1659 
Q 1900 816 1576 28 
Q 1253 -759 791 -1347 
z
" transform="scale(0.015625)"/>
      </defs>
      <use xlink:href="#ArialMT-46"/>
      <use xlink:href="#ArialMT-6f" transform="translate(61.083984 0)"/>
      <use xlink:href="#ArialMT-72" transform="translate(116.699219 0)"/>
      <use xlink:href="#ArialMT-6d" transform="translate(150 0)"/>
      <use xlink:href="#ArialMT-61" transform="translate(233.300781 0)"/>
      <use xlink:href="#ArialMT-74" transform="translate(288.916016 0)"/>
      <use xlink:href="#ArialMT-69" transform="translate(316.699219 0)"/>
      <use xlink:href="#ArialMT-6f" transform="translate(338.916016 0)"/>
      <use xlink:href="#ArialMT-6e" transform="translate(394.53125 0)"/>
      <use xlink:href="#ArialMT-20" transform="translate(450.146484 0)"/>
      <use xlink:href="#ArialMT-45" transform="translate(477.929688 0)"/>
      <use xlink:href="#ArialMT-6e" transform="translate(544.628906 0)"/>
      <use xlink:href="#ArialMT-65" transform="translate(600.244141 0)"/>
      <use xlink:href="#ArialMT-72" transform="translate(655.859375 0)"/>
      <use xlink:href="#ArialMT-67" transform="translate(689.160156 0)"/>
      <use xlink:href="#ArialMT-79" transform="translate(744.775391 0)"/>
      <use xlink:href="#ArialMT-20" transform="translate(794.775391 0)"/>
      <use xlink:href="#ArialMT-28" transform="translate(822.558594 0)"/>
      <use xlink:href="#ArialMT-65" transform="translate(855.859375 0)"/>
      <use xlink:href="#ArialMT-56" transform="translate(911.474609 0)"/>
      <use xlink:href="#ArialMT-2f" transform="translate(978.173828 0)"/>
      <use xlink:href="#ArialMT-61" transform="translate(1005.957031 0)"/>
      <use xlink:href="#ArialMT-74" transform="translate(1061.572266 0)"/>
      <use xlink:href="#ArialMT-6f" transform="translate(1089.355469 0)"/>
      <use xlink:href="#ArialMT-6d" transform="translate(1144.970703 0)"/>
      <use xlink:href="#ArialMT-29" transform="translate(1228.271484 0)"/>
     </g>
    </g>
   </g>
   <g id="LineCollection_1"/>
   <g id="patch_6">
    <path d="M 287.298425 195.703937 
L 291.66378 203.640945 
L 296.029134 195.703937 
L 296.029134 36.96378 
L 291.66378 29.026772 
L 287.298425 36.96378 
L 287.298425 195.703937 
z
" style="fill: none; stroke: #000000; stroke-width: 0.8; stroke-linejoin: miter; stroke-linecap: square"/>
   </g>
  </g>
 </g>
 <defs>
  <clipPath id="pf47f0287b9">
   <rect x="7.2" y="7.2" width="263.622047" height="218.267717"/>
  </clipPath>
  <clipPath id="pcbc5aedbee">
   <rect x="287.298425" y="36.96378" width="8.730709" height="158.740157"/>
  </clipPath>
 </defs>
</svg>
