<?xml version="1.0" encoding="utf-8" standalone="no"?>
<!DOCTYPE svg PUBLIC "-//W3C//DTD SVG 1.1//EN"
  "http://www.w3.org/Graphics/SVG/1.1/DTD/svg11.dtd">
<svg xmlns:xlink="http://www.w3.org/1999/xlink" width="344.803509pt" height="232.667717pt" viewBox="0 0 344.803509 232.667717" xmlns="http://www.w3.org/2000/svg" version="1.1">
 <metadata>
  <rdf:RDF xmlns:dc="http://purl.org/dc/elements/1.1/" xmlns:cc="http://creativecommons.org/ns#" xmlns:rdf="http://www.w3.org/1999/02/22-rdf-syntax-ns#">
   <cc:Work>
    <dc:type rdf:resource="http://purl.org/dc/dcmitype/StillImage"/>
    <dc:date>2026-01-27T21:37:22.268592</dc:date>
    <dc:format>image/svg+xml</dc:format>
    <dc:creator>
     <cc:Agent>
      <dc:title>Matplotlib v3.10.8, https://matplotlib.org/</dc:title>
     </cc:Agent>
    </dc:creator>
   </cc:Work>
  </rdf:RDF>
 </metadata>
 <defs>
  <style type="text/css">*{stroke-linejoin: round; stroke-linecap: butt}</style>
 </defs>
 <g id="figure_1">
  <g id="patch_1">
   <path d="M 0 232.667717 
L 344.803509 232.667717 
L 344.803509 0 
L 0 0 
L 0 232.667717 
z
" style="fill: none"/>
  </g>
  <g id="axes_1">
   <g id="patch_2">
    <path d="M 7.2 225.467717 
L 270.822047 225.467717 
L 270.822047 7.2 
L 7.2 7.2 
L 7.2 225.467717 
z
" style="fill: none"/>
   </g>
   <g id="TriContourSet_1">
    <path d="M 138.162233 123.388991 
L 148.768679 120.041637 
L 142.585743 116.517254 
L 140.214902 118.142556 
L 138.805762 119.717843 
L 138.318652 120.587735 
L 138.135981 122.112168 
z
" clip-path="url(#p7e1f2098ac)" style="fill: #440154; fill-opacity: 0.7"/>
    <path d="M 138.135981 122.112168 
L 138.318652 120.587735 
L 138.805762 119.717843 
L 140.214902 118.142556 
L 142.585743 116.517254 
L 148.768679 120.041637 
L 138.162233 123.388991 
z
M 134.8429 136.479362 
L 186.927572 120.041637 
L 156.565262 102.734585 
L 144.922862 110.715889 
L 138.003054 118.451595 
L 135.611019 122.723339 
L 134.713983 130.209316 
z
" clip-path="url(#p7e1f2098ac)" style="fill: #450457; fill-opacity: 0.7"/>
    <path d="M 184.123009 96.691745 
L 170.544782 88.951915 
L 149.630823 103.289223 
L 137.200345 117.185346 
L 132.903387 124.858944 
L 131.291985 138.306463 
L 131.523566 149.569733 
L 188.746692 131.510332 
L 193.18646 129.094209 
L 200.86114 123.095642 
L 198.925125 120.041637 
z
M 188.746692 131.510332 
L 191.326603 130.18401 
L 193.18646 129.094209 
L 198.925125 120.041637 
z
M 134.713983 130.209316 
L 135.611019 122.723339 
L 138.003054 118.451595 
L 144.922862 110.715889 
L 156.565262 102.734585 
L 186.927572 120.041637 
L 134.8429 136.479362 
z
" clip-path="url(#p7e1f2098ac)" style="fill: #470d60; fill-opacity: 0.7"/>
    <path d="M 200.86114 123.095642 
L 193.18646 129.094209 
L 188.746692 131.510332 
L 131.523566 149.569733 
L 131.291985 138.306463 
L 132.903387 124.858944 
L 137.200345 117.185346 
L 149.630823 103.289223 
L 170.544782 88.951915 
L 184.123009 96.691745 
L 175.88124 83.690601 
L 174.734001 81.880866 
L 154.338784 95.862557 
L 136.397637 115.919098 
L 130.195754 126.994548 
L 127.869988 146.403611 
L 128.204233 162.660104 
L 173.900443 148.238554 
L 184.816051 142.298278 
L 203.685008 127.55021 
z
M 193.18646 129.094209 
L 191.326603 130.18401 
L 188.746692 131.510332 
L 173.900443 148.238554 
L 180.243408 144.977661 
L 184.816051 142.298278 
z
" clip-path="url(#p7e1f2098ac)" style="fill: #481668; fill-opacity: 0.7"/>
    <path d="M 203.685008 127.55021 
L 184.816051 142.298278 
L 173.900443 148.238554 
L 128.204233 162.660104 
L 127.869988 146.403611 
L 130.195754 126.994548 
L 136.397637 115.919098 
L 154.338784 95.862557 
L 174.734001 81.880866 
L 172.878425 78.953751 
L 159.046744 88.43589 
L 135.594928 114.65285 
L 127.488122 129.130153 
L 124.44799 154.500759 
L 124.8849 175.750476 
L 159.054195 164.966776 
L 176.445642 155.502347 
L 206.508877 132.004777 
z
M 184.816051 142.298278 
L 180.243408 144.977661 
L 173.900443 148.238554 
L 159.054195 164.966776 
L 168.582674 160.068223 
L 169.513065 159.564556 
L 176.445642 155.502347 
z
" clip-path="url(#p7e1f2098ac)" style="fill: #481d6f; fill-opacity: 0.7"/>
    <path d="M 206.508877 132.004777 
L 176.445642 155.502347 
L 159.054195 164.966776 
L 124.8849 175.750476 
L 124.44799 154.500759 
L 127.488122 129.130153 
L 135.594928 114.65285 
L 159.046744 88.43589 
L 172.878425 78.953751 
L 171.02285 76.026636 
L 163.754705 81.009224 
L 134.79222 113.386601 
L 124.780489 131.265757 
L 121.025992 162.597907 
L 121.565567 188.840847 
L 144.207946 181.694998 
L 168.075232 168.706415 
L 209.332745 136.459344 
z
M 176.445642 155.502347 
L 169.513065 159.564556 
L 168.582674 160.068223 
L 159.054195 164.966776 
L 144.207946 181.694998 
L 150.52202 178.448958 
L 162.692785 171.860311 
L 168.075232 168.706415 
z
" clip-path="url(#p7e1f2098ac)" style="fill: #482576; fill-opacity: 0.7"/>
    <path d="M 209.332745 136.459344 
L 168.075232 168.706415 
L 144.207946 181.694998 
L 121.565567 188.840847 
L 121.025992 162.597907 
L 124.780489 131.265757 
L 134.79222 113.386601 
L 163.754705 81.009224 
L 171.02285 76.026636 
L 169.167274 73.099522 
L 168.462665 73.582558 
L 133.989512 112.120353 
L 122.072857 133.401362 
L 117.603994 170.695054 
L 118.246233 201.931218 
L 129.361698 198.423219 
L 159.704823 181.910484 
L 212.156613 140.913912 
z
M 168.075232 168.706415 
L 162.692785 171.860311 
L 150.52202 178.448958 
L 144.207946 181.694998 
L 129.361698 198.423219 
L 132.461366 196.829693 
L 155.872506 184.156067 
L 159.704823 181.910484 
z
" clip-path="url(#p7e1f2098ac)" style="fill: #472d7b; fill-opacity: 0.7"/>
    <path d="M 115.612675 214.554331 
L 151.334414 195.114553 
L 214.980482 145.368479 
L 212.156613 140.913912 
L 159.704823 181.910484 
L 129.361698 198.423219 
L 118.246233 201.931218 
L 117.603994 170.695054 
L 122.072857 133.401362 
L 133.989512 112.120353 
L 168.462665 73.582558 
L 169.167274 73.099522 
L 168.968074 72.78529 
L 168.262368 71.672059 
L 167.24044 72.78529 
L 133.186803 110.854105 
L 119.365224 135.536966 
L 114.181997 178.792202 
L 114.917293 214.554331 
L 115.045383 214.554331 
z
M 115.612675 214.554331 
L 149.052226 196.451822 
L 151.334414 195.114553 
L 159.704823 181.910484 
L 155.872506 184.156067 
L 132.461366 196.829693 
L 129.361698 198.423219 
L 115.045383 214.554331 
z
" clip-path="url(#p7e1f2098ac)" style="fill: #463480; fill-opacity: 0.7"/>
    <path d="M 114.917293 214.554331 
L 114.181997 178.792202 
L 119.365224 135.536966 
L 133.186803 110.854105 
L 167.24044 72.78529 
L 168.262368 71.672059 
L 167.471791 70.424948 
L 165.305037 72.78529 
L 132.384095 109.587856 
L 116.657591 137.672571 
L 110.759999 186.88935 
L 111.328812 214.554331 
z
M 131.505521 214.554331 
L 142.964005 208.318621 
L 217.80435 149.823047 
L 214.980482 145.368479 
L 151.334414 195.114553 
L 115.612675 214.554331 
z
M 131.505521 214.554331 
L 142.231946 208.747578 
L 142.964005 208.318621 
L 151.334414 195.114553 
L 149.052226 196.451822 
L 115.612675 214.554331 
z
" clip-path="url(#p7e1f2098ac)" style="fill: #443b84; fill-opacity: 0.7"/>
    <path d="M 111.328812 214.554331 
L 110.759999 186.88935 
L 116.657591 137.672571 
L 132.384095 109.587856 
L 165.305037 72.78529 
L 167.471791 70.424948 
L 166.681214 69.177836 
L 163.369633 72.78529 
L 131.581386 108.321608 
L 113.949959 139.808175 
L 107.338001 194.986497 
L 107.740331 214.554331 
z
M 141.021381 214.554331 
L 218.122014 153.989302 
L 219.584291 152.630849 
L 218.896492 151.545868 
L 217.80435 149.823047 
L 142.964005 208.318621 
L 131.505521 214.554331 
L 139.011024 214.554331 
z
M 142.964005 208.318621 
L 142.231946 208.747578 
L 131.505521 214.554331 
L 139.011024 214.554331 
z
" clip-path="url(#p7e1f2098ac)" style="fill: #414287; fill-opacity: 0.7"/>
    <path d="M 107.740331 214.554331 
L 107.338001 194.986497 
L 113.949959 139.808175 
L 131.581386 108.321608 
L 163.369633 72.78529 
L 166.681214 69.177836 
L 165.890637 67.930725 
L 161.43423 72.78529 
L 130.778678 107.055359 
L 111.242326 141.943779 
L 103.916004 203.083645 
L 104.15185 214.554331 
z
M 144.830729 214.554331 
L 216.859097 157.973729 
L 220.70586 154.400091 
L 219.584291 152.630849 
L 218.122014 153.989302 
L 141.021381 214.554331 
z
" clip-path="url(#p7e1f2098ac)" style="fill: #3e4989; fill-opacity: 0.7"/>
    <path d="M 104.15185 214.554331 
L 103.916004 203.083645 
L 111.242326 141.943779 
L 130.778678 107.055359 
L 161.43423 72.78529 
L 165.890637 67.930725 
L 165.10006 66.683614 
L 159.498826 72.78529 
L 129.97597 105.789111 
L 108.534694 144.079384 
L 100.494006 211.180793 
L 100.563368 214.554331 
z
M 148.640076 214.554331 
L 215.59618 161.958156 
L 221.82743 156.169334 
L 220.70586 154.400091 
L 216.859097 157.973729 
L 144.830729 214.554331 
z
" clip-path="url(#p7e1f2098ac)" style="fill: #3c508b; fill-opacity: 0.7"/>
    <path d="M 100.563368 214.554331 
L 100.494006 211.180793 
L 108.534694 144.079384 
L 129.97597 105.789111 
L 159.498826 72.78529 
L 165.10006 66.683614 
L 164.309483 65.436503 
L 157.563422 72.78529 
L 129.173261 104.522863 
L 105.827061 146.214988 
L 97.638033 214.554331 
L 99.068289 214.554331 
z
M 152.449424 214.554331 
L 214.333263 165.942583 
L 222.948999 157.938576 
L 221.82743 156.169334 
L 215.59618 161.958156 
L 148.640076 214.554331 
z
" clip-path="url(#p7e1f2098ac)" style="fill: #39568c; fill-opacity: 0.7"/>
    <path d="M 156.258771 214.554331 
L 213.070346 169.92701 
L 224.070569 159.707818 
L 222.948999 157.938576 
L 214.333263 165.942583 
L 152.449424 214.554331 
z
M 163.518906 64.189391 
L 155.628019 72.78529 
L 128.370553 103.256614 
L 103.119429 148.350593 
L 95.186308 214.554331 
L 97.638033 214.554331 
L 105.827061 146.214988 
L 129.173261 104.522863 
L 157.563422 72.78529 
L 164.309483 65.436503 
z
" clip-path="url(#p7e1f2098ac)" style="fill: #365d8d; fill-opacity: 0.7"/>
    <path d="M 160.068119 214.554331 
L 211.807429 173.911437 
L 225.192139 161.477061 
L 224.070569 159.707818 
L 213.070346 169.92701 
L 156.258771 214.554331 
z
M 162.72833 62.94228 
L 153.692615 72.78529 
L 127.567844 101.990366 
L 100.411796 150.486197 
L 92.734582 214.554331 
L 95.186308 214.554331 
L 103.119429 148.350593 
L 128.370553 103.256614 
L 155.628019 72.78529 
L 163.518906 64.189391 
z
" clip-path="url(#p7e1f2098ac)" style="fill: #33638d; fill-opacity: 0.7"/>
    <path d="M 163.877466 214.554331 
L 210.544512 177.895864 
L 226.313708 163.246303 
L 225.192139 161.477061 
L 211.807429 173.911437 
L 160.068119 214.554331 
z
M 161.937753 61.695169 
L 151.757212 72.78529 
L 126.765136 100.724118 
L 97.704164 152.621802 
L 90.282857 214.554331 
L 92.734582 214.554331 
L 100.411796 150.486197 
L 127.567844 101.990366 
L 153.692615 72.78529 
L 162.72833 62.94228 
z
" clip-path="url(#p7e1f2098ac)" style="fill: #30698e; fill-opacity: 0.7"/>
    <path d="M 167.686814 214.554331 
L 209.281595 181.880291 
L 227.435278 165.015545 
L 226.313708 163.246303 
L 210.544512 177.895864 
L 163.877466 214.554331 
z
M 161.147176 60.448058 
L 149.821808 72.78529 
L 125.962428 99.457869 
L 94.996531 154.757406 
L 87.831132 214.554331 
L 90.282857 214.554331 
L 97.704164 152.621802 
L 126.765136 100.724118 
L 151.757212 72.78529 
L 161.937753 61.695169 
z
" clip-path="url(#p7e1f2098ac)" style="fill: #2e6f8e; fill-opacity: 0.7"/>
    <path d="M 171.496161 214.554331 
L 208.018678 185.864718 
L 228.556847 166.784788 
L 227.435278 165.015545 
L 209.281595 181.880291 
L 167.686814 214.554331 
z
M 160.356599 59.200947 
L 147.886404 72.78529 
L 125.159719 98.191621 
L 92.288899 156.893011 
L 85.379406 214.554331 
L 87.831132 214.554331 
L 94.996531 154.757406 
L 125.962428 99.457869 
L 149.821808 72.78529 
L 161.147176 60.448058 
z
" clip-path="url(#p7e1f2098ac)" style="fill: #2b748e; fill-opacity: 0.7"/>
    <path d="M 175.305509 214.554331 
L 206.755761 189.849145 
L 229.678417 168.55403 
L 228.556847 166.784788 
L 208.018678 185.864718 
L 171.496161 214.554331 
z
M 159.566022 57.953835 
L 145.951001 72.78529 
L 124.357011 96.925372 
L 89.581266 159.028615 
L 82.927681 214.554331 
L 85.379406 214.554331 
L 92.288899 156.893011 
L 125.159719 98.191621 
L 147.886404 72.78529 
L 160.356599 59.200947 
z
" clip-path="url(#p7e1f2098ac)" style="fill: #297a8e; fill-opacity: 0.7"/>
    <path d="M 179.114856 214.554331 
L 205.492844 193.833572 
L 230.799987 170.323272 
L 229.678417 168.55403 
L 206.755761 189.849145 
L 175.305509 214.554331 
z
M 158.775445 56.706724 
L 144.015597 72.78529 
L 123.554302 95.659124 
L 86.873634 161.164219 
L 80.475955 214.554331 
L 82.927681 214.554331 
L 89.581266 159.028615 
L 124.357011 96.925372 
L 145.951001 72.78529 
L 159.566022 57.953835 
z
" clip-path="url(#p7e1f2098ac)" style="fill: #27808e; fill-opacity: 0.7"/>
    <path d="M 182.924204 214.554331 
L 204.229927 197.817999 
L 231.921556 172.092515 
L 230.799987 170.323272 
L 205.492844 193.833572 
L 179.114856 214.554331 
z
M 157.984868 55.459613 
L 142.080194 72.78529 
L 122.751594 94.392876 
L 84.166001 163.299824 
L 78.02423 214.554331 
L 80.475955 214.554331 
L 86.873634 161.164219 
L 123.554302 95.659124 
L 144.015597 72.78529 
L 158.775445 56.706724 
z
" clip-path="url(#p7e1f2098ac)" style="fill: #25858e; fill-opacity: 0.7"/>
    <path d="M 186.733551 214.554331 
L 202.967011 201.802426 
L 233.043126 173.861757 
L 231.921556 172.092515 
L 204.229927 197.817999 
L 182.924204 214.554331 
z
M 157.194291 54.212502 
L 140.14479 72.78529 
L 121.948886 93.126627 
L 81.458369 165.435428 
L 75.572505 214.554331 
L 78.02423 214.554331 
L 84.166001 163.299824 
L 122.751594 94.392876 
L 142.080194 72.78529 
L 157.984868 55.459613 
z
" clip-path="url(#p7e1f2098ac)" style="fill: #228b8d; fill-opacity: 0.7"/>
    <path d="M 190.542899 214.554331 
L 201.704094 205.786853 
L 234.164695 175.630999 
L 233.043126 173.861757 
L 202.967011 201.802426 
L 186.733551 214.554331 
z
M 156.403715 52.96539 
L 138.209387 72.78529 
L 121.146177 91.860379 
L 78.750736 167.571033 
L 73.120779 214.554331 
L 75.572505 214.554331 
L 81.458369 165.435428 
L 121.948886 93.126627 
L 140.14479 72.78529 
L 157.194291 54.212502 
z
" clip-path="url(#p7e1f2098ac)" style="fill: #21918c; fill-opacity: 0.7"/>
    <path d="M 194.352246 214.554331 
L 200.441177 209.77128 
L 235.286265 177.400242 
L 234.164695 175.630999 
L 201.704094 205.786853 
L 190.542899 214.554331 
z
M 155.613138 51.718279 
L 136.273983 72.78529 
L 120.343469 90.594131 
L 76.043104 169.706637 
L 70.669054 214.554331 
L 73.120779 214.554331 
L 78.750736 167.571033 
L 121.146177 91.860379 
L 138.209387 72.78529 
L 156.403715 52.96539 
z
" clip-path="url(#p7e1f2098ac)" style="fill: #1f958b; fill-opacity: 0.7"/>
    <path d="M 198.161594 214.554331 
L 199.17826 213.755707 
L 236.407835 179.169484 
L 235.286265 177.400242 
L 200.441177 209.77128 
L 194.352246 214.554331 
z
M 154.822561 50.471168 
L 134.338579 72.78529 
L 119.54076 89.327882 
L 73.335471 171.842242 
L 68.217328 214.554331 
L 70.669054 214.554331 
L 76.043104 169.706637 
L 120.343469 90.594131 
L 136.273983 72.78529 
L 155.613138 51.718279 
z
" clip-path="url(#p7e1f2098ac)" style="fill: #1e9b8a; fill-opacity: 0.7"/>
    <path d="M 201.34463 214.554331 
L 237.529404 180.938726 
L 236.407835 179.169484 
L 199.17826 213.755707 
L 198.161594 214.554331 
L 198.925125 214.554331 
z
M 154.031984 49.224057 
L 132.403176 72.78529 
L 118.738052 88.061634 
L 70.627838 173.977846 
L 65.765603 214.554331 
L 68.217328 214.554331 
L 73.335471 171.842242 
L 119.54076 89.327882 
L 134.338579 72.78529 
L 154.822561 50.471168 
z
" clip-path="url(#p7e1f2098ac)" style="fill: #1fa188; fill-opacity: 0.7"/>
    <path d="M 204.370661 214.554331 
L 238.650974 182.707969 
L 237.529404 180.938726 
L 201.34463 214.554331 
z
M 153.241407 47.976945 
L 130.467772 72.78529 
L 117.935344 86.795386 
L 67.920206 176.113451 
L 63.313878 214.554331 
L 65.765603 214.554331 
L 70.627838 173.977846 
L 118.738052 88.061634 
L 132.403176 72.78529 
L 154.031984 49.224057 
z
" clip-path="url(#p7e1f2098ac)" style="fill: #21a685; fill-opacity: 0.7"/>
    <path d="M 207.396693 214.554331 
L 239.772544 184.477211 
L 238.650974 182.707969 
L 204.370661 214.554331 
z
M 152.45083 46.729834 
L 128.532369 72.78529 
L 117.132635 85.529137 
L 65.212573 178.249055 
L 60.862152 214.554331 
L 63.313878 214.554331 
L 67.920206 176.113451 
L 117.935344 86.795386 
L 130.467772 72.78529 
L 153.241407 47.976945 
z
" clip-path="url(#p7e1f2098ac)" style="fill: #25ac82; fill-opacity: 0.7"/>
    <path d="M 210.422724 214.554331 
L 240.894113 186.246453 
L 239.772544 184.477211 
L 207.396693 214.554331 
z
M 151.660253 45.482723 
L 126.596965 72.78529 
L 116.329927 84.262889 
L 62.504941 180.38466 
L 58.410427 214.554331 
L 60.862152 214.554331 
L 65.212573 178.249055 
L 117.132635 85.529137 
L 128.532369 72.78529 
L 152.45083 46.729834 
z
" clip-path="url(#p7e1f2098ac)" style="fill: #2cb17e; fill-opacity: 0.7"/>
    <path d="M 213.448756 214.554331 
L 242.015683 188.015696 
L 240.894113 186.246453 
L 210.422724 214.554331 
z
M 150.869677 44.235612 
L 124.661561 72.78529 
L 115.527218 82.99664 
L 59.797308 182.520264 
L 55.958701 214.554331 
L 58.410427 214.554331 
L 62.504941 180.38466 
L 116.329927 84.262889 
L 126.596965 72.78529 
L 151.660253 45.482723 
z
" clip-path="url(#p7e1f2098ac)" style="fill: #34b679; fill-opacity: 0.7"/>
    <path d="M 216.474787 214.554331 
L 243.137252 189.784938 
L 242.015683 188.015696 
L 213.448756 214.554331 
z
M 150.0791 42.988501 
L 122.726158 72.78529 
L 114.72451 81.730392 
L 57.089676 184.655868 
L 53.506976 214.554331 
L 55.958701 214.554331 
L 59.797308 182.520264 
L 115.527218 82.99664 
L 124.661561 72.78529 
L 150.869677 44.235612 
z
" clip-path="url(#p7e1f2098ac)" style="fill: #3dbc74; fill-opacity: 0.7"/>
    <path d="M 219.500819 214.554331 
L 244.258822 191.55418 
L 243.137252 189.784938 
L 216.474787 214.554331 
z
M 149.288523 41.741389 
L 120.790754 72.78529 
L 113.921802 80.464144 
L 54.382043 186.791473 
L 51.055251 214.554331 
L 53.506976 214.554331 
L 57.089676 184.655868 
L 114.72451 81.730392 
L 122.726158 72.78529 
L 150.0791 42.988501 
z
" clip-path="url(#p7e1f2098ac)" style="fill: #48c16e; fill-opacity: 0.7"/>
    <path d="M 222.52685 214.554331 
L 245.380392 193.323423 
L 244.258822 191.55418 
L 219.500819 214.554331 
z
M 148.497946 40.494278 
L 118.855351 72.78529 
L 113.119093 79.197895 
L 51.674411 188.927077 
L 48.603525 214.554331 
L 51.055251 214.554331 
L 54.382043 186.791473 
L 113.921802 80.464144 
L 120.790754 72.78529 
L 149.288523 41.741389 
z
" clip-path="url(#p7e1f2098ac)" style="fill: #54c568; fill-opacity: 0.7"/>
    <path d="M 225.552881 214.554331 
L 246.501961 195.092665 
L 245.380392 193.323423 
L 222.52685 214.554331 
z
M 147.707369 39.247167 
L 116.919947 72.78529 
L 112.316385 77.931647 
L 48.966778 191.062682 
L 46.1518 214.554331 
L 48.603525 214.554331 
L 51.674411 188.927077 
L 113.119093 79.197895 
L 118.855351 72.78529 
L 148.497946 40.494278 
z
" clip-path="url(#p7e1f2098ac)" style="fill: #60ca60; fill-opacity: 0.7"/>
    <path d="M 228.578913 214.554331 
L 247.623531 196.861907 
L 246.501961 195.092665 
L 225.552881 214.554331 
z
M 146.916792 38.000056 
L 114.984544 72.78529 
L 111.513676 76.665399 
L 46.259146 193.198286 
L 43.700074 214.554331 
L 46.1518 214.554331 
L 48.966778 191.062682 
L 112.316385 77.931647 
L 116.919947 72.78529 
L 147.707369 39.247167 
z
" clip-path="url(#p7e1f2098ac)" style="fill: #6ece58; fill-opacity: 0.7"/>
    <path d="M 231.604944 214.554331 
L 248.7451 198.63115 
L 247.623531 196.861907 
L 228.578913 214.554331 
z
M 146.126215 36.752944 
L 113.04914 72.78529 
L 110.710968 75.39915 
L 43.551513 195.333891 
L 41.248349 214.554331 
L 43.700074 214.554331 
L 46.259146 193.198286 
L 111.513676 76.665399 
L 114.984544 72.78529 
L 146.916792 38.000056 
z
" clip-path="url(#p7e1f2098ac)" style="fill: #7cd250; fill-opacity: 0.7"/>
    <path d="M 234.630976 214.554331 
L 249.86667 200.400392 
L 248.7451 198.63115 
L 231.604944 214.554331 
z
M 145.335639 35.505833 
L 111.113736 72.78529 
L 109.90826 74.132902 
L 40.843881 197.469495 
L 38.796624 214.554331 
L 41.248349 214.554331 
L 43.551513 195.333891 
L 110.710968 75.39915 
L 113.04914 72.78529 
L 146.126215 36.752944 
z
" clip-path="url(#p7e1f2098ac)" style="fill: #8bd646; fill-opacity: 0.7"/>
    <path d="M 237.657007 214.554331 
L 250.98824 202.169634 
L 249.86667 200.400392 
L 234.630976 214.554331 
z
M 144.545062 34.258722 
L 109.178333 72.78529 
L 109.105551 72.866653 
L 38.136248 199.6051 
L 36.344898 214.554331 
L 38.796624 214.554331 
L 40.843881 197.469495 
L 109.90826 74.132902 
L 111.113736 72.78529 
L 145.335639 35.505833 
z
" clip-path="url(#p7e1f2098ac)" style="fill: #9bd93c; fill-opacity: 0.7"/>
    <path d="M 240.683038 214.554331 
L 252.109809 203.938877 
L 250.98824 202.169634 
L 237.657007 214.554331 
z
M 143.754485 33.011611 
L 113.095666 66.409641 
L 109.053973 72.78529 
L 96.928894 91.912238 
L 35.428616 201.740704 
L 33.893173 214.554331 
L 36.344898 214.554331 
L 38.136248 199.6051 
L 109.105551 72.866653 
L 109.178333 72.78529 
L 144.545062 34.258722 
z
" clip-path="url(#p7e1f2098ac)" style="fill: #aadc32; fill-opacity: 0.7"/>
    <path d="M 243.70907 214.554331 
L 253.231379 205.708119 
L 252.109809 203.938877 
L 240.683038 214.554331 
z
M 142.963908 31.7645 
L 117.414892 59.596191 
L 113.095666 66.409641 
L 143.754485 33.011611 
z
M 83.971215 112.352586 
L 32.720983 203.876308 
L 31.441447 214.554331 
L 33.893173 214.554331 
L 35.428616 201.740704 
L 96.928894 91.912238 
z
" clip-path="url(#p7e1f2098ac)" style="fill: #bade28; fill-opacity: 0.7"/>
    <path d="M 246.735101 214.554331 
L 254.352948 207.477361 
L 253.231379 205.708119 
L 243.70907 214.554331 
z
M 142.173331 30.517388 
L 121.734118 52.782742 
L 117.414892 59.596191 
L 142.963908 31.7645 
z
M 71.013536 132.792935 
L 30.01335 206.011913 
L 28.989722 214.554331 
L 31.441447 214.554331 
L 32.720983 203.876308 
L 83.971215 112.352586 
z
" clip-path="url(#p7e1f2098ac)" style="fill: #cae11f; fill-opacity: 0.7"/>
    <path d="M 249.761133 214.554331 
L 255.474518 209.246604 
L 254.352948 207.477361 
L 246.735101 214.554331 
z
M 141.382754 29.270277 
L 126.053345 45.969292 
L 121.734118 52.782742 
L 142.173331 30.517388 
z
M 58.055857 153.233284 
L 27.305718 208.147517 
L 26.537997 214.554331 
L 28.989722 214.554331 
L 30.01335 206.011913 
L 71.013536 132.792935 
z
" clip-path="url(#p7e1f2098ac)" style="fill: #dae319; fill-opacity: 0.7"/>
    <path d="M 252.787164 214.554331 
L 256.596088 211.015846 
L 255.474518 209.246604 
L 249.761133 214.554331 
z
M 140.592177 28.023166 
L 130.372571 39.155843 
L 126.053345 45.969292 
L 141.382754 29.270277 
z
M 45.098178 173.673633 
L 24.598085 210.283122 
L 24.086271 214.554331 
L 26.537997 214.554331 
L 27.305718 208.147517 
L 58.055857 153.233284 
z
" clip-path="url(#p7e1f2098ac)" style="fill: #eae51a; fill-opacity: 0.7"/>
    <path d="M 255.813196 214.554331 
L 257.717657 212.785088 
L 256.596088 211.015846 
L 252.787164 214.554331 
z
M 139.8016 26.776055 
L 134.691797 32.342393 
L 130.372571 39.155843 
L 140.592177 28.023166 
z
M 32.140499 194.113982 
L 21.890453 212.418726 
L 21.634546 214.554331 
L 24.086271 214.554331 
L 24.598085 210.283122 
L 45.098178 173.673633 
z
" clip-path="url(#p7e1f2098ac)" style="fill: #f8e621; fill-opacity: 0.7"/>
    <path d="M 257.717657 212.785088 
L 255.813196 214.554331 
L 258.839227 214.554331 
z
M 134.691797 32.342393 
L 139.8016 26.776055 
L 139.011024 25.528943 
z
M 21.634546 214.554331 
L 21.890453 212.418726 
L 32.140499 194.113982 
L 19.18282 214.554331 
z
" clip-path="url(#p7e1f2098ac)" style="fill: #fde725; fill-opacity: 0.7"/>
   </g>
   <g id="matplotlib.axis_1"/>
   <g id="matplotlib.axis_2"/>
   <g id="line2d_1">
    <path d="M 99.068289 214.554331 
L 115.045383 214.554331 
" clip-path="url(#p7e1f2098ac)" style="fill: none; stroke: #555555; stroke-opacity: 0.9; stroke-width: 0.5; stroke-linecap: square"/>
   </g>
   <g id="line2d_2">
    <path d="M 99.068289 214.554331 
L 19.18282 214.554331 
" clip-path="url(#p7e1f2098ac)" style="fill: none; stroke: #555555; stroke-opacity: 0.9; stroke-width: 0.5; stroke-linecap: square"/>
   </g>
   <g id="line2d_3">
    <path d="M 168.968074 72.78529 
L 175.88124 83.690601 
" clip-path="url(#p7e1f2098ac)" style="fill: none; stroke: #555555; stroke-opacity: 0.9; stroke-width: 0.5; stroke-linecap: square"/>
   </g>
   <g id="line2d_4">
    <path d="M 218.896492 151.545868 
L 139.011024 214.554331 
" clip-path="url(#p7e1f2098ac)" style="fill: none; stroke: #555555; stroke-opacity: 0.9; stroke-width: 0.5; stroke-linecap: square"/>
   </g>
   <g id="line2d_5">
    <path d="M 198.925125 214.554331 
L 258.839227 214.554331 
" clip-path="url(#p7e1f2098ac)" style="fill: none; stroke: #555555; stroke-opacity: 0.9; stroke-width: 0.5; stroke-linecap: square"/>
   </g>
   <g id="line2d_6">
    <path d="M 218.896492 151.545868 
L 198.925125 214.554331 
" clip-path="url(#p7e1f2098ac)" style="fill: none; stroke: #555555; stroke-opacity: 0.9; stroke-width: 0.5; stroke-linecap: square"/>
   </g>
   <g id="line2d_7">
    <path d="M 218.896492 151.545868 
L 258.839227 214.554331 
" clip-path="url(#p7e1f2098ac)" style="fill: none; stroke: #555555; stroke-opacity: 0.9; stroke-width: 0.5; stroke-linecap: square"/>
   </g>
   <g id="line2d_8">
    <path d="M 139.011024 214.554331 
L 115.045383 214.554331 
" clip-path="url(#p7e1f2098ac)" style="fill: none; stroke: #555555; stroke-opacity: 0.9; stroke-width: 0.5; stroke-linecap: square"/>
   </g>
   <g id="line2d_9">
    <path d="M 198.925125 120.041637 
L 139.011024 120.041637 
" clip-path="url(#p7e1f2098ac)" style="fill: none; stroke: #555555; stroke-opacity: 0.9; stroke-width: 0.5; stroke-linecap: square"/>
   </g>
   <g id="line2d_10">
    <path d="M 198.925125 120.041637 
L 115.045383 214.554331 
" clip-path="url(#p7e1f2098ac)" style="fill: none; stroke: #555555; stroke-opacity: 0.9; stroke-width: 0.5; stroke-linecap: square"/>
   </g>
   <g id="line2d_11">
    <path d="M 139.011024 120.041637 
L 99.068289 214.554331 
" clip-path="url(#p7e1f2098ac)" style="fill: none; stroke: #555555; stroke-opacity: 0.9; stroke-width: 0.5; stroke-linecap: square"/>
   </g>
   <g id="line2d_12">
    <path d="M 109.053973 72.78529 
L 139.011024 25.528943 
" clip-path="url(#p7e1f2098ac)" style="fill: none; stroke: #555555; stroke-opacity: 0.9; stroke-width: 0.5; stroke-linecap: square"/>
   </g>
   <g id="line2d_13">
    <path d="M 168.968074 72.78529 
L 109.053973 72.78529 
" clip-path="url(#p7e1f2098ac)" style="fill: none; stroke: #555555; stroke-opacity: 0.9; stroke-width: 0.5; stroke-linecap: square"/>
   </g>
   <g id="line2d_14">
    <path d="M 168.968074 72.78529 
L 139.011024 25.528943 
" clip-path="url(#p7e1f2098ac)" style="fill: none; stroke: #555555; stroke-opacity: 0.9; stroke-width: 0.5; stroke-linecap: square"/>
   </g>
   <g id="line2d_15">
    <path d="M 175.88124 83.690601 
L 139.011024 120.041637 
" clip-path="url(#p7e1f2098ac)" style="fill: none; stroke: #555555; stroke-opacity: 0.9; stroke-width: 0.5; stroke-linecap: square"/>
   </g>
   <g id="line2d_16">
    <path d="M 115.045383 214.554331 
L 170.077595 158.546809 
" clip-path="url(#p7e1f2098ac)" style="fill: none; stroke: #555555; stroke-opacity: 0.9; stroke-width: 0.5; stroke-linecap: square"/>
   </g>
   <g id="line2d_17">
    <path d="M 139.011024 214.554331 
L 198.925125 214.554331 
" clip-path="url(#p7e1f2098ac)" style="fill: none; stroke: #555555; stroke-opacity: 0.9; stroke-width: 0.5; stroke-linecap: square"/>
   </g>
   <g id="line2d_18">
    <path d="M 109.053973 72.78529 
L 139.011024 120.041637 
" clip-path="url(#p7e1f2098ac)" style="fill: none; stroke: #555555; stroke-opacity: 0.9; stroke-width: 0.5; stroke-linecap: square"/>
   </g>
   <g id="line2d_19">
    <path d="M 198.925125 120.041637 
L 218.896492 151.545868 
" clip-path="url(#p7e1f2098ac)" style="fill: none; stroke: #555555; stroke-opacity: 0.9; stroke-width: 0.5; stroke-linecap: square"/>
   </g>
   <g id="line2d_20">
    <path d="M 198.925125 120.041637 
L 139.011024 214.554331 
" clip-path="url(#p7e1f2098ac)" style="fill: none; stroke: #555555; stroke-opacity: 0.9; stroke-width: 0.5; stroke-linecap: square"/>
   </g>
   <g id="line2d_21">
    <path d="M 198.925125 120.041637 
L 175.88124 83.690601 
" clip-path="url(#p7e1f2098ac)" style="fill: none; stroke: #555555; stroke-opacity: 0.9; stroke-width: 0.5; stroke-linecap: square"/>
   </g>
   <g id="line2d_22">
    <path d="M 139.011024 120.041637 
L 115.045383 214.554331 
" clip-path="url(#p7e1f2098ac)" style="fill: none; stroke: #555555; stroke-opacity: 0.9; stroke-width: 0.5; stroke-linecap: square"/>
   </g>
   <g id="line2d_23">
    <path d="M 139.011024 214.554331 
L 170.077595 158.546809 
" clip-path="url(#p7e1f2098ac)" style="fill: none; stroke: #555555; stroke-opacity: 0.9; stroke-width: 0.5; stroke-linecap: square"/>
   </g>
   <g id="line2d_24">
    <path d="M 109.053973 72.78529 
L 19.18282 214.554331 
" clip-path="url(#p7e1f2098ac)" style="fill: none; stroke: #555555; stroke-opacity: 0.9; stroke-width: 0.5; stroke-linecap: square"/>
   </g>
   <g id="line2d_25">
    <path d="M 168.968074 72.78529 
L 139.011024 120.041637 
" clip-path="url(#p7e1f2098ac)" style="fill: none; stroke: #555555; stroke-opacity: 0.9; stroke-width: 0.5; stroke-linecap: square"/>
   </g>
   <g id="line2d_26">
    <path d="M 198.925125 120.041637 
L 170.077595 158.546809 
" clip-path="url(#p7e1f2098ac)" style="fill: none; stroke: #555555; stroke-opacity: 0.9; stroke-width: 0.5; stroke-linecap: square"/>
   </g>
   <g id="line2d_27">
    <path d="M 139.011024 120.041637 
L 19.18282 214.554331 
" clip-path="url(#p7e1f2098ac)" style="fill: none; stroke: #555555; stroke-opacity: 0.9; stroke-width: 0.5; stroke-linecap: square"/>
   </g>
   <g id="PathCollection_1">
    <defs>
     <path id="mdaca812da1" d="M 0 2.738613 
C 0.726289 2.738613 1.422928 2.450055 1.936492 1.936492 
C 2.450055 1.422928 2.738613 0.726289 2.738613 0 
C 2.738613 -0.726289 2.450055 -1.422928 1.936492 -1.936492 
C 1.422928 -2.450055 0.726289 -2.738613 0 -2.738613 
C -0.726289 -2.738613 -1.422928 -2.450055 -1.936492 -1.936492 
C -2.450055 -1.422928 -2.738613 -0.726289 -2.738613 0 
C -2.738613 0.726289 -2.450055 1.422928 -1.936492 1.936492 
C -1.422928 2.450055 -0.726289 2.738613 0 2.738613 
z
" style="stroke: #008000"/>
    </defs>
    <g clip-path="url(#p7e1f2098ac)">
     <use xlink:href="#mdaca812da1" x="99.068289" y="214.554331" style="fill: #008000; stroke: #008000"/>
     <use xlink:href="#mdaca812da1" x="115.045383" y="214.554331" style="fill: #008000; stroke: #008000"/>
     <use xlink:href="#mdaca812da1" x="19.18282" y="214.554331" style="fill: #008000; stroke: #008000"/>
     <use xlink:href="#mdaca812da1" x="168.968074" y="72.78529" style="fill: #008000; stroke: #008000"/>
     <use xlink:href="#mdaca812da1" x="175.88124" y="83.690601" style="fill: #008000; stroke: #008000"/>
     <use xlink:href="#mdaca812da1" x="218.896492" y="151.545868" style="fill: #008000; stroke: #008000"/>
     <use xlink:href="#mdaca812da1" x="139.011024" y="214.554331" style="fill: #008000; stroke: #008000"/>
     <use xlink:href="#mdaca812da1" x="198.925125" y="214.554331" style="fill: #008000; stroke: #008000"/>
     <use xlink:href="#mdaca812da1" x="258.839227" y="214.554331" style="fill: #008000; stroke: #008000"/>
     <use xlink:href="#mdaca812da1" x="198.925125" y="120.041637" style="fill: #008000; stroke: #008000"/>
     <use xlink:href="#mdaca812da1" x="139.011024" y="120.041637" style="fill: #008000; stroke: #008000"/>
     <use xlink:href="#mdaca812da1" x="109.053973" y="72.78529" style="fill: #008000; stroke: #008000"/>
     <use xlink:href="#mdaca812da1" x="139.011024" y="25.528943" style="fill: #008000; stroke: #008000"/>
     <use xlink:href="#mdaca812da1" x="170.077595" y="158.546809" style="fill: #008000; stroke: #008000"/>
    </g>
   </g>
   <g id="PathCollection_2">
    <defs>
     <path id="m3a9c80155e" d="M -0 2.236068 
L 1.341641 0 
L 0 -2.236068 
L -1.341641 -0 
z
" style="stroke: #d3d3d3"/>
    </defs>
    <g clip-path="url(#p7e1f2098ac)">
     <use xlink:href="#m3a9c80155e" x="139.011024" y="25.528943" style="fill: #d3d3d3; stroke: #d3d3d3"/>
     <use xlink:href="#m3a9c80155e" x="139.011024" y="25.528943" style="fill: #d3d3d3; stroke: #d3d3d3"/>
     <use xlink:href="#m3a9c80155e" x="139.011024" y="25.528943" style="fill: #d3d3d3; stroke: #d3d3d3"/>
     <use xlink:href="#m3a9c80155e" x="139.011024" y="25.528943" style="fill: #d3d3d3; stroke: #d3d3d3"/>
     <use xlink:href="#m3a9c80155e" x="139.011024" y="25.528943" style="fill: #d3d3d3; stroke: #d3d3d3"/>
     <use xlink:href="#m3a9c80155e" x="139.011024" y="25.528943" style="fill: #d3d3d3; stroke: #d3d3d3"/>
     <use xlink:href="#m3a9c80155e" x="139.011024" y="25.528943" style="fill: #d3d3d3; stroke: #d3d3d3"/>
     <use xlink:href="#m3a9c80155e" x="258.839227" y="214.554331" style="fill: #d3d3d3; stroke: #d3d3d3"/>
     <use xlink:href="#m3a9c80155e" x="258.839227" y="214.554331" style="fill: #d3d3d3; stroke: #d3d3d3"/>
     <use xlink:href="#m3a9c80155e" x="258.839227" y="214.554331" style="fill: #d3d3d3; stroke: #d3d3d3"/>
     <use xlink:href="#m3a9c80155e" x="258.839227" y="214.554331" style="fill: #d3d3d3; stroke: #d3d3d3"/>
     <use xlink:href="#m3a9c80155e" x="258.839227" y="214.554331" style="fill: #d3d3d3; stroke: #d3d3d3"/>
     <use xlink:href="#m3a9c80155e" x="258.839227" y="214.554331" style="fill: #d3d3d3; stroke: #d3d3d3"/>
     <use xlink:href="#m3a9c80155e" x="258.839227" y="214.554331" style="fill: #d3d3d3; stroke: #d3d3d3"/>
     <use xlink:href="#m3a9c80155e" x="258.839227" y="214.554331" style="fill: #d3d3d3; stroke: #d3d3d3"/>
     <use xlink:href="#m3a9c80155e" x="258.839227" y="214.554331" style="fill: #d3d3d3; stroke: #d3d3d3"/>
     <use xlink:href="#m3a9c80155e" x="198.925125" y="120.041637" style="fill: #d3d3d3; stroke: #d3d3d3"/>
     <use xlink:href="#m3a9c80155e" x="168.968074" y="72.78529" style="fill: #d3d3d3; stroke: #d3d3d3"/>
     <use xlink:href="#m3a9c80155e" x="168.968074" y="72.78529" style="fill: #d3d3d3; stroke: #d3d3d3"/>
     <use xlink:href="#m3a9c80155e" x="168.968074" y="72.78529" style="fill: #d3d3d3; stroke: #d3d3d3"/>
     <use xlink:href="#m3a9c80155e" x="162.976664" y="63.334021" style="fill: #d3d3d3; stroke: #d3d3d3"/>
     <use xlink:href="#m3a9c80155e" x="218.896492" y="151.545868" style="fill: #d3d3d3; stroke: #d3d3d3"/>
     <use xlink:href="#m3a9c80155e" x="218.896492" y="151.545868" style="fill: #d3d3d3; stroke: #d3d3d3"/>
     <use xlink:href="#m3a9c80155e" x="228.882176" y="167.297984" style="fill: #d3d3d3; stroke: #d3d3d3"/>
     <use xlink:href="#m3a9c80155e" x="228.882176" y="167.297984" style="fill: #d3d3d3; stroke: #d3d3d3"/>
     <use xlink:href="#m3a9c80155e" x="210.907946" y="138.944176" style="fill: #d3d3d3; stroke: #d3d3d3"/>
     <use xlink:href="#m3a9c80155e" x="164.238014" y="65.323762" style="fill: #d3d3d3; stroke: #d3d3d3"/>
     <use xlink:href="#m3a9c80155e" x="19.18282" y="214.554331" style="fill: #d3d3d3; stroke: #d3d3d3"/>
     <use xlink:href="#m3a9c80155e" x="19.18282" y="214.554331" style="fill: #d3d3d3; stroke: #d3d3d3"/>
     <use xlink:href="#m3a9c80155e" x="19.18282" y="214.554331" style="fill: #d3d3d3; stroke: #d3d3d3"/>
     <use xlink:href="#m3a9c80155e" x="19.18282" y="214.554331" style="fill: #d3d3d3; stroke: #d3d3d3"/>
     <use xlink:href="#m3a9c80155e" x="19.18282" y="214.554331" style="fill: #d3d3d3; stroke: #d3d3d3"/>
     <use xlink:href="#m3a9c80155e" x="19.18282" y="214.554331" style="fill: #d3d3d3; stroke: #d3d3d3"/>
     <use xlink:href="#m3a9c80155e" x="19.18282" y="214.554331" style="fill: #d3d3d3; stroke: #d3d3d3"/>
     <use xlink:href="#m3a9c80155e" x="19.18282" y="214.554331" style="fill: #d3d3d3; stroke: #d3d3d3"/>
     <use xlink:href="#m3a9c80155e" x="109.053973" y="72.78529" style="fill: #d3d3d3; stroke: #d3d3d3"/>
     <use xlink:href="#m3a9c80155e" x="109.053973" y="72.78529" style="fill: #d3d3d3; stroke: #d3d3d3"/>
     <use xlink:href="#m3a9c80155e" x="109.053973" y="72.78529" style="fill: #d3d3d3; stroke: #d3d3d3"/>
     <use xlink:href="#m3a9c80155e" x="139.011024" y="214.554331" style="fill: #d3d3d3; stroke: #d3d3d3"/>
     <use xlink:href="#m3a9c80155e" x="139.011024" y="214.554331" style="fill: #d3d3d3; stroke: #d3d3d3"/>
     <use xlink:href="#m3a9c80155e" x="178.953758" y="214.554331" style="fill: #d3d3d3; stroke: #d3d3d3"/>
     <use xlink:href="#m3a9c80155e" x="168.968074" y="167.297984" style="fill: #d3d3d3; stroke: #d3d3d3"/>
     <use xlink:href="#m3a9c80155e" x="198.925125" y="214.554331" style="fill: #d3d3d3; stroke: #d3d3d3"/>
     <use xlink:href="#m3a9c80155e" x="203.533902" y="156.392673" style="fill: #d3d3d3; stroke: #d3d3d3"/>
     <use xlink:href="#m3a9c80155e" x="99.068289" y="214.554331" style="fill: #d3d3d3; stroke: #d3d3d3"/>
     <use xlink:href="#m3a9c80155e" x="49.139871" y="167.297984" style="fill: #d3d3d3; stroke: #d3d3d3"/>
     <use xlink:href="#m3a9c80155e" x="79.096922" y="214.554331" style="fill: #d3d3d3; stroke: #d3d3d3"/>
     <use xlink:href="#m3a9c80155e" x="129.79347" y="127.311844" style="fill: #d3d3d3; stroke: #d3d3d3"/>
     <use xlink:href="#m3a9c80155e" x="129.79347" y="214.554331" style="fill: #d3d3d3; stroke: #d3d3d3"/>
     <use xlink:href="#m3a9c80155e" x="92.923253" y="214.554331" style="fill: #d3d3d3; stroke: #d3d3d3"/>
    </g>
   </g>
   <g id="PathCollection_3">
    <defs>
     <path id="m10b43712e8" d="M 0 -5 
L -1.12257 -1.545085 
L -4.755283 -1.545085 
L -1.816356 0.59017 
L -2.938926 4.045085 
L -0 1.90983 
L 2.938926 4.045085 
L 1.816356 0.59017 
L 4.755283 -1.545085 
L 1.12257 -1.545085 
z
" style="stroke: #0000ff"/>
    </defs>
    <g clip-path="url(#p7e1f2098ac)">
     <use xlink:href="#m10b43712e8" x="203.533902" y="156.392673" style="fill: #0000ff; stroke: #0000ff"/>
    </g>
   </g>
   <g id="text_1">
    <!-- $\mathrm{Li_{2}Al}$ -->
    <g transform="translate(88.97738 210.544971) scale(0.1 -0.1)">
     <defs>
      <path id="DejaVuSans-4c" d="M 628 4666 
L 1259 4666 
L 1259 531 
L 3531 531 
L 3531 0 
L 628 0 
L 628 4666 
z
" transform="scale(0.015625)"/>
      <path id="DejaVuSans-69" d="M 603 3500 
L 1178 3500 
L 1178 0 
L 603 0 
L 603 3500 
z
M 603 4863 
L 1178 4863 
L 1178 4134 
L 603 4134 
L 603 4863 
z
" transform="scale(0.015625)"/>
      <path id="DejaVuSans-32" d="M 1228 531 
L 3431 531 
L 3431 0 
L 469 0 
L 469 531 
Q 828 903 1448 1529 
Q 2069 2156 2228 2338 
Q 2531 2678 2651 2914 
Q 2772 3150 2772 3378 
Q 2772 3750 2511 3984 
Q 2250 4219 1831 4219 
Q 1534 4219 1204 4116 
Q 875 4013 500 3803 
L 500 4441 
Q 881 4594 1212 4672 
Q 1544 4750 1819 4750 
Q 2544 4750 2975 4387 
Q 3406 4025 3406 3419 
Q 3406 3131 3298 2873 
Q 3191 2616 2906 2266 
Q 2828 2175 2409 1742 
Q 1991 1309 1228 531 
z
" transform="scale(0.015625)"/>
      <path id="DejaVuSans-41" d="M 2188 4044 
L 1331 1722 
L 3047 1722 
L 2188 4044 
z
M 1831 4666 
L 2547 4666 
L 4325 0 
L 3669 0 
L 3244 1197 
L 1141 1197 
L 716 0 
L 50 0 
L 1831 4666 
z
" transform="scale(0.015625)"/>
      <path id="DejaVuSans-6c" d="M 603 4863 
L 1178 4863 
L 1178 0 
L 603 0 
L 603 4863 
z
" transform="scale(0.015625)"/>
     </defs>
     <use xlink:href="#DejaVuSans-4c" transform="translate(0 0.015625)"/>
     <use xlink:href="#DejaVuSans-69" transform="translate(55.712891 0.015625)"/>
     <use xlink:href="#DejaVuSans-32" transform="translate(84.453125 -16.390625) scale(0.7)"/>
     <use xlink:href="#DejaVuSans-41" transform="translate(131.723633 0.015625)"/>
     <use xlink:href="#DejaVuSans-6c" transform="translate(200.131836 0.015625)"/>
    </g>
   </g>
   <g id="text_2">
    <!-- $\mathrm{Li_{3}Al_{2}}$ -->
    <g transform="translate(112.322656 209.347894) scale(0.1 -0.1)">
     <defs>
      <path id="DejaVuSans-33" d="M 2597 2516 
Q 3050 2419 3304 2112 
Q 3559 1806 3559 1356 
Q 3559 666 3084 287 
Q 2609 -91 1734 -91 
Q 1441 -91 1130 -33 
Q 819 25 488 141 
L 488 750 
Q 750 597 1062 519 
Q 1375 441 1716 441 
Q 2309 441 2620 675 
Q 2931 909 2931 1356 
Q 2931 1769 2642 2001 
Q 2353 2234 1838 2234 
L 1294 2234 
L 1294 2753 
L 1863 2753 
Q 2328 2753 2575 2939 
Q 2822 3125 2822 3475 
Q 2822 3834 2567 4026 
Q 2313 4219 1838 4219 
Q 1578 4219 1281 4162 
Q 984 4106 628 3988 
L 628 4550 
Q 988 4650 1302 4700 
Q 1616 4750 1894 4750 
Q 2613 4750 3031 4423 
Q 3450 4097 3450 3541 
Q 3450 3153 3228 2886 
Q 3006 2619 2597 2516 
z
" transform="scale(0.015625)"/>
     </defs>
     <use xlink:href="#DejaVuSans-4c" transform="translate(0 0.015625)"/>
     <use xlink:href="#DejaVuSans-69" transform="translate(55.712891 0.015625)"/>
     <use xlink:href="#DejaVuSans-33" transform="translate(84.453125 -16.390625) scale(0.7)"/>
     <use xlink:href="#DejaVuSans-41" transform="translate(131.723633 0.015625)"/>
     <use xlink:href="#DejaVuSans-6c" transform="translate(200.131836 0.015625)"/>
     <use xlink:href="#DejaVuSans-32" transform="translate(228.87207 -16.390625) scale(0.7)"/>
    </g>
   </g>
   <g id="text_3">
    <!-- $\mathrm{Li}$ -->
    <g transform="translate(19.660419 211.839411) scale(0.1 -0.1)">
     <use xlink:href="#DejaVuSans-4c" transform="translate(0 0.015625)"/>
     <use xlink:href="#DejaVuSans-69" transform="translate(55.712891 0.015625)"/>
    </g>
   </g>
   <g id="text_4">
    <!-- $\mathrm{AlCu_{3}}$ -->
    <g transform="translate(161.613529 68.638869) scale(0.1 -0.1)">
     <defs>
      <path id="DejaVuSans-43" d="M 4122 4306 
L 4122 3641 
Q 3803 3938 3442 4084 
Q 3081 4231 2675 4231 
Q 1875 4231 1450 3742 
Q 1025 3253 1025 2328 
Q 1025 1406 1450 917 
Q 1875 428 2675 428 
Q 3081 428 3442 575 
Q 3803 722 4122 1019 
L 4122 359 
Q 3791 134 3420 21 
Q 3050 -91 2638 -91 
Q 1578 -91 968 557 
Q 359 1206 359 2328 
Q 359 3453 968 4101 
Q 1578 4750 2638 4750 
Q 3056 4750 3426 4639 
Q 3797 4528 4122 4306 
z
" transform="scale(0.015625)"/>
      <path id="DejaVuSans-75" d="M 544 1381 
L 544 3500 
L 1119 3500 
L 1119 1403 
Q 1119 906 1312 657 
Q 1506 409 1894 409 
Q 2359 409 2629 706 
Q 2900 1003 2900 1516 
L 2900 3500 
L 3475 3500 
L 3475 0 
L 2900 0 
L 2900 538 
Q 2691 219 2414 64 
Q 2138 -91 1772 -91 
Q 1169 -91 856 284 
Q 544 659 544 1381 
z
M 1991 3584 
L 1991 3584 
z
" transform="scale(0.015625)"/>
     </defs>
     <use xlink:href="#DejaVuSans-41" transform="translate(0 0.015625)"/>
     <use xlink:href="#DejaVuSans-6c" transform="translate(68.408203 0.015625)"/>
     <use xlink:href="#DejaVuSans-43" transform="translate(96.191406 0.015625)"/>
     <use xlink:href="#DejaVuSans-75" transform="translate(166.015625 0.015625)"/>
     <use xlink:href="#DejaVuSans-33" transform="translate(230.351562 -16.390625) scale(0.7)"/>
    </g>
   </g>
   <g id="text_5">
    <!-- $\mathrm{Al_{4}Cu_{9}}$ -->
    <g transform="translate(175.944876 87.026639) scale(0.1 -0.1)">
     <defs>
      <path id="DejaVuSans-34" d="M 2419 4116 
L 825 1625 
L 2419 1625 
L 2419 4116 
z
M 2253 4666 
L 3047 4666 
L 3047 1625 
L 3713 1625 
L 3713 1100 
L 3047 1100 
L 3047 0 
L 2419 0 
L 2419 1100 
L 313 1100 
L 313 1709 
L 2253 4666 
z
" transform="scale(0.015625)"/>
      <path id="DejaVuSans-39" d="M 703 97 
L 703 672 
Q 941 559 1184 500 
Q 1428 441 1663 441 
Q 2288 441 2617 861 
Q 2947 1281 2994 2138 
Q 2813 1869 2534 1725 
Q 2256 1581 1919 1581 
Q 1219 1581 811 2004 
Q 403 2428 403 3163 
Q 403 3881 828 4315 
Q 1253 4750 1959 4750 
Q 2769 4750 3195 4129 
Q 3622 3509 3622 2328 
Q 3622 1225 3098 567 
Q 2575 -91 1691 -91 
Q 1453 -91 1209 -44 
Q 966 3 703 97 
z
M 1959 2075 
Q 2384 2075 2632 2365 
Q 2881 2656 2881 3163 
Q 2881 3666 2632 3958 
Q 2384 4250 1959 4250 
Q 1534 4250 1286 3958 
Q 1038 3666 1038 3163 
Q 1038 2656 1286 2365 
Q 1534 2075 1959 2075 
z
" transform="scale(0.015625)"/>
     </defs>
     <use xlink:href="#DejaVuSans-41" transform="translate(0 0.015625)"/>
     <use xlink:href="#DejaVuSans-6c" transform="translate(68.408203 0.015625)"/>
     <use xlink:href="#DejaVuSans-34" transform="translate(97.148438 -16.390625) scale(0.7)"/>
     <use xlink:href="#DejaVuSans-43" transform="translate(144.418945 0.015625)"/>
     <use xlink:href="#DejaVuSans-75" transform="translate(214.243164 0.015625)"/>
     <use xlink:href="#DejaVuSans-39" transform="translate(278.579102 -16.390625) scale(0.7)"/>
    </g>
   </g>
   <g id="text_6">
    <!-- $\mathrm{Al_{2}Cu}$ -->
    <g transform="translate(211.541947 147.420198) scale(0.1 -0.1)">
     <use xlink:href="#DejaVuSans-41" transform="translate(0 0.015625)"/>
     <use xlink:href="#DejaVuSans-6c" transform="translate(68.408203 0.015625)"/>
     <use xlink:href="#DejaVuSans-32" transform="translate(97.148438 -16.390625) scale(0.7)"/>
     <use xlink:href="#DejaVuSans-43" transform="translate(144.418945 0.015625)"/>
     <use xlink:href="#DejaVuSans-75" transform="translate(214.243164 0.015625)"/>
    </g>
   </g>
   <g id="text_7">
    <!-- $\mathrm{LiAl}$ -->
    <g transform="translate(139.829205 210.592335) scale(0.1 -0.1)">
     <use xlink:href="#DejaVuSans-4c" transform="translate(0 0.015625)"/>
     <use xlink:href="#DejaVuSans-69" transform="translate(55.712891 0.015625)"/>
     <use xlink:href="#DejaVuSans-41" transform="translate(83.496094 0.015625)"/>
     <use xlink:href="#DejaVuSans-6c" transform="translate(151.904297 0.015625)"/>
    </g>
   </g>
   <g id="text_8">
    <!-- $\mathrm{LiAl_{3}}$ -->
    <g transform="translate(192.106943 210.594971) scale(0.1 -0.1)">
     <use xlink:href="#DejaVuSans-4c" transform="translate(0 0.015625)"/>
     <use xlink:href="#DejaVuSans-69" transform="translate(55.712891 0.015625)"/>
     <use xlink:href="#DejaVuSans-41" transform="translate(83.496094 0.015625)"/>
     <use xlink:href="#DejaVuSans-6c" transform="translate(151.904297 0.015625)"/>
     <use xlink:href="#DejaVuSans-33" transform="translate(180.644531 -16.390625) scale(0.7)"/>
    </g>
   </g>
   <g id="text_9">
    <!-- $\mathrm{Al}$ -->
    <g transform="translate(249.389691 211.215873) scale(0.1 -0.1)">
     <use xlink:href="#DejaVuSans-41" transform="translate(0 0.015625)"/>
     <use xlink:href="#DejaVuSans-6c" transform="translate(68.408203 0.015625)"/>
    </g>
   </g>
   <g id="text_10">
    <!-- $\mathrm{AlCu}$ -->
    <g transform="translate(180.879671 127.6151) scale(0.1 -0.1)">
     <use xlink:href="#DejaVuSans-41" transform="translate(0 0.015625)"/>
     <use xlink:href="#DejaVuSans-6c" transform="translate(68.408203 0.015625)"/>
     <use xlink:href="#DejaVuSans-43" transform="translate(96.191406 0.015625)"/>
     <use xlink:href="#DejaVuSans-75" transform="translate(166.015625 0.015625)"/>
    </g>
   </g>
   <g id="text_11">
    <!-- $\mathrm{LiAlCu_{2}}$ -->
    <g transform="translate(109.783751 128.93952) scale(0.1 -0.1)">
     <use xlink:href="#DejaVuSans-4c" transform="translate(0 0.015625)"/>
     <use xlink:href="#DejaVuSans-69" transform="translate(55.712891 0.015625)"/>
     <use xlink:href="#DejaVuSans-41" transform="translate(83.496094 0.015625)"/>
     <use xlink:href="#DejaVuSans-6c" transform="translate(151.904297 0.015625)"/>
     <use xlink:href="#DejaVuSans-43" transform="translate(179.6875 0.015625)"/>
     <use xlink:href="#DejaVuSans-75" transform="translate(249.511719 0.015625)"/>
     <use xlink:href="#DejaVuSans-32" transform="translate(313.847656 -16.390625) scale(0.7)"/>
    </g>
   </g>
   <g id="text_12">
    <!-- $\mathrm{LiCu_{3}}$ -->
    <g transform="translate(88.603973 81.733173) scale(0.1 -0.1)">
     <use xlink:href="#DejaVuSans-4c" transform="translate(0 0.015625)"/>
     <use xlink:href="#DejaVuSans-69" transform="translate(55.712891 0.015625)"/>
     <use xlink:href="#DejaVuSans-43" transform="translate(83.496094 0.015625)"/>
     <use xlink:href="#DejaVuSans-75" transform="translate(153.320312 0.015625)"/>
     <use xlink:href="#DejaVuSans-33" transform="translate(217.65625 -16.390625) scale(0.7)"/>
    </g>
   </g>
   <g id="text_13">
    <!-- $\mathrm{Cu}$ -->
    <g transform="translate(130.347387 33.102406) scale(0.1 -0.1)">
     <use xlink:href="#DejaVuSans-43" transform="translate(0 0.78125)"/>
     <use xlink:href="#DejaVuSans-75" transform="translate(69.824219 0.78125)"/>
    </g>
   </g>
   <g id="text_14">
    <!-- $\mathrm{Li_{6}Al_{13}Cu_{8}}$ -->
    <g transform="translate(123.327595 167.494691) scale(0.1 -0.1)">
     <defs>
      <path id="DejaVuSans-36" d="M 2113 2584 
Q 1688 2584 1439 2293 
Q 1191 2003 1191 1497 
Q 1191 994 1439 701 
Q 1688 409 2113 409 
Q 2538 409 2786 701 
Q 3034 994 3034 1497 
Q 3034 2003 2786 2293 
Q 2538 2584 2113 2584 
z
M 3366 4563 
L 3366 3988 
Q 3128 4100 2886 4159 
Q 2644 4219 2406 4219 
Q 1781 4219 1451 3797 
Q 1122 3375 1075 2522 
Q 1259 2794 1537 2939 
Q 1816 3084 2150 3084 
Q 2853 3084 3261 2657 
Q 3669 2231 3669 1497 
Q 3669 778 3244 343 
Q 2819 -91 2113 -91 
Q 1303 -91 875 529 
Q 447 1150 447 2328 
Q 447 3434 972 4092 
Q 1497 4750 2381 4750 
Q 2619 4750 2861 4703 
Q 3103 4656 3366 4563 
z
" transform="scale(0.015625)"/>
      <path id="DejaVuSans-31" d="M 794 531 
L 1825 531 
L 1825 4091 
L 703 3866 
L 703 4441 
L 1819 4666 
L 2450 4666 
L 2450 531 
L 3481 531 
L 3481 0 
L 794 0 
L 794 531 
z
" transform="scale(0.015625)"/>
      <path id="DejaVuSans-38" d="M 2034 2216 
Q 1584 2216 1326 1975 
Q 1069 1734 1069 1313 
Q 1069 891 1326 650 
Q 1584 409 2034 409 
Q 2484 409 2743 651 
Q 3003 894 3003 1313 
Q 3003 1734 2745 1975 
Q 2488 2216 2034 2216 
z
M 1403 2484 
Q 997 2584 770 2862 
Q 544 3141 544 3541 
Q 544 4100 942 4425 
Q 1341 4750 2034 4750 
Q 2731 4750 3128 4425 
Q 3525 4100 3525 3541 
Q 3525 3141 3298 2862 
Q 3072 2584 2669 2484 
Q 3125 2378 3379 2068 
Q 3634 1759 3634 1313 
Q 3634 634 3220 271 
Q 2806 -91 2034 -91 
Q 1263 -91 848 271 
Q 434 634 434 1313 
Q 434 1759 690 2068 
Q 947 2378 1403 2484 
z
M 1172 3481 
Q 1172 3119 1398 2916 
Q 1625 2713 2034 2713 
Q 2441 2713 2670 2916 
Q 2900 3119 2900 3481 
Q 2900 3844 2670 4047 
Q 2441 4250 2034 4250 
Q 1625 4250 1398 4047 
Q 1172 3844 1172 3481 
z
" transform="scale(0.015625)"/>
     </defs>
     <use xlink:href="#DejaVuSans-4c" transform="translate(0 0.015625)"/>
     <use xlink:href="#DejaVuSans-69" transform="translate(55.712891 0.015625)"/>
     <use xlink:href="#DejaVuSans-36" transform="translate(84.453125 -16.390625) scale(0.7)"/>
     <use xlink:href="#DejaVuSans-41" transform="translate(131.723633 0.015625)"/>
     <use xlink:href="#DejaVuSans-6c" transform="translate(200.131836 0.015625)"/>
     <use xlink:href="#DejaVuSans-31" transform="translate(228.87207 -16.390625) scale(0.7)"/>
     <use xlink:href="#DejaVuSans-33" transform="translate(273.408203 -16.390625) scale(0.7)"/>
     <use xlink:href="#DejaVuSans-43" transform="translate(320.678711 0.015625)"/>
     <use xlink:href="#DejaVuSans-75" transform="translate(390.50293 0.015625)"/>
     <use xlink:href="#DejaVuSans-38" transform="translate(454.838867 -16.390625) scale(0.7)"/>
    </g>
   </g>
   <g id="text_15">
    <!-- $\mathrm{Li(Al_{2}Cu)_{4}}$ -->
    <g style="fill: #0000ff" transform="translate(203.352084 164.667018) scale(0.1 -0.1)">
     <defs>
      <path id="DejaVuSans-28" d="M 1984 4856 
Q 1566 4138 1362 3434 
Q 1159 2731 1159 2009 
Q 1159 1288 1364 580 
Q 1569 -128 1984 -844 
L 1484 -844 
Q 1016 -109 783 600 
Q 550 1309 550 2009 
Q 550 2706 781 3412 
Q 1013 4119 1484 4856 
L 1984 4856 
z
" transform="scale(0.015625)"/>
      <path id="DejaVuSans-29" d="M 513 4856 
L 1013 4856 
Q 1481 4119 1714 3412 
Q 1947 2706 1947 2009 
Q 1947 1309 1714 600 
Q 1481 -109 1013 -844 
L 513 -844 
Q 928 -128 1133 580 
Q 1338 1288 1338 2009 
Q 1338 2731 1133 3434 
Q 928 4138 513 4856 
z
" transform="scale(0.015625)"/>
     </defs>
     <use xlink:href="#DejaVuSans-4c" transform="translate(0 0.015625)"/>
     <use xlink:href="#DejaVuSans-69" transform="translate(55.712891 0.015625)"/>
     <use xlink:href="#DejaVuSans-28" transform="translate(83.496094 0.015625)"/>
     <use xlink:href="#DejaVuSans-41" transform="translate(122.509766 0.015625)"/>
     <use xlink:href="#DejaVuSans-6c" transform="translate(190.917969 0.015625)"/>
     <use xlink:href="#DejaVuSans-32" transform="translate(219.658203 -16.390625) scale(0.7)"/>
     <use xlink:href="#DejaVuSans-43" transform="translate(266.928711 0.015625)"/>
     <use xlink:href="#DejaVuSans-75" transform="translate(336.75293 0.015625)"/>
     <use xlink:href="#DejaVuSans-29" transform="translate(400.131836 0.015625)"/>
     <use xlink:href="#DejaVuSans-34" transform="translate(440.102539 -16.390625) scale(0.7)"/>
    </g>
   </g>
  </g>
  <g id="axes_2">
   <g id="patch_3">
    <path d="M 287.298425 195.703937 
L 296.029134 195.703937 
L 296.029134 36.96378 
L 287.298425 36.96378 
L 287.298425 195.703937 
z
" style="fill: none"/>
   </g>
   <g id="patch_4">
    <path d="M 287.298425 195.703937 
L 291.66378 203.640945 
L 296.029134 195.703937 
" style="fill: #440154; opacity: 0.7"/>
   </g>
   <g id="patch_5">
    <path d="M 287.298425 36.96378 
L 291.66378 29.026772 
L 296.029134 36.96378 
" style="fill: #fde725; opacity: 0.7"/>
   </g>
   <g id="QuadMesh_1">
    <path d="M 287.298425 195.703937 
L 296.029134 195.703937 
L 296.029134 192.012305 
L 287.298425 192.012305 
L 287.298425 195.703937 
" clip-path="url(#pb184efb855)" style="fill: #450457; fill-opacity: 0.7"/>
    <path d="M 287.298425 192.012305 
L 296.029134 192.012305 
L 296.029134 188.320674 
L 287.298425 188.320674 
L 287.298425 192.012305 
" clip-path="url(#pb184efb855)" style="fill: #470d60; fill-opacity: 0.7"/>
    <path d="M 287.298425 188.320674 
L 296.029134 188.320674 
L 296.029134 184.629042 
L 287.298425 184.629042 
L 287.298425 188.320674 
" clip-path="url(#pb184efb855)" style="fill: #481668; fill-opacity: 0.7"/>
    <path d="M 287.298425 184.629042 
L 296.029134 184.629042 
L 296.029134 180.937411 
L 287.298425 180.937411 
L 287.298425 184.629042 
" clip-path="url(#pb184efb855)" style="fill: #481d6f; fill-opacity: 0.7"/>
    <path d="M 287.298425 180.937411 
L 296.029134 180.937411 
L 296.029134 177.245779 
L 287.298425 177.245779 
L 287.298425 180.937411 
" clip-path="url(#pb184efb855)" style="fill: #482576; fill-opacity: 0.7"/>
    <path d="M 287.298425 177.245779 
L 296.029134 177.245779 
L 296.029134 173.554148 
L 287.298425 173.554148 
L 287.298425 177.245779 
" clip-path="url(#pb184efb855)" style="fill: #472d7b; fill-opacity: 0.7"/>
    <path d="M 287.298425 173.554148 
L 296.029134 173.554148 
L 296.029134 169.862516 
L 287.298425 169.862516 
L 287.298425 173.554148 
" clip-path="url(#pb184efb855)" style="fill: #463480; fill-opacity: 0.7"/>
    <path d="M 287.298425 169.862516 
L 296.029134 169.862516 
L 296.029134 166.170884 
L 287.298425 166.170884 
L 287.298425 169.862516 
" clip-path="url(#pb184efb855)" style="fill: #443b84; fill-opacity: 0.7"/>
    <path d="M 287.298425 166.170884 
L 296.029134 166.170884 
L 296.029134 162.479253 
L 287.298425 162.479253 
L 287.298425 166.170884 
" clip-path="url(#pb184efb855)" style="fill: #414287; fill-opacity: 0.7"/>
    <path d="M 287.298425 162.479253 
L 296.029134 162.479253 
L 296.029134 158.787621 
L 287.298425 158.787621 
L 287.298425 162.479253 
" clip-path="url(#pb184efb855)" style="fill: #3e4989; fill-opacity: 0.7"/>
    <path d="M 287.298425 158.787621 
L 296.029134 158.787621 
L 296.029134 155.09599 
L 287.298425 155.09599 
L 287.298425 158.787621 
" clip-path="url(#pb184efb855)" style="fill: #3c508b; fill-opacity: 0.7"/>
    <path d="M 287.298425 155.09599 
L 296.029134 155.09599 
L 296.029134 151.404358 
L 287.298425 151.404358 
L 287.298425 155.09599 
" clip-path="url(#pb184efb855)" style="fill: #39568c; fill-opacity: 0.7"/>
    <path d="M 287.298425 151.404358 
L 296.029134 151.404358 
L 296.029134 147.712727 
L 287.298425 147.712727 
L 287.298425 151.404358 
" clip-path="url(#pb184efb855)" style="fill: #365d8d; fill-opacity: 0.7"/>
    <path d="M 287.298425 147.712727 
L 296.029134 147.712727 
L 296.029134 144.021095 
L 287.298425 144.021095 
L 287.298425 147.712727 
" clip-path="url(#pb184efb855)" style="fill: #33638d; fill-opacity: 0.7"/>
    <path d="M 287.298425 144.021095 
L 296.029134 144.021095 
L 296.029134 140.329463 
L 287.298425 140.329463 
L 287.298425 144.021095 
" clip-path="url(#pb184efb855)" style="fill: #30698e; fill-opacity: 0.7"/>
    <path d="M 287.298425 140.329463 
L 296.029134 140.329463 
L 296.029134 136.637832 
L 287.298425 136.637832 
L 287.298425 140.329463 
" clip-path="url(#pb184efb855)" style="fill: #2e6f8e; fill-opacity: 0.7"/>
    <path d="M 287.298425 136.637832 
L 296.029134 136.637832 
L 296.029134 132.9462 
L 287.298425 132.9462 
L 287.298425 136.637832 
" clip-path="url(#pb184efb855)" style="fill: #2b748e; fill-opacity: 0.7"/>
    <path d="M 287.298425 132.9462 
L 296.029134 132.9462 
L 296.029134 129.254569 
L 287.298425 129.254569 
L 287.298425 132.9462 
" clip-path="url(#pb184efb855)" style="fill: #297a8e; fill-opacity: 0.7"/>
    <path d="M 287.298425 129.254569 
L 296.029134 129.254569 
L 296.029134 125.562937 
L 287.298425 125.562937 
L 287.298425 129.254569 
" clip-path="url(#pb184efb855)" style="fill: #27808e; fill-opacity: 0.7"/>
    <path d="M 287.298425 125.562937 
L 296.029134 125.562937 
L 296.029134 121.871306 
L 287.298425 121.871306 
L 287.298425 125.562937 
" clip-path="url(#pb184efb855)" style="fill: #25858e; fill-opacity: 0.7"/>
    <path d="M 287.298425 121.871306 
L 296.029134 121.871306 
L 296.029134 118.179674 
L 287.298425 118.179674 
L 287.298425 121.871306 
" clip-path="url(#pb184efb855)" style="fill: #228b8d; fill-opacity: 0.7"/>
    <path d="M 287.298425 118.179674 
L 296.029134 118.179674 
L 296.029134 114.488042 
L 287.298425 114.488042 
L 287.298425 118.179674 
" clip-path="url(#pb184efb855)" style="fill: #21918c; fill-opacity: 0.7"/>
    <path d="M 287.298425 114.488042 
L 296.029134 114.488042 
L 296.029134 110.796411 
L 287.298425 110.796411 
L 287.298425 114.488042 
" clip-path="url(#pb184efb855)" style="fill: #1f958b; fill-opacity: 0.7"/>
    <path d="M 287.298425 110.796411 
L 296.029134 110.796411 
L 296.029134 107.104779 
L 287.298425 107.104779 
L 287.298425 110.796411 
" clip-path="url(#pb184efb855)" style="fill: #1e9b8a; fill-opacity: 0.7"/>
    <path d="M 287.298425 107.104779 
L 296.029134 107.104779 
L 296.029134 103.413148 
L 287.298425 103.413148 
L 287.298425 107.104779 
" clip-path="url(#pb184efb855)" style="fill: #1fa188; fill-opacity: 0.7"/>
    <path d="M 287.298425 103.413148 
L 296.029134 103.413148 
L 296.029134 99.721516 
L 287.298425 99.721516 
L 287.298425 103.413148 
" clip-path="url(#pb184efb855)" style="fill: #21a685; fill-opacity: 0.7"/>
    <path d="M 287.298425 99.721516 
L 296.029134 99.721516 
L 296.029134 96.029885 
L 287.298425 96.029885 
L 287.298425 99.721516 
" clip-path="url(#pb184efb855)" style="fill: #25ac82; fill-opacity: 0.7"/>
    <path d="M 287.298425 96.029885 
L 296.029134 96.029885 
L 296.029134 92.338253 
L 287.298425 92.338253 
L 287.298425 96.029885 
" clip-path="url(#pb184efb855)" style="fill: #2cb17e; fill-opacity: 0.7"/>
    <path d="M 287.298425 92.338253 
L 296.029134 92.338253 
L 296.029134 88.646621 
L 287.298425 88.646621 
L 287.298425 92.338253 
" clip-path="url(#pb184efb855)" style="fill: #34b679; fill-opacity: 0.7"/>
    <path d="M 287.298425 88.646621 
L 296.029134 88.646621 
L 296.029134 84.95499 
L 287.298425 84.95499 
L 287.298425 88.646621 
" clip-path="url(#pb184efb855)" style="fill: #3dbc74; fill-opacity: 0.7"/>
    <path d="M 287.298425 84.95499 
L 296.029134 84.95499 
L 296.029134 81.263358 
L 287.298425 81.263358 
L 287.298425 84.95499 
" clip-path="url(#pb184efb855)" style="fill: #48c16e; fill-opacity: 0.7"/>
    <path d="M 287.298425 81.263358 
L 296.029134 81.263358 
L 296.029134 77.571727 
L 287.298425 77.571727 
L 287.298425 81.263358 
" clip-path="url(#pb184efb855)" style="fill: #54c568; fill-opacity: 0.7"/>
    <path d="M 287.298425 77.571727 
L 296.029134 77.571727 
L 296.029134 73.880095 
L 287.298425 73.880095 
L 287.298425 77.571727 
" clip-path="url(#pb184efb855)" style="fill: #60ca60; fill-opacity: 0.7"/>
    <path d="M 287.298425 73.880095 
L 296.029134 73.880095 
L 296.029134 70.188464 
L 287.298425 70.188464 
L 287.298425 73.880095 
" clip-path="url(#pb184efb855)" style="fill: #6ece58; fill-opacity: 0.7"/>
    <path d="M 287.298425 70.188464 
L 296.029134 70.188464 
L 296.029134 66.496832 
L 287.298425 66.496832 
L 287.298425 70.188464 
" clip-path="url(#pb184efb855)" style="fill: #7cd250; fill-opacity: 0.7"/>
    <path d="M 287.298425 66.496832 
L 296.029134 66.496832 
L 296.029134 62.805201 
L 287.298425 62.805201 
L 287.298425 66.496832 
" clip-path="url(#pb184efb855)" style="fill: #8bd646; fill-opacity: 0.7"/>
    <path d="M 287.298425 62.805201 
L 296.029134 62.805201 
L 296.029134 59.113569 
L 287.298425 59.113569 
L 287.298425 62.805201 
" clip-path="url(#pb184efb855)" style="fill: #9bd93c; fill-opacity: 0.7"/>
    <path d="M 287.298425 59.113569 
L 296.029134 59.113569 
L 296.029134 55.421937 
L 287.298425 55.421937 
L 287.298425 59.113569 
" clip-path="url(#pb184efb855)" style="fill: #aadc32; fill-opacity: 0.7"/>
    <path d="M 287.298425 55.421937 
L 296.029134 55.421937 
L 296.029134 51.730306 
L 287.298425 51.730306 
L 287.298425 55.421937 
" clip-path="url(#pb184efb855)" style="fill: #bade28; fill-opacity: 0.7"/>
    <path d="M 287.298425 51.730306 
L 296.029134 51.730306 
L 296.029134 48.038674 
L 287.298425 48.038674 
L 287.298425 51.730306 
" clip-path="url(#pb184efb855)" style="fill: #cae11f; fill-opacity: 0.7"/>
    <path d="M 287.298425 48.038674 
L 296.029134 48.038674 
L 296.029134 44.347043 
L 287.298425 44.347043 
L 287.298425 48.038674 
" clip-path="url(#pb184efb855)" style="fill: #dae319; fill-opacity: 0.7"/>
    <path d="M 287.298425 44.347043 
L 296.029134 44.347043 
L 296.029134 40.655411 
L 287.298425 40.655411 
L 287.298425 44.347043 
" clip-path="url(#pb184efb855)" style="fill: #eae51a; fill-opacity: 0.7"/>
    <path d="M 287.298425 40.655411 
L 296.029134 40.655411 
L 296.029134 36.96378 
L 287.298425 36.96378 
L 287.298425 40.655411 
" clip-path="url(#pb184efb855)" style="fill: #f8e621; fill-opacity: 0.7"/>
   </g>
   <g id="matplotlib.axis_3"/>
   <g id="matplotlib.axis_4">
    <g id="ytick_1">
     <g id="line2d_28">
      <defs>
       <path id="m0af101e677" d="M 0 0 
L -2 0 
" style="stroke: #000000; stroke-width: 0.3"/>
      </defs>
      <g>
       <use xlink:href="#m0af101e677" x="296.029134" y="184.629042" style="stroke: #000000; stroke-width: 0.3"/>
      </g>
     </g>
     <g id="text_16">
      <!-- 0.205 -->
      <g transform="translate(299.529134 187.492167) scale(0.08 -0.08)">
       <defs>
        <path id="ArialMT-2212" d="M 3381 1997 
L 356 1997 
L 356 2522 
L 3381 2522 
L 3381 1997 
z
" transform="scale(0.015625)"/>
        <path id="ArialMT-30" d="M 266 2259 
Q 266 3072 433 3567 
Q 600 4063 929 4331 
Q 1259 4600 1759 4600 
Q 2128 4600 2406 4451 
Q 2684 4303 2865 4023 
Q 3047 3744 3150 3342 
Q 3253 2941 3253 2259 
Q 3253 1453 3087 958 
Q 2922 463 2592 192 
Q 2263 -78 1759 -78 
Q 1097 -78 719 397 
Q 266 969 266 2259 
z
M 844 2259 
Q 844 1131 1108 757 
Q 1372 384 1759 384 
Q 2147 384 2411 759 
Q 2675 1134 2675 2259 
Q 2675 3391 2411 3762 
Q 2147 4134 1753 4134 
Q 1366 4134 1134 3806 
Q 844 3388 844 2259 
z
" transform="scale(0.015625)"/>
        <path id="ArialMT-2e" d="M 581 0 
L 581 641 
L 1222 641 
L 1222 0 
L 581 0 
z
" transform="scale(0.015625)"/>
        <path id="ArialMT-32" d="M 3222 541 
L 3222 0 
L 194 0 
Q 188 203 259 391 
Q 375 700 629 1000 
Q 884 1300 1366 1694 
Q 2113 2306 2375 2664 
Q 2638 3022 2638 3341 
Q 2638 3675 2398 3904 
Q 2159 4134 1775 4134 
Q 1369 4134 1125 3890 
Q 881 3647 878 3216 
L 300 3275 
Q 359 3922 746 4261 
Q 1134 4600 1788 4600 
Q 2447 4600 2831 4234 
Q 3216 3869 3216 3328 
Q 3216 3053 3103 2787 
Q 2991 2522 2730 2228 
Q 2469 1934 1863 1422 
Q 1356 997 1212 845 
Q 1069 694 975 541 
L 3222 541 
z
" transform="scale(0.015625)"/>
        <path id="ArialMT-35" d="M 266 1200 
L 856 1250 
Q 922 819 1161 601 
Q 1400 384 1738 384 
Q 2144 384 2425 690 
Q 2706 997 2706 1503 
Q 2706 1984 2436 2262 
Q 2166 2541 1728 2541 
Q 1456 2541 1237 2417 
Q 1019 2294 894 2097 
L 366 2166 
L 809 4519 
L 3088 4519 
L 3088 3981 
L 1259 3981 
L 1013 2750 
Q 1425 3038 1878 3038 
Q 2478 3038 2890 2622 
Q 3303 2206 3303 1553 
Q 3303 931 2941 478 
Q 2500 -78 1738 -78 
Q 1113 -78 717 272 
Q 322 622 266 1200 
z
" transform="scale(0.015625)"/>
       </defs>
       <use xlink:href="#ArialMT-2212"/>
       <use xlink:href="#ArialMT-30" transform="translate(58.398438 0)"/>
       <use xlink:href="#ArialMT-2e" transform="translate(114.013672 0)"/>
       <use xlink:href="#ArialMT-32" transform="translate(141.796875 0)"/>
       <use xlink:href="#ArialMT-30" transform="translate(197.412109 0)"/>
       <use xlink:href="#ArialMT-35" transform="translate(253.027344 0)"/>
      </g>
     </g>
    </g>
    <g id="ytick_2">
     <g id="line2d_29">
      <g>
       <use xlink:href="#m0af101e677" x="296.029134" y="166.170884" style="stroke: #000000; stroke-width: 0.3"/>
      </g>
     </g>
     <g id="text_17">
      <!-- 0.180 -->
      <g transform="translate(299.529134 169.034009) scale(0.08 -0.08)">
       <defs>
        <path id="ArialMT-31" d="M 2384 0 
L 1822 0 
L 1822 3584 
Q 1619 3391 1289 3197 
Q 959 3003 697 2906 
L 697 3450 
Q 1169 3672 1522 3987 
Q 1875 4303 2022 4600 
L 2384 4600 
L 2384 0 
z
" transform="scale(0.015625)"/>
        <path id="ArialMT-38" d="M 1131 2484 
Q 781 2613 612 2850 
Q 444 3088 444 3419 
Q 444 3919 803 4259 
Q 1163 4600 1759 4600 
Q 2359 4600 2725 4251 
Q 3091 3903 3091 3403 
Q 3091 3084 2923 2848 
Q 2756 2613 2416 2484 
Q 2838 2347 3058 2040 
Q 3278 1734 3278 1309 
Q 3278 722 2862 322 
Q 2447 -78 1769 -78 
Q 1091 -78 675 323 
Q 259 725 259 1325 
Q 259 1772 486 2073 
Q 713 2375 1131 2484 
z
M 1019 3438 
Q 1019 3113 1228 2906 
Q 1438 2700 1772 2700 
Q 2097 2700 2305 2904 
Q 2513 3109 2513 3406 
Q 2513 3716 2298 3927 
Q 2084 4138 1766 4138 
Q 1444 4138 1231 3931 
Q 1019 3725 1019 3438 
z
M 838 1322 
Q 838 1081 952 856 
Q 1066 631 1291 507 
Q 1516 384 1775 384 
Q 2178 384 2440 643 
Q 2703 903 2703 1303 
Q 2703 1709 2433 1975 
Q 2163 2241 1756 2241 
Q 1359 2241 1098 1978 
Q 838 1716 838 1322 
z
" transform="scale(0.015625)"/>
       </defs>
       <use xlink:href="#ArialMT-2212"/>
       <use xlink:href="#ArialMT-30" transform="translate(58.398438 0)"/>
       <use xlink:href="#ArialMT-2e" transform="translate(114.013672 0)"/>
       <use xlink:href="#ArialMT-31" transform="translate(141.796875 0)"/>
       <use xlink:href="#ArialMT-38" transform="translate(197.412109 0)"/>
       <use xlink:href="#ArialMT-30" transform="translate(253.027344 0)"/>
      </g>
     </g>
    </g>
    <g id="ytick_3">
     <g id="line2d_30">
      <g>
       <use xlink:href="#m0af101e677" x="296.029134" y="147.712727" style="stroke: #000000; stroke-width: 0.3"/>
      </g>
     </g>
     <g id="text_18">
      <!-- 0.155 -->
      <g transform="translate(299.529134 150.575852) scale(0.08 -0.08)">
       <use xlink:href="#ArialMT-2212"/>
       <use xlink:href="#ArialMT-30" transform="translate(58.398438 0)"/>
       <use xlink:href="#ArialMT-2e" transform="translate(114.013672 0)"/>
       <use xlink:href="#ArialMT-31" transform="translate(141.796875 0)"/>
       <use xlink:href="#ArialMT-35" transform="translate(197.412109 0)"/>
       <use xlink:href="#ArialMT-35" transform="translate(253.027344 0)"/>
      </g>
     </g>
    </g>
    <g id="ytick_4">
     <g id="line2d_31">
      <g>
       <use xlink:href="#m0af101e677" x="296.029134" y="129.254569" style="stroke: #000000; stroke-width: 0.3"/>
      </g>
     </g>
     <g id="text_19">
      <!-- 0.130 -->
      <g transform="translate(299.529134 132.117694) scale(0.08 -0.08)">
       <defs>
        <path id="ArialMT-33" d="M 269 1209 
L 831 1284 
Q 928 806 1161 595 
Q 1394 384 1728 384 
Q 2125 384 2398 659 
Q 2672 934 2672 1341 
Q 2672 1728 2419 1979 
Q 2166 2231 1775 2231 
Q 1616 2231 1378 2169 
L 1441 2663 
Q 1497 2656 1531 2656 
Q 1891 2656 2178 2843 
Q 2466 3031 2466 3422 
Q 2466 3731 2256 3934 
Q 2047 4138 1716 4138 
Q 1388 4138 1169 3931 
Q 950 3725 888 3313 
L 325 3413 
Q 428 3978 793 4289 
Q 1159 4600 1703 4600 
Q 2078 4600 2393 4439 
Q 2709 4278 2876 4000 
Q 3044 3722 3044 3409 
Q 3044 3113 2884 2869 
Q 2725 2625 2413 2481 
Q 2819 2388 3044 2092 
Q 3269 1797 3269 1353 
Q 3269 753 2831 336 
Q 2394 -81 1725 -81 
Q 1122 -81 723 278 
Q 325 638 269 1209 
z
" transform="scale(0.015625)"/>
       </defs>
       <use xlink:href="#ArialMT-2212"/>
       <use xlink:href="#ArialMT-30" transform="translate(58.398438 0)"/>
       <use xlink:href="#ArialMT-2e" transform="translate(114.013672 0)"/>
       <use xlink:href="#ArialMT-31" transform="translate(141.796875 0)"/>
       <use xlink:href="#ArialMT-33" transform="translate(197.412109 0)"/>
       <use xlink:href="#ArialMT-30" transform="translate(253.027344 0)"/>
      </g>
     </g>
    </g>
    <g id="ytick_5">
     <g id="line2d_32">
      <g>
       <use xlink:href="#m0af101e677" x="296.029134" y="110.796411" style="stroke: #000000; stroke-width: 0.3"/>
      </g>
     </g>
     <g id="text_20">
      <!-- 0.105 -->
      <g transform="translate(299.529134 113.659536) scale(0.08 -0.08)">
       <use xlink:href="#ArialMT-2212"/>
       <use xlink:href="#ArialMT-30" transform="translate(58.398438 0)"/>
       <use xlink:href="#ArialMT-2e" transform="translate(114.013672 0)"/>
       <use xlink:href="#ArialMT-31" transform="translate(141.796875 0)"/>
       <use xlink:href="#ArialMT-30" transform="translate(197.412109 0)"/>
       <use xlink:href="#ArialMT-35" transform="translate(253.027344 0)"/>
      </g>
     </g>
    </g>
    <g id="ytick_6">
     <g id="line2d_33">
      <g>
       <use xlink:href="#m0af101e677" x="296.029134" y="92.338253" style="stroke: #000000; stroke-width: 0.3"/>
      </g>
     </g>
     <g id="text_21">
      <!-- 0.080 -->
      <g transform="translate(299.529134 95.201378) scale(0.08 -0.08)">
       <use xlink:href="#ArialMT-2212"/>
       <use xlink:href="#ArialMT-30" transform="translate(58.398438 0)"/>
       <use xlink:href="#ArialMT-2e" transform="translate(114.013672 0)"/>
       <use xlink:href="#ArialMT-30" transform="translate(141.796875 0)"/>
       <use xlink:href="#ArialMT-38" transform="translate(197.412109 0)"/>
       <use xlink:href="#ArialMT-30" transform="translate(253.027344 0)"/>
      </g>
     </g>
    </g>
    <g id="ytick_7">
     <g id="line2d_34">
      <g>
       <use xlink:href="#m0af101e677" x="296.029134" y="73.880095" style="stroke: #000000; stroke-width: 0.3"/>
      </g>
     </g>
     <g id="text_22">
      <!-- 0.055 -->
      <g transform="translate(299.529134 76.74322) scale(0.08 -0.08)">
       <use xlink:href="#ArialMT-2212"/>
       <use xlink:href="#ArialMT-30" transform="translate(58.398438 0)"/>
       <use xlink:href="#ArialMT-2e" transform="translate(114.013672 0)"/>
       <use xlink:href="#ArialMT-30" transform="translate(141.796875 0)"/>
       <use xlink:href="#ArialMT-35" transform="translate(197.412109 0)"/>
       <use xlink:href="#ArialMT-35" transform="translate(253.027344 0)"/>
      </g>
     </g>
    </g>
    <g id="ytick_8">
     <g id="line2d_35">
      <g>
       <use xlink:href="#m0af101e677" x="296.029134" y="55.421937" style="stroke: #000000; stroke-width: 0.3"/>
      </g>
     </g>
     <g id="text_23">
      <!-- 0.030 -->
      <g transform="translate(299.529134 58.285062) scale(0.08 -0.08)">
       <use xlink:href="#ArialMT-2212"/>
       <use xlink:href="#ArialMT-30" transform="translate(58.398438 0)"/>
       <use xlink:href="#ArialMT-2e" transform="translate(114.013672 0)"/>
       <use xlink:href="#ArialMT-30" transform="translate(141.796875 0)"/>
       <use xlink:href="#ArialMT-33" transform="translate(197.412109 0)"/>
       <use xlink:href="#ArialMT-30" transform="translate(253.027344 0)"/>
      </g>
     </g>
    </g>
    <g id="ytick_9">
     <g id="line2d_36">
      <g>
       <use xlink:href="#m0af101e677" x="296.029134" y="36.96378" style="stroke: #000000; stroke-width: 0.3"/>
      </g>
     </g>
     <g id="text_24">
      <!-- 0.005 -->
      <g transform="translate(299.529134 39.826905) scale(0.08 -0.08)">
       <use xlink:href="#ArialMT-2212"/>
       <use xlink:href="#ArialMT-30" transform="translate(58.398438 0)"/>
       <use xlink:href="#ArialMT-2e" transform="translate(114.013672 0)"/>
       <use xlink:href="#ArialMT-30" transform="translate(141.796875 0)"/>
       <use xlink:href="#ArialMT-30" transform="translate(197.412109 0)"/>
       <use xlink:href="#ArialMT-35" transform="translate(253.027344 0)"/>
      </g>
     </g>
    </g>
    <g id="text_25">
     <!-- Formation Energy (eV/atom) -->
     <g transform="translate(335.498821 179.408077) rotate(-90) scale(0.1 -0.1)">
      <defs>
       <path id="ArialMT-46" d="M 525 0 
L 525 4581 
L 3616 4581 
L 3616 4041 
L 1131 4041 
L 1131 2622 
L 3281 2622 
L 3281 2081 
L 1131 2081 
L 1131 0 
L 525 0 
z
" transform="scale(0.015625)"/>
       <path id="ArialMT-6f" d="M 213 1659 
Q 213 2581 725 3025 
Q 1153 3394 1769 3394 
Q 2453 3394 2887 2945 
Q 3322 2497 3322 1706 
Q 3322 1066 3130 698 
Q 2938 331 2570 128 
Q 2203 -75 1769 -75 
Q 1072 -75 642 372 
Q 213 819 213 1659 
z
M 791 1659 
Q 791 1022 1069 705 
Q 1347 388 1769 388 
Q 2188 388 2466 706 
Q 2744 1025 2744 1678 
Q 2744 2294 2464 2611 
Q 2184 2928 1769 2928 
Q 1347 2928 1069 2612 
Q 791 2297 791 1659 
z
" transform="scale(0.015625)"/>
       <path id="ArialMT-72" d="M 416 0 
L 416 3319 
L 922 3319 
L 922 2816 
Q 1116 3169 1280 3281 
Q 1444 3394 1641 3394 
Q 1925 3394 2219 3213 
L 2025 2691 
Q 1819 2813 1613 2813 
Q 1428 2813 1281 2702 
Q 1134 2591 1072 2394 
Q 978 2094 978 1738 
L 978 0 
L 416 0 
z
" transform="scale(0.015625)"/>
       <path id="ArialMT-6d" d="M 422 0 
L 422 3319 
L 925 3319 
L 925 2853 
Q 1081 3097 1340 3245 
Q 1600 3394 1931 3394 
Q 2300 3394 2536 3241 
Q 2772 3088 2869 2813 
Q 3263 3394 3894 3394 
Q 4388 3394 4653 3120 
Q 4919 2847 4919 2278 
L 4919 0 
L 4359 0 
L 4359 2091 
Q 4359 2428 4304 2576 
Q 4250 2725 4106 2815 
Q 3963 2906 3769 2906 
Q 3419 2906 3187 2673 
Q 2956 2441 2956 1928 
L 2956 0 
L 2394 0 
L 2394 2156 
Q 2394 2531 2256 2718 
Q 2119 2906 1806 2906 
Q 1569 2906 1367 2781 
Q 1166 2656 1075 2415 
Q 984 2175 984 1722 
L 984 0 
L 422 0 
z
" transform="scale(0.015625)"/>
       <path id="ArialMT-61" d="M 2588 409 
Q 2275 144 1986 34 
Q 1697 -75 1366 -75 
Q 819 -75 525 192 
Q 231 459 231 875 
Q 231 1119 342 1320 
Q 453 1522 633 1644 
Q 813 1766 1038 1828 
Q 1203 1872 1538 1913 
Q 2219 1994 2541 2106 
Q 2544 2222 2544 2253 
Q 2544 2597 2384 2738 
Q 2169 2928 1744 2928 
Q 1347 2928 1158 2789 
Q 969 2650 878 2297 
L 328 2372 
Q 403 2725 575 2942 
Q 747 3159 1072 3276 
Q 1397 3394 1825 3394 
Q 2250 3394 2515 3294 
Q 2781 3194 2906 3042 
Q 3031 2891 3081 2659 
Q 3109 2516 3109 2141 
L 3109 1391 
Q 3109 606 3145 398 
Q 3181 191 3288 0 
L 2700 0 
Q 2613 175 2588 409 
z
M 2541 1666 
Q 2234 1541 1622 1453 
Q 1275 1403 1131 1340 
Q 988 1278 909 1158 
Q 831 1038 831 891 
Q 831 666 1001 516 
Q 1172 366 1500 366 
Q 1825 366 2078 508 
Q 2331 650 2450 897 
Q 2541 1088 2541 1459 
L 2541 1666 
z
" transform="scale(0.015625)"/>
       <path id="ArialMT-74" d="M 1650 503 
L 1731 6 
Q 1494 -44 1306 -44 
Q 1000 -44 831 53 
Q 663 150 594 308 
Q 525 466 525 972 
L 525 2881 
L 113 2881 
L 113 3319 
L 525 3319 
L 525 4141 
L 1084 4478 
L 1084 3319 
L 1650 3319 
L 1650 2881 
L 1084 2881 
L 1084 941 
Q 1084 700 1114 631 
Q 1144 563 1211 522 
Q 1278 481 1403 481 
Q 1497 481 1650 503 
z
" transform="scale(0.015625)"/>
       <path id="ArialMT-69" d="M 425 3934 
L 425 4581 
L 988 4581 
L 988 3934 
L 425 3934 
z
M 425 0 
L 425 3319 
L 988 3319 
L 988 0 
L 425 0 
z
" transform="scale(0.015625)"/>
       <path id="ArialMT-6e" d="M 422 0 
L 422 3319 
L 928 3319 
L 928 2847 
Q 1294 3394 1984 3394 
Q 2284 3394 2536 3286 
Q 2788 3178 2913 3003 
Q 3038 2828 3088 2588 
Q 3119 2431 3119 2041 
L 3119 0 
L 2556 0 
L 2556 2019 
Q 2556 2363 2490 2533 
Q 2425 2703 2258 2804 
Q 2091 2906 1866 2906 
Q 1506 2906 1245 2678 
Q 984 2450 984 1813 
L 984 0 
L 422 0 
z
" transform="scale(0.015625)"/>
       <path id="ArialMT-20" transform="scale(0.015625)"/>
       <path id="ArialMT-45" d="M 506 0 
L 506 4581 
L 3819 4581 
L 3819 4041 
L 1113 4041 
L 1113 2638 
L 3647 2638 
L 3647 2100 
L 1113 2100 
L 1113 541 
L 3925 541 
L 3925 0 
L 506 0 
z
" transform="scale(0.015625)"/>
       <path id="ArialMT-65" d="M 2694 1069 
L 3275 997 
Q 3138 488 2766 206 
Q 2394 -75 1816 -75 
Q 1088 -75 661 373 
Q 234 822 234 1631 
Q 234 2469 665 2931 
Q 1097 3394 1784 3394 
Q 2450 3394 2872 2941 
Q 3294 2488 3294 1666 
Q 3294 1616 3291 1516 
L 816 1516 
Q 847 969 1125 678 
Q 1403 388 1819 388 
Q 2128 388 2347 550 
Q 2566 713 2694 1069 
z
M 847 1978 
L 2700 1978 
Q 2663 2397 2488 2606 
Q 2219 2931 1791 2931 
Q 1403 2931 1139 2672 
Q 875 2413 847 1978 
z
" transform="scale(0.015625)"/>
       <path id="ArialMT-67" d="M 319 -275 
L 866 -356 
Q 900 -609 1056 -725 
Q 1266 -881 1628 -881 
Q 2019 -881 2231 -725 
Q 2444 -569 2519 -288 
Q 2563 -116 2559 434 
Q 2191 0 1641 0 
Q 956 0 581 494 
Q 206 988 206 1678 
Q 206 2153 378 2554 
Q 550 2956 876 3175 
Q 1203 3394 1644 3394 
Q 2231 3394 2613 2919 
L 2613 3319 
L 3131 3319 
L 3131 450 
Q 3131 -325 2973 -648 
Q 2816 -972 2473 -1159 
Q 2131 -1347 1631 -1347 
Q 1038 -1347 672 -1080 
Q 306 -813 319 -275 
z
M 784 1719 
Q 784 1066 1043 766 
Q 1303 466 1694 466 
Q 2081 466 2343 764 
Q 2606 1063 2606 1700 
Q 2606 2309 2336 2618 
Q 2066 2928 1684 2928 
Q 1309 2928 1046 2623 
Q 784 2319 784 1719 
z
" transform="scale(0.015625)"/>
       <path id="ArialMT-79" d="M 397 -1278 
L 334 -750 
Q 519 -800 656 -800 
Q 844 -800 956 -737 
Q 1069 -675 1141 -563 
Q 1194 -478 1313 -144 
Q 1328 -97 1363 -6 
L 103 3319 
L 709 3319 
L 1400 1397 
Q 1534 1031 1641 628 
Q 1738 1016 1872 1384 
L 2581 3319 
L 3144 3319 
L 1881 -56 
Q 1678 -603 1566 -809 
Q 1416 -1088 1222 -1217 
Q 1028 -1347 759 -1347 
Q 597 -1347 397 -1278 
z
" transform="scale(0.015625)"/>
       <path id="ArialMT-28" d="M 1497 -1347 
Q 1031 -759 709 28 
Q 388 816 388 1659 
Q 388 2403 628 3084 
Q 909 3875 1497 4659 
L 1900 4659 
Q 1522 4009 1400 3731 
Q 1209 3300 1100 2831 
Q 966 2247 966 1656 
Q 966 153 1900 -1347 
L 1497 -1347 
z
" transform="scale(0.015625)"/>
       <path id="ArialMT-56" d="M 1803 0 
L 28 4581 
L 684 4581 
L 1875 1253 
Q 2019 853 2116 503 
Q 2222 878 2363 1253 
L 3600 4581 
L 4219 4581 
L 2425 0 
L 1803 0 
z
" transform="scale(0.015625)"/>
       <path id="ArialMT-2f" d="M 0 -78 
L 1328 4659 
L 1778 4659 
L 453 -78 
L 0 -78 
z
" transform="scale(0.015625)"/>
       <path id="ArialMT-29" d="M 791 -1347 
L 388 -1347 
Q 1322 153 1322 1656 
Q 1322 2244 1188 2822 
Q 1081 3291 891 3722 
Q 769 4003 388 4659 
L 791 4659 
Q 1378 3875 1659 3084 
Q 1900 2403 1900 1659 
Q 1900 816 1576 28 
Q 1253 -759 791 -1347 
z
" transform="scale(0.015625)"/>
      </defs>
      <use xlink:href="#ArialMT-46"/>
      <use xlink:href="#ArialMT-6f" transform="translate(61.083984 0)"/>
      <use xlink:href="#ArialMT-72" transform="translate(116.699219 0)"/>
      <use xlink:href="#ArialMT-6d" transform="translate(150 0)"/>
      <use xlink:href="#ArialMT-61" transform="translate(233.300781 0)"/>
      <use xlink:href="#ArialMT-74" transform="translate(288.916016 0)"/>
      <use xlink:href="#ArialMT-69" transform="translate(316.699219 0)"/>
      <use xlink:href="#ArialMT-6f" transform="translate(338.916016 0)"/>
      <use xlink:href="#ArialMT-6e" transform="translate(394.53125 0)"/>
      <use xlink:href="#ArialMT-20" transform="translate(450.146484 0)"/>
      <use xlink:href="#ArialMT-45" transform="translate(477.929688 0)"/>
      <use xlink:href="#ArialMT-6e" transform="translate(544.628906 0)"/>
      <use xlink:href="#ArialMT-65" transform="translate(600.244141 0)"/>
      <use xlink:href="#ArialMT-72" transform="translate(655.859375 0)"/>
      <use xlink:href="#ArialMT-67" transform="translate(689.160156 0)"/>
      <use xlink:href="#ArialMT-79" transform="translate(744.775391 0)"/>
      <use xlink:href="#ArialMT-20" transform="translate(794.775391 0)"/>
      <use xlink:href="#ArialMT-28" transform="translate(822.558594 0)"/>
      <use xlink:href="#ArialMT-65" transform="translate(855.859375 0)"/>
      <use xlink:href="#ArialMT-56" transform="translate(911.474609 0)"/>
      <use xlink:href="#ArialMT-2f" transform="translate(978.173828 0)"/>
      <use xlink:href="#ArialMT-61" transform="translate(1005.957031 0)"/>
      <use xlink:href="#ArialMT-74" transform="translate(1061.572266 0)"/>
      <use xlink:href="#ArialMT-6f" transform="translate(1089.355469 0)"/>
      <use xlink:href="#ArialMT-6d" transform="translate(1144.970703 0)"/>
      <use xlink:href="#ArialMT-29" transform="translate(1228.271484 0)"/>
     </g>
    </g>
   </g>
   <g id="LineCollection_1"/>
   <g id="patch_6">
    <path d="M 287.298425 195.703937 
L 291.66378 203.640945 
L 296.029134 195.703937 
L 296.029134 36.96378 
L 291.66378 29.026772 
L 287.298425 36.96378 
L 287.298425 195.703937 
z
" style="fill: none; stroke: #000000; stroke-width: 0.8; stroke-linejoin: miter; stroke-linecap: square"/>
   </g>
  </g>
 </g>
 <defs>
  <clipPath id="p7e1f2098ac">
   <rect x="7.2" y="7.2" width="263.622047" height="218.267717"/>
  </clipPath>
  <clipPath id="pb184efb855">
   <rect x="287.298425" y="36.96378" width="8.730709" height="158.740157"/>
  </clipPath>
 </defs>
</svg>
