<?xml version="1.0" encoding="utf-8" standalone="no"?>
<!DOCTYPE svg PUBLIC "-//W3C//DTD SVG 1.1//EN"
  "http://www.w3.org/Graphics/SVG/1.1/DTD/svg11.dtd">
<svg xmlns:xlink="http://www.w3.org/1999/xlink" width="344.803509pt" height="232.667717pt" viewBox="0 0 344.803509 232.667717" xmlns="http://www.w3.org/2000/svg" version="1.1">
 <metadata>
  <rdf:RDF xmlns:dc="http://purl.org/dc/elements/1.1/" xmlns:cc="http://creativecommons.org/ns#" xmlns:rdf="http://www.w3.org/1999/02/22-rdf-syntax-ns#">
   <cc:Work>
    <dc:type rdf:resource="http://purl.org/dc/dcmitype/StillImage"/>
    <dc:date>2026-01-27T21:37:26.478795</dc:date>
    <dc:format>image/svg+xml</dc:format>
    <dc:creator>
     <cc:Agent>
      <dc:title>Matplotlib v3.10.8, https://matplotlib.org/</dc:title>
     </cc:Agent>
    </dc:creator>
   </cc:Work>
  </rdf:RDF>
 </metadata>
 <defs>
  <style type="text/css">*{stroke-linejoin: round; stroke-linecap: butt}</style>
 </defs>
 <g id="figure_1">
  <g id="patch_1">
   <path d="M 0 232.667717 
L 344.803509 232.667717 
L 344.803509 0 
L 0 0 
L 0 232.667717 
z
" style="fill: none"/>
  </g>
  <g id="axes_1">
   <g id="patch_2">
    <path d="M 7.2 225.467717 
L 270.822047 225.467717 
L 270.822047 7.2 
L 7.2 7.2 
L 7.2 225.467717 
z
" style="fill: none"/>
   </g>
   <g id="TriContourSet_1">
    <path d="M 195.215486 214.554331 
L 195.170901 213.923214 
L 194.993118 213.080995 
L 194.656893 212.672337 
L 183.154517 214.554331 
L 194.930852 214.554331 
z
" clip-path="url(#p7f12d9e908)" style="fill: #440154; fill-opacity: 0.7"/>
    <path d="M 183.154517 214.554331 
L 194.656893 212.672337 
L 194.993118 213.080995 
L 195.170901 213.923214 
L 195.215486 214.554331 
L 196.93903 214.554331 
L 196.62447 210.10161 
L 195.370156 204.159502 
L 192.99799 201.276289 
L 140.323846 209.89472 
L 139.837781 210.641774 
L 138.005108 214.554331 
L 139.011024 214.554331 
z
" clip-path="url(#p7f12d9e908)" style="fill: #450457; fill-opacity: 0.7"/>
    <path d="M 138.005108 214.554331 
L 139.837781 210.641774 
L 140.323846 209.89472 
L 192.99799 201.276289 
L 195.370156 204.159502 
L 196.62447 210.10161 
L 196.93903 214.554331 
L 198.662574 214.554331 
L 198.07804 206.280006 
L 195.747194 195.238009 
L 191.339086 189.880242 
L 143.769961 197.663401 
L 142.007992 200.371447 
L 135.364612 214.554331 
z
" clip-path="url(#p7f12d9e908)" style="fill: #470d60; fill-opacity: 0.7"/>
    <path d="M 135.364612 214.554331 
L 142.007992 200.371447 
L 143.769961 197.663401 
L 191.339086 189.880242 
L 195.747194 195.238009 
L 198.07804 206.280006 
L 198.662574 214.554331 
L 200.386118 214.554331 
L 199.53161 202.458402 
L 196.124232 186.316515 
L 189.680183 178.484195 
L 147.216075 185.432081 
L 144.178203 190.101119 
L 132.724117 214.554331 
z
" clip-path="url(#p7f12d9e908)" style="fill: #481668; fill-opacity: 0.7"/>
    <path d="M 132.724117 214.554331 
L 144.178203 190.101119 
L 147.216075 185.432081 
L 189.680183 178.484195 
L 196.124232 186.316515 
L 199.53161 202.458402 
L 200.386118 214.554331 
L 202.109663 214.554331 
L 200.985179 198.636799 
L 196.50127 177.395022 
L 188.02128 167.088148 
L 150.66219 173.200762 
L 146.348414 179.830792 
L 130.083622 214.554331 
z
" clip-path="url(#p7f12d9e908)" style="fill: #481c6e; fill-opacity: 0.7"/>
    <path d="M 130.083622 214.554331 
L 146.348414 179.830792 
L 150.66219 173.200762 
L 188.02128 167.088148 
L 196.50127 177.395022 
L 200.985179 198.636799 
L 202.109663 214.554331 
L 203.833207 214.554331 
L 202.438749 194.815195 
L 196.878308 168.473528 
L 186.362377 155.6921 
L 154.108304 160.969443 
L 148.518625 169.560464 
L 127.443127 214.554331 
z
" clip-path="url(#p7f12d9e908)" style="fill: #482475; fill-opacity: 0.7"/>
    <path d="M 127.443127 214.554331 
L 148.518625 169.560464 
L 154.108304 160.969443 
L 186.362377 155.6921 
L 196.878308 168.473528 
L 202.438749 194.815195 
L 203.833207 214.554331 
L 205.556751 214.554331 
L 203.892318 190.993591 
L 197.255346 159.552035 
L 184.703473 144.296053 
L 157.554418 148.738123 
L 150.688836 159.290136 
L 124.802631 214.554331 
z
" clip-path="url(#p7f12d9e908)" style="fill: #472c7a; fill-opacity: 0.7"/>
    <path d="M 124.802631 214.554331 
L 150.688836 159.290136 
L 157.554418 148.738123 
L 184.703473 144.296053 
L 197.255346 159.552035 
L 203.892318 190.993591 
L 205.556751 214.554331 
L 207.280295 214.554331 
L 205.345888 187.171987 
L 197.632384 150.630541 
L 183.04457 132.900006 
L 161.000533 136.506804 
L 152.859047 149.019809 
L 122.162136 214.554331 
z
" clip-path="url(#p7f12d9e908)" style="fill: #46327e; fill-opacity: 0.7"/>
    <path d="M 122.162136 214.554331 
L 152.859047 149.019809 
L 161.000533 136.506804 
L 183.04457 132.900006 
L 197.632384 150.630541 
L 205.345888 187.171987 
L 207.280295 214.554331 
L 209.00384 214.554331 
L 206.799458 183.350383 
L 198.009422 141.709048 
L 181.385667 121.503959 
L 164.446647 124.275485 
L 155.029258 138.749481 
L 119.521641 214.554331 
z
" clip-path="url(#p7f12d9e908)" style="fill: #443983; fill-opacity: 0.7"/>
    <path d="M 119.521641 214.554331 
L 155.029258 138.749481 
L 164.446647 124.275485 
L 181.385667 121.503959 
L 198.009422 141.709048 
L 206.799458 183.350383 
L 209.00384 214.554331 
L 210.727384 214.554331 
L 208.253027 179.528779 
L 198.38646 132.787555 
L 179.726763 110.107911 
L 167.892762 112.044165 
L 157.199469 128.479154 
L 116.881145 214.554331 
z
" clip-path="url(#p7f12d9e908)" style="fill: #424086; fill-opacity: 0.7"/>
    <path d="M 116.881145 214.554331 
L 157.199469 128.479154 
L 167.892762 112.044165 
L 179.726763 110.107911 
L 198.38646 132.787555 
L 208.253027 179.528779 
L 210.727384 214.554331 
L 212.450928 214.554331 
L 209.706597 175.707175 
L 198.763498 123.866061 
L 178.06786 98.711864 
L 171.338876 99.812846 
L 159.36968 118.208826 
L 114.24065 214.554331 
z
" clip-path="url(#p7f12d9e908)" style="fill: #3f4788; fill-opacity: 0.7"/>
    <path d="M 184.123009 96.691745 
L 176.408957 87.315817 
L 174.784991 87.581527 
L 161.539891 107.938499 
L 111.600155 214.554331 
L 114.24065 214.554331 
L 159.36968 118.208826 
L 171.338876 99.812846 
L 178.06786 98.711864 
L 198.763498 123.866061 
L 209.706597 175.707175 
L 212.450928 214.554331 
L 214.174473 214.554331 
L 211.160166 171.885571 
L 200.86114 123.095642 
L 198.925125 120.041637 
z
" clip-path="url(#p7f12d9e908)" style="fill: #3d4d8a; fill-opacity: 0.7"/>
    <path d="M 200.86114 123.095642 
L 211.160166 171.885571 
L 214.174473 214.554331 
L 215.898017 214.554331 
L 212.613736 168.063968 
L 204.249782 128.441123 
z
M 174.362886 81.295443 
L 163.710102 97.668171 
L 108.95966 214.554331 
L 111.600155 214.554331 
L 161.539891 107.938499 
L 174.784991 87.581527 
L 176.408957 87.315817 
L 184.123009 96.691745 
L 175.88124 83.690601 
z
" clip-path="url(#p7f12d9e908)" style="fill: #3a538b; fill-opacity: 0.7"/>
    <path d="M 204.249782 128.441123 
L 212.613736 168.063968 
L 215.898017 214.554331 
L 217.621561 214.554331 
L 214.067305 164.242364 
L 207.638424 133.786604 
z
M 172.136195 77.782905 
L 165.880313 87.397844 
L 106.319164 214.554331 
L 108.95966 214.554331 
L 163.710102 97.668171 
L 174.362886 81.295443 
z
" clip-path="url(#p7f12d9e908)" style="fill: #375a8c; fill-opacity: 0.7"/>
    <path d="M 207.638424 133.786604 
L 214.067305 164.242364 
L 217.621561 214.554331 
L 219.345105 214.554331 
L 215.520875 160.42076 
L 211.027066 139.132085 
z
M 169.909504 74.270368 
L 168.050524 77.127516 
L 103.678669 214.554331 
L 106.319164 214.554331 
L 165.880313 87.397844 
L 172.136195 77.782905 
z
" clip-path="url(#p7f12d9e908)" style="fill: #355f8d; fill-opacity: 0.7"/>
    <path d="M 211.027066 139.132085 
L 215.520875 160.42076 
L 219.345105 214.554331 
L 221.06865 214.554331 
L 216.974445 156.599156 
L 214.415708 144.477566 
z
M 168.420483 71.921481 
L 166.230117 75.376717 
L 101.038174 214.554331 
L 103.678669 214.554331 
L 168.050524 77.127516 
L 169.909504 74.270368 
L 168.968074 72.78529 
z
" clip-path="url(#p7f12d9e908)" style="fill: #32658e; fill-opacity: 0.7"/>
    <path d="M 214.415708 144.477566 
L 216.974445 156.599156 
L 221.06865 214.554331 
L 222.792194 214.554331 
L 218.428014 152.777552 
L 217.80435 149.823047 
z
M 167.471791 70.424948 
L 161.486656 79.866318 
L 98.397679 214.554331 
L 101.038174 214.554331 
L 166.230117 75.376717 
L 168.420483 71.921481 
z
" clip-path="url(#p7f12d9e908)" style="fill: #2f6b8e; fill-opacity: 0.7"/>
    <path d="M 217.80435 149.823047 
L 218.428014 152.777552 
L 222.792194 214.554331 
L 224.515738 214.554331 
L 224.207647 210.193177 
L 220.000297 154.779559 
L 219.808604 152.984698 
L 218.896492 151.545868 
z
M 166.523098 68.928414 
L 156.743195 84.355918 
L 95.757183 214.554331 
L 98.397679 214.554331 
L 161.486656 79.866318 
L 167.471791 70.424948 
z
" clip-path="url(#p7f12d9e908)" style="fill: #2d708e; fill-opacity: 0.7"/>
    <path d="M 219.808604 152.984698 
L 220.000297 154.779559 
L 224.207647 210.193177 
L 224.515738 214.554331 
L 224.602597 214.554331 
L 225.805227 214.554331 
L 221.629035 159.55109 
L 221.154488 155.107788 
z
M 165.574406 67.431881 
L 151.999733 88.845519 
L 93.116688 214.554331 
L 95.757183 214.554331 
L 156.743195 84.355918 
L 166.523098 68.928414 
z
" clip-path="url(#p7f12d9e908)" style="fill: #2b758e; fill-opacity: 0.7"/>
    <path d="M 221.154488 155.107788 
L 221.629035 159.55109 
L 225.805227 214.554331 
L 227.071681 214.554331 
L 223.257774 164.322622 
L 222.500372 157.230879 
z
M 164.625714 65.935347 
L 147.256272 93.335119 
L 90.476193 214.554331 
L 93.116688 214.554331 
L 151.999733 88.845519 
L 165.574406 67.431881 
z
" clip-path="url(#p7f12d9e908)" style="fill: #297b8e; fill-opacity: 0.7"/>
    <path d="M 222.500372 157.230879 
L 223.257774 164.322622 
L 227.071681 214.554331 
L 228.338135 214.554331 
L 224.886513 169.094153 
L 223.846255 159.35397 
z
M 163.677022 64.438814 
L 142.512811 97.82472 
L 87.835697 214.554331 
L 90.476193 214.554331 
L 147.256272 93.335119 
L 164.625714 65.935347 
z
" clip-path="url(#p7f12d9e908)" style="fill: #27808e; fill-opacity: 0.7"/>
    <path d="M 223.846255 159.35397 
L 224.886513 169.094153 
L 228.338135 214.554331 
L 229.604589 214.554331 
L 226.515251 173.865685 
L 225.192139 161.477061 
z
M 162.72833 62.94228 
L 137.76935 102.31432 
L 85.195202 214.554331 
L 87.835697 214.554331 
L 142.512811 97.82472 
L 163.677022 64.438814 
z
" clip-path="url(#p7f12d9e908)" style="fill: #25858e; fill-opacity: 0.7"/>
    <path d="M 225.192139 161.477061 
L 226.515251 173.865685 
L 229.604589 214.554331 
L 230.871043 214.554331 
L 228.14399 178.637216 
L 226.538022 163.600152 
z
M 161.779637 61.445747 
L 133.025889 106.80392 
L 82.554707 214.554331 
L 85.195202 214.554331 
L 137.76935 102.31432 
L 162.72833 62.94228 
z
" clip-path="url(#p7f12d9e908)" style="fill: #228b8d; fill-opacity: 0.7"/>
    <path d="M 226.538022 163.600152 
L 228.14399 178.637216 
L 230.871043 214.554331 
L 232.137497 214.554331 
L 229.772728 183.408747 
L 227.883906 165.723242 
z
M 160.830945 59.949213 
L 128.282428 111.293521 
L 79.914212 214.554331 
L 82.554707 214.554331 
L 133.025889 106.80392 
L 161.779637 61.445747 
z
" clip-path="url(#p7f12d9e908)" style="fill: #21918c; fill-opacity: 0.7"/>
    <path d="M 227.883906 165.723242 
L 229.772728 183.408747 
L 232.137497 214.554331 
L 233.403951 214.554331 
L 231.401467 188.180279 
L 229.229789 167.846333 
z
M 159.882253 58.45268 
L 123.538966 115.783121 
L 77.273716 214.554331 
L 79.914212 214.554331 
L 128.282428 111.293521 
L 160.830945 59.949213 
z
" clip-path="url(#p7f12d9e908)" style="fill: #1f958b; fill-opacity: 0.7"/>
    <path d="M 229.229789 167.846333 
L 231.401467 188.180279 
L 233.403951 214.554331 
L 234.670405 214.554331 
L 233.030205 192.95181 
L 230.575673 169.969424 
z
M 158.933561 56.956146 
L 118.795505 120.272722 
L 74.633221 214.554331 
L 77.273716 214.554331 
L 123.538966 115.783121 
L 159.882253 58.45268 
z
" clip-path="url(#p7f12d9e908)" style="fill: #1e9b8a; fill-opacity: 0.7"/>
    <path d="M 230.575673 169.969424 
L 233.030205 192.95181 
L 234.670405 214.554331 
L 235.936859 214.554331 
L 234.658944 197.723341 
L 231.921556 172.092515 
z
M 157.984868 55.459613 
L 114.052044 124.762322 
L 71.992726 214.554331 
L 74.633221 214.554331 
L 118.795505 120.272722 
L 158.933561 56.956146 
z
" clip-path="url(#p7f12d9e908)" style="fill: #1fa188; fill-opacity: 0.7"/>
    <path d="M 231.921556 172.092515 
L 234.658944 197.723341 
L 235.936859 214.554331 
L 237.203312 214.554331 
L 236.287683 202.494873 
L 233.26744 174.215606 
z
M 157.036176 53.963079 
L 109.308583 129.251923 
L 69.352231 214.554331 
L 71.992726 214.554331 
L 114.052044 124.762322 
L 157.984868 55.459613 
z
" clip-path="url(#p7f12d9e908)" style="fill: #21a585; fill-opacity: 0.7"/>
    <path d="M 233.26744 174.215606 
L 236.287683 202.494873 
L 237.203312 214.554331 
L 238.469766 214.554331 
L 237.916421 207.266404 
L 234.613323 176.338696 
z
M 156.087484 52.466546 
L 104.565122 133.741523 
L 66.711735 214.554331 
L 69.352231 214.554331 
L 109.308583 129.251923 
L 157.036176 53.963079 
z
" clip-path="url(#p7f12d9e908)" style="fill: #25ab82; fill-opacity: 0.7"/>
    <path d="M 234.613323 176.338696 
L 237.916421 207.266404 
L 238.469766 214.554331 
L 239.73622 214.554331 
L 239.54516 212.037936 
L 235.959207 178.461787 
z
M 155.138792 50.970012 
L 99.82166 138.231123 
L 64.07124 214.554331 
L 66.711735 214.554331 
L 104.565122 133.741523 
L 156.087484 52.466546 
z
" clip-path="url(#p7f12d9e908)" style="fill: #2ab07f; fill-opacity: 0.7"/>
    <path d="M 240.933048 214.554331 
L 237.30509 180.584878 
L 235.959207 178.461787 
L 239.54516 212.037936 
L 239.73622 214.554331 
L 240.404119 214.554331 
z
M 154.190099 49.473479 
L 95.078199 142.720724 
L 61.430745 214.554331 
L 64.07124 214.554331 
L 99.82166 138.231123 
L 155.138792 50.970012 
z
" clip-path="url(#p7f12d9e908)" style="fill: #31b57b; fill-opacity: 0.7"/>
    <path d="M 242.052185 214.554331 
L 238.650974 182.707969 
L 237.30509 180.584878 
L 240.933048 214.554331 
z
M 153.241407 47.976945 
L 90.334738 147.210324 
L 58.790249 214.554331 
L 61.430745 214.554331 
L 95.078199 142.720724 
L 154.190099 49.473479 
z
" clip-path="url(#p7f12d9e908)" style="fill: #3aba76; fill-opacity: 0.7"/>
    <path d="M 243.171321 214.554331 
L 239.996857 184.83106 
L 238.650974 182.707969 
L 242.052185 214.554331 
z
M 152.292715 46.480412 
L 85.591277 151.699925 
L 56.149754 214.554331 
L 58.790249 214.554331 
L 90.334738 147.210324 
L 153.241407 47.976945 
z
" clip-path="url(#p7f12d9e908)" style="fill: #44bf70; fill-opacity: 0.7"/>
    <path d="M 244.290457 214.554331 
L 241.342741 186.95415 
L 239.996857 184.83106 
L 243.171321 214.554331 
z
M 151.344023 44.983879 
L 80.847816 156.189525 
L 53.509259 214.554331 
L 56.149754 214.554331 
L 85.591277 151.699925 
L 152.292715 46.480412 
z
" clip-path="url(#p7f12d9e908)" style="fill: #4ec36b; fill-opacity: 0.7"/>
    <path d="M 245.409593 214.554331 
L 242.688625 189.077241 
L 241.342741 186.95415 
L 244.290457 214.554331 
z
M 150.39533 43.487345 
L 76.104355 160.679126 
L 50.868764 214.554331 
L 53.509259 214.554331 
L 80.847816 156.189525 
L 151.344023 44.983879 
z
" clip-path="url(#p7f12d9e908)" style="fill: #5ac864; fill-opacity: 0.7"/>
    <path d="M 246.528729 214.554331 
L 244.034508 191.200332 
L 242.688625 189.077241 
L 245.409593 214.554331 
z
M 149.446638 41.990812 
L 71.360893 165.168726 
L 48.228268 214.554331 
L 50.868764 214.554331 
L 76.104355 160.679126 
L 150.39533 43.487345 
z
" clip-path="url(#p7f12d9e908)" style="fill: #67cc5c; fill-opacity: 0.7"/>
    <path d="M 247.647865 214.554331 
L 245.380392 193.323423 
L 244.034508 191.200332 
L 246.528729 214.554331 
z
M 148.497946 40.494278 
L 66.617432 169.658326 
L 45.587773 214.554331 
L 48.228268 214.554331 
L 71.360893 165.168726 
L 149.446638 41.990812 
z
" clip-path="url(#p7f12d9e908)" style="fill: #73d056; fill-opacity: 0.7"/>
    <path d="M 248.767002 214.554331 
L 246.726275 195.446514 
L 245.380392 193.323423 
L 247.647865 214.554331 
z
M 147.549254 38.997745 
L 61.873971 174.147927 
L 42.947278 214.554331 
L 45.587773 214.554331 
L 66.617432 169.658326 
L 148.497946 40.494278 
z
" clip-path="url(#p7f12d9e908)" style="fill: #81d34d; fill-opacity: 0.7"/>
    <path d="M 249.886138 214.554331 
L 248.072159 197.569604 
L 246.726275 195.446514 
L 248.767002 214.554331 
z
M 146.600562 37.501211 
L 57.13051 178.637527 
L 40.306783 214.554331 
L 42.947278 214.554331 
L 61.873971 174.147927 
L 147.549254 38.997745 
z
" clip-path="url(#p7f12d9e908)" style="fill: #90d743; fill-opacity: 0.7"/>
    <path d="M 251.005274 214.554331 
L 249.418042 199.692695 
L 248.072159 197.569604 
L 249.886138 214.554331 
z
M 145.651869 36.004678 
L 52.387049 183.127128 
L 37.666287 214.554331 
L 40.306783 214.554331 
L 57.13051 178.637527 
L 146.600562 37.501211 
z
" clip-path="url(#p7f12d9e908)" style="fill: #a0da39; fill-opacity: 0.7"/>
    <path d="M 252.12441 214.554331 
L 250.763926 201.815786 
L 249.418042 199.692695 
L 251.005274 214.554331 
z
M 144.703177 34.508144 
L 47.643587 187.616728 
L 35.025792 214.554331 
L 37.666287 214.554331 
L 52.387049 183.127128 
L 145.651869 36.004678 
z
" clip-path="url(#p7f12d9e908)" style="fill: #addc30; fill-opacity: 0.7"/>
    <path d="M 253.243546 214.554331 
L 252.109809 203.938877 
L 250.763926 201.815786 
L 252.12441 214.554331 
z
M 143.754485 33.011611 
L 42.900126 192.106329 
L 32.385297 214.554331 
L 35.025792 214.554331 
L 47.643587 187.616728 
L 144.703177 34.508144 
z
" clip-path="url(#p7f12d9e908)" style="fill: #bddf26; fill-opacity: 0.7"/>
    <path d="M 254.362682 214.554331 
L 253.455693 206.061968 
L 252.109809 203.938877 
L 253.243546 214.554331 
z
M 142.805793 31.515077 
L 38.156665 196.595929 
L 29.744801 214.554331 
L 32.385297 214.554331 
L 42.900126 192.106329 
L 143.754485 33.011611 
z
" clip-path="url(#p7f12d9e908)" style="fill: #cde11d; fill-opacity: 0.7"/>
    <path d="M 255.481818 214.554331 
L 254.801576 208.185058 
L 253.455693 206.061968 
L 254.362682 214.554331 
z
M 141.8571 30.018544 
L 33.413204 201.085529 
L 27.104306 214.554331 
L 29.744801 214.554331 
L 38.156665 196.595929 
L 142.805793 31.515077 
z
" clip-path="url(#p7f12d9e908)" style="fill: #dae319; fill-opacity: 0.7"/>
    <path d="M 256.600955 214.554331 
L 256.14746 210.308149 
L 254.801576 208.185058 
L 255.481818 214.554331 
z
M 140.908408 28.52201 
L 28.669743 205.57513 
L 24.463811 214.554331 
L 27.104306 214.554331 
L 33.413204 201.085529 
L 141.8571 30.018544 
z
" clip-path="url(#p7f12d9e908)" style="fill: #eae51a; fill-opacity: 0.7"/>
    <path d="M 257.720091 214.554331 
L 257.493343 212.43124 
L 256.14746 210.308149 
L 256.600955 214.554331 
z
M 139.959716 27.025477 
L 23.926282 210.06473 
L 21.823316 214.554331 
L 24.463811 214.554331 
L 28.669743 205.57513 
L 140.908408 28.52201 
z
" clip-path="url(#p7f12d9e908)" style="fill: #f8e621; fill-opacity: 0.7"/>
    <path d="M 257.493343 212.43124 
L 257.720091 214.554331 
L 258.839227 214.554331 
z
M 21.823316 214.554331 
L 23.926282 210.06473 
L 139.959716 27.025477 
L 139.011024 25.528943 
L 19.18282 214.554331 
z
" clip-path="url(#p7f12d9e908)" style="fill: #fde725; fill-opacity: 0.7"/>
   </g>
   <g id="matplotlib.axis_1"/>
   <g id="matplotlib.axis_2"/>
   <g id="line2d_1">
    <path d="M 218.896492 151.545868 
L 240.404119 214.554331 
" clip-path="url(#p7f12d9e908)" style="fill: none; stroke: #555555; stroke-opacity: 0.9; stroke-width: 0.5; stroke-linecap: square"/>
   </g>
   <g id="line2d_2">
    <path d="M 218.896492 151.545868 
L 194.930852 214.554331 
" clip-path="url(#p7f12d9e908)" style="fill: none; stroke: #555555; stroke-opacity: 0.9; stroke-width: 0.5; stroke-linecap: square"/>
   </g>
   <g id="line2d_3">
    <path d="M 139.011024 25.528943 
L 19.18282 214.554331 
" clip-path="url(#p7f12d9e908)" style="fill: none; stroke: #555555; stroke-opacity: 0.9; stroke-width: 0.5; stroke-linecap: square"/>
   </g>
   <g id="line2d_4">
    <path d="M 168.968074 72.78529 
L 175.88124 83.690601 
" clip-path="url(#p7f12d9e908)" style="fill: none; stroke: #555555; stroke-opacity: 0.9; stroke-width: 0.5; stroke-linecap: square"/>
   </g>
   <g id="line2d_5">
    <path d="M 175.88124 83.690601 
L 139.011024 214.554331 
" clip-path="url(#p7f12d9e908)" style="fill: none; stroke: #555555; stroke-opacity: 0.9; stroke-width: 0.5; stroke-linecap: square"/>
   </g>
   <g id="line2d_6">
    <path d="M 218.896492 151.545868 
L 258.839227 214.554331 
" clip-path="url(#p7f12d9e908)" style="fill: none; stroke: #555555; stroke-opacity: 0.9; stroke-width: 0.5; stroke-linecap: square"/>
   </g>
   <g id="line2d_7">
    <path d="M 224.602597 214.554331 
L 240.404119 214.554331 
" clip-path="url(#p7f12d9e908)" style="fill: none; stroke: #555555; stroke-opacity: 0.9; stroke-width: 0.5; stroke-linecap: square"/>
   </g>
   <g id="line2d_8">
    <path d="M 198.925125 120.041637 
L 194.930852 214.554331 
" clip-path="url(#p7f12d9e908)" style="fill: none; stroke: #555555; stroke-opacity: 0.9; stroke-width: 0.5; stroke-linecap: square"/>
   </g>
   <g id="line2d_9">
    <path d="M 168.968074 72.78529 
L 139.011024 214.554331 
" clip-path="url(#p7f12d9e908)" style="fill: none; stroke: #555555; stroke-opacity: 0.9; stroke-width: 0.5; stroke-linecap: square"/>
   </g>
   <g id="line2d_10">
    <path d="M 224.602597 214.554331 
L 194.930852 214.554331 
" clip-path="url(#p7f12d9e908)" style="fill: none; stroke: #555555; stroke-opacity: 0.9; stroke-width: 0.5; stroke-linecap: square"/>
   </g>
   <g id="line2d_11">
    <path d="M 168.968074 72.78529 
L 139.011024 25.528943 
" clip-path="url(#p7f12d9e908)" style="fill: none; stroke: #555555; stroke-opacity: 0.9; stroke-width: 0.5; stroke-linecap: square"/>
   </g>
   <g id="line2d_12">
    <path d="M 175.88124 83.690601 
L 194.930852 214.554331 
" clip-path="url(#p7f12d9e908)" style="fill: none; stroke: #555555; stroke-opacity: 0.9; stroke-width: 0.5; stroke-linecap: square"/>
   </g>
   <g id="line2d_13">
    <path d="M 218.896492 151.545868 
L 224.602597 214.554331 
" clip-path="url(#p7f12d9e908)" style="fill: none; stroke: #555555; stroke-opacity: 0.9; stroke-width: 0.5; stroke-linecap: square"/>
   </g>
   <g id="line2d_14">
    <path d="M 198.925125 120.041637 
L 218.896492 151.545868 
" clip-path="url(#p7f12d9e908)" style="fill: none; stroke: #555555; stroke-opacity: 0.9; stroke-width: 0.5; stroke-linecap: square"/>
   </g>
   <g id="line2d_15">
    <path d="M 198.925125 120.041637 
L 175.88124 83.690601 
" clip-path="url(#p7f12d9e908)" style="fill: none; stroke: #555555; stroke-opacity: 0.9; stroke-width: 0.5; stroke-linecap: square"/>
   </g>
   <g id="line2d_16">
    <path d="M 139.011024 214.554331 
L 194.930852 214.554331 
" clip-path="url(#p7f12d9e908)" style="fill: none; stroke: #555555; stroke-opacity: 0.9; stroke-width: 0.5; stroke-linecap: square"/>
   </g>
   <g id="line2d_17">
    <path d="M 139.011024 214.554331 
L 19.18282 214.554331 
" clip-path="url(#p7f12d9e908)" style="fill: none; stroke: #555555; stroke-opacity: 0.9; stroke-width: 0.5; stroke-linecap: square"/>
   </g>
   <g id="line2d_18">
    <path d="M 168.968074 72.78529 
L 19.18282 214.554331 
" clip-path="url(#p7f12d9e908)" style="fill: none; stroke: #555555; stroke-opacity: 0.9; stroke-width: 0.5; stroke-linecap: square"/>
   </g>
   <g id="line2d_19">
    <path d="M 240.404119 214.554331 
L 258.839227 214.554331 
" clip-path="url(#p7f12d9e908)" style="fill: none; stroke: #555555; stroke-opacity: 0.9; stroke-width: 0.5; stroke-linecap: square"/>
   </g>
   <g id="PathCollection_1">
    <defs>
     <path id="m7e9eda1e9b" d="M 0 2.738613 
C 0.726289 2.738613 1.422928 2.450055 1.936492 1.936492 
C 2.450055 1.422928 2.738613 0.726289 2.738613 0 
C 2.738613 -0.726289 2.450055 -1.422928 1.936492 -1.936492 
C 1.422928 -2.450055 0.726289 -2.738613 0 -2.738613 
C -0.726289 -2.738613 -1.422928 -2.450055 -1.936492 -1.936492 
C -2.450055 -1.422928 -2.738613 -0.726289 -2.738613 0 
C -2.738613 0.726289 -2.450055 1.422928 -1.936492 1.936492 
C -1.422928 2.450055 -0.726289 2.738613 0 2.738613 
z
" style="stroke: #008000"/>
    </defs>
    <g clip-path="url(#p7f12d9e908)">
     <use xlink:href="#m7e9eda1e9b" x="218.896492" y="151.545868" style="fill: #008000; stroke: #008000"/>
     <use xlink:href="#m7e9eda1e9b" x="240.404119" y="214.554331" style="fill: #008000; stroke: #008000"/>
     <use xlink:href="#m7e9eda1e9b" x="194.930852" y="214.554331" style="fill: #008000; stroke: #008000"/>
     <use xlink:href="#m7e9eda1e9b" x="139.011024" y="25.528943" style="fill: #008000; stroke: #008000"/>
     <use xlink:href="#m7e9eda1e9b" x="19.18282" y="214.554331" style="fill: #008000; stroke: #008000"/>
     <use xlink:href="#m7e9eda1e9b" x="168.968074" y="72.78529" style="fill: #008000; stroke: #008000"/>
     <use xlink:href="#m7e9eda1e9b" x="175.88124" y="83.690601" style="fill: #008000; stroke: #008000"/>
     <use xlink:href="#m7e9eda1e9b" x="139.011024" y="214.554331" style="fill: #008000; stroke: #008000"/>
     <use xlink:href="#m7e9eda1e9b" x="258.839227" y="214.554331" style="fill: #008000; stroke: #008000"/>
     <use xlink:href="#m7e9eda1e9b" x="224.602597" y="214.554331" style="fill: #008000; stroke: #008000"/>
     <use xlink:href="#m7e9eda1e9b" x="198.925125" y="120.041637" style="fill: #008000; stroke: #008000"/>
    </g>
   </g>
   <g id="PathCollection_2">
    <defs>
     <path id="m795eb7d5f3" d="M -0 2.236068 
L 1.341641 0 
L 0 -2.236068 
L -1.341641 -0 
z
" style="stroke: #d3d3d3"/>
    </defs>
    <g clip-path="url(#p7f12d9e908)">
     <use xlink:href="#m795eb7d5f3" x="139.011024" y="25.528943" style="fill: #d3d3d3; stroke: #d3d3d3"/>
     <use xlink:href="#m795eb7d5f3" x="139.011024" y="25.528943" style="fill: #d3d3d3; stroke: #d3d3d3"/>
     <use xlink:href="#m795eb7d5f3" x="139.011024" y="25.528943" style="fill: #d3d3d3; stroke: #d3d3d3"/>
     <use xlink:href="#m795eb7d5f3" x="139.011024" y="25.528943" style="fill: #d3d3d3; stroke: #d3d3d3"/>
     <use xlink:href="#m795eb7d5f3" x="139.011024" y="25.528943" style="fill: #d3d3d3; stroke: #d3d3d3"/>
     <use xlink:href="#m795eb7d5f3" x="139.011024" y="25.528943" style="fill: #d3d3d3; stroke: #d3d3d3"/>
     <use xlink:href="#m795eb7d5f3" x="139.011024" y="25.528943" style="fill: #d3d3d3; stroke: #d3d3d3"/>
     <use xlink:href="#m795eb7d5f3" x="258.839227" y="214.554331" style="fill: #d3d3d3; stroke: #d3d3d3"/>
     <use xlink:href="#m795eb7d5f3" x="258.839227" y="214.554331" style="fill: #d3d3d3; stroke: #d3d3d3"/>
     <use xlink:href="#m795eb7d5f3" x="258.839227" y="214.554331" style="fill: #d3d3d3; stroke: #d3d3d3"/>
     <use xlink:href="#m795eb7d5f3" x="258.839227" y="214.554331" style="fill: #d3d3d3; stroke: #d3d3d3"/>
     <use xlink:href="#m795eb7d5f3" x="258.839227" y="214.554331" style="fill: #d3d3d3; stroke: #d3d3d3"/>
     <use xlink:href="#m795eb7d5f3" x="258.839227" y="214.554331" style="fill: #d3d3d3; stroke: #d3d3d3"/>
     <use xlink:href="#m795eb7d5f3" x="258.839227" y="214.554331" style="fill: #d3d3d3; stroke: #d3d3d3"/>
     <use xlink:href="#m795eb7d5f3" x="258.839227" y="214.554331" style="fill: #d3d3d3; stroke: #d3d3d3"/>
     <use xlink:href="#m795eb7d5f3" x="258.839227" y="214.554331" style="fill: #d3d3d3; stroke: #d3d3d3"/>
     <use xlink:href="#m795eb7d5f3" x="198.925125" y="120.041637" style="fill: #d3d3d3; stroke: #d3d3d3"/>
     <use xlink:href="#m795eb7d5f3" x="168.968074" y="72.78529" style="fill: #d3d3d3; stroke: #d3d3d3"/>
     <use xlink:href="#m795eb7d5f3" x="168.968074" y="72.78529" style="fill: #d3d3d3; stroke: #d3d3d3"/>
     <use xlink:href="#m795eb7d5f3" x="168.968074" y="72.78529" style="fill: #d3d3d3; stroke: #d3d3d3"/>
     <use xlink:href="#m795eb7d5f3" x="162.976664" y="63.334021" style="fill: #d3d3d3; stroke: #d3d3d3"/>
     <use xlink:href="#m795eb7d5f3" x="218.896492" y="151.545868" style="fill: #d3d3d3; stroke: #d3d3d3"/>
     <use xlink:href="#m795eb7d5f3" x="218.896492" y="151.545868" style="fill: #d3d3d3; stroke: #d3d3d3"/>
     <use xlink:href="#m795eb7d5f3" x="228.882176" y="167.297984" style="fill: #d3d3d3; stroke: #d3d3d3"/>
     <use xlink:href="#m795eb7d5f3" x="228.882176" y="167.297984" style="fill: #d3d3d3; stroke: #d3d3d3"/>
     <use xlink:href="#m795eb7d5f3" x="210.907946" y="138.944176" style="fill: #d3d3d3; stroke: #d3d3d3"/>
     <use xlink:href="#m795eb7d5f3" x="164.238014" y="65.323762" style="fill: #d3d3d3; stroke: #d3d3d3"/>
     <use xlink:href="#m795eb7d5f3" x="19.18282" y="214.554331" style="fill: #d3d3d3; stroke: #d3d3d3"/>
     <use xlink:href="#m795eb7d5f3" x="19.18282" y="214.554331" style="fill: #d3d3d3; stroke: #d3d3d3"/>
     <use xlink:href="#m795eb7d5f3" x="19.18282" y="214.554331" style="fill: #d3d3d3; stroke: #d3d3d3"/>
     <use xlink:href="#m795eb7d5f3" x="19.18282" y="214.554331" style="fill: #d3d3d3; stroke: #d3d3d3"/>
     <use xlink:href="#m795eb7d5f3" x="19.18282" y="214.554331" style="fill: #d3d3d3; stroke: #d3d3d3"/>
     <use xlink:href="#m795eb7d5f3" x="19.18282" y="214.554331" style="fill: #d3d3d3; stroke: #d3d3d3"/>
     <use xlink:href="#m795eb7d5f3" x="109.053973" y="72.78529" style="fill: #d3d3d3; stroke: #d3d3d3"/>
     <use xlink:href="#m795eb7d5f3" x="139.011024" y="214.554331" style="fill: #d3d3d3; stroke: #d3d3d3"/>
     <use xlink:href="#m795eb7d5f3" x="139.011024" y="120.041637" style="fill: #d3d3d3; stroke: #d3d3d3"/>
     <use xlink:href="#m795eb7d5f3" x="168.968074" y="167.297984" style="fill: #d3d3d3; stroke: #d3d3d3"/>
     <use xlink:href="#m795eb7d5f3" x="203.533902" y="156.392673" style="fill: #d3d3d3; stroke: #d3d3d3"/>
     <use xlink:href="#m795eb7d5f3" x="119.039656" y="120.041637" style="fill: #d3d3d3; stroke: #d3d3d3"/>
     <use xlink:href="#m795eb7d5f3" x="139.011024" y="176.749253" style="fill: #d3d3d3; stroke: #d3d3d3"/>
     <use xlink:href="#m795eb7d5f3" x="162.976664" y="214.554331" style="fill: #d3d3d3; stroke: #d3d3d3"/>
     <use xlink:href="#m795eb7d5f3" x="79.096922" y="214.554331" style="fill: #d3d3d3; stroke: #d3d3d3"/>
     <use xlink:href="#m795eb7d5f3" x="203.533902" y="214.554331" style="fill: #d3d3d3; stroke: #d3d3d3"/>
     <use xlink:href="#m795eb7d5f3" x="43.148461" y="176.749253" style="fill: #d3d3d3; stroke: #d3d3d3"/>
     <use xlink:href="#m795eb7d5f3" x="185.098794" y="214.554331" style="fill: #d3d3d3; stroke: #d3d3d3"/>
     <use xlink:href="#m795eb7d5f3" x="217.159852" y="214.554331" style="fill: #d3d3d3; stroke: #d3d3d3"/>
     <use xlink:href="#m795eb7d5f3" x="166.663686" y="214.554331" style="fill: #d3d3d3; stroke: #d3d3d3"/>
     <use xlink:href="#m795eb7d5f3" x="215.823974" y="204.860721" style="fill: #d3d3d3; stroke: #d3d3d3"/>
    </g>
   </g>
   <g id="PathCollection_3">
    <defs>
     <path id="m70863e9203" d="M 0 -5 
L -1.12257 -1.545085 
L -4.755283 -1.545085 
L -1.816356 0.59017 
L -2.938926 4.045085 
L -0 1.90983 
L 2.938926 4.045085 
L 1.816356 0.59017 
L 4.755283 -1.545085 
L 1.12257 -1.545085 
z
" style="stroke: #0000ff"/>
    </defs>
    <g clip-path="url(#p7f12d9e908)">
     <use xlink:href="#m70863e9203" x="203.533902" y="156.392673" style="fill: #0000ff; stroke: #0000ff"/>
    </g>
   </g>
   <g id="text_1">
    <!-- $\mathrm{Al_{2}Cu}$ -->
    <g transform="translate(211.541947 147.420198) scale(0.1 -0.1)">
     <defs>
      <path id="DejaVuSans-41" d="M 2188 4044 
L 1331 1722 
L 3047 1722 
L 2188 4044 
z
M 1831 4666 
L 2547 4666 
L 4325 0 
L 3669 0 
L 3244 1197 
L 1141 1197 
L 716 0 
L 50 0 
L 1831 4666 
z
" transform="scale(0.015625)"/>
      <path id="DejaVuSans-6c" d="M 603 4863 
L 1178 4863 
L 1178 0 
L 603 0 
L 603 4863 
z
" transform="scale(0.015625)"/>
      <path id="DejaVuSans-32" d="M 1228 531 
L 3431 531 
L 3431 0 
L 469 0 
L 469 531 
Q 828 903 1448 1529 
Q 2069 2156 2228 2338 
Q 2531 2678 2651 2914 
Q 2772 3150 2772 3378 
Q 2772 3750 2511 3984 
Q 2250 4219 1831 4219 
Q 1534 4219 1204 4116 
Q 875 4013 500 3803 
L 500 4441 
Q 881 4594 1212 4672 
Q 1544 4750 1819 4750 
Q 2544 4750 2975 4387 
Q 3406 4025 3406 3419 
Q 3406 3131 3298 2873 
Q 3191 2616 2906 2266 
Q 2828 2175 2409 1742 
Q 1991 1309 1228 531 
z
" transform="scale(0.015625)"/>
      <path id="DejaVuSans-43" d="M 4122 4306 
L 4122 3641 
Q 3803 3938 3442 4084 
Q 3081 4231 2675 4231 
Q 1875 4231 1450 3742 
Q 1025 3253 1025 2328 
Q 1025 1406 1450 917 
Q 1875 428 2675 428 
Q 3081 428 3442 575 
Q 3803 722 4122 1019 
L 4122 359 
Q 3791 134 3420 21 
Q 3050 -91 2638 -91 
Q 1578 -91 968 557 
Q 359 1206 359 2328 
Q 359 3453 968 4101 
Q 1578 4750 2638 4750 
Q 3056 4750 3426 4639 
Q 3797 4528 4122 4306 
z
" transform="scale(0.015625)"/>
      <path id="DejaVuSans-75" d="M 544 1381 
L 544 3500 
L 1119 3500 
L 1119 1403 
Q 1119 906 1312 657 
Q 1506 409 1894 409 
Q 2359 409 2629 706 
Q 2900 1003 2900 1516 
L 2900 3500 
L 3475 3500 
L 3475 0 
L 2900 0 
L 2900 538 
Q 2691 219 2414 64 
Q 2138 -91 1772 -91 
Q 1169 -91 856 284 
Q 544 659 544 1381 
z
M 1991 3584 
L 1991 3584 
z
" transform="scale(0.015625)"/>
     </defs>
     <use xlink:href="#DejaVuSans-41" transform="translate(0 0.015625)"/>
     <use xlink:href="#DejaVuSans-6c" transform="translate(68.408203 0.015625)"/>
     <use xlink:href="#DejaVuSans-32" transform="translate(97.148438 -16.390625) scale(0.7)"/>
     <use xlink:href="#DejaVuSans-43" transform="translate(144.418945 0.015625)"/>
     <use xlink:href="#DejaVuSans-75" transform="translate(214.243164 0.015625)"/>
    </g>
   </g>
   <g id="text_2">
    <!-- $\mathrm{MnAl_{12}}$ -->
    <g transform="translate(226.294756 210.544971) scale(0.1 -0.1)">
     <defs>
      <path id="DejaVuSans-4d" d="M 628 4666 
L 1569 4666 
L 2759 1491 
L 3956 4666 
L 4897 4666 
L 4897 0 
L 4281 0 
L 4281 4097 
L 3078 897 
L 2444 897 
L 1241 4097 
L 1241 0 
L 628 0 
L 628 4666 
z
" transform="scale(0.015625)"/>
      <path id="DejaVuSans-6e" d="M 3513 2113 
L 3513 0 
L 2938 0 
L 2938 2094 
Q 2938 2591 2744 2837 
Q 2550 3084 2163 3084 
Q 1697 3084 1428 2787 
Q 1159 2491 1159 1978 
L 1159 0 
L 581 0 
L 581 3500 
L 1159 3500 
L 1159 2956 
Q 1366 3272 1645 3428 
Q 1925 3584 2291 3584 
Q 2894 3584 3203 3211 
Q 3513 2838 3513 2113 
z
" transform="scale(0.015625)"/>
      <path id="DejaVuSans-31" d="M 794 531 
L 1825 531 
L 1825 4091 
L 703 3866 
L 703 4441 
L 1819 4666 
L 2450 4666 
L 2450 531 
L 3481 531 
L 3481 0 
L 794 0 
L 794 531 
z
" transform="scale(0.015625)"/>
     </defs>
     <use xlink:href="#DejaVuSans-4d" transform="translate(0 0.015625)"/>
     <use xlink:href="#DejaVuSans-6e" transform="translate(86.279297 0.015625)"/>
     <use xlink:href="#DejaVuSans-41" transform="translate(149.658203 0.015625)"/>
     <use xlink:href="#DejaVuSans-6c" transform="translate(218.066406 0.015625)"/>
     <use xlink:href="#DejaVuSans-31" transform="translate(246.806641 -16.390625) scale(0.7)"/>
     <use xlink:href="#DejaVuSans-32" transform="translate(291.342773 -16.390625) scale(0.7)"/>
    </g>
   </g>
   <g id="text_3">
    <!-- $\mathrm{Mn_{4}Al_{11}}$ -->
    <g transform="translate(187.36267 210.544971) scale(0.1 -0.1)">
     <defs>
      <path id="DejaVuSans-34" d="M 2419 4116 
L 825 1625 
L 2419 1625 
L 2419 4116 
z
M 2253 4666 
L 3047 4666 
L 3047 1625 
L 3713 1625 
L 3713 1100 
L 3047 1100 
L 3047 0 
L 2419 0 
L 2419 1100 
L 313 1100 
L 313 1709 
L 2253 4666 
z
" transform="scale(0.015625)"/>
     </defs>
     <use xlink:href="#DejaVuSans-4d" transform="translate(0 0.015625)"/>
     <use xlink:href="#DejaVuSans-6e" transform="translate(86.279297 0.015625)"/>
     <use xlink:href="#DejaVuSans-34" transform="translate(150.615234 -16.390625) scale(0.7)"/>
     <use xlink:href="#DejaVuSans-41" transform="translate(197.885742 0.015625)"/>
     <use xlink:href="#DejaVuSans-6c" transform="translate(266.293945 0.015625)"/>
     <use xlink:href="#DejaVuSans-31" transform="translate(295.03418 -16.390625) scale(0.7)"/>
     <use xlink:href="#DejaVuSans-31" transform="translate(339.570312 -16.390625) scale(0.7)"/>
    </g>
   </g>
   <g id="text_4">
    <!-- $\mathrm{Cu}$ -->
    <g transform="translate(130.347387 33.102406) scale(0.1 -0.1)">
     <use xlink:href="#DejaVuSans-43" transform="translate(0 0.78125)"/>
     <use xlink:href="#DejaVuSans-75" transform="translate(69.824219 0.78125)"/>
    </g>
   </g>
   <g id="text_5">
    <!-- $\mathrm{Mn}$ -->
    <g transform="translate(19.40523 212.151181) scale(0.1 -0.1)">
     <use xlink:href="#DejaVuSans-4d" transform="translate(0 0.09375)"/>
     <use xlink:href="#DejaVuSans-6e" transform="translate(86.279297 0.09375)"/>
    </g>
   </g>
   <g id="text_6">
    <!-- $\mathrm{AlCu_{3}}$ -->
    <g transform="translate(161.613529 68.638869) scale(0.1 -0.1)">
     <defs>
      <path id="DejaVuSans-33" d="M 2597 2516 
Q 3050 2419 3304 2112 
Q 3559 1806 3559 1356 
Q 3559 666 3084 287 
Q 2609 -91 1734 -91 
Q 1441 -91 1130 -33 
Q 819 25 488 141 
L 488 750 
Q 750 597 1062 519 
Q 1375 441 1716 441 
Q 2309 441 2620 675 
Q 2931 909 2931 1356 
Q 2931 1769 2642 2001 
Q 2353 2234 1838 2234 
L 1294 2234 
L 1294 2753 
L 1863 2753 
Q 2328 2753 2575 2939 
Q 2822 3125 2822 3475 
Q 2822 3834 2567 4026 
Q 2313 4219 1838 4219 
Q 1578 4219 1281 4162 
Q 984 4106 628 3988 
L 628 4550 
Q 988 4650 1302 4700 
Q 1616 4750 1894 4750 
Q 2613 4750 3031 4423 
Q 3450 4097 3450 3541 
Q 3450 3153 3228 2886 
Q 3006 2619 2597 2516 
z
" transform="scale(0.015625)"/>
     </defs>
     <use xlink:href="#DejaVuSans-41" transform="translate(0 0.015625)"/>
     <use xlink:href="#DejaVuSans-6c" transform="translate(68.408203 0.015625)"/>
     <use xlink:href="#DejaVuSans-43" transform="translate(96.191406 0.015625)"/>
     <use xlink:href="#DejaVuSans-75" transform="translate(166.015625 0.015625)"/>
     <use xlink:href="#DejaVuSans-33" transform="translate(230.351562 -16.390625) scale(0.7)"/>
    </g>
   </g>
   <g id="text_7">
    <!-- $\mathrm{Al_{4}Cu_{9}}$ -->
    <g transform="translate(175.944876 87.026639) scale(0.1 -0.1)">
     <defs>
      <path id="DejaVuSans-39" d="M 703 97 
L 703 672 
Q 941 559 1184 500 
Q 1428 441 1663 441 
Q 2288 441 2617 861 
Q 2947 1281 2994 2138 
Q 2813 1869 2534 1725 
Q 2256 1581 1919 1581 
Q 1219 1581 811 2004 
Q 403 2428 403 3163 
Q 403 3881 828 4315 
Q 1253 4750 1959 4750 
Q 2769 4750 3195 4129 
Q 3622 3509 3622 2328 
Q 3622 1225 3098 567 
Q 2575 -91 1691 -91 
Q 1453 -91 1209 -44 
Q 966 3 703 97 
z
M 1959 2075 
Q 2384 2075 2632 2365 
Q 2881 2656 2881 3163 
Q 2881 3666 2632 3958 
Q 2384 4250 1959 4250 
Q 1534 4250 1286 3958 
Q 1038 3666 1038 3163 
Q 1038 2656 1286 2365 
Q 1534 2075 1959 2075 
z
" transform="scale(0.015625)"/>
     </defs>
     <use xlink:href="#DejaVuSans-41" transform="translate(0 0.015625)"/>
     <use xlink:href="#DejaVuSans-6c" transform="translate(68.408203 0.015625)"/>
     <use xlink:href="#DejaVuSans-34" transform="translate(97.148438 -16.390625) scale(0.7)"/>
     <use xlink:href="#DejaVuSans-43" transform="translate(144.418945 0.015625)"/>
     <use xlink:href="#DejaVuSans-75" transform="translate(214.243164 0.015625)"/>
     <use xlink:href="#DejaVuSans-39" transform="translate(278.579102 -16.390625) scale(0.7)"/>
    </g>
   </g>
   <g id="text_8">
    <!-- $\mathrm{MnAl}$ -->
    <g transform="translate(131.947387 211.215873) scale(0.1 -0.1)">
     <use xlink:href="#DejaVuSans-4d" transform="translate(0 0.015625)"/>
     <use xlink:href="#DejaVuSans-6e" transform="translate(86.279297 0.015625)"/>
     <use xlink:href="#DejaVuSans-41" transform="translate(149.658203 0.015625)"/>
     <use xlink:href="#DejaVuSans-6c" transform="translate(218.066406 0.015625)"/>
    </g>
   </g>
   <g id="text_9">
    <!-- $\mathrm{Al}$ -->
    <g transform="translate(249.389691 197.498031) scale(0.1 -0.1)">
     <use xlink:href="#DejaVuSans-41" transform="translate(0 0.015625)"/>
     <use xlink:href="#DejaVuSans-6c" transform="translate(68.408203 0.015625)"/>
    </g>
   </g>
   <g id="text_10">
    <!-- $\mathrm{MnAl_{6}}$ -->
    <g transform="translate(219.016234 196.877129) scale(0.1 -0.1)">
     <defs>
      <path id="DejaVuSans-36" d="M 2113 2584 
Q 1688 2584 1439 2293 
Q 1191 2003 1191 1497 
Q 1191 994 1439 701 
Q 1688 409 2113 409 
Q 2538 409 2786 701 
Q 3034 994 3034 1497 
Q 3034 2003 2786 2293 
Q 2538 2584 2113 2584 
z
M 3366 4563 
L 3366 3988 
Q 3128 4100 2886 4159 
Q 2644 4219 2406 4219 
Q 1781 4219 1451 3797 
Q 1122 3375 1075 2522 
Q 1259 2794 1537 2939 
Q 1816 3084 2150 3084 
Q 2853 3084 3261 2657 
Q 3669 2231 3669 1497 
Q 3669 778 3244 343 
Q 2819 -91 2113 -91 
Q 1303 -91 875 529 
Q 447 1150 447 2328 
Q 447 3434 972 4092 
Q 1497 4750 2381 4750 
Q 2619 4750 2861 4703 
Q 3103 4656 3366 4563 
z
" transform="scale(0.015625)"/>
     </defs>
     <use xlink:href="#DejaVuSans-4d" transform="translate(0 0.015625)"/>
     <use xlink:href="#DejaVuSans-6e" transform="translate(86.279297 0.015625)"/>
     <use xlink:href="#DejaVuSans-41" transform="translate(149.658203 0.015625)"/>
     <use xlink:href="#DejaVuSans-6c" transform="translate(218.066406 0.015625)"/>
     <use xlink:href="#DejaVuSans-36" transform="translate(246.806641 -16.390625) scale(0.7)"/>
    </g>
   </g>
   <g id="text_11">
    <!-- $\mathrm{AlCu}$ -->
    <g transform="translate(180.879671 127.6151) scale(0.1 -0.1)">
     <use xlink:href="#DejaVuSans-41" transform="translate(0 0.015625)"/>
     <use xlink:href="#DejaVuSans-6c" transform="translate(68.408203 0.015625)"/>
     <use xlink:href="#DejaVuSans-43" transform="translate(96.191406 0.015625)"/>
     <use xlink:href="#DejaVuSans-75" transform="translate(166.015625 0.015625)"/>
    </g>
   </g>
   <g id="text_12">
    <!-- $\mathrm{Mn(Al_{2}Cu)_{4}}$ -->
    <g style="fill: #0000ff" transform="translate(154.888448 165.914094) scale(0.1 -0.1)">
     <defs>
      <path id="DejaVuSans-28" d="M 1984 4856 
Q 1566 4138 1362 3434 
Q 1159 2731 1159 2009 
Q 1159 1288 1364 580 
Q 1569 -128 1984 -844 
L 1484 -844 
Q 1016 -109 783 600 
Q 550 1309 550 2009 
Q 550 2706 781 3412 
Q 1013 4119 1484 4856 
L 1984 4856 
z
" transform="scale(0.015625)"/>
      <path id="DejaVuSans-29" d="M 513 4856 
L 1013 4856 
Q 1481 4119 1714 3412 
Q 1947 2706 1947 2009 
Q 1947 1309 1714 600 
Q 1481 -109 1013 -844 
L 513 -844 
Q 928 -128 1133 580 
Q 1338 1288 1338 2009 
Q 1338 2731 1133 3434 
Q 928 4138 513 4856 
z
" transform="scale(0.015625)"/>
     </defs>
     <use xlink:href="#DejaVuSans-4d" transform="translate(0 0.015625)"/>
     <use xlink:href="#DejaVuSans-6e" transform="translate(86.279297 0.015625)"/>
     <use xlink:href="#DejaVuSans-28" transform="translate(149.658203 0.015625)"/>
     <use xlink:href="#DejaVuSans-41" transform="translate(188.671875 0.015625)"/>
     <use xlink:href="#DejaVuSans-6c" transform="translate(257.080078 0.015625)"/>
     <use xlink:href="#DejaVuSans-32" transform="translate(285.820312 -16.390625) scale(0.7)"/>
     <use xlink:href="#DejaVuSans-43" transform="translate(333.09082 0.015625)"/>
     <use xlink:href="#DejaVuSans-75" transform="translate(402.915039 0.015625)"/>
     <use xlink:href="#DejaVuSans-29" transform="translate(466.293945 0.015625)"/>
     <use xlink:href="#DejaVuSans-34" transform="translate(506.264648 -16.390625) scale(0.7)"/>
    </g>
   </g>
  </g>
  <g id="axes_2">
   <g id="patch_3">
    <path d="M 287.298425 195.703937 
L 296.029134 195.703937 
L 296.029134 36.96378 
L 287.298425 36.96378 
L 287.298425 195.703937 
z
" style="fill: none"/>
   </g>
   <g id="patch_4">
    <path d="M 287.298425 195.703937 
L 291.66378 203.640945 
L 296.029134 195.703937 
" style="fill: #440154; opacity: 0.7"/>
   </g>
   <g id="patch_5">
    <path d="M 287.298425 36.96378 
L 291.66378 29.026772 
L 296.029134 36.96378 
" style="fill: #fde725; opacity: 0.7"/>
   </g>
   <g id="QuadMesh_1">
    <path d="M 287.298425 195.703937 
L 296.029134 195.703937 
L 296.029134 192.176378 
L 287.298425 192.176378 
L 287.298425 195.703937 
" clip-path="url(#pa5744ba290)" style="fill: #450457; fill-opacity: 0.7"/>
    <path d="M 287.298425 192.176378 
L 296.029134 192.176378 
L 296.029134 188.648819 
L 287.298425 188.648819 
L 287.298425 192.176378 
" clip-path="url(#pa5744ba290)" style="fill: #470d60; fill-opacity: 0.7"/>
    <path d="M 287.298425 188.648819 
L 296.029134 188.648819 
L 296.029134 185.12126 
L 287.298425 185.12126 
L 287.298425 188.648819 
" clip-path="url(#pa5744ba290)" style="fill: #481668; fill-opacity: 0.7"/>
    <path d="M 287.298425 185.12126 
L 296.029134 185.12126 
L 296.029134 181.593701 
L 287.298425 181.593701 
L 287.298425 185.12126 
" clip-path="url(#pa5744ba290)" style="fill: #481c6e; fill-opacity: 0.7"/>
    <path d="M 287.298425 181.593701 
L 296.029134 181.593701 
L 296.029134 178.066142 
L 287.298425 178.066142 
L 287.298425 181.593701 
" clip-path="url(#pa5744ba290)" style="fill: #482475; fill-opacity: 0.7"/>
    <path d="M 287.298425 178.066142 
L 296.029134 178.066142 
L 296.029134 174.538583 
L 287.298425 174.538583 
L 287.298425 178.066142 
" clip-path="url(#pa5744ba290)" style="fill: #472c7a; fill-opacity: 0.7"/>
    <path d="M 287.298425 174.538583 
L 296.029134 174.538583 
L 296.029134 171.011024 
L 287.298425 171.011024 
L 287.298425 174.538583 
" clip-path="url(#pa5744ba290)" style="fill: #46327e; fill-opacity: 0.7"/>
    <path d="M 287.298425 171.011024 
L 296.029134 171.011024 
L 296.029134 167.483465 
L 287.298425 167.483465 
L 287.298425 171.011024 
" clip-path="url(#pa5744ba290)" style="fill: #443983; fill-opacity: 0.7"/>
    <path d="M 287.298425 167.483465 
L 296.029134 167.483465 
L 296.029134 163.955906 
L 287.298425 163.955906 
L 287.298425 167.483465 
" clip-path="url(#pa5744ba290)" style="fill: #424086; fill-opacity: 0.7"/>
    <path d="M 287.298425 163.955906 
L 296.029134 163.955906 
L 296.029134 160.428346 
L 287.298425 160.428346 
L 287.298425 163.955906 
" clip-path="url(#pa5744ba290)" style="fill: #3f4788; fill-opacity: 0.7"/>
    <path d="M 287.298425 160.428346 
L 296.029134 160.428346 
L 296.029134 156.900787 
L 287.298425 156.900787 
L 287.298425 160.428346 
" clip-path="url(#pa5744ba290)" style="fill: #3d4d8a; fill-opacity: 0.7"/>
    <path d="M 287.298425 156.900787 
L 296.029134 156.900787 
L 296.029134 153.373228 
L 287.298425 153.373228 
L 287.298425 156.900787 
" clip-path="url(#pa5744ba290)" style="fill: #3a538b; fill-opacity: 0.7"/>
    <path d="M 287.298425 153.373228 
L 296.029134 153.373228 
L 296.029134 149.845669 
L 287.298425 149.845669 
L 287.298425 153.373228 
" clip-path="url(#pa5744ba290)" style="fill: #375a8c; fill-opacity: 0.7"/>
    <path d="M 287.298425 149.845669 
L 296.029134 149.845669 
L 296.029134 146.31811 
L 287.298425 146.31811 
L 287.298425 149.845669 
" clip-path="url(#pa5744ba290)" style="fill: #355f8d; fill-opacity: 0.7"/>
    <path d="M 287.298425 146.31811 
L 296.029134 146.31811 
L 296.029134 142.790551 
L 287.298425 142.790551 
L 287.298425 146.31811 
" clip-path="url(#pa5744ba290)" style="fill: #32658e; fill-opacity: 0.7"/>
    <path d="M 287.298425 142.790551 
L 296.029134 142.790551 
L 296.029134 139.262992 
L 287.298425 139.262992 
L 287.298425 142.790551 
" clip-path="url(#pa5744ba290)" style="fill: #2f6b8e; fill-opacity: 0.7"/>
    <path d="M 287.298425 139.262992 
L 296.029134 139.262992 
L 296.029134 135.735433 
L 287.298425 135.735433 
L 287.298425 139.262992 
" clip-path="url(#pa5744ba290)" style="fill: #2d708e; fill-opacity: 0.7"/>
    <path d="M 287.298425 135.735433 
L 296.029134 135.735433 
L 296.029134 132.207874 
L 287.298425 132.207874 
L 287.298425 135.735433 
" clip-path="url(#pa5744ba290)" style="fill: #2b758e; fill-opacity: 0.7"/>
    <path d="M 287.298425 132.207874 
L 296.029134 132.207874 
L 296.029134 128.680315 
L 287.298425 128.680315 
L 287.298425 132.207874 
" clip-path="url(#pa5744ba290)" style="fill: #297b8e; fill-opacity: 0.7"/>
    <path d="M 287.298425 128.680315 
L 296.029134 128.680315 
L 296.029134 125.152756 
L 287.298425 125.152756 
L 287.298425 128.680315 
" clip-path="url(#pa5744ba290)" style="fill: #27808e; fill-opacity: 0.7"/>
    <path d="M 287.298425 125.152756 
L 296.029134 125.152756 
L 296.029134 121.625197 
L 287.298425 121.625197 
L 287.298425 125.152756 
" clip-path="url(#pa5744ba290)" style="fill: #25858e; fill-opacity: 0.7"/>
    <path d="M 287.298425 121.625197 
L 296.029134 121.625197 
L 296.029134 118.097638 
L 287.298425 118.097638 
L 287.298425 121.625197 
" clip-path="url(#pa5744ba290)" style="fill: #228b8d; fill-opacity: 0.7"/>
    <path d="M 287.298425 118.097638 
L 296.029134 118.097638 
L 296.029134 114.570079 
L 287.298425 114.570079 
L 287.298425 118.097638 
" clip-path="url(#pa5744ba290)" style="fill: #21918c; fill-opacity: 0.7"/>
    <path d="M 287.298425 114.570079 
L 296.029134 114.570079 
L 296.029134 111.04252 
L 287.298425 111.04252 
L 287.298425 114.570079 
" clip-path="url(#pa5744ba290)" style="fill: #1f958b; fill-opacity: 0.7"/>
    <path d="M 287.298425 111.04252 
L 296.029134 111.04252 
L 296.029134 107.514961 
L 287.298425 107.514961 
L 287.298425 111.04252 
" clip-path="url(#pa5744ba290)" style="fill: #1e9b8a; fill-opacity: 0.7"/>
    <path d="M 287.298425 107.514961 
L 296.029134 107.514961 
L 296.029134 103.987402 
L 287.298425 103.987402 
L 287.298425 107.514961 
" clip-path="url(#pa5744ba290)" style="fill: #1fa188; fill-opacity: 0.7"/>
    <path d="M 287.298425 103.987402 
L 296.029134 103.987402 
L 296.029134 100.459843 
L 287.298425 100.459843 
L 287.298425 103.987402 
" clip-path="url(#pa5744ba290)" style="fill: #21a585; fill-opacity: 0.7"/>
    <path d="M 287.298425 100.459843 
L 296.029134 100.459843 
L 296.029134 96.932283 
L 287.298425 96.932283 
L 287.298425 100.459843 
" clip-path="url(#pa5744ba290)" style="fill: #25ab82; fill-opacity: 0.7"/>
    <path d="M 287.298425 96.932283 
L 296.029134 96.932283 
L 296.029134 93.404724 
L 287.298425 93.404724 
L 287.298425 96.932283 
" clip-path="url(#pa5744ba290)" style="fill: #2ab07f; fill-opacity: 0.7"/>
    <path d="M 287.298425 93.404724 
L 296.029134 93.404724 
L 296.029134 89.877165 
L 287.298425 89.877165 
L 287.298425 93.404724 
" clip-path="url(#pa5744ba290)" style="fill: #31b57b; fill-opacity: 0.7"/>
    <path d="M 287.298425 89.877165 
L 296.029134 89.877165 
L 296.029134 86.349606 
L 287.298425 86.349606 
L 287.298425 89.877165 
" clip-path="url(#pa5744ba290)" style="fill: #3aba76; fill-opacity: 0.7"/>
    <path d="M 287.298425 86.349606 
L 296.029134 86.349606 
L 296.029134 82.822047 
L 287.298425 82.822047 
L 287.298425 86.349606 
" clip-path="url(#pa5744ba290)" style="fill: #44bf70; fill-opacity: 0.7"/>
    <path d="M 287.298425 82.822047 
L 296.029134 82.822047 
L 296.029134 79.294488 
L 287.298425 79.294488 
L 287.298425 82.822047 
" clip-path="url(#pa5744ba290)" style="fill: #4ec36b; fill-opacity: 0.7"/>
    <path d="M 287.298425 79.294488 
L 296.029134 79.294488 
L 296.029134 75.766929 
L 287.298425 75.766929 
L 287.298425 79.294488 
" clip-path="url(#pa5744ba290)" style="fill: #5ac864; fill-opacity: 0.7"/>
    <path d="M 287.298425 75.766929 
L 296.029134 75.766929 
L 296.029134 72.23937 
L 287.298425 72.23937 
L 287.298425 75.766929 
" clip-path="url(#pa5744ba290)" style="fill: #67cc5c; fill-opacity: 0.7"/>
    <path d="M 287.298425 72.23937 
L 296.029134 72.23937 
L 296.029134 68.711811 
L 287.298425 68.711811 
L 287.298425 72.23937 
" clip-path="url(#pa5744ba290)" style="fill: #73d056; fill-opacity: 0.7"/>
    <path d="M 287.298425 68.711811 
L 296.029134 68.711811 
L 296.029134 65.184252 
L 287.298425 65.184252 
L 287.298425 68.711811 
" clip-path="url(#pa5744ba290)" style="fill: #81d34d; fill-opacity: 0.7"/>
    <path d="M 287.298425 65.184252 
L 296.029134 65.184252 
L 296.029134 61.656693 
L 287.298425 61.656693 
L 287.298425 65.184252 
" clip-path="url(#pa5744ba290)" style="fill: #90d743; fill-opacity: 0.7"/>
    <path d="M 287.298425 61.656693 
L 296.029134 61.656693 
L 296.029134 58.129134 
L 287.298425 58.129134 
L 287.298425 61.656693 
" clip-path="url(#pa5744ba290)" style="fill: #a0da39; fill-opacity: 0.7"/>
    <path d="M 287.298425 58.129134 
L 296.029134 58.129134 
L 296.029134 54.601575 
L 287.298425 54.601575 
L 287.298425 58.129134 
" clip-path="url(#pa5744ba290)" style="fill: #addc30; fill-opacity: 0.7"/>
    <path d="M 287.298425 54.601575 
L 296.029134 54.601575 
L 296.029134 51.074016 
L 287.298425 51.074016 
L 287.298425 54.601575 
" clip-path="url(#pa5744ba290)" style="fill: #bddf26; fill-opacity: 0.7"/>
    <path d="M 287.298425 51.074016 
L 296.029134 51.074016 
L 296.029134 47.546457 
L 287.298425 47.546457 
L 287.298425 51.074016 
" clip-path="url(#pa5744ba290)" style="fill: #cde11d; fill-opacity: 0.7"/>
    <path d="M 287.298425 47.546457 
L 296.029134 47.546457 
L 296.029134 44.018898 
L 287.298425 44.018898 
L 287.298425 47.546457 
" clip-path="url(#pa5744ba290)" style="fill: #dae319; fill-opacity: 0.7"/>
    <path d="M 287.298425 44.018898 
L 296.029134 44.018898 
L 296.029134 40.491339 
L 287.298425 40.491339 
L 287.298425 44.018898 
" clip-path="url(#pa5744ba290)" style="fill: #eae51a; fill-opacity: 0.7"/>
    <path d="M 287.298425 40.491339 
L 296.029134 40.491339 
L 296.029134 36.96378 
L 287.298425 36.96378 
L 287.298425 40.491339 
" clip-path="url(#pa5744ba290)" style="fill: #f8e621; fill-opacity: 0.7"/>
   </g>
   <g id="matplotlib.axis_3"/>
   <g id="matplotlib.axis_4">
    <g id="ytick_1">
     <g id="line2d_20">
      <defs>
       <path id="mea2aa88983" d="M 0 0 
L -2 0 
" style="stroke: #000000; stroke-width: 0.3"/>
      </defs>
      <g>
       <use xlink:href="#mea2aa88983" x="296.029134" y="195.703937" style="stroke: #000000; stroke-width: 0.3"/>
      </g>
     </g>
     <g id="text_13">
      <!-- 0.276 -->
      <g transform="translate(299.529134 198.567062) scale(0.08 -0.08)">
       <defs>
        <path id="ArialMT-2212" d="M 3381 1997 
L 356 1997 
L 356 2522 
L 3381 2522 
L 3381 1997 
z
" transform="scale(0.015625)"/>
        <path id="ArialMT-30" d="M 266 2259 
Q 266 3072 433 3567 
Q 600 4063 929 4331 
Q 1259 4600 1759 4600 
Q 2128 4600 2406 4451 
Q 2684 4303 2865 4023 
Q 3047 3744 3150 3342 
Q 3253 2941 3253 2259 
Q 3253 1453 3087 958 
Q 2922 463 2592 192 
Q 2263 -78 1759 -78 
Q 1097 -78 719 397 
Q 266 969 266 2259 
z
M 844 2259 
Q 844 1131 1108 757 
Q 1372 384 1759 384 
Q 2147 384 2411 759 
Q 2675 1134 2675 2259 
Q 2675 3391 2411 3762 
Q 2147 4134 1753 4134 
Q 1366 4134 1134 3806 
Q 844 3388 844 2259 
z
" transform="scale(0.015625)"/>
        <path id="ArialMT-2e" d="M 581 0 
L 581 641 
L 1222 641 
L 1222 0 
L 581 0 
z
" transform="scale(0.015625)"/>
        <path id="ArialMT-32" d="M 3222 541 
L 3222 0 
L 194 0 
Q 188 203 259 391 
Q 375 700 629 1000 
Q 884 1300 1366 1694 
Q 2113 2306 2375 2664 
Q 2638 3022 2638 3341 
Q 2638 3675 2398 3904 
Q 2159 4134 1775 4134 
Q 1369 4134 1125 3890 
Q 881 3647 878 3216 
L 300 3275 
Q 359 3922 746 4261 
Q 1134 4600 1788 4600 
Q 2447 4600 2831 4234 
Q 3216 3869 3216 3328 
Q 3216 3053 3103 2787 
Q 2991 2522 2730 2228 
Q 2469 1934 1863 1422 
Q 1356 997 1212 845 
Q 1069 694 975 541 
L 3222 541 
z
" transform="scale(0.015625)"/>
        <path id="ArialMT-37" d="M 303 3981 
L 303 4522 
L 3269 4522 
L 3269 4084 
Q 2831 3619 2401 2847 
Q 1972 2075 1738 1259 
Q 1569 684 1522 0 
L 944 0 
Q 953 541 1156 1306 
Q 1359 2072 1739 2783 
Q 2119 3494 2547 3981 
L 303 3981 
z
" transform="scale(0.015625)"/>
        <path id="ArialMT-36" d="M 3184 3459 
L 2625 3416 
Q 2550 3747 2413 3897 
Q 2184 4138 1850 4138 
Q 1581 4138 1378 3988 
Q 1113 3794 959 3422 
Q 806 3050 800 2363 
Q 1003 2672 1297 2822 
Q 1591 2972 1913 2972 
Q 2475 2972 2870 2558 
Q 3266 2144 3266 1488 
Q 3266 1056 3080 686 
Q 2894 316 2569 119 
Q 2244 -78 1831 -78 
Q 1128 -78 684 439 
Q 241 956 241 2144 
Q 241 3472 731 4075 
Q 1159 4600 1884 4600 
Q 2425 4600 2770 4297 
Q 3116 3994 3184 3459 
z
M 888 1484 
Q 888 1194 1011 928 
Q 1134 663 1356 523 
Q 1578 384 1822 384 
Q 2178 384 2434 671 
Q 2691 959 2691 1453 
Q 2691 1928 2437 2201 
Q 2184 2475 1800 2475 
Q 1419 2475 1153 2201 
Q 888 1928 888 1484 
z
" transform="scale(0.015625)"/>
       </defs>
       <use xlink:href="#ArialMT-2212"/>
       <use xlink:href="#ArialMT-30" transform="translate(58.398438 0)"/>
       <use xlink:href="#ArialMT-2e" transform="translate(114.013672 0)"/>
       <use xlink:href="#ArialMT-32" transform="translate(141.796875 0)"/>
       <use xlink:href="#ArialMT-37" transform="translate(197.412109 0)"/>
       <use xlink:href="#ArialMT-36" transform="translate(253.027344 0)"/>
      </g>
     </g>
    </g>
    <g id="ytick_2">
     <g id="line2d_21">
      <g>
       <use xlink:href="#mea2aa88983" x="296.029134" y="178.066142" style="stroke: #000000; stroke-width: 0.3"/>
      </g>
     </g>
     <g id="text_14">
      <!-- 0.246 -->
      <g transform="translate(299.529134 180.929267) scale(0.08 -0.08)">
       <defs>
        <path id="ArialMT-34" d="M 2069 0 
L 2069 1097 
L 81 1097 
L 81 1613 
L 2172 4581 
L 2631 4581 
L 2631 1613 
L 3250 1613 
L 3250 1097 
L 2631 1097 
L 2631 0 
L 2069 0 
z
M 2069 1613 
L 2069 3678 
L 634 1613 
L 2069 1613 
z
" transform="scale(0.015625)"/>
       </defs>
       <use xlink:href="#ArialMT-2212"/>
       <use xlink:href="#ArialMT-30" transform="translate(58.398438 0)"/>
       <use xlink:href="#ArialMT-2e" transform="translate(114.013672 0)"/>
       <use xlink:href="#ArialMT-32" transform="translate(141.796875 0)"/>
       <use xlink:href="#ArialMT-34" transform="translate(197.412109 0)"/>
       <use xlink:href="#ArialMT-36" transform="translate(253.027344 0)"/>
      </g>
     </g>
    </g>
    <g id="ytick_3">
     <g id="line2d_22">
      <g>
       <use xlink:href="#mea2aa88983" x="296.029134" y="160.428346" style="stroke: #000000; stroke-width: 0.3"/>
      </g>
     </g>
     <g id="text_15">
      <!-- 0.216 -->
      <g transform="translate(299.529134 163.291471) scale(0.08 -0.08)">
       <defs>
        <path id="ArialMT-31" d="M 2384 0 
L 1822 0 
L 1822 3584 
Q 1619 3391 1289 3197 
Q 959 3003 697 2906 
L 697 3450 
Q 1169 3672 1522 3987 
Q 1875 4303 2022 4600 
L 2384 4600 
L 2384 0 
z
" transform="scale(0.015625)"/>
       </defs>
       <use xlink:href="#ArialMT-2212"/>
       <use xlink:href="#ArialMT-30" transform="translate(58.398438 0)"/>
       <use xlink:href="#ArialMT-2e" transform="translate(114.013672 0)"/>
       <use xlink:href="#ArialMT-32" transform="translate(141.796875 0)"/>
       <use xlink:href="#ArialMT-31" transform="translate(197.412109 0)"/>
       <use xlink:href="#ArialMT-36" transform="translate(253.027344 0)"/>
      </g>
     </g>
    </g>
    <g id="ytick_4">
     <g id="line2d_23">
      <g>
       <use xlink:href="#mea2aa88983" x="296.029134" y="142.790551" style="stroke: #000000; stroke-width: 0.3"/>
      </g>
     </g>
     <g id="text_16">
      <!-- 0.186 -->
      <g transform="translate(299.529134 145.653676) scale(0.08 -0.08)">
       <defs>
        <path id="ArialMT-38" d="M 1131 2484 
Q 781 2613 612 2850 
Q 444 3088 444 3419 
Q 444 3919 803 4259 
Q 1163 4600 1759 4600 
Q 2359 4600 2725 4251 
Q 3091 3903 3091 3403 
Q 3091 3084 2923 2848 
Q 2756 2613 2416 2484 
Q 2838 2347 3058 2040 
Q 3278 1734 3278 1309 
Q 3278 722 2862 322 
Q 2447 -78 1769 -78 
Q 1091 -78 675 323 
Q 259 725 259 1325 
Q 259 1772 486 2073 
Q 713 2375 1131 2484 
z
M 1019 3438 
Q 1019 3113 1228 2906 
Q 1438 2700 1772 2700 
Q 2097 2700 2305 2904 
Q 2513 3109 2513 3406 
Q 2513 3716 2298 3927 
Q 2084 4138 1766 4138 
Q 1444 4138 1231 3931 
Q 1019 3725 1019 3438 
z
M 838 1322 
Q 838 1081 952 856 
Q 1066 631 1291 507 
Q 1516 384 1775 384 
Q 2178 384 2440 643 
Q 2703 903 2703 1303 
Q 2703 1709 2433 1975 
Q 2163 2241 1756 2241 
Q 1359 2241 1098 1978 
Q 838 1716 838 1322 
z
" transform="scale(0.015625)"/>
       </defs>
       <use xlink:href="#ArialMT-2212"/>
       <use xlink:href="#ArialMT-30" transform="translate(58.398438 0)"/>
       <use xlink:href="#ArialMT-2e" transform="translate(114.013672 0)"/>
       <use xlink:href="#ArialMT-31" transform="translate(141.796875 0)"/>
       <use xlink:href="#ArialMT-38" transform="translate(197.412109 0)"/>
       <use xlink:href="#ArialMT-36" transform="translate(253.027344 0)"/>
      </g>
     </g>
    </g>
    <g id="ytick_5">
     <g id="line2d_24">
      <g>
       <use xlink:href="#mea2aa88983" x="296.029134" y="125.152756" style="stroke: #000000; stroke-width: 0.3"/>
      </g>
     </g>
     <g id="text_17">
      <!-- 0.156 -->
      <g transform="translate(299.529134 128.015881) scale(0.08 -0.08)">
       <defs>
        <path id="ArialMT-35" d="M 266 1200 
L 856 1250 
Q 922 819 1161 601 
Q 1400 384 1738 384 
Q 2144 384 2425 690 
Q 2706 997 2706 1503 
Q 2706 1984 2436 2262 
Q 2166 2541 1728 2541 
Q 1456 2541 1237 2417 
Q 1019 2294 894 2097 
L 366 2166 
L 809 4519 
L 3088 4519 
L 3088 3981 
L 1259 3981 
L 1013 2750 
Q 1425 3038 1878 3038 
Q 2478 3038 2890 2622 
Q 3303 2206 3303 1553 
Q 3303 931 2941 478 
Q 2500 -78 1738 -78 
Q 1113 -78 717 272 
Q 322 622 266 1200 
z
" transform="scale(0.015625)"/>
       </defs>
       <use xlink:href="#ArialMT-2212"/>
       <use xlink:href="#ArialMT-30" transform="translate(58.398438 0)"/>
       <use xlink:href="#ArialMT-2e" transform="translate(114.013672 0)"/>
       <use xlink:href="#ArialMT-31" transform="translate(141.796875 0)"/>
       <use xlink:href="#ArialMT-35" transform="translate(197.412109 0)"/>
       <use xlink:href="#ArialMT-36" transform="translate(253.027344 0)"/>
      </g>
     </g>
    </g>
    <g id="ytick_6">
     <g id="line2d_25">
      <g>
       <use xlink:href="#mea2aa88983" x="296.029134" y="107.514961" style="stroke: #000000; stroke-width: 0.3"/>
      </g>
     </g>
     <g id="text_18">
      <!-- 0.126 -->
      <g transform="translate(299.529134 110.378086) scale(0.08 -0.08)">
       <use xlink:href="#ArialMT-2212"/>
       <use xlink:href="#ArialMT-30" transform="translate(58.398438 0)"/>
       <use xlink:href="#ArialMT-2e" transform="translate(114.013672 0)"/>
       <use xlink:href="#ArialMT-31" transform="translate(141.796875 0)"/>
       <use xlink:href="#ArialMT-32" transform="translate(197.412109 0)"/>
       <use xlink:href="#ArialMT-36" transform="translate(253.027344 0)"/>
      </g>
     </g>
    </g>
    <g id="ytick_7">
     <g id="line2d_26">
      <g>
       <use xlink:href="#mea2aa88983" x="296.029134" y="89.877165" style="stroke: #000000; stroke-width: 0.3"/>
      </g>
     </g>
     <g id="text_19">
      <!-- 0.096 -->
      <g transform="translate(299.529134 92.74029) scale(0.08 -0.08)">
       <defs>
        <path id="ArialMT-39" d="M 350 1059 
L 891 1109 
Q 959 728 1153 556 
Q 1347 384 1650 384 
Q 1909 384 2104 503 
Q 2300 622 2425 820 
Q 2550 1019 2634 1356 
Q 2719 1694 2719 2044 
Q 2719 2081 2716 2156 
Q 2547 1888 2255 1720 
Q 1963 1553 1622 1553 
Q 1053 1553 659 1965 
Q 266 2378 266 3053 
Q 266 3750 677 4175 
Q 1088 4600 1706 4600 
Q 2153 4600 2523 4359 
Q 2894 4119 3086 3673 
Q 3278 3228 3278 2384 
Q 3278 1506 3087 986 
Q 2897 466 2520 194 
Q 2144 -78 1638 -78 
Q 1100 -78 759 220 
Q 419 519 350 1059 
z
M 2653 3081 
Q 2653 3566 2395 3850 
Q 2138 4134 1775 4134 
Q 1400 4134 1122 3828 
Q 844 3522 844 3034 
Q 844 2597 1108 2323 
Q 1372 2050 1759 2050 
Q 2150 2050 2401 2323 
Q 2653 2597 2653 3081 
z
" transform="scale(0.015625)"/>
       </defs>
       <use xlink:href="#ArialMT-2212"/>
       <use xlink:href="#ArialMT-30" transform="translate(58.398438 0)"/>
       <use xlink:href="#ArialMT-2e" transform="translate(114.013672 0)"/>
       <use xlink:href="#ArialMT-30" transform="translate(141.796875 0)"/>
       <use xlink:href="#ArialMT-39" transform="translate(197.412109 0)"/>
       <use xlink:href="#ArialMT-36" transform="translate(253.027344 0)"/>
      </g>
     </g>
    </g>
    <g id="ytick_8">
     <g id="line2d_27">
      <g>
       <use xlink:href="#mea2aa88983" x="296.029134" y="72.23937" style="stroke: #000000; stroke-width: 0.3"/>
      </g>
     </g>
     <g id="text_20">
      <!-- 0.066 -->
      <g transform="translate(299.529134 75.102495) scale(0.08 -0.08)">
       <use xlink:href="#ArialMT-2212"/>
       <use xlink:href="#ArialMT-30" transform="translate(58.398438 0)"/>
       <use xlink:href="#ArialMT-2e" transform="translate(114.013672 0)"/>
       <use xlink:href="#ArialMT-30" transform="translate(141.796875 0)"/>
       <use xlink:href="#ArialMT-36" transform="translate(197.412109 0)"/>
       <use xlink:href="#ArialMT-36" transform="translate(253.027344 0)"/>
      </g>
     </g>
    </g>
    <g id="ytick_9">
     <g id="line2d_28">
      <g>
       <use xlink:href="#mea2aa88983" x="296.029134" y="54.601575" style="stroke: #000000; stroke-width: 0.3"/>
      </g>
     </g>
     <g id="text_21">
      <!-- 0.036 -->
      <g transform="translate(299.529134 57.4647) scale(0.08 -0.08)">
       <defs>
        <path id="ArialMT-33" d="M 269 1209 
L 831 1284 
Q 928 806 1161 595 
Q 1394 384 1728 384 
Q 2125 384 2398 659 
Q 2672 934 2672 1341 
Q 2672 1728 2419 1979 
Q 2166 2231 1775 2231 
Q 1616 2231 1378 2169 
L 1441 2663 
Q 1497 2656 1531 2656 
Q 1891 2656 2178 2843 
Q 2466 3031 2466 3422 
Q 2466 3731 2256 3934 
Q 2047 4138 1716 4138 
Q 1388 4138 1169 3931 
Q 950 3725 888 3313 
L 325 3413 
Q 428 3978 793 4289 
Q 1159 4600 1703 4600 
Q 2078 4600 2393 4439 
Q 2709 4278 2876 4000 
Q 3044 3722 3044 3409 
Q 3044 3113 2884 2869 
Q 2725 2625 2413 2481 
Q 2819 2388 3044 2092 
Q 3269 1797 3269 1353 
Q 3269 753 2831 336 
Q 2394 -81 1725 -81 
Q 1122 -81 723 278 
Q 325 638 269 1209 
z
" transform="scale(0.015625)"/>
       </defs>
       <use xlink:href="#ArialMT-2212"/>
       <use xlink:href="#ArialMT-30" transform="translate(58.398438 0)"/>
       <use xlink:href="#ArialMT-2e" transform="translate(114.013672 0)"/>
       <use xlink:href="#ArialMT-30" transform="translate(141.796875 0)"/>
       <use xlink:href="#ArialMT-33" transform="translate(197.412109 0)"/>
       <use xlink:href="#ArialMT-36" transform="translate(253.027344 0)"/>
      </g>
     </g>
    </g>
    <g id="ytick_10">
     <g id="line2d_29">
      <g>
       <use xlink:href="#mea2aa88983" x="296.029134" y="36.96378" style="stroke: #000000; stroke-width: 0.3"/>
      </g>
     </g>
     <g id="text_22">
      <!-- 0.006 -->
      <g transform="translate(299.529134 39.826905) scale(0.08 -0.08)">
       <use xlink:href="#ArialMT-2212"/>
       <use xlink:href="#ArialMT-30" transform="translate(58.398438 0)"/>
       <use xlink:href="#ArialMT-2e" transform="translate(114.013672 0)"/>
       <use xlink:href="#ArialMT-30" transform="translate(141.796875 0)"/>
       <use xlink:href="#ArialMT-30" transform="translate(197.412109 0)"/>
       <use xlink:href="#ArialMT-36" transform="translate(253.027344 0)"/>
      </g>
     </g>
    </g>
    <g id="text_23">
     <!-- Formation Energy (eV/atom) -->
     <g transform="translate(335.498821 179.408077) rotate(-90) scale(0.1 -0.1)">
      <defs>
       <path id="ArialMT-46" d="M 525 0 
L 525 4581 
L 3616 4581 
L 3616 4041 
L 1131 4041 
L 1131 2622 
L 3281 2622 
L 3281 2081 
L 1131 2081 
L 1131 0 
L 525 0 
z
" transform="scale(0.015625)"/>
       <path id="ArialMT-6f" d="M 213 1659 
Q 213 2581 725 3025 
Q 1153 3394 1769 3394 
Q 2453 3394 2887 2945 
Q 3322 2497 3322 1706 
Q 3322 1066 3130 698 
Q 2938 331 2570 128 
Q 2203 -75 1769 -75 
Q 1072 -75 642 372 
Q 213 819 213 1659 
z
M 791 1659 
Q 791 1022 1069 705 
Q 1347 388 1769 388 
Q 2188 388 2466 706 
Q 2744 1025 2744 1678 
Q 2744 2294 2464 2611 
Q 2184 2928 1769 2928 
Q 1347 2928 1069 2612 
Q 791 2297 791 1659 
z
" transform="scale(0.015625)"/>
       <path id="ArialMT-72" d="M 416 0 
L 416 3319 
L 922 3319 
L 922 2816 
Q 1116 3169 1280 3281 
Q 1444 3394 1641 3394 
Q 1925 3394 2219 3213 
L 2025 2691 
Q 1819 2813 1613 2813 
Q 1428 2813 1281 2702 
Q 1134 2591 1072 2394 
Q 978 2094 978 1738 
L 978 0 
L 416 0 
z
" transform="scale(0.015625)"/>
       <path id="ArialMT-6d" d="M 422 0 
L 422 3319 
L 925 3319 
L 925 2853 
Q 1081 3097 1340 3245 
Q 1600 3394 1931 3394 
Q 2300 3394 2536 3241 
Q 2772 3088 2869 2813 
Q 3263 3394 3894 3394 
Q 4388 3394 4653 3120 
Q 4919 2847 4919 2278 
L 4919 0 
L 4359 0 
L 4359 2091 
Q 4359 2428 4304 2576 
Q 4250 2725 4106 2815 
Q 3963 2906 3769 2906 
Q 3419 2906 3187 2673 
Q 2956 2441 2956 1928 
L 2956 0 
L 2394 0 
L 2394 2156 
Q 2394 2531 2256 2718 
Q 2119 2906 1806 2906 
Q 1569 2906 1367 2781 
Q 1166 2656 1075 2415 
Q 984 2175 984 1722 
L 984 0 
L 422 0 
z
" transform="scale(0.015625)"/>
       <path id="ArialMT-61" d="M 2588 409 
Q 2275 144 1986 34 
Q 1697 -75 1366 -75 
Q 819 -75 525 192 
Q 231 459 231 875 
Q 231 1119 342 1320 
Q 453 1522 633 1644 
Q 813 1766 1038 1828 
Q 1203 1872 1538 1913 
Q 2219 1994 2541 2106 
Q 2544 2222 2544 2253 
Q 2544 2597 2384 2738 
Q 2169 2928 1744 2928 
Q 1347 2928 1158 2789 
Q 969 2650 878 2297 
L 328 2372 
Q 403 2725 575 2942 
Q 747 3159 1072 3276 
Q 1397 3394 1825 3394 
Q 2250 3394 2515 3294 
Q 2781 3194 2906 3042 
Q 3031 2891 3081 2659 
Q 3109 2516 3109 2141 
L 3109 1391 
Q 3109 606 3145 398 
Q 3181 191 3288 0 
L 2700 0 
Q 2613 175 2588 409 
z
M 2541 1666 
Q 2234 1541 1622 1453 
Q 1275 1403 1131 1340 
Q 988 1278 909 1158 
Q 831 1038 831 891 
Q 831 666 1001 516 
Q 1172 366 1500 366 
Q 1825 366 2078 508 
Q 2331 650 2450 897 
Q 2541 1088 2541 1459 
L 2541 1666 
z
" transform="scale(0.015625)"/>
       <path id="ArialMT-74" d="M 1650 503 
L 1731 6 
Q 1494 -44 1306 -44 
Q 1000 -44 831 53 
Q 663 150 594 308 
Q 525 466 525 972 
L 525 2881 
L 113 2881 
L 113 3319 
L 525 3319 
L 525 4141 
L 1084 4478 
L 1084 3319 
L 1650 3319 
L 1650 2881 
L 1084 2881 
L 1084 941 
Q 1084 700 1114 631 
Q 1144 563 1211 522 
Q 1278 481 1403 481 
Q 1497 481 1650 503 
z
" transform="scale(0.015625)"/>
       <path id="ArialMT-69" d="M 425 3934 
L 425 4581 
L 988 4581 
L 988 3934 
L 425 3934 
z
M 425 0 
L 425 3319 
L 988 3319 
L 988 0 
L 425 0 
z
" transform="scale(0.015625)"/>
       <path id="ArialMT-6e" d="M 422 0 
L 422 3319 
L 928 3319 
L 928 2847 
Q 1294 3394 1984 3394 
Q 2284 3394 2536 3286 
Q 2788 3178 2913 3003 
Q 3038 2828 3088 2588 
Q 3119 2431 3119 2041 
L 3119 0 
L 2556 0 
L 2556 2019 
Q 2556 2363 2490 2533 
Q 2425 2703 2258 2804 
Q 2091 2906 1866 2906 
Q 1506 2906 1245 2678 
Q 984 2450 984 1813 
L 984 0 
L 422 0 
z
" transform="scale(0.015625)"/>
       <path id="ArialMT-20" transform="scale(0.015625)"/>
       <path id="ArialMT-45" d="M 506 0 
L 506 4581 
L 3819 4581 
L 3819 4041 
L 1113 4041 
L 1113 2638 
L 3647 2638 
L 3647 2100 
L 1113 2100 
L 1113 541 
L 3925 541 
L 3925 0 
L 506 0 
z
" transform="scale(0.015625)"/>
       <path id="ArialMT-65" d="M 2694 1069 
L 3275 997 
Q 3138 488 2766 206 
Q 2394 -75 1816 -75 
Q 1088 -75 661 373 
Q 234 822 234 1631 
Q 234 2469 665 2931 
Q 1097 3394 1784 3394 
Q 2450 3394 2872 2941 
Q 3294 2488 3294 1666 
Q 3294 1616 3291 1516 
L 816 1516 
Q 847 969 1125 678 
Q 1403 388 1819 388 
Q 2128 388 2347 550 
Q 2566 713 2694 1069 
z
M 847 1978 
L 2700 1978 
Q 2663 2397 2488 2606 
Q 2219 2931 1791 2931 
Q 1403 2931 1139 2672 
Q 875 2413 847 1978 
z
" transform="scale(0.015625)"/>
       <path id="ArialMT-67" d="M 319 -275 
L 866 -356 
Q 900 -609 1056 -725 
Q 1266 -881 1628 -881 
Q 2019 -881 2231 -725 
Q 2444 -569 2519 -288 
Q 2563 -116 2559 434 
Q 2191 0 1641 0 
Q 956 0 581 494 
Q 206 988 206 1678 
Q 206 2153 378 2554 
Q 550 2956 876 3175 
Q 1203 3394 1644 3394 
Q 2231 3394 2613 2919 
L 2613 3319 
L 3131 3319 
L 3131 450 
Q 3131 -325 2973 -648 
Q 2816 -972 2473 -1159 
Q 2131 -1347 1631 -1347 
Q 1038 -1347 672 -1080 
Q 306 -813 319 -275 
z
M 784 1719 
Q 784 1066 1043 766 
Q 1303 466 1694 466 
Q 2081 466 2343 764 
Q 2606 1063 2606 1700 
Q 2606 2309 2336 2618 
Q 2066 2928 1684 2928 
Q 1309 2928 1046 2623 
Q 784 2319 784 1719 
z
" transform="scale(0.015625)"/>
       <path id="ArialMT-79" d="M 397 -1278 
L 334 -750 
Q 519 -800 656 -800 
Q 844 -800 956 -737 
Q 1069 -675 1141 -563 
Q 1194 -478 1313 -144 
Q 1328 -97 1363 -6 
L 103 3319 
L 709 3319 
L 1400 1397 
Q 1534 1031 1641 628 
Q 1738 1016 1872 1384 
L 2581 3319 
L 3144 3319 
L 1881 -56 
Q 1678 -603 1566 -809 
Q 1416 -1088 1222 -1217 
Q 1028 -1347 759 -1347 
Q 597 -1347 397 -1278 
z
" transform="scale(0.015625)"/>
       <path id="ArialMT-28" d="M 1497 -1347 
Q 1031 -759 709 28 
Q 388 816 388 1659 
Q 388 2403 628 3084 
Q 909 3875 1497 4659 
L 1900 4659 
Q 1522 4009 1400 3731 
Q 1209 3300 1100 2831 
Q 966 2247 966 1656 
Q 966 153 1900 -1347 
L 1497 -1347 
z
" transform="scale(0.015625)"/>
       <path id="ArialMT-56" d="M 1803 0 
L 28 4581 
L 684 4581 
L 1875 1253 
Q 2019 853 2116 503 
Q 2222 878 2363 1253 
L 3600 4581 
L 4219 4581 
L 2425 0 
L 1803 0 
z
" transform="scale(0.015625)"/>
       <path id="ArialMT-2f" d="M 0 -78 
L 1328 4659 
L 1778 4659 
L 453 -78 
L 0 -78 
z
" transform="scale(0.015625)"/>
       <path id="ArialMT-29" d="M 791 -1347 
L 388 -1347 
Q 1322 153 1322 1656 
Q 1322 2244 1188 2822 
Q 1081 3291 891 3722 
Q 769 4003 388 4659 
L 791 4659 
Q 1378 3875 1659 3084 
Q 1900 2403 1900 1659 
Q 1900 816 1576 28 
Q 1253 -759 791 -1347 
z
" transform="scale(0.015625)"/>
      </defs>
      <use xlink:href="#ArialMT-46"/>
      <use xlink:href="#ArialMT-6f" transform="translate(61.083984 0)"/>
      <use xlink:href="#ArialMT-72" transform="translate(116.699219 0)"/>
      <use xlink:href="#ArialMT-6d" transform="translate(150 0)"/>
      <use xlink:href="#ArialMT-61" transform="translate(233.300781 0)"/>
      <use xlink:href="#ArialMT-74" transform="translate(288.916016 0)"/>
      <use xlink:href="#ArialMT-69" transform="translate(316.699219 0)"/>
      <use xlink:href="#ArialMT-6f" transform="translate(338.916016 0)"/>
      <use xlink:href="#ArialMT-6e" transform="translate(394.53125 0)"/>
      <use xlink:href="#ArialMT-20" transform="translate(450.146484 0)"/>
      <use xlink:href="#ArialMT-45" transform="translate(477.929688 0)"/>
      <use xlink:href="#ArialMT-6e" transform="translate(544.628906 0)"/>
      <use xlink:href="#ArialMT-65" transform="translate(600.244141 0)"/>
      <use xlink:href="#ArialMT-72" transform="translate(655.859375 0)"/>
      <use xlink:href="#ArialMT-67" transform="translate(689.160156 0)"/>
      <use xlink:href="#ArialMT-79" transform="translate(744.775391 0)"/>
      <use xlink:href="#ArialMT-20" transform="translate(794.775391 0)"/>
      <use xlink:href="#ArialMT-28" transform="translate(822.558594 0)"/>
      <use xlink:href="#ArialMT-65" transform="translate(855.859375 0)"/>
      <use xlink:href="#ArialMT-56" transform="translate(911.474609 0)"/>
      <use xlink:href="#ArialMT-2f" transform="translate(978.173828 0)"/>
      <use xlink:href="#ArialMT-61" transform="translate(1005.957031 0)"/>
      <use xlink:href="#ArialMT-74" transform="translate(1061.572266 0)"/>
      <use xlink:href="#ArialMT-6f" transform="translate(1089.355469 0)"/>
      <use xlink:href="#ArialMT-6d" transform="translate(1144.970703 0)"/>
      <use xlink:href="#ArialMT-29" transform="translate(1228.271484 0)"/>
     </g>
    </g>
   </g>
   <g id="LineCollection_1"/>
   <g id="patch_6">
    <path d="M 287.298425 195.703937 
L 291.66378 203.640945 
L 296.029134 195.703937 
L 296.029134 36.96378 
L 291.66378 29.026772 
L 287.298425 36.96378 
L 287.298425 195.703937 
z
" style="fill: none; stroke: #000000; stroke-width: 0.8; stroke-linejoin: miter; stroke-linecap: square"/>
   </g>
  </g>
 </g>
 <defs>
  <clipPath id="p7f12d9e908">
   <rect x="7.2" y="7.2" width="263.622047" height="218.267717"/>
  </clipPath>
  <clipPath id="pa5744ba290">
   <rect x="287.298425" y="36.96378" width="8.730709" height="158.740157"/>
  </clipPath>
 </defs>
</svg>
