<?xml version="1.0" encoding="utf-8" standalone="no"?>
<!DOCTYPE svg PUBLIC "-//W3C//DTD SVG 1.1//EN"
  "http://www.w3.org/Graphics/SVG/1.1/DTD/svg11.dtd">
<svg xmlns:xlink="http://www.w3.org/1999/xlink" width="340.354759pt" height="232.667717pt" viewBox="0 0 340.354759 232.667717" xmlns="http://www.w3.org/2000/svg" version="1.1">
 <metadata>
  <rdf:RDF xmlns:dc="http://purl.org/dc/elements/1.1/" xmlns:cc="http://creativecommons.org/ns#" xmlns:rdf="http://www.w3.org/1999/02/22-rdf-syntax-ns#">
   <cc:Work>
    <dc:type rdf:resource="http://purl.org/dc/dcmitype/StillImage"/>
    <dc:date>2026-01-27T21:37:31.172756</dc:date>
    <dc:format>image/svg+xml</dc:format>
    <dc:creator>
     <cc:Agent>
      <dc:title>Matplotlib v3.10.8, https://matplotlib.org/</dc:title>
     </cc:Agent>
    </dc:creator>
   </cc:Work>
  </rdf:RDF>
 </metadata>
 <defs>
  <style type="text/css">*{stroke-linejoin: round; stroke-linecap: butt}</style>
 </defs>
 <g id="figure_1">
  <g id="patch_1">
   <path d="M 0 232.667717 
L 340.354759 232.667717 
L 340.354759 0 
L 0 0 
L 0 232.667717 
z
" style="fill: none"/>
  </g>
  <g id="axes_1">
   <g id="patch_2">
    <path d="M 7.2 225.467717 
L 270.822047 225.467717 
L 270.822047 7.2 
L 7.2 7.2 
L 7.2 225.467717 
z
" style="fill: none"/>
   </g>
   <g id="TriContourSet_1">
    <path d="M 200.186282 214.554331 
L 199.643786 212.287 
L 198.925125 210.595526 
L 197.983212 209.205309 
L 197.795851 209.210142 
L 195.381171 210.827343 
L 192.289122 214.554331 
L 198.925125 214.554331 
z
" clip-path="url(#p5727ecdc12)" style="fill: #440154; fill-opacity: 0.7"/>
    <path d="M 192.289122 214.554331 
L 195.381171 210.827343 
L 197.795851 209.210142 
L 197.983212 209.205309 
L 198.925125 210.595526 
L 199.643786 212.287 
L 200.186282 214.554331 
L 201.582781 214.554331 
L 200.43957 209.776349 
L 198.925125 206.21188 
L 196.940217 203.282252 
L 196.545388 203.292437 
L 191.456895 206.700392 
L 184.940971 214.554331 
z
" clip-path="url(#p5727ecdc12)" style="fill: #450559; fill-opacity: 0.7"/>
    <path d="M 184.940971 214.554331 
L 191.456895 206.700392 
L 196.545388 203.292437 
L 196.940217 203.282252 
L 198.925125 206.21188 
L 200.43957 209.776349 
L 201.582781 214.554331 
L 202.979279 214.554331 
L 201.235354 207.265697 
L 198.925125 201.828233 
L 195.897222 197.359195 
L 195.294924 197.374732 
L 187.532619 202.57344 
L 177.59282 214.554331 
z
" clip-path="url(#p5727ecdc12)" style="fill: #470e61; fill-opacity: 0.7"/>
    <path d="M 177.59282 214.554331 
L 187.532619 202.57344 
L 195.294924 197.374732 
L 195.897222 197.359195 
L 198.925125 201.828233 
L 201.235354 207.265697 
L 202.979279 214.554331 
L 204.375778 214.554331 
L 202.031138 204.755046 
L 198.925125 197.444586 
L 194.854227 191.436138 
L 194.044461 191.457027 
L 183.608343 198.446488 
L 170.244669 214.554331 
z
" clip-path="url(#p5727ecdc12)" style="fill: #481769; fill-opacity: 0.7"/>
    <path d="M 170.244669 214.554331 
L 183.608343 198.446488 
L 194.044461 191.457027 
L 194.854227 191.436138 
L 198.925125 197.444586 
L 202.031138 204.755046 
L 204.375778 214.554331 
L 205.772277 214.554331 
L 202.826923 202.244395 
L 198.925125 193.060939 
L 193.811231 185.513082 
L 192.793998 185.539322 
L 179.684066 194.319536 
L 162.896518 214.554331 
z
" clip-path="url(#p5727ecdc12)" style="fill: #481f70; fill-opacity: 0.7"/>
    <path d="M 162.896518 214.554331 
L 179.684066 194.319536 
L 192.793998 185.539322 
L 193.811231 185.513082 
L 198.925125 193.060939 
L 202.826923 202.244395 
L 205.772277 214.554331 
L 207.168775 214.554331 
L 203.622707 199.733744 
L 198.925125 188.677293 
L 192.768236 179.590025 
L 191.543534 179.621617 
L 175.75979 190.192584 
L 155.548367 214.554331 
z
" clip-path="url(#p5727ecdc12)" style="fill: #482878; fill-opacity: 0.7"/>
    <path d="M 155.548367 214.554331 
L 175.75979 190.192584 
L 191.543534 179.621617 
L 192.768236 179.590025 
L 198.925125 188.677293 
L 203.622707 199.733744 
L 207.168775 214.554331 
L 208.565274 214.554331 
L 204.418491 197.223093 
L 198.925125 184.293646 
L 191.725241 173.666968 
L 190.293071 173.703912 
L 171.835514 186.065632 
L 148.200216 214.554331 
z
" clip-path="url(#p5727ecdc12)" style="fill: #472f7d; fill-opacity: 0.7"/>
    <path d="M 148.200216 214.554331 
L 171.835514 186.065632 
L 190.293071 173.703912 
L 191.725241 173.666968 
L 198.925125 184.293646 
L 204.418491 197.223093 
L 208.565274 214.554331 
L 209.961773 214.554331 
L 205.214275 194.712441 
L 198.925125 179.909999 
L 190.682246 167.743911 
L 189.042608 167.786207 
L 167.911238 181.938681 
L 140.852065 214.554331 
z
" clip-path="url(#p5727ecdc12)" style="fill: #453781; fill-opacity: 0.7"/>
    <path d="M 140.852065 214.554331 
L 167.911238 181.938681 
L 189.042608 167.786207 
L 190.682246 167.743911 
L 198.925125 179.909999 
L 205.214275 194.712441 
L 209.961773 214.554331 
L 211.358271 214.554331 
L 206.010059 192.20179 
L 198.925125 175.526353 
L 189.639251 161.820855 
L 187.792144 161.868502 
L 163.986961 177.811729 
L 133.503913 214.554331 
z
" clip-path="url(#p5727ecdc12)" style="fill: #433e85; fill-opacity: 0.7"/>
    <path d="M 133.503913 214.554331 
L 163.986961 177.811729 
L 187.792144 161.868502 
L 189.639251 161.820855 
L 198.925125 175.526353 
L 206.010059 192.20179 
L 211.358271 214.554331 
L 212.75477 214.554331 
L 206.805843 189.691139 
L 198.925125 171.142706 
L 188.596256 155.897798 
L 186.541681 155.950798 
L 160.062685 173.684777 
L 126.155762 214.554331 
z
" clip-path="url(#p5727ecdc12)" style="fill: #404688; fill-opacity: 0.7"/>
    <path d="M 126.155762 214.554331 
L 160.062685 173.684777 
L 186.541681 155.950798 
L 188.596256 155.897798 
L 198.925125 171.142706 
L 206.805843 189.691139 
L 212.75477 214.554331 
L 214.151269 214.554331 
L 207.601628 187.180488 
L 198.925125 166.759059 
L 187.55326 149.974741 
L 185.291218 150.033093 
L 156.138409 169.557825 
L 118.807611 214.554331 
z
" clip-path="url(#p5727ecdc12)" style="fill: #3d4d8a; fill-opacity: 0.7"/>
    <path d="M 118.807611 214.554331 
L 156.138409 169.557825 
L 185.291218 150.033093 
L 187.55326 149.974741 
L 198.925125 166.759059 
L 207.601628 187.180488 
L 214.151269 214.554331 
L 215.547768 214.554331 
L 208.397412 184.669836 
L 198.925125 162.375413 
L 186.510265 144.051684 
L 184.040754 144.115388 
L 152.214133 165.430873 
L 111.45946 214.554331 
z
" clip-path="url(#p5727ecdc12)" style="fill: #3a538b; fill-opacity: 0.7"/>
    <path d="M 111.45946 214.554331 
L 152.214133 165.430873 
L 184.040754 144.115388 
L 186.510265 144.051684 
L 198.925125 162.375413 
L 208.397412 184.669836 
L 215.547768 214.554331 
L 216.944266 214.554331 
L 209.193196 182.159185 
L 198.925125 157.991766 
L 185.46727 138.128628 
L 182.790291 138.197683 
L 148.289856 161.303921 
L 104.111309 214.554331 
z
" clip-path="url(#p5727ecdc12)" style="fill: #375a8c; fill-opacity: 0.7"/>
    <path d="M 104.111309 214.554331 
L 148.289856 161.303921 
L 182.790291 138.197683 
L 185.46727 138.128628 
L 198.925125 157.991766 
L 209.193196 182.159185 
L 216.944266 214.554331 
L 218.340765 214.554331 
L 209.98898 179.648534 
L 198.925125 153.608119 
L 184.424275 132.205571 
L 181.539828 132.279978 
L 144.36558 157.17697 
L 106.53482 202.776102 
L 99.495739 212.531465 
L 98.21339 214.554331 
L 99.068289 214.554331 
z
" clip-path="url(#p5727ecdc12)" style="fill: #34618d; fill-opacity: 0.7"/>
    <path d="M 98.21339 214.554331 
L 99.495739 212.531465 
L 106.53482 202.776102 
L 144.36558 157.17697 
L 181.539828 132.279978 
L 184.424275 132.205571 
L 198.925125 153.608119 
L 209.98898 179.648534 
L 218.340765 214.554331 
L 219.737264 214.554331 
L 210.784764 177.137883 
L 198.925125 149.224473 
L 183.38128 126.282514 
L 180.289364 126.362273 
L 140.441304 153.050018 
L 130.336155 165.230213 
L 100.858335 206.083102 
L 95.488198 214.554331 
z
" clip-path="url(#p5727ecdc12)" style="fill: #31678e; fill-opacity: 0.7"/>
    <path d="M 95.488198 214.554331 
L 100.858335 206.083102 
L 130.336155 165.230213 
L 140.441304 153.050018 
L 180.289364 126.362273 
L 183.38128 126.282514 
L 198.925125 149.224473 
L 210.784764 177.137883 
L 219.737264 214.554331 
L 221.133762 214.554331 
L 211.580549 174.627231 
L 198.925125 144.840826 
L 182.338284 120.359458 
L 179.038901 120.444568 
L 141.202088 145.785305 
L 139.011024 148.647876 
L 102.220931 199.634739 
L 92.763006 214.554331 
z
" clip-path="url(#p5727ecdc12)" style="fill: #2e6d8e; fill-opacity: 0.7"/>
    <path d="M 92.763006 214.554331 
L 102.220931 199.634739 
L 139.011024 148.647876 
L 141.202088 145.785305 
L 179.038901 120.444568 
L 182.338284 120.359458 
L 198.925125 144.840826 
L 211.580549 174.627231 
L 221.133762 214.554331 
L 222.530261 214.554331 
L 212.376333 172.11658 
L 198.925125 140.457179 
L 181.295289 114.436401 
L 177.788438 114.526863 
L 144.649704 136.721119 
L 139.011024 144.087915 
L 103.583527 193.186377 
L 90.037814 214.554331 
z
" clip-path="url(#p5727ecdc12)" style="fill: #2c728e; fill-opacity: 0.7"/>
    <path d="M 90.037814 214.554331 
L 103.583527 193.186377 
L 139.011024 144.087915 
L 144.649704 136.721119 
L 177.788438 114.526863 
L 181.295289 114.436401 
L 198.925125 140.457179 
L 212.376333 172.11658 
L 222.530261 214.554331 
L 223.92676 214.554331 
L 213.172117 169.605929 
L 198.925125 136.073533 
L 180.252294 108.513344 
L 176.537974 108.609158 
L 148.097321 127.656933 
L 139.011024 139.527955 
L 104.946123 186.738014 
L 87.312622 214.554331 
z
" clip-path="url(#p5727ecdc12)" style="fill: #29798e; fill-opacity: 0.7"/>
    <path d="M 87.312622 214.554331 
L 104.946123 186.738014 
L 139.011024 139.527955 
L 148.097321 127.656933 
L 176.537974 108.609158 
L 180.252294 108.513344 
L 198.925125 136.073533 
L 213.172117 169.605929 
L 223.92676 214.554331 
L 225.323258 214.554331 
L 213.967901 167.095278 
L 198.925125 131.689886 
L 179.209299 102.590287 
L 175.287511 102.691453 
L 151.544938 118.592748 
L 139.011024 134.967994 
L 106.308719 180.289651 
L 84.58743 214.554331 
z
" clip-path="url(#p5727ecdc12)" style="fill: #277f8e; fill-opacity: 0.7"/>
    <path d="M 84.58743 214.554331 
L 106.308719 180.289651 
L 139.011024 134.967994 
L 151.544938 118.592748 
L 175.287511 102.691453 
L 179.209299 102.590287 
L 198.925125 131.689886 
L 213.967901 167.095278 
L 225.323258 214.554331 
L 226.719757 214.554331 
L 214.763685 164.584627 
L 198.925125 127.306239 
L 178.166304 96.667231 
L 174.037048 96.773749 
L 154.992554 109.528562 
L 139.011024 130.408034 
L 107.671315 173.841288 
L 81.862238 214.554331 
z
" clip-path="url(#p5727ecdc12)" style="fill: #25848e; fill-opacity: 0.7"/>
    <path d="M 81.862238 214.554331 
L 107.671315 173.841288 
L 139.011024 130.408034 
L 154.992554 109.528562 
L 174.037048 96.773749 
L 178.166304 96.667231 
L 198.925125 127.306239 
L 214.763685 164.584627 
L 226.719757 214.554331 
L 228.116256 214.554331 
L 215.559469 162.073975 
L 198.925125 122.922592 
L 177.123309 90.744174 
L 172.786584 90.856044 
L 158.440171 100.464376 
L 139.011024 125.848074 
L 109.033911 167.392925 
L 79.137046 214.554331 
z
" clip-path="url(#p5727ecdc12)" style="fill: #238a8d; fill-opacity: 0.7"/>
    <path d="M 79.137046 214.554331 
L 109.033911 167.392925 
L 139.011024 125.848074 
L 158.440171 100.464376 
L 172.786584 90.856044 
L 177.123309 90.744174 
L 198.925125 122.922592 
L 215.559469 162.073975 
L 228.116256 214.554331 
L 229.512754 214.554331 
L 216.355254 159.563324 
L 200.86114 123.095642 
L 198.925125 120.041637 
L 184.123009 96.691745 
L 176.080313 84.821117 
L 171.536121 84.938339 
L 161.887787 91.400191 
L 139.011024 121.288113 
L 110.396507 160.944563 
L 76.411854 214.554331 
z
" clip-path="url(#p5727ecdc12)" style="fill: #21918c; fill-opacity: 0.7"/>
    <path d="M 76.411854 214.554331 
L 110.396507 160.944563 
L 139.011024 121.288113 
L 161.887787 91.400191 
L 171.536121 84.938339 
L 176.080313 84.821117 
L 184.123009 96.691745 
L 175.88124 83.690601 
L 172.878425 78.953751 
L 170.285658 79.020634 
L 165.335404 82.336005 
L 139.011024 116.728153 
L 111.759103 154.4962 
L 73.686662 214.554331 
z
M 230.909253 214.554331 
L 217.151038 157.052673 
L 206.508877 132.004777 
L 200.86114 123.095642 
L 216.355254 159.563324 
L 229.512754 214.554331 
z
" clip-path="url(#p5727ecdc12)" style="fill: #1f968b; fill-opacity: 0.7"/>
    <path d="M 73.686662 214.554331 
L 111.759103 154.4962 
L 139.011024 116.728153 
L 165.335404 82.336005 
L 170.285658 79.020634 
L 172.878425 78.953751 
L 169.167274 73.099522 
L 169.035194 73.102929 
L 168.78302 73.271819 
L 139.011024 112.168192 
L 113.121699 148.047837 
L 70.96147 214.554331 
z
M 232.305752 214.554331 
L 217.946822 154.542022 
L 212.156613 140.913912 
L 206.508877 132.004777 
L 217.151038 157.052673 
L 230.909253 214.554331 
z
" clip-path="url(#p5727ecdc12)" style="fill: #1e9c89; fill-opacity: 0.7"/>
    <path d="M 167.471791 70.424948 
L 139.011024 107.608232 
L 114.484295 141.599474 
L 68.236278 214.554331 
L 70.96147 214.554331 
L 113.121699 148.047837 
L 139.011024 112.168192 
L 168.78302 73.271819 
L 169.035194 73.102929 
L 169.167274 73.099522 
L 168.968074 72.78529 
z
M 233.70225 214.554331 
L 218.742606 152.03137 
L 217.80435 149.823047 
L 212.156613 140.913912 
L 217.946822 154.542022 
L 232.305752 214.554331 
z
" clip-path="url(#p5727ecdc12)" style="fill: #1fa187; fill-opacity: 0.7"/>
    <path d="M 165.890637 67.930725 
L 139.011024 103.048271 
L 115.846891 135.151111 
L 65.511086 214.554331 
L 68.236278 214.554331 
L 114.484295 141.599474 
L 139.011024 107.608232 
L 167.471791 70.424948 
z
M 235.098749 214.554331 
L 220.70586 154.400091 
L 218.896492 151.545868 
L 217.80435 149.823047 
L 218.742606 152.03137 
L 233.70225 214.554331 
z
" clip-path="url(#p5727ecdc12)" style="fill: #22a785; fill-opacity: 0.7"/>
    <path d="M 164.309483 65.436503 
L 139.011024 98.488311 
L 117.209487 128.702748 
L 62.785893 214.554331 
L 65.511086 214.554331 
L 115.846891 135.151111 
L 139.011024 103.048271 
L 165.890637 67.930725 
z
M 236.495248 214.554331 
L 222.948999 157.938576 
L 220.70586 154.400091 
L 235.098749 214.554331 
z
" clip-path="url(#p5727ecdc12)" style="fill: #27ad81; fill-opacity: 0.7"/>
    <path d="M 162.72833 62.94228 
L 139.011024 93.92835 
L 118.572083 122.254386 
L 60.060701 214.554331 
L 62.785893 214.554331 
L 117.209487 128.702748 
L 139.011024 98.488311 
L 164.309483 65.436503 
z
M 237.891747 214.554331 
L 225.192139 161.477061 
L 222.948999 157.938576 
L 236.495248 214.554331 
z
" clip-path="url(#p5727ecdc12)" style="fill: #2eb37c; fill-opacity: 0.7"/>
    <path d="M 161.147176 60.448058 
L 139.011024 89.36839 
L 119.934679 115.806023 
L 57.335509 214.554331 
L 60.060701 214.554331 
L 118.572083 122.254386 
L 139.011024 93.92835 
L 162.72833 62.94228 
z
M 239.288245 214.554331 
L 227.435278 165.015545 
L 225.192139 161.477061 
L 237.891747 214.554331 
z
" clip-path="url(#p5727ecdc12)" style="fill: #37b878; fill-opacity: 0.7"/>
    <path d="M 159.566022 57.953835 
L 139.011024 84.808429 
L 121.297275 109.35766 
L 54.610317 214.554331 
L 57.335509 214.554331 
L 119.934679 115.806023 
L 139.011024 89.36839 
L 161.147176 60.448058 
z
M 240.684744 214.554331 
L 229.678417 168.55403 
L 227.435278 165.015545 
L 239.288245 214.554331 
z
" clip-path="url(#p5727ecdc12)" style="fill: #40bd72; fill-opacity: 0.7"/>
    <path d="M 157.984868 55.459613 
L 139.011024 80.248469 
L 122.659871 102.909297 
L 51.885125 214.554331 
L 54.610317 214.554331 
L 121.297275 109.35766 
L 139.011024 84.808429 
L 159.566022 57.953835 
z
M 242.081243 214.554331 
L 231.921556 172.092515 
L 229.678417 168.55403 
L 240.684744 214.554331 
z
" clip-path="url(#p5727ecdc12)" style="fill: #4ec36b; fill-opacity: 0.7"/>
    <path d="M 156.403715 52.96539 
L 139.011024 75.688508 
L 124.022467 96.460934 
L 49.159933 214.554331 
L 51.885125 214.554331 
L 122.659871 102.909297 
L 139.011024 80.248469 
L 157.984868 55.459613 
z
M 243.477741 214.554331 
L 234.164695 175.630999 
L 231.921556 172.092515 
L 242.081243 214.554331 
z
" clip-path="url(#p5727ecdc12)" style="fill: #5ac864; fill-opacity: 0.7"/>
    <path d="M 154.822561 50.471168 
L 139.011024 71.128548 
L 125.385063 90.012572 
L 46.434741 214.554331 
L 49.159933 214.554331 
L 124.022467 96.460934 
L 139.011024 75.688508 
L 156.403715 52.96539 
z
M 244.87424 214.554331 
L 236.407835 179.169484 
L 234.164695 175.630999 
L 243.477741 214.554331 
z
" clip-path="url(#p5727ecdc12)" style="fill: #67cc5c; fill-opacity: 0.7"/>
    <path d="M 153.241407 47.976945 
L 139.011024 66.568588 
L 126.747659 83.564209 
L 43.709549 214.554331 
L 46.434741 214.554331 
L 125.385063 90.012572 
L 139.011024 71.128548 
L 154.822561 50.471168 
z
M 246.270739 214.554331 
L 238.650974 182.707969 
L 236.407835 179.169484 
L 244.87424 214.554331 
z
" clip-path="url(#p5727ecdc12)" style="fill: #75d054; fill-opacity: 0.7"/>
    <path d="M 151.660253 45.482723 
L 139.011024 62.008627 
L 128.110255 77.115846 
L 40.984357 214.554331 
L 43.709549 214.554331 
L 126.747659 83.564209 
L 139.011024 66.568588 
L 153.241407 47.976945 
z
M 247.667237 214.554331 
L 240.894113 186.246453 
L 238.650974 182.707969 
L 246.270739 214.554331 
z
" clip-path="url(#p5727ecdc12)" style="fill: #86d549; fill-opacity: 0.7"/>
    <path d="M 150.0791 42.988501 
L 139.011024 57.448667 
L 129.472851 70.667483 
L 38.259165 214.554331 
L 40.984357 214.554331 
L 128.110255 77.115846 
L 139.011024 62.008627 
L 151.660253 45.482723 
z
M 249.063736 214.554331 
L 243.137252 189.784938 
L 240.894113 186.246453 
L 247.667237 214.554331 
z
" clip-path="url(#p5727ecdc12)" style="fill: #95d840; fill-opacity: 0.7"/>
    <path d="M 148.497946 40.494278 
L 139.011024 52.888706 
L 130.835447 64.21912 
L 35.533973 214.554331 
L 38.259165 214.554331 
L 129.472851 70.667483 
L 139.011024 57.448667 
L 150.0791 42.988501 
z
M 250.460235 214.554331 
L 245.380392 193.323423 
L 243.137252 189.784938 
L 249.063736 214.554331 
z
" clip-path="url(#p5727ecdc12)" style="fill: #a5db36; fill-opacity: 0.7"/>
    <path d="M 146.916792 38.000056 
L 139.011024 48.328746 
L 132.198043 57.770757 
L 32.808781 214.554331 
L 35.533973 214.554331 
L 130.835447 64.21912 
L 139.011024 52.888706 
L 148.497946 40.494278 
z
M 251.856733 214.554331 
L 247.623531 196.861907 
L 245.380392 193.323423 
L 250.460235 214.554331 
z
" clip-path="url(#p5727ecdc12)" style="fill: #b5de2b; fill-opacity: 0.7"/>
    <path d="M 145.335639 35.505833 
L 139.011024 43.768785 
L 133.560639 51.322395 
L 30.083589 214.554331 
L 32.808781 214.554331 
L 132.198043 57.770757 
L 139.011024 48.328746 
L 146.916792 38.000056 
z
M 253.253232 214.554331 
L 249.86667 200.400392 
L 247.623531 196.861907 
L 251.856733 214.554331 
z
" clip-path="url(#p5727ecdc12)" style="fill: #c8e020; fill-opacity: 0.7"/>
    <path d="M 143.754485 33.011611 
L 139.011024 39.208825 
L 134.923236 44.874032 
L 27.358397 214.554331 
L 30.083589 214.554331 
L 133.560639 51.322395 
L 139.011024 43.768785 
L 145.335639 35.505833 
z
M 254.649731 214.554331 
L 252.109809 203.938877 
L 249.86667 200.400392 
L 253.253232 214.554331 
z
" clip-path="url(#p5727ecdc12)" style="fill: #d8e219; fill-opacity: 0.7"/>
    <path d="M 142.173331 30.517388 
L 139.011024 34.648864 
L 136.285832 38.425669 
L 24.633204 214.554331 
L 27.358397 214.554331 
L 134.923236 44.874032 
L 139.011024 39.208825 
L 143.754485 33.011611 
z
M 256.04623 214.554331 
L 254.352948 207.477361 
L 252.109809 203.938877 
L 254.649731 214.554331 
z
" clip-path="url(#p5727ecdc12)" style="fill: #e7e419; fill-opacity: 0.7"/>
    <path d="M 140.592177 28.023166 
L 139.011024 30.088904 
L 137.648428 31.977306 
L 21.908012 214.554331 
L 24.633204 214.554331 
L 136.285832 38.425669 
L 139.011024 34.648864 
L 142.173331 30.517388 
z
M 257.442728 214.554331 
L 256.596088 211.015846 
L 254.352948 207.477361 
L 256.04623 214.554331 
z
" clip-path="url(#p5727ecdc12)" style="fill: #f6e620; fill-opacity: 0.7"/>
    <path d="M 21.908012 214.554331 
L 137.648428 31.977306 
L 139.011024 30.088904 
L 140.592177 28.023166 
L 139.011024 25.528943 
L 19.18282 214.554331 
z
M 256.596088 211.015846 
L 257.442728 214.554331 
L 258.839227 214.554331 
z
" clip-path="url(#p5727ecdc12)" style="fill: #fde725; fill-opacity: 0.7"/>
   </g>
   <g id="matplotlib.axis_1"/>
   <g id="matplotlib.axis_2"/>
   <g id="line2d_1">
    <path d="M 139.011024 151.545868 
L 139.011024 25.528943 
" clip-path="url(#p5727ecdc12)" style="fill: none; stroke: #555555; stroke-opacity: 0.9; stroke-width: 0.5; stroke-linecap: square"/>
   </g>
   <g id="line2d_2">
    <path d="M 99.068289 214.554331 
L 19.18282 214.554331 
" clip-path="url(#p5727ecdc12)" style="fill: none; stroke: #555555; stroke-opacity: 0.9; stroke-width: 0.5; stroke-linecap: square"/>
   </g>
   <g id="line2d_3">
    <path d="M 175.88124 83.690601 
L 198.925125 214.554331 
" clip-path="url(#p5727ecdc12)" style="fill: none; stroke: #555555; stroke-opacity: 0.9; stroke-width: 0.5; stroke-linecap: square"/>
   </g>
   <g id="line2d_4">
    <path d="M 198.925125 214.554331 
L 99.068289 214.554331 
" clip-path="url(#p5727ecdc12)" style="fill: none; stroke: #555555; stroke-opacity: 0.9; stroke-width: 0.5; stroke-linecap: square"/>
   </g>
   <g id="line2d_5">
    <path d="M 198.925125 120.041637 
L 218.896492 151.545868 
" clip-path="url(#p5727ecdc12)" style="fill: none; stroke: #555555; stroke-opacity: 0.9; stroke-width: 0.5; stroke-linecap: square"/>
   </g>
   <g id="line2d_6">
    <path d="M 198.925125 120.041637 
L 198.925125 214.554331 
" clip-path="url(#p5727ecdc12)" style="fill: none; stroke: #555555; stroke-opacity: 0.9; stroke-width: 0.5; stroke-linecap: square"/>
   </g>
   <g id="line2d_7">
    <path d="M 168.968074 72.78529 
L 139.011024 151.545868 
" clip-path="url(#p5727ecdc12)" style="fill: none; stroke: #555555; stroke-opacity: 0.9; stroke-width: 0.5; stroke-linecap: square"/>
   </g>
   <g id="line2d_8">
    <path d="M 139.011024 25.528943 
L 19.18282 214.554331 
" clip-path="url(#p5727ecdc12)" style="fill: none; stroke: #555555; stroke-opacity: 0.9; stroke-width: 0.5; stroke-linecap: square"/>
   </g>
   <g id="line2d_9">
    <path d="M 198.925125 214.554331 
L 258.839227 214.554331 
" clip-path="url(#p5727ecdc12)" style="fill: none; stroke: #555555; stroke-opacity: 0.9; stroke-width: 0.5; stroke-linecap: square"/>
   </g>
   <g id="line2d_10">
    <path d="M 198.925125 120.041637 
L 175.88124 83.690601 
" clip-path="url(#p5727ecdc12)" style="fill: none; stroke: #555555; stroke-opacity: 0.9; stroke-width: 0.5; stroke-linecap: square"/>
   </g>
   <g id="line2d_11">
    <path d="M 168.968074 72.78529 
L 139.011024 25.528943 
" clip-path="url(#p5727ecdc12)" style="fill: none; stroke: #555555; stroke-opacity: 0.9; stroke-width: 0.5; stroke-linecap: square"/>
   </g>
   <g id="line2d_12">
    <path d="M 139.011024 151.545868 
L 198.925125 214.554331 
" clip-path="url(#p5727ecdc12)" style="fill: none; stroke: #555555; stroke-opacity: 0.9; stroke-width: 0.5; stroke-linecap: square"/>
   </g>
   <g id="line2d_13">
    <path d="M 218.896492 151.545868 
L 198.925125 214.554331 
" clip-path="url(#p5727ecdc12)" style="fill: none; stroke: #555555; stroke-opacity: 0.9; stroke-width: 0.5; stroke-linecap: square"/>
   </g>
   <g id="line2d_14">
    <path d="M 168.968074 72.78529 
L 175.88124 83.690601 
" clip-path="url(#p5727ecdc12)" style="fill: none; stroke: #555555; stroke-opacity: 0.9; stroke-width: 0.5; stroke-linecap: square"/>
   </g>
   <g id="line2d_15">
    <path d="M 99.068289 214.554331 
L 139.011024 25.528943 
" clip-path="url(#p5727ecdc12)" style="fill: none; stroke: #555555; stroke-opacity: 0.9; stroke-width: 0.5; stroke-linecap: square"/>
   </g>
   <g id="line2d_16">
    <path d="M 218.896492 151.545868 
L 258.839227 214.554331 
" clip-path="url(#p5727ecdc12)" style="fill: none; stroke: #555555; stroke-opacity: 0.9; stroke-width: 0.5; stroke-linecap: square"/>
   </g>
   <g id="line2d_17">
    <path d="M 168.968074 72.78529 
L 198.925125 214.554331 
" clip-path="url(#p5727ecdc12)" style="fill: none; stroke: #555555; stroke-opacity: 0.9; stroke-width: 0.5; stroke-linecap: square"/>
   </g>
   <g id="line2d_18">
    <path d="M 139.011024 151.545868 
L 99.068289 214.554331 
" clip-path="url(#p5727ecdc12)" style="fill: none; stroke: #555555; stroke-opacity: 0.9; stroke-width: 0.5; stroke-linecap: square"/>
   </g>
   <g id="PathCollection_1">
    <defs>
     <path id="md3076622ea" d="M 0 2.738613 
C 0.726289 2.738613 1.422928 2.450055 1.936492 1.936492 
C 2.450055 1.422928 2.738613 0.726289 2.738613 0 
C 2.738613 -0.726289 2.450055 -1.422928 1.936492 -1.936492 
C 1.422928 -2.450055 0.726289 -2.738613 0 -2.738613 
C -0.726289 -2.738613 -1.422928 -2.450055 -1.936492 -1.936492 
C -2.450055 -1.422928 -2.738613 -0.726289 -2.738613 0 
C -2.738613 0.726289 -2.450055 1.422928 -1.936492 1.936492 
C -1.422928 2.450055 -0.726289 2.738613 0 2.738613 
z
" style="stroke: #008000"/>
    </defs>
    <g clip-path="url(#p5727ecdc12)">
     <use xlink:href="#md3076622ea" x="139.011024" y="151.545868" style="fill: #008000; stroke: #008000"/>
     <use xlink:href="#md3076622ea" x="139.011024" y="25.528943" style="fill: #008000; stroke: #008000"/>
     <use xlink:href="#md3076622ea" x="99.068289" y="214.554331" style="fill: #008000; stroke: #008000"/>
     <use xlink:href="#md3076622ea" x="19.18282" y="214.554331" style="fill: #008000; stroke: #008000"/>
     <use xlink:href="#md3076622ea" x="175.88124" y="83.690601" style="fill: #008000; stroke: #008000"/>
     <use xlink:href="#md3076622ea" x="198.925125" y="214.554331" style="fill: #008000; stroke: #008000"/>
     <use xlink:href="#md3076622ea" x="198.925125" y="120.041637" style="fill: #008000; stroke: #008000"/>
     <use xlink:href="#md3076622ea" x="218.896492" y="151.545868" style="fill: #008000; stroke: #008000"/>
     <use xlink:href="#md3076622ea" x="168.968074" y="72.78529" style="fill: #008000; stroke: #008000"/>
     <use xlink:href="#md3076622ea" x="258.839227" y="214.554331" style="fill: #008000; stroke: #008000"/>
    </g>
   </g>
   <g id="PathCollection_2">
    <defs>
     <path id="m77037c8ade" d="M -0 2.236068 
L 1.341641 0 
L 0 -2.236068 
L -1.341641 -0 
z
" style="stroke: #d3d3d3"/>
    </defs>
    <g clip-path="url(#p5727ecdc12)">
     <use xlink:href="#m77037c8ade" x="139.011024" y="25.528943" style="fill: #d3d3d3; stroke: #d3d3d3"/>
     <use xlink:href="#m77037c8ade" x="139.011024" y="25.528943" style="fill: #d3d3d3; stroke: #d3d3d3"/>
     <use xlink:href="#m77037c8ade" x="139.011024" y="25.528943" style="fill: #d3d3d3; stroke: #d3d3d3"/>
     <use xlink:href="#m77037c8ade" x="139.011024" y="25.528943" style="fill: #d3d3d3; stroke: #d3d3d3"/>
     <use xlink:href="#m77037c8ade" x="139.011024" y="25.528943" style="fill: #d3d3d3; stroke: #d3d3d3"/>
     <use xlink:href="#m77037c8ade" x="139.011024" y="25.528943" style="fill: #d3d3d3; stroke: #d3d3d3"/>
     <use xlink:href="#m77037c8ade" x="139.011024" y="25.528943" style="fill: #d3d3d3; stroke: #d3d3d3"/>
     <use xlink:href="#m77037c8ade" x="258.839227" y="214.554331" style="fill: #d3d3d3; stroke: #d3d3d3"/>
     <use xlink:href="#m77037c8ade" x="258.839227" y="214.554331" style="fill: #d3d3d3; stroke: #d3d3d3"/>
     <use xlink:href="#m77037c8ade" x="258.839227" y="214.554331" style="fill: #d3d3d3; stroke: #d3d3d3"/>
     <use xlink:href="#m77037c8ade" x="258.839227" y="214.554331" style="fill: #d3d3d3; stroke: #d3d3d3"/>
     <use xlink:href="#m77037c8ade" x="258.839227" y="214.554331" style="fill: #d3d3d3; stroke: #d3d3d3"/>
     <use xlink:href="#m77037c8ade" x="258.839227" y="214.554331" style="fill: #d3d3d3; stroke: #d3d3d3"/>
     <use xlink:href="#m77037c8ade" x="258.839227" y="214.554331" style="fill: #d3d3d3; stroke: #d3d3d3"/>
     <use xlink:href="#m77037c8ade" x="258.839227" y="214.554331" style="fill: #d3d3d3; stroke: #d3d3d3"/>
     <use xlink:href="#m77037c8ade" x="258.839227" y="214.554331" style="fill: #d3d3d3; stroke: #d3d3d3"/>
     <use xlink:href="#m77037c8ade" x="198.925125" y="120.041637" style="fill: #d3d3d3; stroke: #d3d3d3"/>
     <use xlink:href="#m77037c8ade" x="168.968074" y="72.78529" style="fill: #d3d3d3; stroke: #d3d3d3"/>
     <use xlink:href="#m77037c8ade" x="168.968074" y="72.78529" style="fill: #d3d3d3; stroke: #d3d3d3"/>
     <use xlink:href="#m77037c8ade" x="168.968074" y="72.78529" style="fill: #d3d3d3; stroke: #d3d3d3"/>
     <use xlink:href="#m77037c8ade" x="162.976664" y="63.334021" style="fill: #d3d3d3; stroke: #d3d3d3"/>
     <use xlink:href="#m77037c8ade" x="218.896492" y="151.545868" style="fill: #d3d3d3; stroke: #d3d3d3"/>
     <use xlink:href="#m77037c8ade" x="218.896492" y="151.545868" style="fill: #d3d3d3; stroke: #d3d3d3"/>
     <use xlink:href="#m77037c8ade" x="228.882176" y="167.297984" style="fill: #d3d3d3; stroke: #d3d3d3"/>
     <use xlink:href="#m77037c8ade" x="228.882176" y="167.297984" style="fill: #d3d3d3; stroke: #d3d3d3"/>
     <use xlink:href="#m77037c8ade" x="210.907946" y="138.944176" style="fill: #d3d3d3; stroke: #d3d3d3"/>
     <use xlink:href="#m77037c8ade" x="164.238014" y="65.323762" style="fill: #d3d3d3; stroke: #d3d3d3"/>
     <use xlink:href="#m77037c8ade" x="19.18282" y="214.554331" style="fill: #d3d3d3; stroke: #d3d3d3"/>
     <use xlink:href="#m77037c8ade" x="19.18282" y="214.554331" style="fill: #d3d3d3; stroke: #d3d3d3"/>
     <use xlink:href="#m77037c8ade" x="19.18282" y="214.554331" style="fill: #d3d3d3; stroke: #d3d3d3"/>
     <use xlink:href="#m77037c8ade" x="19.18282" y="214.554331" style="fill: #d3d3d3; stroke: #d3d3d3"/>
     <use xlink:href="#m77037c8ade" x="203.533902" y="156.392673" style="fill: #d3d3d3; stroke: #d3d3d3"/>
     <use xlink:href="#m77037c8ade" x="49.139871" y="167.297984" style="fill: #d3d3d3; stroke: #d3d3d3"/>
     <use xlink:href="#m77037c8ade" x="79.096922" y="214.554331" style="fill: #d3d3d3; stroke: #d3d3d3"/>
     <use xlink:href="#m77037c8ade" x="67.114102" y="214.554331" style="fill: #d3d3d3; stroke: #d3d3d3"/>
    </g>
   </g>
   <g id="PathCollection_3">
    <defs>
     <path id="mbb03ce484c" d="M 0 -5 
L -1.12257 -1.545085 
L -4.755283 -1.545085 
L -1.816356 0.59017 
L -2.938926 4.045085 
L -0 1.90983 
L 2.938926 4.045085 
L 1.816356 0.59017 
L 4.755283 -1.545085 
L 1.12257 -1.545085 
z
" style="stroke: #0000ff"/>
    </defs>
    <g clip-path="url(#p5727ecdc12)">
     <use xlink:href="#mbb03ce484c" x="203.533902" y="156.392673" style="fill: #0000ff; stroke: #0000ff"/>
    </g>
   </g>
   <g id="text_1">
    <!-- $\mathrm{NbAlCu}$ -->
    <g transform="translate(108.17466 159.742869) scale(0.1 -0.1)">
     <defs>
      <path id="DejaVuSans-4e" d="M 628 4666 
L 1478 4666 
L 3547 763 
L 3547 4666 
L 4159 4666 
L 4159 0 
L 3309 0 
L 1241 3903 
L 1241 0 
L 628 0 
L 628 4666 
z
" transform="scale(0.015625)"/>
      <path id="DejaVuSans-62" d="M 3116 1747 
Q 3116 2381 2855 2742 
Q 2594 3103 2138 3103 
Q 1681 3103 1420 2742 
Q 1159 2381 1159 1747 
Q 1159 1113 1420 752 
Q 1681 391 2138 391 
Q 2594 391 2855 752 
Q 3116 1113 3116 1747 
z
M 1159 2969 
Q 1341 3281 1617 3432 
Q 1894 3584 2278 3584 
Q 2916 3584 3314 3078 
Q 3713 2572 3713 1747 
Q 3713 922 3314 415 
Q 2916 -91 2278 -91 
Q 1894 -91 1617 61 
Q 1341 213 1159 525 
L 1159 0 
L 581 0 
L 581 4863 
L 1159 4863 
L 1159 2969 
z
" transform="scale(0.015625)"/>
      <path id="DejaVuSans-41" d="M 2188 4044 
L 1331 1722 
L 3047 1722 
L 2188 4044 
z
M 1831 4666 
L 2547 4666 
L 4325 0 
L 3669 0 
L 3244 1197 
L 1141 1197 
L 716 0 
L 50 0 
L 1831 4666 
z
" transform="scale(0.015625)"/>
      <path id="DejaVuSans-6c" d="M 603 4863 
L 1178 4863 
L 1178 0 
L 603 0 
L 603 4863 
z
" transform="scale(0.015625)"/>
      <path id="DejaVuSans-43" d="M 4122 4306 
L 4122 3641 
Q 3803 3938 3442 4084 
Q 3081 4231 2675 4231 
Q 1875 4231 1450 3742 
Q 1025 3253 1025 2328 
Q 1025 1406 1450 917 
Q 1875 428 2675 428 
Q 3081 428 3442 575 
Q 3803 722 4122 1019 
L 4122 359 
Q 3791 134 3420 21 
Q 3050 -91 2638 -91 
Q 1578 -91 968 557 
Q 359 1206 359 2328 
Q 359 3453 968 4101 
Q 1578 4750 2638 4750 
Q 3056 4750 3426 4639 
Q 3797 4528 4122 4306 
z
" transform="scale(0.015625)"/>
      <path id="DejaVuSans-75" d="M 544 1381 
L 544 3500 
L 1119 3500 
L 1119 1403 
Q 1119 906 1312 657 
Q 1506 409 1894 409 
Q 2359 409 2629 706 
Q 2900 1003 2900 1516 
L 2900 3500 
L 3475 3500 
L 3475 0 
L 2900 0 
L 2900 538 
Q 2691 219 2414 64 
Q 2138 -91 1772 -91 
Q 1169 -91 856 284 
Q 544 659 544 1381 
z
M 1991 3584 
L 1991 3584 
z
" transform="scale(0.015625)"/>
     </defs>
     <use xlink:href="#DejaVuSans-4e" transform="translate(0 0.015625)"/>
     <use xlink:href="#DejaVuSans-62" transform="translate(74.804688 0.015625)"/>
     <use xlink:href="#DejaVuSans-41" transform="translate(138.28125 0.015625)"/>
     <use xlink:href="#DejaVuSans-6c" transform="translate(206.689453 0.015625)"/>
     <use xlink:href="#DejaVuSans-43" transform="translate(234.472656 0.015625)"/>
     <use xlink:href="#DejaVuSans-75" transform="translate(304.296875 0.015625)"/>
    </g>
   </g>
   <g id="text_2">
    <!-- $\mathrm{Cu}$ -->
    <g transform="translate(129.692842 33.725944) scale(0.1 -0.1)">
     <use xlink:href="#DejaVuSans-43" transform="translate(0 0.78125)"/>
     <use xlink:href="#DejaVuSans-75" transform="translate(69.824219 0.78125)"/>
    </g>
   </g>
   <g id="text_3">
    <!-- $\mathrm{Nb_{2}Al}$ -->
    <g transform="translate(91.463744 210.544971) scale(0.1 -0.1)">
     <defs>
      <path id="DejaVuSans-32" d="M 1228 531 
L 3431 531 
L 3431 0 
L 469 0 
L 469 531 
Q 828 903 1448 1529 
Q 2069 2156 2228 2338 
Q 2531 2678 2651 2914 
Q 2772 3150 2772 3378 
Q 2772 3750 2511 3984 
Q 2250 4219 1831 4219 
Q 1534 4219 1204 4116 
Q 875 4013 500 3803 
L 500 4441 
Q 881 4594 1212 4672 
Q 1544 4750 1819 4750 
Q 2544 4750 2975 4387 
Q 3406 4025 3406 3419 
Q 3406 3131 3298 2873 
Q 3191 2616 2906 2266 
Q 2828 2175 2409 1742 
Q 1991 1309 1228 531 
z
" transform="scale(0.015625)"/>
     </defs>
     <use xlink:href="#DejaVuSans-4e" transform="translate(0 0.015625)"/>
     <use xlink:href="#DejaVuSans-62" transform="translate(74.804688 0.015625)"/>
     <use xlink:href="#DejaVuSans-32" transform="translate(139.238281 -16.390625) scale(0.7)"/>
     <use xlink:href="#DejaVuSans-41" transform="translate(186.508789 0.015625)"/>
     <use xlink:href="#DejaVuSans-6c" transform="translate(254.916992 0.015625)"/>
    </g>
   </g>
   <g id="text_4">
    <!-- $\mathrm{Nb}$ -->
    <g transform="translate(19.57736 211.839411) scale(0.1 -0.1)">
     <use xlink:href="#DejaVuSans-4e" transform="translate(0 0.015625)"/>
     <use xlink:href="#DejaVuSans-62" transform="translate(74.804688 0.015625)"/>
    </g>
   </g>
   <g id="text_5">
    <!-- $\mathrm{Al_{4}Cu_{9}}$ -->
    <g transform="translate(175.944876 87.026639) scale(0.1 -0.1)">
     <defs>
      <path id="DejaVuSans-34" d="M 2419 4116 
L 825 1625 
L 2419 1625 
L 2419 4116 
z
M 2253 4666 
L 3047 4666 
L 3047 1625 
L 3713 1625 
L 3713 1100 
L 3047 1100 
L 3047 0 
L 2419 0 
L 2419 1100 
L 313 1100 
L 313 1709 
L 2253 4666 
z
" transform="scale(0.015625)"/>
      <path id="DejaVuSans-39" d="M 703 97 
L 703 672 
Q 941 559 1184 500 
Q 1428 441 1663 441 
Q 2288 441 2617 861 
Q 2947 1281 2994 2138 
Q 2813 1869 2534 1725 
Q 2256 1581 1919 1581 
Q 1219 1581 811 2004 
Q 403 2428 403 3163 
Q 403 3881 828 4315 
Q 1253 4750 1959 4750 
Q 2769 4750 3195 4129 
Q 3622 3509 3622 2328 
Q 3622 1225 3098 567 
Q 2575 -91 1691 -91 
Q 1453 -91 1209 -44 
Q 966 3 703 97 
z
M 1959 2075 
Q 2384 2075 2632 2365 
Q 2881 2656 2881 3163 
Q 2881 3666 2632 3958 
Q 2384 4250 1959 4250 
Q 1534 4250 1286 3958 
Q 1038 3666 1038 3163 
Q 1038 2656 1286 2365 
Q 1534 2075 1959 2075 
z
" transform="scale(0.015625)"/>
     </defs>
     <use xlink:href="#DejaVuSans-41" transform="translate(0 0.015625)"/>
     <use xlink:href="#DejaVuSans-6c" transform="translate(68.408203 0.015625)"/>
     <use xlink:href="#DejaVuSans-34" transform="translate(97.148438 -16.390625) scale(0.7)"/>
     <use xlink:href="#DejaVuSans-43" transform="translate(144.418945 0.015625)"/>
     <use xlink:href="#DejaVuSans-75" transform="translate(214.243164 0.015625)"/>
     <use xlink:href="#DejaVuSans-39" transform="translate(278.579102 -16.390625) scale(0.7)"/>
    </g>
   </g>
   <g id="text_6">
    <!-- $\mathrm{NbAl_{3}}$ -->
    <g transform="translate(191.975125 210.594971) scale(0.1 -0.1)">
     <defs>
      <path id="DejaVuSans-33" d="M 2597 2516 
Q 3050 2419 3304 2112 
Q 3559 1806 3559 1356 
Q 3559 666 3084 287 
Q 2609 -91 1734 -91 
Q 1441 -91 1130 -33 
Q 819 25 488 141 
L 488 750 
Q 750 597 1062 519 
Q 1375 441 1716 441 
Q 2309 441 2620 675 
Q 2931 909 2931 1356 
Q 2931 1769 2642 2001 
Q 2353 2234 1838 2234 
L 1294 2234 
L 1294 2753 
L 1863 2753 
Q 2328 2753 2575 2939 
Q 2822 3125 2822 3475 
Q 2822 3834 2567 4026 
Q 2313 4219 1838 4219 
Q 1578 4219 1281 4162 
Q 984 4106 628 3988 
L 628 4550 
Q 988 4650 1302 4700 
Q 1616 4750 1894 4750 
Q 2613 4750 3031 4423 
Q 3450 4097 3450 3541 
Q 3450 3153 3228 2886 
Q 3006 2619 2597 2516 
z
" transform="scale(0.015625)"/>
     </defs>
     <use xlink:href="#DejaVuSans-4e" transform="translate(0 0.015625)"/>
     <use xlink:href="#DejaVuSans-62" transform="translate(74.804688 0.015625)"/>
     <use xlink:href="#DejaVuSans-41" transform="translate(138.28125 0.015625)"/>
     <use xlink:href="#DejaVuSans-6c" transform="translate(206.689453 0.015625)"/>
     <use xlink:href="#DejaVuSans-33" transform="translate(235.429688 -16.390625) scale(0.7)"/>
    </g>
   </g>
   <g id="text_7">
    <!-- $\mathrm{AlCu}$ -->
    <g transform="translate(180.225125 128.238638) scale(0.1 -0.1)">
     <use xlink:href="#DejaVuSans-41" transform="translate(0 0.015625)"/>
     <use xlink:href="#DejaVuSans-6c" transform="translate(68.408203 0.015625)"/>
     <use xlink:href="#DejaVuSans-43" transform="translate(96.191406 0.015625)"/>
     <use xlink:href="#DejaVuSans-75" transform="translate(166.015625 0.015625)"/>
    </g>
   </g>
   <g id="text_8">
    <!-- $\mathrm{Al_{2}Cu}$ -->
    <g transform="translate(211.541947 147.420198) scale(0.1 -0.1)">
     <use xlink:href="#DejaVuSans-41" transform="translate(0 0.015625)"/>
     <use xlink:href="#DejaVuSans-6c" transform="translate(68.408203 0.015625)"/>
     <use xlink:href="#DejaVuSans-32" transform="translate(97.148438 -16.390625) scale(0.7)"/>
     <use xlink:href="#DejaVuSans-43" transform="translate(144.418945 0.015625)"/>
     <use xlink:href="#DejaVuSans-75" transform="translate(214.243164 0.015625)"/>
    </g>
   </g>
   <g id="text_9">
    <!-- $\mathrm{AlCu_{3}}$ -->
    <g transform="translate(161.613529 68.638869) scale(0.1 -0.1)">
     <use xlink:href="#DejaVuSans-41" transform="translate(0 0.015625)"/>
     <use xlink:href="#DejaVuSans-6c" transform="translate(68.408203 0.015625)"/>
     <use xlink:href="#DejaVuSans-43" transform="translate(96.191406 0.015625)"/>
     <use xlink:href="#DejaVuSans-75" transform="translate(166.015625 0.015625)"/>
     <use xlink:href="#DejaVuSans-33" transform="translate(230.351562 -16.390625) scale(0.7)"/>
    </g>
   </g>
   <g id="text_10">
    <!-- $\mathrm{Al}$ -->
    <g transform="translate(249.389691 211.215873) scale(0.1 -0.1)">
     <use xlink:href="#DejaVuSans-41" transform="translate(0 0.015625)"/>
     <use xlink:href="#DejaVuSans-6c" transform="translate(68.408203 0.015625)"/>
    </g>
   </g>
   <g id="text_11">
    <!-- $\mathrm{Nb(Al_{2}Cu)_{4}}$ -->
    <g style="fill: #0000ff" transform="translate(156.092993 165.290556) scale(0.1 -0.1)">
     <defs>
      <path id="DejaVuSans-28" d="M 1984 4856 
Q 1566 4138 1362 3434 
Q 1159 2731 1159 2009 
Q 1159 1288 1364 580 
Q 1569 -128 1984 -844 
L 1484 -844 
Q 1016 -109 783 600 
Q 550 1309 550 2009 
Q 550 2706 781 3412 
Q 1013 4119 1484 4856 
L 1984 4856 
z
" transform="scale(0.015625)"/>
      <path id="DejaVuSans-29" d="M 513 4856 
L 1013 4856 
Q 1481 4119 1714 3412 
Q 1947 2706 1947 2009 
Q 1947 1309 1714 600 
Q 1481 -109 1013 -844 
L 513 -844 
Q 928 -128 1133 580 
Q 1338 1288 1338 2009 
Q 1338 2731 1133 3434 
Q 928 4138 513 4856 
z
" transform="scale(0.015625)"/>
     </defs>
     <use xlink:href="#DejaVuSans-4e" transform="translate(0 0.015625)"/>
     <use xlink:href="#DejaVuSans-62" transform="translate(74.804688 0.015625)"/>
     <use xlink:href="#DejaVuSans-28" transform="translate(138.28125 0.015625)"/>
     <use xlink:href="#DejaVuSans-41" transform="translate(177.294922 0.015625)"/>
     <use xlink:href="#DejaVuSans-6c" transform="translate(245.703125 0.015625)"/>
     <use xlink:href="#DejaVuSans-32" transform="translate(274.443359 -16.390625) scale(0.7)"/>
     <use xlink:href="#DejaVuSans-43" transform="translate(321.713867 0.015625)"/>
     <use xlink:href="#DejaVuSans-75" transform="translate(391.538086 0.015625)"/>
     <use xlink:href="#DejaVuSans-29" transform="translate(454.916992 0.015625)"/>
     <use xlink:href="#DejaVuSans-34" transform="translate(494.887695 -16.390625) scale(0.7)"/>
    </g>
   </g>
  </g>
  <g id="axes_2">
   <g id="patch_3">
    <path d="M 287.298425 195.703937 
L 296.029134 195.703937 
L 296.029134 36.96378 
L 287.298425 36.96378 
L 287.298425 195.703937 
z
" style="fill: none"/>
   </g>
   <g id="patch_4">
    <path d="M 287.298425 195.703937 
L 291.66378 203.640945 
L 296.029134 195.703937 
" style="fill: #440154; opacity: 0.7"/>
   </g>
   <g id="patch_5">
    <path d="M 287.298425 36.96378 
L 291.66378 29.026772 
L 296.029134 36.96378 
" style="fill: #fde725; opacity: 0.7"/>
   </g>
   <g id="QuadMesh_1">
    <path d="M 287.298425 195.703937 
L 296.029134 195.703937 
L 296.029134 191.832226 
L 287.298425 191.832226 
L 287.298425 195.703937 
" clip-path="url(#p47ce284bd8)" style="fill: #450559; fill-opacity: 0.7"/>
    <path d="M 287.298425 191.832226 
L 296.029134 191.832226 
L 296.029134 187.960515 
L 287.298425 187.960515 
L 287.298425 191.832226 
" clip-path="url(#p47ce284bd8)" style="fill: #470e61; fill-opacity: 0.7"/>
    <path d="M 287.298425 187.960515 
L 296.029134 187.960515 
L 296.029134 184.088804 
L 287.298425 184.088804 
L 287.298425 187.960515 
" clip-path="url(#p47ce284bd8)" style="fill: #481769; fill-opacity: 0.7"/>
    <path d="M 287.298425 184.088804 
L 296.029134 184.088804 
L 296.029134 180.217092 
L 287.298425 180.217092 
L 287.298425 184.088804 
" clip-path="url(#p47ce284bd8)" style="fill: #481f70; fill-opacity: 0.7"/>
    <path d="M 287.298425 180.217092 
L 296.029134 180.217092 
L 296.029134 176.345381 
L 287.298425 176.345381 
L 287.298425 180.217092 
" clip-path="url(#p47ce284bd8)" style="fill: #482878; fill-opacity: 0.7"/>
    <path d="M 287.298425 176.345381 
L 296.029134 176.345381 
L 296.029134 172.47367 
L 287.298425 172.47367 
L 287.298425 176.345381 
" clip-path="url(#p47ce284bd8)" style="fill: #472f7d; fill-opacity: 0.7"/>
    <path d="M 287.298425 172.47367 
L 296.029134 172.47367 
L 296.029134 168.601959 
L 287.298425 168.601959 
L 287.298425 172.47367 
" clip-path="url(#p47ce284bd8)" style="fill: #453781; fill-opacity: 0.7"/>
    <path d="M 287.298425 168.601959 
L 296.029134 168.601959 
L 296.029134 164.730248 
L 287.298425 164.730248 
L 287.298425 168.601959 
" clip-path="url(#p47ce284bd8)" style="fill: #433e85; fill-opacity: 0.7"/>
    <path d="M 287.298425 164.730248 
L 296.029134 164.730248 
L 296.029134 160.858537 
L 287.298425 160.858537 
L 287.298425 164.730248 
" clip-path="url(#p47ce284bd8)" style="fill: #404688; fill-opacity: 0.7"/>
    <path d="M 287.298425 160.858537 
L 296.029134 160.858537 
L 296.029134 156.986825 
L 287.298425 156.986825 
L 287.298425 160.858537 
" clip-path="url(#p47ce284bd8)" style="fill: #3d4d8a; fill-opacity: 0.7"/>
    <path d="M 287.298425 156.986825 
L 296.029134 156.986825 
L 296.029134 153.115114 
L 287.298425 153.115114 
L 287.298425 156.986825 
" clip-path="url(#p47ce284bd8)" style="fill: #3a538b; fill-opacity: 0.7"/>
    <path d="M 287.298425 153.115114 
L 296.029134 153.115114 
L 296.029134 149.243403 
L 287.298425 149.243403 
L 287.298425 153.115114 
" clip-path="url(#p47ce284bd8)" style="fill: #375a8c; fill-opacity: 0.7"/>
    <path d="M 287.298425 149.243403 
L 296.029134 149.243403 
L 296.029134 145.371692 
L 287.298425 145.371692 
L 287.298425 149.243403 
" clip-path="url(#p47ce284bd8)" style="fill: #34618d; fill-opacity: 0.7"/>
    <path d="M 287.298425 145.371692 
L 296.029134 145.371692 
L 296.029134 141.499981 
L 287.298425 141.499981 
L 287.298425 145.371692 
" clip-path="url(#p47ce284bd8)" style="fill: #31678e; fill-opacity: 0.7"/>
    <path d="M 287.298425 141.499981 
L 296.029134 141.499981 
L 296.029134 137.62827 
L 287.298425 137.62827 
L 287.298425 141.499981 
" clip-path="url(#p47ce284bd8)" style="fill: #2e6d8e; fill-opacity: 0.7"/>
    <path d="M 287.298425 137.62827 
L 296.029134 137.62827 
L 296.029134 133.756558 
L 287.298425 133.756558 
L 287.298425 137.62827 
" clip-path="url(#p47ce284bd8)" style="fill: #2c728e; fill-opacity: 0.7"/>
    <path d="M 287.298425 133.756558 
L 296.029134 133.756558 
L 296.029134 129.884847 
L 287.298425 129.884847 
L 287.298425 133.756558 
" clip-path="url(#p47ce284bd8)" style="fill: #29798e; fill-opacity: 0.7"/>
    <path d="M 287.298425 129.884847 
L 296.029134 129.884847 
L 296.029134 126.013136 
L 287.298425 126.013136 
L 287.298425 129.884847 
" clip-path="url(#p47ce284bd8)" style="fill: #277f8e; fill-opacity: 0.7"/>
    <path d="M 287.298425 126.013136 
L 296.029134 126.013136 
L 296.029134 122.141425 
L 287.298425 122.141425 
L 287.298425 126.013136 
" clip-path="url(#p47ce284bd8)" style="fill: #25848e; fill-opacity: 0.7"/>
    <path d="M 287.298425 122.141425 
L 296.029134 122.141425 
L 296.029134 118.269714 
L 287.298425 118.269714 
L 287.298425 122.141425 
" clip-path="url(#p47ce284bd8)" style="fill: #238a8d; fill-opacity: 0.7"/>
    <path d="M 287.298425 118.269714 
L 296.029134 118.269714 
L 296.029134 114.398003 
L 287.298425 114.398003 
L 287.298425 118.269714 
" clip-path="url(#p47ce284bd8)" style="fill: #21918c; fill-opacity: 0.7"/>
    <path d="M 287.298425 114.398003 
L 296.029134 114.398003 
L 296.029134 110.526292 
L 287.298425 110.526292 
L 287.298425 114.398003 
" clip-path="url(#p47ce284bd8)" style="fill: #1f968b; fill-opacity: 0.7"/>
    <path d="M 287.298425 110.526292 
L 296.029134 110.526292 
L 296.029134 106.65458 
L 287.298425 106.65458 
L 287.298425 110.526292 
" clip-path="url(#p47ce284bd8)" style="fill: #1e9c89; fill-opacity: 0.7"/>
    <path d="M 287.298425 106.65458 
L 296.029134 106.65458 
L 296.029134 102.782869 
L 287.298425 102.782869 
L 287.298425 106.65458 
" clip-path="url(#p47ce284bd8)" style="fill: #1fa187; fill-opacity: 0.7"/>
    <path d="M 287.298425 102.782869 
L 296.029134 102.782869 
L 296.029134 98.911158 
L 287.298425 98.911158 
L 287.298425 102.782869 
" clip-path="url(#p47ce284bd8)" style="fill: #22a785; fill-opacity: 0.7"/>
    <path d="M 287.298425 98.911158 
L 296.029134 98.911158 
L 296.029134 95.039447 
L 287.298425 95.039447 
L 287.298425 98.911158 
" clip-path="url(#p47ce284bd8)" style="fill: #27ad81; fill-opacity: 0.7"/>
    <path d="M 287.298425 95.039447 
L 296.029134 95.039447 
L 296.029134 91.167736 
L 287.298425 91.167736 
L 287.298425 95.039447 
" clip-path="url(#p47ce284bd8)" style="fill: #2eb37c; fill-opacity: 0.7"/>
    <path d="M 287.298425 91.167736 
L 296.029134 91.167736 
L 296.029134 87.296025 
L 287.298425 87.296025 
L 287.298425 91.167736 
" clip-path="url(#p47ce284bd8)" style="fill: #37b878; fill-opacity: 0.7"/>
    <path d="M 287.298425 87.296025 
L 296.029134 87.296025 
L 296.029134 83.424313 
L 287.298425 83.424313 
L 287.298425 87.296025 
" clip-path="url(#p47ce284bd8)" style="fill: #40bd72; fill-opacity: 0.7"/>
    <path d="M 287.298425 83.424313 
L 296.029134 83.424313 
L 296.029134 79.552602 
L 287.298425 79.552602 
L 287.298425 83.424313 
" clip-path="url(#p47ce284bd8)" style="fill: #4ec36b; fill-opacity: 0.7"/>
    <path d="M 287.298425 79.552602 
L 296.029134 79.552602 
L 296.029134 75.680891 
L 287.298425 75.680891 
L 287.298425 79.552602 
" clip-path="url(#p47ce284bd8)" style="fill: #5ac864; fill-opacity: 0.7"/>
    <path d="M 287.298425 75.680891 
L 296.029134 75.680891 
L 296.029134 71.80918 
L 287.298425 71.80918 
L 287.298425 75.680891 
" clip-path="url(#p47ce284bd8)" style="fill: #67cc5c; fill-opacity: 0.7"/>
    <path d="M 287.298425 71.80918 
L 296.029134 71.80918 
L 296.029134 67.937469 
L 287.298425 67.937469 
L 287.298425 71.80918 
" clip-path="url(#p47ce284bd8)" style="fill: #75d054; fill-opacity: 0.7"/>
    <path d="M 287.298425 67.937469 
L 296.029134 67.937469 
L 296.029134 64.065758 
L 287.298425 64.065758 
L 287.298425 67.937469 
" clip-path="url(#p47ce284bd8)" style="fill: #86d549; fill-opacity: 0.7"/>
    <path d="M 287.298425 64.065758 
L 296.029134 64.065758 
L 296.029134 60.194046 
L 287.298425 60.194046 
L 287.298425 64.065758 
" clip-path="url(#p47ce284bd8)" style="fill: #95d840; fill-opacity: 0.7"/>
    <path d="M 287.298425 60.194046 
L 296.029134 60.194046 
L 296.029134 56.322335 
L 287.298425 56.322335 
L 287.298425 60.194046 
" clip-path="url(#p47ce284bd8)" style="fill: #a5db36; fill-opacity: 0.7"/>
    <path d="M 287.298425 56.322335 
L 296.029134 56.322335 
L 296.029134 52.450624 
L 287.298425 52.450624 
L 287.298425 56.322335 
" clip-path="url(#p47ce284bd8)" style="fill: #b5de2b; fill-opacity: 0.7"/>
    <path d="M 287.298425 52.450624 
L 296.029134 52.450624 
L 296.029134 48.578913 
L 287.298425 48.578913 
L 287.298425 52.450624 
" clip-path="url(#p47ce284bd8)" style="fill: #c8e020; fill-opacity: 0.7"/>
    <path d="M 287.298425 48.578913 
L 296.029134 48.578913 
L 296.029134 44.707202 
L 287.298425 44.707202 
L 287.298425 48.578913 
" clip-path="url(#p47ce284bd8)" style="fill: #d8e219; fill-opacity: 0.7"/>
    <path d="M 287.298425 44.707202 
L 296.029134 44.707202 
L 296.029134 40.835491 
L 287.298425 40.835491 
L 287.298425 44.707202 
" clip-path="url(#p47ce284bd8)" style="fill: #e7e419; fill-opacity: 0.7"/>
    <path d="M 287.298425 40.835491 
L 296.029134 40.835491 
L 296.029134 36.96378 
L 287.298425 36.96378 
L 287.298425 40.835491 
" clip-path="url(#p47ce284bd8)" style="fill: #f6e620; fill-opacity: 0.7"/>
   </g>
   <g id="matplotlib.axis_3"/>
   <g id="matplotlib.axis_4">
    <g id="ytick_1">
     <g id="line2d_19">
      <defs>
       <path id="m90af7d7b3e" d="M 0 0 
L -2 0 
" style="stroke: #000000; stroke-width: 0.3"/>
      </defs>
      <g>
       <use xlink:href="#m90af7d7b3e" x="296.029134" y="191.832226" style="stroke: #000000; stroke-width: 0.3"/>
      </g>
     </g>
     <g id="text_12">
      <!-- 0.41 -->
      <g transform="translate(299.529134 194.695351) scale(0.08 -0.08)">
       <defs>
        <path id="ArialMT-2212" d="M 3381 1997 
L 356 1997 
L 356 2522 
L 3381 2522 
L 3381 1997 
z
" transform="scale(0.015625)"/>
        <path id="ArialMT-30" d="M 266 2259 
Q 266 3072 433 3567 
Q 600 4063 929 4331 
Q 1259 4600 1759 4600 
Q 2128 4600 2406 4451 
Q 2684 4303 2865 4023 
Q 3047 3744 3150 3342 
Q 3253 2941 3253 2259 
Q 3253 1453 3087 958 
Q 2922 463 2592 192 
Q 2263 -78 1759 -78 
Q 1097 -78 719 397 
Q 266 969 266 2259 
z
M 844 2259 
Q 844 1131 1108 757 
Q 1372 384 1759 384 
Q 2147 384 2411 759 
Q 2675 1134 2675 2259 
Q 2675 3391 2411 3762 
Q 2147 4134 1753 4134 
Q 1366 4134 1134 3806 
Q 844 3388 844 2259 
z
" transform="scale(0.015625)"/>
        <path id="ArialMT-2e" d="M 581 0 
L 581 641 
L 1222 641 
L 1222 0 
L 581 0 
z
" transform="scale(0.015625)"/>
        <path id="ArialMT-34" d="M 2069 0 
L 2069 1097 
L 81 1097 
L 81 1613 
L 2172 4581 
L 2631 4581 
L 2631 1613 
L 3250 1613 
L 3250 1097 
L 2631 1097 
L 2631 0 
L 2069 0 
z
M 2069 1613 
L 2069 3678 
L 634 1613 
L 2069 1613 
z
" transform="scale(0.015625)"/>
        <path id="ArialMT-31" d="M 2384 0 
L 1822 0 
L 1822 3584 
Q 1619 3391 1289 3197 
Q 959 3003 697 2906 
L 697 3450 
Q 1169 3672 1522 3987 
Q 1875 4303 2022 4600 
L 2384 4600 
L 2384 0 
z
" transform="scale(0.015625)"/>
       </defs>
       <use xlink:href="#ArialMT-2212"/>
       <use xlink:href="#ArialMT-30" transform="translate(58.398438 0)"/>
       <use xlink:href="#ArialMT-2e" transform="translate(114.013672 0)"/>
       <use xlink:href="#ArialMT-34" transform="translate(141.796875 0)"/>
       <use xlink:href="#ArialMT-31" transform="translate(197.412109 0)"/>
      </g>
     </g>
    </g>
    <g id="ytick_2">
     <g id="line2d_20">
      <g>
       <use xlink:href="#m90af7d7b3e" x="296.029134" y="172.47367" style="stroke: #000000; stroke-width: 0.3"/>
      </g>
     </g>
     <g id="text_13">
      <!-- 0.36 -->
      <g transform="translate(299.529134 175.336795) scale(0.08 -0.08)">
       <defs>
        <path id="ArialMT-33" d="M 269 1209 
L 831 1284 
Q 928 806 1161 595 
Q 1394 384 1728 384 
Q 2125 384 2398 659 
Q 2672 934 2672 1341 
Q 2672 1728 2419 1979 
Q 2166 2231 1775 2231 
Q 1616 2231 1378 2169 
L 1441 2663 
Q 1497 2656 1531 2656 
Q 1891 2656 2178 2843 
Q 2466 3031 2466 3422 
Q 2466 3731 2256 3934 
Q 2047 4138 1716 4138 
Q 1388 4138 1169 3931 
Q 950 3725 888 3313 
L 325 3413 
Q 428 3978 793 4289 
Q 1159 4600 1703 4600 
Q 2078 4600 2393 4439 
Q 2709 4278 2876 4000 
Q 3044 3722 3044 3409 
Q 3044 3113 2884 2869 
Q 2725 2625 2413 2481 
Q 2819 2388 3044 2092 
Q 3269 1797 3269 1353 
Q 3269 753 2831 336 
Q 2394 -81 1725 -81 
Q 1122 -81 723 278 
Q 325 638 269 1209 
z
" transform="scale(0.015625)"/>
        <path id="ArialMT-36" d="M 3184 3459 
L 2625 3416 
Q 2550 3747 2413 3897 
Q 2184 4138 1850 4138 
Q 1581 4138 1378 3988 
Q 1113 3794 959 3422 
Q 806 3050 800 2363 
Q 1003 2672 1297 2822 
Q 1591 2972 1913 2972 
Q 2475 2972 2870 2558 
Q 3266 2144 3266 1488 
Q 3266 1056 3080 686 
Q 2894 316 2569 119 
Q 2244 -78 1831 -78 
Q 1128 -78 684 439 
Q 241 956 241 2144 
Q 241 3472 731 4075 
Q 1159 4600 1884 4600 
Q 2425 4600 2770 4297 
Q 3116 3994 3184 3459 
z
M 888 1484 
Q 888 1194 1011 928 
Q 1134 663 1356 523 
Q 1578 384 1822 384 
Q 2178 384 2434 671 
Q 2691 959 2691 1453 
Q 2691 1928 2437 2201 
Q 2184 2475 1800 2475 
Q 1419 2475 1153 2201 
Q 888 1928 888 1484 
z
" transform="scale(0.015625)"/>
       </defs>
       <use xlink:href="#ArialMT-2212"/>
       <use xlink:href="#ArialMT-30" transform="translate(58.398438 0)"/>
       <use xlink:href="#ArialMT-2e" transform="translate(114.013672 0)"/>
       <use xlink:href="#ArialMT-33" transform="translate(141.796875 0)"/>
       <use xlink:href="#ArialMT-36" transform="translate(197.412109 0)"/>
      </g>
     </g>
    </g>
    <g id="ytick_3">
     <g id="line2d_21">
      <g>
       <use xlink:href="#m90af7d7b3e" x="296.029134" y="153.115114" style="stroke: #000000; stroke-width: 0.3"/>
      </g>
     </g>
     <g id="text_14">
      <!-- 0.31 -->
      <g transform="translate(299.529134 155.978239) scale(0.08 -0.08)">
       <use xlink:href="#ArialMT-2212"/>
       <use xlink:href="#ArialMT-30" transform="translate(58.398438 0)"/>
       <use xlink:href="#ArialMT-2e" transform="translate(114.013672 0)"/>
       <use xlink:href="#ArialMT-33" transform="translate(141.796875 0)"/>
       <use xlink:href="#ArialMT-31" transform="translate(197.412109 0)"/>
      </g>
     </g>
    </g>
    <g id="ytick_4">
     <g id="line2d_22">
      <g>
       <use xlink:href="#m90af7d7b3e" x="296.029134" y="133.756558" style="stroke: #000000; stroke-width: 0.3"/>
      </g>
     </g>
     <g id="text_15">
      <!-- 0.26 -->
      <g transform="translate(299.529134 136.619683) scale(0.08 -0.08)">
       <defs>
        <path id="ArialMT-32" d="M 3222 541 
L 3222 0 
L 194 0 
Q 188 203 259 391 
Q 375 700 629 1000 
Q 884 1300 1366 1694 
Q 2113 2306 2375 2664 
Q 2638 3022 2638 3341 
Q 2638 3675 2398 3904 
Q 2159 4134 1775 4134 
Q 1369 4134 1125 3890 
Q 881 3647 878 3216 
L 300 3275 
Q 359 3922 746 4261 
Q 1134 4600 1788 4600 
Q 2447 4600 2831 4234 
Q 3216 3869 3216 3328 
Q 3216 3053 3103 2787 
Q 2991 2522 2730 2228 
Q 2469 1934 1863 1422 
Q 1356 997 1212 845 
Q 1069 694 975 541 
L 3222 541 
z
" transform="scale(0.015625)"/>
       </defs>
       <use xlink:href="#ArialMT-2212"/>
       <use xlink:href="#ArialMT-30" transform="translate(58.398438 0)"/>
       <use xlink:href="#ArialMT-2e" transform="translate(114.013672 0)"/>
       <use xlink:href="#ArialMT-32" transform="translate(141.796875 0)"/>
       <use xlink:href="#ArialMT-36" transform="translate(197.412109 0)"/>
      </g>
     </g>
    </g>
    <g id="ytick_5">
     <g id="line2d_23">
      <g>
       <use xlink:href="#m90af7d7b3e" x="296.029134" y="114.398003" style="stroke: #000000; stroke-width: 0.3"/>
      </g>
     </g>
     <g id="text_16">
      <!-- 0.21 -->
      <g transform="translate(299.529134 117.261128) scale(0.08 -0.08)">
       <use xlink:href="#ArialMT-2212"/>
       <use xlink:href="#ArialMT-30" transform="translate(58.398438 0)"/>
       <use xlink:href="#ArialMT-2e" transform="translate(114.013672 0)"/>
       <use xlink:href="#ArialMT-32" transform="translate(141.796875 0)"/>
       <use xlink:href="#ArialMT-31" transform="translate(197.412109 0)"/>
      </g>
     </g>
    </g>
    <g id="ytick_6">
     <g id="line2d_24">
      <g>
       <use xlink:href="#m90af7d7b3e" x="296.029134" y="95.039447" style="stroke: #000000; stroke-width: 0.3"/>
      </g>
     </g>
     <g id="text_17">
      <!-- 0.16 -->
      <g transform="translate(299.529134 97.902572) scale(0.08 -0.08)">
       <use xlink:href="#ArialMT-2212"/>
       <use xlink:href="#ArialMT-30" transform="translate(58.398438 0)"/>
       <use xlink:href="#ArialMT-2e" transform="translate(114.013672 0)"/>
       <use xlink:href="#ArialMT-31" transform="translate(141.796875 0)"/>
       <use xlink:href="#ArialMT-36" transform="translate(197.412109 0)"/>
      </g>
     </g>
    </g>
    <g id="ytick_7">
     <g id="line2d_25">
      <g>
       <use xlink:href="#m90af7d7b3e" x="296.029134" y="75.680891" style="stroke: #000000; stroke-width: 0.3"/>
      </g>
     </g>
     <g id="text_18">
      <!-- 0.11 -->
      <g transform="translate(299.529134 78.544016) scale(0.08 -0.08)">
       <use xlink:href="#ArialMT-2212"/>
       <use xlink:href="#ArialMT-30" transform="translate(58.398438 0)"/>
       <use xlink:href="#ArialMT-2e" transform="translate(114.013672 0)"/>
       <use xlink:href="#ArialMT-31" transform="translate(141.796875 0)"/>
       <use xlink:href="#ArialMT-31" transform="translate(190.037109 0)"/>
      </g>
     </g>
    </g>
    <g id="ytick_8">
     <g id="line2d_26">
      <g>
       <use xlink:href="#m90af7d7b3e" x="296.029134" y="56.322335" style="stroke: #000000; stroke-width: 0.3"/>
      </g>
     </g>
     <g id="text_19">
      <!-- 0.06 -->
      <g transform="translate(299.529134 59.18546) scale(0.08 -0.08)">
       <use xlink:href="#ArialMT-2212"/>
       <use xlink:href="#ArialMT-30" transform="translate(58.398438 0)"/>
       <use xlink:href="#ArialMT-2e" transform="translate(114.013672 0)"/>
       <use xlink:href="#ArialMT-30" transform="translate(141.796875 0)"/>
       <use xlink:href="#ArialMT-36" transform="translate(197.412109 0)"/>
      </g>
     </g>
    </g>
    <g id="ytick_9">
     <g id="line2d_27">
      <g>
       <use xlink:href="#m90af7d7b3e" x="296.029134" y="36.96378" style="stroke: #000000; stroke-width: 0.3"/>
      </g>
     </g>
     <g id="text_20">
      <!-- 0.01 -->
      <g transform="translate(299.529134 39.826905) scale(0.08 -0.08)">
       <use xlink:href="#ArialMT-2212"/>
       <use xlink:href="#ArialMT-30" transform="translate(58.398438 0)"/>
       <use xlink:href="#ArialMT-2e" transform="translate(114.013672 0)"/>
       <use xlink:href="#ArialMT-30" transform="translate(141.796875 0)"/>
       <use xlink:href="#ArialMT-31" transform="translate(197.412109 0)"/>
      </g>
     </g>
    </g>
    <g id="text_21">
     <!-- Formation Energy (eV/atom) -->
     <g transform="translate(331.050071 179.408077) rotate(-90) scale(0.1 -0.1)">
      <defs>
       <path id="ArialMT-46" d="M 525 0 
L 525 4581 
L 3616 4581 
L 3616 4041 
L 1131 4041 
L 1131 2622 
L 3281 2622 
L 3281 2081 
L 1131 2081 
L 1131 0 
L 525 0 
z
" transform="scale(0.015625)"/>
       <path id="ArialMT-6f" d="M 213 1659 
Q 213 2581 725 3025 
Q 1153 3394 1769 3394 
Q 2453 3394 2887 2945 
Q 3322 2497 3322 1706 
Q 3322 1066 3130 698 
Q 2938 331 2570 128 
Q 2203 -75 1769 -75 
Q 1072 -75 642 372 
Q 213 819 213 1659 
z
M 791 1659 
Q 791 1022 1069 705 
Q 1347 388 1769 388 
Q 2188 388 2466 706 
Q 2744 1025 2744 1678 
Q 2744 2294 2464 2611 
Q 2184 2928 1769 2928 
Q 1347 2928 1069 2612 
Q 791 2297 791 1659 
z
" transform="scale(0.015625)"/>
       <path id="ArialMT-72" d="M 416 0 
L 416 3319 
L 922 3319 
L 922 2816 
Q 1116 3169 1280 3281 
Q 1444 3394 1641 3394 
Q 1925 3394 2219 3213 
L 2025 2691 
Q 1819 2813 1613 2813 
Q 1428 2813 1281 2702 
Q 1134 2591 1072 2394 
Q 978 2094 978 1738 
L 978 0 
L 416 0 
z
" transform="scale(0.015625)"/>
       <path id="ArialMT-6d" d="M 422 0 
L 422 3319 
L 925 3319 
L 925 2853 
Q 1081 3097 1340 3245 
Q 1600 3394 1931 3394 
Q 2300 3394 2536 3241 
Q 2772 3088 2869 2813 
Q 3263 3394 3894 3394 
Q 4388 3394 4653 3120 
Q 4919 2847 4919 2278 
L 4919 0 
L 4359 0 
L 4359 2091 
Q 4359 2428 4304 2576 
Q 4250 2725 4106 2815 
Q 3963 2906 3769 2906 
Q 3419 2906 3187 2673 
Q 2956 2441 2956 1928 
L 2956 0 
L 2394 0 
L 2394 2156 
Q 2394 2531 2256 2718 
Q 2119 2906 1806 2906 
Q 1569 2906 1367 2781 
Q 1166 2656 1075 2415 
Q 984 2175 984 1722 
L 984 0 
L 422 0 
z
" transform="scale(0.015625)"/>
       <path id="ArialMT-61" d="M 2588 409 
Q 2275 144 1986 34 
Q 1697 -75 1366 -75 
Q 819 -75 525 192 
Q 231 459 231 875 
Q 231 1119 342 1320 
Q 453 1522 633 1644 
Q 813 1766 1038 1828 
Q 1203 1872 1538 1913 
Q 2219 1994 2541 2106 
Q 2544 2222 2544 2253 
Q 2544 2597 2384 2738 
Q 2169 2928 1744 2928 
Q 1347 2928 1158 2789 
Q 969 2650 878 2297 
L 328 2372 
Q 403 2725 575 2942 
Q 747 3159 1072 3276 
Q 1397 3394 1825 3394 
Q 2250 3394 2515 3294 
Q 2781 3194 2906 3042 
Q 3031 2891 3081 2659 
Q 3109 2516 3109 2141 
L 3109 1391 
Q 3109 606 3145 398 
Q 3181 191 3288 0 
L 2700 0 
Q 2613 175 2588 409 
z
M 2541 1666 
Q 2234 1541 1622 1453 
Q 1275 1403 1131 1340 
Q 988 1278 909 1158 
Q 831 1038 831 891 
Q 831 666 1001 516 
Q 1172 366 1500 366 
Q 1825 366 2078 508 
Q 2331 650 2450 897 
Q 2541 1088 2541 1459 
L 2541 1666 
z
" transform="scale(0.015625)"/>
       <path id="ArialMT-74" d="M 1650 503 
L 1731 6 
Q 1494 -44 1306 -44 
Q 1000 -44 831 53 
Q 663 150 594 308 
Q 525 466 525 972 
L 525 2881 
L 113 2881 
L 113 3319 
L 525 3319 
L 525 4141 
L 1084 4478 
L 1084 3319 
L 1650 3319 
L 1650 2881 
L 1084 2881 
L 1084 941 
Q 1084 700 1114 631 
Q 1144 563 1211 522 
Q 1278 481 1403 481 
Q 1497 481 1650 503 
z
" transform="scale(0.015625)"/>
       <path id="ArialMT-69" d="M 425 3934 
L 425 4581 
L 988 4581 
L 988 3934 
L 425 3934 
z
M 425 0 
L 425 3319 
L 988 3319 
L 988 0 
L 425 0 
z
" transform="scale(0.015625)"/>
       <path id="ArialMT-6e" d="M 422 0 
L 422 3319 
L 928 3319 
L 928 2847 
Q 1294 3394 1984 3394 
Q 2284 3394 2536 3286 
Q 2788 3178 2913 3003 
Q 3038 2828 3088 2588 
Q 3119 2431 3119 2041 
L 3119 0 
L 2556 0 
L 2556 2019 
Q 2556 2363 2490 2533 
Q 2425 2703 2258 2804 
Q 2091 2906 1866 2906 
Q 1506 2906 1245 2678 
Q 984 2450 984 1813 
L 984 0 
L 422 0 
z
" transform="scale(0.015625)"/>
       <path id="ArialMT-20" transform="scale(0.015625)"/>
       <path id="ArialMT-45" d="M 506 0 
L 506 4581 
L 3819 4581 
L 3819 4041 
L 1113 4041 
L 1113 2638 
L 3647 2638 
L 3647 2100 
L 1113 2100 
L 1113 541 
L 3925 541 
L 3925 0 
L 506 0 
z
" transform="scale(0.015625)"/>
       <path id="ArialMT-65" d="M 2694 1069 
L 3275 997 
Q 3138 488 2766 206 
Q 2394 -75 1816 -75 
Q 1088 -75 661 373 
Q 234 822 234 1631 
Q 234 2469 665 2931 
Q 1097 3394 1784 3394 
Q 2450 3394 2872 2941 
Q 3294 2488 3294 1666 
Q 3294 1616 3291 1516 
L 816 1516 
Q 847 969 1125 678 
Q 1403 388 1819 388 
Q 2128 388 2347 550 
Q 2566 713 2694 1069 
z
M 847 1978 
L 2700 1978 
Q 2663 2397 2488 2606 
Q 2219 2931 1791 2931 
Q 1403 2931 1139 2672 
Q 875 2413 847 1978 
z
" transform="scale(0.015625)"/>
       <path id="ArialMT-67" d="M 319 -275 
L 866 -356 
Q 900 -609 1056 -725 
Q 1266 -881 1628 -881 
Q 2019 -881 2231 -725 
Q 2444 -569 2519 -288 
Q 2563 -116 2559 434 
Q 2191 0 1641 0 
Q 956 0 581 494 
Q 206 988 206 1678 
Q 206 2153 378 2554 
Q 550 2956 876 3175 
Q 1203 3394 1644 3394 
Q 2231 3394 2613 2919 
L 2613 3319 
L 3131 3319 
L 3131 450 
Q 3131 -325 2973 -648 
Q 2816 -972 2473 -1159 
Q 2131 -1347 1631 -1347 
Q 1038 -1347 672 -1080 
Q 306 -813 319 -275 
z
M 784 1719 
Q 784 1066 1043 766 
Q 1303 466 1694 466 
Q 2081 466 2343 764 
Q 2606 1063 2606 1700 
Q 2606 2309 2336 2618 
Q 2066 2928 1684 2928 
Q 1309 2928 1046 2623 
Q 784 2319 784 1719 
z
" transform="scale(0.015625)"/>
       <path id="ArialMT-79" d="M 397 -1278 
L 334 -750 
Q 519 -800 656 -800 
Q 844 -800 956 -737 
Q 1069 -675 1141 -563 
Q 1194 -478 1313 -144 
Q 1328 -97 1363 -6 
L 103 3319 
L 709 3319 
L 1400 1397 
Q 1534 1031 1641 628 
Q 1738 1016 1872 1384 
L 2581 3319 
L 3144 3319 
L 1881 -56 
Q 1678 -603 1566 -809 
Q 1416 -1088 1222 -1217 
Q 1028 -1347 759 -1347 
Q 597 -1347 397 -1278 
z
" transform="scale(0.015625)"/>
       <path id="ArialMT-28" d="M 1497 -1347 
Q 1031 -759 709 28 
Q 388 816 388 1659 
Q 388 2403 628 3084 
Q 909 3875 1497 4659 
L 1900 4659 
Q 1522 4009 1400 3731 
Q 1209 3300 1100 2831 
Q 966 2247 966 1656 
Q 966 153 1900 -1347 
L 1497 -1347 
z
" transform="scale(0.015625)"/>
       <path id="ArialMT-56" d="M 1803 0 
L 28 4581 
L 684 4581 
L 1875 1253 
Q 2019 853 2116 503 
Q 2222 878 2363 1253 
L 3600 4581 
L 4219 4581 
L 2425 0 
L 1803 0 
z
" transform="scale(0.015625)"/>
       <path id="ArialMT-2f" d="M 0 -78 
L 1328 4659 
L 1778 4659 
L 453 -78 
L 0 -78 
z
" transform="scale(0.015625)"/>
       <path id="ArialMT-29" d="M 791 -1347 
L 388 -1347 
Q 1322 153 1322 1656 
Q 1322 2244 1188 2822 
Q 1081 3291 891 3722 
Q 769 4003 388 4659 
L 791 4659 
Q 1378 3875 1659 3084 
Q 1900 2403 1900 1659 
Q 1900 816 1576 28 
Q 1253 -759 791 -1347 
z
" transform="scale(0.015625)"/>
      </defs>
      <use xlink:href="#ArialMT-46"/>
      <use xlink:href="#ArialMT-6f" transform="translate(61.083984 0)"/>
      <use xlink:href="#ArialMT-72" transform="translate(116.699219 0)"/>
      <use xlink:href="#ArialMT-6d" transform="translate(150 0)"/>
      <use xlink:href="#ArialMT-61" transform="translate(233.300781 0)"/>
      <use xlink:href="#ArialMT-74" transform="translate(288.916016 0)"/>
      <use xlink:href="#ArialMT-69" transform="translate(316.699219 0)"/>
      <use xlink:href="#ArialMT-6f" transform="translate(338.916016 0)"/>
      <use xlink:href="#ArialMT-6e" transform="translate(394.53125 0)"/>
      <use xlink:href="#ArialMT-20" transform="translate(450.146484 0)"/>
      <use xlink:href="#ArialMT-45" transform="translate(477.929688 0)"/>
      <use xlink:href="#ArialMT-6e" transform="translate(544.628906 0)"/>
      <use xlink:href="#ArialMT-65" transform="translate(600.244141 0)"/>
      <use xlink:href="#ArialMT-72" transform="translate(655.859375 0)"/>
      <use xlink:href="#ArialMT-67" transform="translate(689.160156 0)"/>
      <use xlink:href="#ArialMT-79" transform="translate(744.775391 0)"/>
      <use xlink:href="#ArialMT-20" transform="translate(794.775391 0)"/>
      <use xlink:href="#ArialMT-28" transform="translate(822.558594 0)"/>
      <use xlink:href="#ArialMT-65" transform="translate(855.859375 0)"/>
      <use xlink:href="#ArialMT-56" transform="translate(911.474609 0)"/>
      <use xlink:href="#ArialMT-2f" transform="translate(978.173828 0)"/>
      <use xlink:href="#ArialMT-61" transform="translate(1005.957031 0)"/>
      <use xlink:href="#ArialMT-74" transform="translate(1061.572266 0)"/>
      <use xlink:href="#ArialMT-6f" transform="translate(1089.355469 0)"/>
      <use xlink:href="#ArialMT-6d" transform="translate(1144.970703 0)"/>
      <use xlink:href="#ArialMT-29" transform="translate(1228.271484 0)"/>
     </g>
    </g>
   </g>
   <g id="LineCollection_1"/>
   <g id="patch_6">
    <path d="M 287.298425 195.703937 
L 291.66378 203.640945 
L 296.029134 195.703937 
L 296.029134 36.96378 
L 291.66378 29.026772 
L 287.298425 36.96378 
L 287.298425 195.703937 
z
" style="fill: none; stroke: #000000; stroke-width: 0.8; stroke-linejoin: miter; stroke-linecap: square"/>
   </g>
  </g>
 </g>
 <defs>
  <clipPath id="p5727ecdc12">
   <rect x="7.2" y="7.2" width="263.622047" height="218.267717"/>
  </clipPath>
  <clipPath id="p47ce284bd8">
   <rect x="287.298425" y="36.96378" width="8.730709" height="158.740157"/>
  </clipPath>
 </defs>
</svg>
