<?xml version="1.0" encoding="utf-8" standalone="no"?>
<!DOCTYPE svg PUBLIC "-//W3C//DTD SVG 1.1//EN"
  "http://www.w3.org/Graphics/SVG/1.1/DTD/svg11.dtd">
<svg xmlns:xlink="http://www.w3.org/1999/xlink" width="344.803509pt" height="232.667717pt" viewBox="0 0 344.803509 232.667717" xmlns="http://www.w3.org/2000/svg" version="1.1">
 <metadata>
  <rdf:RDF xmlns:dc="http://purl.org/dc/elements/1.1/" xmlns:cc="http://creativecommons.org/ns#" xmlns:rdf="http://www.w3.org/1999/02/22-rdf-syntax-ns#">
   <cc:Work>
    <dc:type rdf:resource="http://purl.org/dc/dcmitype/StillImage"/>
    <dc:date>2026-01-27T21:37:44.469429</dc:date>
    <dc:format>image/svg+xml</dc:format>
    <dc:creator>
     <cc:Agent>
      <dc:title>Matplotlib v3.10.8, https://matplotlib.org/</dc:title>
     </cc:Agent>
    </dc:creator>
   </cc:Work>
  </rdf:RDF>
 </metadata>
 <defs>
  <style type="text/css">*{stroke-linejoin: round; stroke-linecap: butt}</style>
 </defs>
 <g id="figure_1">
  <g id="patch_1">
   <path d="M 0 232.667717 
L 344.803509 232.667717 
L 344.803509 0 
L 0 0 
L 0 232.667717 
z
" style="fill: none"/>
  </g>
  <g id="axes_1">
   <g id="patch_2">
    <path d="M 7.2 225.467717 
L 270.822047 225.467717 
L 270.822047 7.2 
L 7.2 7.2 
L 7.2 225.467717 
z
" style="fill: none"/>
   </g>
   <g id="TriContourSet_1">
    <path d="M 78.276662 121.335573 
L 79.999114 124.311179 
L 84.078497 127.899922 
L 86.918325 127.015305 
L 85.444336 125.048065 
L 79.917182 118.747701 
L 79.096922 120.041637 
z
" clip-path="url(#p6eed90dd76)" style="fill: #440154; fill-opacity: 0.7"/>
    <path d="M 79.917182 118.747701 
L 85.444336 125.048065 
L 86.918325 127.015305 
L 84.078497 127.899922 
L 79.999114 124.311179 
L 78.276662 121.335573 
L 76.869666 123.555067 
L 81.546648 131.634746 
L 92.623419 141.379279 
L 100.334419 138.977274 
L 96.332088 133.635615 
L 81.324178 116.528207 
z
" clip-path="url(#p6eed90dd76)" style="fill: #450559; fill-opacity: 0.7"/>
    <path d="M 81.324178 116.528207 
L 96.332088 133.635615 
L 100.334419 138.977274 
L 92.623419 141.379279 
L 81.546648 131.634746 
L 76.869666 123.555067 
L 75.462669 125.774561 
L 83.094183 138.958313 
L 101.16834 154.858636 
L 113.750512 150.939243 
L 107.21984 142.223166 
L 82.731174 114.308713 
z
" clip-path="url(#p6eed90dd76)" style="fill: #470e61; fill-opacity: 0.7"/>
    <path d="M 82.731174 114.308713 
L 107.21984 142.223166 
L 113.750512 150.939243 
L 101.16834 154.858636 
L 83.094183 138.958313 
L 75.462669 125.774561 
L 74.055673 127.994055 
L 84.641717 146.28188 
L 109.713262 168.337993 
L 127.166605 162.901212 
L 118.107592 150.810717 
L 84.138171 112.089219 
z
" clip-path="url(#p6eed90dd76)" style="fill: #481769; fill-opacity: 0.7"/>
    <path d="M 84.138171 112.089219 
L 118.107592 150.810717 
L 127.166605 162.901212 
L 109.713262 168.337993 
L 84.641717 146.28188 
L 74.055673 127.994055 
L 72.648677 130.21355 
L 86.189251 153.605446 
L 118.258183 181.817349 
L 140.582698 174.863181 
L 128.995344 159.398267 
L 85.545167 109.869725 
z
" clip-path="url(#p6eed90dd76)" style="fill: #481f70; fill-opacity: 0.7"/>
    <path d="M 85.545167 109.869725 
L 128.995344 159.398267 
L 140.582698 174.863181 
L 118.258183 181.817349 
L 86.189251 153.605446 
L 72.648677 130.21355 
L 71.241681 132.433044 
L 87.736786 160.929013 
L 126.803105 195.296706 
L 153.998791 186.82515 
L 139.883096 167.985818 
L 86.952163 107.65023 
z
" clip-path="url(#p6eed90dd76)" style="fill: #482878; fill-opacity: 0.7"/>
    <path d="M 86.952163 107.65023 
L 139.883096 167.985818 
L 153.998791 186.82515 
L 126.803105 195.296706 
L 87.736786 160.929013 
L 71.241681 132.433044 
L 69.834685 134.652538 
L 89.28432 168.25258 
L 135.348027 208.776063 
L 167.414885 198.787119 
L 150.770848 176.573369 
L 88.359159 105.430736 
z
" clip-path="url(#p6eed90dd76)" style="fill: #472f7d; fill-opacity: 0.7"/>
    <path d="M 88.359159 105.430736 
L 150.770848 176.573369 
L 167.414885 198.787119 
L 135.348027 208.776063 
L 89.28432 168.25258 
L 69.834685 134.652538 
L 68.427688 136.872032 
L 90.831855 175.576147 
L 135.138994 214.554331 
L 139.011024 214.554331 
L 168.615255 214.554331 
L 180.830978 210.749088 
L 161.6586 185.160919 
L 89.766156 103.211242 
z
" clip-path="url(#p6eed90dd76)" style="fill: #453781; fill-opacity: 0.7"/>
    <path d="M 188.135503 214.554331 
L 172.546352 193.74847 
L 91.173152 100.991748 
L 89.766156 103.211242 
L 161.6586 185.160919 
L 180.830978 210.749088 
L 168.615255 214.554331 
L 185.098794 214.554331 
z
M 67.020692 139.091527 
L 92.379389 182.899714 
L 128.36171 214.554331 
L 135.138994 214.554331 
L 90.831855 175.576147 
L 68.427688 136.872032 
z
" clip-path="url(#p6eed90dd76)" style="fill: #433e85; fill-opacity: 0.7"/>
    <path d="M 192.588884 214.554331 
L 183.434104 202.336021 
L 92.580148 98.772253 
L 91.173152 100.991748 
L 172.546352 193.74847 
L 188.135503 214.554331 
z
M 65.613696 141.311021 
L 93.926923 190.223281 
L 121.584426 214.554331 
L 128.36171 214.554331 
L 92.379389 182.899714 
L 67.020692 139.091527 
z
" clip-path="url(#p6eed90dd76)" style="fill: #404688; fill-opacity: 0.7"/>
    <path d="M 197.042265 214.554331 
L 194.321856 210.923572 
L 93.987144 96.552759 
L 92.580148 98.772253 
L 183.434104 202.336021 
L 192.588884 214.554331 
z
M 64.2067 143.530515 
L 95.474458 197.546848 
L 114.807142 214.554331 
L 121.584426 214.554331 
L 93.926923 190.223281 
L 65.613696 141.311021 
z
" clip-path="url(#p6eed90dd76)" style="fill: #3d4d8a; fill-opacity: 0.7"/>
    <path d="M 200.020308 214.554331 
L 199.390226 213.086967 
L 197.829942 211.099094 
L 95.394141 94.333265 
L 93.987144 96.552759 
L 194.321856 210.923572 
L 197.042265 214.554331 
L 198.925125 214.554331 
z
M 62.799703 145.750009 
L 97.021992 204.870415 
L 108.029858 214.554331 
L 114.807142 214.554331 
L 95.474458 197.546848 
L 64.2067 143.530515 
z
" clip-path="url(#p6eed90dd76)" style="fill: #3a538b; fill-opacity: 0.7"/>
    <path d="M 201.917693 214.554331 
L 200.196003 210.544787 
L 195.932558 205.11296 
L 96.801137 92.113771 
L 95.394141 94.333265 
L 197.829942 211.099094 
L 199.390226 213.086967 
L 200.020308 214.554331 
z
M 61.392707 147.969503 
L 98.569527 212.193982 
L 101.252574 214.554331 
L 108.029858 214.554331 
L 97.021992 204.870415 
L 62.799703 145.750009 
z
" clip-path="url(#p6eed90dd76)" style="fill: #375a8c; fill-opacity: 0.7"/>
    <path d="M 203.815077 214.554331 
L 201.001781 208.002606 
L 194.035173 199.126827 
L 98.208133 89.894276 
L 96.801137 92.113771 
L 195.932558 205.11296 
L 200.196003 210.544787 
L 201.917693 214.554331 
z
M 59.985711 150.188998 
L 97.244065 214.554331 
L 99.068289 214.554331 
L 101.252574 214.554331 
L 98.569527 212.193982 
L 61.392707 147.969503 
z
" clip-path="url(#p6eed90dd76)" style="fill: #34618d; fill-opacity: 0.7"/>
    <path d="M 205.712462 214.554331 
L 201.807559 205.460426 
L 192.137789 193.140693 
L 99.615129 87.674782 
L 98.208133 89.894276 
L 194.035173 199.126827 
L 201.001781 208.002606 
L 203.815077 214.554331 
z
M 58.578715 152.408492 
L 94.552298 214.554331 
L 97.244065 214.554331 
L 59.985711 150.188998 
z
" clip-path="url(#p6eed90dd76)" style="fill: #31678e; fill-opacity: 0.7"/>
    <path d="M 207.609846 214.554331 
L 202.613337 202.918245 
L 190.240404 187.154559 
L 101.022125 85.455288 
L 99.615129 87.674782 
L 192.137789 193.140693 
L 201.807559 205.460426 
L 205.712462 214.554331 
z
M 57.171719 154.627986 
L 91.860531 214.554331 
L 94.552298 214.554331 
L 58.578715 152.408492 
z
" clip-path="url(#p6eed90dd76)" style="fill: #2e6d8e; fill-opacity: 0.7"/>
    <path d="M 209.507231 214.554331 
L 203.419115 200.376065 
L 188.34302 181.168425 
L 102.429122 83.235794 
L 101.022125 85.455288 
L 190.240404 187.154559 
L 202.613337 202.918245 
L 207.609846 214.554331 
z
M 55.764722 156.84748 
L 89.168764 214.554331 
L 91.860531 214.554331 
L 57.171719 154.627986 
z
" clip-path="url(#p6eed90dd76)" style="fill: #2c728e; fill-opacity: 0.7"/>
    <path d="M 211.404615 214.554331 
L 204.224892 197.833884 
L 186.445635 175.182291 
L 103.836118 81.016299 
L 102.429122 83.235794 
L 188.34302 181.168425 
L 203.419115 200.376065 
L 209.507231 214.554331 
z
M 54.357726 159.066975 
L 86.476997 214.554331 
L 89.168764 214.554331 
L 55.764722 156.84748 
z
" clip-path="url(#p6eed90dd76)" style="fill: #29798e; fill-opacity: 0.7"/>
    <path d="M 213.302 214.554331 
L 205.03067 195.291704 
L 184.548251 169.196157 
L 105.243114 78.796805 
L 103.836118 81.016299 
L 186.445635 175.182291 
L 204.224892 197.833884 
L 211.404615 214.554331 
z
M 52.95073 161.286469 
L 83.78523 214.554331 
L 86.476997 214.554331 
L 54.357726 159.066975 
z
" clip-path="url(#p6eed90dd76)" style="fill: #277f8e; fill-opacity: 0.7"/>
    <path d="M 215.199384 214.554331 
L 205.836448 192.749523 
L 182.650867 163.210023 
L 106.65011 76.577311 
L 105.243114 78.796805 
L 184.548251 169.196157 
L 205.03067 195.291704 
L 213.302 214.554331 
z
M 51.543734 163.505963 
L 81.093463 214.554331 
L 83.78523 214.554331 
L 52.95073 161.286469 
z
" clip-path="url(#p6eed90dd76)" style="fill: #25848e; fill-opacity: 0.7"/>
    <path d="M 217.096768 214.554331 
L 206.642226 190.207343 
L 180.753482 157.223889 
L 108.057107 74.357817 
L 106.65011 76.577311 
L 182.650867 163.210023 
L 205.836448 192.749523 
L 215.199384 214.554331 
z
M 50.136737 165.725457 
L 78.401696 214.554331 
L 81.093463 214.554331 
L 51.543734 163.505963 
z
" clip-path="url(#p6eed90dd76)" style="fill: #238a8d; fill-opacity: 0.7"/>
    <path d="M 218.994153 214.554331 
L 207.448004 187.665162 
L 178.856098 151.237755 
L 109.464103 72.138322 
L 108.057107 74.357817 
L 180.753482 157.223889 
L 206.642226 190.207343 
L 217.096768 214.554331 
z
M 48.729741 167.944952 
L 75.709929 214.554331 
L 78.401696 214.554331 
L 50.136737 165.725457 
z
" clip-path="url(#p6eed90dd76)" style="fill: #21918c; fill-opacity: 0.7"/>
    <path d="M 220.891537 214.554331 
L 208.253781 185.122982 
L 176.958713 145.251621 
L 110.871099 69.918828 
L 109.464103 72.138322 
L 178.856098 151.237755 
L 207.448004 187.665162 
L 218.994153 214.554331 
z
M 47.322745 170.164446 
L 73.018162 214.554331 
L 75.709929 214.554331 
L 48.729741 167.944952 
z
" clip-path="url(#p6eed90dd76)" style="fill: #1f968b; fill-opacity: 0.7"/>
    <path d="M 222.788922 214.554331 
L 209.059559 182.580801 
L 175.061329 139.265487 
L 112.278095 67.699334 
L 110.871099 69.918828 
L 176.958713 145.251621 
L 208.253781 185.122982 
L 220.891537 214.554331 
z
M 45.915749 172.38394 
L 70.326395 214.554331 
L 73.018162 214.554331 
L 47.322745 170.164446 
z
" clip-path="url(#p6eed90dd76)" style="fill: #1e9c89; fill-opacity: 0.7"/>
    <path d="M 224.686306 214.554331 
L 209.865337 180.038621 
L 173.163944 133.279354 
L 113.685092 65.47984 
L 112.278095 67.699334 
L 175.061329 139.265487 
L 209.059559 182.580801 
L 222.788922 214.554331 
z
M 44.508752 174.603434 
L 67.634627 214.554331 
L 70.326395 214.554331 
L 45.915749 172.38394 
z
" clip-path="url(#p6eed90dd76)" style="fill: #1fa187; fill-opacity: 0.7"/>
    <path d="M 226.583691 214.554331 
L 210.671115 177.49644 
L 171.26656 127.29322 
L 115.092088 63.260345 
L 113.685092 65.47984 
L 173.163944 133.279354 
L 209.865337 180.038621 
L 224.686306 214.554331 
z
M 43.101756 176.822929 
L 64.94286 214.554331 
L 67.634627 214.554331 
L 44.508752 174.603434 
z
" clip-path="url(#p6eed90dd76)" style="fill: #22a785; fill-opacity: 0.7"/>
    <path d="M 228.481075 214.554331 
L 211.476893 174.95426 
L 169.369175 121.307086 
L 116.499084 61.040851 
L 115.092088 63.260345 
L 171.26656 127.29322 
L 210.671115 177.49644 
L 226.583691 214.554331 
z
M 41.69476 179.042423 
L 62.251093 214.554331 
L 64.94286 214.554331 
L 43.101756 176.822929 
z
" clip-path="url(#p6eed90dd76)" style="fill: #27ad81; fill-opacity: 0.7"/>
    <path d="M 230.37846 214.554331 
L 212.28267 172.412079 
L 167.471791 115.320952 
L 117.90608 58.821357 
L 116.499084 61.040851 
L 169.369175 121.307086 
L 211.476893 174.95426 
L 228.481075 214.554331 
z
M 40.287764 181.261917 
L 59.559326 214.554331 
L 62.251093 214.554331 
L 41.69476 179.042423 
z
" clip-path="url(#p6eed90dd76)" style="fill: #2eb37c; fill-opacity: 0.7"/>
    <path d="M 232.275844 214.554331 
L 213.088448 169.869899 
L 165.574406 109.334818 
L 119.313076 56.601863 
L 117.90608 58.821357 
L 167.471791 115.320952 
L 212.28267 172.412079 
L 230.37846 214.554331 
z
M 38.880768 183.481411 
L 56.867559 214.554331 
L 59.559326 214.554331 
L 40.287764 181.261917 
z
" clip-path="url(#p6eed90dd76)" style="fill: #37b878; fill-opacity: 0.7"/>
    <path d="M 234.173229 214.554331 
L 213.894226 167.327718 
L 163.677022 103.348684 
L 120.720073 54.382368 
L 119.313076 56.601863 
L 165.574406 109.334818 
L 213.088448 169.869899 
L 232.275844 214.554331 
z
M 37.473771 185.700906 
L 54.175792 214.554331 
L 56.867559 214.554331 
L 38.880768 183.481411 
z
" clip-path="url(#p6eed90dd76)" style="fill: #40bd72; fill-opacity: 0.7"/>
    <path d="M 236.070613 214.554331 
L 214.700004 164.785538 
L 161.779637 97.36255 
L 122.127069 52.162874 
L 120.720073 54.382368 
L 163.677022 103.348684 
L 213.894226 167.327718 
L 234.173229 214.554331 
z
M 36.066775 187.9204 
L 51.484025 214.554331 
L 54.175792 214.554331 
L 37.473771 185.700906 
z
" clip-path="url(#p6eed90dd76)" style="fill: #4ec36b; fill-opacity: 0.7"/>
    <path d="M 237.967998 214.554331 
L 215.505782 162.243357 
L 159.882253 91.376416 
L 123.534065 49.94338 
L 122.127069 52.162874 
L 161.779637 97.36255 
L 214.700004 164.785538 
L 236.070613 214.554331 
z
M 34.659779 190.139894 
L 48.792258 214.554331 
L 51.484025 214.554331 
L 36.066775 187.9204 
z
" clip-path="url(#p6eed90dd76)" style="fill: #5ac864; fill-opacity: 0.7"/>
    <path d="M 239.865382 214.554331 
L 216.311559 159.701177 
L 157.984868 85.390282 
L 124.941061 47.723886 
L 123.534065 49.94338 
L 159.882253 91.376416 
L 215.505782 162.243357 
L 237.967998 214.554331 
z
M 33.252783 192.359388 
L 46.100491 214.554331 
L 48.792258 214.554331 
L 34.659779 190.139894 
z
" clip-path="url(#p6eed90dd76)" style="fill: #67cc5c; fill-opacity: 0.7"/>
    <path d="M 241.762767 214.554331 
L 217.117337 157.158996 
L 156.087484 79.404148 
L 126.348058 45.504392 
L 124.941061 47.723886 
L 157.984868 85.390282 
L 216.311559 159.701177 
L 239.865382 214.554331 
z
M 31.845786 194.578883 
L 43.408724 214.554331 
L 46.100491 214.554331 
L 33.252783 192.359388 
z
" clip-path="url(#p6eed90dd76)" style="fill: #75d054; fill-opacity: 0.7"/>
    <path d="M 243.660151 214.554331 
L 217.923115 154.616816 
L 154.190099 73.418015 
L 127.755054 43.284897 
L 126.348058 45.504392 
L 156.087484 79.404148 
L 217.117337 157.158996 
L 241.762767 214.554331 
z
M 30.43879 196.798377 
L 40.716957 214.554331 
L 43.408724 214.554331 
L 31.845786 194.578883 
z
" clip-path="url(#p6eed90dd76)" style="fill: #86d549; fill-opacity: 0.7"/>
    <path d="M 245.557536 214.554331 
L 218.728893 152.074635 
L 152.292715 67.431881 
L 129.16205 41.065403 
L 127.755054 43.284897 
L 154.190099 73.418015 
L 217.923115 154.616816 
L 243.660151 214.554331 
z
M 29.031794 199.017871 
L 38.02519 214.554331 
L 40.716957 214.554331 
L 30.43879 196.798377 
z
" clip-path="url(#p6eed90dd76)" style="fill: #95d840; fill-opacity: 0.7"/>
    <path d="M 247.45492 214.554331 
L 223.554139 158.893165 
L 218.896492 151.545868 
L 209.5812 136.851274 
L 150.39533 61.445747 
L 130.569046 38.845909 
L 129.16205 41.065403 
L 152.292715 67.431881 
L 218.728893 152.074635 
L 245.557536 214.554331 
z
M 27.624798 201.237365 
L 35.333423 214.554331 
L 38.02519 214.554331 
L 29.031794 199.017871 
z
" clip-path="url(#p6eed90dd76)" style="fill: #a5db36; fill-opacity: 0.7"/>
    <path d="M 249.352305 214.554331 
L 229.434987 168.170026 
L 223.554139 158.893165 
L 247.45492 214.554331 
z
M 197.819504 118.297552 
L 148.497946 55.459613 
L 131.976042 36.626415 
L 130.569046 38.845909 
L 150.39533 61.445747 
L 209.5812 136.851274 
z
M 26.217801 203.45686 
L 32.641656 214.554331 
L 35.333423 214.554331 
L 27.624798 201.237365 
z
" clip-path="url(#p6eed90dd76)" style="fill: #b5de2b; fill-opacity: 0.7"/>
    <path d="M 251.249689 214.554331 
L 235.315835 177.446887 
L 229.434987 168.170026 
L 249.352305 214.554331 
z
M 186.057808 99.743831 
L 146.600562 49.473479 
L 133.383039 34.40692 
L 131.976042 36.626415 
L 148.497946 55.459613 
L 197.819504 118.297552 
z
M 24.810805 205.676354 
L 29.949889 214.554331 
L 32.641656 214.554331 
L 26.217801 203.45686 
z
" clip-path="url(#p6eed90dd76)" style="fill: #c8e020; fill-opacity: 0.7"/>
    <path d="M 253.147073 214.554331 
L 241.196683 186.723748 
L 235.315835 177.446887 
L 251.249689 214.554331 
z
M 174.296112 81.190109 
L 144.703177 43.487345 
L 134.790035 32.187426 
L 133.383039 34.40692 
L 146.600562 49.473479 
L 186.057808 99.743831 
z
M 23.403809 207.895848 
L 27.258122 214.554331 
L 29.949889 214.554331 
L 24.810805 205.676354 
z
" clip-path="url(#p6eed90dd76)" style="fill: #d8e219; fill-opacity: 0.7"/>
    <path d="M 255.044458 214.554331 
L 247.077531 196.000609 
L 241.196683 186.723748 
L 253.147073 214.554331 
z
M 162.534416 62.636387 
L 142.805793 37.501211 
L 136.197031 29.967932 
L 134.790035 32.187426 
L 144.703177 43.487345 
L 174.296112 81.190109 
z
M 21.996813 210.115342 
L 24.566354 214.554331 
L 27.258122 214.554331 
L 23.403809 207.895848 
z
" clip-path="url(#p6eed90dd76)" style="fill: #e7e419; fill-opacity: 0.7"/>
    <path d="M 256.941842 214.554331 
L 252.958379 205.27747 
L 247.077531 196.000609 
L 255.044458 214.554331 
z
M 150.77272 44.082665 
L 140.908408 31.515077 
L 137.604027 27.748438 
L 136.197031 29.967932 
L 142.805793 37.501211 
L 162.534416 62.636387 
z
M 20.589817 212.334836 
L 21.874587 214.554331 
L 24.566354 214.554331 
L 21.996813 210.115342 
z
" clip-path="url(#p6eed90dd76)" style="fill: #f6e620; fill-opacity: 0.7"/>
    <path d="M 252.958379 205.27747 
L 256.941842 214.554331 
L 258.839227 214.554331 
z
M 137.604027 27.748438 
L 140.908408 31.515077 
L 150.77272 44.082665 
L 139.011024 25.528943 
z
M 21.874587 214.554331 
L 20.589817 212.334836 
L 19.18282 214.554331 
z
" clip-path="url(#p6eed90dd76)" style="fill: #fde725; fill-opacity: 0.7"/>
   </g>
   <g id="matplotlib.axis_1"/>
   <g id="matplotlib.axis_2"/>
   <g id="line2d_1">
    <path d="M 198.925125 214.554331 
L 185.098794 214.554331 
" clip-path="url(#p6eed90dd76)" style="fill: none; stroke: #555555; stroke-opacity: 0.9; stroke-width: 0.5; stroke-linecap: square"/>
   </g>
   <g id="line2d_2">
    <path d="M 79.096922 120.041637 
L 139.011024 214.554331 
" clip-path="url(#p6eed90dd76)" style="fill: none; stroke: #555555; stroke-opacity: 0.9; stroke-width: 0.5; stroke-linecap: square"/>
   </g>
   <g id="line2d_3">
    <path d="M 139.011024 214.554331 
L 185.098794 214.554331 
" clip-path="url(#p6eed90dd76)" style="fill: none; stroke: #555555; stroke-opacity: 0.9; stroke-width: 0.5; stroke-linecap: square"/>
   </g>
   <g id="line2d_4">
    <path d="M 79.096922 120.041637 
L 99.068289 214.554331 
" clip-path="url(#p6eed90dd76)" style="fill: none; stroke: #555555; stroke-opacity: 0.9; stroke-width: 0.5; stroke-linecap: square"/>
   </g>
   <g id="line2d_5">
    <path d="M 79.096922 120.041637 
L 139.011024 25.528943 
" clip-path="url(#p6eed90dd76)" style="fill: none; stroke: #555555; stroke-opacity: 0.9; stroke-width: 0.5; stroke-linecap: square"/>
   </g>
   <g id="line2d_6">
    <path d="M 218.896492 151.545868 
L 198.925125 214.554331 
" clip-path="url(#p6eed90dd76)" style="fill: none; stroke: #555555; stroke-opacity: 0.9; stroke-width: 0.5; stroke-linecap: square"/>
   </g>
   <g id="line2d_7">
    <path d="M 79.096922 120.041637 
L 185.098794 214.554331 
" clip-path="url(#p6eed90dd76)" style="fill: none; stroke: #555555; stroke-opacity: 0.9; stroke-width: 0.5; stroke-linecap: square"/>
   </g>
   <g id="line2d_8">
    <path d="M 99.068289 214.554331 
L 19.18282 214.554331 
" clip-path="url(#p6eed90dd76)" style="fill: none; stroke: #555555; stroke-opacity: 0.9; stroke-width: 0.5; stroke-linecap: square"/>
   </g>
   <g id="line2d_9">
    <path d="M 218.896492 151.545868 
L 258.839227 214.554331 
" clip-path="url(#p6eed90dd76)" style="fill: none; stroke: #555555; stroke-opacity: 0.9; stroke-width: 0.5; stroke-linecap: square"/>
   </g>
   <g id="line2d_10">
    <path d="M 79.096922 120.041637 
L 19.18282 214.554331 
" clip-path="url(#p6eed90dd76)" style="fill: none; stroke: #555555; stroke-opacity: 0.9; stroke-width: 0.5; stroke-linecap: square"/>
   </g>
   <g id="line2d_11">
    <path d="M 198.925125 214.554331 
L 258.839227 214.554331 
" clip-path="url(#p6eed90dd76)" style="fill: none; stroke: #555555; stroke-opacity: 0.9; stroke-width: 0.5; stroke-linecap: square"/>
   </g>
   <g id="line2d_12">
    <path d="M 139.011024 214.554331 
L 99.068289 214.554331 
" clip-path="url(#p6eed90dd76)" style="fill: none; stroke: #555555; stroke-opacity: 0.9; stroke-width: 0.5; stroke-linecap: square"/>
   </g>
   <g id="line2d_13">
    <path d="M 79.096922 120.041637 
L 198.925125 214.554331 
" clip-path="url(#p6eed90dd76)" style="fill: none; stroke: #555555; stroke-opacity: 0.9; stroke-width: 0.5; stroke-linecap: square"/>
   </g>
   <g id="line2d_14">
    <path d="M 218.896492 151.545868 
L 139.011024 25.528943 
" clip-path="url(#p6eed90dd76)" style="fill: none; stroke: #555555; stroke-opacity: 0.9; stroke-width: 0.5; stroke-linecap: square"/>
   </g>
   <g id="line2d_15">
    <path d="M 198.925125 214.554331 
L 139.011024 25.528943 
" clip-path="url(#p6eed90dd76)" style="fill: none; stroke: #555555; stroke-opacity: 0.9; stroke-width: 0.5; stroke-linecap: square"/>
   </g>
   <g id="PathCollection_1">
    <defs>
     <path id="mea76d0eae0" d="M 0 2.738613 
C 0.726289 2.738613 1.422928 2.450055 1.936492 1.936492 
C 2.450055 1.422928 2.738613 0.726289 2.738613 0 
C 2.738613 -0.726289 2.450055 -1.422928 1.936492 -1.936492 
C 1.422928 -2.450055 0.726289 -2.738613 0 -2.738613 
C -0.726289 -2.738613 -1.422928 -2.450055 -1.936492 -1.936492 
C -2.450055 -1.422928 -2.738613 -0.726289 -2.738613 0 
C -2.738613 0.726289 -2.450055 1.422928 -1.936492 1.936492 
C -1.422928 2.450055 -0.726289 2.738613 0 2.738613 
z
" style="stroke: #008000"/>
    </defs>
    <g clip-path="url(#p6eed90dd76)">
     <use xlink:href="#mea76d0eae0" x="198.925125" y="214.554331" style="fill: #008000; stroke: #008000"/>
     <use xlink:href="#mea76d0eae0" x="185.098794" y="214.554331" style="fill: #008000; stroke: #008000"/>
     <use xlink:href="#mea76d0eae0" x="79.096922" y="120.041637" style="fill: #008000; stroke: #008000"/>
     <use xlink:href="#mea76d0eae0" x="139.011024" y="214.554331" style="fill: #008000; stroke: #008000"/>
     <use xlink:href="#mea76d0eae0" x="99.068289" y="214.554331" style="fill: #008000; stroke: #008000"/>
     <use xlink:href="#mea76d0eae0" x="139.011024" y="25.528943" style="fill: #008000; stroke: #008000"/>
     <use xlink:href="#mea76d0eae0" x="218.896492" y="151.545868" style="fill: #008000; stroke: #008000"/>
     <use xlink:href="#mea76d0eae0" x="19.18282" y="214.554331" style="fill: #008000; stroke: #008000"/>
     <use xlink:href="#mea76d0eae0" x="258.839227" y="214.554331" style="fill: #008000; stroke: #008000"/>
    </g>
   </g>
   <g id="PathCollection_2">
    <defs>
     <path id="mb68247635b" d="M -0 2.236068 
L 1.341641 0 
L 0 -2.236068 
L -1.341641 -0 
z
" style="stroke: #d3d3d3"/>
    </defs>
    <g clip-path="url(#p6eed90dd76)">
     <use xlink:href="#mb68247635b" x="139.011024" y="25.528943" style="fill: #d3d3d3; stroke: #d3d3d3"/>
     <use xlink:href="#mb68247635b" x="139.011024" y="25.528943" style="fill: #d3d3d3; stroke: #d3d3d3"/>
     <use xlink:href="#mb68247635b" x="139.011024" y="25.528943" style="fill: #d3d3d3; stroke: #d3d3d3"/>
     <use xlink:href="#mb68247635b" x="139.011024" y="25.528943" style="fill: #d3d3d3; stroke: #d3d3d3"/>
     <use xlink:href="#mb68247635b" x="139.011024" y="25.528943" style="fill: #d3d3d3; stroke: #d3d3d3"/>
     <use xlink:href="#mb68247635b" x="139.011024" y="25.528943" style="fill: #d3d3d3; stroke: #d3d3d3"/>
     <use xlink:href="#mb68247635b" x="139.011024" y="25.528943" style="fill: #d3d3d3; stroke: #d3d3d3"/>
     <use xlink:href="#mb68247635b" x="139.011024" y="25.528943" style="fill: #d3d3d3; stroke: #d3d3d3"/>
     <use xlink:href="#mb68247635b" x="139.011024" y="25.528943" style="fill: #d3d3d3; stroke: #d3d3d3"/>
     <use xlink:href="#mb68247635b" x="139.011024" y="25.528943" style="fill: #d3d3d3; stroke: #d3d3d3"/>
     <use xlink:href="#mb68247635b" x="139.011024" y="25.528943" style="fill: #d3d3d3; stroke: #d3d3d3"/>
     <use xlink:href="#mb68247635b" x="139.011024" y="25.528943" style="fill: #d3d3d3; stroke: #d3d3d3"/>
     <use xlink:href="#mb68247635b" x="139.011024" y="25.528943" style="fill: #d3d3d3; stroke: #d3d3d3"/>
     <use xlink:href="#mb68247635b" x="258.839227" y="214.554331" style="fill: #d3d3d3; stroke: #d3d3d3"/>
     <use xlink:href="#mb68247635b" x="258.839227" y="214.554331" style="fill: #d3d3d3; stroke: #d3d3d3"/>
     <use xlink:href="#mb68247635b" x="258.839227" y="214.554331" style="fill: #d3d3d3; stroke: #d3d3d3"/>
     <use xlink:href="#mb68247635b" x="258.839227" y="214.554331" style="fill: #d3d3d3; stroke: #d3d3d3"/>
     <use xlink:href="#mb68247635b" x="258.839227" y="214.554331" style="fill: #d3d3d3; stroke: #d3d3d3"/>
     <use xlink:href="#mb68247635b" x="258.839227" y="214.554331" style="fill: #d3d3d3; stroke: #d3d3d3"/>
     <use xlink:href="#mb68247635b" x="258.839227" y="214.554331" style="fill: #d3d3d3; stroke: #d3d3d3"/>
     <use xlink:href="#mb68247635b" x="228.882176" y="167.297984" style="fill: #d3d3d3; stroke: #d3d3d3"/>
     <use xlink:href="#mb68247635b" x="228.882176" y="167.297984" style="fill: #d3d3d3; stroke: #d3d3d3"/>
     <use xlink:href="#mb68247635b" x="228.882176" y="167.297984" style="fill: #d3d3d3; stroke: #d3d3d3"/>
     <use xlink:href="#mb68247635b" x="228.882176" y="167.297984" style="fill: #d3d3d3; stroke: #d3d3d3"/>
     <use xlink:href="#mb68247635b" x="231.186565" y="170.933087" style="fill: #d3d3d3; stroke: #d3d3d3"/>
     <use xlink:href="#mb68247635b" x="233.161755" y="174.048891" style="fill: #d3d3d3; stroke: #d3d3d3"/>
     <use xlink:href="#mb68247635b" x="19.18282" y="214.554331" style="fill: #d3d3d3; stroke: #d3d3d3"/>
     <use xlink:href="#mb68247635b" x="19.18282" y="214.554331" style="fill: #d3d3d3; stroke: #d3d3d3"/>
     <use xlink:href="#mb68247635b" x="19.18282" y="214.554331" style="fill: #d3d3d3; stroke: #d3d3d3"/>
     <use xlink:href="#mb68247635b" x="19.18282" y="214.554331" style="fill: #d3d3d3; stroke: #d3d3d3"/>
     <use xlink:href="#mb68247635b" x="19.18282" y="214.554331" style="fill: #d3d3d3; stroke: #d3d3d3"/>
     <use xlink:href="#mb68247635b" x="19.18282" y="214.554331" style="fill: #d3d3d3; stroke: #d3d3d3"/>
     <use xlink:href="#mb68247635b" x="19.18282" y="214.554331" style="fill: #d3d3d3; stroke: #d3d3d3"/>
     <use xlink:href="#mb68247635b" x="19.18282" y="214.554331" style="fill: #d3d3d3; stroke: #d3d3d3"/>
     <use xlink:href="#mb68247635b" x="19.18282" y="214.554331" style="fill: #d3d3d3; stroke: #d3d3d3"/>
     <use xlink:href="#mb68247635b" x="79.096922" y="120.041637" style="fill: #d3d3d3; stroke: #d3d3d3"/>
     <use xlink:href="#mb68247635b" x="79.096922" y="120.041637" style="fill: #d3d3d3; stroke: #d3d3d3"/>
     <use xlink:href="#mb68247635b" x="79.096922" y="120.041637" style="fill: #d3d3d3; stroke: #d3d3d3"/>
     <use xlink:href="#mb68247635b" x="79.096922" y="120.041637" style="fill: #d3d3d3; stroke: #d3d3d3"/>
     <use xlink:href="#mb68247635b" x="139.011024" y="214.554331" style="fill: #d3d3d3; stroke: #d3d3d3"/>
     <use xlink:href="#mb68247635b" x="198.925125" y="214.554331" style="fill: #d3d3d3; stroke: #d3d3d3"/>
     <use xlink:href="#mb68247635b" x="198.925125" y="214.554331" style="fill: #d3d3d3; stroke: #d3d3d3"/>
     <use xlink:href="#mb68247635b" x="198.925125" y="214.554331" style="fill: #d3d3d3; stroke: #d3d3d3"/>
     <use xlink:href="#mb68247635b" x="210.907946" y="214.554331" style="fill: #d3d3d3; stroke: #d3d3d3"/>
     <use xlink:href="#mb68247635b" x="99.068289" y="214.554331" style="fill: #d3d3d3; stroke: #d3d3d3"/>
     <use xlink:href="#mb68247635b" x="99.068289" y="214.554331" style="fill: #d3d3d3; stroke: #d3d3d3"/>
     <use xlink:href="#mb68247635b" x="79.096922" y="214.554331" style="fill: #d3d3d3; stroke: #d3d3d3"/>
     <use xlink:href="#mb68247635b" x="79.096922" y="214.554331" style="fill: #d3d3d3; stroke: #d3d3d3"/>
     <use xlink:href="#mb68247635b" x="115.045383" y="214.554331" style="fill: #d3d3d3; stroke: #d3d3d3"/>
     <use xlink:href="#mb68247635b" x="208.385247" y="214.554331" style="fill: #d3d3d3; stroke: #d3d3d3"/>
     <use xlink:href="#mb68247635b" x="102.140807" y="200.013916" style="fill: #d3d3d3; stroke: #d3d3d3"/>
    </g>
   </g>
   <g id="PathCollection_3">
    <defs>
     <path id="m6b2acc9cd9" d="M 0 -5 
L -1.12257 -1.545085 
L -4.755283 -1.545085 
L -1.816356 0.59017 
L -2.938926 4.045085 
L -0 1.90983 
L 2.938926 4.045085 
L 1.816356 0.59017 
L 4.755283 -1.545085 
L 1.12257 -1.545085 
z
" style="stroke: #0000ff"/>
    </defs>
    <g clip-path="url(#p6eed90dd76)">
     <use xlink:href="#m6b2acc9cd9" x="102.140807" y="200.013916" style="fill: #0000ff; stroke: #0000ff"/>
    </g>
   </g>
   <g id="text_1">
    <!-- $\mathrm{AlCu_{3}}$ -->
    <g transform="translate(194.843307 210.594971) scale(0.1 -0.1)">
     <defs>
      <path id="DejaVuSans-41" d="M 2188 4044 
L 1331 1722 
L 3047 1722 
L 2188 4044 
z
M 1831 4666 
L 2547 4666 
L 4325 0 
L 3669 0 
L 3244 1197 
L 1141 1197 
L 716 0 
L 50 0 
L 1831 4666 
z
" transform="scale(0.015625)"/>
      <path id="DejaVuSans-6c" d="M 603 4863 
L 1178 4863 
L 1178 0 
L 603 0 
L 603 4863 
z
" transform="scale(0.015625)"/>
      <path id="DejaVuSans-43" d="M 4122 4306 
L 4122 3641 
Q 3803 3938 3442 4084 
Q 3081 4231 2675 4231 
Q 1875 4231 1450 3742 
Q 1025 3253 1025 2328 
Q 1025 1406 1450 917 
Q 1875 428 2675 428 
Q 3081 428 3442 575 
Q 3803 722 4122 1019 
L 4122 359 
Q 3791 134 3420 21 
Q 3050 -91 2638 -91 
Q 1578 -91 968 557 
Q 359 1206 359 2328 
Q 359 3453 968 4101 
Q 1578 4750 2638 4750 
Q 3056 4750 3426 4639 
Q 3797 4528 4122 4306 
z
" transform="scale(0.015625)"/>
      <path id="DejaVuSans-75" d="M 544 1381 
L 544 3500 
L 1119 3500 
L 1119 1403 
Q 1119 906 1312 657 
Q 1506 409 1894 409 
Q 2359 409 2629 706 
Q 2900 1003 2900 1516 
L 2900 3500 
L 3475 3500 
L 3475 0 
L 2900 0 
L 2900 538 
Q 2691 219 2414 64 
Q 2138 -91 1772 -91 
Q 1169 -91 856 284 
Q 544 659 544 1381 
z
M 1991 3584 
L 1991 3584 
z
" transform="scale(0.015625)"/>
      <path id="DejaVuSans-33" d="M 2597 2516 
Q 3050 2419 3304 2112 
Q 3559 1806 3559 1356 
Q 3559 666 3084 287 
Q 2609 -91 1734 -91 
Q 1441 -91 1130 -33 
Q 819 25 488 141 
L 488 750 
Q 750 597 1062 519 
Q 1375 441 1716 441 
Q 2309 441 2620 675 
Q 2931 909 2931 1356 
Q 2931 1769 2642 2001 
Q 2353 2234 1838 2234 
L 1294 2234 
L 1294 2753 
L 1863 2753 
Q 2328 2753 2575 2939 
Q 2822 3125 2822 3475 
Q 2822 3834 2567 4026 
Q 2313 4219 1838 4219 
Q 1578 4219 1281 4162 
Q 984 4106 628 3988 
L 628 4550 
Q 988 4650 1302 4700 
Q 1616 4750 1894 4750 
Q 2613 4750 3031 4423 
Q 3450 4097 3450 3541 
Q 3450 3153 3228 2886 
Q 3006 2619 2597 2516 
z
" transform="scale(0.015625)"/>
     </defs>
     <use xlink:href="#DejaVuSans-41" transform="translate(0 0.015625)"/>
     <use xlink:href="#DejaVuSans-6c" transform="translate(68.408203 0.015625)"/>
     <use xlink:href="#DejaVuSans-43" transform="translate(96.191406 0.015625)"/>
     <use xlink:href="#DejaVuSans-75" transform="translate(166.015625 0.015625)"/>
     <use xlink:href="#DejaVuSans-33" transform="translate(230.351562 -16.390625) scale(0.7)"/>
    </g>
   </g>
   <g id="text_2">
    <!-- $\mathrm{Al_{4}Cu_{9}}$ -->
    <g transform="translate(160.944249 210.594971) scale(0.1 -0.1)">
     <defs>
      <path id="DejaVuSans-34" d="M 2419 4116 
L 825 1625 
L 2419 1625 
L 2419 4116 
z
M 2253 4666 
L 3047 4666 
L 3047 1625 
L 3713 1625 
L 3713 1100 
L 3047 1100 
L 3047 0 
L 2419 0 
L 2419 1100 
L 313 1100 
L 313 1709 
L 2253 4666 
z
" transform="scale(0.015625)"/>
      <path id="DejaVuSans-39" d="M 703 97 
L 703 672 
Q 941 559 1184 500 
Q 1428 441 1663 441 
Q 2288 441 2617 861 
Q 2947 1281 2994 2138 
Q 2813 1869 2534 1725 
Q 2256 1581 1919 1581 
Q 1219 1581 811 2004 
Q 403 2428 403 3163 
Q 403 3881 828 4315 
Q 1253 4750 1959 4750 
Q 2769 4750 3195 4129 
Q 3622 3509 3622 2328 
Q 3622 1225 3098 567 
Q 2575 -91 1691 -91 
Q 1453 -91 1209 -44 
Q 966 3 703 97 
z
M 1959 2075 
Q 2384 2075 2632 2365 
Q 2881 2656 2881 3163 
Q 2881 3666 2632 3958 
Q 2384 4250 1959 4250 
Q 1534 4250 1286 3958 
Q 1038 3666 1038 3163 
Q 1038 2656 1286 2365 
Q 1534 2075 1959 2075 
z
" transform="scale(0.015625)"/>
     </defs>
     <use xlink:href="#DejaVuSans-41" transform="translate(0 0.015625)"/>
     <use xlink:href="#DejaVuSans-6c" transform="translate(68.408203 0.015625)"/>
     <use xlink:href="#DejaVuSans-34" transform="translate(97.148438 -16.390625) scale(0.7)"/>
     <use xlink:href="#DejaVuSans-43" transform="translate(144.418945 0.015625)"/>
     <use xlink:href="#DejaVuSans-75" transform="translate(214.243164 0.015625)"/>
     <use xlink:href="#DejaVuSans-39" transform="translate(278.579102 -16.390625) scale(0.7)"/>
    </g>
   </g>
   <g id="text_3">
    <!-- $\mathrm{AlSb}$ -->
    <g transform="translate(61.351467 127.6151) scale(0.1 -0.1)">
     <defs>
      <path id="DejaVuSans-53" d="M 3425 4513 
L 3425 3897 
Q 3066 4069 2747 4153 
Q 2428 4238 2131 4238 
Q 1616 4238 1336 4038 
Q 1056 3838 1056 3469 
Q 1056 3159 1242 3001 
Q 1428 2844 1947 2747 
L 2328 2669 
Q 3034 2534 3370 2195 
Q 3706 1856 3706 1288 
Q 3706 609 3251 259 
Q 2797 -91 1919 -91 
Q 1588 -91 1214 -16 
Q 841 59 441 206 
L 441 856 
Q 825 641 1194 531 
Q 1563 422 1919 422 
Q 2459 422 2753 634 
Q 3047 847 3047 1241 
Q 3047 1584 2836 1778 
Q 2625 1972 2144 2069 
L 1759 2144 
Q 1053 2284 737 2584 
Q 422 2884 422 3419 
Q 422 4038 858 4394 
Q 1294 4750 2059 4750 
Q 2388 4750 2728 4690 
Q 3069 4631 3425 4513 
z
" transform="scale(0.015625)"/>
      <path id="DejaVuSans-62" d="M 3116 1747 
Q 3116 2381 2855 2742 
Q 2594 3103 2138 3103 
Q 1681 3103 1420 2742 
Q 1159 2381 1159 1747 
Q 1159 1113 1420 752 
Q 1681 391 2138 391 
Q 2594 391 2855 752 
Q 3116 1113 3116 1747 
z
M 1159 2969 
Q 1341 3281 1617 3432 
Q 1894 3584 2278 3584 
Q 2916 3584 3314 3078 
Q 3713 2572 3713 1747 
Q 3713 922 3314 415 
Q 2916 -91 2278 -91 
Q 1894 -91 1617 61 
Q 1341 213 1159 525 
L 1159 0 
L 581 0 
L 581 4863 
L 1159 4863 
L 1159 2969 
z
" transform="scale(0.015625)"/>
     </defs>
     <use xlink:href="#DejaVuSans-41" transform="translate(0 0.015625)"/>
     <use xlink:href="#DejaVuSans-6c" transform="translate(68.408203 0.015625)"/>
     <use xlink:href="#DejaVuSans-53" transform="translate(96.191406 0.015625)"/>
     <use xlink:href="#DejaVuSans-62" transform="translate(159.667969 0.015625)"/>
    </g>
   </g>
   <g id="text_4">
    <!-- $\mathrm{AlCu}$ -->
    <g transform="translate(126.856478 211.215873) scale(0.1 -0.1)">
     <use xlink:href="#DejaVuSans-41" transform="translate(0 0.015625)"/>
     <use xlink:href="#DejaVuSans-6c" transform="translate(68.408203 0.015625)"/>
     <use xlink:href="#DejaVuSans-43" transform="translate(96.191406 0.015625)"/>
     <use xlink:href="#DejaVuSans-75" transform="translate(166.015625 0.015625)"/>
    </g>
   </g>
   <g id="text_5">
    <!-- $\mathrm{Al_{2}Cu}$ -->
    <g transform="translate(83.551946 210.544971) scale(0.1 -0.1)">
     <defs>
      <path id="DejaVuSans-32" d="M 1228 531 
L 3431 531 
L 3431 0 
L 469 0 
L 469 531 
Q 828 903 1448 1529 
Q 2069 2156 2228 2338 
Q 2531 2678 2651 2914 
Q 2772 3150 2772 3378 
Q 2772 3750 2511 3984 
Q 2250 4219 1831 4219 
Q 1534 4219 1204 4116 
Q 875 4013 500 3803 
L 500 4441 
Q 881 4594 1212 4672 
Q 1544 4750 1819 4750 
Q 2544 4750 2975 4387 
Q 3406 4025 3406 3419 
Q 3406 3131 3298 2873 
Q 3191 2616 2906 2266 
Q 2828 2175 2409 1742 
Q 1991 1309 1228 531 
z
" transform="scale(0.015625)"/>
     </defs>
     <use xlink:href="#DejaVuSans-41" transform="translate(0 0.015625)"/>
     <use xlink:href="#DejaVuSans-6c" transform="translate(68.408203 0.015625)"/>
     <use xlink:href="#DejaVuSans-32" transform="translate(97.148438 -16.390625) scale(0.7)"/>
     <use xlink:href="#DejaVuSans-43" transform="translate(144.418945 0.015625)"/>
     <use xlink:href="#DejaVuSans-75" transform="translate(214.243164 0.015625)"/>
    </g>
   </g>
   <g id="text_6">
    <!-- $\mathrm{Sb}$ -->
    <g transform="translate(131.351933 33.414175) scale(0.1 -0.1)">
     <use xlink:href="#DejaVuSans-53" transform="translate(0 0.015625)"/>
     <use xlink:href="#DejaVuSans-62" transform="translate(63.476562 0.015625)"/>
    </g>
   </g>
   <g id="text_7">
    <!-- $\mathrm{Cu_{2}Sb}$ -->
    <g transform="translate(194.282856 160.443751) scale(0.1 -0.1)">
     <use xlink:href="#DejaVuSans-43" transform="translate(0 0.015625)"/>
     <use xlink:href="#DejaVuSans-75" transform="translate(69.824219 0.015625)"/>
     <use xlink:href="#DejaVuSans-32" transform="translate(134.160156 -16.390625) scale(0.7)"/>
     <use xlink:href="#DejaVuSans-53" transform="translate(181.430664 0.015625)"/>
     <use xlink:href="#DejaVuSans-62" transform="translate(244.907227 0.015625)"/>
    </g>
   </g>
   <g id="text_8">
    <!-- $\mathrm{Al}$ -->
    <g transform="translate(19.586902 211.839411) scale(0.1 -0.1)">
     <use xlink:href="#DejaVuSans-41" transform="translate(0 0.015625)"/>
     <use xlink:href="#DejaVuSans-6c" transform="translate(68.408203 0.015625)"/>
    </g>
   </g>
   <g id="text_9">
    <!-- $\mathrm{Cu}$ -->
    <g transform="translate(245.859482 211.527642) scale(0.1 -0.1)">
     <use xlink:href="#DejaVuSans-43" transform="translate(0 0.78125)"/>
     <use xlink:href="#DejaVuSans-75" transform="translate(69.824219 0.78125)"/>
    </g>
   </g>
   <g id="text_10">
    <!-- $\mathrm{Al_{8}Cu_{4}Sb}$ -->
    <g style="fill: #0000ff" transform="translate(91.887129 195.867495) scale(0.1 -0.1)">
     <defs>
      <path id="DejaVuSans-38" d="M 2034 2216 
Q 1584 2216 1326 1975 
Q 1069 1734 1069 1313 
Q 1069 891 1326 650 
Q 1584 409 2034 409 
Q 2484 409 2743 651 
Q 3003 894 3003 1313 
Q 3003 1734 2745 1975 
Q 2488 2216 2034 2216 
z
M 1403 2484 
Q 997 2584 770 2862 
Q 544 3141 544 3541 
Q 544 4100 942 4425 
Q 1341 4750 2034 4750 
Q 2731 4750 3128 4425 
Q 3525 4100 3525 3541 
Q 3525 3141 3298 2862 
Q 3072 2584 2669 2484 
Q 3125 2378 3379 2068 
Q 3634 1759 3634 1313 
Q 3634 634 3220 271 
Q 2806 -91 2034 -91 
Q 1263 -91 848 271 
Q 434 634 434 1313 
Q 434 1759 690 2068 
Q 947 2378 1403 2484 
z
M 1172 3481 
Q 1172 3119 1398 2916 
Q 1625 2713 2034 2713 
Q 2441 2713 2670 2916 
Q 2900 3119 2900 3481 
Q 2900 3844 2670 4047 
Q 2441 4250 2034 4250 
Q 1625 4250 1398 4047 
Q 1172 3844 1172 3481 
z
" transform="scale(0.015625)"/>
     </defs>
     <use xlink:href="#DejaVuSans-41" transform="translate(0 0.015625)"/>
     <use xlink:href="#DejaVuSans-6c" transform="translate(68.408203 0.015625)"/>
     <use xlink:href="#DejaVuSans-38" transform="translate(97.148438 -16.390625) scale(0.7)"/>
     <use xlink:href="#DejaVuSans-43" transform="translate(144.418945 0.015625)"/>
     <use xlink:href="#DejaVuSans-75" transform="translate(214.243164 0.015625)"/>
     <use xlink:href="#DejaVuSans-34" transform="translate(278.579102 -16.390625) scale(0.7)"/>
     <use xlink:href="#DejaVuSans-53" transform="translate(325.849609 0.015625)"/>
     <use xlink:href="#DejaVuSans-62" transform="translate(389.326172 0.015625)"/>
    </g>
   </g>
  </g>
  <g id="axes_2">
   <g id="patch_3">
    <path d="M 287.298425 195.703937 
L 296.029134 195.703937 
L 296.029134 36.96378 
L 287.298425 36.96378 
L 287.298425 195.703937 
z
" style="fill: none"/>
   </g>
   <g id="patch_4">
    <path d="M 287.298425 195.703937 
L 291.66378 203.640945 
L 296.029134 195.703937 
" style="fill: #440154; opacity: 0.7"/>
   </g>
   <g id="patch_5">
    <path d="M 287.298425 36.96378 
L 291.66378 29.026772 
L 296.029134 36.96378 
" style="fill: #fde725; opacity: 0.7"/>
   </g>
   <g id="QuadMesh_1">
    <path d="M 287.298425 195.703937 
L 296.029134 195.703937 
L 296.029134 191.832226 
L 287.298425 191.832226 
L 287.298425 195.703937 
" clip-path="url(#p4f046a05c2)" style="fill: #450559; fill-opacity: 0.7"/>
    <path d="M 287.298425 191.832226 
L 296.029134 191.832226 
L 296.029134 187.960515 
L 287.298425 187.960515 
L 287.298425 191.832226 
" clip-path="url(#p4f046a05c2)" style="fill: #470e61; fill-opacity: 0.7"/>
    <path d="M 287.298425 187.960515 
L 296.029134 187.960515 
L 296.029134 184.088804 
L 287.298425 184.088804 
L 287.298425 187.960515 
" clip-path="url(#p4f046a05c2)" style="fill: #481769; fill-opacity: 0.7"/>
    <path d="M 287.298425 184.088804 
L 296.029134 184.088804 
L 296.029134 180.217092 
L 287.298425 180.217092 
L 287.298425 184.088804 
" clip-path="url(#p4f046a05c2)" style="fill: #481f70; fill-opacity: 0.7"/>
    <path d="M 287.298425 180.217092 
L 296.029134 180.217092 
L 296.029134 176.345381 
L 287.298425 176.345381 
L 287.298425 180.217092 
" clip-path="url(#p4f046a05c2)" style="fill: #482878; fill-opacity: 0.7"/>
    <path d="M 287.298425 176.345381 
L 296.029134 176.345381 
L 296.029134 172.47367 
L 287.298425 172.47367 
L 287.298425 176.345381 
" clip-path="url(#p4f046a05c2)" style="fill: #472f7d; fill-opacity: 0.7"/>
    <path d="M 287.298425 172.47367 
L 296.029134 172.47367 
L 296.029134 168.601959 
L 287.298425 168.601959 
L 287.298425 172.47367 
" clip-path="url(#p4f046a05c2)" style="fill: #453781; fill-opacity: 0.7"/>
    <path d="M 287.298425 168.601959 
L 296.029134 168.601959 
L 296.029134 164.730248 
L 287.298425 164.730248 
L 287.298425 168.601959 
" clip-path="url(#p4f046a05c2)" style="fill: #433e85; fill-opacity: 0.7"/>
    <path d="M 287.298425 164.730248 
L 296.029134 164.730248 
L 296.029134 160.858537 
L 287.298425 160.858537 
L 287.298425 164.730248 
" clip-path="url(#p4f046a05c2)" style="fill: #404688; fill-opacity: 0.7"/>
    <path d="M 287.298425 160.858537 
L 296.029134 160.858537 
L 296.029134 156.986825 
L 287.298425 156.986825 
L 287.298425 160.858537 
" clip-path="url(#p4f046a05c2)" style="fill: #3d4d8a; fill-opacity: 0.7"/>
    <path d="M 287.298425 156.986825 
L 296.029134 156.986825 
L 296.029134 153.115114 
L 287.298425 153.115114 
L 287.298425 156.986825 
" clip-path="url(#p4f046a05c2)" style="fill: #3a538b; fill-opacity: 0.7"/>
    <path d="M 287.298425 153.115114 
L 296.029134 153.115114 
L 296.029134 149.243403 
L 287.298425 149.243403 
L 287.298425 153.115114 
" clip-path="url(#p4f046a05c2)" style="fill: #375a8c; fill-opacity: 0.7"/>
    <path d="M 287.298425 149.243403 
L 296.029134 149.243403 
L 296.029134 145.371692 
L 287.298425 145.371692 
L 287.298425 149.243403 
" clip-path="url(#p4f046a05c2)" style="fill: #34618d; fill-opacity: 0.7"/>
    <path d="M 287.298425 145.371692 
L 296.029134 145.371692 
L 296.029134 141.499981 
L 287.298425 141.499981 
L 287.298425 145.371692 
" clip-path="url(#p4f046a05c2)" style="fill: #31678e; fill-opacity: 0.7"/>
    <path d="M 287.298425 141.499981 
L 296.029134 141.499981 
L 296.029134 137.62827 
L 287.298425 137.62827 
L 287.298425 141.499981 
" clip-path="url(#p4f046a05c2)" style="fill: #2e6d8e; fill-opacity: 0.7"/>
    <path d="M 287.298425 137.62827 
L 296.029134 137.62827 
L 296.029134 133.756558 
L 287.298425 133.756558 
L 287.298425 137.62827 
" clip-path="url(#p4f046a05c2)" style="fill: #2c728e; fill-opacity: 0.7"/>
    <path d="M 287.298425 133.756558 
L 296.029134 133.756558 
L 296.029134 129.884847 
L 287.298425 129.884847 
L 287.298425 133.756558 
" clip-path="url(#p4f046a05c2)" style="fill: #29798e; fill-opacity: 0.7"/>
    <path d="M 287.298425 129.884847 
L 296.029134 129.884847 
L 296.029134 126.013136 
L 287.298425 126.013136 
L 287.298425 129.884847 
" clip-path="url(#p4f046a05c2)" style="fill: #277f8e; fill-opacity: 0.7"/>
    <path d="M 287.298425 126.013136 
L 296.029134 126.013136 
L 296.029134 122.141425 
L 287.298425 122.141425 
L 287.298425 126.013136 
" clip-path="url(#p4f046a05c2)" style="fill: #25848e; fill-opacity: 0.7"/>
    <path d="M 287.298425 122.141425 
L 296.029134 122.141425 
L 296.029134 118.269714 
L 287.298425 118.269714 
L 287.298425 122.141425 
" clip-path="url(#p4f046a05c2)" style="fill: #238a8d; fill-opacity: 0.7"/>
    <path d="M 287.298425 118.269714 
L 296.029134 118.269714 
L 296.029134 114.398003 
L 287.298425 114.398003 
L 287.298425 118.269714 
" clip-path="url(#p4f046a05c2)" style="fill: #21918c; fill-opacity: 0.7"/>
    <path d="M 287.298425 114.398003 
L 296.029134 114.398003 
L 296.029134 110.526292 
L 287.298425 110.526292 
L 287.298425 114.398003 
" clip-path="url(#p4f046a05c2)" style="fill: #1f968b; fill-opacity: 0.7"/>
    <path d="M 287.298425 110.526292 
L 296.029134 110.526292 
L 296.029134 106.65458 
L 287.298425 106.65458 
L 287.298425 110.526292 
" clip-path="url(#p4f046a05c2)" style="fill: #1e9c89; fill-opacity: 0.7"/>
    <path d="M 287.298425 106.65458 
L 296.029134 106.65458 
L 296.029134 102.782869 
L 287.298425 102.782869 
L 287.298425 106.65458 
" clip-path="url(#p4f046a05c2)" style="fill: #1fa187; fill-opacity: 0.7"/>
    <path d="M 287.298425 102.782869 
L 296.029134 102.782869 
L 296.029134 98.911158 
L 287.298425 98.911158 
L 287.298425 102.782869 
" clip-path="url(#p4f046a05c2)" style="fill: #22a785; fill-opacity: 0.7"/>
    <path d="M 287.298425 98.911158 
L 296.029134 98.911158 
L 296.029134 95.039447 
L 287.298425 95.039447 
L 287.298425 98.911158 
" clip-path="url(#p4f046a05c2)" style="fill: #27ad81; fill-opacity: 0.7"/>
    <path d="M 287.298425 95.039447 
L 296.029134 95.039447 
L 296.029134 91.167736 
L 287.298425 91.167736 
L 287.298425 95.039447 
" clip-path="url(#p4f046a05c2)" style="fill: #2eb37c; fill-opacity: 0.7"/>
    <path d="M 287.298425 91.167736 
L 296.029134 91.167736 
L 296.029134 87.296025 
L 287.298425 87.296025 
L 287.298425 91.167736 
" clip-path="url(#p4f046a05c2)" style="fill: #37b878; fill-opacity: 0.7"/>
    <path d="M 287.298425 87.296025 
L 296.029134 87.296025 
L 296.029134 83.424313 
L 287.298425 83.424313 
L 287.298425 87.296025 
" clip-path="url(#p4f046a05c2)" style="fill: #40bd72; fill-opacity: 0.7"/>
    <path d="M 287.298425 83.424313 
L 296.029134 83.424313 
L 296.029134 79.552602 
L 287.298425 79.552602 
L 287.298425 83.424313 
" clip-path="url(#p4f046a05c2)" style="fill: #4ec36b; fill-opacity: 0.7"/>
    <path d="M 287.298425 79.552602 
L 296.029134 79.552602 
L 296.029134 75.680891 
L 287.298425 75.680891 
L 287.298425 79.552602 
" clip-path="url(#p4f046a05c2)" style="fill: #5ac864; fill-opacity: 0.7"/>
    <path d="M 287.298425 75.680891 
L 296.029134 75.680891 
L 296.029134 71.80918 
L 287.298425 71.80918 
L 287.298425 75.680891 
" clip-path="url(#p4f046a05c2)" style="fill: #67cc5c; fill-opacity: 0.7"/>
    <path d="M 287.298425 71.80918 
L 296.029134 71.80918 
L 296.029134 67.937469 
L 287.298425 67.937469 
L 287.298425 71.80918 
" clip-path="url(#p4f046a05c2)" style="fill: #75d054; fill-opacity: 0.7"/>
    <path d="M 287.298425 67.937469 
L 296.029134 67.937469 
L 296.029134 64.065758 
L 287.298425 64.065758 
L 287.298425 67.937469 
" clip-path="url(#p4f046a05c2)" style="fill: #86d549; fill-opacity: 0.7"/>
    <path d="M 287.298425 64.065758 
L 296.029134 64.065758 
L 296.029134 60.194046 
L 287.298425 60.194046 
L 287.298425 64.065758 
" clip-path="url(#p4f046a05c2)" style="fill: #95d840; fill-opacity: 0.7"/>
    <path d="M 287.298425 60.194046 
L 296.029134 60.194046 
L 296.029134 56.322335 
L 287.298425 56.322335 
L 287.298425 60.194046 
" clip-path="url(#p4f046a05c2)" style="fill: #a5db36; fill-opacity: 0.7"/>
    <path d="M 287.298425 56.322335 
L 296.029134 56.322335 
L 296.029134 52.450624 
L 287.298425 52.450624 
L 287.298425 56.322335 
" clip-path="url(#p4f046a05c2)" style="fill: #b5de2b; fill-opacity: 0.7"/>
    <path d="M 287.298425 52.450624 
L 296.029134 52.450624 
L 296.029134 48.578913 
L 287.298425 48.578913 
L 287.298425 52.450624 
" clip-path="url(#p4f046a05c2)" style="fill: #c8e020; fill-opacity: 0.7"/>
    <path d="M 287.298425 48.578913 
L 296.029134 48.578913 
L 296.029134 44.707202 
L 287.298425 44.707202 
L 287.298425 48.578913 
" clip-path="url(#p4f046a05c2)" style="fill: #d8e219; fill-opacity: 0.7"/>
    <path d="M 287.298425 44.707202 
L 296.029134 44.707202 
L 296.029134 40.835491 
L 287.298425 40.835491 
L 287.298425 44.707202 
" clip-path="url(#p4f046a05c2)" style="fill: #e7e419; fill-opacity: 0.7"/>
    <path d="M 287.298425 40.835491 
L 296.029134 40.835491 
L 296.029134 36.96378 
L 287.298425 36.96378 
L 287.298425 40.835491 
" clip-path="url(#p4f046a05c2)" style="fill: #f6e620; fill-opacity: 0.7"/>
   </g>
   <g id="matplotlib.axis_3"/>
   <g id="matplotlib.axis_4">
    <g id="ytick_1">
     <g id="line2d_16">
      <defs>
       <path id="m4062d9bcd9" d="M 0 0 
L -2 0 
" style="stroke: #000000; stroke-width: 0.3"/>
      </defs>
      <g>
       <use xlink:href="#m4062d9bcd9" x="296.029134" y="191.832226" style="stroke: #000000; stroke-width: 0.3"/>
      </g>
     </g>
     <g id="text_11">
      <!-- −0.246 -->
      <g transform="translate(299.529134 194.695351) scale(0.08 -0.08)">
       <defs>
        <path id="ArialMT-2212" d="M 3381 1997 
L 356 1997 
L 356 2522 
L 3381 2522 
L 3381 1997 
z
" transform="scale(0.015625)"/>
        <path id="ArialMT-30" d="M 266 2259 
Q 266 3072 433 3567 
Q 600 4063 929 4331 
Q 1259 4600 1759 4600 
Q 2128 4600 2406 4451 
Q 2684 4303 2865 4023 
Q 3047 3744 3150 3342 
Q 3253 2941 3253 2259 
Q 3253 1453 3087 958 
Q 2922 463 2592 192 
Q 2263 -78 1759 -78 
Q 1097 -78 719 397 
Q 266 969 266 2259 
z
M 844 2259 
Q 844 1131 1108 757 
Q 1372 384 1759 384 
Q 2147 384 2411 759 
Q 2675 1134 2675 2259 
Q 2675 3391 2411 3762 
Q 2147 4134 1753 4134 
Q 1366 4134 1134 3806 
Q 844 3388 844 2259 
z
" transform="scale(0.015625)"/>
        <path id="ArialMT-2e" d="M 581 0 
L 581 641 
L 1222 641 
L 1222 0 
L 581 0 
z
" transform="scale(0.015625)"/>
        <path id="ArialMT-32" d="M 3222 541 
L 3222 0 
L 194 0 
Q 188 203 259 391 
Q 375 700 629 1000 
Q 884 1300 1366 1694 
Q 2113 2306 2375 2664 
Q 2638 3022 2638 3341 
Q 2638 3675 2398 3904 
Q 2159 4134 1775 4134 
Q 1369 4134 1125 3890 
Q 881 3647 878 3216 
L 300 3275 
Q 359 3922 746 4261 
Q 1134 4600 1788 4600 
Q 2447 4600 2831 4234 
Q 3216 3869 3216 3328 
Q 3216 3053 3103 2787 
Q 2991 2522 2730 2228 
Q 2469 1934 1863 1422 
Q 1356 997 1212 845 
Q 1069 694 975 541 
L 3222 541 
z
" transform="scale(0.015625)"/>
        <path id="ArialMT-34" d="M 2069 0 
L 2069 1097 
L 81 1097 
L 81 1613 
L 2172 4581 
L 2631 4581 
L 2631 1613 
L 3250 1613 
L 3250 1097 
L 2631 1097 
L 2631 0 
L 2069 0 
z
M 2069 1613 
L 2069 3678 
L 634 1613 
L 2069 1613 
z
" transform="scale(0.015625)"/>
        <path id="ArialMT-36" d="M 3184 3459 
L 2625 3416 
Q 2550 3747 2413 3897 
Q 2184 4138 1850 4138 
Q 1581 4138 1378 3988 
Q 1113 3794 959 3422 
Q 806 3050 800 2363 
Q 1003 2672 1297 2822 
Q 1591 2972 1913 2972 
Q 2475 2972 2870 2558 
Q 3266 2144 3266 1488 
Q 3266 1056 3080 686 
Q 2894 316 2569 119 
Q 2244 -78 1831 -78 
Q 1128 -78 684 439 
Q 241 956 241 2144 
Q 241 3472 731 4075 
Q 1159 4600 1884 4600 
Q 2425 4600 2770 4297 
Q 3116 3994 3184 3459 
z
M 888 1484 
Q 888 1194 1011 928 
Q 1134 663 1356 523 
Q 1578 384 1822 384 
Q 2178 384 2434 671 
Q 2691 959 2691 1453 
Q 2691 1928 2437 2201 
Q 2184 2475 1800 2475 
Q 1419 2475 1153 2201 
Q 888 1928 888 1484 
z
" transform="scale(0.015625)"/>
       </defs>
       <use xlink:href="#ArialMT-2212"/>
       <use xlink:href="#ArialMT-30" transform="translate(58.398438 0)"/>
       <use xlink:href="#ArialMT-2e" transform="translate(114.013672 0)"/>
       <use xlink:href="#ArialMT-32" transform="translate(141.796875 0)"/>
       <use xlink:href="#ArialMT-34" transform="translate(197.412109 0)"/>
       <use xlink:href="#ArialMT-36" transform="translate(253.027344 0)"/>
      </g>
     </g>
    </g>
    <g id="ytick_2">
     <g id="line2d_17">
      <g>
       <use xlink:href="#m4062d9bcd9" x="296.029134" y="172.47367" style="stroke: #000000; stroke-width: 0.3"/>
      </g>
     </g>
     <g id="text_12">
      <!-- −0.216 -->
      <g transform="translate(299.529134 175.336795) scale(0.08 -0.08)">
       <defs>
        <path id="ArialMT-31" d="M 2384 0 
L 1822 0 
L 1822 3584 
Q 1619 3391 1289 3197 
Q 959 3003 697 2906 
L 697 3450 
Q 1169 3672 1522 3987 
Q 1875 4303 2022 4600 
L 2384 4600 
L 2384 0 
z
" transform="scale(0.015625)"/>
       </defs>
       <use xlink:href="#ArialMT-2212"/>
       <use xlink:href="#ArialMT-30" transform="translate(58.398438 0)"/>
       <use xlink:href="#ArialMT-2e" transform="translate(114.013672 0)"/>
       <use xlink:href="#ArialMT-32" transform="translate(141.796875 0)"/>
       <use xlink:href="#ArialMT-31" transform="translate(197.412109 0)"/>
       <use xlink:href="#ArialMT-36" transform="translate(253.027344 0)"/>
      </g>
     </g>
    </g>
    <g id="ytick_3">
     <g id="line2d_18">
      <g>
       <use xlink:href="#m4062d9bcd9" x="296.029134" y="153.115114" style="stroke: #000000; stroke-width: 0.3"/>
      </g>
     </g>
     <g id="text_13">
      <!-- −0.186 -->
      <g transform="translate(299.529134 155.978239) scale(0.08 -0.08)">
       <defs>
        <path id="ArialMT-38" d="M 1131 2484 
Q 781 2613 612 2850 
Q 444 3088 444 3419 
Q 444 3919 803 4259 
Q 1163 4600 1759 4600 
Q 2359 4600 2725 4251 
Q 3091 3903 3091 3403 
Q 3091 3084 2923 2848 
Q 2756 2613 2416 2484 
Q 2838 2347 3058 2040 
Q 3278 1734 3278 1309 
Q 3278 722 2862 322 
Q 2447 -78 1769 -78 
Q 1091 -78 675 323 
Q 259 725 259 1325 
Q 259 1772 486 2073 
Q 713 2375 1131 2484 
z
M 1019 3438 
Q 1019 3113 1228 2906 
Q 1438 2700 1772 2700 
Q 2097 2700 2305 2904 
Q 2513 3109 2513 3406 
Q 2513 3716 2298 3927 
Q 2084 4138 1766 4138 
Q 1444 4138 1231 3931 
Q 1019 3725 1019 3438 
z
M 838 1322 
Q 838 1081 952 856 
Q 1066 631 1291 507 
Q 1516 384 1775 384 
Q 2178 384 2440 643 
Q 2703 903 2703 1303 
Q 2703 1709 2433 1975 
Q 2163 2241 1756 2241 
Q 1359 2241 1098 1978 
Q 838 1716 838 1322 
z
" transform="scale(0.015625)"/>
       </defs>
       <use xlink:href="#ArialMT-2212"/>
       <use xlink:href="#ArialMT-30" transform="translate(58.398438 0)"/>
       <use xlink:href="#ArialMT-2e" transform="translate(114.013672 0)"/>
       <use xlink:href="#ArialMT-31" transform="translate(141.796875 0)"/>
       <use xlink:href="#ArialMT-38" transform="translate(197.412109 0)"/>
       <use xlink:href="#ArialMT-36" transform="translate(253.027344 0)"/>
      </g>
     </g>
    </g>
    <g id="ytick_4">
     <g id="line2d_19">
      <g>
       <use xlink:href="#m4062d9bcd9" x="296.029134" y="133.756558" style="stroke: #000000; stroke-width: 0.3"/>
      </g>
     </g>
     <g id="text_14">
      <!-- −0.156 -->
      <g transform="translate(299.529134 136.619683) scale(0.08 -0.08)">
       <defs>
        <path id="ArialMT-35" d="M 266 1200 
L 856 1250 
Q 922 819 1161 601 
Q 1400 384 1738 384 
Q 2144 384 2425 690 
Q 2706 997 2706 1503 
Q 2706 1984 2436 2262 
Q 2166 2541 1728 2541 
Q 1456 2541 1237 2417 
Q 1019 2294 894 2097 
L 366 2166 
L 809 4519 
L 3088 4519 
L 3088 3981 
L 1259 3981 
L 1013 2750 
Q 1425 3038 1878 3038 
Q 2478 3038 2890 2622 
Q 3303 2206 3303 1553 
Q 3303 931 2941 478 
Q 2500 -78 1738 -78 
Q 1113 -78 717 272 
Q 322 622 266 1200 
z
" transform="scale(0.015625)"/>
       </defs>
       <use xlink:href="#ArialMT-2212"/>
       <use xlink:href="#ArialMT-30" transform="translate(58.398438 0)"/>
       <use xlink:href="#ArialMT-2e" transform="translate(114.013672 0)"/>
       <use xlink:href="#ArialMT-31" transform="translate(141.796875 0)"/>
       <use xlink:href="#ArialMT-35" transform="translate(197.412109 0)"/>
       <use xlink:href="#ArialMT-36" transform="translate(253.027344 0)"/>
      </g>
     </g>
    </g>
    <g id="ytick_5">
     <g id="line2d_20">
      <g>
       <use xlink:href="#m4062d9bcd9" x="296.029134" y="114.398003" style="stroke: #000000; stroke-width: 0.3"/>
      </g>
     </g>
     <g id="text_15">
      <!-- −0.126 -->
      <g transform="translate(299.529134 117.261128) scale(0.08 -0.08)">
       <use xlink:href="#ArialMT-2212"/>
       <use xlink:href="#ArialMT-30" transform="translate(58.398438 0)"/>
       <use xlink:href="#ArialMT-2e" transform="translate(114.013672 0)"/>
       <use xlink:href="#ArialMT-31" transform="translate(141.796875 0)"/>
       <use xlink:href="#ArialMT-32" transform="translate(197.412109 0)"/>
       <use xlink:href="#ArialMT-36" transform="translate(253.027344 0)"/>
      </g>
     </g>
    </g>
    <g id="ytick_6">
     <g id="line2d_21">
      <g>
       <use xlink:href="#m4062d9bcd9" x="296.029134" y="95.039447" style="stroke: #000000; stroke-width: 0.3"/>
      </g>
     </g>
     <g id="text_16">
      <!-- −0.096 -->
      <g transform="translate(299.529134 97.902572) scale(0.08 -0.08)">
       <defs>
        <path id="ArialMT-39" d="M 350 1059 
L 891 1109 
Q 959 728 1153 556 
Q 1347 384 1650 384 
Q 1909 384 2104 503 
Q 2300 622 2425 820 
Q 2550 1019 2634 1356 
Q 2719 1694 2719 2044 
Q 2719 2081 2716 2156 
Q 2547 1888 2255 1720 
Q 1963 1553 1622 1553 
Q 1053 1553 659 1965 
Q 266 2378 266 3053 
Q 266 3750 677 4175 
Q 1088 4600 1706 4600 
Q 2153 4600 2523 4359 
Q 2894 4119 3086 3673 
Q 3278 3228 3278 2384 
Q 3278 1506 3087 986 
Q 2897 466 2520 194 
Q 2144 -78 1638 -78 
Q 1100 -78 759 220 
Q 419 519 350 1059 
z
M 2653 3081 
Q 2653 3566 2395 3850 
Q 2138 4134 1775 4134 
Q 1400 4134 1122 3828 
Q 844 3522 844 3034 
Q 844 2597 1108 2323 
Q 1372 2050 1759 2050 
Q 2150 2050 2401 2323 
Q 2653 2597 2653 3081 
z
" transform="scale(0.015625)"/>
       </defs>
       <use xlink:href="#ArialMT-2212"/>
       <use xlink:href="#ArialMT-30" transform="translate(58.398438 0)"/>
       <use xlink:href="#ArialMT-2e" transform="translate(114.013672 0)"/>
       <use xlink:href="#ArialMT-30" transform="translate(141.796875 0)"/>
       <use xlink:href="#ArialMT-39" transform="translate(197.412109 0)"/>
       <use xlink:href="#ArialMT-36" transform="translate(253.027344 0)"/>
      </g>
     </g>
    </g>
    <g id="ytick_7">
     <g id="line2d_22">
      <g>
       <use xlink:href="#m4062d9bcd9" x="296.029134" y="75.680891" style="stroke: #000000; stroke-width: 0.3"/>
      </g>
     </g>
     <g id="text_17">
      <!-- −0.066 -->
      <g transform="translate(299.529134 78.544016) scale(0.08 -0.08)">
       <use xlink:href="#ArialMT-2212"/>
       <use xlink:href="#ArialMT-30" transform="translate(58.398438 0)"/>
       <use xlink:href="#ArialMT-2e" transform="translate(114.013672 0)"/>
       <use xlink:href="#ArialMT-30" transform="translate(141.796875 0)"/>
       <use xlink:href="#ArialMT-36" transform="translate(197.412109 0)"/>
       <use xlink:href="#ArialMT-36" transform="translate(253.027344 0)"/>
      </g>
     </g>
    </g>
    <g id="ytick_8">
     <g id="line2d_23">
      <g>
       <use xlink:href="#m4062d9bcd9" x="296.029134" y="56.322335" style="stroke: #000000; stroke-width: 0.3"/>
      </g>
     </g>
     <g id="text_18">
      <!-- −0.036 -->
      <g transform="translate(299.529134 59.18546) scale(0.08 -0.08)">
       <defs>
        <path id="ArialMT-33" d="M 269 1209 
L 831 1284 
Q 928 806 1161 595 
Q 1394 384 1728 384 
Q 2125 384 2398 659 
Q 2672 934 2672 1341 
Q 2672 1728 2419 1979 
Q 2166 2231 1775 2231 
Q 1616 2231 1378 2169 
L 1441 2663 
Q 1497 2656 1531 2656 
Q 1891 2656 2178 2843 
Q 2466 3031 2466 3422 
Q 2466 3731 2256 3934 
Q 2047 4138 1716 4138 
Q 1388 4138 1169 3931 
Q 950 3725 888 3313 
L 325 3413 
Q 428 3978 793 4289 
Q 1159 4600 1703 4600 
Q 2078 4600 2393 4439 
Q 2709 4278 2876 4000 
Q 3044 3722 3044 3409 
Q 3044 3113 2884 2869 
Q 2725 2625 2413 2481 
Q 2819 2388 3044 2092 
Q 3269 1797 3269 1353 
Q 3269 753 2831 336 
Q 2394 -81 1725 -81 
Q 1122 -81 723 278 
Q 325 638 269 1209 
z
" transform="scale(0.015625)"/>
       </defs>
       <use xlink:href="#ArialMT-2212"/>
       <use xlink:href="#ArialMT-30" transform="translate(58.398438 0)"/>
       <use xlink:href="#ArialMT-2e" transform="translate(114.013672 0)"/>
       <use xlink:href="#ArialMT-30" transform="translate(141.796875 0)"/>
       <use xlink:href="#ArialMT-33" transform="translate(197.412109 0)"/>
       <use xlink:href="#ArialMT-36" transform="translate(253.027344 0)"/>
      </g>
     </g>
    </g>
    <g id="ytick_9">
     <g id="line2d_24">
      <g>
       <use xlink:href="#m4062d9bcd9" x="296.029134" y="36.96378" style="stroke: #000000; stroke-width: 0.3"/>
      </g>
     </g>
     <g id="text_19">
      <!-- −0.006 -->
      <g transform="translate(299.529134 39.826905) scale(0.08 -0.08)">
       <use xlink:href="#ArialMT-2212"/>
       <use xlink:href="#ArialMT-30" transform="translate(58.398438 0)"/>
       <use xlink:href="#ArialMT-2e" transform="translate(114.013672 0)"/>
       <use xlink:href="#ArialMT-30" transform="translate(141.796875 0)"/>
       <use xlink:href="#ArialMT-30" transform="translate(197.412109 0)"/>
       <use xlink:href="#ArialMT-36" transform="translate(253.027344 0)"/>
      </g>
     </g>
    </g>
    <g id="text_20">
     <!-- Formation Energy (eV/atom) -->
     <g transform="translate(335.498821 179.408077) rotate(-90) scale(0.1 -0.1)">
      <defs>
       <path id="ArialMT-46" d="M 525 0 
L 525 4581 
L 3616 4581 
L 3616 4041 
L 1131 4041 
L 1131 2622 
L 3281 2622 
L 3281 2081 
L 1131 2081 
L 1131 0 
L 525 0 
z
" transform="scale(0.015625)"/>
       <path id="ArialMT-6f" d="M 213 1659 
Q 213 2581 725 3025 
Q 1153 3394 1769 3394 
Q 2453 3394 2887 2945 
Q 3322 2497 3322 1706 
Q 3322 1066 3130 698 
Q 2938 331 2570 128 
Q 2203 -75 1769 -75 
Q 1072 -75 642 372 
Q 213 819 213 1659 
z
M 791 1659 
Q 791 1022 1069 705 
Q 1347 388 1769 388 
Q 2188 388 2466 706 
Q 2744 1025 2744 1678 
Q 2744 2294 2464 2611 
Q 2184 2928 1769 2928 
Q 1347 2928 1069 2612 
Q 791 2297 791 1659 
z
" transform="scale(0.015625)"/>
       <path id="ArialMT-72" d="M 416 0 
L 416 3319 
L 922 3319 
L 922 2816 
Q 1116 3169 1280 3281 
Q 1444 3394 1641 3394 
Q 1925 3394 2219 3213 
L 2025 2691 
Q 1819 2813 1613 2813 
Q 1428 2813 1281 2702 
Q 1134 2591 1072 2394 
Q 978 2094 978 1738 
L 978 0 
L 416 0 
z
" transform="scale(0.015625)"/>
       <path id="ArialMT-6d" d="M 422 0 
L 422 3319 
L 925 3319 
L 925 2853 
Q 1081 3097 1340 3245 
Q 1600 3394 1931 3394 
Q 2300 3394 2536 3241 
Q 2772 3088 2869 2813 
Q 3263 3394 3894 3394 
Q 4388 3394 4653 3120 
Q 4919 2847 4919 2278 
L 4919 0 
L 4359 0 
L 4359 2091 
Q 4359 2428 4304 2576 
Q 4250 2725 4106 2815 
Q 3963 2906 3769 2906 
Q 3419 2906 3187 2673 
Q 2956 2441 2956 1928 
L 2956 0 
L 2394 0 
L 2394 2156 
Q 2394 2531 2256 2718 
Q 2119 2906 1806 2906 
Q 1569 2906 1367 2781 
Q 1166 2656 1075 2415 
Q 984 2175 984 1722 
L 984 0 
L 422 0 
z
" transform="scale(0.015625)"/>
       <path id="ArialMT-61" d="M 2588 409 
Q 2275 144 1986 34 
Q 1697 -75 1366 -75 
Q 819 -75 525 192 
Q 231 459 231 875 
Q 231 1119 342 1320 
Q 453 1522 633 1644 
Q 813 1766 1038 1828 
Q 1203 1872 1538 1913 
Q 2219 1994 2541 2106 
Q 2544 2222 2544 2253 
Q 2544 2597 2384 2738 
Q 2169 2928 1744 2928 
Q 1347 2928 1158 2789 
Q 969 2650 878 2297 
L 328 2372 
Q 403 2725 575 2942 
Q 747 3159 1072 3276 
Q 1397 3394 1825 3394 
Q 2250 3394 2515 3294 
Q 2781 3194 2906 3042 
Q 3031 2891 3081 2659 
Q 3109 2516 3109 2141 
L 3109 1391 
Q 3109 606 3145 398 
Q 3181 191 3288 0 
L 2700 0 
Q 2613 175 2588 409 
z
M 2541 1666 
Q 2234 1541 1622 1453 
Q 1275 1403 1131 1340 
Q 988 1278 909 1158 
Q 831 1038 831 891 
Q 831 666 1001 516 
Q 1172 366 1500 366 
Q 1825 366 2078 508 
Q 2331 650 2450 897 
Q 2541 1088 2541 1459 
L 2541 1666 
z
" transform="scale(0.015625)"/>
       <path id="ArialMT-74" d="M 1650 503 
L 1731 6 
Q 1494 -44 1306 -44 
Q 1000 -44 831 53 
Q 663 150 594 308 
Q 525 466 525 972 
L 525 2881 
L 113 2881 
L 113 3319 
L 525 3319 
L 525 4141 
L 1084 4478 
L 1084 3319 
L 1650 3319 
L 1650 2881 
L 1084 2881 
L 1084 941 
Q 1084 700 1114 631 
Q 1144 563 1211 522 
Q 1278 481 1403 481 
Q 1497 481 1650 503 
z
" transform="scale(0.015625)"/>
       <path id="ArialMT-69" d="M 425 3934 
L 425 4581 
L 988 4581 
L 988 3934 
L 425 3934 
z
M 425 0 
L 425 3319 
L 988 3319 
L 988 0 
L 425 0 
z
" transform="scale(0.015625)"/>
       <path id="ArialMT-6e" d="M 422 0 
L 422 3319 
L 928 3319 
L 928 2847 
Q 1294 3394 1984 3394 
Q 2284 3394 2536 3286 
Q 2788 3178 2913 3003 
Q 3038 2828 3088 2588 
Q 3119 2431 3119 2041 
L 3119 0 
L 2556 0 
L 2556 2019 
Q 2556 2363 2490 2533 
Q 2425 2703 2258 2804 
Q 2091 2906 1866 2906 
Q 1506 2906 1245 2678 
Q 984 2450 984 1813 
L 984 0 
L 422 0 
z
" transform="scale(0.015625)"/>
       <path id="ArialMT-20" transform="scale(0.015625)"/>
       <path id="ArialMT-45" d="M 506 0 
L 506 4581 
L 3819 4581 
L 3819 4041 
L 1113 4041 
L 1113 2638 
L 3647 2638 
L 3647 2100 
L 1113 2100 
L 1113 541 
L 3925 541 
L 3925 0 
L 506 0 
z
" transform="scale(0.015625)"/>
       <path id="ArialMT-65" d="M 2694 1069 
L 3275 997 
Q 3138 488 2766 206 
Q 2394 -75 1816 -75 
Q 1088 -75 661 373 
Q 234 822 234 1631 
Q 234 2469 665 2931 
Q 1097 3394 1784 3394 
Q 2450 3394 2872 2941 
Q 3294 2488 3294 1666 
Q 3294 1616 3291 1516 
L 816 1516 
Q 847 969 1125 678 
Q 1403 388 1819 388 
Q 2128 388 2347 550 
Q 2566 713 2694 1069 
z
M 847 1978 
L 2700 1978 
Q 2663 2397 2488 2606 
Q 2219 2931 1791 2931 
Q 1403 2931 1139 2672 
Q 875 2413 847 1978 
z
" transform="scale(0.015625)"/>
       <path id="ArialMT-67" d="M 319 -275 
L 866 -356 
Q 900 -609 1056 -725 
Q 1266 -881 1628 -881 
Q 2019 -881 2231 -725 
Q 2444 -569 2519 -288 
Q 2563 -116 2559 434 
Q 2191 0 1641 0 
Q 956 0 581 494 
Q 206 988 206 1678 
Q 206 2153 378 2554 
Q 550 2956 876 3175 
Q 1203 3394 1644 3394 
Q 2231 3394 2613 2919 
L 2613 3319 
L 3131 3319 
L 3131 450 
Q 3131 -325 2973 -648 
Q 2816 -972 2473 -1159 
Q 2131 -1347 1631 -1347 
Q 1038 -1347 672 -1080 
Q 306 -813 319 -275 
z
M 784 1719 
Q 784 1066 1043 766 
Q 1303 466 1694 466 
Q 2081 466 2343 764 
Q 2606 1063 2606 1700 
Q 2606 2309 2336 2618 
Q 2066 2928 1684 2928 
Q 1309 2928 1046 2623 
Q 784 2319 784 1719 
z
" transform="scale(0.015625)"/>
       <path id="ArialMT-79" d="M 397 -1278 
L 334 -750 
Q 519 -800 656 -800 
Q 844 -800 956 -737 
Q 1069 -675 1141 -563 
Q 1194 -478 1313 -144 
Q 1328 -97 1363 -6 
L 103 3319 
L 709 3319 
L 1400 1397 
Q 1534 1031 1641 628 
Q 1738 1016 1872 1384 
L 2581 3319 
L 3144 3319 
L 1881 -56 
Q 1678 -603 1566 -809 
Q 1416 -1088 1222 -1217 
Q 1028 -1347 759 -1347 
Q 597 -1347 397 -1278 
z
" transform="scale(0.015625)"/>
       <path id="ArialMT-28" d="M 1497 -1347 
Q 1031 -759 709 28 
Q 388 816 388 1659 
Q 388 2403 628 3084 
Q 909 3875 1497 4659 
L 1900 4659 
Q 1522 4009 1400 3731 
Q 1209 3300 1100 2831 
Q 966 2247 966 1656 
Q 966 153 1900 -1347 
L 1497 -1347 
z
" transform="scale(0.015625)"/>
       <path id="ArialMT-56" d="M 1803 0 
L 28 4581 
L 684 4581 
L 1875 1253 
Q 2019 853 2116 503 
Q 2222 878 2363 1253 
L 3600 4581 
L 4219 4581 
L 2425 0 
L 1803 0 
z
" transform="scale(0.015625)"/>
       <path id="ArialMT-2f" d="M 0 -78 
L 1328 4659 
L 1778 4659 
L 453 -78 
L 0 -78 
z
" transform="scale(0.015625)"/>
       <path id="ArialMT-29" d="M 791 -1347 
L 388 -1347 
Q 1322 153 1322 1656 
Q 1322 2244 1188 2822 
Q 1081 3291 891 3722 
Q 769 4003 388 4659 
L 791 4659 
Q 1378 3875 1659 3084 
Q 1900 2403 1900 1659 
Q 1900 816 1576 28 
Q 1253 -759 791 -1347 
z
" transform="scale(0.015625)"/>
      </defs>
      <use xlink:href="#ArialMT-46"/>
      <use xlink:href="#ArialMT-6f" transform="translate(61.083984 0)"/>
      <use xlink:href="#ArialMT-72" transform="translate(116.699219 0)"/>
      <use xlink:href="#ArialMT-6d" transform="translate(150 0)"/>
      <use xlink:href="#ArialMT-61" transform="translate(233.300781 0)"/>
      <use xlink:href="#ArialMT-74" transform="translate(288.916016 0)"/>
      <use xlink:href="#ArialMT-69" transform="translate(316.699219 0)"/>
      <use xlink:href="#ArialMT-6f" transform="translate(338.916016 0)"/>
      <use xlink:href="#ArialMT-6e" transform="translate(394.53125 0)"/>
      <use xlink:href="#ArialMT-20" transform="translate(450.146484 0)"/>
      <use xlink:href="#ArialMT-45" transform="translate(477.929688 0)"/>
      <use xlink:href="#ArialMT-6e" transform="translate(544.628906 0)"/>
      <use xlink:href="#ArialMT-65" transform="translate(600.244141 0)"/>
      <use xlink:href="#ArialMT-72" transform="translate(655.859375 0)"/>
      <use xlink:href="#ArialMT-67" transform="translate(689.160156 0)"/>
      <use xlink:href="#ArialMT-79" transform="translate(744.775391 0)"/>
      <use xlink:href="#ArialMT-20" transform="translate(794.775391 0)"/>
      <use xlink:href="#ArialMT-28" transform="translate(822.558594 0)"/>
      <use xlink:href="#ArialMT-65" transform="translate(855.859375 0)"/>
      <use xlink:href="#ArialMT-56" transform="translate(911.474609 0)"/>
      <use xlink:href="#ArialMT-2f" transform="translate(978.173828 0)"/>
      <use xlink:href="#ArialMT-61" transform="translate(1005.957031 0)"/>
      <use xlink:href="#ArialMT-74" transform="translate(1061.572266 0)"/>
      <use xlink:href="#ArialMT-6f" transform="translate(1089.355469 0)"/>
      <use xlink:href="#ArialMT-6d" transform="translate(1144.970703 0)"/>
      <use xlink:href="#ArialMT-29" transform="translate(1228.271484 0)"/>
     </g>
    </g>
   </g>
   <g id="LineCollection_1"/>
   <g id="patch_6">
    <path d="M 287.298425 195.703937 
L 291.66378 203.640945 
L 296.029134 195.703937 
L 296.029134 36.96378 
L 291.66378 29.026772 
L 287.298425 36.96378 
L 287.298425 195.703937 
z
" style="fill: none; stroke: #000000; stroke-width: 0.8; stroke-linejoin: miter; stroke-linecap: square"/>
   </g>
  </g>
 </g>
 <defs>
  <clipPath id="p6eed90dd76">
   <rect x="7.2" y="7.2" width="263.622047" height="218.267717"/>
  </clipPath>
  <clipPath id="p4f046a05c2">
   <rect x="287.298425" y="36.96378" width="8.730709" height="158.740157"/>
  </clipPath>
 </defs>
</svg>
