<?xml version="1.0" encoding="utf-8" standalone="no"?>
<!DOCTYPE svg PUBLIC "-//W3C//DTD SVG 1.1//EN"
  "http://www.w3.org/Graphics/SVG/1.1/DTD/svg11.dtd">
<svg xmlns:xlink="http://www.w3.org/1999/xlink" width="344.803509pt" height="232.667717pt" viewBox="0 0 344.803509 232.667717" xmlns="http://www.w3.org/2000/svg" version="1.1">
 <metadata>
  <rdf:RDF xmlns:dc="http://purl.org/dc/elements/1.1/" xmlns:cc="http://creativecommons.org/ns#" xmlns:rdf="http://www.w3.org/1999/02/22-rdf-syntax-ns#">
   <cc:Work>
    <dc:type rdf:resource="http://purl.org/dc/dcmitype/StillImage"/>
    <dc:date>2026-01-27T21:38:00.700957</dc:date>
    <dc:format>image/svg+xml</dc:format>
    <dc:creator>
     <cc:Agent>
      <dc:title>Matplotlib v3.10.8, https://matplotlib.org/</dc:title>
     </cc:Agent>
    </dc:creator>
   </cc:Work>
  </rdf:RDF>
 </metadata>
 <defs>
  <style type="text/css">*{stroke-linejoin: round; stroke-linecap: butt}</style>
 </defs>
 <g id="figure_1">
  <g id="patch_1">
   <path d="M 0 232.667717 
L 344.803509 232.667717 
L 344.803509 0 
L 0 0 
L 0 232.667717 
z
" style="fill: none"/>
  </g>
  <g id="axes_1">
   <g id="patch_2">
    <path d="M 7.2 225.467717 
L 270.822047 225.467717 
L 270.822047 7.2 
L 7.2 7.2 
L 7.2 225.467717 
z
" style="fill: none"/>
   </g>
   <g id="TriContourSet_1">
    <path d="M 180.30775 214.554331 
L 178.953758 207.237377 
L 175.543613 209.17493 
L 176.617052 214.554331 
L 178.953758 214.554331 
z
" clip-path="url(#p56ea5cd5f7)" style="fill: #440154; fill-opacity: 0.7"/>
    <path d="M 176.617052 214.554331 
L 175.543613 209.17493 
L 178.953758 207.237377 
L 180.30775 214.554331 
L 183.512858 214.554331 
L 178.953758 189.917013 
L 167.471271 196.441053 
L 171.085708 214.554331 
z
" clip-path="url(#p56ea5cd5f7)" style="fill: #450559; fill-opacity: 0.7"/>
    <path d="M 171.085708 214.554331 
L 167.471271 196.441053 
L 178.953758 189.917013 
L 183.512858 214.554331 
L 186.717966 214.554331 
L 181.685602 187.359502 
L 179.827556 180.706837 
L 179.343847 179.511816 
L 171.249883 176.973784 
L 159.39893 183.707177 
L 165.554364 214.554331 
z
" clip-path="url(#p56ea5cd5f7)" style="fill: #471164; fill-opacity: 0.7"/>
    <path d="M 165.554364 214.554331 
L 159.39893 183.707177 
L 171.249883 176.973784 
L 179.343847 179.511816 
L 179.827556 180.706837 
L 181.685602 187.359502 
L 186.717966 214.554331 
L 189.923074 214.554331 
L 186.212006 194.499767 
L 181.275355 176.824276 
L 179.990187 173.64922 
L 158.485301 166.905912 
L 151.326588 170.9733 
L 160.023019 214.554331 
z
" clip-path="url(#p56ea5cd5f7)" style="fill: #481b6d; fill-opacity: 0.7"/>
    <path d="M 160.023019 214.554331 
L 151.326588 170.9733 
L 158.485301 166.905912 
L 179.990187 173.64922 
L 181.275355 176.824276 
L 186.212006 194.499767 
L 189.923074 214.554331 
L 193.128181 214.554331 
L 190.73841 201.640033 
L 182.723154 172.941715 
L 180.636527 167.786624 
L 145.720719 156.83804 
L 143.254246 158.239424 
L 154.491675 214.554331 
z
" clip-path="url(#p56ea5cd5f7)" style="fill: #482576; fill-opacity: 0.7"/>
    <path d="M 154.491675 214.554331 
L 143.254246 158.239424 
L 145.720719 156.83804 
L 180.636527 167.786624 
L 182.723154 172.941715 
L 190.73841 201.640033 
L 193.128181 214.554331 
L 196.333289 214.554331 
L 195.264813 208.780299 
L 184.170953 169.059154 
L 181.282867 161.924028 
L 142.438571 149.743584 
L 138.478543 149.025952 
L 137.561425 149.25917 
L 136.863969 150.416897 
L 137.015405 154.693897 
L 148.960331 214.554331 
z
" clip-path="url(#p56ea5cd5f7)" style="fill: #472e7c; fill-opacity: 0.7"/>
    <path d="M 148.960331 214.554331 
L 137.015405 154.693897 
L 136.863969 150.416897 
L 137.561425 149.25917 
L 138.478543 149.025952 
L 142.438571 149.743584 
L 181.282867 161.924028 
L 184.170953 169.059154 
L 195.264813 208.780299 
L 196.333289 214.554331 
L 198.925125 214.554331 
L 199.317848 214.554331 
L 199.027599 213.261132 
L 198.782863 212.310193 
L 185.618752 165.176593 
L 181.929207 156.061432 
L 149.66434 145.944106 
L 137.355996 143.7136 
L 134.50546 144.438478 
L 132.337665 148.036861 
L 132.80835 161.3304 
L 143.428986 214.554331 
z
" clip-path="url(#p56ea5cd5f7)" style="fill: #453882; fill-opacity: 0.7"/>
    <path d="M 143.428986 214.554331 
L 132.80835 161.3304 
L 132.337665 148.036861 
L 134.50546 144.438478 
L 137.355996 143.7136 
L 149.66434 145.944106 
L 181.929207 156.061432 
L 185.618752 165.176593 
L 198.782863 212.310193 
L 199.027599 213.261132 
L 199.317848 214.554331 
L 201.370309 214.554331 
L 199.563154 206.502567 
L 198.039369 200.581789 
L 187.066551 161.294032 
L 182.575547 150.198836 
L 156.89011 142.144628 
L 136.233449 138.401249 
L 131.449496 139.617785 
L 127.811361 145.656825 
L 128.601295 167.966902 
L 137.897642 214.554331 
z
" clip-path="url(#p56ea5cd5f7)" style="fill: #424086; fill-opacity: 0.7"/>
    <path d="M 137.897642 214.554331 
L 128.601295 167.966902 
L 127.811361 145.656825 
L 131.449496 139.617785 
L 136.233449 138.401249 
L 156.89011 142.144628 
L 182.575547 150.198836 
L 187.066551 161.294032 
L 198.039369 200.581789 
L 199.563154 206.502567 
L 201.370309 214.554331 
L 203.42277 214.554331 
L 200.098708 199.744001 
L 197.295874 188.853384 
L 188.51435 157.411471 
L 183.221887 144.33624 
L 164.115879 138.34515 
L 135.110903 133.088897 
L 128.393531 134.797093 
L 123.285057 143.276789 
L 124.39424 174.603405 
L 132.366298 214.554331 
z
" clip-path="url(#p56ea5cd5f7)" style="fill: #3e4989; fill-opacity: 0.7"/>
    <path d="M 132.366298 214.554331 
L 124.39424 174.603405 
L 123.285057 143.276789 
L 128.393531 134.797093 
L 135.110903 133.088897 
L 164.115879 138.34515 
L 183.221887 144.33624 
L 188.51435 157.411471 
L 197.295874 188.853384 
L 200.098708 199.744001 
L 203.42277 214.554331 
L 205.475232 214.554331 
L 200.634262 192.985435 
L 196.552379 177.12498 
L 189.962149 153.52891 
L 183.868227 138.473644 
L 171.341648 134.545672 
L 133.988356 127.776546 
L 125.337566 129.9764 
L 118.758754 140.896753 
L 120.187185 181.239908 
L 126.834953 214.554331 
z
" clip-path="url(#p56ea5cd5f7)" style="fill: #3b528b; fill-opacity: 0.7"/>
    <path d="M 126.834953 214.554331 
L 120.187185 181.239908 
L 118.758754 140.896753 
L 125.337566 129.9764 
L 133.988356 127.776546 
L 171.341648 134.545672 
L 183.868227 138.473644 
L 189.962149 153.52891 
L 196.552379 177.12498 
L 200.634262 192.985435 
L 205.475232 214.554331 
L 207.527693 214.554331 
L 201.169816 186.226869 
L 195.808885 165.396575 
L 191.409948 149.646349 
L 184.514567 132.611048 
L 178.567417 130.746194 
L 132.865809 122.464194 
L 122.281601 125.155708 
L 114.23245 138.516717 
L 115.98013 187.876411 
L 121.303609 214.554331 
z
" clip-path="url(#p56ea5cd5f7)" style="fill: #375a8c; fill-opacity: 0.7"/>
    <path d="M 121.303609 214.554331 
L 115.98013 187.876411 
L 114.23245 138.516717 
L 122.281601 125.155708 
L 132.865809 122.464194 
L 178.567417 130.746194 
L 184.514567 132.611048 
L 191.409948 149.646349 
L 195.808885 165.396575 
L 201.169816 186.226869 
L 207.527693 214.554331 
L 209.580154 214.554331 
L 201.705371 179.468303 
L 195.06539 153.66817 
L 192.857747 145.763788 
L 185.901471 128.578042 
L 185.364474 127.502345 
L 185.233448 127.24104 
L 185.012149 126.901804 
L 184.963589 126.854812 
L 184.542558 126.720079 
L 131.743262 117.151843 
L 119.225637 120.335015 
L 109.706146 136.13668 
L 111.773075 194.512914 
L 115.772264 214.554331 
z
" clip-path="url(#p56ea5cd5f7)" style="fill: #33628d; fill-opacity: 0.7"/>
    <path d="M 115.772264 214.554331 
L 111.773075 194.512914 
L 109.706146 136.13668 
L 119.225637 120.335015 
L 131.743262 117.151843 
L 184.542558 126.720079 
L 184.963589 126.854812 
L 185.012149 126.901804 
L 185.233448 127.24104 
L 185.364474 127.502345 
L 185.901471 128.578042 
L 192.857747 145.763788 
L 195.06539 153.66817 
L 201.705371 179.468303 
L 209.580154 214.554331 
L 211.632616 214.554331 
L 202.240925 172.709737 
L 194.321896 141.939766 
L 194.305546 141.881227 
L 194.254029 141.753951 
L 188.129108 129.484676 
L 186.634637 126.504262 
L 184.110531 122.634977 
L 183.556663 122.098988 
L 178.754432 120.562236 
L 130.620715 111.839491 
L 116.169672 115.514323 
L 105.179842 133.756644 
L 107.56602 201.149417 
L 110.24092 214.554331 
z
" clip-path="url(#p56ea5cd5f7)" style="fill: #30698e; fill-opacity: 0.7"/>
    <path d="M 110.24092 214.554331 
L 107.56602 201.149417 
L 105.179842 133.756644 
L 116.169672 115.514323 
L 130.620715 111.839491 
L 178.754432 120.562236 
L 183.556663 122.098988 
L 184.110531 122.634977 
L 186.634637 126.504262 
L 188.129108 129.484676 
L 194.254029 141.753951 
L 194.305546 141.881227 
L 194.321896 141.939766 
L 202.240925 172.709737 
L 211.632616 214.554331 
L 213.685077 214.554331 
L 202.776479 165.951172 
L 198.117542 147.848527 
L 196.510013 142.717369 
L 190.893742 131.467006 
L 188.035826 125.767484 
L 183.208912 118.36815 
L 182.149736 117.343164 
L 172.966306 114.404393 
L 129.498169 106.52714 
L 113.113707 110.69363 
L 100.653538 131.376608 
L 103.358965 207.785919 
L 104.709576 214.554331 
z
" clip-path="url(#p56ea5cd5f7)" style="fill: #2d718e; fill-opacity: 0.7"/>
    <path d="M 104.709576 214.554331 
L 103.358965 207.785919 
L 100.653538 131.376608 
L 113.113707 110.69363 
L 129.498169 106.52714 
L 172.966306 114.404393 
L 182.149736 117.343164 
L 183.208912 118.36815 
L 188.035826 125.767484 
L 190.893742 131.467006 
L 196.510013 142.717369 
L 198.117542 147.848527 
L 202.776479 165.951172 
L 213.685077 214.554331 
L 215.737538 214.554331 
L 203.312033 159.192606 
L 201.947309 153.889871 
L 198.720168 143.588982 
L 193.658376 133.449336 
L 189.437015 125.030707 
L 182.307294 114.101323 
L 180.742809 112.58734 
L 167.17818 108.246549 
L 128.375622 101.214788 
L 110.057742 105.872938 
L 96.127234 128.996572 
L 99.151909 214.422422 
L 99.178231 214.554331 
z
" clip-path="url(#p56ea5cd5f7)" style="fill: #2a778e; fill-opacity: 0.7"/>
    <path d="M 99.178231 214.554331 
L 99.151909 214.422422 
L 96.127234 128.996572 
L 110.057742 105.872938 
L 128.375622 101.214788 
L 167.17818 108.246549 
L 180.742809 112.58734 
L 182.307294 114.101323 
L 189.437015 125.030707 
L 193.658376 133.449336 
L 198.720168 143.588982 
L 201.947309 153.889871 
L 203.312033 159.192606 
L 215.737538 214.554331 
L 217.79 214.554331 
L 205.107492 158.047534 
L 204.56644 156.066914 
L 200.930323 144.460595 
L 196.42301 135.431667 
L 190.838204 124.293929 
L 181.405676 109.834495 
L 179.335882 107.831516 
L 161.390054 102.088706 
L 127.253075 95.902437 
L 107.001778 101.052245 
L 91.60093 126.616536 
L 93.838187 189.803346 
L 95.336297 214.554331 
L 99.068289 214.554331 
z
" clip-path="url(#p56ea5cd5f7)" style="fill: #277f8e; fill-opacity: 0.7"/>
    <path d="M 95.336297 214.554331 
L 93.838187 189.803346 
L 91.60093 126.616536 
L 107.001778 101.052245 
L 127.253075 95.902437 
L 161.390054 102.088706 
L 179.335882 107.831516 
L 181.405676 109.834495 
L 190.838204 124.293929 
L 196.42301 135.431667 
L 200.930323 144.460595 
L 204.56644 156.066914 
L 205.107492 158.047534 
L 217.79 214.554331 
L 219.842461 214.554331 
L 207.794079 160.872873 
L 206.329288 155.510746 
L 203.140478 145.332209 
L 199.187644 137.413997 
L 192.239393 123.557151 
L 180.504058 105.567668 
L 177.928956 103.075692 
L 155.601927 95.930863 
L 126.130528 90.590085 
L 103.945813 96.231553 
L 87.074627 124.2365 
L 88.502023 164.550428 
L 91.528624 214.554331 
z
" clip-path="url(#p56ea5cd5f7)" style="fill: #25858e; fill-opacity: 0.7"/>
    <path d="M 91.528624 214.554331 
L 88.502023 164.550428 
L 87.074627 124.2365 
L 103.945813 96.231553 
L 126.130528 90.590085 
L 155.601927 95.930863 
L 177.928956 103.075692 
L 180.504058 105.567668 
L 192.239393 123.557151 
L 199.187644 137.413997 
L 203.140478 145.332209 
L 206.329288 155.510746 
L 207.794079 160.872873 
L 219.842461 214.554331 
L 221.894922 214.554331 
L 210.480666 163.698213 
L 208.092137 154.954577 
L 205.350633 146.203822 
L 201.952278 139.396328 
L 193.640582 122.820373 
L 179.602439 101.300841 
L 176.522029 98.319868 
L 149.813801 89.77302 
L 125.007981 85.277734 
L 100.889848 91.41086 
L 82.548323 121.856464 
L 83.165858 139.297511 
L 87.72095 214.554331 
z
" clip-path="url(#p56ea5cd5f7)" style="fill: #228d8d; fill-opacity: 0.7"/>
    <path d="M 78.271491 121.34373 
L 83.913276 214.554331 
L 87.72095 214.554331 
L 83.165858 139.297511 
L 82.548323 121.856464 
L 100.889848 91.41086 
L 125.007981 85.277734 
L 149.813801 89.77302 
L 176.522029 98.319868 
L 179.602439 101.300841 
L 193.640582 122.820373 
L 201.952278 139.396328 
L 205.350633 146.203822 
L 208.092137 154.954577 
L 210.480666 163.698213 
L 221.894922 214.554331 
L 223.947384 214.554331 
L 213.167252 166.523553 
L 209.854986 154.398409 
L 207.560788 147.075435 
L 204.716912 141.378658 
L 195.041771 122.083595 
L 178.700821 97.034014 
L 175.115102 93.564044 
L 144.025675 83.615177 
L 123.885435 79.965382 
L 100.777165 85.841705 
L 99.068289 88.537406 
L 79.096922 120.041637 
z
" clip-path="url(#p56ea5cd5f7)" style="fill: #20938c; fill-opacity: 0.7"/>
    <path d="M 100.777165 85.841705 
L 123.885435 79.965382 
L 144.025675 83.615177 
L 175.115102 93.564044 
L 178.700821 97.034014 
L 195.041771 122.083595 
L 204.716912 141.378658 
L 207.560788 147.075435 
L 209.854986 154.398409 
L 213.167252 166.523553 
L 223.947384 214.554331 
L 225.999845 214.554331 
L 215.853839 169.348893 
L 211.617835 153.842241 
L 209.770943 147.947048 
L 207.481546 143.360989 
L 196.442961 121.346817 
L 177.799203 92.767187 
L 173.708176 88.80822 
L 138.237549 77.457334 
L 122.762888 74.653031 
L 105.007755 79.168077 
z
M 74.795687 126.826707 
L 80.105602 214.554331 
L 83.913276 214.554331 
L 78.271491 121.34373 
z
" clip-path="url(#p56ea5cd5f7)" style="fill: #1e9b8a; fill-opacity: 0.7"/>
    <path d="M 105.007755 79.168077 
L 122.762888 74.653031 
L 138.237549 77.457334 
L 173.708176 88.80822 
L 177.799203 92.767187 
L 196.442961 121.346817 
L 207.481546 143.360989 
L 209.770943 147.947048 
L 211.617835 153.842241 
L 215.853839 169.348893 
L 225.999845 214.554331 
L 228.052307 214.554331 
L 218.540426 172.174233 
L 213.380683 153.286073 
L 211.981098 148.818662 
L 210.24618 145.343319 
L 197.84415 120.610039 
L 176.897584 88.500359 
L 172.301249 84.052395 
L 132.449423 71.299491 
L 121.640341 69.34068 
L 109.238345 72.494448 
z
M 71.319882 132.309683 
L 76.297928 214.554331 
L 80.105602 214.554331 
L 74.795687 126.826707 
z
" clip-path="url(#p56ea5cd5f7)" style="fill: #1fa187; fill-opacity: 0.7"/>
    <path d="M 184.123009 96.691745 
L 175.995966 84.233532 
L 170.894322 79.296571 
L 126.661297 65.141647 
L 120.517794 64.028328 
L 113.468936 65.820819 
L 109.238345 72.494448 
L 121.640341 69.34068 
L 132.449423 71.299491 
L 172.301249 84.052395 
L 176.897584 88.500359 
L 197.84415 120.610039 
L 210.24618 145.343319 
L 211.981098 148.818662 
L 213.380683 153.286073 
L 218.540426 172.174233 
L 228.052307 214.554331 
L 230.104768 214.554331 
L 221.227013 174.999573 
L 215.143532 152.729905 
L 214.191254 149.690275 
L 213.010813 147.325649 
L 200.86114 123.095642 
L 198.925125 120.041637 
z
M 67.844078 137.79266 
L 72.490254 214.554331 
L 76.297928 214.554331 
L 71.319882 132.309683 
z
" clip-path="url(#p56ea5cd5f7)" style="fill: #23a983; fill-opacity: 0.7"/>
    <path d="M 171.02285 76.026636 
L 169.487395 74.540747 
L 120.87317 58.983804 
L 119.395247 58.715977 
L 117.699526 59.147191 
L 113.468936 65.820819 
L 120.517794 64.028328 
L 126.661297 65.141647 
L 170.894322 79.296571 
L 175.995966 84.233532 
L 184.123009 96.691745 
L 175.88124 83.690601 
z
M 64.368274 143.275636 
L 68.68258 214.554331 
L 72.490254 214.554331 
L 67.844078 137.79266 
z
M 232.157229 214.554331 
L 223.913599 177.824913 
L 216.906381 152.173737 
L 216.401409 150.561888 
L 215.775447 149.30798 
L 209.332745 136.459344 
L 200.86114 123.095642 
L 213.010813 147.325649 
L 214.191254 149.690275 
L 215.143532 152.729905 
L 221.227013 174.999573 
L 230.104768 214.554331 
z
" clip-path="url(#p56ea5cd5f7)" style="fill: #29af7f; fill-opacity: 0.7"/>
    <path d="M 167.471791 70.424948 
L 120.115487 55.336084 
L 119.039656 57.033175 
L 117.699526 59.147191 
L 119.395247 58.715977 
L 120.87317 58.983804 
L 169.487395 74.540747 
L 171.02285 76.026636 
L 168.968074 72.78529 
z
M 60.89247 148.758613 
L 64.874907 214.554331 
L 68.68258 214.554331 
L 64.368274 143.275636 
z
M 234.209691 214.554331 
L 226.600186 180.650252 
L 218.66923 151.617568 
L 218.611564 151.433502 
L 218.540081 151.29031 
L 217.80435 149.823047 
L 209.332745 136.459344 
L 215.775447 149.30798 
L 216.401409 150.561888 
L 216.906381 152.173737 
L 223.913599 177.824913 
L 232.157229 214.554331 
z
" clip-path="url(#p56ea5cd5f7)" style="fill: #34b679; fill-opacity: 0.7"/>
    <path d="M 165.10006 66.683614 
L 121.690115 52.852156 
L 120.115487 55.336084 
L 167.471791 70.424948 
z
M 57.416666 154.241589 
L 61.067233 214.554331 
L 64.874907 214.554331 
L 60.89247 148.758613 
z
M 236.262152 214.554331 
L 229.286773 183.475592 
L 221.82743 156.169334 
L 218.896492 151.545868 
L 217.80435 149.823047 
L 218.540081 151.29031 
L 218.611564 151.433502 
L 218.66923 151.617568 
L 226.600186 180.650252 
L 234.209691 214.554331 
z
" clip-path="url(#p56ea5cd5f7)" style="fill: #3fbc73; fill-opacity: 0.7"/>
    <path d="M 162.72833 62.94228 
L 123.264743 50.368227 
L 121.690115 52.852156 
L 165.10006 66.683614 
z
M 53.940862 159.724566 
L 57.259559 214.554331 
L 61.067233 214.554331 
L 57.416666 154.241589 
z
M 238.314613 214.554331 
L 231.97336 186.300932 
L 225.192139 161.477061 
L 221.82743 156.169334 
L 229.286773 183.475592 
L 236.262152 214.554331 
z
" clip-path="url(#p56ea5cd5f7)" style="fill: #4ec36b; fill-opacity: 0.7"/>
    <path d="M 160.356599 59.200947 
L 124.839371 47.884299 
L 123.264743 50.368227 
L 162.72833 62.94228 
z
M 50.465058 165.207542 
L 53.451885 214.554331 
L 57.259559 214.554331 
L 53.940862 159.724566 
z
M 240.367075 214.554331 
L 234.659946 189.126272 
L 228.556847 166.784788 
L 225.192139 161.477061 
L 231.97336 186.300932 
L 238.314613 214.554331 
z
" clip-path="url(#p56ea5cd5f7)" style="fill: #5cc863; fill-opacity: 0.7"/>
    <path d="M 157.984868 55.459613 
L 126.413999 45.400371 
L 124.839371 47.884299 
L 160.356599 59.200947 
z
M 46.989253 170.690519 
L 49.644211 214.554331 
L 53.451885 214.554331 
L 50.465058 165.207542 
z
M 242.419536 214.554331 
L 237.346533 191.951612 
L 231.921556 172.092515 
L 228.556847 166.784788 
L 234.659946 189.126272 
L 240.367075 214.554331 
z
" clip-path="url(#p56ea5cd5f7)" style="fill: #6ece58; fill-opacity: 0.7"/>
    <path d="M 155.613138 51.718279 
L 127.988627 42.916442 
L 126.413999 45.400371 
L 157.984868 55.459613 
z
M 43.513449 176.173495 
L 45.836537 214.554331 
L 49.644211 214.554331 
L 46.989253 170.690519 
z
M 244.471997 214.554331 
L 240.03312 194.776952 
L 235.286265 177.400242 
L 231.921556 172.092515 
L 237.346533 191.951612 
L 242.419536 214.554331 
z
" clip-path="url(#p56ea5cd5f7)" style="fill: #81d34d; fill-opacity: 0.7"/>
    <path d="M 153.241407 47.976945 
L 129.563255 40.432514 
L 127.988627 42.916442 
L 155.613138 51.718279 
z
M 40.037645 181.656472 
L 42.028863 214.554331 
L 45.836537 214.554331 
L 43.513449 176.173495 
z
M 246.524459 214.554331 
L 242.719707 197.602292 
L 238.650974 182.707969 
L 235.286265 177.400242 
L 240.03312 194.776952 
L 244.471997 214.554331 
z
" clip-path="url(#p56ea5cd5f7)" style="fill: #93d741; fill-opacity: 0.7"/>
    <path d="M 150.869677 44.235612 
L 131.137883 37.948585 
L 129.563255 40.432514 
L 153.241407 47.976945 
z
M 36.561841 187.139448 
L 38.22119 214.554331 
L 42.028863 214.554331 
L 40.037645 181.656472 
z
M 248.57692 214.554331 
L 245.406293 200.427631 
L 242.015683 188.015696 
L 238.650974 182.707969 
L 242.719707 197.602292 
L 246.524459 214.554331 
z
" clip-path="url(#p56ea5cd5f7)" style="fill: #a8db34; fill-opacity: 0.7"/>
    <path d="M 148.497946 40.494278 
L 132.712511 35.464657 
L 131.137883 37.948585 
L 150.869677 44.235612 
z
M 33.086037 192.622425 
L 34.413516 214.554331 
L 38.22119 214.554331 
L 36.561841 187.139448 
z
M 250.629381 214.554331 
L 248.09288 203.252971 
L 245.380392 193.323423 
L 242.015683 188.015696 
L 245.406293 200.427631 
L 248.57692 214.554331 
z
" clip-path="url(#p56ea5cd5f7)" style="fill: #bade28; fill-opacity: 0.7"/>
    <path d="M 146.126215 36.752944 
L 134.287139 32.980729 
L 132.712511 35.464657 
L 148.497946 40.494278 
z
M 29.610233 198.105401 
L 30.605842 214.554331 
L 34.413516 214.554331 
L 33.086037 192.622425 
z
M 252.681843 214.554331 
L 250.779467 206.078311 
L 248.7451 198.63115 
L 245.380392 193.323423 
L 248.09288 203.252971 
L 250.629381 214.554331 
z
" clip-path="url(#p56ea5cd5f7)" style="fill: #d0e11c; fill-opacity: 0.7"/>
    <path d="M 143.754485 33.011611 
L 135.861768 30.4968 
L 134.287139 32.980729 
L 146.126215 36.752944 
z
M 26.134429 203.588378 
L 26.798168 214.554331 
L 30.605842 214.554331 
L 29.610233 198.105401 
z
M 254.734304 214.554331 
L 253.466053 208.903651 
L 252.109809 203.938877 
L 248.7451 198.63115 
L 250.779467 206.078311 
L 252.681843 214.554331 
z
" clip-path="url(#p56ea5cd5f7)" style="fill: #e2e418; fill-opacity: 0.7"/>
    <path d="M 141.382754 29.270277 
L 137.436396 28.012872 
L 135.861768 30.4968 
L 143.754485 33.011611 
z
M 22.658624 209.071354 
L 22.990494 214.554331 
L 26.798168 214.554331 
L 26.134429 203.588378 
z
M 256.786766 214.554331 
L 256.15264 211.728991 
L 255.474518 209.246604 
L 252.109809 203.938877 
L 253.466053 208.903651 
L 254.734304 214.554331 
z
" clip-path="url(#p56ea5cd5f7)" style="fill: #f6e620; fill-opacity: 0.7"/>
    <path d="M 137.436396 28.012872 
L 141.382754 29.270277 
L 139.011024 25.528943 
z
M 22.990494 214.554331 
L 22.658624 209.071354 
L 19.18282 214.554331 
z
M 255.474518 209.246604 
L 256.15264 211.728991 
L 256.786766 214.554331 
L 258.839227 214.554331 
z
" clip-path="url(#p56ea5cd5f7)" style="fill: #fde725; fill-opacity: 0.7"/>
   </g>
   <g id="matplotlib.axis_1"/>
   <g id="matplotlib.axis_2"/>
   <g id="line2d_1">
    <path d="M 185.098794 127.311844 
L 178.953758 183.050099 
" clip-path="url(#p56ea5cd5f7)" style="fill: none; stroke: #555555; stroke-opacity: 0.9; stroke-width: 0.5; stroke-linecap: square"/>
   </g>
   <g id="line2d_2">
    <path d="M 175.88124 83.690601 
L 185.098794 127.311844 
" clip-path="url(#p56ea5cd5f7)" style="fill: none; stroke: #555555; stroke-opacity: 0.9; stroke-width: 0.5; stroke-linecap: square"/>
   </g>
   <g id="line2d_3">
    <path d="M 139.011024 151.545868 
L 178.953758 214.554331 
" clip-path="url(#p56ea5cd5f7)" style="fill: none; stroke: #555555; stroke-opacity: 0.9; stroke-width: 0.5; stroke-linecap: square"/>
   </g>
   <g id="line2d_4">
    <path d="M 198.925125 214.554331 
L 194.316348 141.852259 
" clip-path="url(#p56ea5cd5f7)" style="fill: none; stroke: #555555; stroke-opacity: 0.9; stroke-width: 0.5; stroke-linecap: square"/>
   </g>
   <g id="line2d_5">
    <path d="M 218.896492 151.545868 
L 194.316348 141.852259 
" clip-path="url(#p56ea5cd5f7)" style="fill: none; stroke: #555555; stroke-opacity: 0.9; stroke-width: 0.5; stroke-linecap: square"/>
   </g>
   <g id="line2d_6">
    <path d="M 79.096922 120.041637 
L 99.068289 88.537406 
" clip-path="url(#p56ea5cd5f7)" style="fill: none; stroke: #555555; stroke-opacity: 0.9; stroke-width: 0.5; stroke-linecap: square"/>
   </g>
   <g id="line2d_7">
    <path d="M 79.096922 120.041637 
L 139.011024 151.545868 
" clip-path="url(#p56ea5cd5f7)" style="fill: none; stroke: #555555; stroke-opacity: 0.9; stroke-width: 0.5; stroke-linecap: square"/>
   </g>
   <g id="line2d_8">
    <path d="M 79.096922 120.041637 
L 99.068289 214.554331 
" clip-path="url(#p56ea5cd5f7)" style="fill: none; stroke: #555555; stroke-opacity: 0.9; stroke-width: 0.5; stroke-linecap: square"/>
   </g>
   <g id="line2d_9">
    <path d="M 168.968074 72.78529 
L 175.88124 83.690601 
" clip-path="url(#p56ea5cd5f7)" style="fill: none; stroke: #555555; stroke-opacity: 0.9; stroke-width: 0.5; stroke-linecap: square"/>
   </g>
   <g id="line2d_10">
    <path d="M 203.533902 156.392673 
L 258.839227 214.554331 
" clip-path="url(#p56ea5cd5f7)" style="fill: none; stroke: #555555; stroke-opacity: 0.9; stroke-width: 0.5; stroke-linecap: square"/>
   </g>
   <g id="line2d_11">
    <path d="M 119.039656 57.033175 
L 139.011024 151.545868 
" clip-path="url(#p56ea5cd5f7)" style="fill: none; stroke: #555555; stroke-opacity: 0.9; stroke-width: 0.5; stroke-linecap: square"/>
   </g>
   <g id="line2d_12">
    <path d="M 119.039656 57.033175 
L 185.098794 127.311844 
" clip-path="url(#p56ea5cd5f7)" style="fill: none; stroke: #555555; stroke-opacity: 0.9; stroke-width: 0.5; stroke-linecap: square"/>
   </g>
   <g id="line2d_13">
    <path d="M 178.953758 214.554331 
L 198.925125 214.554331 
" clip-path="url(#p56ea5cd5f7)" style="fill: none; stroke: #555555; stroke-opacity: 0.9; stroke-width: 0.5; stroke-linecap: square"/>
   </g>
   <g id="line2d_14">
    <path d="M 168.968074 72.78529 
L 185.098794 127.311844 
" clip-path="url(#p56ea5cd5f7)" style="fill: none; stroke: #555555; stroke-opacity: 0.9; stroke-width: 0.5; stroke-linecap: square"/>
   </g>
   <g id="line2d_15">
    <path d="M 99.068289 214.554331 
L 19.18282 214.554331 
" clip-path="url(#p56ea5cd5f7)" style="fill: none; stroke: #555555; stroke-opacity: 0.9; stroke-width: 0.5; stroke-linecap: square"/>
   </g>
   <g id="line2d_16">
    <path d="M 139.011024 151.545868 
L 185.098794 127.311844 
" clip-path="url(#p56ea5cd5f7)" style="fill: none; stroke: #555555; stroke-opacity: 0.9; stroke-width: 0.5; stroke-linecap: square"/>
   </g>
   <g id="line2d_17">
    <path d="M 139.011024 151.545868 
L 178.953758 183.050099 
" clip-path="url(#p56ea5cd5f7)" style="fill: none; stroke: #555555; stroke-opacity: 0.9; stroke-width: 0.5; stroke-linecap: square"/>
   </g>
   <g id="line2d_18">
    <path d="M 139.011024 151.545868 
L 99.068289 214.554331 
" clip-path="url(#p56ea5cd5f7)" style="fill: none; stroke: #555555; stroke-opacity: 0.9; stroke-width: 0.5; stroke-linecap: square"/>
   </g>
   <g id="line2d_19">
    <path d="M 218.896492 151.545868 
L 185.098794 127.311844 
" clip-path="url(#p56ea5cd5f7)" style="fill: none; stroke: #555555; stroke-opacity: 0.9; stroke-width: 0.5; stroke-linecap: square"/>
   </g>
   <g id="line2d_20">
    <path d="M 198.925125 214.554331 
L 178.953758 183.050099 
" clip-path="url(#p56ea5cd5f7)" style="fill: none; stroke: #555555; stroke-opacity: 0.9; stroke-width: 0.5; stroke-linecap: square"/>
   </g>
   <g id="line2d_21">
    <path d="M 99.068289 88.537406 
L 119.039656 57.033175 
" clip-path="url(#p56ea5cd5f7)" style="fill: none; stroke: #555555; stroke-opacity: 0.9; stroke-width: 0.5; stroke-linecap: square"/>
   </g>
   <g id="line2d_22">
    <path d="M 198.925125 214.554331 
L 258.839227 214.554331 
" clip-path="url(#p56ea5cd5f7)" style="fill: none; stroke: #555555; stroke-opacity: 0.9; stroke-width: 0.5; stroke-linecap: square"/>
   </g>
   <g id="line2d_23">
    <path d="M 218.896492 151.545868 
L 258.839227 214.554331 
" clip-path="url(#p56ea5cd5f7)" style="fill: none; stroke: #555555; stroke-opacity: 0.9; stroke-width: 0.5; stroke-linecap: square"/>
   </g>
   <g id="line2d_24">
    <path d="M 119.039656 57.033175 
L 139.011024 25.528943 
" clip-path="url(#p56ea5cd5f7)" style="fill: none; stroke: #555555; stroke-opacity: 0.9; stroke-width: 0.5; stroke-linecap: square"/>
   </g>
   <g id="line2d_25">
    <path d="M 168.968074 72.78529 
L 139.011024 25.528943 
" clip-path="url(#p56ea5cd5f7)" style="fill: none; stroke: #555555; stroke-opacity: 0.9; stroke-width: 0.5; stroke-linecap: square"/>
   </g>
   <g id="line2d_26">
    <path d="M 185.098794 127.311844 
L 194.316348 141.852259 
" clip-path="url(#p56ea5cd5f7)" style="fill: none; stroke: #555555; stroke-opacity: 0.9; stroke-width: 0.5; stroke-linecap: square"/>
   </g>
   <g id="line2d_27">
    <path d="M 194.316348 141.852259 
L 178.953758 183.050099 
" clip-path="url(#p56ea5cd5f7)" style="fill: none; stroke: #555555; stroke-opacity: 0.9; stroke-width: 0.5; stroke-linecap: square"/>
   </g>
   <g id="line2d_28">
    <path d="M 198.925125 214.554331 
L 203.533902 156.392673 
" clip-path="url(#p56ea5cd5f7)" style="fill: none; stroke: #555555; stroke-opacity: 0.9; stroke-width: 0.5; stroke-linecap: square"/>
   </g>
   <g id="line2d_29">
    <path d="M 218.896492 151.545868 
L 203.533902 156.392673 
" clip-path="url(#p56ea5cd5f7)" style="fill: none; stroke: #555555; stroke-opacity: 0.9; stroke-width: 0.5; stroke-linecap: square"/>
   </g>
   <g id="line2d_30">
    <path d="M 99.068289 88.537406 
L 139.011024 151.545868 
" clip-path="url(#p56ea5cd5f7)" style="fill: none; stroke: #555555; stroke-opacity: 0.9; stroke-width: 0.5; stroke-linecap: square"/>
   </g>
   <g id="line2d_31">
    <path d="M 198.925125 120.041637 
L 218.896492 151.545868 
" clip-path="url(#p56ea5cd5f7)" style="fill: none; stroke: #555555; stroke-opacity: 0.9; stroke-width: 0.5; stroke-linecap: square"/>
   </g>
   <g id="line2d_32">
    <path d="M 198.925125 120.041637 
L 175.88124 83.690601 
" clip-path="url(#p56ea5cd5f7)" style="fill: none; stroke: #555555; stroke-opacity: 0.9; stroke-width: 0.5; stroke-linecap: square"/>
   </g>
   <g id="line2d_33">
    <path d="M 198.925125 120.041637 
L 185.098794 127.311844 
" clip-path="url(#p56ea5cd5f7)" style="fill: none; stroke: #555555; stroke-opacity: 0.9; stroke-width: 0.5; stroke-linecap: square"/>
   </g>
   <g id="line2d_34">
    <path d="M 168.968074 72.78529 
L 119.039656 57.033175 
" clip-path="url(#p56ea5cd5f7)" style="fill: none; stroke: #555555; stroke-opacity: 0.9; stroke-width: 0.5; stroke-linecap: square"/>
   </g>
   <g id="line2d_35">
    <path d="M 178.953758 214.554331 
L 99.068289 214.554331 
" clip-path="url(#p56ea5cd5f7)" style="fill: none; stroke: #555555; stroke-opacity: 0.9; stroke-width: 0.5; stroke-linecap: square"/>
   </g>
   <g id="line2d_36">
    <path d="M 79.096922 120.041637 
L 19.18282 214.554331 
" clip-path="url(#p56ea5cd5f7)" style="fill: none; stroke: #555555; stroke-opacity: 0.9; stroke-width: 0.5; stroke-linecap: square"/>
   </g>
   <g id="line2d_37">
    <path d="M 178.953758 214.554331 
L 178.953758 183.050099 
" clip-path="url(#p56ea5cd5f7)" style="fill: none; stroke: #555555; stroke-opacity: 0.9; stroke-width: 0.5; stroke-linecap: square"/>
   </g>
   <g id="line2d_38">
    <path d="M 194.316348 141.852259 
L 203.533902 156.392673 
" clip-path="url(#p56ea5cd5f7)" style="fill: none; stroke: #555555; stroke-opacity: 0.9; stroke-width: 0.5; stroke-linecap: square"/>
   </g>
   <g id="PathCollection_1">
    <defs>
     <path id="m367b01e0d5" d="M 0 2.738613 
C 0.726289 2.738613 1.422928 2.450055 1.936492 1.936492 
C 2.450055 1.422928 2.738613 0.726289 2.738613 0 
C 2.738613 -0.726289 2.450055 -1.422928 1.936492 -1.936492 
C 1.422928 -2.450055 0.726289 -2.738613 0 -2.738613 
C -0.726289 -2.738613 -1.422928 -2.450055 -1.936492 -1.936492 
C -2.450055 -1.422928 -2.738613 -0.726289 -2.738613 0 
C -2.738613 0.726289 -2.450055 1.422928 -1.936492 1.936492 
C -1.422928 2.450055 -0.726289 2.738613 0 2.738613 
z
" style="stroke: #008000"/>
    </defs>
    <g clip-path="url(#p56ea5cd5f7)">
     <use xlink:href="#m367b01e0d5" x="185.098794" y="127.311844" style="fill: #008000; stroke: #008000"/>
     <use xlink:href="#m367b01e0d5" x="178.953758" y="183.050099" style="fill: #008000; stroke: #008000"/>
     <use xlink:href="#m367b01e0d5" x="175.88124" y="83.690601" style="fill: #008000; stroke: #008000"/>
     <use xlink:href="#m367b01e0d5" x="139.011024" y="151.545868" style="fill: #008000; stroke: #008000"/>
     <use xlink:href="#m367b01e0d5" x="178.953758" y="214.554331" style="fill: #008000; stroke: #008000"/>
     <use xlink:href="#m367b01e0d5" x="198.925125" y="214.554331" style="fill: #008000; stroke: #008000"/>
     <use xlink:href="#m367b01e0d5" x="194.316348" y="141.852259" style="fill: #008000; stroke: #008000"/>
     <use xlink:href="#m367b01e0d5" x="218.896492" y="151.545868" style="fill: #008000; stroke: #008000"/>
     <use xlink:href="#m367b01e0d5" x="79.096922" y="120.041637" style="fill: #008000; stroke: #008000"/>
     <use xlink:href="#m367b01e0d5" x="99.068289" y="88.537406" style="fill: #008000; stroke: #008000"/>
     <use xlink:href="#m367b01e0d5" x="99.068289" y="214.554331" style="fill: #008000; stroke: #008000"/>
     <use xlink:href="#m367b01e0d5" x="168.968074" y="72.78529" style="fill: #008000; stroke: #008000"/>
     <use xlink:href="#m367b01e0d5" x="203.533902" y="156.392673" style="fill: #008000; stroke: #008000"/>
     <use xlink:href="#m367b01e0d5" x="258.839227" y="214.554331" style="fill: #008000; stroke: #008000"/>
     <use xlink:href="#m367b01e0d5" x="119.039656" y="57.033175" style="fill: #008000; stroke: #008000"/>
     <use xlink:href="#m367b01e0d5" x="19.18282" y="214.554331" style="fill: #008000; stroke: #008000"/>
     <use xlink:href="#m367b01e0d5" x="139.011024" y="25.528943" style="fill: #008000; stroke: #008000"/>
     <use xlink:href="#m367b01e0d5" x="198.925125" y="120.041637" style="fill: #008000; stroke: #008000"/>
    </g>
   </g>
   <g id="PathCollection_2">
    <defs>
     <path id="md1a40ee9bb" d="M -0 2.236068 
L 1.341641 0 
L 0 -2.236068 
L -1.341641 -0 
z
" style="stroke: #d3d3d3"/>
    </defs>
    <g clip-path="url(#p56ea5cd5f7)">
     <use xlink:href="#md1a40ee9bb" x="139.011024" y="25.528943" style="fill: #d3d3d3; stroke: #d3d3d3"/>
     <use xlink:href="#md1a40ee9bb" x="139.011024" y="25.528943" style="fill: #d3d3d3; stroke: #d3d3d3"/>
     <use xlink:href="#md1a40ee9bb" x="139.011024" y="25.528943" style="fill: #d3d3d3; stroke: #d3d3d3"/>
     <use xlink:href="#md1a40ee9bb" x="139.011024" y="25.528943" style="fill: #d3d3d3; stroke: #d3d3d3"/>
     <use xlink:href="#md1a40ee9bb" x="139.011024" y="25.528943" style="fill: #d3d3d3; stroke: #d3d3d3"/>
     <use xlink:href="#md1a40ee9bb" x="139.011024" y="25.528943" style="fill: #d3d3d3; stroke: #d3d3d3"/>
     <use xlink:href="#md1a40ee9bb" x="139.011024" y="25.528943" style="fill: #d3d3d3; stroke: #d3d3d3"/>
     <use xlink:href="#md1a40ee9bb" x="258.839227" y="214.554331" style="fill: #d3d3d3; stroke: #d3d3d3"/>
     <use xlink:href="#md1a40ee9bb" x="258.839227" y="214.554331" style="fill: #d3d3d3; stroke: #d3d3d3"/>
     <use xlink:href="#md1a40ee9bb" x="258.839227" y="214.554331" style="fill: #d3d3d3; stroke: #d3d3d3"/>
     <use xlink:href="#md1a40ee9bb" x="258.839227" y="214.554331" style="fill: #d3d3d3; stroke: #d3d3d3"/>
     <use xlink:href="#md1a40ee9bb" x="258.839227" y="214.554331" style="fill: #d3d3d3; stroke: #d3d3d3"/>
     <use xlink:href="#md1a40ee9bb" x="258.839227" y="214.554331" style="fill: #d3d3d3; stroke: #d3d3d3"/>
     <use xlink:href="#md1a40ee9bb" x="258.839227" y="214.554331" style="fill: #d3d3d3; stroke: #d3d3d3"/>
     <use xlink:href="#md1a40ee9bb" x="258.839227" y="214.554331" style="fill: #d3d3d3; stroke: #d3d3d3"/>
     <use xlink:href="#md1a40ee9bb" x="258.839227" y="214.554331" style="fill: #d3d3d3; stroke: #d3d3d3"/>
     <use xlink:href="#md1a40ee9bb" x="198.925125" y="120.041637" style="fill: #d3d3d3; stroke: #d3d3d3"/>
     <use xlink:href="#md1a40ee9bb" x="168.968074" y="72.78529" style="fill: #d3d3d3; stroke: #d3d3d3"/>
     <use xlink:href="#md1a40ee9bb" x="168.968074" y="72.78529" style="fill: #d3d3d3; stroke: #d3d3d3"/>
     <use xlink:href="#md1a40ee9bb" x="168.968074" y="72.78529" style="fill: #d3d3d3; stroke: #d3d3d3"/>
     <use xlink:href="#md1a40ee9bb" x="162.976664" y="63.334021" style="fill: #d3d3d3; stroke: #d3d3d3"/>
     <use xlink:href="#md1a40ee9bb" x="218.896492" y="151.545868" style="fill: #d3d3d3; stroke: #d3d3d3"/>
     <use xlink:href="#md1a40ee9bb" x="218.896492" y="151.545868" style="fill: #d3d3d3; stroke: #d3d3d3"/>
     <use xlink:href="#md1a40ee9bb" x="228.882176" y="167.297984" style="fill: #d3d3d3; stroke: #d3d3d3"/>
     <use xlink:href="#md1a40ee9bb" x="228.882176" y="167.297984" style="fill: #d3d3d3; stroke: #d3d3d3"/>
     <use xlink:href="#md1a40ee9bb" x="210.907946" y="138.944176" style="fill: #d3d3d3; stroke: #d3d3d3"/>
     <use xlink:href="#md1a40ee9bb" x="164.238014" y="65.323762" style="fill: #d3d3d3; stroke: #d3d3d3"/>
     <use xlink:href="#md1a40ee9bb" x="19.18282" y="214.554331" style="fill: #d3d3d3; stroke: #d3d3d3"/>
     <use xlink:href="#md1a40ee9bb" x="19.18282" y="214.554331" style="fill: #d3d3d3; stroke: #d3d3d3"/>
     <use xlink:href="#md1a40ee9bb" x="19.18282" y="214.554331" style="fill: #d3d3d3; stroke: #d3d3d3"/>
     <use xlink:href="#md1a40ee9bb" x="79.096922" y="120.041637" style="fill: #d3d3d3; stroke: #d3d3d3"/>
     <use xlink:href="#md1a40ee9bb" x="99.068289" y="88.537406" style="fill: #d3d3d3; stroke: #d3d3d3"/>
     <use xlink:href="#md1a40ee9bb" x="99.068289" y="88.537406" style="fill: #d3d3d3; stroke: #d3d3d3"/>
     <use xlink:href="#md1a40ee9bb" x="139.011024" y="214.554331" style="fill: #d3d3d3; stroke: #d3d3d3"/>
     <use xlink:href="#md1a40ee9bb" x="139.011024" y="214.554331" style="fill: #d3d3d3; stroke: #d3d3d3"/>
     <use xlink:href="#md1a40ee9bb" x="139.011024" y="151.545868" style="fill: #d3d3d3; stroke: #d3d3d3"/>
     <use xlink:href="#md1a40ee9bb" x="139.011024" y="120.041637" style="fill: #d3d3d3; stroke: #d3d3d3"/>
     <use xlink:href="#md1a40ee9bb" x="198.925125" y="214.554331" style="fill: #d3d3d3; stroke: #d3d3d3"/>
     <use xlink:href="#md1a40ee9bb" x="198.925125" y="214.554331" style="fill: #d3d3d3; stroke: #d3d3d3"/>
     <use xlink:href="#md1a40ee9bb" x="198.925125" y="214.554331" style="fill: #d3d3d3; stroke: #d3d3d3"/>
     <use xlink:href="#md1a40ee9bb" x="91.079742" y="101.139098" style="fill: #d3d3d3; stroke: #d3d3d3"/>
     <use xlink:href="#md1a40ee9bb" x="109.053973" y="167.297984" style="fill: #d3d3d3; stroke: #d3d3d3"/>
     <use xlink:href="#md1a40ee9bb" x="79.096922" y="214.554331" style="fill: #d3d3d3; stroke: #d3d3d3"/>
     <use xlink:href="#md1a40ee9bb" x="115.045383" y="214.554331" style="fill: #d3d3d3; stroke: #d3d3d3"/>
     <use xlink:href="#md1a40ee9bb" x="67.114102" y="214.554331" style="fill: #d3d3d3; stroke: #d3d3d3"/>
     <use xlink:href="#md1a40ee9bb" x="109.053973" y="214.554331" style="fill: #d3d3d3; stroke: #d3d3d3"/>
    </g>
   </g>
   <g id="PathCollection_3">
    <defs>
     <path id="m35164b901e" d="M 0 -5 
L -1.12257 -1.545085 
L -4.755283 -1.545085 
L -1.816356 0.59017 
L -2.938926 4.045085 
L -0 1.90983 
L 2.938926 4.045085 
L 1.816356 0.59017 
L 4.755283 -1.545085 
L 1.12257 -1.545085 
z
" style="stroke: #ff0000"/>
    </defs>
    <g clip-path="url(#p56ea5cd5f7)">
     <use xlink:href="#m35164b901e" x="203.533902" y="156.392673" style="fill: #ff0000; stroke: #ff0000"/>
    </g>
   </g>
   <g id="text_1">
    <!-- $\mathrm{Y(AlCu)_{6}}$ -->
    <g transform="translate(155.085158 123.165423) scale(0.1 -0.1)">
     <defs>
      <path id="DejaVuSans-59" d="M -13 4666 
L 666 4666 
L 1959 2747 
L 3244 4666 
L 3922 4666 
L 2272 2222 
L 2272 0 
L 1638 0 
L 1638 2222 
L -13 4666 
z
" transform="scale(0.015625)"/>
      <path id="DejaVuSans-28" d="M 1984 4856 
Q 1566 4138 1362 3434 
Q 1159 2731 1159 2009 
Q 1159 1288 1364 580 
Q 1569 -128 1984 -844 
L 1484 -844 
Q 1016 -109 783 600 
Q 550 1309 550 2009 
Q 550 2706 781 3412 
Q 1013 4119 1484 4856 
L 1984 4856 
z
" transform="scale(0.015625)"/>
      <path id="DejaVuSans-41" d="M 2188 4044 
L 1331 1722 
L 3047 1722 
L 2188 4044 
z
M 1831 4666 
L 2547 4666 
L 4325 0 
L 3669 0 
L 3244 1197 
L 1141 1197 
L 716 0 
L 50 0 
L 1831 4666 
z
" transform="scale(0.015625)"/>
      <path id="DejaVuSans-6c" d="M 603 4863 
L 1178 4863 
L 1178 0 
L 603 0 
L 603 4863 
z
" transform="scale(0.015625)"/>
      <path id="DejaVuSans-43" d="M 4122 4306 
L 4122 3641 
Q 3803 3938 3442 4084 
Q 3081 4231 2675 4231 
Q 1875 4231 1450 3742 
Q 1025 3253 1025 2328 
Q 1025 1406 1450 917 
Q 1875 428 2675 428 
Q 3081 428 3442 575 
Q 3803 722 4122 1019 
L 4122 359 
Q 3791 134 3420 21 
Q 3050 -91 2638 -91 
Q 1578 -91 968 557 
Q 359 1206 359 2328 
Q 359 3453 968 4101 
Q 1578 4750 2638 4750 
Q 3056 4750 3426 4639 
Q 3797 4528 4122 4306 
z
" transform="scale(0.015625)"/>
      <path id="DejaVuSans-75" d="M 544 1381 
L 544 3500 
L 1119 3500 
L 1119 1403 
Q 1119 906 1312 657 
Q 1506 409 1894 409 
Q 2359 409 2629 706 
Q 2900 1003 2900 1516 
L 2900 3500 
L 3475 3500 
L 3475 0 
L 2900 0 
L 2900 538 
Q 2691 219 2414 64 
Q 2138 -91 1772 -91 
Q 1169 -91 856 284 
Q 544 659 544 1381 
z
M 1991 3584 
L 1991 3584 
z
" transform="scale(0.015625)"/>
      <path id="DejaVuSans-29" d="M 513 4856 
L 1013 4856 
Q 1481 4119 1714 3412 
Q 1947 2706 1947 2009 
Q 1947 1309 1714 600 
Q 1481 -109 1013 -844 
L 513 -844 
Q 928 -128 1133 580 
Q 1338 1288 1338 2009 
Q 1338 2731 1133 3434 
Q 928 4138 513 4856 
z
" transform="scale(0.015625)"/>
      <path id="DejaVuSans-36" d="M 2113 2584 
Q 1688 2584 1439 2293 
Q 1191 2003 1191 1497 
Q 1191 994 1439 701 
Q 1688 409 2113 409 
Q 2538 409 2786 701 
Q 3034 994 3034 1497 
Q 3034 2003 2786 2293 
Q 2538 2584 2113 2584 
z
M 3366 4563 
L 3366 3988 
Q 3128 4100 2886 4159 
Q 2644 4219 2406 4219 
Q 1781 4219 1451 3797 
Q 1122 3375 1075 2522 
Q 1259 2794 1537 2939 
Q 1816 3084 2150 3084 
Q 2853 3084 3261 2657 
Q 3669 2231 3669 1497 
Q 3669 778 3244 343 
Q 2819 -91 2113 -91 
Q 1303 -91 875 529 
Q 447 1150 447 2328 
Q 447 3434 972 4092 
Q 1497 4750 2381 4750 
Q 2619 4750 2861 4703 
Q 3103 4656 3366 4563 
z
" transform="scale(0.015625)"/>
     </defs>
     <use xlink:href="#DejaVuSans-59" transform="translate(0 0.015625)"/>
     <use xlink:href="#DejaVuSans-28" transform="translate(61.083984 0.015625)"/>
     <use xlink:href="#DejaVuSans-41" transform="translate(100.097656 0.015625)"/>
     <use xlink:href="#DejaVuSans-6c" transform="translate(168.505859 0.015625)"/>
     <use xlink:href="#DejaVuSans-43" transform="translate(196.289062 0.015625)"/>
     <use xlink:href="#DejaVuSans-75" transform="translate(266.113281 0.015625)"/>
     <use xlink:href="#DejaVuSans-29" transform="translate(329.492188 0.015625)"/>
     <use xlink:href="#DejaVuSans-36" transform="translate(369.462891 -16.390625) scale(0.7)"/>
    </g>
   </g>
   <g id="text_2">
    <!-- $\mathrm{Y_{3}Al_{7}Cu_{2}}$ -->
    <g transform="translate(142.099213 191.997982) scale(0.1 -0.1)">
     <defs>
      <path id="DejaVuSans-33" d="M 2597 2516 
Q 3050 2419 3304 2112 
Q 3559 1806 3559 1356 
Q 3559 666 3084 287 
Q 2609 -91 1734 -91 
Q 1441 -91 1130 -33 
Q 819 25 488 141 
L 488 750 
Q 750 597 1062 519 
Q 1375 441 1716 441 
Q 2309 441 2620 675 
Q 2931 909 2931 1356 
Q 2931 1769 2642 2001 
Q 2353 2234 1838 2234 
L 1294 2234 
L 1294 2753 
L 1863 2753 
Q 2328 2753 2575 2939 
Q 2822 3125 2822 3475 
Q 2822 3834 2567 4026 
Q 2313 4219 1838 4219 
Q 1578 4219 1281 4162 
Q 984 4106 628 3988 
L 628 4550 
Q 988 4650 1302 4700 
Q 1616 4750 1894 4750 
Q 2613 4750 3031 4423 
Q 3450 4097 3450 3541 
Q 3450 3153 3228 2886 
Q 3006 2619 2597 2516 
z
" transform="scale(0.015625)"/>
      <path id="DejaVuSans-37" d="M 525 4666 
L 3525 4666 
L 3525 4397 
L 1831 0 
L 1172 0 
L 2766 4134 
L 525 4134 
L 525 4666 
z
" transform="scale(0.015625)"/>
      <path id="DejaVuSans-32" d="M 1228 531 
L 3431 531 
L 3431 0 
L 469 0 
L 469 531 
Q 828 903 1448 1529 
Q 2069 2156 2228 2338 
Q 2531 2678 2651 2914 
Q 2772 3150 2772 3378 
Q 2772 3750 2511 3984 
Q 2250 4219 1831 4219 
Q 1534 4219 1204 4116 
Q 875 4013 500 3803 
L 500 4441 
Q 881 4594 1212 4672 
Q 1544 4750 1819 4750 
Q 2544 4750 2975 4387 
Q 3406 4025 3406 3419 
Q 3406 3131 3298 2873 
Q 3191 2616 2906 2266 
Q 2828 2175 2409 1742 
Q 1991 1309 1228 531 
z
" transform="scale(0.015625)"/>
     </defs>
     <use xlink:href="#DejaVuSans-59" transform="translate(0 0.015625)"/>
     <use xlink:href="#DejaVuSans-33" transform="translate(62.041016 -16.390625) scale(0.7)"/>
     <use xlink:href="#DejaVuSans-41" transform="translate(109.311523 0.015625)"/>
     <use xlink:href="#DejaVuSans-6c" transform="translate(177.719727 0.015625)"/>
     <use xlink:href="#DejaVuSans-37" transform="translate(206.459961 -16.390625) scale(0.7)"/>
     <use xlink:href="#DejaVuSans-43" transform="translate(253.730469 0.015625)"/>
     <use xlink:href="#DejaVuSans-75" transform="translate(323.554688 0.015625)"/>
     <use xlink:href="#DejaVuSans-32" transform="translate(387.890625 -16.390625) scale(0.7)"/>
    </g>
   </g>
   <g id="text_3">
    <!-- $\mathrm{Al_{4}Cu_{9}}$ -->
    <g transform="translate(175.944876 87.026639) scale(0.1 -0.1)">
     <defs>
      <path id="DejaVuSans-34" d="M 2419 4116 
L 825 1625 
L 2419 1625 
L 2419 4116 
z
M 2253 4666 
L 3047 4666 
L 3047 1625 
L 3713 1625 
L 3713 1100 
L 3047 1100 
L 3047 0 
L 2419 0 
L 2419 1100 
L 313 1100 
L 313 1709 
L 2253 4666 
z
" transform="scale(0.015625)"/>
      <path id="DejaVuSans-39" d="M 703 97 
L 703 672 
Q 941 559 1184 500 
Q 1428 441 1663 441 
Q 2288 441 2617 861 
Q 2947 1281 2994 2138 
Q 2813 1869 2534 1725 
Q 2256 1581 1919 1581 
Q 1219 1581 811 2004 
Q 403 2428 403 3163 
Q 403 3881 828 4315 
Q 1253 4750 1959 4750 
Q 2769 4750 3195 4129 
Q 3622 3509 3622 2328 
Q 3622 1225 3098 567 
Q 2575 -91 1691 -91 
Q 1453 -91 1209 -44 
Q 966 3 703 97 
z
M 1959 2075 
Q 2384 2075 2632 2365 
Q 2881 2656 2881 3163 
Q 2881 3666 2632 3958 
Q 2384 4250 1959 4250 
Q 1534 4250 1286 3958 
Q 1038 3666 1038 3163 
Q 1038 2656 1286 2365 
Q 1534 2075 1959 2075 
z
" transform="scale(0.015625)"/>
     </defs>
     <use xlink:href="#DejaVuSans-41" transform="translate(0 0.015625)"/>
     <use xlink:href="#DejaVuSans-6c" transform="translate(68.408203 0.015625)"/>
     <use xlink:href="#DejaVuSans-34" transform="translate(97.148438 -16.390625) scale(0.7)"/>
     <use xlink:href="#DejaVuSans-43" transform="translate(144.418945 0.015625)"/>
     <use xlink:href="#DejaVuSans-75" transform="translate(214.243164 0.015625)"/>
     <use xlink:href="#DejaVuSans-39" transform="translate(278.579102 -16.390625) scale(0.7)"/>
    </g>
   </g>
   <g id="text_4">
    <!-- $\mathrm{YAlCu}$ -->
    <g transform="translate(115.951933 159.119331) scale(0.1 -0.1)">
     <use xlink:href="#DejaVuSans-59" transform="translate(0 0.015625)"/>
     <use xlink:href="#DejaVuSans-41" transform="translate(61.083984 0.015625)"/>
     <use xlink:href="#DejaVuSans-6c" transform="translate(129.492188 0.015625)"/>
     <use xlink:href="#DejaVuSans-43" transform="translate(157.275391 0.015625)"/>
     <use xlink:href="#DejaVuSans-75" transform="translate(227.099609 0.015625)"/>
    </g>
   </g>
   <g id="text_5">
    <!-- $\mathrm{YAl_{2}}$ -->
    <g transform="translate(171.926485 210.544971) scale(0.1 -0.1)">
     <use xlink:href="#DejaVuSans-59" transform="translate(0 0.015625)"/>
     <use xlink:href="#DejaVuSans-41" transform="translate(61.083984 0.015625)"/>
     <use xlink:href="#DejaVuSans-6c" transform="translate(129.492188 0.015625)"/>
     <use xlink:href="#DejaVuSans-32" transform="translate(158.232422 -16.390625) scale(0.7)"/>
    </g>
   </g>
   <g id="text_6">
    <!-- $\mathrm{YAl_{3}}$ -->
    <g transform="translate(193.206943 210.594971) scale(0.1 -0.1)">
     <use xlink:href="#DejaVuSans-59" transform="translate(0 0.015625)"/>
     <use xlink:href="#DejaVuSans-41" transform="translate(61.083984 0.015625)"/>
     <use xlink:href="#DejaVuSans-6c" transform="translate(129.492188 0.015625)"/>
     <use xlink:href="#DejaVuSans-33" transform="translate(158.232422 -16.390625) scale(0.7)"/>
    </g>
   </g>
   <g id="text_7">
    <!-- $\mathrm{YAl_{7}Cu_{5}}$ -->
    <g transform="translate(162.529985 150.800142) scale(0.1 -0.1)">
     <defs>
      <path id="DejaVuSans-35" d="M 691 4666 
L 3169 4666 
L 3169 4134 
L 1269 4134 
L 1269 2991 
Q 1406 3038 1543 3061 
Q 1681 3084 1819 3084 
Q 2600 3084 3056 2656 
Q 3513 2228 3513 1497 
Q 3513 744 3044 326 
Q 2575 -91 1722 -91 
Q 1428 -91 1123 -41 
Q 819 9 494 109 
L 494 744 
Q 775 591 1075 516 
Q 1375 441 1709 441 
Q 2250 441 2565 725 
Q 2881 1009 2881 1497 
Q 2881 1984 2565 2268 
Q 2250 2553 1709 2553 
Q 1456 2553 1204 2497 
Q 953 2441 691 2322 
L 691 4666 
z
" transform="scale(0.015625)"/>
     </defs>
     <use xlink:href="#DejaVuSans-59" transform="translate(0 0.015625)"/>
     <use xlink:href="#DejaVuSans-41" transform="translate(61.083984 0.015625)"/>
     <use xlink:href="#DejaVuSans-6c" transform="translate(129.492188 0.015625)"/>
     <use xlink:href="#DejaVuSans-37" transform="translate(158.232422 -16.390625) scale(0.7)"/>
     <use xlink:href="#DejaVuSans-43" transform="translate(205.50293 0.015625)"/>
     <use xlink:href="#DejaVuSans-75" transform="translate(275.327148 0.015625)"/>
     <use xlink:href="#DejaVuSans-35" transform="translate(339.663086 -16.390625) scale(0.7)"/>
    </g>
   </g>
   <g id="text_8">
    <!-- $\mathrm{Al_{2}Cu}$ -->
    <g transform="translate(213.505583 147.420198) scale(0.1 -0.1)">
     <use xlink:href="#DejaVuSans-41" transform="translate(0 0.015625)"/>
     <use xlink:href="#DejaVuSans-6c" transform="translate(68.408203 0.015625)"/>
     <use xlink:href="#DejaVuSans-32" transform="translate(97.148438 -16.390625) scale(0.7)"/>
     <use xlink:href="#DejaVuSans-43" transform="translate(144.418945 0.015625)"/>
     <use xlink:href="#DejaVuSans-75" transform="translate(214.243164 0.015625)"/>
    </g>
   </g>
   <g id="text_9">
    <!-- $\mathrm{YCu}$ -->
    <g transform="translate(63.456013 127.6151) scale(0.1 -0.1)">
     <use xlink:href="#DejaVuSans-59" transform="translate(0 0.78125)"/>
     <use xlink:href="#DejaVuSans-43" transform="translate(61.083984 0.78125)"/>
     <use xlink:href="#DejaVuSans-75" transform="translate(130.908203 0.78125)"/>
    </g>
   </g>
   <g id="text_10">
    <!-- $\mathrm{YCu_{2}}$ -->
    <g transform="translate(79.718289 96.76175) scale(0.1 -0.1)">
     <use xlink:href="#DejaVuSans-59" transform="translate(0 0.78125)"/>
     <use xlink:href="#DejaVuSans-43" transform="translate(61.083984 0.78125)"/>
     <use xlink:href="#DejaVuSans-75" transform="translate(130.908203 0.78125)"/>
     <use xlink:href="#DejaVuSans-32" transform="translate(195.244141 -15.625) scale(0.7)"/>
    </g>
   </g>
   <g id="text_11">
    <!-- $\mathrm{Y_{2}Al}$ -->
    <g transform="translate(92.041016 210.544971) scale(0.1 -0.1)">
     <use xlink:href="#DejaVuSans-59" transform="translate(0 0.015625)"/>
     <use xlink:href="#DejaVuSans-32" transform="translate(62.041016 -16.390625) scale(0.7)"/>
     <use xlink:href="#DejaVuSans-41" transform="translate(109.311523 0.015625)"/>
     <use xlink:href="#DejaVuSans-6c" transform="translate(177.719727 0.015625)"/>
    </g>
   </g>
   <g id="text_12">
    <!-- $\mathrm{AlCu_{3}}$ -->
    <g transform="translate(161.613529 68.638869) scale(0.1 -0.1)">
     <use xlink:href="#DejaVuSans-41" transform="translate(0 0.015625)"/>
     <use xlink:href="#DejaVuSans-6c" transform="translate(68.408203 0.015625)"/>
     <use xlink:href="#DejaVuSans-43" transform="translate(96.191406 0.015625)"/>
     <use xlink:href="#DejaVuSans-75" transform="translate(166.015625 0.015625)"/>
     <use xlink:href="#DejaVuSans-33" transform="translate(230.351562 -16.390625) scale(0.7)"/>
    </g>
   </g>
   <g id="text_13">
    <!-- $\mathrm{Al}$ -->
    <g transform="translate(249.389691 211.215873) scale(0.1 -0.1)">
     <use xlink:href="#DejaVuSans-41" transform="translate(0 0.015625)"/>
     <use xlink:href="#DejaVuSans-6c" transform="translate(68.408203 0.015625)"/>
    </g>
   </g>
   <g id="text_14">
    <!-- $\mathrm{YCu_{5}}$ -->
    <g transform="translate(99.689656 65.307519) scale(0.1 -0.1)">
     <use xlink:href="#DejaVuSans-59" transform="translate(0 0.78125)"/>
     <use xlink:href="#DejaVuSans-43" transform="translate(61.083984 0.78125)"/>
     <use xlink:href="#DejaVuSans-75" transform="translate(130.908203 0.78125)"/>
     <use xlink:href="#DejaVuSans-35" transform="translate(195.244141 -15.625) scale(0.7)"/>
    </g>
   </g>
   <g id="text_15">
    <!-- $\mathrm{Y}$ -->
    <g transform="translate(20.163502 212.151181) scale(0.1 -0.1)">
     <use xlink:href="#DejaVuSans-59" transform="translate(0 0.09375)"/>
    </g>
   </g>
   <g id="text_16">
    <!-- $\mathrm{Cu}$ -->
    <g transform="translate(130.347387 33.102406) scale(0.1 -0.1)">
     <use xlink:href="#DejaVuSans-43" transform="translate(0 0.78125)"/>
     <use xlink:href="#DejaVuSans-75" transform="translate(69.824219 0.78125)"/>
    </g>
   </g>
   <g id="text_17">
    <!-- $\mathrm{AlCu}$ -->
    <g transform="translate(200.516034 112.026642) scale(0.1 -0.1)">
     <use xlink:href="#DejaVuSans-41" transform="translate(0 0.015625)"/>
     <use xlink:href="#DejaVuSans-6c" transform="translate(68.408203 0.015625)"/>
     <use xlink:href="#DejaVuSans-43" transform="translate(96.191406 0.015625)"/>
     <use xlink:href="#DejaVuSans-75" transform="translate(166.015625 0.015625)"/>
    </g>
   </g>
   <g id="text_18">
    <!-- $\mathrm{Y(Al_{2}Cu)_{4}}$ -->
    <g style="fill: #ff0000" transform="translate(163.26572 165.914094) scale(0.1 -0.1)">
     <use xlink:href="#DejaVuSans-59" transform="translate(0 0.015625)"/>
     <use xlink:href="#DejaVuSans-28" transform="translate(61.083984 0.015625)"/>
     <use xlink:href="#DejaVuSans-41" transform="translate(100.097656 0.015625)"/>
     <use xlink:href="#DejaVuSans-6c" transform="translate(168.505859 0.015625)"/>
     <use xlink:href="#DejaVuSans-32" transform="translate(197.246094 -16.390625) scale(0.7)"/>
     <use xlink:href="#DejaVuSans-43" transform="translate(244.516602 0.015625)"/>
     <use xlink:href="#DejaVuSans-75" transform="translate(314.34082 0.015625)"/>
     <use xlink:href="#DejaVuSans-29" transform="translate(377.719727 0.015625)"/>
     <use xlink:href="#DejaVuSans-34" transform="translate(417.69043 -16.390625) scale(0.7)"/>
    </g>
   </g>
  </g>
  <g id="axes_2">
   <g id="patch_3">
    <path d="M 287.298425 195.703937 
L 296.029134 195.703937 
L 296.029134 36.96378 
L 287.298425 36.96378 
L 287.298425 195.703937 
z
" style="fill: none"/>
   </g>
   <g id="patch_4">
    <path d="M 287.298425 195.703937 
L 291.66378 203.640945 
L 296.029134 195.703937 
" style="fill: #440154; opacity: 0.7"/>
   </g>
   <g id="patch_5">
    <path d="M 287.298425 36.96378 
L 291.66378 29.026772 
L 296.029134 36.96378 
" style="fill: #fde725; opacity: 0.7"/>
   </g>
   <g id="QuadMesh_1">
    <path d="M 287.298425 195.703937 
L 296.029134 195.703937 
L 296.029134 191.035109 
L 287.298425 191.035109 
L 287.298425 195.703937 
" clip-path="url(#pa52e13b462)" style="fill: #450559; fill-opacity: 0.7"/>
    <path d="M 287.298425 191.035109 
L 296.029134 191.035109 
L 296.029134 186.366281 
L 287.298425 186.366281 
L 287.298425 191.035109 
" clip-path="url(#pa52e13b462)" style="fill: #471164; fill-opacity: 0.7"/>
    <path d="M 287.298425 186.366281 
L 296.029134 186.366281 
L 296.029134 181.697453 
L 287.298425 181.697453 
L 287.298425 186.366281 
" clip-path="url(#pa52e13b462)" style="fill: #481b6d; fill-opacity: 0.7"/>
    <path d="M 287.298425 181.697453 
L 296.029134 181.697453 
L 296.029134 177.028624 
L 287.298425 177.028624 
L 287.298425 181.697453 
" clip-path="url(#pa52e13b462)" style="fill: #482576; fill-opacity: 0.7"/>
    <path d="M 287.298425 177.028624 
L 296.029134 177.028624 
L 296.029134 172.359796 
L 287.298425 172.359796 
L 287.298425 177.028624 
" clip-path="url(#pa52e13b462)" style="fill: #472e7c; fill-opacity: 0.7"/>
    <path d="M 287.298425 172.359796 
L 296.029134 172.359796 
L 296.029134 167.690968 
L 287.298425 167.690968 
L 287.298425 172.359796 
" clip-path="url(#pa52e13b462)" style="fill: #453882; fill-opacity: 0.7"/>
    <path d="M 287.298425 167.690968 
L 296.029134 167.690968 
L 296.029134 163.02214 
L 287.298425 163.02214 
L 287.298425 167.690968 
" clip-path="url(#pa52e13b462)" style="fill: #424086; fill-opacity: 0.7"/>
    <path d="M 287.298425 163.02214 
L 296.029134 163.02214 
L 296.029134 158.353312 
L 287.298425 158.353312 
L 287.298425 163.02214 
" clip-path="url(#pa52e13b462)" style="fill: #3e4989; fill-opacity: 0.7"/>
    <path d="M 287.298425 158.353312 
L 296.029134 158.353312 
L 296.029134 153.684484 
L 287.298425 153.684484 
L 287.298425 158.353312 
" clip-path="url(#pa52e13b462)" style="fill: #3b528b; fill-opacity: 0.7"/>
    <path d="M 287.298425 153.684484 
L 296.029134 153.684484 
L 296.029134 149.015655 
L 287.298425 149.015655 
L 287.298425 153.684484 
" clip-path="url(#pa52e13b462)" style="fill: #375a8c; fill-opacity: 0.7"/>
    <path d="M 287.298425 149.015655 
L 296.029134 149.015655 
L 296.029134 144.346827 
L 287.298425 144.346827 
L 287.298425 149.015655 
" clip-path="url(#pa52e13b462)" style="fill: #33628d; fill-opacity: 0.7"/>
    <path d="M 287.298425 144.346827 
L 296.029134 144.346827 
L 296.029134 139.677999 
L 287.298425 139.677999 
L 287.298425 144.346827 
" clip-path="url(#pa52e13b462)" style="fill: #30698e; fill-opacity: 0.7"/>
    <path d="M 287.298425 139.677999 
L 296.029134 139.677999 
L 296.029134 135.009171 
L 287.298425 135.009171 
L 287.298425 139.677999 
" clip-path="url(#pa52e13b462)" style="fill: #2d718e; fill-opacity: 0.7"/>
    <path d="M 287.298425 135.009171 
L 296.029134 135.009171 
L 296.029134 130.340343 
L 287.298425 130.340343 
L 287.298425 135.009171 
" clip-path="url(#pa52e13b462)" style="fill: #2a778e; fill-opacity: 0.7"/>
    <path d="M 287.298425 130.340343 
L 296.029134 130.340343 
L 296.029134 125.671515 
L 287.298425 125.671515 
L 287.298425 130.340343 
" clip-path="url(#pa52e13b462)" style="fill: #277f8e; fill-opacity: 0.7"/>
    <path d="M 287.298425 125.671515 
L 296.029134 125.671515 
L 296.029134 121.002686 
L 287.298425 121.002686 
L 287.298425 125.671515 
" clip-path="url(#pa52e13b462)" style="fill: #25858e; fill-opacity: 0.7"/>
    <path d="M 287.298425 121.002686 
L 296.029134 121.002686 
L 296.029134 116.333858 
L 287.298425 116.333858 
L 287.298425 121.002686 
" clip-path="url(#pa52e13b462)" style="fill: #228d8d; fill-opacity: 0.7"/>
    <path d="M 287.298425 116.333858 
L 296.029134 116.333858 
L 296.029134 111.66503 
L 287.298425 111.66503 
L 287.298425 116.333858 
" clip-path="url(#pa52e13b462)" style="fill: #20938c; fill-opacity: 0.7"/>
    <path d="M 287.298425 111.66503 
L 296.029134 111.66503 
L 296.029134 106.996202 
L 287.298425 106.996202 
L 287.298425 111.66503 
" clip-path="url(#pa52e13b462)" style="fill: #1e9b8a; fill-opacity: 0.7"/>
    <path d="M 287.298425 106.996202 
L 296.029134 106.996202 
L 296.029134 102.327374 
L 287.298425 102.327374 
L 287.298425 106.996202 
" clip-path="url(#pa52e13b462)" style="fill: #1fa187; fill-opacity: 0.7"/>
    <path d="M 287.298425 102.327374 
L 296.029134 102.327374 
L 296.029134 97.658546 
L 287.298425 97.658546 
L 287.298425 102.327374 
" clip-path="url(#pa52e13b462)" style="fill: #23a983; fill-opacity: 0.7"/>
    <path d="M 287.298425 97.658546 
L 296.029134 97.658546 
L 296.029134 92.989717 
L 287.298425 92.989717 
L 287.298425 97.658546 
" clip-path="url(#pa52e13b462)" style="fill: #29af7f; fill-opacity: 0.7"/>
    <path d="M 287.298425 92.989717 
L 296.029134 92.989717 
L 296.029134 88.320889 
L 287.298425 88.320889 
L 287.298425 92.989717 
" clip-path="url(#pa52e13b462)" style="fill: #34b679; fill-opacity: 0.7"/>
    <path d="M 287.298425 88.320889 
L 296.029134 88.320889 
L 296.029134 83.652061 
L 287.298425 83.652061 
L 287.298425 88.320889 
" clip-path="url(#pa52e13b462)" style="fill: #3fbc73; fill-opacity: 0.7"/>
    <path d="M 287.298425 83.652061 
L 296.029134 83.652061 
L 296.029134 78.983233 
L 287.298425 78.983233 
L 287.298425 83.652061 
" clip-path="url(#pa52e13b462)" style="fill: #4ec36b; fill-opacity: 0.7"/>
    <path d="M 287.298425 78.983233 
L 296.029134 78.983233 
L 296.029134 74.314405 
L 287.298425 74.314405 
L 287.298425 78.983233 
" clip-path="url(#pa52e13b462)" style="fill: #5cc863; fill-opacity: 0.7"/>
    <path d="M 287.298425 74.314405 
L 296.029134 74.314405 
L 296.029134 69.645577 
L 287.298425 69.645577 
L 287.298425 74.314405 
" clip-path="url(#pa52e13b462)" style="fill: #6ece58; fill-opacity: 0.7"/>
    <path d="M 287.298425 69.645577 
L 296.029134 69.645577 
L 296.029134 64.976748 
L 287.298425 64.976748 
L 287.298425 69.645577 
" clip-path="url(#pa52e13b462)" style="fill: #81d34d; fill-opacity: 0.7"/>
    <path d="M 287.298425 64.976748 
L 296.029134 64.976748 
L 296.029134 60.30792 
L 287.298425 60.30792 
L 287.298425 64.976748 
" clip-path="url(#pa52e13b462)" style="fill: #93d741; fill-opacity: 0.7"/>
    <path d="M 287.298425 60.30792 
L 296.029134 60.30792 
L 296.029134 55.639092 
L 287.298425 55.639092 
L 287.298425 60.30792 
" clip-path="url(#pa52e13b462)" style="fill: #a8db34; fill-opacity: 0.7"/>
    <path d="M 287.298425 55.639092 
L 296.029134 55.639092 
L 296.029134 50.970264 
L 287.298425 50.970264 
L 287.298425 55.639092 
" clip-path="url(#pa52e13b462)" style="fill: #bade28; fill-opacity: 0.7"/>
    <path d="M 287.298425 50.970264 
L 296.029134 50.970264 
L 296.029134 46.301436 
L 287.298425 46.301436 
L 287.298425 50.970264 
" clip-path="url(#pa52e13b462)" style="fill: #d0e11c; fill-opacity: 0.7"/>
    <path d="M 287.298425 46.301436 
L 296.029134 46.301436 
L 296.029134 41.632608 
L 287.298425 41.632608 
L 287.298425 46.301436 
" clip-path="url(#pa52e13b462)" style="fill: #e2e418; fill-opacity: 0.7"/>
    <path d="M 287.298425 41.632608 
L 296.029134 41.632608 
L 296.029134 36.96378 
L 287.298425 36.96378 
L 287.298425 41.632608 
" clip-path="url(#pa52e13b462)" style="fill: #f6e620; fill-opacity: 0.7"/>
   </g>
   <g id="matplotlib.axis_3"/>
   <g id="matplotlib.axis_4">
    <g id="ytick_1">
     <g id="line2d_39">
      <defs>
       <path id="mda3d70ac59" d="M 0 0 
L -2 0 
" style="stroke: #000000; stroke-width: 0.3"/>
      </defs>
      <g>
       <use xlink:href="#mda3d70ac59" x="296.029134" y="186.366281" style="stroke: #000000; stroke-width: 0.3"/>
      </g>
     </g>
     <g id="text_19">
      <!-- 0.495 -->
      <g transform="translate(299.529134 189.229406) scale(0.08 -0.08)">
       <defs>
        <path id="ArialMT-2212" d="M 3381 1997 
L 356 1997 
L 356 2522 
L 3381 2522 
L 3381 1997 
z
" transform="scale(0.015625)"/>
        <path id="ArialMT-30" d="M 266 2259 
Q 266 3072 433 3567 
Q 600 4063 929 4331 
Q 1259 4600 1759 4600 
Q 2128 4600 2406 4451 
Q 2684 4303 2865 4023 
Q 3047 3744 3150 3342 
Q 3253 2941 3253 2259 
Q 3253 1453 3087 958 
Q 2922 463 2592 192 
Q 2263 -78 1759 -78 
Q 1097 -78 719 397 
Q 266 969 266 2259 
z
M 844 2259 
Q 844 1131 1108 757 
Q 1372 384 1759 384 
Q 2147 384 2411 759 
Q 2675 1134 2675 2259 
Q 2675 3391 2411 3762 
Q 2147 4134 1753 4134 
Q 1366 4134 1134 3806 
Q 844 3388 844 2259 
z
" transform="scale(0.015625)"/>
        <path id="ArialMT-2e" d="M 581 0 
L 581 641 
L 1222 641 
L 1222 0 
L 581 0 
z
" transform="scale(0.015625)"/>
        <path id="ArialMT-34" d="M 2069 0 
L 2069 1097 
L 81 1097 
L 81 1613 
L 2172 4581 
L 2631 4581 
L 2631 1613 
L 3250 1613 
L 3250 1097 
L 2631 1097 
L 2631 0 
L 2069 0 
z
M 2069 1613 
L 2069 3678 
L 634 1613 
L 2069 1613 
z
" transform="scale(0.015625)"/>
        <path id="ArialMT-39" d="M 350 1059 
L 891 1109 
Q 959 728 1153 556 
Q 1347 384 1650 384 
Q 1909 384 2104 503 
Q 2300 622 2425 820 
Q 2550 1019 2634 1356 
Q 2719 1694 2719 2044 
Q 2719 2081 2716 2156 
Q 2547 1888 2255 1720 
Q 1963 1553 1622 1553 
Q 1053 1553 659 1965 
Q 266 2378 266 3053 
Q 266 3750 677 4175 
Q 1088 4600 1706 4600 
Q 2153 4600 2523 4359 
Q 2894 4119 3086 3673 
Q 3278 3228 3278 2384 
Q 3278 1506 3087 986 
Q 2897 466 2520 194 
Q 2144 -78 1638 -78 
Q 1100 -78 759 220 
Q 419 519 350 1059 
z
M 2653 3081 
Q 2653 3566 2395 3850 
Q 2138 4134 1775 4134 
Q 1400 4134 1122 3828 
Q 844 3522 844 3034 
Q 844 2597 1108 2323 
Q 1372 2050 1759 2050 
Q 2150 2050 2401 2323 
Q 2653 2597 2653 3081 
z
" transform="scale(0.015625)"/>
        <path id="ArialMT-35" d="M 266 1200 
L 856 1250 
Q 922 819 1161 601 
Q 1400 384 1738 384 
Q 2144 384 2425 690 
Q 2706 997 2706 1503 
Q 2706 1984 2436 2262 
Q 2166 2541 1728 2541 
Q 1456 2541 1237 2417 
Q 1019 2294 894 2097 
L 366 2166 
L 809 4519 
L 3088 4519 
L 3088 3981 
L 1259 3981 
L 1013 2750 
Q 1425 3038 1878 3038 
Q 2478 3038 2890 2622 
Q 3303 2206 3303 1553 
Q 3303 931 2941 478 
Q 2500 -78 1738 -78 
Q 1113 -78 717 272 
Q 322 622 266 1200 
z
" transform="scale(0.015625)"/>
       </defs>
       <use xlink:href="#ArialMT-2212"/>
       <use xlink:href="#ArialMT-30" transform="translate(58.398438 0)"/>
       <use xlink:href="#ArialMT-2e" transform="translate(114.013672 0)"/>
       <use xlink:href="#ArialMT-34" transform="translate(141.796875 0)"/>
       <use xlink:href="#ArialMT-39" transform="translate(197.412109 0)"/>
       <use xlink:href="#ArialMT-35" transform="translate(253.027344 0)"/>
      </g>
     </g>
    </g>
    <g id="ytick_2">
     <g id="line2d_40">
      <g>
       <use xlink:href="#mda3d70ac59" x="296.029134" y="167.690968" style="stroke: #000000; stroke-width: 0.3"/>
      </g>
     </g>
     <g id="text_20">
      <!-- 0.435 -->
      <g transform="translate(299.529134 170.554093) scale(0.08 -0.08)">
       <defs>
        <path id="ArialMT-33" d="M 269 1209 
L 831 1284 
Q 928 806 1161 595 
Q 1394 384 1728 384 
Q 2125 384 2398 659 
Q 2672 934 2672 1341 
Q 2672 1728 2419 1979 
Q 2166 2231 1775 2231 
Q 1616 2231 1378 2169 
L 1441 2663 
Q 1497 2656 1531 2656 
Q 1891 2656 2178 2843 
Q 2466 3031 2466 3422 
Q 2466 3731 2256 3934 
Q 2047 4138 1716 4138 
Q 1388 4138 1169 3931 
Q 950 3725 888 3313 
L 325 3413 
Q 428 3978 793 4289 
Q 1159 4600 1703 4600 
Q 2078 4600 2393 4439 
Q 2709 4278 2876 4000 
Q 3044 3722 3044 3409 
Q 3044 3113 2884 2869 
Q 2725 2625 2413 2481 
Q 2819 2388 3044 2092 
Q 3269 1797 3269 1353 
Q 3269 753 2831 336 
Q 2394 -81 1725 -81 
Q 1122 -81 723 278 
Q 325 638 269 1209 
z
" transform="scale(0.015625)"/>
       </defs>
       <use xlink:href="#ArialMT-2212"/>
       <use xlink:href="#ArialMT-30" transform="translate(58.398438 0)"/>
       <use xlink:href="#ArialMT-2e" transform="translate(114.013672 0)"/>
       <use xlink:href="#ArialMT-34" transform="translate(141.796875 0)"/>
       <use xlink:href="#ArialMT-33" transform="translate(197.412109 0)"/>
       <use xlink:href="#ArialMT-35" transform="translate(253.027344 0)"/>
      </g>
     </g>
    </g>
    <g id="ytick_3">
     <g id="line2d_41">
      <g>
       <use xlink:href="#mda3d70ac59" x="296.029134" y="149.015655" style="stroke: #000000; stroke-width: 0.3"/>
      </g>
     </g>
     <g id="text_21">
      <!-- 0.375 -->
      <g transform="translate(299.529134 151.87878) scale(0.08 -0.08)">
       <defs>
        <path id="ArialMT-37" d="M 303 3981 
L 303 4522 
L 3269 4522 
L 3269 4084 
Q 2831 3619 2401 2847 
Q 1972 2075 1738 1259 
Q 1569 684 1522 0 
L 944 0 
Q 953 541 1156 1306 
Q 1359 2072 1739 2783 
Q 2119 3494 2547 3981 
L 303 3981 
z
" transform="scale(0.015625)"/>
       </defs>
       <use xlink:href="#ArialMT-2212"/>
       <use xlink:href="#ArialMT-30" transform="translate(58.398438 0)"/>
       <use xlink:href="#ArialMT-2e" transform="translate(114.013672 0)"/>
       <use xlink:href="#ArialMT-33" transform="translate(141.796875 0)"/>
       <use xlink:href="#ArialMT-37" transform="translate(197.412109 0)"/>
       <use xlink:href="#ArialMT-35" transform="translate(253.027344 0)"/>
      </g>
     </g>
    </g>
    <g id="ytick_4">
     <g id="line2d_42">
      <g>
       <use xlink:href="#mda3d70ac59" x="296.029134" y="130.340343" style="stroke: #000000; stroke-width: 0.3"/>
      </g>
     </g>
     <g id="text_22">
      <!-- 0.315 -->
      <g transform="translate(299.529134 133.203468) scale(0.08 -0.08)">
       <defs>
        <path id="ArialMT-31" d="M 2384 0 
L 1822 0 
L 1822 3584 
Q 1619 3391 1289 3197 
Q 959 3003 697 2906 
L 697 3450 
Q 1169 3672 1522 3987 
Q 1875 4303 2022 4600 
L 2384 4600 
L 2384 0 
z
" transform="scale(0.015625)"/>
       </defs>
       <use xlink:href="#ArialMT-2212"/>
       <use xlink:href="#ArialMT-30" transform="translate(58.398438 0)"/>
       <use xlink:href="#ArialMT-2e" transform="translate(114.013672 0)"/>
       <use xlink:href="#ArialMT-33" transform="translate(141.796875 0)"/>
       <use xlink:href="#ArialMT-31" transform="translate(197.412109 0)"/>
       <use xlink:href="#ArialMT-35" transform="translate(253.027344 0)"/>
      </g>
     </g>
    </g>
    <g id="ytick_5">
     <g id="line2d_43">
      <g>
       <use xlink:href="#mda3d70ac59" x="296.029134" y="111.66503" style="stroke: #000000; stroke-width: 0.3"/>
      </g>
     </g>
     <g id="text_23">
      <!-- 0.255 -->
      <g transform="translate(299.529134 114.528155) scale(0.08 -0.08)">
       <defs>
        <path id="ArialMT-32" d="M 3222 541 
L 3222 0 
L 194 0 
Q 188 203 259 391 
Q 375 700 629 1000 
Q 884 1300 1366 1694 
Q 2113 2306 2375 2664 
Q 2638 3022 2638 3341 
Q 2638 3675 2398 3904 
Q 2159 4134 1775 4134 
Q 1369 4134 1125 3890 
Q 881 3647 878 3216 
L 300 3275 
Q 359 3922 746 4261 
Q 1134 4600 1788 4600 
Q 2447 4600 2831 4234 
Q 3216 3869 3216 3328 
Q 3216 3053 3103 2787 
Q 2991 2522 2730 2228 
Q 2469 1934 1863 1422 
Q 1356 997 1212 845 
Q 1069 694 975 541 
L 3222 541 
z
" transform="scale(0.015625)"/>
       </defs>
       <use xlink:href="#ArialMT-2212"/>
       <use xlink:href="#ArialMT-30" transform="translate(58.398438 0)"/>
       <use xlink:href="#ArialMT-2e" transform="translate(114.013672 0)"/>
       <use xlink:href="#ArialMT-32" transform="translate(141.796875 0)"/>
       <use xlink:href="#ArialMT-35" transform="translate(197.412109 0)"/>
       <use xlink:href="#ArialMT-35" transform="translate(253.027344 0)"/>
      </g>
     </g>
    </g>
    <g id="ytick_6">
     <g id="line2d_44">
      <g>
       <use xlink:href="#mda3d70ac59" x="296.029134" y="92.989717" style="stroke: #000000; stroke-width: 0.3"/>
      </g>
     </g>
     <g id="text_24">
      <!-- 0.195 -->
      <g transform="translate(299.529134 95.852842) scale(0.08 -0.08)">
       <use xlink:href="#ArialMT-2212"/>
       <use xlink:href="#ArialMT-30" transform="translate(58.398438 0)"/>
       <use xlink:href="#ArialMT-2e" transform="translate(114.013672 0)"/>
       <use xlink:href="#ArialMT-31" transform="translate(141.796875 0)"/>
       <use xlink:href="#ArialMT-39" transform="translate(197.412109 0)"/>
       <use xlink:href="#ArialMT-35" transform="translate(253.027344 0)"/>
      </g>
     </g>
    </g>
    <g id="ytick_7">
     <g id="line2d_45">
      <g>
       <use xlink:href="#mda3d70ac59" x="296.029134" y="74.314405" style="stroke: #000000; stroke-width: 0.3"/>
      </g>
     </g>
     <g id="text_25">
      <!-- 0.135 -->
      <g transform="translate(299.529134 77.17753) scale(0.08 -0.08)">
       <use xlink:href="#ArialMT-2212"/>
       <use xlink:href="#ArialMT-30" transform="translate(58.398438 0)"/>
       <use xlink:href="#ArialMT-2e" transform="translate(114.013672 0)"/>
       <use xlink:href="#ArialMT-31" transform="translate(141.796875 0)"/>
       <use xlink:href="#ArialMT-33" transform="translate(197.412109 0)"/>
       <use xlink:href="#ArialMT-35" transform="translate(253.027344 0)"/>
      </g>
     </g>
    </g>
    <g id="ytick_8">
     <g id="line2d_46">
      <g>
       <use xlink:href="#mda3d70ac59" x="296.029134" y="55.639092" style="stroke: #000000; stroke-width: 0.3"/>
      </g>
     </g>
     <g id="text_26">
      <!-- 0.075 -->
      <g transform="translate(299.529134 58.502217) scale(0.08 -0.08)">
       <use xlink:href="#ArialMT-2212"/>
       <use xlink:href="#ArialMT-30" transform="translate(58.398438 0)"/>
       <use xlink:href="#ArialMT-2e" transform="translate(114.013672 0)"/>
       <use xlink:href="#ArialMT-30" transform="translate(141.796875 0)"/>
       <use xlink:href="#ArialMT-37" transform="translate(197.412109 0)"/>
       <use xlink:href="#ArialMT-35" transform="translate(253.027344 0)"/>
      </g>
     </g>
    </g>
    <g id="ytick_9">
     <g id="line2d_47">
      <g>
       <use xlink:href="#mda3d70ac59" x="296.029134" y="36.96378" style="stroke: #000000; stroke-width: 0.3"/>
      </g>
     </g>
     <g id="text_27">
      <!-- 0.015 -->
      <g transform="translate(299.529134 39.826905) scale(0.08 -0.08)">
       <use xlink:href="#ArialMT-2212"/>
       <use xlink:href="#ArialMT-30" transform="translate(58.398438 0)"/>
       <use xlink:href="#ArialMT-2e" transform="translate(114.013672 0)"/>
       <use xlink:href="#ArialMT-30" transform="translate(141.796875 0)"/>
       <use xlink:href="#ArialMT-31" transform="translate(197.412109 0)"/>
       <use xlink:href="#ArialMT-35" transform="translate(253.027344 0)"/>
      </g>
     </g>
    </g>
    <g id="text_28">
     <!-- Formation Energy (eV/atom) -->
     <g transform="translate(335.498821 179.408077) rotate(-90) scale(0.1 -0.1)">
      <defs>
       <path id="ArialMT-46" d="M 525 0 
L 525 4581 
L 3616 4581 
L 3616 4041 
L 1131 4041 
L 1131 2622 
L 3281 2622 
L 3281 2081 
L 1131 2081 
L 1131 0 
L 525 0 
z
" transform="scale(0.015625)"/>
       <path id="ArialMT-6f" d="M 213 1659 
Q 213 2581 725 3025 
Q 1153 3394 1769 3394 
Q 2453 3394 2887 2945 
Q 3322 2497 3322 1706 
Q 3322 1066 3130 698 
Q 2938 331 2570 128 
Q 2203 -75 1769 -75 
Q 1072 -75 642 372 
Q 213 819 213 1659 
z
M 791 1659 
Q 791 1022 1069 705 
Q 1347 388 1769 388 
Q 2188 388 2466 706 
Q 2744 1025 2744 1678 
Q 2744 2294 2464 2611 
Q 2184 2928 1769 2928 
Q 1347 2928 1069 2612 
Q 791 2297 791 1659 
z
" transform="scale(0.015625)"/>
       <path id="ArialMT-72" d="M 416 0 
L 416 3319 
L 922 3319 
L 922 2816 
Q 1116 3169 1280 3281 
Q 1444 3394 1641 3394 
Q 1925 3394 2219 3213 
L 2025 2691 
Q 1819 2813 1613 2813 
Q 1428 2813 1281 2702 
Q 1134 2591 1072 2394 
Q 978 2094 978 1738 
L 978 0 
L 416 0 
z
" transform="scale(0.015625)"/>
       <path id="ArialMT-6d" d="M 422 0 
L 422 3319 
L 925 3319 
L 925 2853 
Q 1081 3097 1340 3245 
Q 1600 3394 1931 3394 
Q 2300 3394 2536 3241 
Q 2772 3088 2869 2813 
Q 3263 3394 3894 3394 
Q 4388 3394 4653 3120 
Q 4919 2847 4919 2278 
L 4919 0 
L 4359 0 
L 4359 2091 
Q 4359 2428 4304 2576 
Q 4250 2725 4106 2815 
Q 3963 2906 3769 2906 
Q 3419 2906 3187 2673 
Q 2956 2441 2956 1928 
L 2956 0 
L 2394 0 
L 2394 2156 
Q 2394 2531 2256 2718 
Q 2119 2906 1806 2906 
Q 1569 2906 1367 2781 
Q 1166 2656 1075 2415 
Q 984 2175 984 1722 
L 984 0 
L 422 0 
z
" transform="scale(0.015625)"/>
       <path id="ArialMT-61" d="M 2588 409 
Q 2275 144 1986 34 
Q 1697 -75 1366 -75 
Q 819 -75 525 192 
Q 231 459 231 875 
Q 231 1119 342 1320 
Q 453 1522 633 1644 
Q 813 1766 1038 1828 
Q 1203 1872 1538 1913 
Q 2219 1994 2541 2106 
Q 2544 2222 2544 2253 
Q 2544 2597 2384 2738 
Q 2169 2928 1744 2928 
Q 1347 2928 1158 2789 
Q 969 2650 878 2297 
L 328 2372 
Q 403 2725 575 2942 
Q 747 3159 1072 3276 
Q 1397 3394 1825 3394 
Q 2250 3394 2515 3294 
Q 2781 3194 2906 3042 
Q 3031 2891 3081 2659 
Q 3109 2516 3109 2141 
L 3109 1391 
Q 3109 606 3145 398 
Q 3181 191 3288 0 
L 2700 0 
Q 2613 175 2588 409 
z
M 2541 1666 
Q 2234 1541 1622 1453 
Q 1275 1403 1131 1340 
Q 988 1278 909 1158 
Q 831 1038 831 891 
Q 831 666 1001 516 
Q 1172 366 1500 366 
Q 1825 366 2078 508 
Q 2331 650 2450 897 
Q 2541 1088 2541 1459 
L 2541 1666 
z
" transform="scale(0.015625)"/>
       <path id="ArialMT-74" d="M 1650 503 
L 1731 6 
Q 1494 -44 1306 -44 
Q 1000 -44 831 53 
Q 663 150 594 308 
Q 525 466 525 972 
L 525 2881 
L 113 2881 
L 113 3319 
L 525 3319 
L 525 4141 
L 1084 4478 
L 1084 3319 
L 1650 3319 
L 1650 2881 
L 1084 2881 
L 1084 941 
Q 1084 700 1114 631 
Q 1144 563 1211 522 
Q 1278 481 1403 481 
Q 1497 481 1650 503 
z
" transform="scale(0.015625)"/>
       <path id="ArialMT-69" d="M 425 3934 
L 425 4581 
L 988 4581 
L 988 3934 
L 425 3934 
z
M 425 0 
L 425 3319 
L 988 3319 
L 988 0 
L 425 0 
z
" transform="scale(0.015625)"/>
       <path id="ArialMT-6e" d="M 422 0 
L 422 3319 
L 928 3319 
L 928 2847 
Q 1294 3394 1984 3394 
Q 2284 3394 2536 3286 
Q 2788 3178 2913 3003 
Q 3038 2828 3088 2588 
Q 3119 2431 3119 2041 
L 3119 0 
L 2556 0 
L 2556 2019 
Q 2556 2363 2490 2533 
Q 2425 2703 2258 2804 
Q 2091 2906 1866 2906 
Q 1506 2906 1245 2678 
Q 984 2450 984 1813 
L 984 0 
L 422 0 
z
" transform="scale(0.015625)"/>
       <path id="ArialMT-20" transform="scale(0.015625)"/>
       <path id="ArialMT-45" d="M 506 0 
L 506 4581 
L 3819 4581 
L 3819 4041 
L 1113 4041 
L 1113 2638 
L 3647 2638 
L 3647 2100 
L 1113 2100 
L 1113 541 
L 3925 541 
L 3925 0 
L 506 0 
z
" transform="scale(0.015625)"/>
       <path id="ArialMT-65" d="M 2694 1069 
L 3275 997 
Q 3138 488 2766 206 
Q 2394 -75 1816 -75 
Q 1088 -75 661 373 
Q 234 822 234 1631 
Q 234 2469 665 2931 
Q 1097 3394 1784 3394 
Q 2450 3394 2872 2941 
Q 3294 2488 3294 1666 
Q 3294 1616 3291 1516 
L 816 1516 
Q 847 969 1125 678 
Q 1403 388 1819 388 
Q 2128 388 2347 550 
Q 2566 713 2694 1069 
z
M 847 1978 
L 2700 1978 
Q 2663 2397 2488 2606 
Q 2219 2931 1791 2931 
Q 1403 2931 1139 2672 
Q 875 2413 847 1978 
z
" transform="scale(0.015625)"/>
       <path id="ArialMT-67" d="M 319 -275 
L 866 -356 
Q 900 -609 1056 -725 
Q 1266 -881 1628 -881 
Q 2019 -881 2231 -725 
Q 2444 -569 2519 -288 
Q 2563 -116 2559 434 
Q 2191 0 1641 0 
Q 956 0 581 494 
Q 206 988 206 1678 
Q 206 2153 378 2554 
Q 550 2956 876 3175 
Q 1203 3394 1644 3394 
Q 2231 3394 2613 2919 
L 2613 3319 
L 3131 3319 
L 3131 450 
Q 3131 -325 2973 -648 
Q 2816 -972 2473 -1159 
Q 2131 -1347 1631 -1347 
Q 1038 -1347 672 -1080 
Q 306 -813 319 -275 
z
M 784 1719 
Q 784 1066 1043 766 
Q 1303 466 1694 466 
Q 2081 466 2343 764 
Q 2606 1063 2606 1700 
Q 2606 2309 2336 2618 
Q 2066 2928 1684 2928 
Q 1309 2928 1046 2623 
Q 784 2319 784 1719 
z
" transform="scale(0.015625)"/>
       <path id="ArialMT-79" d="M 397 -1278 
L 334 -750 
Q 519 -800 656 -800 
Q 844 -800 956 -737 
Q 1069 -675 1141 -563 
Q 1194 -478 1313 -144 
Q 1328 -97 1363 -6 
L 103 3319 
L 709 3319 
L 1400 1397 
Q 1534 1031 1641 628 
Q 1738 1016 1872 1384 
L 2581 3319 
L 3144 3319 
L 1881 -56 
Q 1678 -603 1566 -809 
Q 1416 -1088 1222 -1217 
Q 1028 -1347 759 -1347 
Q 597 -1347 397 -1278 
z
" transform="scale(0.015625)"/>
       <path id="ArialMT-28" d="M 1497 -1347 
Q 1031 -759 709 28 
Q 388 816 388 1659 
Q 388 2403 628 3084 
Q 909 3875 1497 4659 
L 1900 4659 
Q 1522 4009 1400 3731 
Q 1209 3300 1100 2831 
Q 966 2247 966 1656 
Q 966 153 1900 -1347 
L 1497 -1347 
z
" transform="scale(0.015625)"/>
       <path id="ArialMT-56" d="M 1803 0 
L 28 4581 
L 684 4581 
L 1875 1253 
Q 2019 853 2116 503 
Q 2222 878 2363 1253 
L 3600 4581 
L 4219 4581 
L 2425 0 
L 1803 0 
z
" transform="scale(0.015625)"/>
       <path id="ArialMT-2f" d="M 0 -78 
L 1328 4659 
L 1778 4659 
L 453 -78 
L 0 -78 
z
" transform="scale(0.015625)"/>
       <path id="ArialMT-29" d="M 791 -1347 
L 388 -1347 
Q 1322 153 1322 1656 
Q 1322 2244 1188 2822 
Q 1081 3291 891 3722 
Q 769 4003 388 4659 
L 791 4659 
Q 1378 3875 1659 3084 
Q 1900 2403 1900 1659 
Q 1900 816 1576 28 
Q 1253 -759 791 -1347 
z
" transform="scale(0.015625)"/>
      </defs>
      <use xlink:href="#ArialMT-46"/>
      <use xlink:href="#ArialMT-6f" transform="translate(61.083984 0)"/>
      <use xlink:href="#ArialMT-72" transform="translate(116.699219 0)"/>
      <use xlink:href="#ArialMT-6d" transform="translate(150 0)"/>
      <use xlink:href="#ArialMT-61" transform="translate(233.300781 0)"/>
      <use xlink:href="#ArialMT-74" transform="translate(288.916016 0)"/>
      <use xlink:href="#ArialMT-69" transform="translate(316.699219 0)"/>
      <use xlink:href="#ArialMT-6f" transform="translate(338.916016 0)"/>
      <use xlink:href="#ArialMT-6e" transform="translate(394.53125 0)"/>
      <use xlink:href="#ArialMT-20" transform="translate(450.146484 0)"/>
      <use xlink:href="#ArialMT-45" transform="translate(477.929688 0)"/>
      <use xlink:href="#ArialMT-6e" transform="translate(544.628906 0)"/>
      <use xlink:href="#ArialMT-65" transform="translate(600.244141 0)"/>
      <use xlink:href="#ArialMT-72" transform="translate(655.859375 0)"/>
      <use xlink:href="#ArialMT-67" transform="translate(689.160156 0)"/>
      <use xlink:href="#ArialMT-79" transform="translate(744.775391 0)"/>
      <use xlink:href="#ArialMT-20" transform="translate(794.775391 0)"/>
      <use xlink:href="#ArialMT-28" transform="translate(822.558594 0)"/>
      <use xlink:href="#ArialMT-65" transform="translate(855.859375 0)"/>
      <use xlink:href="#ArialMT-56" transform="translate(911.474609 0)"/>
      <use xlink:href="#ArialMT-2f" transform="translate(978.173828 0)"/>
      <use xlink:href="#ArialMT-61" transform="translate(1005.957031 0)"/>
      <use xlink:href="#ArialMT-74" transform="translate(1061.572266 0)"/>
      <use xlink:href="#ArialMT-6f" transform="translate(1089.355469 0)"/>
      <use xlink:href="#ArialMT-6d" transform="translate(1144.970703 0)"/>
      <use xlink:href="#ArialMT-29" transform="translate(1228.271484 0)"/>
     </g>
    </g>
   </g>
   <g id="LineCollection_1"/>
   <g id="patch_6">
    <path d="M 287.298425 195.703937 
L 291.66378 203.640945 
L 296.029134 195.703937 
L 296.029134 36.96378 
L 291.66378 29.026772 
L 287.298425 36.96378 
L 287.298425 195.703937 
z
" style="fill: none; stroke: #000000; stroke-width: 0.8; stroke-linejoin: miter; stroke-linecap: square"/>
   </g>
  </g>
 </g>
 <defs>
  <clipPath id="p56ea5cd5f7">
   <rect x="7.2" y="7.2" width="263.622047" height="218.267717"/>
  </clipPath>
  <clipPath id="pa52e13b462">
   <rect x="287.298425" y="36.96378" width="8.730709" height="158.740157"/>
  </clipPath>
 </defs>
</svg>
