<?xml version="1.0" encoding="utf-8" standalone="no"?>
<!DOCTYPE svg PUBLIC "-//W3C//DTD SVG 1.1//EN"
  "http://www.w3.org/Graphics/SVG/1.1/DTD/svg11.dtd">
<svg xmlns:xlink="http://www.w3.org/1999/xlink" width="344.803509pt" height="232.667717pt" viewBox="0 0 344.803509 232.667717" xmlns="http://www.w3.org/2000/svg" version="1.1">
 <metadata>
  <rdf:RDF xmlns:dc="http://purl.org/dc/elements/1.1/" xmlns:cc="http://creativecommons.org/ns#" xmlns:rdf="http://www.w3.org/1999/02/22-rdf-syntax-ns#">
   <cc:Work>
    <dc:type rdf:resource="http://purl.org/dc/dcmitype/StillImage"/>
    <dc:date>2026-01-27T21:37:51.913937</dc:date>
    <dc:format>image/svg+xml</dc:format>
    <dc:creator>
     <cc:Agent>
      <dc:title>Matplotlib v3.10.8, https://matplotlib.org/</dc:title>
     </cc:Agent>
    </dc:creator>
   </cc:Work>
  </rdf:RDF>
 </metadata>
 <defs>
  <style type="text/css">*{stroke-linejoin: round; stroke-linecap: butt}</style>
 </defs>
 <g id="figure_1">
  <g id="patch_1">
   <path d="M 0 232.667717 
L 344.803509 232.667717 
L 344.803509 0 
L 0 0 
L 0 232.667717 
z
" style="fill: none"/>
  </g>
  <g id="axes_1">
   <g id="patch_2">
    <path d="M 7.2 225.467717 
L 270.822047 225.467717 
L 270.822047 7.2 
L 7.2 7.2 
L 7.2 225.467717 
z
" style="fill: none"/>
   </g>
   <g id="TriContourSet_1">
    <path d="M 181.402539 214.554331 
L 178.953758 206.998479 
L 173.330671 205.684081 
L 174.965421 214.554331 
L 178.953758 214.554331 
z
" clip-path="url(#pecd0eac92d)" style="fill: #440154; fill-opacity: 0.7"/>
    <path d="M 174.965421 214.554331 
L 173.330671 205.684081 
L 178.953758 206.998479 
L 181.402539 214.554331 
L 184.931912 214.554331 
L 178.953758 196.108401 
L 165.226244 192.899591 
L 169.217122 214.554331 
z
" clip-path="url(#pecd0eac92d)" style="fill: #450559; fill-opacity: 0.7"/>
    <path d="M 169.217122 214.554331 
L 165.226244 192.899591 
L 178.953758 196.108401 
L 184.931912 214.554331 
L 188.461285 214.554331 
L 178.953758 185.218323 
L 157.121817 180.1151 
L 163.468823 214.554331 
z
" clip-path="url(#pecd0eac92d)" style="fill: #471164; fill-opacity: 0.7"/>
    <path d="M 163.468823 214.554331 
L 157.121817 180.1151 
L 178.953758 185.218323 
L 188.461285 214.554331 
L 191.990658 214.554331 
L 178.953758 174.328245 
L 149.01739 167.33061 
L 157.720524 214.554331 
z
" clip-path="url(#pecd0eac92d)" style="fill: #481c6e; fill-opacity: 0.7"/>
    <path d="M 157.720524 214.554331 
L 149.01739 167.33061 
L 178.953758 174.328245 
L 191.990658 214.554331 
L 195.520031 214.554331 
L 178.953758 163.438167 
L 140.912963 154.54612 
L 151.972225 214.554331 
z
" clip-path="url(#pecd0eac92d)" style="fill: #482677; fill-opacity: 0.7"/>
    <path d="M 198.997787 214.554331 
L 198.944579 214.30883 
L 198.829193 213.949012 
L 193.398333 197.117633 
L 178.953758 152.548089 
L 174.666186 151.545868 
L 138.120694 147.332461 
L 136.488822 147.567171 
L 135.694302 149.801859 
L 135.930021 153.165931 
L 136.219916 155.948756 
L 139.011024 175.416697 
L 146.223926 214.554331 
L 151.972225 214.554331 
L 140.912963 154.54612 
L 178.953758 163.438167 
L 195.520031 214.554331 
L 198.925125 214.554331 
z
" clip-path="url(#pecd0eac92d)" style="fill: #472f7d; fill-opacity: 0.7"/>
    <path d="M 201.061285 214.554331 
L 199.497039 207.336916 
L 196.104849 196.758724 
L 180.081418 147.098743 
L 175.618347 146.284358 
L 136.957351 141.82705 
L 133.193209 142.368441 
L 131.360536 147.523064 
L 131.904255 155.282773 
L 132.57294 161.701752 
L 139.011024 206.607309 
L 140.475627 214.554331 
L 146.223926 214.554331 
L 139.011024 175.416697 
L 136.219916 155.948756 
L 135.930021 153.165931 
L 135.694302 149.801859 
L 136.488822 147.567171 
L 138.120694 147.332461 
L 174.666186 151.545868 
L 178.953758 152.548089 
L 193.398333 197.117633 
L 198.829193 213.949012 
L 198.944579 214.30883 
L 198.997787 214.554331 
z
" clip-path="url(#pecd0eac92d)" style="fill: #443983; fill-opacity: 0.7"/>
    <path d="M 203.124783 214.554331 
L 200.049499 200.365002 
L 193.380504 179.568437 
L 181.323377 142.200863 
L 171.944863 140.489547 
L 135.794009 136.321639 
L 129.897596 137.16971 
L 127.02677 145.244268 
L 127.87849 157.399614 
L 128.925963 167.454747 
L 135.678604 214.554331 
L 139.011024 214.554331 
L 140.475627 214.554331 
L 139.011024 206.607309 
L 132.57294 161.701752 
L 131.904255 155.282773 
L 131.360536 147.523064 
L 133.193209 142.368441 
L 136.957351 141.82705 
L 175.618347 146.284358 
L 180.081418 147.098743 
L 196.104849 196.758724 
L 199.497039 207.336916 
L 201.061285 214.554331 
z
" clip-path="url(#pecd0eac92d)" style="fill: #414287; fill-opacity: 0.7"/>
    <path d="M 205.188281 214.554331 
L 200.601959 193.393088 
L 190.656159 162.378149 
L 182.565335 137.302983 
L 168.271378 134.694736 
L 134.630667 130.816227 
L 126.601983 131.97098 
L 122.693004 142.965473 
L 123.852724 159.516455 
L 125.278987 173.207743 
L 131.206824 214.554331 
L 135.678604 214.554331 
L 128.925963 167.454747 
L 127.87849 157.399614 
L 127.02677 145.244268 
L 129.897596 137.16971 
L 135.794009 136.321639 
L 171.944863 140.489547 
L 181.323377 142.200863 
L 193.380504 179.568437 
L 200.049499 200.365002 
L 203.124783 214.554331 
z
" clip-path="url(#pecd0eac92d)" style="fill: #3e4c8a; fill-opacity: 0.7"/>
    <path d="M 207.251779 214.554331 
L 201.154419 186.421174 
L 187.931814 145.187861 
L 183.807293 132.405103 
L 164.597894 128.899924 
L 133.467325 125.310816 
L 123.30637 126.77225 
L 118.359238 140.686678 
L 119.826959 161.633297 
L 121.632011 178.960739 
L 126.735043 214.554331 
L 131.206824 214.554331 
L 125.278987 173.207743 
L 123.852724 159.516455 
L 122.693004 142.965473 
L 126.601983 131.97098 
L 134.630667 130.816227 
L 168.271378 134.694736 
L 182.565335 137.302983 
L 190.656159 162.378149 
L 200.601959 193.393088 
L 205.188281 214.554331 
z
" clip-path="url(#pecd0eac92d)" style="fill: #3a538b; fill-opacity: 0.7"/>
    <path d="M 209.315277 214.554331 
L 201.70688 179.44926 
L 185.20747 127.997574 
L 185.049252 127.507223 
L 160.92441 123.105113 
L 132.303983 119.805404 
L 120.010757 121.573519 
L 114.025473 138.407883 
L 115.801193 163.750138 
L 117.985034 184.713734 
L 122.263263 214.554331 
L 126.735043 214.554331 
L 121.632011 178.960739 
L 119.826959 161.633297 
L 118.359238 140.686678 
L 123.30637 126.77225 
L 133.467325 125.310816 
L 164.597894 128.899924 
L 183.807293 132.405103 
L 187.931814 145.187861 
L 201.154419 186.421174 
L 207.251779 214.554331 
z
" clip-path="url(#pecd0eac92d)" style="fill: #365c8d; fill-opacity: 0.7"/>
    <path d="M 211.378774 214.554331 
L 202.25934 172.477346 
L 190.516231 135.857688 
L 187.783004 129.236508 
L 186.462888 126.594572 
L 184.221472 123.159995 
L 183.731776 122.690923 
L 179.51669 121.373182 
L 157.250925 117.310302 
L 131.140641 114.299993 
L 116.715144 116.374789 
L 109.691707 136.129088 
L 111.775428 165.866979 
L 114.338058 190.46673 
L 117.791483 214.554331 
L 122.263263 214.554331 
L 117.985034 184.713734 
L 115.801193 163.750138 
L 114.025473 138.407883 
L 120.010757 121.573519 
L 132.303983 119.805404 
L 160.92441 123.105113 
L 185.049252 127.507223 
L 185.20747 127.997574 
L 201.70688 179.44926 
L 209.315277 214.554331 
z
" clip-path="url(#pecd0eac92d)" style="fill: #32648e; fill-opacity: 0.7"/>
    <path d="M 213.442272 214.554331 
L 202.8118 165.505432 
L 196.15875 144.758593 
L 190.578738 131.241138 
L 187.883658 125.847498 
L 183.307699 118.835646 
L 182.307961 117.878013 
L 173.70266 115.187782 
L 153.577441 111.515491 
L 129.977299 108.794581 
L 113.419531 111.176059 
L 105.357941 133.850293 
L 107.749662 167.983821 
L 110.691082 196.219725 
L 113.319703 214.554331 
L 117.791483 214.554331 
L 114.338058 190.46673 
L 111.775428 165.866979 
L 109.691707 136.129088 
L 116.715144 116.374789 
L 131.140641 114.299993 
L 157.250925 117.310302 
L 179.51669 121.373182 
L 183.731776 122.690923 
L 184.221472 123.159995 
L 186.462888 126.594572 
L 187.783004 129.236508 
L 190.516231 135.857688 
L 202.25934 172.477346 
L 211.378774 214.554331 
z
" clip-path="url(#pecd0eac92d)" style="fill: #2f6c8e; fill-opacity: 0.7"/>
    <path d="M 215.50577 214.554331 
L 203.36426 158.533518 
L 201.80127 153.659498 
L 193.374471 133.245768 
L 189.304427 125.100424 
L 182.393925 114.511297 
L 180.884147 113.065102 
L 167.888631 109.002381 
L 149.903957 105.72068 
L 128.813957 103.28917 
L 110.123918 105.977328 
L 101.024175 131.571498 
L 103.723897 170.100662 
L 107.044105 201.972721 
L 108.847923 214.554331 
L 113.319703 214.554331 
L 110.691082 196.219725 
L 107.749662 167.983821 
L 105.357941 133.850293 
L 113.419531 111.176059 
L 129.977299 108.794581 
L 153.577441 111.515491 
L 173.70266 115.187782 
L 182.307961 117.878013 
L 183.307699 118.835646 
L 187.883658 125.847498 
L 190.578738 131.241138 
L 196.15875 144.758593 
L 202.8118 165.505432 
L 213.442272 214.554331 
z
" clip-path="url(#pecd0eac92d)" style="fill: #2c728e; fill-opacity: 0.7"/>
    <path d="M 217.569268 214.554331 
L 205.385881 158.340301 
L 204.740593 156.011969 
L 196.170205 135.250397 
L 190.725197 124.353351 
L 181.480152 110.186947 
L 179.460332 108.252192 
L 162.074602 102.81698 
L 146.230473 99.925869 
L 127.650615 97.783758 
L 106.828305 100.778598 
L 96.690409 129.292703 
L 99.698131 172.217504 
L 103.397129 207.725716 
L 104.376143 214.554331 
L 108.847923 214.554331 
L 107.044105 201.972721 
L 103.723897 170.100662 
L 101.024175 131.571498 
L 110.123918 105.977328 
L 128.813957 103.28917 
L 149.903957 105.72068 
L 167.888631 109.002381 
L 180.884147 113.065102 
L 182.393925 114.511297 
L 189.304427 125.100424 
L 193.374471 133.245768 
L 201.80127 153.659498 
L 203.36426 158.533518 
L 215.50577 214.554331 
z
" clip-path="url(#pecd0eac92d)" style="fill: #297a8e; fill-opacity: 0.7"/>
    <path d="M 219.632766 214.554331 
L 208.058549 161.151002 
L 206.482018 155.46256 
L 198.965938 137.255027 
L 192.145966 123.606277 
L 180.566379 105.862598 
L 178.036517 103.439282 
L 156.260573 96.63158 
L 142.556988 94.131058 
L 126.487273 92.278347 
L 103.532692 95.579868 
L 92.356643 127.013908 
L 95.672366 174.334345 
L 99.750152 213.478712 
L 99.904363 214.554331 
L 104.376143 214.554331 
L 103.397129 207.725716 
L 99.698131 172.217504 
L 96.690409 129.292703 
L 106.828305 100.778598 
L 127.650615 97.783758 
L 146.230473 99.925869 
L 162.074602 102.81698 
L 179.460332 108.252192 
L 181.480152 110.186947 
L 190.725197 124.353351 
L 196.170205 135.250397 
L 204.740593 156.011969 
L 205.385881 158.340301 
L 217.569268 214.554331 
z
" clip-path="url(#pecd0eac92d)" style="fill: #26828e; fill-opacity: 0.7"/>
    <path d="M 221.696264 214.554331 
L 210.731216 163.961704 
L 208.223443 154.913151 
L 201.761671 139.259657 
L 193.566736 122.859203 
L 179.652606 101.538249 
L 176.612703 98.626371 
L 150.446544 90.446179 
L 138.883504 88.336247 
L 125.323931 86.772936 
L 100.237079 90.381137 
L 88.022878 124.735113 
L 91.6466 176.451186 
L 95.61592 214.554331 
L 99.068289 214.554331 
L 99.904363 214.554331 
L 99.750152 213.478712 
L 95.672366 174.334345 
L 92.356643 127.013908 
L 103.532692 95.579868 
L 126.487273 92.278347 
L 142.556988 94.131058 
L 156.260573 96.63158 
L 178.036517 103.439282 
L 180.566379 105.862598 
L 192.145966 123.606277 
L 198.965938 137.255027 
L 206.482018 155.46256 
L 208.058549 161.151002 
L 219.632766 214.554331 
z
" clip-path="url(#pecd0eac92d)" style="fill: #23898e; fill-opacity: 0.7"/>
    <path d="M 223.759762 214.554331 
L 213.403883 166.772405 
L 209.964867 154.363742 
L 204.557405 141.264287 
L 194.987505 122.112129 
L 178.738832 97.213899 
L 175.188888 93.813461 
L 144.632515 84.260778 
L 135.21002 82.541436 
L 124.160589 81.267524 
L 101.621854 84.509234 
L 99.068289 88.537406 
L 91.508954 100.46203 
L 83.689112 122.456317 
L 87.620834 178.568028 
L 91.369636 214.554331 
L 95.61592 214.554331 
L 91.6466 176.451186 
L 88.022878 124.735113 
L 100.237079 90.381137 
L 125.323931 86.772936 
L 138.883504 88.336247 
L 150.446544 90.446179 
L 176.612703 98.626371 
L 179.652606 101.538249 
L 193.566736 122.859203 
L 201.761671 139.259657 
L 208.223443 154.913151 
L 210.731216 163.961704 
L 221.696264 214.554331 
z
" clip-path="url(#pecd0eac92d)" style="fill: #21918c; fill-opacity: 0.7"/>
    <path d="M 225.82326 214.554331 
L 216.076551 169.583107 
L 211.706292 153.814333 
L 207.353138 143.268916 
L 196.408275 121.365056 
L 177.825059 92.88955 
L 173.765073 89.00055 
L 138.818486 78.075378 
L 131.536535 76.746625 
L 122.997247 75.762113 
L 105.578724 78.267391 
L 101.621854 84.509234 
L 124.160589 81.267524 
L 135.21002 82.541436 
L 144.632515 84.260778 
L 175.188888 93.813461 
L 178.738832 97.213899 
L 194.987505 122.112129 
L 204.557405 141.264287 
L 209.964867 154.363742 
L 213.403883 166.772405 
L 223.759762 214.554331 
z
M 79.795405 118.939801 
L 79.355346 120.177522 
L 83.595069 180.684869 
L 87.123353 214.554331 
L 91.369636 214.554331 
L 87.620834 178.568028 
L 83.689112 122.456317 
L 91.508954 100.46203 
z
" clip-path="url(#pecd0eac92d)" style="fill: #1f978b; fill-opacity: 0.7"/>
    <path d="M 227.886758 214.554331 
L 218.749218 172.393808 
L 213.447717 153.264924 
L 210.148872 145.273546 
L 197.829044 120.617982 
L 176.911286 88.565201 
L 172.341259 84.18764 
L 133.004456 71.889977 
L 127.863051 70.951814 
L 121.833904 70.256701 
L 109.535594 72.025548 
L 105.578724 78.267391 
L 122.997247 75.762113 
L 131.536535 76.746625 
L 138.818486 78.075378 
L 173.765073 89.00055 
L 177.825059 92.88955 
L 196.408275 121.365056 
L 207.353138 143.268916 
L 211.706292 153.814333 
L 216.076551 169.583107 
L 225.82326 214.554331 
z
M 75.562411 125.617221 
L 79.569303 182.80171 
L 82.87707 214.554331 
L 87.123353 214.554331 
L 83.595069 180.684869 
L 79.355346 120.177522 
L 79.795405 118.939801 
L 79.096922 120.041637 
z
" clip-path="url(#pecd0eac92d)" style="fill: #1f9f88; fill-opacity: 0.7"/>
    <path d="M 229.950256 214.554331 
L 221.421885 175.20451 
L 215.189142 152.715515 
L 212.944605 147.278176 
L 200.86114 123.095642 
L 198.925125 120.041637 
L 184.123009 96.691745 
L 175.997513 84.240851 
L 170.917444 79.374729 
L 127.190427 65.704576 
L 124.189567 65.157003 
L 120.670562 64.75129 
L 113.492464 65.783704 
L 109.535594 72.025548 
L 121.833904 70.256701 
L 127.863051 70.951814 
L 133.004456 71.889977 
L 172.341259 84.18764 
L 176.911286 88.565201 
L 197.829044 120.617982 
L 210.148872 145.273546 
L 213.447717 153.264924 
L 218.749218 172.393808 
L 227.886758 214.554331 
z
M 71.803772 131.546362 
L 75.543538 184.918552 
L 78.630786 214.554331 
L 82.87707 214.554331 
L 79.569303 182.80171 
L 75.562411 125.617221 
z
" clip-path="url(#pecd0eac92d)" style="fill: #21a685; fill-opacity: 0.7"/>
    <path d="M 232.013754 214.554331 
L 224.094552 178.015211 
L 216.930567 152.166106 
L 215.740339 149.282806 
L 209.332745 136.459344 
L 200.86114 123.095642 
L 212.944605 147.278176 
L 215.189142 152.715515 
L 221.421885 175.20451 
L 229.950256 214.554331 
z
M 171.02285 76.026636 
L 169.493629 74.561819 
L 121.376398 59.519176 
L 120.516082 59.362192 
L 119.50722 59.245878 
L 117.449334 59.541861 
L 113.492464 65.783704 
L 120.670562 64.75129 
L 124.189567 65.157003 
L 127.190427 65.704576 
L 170.917444 79.374729 
L 175.997513 84.240851 
L 184.123009 96.691745 
L 175.88124 83.690601 
z
M 68.045133 137.475502 
L 71.517772 187.035393 
L 74.384503 214.554331 
L 78.630786 214.554331 
L 75.543538 184.918552 
L 71.803772 131.546362 
z
" clip-path="url(#pecd0eac92d)" style="fill: #27ad81; fill-opacity: 0.7"/>
    <path d="M 234.077252 214.554331 
L 226.76722 180.825913 
L 218.671991 151.616697 
L 218.536072 151.287435 
L 217.80435 149.823047 
L 209.332745 136.459344 
L 215.740339 149.282806 
L 216.930567 152.166106 
L 224.094552 178.015211 
L 232.013754 214.554331 
z
M 167.471791 70.424948 
L 119.987784 55.537532 
L 119.039656 57.033175 
L 117.449334 59.541861 
L 119.50722 59.245878 
L 120.516082 59.362192 
L 121.376398 59.519176 
L 169.493629 74.561819 
L 171.02285 76.026636 
L 168.968074 72.78529 
z
M 64.286493 143.404643 
L 67.492007 189.152234 
L 70.13822 214.554331 
L 74.384503 214.554331 
L 71.517772 187.035393 
L 68.045133 137.475502 
z
" clip-path="url(#pecd0eac92d)" style="fill: #2fb47c; fill-opacity: 0.7"/>
    <path d="M 236.14075 214.554331 
L 229.439887 183.636614 
L 221.82743 156.169334 
L 218.896492 151.545868 
L 217.80435 149.823047 
L 218.536072 151.287435 
L 218.671991 151.616697 
L 226.76722 180.825913 
L 234.077252 214.554331 
z
M 165.10006 66.683614 
L 121.573054 53.036817 
L 119.987784 55.537532 
L 167.471791 70.424948 
z
M 60.527854 149.333784 
L 63.466241 191.269076 
L 65.891937 214.554331 
L 70.13822 214.554331 
L 67.492007 189.152234 
L 64.286493 143.404643 
z
" clip-path="url(#pecd0eac92d)" style="fill: #3bbb75; fill-opacity: 0.7"/>
    <path d="M 238.204248 214.554331 
L 232.112554 186.447316 
L 225.192139 161.477061 
L 221.82743 156.169334 
L 229.439887 183.636614 
L 236.14075 214.554331 
z
M 162.72833 62.94228 
L 123.158324 50.536101 
L 121.573054 53.036817 
L 165.10006 66.683614 
z
M 56.769214 155.262924 
L 59.440476 193.385917 
L 61.645653 214.554331 
L 65.891937 214.554331 
L 63.466241 191.269076 
L 60.527854 149.333784 
z
" clip-path="url(#pecd0eac92d)" style="fill: #4ac16d; fill-opacity: 0.7"/>
    <path d="M 240.267746 214.554331 
L 234.785221 189.258017 
L 228.556847 166.784788 
L 225.192139 161.477061 
L 232.112554 186.447316 
L 238.204248 214.554331 
z
M 160.356599 59.200947 
L 124.743594 48.035385 
L 123.158324 50.536101 
L 162.72833 62.94228 
z
M 53.010575 161.192065 
L 55.41471 195.502758 
L 57.39937 214.554331 
L 61.645653 214.554331 
L 59.440476 193.385917 
L 56.769214 155.262924 
z
" clip-path="url(#pecd0eac92d)" style="fill: #5ac864; fill-opacity: 0.7"/>
    <path d="M 242.331243 214.554331 
L 237.457889 192.068719 
L 231.921556 172.092515 
L 228.556847 166.784788 
L 234.785221 189.258017 
L 240.267746 214.554331 
z
M 157.984868 55.459613 
L 126.328864 45.534669 
L 124.743594 48.035385 
L 160.356599 59.200947 
z
M 49.251936 167.121206 
L 51.388945 197.6196 
L 53.153087 214.554331 
L 57.39937 214.554331 
L 55.41471 195.502758 
L 53.010575 161.192065 
z
" clip-path="url(#pecd0eac92d)" style="fill: #69cd5b; fill-opacity: 0.7"/>
    <path d="M 244.394741 214.554331 
L 240.130556 194.87942 
L 235.286265 177.400242 
L 231.921556 172.092515 
L 237.457889 192.068719 
L 242.331243 214.554331 
z
M 155.613138 51.718279 
L 127.914134 43.033954 
L 126.328864 45.534669 
L 157.984868 55.459613 
z
M 45.493296 173.050346 
L 47.363179 199.736441 
L 48.906803 214.554331 
L 53.153087 214.554331 
L 51.388945 197.6196 
L 49.251936 167.121206 
z
" clip-path="url(#pecd0eac92d)" style="fill: #7cd250; fill-opacity: 0.7"/>
    <path d="M 246.458239 214.554331 
L 242.803223 197.690122 
L 238.650974 182.707969 
L 235.286265 177.400242 
L 240.130556 194.87942 
L 244.394741 214.554331 
z
M 153.241407 47.976945 
L 129.499404 40.533238 
L 127.914134 43.033954 
L 155.613138 51.718279 
z
M 41.734657 178.979487 
L 43.337414 201.853283 
L 44.66052 214.554331 
L 48.906803 214.554331 
L 47.363179 199.736441 
L 45.493296 173.050346 
z
" clip-path="url(#pecd0eac92d)" style="fill: #90d743; fill-opacity: 0.7"/>
    <path d="M 248.521737 214.554331 
L 245.475891 200.500823 
L 242.015683 188.015696 
L 238.650974 182.707969 
L 242.803223 197.690122 
L 246.458239 214.554331 
z
M 150.869677 44.235612 
L 131.084674 38.032522 
L 129.499404 40.533238 
L 153.241407 47.976945 
z
M 37.976017 184.908627 
L 39.311648 203.970124 
L 40.414237 214.554331 
L 44.66052 214.554331 
L 43.337414 201.853283 
L 41.734657 178.979487 
z
" clip-path="url(#pecd0eac92d)" style="fill: #a5db36; fill-opacity: 0.7"/>
    <path d="M 250.585235 214.554331 
L 248.148558 203.311525 
L 245.380392 193.323423 
L 242.015683 188.015696 
L 245.475891 200.500823 
L 248.521737 214.554331 
z
M 148.497946 40.494278 
L 132.669944 35.531806 
L 131.084674 38.032522 
L 150.869677 44.235612 
z
M 34.217378 190.837768 
L 35.285882 206.086965 
L 36.167953 214.554331 
L 40.414237 214.554331 
L 39.311648 203.970124 
L 37.976017 184.908627 
z
" clip-path="url(#pecd0eac92d)" style="fill: #b8de29; fill-opacity: 0.7"/>
    <path d="M 252.648733 214.554331 
L 250.821225 206.122226 
L 248.7451 198.63115 
L 245.380392 193.323423 
L 248.148558 203.311525 
L 250.585235 214.554331 
z
M 146.126215 36.752944 
L 134.255214 33.031091 
L 132.669944 35.531806 
L 148.497946 40.494278 
z
M 30.458739 196.766909 
L 31.260117 208.203807 
L 31.92167 214.554331 
L 36.167953 214.554331 
L 35.285882 206.086965 
L 34.217378 190.837768 
z
" clip-path="url(#pecd0eac92d)" style="fill: #cde11d; fill-opacity: 0.7"/>
    <path d="M 254.712231 214.554331 
L 253.493892 208.932928 
L 252.109809 203.938877 
L 248.7451 198.63115 
L 250.821225 206.122226 
L 252.648733 214.554331 
z
M 143.754485 33.011611 
L 135.840484 30.530375 
L 134.255214 33.031091 
L 146.126215 36.752944 
z
M 26.700099 202.696049 
L 27.234351 210.320648 
L 27.675387 214.554331 
L 31.92167 214.554331 
L 31.260117 208.203807 
L 30.458739 196.766909 
z
" clip-path="url(#pecd0eac92d)" style="fill: #e2e418; fill-opacity: 0.7"/>
    <path d="M 256.775729 214.554331 
L 256.16656 211.743629 
L 255.474518 209.246604 
L 252.109809 203.938877 
L 253.493892 208.932928 
L 254.712231 214.554331 
z
M 141.382754 29.270277 
L 137.425754 28.029659 
L 135.840484 30.530375 
L 143.754485 33.011611 
z
M 22.94146 208.62519 
L 23.208586 212.437489 
L 23.429104 214.554331 
L 27.675387 214.554331 
L 27.234351 210.320648 
L 26.700099 202.696049 
z
" clip-path="url(#pecd0eac92d)" style="fill: #f6e620; fill-opacity: 0.7"/>
    <path d="M 255.474518 209.246604 
L 256.16656 211.743629 
L 256.775729 214.554331 
L 258.839227 214.554331 
z
M 137.425754 28.029659 
L 141.382754 29.270277 
L 139.011024 25.528943 
z
M 23.429104 214.554331 
L 23.208586 212.437489 
L 22.94146 208.62519 
L 19.18282 214.554331 
z
" clip-path="url(#pecd0eac92d)" style="fill: #fde725; fill-opacity: 0.7"/>
   </g>
   <g id="matplotlib.axis_1"/>
   <g id="matplotlib.axis_2"/>
   <g id="line2d_1">
    <path d="M 198.925125 214.554331 
L 203.533902 156.392673 
" clip-path="url(#pecd0eac92d)" style="fill: none; stroke: #555555; stroke-opacity: 0.9; stroke-width: 0.5; stroke-linecap: square"/>
   </g>
   <g id="line2d_2">
    <path d="M 218.896492 151.545868 
L 185.098794 127.311844 
" clip-path="url(#pecd0eac92d)" style="fill: none; stroke: #555555; stroke-opacity: 0.9; stroke-width: 0.5; stroke-linecap: square"/>
   </g>
   <g id="line2d_3">
    <path d="M 79.096922 120.041637 
L 99.068289 88.537406 
" clip-path="url(#pecd0eac92d)" style="fill: none; stroke: #555555; stroke-opacity: 0.9; stroke-width: 0.5; stroke-linecap: square"/>
   </g>
   <g id="line2d_4">
    <path d="M 79.096922 120.041637 
L 139.011024 151.545868 
" clip-path="url(#pecd0eac92d)" style="fill: none; stroke: #555555; stroke-opacity: 0.9; stroke-width: 0.5; stroke-linecap: square"/>
   </g>
   <g id="line2d_5">
    <path d="M 218.896492 151.545868 
L 258.839227 214.554331 
" clip-path="url(#pecd0eac92d)" style="fill: none; stroke: #555555; stroke-opacity: 0.9; stroke-width: 0.5; stroke-linecap: square"/>
   </g>
   <g id="line2d_6">
    <path d="M 168.968074 72.78529 
L 175.88124 83.690601 
" clip-path="url(#pecd0eac92d)" style="fill: none; stroke: #555555; stroke-opacity: 0.9; stroke-width: 0.5; stroke-linecap: square"/>
   </g>
   <g id="line2d_7">
    <path d="M 119.039656 57.033175 
L 139.011024 151.545868 
" clip-path="url(#pecd0eac92d)" style="fill: none; stroke: #555555; stroke-opacity: 0.9; stroke-width: 0.5; stroke-linecap: square"/>
   </g>
   <g id="line2d_8">
    <path d="M 119.039656 57.033175 
L 139.011024 25.528943 
" clip-path="url(#pecd0eac92d)" style="fill: none; stroke: #555555; stroke-opacity: 0.9; stroke-width: 0.5; stroke-linecap: square"/>
   </g>
   <g id="line2d_9">
    <path d="M 198.925125 214.554331 
L 185.098794 127.311844 
" clip-path="url(#pecd0eac92d)" style="fill: none; stroke: #555555; stroke-opacity: 0.9; stroke-width: 0.5; stroke-linecap: square"/>
   </g>
   <g id="line2d_10">
    <path d="M 178.953758 214.554331 
L 178.953758 151.545868 
" clip-path="url(#pecd0eac92d)" style="fill: none; stroke: #555555; stroke-opacity: 0.9; stroke-width: 0.5; stroke-linecap: square"/>
   </g>
   <g id="line2d_11">
    <path d="M 168.968074 72.78529 
L 139.011024 25.528943 
" clip-path="url(#pecd0eac92d)" style="fill: none; stroke: #555555; stroke-opacity: 0.9; stroke-width: 0.5; stroke-linecap: square"/>
   </g>
   <g id="line2d_12">
    <path d="M 198.925125 214.554331 
L 258.839227 214.554331 
" clip-path="url(#pecd0eac92d)" style="fill: none; stroke: #555555; stroke-opacity: 0.9; stroke-width: 0.5; stroke-linecap: square"/>
   </g>
   <g id="line2d_13">
    <path d="M 139.011024 151.545868 
L 178.953758 214.554331 
" clip-path="url(#pecd0eac92d)" style="fill: none; stroke: #555555; stroke-opacity: 0.9; stroke-width: 0.5; stroke-linecap: square"/>
   </g>
   <g id="line2d_14">
    <path d="M 139.011024 151.545868 
L 99.068289 214.554331 
" clip-path="url(#pecd0eac92d)" style="fill: none; stroke: #555555; stroke-opacity: 0.9; stroke-width: 0.5; stroke-linecap: square"/>
   </g>
   <g id="line2d_15">
    <path d="M 203.533902 156.392673 
L 258.839227 214.554331 
" clip-path="url(#pecd0eac92d)" style="fill: none; stroke: #555555; stroke-opacity: 0.9; stroke-width: 0.5; stroke-linecap: square"/>
   </g>
   <g id="line2d_16">
    <path d="M 99.068289 88.537406 
L 119.039656 57.033175 
" clip-path="url(#pecd0eac92d)" style="fill: none; stroke: #555555; stroke-opacity: 0.9; stroke-width: 0.5; stroke-linecap: square"/>
   </g>
   <g id="line2d_17">
    <path d="M 185.098794 127.311844 
L 203.533902 156.392673 
" clip-path="url(#pecd0eac92d)" style="fill: none; stroke: #555555; stroke-opacity: 0.9; stroke-width: 0.5; stroke-linecap: square"/>
   </g>
   <g id="line2d_18">
    <path d="M 119.039656 57.033175 
L 178.953758 151.545868 
" clip-path="url(#pecd0eac92d)" style="fill: none; stroke: #555555; stroke-opacity: 0.9; stroke-width: 0.5; stroke-linecap: square"/>
   </g>
   <g id="line2d_19">
    <path d="M 198.925125 120.041637 
L 185.098794 127.311844 
" clip-path="url(#pecd0eac92d)" style="fill: none; stroke: #555555; stroke-opacity: 0.9; stroke-width: 0.5; stroke-linecap: square"/>
   </g>
   <g id="line2d_20">
    <path d="M 79.096922 120.041637 
L 19.18282 214.554331 
" clip-path="url(#pecd0eac92d)" style="fill: none; stroke: #555555; stroke-opacity: 0.9; stroke-width: 0.5; stroke-linecap: square"/>
   </g>
   <g id="line2d_21">
    <path d="M 178.953758 214.554331 
L 198.925125 214.554331 
" clip-path="url(#pecd0eac92d)" style="fill: none; stroke: #555555; stroke-opacity: 0.9; stroke-width: 0.5; stroke-linecap: square"/>
   </g>
   <g id="line2d_22">
    <path d="M 175.88124 83.690601 
L 185.098794 127.311844 
" clip-path="url(#pecd0eac92d)" style="fill: none; stroke: #555555; stroke-opacity: 0.9; stroke-width: 0.5; stroke-linecap: square"/>
   </g>
   <g id="line2d_23">
    <path d="M 139.011024 151.545868 
L 178.953758 151.545868 
" clip-path="url(#pecd0eac92d)" style="fill: none; stroke: #555555; stroke-opacity: 0.9; stroke-width: 0.5; stroke-linecap: square"/>
   </g>
   <g id="line2d_24">
    <path d="M 99.068289 214.554331 
L 19.18282 214.554331 
" clip-path="url(#pecd0eac92d)" style="fill: none; stroke: #555555; stroke-opacity: 0.9; stroke-width: 0.5; stroke-linecap: square"/>
   </g>
   <g id="line2d_25">
    <path d="M 139.011024 151.545868 
L 19.18282 214.554331 
" clip-path="url(#pecd0eac92d)" style="fill: none; stroke: #555555; stroke-opacity: 0.9; stroke-width: 0.5; stroke-linecap: square"/>
   </g>
   <g id="line2d_26">
    <path d="M 99.068289 88.537406 
L 139.011024 151.545868 
" clip-path="url(#pecd0eac92d)" style="fill: none; stroke: #555555; stroke-opacity: 0.9; stroke-width: 0.5; stroke-linecap: square"/>
   </g>
   <g id="line2d_27">
    <path d="M 178.953758 151.545868 
L 185.098794 127.311844 
" clip-path="url(#pecd0eac92d)" style="fill: none; stroke: #555555; stroke-opacity: 0.9; stroke-width: 0.5; stroke-linecap: square"/>
   </g>
   <g id="line2d_28">
    <path d="M 218.896492 151.545868 
L 203.533902 156.392673 
" clip-path="url(#pecd0eac92d)" style="fill: none; stroke: #555555; stroke-opacity: 0.9; stroke-width: 0.5; stroke-linecap: square"/>
   </g>
   <g id="line2d_29">
    <path d="M 198.925125 120.041637 
L 175.88124 83.690601 
" clip-path="url(#pecd0eac92d)" style="fill: none; stroke: #555555; stroke-opacity: 0.9; stroke-width: 0.5; stroke-linecap: square"/>
   </g>
   <g id="line2d_30">
    <path d="M 139.011024 214.554331 
L 139.011024 151.545868 
" clip-path="url(#pecd0eac92d)" style="fill: none; stroke: #555555; stroke-opacity: 0.9; stroke-width: 0.5; stroke-linecap: square"/>
   </g>
   <g id="line2d_31">
    <path d="M 198.925125 120.041637 
L 218.896492 151.545868 
" clip-path="url(#pecd0eac92d)" style="fill: none; stroke: #555555; stroke-opacity: 0.9; stroke-width: 0.5; stroke-linecap: square"/>
   </g>
   <g id="line2d_32">
    <path d="M 139.011024 214.554331 
L 178.953758 214.554331 
" clip-path="url(#pecd0eac92d)" style="fill: none; stroke: #555555; stroke-opacity: 0.9; stroke-width: 0.5; stroke-linecap: square"/>
   </g>
   <g id="line2d_33">
    <path d="M 139.011024 214.554331 
L 99.068289 214.554331 
" clip-path="url(#pecd0eac92d)" style="fill: none; stroke: #555555; stroke-opacity: 0.9; stroke-width: 0.5; stroke-linecap: square"/>
   </g>
   <g id="line2d_34">
    <path d="M 168.968074 72.78529 
L 119.039656 57.033175 
" clip-path="url(#pecd0eac92d)" style="fill: none; stroke: #555555; stroke-opacity: 0.9; stroke-width: 0.5; stroke-linecap: square"/>
   </g>
   <g id="line2d_35">
    <path d="M 119.039656 57.033175 
L 185.098794 127.311844 
" clip-path="url(#pecd0eac92d)" style="fill: none; stroke: #555555; stroke-opacity: 0.9; stroke-width: 0.5; stroke-linecap: square"/>
   </g>
   <g id="line2d_36">
    <path d="M 168.968074 72.78529 
L 185.098794 127.311844 
" clip-path="url(#pecd0eac92d)" style="fill: none; stroke: #555555; stroke-opacity: 0.9; stroke-width: 0.5; stroke-linecap: square"/>
   </g>
   <g id="line2d_37">
    <path d="M 198.925125 214.554331 
L 178.953758 151.545868 
" clip-path="url(#pecd0eac92d)" style="fill: none; stroke: #555555; stroke-opacity: 0.9; stroke-width: 0.5; stroke-linecap: square"/>
   </g>
   <g id="PathCollection_1">
    <defs>
     <path id="m096bb45969" d="M 0 2.738613 
C 0.726289 2.738613 1.422928 2.450055 1.936492 1.936492 
C 2.450055 1.422928 2.738613 0.726289 2.738613 0 
C 2.738613 -0.726289 2.450055 -1.422928 1.936492 -1.936492 
C 1.422928 -2.450055 0.726289 -2.738613 0 -2.738613 
C -0.726289 -2.738613 -1.422928 -2.450055 -1.936492 -1.936492 
C -2.450055 -1.422928 -2.738613 -0.726289 -2.738613 0 
C -2.738613 0.726289 -2.450055 1.422928 -1.936492 1.936492 
C -1.422928 2.450055 -0.726289 2.738613 0 2.738613 
z
" style="stroke: #008000"/>
    </defs>
    <g clip-path="url(#pecd0eac92d)">
     <use xlink:href="#m096bb45969" x="198.925125" y="214.554331" style="fill: #008000; stroke: #008000"/>
     <use xlink:href="#m096bb45969" x="203.533902" y="156.392673" style="fill: #008000; stroke: #008000"/>
     <use xlink:href="#m096bb45969" x="218.896492" y="151.545868" style="fill: #008000; stroke: #008000"/>
     <use xlink:href="#m096bb45969" x="185.098794" y="127.311844" style="fill: #008000; stroke: #008000"/>
     <use xlink:href="#m096bb45969" x="79.096922" y="120.041637" style="fill: #008000; stroke: #008000"/>
     <use xlink:href="#m096bb45969" x="99.068289" y="88.537406" style="fill: #008000; stroke: #008000"/>
     <use xlink:href="#m096bb45969" x="139.011024" y="151.545868" style="fill: #008000; stroke: #008000"/>
     <use xlink:href="#m096bb45969" x="258.839227" y="214.554331" style="fill: #008000; stroke: #008000"/>
     <use xlink:href="#m096bb45969" x="168.968074" y="72.78529" style="fill: #008000; stroke: #008000"/>
     <use xlink:href="#m096bb45969" x="175.88124" y="83.690601" style="fill: #008000; stroke: #008000"/>
     <use xlink:href="#m096bb45969" x="119.039656" y="57.033175" style="fill: #008000; stroke: #008000"/>
     <use xlink:href="#m096bb45969" x="139.011024" y="25.528943" style="fill: #008000; stroke: #008000"/>
     <use xlink:href="#m096bb45969" x="178.953758" y="214.554331" style="fill: #008000; stroke: #008000"/>
     <use xlink:href="#m096bb45969" x="178.953758" y="151.545868" style="fill: #008000; stroke: #008000"/>
     <use xlink:href="#m096bb45969" x="99.068289" y="214.554331" style="fill: #008000; stroke: #008000"/>
     <use xlink:href="#m096bb45969" x="198.925125" y="120.041637" style="fill: #008000; stroke: #008000"/>
     <use xlink:href="#m096bb45969" x="19.18282" y="214.554331" style="fill: #008000; stroke: #008000"/>
     <use xlink:href="#m096bb45969" x="139.011024" y="214.554331" style="fill: #008000; stroke: #008000"/>
    </g>
   </g>
   <g id="PathCollection_2">
    <defs>
     <path id="mfa0edf7327" d="M -0 2.236068 
L 1.341641 0 
L 0 -2.236068 
L -1.341641 -0 
z
" style="stroke: #d3d3d3"/>
    </defs>
    <g clip-path="url(#pecd0eac92d)">
     <use xlink:href="#mfa0edf7327" x="139.011024" y="25.528943" style="fill: #d3d3d3; stroke: #d3d3d3"/>
     <use xlink:href="#mfa0edf7327" x="139.011024" y="25.528943" style="fill: #d3d3d3; stroke: #d3d3d3"/>
     <use xlink:href="#mfa0edf7327" x="139.011024" y="25.528943" style="fill: #d3d3d3; stroke: #d3d3d3"/>
     <use xlink:href="#mfa0edf7327" x="139.011024" y="25.528943" style="fill: #d3d3d3; stroke: #d3d3d3"/>
     <use xlink:href="#mfa0edf7327" x="139.011024" y="25.528943" style="fill: #d3d3d3; stroke: #d3d3d3"/>
     <use xlink:href="#mfa0edf7327" x="139.011024" y="25.528943" style="fill: #d3d3d3; stroke: #d3d3d3"/>
     <use xlink:href="#mfa0edf7327" x="139.011024" y="25.528943" style="fill: #d3d3d3; stroke: #d3d3d3"/>
     <use xlink:href="#mfa0edf7327" x="258.839227" y="214.554331" style="fill: #d3d3d3; stroke: #d3d3d3"/>
     <use xlink:href="#mfa0edf7327" x="258.839227" y="214.554331" style="fill: #d3d3d3; stroke: #d3d3d3"/>
     <use xlink:href="#mfa0edf7327" x="258.839227" y="214.554331" style="fill: #d3d3d3; stroke: #d3d3d3"/>
     <use xlink:href="#mfa0edf7327" x="258.839227" y="214.554331" style="fill: #d3d3d3; stroke: #d3d3d3"/>
     <use xlink:href="#mfa0edf7327" x="258.839227" y="214.554331" style="fill: #d3d3d3; stroke: #d3d3d3"/>
     <use xlink:href="#mfa0edf7327" x="258.839227" y="214.554331" style="fill: #d3d3d3; stroke: #d3d3d3"/>
     <use xlink:href="#mfa0edf7327" x="258.839227" y="214.554331" style="fill: #d3d3d3; stroke: #d3d3d3"/>
     <use xlink:href="#mfa0edf7327" x="258.839227" y="214.554331" style="fill: #d3d3d3; stroke: #d3d3d3"/>
     <use xlink:href="#mfa0edf7327" x="258.839227" y="214.554331" style="fill: #d3d3d3; stroke: #d3d3d3"/>
     <use xlink:href="#mfa0edf7327" x="198.925125" y="120.041637" style="fill: #d3d3d3; stroke: #d3d3d3"/>
     <use xlink:href="#mfa0edf7327" x="168.968074" y="72.78529" style="fill: #d3d3d3; stroke: #d3d3d3"/>
     <use xlink:href="#mfa0edf7327" x="168.968074" y="72.78529" style="fill: #d3d3d3; stroke: #d3d3d3"/>
     <use xlink:href="#mfa0edf7327" x="168.968074" y="72.78529" style="fill: #d3d3d3; stroke: #d3d3d3"/>
     <use xlink:href="#mfa0edf7327" x="162.976664" y="63.334021" style="fill: #d3d3d3; stroke: #d3d3d3"/>
     <use xlink:href="#mfa0edf7327" x="218.896492" y="151.545868" style="fill: #d3d3d3; stroke: #d3d3d3"/>
     <use xlink:href="#mfa0edf7327" x="218.896492" y="151.545868" style="fill: #d3d3d3; stroke: #d3d3d3"/>
     <use xlink:href="#mfa0edf7327" x="228.882176" y="167.297984" style="fill: #d3d3d3; stroke: #d3d3d3"/>
     <use xlink:href="#mfa0edf7327" x="228.882176" y="167.297984" style="fill: #d3d3d3; stroke: #d3d3d3"/>
     <use xlink:href="#mfa0edf7327" x="210.907946" y="138.944176" style="fill: #d3d3d3; stroke: #d3d3d3"/>
     <use xlink:href="#mfa0edf7327" x="164.238014" y="65.323762" style="fill: #d3d3d3; stroke: #d3d3d3"/>
     <use xlink:href="#mfa0edf7327" x="19.18282" y="214.554331" style="fill: #d3d3d3; stroke: #d3d3d3"/>
     <use xlink:href="#mfa0edf7327" x="19.18282" y="214.554331" style="fill: #d3d3d3; stroke: #d3d3d3"/>
     <use xlink:href="#mfa0edf7327" x="19.18282" y="214.554331" style="fill: #d3d3d3; stroke: #d3d3d3"/>
     <use xlink:href="#mfa0edf7327" x="19.18282" y="214.554331" style="fill: #d3d3d3; stroke: #d3d3d3"/>
     <use xlink:href="#mfa0edf7327" x="119.039656" y="57.033175" style="fill: #d3d3d3; stroke: #d3d3d3"/>
     <use xlink:href="#mfa0edf7327" x="139.011024" y="214.554331" style="fill: #d3d3d3; stroke: #d3d3d3"/>
     <use xlink:href="#mfa0edf7327" x="139.011024" y="151.545868" style="fill: #d3d3d3; stroke: #d3d3d3"/>
     <use xlink:href="#mfa0edf7327" x="139.011024" y="120.041637" style="fill: #d3d3d3; stroke: #d3d3d3"/>
     <use xlink:href="#mfa0edf7327" x="139.011024" y="88.537406" style="fill: #d3d3d3; stroke: #d3d3d3"/>
     <use xlink:href="#mfa0edf7327" x="198.925125" y="214.554331" style="fill: #d3d3d3; stroke: #d3d3d3"/>
     <use xlink:href="#mfa0edf7327" x="198.925125" y="214.554331" style="fill: #d3d3d3; stroke: #d3d3d3"/>
     <use xlink:href="#mfa0edf7327" x="198.925125" y="214.554331" style="fill: #d3d3d3; stroke: #d3d3d3"/>
     <use xlink:href="#mfa0edf7327" x="210.907946" y="214.554331" style="fill: #d3d3d3; stroke: #d3d3d3"/>
     <use xlink:href="#mfa0edf7327" x="109.053973" y="167.297984" style="fill: #d3d3d3; stroke: #d3d3d3"/>
     <use xlink:href="#mfa0edf7327" x="233.612237" y="214.554331" style="fill: #d3d3d3; stroke: #d3d3d3"/>
     <use xlink:href="#mfa0edf7327" x="79.096922" y="214.554331" style="fill: #d3d3d3; stroke: #d3d3d3"/>
     <use xlink:href="#mfa0edf7327" x="115.045383" y="214.554331" style="fill: #d3d3d3; stroke: #d3d3d3"/>
     <use xlink:href="#mfa0edf7327" x="67.114102" y="214.554331" style="fill: #d3d3d3; stroke: #d3d3d3"/>
     <use xlink:href="#mfa0edf7327" x="114.218982" y="64.637644" style="fill: #d3d3d3; stroke: #d3d3d3"/>
    </g>
   </g>
   <g id="PathCollection_3">
    <defs>
     <path id="m23e082f7e2" d="M 0 -5 
L -1.12257 -1.545085 
L -4.755283 -1.545085 
L -1.816356 0.59017 
L -2.938926 4.045085 
L -0 1.90983 
L 2.938926 4.045085 
L 1.816356 0.59017 
L 4.755283 -1.545085 
L 1.12257 -1.545085 
z
" style="stroke: #ff0000"/>
    </defs>
    <g clip-path="url(#pecd0eac92d)">
     <use xlink:href="#m23e082f7e2" x="203.533902" y="156.392673" style="fill: #ff0000; stroke: #ff0000"/>
    </g>
   </g>
   <g id="text_1">
    <!-- $\mathrm{TbAl_{3}}$ -->
    <g transform="translate(197.911489 210.594971) scale(0.1 -0.1)">
     <defs>
      <path id="DejaVuSans-54" d="M -19 4666 
L 3928 4666 
L 3928 4134 
L 2272 4134 
L 2272 0 
L 1638 0 
L 1638 4134 
L -19 4134 
L -19 4666 
z
" transform="scale(0.015625)"/>
      <path id="DejaVuSans-62" d="M 3116 1747 
Q 3116 2381 2855 2742 
Q 2594 3103 2138 3103 
Q 1681 3103 1420 2742 
Q 1159 2381 1159 1747 
Q 1159 1113 1420 752 
Q 1681 391 2138 391 
Q 2594 391 2855 752 
Q 3116 1113 3116 1747 
z
M 1159 2969 
Q 1341 3281 1617 3432 
Q 1894 3584 2278 3584 
Q 2916 3584 3314 3078 
Q 3713 2572 3713 1747 
Q 3713 922 3314 415 
Q 2916 -91 2278 -91 
Q 1894 -91 1617 61 
Q 1341 213 1159 525 
L 1159 0 
L 581 0 
L 581 4863 
L 1159 4863 
L 1159 2969 
z
" transform="scale(0.015625)"/>
      <path id="DejaVuSans-41" d="M 2188 4044 
L 1331 1722 
L 3047 1722 
L 2188 4044 
z
M 1831 4666 
L 2547 4666 
L 4325 0 
L 3669 0 
L 3244 1197 
L 1141 1197 
L 716 0 
L 50 0 
L 1831 4666 
z
" transform="scale(0.015625)"/>
      <path id="DejaVuSans-6c" d="M 603 4863 
L 1178 4863 
L 1178 0 
L 603 0 
L 603 4863 
z
" transform="scale(0.015625)"/>
      <path id="DejaVuSans-33" d="M 2597 2516 
Q 3050 2419 3304 2112 
Q 3559 1806 3559 1356 
Q 3559 666 3084 287 
Q 2609 -91 1734 -91 
Q 1441 -91 1130 -33 
Q 819 25 488 141 
L 488 750 
Q 750 597 1062 519 
Q 1375 441 1716 441 
Q 2309 441 2620 675 
Q 2931 909 2931 1356 
Q 2931 1769 2642 2001 
Q 2353 2234 1838 2234 
L 1294 2234 
L 1294 2753 
L 1863 2753 
Q 2328 2753 2575 2939 
Q 2822 3125 2822 3475 
Q 2822 3834 2567 4026 
Q 2313 4219 1838 4219 
Q 1578 4219 1281 4162 
Q 984 4106 628 3988 
L 628 4550 
Q 988 4650 1302 4700 
Q 1616 4750 1894 4750 
Q 2613 4750 3031 4423 
Q 3450 4097 3450 3541 
Q 3450 3153 3228 2886 
Q 3006 2619 2597 2516 
z
" transform="scale(0.015625)"/>
     </defs>
     <use xlink:href="#DejaVuSans-54" transform="translate(0 0.015625)"/>
     <use xlink:href="#DejaVuSans-62" transform="translate(61.083984 0.015625)"/>
     <use xlink:href="#DejaVuSans-41" transform="translate(124.560547 0.015625)"/>
     <use xlink:href="#DejaVuSans-6c" transform="translate(192.96875 0.015625)"/>
     <use xlink:href="#DejaVuSans-33" transform="translate(221.708984 -16.390625) scale(0.7)"/>
    </g>
   </g>
   <g id="text_2">
    <!-- $\mathrm{Al_{2}Cu}$ -->
    <g transform="translate(211.541947 147.420198) scale(0.1 -0.1)">
     <defs>
      <path id="DejaVuSans-32" d="M 1228 531 
L 3431 531 
L 3431 0 
L 469 0 
L 469 531 
Q 828 903 1448 1529 
Q 2069 2156 2228 2338 
Q 2531 2678 2651 2914 
Q 2772 3150 2772 3378 
Q 2772 3750 2511 3984 
Q 2250 4219 1831 4219 
Q 1534 4219 1204 4116 
Q 875 4013 500 3803 
L 500 4441 
Q 881 4594 1212 4672 
Q 1544 4750 1819 4750 
Q 2544 4750 2975 4387 
Q 3406 4025 3406 3419 
Q 3406 3131 3298 2873 
Q 3191 2616 2906 2266 
Q 2828 2175 2409 1742 
Q 1991 1309 1228 531 
z
" transform="scale(0.015625)"/>
      <path id="DejaVuSans-43" d="M 4122 4306 
L 4122 3641 
Q 3803 3938 3442 4084 
Q 3081 4231 2675 4231 
Q 1875 4231 1450 3742 
Q 1025 3253 1025 2328 
Q 1025 1406 1450 917 
Q 1875 428 2675 428 
Q 3081 428 3442 575 
Q 3803 722 4122 1019 
L 4122 359 
Q 3791 134 3420 21 
Q 3050 -91 2638 -91 
Q 1578 -91 968 557 
Q 359 1206 359 2328 
Q 359 3453 968 4101 
Q 1578 4750 2638 4750 
Q 3056 4750 3426 4639 
Q 3797 4528 4122 4306 
z
" transform="scale(0.015625)"/>
      <path id="DejaVuSans-75" d="M 544 1381 
L 544 3500 
L 1119 3500 
L 1119 1403 
Q 1119 906 1312 657 
Q 1506 409 1894 409 
Q 2359 409 2629 706 
Q 2900 1003 2900 1516 
L 2900 3500 
L 3475 3500 
L 3475 0 
L 2900 0 
L 2900 538 
Q 2691 219 2414 64 
Q 2138 -91 1772 -91 
Q 1169 -91 856 284 
Q 544 659 544 1381 
z
M 1991 3584 
L 1991 3584 
z
" transform="scale(0.015625)"/>
     </defs>
     <use xlink:href="#DejaVuSans-41" transform="translate(0 0.015625)"/>
     <use xlink:href="#DejaVuSans-6c" transform="translate(68.408203 0.015625)"/>
     <use xlink:href="#DejaVuSans-32" transform="translate(97.148438 -16.390625) scale(0.7)"/>
     <use xlink:href="#DejaVuSans-43" transform="translate(144.418945 0.015625)"/>
     <use xlink:href="#DejaVuSans-75" transform="translate(214.243164 0.015625)"/>
    </g>
   </g>
   <g id="text_3">
    <!-- $\mathrm{Tb(AlCu)_{6}}$ -->
    <g transform="translate(145.339703 123.165423) scale(0.1 -0.1)">
     <defs>
      <path id="DejaVuSans-28" d="M 1984 4856 
Q 1566 4138 1362 3434 
Q 1159 2731 1159 2009 
Q 1159 1288 1364 580 
Q 1569 -128 1984 -844 
L 1484 -844 
Q 1016 -109 783 600 
Q 550 1309 550 2009 
Q 550 2706 781 3412 
Q 1013 4119 1484 4856 
L 1984 4856 
z
" transform="scale(0.015625)"/>
      <path id="DejaVuSans-29" d="M 513 4856 
L 1013 4856 
Q 1481 4119 1714 3412 
Q 1947 2706 1947 2009 
Q 1947 1309 1714 600 
Q 1481 -109 1013 -844 
L 513 -844 
Q 928 -128 1133 580 
Q 1338 1288 1338 2009 
Q 1338 2731 1133 3434 
Q 928 4138 513 4856 
z
" transform="scale(0.015625)"/>
      <path id="DejaVuSans-36" d="M 2113 2584 
Q 1688 2584 1439 2293 
Q 1191 2003 1191 1497 
Q 1191 994 1439 701 
Q 1688 409 2113 409 
Q 2538 409 2786 701 
Q 3034 994 3034 1497 
Q 3034 2003 2786 2293 
Q 2538 2584 2113 2584 
z
M 3366 4563 
L 3366 3988 
Q 3128 4100 2886 4159 
Q 2644 4219 2406 4219 
Q 1781 4219 1451 3797 
Q 1122 3375 1075 2522 
Q 1259 2794 1537 2939 
Q 1816 3084 2150 3084 
Q 2853 3084 3261 2657 
Q 3669 2231 3669 1497 
Q 3669 778 3244 343 
Q 2819 -91 2113 -91 
Q 1303 -91 875 529 
Q 447 1150 447 2328 
Q 447 3434 972 4092 
Q 1497 4750 2381 4750 
Q 2619 4750 2861 4703 
Q 3103 4656 3366 4563 
z
" transform="scale(0.015625)"/>
     </defs>
     <use xlink:href="#DejaVuSans-54" transform="translate(0 0.015625)"/>
     <use xlink:href="#DejaVuSans-62" transform="translate(61.083984 0.015625)"/>
     <use xlink:href="#DejaVuSans-28" transform="translate(124.560547 0.015625)"/>
     <use xlink:href="#DejaVuSans-41" transform="translate(163.574219 0.015625)"/>
     <use xlink:href="#DejaVuSans-6c" transform="translate(231.982422 0.015625)"/>
     <use xlink:href="#DejaVuSans-43" transform="translate(259.765625 0.015625)"/>
     <use xlink:href="#DejaVuSans-75" transform="translate(329.589844 0.015625)"/>
     <use xlink:href="#DejaVuSans-29" transform="translate(392.96875 0.015625)"/>
     <use xlink:href="#DejaVuSans-36" transform="translate(432.939453 -16.390625) scale(0.7)"/>
    </g>
   </g>
   <g id="text_4">
    <!-- $\mathrm{TbCu}$ -->
    <g transform="translate(58.996922 127.6151) scale(0.1 -0.1)">
     <use xlink:href="#DejaVuSans-54" transform="translate(0 0.015625)"/>
     <use xlink:href="#DejaVuSans-62" transform="translate(61.083984 0.015625)"/>
     <use xlink:href="#DejaVuSans-43" transform="translate(124.560547 0.015625)"/>
     <use xlink:href="#DejaVuSans-75" transform="translate(194.384766 0.015625)"/>
    </g>
   </g>
   <g id="text_5">
    <!-- $\mathrm{TbCu_{2}}$ -->
    <g transform="translate(75.259198 97.435289) scale(0.1 -0.1)">
     <use xlink:href="#DejaVuSans-54" transform="translate(0 0.015625)"/>
     <use xlink:href="#DejaVuSans-62" transform="translate(61.083984 0.015625)"/>
     <use xlink:href="#DejaVuSans-43" transform="translate(124.560547 0.015625)"/>
     <use xlink:href="#DejaVuSans-75" transform="translate(194.384766 0.015625)"/>
     <use xlink:href="#DejaVuSans-32" transform="translate(258.720703 -16.390625) scale(0.7)"/>
    </g>
   </g>
   <g id="text_6">
    <!-- $\mathrm{TbAlCu}$ -->
    <g transform="translate(106.256478 159.119331) scale(0.1 -0.1)">
     <use xlink:href="#DejaVuSans-54" transform="translate(0 0.015625)"/>
     <use xlink:href="#DejaVuSans-62" transform="translate(61.083984 0.015625)"/>
     <use xlink:href="#DejaVuSans-41" transform="translate(124.560547 0.015625)"/>
     <use xlink:href="#DejaVuSans-6c" transform="translate(192.96875 0.015625)"/>
     <use xlink:href="#DejaVuSans-43" transform="translate(220.751953 0.015625)"/>
     <use xlink:href="#DejaVuSans-75" transform="translate(290.576172 0.015625)"/>
    </g>
   </g>
   <g id="text_7">
    <!-- $\mathrm{Al}$ -->
    <g transform="translate(249.389691 211.215873) scale(0.1 -0.1)">
     <use xlink:href="#DejaVuSans-41" transform="translate(0 0.015625)"/>
     <use xlink:href="#DejaVuSans-6c" transform="translate(68.408203 0.015625)"/>
    </g>
   </g>
   <g id="text_8">
    <!-- $\mathrm{AlCu_{3}}$ -->
    <g transform="translate(161.613529 68.638869) scale(0.1 -0.1)">
     <use xlink:href="#DejaVuSans-41" transform="translate(0 0.015625)"/>
     <use xlink:href="#DejaVuSans-6c" transform="translate(68.408203 0.015625)"/>
     <use xlink:href="#DejaVuSans-43" transform="translate(96.191406 0.015625)"/>
     <use xlink:href="#DejaVuSans-75" transform="translate(166.015625 0.015625)"/>
     <use xlink:href="#DejaVuSans-33" transform="translate(230.351562 -16.390625) scale(0.7)"/>
    </g>
   </g>
   <g id="text_9">
    <!-- $\mathrm{Al_{4}Cu_{9}}$ -->
    <g transform="translate(175.944876 87.650178) scale(0.1 -0.1)">
     <defs>
      <path id="DejaVuSans-34" d="M 2419 4116 
L 825 1625 
L 2419 1625 
L 2419 4116 
z
M 2253 4666 
L 3047 4666 
L 3047 1625 
L 3713 1625 
L 3713 1100 
L 3047 1100 
L 3047 0 
L 2419 0 
L 2419 1100 
L 313 1100 
L 313 1709 
L 2253 4666 
z
" transform="scale(0.015625)"/>
      <path id="DejaVuSans-39" d="M 703 97 
L 703 672 
Q 941 559 1184 500 
Q 1428 441 1663 441 
Q 2288 441 2617 861 
Q 2947 1281 2994 2138 
Q 2813 1869 2534 1725 
Q 2256 1581 1919 1581 
Q 1219 1581 811 2004 
Q 403 2428 403 3163 
Q 403 3881 828 4315 
Q 1253 4750 1959 4750 
Q 2769 4750 3195 4129 
Q 3622 3509 3622 2328 
Q 3622 1225 3098 567 
Q 2575 -91 1691 -91 
Q 1453 -91 1209 -44 
Q 966 3 703 97 
z
M 1959 2075 
Q 2384 2075 2632 2365 
Q 2881 2656 2881 3163 
Q 2881 3666 2632 3958 
Q 2384 4250 1959 4250 
Q 1534 4250 1286 3958 
Q 1038 3666 1038 3163 
Q 1038 2656 1286 2365 
Q 1534 2075 1959 2075 
z
" transform="scale(0.015625)"/>
     </defs>
     <use xlink:href="#DejaVuSans-41" transform="translate(0 0.015625)"/>
     <use xlink:href="#DejaVuSans-6c" transform="translate(68.408203 0.015625)"/>
     <use xlink:href="#DejaVuSans-34" transform="translate(97.148438 -16.390625) scale(0.7)"/>
     <use xlink:href="#DejaVuSans-43" transform="translate(144.418945 0.015625)"/>
     <use xlink:href="#DejaVuSans-75" transform="translate(214.243164 0.015625)"/>
     <use xlink:href="#DejaVuSans-39" transform="translate(278.579102 -16.390625) scale(0.7)"/>
    </g>
   </g>
   <g id="text_10">
    <!-- $\mathrm{TbCu_{5}}$ -->
    <g transform="translate(95.230565 65.981057) scale(0.1 -0.1)">
     <defs>
      <path id="DejaVuSans-35" d="M 691 4666 
L 3169 4666 
L 3169 4134 
L 1269 4134 
L 1269 2991 
Q 1406 3038 1543 3061 
Q 1681 3084 1819 3084 
Q 2600 3084 3056 2656 
Q 3513 2228 3513 1497 
Q 3513 744 3044 326 
Q 2575 -91 1722 -91 
Q 1428 -91 1123 -41 
Q 819 9 494 109 
L 494 744 
Q 775 591 1075 516 
Q 1375 441 1709 441 
Q 2250 441 2565 725 
Q 2881 1009 2881 1497 
Q 2881 1984 2565 2268 
Q 2250 2553 1709 2553 
Q 1456 2553 1204 2497 
Q 953 2441 691 2322 
L 691 4666 
z
" transform="scale(0.015625)"/>
     </defs>
     <use xlink:href="#DejaVuSans-54" transform="translate(0 0.015625)"/>
     <use xlink:href="#DejaVuSans-62" transform="translate(61.083984 0.015625)"/>
     <use xlink:href="#DejaVuSans-43" transform="translate(124.560547 0.015625)"/>
     <use xlink:href="#DejaVuSans-75" transform="translate(194.384766 0.015625)"/>
     <use xlink:href="#DejaVuSans-35" transform="translate(258.720703 -16.390625) scale(0.7)"/>
    </g>
   </g>
   <g id="text_11">
    <!-- $\mathrm{Cu}$ -->
    <g transform="translate(130.347387 33.102406) scale(0.1 -0.1)">
     <use xlink:href="#DejaVuSans-43" transform="translate(0 0.78125)"/>
     <use xlink:href="#DejaVuSans-75" transform="translate(69.824219 0.78125)"/>
    </g>
   </g>
   <g id="text_12">
    <!-- $\mathrm{TbAl_{2}}$ -->
    <g transform="translate(171.394667 210.544971) scale(0.1 -0.1)">
     <use xlink:href="#DejaVuSans-54" transform="translate(0 0.015625)"/>
     <use xlink:href="#DejaVuSans-62" transform="translate(61.083984 0.015625)"/>
     <use xlink:href="#DejaVuSans-41" transform="translate(124.560547 0.015625)"/>
     <use xlink:href="#DejaVuSans-6c" transform="translate(192.96875 0.015625)"/>
     <use xlink:href="#DejaVuSans-32" transform="translate(221.708984 -16.390625) scale(0.7)"/>
    </g>
   </g>
   <g id="text_13">
    <!-- $\mathrm{TbAl_{3}Cu_{2}}$ -->
    <g transform="translate(159.02194 145.528832) scale(0.1 -0.1)">
     <use xlink:href="#DejaVuSans-54" transform="translate(0 0.015625)"/>
     <use xlink:href="#DejaVuSans-62" transform="translate(61.083984 0.015625)"/>
     <use xlink:href="#DejaVuSans-41" transform="translate(124.560547 0.015625)"/>
     <use xlink:href="#DejaVuSans-6c" transform="translate(192.96875 0.015625)"/>
     <use xlink:href="#DejaVuSans-33" transform="translate(221.708984 -16.390625) scale(0.7)"/>
     <use xlink:href="#DejaVuSans-43" transform="translate(268.979492 0.015625)"/>
     <use xlink:href="#DejaVuSans-75" transform="translate(338.803711 0.015625)"/>
     <use xlink:href="#DejaVuSans-32" transform="translate(403.139648 -16.390625) scale(0.7)"/>
    </g>
   </g>
   <g id="text_14">
    <!-- $\mathrm{Tb_{2}Al}$ -->
    <g transform="translate(92.163744 210.544971) scale(0.1 -0.1)">
     <use xlink:href="#DejaVuSans-54" transform="translate(0 0.015625)"/>
     <use xlink:href="#DejaVuSans-62" transform="translate(61.083984 0.015625)"/>
     <use xlink:href="#DejaVuSans-32" transform="translate(125.517578 -16.390625) scale(0.7)"/>
     <use xlink:href="#DejaVuSans-41" transform="translate(172.788086 0.015625)"/>
     <use xlink:href="#DejaVuSans-6c" transform="translate(241.196289 0.015625)"/>
    </g>
   </g>
   <g id="text_15">
    <!-- $\mathrm{AlCu}$ -->
    <g transform="translate(196.588762 112.026642) scale(0.1 -0.1)">
     <use xlink:href="#DejaVuSans-41" transform="translate(0 0.015625)"/>
     <use xlink:href="#DejaVuSans-6c" transform="translate(68.408203 0.015625)"/>
     <use xlink:href="#DejaVuSans-43" transform="translate(96.191406 0.015625)"/>
     <use xlink:href="#DejaVuSans-75" transform="translate(166.015625 0.015625)"/>
    </g>
   </g>
   <g id="text_16">
    <!-- $\mathrm{Tb}$ -->
    <g transform="translate(19.654316 211.839411) scale(0.1 -0.1)">
     <use xlink:href="#DejaVuSans-54" transform="translate(0 0.015625)"/>
     <use xlink:href="#DejaVuSans-62" transform="translate(61.083984 0.015625)"/>
    </g>
   </g>
   <g id="text_17">
    <!-- $\mathrm{TbAl}$ -->
    <g transform="translate(131.888296 211.215873) scale(0.1 -0.1)">
     <use xlink:href="#DejaVuSans-54" transform="translate(0 0.015625)"/>
     <use xlink:href="#DejaVuSans-62" transform="translate(61.083984 0.015625)"/>
     <use xlink:href="#DejaVuSans-41" transform="translate(124.560547 0.015625)"/>
     <use xlink:href="#DejaVuSans-6c" transform="translate(192.96875 0.015625)"/>
    </g>
   </g>
   <g id="text_18">
    <!-- $\mathrm{Tb(Al_{2}Cu)_{4}}$ -->
    <g style="fill: #ff0000" transform="translate(203.26572 164.667018) scale(0.1 -0.1)">
     <use xlink:href="#DejaVuSans-54" transform="translate(0 0.015625)"/>
     <use xlink:href="#DejaVuSans-62" transform="translate(61.083984 0.015625)"/>
     <use xlink:href="#DejaVuSans-28" transform="translate(124.560547 0.015625)"/>
     <use xlink:href="#DejaVuSans-41" transform="translate(163.574219 0.015625)"/>
     <use xlink:href="#DejaVuSans-6c" transform="translate(231.982422 0.015625)"/>
     <use xlink:href="#DejaVuSans-32" transform="translate(260.722656 -16.390625) scale(0.7)"/>
     <use xlink:href="#DejaVuSans-43" transform="translate(307.993164 0.015625)"/>
     <use xlink:href="#DejaVuSans-75" transform="translate(377.817383 0.015625)"/>
     <use xlink:href="#DejaVuSans-29" transform="translate(441.196289 0.015625)"/>
     <use xlink:href="#DejaVuSans-34" transform="translate(481.166992 -16.390625) scale(0.7)"/>
    </g>
   </g>
  </g>
  <g id="axes_2">
   <g id="patch_3">
    <path d="M 287.298425 195.703937 
L 296.029134 195.703937 
L 296.029134 36.96378 
L 287.298425 36.96378 
L 287.298425 195.703937 
z
" style="fill: none"/>
   </g>
   <g id="patch_4">
    <path d="M 287.298425 195.703937 
L 291.66378 203.640945 
L 296.029134 195.703937 
" style="fill: #440154; opacity: 0.7"/>
   </g>
   <g id="patch_5">
    <path d="M 287.298425 36.96378 
L 291.66378 29.026772 
L 296.029134 36.96378 
" style="fill: #fde725; opacity: 0.7"/>
   </g>
   <g id="QuadMesh_1">
    <path d="M 287.298425 195.703937 
L 296.029134 195.703937 
L 296.029134 190.893629 
L 287.298425 190.893629 
L 287.298425 195.703937 
" clip-path="url(#p390ef9ee5e)" style="fill: #450559; fill-opacity: 0.7"/>
    <path d="M 287.298425 190.893629 
L 296.029134 190.893629 
L 296.029134 186.083321 
L 287.298425 186.083321 
L 287.298425 190.893629 
" clip-path="url(#p390ef9ee5e)" style="fill: #471164; fill-opacity: 0.7"/>
    <path d="M 287.298425 186.083321 
L 296.029134 186.083321 
L 296.029134 181.273014 
L 287.298425 181.273014 
L 287.298425 186.083321 
" clip-path="url(#p390ef9ee5e)" style="fill: #481c6e; fill-opacity: 0.7"/>
    <path d="M 287.298425 181.273014 
L 296.029134 181.273014 
L 296.029134 176.462706 
L 287.298425 176.462706 
L 287.298425 181.273014 
" clip-path="url(#p390ef9ee5e)" style="fill: #482677; fill-opacity: 0.7"/>
    <path d="M 287.298425 176.462706 
L 296.029134 176.462706 
L 296.029134 171.652398 
L 287.298425 171.652398 
L 287.298425 176.462706 
" clip-path="url(#p390ef9ee5e)" style="fill: #472f7d; fill-opacity: 0.7"/>
    <path d="M 287.298425 171.652398 
L 296.029134 171.652398 
L 296.029134 166.84209 
L 287.298425 166.84209 
L 287.298425 171.652398 
" clip-path="url(#p390ef9ee5e)" style="fill: #443983; fill-opacity: 0.7"/>
    <path d="M 287.298425 166.84209 
L 296.029134 166.84209 
L 296.029134 162.031782 
L 287.298425 162.031782 
L 287.298425 166.84209 
" clip-path="url(#p390ef9ee5e)" style="fill: #414287; fill-opacity: 0.7"/>
    <path d="M 287.298425 162.031782 
L 296.029134 162.031782 
L 296.029134 157.221475 
L 287.298425 157.221475 
L 287.298425 162.031782 
" clip-path="url(#p390ef9ee5e)" style="fill: #3e4c8a; fill-opacity: 0.7"/>
    <path d="M 287.298425 157.221475 
L 296.029134 157.221475 
L 296.029134 152.411167 
L 287.298425 152.411167 
L 287.298425 157.221475 
" clip-path="url(#p390ef9ee5e)" style="fill: #3a538b; fill-opacity: 0.7"/>
    <path d="M 287.298425 152.411167 
L 296.029134 152.411167 
L 296.029134 147.600859 
L 287.298425 147.600859 
L 287.298425 152.411167 
" clip-path="url(#p390ef9ee5e)" style="fill: #365c8d; fill-opacity: 0.7"/>
    <path d="M 287.298425 147.600859 
L 296.029134 147.600859 
L 296.029134 142.790551 
L 287.298425 142.790551 
L 287.298425 147.600859 
" clip-path="url(#p390ef9ee5e)" style="fill: #32648e; fill-opacity: 0.7"/>
    <path d="M 287.298425 142.790551 
L 296.029134 142.790551 
L 296.029134 137.980243 
L 287.298425 137.980243 
L 287.298425 142.790551 
" clip-path="url(#p390ef9ee5e)" style="fill: #2f6c8e; fill-opacity: 0.7"/>
    <path d="M 287.298425 137.980243 
L 296.029134 137.980243 
L 296.029134 133.169936 
L 287.298425 133.169936 
L 287.298425 137.980243 
" clip-path="url(#p390ef9ee5e)" style="fill: #2c728e; fill-opacity: 0.7"/>
    <path d="M 287.298425 133.169936 
L 296.029134 133.169936 
L 296.029134 128.359628 
L 287.298425 128.359628 
L 287.298425 133.169936 
" clip-path="url(#p390ef9ee5e)" style="fill: #297a8e; fill-opacity: 0.7"/>
    <path d="M 287.298425 128.359628 
L 296.029134 128.359628 
L 296.029134 123.54932 
L 287.298425 123.54932 
L 287.298425 128.359628 
" clip-path="url(#p390ef9ee5e)" style="fill: #26828e; fill-opacity: 0.7"/>
    <path d="M 287.298425 123.54932 
L 296.029134 123.54932 
L 296.029134 118.739012 
L 287.298425 118.739012 
L 287.298425 123.54932 
" clip-path="url(#p390ef9ee5e)" style="fill: #23898e; fill-opacity: 0.7"/>
    <path d="M 287.298425 118.739012 
L 296.029134 118.739012 
L 296.029134 113.928704 
L 287.298425 113.928704 
L 287.298425 118.739012 
" clip-path="url(#p390ef9ee5e)" style="fill: #21918c; fill-opacity: 0.7"/>
    <path d="M 287.298425 113.928704 
L 296.029134 113.928704 
L 296.029134 109.118397 
L 287.298425 109.118397 
L 287.298425 113.928704 
" clip-path="url(#p390ef9ee5e)" style="fill: #1f978b; fill-opacity: 0.7"/>
    <path d="M 287.298425 109.118397 
L 296.029134 109.118397 
L 296.029134 104.308089 
L 287.298425 104.308089 
L 287.298425 109.118397 
" clip-path="url(#p390ef9ee5e)" style="fill: #1f9f88; fill-opacity: 0.7"/>
    <path d="M 287.298425 104.308089 
L 296.029134 104.308089 
L 296.029134 99.497781 
L 287.298425 99.497781 
L 287.298425 104.308089 
" clip-path="url(#p390ef9ee5e)" style="fill: #21a685; fill-opacity: 0.7"/>
    <path d="M 287.298425 99.497781 
L 296.029134 99.497781 
L 296.029134 94.687473 
L 287.298425 94.687473 
L 287.298425 99.497781 
" clip-path="url(#p390ef9ee5e)" style="fill: #27ad81; fill-opacity: 0.7"/>
    <path d="M 287.298425 94.687473 
L 296.029134 94.687473 
L 296.029134 89.877165 
L 287.298425 89.877165 
L 287.298425 94.687473 
" clip-path="url(#p390ef9ee5e)" style="fill: #2fb47c; fill-opacity: 0.7"/>
    <path d="M 287.298425 89.877165 
L 296.029134 89.877165 
L 296.029134 85.066858 
L 287.298425 85.066858 
L 287.298425 89.877165 
" clip-path="url(#p390ef9ee5e)" style="fill: #3bbb75; fill-opacity: 0.7"/>
    <path d="M 287.298425 85.066858 
L 296.029134 85.066858 
L 296.029134 80.25655 
L 287.298425 80.25655 
L 287.298425 85.066858 
" clip-path="url(#p390ef9ee5e)" style="fill: #4ac16d; fill-opacity: 0.7"/>
    <path d="M 287.298425 80.25655 
L 296.029134 80.25655 
L 296.029134 75.446242 
L 287.298425 75.446242 
L 287.298425 80.25655 
" clip-path="url(#p390ef9ee5e)" style="fill: #5ac864; fill-opacity: 0.7"/>
    <path d="M 287.298425 75.446242 
L 296.029134 75.446242 
L 296.029134 70.635934 
L 287.298425 70.635934 
L 287.298425 75.446242 
" clip-path="url(#p390ef9ee5e)" style="fill: #69cd5b; fill-opacity: 0.7"/>
    <path d="M 287.298425 70.635934 
L 296.029134 70.635934 
L 296.029134 65.825626 
L 287.298425 65.825626 
L 287.298425 70.635934 
" clip-path="url(#p390ef9ee5e)" style="fill: #7cd250; fill-opacity: 0.7"/>
    <path d="M 287.298425 65.825626 
L 296.029134 65.825626 
L 296.029134 61.015319 
L 287.298425 61.015319 
L 287.298425 65.825626 
" clip-path="url(#p390ef9ee5e)" style="fill: #90d743; fill-opacity: 0.7"/>
    <path d="M 287.298425 61.015319 
L 296.029134 61.015319 
L 296.029134 56.205011 
L 287.298425 56.205011 
L 287.298425 61.015319 
" clip-path="url(#p390ef9ee5e)" style="fill: #a5db36; fill-opacity: 0.7"/>
    <path d="M 287.298425 56.205011 
L 296.029134 56.205011 
L 296.029134 51.394703 
L 287.298425 51.394703 
L 287.298425 56.205011 
" clip-path="url(#p390ef9ee5e)" style="fill: #b8de29; fill-opacity: 0.7"/>
    <path d="M 287.298425 51.394703 
L 296.029134 51.394703 
L 296.029134 46.584395 
L 287.298425 46.584395 
L 287.298425 51.394703 
" clip-path="url(#p390ef9ee5e)" style="fill: #cde11d; fill-opacity: 0.7"/>
    <path d="M 287.298425 46.584395 
L 296.029134 46.584395 
L 296.029134 41.774087 
L 287.298425 41.774087 
L 287.298425 46.584395 
" clip-path="url(#p390ef9ee5e)" style="fill: #e2e418; fill-opacity: 0.7"/>
    <path d="M 287.298425 41.774087 
L 296.029134 41.774087 
L 296.029134 36.96378 
L 287.298425 36.96378 
L 287.298425 41.774087 
" clip-path="url(#p390ef9ee5e)" style="fill: #f6e620; fill-opacity: 0.7"/>
   </g>
   <g id="matplotlib.axis_3"/>
   <g id="matplotlib.axis_4">
    <g id="ytick_1">
     <g id="line2d_38">
      <defs>
       <path id="mfa36b69481" d="M 0 0 
L -2 0 
" style="stroke: #000000; stroke-width: 0.3"/>
      </defs>
      <g>
       <use xlink:href="#mfa36b69481" x="296.029134" y="190.893629" style="stroke: #000000; stroke-width: 0.3"/>
      </g>
     </g>
     <g id="text_19">
      <!-- 0.495 -->
      <g transform="translate(299.529134 193.756754) scale(0.08 -0.08)">
       <defs>
        <path id="ArialMT-2212" d="M 3381 1997 
L 356 1997 
L 356 2522 
L 3381 2522 
L 3381 1997 
z
" transform="scale(0.015625)"/>
        <path id="ArialMT-30" d="M 266 2259 
Q 266 3072 433 3567 
Q 600 4063 929 4331 
Q 1259 4600 1759 4600 
Q 2128 4600 2406 4451 
Q 2684 4303 2865 4023 
Q 3047 3744 3150 3342 
Q 3253 2941 3253 2259 
Q 3253 1453 3087 958 
Q 2922 463 2592 192 
Q 2263 -78 1759 -78 
Q 1097 -78 719 397 
Q 266 969 266 2259 
z
M 844 2259 
Q 844 1131 1108 757 
Q 1372 384 1759 384 
Q 2147 384 2411 759 
Q 2675 1134 2675 2259 
Q 2675 3391 2411 3762 
Q 2147 4134 1753 4134 
Q 1366 4134 1134 3806 
Q 844 3388 844 2259 
z
" transform="scale(0.015625)"/>
        <path id="ArialMT-2e" d="M 581 0 
L 581 641 
L 1222 641 
L 1222 0 
L 581 0 
z
" transform="scale(0.015625)"/>
        <path id="ArialMT-34" d="M 2069 0 
L 2069 1097 
L 81 1097 
L 81 1613 
L 2172 4581 
L 2631 4581 
L 2631 1613 
L 3250 1613 
L 3250 1097 
L 2631 1097 
L 2631 0 
L 2069 0 
z
M 2069 1613 
L 2069 3678 
L 634 1613 
L 2069 1613 
z
" transform="scale(0.015625)"/>
        <path id="ArialMT-39" d="M 350 1059 
L 891 1109 
Q 959 728 1153 556 
Q 1347 384 1650 384 
Q 1909 384 2104 503 
Q 2300 622 2425 820 
Q 2550 1019 2634 1356 
Q 2719 1694 2719 2044 
Q 2719 2081 2716 2156 
Q 2547 1888 2255 1720 
Q 1963 1553 1622 1553 
Q 1053 1553 659 1965 
Q 266 2378 266 3053 
Q 266 3750 677 4175 
Q 1088 4600 1706 4600 
Q 2153 4600 2523 4359 
Q 2894 4119 3086 3673 
Q 3278 3228 3278 2384 
Q 3278 1506 3087 986 
Q 2897 466 2520 194 
Q 2144 -78 1638 -78 
Q 1100 -78 759 220 
Q 419 519 350 1059 
z
M 2653 3081 
Q 2653 3566 2395 3850 
Q 2138 4134 1775 4134 
Q 1400 4134 1122 3828 
Q 844 3522 844 3034 
Q 844 2597 1108 2323 
Q 1372 2050 1759 2050 
Q 2150 2050 2401 2323 
Q 2653 2597 2653 3081 
z
" transform="scale(0.015625)"/>
        <path id="ArialMT-35" d="M 266 1200 
L 856 1250 
Q 922 819 1161 601 
Q 1400 384 1738 384 
Q 2144 384 2425 690 
Q 2706 997 2706 1503 
Q 2706 1984 2436 2262 
Q 2166 2541 1728 2541 
Q 1456 2541 1237 2417 
Q 1019 2294 894 2097 
L 366 2166 
L 809 4519 
L 3088 4519 
L 3088 3981 
L 1259 3981 
L 1013 2750 
Q 1425 3038 1878 3038 
Q 2478 3038 2890 2622 
Q 3303 2206 3303 1553 
Q 3303 931 2941 478 
Q 2500 -78 1738 -78 
Q 1113 -78 717 272 
Q 322 622 266 1200 
z
" transform="scale(0.015625)"/>
       </defs>
       <use xlink:href="#ArialMT-2212"/>
       <use xlink:href="#ArialMT-30" transform="translate(58.398438 0)"/>
       <use xlink:href="#ArialMT-2e" transform="translate(114.013672 0)"/>
       <use xlink:href="#ArialMT-34" transform="translate(141.796875 0)"/>
       <use xlink:href="#ArialMT-39" transform="translate(197.412109 0)"/>
       <use xlink:href="#ArialMT-35" transform="translate(253.027344 0)"/>
      </g>
     </g>
    </g>
    <g id="ytick_2">
     <g id="line2d_39">
      <g>
       <use xlink:href="#mfa36b69481" x="296.029134" y="171.652398" style="stroke: #000000; stroke-width: 0.3"/>
      </g>
     </g>
     <g id="text_20">
      <!-- 0.435 -->
      <g transform="translate(299.529134 174.515523) scale(0.08 -0.08)">
       <defs>
        <path id="ArialMT-33" d="M 269 1209 
L 831 1284 
Q 928 806 1161 595 
Q 1394 384 1728 384 
Q 2125 384 2398 659 
Q 2672 934 2672 1341 
Q 2672 1728 2419 1979 
Q 2166 2231 1775 2231 
Q 1616 2231 1378 2169 
L 1441 2663 
Q 1497 2656 1531 2656 
Q 1891 2656 2178 2843 
Q 2466 3031 2466 3422 
Q 2466 3731 2256 3934 
Q 2047 4138 1716 4138 
Q 1388 4138 1169 3931 
Q 950 3725 888 3313 
L 325 3413 
Q 428 3978 793 4289 
Q 1159 4600 1703 4600 
Q 2078 4600 2393 4439 
Q 2709 4278 2876 4000 
Q 3044 3722 3044 3409 
Q 3044 3113 2884 2869 
Q 2725 2625 2413 2481 
Q 2819 2388 3044 2092 
Q 3269 1797 3269 1353 
Q 3269 753 2831 336 
Q 2394 -81 1725 -81 
Q 1122 -81 723 278 
Q 325 638 269 1209 
z
" transform="scale(0.015625)"/>
       </defs>
       <use xlink:href="#ArialMT-2212"/>
       <use xlink:href="#ArialMT-30" transform="translate(58.398438 0)"/>
       <use xlink:href="#ArialMT-2e" transform="translate(114.013672 0)"/>
       <use xlink:href="#ArialMT-34" transform="translate(141.796875 0)"/>
       <use xlink:href="#ArialMT-33" transform="translate(197.412109 0)"/>
       <use xlink:href="#ArialMT-35" transform="translate(253.027344 0)"/>
      </g>
     </g>
    </g>
    <g id="ytick_3">
     <g id="line2d_40">
      <g>
       <use xlink:href="#mfa36b69481" x="296.029134" y="152.411167" style="stroke: #000000; stroke-width: 0.3"/>
      </g>
     </g>
     <g id="text_21">
      <!-- 0.375 -->
      <g transform="translate(299.529134 155.274292) scale(0.08 -0.08)">
       <defs>
        <path id="ArialMT-37" d="M 303 3981 
L 303 4522 
L 3269 4522 
L 3269 4084 
Q 2831 3619 2401 2847 
Q 1972 2075 1738 1259 
Q 1569 684 1522 0 
L 944 0 
Q 953 541 1156 1306 
Q 1359 2072 1739 2783 
Q 2119 3494 2547 3981 
L 303 3981 
z
" transform="scale(0.015625)"/>
       </defs>
       <use xlink:href="#ArialMT-2212"/>
       <use xlink:href="#ArialMT-30" transform="translate(58.398438 0)"/>
       <use xlink:href="#ArialMT-2e" transform="translate(114.013672 0)"/>
       <use xlink:href="#ArialMT-33" transform="translate(141.796875 0)"/>
       <use xlink:href="#ArialMT-37" transform="translate(197.412109 0)"/>
       <use xlink:href="#ArialMT-35" transform="translate(253.027344 0)"/>
      </g>
     </g>
    </g>
    <g id="ytick_4">
     <g id="line2d_41">
      <g>
       <use xlink:href="#mfa36b69481" x="296.029134" y="133.169936" style="stroke: #000000; stroke-width: 0.3"/>
      </g>
     </g>
     <g id="text_22">
      <!-- 0.315 -->
      <g transform="translate(299.529134 136.033061) scale(0.08 -0.08)">
       <defs>
        <path id="ArialMT-31" d="M 2384 0 
L 1822 0 
L 1822 3584 
Q 1619 3391 1289 3197 
Q 959 3003 697 2906 
L 697 3450 
Q 1169 3672 1522 3987 
Q 1875 4303 2022 4600 
L 2384 4600 
L 2384 0 
z
" transform="scale(0.015625)"/>
       </defs>
       <use xlink:href="#ArialMT-2212"/>
       <use xlink:href="#ArialMT-30" transform="translate(58.398438 0)"/>
       <use xlink:href="#ArialMT-2e" transform="translate(114.013672 0)"/>
       <use xlink:href="#ArialMT-33" transform="translate(141.796875 0)"/>
       <use xlink:href="#ArialMT-31" transform="translate(197.412109 0)"/>
       <use xlink:href="#ArialMT-35" transform="translate(253.027344 0)"/>
      </g>
     </g>
    </g>
    <g id="ytick_5">
     <g id="line2d_42">
      <g>
       <use xlink:href="#mfa36b69481" x="296.029134" y="113.928704" style="stroke: #000000; stroke-width: 0.3"/>
      </g>
     </g>
     <g id="text_23">
      <!-- 0.255 -->
      <g transform="translate(299.529134 116.791829) scale(0.08 -0.08)">
       <defs>
        <path id="ArialMT-32" d="M 3222 541 
L 3222 0 
L 194 0 
Q 188 203 259 391 
Q 375 700 629 1000 
Q 884 1300 1366 1694 
Q 2113 2306 2375 2664 
Q 2638 3022 2638 3341 
Q 2638 3675 2398 3904 
Q 2159 4134 1775 4134 
Q 1369 4134 1125 3890 
Q 881 3647 878 3216 
L 300 3275 
Q 359 3922 746 4261 
Q 1134 4600 1788 4600 
Q 2447 4600 2831 4234 
Q 3216 3869 3216 3328 
Q 3216 3053 3103 2787 
Q 2991 2522 2730 2228 
Q 2469 1934 1863 1422 
Q 1356 997 1212 845 
Q 1069 694 975 541 
L 3222 541 
z
" transform="scale(0.015625)"/>
       </defs>
       <use xlink:href="#ArialMT-2212"/>
       <use xlink:href="#ArialMT-30" transform="translate(58.398438 0)"/>
       <use xlink:href="#ArialMT-2e" transform="translate(114.013672 0)"/>
       <use xlink:href="#ArialMT-32" transform="translate(141.796875 0)"/>
       <use xlink:href="#ArialMT-35" transform="translate(197.412109 0)"/>
       <use xlink:href="#ArialMT-35" transform="translate(253.027344 0)"/>
      </g>
     </g>
    </g>
    <g id="ytick_6">
     <g id="line2d_43">
      <g>
       <use xlink:href="#mfa36b69481" x="296.029134" y="94.687473" style="stroke: #000000; stroke-width: 0.3"/>
      </g>
     </g>
     <g id="text_24">
      <!-- 0.195 -->
      <g transform="translate(299.529134 97.550598) scale(0.08 -0.08)">
       <use xlink:href="#ArialMT-2212"/>
       <use xlink:href="#ArialMT-30" transform="translate(58.398438 0)"/>
       <use xlink:href="#ArialMT-2e" transform="translate(114.013672 0)"/>
       <use xlink:href="#ArialMT-31" transform="translate(141.796875 0)"/>
       <use xlink:href="#ArialMT-39" transform="translate(197.412109 0)"/>
       <use xlink:href="#ArialMT-35" transform="translate(253.027344 0)"/>
      </g>
     </g>
    </g>
    <g id="ytick_7">
     <g id="line2d_44">
      <g>
       <use xlink:href="#mfa36b69481" x="296.029134" y="75.446242" style="stroke: #000000; stroke-width: 0.3"/>
      </g>
     </g>
     <g id="text_25">
      <!-- 0.135 -->
      <g transform="translate(299.529134 78.309367) scale(0.08 -0.08)">
       <use xlink:href="#ArialMT-2212"/>
       <use xlink:href="#ArialMT-30" transform="translate(58.398438 0)"/>
       <use xlink:href="#ArialMT-2e" transform="translate(114.013672 0)"/>
       <use xlink:href="#ArialMT-31" transform="translate(141.796875 0)"/>
       <use xlink:href="#ArialMT-33" transform="translate(197.412109 0)"/>
       <use xlink:href="#ArialMT-35" transform="translate(253.027344 0)"/>
      </g>
     </g>
    </g>
    <g id="ytick_8">
     <g id="line2d_45">
      <g>
       <use xlink:href="#mfa36b69481" x="296.029134" y="56.205011" style="stroke: #000000; stroke-width: 0.3"/>
      </g>
     </g>
     <g id="text_26">
      <!-- 0.075 -->
      <g transform="translate(299.529134 59.068136) scale(0.08 -0.08)">
       <use xlink:href="#ArialMT-2212"/>
       <use xlink:href="#ArialMT-30" transform="translate(58.398438 0)"/>
       <use xlink:href="#ArialMT-2e" transform="translate(114.013672 0)"/>
       <use xlink:href="#ArialMT-30" transform="translate(141.796875 0)"/>
       <use xlink:href="#ArialMT-37" transform="translate(197.412109 0)"/>
       <use xlink:href="#ArialMT-35" transform="translate(253.027344 0)"/>
      </g>
     </g>
    </g>
    <g id="ytick_9">
     <g id="line2d_46">
      <g>
       <use xlink:href="#mfa36b69481" x="296.029134" y="36.96378" style="stroke: #000000; stroke-width: 0.3"/>
      </g>
     </g>
     <g id="text_27">
      <!-- 0.015 -->
      <g transform="translate(299.529134 39.826905) scale(0.08 -0.08)">
       <use xlink:href="#ArialMT-2212"/>
       <use xlink:href="#ArialMT-30" transform="translate(58.398438 0)"/>
       <use xlink:href="#ArialMT-2e" transform="translate(114.013672 0)"/>
       <use xlink:href="#ArialMT-30" transform="translate(141.796875 0)"/>
       <use xlink:href="#ArialMT-31" transform="translate(197.412109 0)"/>
       <use xlink:href="#ArialMT-35" transform="translate(253.027344 0)"/>
      </g>
     </g>
    </g>
    <g id="text_28">
     <!-- Formation Energy (eV/atom) -->
     <g transform="translate(335.498821 179.408077) rotate(-90) scale(0.1 -0.1)">
      <defs>
       <path id="ArialMT-46" d="M 525 0 
L 525 4581 
L 3616 4581 
L 3616 4041 
L 1131 4041 
L 1131 2622 
L 3281 2622 
L 3281 2081 
L 1131 2081 
L 1131 0 
L 525 0 
z
" transform="scale(0.015625)"/>
       <path id="ArialMT-6f" d="M 213 1659 
Q 213 2581 725 3025 
Q 1153 3394 1769 3394 
Q 2453 3394 2887 2945 
Q 3322 2497 3322 1706 
Q 3322 1066 3130 698 
Q 2938 331 2570 128 
Q 2203 -75 1769 -75 
Q 1072 -75 642 372 
Q 213 819 213 1659 
z
M 791 1659 
Q 791 1022 1069 705 
Q 1347 388 1769 388 
Q 2188 388 2466 706 
Q 2744 1025 2744 1678 
Q 2744 2294 2464 2611 
Q 2184 2928 1769 2928 
Q 1347 2928 1069 2612 
Q 791 2297 791 1659 
z
" transform="scale(0.015625)"/>
       <path id="ArialMT-72" d="M 416 0 
L 416 3319 
L 922 3319 
L 922 2816 
Q 1116 3169 1280 3281 
Q 1444 3394 1641 3394 
Q 1925 3394 2219 3213 
L 2025 2691 
Q 1819 2813 1613 2813 
Q 1428 2813 1281 2702 
Q 1134 2591 1072 2394 
Q 978 2094 978 1738 
L 978 0 
L 416 0 
z
" transform="scale(0.015625)"/>
       <path id="ArialMT-6d" d="M 422 0 
L 422 3319 
L 925 3319 
L 925 2853 
Q 1081 3097 1340 3245 
Q 1600 3394 1931 3394 
Q 2300 3394 2536 3241 
Q 2772 3088 2869 2813 
Q 3263 3394 3894 3394 
Q 4388 3394 4653 3120 
Q 4919 2847 4919 2278 
L 4919 0 
L 4359 0 
L 4359 2091 
Q 4359 2428 4304 2576 
Q 4250 2725 4106 2815 
Q 3963 2906 3769 2906 
Q 3419 2906 3187 2673 
Q 2956 2441 2956 1928 
L 2956 0 
L 2394 0 
L 2394 2156 
Q 2394 2531 2256 2718 
Q 2119 2906 1806 2906 
Q 1569 2906 1367 2781 
Q 1166 2656 1075 2415 
Q 984 2175 984 1722 
L 984 0 
L 422 0 
z
" transform="scale(0.015625)"/>
       <path id="ArialMT-61" d="M 2588 409 
Q 2275 144 1986 34 
Q 1697 -75 1366 -75 
Q 819 -75 525 192 
Q 231 459 231 875 
Q 231 1119 342 1320 
Q 453 1522 633 1644 
Q 813 1766 1038 1828 
Q 1203 1872 1538 1913 
Q 2219 1994 2541 2106 
Q 2544 2222 2544 2253 
Q 2544 2597 2384 2738 
Q 2169 2928 1744 2928 
Q 1347 2928 1158 2789 
Q 969 2650 878 2297 
L 328 2372 
Q 403 2725 575 2942 
Q 747 3159 1072 3276 
Q 1397 3394 1825 3394 
Q 2250 3394 2515 3294 
Q 2781 3194 2906 3042 
Q 3031 2891 3081 2659 
Q 3109 2516 3109 2141 
L 3109 1391 
Q 3109 606 3145 398 
Q 3181 191 3288 0 
L 2700 0 
Q 2613 175 2588 409 
z
M 2541 1666 
Q 2234 1541 1622 1453 
Q 1275 1403 1131 1340 
Q 988 1278 909 1158 
Q 831 1038 831 891 
Q 831 666 1001 516 
Q 1172 366 1500 366 
Q 1825 366 2078 508 
Q 2331 650 2450 897 
Q 2541 1088 2541 1459 
L 2541 1666 
z
" transform="scale(0.015625)"/>
       <path id="ArialMT-74" d="M 1650 503 
L 1731 6 
Q 1494 -44 1306 -44 
Q 1000 -44 831 53 
Q 663 150 594 308 
Q 525 466 525 972 
L 525 2881 
L 113 2881 
L 113 3319 
L 525 3319 
L 525 4141 
L 1084 4478 
L 1084 3319 
L 1650 3319 
L 1650 2881 
L 1084 2881 
L 1084 941 
Q 1084 700 1114 631 
Q 1144 563 1211 522 
Q 1278 481 1403 481 
Q 1497 481 1650 503 
z
" transform="scale(0.015625)"/>
       <path id="ArialMT-69" d="M 425 3934 
L 425 4581 
L 988 4581 
L 988 3934 
L 425 3934 
z
M 425 0 
L 425 3319 
L 988 3319 
L 988 0 
L 425 0 
z
" transform="scale(0.015625)"/>
       <path id="ArialMT-6e" d="M 422 0 
L 422 3319 
L 928 3319 
L 928 2847 
Q 1294 3394 1984 3394 
Q 2284 3394 2536 3286 
Q 2788 3178 2913 3003 
Q 3038 2828 3088 2588 
Q 3119 2431 3119 2041 
L 3119 0 
L 2556 0 
L 2556 2019 
Q 2556 2363 2490 2533 
Q 2425 2703 2258 2804 
Q 2091 2906 1866 2906 
Q 1506 2906 1245 2678 
Q 984 2450 984 1813 
L 984 0 
L 422 0 
z
" transform="scale(0.015625)"/>
       <path id="ArialMT-20" transform="scale(0.015625)"/>
       <path id="ArialMT-45" d="M 506 0 
L 506 4581 
L 3819 4581 
L 3819 4041 
L 1113 4041 
L 1113 2638 
L 3647 2638 
L 3647 2100 
L 1113 2100 
L 1113 541 
L 3925 541 
L 3925 0 
L 506 0 
z
" transform="scale(0.015625)"/>
       <path id="ArialMT-65" d="M 2694 1069 
L 3275 997 
Q 3138 488 2766 206 
Q 2394 -75 1816 -75 
Q 1088 -75 661 373 
Q 234 822 234 1631 
Q 234 2469 665 2931 
Q 1097 3394 1784 3394 
Q 2450 3394 2872 2941 
Q 3294 2488 3294 1666 
Q 3294 1616 3291 1516 
L 816 1516 
Q 847 969 1125 678 
Q 1403 388 1819 388 
Q 2128 388 2347 550 
Q 2566 713 2694 1069 
z
M 847 1978 
L 2700 1978 
Q 2663 2397 2488 2606 
Q 2219 2931 1791 2931 
Q 1403 2931 1139 2672 
Q 875 2413 847 1978 
z
" transform="scale(0.015625)"/>
       <path id="ArialMT-67" d="M 319 -275 
L 866 -356 
Q 900 -609 1056 -725 
Q 1266 -881 1628 -881 
Q 2019 -881 2231 -725 
Q 2444 -569 2519 -288 
Q 2563 -116 2559 434 
Q 2191 0 1641 0 
Q 956 0 581 494 
Q 206 988 206 1678 
Q 206 2153 378 2554 
Q 550 2956 876 3175 
Q 1203 3394 1644 3394 
Q 2231 3394 2613 2919 
L 2613 3319 
L 3131 3319 
L 3131 450 
Q 3131 -325 2973 -648 
Q 2816 -972 2473 -1159 
Q 2131 -1347 1631 -1347 
Q 1038 -1347 672 -1080 
Q 306 -813 319 -275 
z
M 784 1719 
Q 784 1066 1043 766 
Q 1303 466 1694 466 
Q 2081 466 2343 764 
Q 2606 1063 2606 1700 
Q 2606 2309 2336 2618 
Q 2066 2928 1684 2928 
Q 1309 2928 1046 2623 
Q 784 2319 784 1719 
z
" transform="scale(0.015625)"/>
       <path id="ArialMT-79" d="M 397 -1278 
L 334 -750 
Q 519 -800 656 -800 
Q 844 -800 956 -737 
Q 1069 -675 1141 -563 
Q 1194 -478 1313 -144 
Q 1328 -97 1363 -6 
L 103 3319 
L 709 3319 
L 1400 1397 
Q 1534 1031 1641 628 
Q 1738 1016 1872 1384 
L 2581 3319 
L 3144 3319 
L 1881 -56 
Q 1678 -603 1566 -809 
Q 1416 -1088 1222 -1217 
Q 1028 -1347 759 -1347 
Q 597 -1347 397 -1278 
z
" transform="scale(0.015625)"/>
       <path id="ArialMT-28" d="M 1497 -1347 
Q 1031 -759 709 28 
Q 388 816 388 1659 
Q 388 2403 628 3084 
Q 909 3875 1497 4659 
L 1900 4659 
Q 1522 4009 1400 3731 
Q 1209 3300 1100 2831 
Q 966 2247 966 1656 
Q 966 153 1900 -1347 
L 1497 -1347 
z
" transform="scale(0.015625)"/>
       <path id="ArialMT-56" d="M 1803 0 
L 28 4581 
L 684 4581 
L 1875 1253 
Q 2019 853 2116 503 
Q 2222 878 2363 1253 
L 3600 4581 
L 4219 4581 
L 2425 0 
L 1803 0 
z
" transform="scale(0.015625)"/>
       <path id="ArialMT-2f" d="M 0 -78 
L 1328 4659 
L 1778 4659 
L 453 -78 
L 0 -78 
z
" transform="scale(0.015625)"/>
       <path id="ArialMT-29" d="M 791 -1347 
L 388 -1347 
Q 1322 153 1322 1656 
Q 1322 2244 1188 2822 
Q 1081 3291 891 3722 
Q 769 4003 388 4659 
L 791 4659 
Q 1378 3875 1659 3084 
Q 1900 2403 1900 1659 
Q 1900 816 1576 28 
Q 1253 -759 791 -1347 
z
" transform="scale(0.015625)"/>
      </defs>
      <use xlink:href="#ArialMT-46"/>
      <use xlink:href="#ArialMT-6f" transform="translate(61.083984 0)"/>
      <use xlink:href="#ArialMT-72" transform="translate(116.699219 0)"/>
      <use xlink:href="#ArialMT-6d" transform="translate(150 0)"/>
      <use xlink:href="#ArialMT-61" transform="translate(233.300781 0)"/>
      <use xlink:href="#ArialMT-74" transform="translate(288.916016 0)"/>
      <use xlink:href="#ArialMT-69" transform="translate(316.699219 0)"/>
      <use xlink:href="#ArialMT-6f" transform="translate(338.916016 0)"/>
      <use xlink:href="#ArialMT-6e" transform="translate(394.53125 0)"/>
      <use xlink:href="#ArialMT-20" transform="translate(450.146484 0)"/>
      <use xlink:href="#ArialMT-45" transform="translate(477.929688 0)"/>
      <use xlink:href="#ArialMT-6e" transform="translate(544.628906 0)"/>
      <use xlink:href="#ArialMT-65" transform="translate(600.244141 0)"/>
      <use xlink:href="#ArialMT-72" transform="translate(655.859375 0)"/>
      <use xlink:href="#ArialMT-67" transform="translate(689.160156 0)"/>
      <use xlink:href="#ArialMT-79" transform="translate(744.775391 0)"/>
      <use xlink:href="#ArialMT-20" transform="translate(794.775391 0)"/>
      <use xlink:href="#ArialMT-28" transform="translate(822.558594 0)"/>
      <use xlink:href="#ArialMT-65" transform="translate(855.859375 0)"/>
      <use xlink:href="#ArialMT-56" transform="translate(911.474609 0)"/>
      <use xlink:href="#ArialMT-2f" transform="translate(978.173828 0)"/>
      <use xlink:href="#ArialMT-61" transform="translate(1005.957031 0)"/>
      <use xlink:href="#ArialMT-74" transform="translate(1061.572266 0)"/>
      <use xlink:href="#ArialMT-6f" transform="translate(1089.355469 0)"/>
      <use xlink:href="#ArialMT-6d" transform="translate(1144.970703 0)"/>
      <use xlink:href="#ArialMT-29" transform="translate(1228.271484 0)"/>
     </g>
    </g>
   </g>
   <g id="LineCollection_1"/>
   <g id="patch_6">
    <path d="M 287.298425 195.703937 
L 291.66378 203.640945 
L 296.029134 195.703937 
L 296.029134 36.96378 
L 291.66378 29.026772 
L 287.298425 36.96378 
L 287.298425 195.703937 
z
" style="fill: none; stroke: #000000; stroke-width: 0.8; stroke-linejoin: miter; stroke-linecap: square"/>
   </g>
  </g>
 </g>
 <defs>
  <clipPath id="pecd0eac92d">
   <rect x="7.2" y="7.2" width="263.622047" height="218.267717"/>
  </clipPath>
  <clipPath id="p390ef9ee5e">
   <rect x="287.298425" y="36.96378" width="8.730709" height="158.740157"/>
  </clipPath>
 </defs>
</svg>
