<?xml version="1.0" encoding="utf-8" standalone="no"?>
<!DOCTYPE svg PUBLIC "-//W3C//DTD SVG 1.1//EN"
  "http://www.w3.org/Graphics/SVG/1.1/DTD/svg11.dtd">
<svg xmlns:xlink="http://www.w3.org/1999/xlink" width="340.354759pt" height="232.667717pt" viewBox="0 0 340.354759 232.667717" xmlns="http://www.w3.org/2000/svg" version="1.1">
 <metadata>
  <rdf:RDF xmlns:dc="http://purl.org/dc/elements/1.1/" xmlns:cc="http://creativecommons.org/ns#" xmlns:rdf="http://www.w3.org/1999/02/22-rdf-syntax-ns#">
   <cc:Work>
    <dc:type rdf:resource="http://purl.org/dc/dcmitype/StillImage"/>
    <dc:date>2026-01-27T21:37:01.949964</dc:date>
    <dc:format>image/svg+xml</dc:format>
    <dc:creator>
     <cc:Agent>
      <dc:title>Matplotlib v3.10.8, https://matplotlib.org/</dc:title>
     </cc:Agent>
    </dc:creator>
   </cc:Work>
  </rdf:RDF>
 </metadata>
 <defs>
  <style type="text/css">*{stroke-linejoin: round; stroke-linecap: butt}</style>
 </defs>
 <g id="figure_1">
  <g id="patch_1">
   <path d="M 0 232.667717 
L 340.354759 232.667717 
L 340.354759 0 
L 0 0 
L 0 232.667717 
z
" style="fill: none"/>
  </g>
  <g id="axes_1">
   <g id="patch_2">
    <path d="M 7.2 225.467717 
L 270.822047 225.467717 
L 270.822047 7.2 
L 7.2 7.2 
L 7.2 225.467717 
z
" style="fill: none"/>
   </g>
   <g id="TriContourSet_1">
    <path d="M 58.837083 152.000924 
L 59.623698 152.331674 
L 60.289902 152.46423 
L 60.916059 152.441431 
L 60.95412 152.370013 
L 61.34306 148.04782 
L 59.125555 151.545868 
z
" clip-path="url(#pfea75043b5)" style="fill: #440154; fill-opacity: 0.7"/>
    <path d="M 61.34306 148.04782 
L 60.95412 152.370013 
L 60.916059 152.441431 
L 60.289902 152.46423 
L 59.623698 152.331674 
L 58.837083 152.000924 
L 57.892934 153.490291 
L 61.254086 154.903562 
L 64.100733 155.469966 
L 66.77626 155.372547 
L 66.938893 155.067384 
L 68.600808 136.598942 
z
" clip-path="url(#pfea75043b5)" style="fill: #450559; fill-opacity: 0.7"/>
    <path d="M 68.600808 136.598942 
L 66.938893 155.067384 
L 66.77626 155.372547 
L 64.100733 155.469966 
L 61.254086 154.903562 
L 57.892934 153.490291 
L 56.948785 154.979658 
L 62.884474 157.47545 
L 67.911564 158.475701 
L 72.636461 158.303664 
L 72.923665 157.764755 
L 75.858555 125.150064 
z
" clip-path="url(#pfea75043b5)" style="fill: #470e61; fill-opacity: 0.7"/>
    <path d="M 75.858555 125.150064 
L 72.923665 157.764755 
L 72.636461 158.303664 
L 67.911564 158.475701 
L 62.884474 157.47545 
L 56.948785 154.979658 
L 56.004636 156.469024 
L 64.514862 160.047338 
L 71.722396 161.481437 
L 78.496661 161.23478 
L 78.908438 160.462126 
L 82.317185 122.581571 
L 81.504561 120.041637 
L 80.498692 117.830388 
L 79.096922 120.041637 
z
" clip-path="url(#pfea75043b5)" style="fill: #481769; fill-opacity: 0.7"/>
    <path d="M 80.498692 117.830388 
L 81.504561 120.041637 
L 82.317185 122.581571 
L 78.908438 160.462126 
L 78.496661 161.23478 
L 71.722396 161.481437 
L 64.514862 160.047338 
L 56.004636 156.469024 
L 55.060486 157.958391 
L 66.14525 162.619226 
L 75.533227 164.487173 
L 84.356862 164.165897 
L 84.89321 163.159497 
L 88.131977 127.167901 
L 85.852005 120.041637 
L 83.02985 113.837561 
z
" clip-path="url(#pfea75043b5)" style="fill: #481f70; fill-opacity: 0.7"/>
    <path d="M 83.02985 113.837561 
L 85.852005 120.041637 
L 88.131977 127.167901 
L 84.89321 163.159497 
L 84.356862 164.165897 
L 75.533227 164.487173 
L 66.14525 162.619226 
L 55.060486 157.958391 
L 54.116337 159.447758 
L 67.775638 165.191114 
L 79.344058 167.492909 
L 90.217063 167.097013 
L 90.877982 165.856868 
L 93.946768 131.75423 
L 90.199449 120.041637 
L 85.561009 109.844734 
z
" clip-path="url(#pfea75043b5)" style="fill: #482878; fill-opacity: 0.7"/>
    <path d="M 85.561009 109.844734 
L 90.199449 120.041637 
L 93.946768 131.75423 
L 90.877982 165.856868 
L 90.217063 167.097013 
L 79.344058 167.492909 
L 67.775638 165.191114 
L 54.116337 159.447758 
L 53.172188 160.937125 
L 69.406026 167.763002 
L 83.154889 170.498644 
L 96.077264 170.02813 
L 96.862755 168.554239 
L 99.761559 136.340559 
L 94.546893 120.041637 
L 88.092167 105.851908 
z
" clip-path="url(#pfea75043b5)" style="fill: #472f7d; fill-opacity: 0.7"/>
    <path d="M 88.092167 105.851908 
L 94.546893 120.041637 
L 99.761559 136.340559 
L 96.862755 168.554239 
L 96.077264 170.02813 
L 83.154889 170.498644 
L 69.406026 167.763002 
L 53.172188 160.937125 
L 52.228039 162.426492 
L 71.036414 170.33489 
L 86.96572 173.50438 
L 101.937464 172.959246 
L 102.847527 171.25161 
L 105.57635 140.926888 
L 98.894338 120.041637 
L 90.623326 101.859081 
z
" clip-path="url(#pfea75043b5)" style="fill: #453781; fill-opacity: 0.7"/>
    <path d="M 90.623326 101.859081 
L 98.894338 120.041637 
L 105.57635 140.926888 
L 102.847527 171.25161 
L 101.937464 172.959246 
L 86.96572 173.50438 
L 71.036414 170.33489 
L 52.228039 162.426492 
L 51.28389 163.915859 
L 72.666802 172.906778 
L 90.776552 176.510116 
L 107.797665 175.890363 
L 108.8323 173.948981 
L 111.391142 145.513217 
L 103.241782 120.041637 
L 93.154485 97.866255 
z
" clip-path="url(#pfea75043b5)" style="fill: #433e85; fill-opacity: 0.7"/>
    <path d="M 93.154485 97.866255 
L 103.241782 120.041637 
L 111.391142 145.513217 
L 108.8323 173.948981 
L 107.797665 175.890363 
L 90.776552 176.510116 
L 72.666802 172.906778 
L 51.28389 163.915859 
L 50.339741 165.405225 
L 74.29719 175.478666 
L 94.587383 179.515852 
L 113.657866 178.821479 
L 114.817072 176.646352 
L 117.205933 150.099546 
L 107.589226 120.041637 
L 95.685643 93.873428 
z
" clip-path="url(#pfea75043b5)" style="fill: #404688; fill-opacity: 0.7"/>
    <path d="M 95.685643 93.873428 
L 107.589226 120.041637 
L 117.205933 150.099546 
L 114.817072 176.646352 
L 113.657866 178.821479 
L 94.587383 179.515852 
L 74.29719 175.478666 
L 50.339741 165.405225 
L 49.395592 166.894592 
L 75.927578 178.050554 
L 98.398214 182.521588 
L 119.518067 181.752596 
L 120.801845 179.343723 
L 123.020724 154.685876 
L 111.936671 120.041637 
L 98.216802 89.880601 
z
" clip-path="url(#pfea75043b5)" style="fill: #3d4d8a; fill-opacity: 0.7"/>
    <path d="M 98.216802 89.880601 
L 111.936671 120.041637 
L 123.020724 154.685876 
L 120.801845 179.343723 
L 119.518067 181.752596 
L 98.398214 182.521588 
L 75.927578 178.050554 
L 49.395592 166.894592 
L 48.451443 168.383959 
L 77.557966 180.622442 
L 102.209045 185.527323 
L 125.378267 184.683712 
L 126.786617 182.041094 
L 128.835515 159.272205 
L 116.284115 120.041637 
L 103.567492 92.086085 
L 100.071409 86.955015 
L 99.068289 88.537406 
z
" clip-path="url(#pfea75043b5)" style="fill: #3a538b; fill-opacity: 0.7"/>
    <path d="M 100.071409 86.955015 
L 103.567492 92.086085 
L 116.284115 120.041637 
L 128.835515 159.272205 
L 126.786617 182.041094 
L 125.378267 184.683712 
L 102.209045 185.527323 
L 77.557966 180.622442 
L 48.451443 168.383959 
L 47.507294 169.873326 
L 79.188354 183.19433 
L 106.019876 188.533059 
L 131.238468 187.614829 
L 132.77139 184.738465 
L 134.650307 163.858534 
L 120.631559 120.041637 
L 110.347507 97.433719 
L 101.583047 84.570451 
z
" clip-path="url(#pfea75043b5)" style="fill: #375a8c; fill-opacity: 0.7"/>
    <path d="M 101.583047 84.570451 
L 110.347507 97.433719 
L 120.631559 120.041637 
L 134.650307 163.858534 
L 132.77139 184.738465 
L 131.238468 187.614829 
L 106.019876 188.533059 
L 79.188354 183.19433 
L 47.507294 169.873326 
L 46.563144 171.362693 
L 80.818742 185.766218 
L 109.830707 191.538795 
L 137.098669 190.545945 
L 138.756162 187.435836 
L 140.465098 168.444863 
L 124.979004 120.041637 
L 117.127522 102.781354 
L 103.094685 82.185888 
z
" clip-path="url(#pfea75043b5)" style="fill: #34618d; fill-opacity: 0.7"/>
    <path d="M 103.094685 82.185888 
L 117.127522 102.781354 
L 124.979004 120.041637 
L 140.465098 168.444863 
L 138.756162 187.435836 
L 137.098669 190.545945 
L 109.830707 191.538795 
L 80.818742 185.766218 
L 46.563144 171.362693 
L 45.618995 172.85206 
L 82.44913 188.338106 
L 113.641539 194.544531 
L 142.95887 193.477062 
L 144.740935 190.133207 
L 146.279889 173.031192 
L 129.326448 120.041637 
L 123.907537 108.128989 
L 104.606323 79.801324 
z
" clip-path="url(#pfea75043b5)" style="fill: #31678e; fill-opacity: 0.7"/>
    <path d="M 104.606323 79.801324 
L 123.907537 108.128989 
L 129.326448 120.041637 
L 146.279889 173.031192 
L 144.740935 190.133207 
L 142.95887 193.477062 
L 113.641539 194.544531 
L 82.44913 188.338106 
L 45.618995 172.85206 
L 44.674846 174.341426 
L 84.079518 190.909994 
L 117.45237 197.550267 
L 148.81907 196.408178 
L 150.725707 192.830578 
L 152.09468 177.617521 
L 133.673892 120.041637 
L 130.687552 113.476624 
L 106.117961 77.416761 
z
" clip-path="url(#pfea75043b5)" style="fill: #2e6d8e; fill-opacity: 0.7"/>
    <path d="M 106.117961 77.416761 
L 130.687552 113.476624 
L 133.673892 120.041637 
L 152.09468 177.617521 
L 150.725707 192.830578 
L 148.81907 196.408178 
L 117.45237 197.550267 
L 84.079518 190.909994 
L 44.674846 174.341426 
L 43.730697 175.830793 
L 85.709906 193.481882 
L 121.263201 200.556002 
L 154.679271 199.339295 
L 156.710479 195.527949 
L 157.909472 182.203851 
L 138.021337 120.041637 
L 137.467567 118.824259 
L 107.629599 75.032198 
z
" clip-path="url(#pfea75043b5)" style="fill: #2c728e; fill-opacity: 0.7"/>
    <path d="M 107.629599 75.032198 
L 137.467567 118.824259 
L 138.021337 120.041637 
L 157.909472 182.203851 
L 156.710479 195.527949 
L 154.679271 199.339295 
L 121.263201 200.556002 
L 85.709906 193.481882 
L 43.730697 175.830793 
L 42.786548 177.32016 
L 87.340294 196.05377 
L 125.074032 203.561738 
L 160.539472 202.270411 
L 162.695252 198.22532 
L 163.724263 186.79018 
L 145.79019 130.735567 
L 142.149584 121.691965 
L 141.218937 120.041637 
L 135.054347 110.67933 
L 109.141237 72.647634 
z
" clip-path="url(#pfea75043b5)" style="fill: #29798e; fill-opacity: 0.7"/>
    <path d="M 109.141237 72.647634 
L 135.054347 110.67933 
L 141.218937 120.041637 
L 142.149584 121.691965 
L 145.79019 130.735567 
L 163.724263 186.79018 
L 162.695252 198.22532 
L 160.539472 202.270411 
L 125.074032 203.561738 
L 87.340294 196.05377 
L 42.786548 177.32016 
L 41.842399 178.809527 
L 88.970682 198.625658 
L 128.884863 206.567474 
L 166.399673 205.201528 
L 168.680024 200.922692 
L 169.539054 191.376509 
L 154.56749 144.581496 
L 146.213223 123.828721 
L 144.077625 120.041637 
L 129.931454 98.557515 
L 110.652875 70.263071 
z
" clip-path="url(#pfea75043b5)" style="fill: #277f8e; fill-opacity: 0.7"/>
    <path d="M 110.652875 70.263071 
L 129.931454 98.557515 
L 144.077625 120.041637 
L 146.213223 123.828721 
L 154.56749 144.581496 
L 169.539054 191.376509 
L 168.680024 200.922692 
L 166.399673 205.201528 
L 128.884863 206.567474 
L 88.970682 198.625658 
L 41.842399 178.809527 
L 40.89825 180.298894 
L 90.60107 201.197546 
L 132.695694 209.57321 
L 172.259874 208.132644 
L 174.664797 203.620063 
L 175.353845 195.962838 
L 163.344791 158.427424 
L 150.276863 125.965478 
L 146.936313 120.041637 
L 124.808561 86.435701 
L 112.164512 67.878507 
z
" clip-path="url(#pfea75043b5)" style="fill: #25848e; fill-opacity: 0.7"/>
    <path d="M 112.164512 67.878507 
L 124.808561 86.435701 
L 146.936313 120.041637 
L 150.276863 125.965478 
L 163.344791 158.427424 
L 175.353845 195.962838 
L 174.664797 203.620063 
L 172.259874 208.132644 
L 132.695694 209.57321 
L 90.60107 201.197546 
L 40.89825 180.298894 
L 39.954101 181.78826 
L 92.231458 203.769435 
L 136.506526 212.578946 
L 178.120074 211.063761 
L 180.649569 206.317434 
L 181.168637 200.549167 
L 172.122092 172.273352 
L 154.340502 128.102234 
L 149.795 120.041637 
L 119.685668 74.313887 
L 113.67615 65.493944 
z
" clip-path="url(#pfea75043b5)" style="fill: #238a8d; fill-opacity: 0.7"/>
    <path d="M 168.615255 214.554331 
L 183.980275 213.994877 
L 186.634342 209.014805 
L 186.983428 205.135497 
L 180.899393 186.11928 
L 158.404141 130.23899 
L 152.653688 120.041637 
L 115.530749 63.662157 
L 115.152413 63.165185 
L 115.045383 63.334021 
L 113.67615 65.493944 
L 119.685668 74.313887 
L 149.795 120.041637 
L 154.340502 128.102234 
L 172.122092 172.273352 
L 181.168637 200.549167 
L 180.649569 206.317434 
L 178.120074 211.063761 
L 136.506526 212.578946 
L 92.231458 203.769435 
L 39.954101 181.78826 
L 39.009952 183.277627 
L 93.861846 206.341323 
L 135.138994 214.554331 
L 139.011024 214.554331 
z
" clip-path="url(#pfea75043b5)" style="fill: #21918c; fill-opacity: 0.7"/>
    <path d="M 191.104424 214.554331 
L 192.619114 211.712176 
L 192.798219 209.721826 
L 189.676694 199.965208 
L 162.467781 132.375747 
L 155.512376 120.041637 
L 120.682923 67.145328 
L 116.288537 61.372983 
L 115.152413 63.165185 
L 115.530749 63.662157 
L 152.653688 120.041637 
L 158.404141 130.23899 
L 180.899393 186.11928 
L 186.983428 205.135497 
L 186.634342 209.014805 
L 183.980275 213.994877 
L 168.615255 214.554331 
L 185.098794 214.554331 
z
M 38.065803 184.766994 
L 95.492234 208.913211 
L 123.843521 214.554331 
L 135.138994 214.554331 
L 93.861846 206.341323 
L 39.009952 183.277627 
z
" clip-path="url(#pfea75043b5)" style="fill: #1f968b; fill-opacity: 0.7"/>
    <path d="M 198.526726 214.554331 
L 198.603887 214.409547 
L 198.613011 214.308155 
L 198.453995 213.811137 
L 166.53142 134.512503 
L 158.371064 120.041637 
L 125.835097 70.628499 
L 117.424661 59.580781 
L 116.288537 61.372983 
L 120.682923 67.145328 
L 155.512376 120.041637 
L 162.467781 132.375747 
L 189.676694 199.965208 
L 192.798219 209.721826 
L 192.619114 211.712176 
L 191.104424 214.554331 
z
M 37.121653 186.256361 
L 97.122622 211.485099 
L 112.548047 214.554331 
L 123.843521 214.554331 
L 95.492234 208.913211 
L 38.065803 184.766994 
z
" clip-path="url(#pfea75043b5)" style="fill: #1e9c89; fill-opacity: 0.7"/>
    <path d="M 201.917693 214.554331 
L 200.77923 211.629536 
L 170.59506 136.649259 
L 161.229752 120.041637 
L 130.98727 74.11167 
L 118.560786 57.788579 
L 117.424661 59.580781 
L 125.835097 70.628499 
L 158.371064 120.041637 
L 166.53142 134.512503 
L 198.453995 213.811137 
L 198.613011 214.308155 
L 198.603887 214.409547 
L 198.526726 214.554331 
L 198.925125 214.554331 
z
M 36.177504 187.745728 
L 98.75301 214.056987 
L 101.252574 214.554331 
L 112.548047 214.554331 
L 97.122622 211.485099 
L 37.121653 186.256361 
z
" clip-path="url(#pfea75043b5)" style="fill: #1fa187; fill-opacity: 0.7"/>
    <path d="M 205.08 214.554331 
L 202.738501 208.538845 
L 174.658699 138.786016 
L 164.088439 120.041637 
L 136.139444 77.594841 
L 119.69691 55.996377 
L 118.560786 57.788579 
L 130.98727 74.11167 
L 161.229752 120.041637 
L 170.59506 136.649259 
L 200.77923 211.629536 
L 201.917693 214.554331 
z
M 35.233355 189.235095 
L 95.449554 214.554331 
L 99.068289 214.554331 
L 101.252574 214.554331 
L 98.75301 214.056987 
L 36.177504 187.745728 
z
" clip-path="url(#pfea75043b5)" style="fill: #22a785; fill-opacity: 0.7"/>
    <path d="M 208.242308 214.554331 
L 204.697772 205.448155 
L 178.722339 140.922772 
L 166.947127 120.041637 
L 141.291618 81.078012 
L 120.833034 54.204175 
L 119.69691 55.996377 
L 136.139444 77.594841 
L 164.088439 120.041637 
L 174.658699 138.786016 
L 202.738501 208.538845 
L 205.08 214.554331 
z
M 34.289206 190.724461 
L 90.963275 214.554331 
L 95.449554 214.554331 
L 35.233355 189.235095 
z
" clip-path="url(#pfea75043b5)" style="fill: #27ad81; fill-opacity: 0.7"/>
    <path d="M 211.404615 214.554331 
L 206.657042 202.357464 
L 182.785978 143.059529 
L 169.805815 120.041637 
L 146.443792 84.561183 
L 121.969159 52.411973 
L 120.833034 54.204175 
L 141.291618 81.078012 
L 166.947127 120.041637 
L 178.722339 140.922772 
L 204.697772 205.448155 
L 208.242308 214.554331 
z
M 33.345057 192.213828 
L 86.476997 214.554331 
L 90.963275 214.554331 
L 34.289206 190.724461 
z
" clip-path="url(#pfea75043b5)" style="fill: #2eb37c; fill-opacity: 0.7"/>
    <path d="M 214.566923 214.554331 
L 208.616313 199.266773 
L 186.849618 145.196285 
L 172.664503 120.041637 
L 151.595966 88.044355 
L 123.105283 50.619771 
L 121.969159 52.411973 
L 146.443792 84.561183 
L 169.805815 120.041637 
L 182.785978 143.059529 
L 206.657042 202.357464 
L 211.404615 214.554331 
z
M 32.400908 193.703195 
L 81.990718 214.554331 
L 86.476997 214.554331 
L 33.345057 192.213828 
z
" clip-path="url(#pfea75043b5)" style="fill: #37b878; fill-opacity: 0.7"/>
    <path d="M 217.72923 214.554331 
L 210.575584 196.176083 
L 190.913257 147.333041 
L 175.523191 120.041637 
L 156.74814 91.527526 
L 124.241407 48.827569 
L 123.105283 50.619771 
L 151.595966 88.044355 
L 172.664503 120.041637 
L 186.849618 145.196285 
L 208.616313 199.266773 
L 214.566923 214.554331 
z
M 31.456759 195.192562 
L 77.50444 214.554331 
L 81.990718 214.554331 
L 32.400908 193.703195 
z
" clip-path="url(#pfea75043b5)" style="fill: #40bd72; fill-opacity: 0.7"/>
    <path d="M 220.891537 214.554331 
L 212.534854 193.085392 
L 194.976897 149.469798 
L 178.381879 120.041637 
L 161.900313 95.010697 
L 125.377532 47.035367 
L 124.241407 48.827569 
L 156.74814 91.527526 
L 175.523191 120.041637 
L 190.913257 147.333041 
L 210.575584 196.176083 
L 217.72923 214.554331 
z
M 30.51261 196.681929 
L 73.018162 214.554331 
L 77.50444 214.554331 
L 31.456759 195.192562 
z
" clip-path="url(#pfea75043b5)" style="fill: #4ec36b; fill-opacity: 0.7"/>
    <path d="M 224.053845 214.554331 
L 214.494125 189.994702 
L 199.040536 151.606554 
L 181.240566 120.041637 
L 167.052487 98.493868 
L 126.513656 45.243165 
L 125.377532 47.035367 
L 161.900313 95.010697 
L 178.381879 120.041637 
L 194.976897 149.469798 
L 212.534854 193.085392 
L 220.891537 214.554331 
z
M 29.568461 198.171296 
L 68.531883 214.554331 
L 73.018162 214.554331 
L 30.51261 196.681929 
z
" clip-path="url(#pfea75043b5)" style="fill: #5ac864; fill-opacity: 0.7"/>
    <path d="M 227.216152 214.554331 
L 216.453396 186.904011 
L 203.104175 153.74331 
L 184.099254 120.041637 
L 172.204661 101.977039 
L 127.64978 43.450963 
L 126.513656 45.243165 
L 167.052487 98.493868 
L 181.240566 120.041637 
L 199.040536 151.606554 
L 214.494125 189.994702 
L 224.053845 214.554331 
z
M 28.624311 199.660662 
L 64.045605 214.554331 
L 68.531883 214.554331 
L 29.568461 198.171296 
z
" clip-path="url(#pfea75043b5)" style="fill: #67cc5c; fill-opacity: 0.7"/>
    <path d="M 230.37846 214.554331 
L 218.412667 183.81332 
L 207.167815 155.880067 
L 186.957942 120.041637 
L 177.356835 105.46021 
L 128.785905 41.658761 
L 127.64978 43.450963 
L 172.204661 101.977039 
L 184.099254 120.041637 
L 203.104175 153.74331 
L 216.453396 186.904011 
L 227.216152 214.554331 
z
M 27.680162 201.150029 
L 59.559326 214.554331 
L 64.045605 214.554331 
L 28.624311 199.660662 
z
" clip-path="url(#pfea75043b5)" style="fill: #75d054; fill-opacity: 0.7"/>
    <path d="M 233.540767 214.554331 
L 220.371937 180.72263 
L 211.231454 158.016823 
L 189.81663 120.041637 
L 182.509009 108.943381 
L 129.922029 39.866559 
L 128.785905 41.658761 
L 177.356835 105.46021 
L 186.957942 120.041637 
L 207.167815 155.880067 
L 218.412667 183.81332 
L 230.37846 214.554331 
z
M 26.736013 202.639396 
L 55.073048 214.554331 
L 59.559326 214.554331 
L 27.680162 201.150029 
z
" clip-path="url(#pfea75043b5)" style="fill: #86d549; fill-opacity: 0.7"/>
    <path d="M 236.703075 214.554331 
L 222.331208 177.631939 
L 215.295094 160.153579 
L 192.675318 120.041637 
L 187.661183 112.426552 
L 131.058153 38.074357 
L 129.922029 39.866559 
L 182.509009 108.943381 
L 189.81663 120.041637 
L 211.231454 158.016823 
L 220.371937 180.72263 
L 233.540767 214.554331 
z
M 25.791864 204.128763 
L 50.586769 214.554331 
L 55.073048 214.554331 
L 26.736013 202.639396 
z
" clip-path="url(#pfea75043b5)" style="fill: #95d840; fill-opacity: 0.7"/>
    <path d="M 239.865382 214.554331 
L 224.290479 174.541248 
L 219.358733 162.290336 
L 195.534005 120.041637 
L 192.813356 115.909724 
L 132.194278 36.282155 
L 131.058153 38.074357 
L 187.661183 112.426552 
L 192.675318 120.041637 
L 215.295094 160.153579 
L 222.331208 177.631939 
L 236.703075 214.554331 
z
M 24.847715 205.61813 
L 46.100491 214.554331 
L 50.586769 214.554331 
L 25.791864 204.128763 
z
" clip-path="url(#pfea75043b5)" style="fill: #a5db36; fill-opacity: 0.7"/>
    <path d="M 243.02769 214.554331 
L 226.249749 171.450558 
L 223.422373 164.427092 
L 198.392693 120.041637 
L 197.96553 119.392895 
L 133.330402 34.489953 
L 132.194278 36.282155 
L 192.813356 115.909724 
L 195.534005 120.041637 
L 219.358733 162.290336 
L 224.290479 174.541248 
L 239.865382 214.554331 
z
M 23.903566 207.107497 
L 41.614213 214.554331 
L 46.100491 214.554331 
L 24.847715 205.61813 
z
" clip-path="url(#pfea75043b5)" style="fill: #b5de2b; fill-opacity: 0.7"/>
    <path d="M 246.189997 214.554331 
L 228.20902 168.359867 
L 227.486012 166.563848 
L 219.988829 153.268996 
L 198.925125 120.041637 
L 188.796831 104.064558 
L 134.466526 32.697751 
L 133.330402 34.489953 
L 197.96553 119.392895 
L 198.392693 120.041637 
L 223.422373 164.427092 
L 226.249749 171.450558 
L 243.02769 214.554331 
z
M 22.959417 208.596863 
L 37.127934 214.554331 
L 41.614213 214.554331 
L 23.903566 207.107497 
z
" clip-path="url(#pfea75043b5)" style="fill: #c8e020; fill-opacity: 0.7"/>
    <path d="M 249.352305 214.554331 
L 234.260261 175.781751 
L 228.882176 167.297984 
L 219.988829 153.268996 
L 227.486012 166.563848 
L 228.20902 168.359867 
L 246.189997 214.554331 
z
M 176.350379 84.430654 
L 135.602651 30.905549 
L 134.466526 32.697751 
L 188.796831 104.064558 
z
M 22.015268 210.08623 
L 32.641656 214.554331 
L 37.127934 214.554331 
L 22.959417 208.596863 
z
" clip-path="url(#pfea75043b5)" style="fill: #d8e219; fill-opacity: 0.7"/>
    <path d="M 252.514612 214.554331 
L 242.453249 188.705944 
L 234.260261 175.781751 
L 249.352305 214.554331 
z
M 163.903927 64.796751 
L 136.738775 29.113347 
L 135.602651 30.905549 
L 176.350379 84.430654 
z
M 21.071119 211.575597 
L 28.155377 214.554331 
L 32.641656 214.554331 
L 22.015268 210.08623 
z
" clip-path="url(#pfea75043b5)" style="fill: #e7e419; fill-opacity: 0.7"/>
    <path d="M 255.676919 214.554331 
L 250.646238 201.630137 
L 242.453249 188.705944 
L 252.514612 214.554331 
z
M 151.457476 45.162847 
L 137.874899 27.321145 
L 136.738775 29.113347 
L 163.903927 64.796751 
z
M 20.126969 213.064964 
L 23.669099 214.554331 
L 28.155377 214.554331 
L 21.071119 211.575597 
z
" clip-path="url(#pfea75043b5)" style="fill: #f6e620; fill-opacity: 0.7"/>
    <path d="M 250.646238 201.630137 
L 255.676919 214.554331 
L 258.839227 214.554331 
z
M 137.874899 27.321145 
L 151.457476 45.162847 
L 139.011024 25.528943 
z
M 23.669099 214.554331 
L 20.126969 213.064964 
L 19.18282 214.554331 
z
" clip-path="url(#pfea75043b5)" style="fill: #fde725; fill-opacity: 0.7"/>
   </g>
   <g id="matplotlib.axis_1"/>
   <g id="matplotlib.axis_2"/>
   <g id="line2d_1">
    <path d="M 139.011024 214.554331 
L 185.098794 214.554331 
" clip-path="url(#pfea75043b5)" style="fill: none; stroke: #555555; stroke-opacity: 0.9; stroke-width: 0.5; stroke-linecap: square"/>
   </g>
   <g id="line2d_2">
    <path d="M 79.096922 120.041637 
L 99.068289 88.537406 
" clip-path="url(#pfea75043b5)" style="fill: none; stroke: #555555; stroke-opacity: 0.9; stroke-width: 0.5; stroke-linecap: square"/>
   </g>
   <g id="line2d_3">
    <path d="M 99.068289 88.537406 
L 115.045383 63.334021 
" clip-path="url(#pfea75043b5)" style="fill: none; stroke: #555555; stroke-opacity: 0.9; stroke-width: 0.5; stroke-linecap: square"/>
   </g>
   <g id="line2d_4">
    <path d="M 99.068289 214.554331 
L 19.18282 214.554331 
" clip-path="url(#pfea75043b5)" style="fill: none; stroke: #555555; stroke-opacity: 0.9; stroke-width: 0.5; stroke-linecap: square"/>
   </g>
   <g id="line2d_5">
    <path d="M 198.925125 120.041637 
L 228.882176 167.297984 
" clip-path="url(#pfea75043b5)" style="fill: none; stroke: #555555; stroke-opacity: 0.9; stroke-width: 0.5; stroke-linecap: square"/>
   </g>
   <g id="line2d_6">
    <path d="M 139.011024 120.041637 
L 198.925125 214.554331 
" clip-path="url(#pfea75043b5)" style="fill: none; stroke: #555555; stroke-opacity: 0.9; stroke-width: 0.5; stroke-linecap: square"/>
   </g>
   <g id="line2d_7">
    <path d="M 198.925125 214.554331 
L 59.125555 151.545868 
" clip-path="url(#pfea75043b5)" style="fill: none; stroke: #555555; stroke-opacity: 0.9; stroke-width: 0.5; stroke-linecap: square"/>
   </g>
   <g id="line2d_8">
    <path d="M 198.925125 120.041637 
L 139.011024 120.041637 
" clip-path="url(#pfea75043b5)" style="fill: none; stroke: #555555; stroke-opacity: 0.9; stroke-width: 0.5; stroke-linecap: square"/>
   </g>
   <g id="line2d_9">
    <path d="M 198.925125 214.554331 
L 185.098794 214.554331 
" clip-path="url(#pfea75043b5)" style="fill: none; stroke: #555555; stroke-opacity: 0.9; stroke-width: 0.5; stroke-linecap: square"/>
   </g>
   <g id="line2d_10">
    <path d="M 228.882176 167.297984 
L 139.011024 120.041637 
" clip-path="url(#pfea75043b5)" style="fill: none; stroke: #555555; stroke-opacity: 0.9; stroke-width: 0.5; stroke-linecap: square"/>
   </g>
   <g id="line2d_11">
    <path d="M 59.125555 151.545868 
L 185.098794 214.554331 
" clip-path="url(#pfea75043b5)" style="fill: none; stroke: #555555; stroke-opacity: 0.9; stroke-width: 0.5; stroke-linecap: square"/>
   </g>
   <g id="line2d_12">
    <path d="M 198.925125 120.041637 
L 139.011024 25.528943 
" clip-path="url(#pfea75043b5)" style="fill: none; stroke: #555555; stroke-opacity: 0.9; stroke-width: 0.5; stroke-linecap: square"/>
   </g>
   <g id="line2d_13">
    <path d="M 115.045383 63.334021 
L 139.011024 120.041637 
" clip-path="url(#pfea75043b5)" style="fill: none; stroke: #555555; stroke-opacity: 0.9; stroke-width: 0.5; stroke-linecap: square"/>
   </g>
   <g id="line2d_14">
    <path d="M 115.045383 63.334021 
L 139.011024 25.528943 
" clip-path="url(#pfea75043b5)" style="fill: none; stroke: #555555; stroke-opacity: 0.9; stroke-width: 0.5; stroke-linecap: square"/>
   </g>
   <g id="line2d_15">
    <path d="M 79.096922 120.041637 
L 198.925125 214.554331 
" clip-path="url(#pfea75043b5)" style="fill: none; stroke: #555555; stroke-opacity: 0.9; stroke-width: 0.5; stroke-linecap: square"/>
   </g>
   <g id="line2d_16">
    <path d="M 99.068289 88.537406 
L 139.011024 120.041637 
" clip-path="url(#pfea75043b5)" style="fill: none; stroke: #555555; stroke-opacity: 0.9; stroke-width: 0.5; stroke-linecap: square"/>
   </g>
   <g id="line2d_17">
    <path d="M 59.125555 151.545868 
L 19.18282 214.554331 
" clip-path="url(#pfea75043b5)" style="fill: none; stroke: #555555; stroke-opacity: 0.9; stroke-width: 0.5; stroke-linecap: square"/>
   </g>
   <g id="line2d_18">
    <path d="M 139.011024 214.554331 
L 99.068289 214.554331 
" clip-path="url(#pfea75043b5)" style="fill: none; stroke: #555555; stroke-opacity: 0.9; stroke-width: 0.5; stroke-linecap: square"/>
   </g>
   <g id="line2d_19">
    <path d="M 79.096922 120.041637 
L 59.125555 151.545868 
" clip-path="url(#pfea75043b5)" style="fill: none; stroke: #555555; stroke-opacity: 0.9; stroke-width: 0.5; stroke-linecap: square"/>
   </g>
   <g id="line2d_20">
    <path d="M 79.096922 120.041637 
L 139.011024 120.041637 
" clip-path="url(#pfea75043b5)" style="fill: none; stroke: #555555; stroke-opacity: 0.9; stroke-width: 0.5; stroke-linecap: square"/>
   </g>
   <g id="line2d_21">
    <path d="M 198.925125 120.041637 
L 115.045383 63.334021 
" clip-path="url(#pfea75043b5)" style="fill: none; stroke: #555555; stroke-opacity: 0.9; stroke-width: 0.5; stroke-linecap: square"/>
   </g>
   <g id="line2d_22">
    <path d="M 198.925125 214.554331 
L 258.839227 214.554331 
" clip-path="url(#pfea75043b5)" style="fill: none; stroke: #555555; stroke-opacity: 0.9; stroke-width: 0.5; stroke-linecap: square"/>
   </g>
   <g id="line2d_23">
    <path d="M 228.882176 167.297984 
L 198.925125 214.554331 
" clip-path="url(#pfea75043b5)" style="fill: none; stroke: #555555; stroke-opacity: 0.9; stroke-width: 0.5; stroke-linecap: square"/>
   </g>
   <g id="line2d_24">
    <path d="M 59.125555 151.545868 
L 99.068289 214.554331 
" clip-path="url(#pfea75043b5)" style="fill: none; stroke: #555555; stroke-opacity: 0.9; stroke-width: 0.5; stroke-linecap: square"/>
   </g>
   <g id="line2d_25">
    <path d="M 228.882176 167.297984 
L 258.839227 214.554331 
" clip-path="url(#pfea75043b5)" style="fill: none; stroke: #555555; stroke-opacity: 0.9; stroke-width: 0.5; stroke-linecap: square"/>
   </g>
   <g id="line2d_26">
    <path d="M 139.011024 214.554331 
L 59.125555 151.545868 
" clip-path="url(#pfea75043b5)" style="fill: none; stroke: #555555; stroke-opacity: 0.9; stroke-width: 0.5; stroke-linecap: square"/>
   </g>
   <g id="PathCollection_1">
    <defs>
     <path id="m9856df1a62" d="M 0 2.738613 
C 0.726289 2.738613 1.422928 2.450055 1.936492 1.936492 
C 2.450055 1.422928 2.738613 0.726289 2.738613 0 
C 2.738613 -0.726289 2.450055 -1.422928 1.936492 -1.936492 
C 1.422928 -2.450055 0.726289 -2.738613 0 -2.738613 
C -0.726289 -2.738613 -1.422928 -2.450055 -1.936492 -1.936492 
C -2.450055 -1.422928 -2.738613 -0.726289 -2.738613 0 
C -2.738613 0.726289 -2.450055 1.422928 -1.936492 1.936492 
C -1.422928 2.450055 -0.726289 2.738613 0 2.738613 
z
" style="stroke: #008000"/>
    </defs>
    <g clip-path="url(#pfea75043b5)">
     <use xlink:href="#m9856df1a62" x="139.011024" y="214.554331" style="fill: #008000; stroke: #008000"/>
     <use xlink:href="#m9856df1a62" x="185.098794" y="214.554331" style="fill: #008000; stroke: #008000"/>
     <use xlink:href="#m9856df1a62" x="79.096922" y="120.041637" style="fill: #008000; stroke: #008000"/>
     <use xlink:href="#m9856df1a62" x="99.068289" y="88.537406" style="fill: #008000; stroke: #008000"/>
     <use xlink:href="#m9856df1a62" x="115.045383" y="63.334021" style="fill: #008000; stroke: #008000"/>
     <use xlink:href="#m9856df1a62" x="99.068289" y="214.554331" style="fill: #008000; stroke: #008000"/>
     <use xlink:href="#m9856df1a62" x="19.18282" y="214.554331" style="fill: #008000; stroke: #008000"/>
     <use xlink:href="#m9856df1a62" x="198.925125" y="120.041637" style="fill: #008000; stroke: #008000"/>
     <use xlink:href="#m9856df1a62" x="228.882176" y="167.297984" style="fill: #008000; stroke: #008000"/>
     <use xlink:href="#m9856df1a62" x="139.011024" y="120.041637" style="fill: #008000; stroke: #008000"/>
     <use xlink:href="#m9856df1a62" x="198.925125" y="214.554331" style="fill: #008000; stroke: #008000"/>
     <use xlink:href="#m9856df1a62" x="59.125555" y="151.545868" style="fill: #008000; stroke: #008000"/>
     <use xlink:href="#m9856df1a62" x="139.011024" y="25.528943" style="fill: #008000; stroke: #008000"/>
     <use xlink:href="#m9856df1a62" x="258.839227" y="214.554331" style="fill: #008000; stroke: #008000"/>
    </g>
   </g>
   <g id="PathCollection_2">
    <defs>
     <path id="m21de03877b" d="M -0 2.236068 
L 1.341641 0 
L 0 -2.236068 
L -1.341641 -0 
z
" style="stroke: #d3d3d3"/>
    </defs>
    <g clip-path="url(#pfea75043b5)">
     <use xlink:href="#m21de03877b" x="139.011024" y="25.528943" style="fill: #d3d3d3; stroke: #d3d3d3"/>
     <use xlink:href="#m21de03877b" x="139.011024" y="25.528943" style="fill: #d3d3d3; stroke: #d3d3d3"/>
     <use xlink:href="#m21de03877b" x="139.011024" y="25.528943" style="fill: #d3d3d3; stroke: #d3d3d3"/>
     <use xlink:href="#m21de03877b" x="258.839227" y="214.554331" style="fill: #d3d3d3; stroke: #d3d3d3"/>
     <use xlink:href="#m21de03877b" x="258.839227" y="214.554331" style="fill: #d3d3d3; stroke: #d3d3d3"/>
     <use xlink:href="#m21de03877b" x="258.839227" y="214.554331" style="fill: #d3d3d3; stroke: #d3d3d3"/>
     <use xlink:href="#m21de03877b" x="258.839227" y="214.554331" style="fill: #d3d3d3; stroke: #d3d3d3"/>
     <use xlink:href="#m21de03877b" x="258.839227" y="214.554331" style="fill: #d3d3d3; stroke: #d3d3d3"/>
     <use xlink:href="#m21de03877b" x="258.839227" y="214.554331" style="fill: #d3d3d3; stroke: #d3d3d3"/>
     <use xlink:href="#m21de03877b" x="258.839227" y="214.554331" style="fill: #d3d3d3; stroke: #d3d3d3"/>
     <use xlink:href="#m21de03877b" x="198.925125" y="120.041637" style="fill: #d3d3d3; stroke: #d3d3d3"/>
     <use xlink:href="#m21de03877b" x="198.925125" y="120.041637" style="fill: #d3d3d3; stroke: #d3d3d3"/>
     <use xlink:href="#m21de03877b" x="168.968074" y="72.78529" style="fill: #d3d3d3; stroke: #d3d3d3"/>
     <use xlink:href="#m21de03877b" x="168.968074" y="72.78529" style="fill: #d3d3d3; stroke: #d3d3d3"/>
     <use xlink:href="#m21de03877b" x="168.968074" y="72.78529" style="fill: #d3d3d3; stroke: #d3d3d3"/>
     <use xlink:href="#m21de03877b" x="162.976664" y="63.334021" style="fill: #d3d3d3; stroke: #d3d3d3"/>
     <use xlink:href="#m21de03877b" x="234.873586" y="176.749253" style="fill: #d3d3d3; stroke: #d3d3d3"/>
     <use xlink:href="#m21de03877b" x="19.18282" y="214.554331" style="fill: #d3d3d3; stroke: #d3d3d3"/>
     <use xlink:href="#m21de03877b" x="19.18282" y="214.554331" style="fill: #d3d3d3; stroke: #d3d3d3"/>
     <use xlink:href="#m21de03877b" x="19.18282" y="214.554331" style="fill: #d3d3d3; stroke: #d3d3d3"/>
     <use xlink:href="#m21de03877b" x="19.18282" y="214.554331" style="fill: #d3d3d3; stroke: #d3d3d3"/>
     <use xlink:href="#m21de03877b" x="19.18282" y="214.554331" style="fill: #d3d3d3; stroke: #d3d3d3"/>
     <use xlink:href="#m21de03877b" x="19.18282" y="214.554331" style="fill: #d3d3d3; stroke: #d3d3d3"/>
     <use xlink:href="#m21de03877b" x="19.18282" y="214.554331" style="fill: #d3d3d3; stroke: #d3d3d3"/>
     <use xlink:href="#m21de03877b" x="19.18282" y="214.554331" style="fill: #d3d3d3; stroke: #d3d3d3"/>
     <use xlink:href="#m21de03877b" x="19.18282" y="214.554331" style="fill: #d3d3d3; stroke: #d3d3d3"/>
     <use xlink:href="#m21de03877b" x="79.096922" y="120.041637" style="fill: #d3d3d3; stroke: #d3d3d3"/>
     <use xlink:href="#m21de03877b" x="99.068289" y="88.537406" style="fill: #d3d3d3; stroke: #d3d3d3"/>
     <use xlink:href="#m21de03877b" x="99.068289" y="88.537406" style="fill: #d3d3d3; stroke: #d3d3d3"/>
     <use xlink:href="#m21de03877b" x="109.053973" y="72.78529" style="fill: #d3d3d3; stroke: #d3d3d3"/>
     <use xlink:href="#m21de03877b" x="115.045383" y="63.334021" style="fill: #d3d3d3; stroke: #d3d3d3"/>
     <use xlink:href="#m21de03877b" x="139.011024" y="214.554331" style="fill: #d3d3d3; stroke: #d3d3d3"/>
     <use xlink:href="#m21de03877b" x="198.925125" y="214.554331" style="fill: #d3d3d3; stroke: #d3d3d3"/>
     <use xlink:href="#m21de03877b" x="198.925125" y="214.554331" style="fill: #d3d3d3; stroke: #d3d3d3"/>
     <use xlink:href="#m21de03877b" x="198.925125" y="214.554331" style="fill: #d3d3d3; stroke: #d3d3d3"/>
     <use xlink:href="#m21de03877b" x="210.907946" y="214.554331" style="fill: #d3d3d3; stroke: #d3d3d3"/>
     <use xlink:href="#m21de03877b" x="99.068289" y="214.554331" style="fill: #d3d3d3; stroke: #d3d3d3"/>
     <use xlink:href="#m21de03877b" x="99.068289" y="214.554331" style="fill: #d3d3d3; stroke: #d3d3d3"/>
     <use xlink:href="#m21de03877b" x="49.139871" y="167.297984" style="fill: #d3d3d3; stroke: #d3d3d3"/>
     <use xlink:href="#m21de03877b" x="106.330605" y="77.081322" style="fill: #d3d3d3; stroke: #d3d3d3"/>
     <use xlink:href="#m21de03877b" x="79.096922" y="214.554331" style="fill: #d3d3d3; stroke: #d3d3d3"/>
     <use xlink:href="#m21de03877b" x="79.096922" y="214.554331" style="fill: #d3d3d3; stroke: #d3d3d3"/>
     <use xlink:href="#m21de03877b" x="115.045383" y="214.554331" style="fill: #d3d3d3; stroke: #d3d3d3"/>
     <use xlink:href="#m21de03877b" x="208.385247" y="214.554331" style="fill: #d3d3d3; stroke: #d3d3d3"/>
     <use xlink:href="#m21de03877b" x="102.140807" y="200.013916" style="fill: #d3d3d3; stroke: #d3d3d3"/>
    </g>
   </g>
   <g id="PathCollection_3">
    <defs>
     <path id="m60f7e0fd92" d="M 0 -5 
L -1.12257 -1.545085 
L -4.755283 -1.545085 
L -1.816356 0.59017 
L -2.938926 4.045085 
L -0 1.90983 
L 2.938926 4.045085 
L 1.816356 0.59017 
L 4.755283 -1.545085 
L 1.12257 -1.545085 
z
" style="stroke: #0000ff"/>
    </defs>
    <g clip-path="url(#pfea75043b5)">
     <use xlink:href="#m60f7e0fd92" x="102.140807" y="200.013916" style="fill: #0000ff; stroke: #0000ff"/>
    </g>
   </g>
   <g id="text_1">
    <!-- $\mathrm{AlCu}$ -->
    <g transform="translate(126.856478 211.215873) scale(0.1 -0.1)">
     <defs>
      <path id="DejaVuSans-41" d="M 2188 4044 
L 1331 1722 
L 3047 1722 
L 2188 4044 
z
M 1831 4666 
L 2547 4666 
L 4325 0 
L 3669 0 
L 3244 1197 
L 1141 1197 
L 716 0 
L 50 0 
L 1831 4666 
z
" transform="scale(0.015625)"/>
      <path id="DejaVuSans-6c" d="M 603 4863 
L 1178 4863 
L 1178 0 
L 603 0 
L 603 4863 
z
" transform="scale(0.015625)"/>
      <path id="DejaVuSans-43" d="M 4122 4306 
L 4122 3641 
Q 3803 3938 3442 4084 
Q 3081 4231 2675 4231 
Q 1875 4231 1450 3742 
Q 1025 3253 1025 2328 
Q 1025 1406 1450 917 
Q 1875 428 2675 428 
Q 3081 428 3442 575 
Q 3803 722 4122 1019 
L 4122 359 
Q 3791 134 3420 21 
Q 3050 -91 2638 -91 
Q 1578 -91 968 557 
Q 359 1206 359 2328 
Q 359 3453 968 4101 
Q 1578 4750 2638 4750 
Q 3056 4750 3426 4639 
Q 3797 4528 4122 4306 
z
" transform="scale(0.015625)"/>
      <path id="DejaVuSans-75" d="M 544 1381 
L 544 3500 
L 1119 3500 
L 1119 1403 
Q 1119 906 1312 657 
Q 1506 409 1894 409 
Q 2359 409 2629 706 
Q 2900 1003 2900 1516 
L 2900 3500 
L 3475 3500 
L 3475 0 
L 2900 0 
L 2900 538 
Q 2691 219 2414 64 
Q 2138 -91 1772 -91 
Q 1169 -91 856 284 
Q 544 659 544 1381 
z
M 1991 3584 
L 1991 3584 
z
" transform="scale(0.015625)"/>
     </defs>
     <use xlink:href="#DejaVuSans-41" transform="translate(0 0.015625)"/>
     <use xlink:href="#DejaVuSans-6c" transform="translate(68.408203 0.015625)"/>
     <use xlink:href="#DejaVuSans-43" transform="translate(96.191406 0.015625)"/>
     <use xlink:href="#DejaVuSans-75" transform="translate(166.015625 0.015625)"/>
    </g>
   </g>
   <g id="text_2">
    <!-- $\mathrm{Al_{4}Cu_{9}}$ -->
    <g transform="translate(160.944249 210.594971) scale(0.1 -0.1)">
     <defs>
      <path id="DejaVuSans-34" d="M 2419 4116 
L 825 1625 
L 2419 1625 
L 2419 4116 
z
M 2253 4666 
L 3047 4666 
L 3047 1625 
L 3713 1625 
L 3713 1100 
L 3047 1100 
L 3047 0 
L 2419 0 
L 2419 1100 
L 313 1100 
L 313 1709 
L 2253 4666 
z
" transform="scale(0.015625)"/>
      <path id="DejaVuSans-39" d="M 703 97 
L 703 672 
Q 941 559 1184 500 
Q 1428 441 1663 441 
Q 2288 441 2617 861 
Q 2947 1281 2994 2138 
Q 2813 1869 2534 1725 
Q 2256 1581 1919 1581 
Q 1219 1581 811 2004 
Q 403 2428 403 3163 
Q 403 3881 828 4315 
Q 1253 4750 1959 4750 
Q 2769 4750 3195 4129 
Q 3622 3509 3622 2328 
Q 3622 1225 3098 567 
Q 2575 -91 1691 -91 
Q 1453 -91 1209 -44 
Q 966 3 703 97 
z
M 1959 2075 
Q 2384 2075 2632 2365 
Q 2881 2656 2881 3163 
Q 2881 3666 2632 3958 
Q 2384 4250 1959 4250 
Q 1534 4250 1286 3958 
Q 1038 3666 1038 3163 
Q 1038 2656 1286 2365 
Q 1534 2075 1959 2075 
z
" transform="scale(0.015625)"/>
     </defs>
     <use xlink:href="#DejaVuSans-41" transform="translate(0 0.015625)"/>
     <use xlink:href="#DejaVuSans-6c" transform="translate(68.408203 0.015625)"/>
     <use xlink:href="#DejaVuSans-34" transform="translate(97.148438 -16.390625) scale(0.7)"/>
     <use xlink:href="#DejaVuSans-43" transform="translate(144.418945 0.015625)"/>
     <use xlink:href="#DejaVuSans-75" transform="translate(214.243164 0.015625)"/>
     <use xlink:href="#DejaVuSans-39" transform="translate(278.579102 -16.390625) scale(0.7)"/>
    </g>
   </g>
   <g id="text_3">
    <!-- $\mathrm{AlAu}$ -->
    <g transform="translate(61.151467 127.6151) scale(0.1 -0.1)">
     <use xlink:href="#DejaVuSans-41" transform="translate(0 0.015625)"/>
     <use xlink:href="#DejaVuSans-6c" transform="translate(68.408203 0.015625)"/>
     <use xlink:href="#DejaVuSans-41" transform="translate(96.191406 0.015625)"/>
     <use xlink:href="#DejaVuSans-75" transform="translate(164.599609 0.015625)"/>
    </g>
   </g>
   <g id="text_4">
    <!-- $\mathrm{AlAu_{2}}$ -->
    <g transform="translate(77.363744 97.435289) scale(0.1 -0.1)">
     <defs>
      <path id="DejaVuSans-32" d="M 1228 531 
L 3431 531 
L 3431 0 
L 469 0 
L 469 531 
Q 828 903 1448 1529 
Q 2069 2156 2228 2338 
Q 2531 2678 2651 2914 
Q 2772 3150 2772 3378 
Q 2772 3750 2511 3984 
Q 2250 4219 1831 4219 
Q 1534 4219 1204 4116 
Q 875 4013 500 3803 
L 500 4441 
Q 881 4594 1212 4672 
Q 1544 4750 1819 4750 
Q 2544 4750 2975 4387 
Q 3406 4025 3406 3419 
Q 3406 3131 3298 2873 
Q 3191 2616 2906 2266 
Q 2828 2175 2409 1742 
Q 1991 1309 1228 531 
z
" transform="scale(0.015625)"/>
     </defs>
     <use xlink:href="#DejaVuSans-41" transform="translate(0 0.015625)"/>
     <use xlink:href="#DejaVuSans-6c" transform="translate(68.408203 0.015625)"/>
     <use xlink:href="#DejaVuSans-41" transform="translate(96.191406 0.015625)"/>
     <use xlink:href="#DejaVuSans-75" transform="translate(164.599609 0.015625)"/>
     <use xlink:href="#DejaVuSans-32" transform="translate(228.935547 -16.390625) scale(0.7)"/>
    </g>
   </g>
   <g id="text_5">
    <!-- $\mathrm{AlAu_{4}}$ -->
    <g transform="translate(93.340838 72.231904) scale(0.1 -0.1)">
     <use xlink:href="#DejaVuSans-41" transform="translate(0 0.015625)"/>
     <use xlink:href="#DejaVuSans-6c" transform="translate(68.408203 0.015625)"/>
     <use xlink:href="#DejaVuSans-41" transform="translate(96.191406 0.015625)"/>
     <use xlink:href="#DejaVuSans-75" transform="translate(164.599609 0.015625)"/>
     <use xlink:href="#DejaVuSans-34" transform="translate(228.935547 -16.390625) scale(0.7)"/>
    </g>
   </g>
   <g id="text_6">
    <!-- $\mathrm{Al_{2}Cu}$ -->
    <g transform="translate(83.551946 210.544971) scale(0.1 -0.1)">
     <use xlink:href="#DejaVuSans-41" transform="translate(0 0.015625)"/>
     <use xlink:href="#DejaVuSans-6c" transform="translate(68.408203 0.015625)"/>
     <use xlink:href="#DejaVuSans-32" transform="translate(97.148438 -16.390625) scale(0.7)"/>
     <use xlink:href="#DejaVuSans-43" transform="translate(144.418945 0.015625)"/>
     <use xlink:href="#DejaVuSans-75" transform="translate(214.243164 0.015625)"/>
    </g>
   </g>
   <g id="text_7">
    <!-- $\mathrm{Al}$ -->
    <g transform="translate(19.586902 211.839411) scale(0.1 -0.1)">
     <use xlink:href="#DejaVuSans-41" transform="translate(0 0.015625)"/>
     <use xlink:href="#DejaVuSans-6c" transform="translate(68.408203 0.015625)"/>
    </g>
   </g>
   <g id="text_8">
    <!-- $\mathrm{CuAu}$ -->
    <g transform="translate(178.475125 127.6151) scale(0.1 -0.1)">
     <use xlink:href="#DejaVuSans-43" transform="translate(0 0.78125)"/>
     <use xlink:href="#DejaVuSans-75" transform="translate(69.824219 0.78125)"/>
     <use xlink:href="#DejaVuSans-41" transform="translate(133.203125 0.78125)"/>
     <use xlink:href="#DejaVuSans-75" transform="translate(201.611328 0.78125)"/>
    </g>
   </g>
   <g id="text_9">
    <!-- $\mathrm{Cu_{3}Au}$ -->
    <g transform="translate(204.01854 175.572328) scale(0.1 -0.1)">
     <defs>
      <path id="DejaVuSans-33" d="M 2597 2516 
Q 3050 2419 3304 2112 
Q 3559 1806 3559 1356 
Q 3559 666 3084 287 
Q 2609 -91 1734 -91 
Q 1441 -91 1130 -33 
Q 819 25 488 141 
L 488 750 
Q 750 597 1062 519 
Q 1375 441 1716 441 
Q 2309 441 2620 675 
Q 2931 909 2931 1356 
Q 2931 1769 2642 2001 
Q 2353 2234 1838 2234 
L 1294 2234 
L 1294 2753 
L 1863 2753 
Q 2328 2753 2575 2939 
Q 2822 3125 2822 3475 
Q 2822 3834 2567 4026 
Q 2313 4219 1838 4219 
Q 1578 4219 1281 4162 
Q 984 4106 628 3988 
L 628 4550 
Q 988 4650 1302 4700 
Q 1616 4750 1894 4750 
Q 2613 4750 3031 4423 
Q 3450 4097 3450 3541 
Q 3450 3153 3228 2886 
Q 3006 2619 2597 2516 
z
" transform="scale(0.015625)"/>
     </defs>
     <use xlink:href="#DejaVuSans-43" transform="translate(0 0.78125)"/>
     <use xlink:href="#DejaVuSans-75" transform="translate(69.824219 0.78125)"/>
     <use xlink:href="#DejaVuSans-33" transform="translate(134.160156 -15.625) scale(0.7)"/>
     <use xlink:href="#DejaVuSans-41" transform="translate(181.430664 0.78125)"/>
     <use xlink:href="#DejaVuSans-75" transform="translate(249.838867 0.78125)"/>
    </g>
   </g>
   <g id="text_10">
    <!-- $\mathrm{AlCuAu_{2}}$ -->
    <g transform="translate(106.729205 128.93952) scale(0.1 -0.1)">
     <use xlink:href="#DejaVuSans-41" transform="translate(0 0.015625)"/>
     <use xlink:href="#DejaVuSans-6c" transform="translate(68.408203 0.015625)"/>
     <use xlink:href="#DejaVuSans-43" transform="translate(96.191406 0.015625)"/>
     <use xlink:href="#DejaVuSans-75" transform="translate(166.015625 0.015625)"/>
     <use xlink:href="#DejaVuSans-41" transform="translate(229.394531 0.015625)"/>
     <use xlink:href="#DejaVuSans-75" transform="translate(297.802734 0.015625)"/>
     <use xlink:href="#DejaVuSans-32" transform="translate(362.138672 -16.390625) scale(0.7)"/>
    </g>
   </g>
   <g id="text_11">
    <!-- $\mathrm{AlCu_{3}}$ -->
    <g transform="translate(194.843307 210.594971) scale(0.1 -0.1)">
     <use xlink:href="#DejaVuSans-41" transform="translate(0 0.015625)"/>
     <use xlink:href="#DejaVuSans-6c" transform="translate(68.408203 0.015625)"/>
     <use xlink:href="#DejaVuSans-43" transform="translate(96.191406 0.015625)"/>
     <use xlink:href="#DejaVuSans-75" transform="translate(166.015625 0.015625)"/>
     <use xlink:href="#DejaVuSans-33" transform="translate(230.351562 -16.390625) scale(0.7)"/>
    </g>
   </g>
   <g id="text_12">
    <!-- $\mathrm{Al_{2}Au}$ -->
    <g transform="translate(37.421009 160.443751) scale(0.1 -0.1)">
     <use xlink:href="#DejaVuSans-41" transform="translate(0 0.015625)"/>
     <use xlink:href="#DejaVuSans-6c" transform="translate(68.408203 0.015625)"/>
     <use xlink:href="#DejaVuSans-32" transform="translate(97.148438 -16.390625) scale(0.7)"/>
     <use xlink:href="#DejaVuSans-41" transform="translate(144.418945 0.015625)"/>
     <use xlink:href="#DejaVuSans-75" transform="translate(212.827148 0.015625)"/>
    </g>
   </g>
   <g id="text_13">
    <!-- $\mathrm{Au}$ -->
    <g transform="translate(131.101933 33.102406) scale(0.1 -0.1)">
     <use xlink:href="#DejaVuSans-41" transform="translate(0 0.09375)"/>
     <use xlink:href="#DejaVuSans-75" transform="translate(68.408203 0.09375)"/>
    </g>
   </g>
   <g id="text_14">
    <!-- $\mathrm{Cu}$ -->
    <g transform="translate(245.859482 211.527642) scale(0.1 -0.1)">
     <use xlink:href="#DejaVuSans-43" transform="translate(0 0.78125)"/>
     <use xlink:href="#DejaVuSans-75" transform="translate(69.824219 0.78125)"/>
    </g>
   </g>
   <g id="text_15">
    <!-- $\mathrm{Al_{8}Cu_{4}Au}$ -->
    <g style="fill: #0000ff" transform="translate(91.637129 195.867495) scale(0.1 -0.1)">
     <defs>
      <path id="DejaVuSans-38" d="M 2034 2216 
Q 1584 2216 1326 1975 
Q 1069 1734 1069 1313 
Q 1069 891 1326 650 
Q 1584 409 2034 409 
Q 2484 409 2743 651 
Q 3003 894 3003 1313 
Q 3003 1734 2745 1975 
Q 2488 2216 2034 2216 
z
M 1403 2484 
Q 997 2584 770 2862 
Q 544 3141 544 3541 
Q 544 4100 942 4425 
Q 1341 4750 2034 4750 
Q 2731 4750 3128 4425 
Q 3525 4100 3525 3541 
Q 3525 3141 3298 2862 
Q 3072 2584 2669 2484 
Q 3125 2378 3379 2068 
Q 3634 1759 3634 1313 
Q 3634 634 3220 271 
Q 2806 -91 2034 -91 
Q 1263 -91 848 271 
Q 434 634 434 1313 
Q 434 1759 690 2068 
Q 947 2378 1403 2484 
z
M 1172 3481 
Q 1172 3119 1398 2916 
Q 1625 2713 2034 2713 
Q 2441 2713 2670 2916 
Q 2900 3119 2900 3481 
Q 2900 3844 2670 4047 
Q 2441 4250 2034 4250 
Q 1625 4250 1398 4047 
Q 1172 3844 1172 3481 
z
" transform="scale(0.015625)"/>
     </defs>
     <use xlink:href="#DejaVuSans-41" transform="translate(0 0.015625)"/>
     <use xlink:href="#DejaVuSans-6c" transform="translate(68.408203 0.015625)"/>
     <use xlink:href="#DejaVuSans-38" transform="translate(97.148438 -16.390625) scale(0.7)"/>
     <use xlink:href="#DejaVuSans-43" transform="translate(144.418945 0.015625)"/>
     <use xlink:href="#DejaVuSans-75" transform="translate(214.243164 0.015625)"/>
     <use xlink:href="#DejaVuSans-34" transform="translate(278.579102 -16.390625) scale(0.7)"/>
     <use xlink:href="#DejaVuSans-41" transform="translate(325.849609 0.015625)"/>
     <use xlink:href="#DejaVuSans-75" transform="translate(394.257812 0.015625)"/>
    </g>
   </g>
  </g>
  <g id="axes_2">
   <g id="patch_3">
    <path d="M 287.298425 195.703937 
L 296.029134 195.703937 
L 296.029134 36.96378 
L 287.298425 36.96378 
L 287.298425 195.703937 
z
" style="fill: none"/>
   </g>
   <g id="patch_4">
    <path d="M 287.298425 195.703937 
L 291.66378 203.640945 
L 296.029134 195.703937 
" style="fill: #440154; opacity: 0.7"/>
   </g>
   <g id="patch_5">
    <path d="M 287.298425 36.96378 
L 291.66378 29.026772 
L 296.029134 36.96378 
" style="fill: #fde725; opacity: 0.7"/>
   </g>
   <g id="QuadMesh_1">
    <path d="M 287.298425 195.703937 
L 296.029134 195.703937 
L 296.029134 191.832226 
L 287.298425 191.832226 
L 287.298425 195.703937 
" clip-path="url(#pd671d3ce80)" style="fill: #450559; fill-opacity: 0.7"/>
    <path d="M 287.298425 191.832226 
L 296.029134 191.832226 
L 296.029134 187.960515 
L 287.298425 187.960515 
L 287.298425 191.832226 
" clip-path="url(#pd671d3ce80)" style="fill: #470e61; fill-opacity: 0.7"/>
    <path d="M 287.298425 187.960515 
L 296.029134 187.960515 
L 296.029134 184.088804 
L 287.298425 184.088804 
L 287.298425 187.960515 
" clip-path="url(#pd671d3ce80)" style="fill: #481769; fill-opacity: 0.7"/>
    <path d="M 287.298425 184.088804 
L 296.029134 184.088804 
L 296.029134 180.217092 
L 287.298425 180.217092 
L 287.298425 184.088804 
" clip-path="url(#pd671d3ce80)" style="fill: #481f70; fill-opacity: 0.7"/>
    <path d="M 287.298425 180.217092 
L 296.029134 180.217092 
L 296.029134 176.345381 
L 287.298425 176.345381 
L 287.298425 180.217092 
" clip-path="url(#pd671d3ce80)" style="fill: #482878; fill-opacity: 0.7"/>
    <path d="M 287.298425 176.345381 
L 296.029134 176.345381 
L 296.029134 172.47367 
L 287.298425 172.47367 
L 287.298425 176.345381 
" clip-path="url(#pd671d3ce80)" style="fill: #472f7d; fill-opacity: 0.7"/>
    <path d="M 287.298425 172.47367 
L 296.029134 172.47367 
L 296.029134 168.601959 
L 287.298425 168.601959 
L 287.298425 172.47367 
" clip-path="url(#pd671d3ce80)" style="fill: #453781; fill-opacity: 0.7"/>
    <path d="M 287.298425 168.601959 
L 296.029134 168.601959 
L 296.029134 164.730248 
L 287.298425 164.730248 
L 287.298425 168.601959 
" clip-path="url(#pd671d3ce80)" style="fill: #433e85; fill-opacity: 0.7"/>
    <path d="M 287.298425 164.730248 
L 296.029134 164.730248 
L 296.029134 160.858537 
L 287.298425 160.858537 
L 287.298425 164.730248 
" clip-path="url(#pd671d3ce80)" style="fill: #404688; fill-opacity: 0.7"/>
    <path d="M 287.298425 160.858537 
L 296.029134 160.858537 
L 296.029134 156.986825 
L 287.298425 156.986825 
L 287.298425 160.858537 
" clip-path="url(#pd671d3ce80)" style="fill: #3d4d8a; fill-opacity: 0.7"/>
    <path d="M 287.298425 156.986825 
L 296.029134 156.986825 
L 296.029134 153.115114 
L 287.298425 153.115114 
L 287.298425 156.986825 
" clip-path="url(#pd671d3ce80)" style="fill: #3a538b; fill-opacity: 0.7"/>
    <path d="M 287.298425 153.115114 
L 296.029134 153.115114 
L 296.029134 149.243403 
L 287.298425 149.243403 
L 287.298425 153.115114 
" clip-path="url(#pd671d3ce80)" style="fill: #375a8c; fill-opacity: 0.7"/>
    <path d="M 287.298425 149.243403 
L 296.029134 149.243403 
L 296.029134 145.371692 
L 287.298425 145.371692 
L 287.298425 149.243403 
" clip-path="url(#pd671d3ce80)" style="fill: #34618d; fill-opacity: 0.7"/>
    <path d="M 287.298425 145.371692 
L 296.029134 145.371692 
L 296.029134 141.499981 
L 287.298425 141.499981 
L 287.298425 145.371692 
" clip-path="url(#pd671d3ce80)" style="fill: #31678e; fill-opacity: 0.7"/>
    <path d="M 287.298425 141.499981 
L 296.029134 141.499981 
L 296.029134 137.62827 
L 287.298425 137.62827 
L 287.298425 141.499981 
" clip-path="url(#pd671d3ce80)" style="fill: #2e6d8e; fill-opacity: 0.7"/>
    <path d="M 287.298425 137.62827 
L 296.029134 137.62827 
L 296.029134 133.756558 
L 287.298425 133.756558 
L 287.298425 137.62827 
" clip-path="url(#pd671d3ce80)" style="fill: #2c728e; fill-opacity: 0.7"/>
    <path d="M 287.298425 133.756558 
L 296.029134 133.756558 
L 296.029134 129.884847 
L 287.298425 129.884847 
L 287.298425 133.756558 
" clip-path="url(#pd671d3ce80)" style="fill: #29798e; fill-opacity: 0.7"/>
    <path d="M 287.298425 129.884847 
L 296.029134 129.884847 
L 296.029134 126.013136 
L 287.298425 126.013136 
L 287.298425 129.884847 
" clip-path="url(#pd671d3ce80)" style="fill: #277f8e; fill-opacity: 0.7"/>
    <path d="M 287.298425 126.013136 
L 296.029134 126.013136 
L 296.029134 122.141425 
L 287.298425 122.141425 
L 287.298425 126.013136 
" clip-path="url(#pd671d3ce80)" style="fill: #25848e; fill-opacity: 0.7"/>
    <path d="M 287.298425 122.141425 
L 296.029134 122.141425 
L 296.029134 118.269714 
L 287.298425 118.269714 
L 287.298425 122.141425 
" clip-path="url(#pd671d3ce80)" style="fill: #238a8d; fill-opacity: 0.7"/>
    <path d="M 287.298425 118.269714 
L 296.029134 118.269714 
L 296.029134 114.398003 
L 287.298425 114.398003 
L 287.298425 118.269714 
" clip-path="url(#pd671d3ce80)" style="fill: #21918c; fill-opacity: 0.7"/>
    <path d="M 287.298425 114.398003 
L 296.029134 114.398003 
L 296.029134 110.526292 
L 287.298425 110.526292 
L 287.298425 114.398003 
" clip-path="url(#pd671d3ce80)" style="fill: #1f968b; fill-opacity: 0.7"/>
    <path d="M 287.298425 110.526292 
L 296.029134 110.526292 
L 296.029134 106.65458 
L 287.298425 106.65458 
L 287.298425 110.526292 
" clip-path="url(#pd671d3ce80)" style="fill: #1e9c89; fill-opacity: 0.7"/>
    <path d="M 287.298425 106.65458 
L 296.029134 106.65458 
L 296.029134 102.782869 
L 287.298425 102.782869 
L 287.298425 106.65458 
" clip-path="url(#pd671d3ce80)" style="fill: #1fa187; fill-opacity: 0.7"/>
    <path d="M 287.298425 102.782869 
L 296.029134 102.782869 
L 296.029134 98.911158 
L 287.298425 98.911158 
L 287.298425 102.782869 
" clip-path="url(#pd671d3ce80)" style="fill: #22a785; fill-opacity: 0.7"/>
    <path d="M 287.298425 98.911158 
L 296.029134 98.911158 
L 296.029134 95.039447 
L 287.298425 95.039447 
L 287.298425 98.911158 
" clip-path="url(#pd671d3ce80)" style="fill: #27ad81; fill-opacity: 0.7"/>
    <path d="M 287.298425 95.039447 
L 296.029134 95.039447 
L 296.029134 91.167736 
L 287.298425 91.167736 
L 287.298425 95.039447 
" clip-path="url(#pd671d3ce80)" style="fill: #2eb37c; fill-opacity: 0.7"/>
    <path d="M 287.298425 91.167736 
L 296.029134 91.167736 
L 296.029134 87.296025 
L 287.298425 87.296025 
L 287.298425 91.167736 
" clip-path="url(#pd671d3ce80)" style="fill: #37b878; fill-opacity: 0.7"/>
    <path d="M 287.298425 87.296025 
L 296.029134 87.296025 
L 296.029134 83.424313 
L 287.298425 83.424313 
L 287.298425 87.296025 
" clip-path="url(#pd671d3ce80)" style="fill: #40bd72; fill-opacity: 0.7"/>
    <path d="M 287.298425 83.424313 
L 296.029134 83.424313 
L 296.029134 79.552602 
L 287.298425 79.552602 
L 287.298425 83.424313 
" clip-path="url(#pd671d3ce80)" style="fill: #4ec36b; fill-opacity: 0.7"/>
    <path d="M 287.298425 79.552602 
L 296.029134 79.552602 
L 296.029134 75.680891 
L 287.298425 75.680891 
L 287.298425 79.552602 
" clip-path="url(#pd671d3ce80)" style="fill: #5ac864; fill-opacity: 0.7"/>
    <path d="M 287.298425 75.680891 
L 296.029134 75.680891 
L 296.029134 71.80918 
L 287.298425 71.80918 
L 287.298425 75.680891 
" clip-path="url(#pd671d3ce80)" style="fill: #67cc5c; fill-opacity: 0.7"/>
    <path d="M 287.298425 71.80918 
L 296.029134 71.80918 
L 296.029134 67.937469 
L 287.298425 67.937469 
L 287.298425 71.80918 
" clip-path="url(#pd671d3ce80)" style="fill: #75d054; fill-opacity: 0.7"/>
    <path d="M 287.298425 67.937469 
L 296.029134 67.937469 
L 296.029134 64.065758 
L 287.298425 64.065758 
L 287.298425 67.937469 
" clip-path="url(#pd671d3ce80)" style="fill: #86d549; fill-opacity: 0.7"/>
    <path d="M 287.298425 64.065758 
L 296.029134 64.065758 
L 296.029134 60.194046 
L 287.298425 60.194046 
L 287.298425 64.065758 
" clip-path="url(#pd671d3ce80)" style="fill: #95d840; fill-opacity: 0.7"/>
    <path d="M 287.298425 60.194046 
L 296.029134 60.194046 
L 296.029134 56.322335 
L 287.298425 56.322335 
L 287.298425 60.194046 
" clip-path="url(#pd671d3ce80)" style="fill: #a5db36; fill-opacity: 0.7"/>
    <path d="M 287.298425 56.322335 
L 296.029134 56.322335 
L 296.029134 52.450624 
L 287.298425 52.450624 
L 287.298425 56.322335 
" clip-path="url(#pd671d3ce80)" style="fill: #b5de2b; fill-opacity: 0.7"/>
    <path d="M 287.298425 52.450624 
L 296.029134 52.450624 
L 296.029134 48.578913 
L 287.298425 48.578913 
L 287.298425 52.450624 
" clip-path="url(#pd671d3ce80)" style="fill: #c8e020; fill-opacity: 0.7"/>
    <path d="M 287.298425 48.578913 
L 296.029134 48.578913 
L 296.029134 44.707202 
L 287.298425 44.707202 
L 287.298425 48.578913 
" clip-path="url(#pd671d3ce80)" style="fill: #d8e219; fill-opacity: 0.7"/>
    <path d="M 287.298425 44.707202 
L 296.029134 44.707202 
L 296.029134 40.835491 
L 287.298425 40.835491 
L 287.298425 44.707202 
" clip-path="url(#pd671d3ce80)" style="fill: #e7e419; fill-opacity: 0.7"/>
    <path d="M 287.298425 40.835491 
L 296.029134 40.835491 
L 296.029134 36.96378 
L 287.298425 36.96378 
L 287.298425 40.835491 
" clip-path="url(#pd671d3ce80)" style="fill: #f6e620; fill-opacity: 0.7"/>
   </g>
   <g id="matplotlib.axis_3"/>
   <g id="matplotlib.axis_4">
    <g id="ytick_1">
     <g id="line2d_27">
      <defs>
       <path id="md772df559d" d="M 0 0 
L -2 0 
" style="stroke: #000000; stroke-width: 0.3"/>
      </defs>
      <g>
       <use xlink:href="#md772df559d" x="296.029134" y="191.832226" style="stroke: #000000; stroke-width: 0.3"/>
      </g>
     </g>
     <g id="text_16">
      <!-- 0.41 -->
      <g transform="translate(299.529134 194.695351) scale(0.08 -0.08)">
       <defs>
        <path id="ArialMT-2212" d="M 3381 1997 
L 356 1997 
L 356 2522 
L 3381 2522 
L 3381 1997 
z
" transform="scale(0.015625)"/>
        <path id="ArialMT-30" d="M 266 2259 
Q 266 3072 433 3567 
Q 600 4063 929 4331 
Q 1259 4600 1759 4600 
Q 2128 4600 2406 4451 
Q 2684 4303 2865 4023 
Q 3047 3744 3150 3342 
Q 3253 2941 3253 2259 
Q 3253 1453 3087 958 
Q 2922 463 2592 192 
Q 2263 -78 1759 -78 
Q 1097 -78 719 397 
Q 266 969 266 2259 
z
M 844 2259 
Q 844 1131 1108 757 
Q 1372 384 1759 384 
Q 2147 384 2411 759 
Q 2675 1134 2675 2259 
Q 2675 3391 2411 3762 
Q 2147 4134 1753 4134 
Q 1366 4134 1134 3806 
Q 844 3388 844 2259 
z
" transform="scale(0.015625)"/>
        <path id="ArialMT-2e" d="M 581 0 
L 581 641 
L 1222 641 
L 1222 0 
L 581 0 
z
" transform="scale(0.015625)"/>
        <path id="ArialMT-34" d="M 2069 0 
L 2069 1097 
L 81 1097 
L 81 1613 
L 2172 4581 
L 2631 4581 
L 2631 1613 
L 3250 1613 
L 3250 1097 
L 2631 1097 
L 2631 0 
L 2069 0 
z
M 2069 1613 
L 2069 3678 
L 634 1613 
L 2069 1613 
z
" transform="scale(0.015625)"/>
        <path id="ArialMT-31" d="M 2384 0 
L 1822 0 
L 1822 3584 
Q 1619 3391 1289 3197 
Q 959 3003 697 2906 
L 697 3450 
Q 1169 3672 1522 3987 
Q 1875 4303 2022 4600 
L 2384 4600 
L 2384 0 
z
" transform="scale(0.015625)"/>
       </defs>
       <use xlink:href="#ArialMT-2212"/>
       <use xlink:href="#ArialMT-30" transform="translate(58.398438 0)"/>
       <use xlink:href="#ArialMT-2e" transform="translate(114.013672 0)"/>
       <use xlink:href="#ArialMT-34" transform="translate(141.796875 0)"/>
       <use xlink:href="#ArialMT-31" transform="translate(197.412109 0)"/>
      </g>
     </g>
    </g>
    <g id="ytick_2">
     <g id="line2d_28">
      <g>
       <use xlink:href="#md772df559d" x="296.029134" y="172.47367" style="stroke: #000000; stroke-width: 0.3"/>
      </g>
     </g>
     <g id="text_17">
      <!-- 0.36 -->
      <g transform="translate(299.529134 175.336795) scale(0.08 -0.08)">
       <defs>
        <path id="ArialMT-33" d="M 269 1209 
L 831 1284 
Q 928 806 1161 595 
Q 1394 384 1728 384 
Q 2125 384 2398 659 
Q 2672 934 2672 1341 
Q 2672 1728 2419 1979 
Q 2166 2231 1775 2231 
Q 1616 2231 1378 2169 
L 1441 2663 
Q 1497 2656 1531 2656 
Q 1891 2656 2178 2843 
Q 2466 3031 2466 3422 
Q 2466 3731 2256 3934 
Q 2047 4138 1716 4138 
Q 1388 4138 1169 3931 
Q 950 3725 888 3313 
L 325 3413 
Q 428 3978 793 4289 
Q 1159 4600 1703 4600 
Q 2078 4600 2393 4439 
Q 2709 4278 2876 4000 
Q 3044 3722 3044 3409 
Q 3044 3113 2884 2869 
Q 2725 2625 2413 2481 
Q 2819 2388 3044 2092 
Q 3269 1797 3269 1353 
Q 3269 753 2831 336 
Q 2394 -81 1725 -81 
Q 1122 -81 723 278 
Q 325 638 269 1209 
z
" transform="scale(0.015625)"/>
        <path id="ArialMT-36" d="M 3184 3459 
L 2625 3416 
Q 2550 3747 2413 3897 
Q 2184 4138 1850 4138 
Q 1581 4138 1378 3988 
Q 1113 3794 959 3422 
Q 806 3050 800 2363 
Q 1003 2672 1297 2822 
Q 1591 2972 1913 2972 
Q 2475 2972 2870 2558 
Q 3266 2144 3266 1488 
Q 3266 1056 3080 686 
Q 2894 316 2569 119 
Q 2244 -78 1831 -78 
Q 1128 -78 684 439 
Q 241 956 241 2144 
Q 241 3472 731 4075 
Q 1159 4600 1884 4600 
Q 2425 4600 2770 4297 
Q 3116 3994 3184 3459 
z
M 888 1484 
Q 888 1194 1011 928 
Q 1134 663 1356 523 
Q 1578 384 1822 384 
Q 2178 384 2434 671 
Q 2691 959 2691 1453 
Q 2691 1928 2437 2201 
Q 2184 2475 1800 2475 
Q 1419 2475 1153 2201 
Q 888 1928 888 1484 
z
" transform="scale(0.015625)"/>
       </defs>
       <use xlink:href="#ArialMT-2212"/>
       <use xlink:href="#ArialMT-30" transform="translate(58.398438 0)"/>
       <use xlink:href="#ArialMT-2e" transform="translate(114.013672 0)"/>
       <use xlink:href="#ArialMT-33" transform="translate(141.796875 0)"/>
       <use xlink:href="#ArialMT-36" transform="translate(197.412109 0)"/>
      </g>
     </g>
    </g>
    <g id="ytick_3">
     <g id="line2d_29">
      <g>
       <use xlink:href="#md772df559d" x="296.029134" y="153.115114" style="stroke: #000000; stroke-width: 0.3"/>
      </g>
     </g>
     <g id="text_18">
      <!-- 0.31 -->
      <g transform="translate(299.529134 155.978239) scale(0.08 -0.08)">
       <use xlink:href="#ArialMT-2212"/>
       <use xlink:href="#ArialMT-30" transform="translate(58.398438 0)"/>
       <use xlink:href="#ArialMT-2e" transform="translate(114.013672 0)"/>
       <use xlink:href="#ArialMT-33" transform="translate(141.796875 0)"/>
       <use xlink:href="#ArialMT-31" transform="translate(197.412109 0)"/>
      </g>
     </g>
    </g>
    <g id="ytick_4">
     <g id="line2d_30">
      <g>
       <use xlink:href="#md772df559d" x="296.029134" y="133.756558" style="stroke: #000000; stroke-width: 0.3"/>
      </g>
     </g>
     <g id="text_19">
      <!-- 0.26 -->
      <g transform="translate(299.529134 136.619683) scale(0.08 -0.08)">
       <defs>
        <path id="ArialMT-32" d="M 3222 541 
L 3222 0 
L 194 0 
Q 188 203 259 391 
Q 375 700 629 1000 
Q 884 1300 1366 1694 
Q 2113 2306 2375 2664 
Q 2638 3022 2638 3341 
Q 2638 3675 2398 3904 
Q 2159 4134 1775 4134 
Q 1369 4134 1125 3890 
Q 881 3647 878 3216 
L 300 3275 
Q 359 3922 746 4261 
Q 1134 4600 1788 4600 
Q 2447 4600 2831 4234 
Q 3216 3869 3216 3328 
Q 3216 3053 3103 2787 
Q 2991 2522 2730 2228 
Q 2469 1934 1863 1422 
Q 1356 997 1212 845 
Q 1069 694 975 541 
L 3222 541 
z
" transform="scale(0.015625)"/>
       </defs>
       <use xlink:href="#ArialMT-2212"/>
       <use xlink:href="#ArialMT-30" transform="translate(58.398438 0)"/>
       <use xlink:href="#ArialMT-2e" transform="translate(114.013672 0)"/>
       <use xlink:href="#ArialMT-32" transform="translate(141.796875 0)"/>
       <use xlink:href="#ArialMT-36" transform="translate(197.412109 0)"/>
      </g>
     </g>
    </g>
    <g id="ytick_5">
     <g id="line2d_31">
      <g>
       <use xlink:href="#md772df559d" x="296.029134" y="114.398003" style="stroke: #000000; stroke-width: 0.3"/>
      </g>
     </g>
     <g id="text_20">
      <!-- 0.21 -->
      <g transform="translate(299.529134 117.261128) scale(0.08 -0.08)">
       <use xlink:href="#ArialMT-2212"/>
       <use xlink:href="#ArialMT-30" transform="translate(58.398438 0)"/>
       <use xlink:href="#ArialMT-2e" transform="translate(114.013672 0)"/>
       <use xlink:href="#ArialMT-32" transform="translate(141.796875 0)"/>
       <use xlink:href="#ArialMT-31" transform="translate(197.412109 0)"/>
      </g>
     </g>
    </g>
    <g id="ytick_6">
     <g id="line2d_32">
      <g>
       <use xlink:href="#md772df559d" x="296.029134" y="95.039447" style="stroke: #000000; stroke-width: 0.3"/>
      </g>
     </g>
     <g id="text_21">
      <!-- 0.16 -->
      <g transform="translate(299.529134 97.902572) scale(0.08 -0.08)">
       <use xlink:href="#ArialMT-2212"/>
       <use xlink:href="#ArialMT-30" transform="translate(58.398438 0)"/>
       <use xlink:href="#ArialMT-2e" transform="translate(114.013672 0)"/>
       <use xlink:href="#ArialMT-31" transform="translate(141.796875 0)"/>
       <use xlink:href="#ArialMT-36" transform="translate(197.412109 0)"/>
      </g>
     </g>
    </g>
    <g id="ytick_7">
     <g id="line2d_33">
      <g>
       <use xlink:href="#md772df559d" x="296.029134" y="75.680891" style="stroke: #000000; stroke-width: 0.3"/>
      </g>
     </g>
     <g id="text_22">
      <!-- 0.11 -->
      <g transform="translate(299.529134 78.544016) scale(0.08 -0.08)">
       <use xlink:href="#ArialMT-2212"/>
       <use xlink:href="#ArialMT-30" transform="translate(58.398438 0)"/>
       <use xlink:href="#ArialMT-2e" transform="translate(114.013672 0)"/>
       <use xlink:href="#ArialMT-31" transform="translate(141.796875 0)"/>
       <use xlink:href="#ArialMT-31" transform="translate(190.037109 0)"/>
      </g>
     </g>
    </g>
    <g id="ytick_8">
     <g id="line2d_34">
      <g>
       <use xlink:href="#md772df559d" x="296.029134" y="56.322335" style="stroke: #000000; stroke-width: 0.3"/>
      </g>
     </g>
     <g id="text_23">
      <!-- 0.06 -->
      <g transform="translate(299.529134 59.18546) scale(0.08 -0.08)">
       <use xlink:href="#ArialMT-2212"/>
       <use xlink:href="#ArialMT-30" transform="translate(58.398438 0)"/>
       <use xlink:href="#ArialMT-2e" transform="translate(114.013672 0)"/>
       <use xlink:href="#ArialMT-30" transform="translate(141.796875 0)"/>
       <use xlink:href="#ArialMT-36" transform="translate(197.412109 0)"/>
      </g>
     </g>
    </g>
    <g id="ytick_9">
     <g id="line2d_35">
      <g>
       <use xlink:href="#md772df559d" x="296.029134" y="36.96378" style="stroke: #000000; stroke-width: 0.3"/>
      </g>
     </g>
     <g id="text_24">
      <!-- 0.01 -->
      <g transform="translate(299.529134 39.826905) scale(0.08 -0.08)">
       <use xlink:href="#ArialMT-2212"/>
       <use xlink:href="#ArialMT-30" transform="translate(58.398438 0)"/>
       <use xlink:href="#ArialMT-2e" transform="translate(114.013672 0)"/>
       <use xlink:href="#ArialMT-30" transform="translate(141.796875 0)"/>
       <use xlink:href="#ArialMT-31" transform="translate(197.412109 0)"/>
      </g>
     </g>
    </g>
    <g id="text_25">
     <!-- Formation Energy (eV/atom) -->
     <g transform="translate(331.050071 179.408077) rotate(-90) scale(0.1 -0.1)">
      <defs>
       <path id="ArialMT-46" d="M 525 0 
L 525 4581 
L 3616 4581 
L 3616 4041 
L 1131 4041 
L 1131 2622 
L 3281 2622 
L 3281 2081 
L 1131 2081 
L 1131 0 
L 525 0 
z
" transform="scale(0.015625)"/>
       <path id="ArialMT-6f" d="M 213 1659 
Q 213 2581 725 3025 
Q 1153 3394 1769 3394 
Q 2453 3394 2887 2945 
Q 3322 2497 3322 1706 
Q 3322 1066 3130 698 
Q 2938 331 2570 128 
Q 2203 -75 1769 -75 
Q 1072 -75 642 372 
Q 213 819 213 1659 
z
M 791 1659 
Q 791 1022 1069 705 
Q 1347 388 1769 388 
Q 2188 388 2466 706 
Q 2744 1025 2744 1678 
Q 2744 2294 2464 2611 
Q 2184 2928 1769 2928 
Q 1347 2928 1069 2612 
Q 791 2297 791 1659 
z
" transform="scale(0.015625)"/>
       <path id="ArialMT-72" d="M 416 0 
L 416 3319 
L 922 3319 
L 922 2816 
Q 1116 3169 1280 3281 
Q 1444 3394 1641 3394 
Q 1925 3394 2219 3213 
L 2025 2691 
Q 1819 2813 1613 2813 
Q 1428 2813 1281 2702 
Q 1134 2591 1072 2394 
Q 978 2094 978 1738 
L 978 0 
L 416 0 
z
" transform="scale(0.015625)"/>
       <path id="ArialMT-6d" d="M 422 0 
L 422 3319 
L 925 3319 
L 925 2853 
Q 1081 3097 1340 3245 
Q 1600 3394 1931 3394 
Q 2300 3394 2536 3241 
Q 2772 3088 2869 2813 
Q 3263 3394 3894 3394 
Q 4388 3394 4653 3120 
Q 4919 2847 4919 2278 
L 4919 0 
L 4359 0 
L 4359 2091 
Q 4359 2428 4304 2576 
Q 4250 2725 4106 2815 
Q 3963 2906 3769 2906 
Q 3419 2906 3187 2673 
Q 2956 2441 2956 1928 
L 2956 0 
L 2394 0 
L 2394 2156 
Q 2394 2531 2256 2718 
Q 2119 2906 1806 2906 
Q 1569 2906 1367 2781 
Q 1166 2656 1075 2415 
Q 984 2175 984 1722 
L 984 0 
L 422 0 
z
" transform="scale(0.015625)"/>
       <path id="ArialMT-61" d="M 2588 409 
Q 2275 144 1986 34 
Q 1697 -75 1366 -75 
Q 819 -75 525 192 
Q 231 459 231 875 
Q 231 1119 342 1320 
Q 453 1522 633 1644 
Q 813 1766 1038 1828 
Q 1203 1872 1538 1913 
Q 2219 1994 2541 2106 
Q 2544 2222 2544 2253 
Q 2544 2597 2384 2738 
Q 2169 2928 1744 2928 
Q 1347 2928 1158 2789 
Q 969 2650 878 2297 
L 328 2372 
Q 403 2725 575 2942 
Q 747 3159 1072 3276 
Q 1397 3394 1825 3394 
Q 2250 3394 2515 3294 
Q 2781 3194 2906 3042 
Q 3031 2891 3081 2659 
Q 3109 2516 3109 2141 
L 3109 1391 
Q 3109 606 3145 398 
Q 3181 191 3288 0 
L 2700 0 
Q 2613 175 2588 409 
z
M 2541 1666 
Q 2234 1541 1622 1453 
Q 1275 1403 1131 1340 
Q 988 1278 909 1158 
Q 831 1038 831 891 
Q 831 666 1001 516 
Q 1172 366 1500 366 
Q 1825 366 2078 508 
Q 2331 650 2450 897 
Q 2541 1088 2541 1459 
L 2541 1666 
z
" transform="scale(0.015625)"/>
       <path id="ArialMT-74" d="M 1650 503 
L 1731 6 
Q 1494 -44 1306 -44 
Q 1000 -44 831 53 
Q 663 150 594 308 
Q 525 466 525 972 
L 525 2881 
L 113 2881 
L 113 3319 
L 525 3319 
L 525 4141 
L 1084 4478 
L 1084 3319 
L 1650 3319 
L 1650 2881 
L 1084 2881 
L 1084 941 
Q 1084 700 1114 631 
Q 1144 563 1211 522 
Q 1278 481 1403 481 
Q 1497 481 1650 503 
z
" transform="scale(0.015625)"/>
       <path id="ArialMT-69" d="M 425 3934 
L 425 4581 
L 988 4581 
L 988 3934 
L 425 3934 
z
M 425 0 
L 425 3319 
L 988 3319 
L 988 0 
L 425 0 
z
" transform="scale(0.015625)"/>
       <path id="ArialMT-6e" d="M 422 0 
L 422 3319 
L 928 3319 
L 928 2847 
Q 1294 3394 1984 3394 
Q 2284 3394 2536 3286 
Q 2788 3178 2913 3003 
Q 3038 2828 3088 2588 
Q 3119 2431 3119 2041 
L 3119 0 
L 2556 0 
L 2556 2019 
Q 2556 2363 2490 2533 
Q 2425 2703 2258 2804 
Q 2091 2906 1866 2906 
Q 1506 2906 1245 2678 
Q 984 2450 984 1813 
L 984 0 
L 422 0 
z
" transform="scale(0.015625)"/>
       <path id="ArialMT-20" transform="scale(0.015625)"/>
       <path id="ArialMT-45" d="M 506 0 
L 506 4581 
L 3819 4581 
L 3819 4041 
L 1113 4041 
L 1113 2638 
L 3647 2638 
L 3647 2100 
L 1113 2100 
L 1113 541 
L 3925 541 
L 3925 0 
L 506 0 
z
" transform="scale(0.015625)"/>
       <path id="ArialMT-65" d="M 2694 1069 
L 3275 997 
Q 3138 488 2766 206 
Q 2394 -75 1816 -75 
Q 1088 -75 661 373 
Q 234 822 234 1631 
Q 234 2469 665 2931 
Q 1097 3394 1784 3394 
Q 2450 3394 2872 2941 
Q 3294 2488 3294 1666 
Q 3294 1616 3291 1516 
L 816 1516 
Q 847 969 1125 678 
Q 1403 388 1819 388 
Q 2128 388 2347 550 
Q 2566 713 2694 1069 
z
M 847 1978 
L 2700 1978 
Q 2663 2397 2488 2606 
Q 2219 2931 1791 2931 
Q 1403 2931 1139 2672 
Q 875 2413 847 1978 
z
" transform="scale(0.015625)"/>
       <path id="ArialMT-67" d="M 319 -275 
L 866 -356 
Q 900 -609 1056 -725 
Q 1266 -881 1628 -881 
Q 2019 -881 2231 -725 
Q 2444 -569 2519 -288 
Q 2563 -116 2559 434 
Q 2191 0 1641 0 
Q 956 0 581 494 
Q 206 988 206 1678 
Q 206 2153 378 2554 
Q 550 2956 876 3175 
Q 1203 3394 1644 3394 
Q 2231 3394 2613 2919 
L 2613 3319 
L 3131 3319 
L 3131 450 
Q 3131 -325 2973 -648 
Q 2816 -972 2473 -1159 
Q 2131 -1347 1631 -1347 
Q 1038 -1347 672 -1080 
Q 306 -813 319 -275 
z
M 784 1719 
Q 784 1066 1043 766 
Q 1303 466 1694 466 
Q 2081 466 2343 764 
Q 2606 1063 2606 1700 
Q 2606 2309 2336 2618 
Q 2066 2928 1684 2928 
Q 1309 2928 1046 2623 
Q 784 2319 784 1719 
z
" transform="scale(0.015625)"/>
       <path id="ArialMT-79" d="M 397 -1278 
L 334 -750 
Q 519 -800 656 -800 
Q 844 -800 956 -737 
Q 1069 -675 1141 -563 
Q 1194 -478 1313 -144 
Q 1328 -97 1363 -6 
L 103 3319 
L 709 3319 
L 1400 1397 
Q 1534 1031 1641 628 
Q 1738 1016 1872 1384 
L 2581 3319 
L 3144 3319 
L 1881 -56 
Q 1678 -603 1566 -809 
Q 1416 -1088 1222 -1217 
Q 1028 -1347 759 -1347 
Q 597 -1347 397 -1278 
z
" transform="scale(0.015625)"/>
       <path id="ArialMT-28" d="M 1497 -1347 
Q 1031 -759 709 28 
Q 388 816 388 1659 
Q 388 2403 628 3084 
Q 909 3875 1497 4659 
L 1900 4659 
Q 1522 4009 1400 3731 
Q 1209 3300 1100 2831 
Q 966 2247 966 1656 
Q 966 153 1900 -1347 
L 1497 -1347 
z
" transform="scale(0.015625)"/>
       <path id="ArialMT-56" d="M 1803 0 
L 28 4581 
L 684 4581 
L 1875 1253 
Q 2019 853 2116 503 
Q 2222 878 2363 1253 
L 3600 4581 
L 4219 4581 
L 2425 0 
L 1803 0 
z
" transform="scale(0.015625)"/>
       <path id="ArialMT-2f" d="M 0 -78 
L 1328 4659 
L 1778 4659 
L 453 -78 
L 0 -78 
z
" transform="scale(0.015625)"/>
       <path id="ArialMT-29" d="M 791 -1347 
L 388 -1347 
Q 1322 153 1322 1656 
Q 1322 2244 1188 2822 
Q 1081 3291 891 3722 
Q 769 4003 388 4659 
L 791 4659 
Q 1378 3875 1659 3084 
Q 1900 2403 1900 1659 
Q 1900 816 1576 28 
Q 1253 -759 791 -1347 
z
" transform="scale(0.015625)"/>
      </defs>
      <use xlink:href="#ArialMT-46"/>
      <use xlink:href="#ArialMT-6f" transform="translate(61.083984 0)"/>
      <use xlink:href="#ArialMT-72" transform="translate(116.699219 0)"/>
      <use xlink:href="#ArialMT-6d" transform="translate(150 0)"/>
      <use xlink:href="#ArialMT-61" transform="translate(233.300781 0)"/>
      <use xlink:href="#ArialMT-74" transform="translate(288.916016 0)"/>
      <use xlink:href="#ArialMT-69" transform="translate(316.699219 0)"/>
      <use xlink:href="#ArialMT-6f" transform="translate(338.916016 0)"/>
      <use xlink:href="#ArialMT-6e" transform="translate(394.53125 0)"/>
      <use xlink:href="#ArialMT-20" transform="translate(450.146484 0)"/>
      <use xlink:href="#ArialMT-45" transform="translate(477.929688 0)"/>
      <use xlink:href="#ArialMT-6e" transform="translate(544.628906 0)"/>
      <use xlink:href="#ArialMT-65" transform="translate(600.244141 0)"/>
      <use xlink:href="#ArialMT-72" transform="translate(655.859375 0)"/>
      <use xlink:href="#ArialMT-67" transform="translate(689.160156 0)"/>
      <use xlink:href="#ArialMT-79" transform="translate(744.775391 0)"/>
      <use xlink:href="#ArialMT-20" transform="translate(794.775391 0)"/>
      <use xlink:href="#ArialMT-28" transform="translate(822.558594 0)"/>
      <use xlink:href="#ArialMT-65" transform="translate(855.859375 0)"/>
      <use xlink:href="#ArialMT-56" transform="translate(911.474609 0)"/>
      <use xlink:href="#ArialMT-2f" transform="translate(978.173828 0)"/>
      <use xlink:href="#ArialMT-61" transform="translate(1005.957031 0)"/>
      <use xlink:href="#ArialMT-74" transform="translate(1061.572266 0)"/>
      <use xlink:href="#ArialMT-6f" transform="translate(1089.355469 0)"/>
      <use xlink:href="#ArialMT-6d" transform="translate(1144.970703 0)"/>
      <use xlink:href="#ArialMT-29" transform="translate(1228.271484 0)"/>
     </g>
    </g>
   </g>
   <g id="LineCollection_1"/>
   <g id="patch_6">
    <path d="M 287.298425 195.703937 
L 291.66378 203.640945 
L 296.029134 195.703937 
L 296.029134 36.96378 
L 291.66378 29.026772 
L 287.298425 36.96378 
L 287.298425 195.703937 
z
" style="fill: none; stroke: #000000; stroke-width: 0.8; stroke-linejoin: miter; stroke-linecap: square"/>
   </g>
  </g>
 </g>
 <defs>
  <clipPath id="pfea75043b5">
   <rect x="7.2" y="7.2" width="263.622047" height="218.267717"/>
  </clipPath>
  <clipPath id="pd671d3ce80">
   <rect x="287.298425" y="36.96378" width="8.730709" height="158.740157"/>
  </clipPath>
 </defs>
</svg>
