<?xml version="1.0" encoding="utf-8" standalone="no"?>
<!DOCTYPE svg PUBLIC "-//W3C//DTD SVG 1.1//EN"
  "http://www.w3.org/Graphics/SVG/1.1/DTD/svg11.dtd">
<svg xmlns:xlink="http://www.w3.org/1999/xlink" width="340.354759pt" height="232.667717pt" viewBox="0 0 340.354759 232.667717" xmlns="http://www.w3.org/2000/svg" version="1.1">
 <metadata>
  <rdf:RDF xmlns:dc="http://purl.org/dc/elements/1.1/" xmlns:cc="http://creativecommons.org/ns#" xmlns:rdf="http://www.w3.org/1999/02/22-rdf-syntax-ns#">
   <cc:Work>
    <dc:type rdf:resource="http://purl.org/dc/dcmitype/StillImage"/>
    <dc:date>2026-01-27T21:37:37.465753</dc:date>
    <dc:format>image/svg+xml</dc:format>
    <dc:creator>
     <cc:Agent>
      <dc:title>Matplotlib v3.10.8, https://matplotlib.org/</dc:title>
     </cc:Agent>
    </dc:creator>
   </cc:Work>
  </rdf:RDF>
 </metadata>
 <defs>
  <style type="text/css">*{stroke-linejoin: round; stroke-linecap: butt}</style>
 </defs>
 <g id="figure_1">
  <g id="patch_1">
   <path d="M 0 232.667717 
L 340.354759 232.667717 
L 340.354759 0 
L 0 0 
L 0 232.667717 
z
" style="fill: none"/>
  </g>
  <g id="axes_1">
   <g id="patch_2">
    <path d="M 7.2 225.467717 
L 270.822047 225.467717 
L 270.822047 7.2 
L 7.2 7.2 
L 7.2 225.467717 
z
" style="fill: none"/>
   </g>
   <g id="TriContourSet_1">
    <path d="M 179.176657 214.554331 
L 179.194496 213.415061 
L 178.772395 214.268236 
L 178.728648 214.554331 
L 178.953758 214.554331 
z
" clip-path="url(#pa2c693afc9)" style="fill: #440154; fill-opacity: 0.7"/>
    <path d="M 178.728648 214.554331 
L 178.772395 214.268236 
L 179.194496 213.415061 
L 179.176657 214.554331 
L 182.975441 214.554331 
L 183.297306 193.998883 
L 175.681494 209.392432 
L 174.892183 214.554331 
z
" clip-path="url(#pa2c693afc9)" style="fill: #450457; fill-opacity: 0.7"/>
    <path d="M 174.892183 214.554331 
L 175.681494 209.392432 
L 183.297306 193.998883 
L 182.975441 214.554331 
L 186.774225 214.554331 
L 187.346236 178.023633 
L 187.18577 177.197322 
L 187.112594 176.838795 
L 187.054994 176.610993 
L 186.994193 176.503696 
L 186.89538 176.354464 
L 186.871095 176.33737 
L 186.707645 176.335536 
L 186.589736 176.395329 
L 186.455006 176.49302 
L 172.590592 204.516628 
L 171.055717 214.554331 
z
" clip-path="url(#pa2c693afc9)" style="fill: #470d60; fill-opacity: 0.7"/>
    <path d="M 171.055717 214.554331 
L 172.590592 204.516628 
L 186.455006 176.49302 
L 186.589736 176.395329 
L 186.707645 176.335536 
L 186.871095 176.33737 
L 186.89538 176.354464 
L 186.994193 176.503696 
L 187.054994 176.610993 
L 187.112594 176.838795 
L 187.18577 177.197322 
L 187.346236 178.023633 
L 186.774225 214.554331 
L 190.573008 214.554331 
L 190.96619 189.444368 
L 189.367658 181.212829 
L 188.638693 177.641253 
L 188.06489 175.37193 
L 187.459206 174.303065 
L 186.474846 172.816442 
L 186.232925 172.646158 
L 184.604673 172.62788 
L 183.430085 173.223531 
L 182.087925 174.196707 
L 169.49969 199.640823 
L 167.219252 214.554331 
z
" clip-path="url(#pa2c693afc9)" style="fill: #481467; fill-opacity: 0.7"/>
    <path d="M 167.219252 214.554331 
L 169.49969 199.640823 
L 182.087925 174.196707 
L 183.430085 173.223531 
L 184.604673 172.62788 
L 186.232925 172.646158 
L 186.474846 172.816442 
L 187.459206 174.303065 
L 188.06489 175.37193 
L 188.638693 177.641253 
L 189.367658 181.212829 
L 190.96619 189.444368 
L 190.573008 214.554331 
L 194.371792 214.554331 
L 194.586143 200.865104 
L 191.549546 185.228335 
L 190.164791 178.443712 
L 189.074787 174.132867 
L 187.924219 172.102433 
L 186.054313 169.27842 
L 185.594754 168.954945 
L 182.5017 168.920224 
L 180.270434 170.051732 
L 177.720844 171.900394 
L 166.408789 194.765019 
L 163.382786 214.554331 
z
" clip-path="url(#pa2c693afc9)" style="fill: #481b6d; fill-opacity: 0.7"/>
    <path d="M 163.382786 214.554331 
L 166.408789 194.765019 
L 177.720844 171.900394 
L 180.270434 170.051732 
L 182.5017 168.920224 
L 185.594754 168.954945 
L 186.054313 169.27842 
L 187.924219 172.102433 
L 189.074787 174.132867 
L 190.164791 178.443712 
L 191.549546 185.228335 
L 194.586143 200.865104 
L 194.371792 214.554331 
L 198.170576 214.554331 
L 198.206097 212.28584 
L 193.731434 189.243842 
L 191.69089 179.24617 
L 190.084683 172.893803 
L 188.389232 169.901801 
L 185.633779 165.740398 
L 184.956584 165.263733 
L 180.398727 165.212568 
L 177.110783 166.879934 
L 173.353764 169.604082 
L 163.317887 189.889214 
L 159.546321 214.554331 
z
" clip-path="url(#pa2c693afc9)" style="fill: #482173; fill-opacity: 0.7"/>
    <path d="M 159.546321 214.554331 
L 163.317887 189.889214 
L 173.353764 169.604082 
L 177.110783 166.879934 
L 180.398727 165.212568 
L 184.956584 165.263733 
L 185.633779 165.740398 
L 188.389232 169.901801 
L 190.084683 172.893803 
L 191.69089 179.24617 
L 193.731434 189.243842 
L 198.206097 212.28584 
L 198.170576 214.554331 
L 198.925125 214.554331 
L 200.048722 214.554331 
L 195.913322 193.259348 
L 193.216988 180.048628 
L 191.094579 171.65474 
L 188.854245 167.70117 
L 185.213245 162.202376 
L 184.318414 161.57252 
L 178.295755 161.504913 
L 173.951131 163.708135 
L 168.986683 167.307769 
L 160.226985 185.01341 
L 155.709855 214.554331 
z
" clip-path="url(#pa2c693afc9)" style="fill: #482979; fill-opacity: 0.7"/>
    <path d="M 155.709855 214.554331 
L 160.226985 185.01341 
L 168.986683 167.307769 
L 173.951131 163.708135 
L 178.295755 161.504913 
L 184.318414 161.57252 
L 185.213245 162.202376 
L 188.854245 167.70117 
L 191.094579 171.65474 
L 193.216988 180.048628 
L 195.913322 193.259348 
L 200.048722 214.554331 
L 201.450815 214.554331 
L 198.09521 197.274855 
L 194.743087 180.851086 
L 192.104476 170.415677 
L 189.319258 165.500538 
L 184.792712 158.664354 
L 183.680244 157.881308 
L 176.192782 157.797257 
L 170.79148 160.536337 
L 164.619603 165.011456 
L 157.136084 180.137606 
L 151.87339 214.554331 
z
" clip-path="url(#pa2c693afc9)" style="fill: #472f7d; fill-opacity: 0.7"/>
    <path d="M 151.87339 214.554331 
L 157.136084 180.137606 
L 164.619603 165.011456 
L 170.79148 160.536337 
L 176.192782 157.797257 
L 183.680244 157.881308 
L 184.792712 158.664354 
L 189.319258 165.500538 
L 192.104476 170.415677 
L 194.743087 180.851086 
L 198.09521 197.274855 
L 201.450815 214.554331 
L 202.852908 214.554331 
L 200.277098 201.290362 
L 196.269186 181.653544 
L 193.114372 169.176614 
L 189.784271 163.299906 
L 184.372178 155.126332 
L 183.042074 154.190095 
L 174.089809 154.089601 
L 167.631829 157.364538 
L 160.252522 162.715143 
L 154.045182 175.261801 
L 148.036924 214.554331 
z
" clip-path="url(#pa2c693afc9)" style="fill: #453581; fill-opacity: 0.7"/>
    <path d="M 148.036924 214.554331 
L 154.045182 175.261801 
L 160.252522 162.715143 
L 167.631829 157.364538 
L 174.089809 154.089601 
L 183.042074 154.190095 
L 184.372178 155.126332 
L 189.784271 163.299906 
L 193.114372 169.176614 
L 196.269186 181.653544 
L 200.277098 201.290362 
L 202.852908 214.554331 
L 204.255 214.554331 
L 202.458986 205.305868 
L 197.795284 182.456003 
L 194.124268 167.937551 
L 190.249284 161.099274 
L 183.951645 151.58831 
L 182.403903 150.498883 
L 171.986836 150.381945 
L 164.472178 154.192739 
L 155.885441 160.41883 
L 150.95428 170.385997 
L 144.200459 214.554331 
z
" clip-path="url(#pa2c693afc9)" style="fill: #433d84; fill-opacity: 0.7"/>
    <path d="M 144.200459 214.554331 
L 150.95428 170.385997 
L 155.885441 160.41883 
L 164.472178 154.192739 
L 171.986836 150.381945 
L 182.403903 150.498883 
L 183.951645 151.58831 
L 190.249284 161.099274 
L 194.124268 167.937551 
L 197.795284 182.456003 
L 202.458986 205.305868 
L 204.255 214.554331 
L 205.657093 214.554331 
L 204.640874 209.321375 
L 199.321383 183.258461 
L 195.134165 166.698488 
L 190.714297 158.898643 
L 183.531111 148.050288 
L 181.765733 146.80767 
L 169.883864 146.67429 
L 161.312526 151.020941 
L 151.518361 158.122518 
L 147.863379 165.510192 
L 140.363993 214.554331 
z
" clip-path="url(#pa2c693afc9)" style="fill: #414287; fill-opacity: 0.7"/>
    <path d="M 140.363993 214.554331 
L 147.863379 165.510192 
L 151.518361 158.122518 
L 161.312526 151.020941 
L 169.883864 146.67429 
L 181.765733 146.80767 
L 183.531111 148.050288 
L 190.714297 158.898643 
L 195.134165 166.698488 
L 199.321383 183.258461 
L 204.640874 209.321375 
L 205.657093 214.554331 
L 207.059186 214.554331 
L 206.822762 213.336881 
L 200.847481 184.060919 
L 196.144061 165.459425 
L 191.17931 156.698011 
L 183.110577 144.512266 
L 181.127563 143.116458 
L 167.780891 142.966634 
L 158.152875 147.849142 
L 147.15128 155.826205 
L 144.772477 160.634388 
L 139.011024 198.312879 
L 137.003912 214.554331 
L 139.011024 214.554331 
z
" clip-path="url(#pa2c693afc9)" style="fill: #3f4889; fill-opacity: 0.7"/>
    <path d="M 208.433562 214.554331 
L 202.37358 184.863377 
L 197.153958 164.220362 
L 191.644323 154.497379 
L 182.690044 140.974244 
L 180.489393 139.425245 
L 165.677918 139.258978 
L 154.993224 144.677344 
L 142.784199 153.529892 
L 141.681576 155.758584 
L 139.011024 173.223337 
L 133.903357 214.554331 
L 137.003912 214.554331 
L 139.011024 198.312879 
L 144.772477 160.634388 
L 147.15128 155.826205 
L 158.152875 147.849142 
L 167.780891 142.966634 
L 181.127563 143.116458 
L 183.110577 144.512266 
L 191.17931 156.698011 
L 196.144061 165.459425 
L 200.847481 184.060919 
L 206.822762 213.336881 
L 207.059186 214.554331 
L 207.484283 214.554331 
z
" clip-path="url(#pa2c693afc9)" style="fill: #3c4f8a; fill-opacity: 0.7"/>
    <path d="M 209.795877 214.554331 
L 203.899678 185.665835 
L 198.163854 162.981299 
L 192.109335 152.296748 
L 182.26951 137.436222 
L 179.851223 135.734033 
L 163.574946 135.551322 
L 151.833573 141.505545 
L 138.688373 151.036897 
L 138.622278 151.341457 
L 138.560057 151.782997 
L 130.802802 214.554331 
L 133.903357 214.554331 
L 139.011024 173.223337 
L 141.681576 155.758584 
L 142.784199 153.529892 
L 154.993224 144.677344 
L 165.677918 139.258978 
L 180.489393 139.425245 
L 182.690044 140.974244 
L 191.644323 154.497379 
L 197.153958 164.220362 
L 202.37358 184.863377 
L 208.433562 214.554331 
z
" clip-path="url(#pa2c693afc9)" style="fill: #3a548c; fill-opacity: 0.7"/>
    <path d="M 211.158192 214.554331 
L 205.425777 186.468294 
L 199.17375 161.742235 
L 192.574348 150.096116 
L 181.848977 133.8982 
L 179.213052 132.04282 
L 161.471973 131.843667 
L 148.673921 138.333747 
L 136.315873 147.29435 
L 135.763769 149.838386 
L 135.244022 153.526645 
L 127.702247 214.554331 
L 130.802802 214.554331 
L 138.560057 151.782997 
L 138.622278 151.341457 
L 138.688373 151.036897 
L 151.833573 141.505545 
L 163.574946 135.551322 
L 179.851223 135.734033 
L 182.26951 137.436222 
L 192.109335 152.296748 
L 198.163854 162.981299 
L 203.899678 185.665835 
L 209.795877 214.554331 
z
" clip-path="url(#pa2c693afc9)" style="fill: #375b8d; fill-opacity: 0.7"/>
    <path d="M 212.520507 214.554331 
L 206.951876 187.270752 
L 200.183647 160.503172 
L 193.039361 147.895484 
L 181.428443 130.360178 
L 178.574882 128.351608 
L 159.369 128.136011 
L 145.51427 135.161948 
L 133.943373 143.551802 
L 132.905259 148.335315 
L 131.927988 155.270293 
L 124.601692 214.554331 
L 127.702247 214.554331 
L 135.244022 153.526645 
L 135.763769 149.838386 
L 136.315873 147.29435 
L 148.673921 138.333747 
L 161.471973 131.843667 
L 179.213052 132.04282 
L 181.848977 133.8982 
L 192.574348 150.096116 
L 199.17375 161.742235 
L 205.425777 186.468294 
L 211.158192 214.554331 
z
" clip-path="url(#pa2c693afc9)" style="fill: #34608d; fill-opacity: 0.7"/>
    <path d="M 213.882823 214.554331 
L 208.477974 188.07321 
L 201.193543 159.264109 
L 193.504374 145.694852 
L 181.007909 126.822156 
L 177.936712 124.660395 
L 157.266028 124.428355 
L 142.354619 131.99015 
L 131.570873 139.809254 
L 130.04675 146.832244 
L 128.611954 157.013942 
L 121.501137 214.554331 
L 124.601692 214.554331 
L 131.927988 155.270293 
L 132.905259 148.335315 
L 133.943373 143.551802 
L 145.51427 135.161948 
L 159.369 128.136011 
L 178.574882 128.351608 
L 181.428443 130.360178 
L 193.039361 147.895484 
L 200.183647 160.503172 
L 206.951876 187.270752 
L 212.520507 214.554331 
z
" clip-path="url(#pa2c693afc9)" style="fill: #32658e; fill-opacity: 0.7"/>
    <path d="M 215.245138 214.554331 
L 210.004073 188.875668 
L 202.203439 158.025046 
L 193.969387 143.494221 
L 180.587376 123.284134 
L 177.298542 120.969183 
L 155.163055 120.720699 
L 139.194968 128.818351 
L 129.198372 136.066706 
L 127.18824 145.329173 
L 125.295919 158.75759 
L 118.400582 214.554331 
L 121.501137 214.554331 
L 128.611954 157.013942 
L 130.04675 146.832244 
L 131.570873 139.809254 
L 142.354619 131.99015 
L 157.266028 124.428355 
L 177.936712 124.660395 
L 181.007909 126.822156 
L 193.504374 145.694852 
L 201.193543 159.264109 
L 208.477974 188.07321 
L 213.882823 214.554331 
z
" clip-path="url(#pa2c693afc9)" style="fill: #2f6b8e; fill-opacity: 0.7"/>
    <path d="M 216.607453 214.554331 
L 211.530171 189.678127 
L 203.213336 156.785983 
L 194.4344 141.293589 
L 180.166842 119.746112 
L 176.660371 117.27797 
L 153.060082 117.013044 
L 136.035317 125.646553 
L 126.825872 132.324158 
L 124.32973 143.826102 
L 121.979885 160.501238 
L 115.300027 214.554331 
L 118.400582 214.554331 
L 125.295919 158.75759 
L 127.18824 145.329173 
L 129.198372 136.066706 
L 139.194968 128.818351 
L 155.163055 120.720699 
L 177.298542 120.969183 
L 180.587376 123.284134 
L 193.969387 143.494221 
L 202.203439 158.025046 
L 210.004073 188.875668 
L 215.245138 214.554331 
z
" clip-path="url(#pa2c693afc9)" style="fill: #2d708e; fill-opacity: 0.7"/>
    <path d="M 217.969769 214.554331 
L 213.05627 190.480585 
L 204.764243 157.686557 
L 204.348298 156.135736 
L 203.197081 153.736047 
L 194.899413 139.092957 
L 179.746308 116.208091 
L 176.022201 113.586757 
L 150.957109 113.305388 
L 132.875665 122.474754 
L 124.453372 128.581611 
L 121.471221 142.323031 
L 118.663851 162.244886 
L 112.199472 214.554331 
L 115.300027 214.554331 
L 121.979885 160.501238 
L 124.32973 143.826102 
L 126.825872 132.324158 
L 136.035317 125.646553 
L 153.060082 117.013044 
L 176.660371 117.27797 
L 180.166842 119.746112 
L 194.4344 141.293589 
L 203.213336 156.785983 
L 211.530171 189.678127 
L 216.607453 214.554331 
z
" clip-path="url(#pa2c693afc9)" style="fill: #2b748e; fill-opacity: 0.7"/>
    <path d="M 219.332084 214.554331 
L 214.582368 191.283043 
L 206.566742 159.582149 
L 205.54142 155.759313 
L 202.703625 149.843982 
L 195.364426 136.892326 
L 179.325775 112.670069 
L 175.384031 109.895545 
L 148.854137 109.597732 
L 129.716014 119.302956 
L 122.080872 124.839063 
L 118.612711 140.81996 
L 115.347816 163.988534 
L 109.098917 214.554331 
L 112.199472 214.554331 
L 118.663851 162.244886 
L 121.471221 142.323031 
L 124.453372 128.581611 
L 132.875665 122.474754 
L 150.957109 113.305388 
L 176.022201 113.586757 
L 179.746308 116.208091 
L 194.899413 139.092957 
L 203.197081 153.736047 
L 204.348298 156.135736 
L 204.764243 157.686557 
L 213.05627 190.480585 
L 217.969769 214.554331 
z
" clip-path="url(#pa2c693afc9)" style="fill: #29798e; fill-opacity: 0.7"/>
    <path d="M 220.694399 214.554331 
L 216.108467 192.085501 
L 208.369242 161.477742 
L 206.734543 155.38289 
L 202.210168 145.951916 
L 195.829439 134.691694 
L 178.905241 109.132047 
L 174.745861 106.204332 
L 146.751164 105.890076 
L 126.556363 116.131157 
L 119.708372 121.096515 
L 115.754202 139.316889 
L 112.031782 165.732182 
L 105.998361 214.554331 
L 109.098917 214.554331 
L 115.347816 163.988534 
L 118.612711 140.81996 
L 122.080872 124.839063 
L 129.716014 119.302956 
L 148.854137 109.597732 
L 175.384031 109.895545 
L 179.325775 112.670069 
L 195.364426 136.892326 
L 202.703625 149.843982 
L 205.54142 155.759313 
L 206.566742 159.582149 
L 214.582368 191.283043 
L 219.332084 214.554331 
z
" clip-path="url(#pa2c693afc9)" style="fill: #277f8e; fill-opacity: 0.7"/>
    <path d="M 222.056714 214.554331 
L 217.634566 192.887959 
L 210.171741 163.373334 
L 207.927666 155.006467 
L 201.716711 142.059851 
L 196.294452 132.491062 
L 178.484708 105.594025 
L 174.107691 102.51312 
L 144.648191 102.182421 
L 123.396712 112.959359 
L 117.335871 117.353967 
L 112.895692 137.813818 
L 108.715748 167.475831 
L 102.897806 214.554331 
L 105.998361 214.554331 
L 112.031782 165.732182 
L 115.754202 139.316889 
L 119.708372 121.096515 
L 126.556363 116.131157 
L 146.751164 105.890076 
L 174.745861 106.204332 
L 178.905241 109.132047 
L 195.829439 134.691694 
L 202.210168 145.951916 
L 206.734543 155.38289 
L 208.369242 161.477742 
L 216.108467 192.085501 
L 220.694399 214.554331 
z
" clip-path="url(#pa2c693afc9)" style="fill: #25838e; fill-opacity: 0.7"/>
    <path d="M 223.41903 214.554331 
L 219.160664 193.690418 
L 211.974241 165.268926 
L 209.120788 154.630044 
L 201.223254 138.167785 
L 196.759465 130.29043 
L 178.064174 102.056003 
L 173.46952 98.821907 
L 142.545219 98.474765 
L 120.23706 109.78756 
L 114.963371 113.611419 
L 110.037183 136.310747 
L 105.399713 169.219479 
L 99.797251 214.554331 
L 102.897806 214.554331 
L 108.715748 167.475831 
L 112.895692 137.813818 
L 117.335871 117.353967 
L 123.396712 112.959359 
L 144.648191 102.182421 
L 174.107691 102.51312 
L 178.484708 105.594025 
L 196.294452 132.491062 
L 201.716711 142.059851 
L 207.927666 155.006467 
L 210.171741 163.373334 
L 217.634566 192.887959 
L 222.056714 214.554331 
z
" clip-path="url(#pa2c693afc9)" style="fill: #23888e; fill-opacity: 0.7"/>
    <path d="M 224.781345 214.554331 
L 220.686763 194.492876 
L 213.77674 167.164519 
L 210.313911 154.253621 
L 200.729798 134.27572 
L 197.224478 128.089799 
L 177.64364 98.517981 
L 172.83135 95.130695 
L 140.442246 94.767109 
L 117.077409 106.615762 
L 112.590871 109.868872 
L 107.178673 134.807676 
L 102.083679 170.963127 
L 96.696696 214.554331 
L 99.797251 214.554331 
L 105.399713 169.219479 
L 110.037183 136.310747 
L 114.963371 113.611419 
L 120.23706 109.78756 
L 142.545219 98.474765 
L 173.46952 98.821907 
L 178.064174 102.056003 
L 196.759465 130.29043 
L 201.223254 138.167785 
L 209.120788 154.630044 
L 211.974241 165.268926 
L 219.160664 193.690418 
L 223.41903 214.554331 
z
" clip-path="url(#pa2c693afc9)" style="fill: #218e8d; fill-opacity: 0.7"/>
    <path d="M 226.14366 214.554331 
L 222.212861 195.295334 
L 215.57924 169.060111 
L 211.507034 153.877198 
L 200.236341 130.383654 
L 197.689491 125.889167 
L 177.223107 94.979959 
L 172.19318 91.439482 
L 138.339273 91.059453 
L 113.917758 103.443963 
L 110.218371 106.126324 
L 104.320164 133.304605 
L 98.767645 172.706775 
L 93.596141 214.554331 
L 96.696696 214.554331 
L 102.083679 170.963127 
L 107.178673 134.807676 
L 112.590871 109.868872 
L 117.077409 106.615762 
L 140.442246 94.767109 
L 172.83135 95.130695 
L 177.64364 98.517981 
L 197.224478 128.089799 
L 200.729798 134.27572 
L 210.313911 154.253621 
L 213.77674 167.164519 
L 220.686763 194.492876 
L 224.781345 214.554331 
z
" clip-path="url(#pa2c693afc9)" style="fill: #20928c; fill-opacity: 0.7"/>
    <path d="M 227.505975 214.554331 
L 223.73896 196.097792 
L 217.381739 170.955704 
L 212.700157 153.500775 
L 199.742884 126.491588 
L 198.154503 123.688535 
L 176.802573 91.441937 
L 171.55501 87.74827 
L 136.236301 87.351798 
L 110.758107 100.272165 
L 107.84587 102.383776 
L 101.461654 131.801535 
L 95.45161 174.450423 
L 90.495586 214.554331 
L 93.596141 214.554331 
L 98.767645 172.706775 
L 104.320164 133.304605 
L 110.218371 106.126324 
L 113.917758 103.443963 
L 138.339273 91.059453 
L 172.19318 91.439482 
L 177.223107 94.979959 
L 197.689491 125.889167 
L 200.236341 130.383654 
L 211.507034 153.877198 
L 215.57924 169.060111 
L 222.212861 195.295334 
L 226.14366 214.554331 
z
" clip-path="url(#pa2c693afc9)" style="fill: #1f988b; fill-opacity: 0.7"/>
    <path d="M 228.868291 214.554331 
L 225.265058 196.90025 
L 219.184239 172.851296 
L 213.893279 153.124352 
L 199.249428 122.599523 
L 198.619516 121.487904 
L 176.38204 87.903915 
L 170.91684 84.057057 
L 134.133328 83.644142 
L 107.598455 97.100366 
L 105.47337 98.641228 
L 98.603145 130.298464 
L 92.135576 176.194071 
L 87.395031 214.554331 
L 90.495586 214.554331 
L 95.45161 174.450423 
L 101.461654 131.801535 
L 107.84587 102.383776 
L 110.758107 100.272165 
L 136.236301 87.351798 
L 171.55501 87.74827 
L 176.802573 91.441937 
L 198.154503 123.688535 
L 199.742884 126.491588 
L 212.700157 153.500775 
L 217.381739 170.955704 
L 223.73896 196.097792 
L 227.505975 214.554331 
z
" clip-path="url(#pa2c693afc9)" style="fill: #1e9d89; fill-opacity: 0.7"/>
    <path d="M 230.230606 214.554331 
L 226.791157 197.702709 
L 220.986738 174.746889 
L 215.086402 152.747929 
L 200.86114 123.095642 
L 198.925125 120.041637 
L 184.123009 96.691745 
L 175.961506 84.365893 
L 170.278669 80.365845 
L 132.030355 79.936486 
L 104.438804 93.928568 
L 103.10087 94.89868 
L 95.744635 128.795393 
L 88.819542 177.937719 
L 84.294476 214.554331 
L 87.395031 214.554331 
L 92.135576 176.194071 
L 98.603145 130.298464 
L 105.47337 98.641228 
L 107.598455 97.100366 
L 134.133328 83.644142 
L 170.91684 84.057057 
L 176.38204 87.903915 
L 198.619516 121.487904 
L 199.249428 122.599523 
L 213.893279 153.124352 
L 219.184239 172.851296 
L 225.265058 196.90025 
L 228.868291 214.554331 
z
" clip-path="url(#pa2c693afc9)" style="fill: #1fa187; fill-opacity: 0.7"/>
    <path d="M 231.592921 214.554331 
L 228.317256 198.505167 
L 222.789238 176.642481 
L 216.279525 152.371506 
L 206.508877 132.004777 
L 200.86114 123.095642 
L 215.086402 152.747929 
L 220.986738 174.746889 
L 226.791157 197.702709 
L 230.230606 214.554331 
z
M 172.878425 78.953751 
L 169.640499 76.674632 
L 129.927382 76.22883 
L 101.279153 90.756769 
L 100.72837 91.156133 
L 92.886125 127.292322 
L 85.503507 179.681368 
L 81.193921 214.554331 
L 84.294476 214.554331 
L 88.819542 177.937719 
L 95.744635 128.795393 
L 103.10087 94.89868 
L 104.438804 93.928568 
L 132.030355 79.936486 
L 170.278669 80.365845 
L 175.961506 84.365893 
L 184.123009 96.691745 
L 175.88124 83.690601 
z
" clip-path="url(#pa2c693afc9)" style="fill: #22a785; fill-opacity: 0.7"/>
    <path d="M 232.955237 214.554331 
L 229.843354 199.307625 
L 224.591737 178.538074 
L 217.472647 151.995083 
L 212.156613 140.913912 
L 206.508877 132.004777 
L 216.279525 152.371506 
L 222.789238 176.642481 
L 228.317256 198.505167 
L 231.592921 214.554331 
z
M 169.167274 73.099522 
L 169.002329 72.98342 
L 127.82441 72.521175 
L 100.407638 86.424623 
L 99.068289 88.537406 
L 97.614176 90.831226 
L 90.027616 125.789251 
L 82.187473 181.425016 
L 78.093366 214.554331 
L 81.193921 214.554331 
L 85.503507 179.681368 
L 92.886125 127.292322 
L 100.72837 91.156133 
L 101.279153 90.756769 
L 129.927382 76.22883 
L 169.640499 76.674632 
L 172.878425 78.953751 
z
" clip-path="url(#pa2c693afc9)" style="fill: #25ac82; fill-opacity: 0.7"/>
    <path d="M 234.317552 214.554331 
L 231.369453 200.110083 
L 226.394237 180.433666 
L 218.66577 151.61866 
L 217.80435 149.823047 
L 212.156613 140.913912 
L 217.472647 151.995083 
L 224.591737 178.538074 
L 229.843354 199.307625 
L 232.955237 214.554331 
z
M 167.471791 70.424948 
L 157.510087 69.170364 
L 125.721437 68.813519 
L 104.867937 79.388636 
L 100.407638 86.424623 
L 127.82441 72.521175 
L 169.002329 72.98342 
L 169.167274 73.099522 
L 168.968074 72.78529 
z
M 92.771688 98.470104 
L 87.169106 124.28618 
L 78.871439 183.168664 
L 74.992811 214.554331 
L 78.093366 214.554331 
L 82.187473 181.425016 
L 90.027616 125.789251 
L 97.614176 90.831226 
z
" clip-path="url(#pa2c693afc9)" style="fill: #2ab07f; fill-opacity: 0.7"/>
    <path d="M 235.679867 214.554331 
L 232.895551 200.912541 
L 228.196736 182.329259 
L 220.70586 154.400091 
L 218.896492 151.545868 
L 217.80435 149.823047 
L 218.66577 151.61866 
L 226.394237 180.433666 
L 231.369453 200.110083 
L 234.317552 214.554331 
z
M 165.890637 67.930725 
L 145.402197 65.350398 
L 123.618464 65.105863 
L 109.328236 72.352648 
L 104.867937 79.388636 
L 125.721437 68.813519 
L 157.510087 69.170364 
L 167.471791 70.424948 
z
M 87.929201 106.108982 
L 84.310597 122.783109 
L 75.555404 184.912312 
L 71.892256 214.554331 
L 74.992811 214.554331 
L 78.871439 183.168664 
L 87.169106 124.28618 
L 92.771688 98.470104 
z
" clip-path="url(#pa2c693afc9)" style="fill: #32b67a; fill-opacity: 0.7"/>
    <path d="M 237.042182 214.554331 
L 234.42165 201.715 
L 229.999235 184.224851 
L 222.948999 157.938576 
L 220.70586 154.400091 
L 228.196736 182.329259 
L 232.895551 200.912541 
L 235.679867 214.554331 
z
M 164.309483 65.436503 
L 133.294307 61.530431 
L 121.515492 61.398207 
L 113.788535 65.316661 
L 109.328236 72.352648 
L 123.618464 65.105863 
L 145.402197 65.350398 
L 165.890637 67.930725 
z
M 83.086714 113.74786 
L 81.452087 121.280038 
L 72.23937 186.65596 
L 68.791701 214.554331 
L 71.892256 214.554331 
L 75.555404 184.912312 
L 84.310597 122.783109 
L 87.929201 106.108982 
z
" clip-path="url(#pa2c693afc9)" style="fill: #3aba76; fill-opacity: 0.7"/>
    <path d="M 238.404498 214.554331 
L 235.947748 202.517458 
L 231.801735 186.120444 
L 225.192139 161.477061 
L 222.948999 157.938576 
L 229.999235 184.224851 
L 234.42165 201.715 
L 237.042182 214.554331 
z
M 162.72833 62.94228 
L 121.186417 57.710465 
L 119.412519 57.690552 
L 118.248834 58.280673 
L 113.788535 65.316661 
L 121.515492 61.398207 
L 133.294307 61.530431 
L 164.309483 65.436503 
z
M 78.401746 121.138256 
L 68.923336 188.399608 
L 65.691146 214.554331 
L 68.791701 214.554331 
L 72.23937 186.65596 
L 81.452087 121.280038 
L 83.086714 113.74786 
L 79.096922 120.041637 
z
" clip-path="url(#pa2c693afc9)" style="fill: #42be71; fill-opacity: 0.7"/>
    <path d="M 239.766813 214.554331 
L 237.473847 203.319916 
L 233.604234 188.016036 
L 227.435278 165.015545 
L 225.192139 161.477061 
L 231.801735 186.120444 
L 235.947748 202.517458 
L 238.404498 214.554331 
z
M 161.147176 60.448058 
L 120.148118 55.28461 
L 119.039656 57.033175 
L 118.248834 58.280673 
L 119.412519 57.690552 
L 121.186417 57.710465 
L 162.72833 62.94228 
z
M 74.453818 127.365994 
L 65.607301 190.143257 
L 62.590591 214.554331 
L 65.691146 214.554331 
L 68.923336 188.399608 
L 78.401746 121.138256 
z
" clip-path="url(#pa2c693afc9)" style="fill: #4ec36b; fill-opacity: 0.7"/>
    <path d="M 241.129128 214.554331 
L 238.999946 204.122374 
L 235.406734 189.911629 
L 229.678417 168.55403 
L 227.435278 165.015545 
L 233.604234 188.016036 
L 237.473847 203.319916 
L 239.766813 214.554331 
z
M 159.566022 57.953835 
L 121.495468 53.159205 
L 120.148118 55.28461 
L 161.147176 60.448058 
z
M 70.505889 133.593733 
L 62.291267 191.886905 
L 59.490036 214.554331 
L 62.590591 214.554331 
L 65.607301 190.143257 
L 74.453818 127.365994 
z
" clip-path="url(#pa2c693afc9)" style="fill: #58c765; fill-opacity: 0.7"/>
    <path d="M 242.491444 214.554331 
L 240.526044 204.924832 
L 237.209233 191.807221 
L 231.921556 172.092515 
L 229.678417 168.55403 
L 235.406734 189.911629 
L 238.999946 204.122374 
L 241.129128 214.554331 
z
M 157.984868 55.459613 
L 122.842819 51.0338 
L 121.495468 53.159205 
L 159.566022 57.953835 
z
M 66.557961 139.821471 
L 58.975232 193.630553 
L 56.389481 214.554331 
L 59.490036 214.554331 
L 62.291267 191.886905 
L 70.505889 133.593733 
z
" clip-path="url(#pa2c693afc9)" style="fill: #63cb5f; fill-opacity: 0.7"/>
    <path d="M 243.853759 214.554331 
L 242.052143 205.727291 
L 239.011733 193.702814 
L 234.164695 175.630999 
L 231.921556 172.092515 
L 237.209233 191.807221 
L 240.526044 204.924832 
L 242.491444 214.554331 
z
M 156.403715 52.96539 
L 124.190169 48.908395 
L 122.842819 51.0338 
L 157.984868 55.459613 
z
M 62.610033 146.049209 
L 55.659198 195.374201 
L 53.288926 214.554331 
L 56.389481 214.554331 
L 58.975232 193.630553 
L 66.557961 139.821471 
z
" clip-path="url(#pa2c693afc9)" style="fill: #70cf57; fill-opacity: 0.7"/>
    <path d="M 245.216074 214.554331 
L 243.578241 206.529749 
L 240.814232 195.598406 
L 236.407835 179.169484 
L 234.164695 175.630999 
L 239.011733 193.702814 
L 242.052143 205.727291 
L 243.853759 214.554331 
z
M 154.822561 50.471168 
L 125.53752 46.782991 
L 124.190169 48.908395 
L 156.403715 52.96539 
z
M 58.662104 152.276948 
L 52.343164 197.117849 
L 50.188371 214.554331 
L 53.288926 214.554331 
L 55.659198 195.374201 
L 62.610033 146.049209 
z
" clip-path="url(#pa2c693afc9)" style="fill: #7cd250; fill-opacity: 0.7"/>
    <path d="M 246.578389 214.554331 
L 245.10434 207.332207 
L 242.616732 197.493998 
L 238.650974 182.707969 
L 236.407835 179.169484 
L 240.814232 195.598406 
L 243.578241 206.529749 
L 245.216074 214.554331 
z
M 153.241407 47.976945 
L 126.88487 44.657586 
L 125.53752 46.782991 
L 154.822561 50.471168 
z
M 54.714176 158.504686 
L 49.027129 198.861497 
L 47.087816 214.554331 
L 50.188371 214.554331 
L 52.343164 197.117849 
L 58.662104 152.276948 
z
" clip-path="url(#pa2c693afc9)" style="fill: #89d548; fill-opacity: 0.7"/>
    <path d="M 247.940705 214.554331 
L 246.630438 208.134665 
L 244.419231 199.389591 
L 240.894113 186.246453 
L 238.650974 182.707969 
L 242.616732 197.493998 
L 245.10434 207.332207 
L 246.578389 214.554331 
z
M 151.660253 45.482723 
L 128.23222 42.532181 
L 126.88487 44.657586 
L 153.241407 47.976945 
z
M 50.766247 164.732424 
L 45.711095 200.605145 
L 43.987261 214.554331 
L 47.087816 214.554331 
L 49.027129 198.861497 
L 54.714176 158.504686 
z
" clip-path="url(#pa2c693afc9)" style="fill: #98d83e; fill-opacity: 0.7"/>
    <path d="M 249.30302 214.554331 
L 248.156537 208.937123 
L 246.221731 201.285183 
L 243.137252 189.784938 
L 240.894113 186.246453 
L 244.419231 199.389591 
L 246.630438 208.134665 
L 247.940705 214.554331 
z
M 150.0791 42.988501 
L 129.579571 40.406776 
L 128.23222 42.532181 
L 151.660253 45.482723 
z
M 46.818319 170.960163 
L 42.395061 202.348794 
L 40.886706 214.554331 
L 43.987261 214.554331 
L 45.711095 200.605145 
L 50.766247 164.732424 
z
" clip-path="url(#pa2c693afc9)" style="fill: #a5db36; fill-opacity: 0.7"/>
    <path d="M 250.665335 214.554331 
L 249.682636 209.739582 
L 248.02423 203.180776 
L 245.380392 193.323423 
L 243.137252 189.784938 
L 246.221731 201.285183 
L 248.156537 208.937123 
L 249.30302 214.554331 
z
M 148.497946 40.494278 
L 130.926921 38.281372 
L 129.579571 40.406776 
L 150.0791 42.988501 
z
M 42.870391 177.187901 
L 39.079026 204.092442 
L 37.786151 214.554331 
L 40.886706 214.554331 
L 42.395061 202.348794 
L 46.818319 170.960163 
z
" clip-path="url(#pa2c693afc9)" style="fill: #b2dd2d; fill-opacity: 0.7"/>
    <path d="M 252.027651 214.554331 
L 251.208734 210.54204 
L 249.82673 205.076368 
L 247.623531 196.861907 
L 245.380392 193.323423 
L 248.02423 203.180776 
L 249.682636 209.739582 
L 250.665335 214.554331 
z
M 146.916792 38.000056 
L 132.274272 36.155967 
L 130.926921 38.281372 
L 148.497946 40.494278 
z
M 38.922462 183.415639 
L 35.762992 205.83609 
L 34.685596 214.554331 
L 37.786151 214.554331 
L 39.079026 204.092442 
L 42.870391 177.187901 
z
" clip-path="url(#pa2c693afc9)" style="fill: #c2df23; fill-opacity: 0.7"/>
    <path d="M 253.389966 214.554331 
L 252.734833 211.344498 
L 251.629229 206.971961 
L 249.86667 200.400392 
L 247.623531 196.861907 
L 249.82673 205.076368 
L 251.208734 210.54204 
L 252.027651 214.554331 
z
M 145.335639 35.505833 
L 133.621622 34.030562 
L 132.274272 36.155967 
L 146.916792 38.000056 
z
M 34.974534 189.643377 
L 32.446958 207.579738 
L 31.58504 214.554331 
L 34.685596 214.554331 
L 35.762992 205.83609 
L 38.922462 183.415639 
z
" clip-path="url(#pa2c693afc9)" style="fill: #d0e11c; fill-opacity: 0.7"/>
    <path d="M 254.752281 214.554331 
L 254.260931 212.146956 
L 253.431729 208.867553 
L 252.109809 203.938877 
L 249.86667 200.400392 
L 251.629229 206.971961 
L 252.734833 211.344498 
L 253.389966 214.554331 
z
M 143.754485 33.011611 
L 134.968972 31.905158 
L 133.621622 34.030562 
L 145.335639 35.505833 
z
M 31.026605 195.871116 
L 29.130923 209.323386 
L 28.484485 214.554331 
L 31.58504 214.554331 
L 32.446958 207.579738 
L 34.974534 189.643377 
z
" clip-path="url(#pa2c693afc9)" style="fill: #dde318; fill-opacity: 0.7"/>
    <path d="M 256.114596 214.554331 
L 255.78703 212.949414 
L 255.234228 210.763146 
L 254.352948 207.477361 
L 252.109809 203.938877 
L 253.431729 208.867553 
L 254.260931 212.146956 
L 254.752281 214.554331 
z
M 142.173331 30.517388 
L 136.316323 29.779753 
L 134.968972 31.905158 
L 143.754485 33.011611 
z
M 27.078677 202.098854 
L 25.814889 211.067034 
L 25.38393 214.554331 
L 28.484485 214.554331 
L 29.130923 209.323386 
L 31.026605 195.871116 
z
" clip-path="url(#pa2c693afc9)" style="fill: #ece51b; fill-opacity: 0.7"/>
    <path d="M 257.476912 214.554331 
L 257.313128 213.751873 
L 257.036727 212.658738 
L 256.596088 211.015846 
L 254.352948 207.477361 
L 255.234228 210.763146 
L 255.78703 212.949414 
L 256.114596 214.554331 
z
M 140.592177 28.023166 
L 137.663673 27.654348 
L 136.316323 29.779753 
L 142.173331 30.517388 
z
M 23.130749 208.326592 
L 22.498855 212.810683 
L 22.283375 214.554331 
L 25.38393 214.554331 
L 25.814889 211.067034 
L 27.078677 202.098854 
z
" clip-path="url(#pa2c693afc9)" style="fill: #f8e621; fill-opacity: 0.7"/>
    <path d="M 256.596088 211.015846 
L 257.036727 212.658738 
L 257.313128 213.751873 
L 257.476912 214.554331 
L 258.839227 214.554331 
z
M 137.663673 27.654348 
L 140.592177 28.023166 
L 139.011024 25.528943 
z
M 22.283375 214.554331 
L 22.498855 212.810683 
L 23.130749 208.326592 
L 19.18282 214.554331 
z
" clip-path="url(#pa2c693afc9)" style="fill: #fde725; fill-opacity: 0.7"/>
   </g>
   <g id="matplotlib.axis_1"/>
   <g id="matplotlib.axis_2"/>
   <g id="line2d_1">
    <path d="M 207.484283 214.554331 
L 258.839227 214.554331 
" clip-path="url(#pa2c693afc9)" style="fill: none; stroke: #555555; stroke-opacity: 0.9; stroke-width: 0.5; stroke-linecap: square"/>
   </g>
   <g id="line2d_2">
    <path d="M 139.011024 214.554331 
L 139.011024 151.545868 
" clip-path="url(#pa2c693afc9)" style="fill: none; stroke: #555555; stroke-opacity: 0.9; stroke-width: 0.5; stroke-linecap: square"/>
   </g>
   <g id="line2d_3">
    <path d="M 218.896492 151.545868 
L 203.533902 156.392673 
" clip-path="url(#pa2c693afc9)" style="fill: none; stroke: #555555; stroke-opacity: 0.9; stroke-width: 0.5; stroke-linecap: square"/>
   </g>
   <g id="line2d_4">
    <path d="M 79.096922 120.041637 
L 99.068289 88.537406 
" clip-path="url(#pa2c693afc9)" style="fill: none; stroke: #555555; stroke-opacity: 0.9; stroke-width: 0.5; stroke-linecap: square"/>
   </g>
   <g id="line2d_5">
    <path d="M 139.011024 214.554331 
L 19.18282 214.554331 
" clip-path="url(#pa2c693afc9)" style="fill: none; stroke: #555555; stroke-opacity: 0.9; stroke-width: 0.5; stroke-linecap: square"/>
   </g>
   <g id="line2d_6">
    <path d="M 168.968074 72.78529 
L 175.88124 83.690601 
" clip-path="url(#pa2c693afc9)" style="fill: none; stroke: #555555; stroke-opacity: 0.9; stroke-width: 0.5; stroke-linecap: square"/>
   </g>
   <g id="line2d_7">
    <path d="M 99.068289 88.537406 
L 186.942305 176.749253 
" clip-path="url(#pa2c693afc9)" style="fill: none; stroke: #555555; stroke-opacity: 0.9; stroke-width: 0.5; stroke-linecap: square"/>
   </g>
   <g id="line2d_8">
    <path d="M 186.942305 176.749253 
L 207.484283 214.554331 
" clip-path="url(#pa2c693afc9)" style="fill: none; stroke: #555555; stroke-opacity: 0.9; stroke-width: 0.5; stroke-linecap: square"/>
   </g>
   <g id="line2d_9">
    <path d="M 186.942305 176.749253 
L 258.839227 214.554331 
" clip-path="url(#pa2c693afc9)" style="fill: none; stroke: #555555; stroke-opacity: 0.9; stroke-width: 0.5; stroke-linecap: square"/>
   </g>
   <g id="line2d_10">
    <path d="M 198.925125 120.041637 
L 186.942305 176.749253 
" clip-path="url(#pa2c693afc9)" style="fill: none; stroke: #555555; stroke-opacity: 0.9; stroke-width: 0.5; stroke-linecap: square"/>
   </g>
   <g id="line2d_11">
    <path d="M 203.533902 156.392673 
L 258.839227 214.554331 
" clip-path="url(#pa2c693afc9)" style="fill: none; stroke: #555555; stroke-opacity: 0.9; stroke-width: 0.5; stroke-linecap: square"/>
   </g>
   <g id="line2d_12">
    <path d="M 139.011024 151.545868 
L 186.942305 176.749253 
" clip-path="url(#pa2c693afc9)" style="fill: none; stroke: #555555; stroke-opacity: 0.9; stroke-width: 0.5; stroke-linecap: square"/>
   </g>
   <g id="line2d_13">
    <path d="M 178.953758 214.554331 
L 186.942305 176.749253 
" clip-path="url(#pa2c693afc9)" style="fill: none; stroke: #555555; stroke-opacity: 0.9; stroke-width: 0.5; stroke-linecap: square"/>
   </g>
   <g id="line2d_14">
    <path d="M 175.88124 83.690601 
L 186.942305 176.749253 
" clip-path="url(#pa2c693afc9)" style="fill: none; stroke: #555555; stroke-opacity: 0.9; stroke-width: 0.5; stroke-linecap: square"/>
   </g>
   <g id="line2d_15">
    <path d="M 139.011024 214.554331 
L 178.953758 214.554331 
" clip-path="url(#pa2c693afc9)" style="fill: none; stroke: #555555; stroke-opacity: 0.9; stroke-width: 0.5; stroke-linecap: square"/>
   </g>
   <g id="line2d_16">
    <path d="M 99.068289 88.537406 
L 119.039656 57.033175 
" clip-path="url(#pa2c693afc9)" style="fill: none; stroke: #555555; stroke-opacity: 0.9; stroke-width: 0.5; stroke-linecap: square"/>
   </g>
   <g id="line2d_17">
    <path d="M 99.068289 88.537406 
L 139.011024 151.545868 
" clip-path="url(#pa2c693afc9)" style="fill: none; stroke: #555555; stroke-opacity: 0.9; stroke-width: 0.5; stroke-linecap: square"/>
   </g>
   <g id="line2d_18">
    <path d="M 218.896492 151.545868 
L 258.839227 214.554331 
" clip-path="url(#pa2c693afc9)" style="fill: none; stroke: #555555; stroke-opacity: 0.9; stroke-width: 0.5; stroke-linecap: square"/>
   </g>
   <g id="line2d_19">
    <path d="M 198.925125 120.041637 
L 203.533902 156.392673 
" clip-path="url(#pa2c693afc9)" style="fill: none; stroke: #555555; stroke-opacity: 0.9; stroke-width: 0.5; stroke-linecap: square"/>
   </g>
   <g id="line2d_20">
    <path d="M 119.039656 57.033175 
L 186.942305 176.749253 
" clip-path="url(#pa2c693afc9)" style="fill: none; stroke: #555555; stroke-opacity: 0.9; stroke-width: 0.5; stroke-linecap: square"/>
   </g>
   <g id="line2d_21">
    <path d="M 119.039656 57.033175 
L 139.011024 25.528943 
" clip-path="url(#pa2c693afc9)" style="fill: none; stroke: #555555; stroke-opacity: 0.9; stroke-width: 0.5; stroke-linecap: square"/>
   </g>
   <g id="line2d_22">
    <path d="M 168.968074 72.78529 
L 186.942305 176.749253 
" clip-path="url(#pa2c693afc9)" style="fill: none; stroke: #555555; stroke-opacity: 0.9; stroke-width: 0.5; stroke-linecap: square"/>
   </g>
   <g id="line2d_23">
    <path d="M 178.953758 214.554331 
L 198.925125 214.554331 
" clip-path="url(#pa2c693afc9)" style="fill: none; stroke: #555555; stroke-opacity: 0.9; stroke-width: 0.5; stroke-linecap: square"/>
   </g>
   <g id="line2d_24">
    <path d="M 168.968074 72.78529 
L 139.011024 25.528943 
" clip-path="url(#pa2c693afc9)" style="fill: none; stroke: #555555; stroke-opacity: 0.9; stroke-width: 0.5; stroke-linecap: square"/>
   </g>
   <g id="line2d_25">
    <path d="M 139.011024 151.545868 
L 19.18282 214.554331 
" clip-path="url(#pa2c693afc9)" style="fill: none; stroke: #555555; stroke-opacity: 0.9; stroke-width: 0.5; stroke-linecap: square"/>
   </g>
   <g id="line2d_26">
    <path d="M 198.925125 214.554331 
L 207.484283 214.554331 
" clip-path="url(#pa2c693afc9)" style="fill: none; stroke: #555555; stroke-opacity: 0.9; stroke-width: 0.5; stroke-linecap: square"/>
   </g>
   <g id="line2d_27">
    <path d="M 198.925125 120.041637 
L 218.896492 151.545868 
" clip-path="url(#pa2c693afc9)" style="fill: none; stroke: #555555; stroke-opacity: 0.9; stroke-width: 0.5; stroke-linecap: square"/>
   </g>
   <g id="line2d_28">
    <path d="M 186.942305 176.749253 
L 203.533902 156.392673 
" clip-path="url(#pa2c693afc9)" style="fill: none; stroke: #555555; stroke-opacity: 0.9; stroke-width: 0.5; stroke-linecap: square"/>
   </g>
   <g id="line2d_29">
    <path d="M 198.925125 120.041637 
L 175.88124 83.690601 
" clip-path="url(#pa2c693afc9)" style="fill: none; stroke: #555555; stroke-opacity: 0.9; stroke-width: 0.5; stroke-linecap: square"/>
   </g>
   <g id="line2d_30">
    <path d="M 79.096922 120.041637 
L 139.011024 151.545868 
" clip-path="url(#pa2c693afc9)" style="fill: none; stroke: #555555; stroke-opacity: 0.9; stroke-width: 0.5; stroke-linecap: square"/>
   </g>
   <g id="line2d_31">
    <path d="M 168.968074 72.78529 
L 119.039656 57.033175 
" clip-path="url(#pa2c693afc9)" style="fill: none; stroke: #555555; stroke-opacity: 0.9; stroke-width: 0.5; stroke-linecap: square"/>
   </g>
   <g id="line2d_32">
    <path d="M 79.096922 120.041637 
L 19.18282 214.554331 
" clip-path="url(#pa2c693afc9)" style="fill: none; stroke: #555555; stroke-opacity: 0.9; stroke-width: 0.5; stroke-linecap: square"/>
   </g>
   <g id="line2d_33">
    <path d="M 139.011024 151.545868 
L 178.953758 214.554331 
" clip-path="url(#pa2c693afc9)" style="fill: none; stroke: #555555; stroke-opacity: 0.9; stroke-width: 0.5; stroke-linecap: square"/>
   </g>
   <g id="line2d_34">
    <path d="M 198.925125 214.554331 
L 186.942305 176.749253 
" clip-path="url(#pa2c693afc9)" style="fill: none; stroke: #555555; stroke-opacity: 0.9; stroke-width: 0.5; stroke-linecap: square"/>
   </g>
   <g id="PathCollection_1">
    <defs>
     <path id="m6aeaf2a60e" d="M 0 2.738613 
C 0.726289 2.738613 1.422928 2.450055 1.936492 1.936492 
C 2.450055 1.422928 2.738613 0.726289 2.738613 0 
C 2.738613 -0.726289 2.450055 -1.422928 1.936492 -1.936492 
C 1.422928 -2.450055 0.726289 -2.738613 0 -2.738613 
C -0.726289 -2.738613 -1.422928 -2.450055 -1.936492 -1.936492 
C -2.450055 -1.422928 -2.738613 -0.726289 -2.738613 0 
C -2.738613 0.726289 -2.450055 1.422928 -1.936492 1.936492 
C -1.422928 2.450055 -0.726289 2.738613 0 2.738613 
z
" style="stroke: #008000"/>
    </defs>
    <g clip-path="url(#pa2c693afc9)">
     <use xlink:href="#m6aeaf2a60e" x="207.484283" y="214.554331" style="fill: #008000; stroke: #008000"/>
     <use xlink:href="#m6aeaf2a60e" x="258.839227" y="214.554331" style="fill: #008000; stroke: #008000"/>
     <use xlink:href="#m6aeaf2a60e" x="139.011024" y="214.554331" style="fill: #008000; stroke: #008000"/>
     <use xlink:href="#m6aeaf2a60e" x="139.011024" y="151.545868" style="fill: #008000; stroke: #008000"/>
     <use xlink:href="#m6aeaf2a60e" x="218.896492" y="151.545868" style="fill: #008000; stroke: #008000"/>
     <use xlink:href="#m6aeaf2a60e" x="203.533902" y="156.392673" style="fill: #008000; stroke: #008000"/>
     <use xlink:href="#m6aeaf2a60e" x="79.096922" y="120.041637" style="fill: #008000; stroke: #008000"/>
     <use xlink:href="#m6aeaf2a60e" x="99.068289" y="88.537406" style="fill: #008000; stroke: #008000"/>
     <use xlink:href="#m6aeaf2a60e" x="19.18282" y="214.554331" style="fill: #008000; stroke: #008000"/>
     <use xlink:href="#m6aeaf2a60e" x="168.968074" y="72.78529" style="fill: #008000; stroke: #008000"/>
     <use xlink:href="#m6aeaf2a60e" x="175.88124" y="83.690601" style="fill: #008000; stroke: #008000"/>
     <use xlink:href="#m6aeaf2a60e" x="186.942305" y="176.749253" style="fill: #008000; stroke: #008000"/>
     <use xlink:href="#m6aeaf2a60e" x="198.925125" y="120.041637" style="fill: #008000; stroke: #008000"/>
     <use xlink:href="#m6aeaf2a60e" x="178.953758" y="214.554331" style="fill: #008000; stroke: #008000"/>
     <use xlink:href="#m6aeaf2a60e" x="119.039656" y="57.033175" style="fill: #008000; stroke: #008000"/>
     <use xlink:href="#m6aeaf2a60e" x="139.011024" y="25.528943" style="fill: #008000; stroke: #008000"/>
     <use xlink:href="#m6aeaf2a60e" x="198.925125" y="214.554331" style="fill: #008000; stroke: #008000"/>
    </g>
   </g>
   <g id="PathCollection_2">
    <defs>
     <path id="m4964265fb1" d="M -0 2.236068 
L 1.341641 0 
L 0 -2.236068 
L -1.341641 -0 
z
" style="stroke: #d3d3d3"/>
    </defs>
    <g clip-path="url(#pa2c693afc9)">
     <use xlink:href="#m4964265fb1" x="139.011024" y="25.528943" style="fill: #d3d3d3; stroke: #d3d3d3"/>
     <use xlink:href="#m4964265fb1" x="139.011024" y="25.528943" style="fill: #d3d3d3; stroke: #d3d3d3"/>
     <use xlink:href="#m4964265fb1" x="139.011024" y="25.528943" style="fill: #d3d3d3; stroke: #d3d3d3"/>
     <use xlink:href="#m4964265fb1" x="139.011024" y="25.528943" style="fill: #d3d3d3; stroke: #d3d3d3"/>
     <use xlink:href="#m4964265fb1" x="139.011024" y="25.528943" style="fill: #d3d3d3; stroke: #d3d3d3"/>
     <use xlink:href="#m4964265fb1" x="139.011024" y="25.528943" style="fill: #d3d3d3; stroke: #d3d3d3"/>
     <use xlink:href="#m4964265fb1" x="139.011024" y="25.528943" style="fill: #d3d3d3; stroke: #d3d3d3"/>
     <use xlink:href="#m4964265fb1" x="258.839227" y="214.554331" style="fill: #d3d3d3; stroke: #d3d3d3"/>
     <use xlink:href="#m4964265fb1" x="258.839227" y="214.554331" style="fill: #d3d3d3; stroke: #d3d3d3"/>
     <use xlink:href="#m4964265fb1" x="258.839227" y="214.554331" style="fill: #d3d3d3; stroke: #d3d3d3"/>
     <use xlink:href="#m4964265fb1" x="258.839227" y="214.554331" style="fill: #d3d3d3; stroke: #d3d3d3"/>
     <use xlink:href="#m4964265fb1" x="258.839227" y="214.554331" style="fill: #d3d3d3; stroke: #d3d3d3"/>
     <use xlink:href="#m4964265fb1" x="258.839227" y="214.554331" style="fill: #d3d3d3; stroke: #d3d3d3"/>
     <use xlink:href="#m4964265fb1" x="258.839227" y="214.554331" style="fill: #d3d3d3; stroke: #d3d3d3"/>
     <use xlink:href="#m4964265fb1" x="258.839227" y="214.554331" style="fill: #d3d3d3; stroke: #d3d3d3"/>
     <use xlink:href="#m4964265fb1" x="258.839227" y="214.554331" style="fill: #d3d3d3; stroke: #d3d3d3"/>
     <use xlink:href="#m4964265fb1" x="198.925125" y="120.041637" style="fill: #d3d3d3; stroke: #d3d3d3"/>
     <use xlink:href="#m4964265fb1" x="168.968074" y="72.78529" style="fill: #d3d3d3; stroke: #d3d3d3"/>
     <use xlink:href="#m4964265fb1" x="168.968074" y="72.78529" style="fill: #d3d3d3; stroke: #d3d3d3"/>
     <use xlink:href="#m4964265fb1" x="168.968074" y="72.78529" style="fill: #d3d3d3; stroke: #d3d3d3"/>
     <use xlink:href="#m4964265fb1" x="162.976664" y="63.334021" style="fill: #d3d3d3; stroke: #d3d3d3"/>
     <use xlink:href="#m4964265fb1" x="218.896492" y="151.545868" style="fill: #d3d3d3; stroke: #d3d3d3"/>
     <use xlink:href="#m4964265fb1" x="218.896492" y="151.545868" style="fill: #d3d3d3; stroke: #d3d3d3"/>
     <use xlink:href="#m4964265fb1" x="228.882176" y="167.297984" style="fill: #d3d3d3; stroke: #d3d3d3"/>
     <use xlink:href="#m4964265fb1" x="228.882176" y="167.297984" style="fill: #d3d3d3; stroke: #d3d3d3"/>
     <use xlink:href="#m4964265fb1" x="210.907946" y="138.944176" style="fill: #d3d3d3; stroke: #d3d3d3"/>
     <use xlink:href="#m4964265fb1" x="164.238014" y="65.323762" style="fill: #d3d3d3; stroke: #d3d3d3"/>
     <use xlink:href="#m4964265fb1" x="19.18282" y="214.554331" style="fill: #d3d3d3; stroke: #d3d3d3"/>
     <use xlink:href="#m4964265fb1" x="19.18282" y="214.554331" style="fill: #d3d3d3; stroke: #d3d3d3"/>
     <use xlink:href="#m4964265fb1" x="19.18282" y="214.554331" style="fill: #d3d3d3; stroke: #d3d3d3"/>
     <use xlink:href="#m4964265fb1" x="19.18282" y="214.554331" style="fill: #d3d3d3; stroke: #d3d3d3"/>
     <use xlink:href="#m4964265fb1" x="19.18282" y="214.554331" style="fill: #d3d3d3; stroke: #d3d3d3"/>
     <use xlink:href="#m4964265fb1" x="19.18282" y="214.554331" style="fill: #d3d3d3; stroke: #d3d3d3"/>
     <use xlink:href="#m4964265fb1" x="19.18282" y="214.554331" style="fill: #d3d3d3; stroke: #d3d3d3"/>
     <use xlink:href="#m4964265fb1" x="19.18282" y="214.554331" style="fill: #d3d3d3; stroke: #d3d3d3"/>
     <use xlink:href="#m4964265fb1" x="19.18282" y="214.554331" style="fill: #d3d3d3; stroke: #d3d3d3"/>
     <use xlink:href="#m4964265fb1" x="121.892709" y="52.53257" style="fill: #d3d3d3; stroke: #d3d3d3"/>
     <use xlink:href="#m4964265fb1" x="121.892709" y="52.53257" style="fill: #d3d3d3; stroke: #d3d3d3"/>
     <use xlink:href="#m4964265fb1" x="139.011024" y="214.554331" style="fill: #d3d3d3; stroke: #d3d3d3"/>
     <use xlink:href="#m4964265fb1" x="139.011024" y="214.554331" style="fill: #d3d3d3; stroke: #d3d3d3"/>
     <use xlink:href="#m4964265fb1" x="139.011024" y="151.545868" style="fill: #d3d3d3; stroke: #d3d3d3"/>
     <use xlink:href="#m4964265fb1" x="139.011024" y="88.537406" style="fill: #d3d3d3; stroke: #d3d3d3"/>
     <use xlink:href="#m4964265fb1" x="198.925125" y="214.554331" style="fill: #d3d3d3; stroke: #d3d3d3"/>
     <use xlink:href="#m4964265fb1" x="210.907946" y="214.554331" style="fill: #d3d3d3; stroke: #d3d3d3"/>
     <use xlink:href="#m4964265fb1" x="210.907946" y="214.554331" style="fill: #d3d3d3; stroke: #d3d3d3"/>
     <use xlink:href="#m4964265fb1" x="99.068289" y="214.554331" style="fill: #d3d3d3; stroke: #d3d3d3"/>
     <use xlink:href="#m4964265fb1" x="168.968074" y="135.793753" style="fill: #d3d3d3; stroke: #d3d3d3"/>
     <use xlink:href="#m4964265fb1" x="198.925125" y="195.651792" style="fill: #d3d3d3; stroke: #d3d3d3"/>
     <use xlink:href="#m4964265fb1" x="49.139871" y="167.297984" style="fill: #d3d3d3; stroke: #d3d3d3"/>
     <use xlink:href="#m4964265fb1" x="79.096922" y="214.554331" style="fill: #d3d3d3; stroke: #d3d3d3"/>
     <use xlink:href="#m4964265fb1" x="79.096922" y="214.554331" style="fill: #d3d3d3; stroke: #d3d3d3"/>
     <use xlink:href="#m4964265fb1" x="215.823974" y="175.779892" style="fill: #d3d3d3; stroke: #d3d3d3"/>
     <use xlink:href="#m4964265fb1" x="67.114102" y="214.554331" style="fill: #d3d3d3; stroke: #d3d3d3"/>
    </g>
   </g>
   <g id="PathCollection_3">
    <defs>
     <path id="m5fd90ecd0c" d="M 0 -5 
L -1.12257 -1.545085 
L -4.755283 -1.545085 
L -1.816356 0.59017 
L -2.938926 4.045085 
L -0 1.90983 
L 2.938926 4.045085 
L 1.816356 0.59017 
L 4.755283 -1.545085 
L 1.12257 -1.545085 
z
" style="stroke: #ff0000"/>
    </defs>
    <g clip-path="url(#pa2c693afc9)">
     <use xlink:href="#m5fd90ecd0c" x="203.533902" y="156.392673" style="fill: #ff0000; stroke: #ff0000"/>
    </g>
   </g>
   <g id="text_1">
    <!-- $\mathrm{Pr_{3}Al_{11}}$ -->
    <g transform="translate(212.134283 211.842048) scale(0.1 -0.1)">
     <defs>
      <path id="DejaVuSans-50" d="M 1259 4147 
L 1259 2394 
L 2053 2394 
Q 2494 2394 2734 2622 
Q 2975 2850 2975 3272 
Q 2975 3691 2734 3919 
Q 2494 4147 2053 4147 
L 1259 4147 
z
M 628 4666 
L 2053 4666 
Q 2838 4666 3239 4311 
Q 3641 3956 3641 3272 
Q 3641 2581 3239 2228 
Q 2838 1875 2053 1875 
L 1259 1875 
L 1259 0 
L 628 0 
L 628 4666 
z
" transform="scale(0.015625)"/>
      <path id="DejaVuSans-72" d="M 2631 2963 
Q 2534 3019 2420 3045 
Q 2306 3072 2169 3072 
Q 1681 3072 1420 2755 
Q 1159 2438 1159 1844 
L 1159 0 
L 581 0 
L 581 3500 
L 1159 3500 
L 1159 2956 
Q 1341 3275 1631 3429 
Q 1922 3584 2338 3584 
Q 2397 3584 2469 3576 
Q 2541 3569 2628 3553 
L 2631 2963 
z
" transform="scale(0.015625)"/>
      <path id="DejaVuSans-33" d="M 2597 2516 
Q 3050 2419 3304 2112 
Q 3559 1806 3559 1356 
Q 3559 666 3084 287 
Q 2609 -91 1734 -91 
Q 1441 -91 1130 -33 
Q 819 25 488 141 
L 488 750 
Q 750 597 1062 519 
Q 1375 441 1716 441 
Q 2309 441 2620 675 
Q 2931 909 2931 1356 
Q 2931 1769 2642 2001 
Q 2353 2234 1838 2234 
L 1294 2234 
L 1294 2753 
L 1863 2753 
Q 2328 2753 2575 2939 
Q 2822 3125 2822 3475 
Q 2822 3834 2567 4026 
Q 2313 4219 1838 4219 
Q 1578 4219 1281 4162 
Q 984 4106 628 3988 
L 628 4550 
Q 988 4650 1302 4700 
Q 1616 4750 1894 4750 
Q 2613 4750 3031 4423 
Q 3450 4097 3450 3541 
Q 3450 3153 3228 2886 
Q 3006 2619 2597 2516 
z
" transform="scale(0.015625)"/>
      <path id="DejaVuSans-41" d="M 2188 4044 
L 1331 1722 
L 3047 1722 
L 2188 4044 
z
M 1831 4666 
L 2547 4666 
L 4325 0 
L 3669 0 
L 3244 1197 
L 1141 1197 
L 716 0 
L 50 0 
L 1831 4666 
z
" transform="scale(0.015625)"/>
      <path id="DejaVuSans-6c" d="M 603 4863 
L 1178 4863 
L 1178 0 
L 603 0 
L 603 4863 
z
" transform="scale(0.015625)"/>
      <path id="DejaVuSans-31" d="M 794 531 
L 1825 531 
L 1825 4091 
L 703 3866 
L 703 4441 
L 1819 4666 
L 2450 4666 
L 2450 531 
L 3481 531 
L 3481 0 
L 794 0 
L 794 531 
z
" transform="scale(0.015625)"/>
     </defs>
     <use xlink:href="#DejaVuSans-50" transform="translate(0 0.015625)"/>
     <use xlink:href="#DejaVuSans-72" transform="translate(60.302734 0.015625)"/>
     <use xlink:href="#DejaVuSans-33" transform="translate(102.373047 -16.390625) scale(0.7)"/>
     <use xlink:href="#DejaVuSans-41" transform="translate(149.643555 0.015625)"/>
     <use xlink:href="#DejaVuSans-6c" transform="translate(218.051758 0.015625)"/>
     <use xlink:href="#DejaVuSans-31" transform="translate(246.791992 -16.390625) scale(0.7)"/>
     <use xlink:href="#DejaVuSans-31" transform="translate(291.328125 -16.390625) scale(0.7)"/>
    </g>
   </g>
   <g id="text_2">
    <!-- $\mathrm{Al}$ -->
    <g transform="translate(249.389691 206.851105) scale(0.1 -0.1)">
     <use xlink:href="#DejaVuSans-41" transform="translate(0 0.015625)"/>
     <use xlink:href="#DejaVuSans-6c" transform="translate(68.408203 0.015625)"/>
    </g>
   </g>
   <g id="text_3">
    <!-- $\mathrm{PrAl}$ -->
    <g transform="translate(132.383751 211.215873) scale(0.1 -0.1)">
     <use xlink:href="#DejaVuSans-50" transform="translate(0 0.015625)"/>
     <use xlink:href="#DejaVuSans-72" transform="translate(60.302734 0.015625)"/>
     <use xlink:href="#DejaVuSans-41" transform="translate(101.416016 0.015625)"/>
     <use xlink:href="#DejaVuSans-6c" transform="translate(169.824219 0.015625)"/>
    </g>
   </g>
   <g id="text_4">
    <!-- $\mathrm{PrAlCu}$ -->
    <g transform="translate(111.988296 159.742869) scale(0.1 -0.1)">
     <defs>
      <path id="DejaVuSans-43" d="M 4122 4306 
L 4122 3641 
Q 3803 3938 3442 4084 
Q 3081 4231 2675 4231 
Q 1875 4231 1450 3742 
Q 1025 3253 1025 2328 
Q 1025 1406 1450 917 
Q 1875 428 2675 428 
Q 3081 428 3442 575 
Q 3803 722 4122 1019 
L 4122 359 
Q 3791 134 3420 21 
Q 3050 -91 2638 -91 
Q 1578 -91 968 557 
Q 359 1206 359 2328 
Q 359 3453 968 4101 
Q 1578 4750 2638 4750 
Q 3056 4750 3426 4639 
Q 3797 4528 4122 4306 
z
" transform="scale(0.015625)"/>
      <path id="DejaVuSans-75" d="M 544 1381 
L 544 3500 
L 1119 3500 
L 1119 1403 
Q 1119 906 1312 657 
Q 1506 409 1894 409 
Q 2359 409 2629 706 
Q 2900 1003 2900 1516 
L 2900 3500 
L 3475 3500 
L 3475 0 
L 2900 0 
L 2900 538 
Q 2691 219 2414 64 
Q 2138 -91 1772 -91 
Q 1169 -91 856 284 
Q 544 659 544 1381 
z
M 1991 3584 
L 1991 3584 
z
" transform="scale(0.015625)"/>
     </defs>
     <use xlink:href="#DejaVuSans-50" transform="translate(0 0.015625)"/>
     <use xlink:href="#DejaVuSans-72" transform="translate(60.302734 0.015625)"/>
     <use xlink:href="#DejaVuSans-41" transform="translate(101.416016 0.015625)"/>
     <use xlink:href="#DejaVuSans-6c" transform="translate(169.824219 0.015625)"/>
     <use xlink:href="#DejaVuSans-43" transform="translate(197.607422 0.015625)"/>
     <use xlink:href="#DejaVuSans-75" transform="translate(267.431641 0.015625)"/>
    </g>
   </g>
   <g id="text_5">
    <!-- $\mathrm{Al_{2}Cu}$ -->
    <g transform="translate(211.541947 147.420198) scale(0.1 -0.1)">
     <defs>
      <path id="DejaVuSans-32" d="M 1228 531 
L 3431 531 
L 3431 0 
L 469 0 
L 469 531 
Q 828 903 1448 1529 
Q 2069 2156 2228 2338 
Q 2531 2678 2651 2914 
Q 2772 3150 2772 3378 
Q 2772 3750 2511 3984 
Q 2250 4219 1831 4219 
Q 1534 4219 1204 4116 
Q 875 4013 500 3803 
L 500 4441 
Q 881 4594 1212 4672 
Q 1544 4750 1819 4750 
Q 2544 4750 2975 4387 
Q 3406 4025 3406 3419 
Q 3406 3131 3298 2873 
Q 3191 2616 2906 2266 
Q 2828 2175 2409 1742 
Q 1991 1309 1228 531 
z
" transform="scale(0.015625)"/>
     </defs>
     <use xlink:href="#DejaVuSans-41" transform="translate(0 0.015625)"/>
     <use xlink:href="#DejaVuSans-6c" transform="translate(68.408203 0.015625)"/>
     <use xlink:href="#DejaVuSans-32" transform="translate(97.148438 -16.390625) scale(0.7)"/>
     <use xlink:href="#DejaVuSans-43" transform="translate(144.418945 0.015625)"/>
     <use xlink:href="#DejaVuSans-75" transform="translate(214.243164 0.015625)"/>
    </g>
   </g>
   <g id="text_6">
    <!-- $\mathrm{PrCu}$ -->
    <g transform="translate(60.146922 128.238638) scale(0.1 -0.1)">
     <use xlink:href="#DejaVuSans-50" transform="translate(0 0.78125)"/>
     <use xlink:href="#DejaVuSans-72" transform="translate(60.302734 0.78125)"/>
     <use xlink:href="#DejaVuSans-43" transform="translate(101.416016 0.78125)"/>
     <use xlink:href="#DejaVuSans-75" transform="translate(171.240234 0.78125)"/>
    </g>
   </g>
   <g id="text_7">
    <!-- $\mathrm{PrCu_{2}}$ -->
    <g transform="translate(76.409198 97.385289) scale(0.1 -0.1)">
     <use xlink:href="#DejaVuSans-50" transform="translate(0 0.78125)"/>
     <use xlink:href="#DejaVuSans-72" transform="translate(60.302734 0.78125)"/>
     <use xlink:href="#DejaVuSans-43" transform="translate(101.416016 0.78125)"/>
     <use xlink:href="#DejaVuSans-75" transform="translate(171.240234 0.78125)"/>
     <use xlink:href="#DejaVuSans-32" transform="translate(235.576172 -15.625) scale(0.7)"/>
    </g>
   </g>
   <g id="text_8">
    <!-- $\mathrm{Pr}$ -->
    <g transform="translate(20.012022 212.151181) scale(0.1 -0.1)">
     <use xlink:href="#DejaVuSans-50" transform="translate(0 0.09375)"/>
     <use xlink:href="#DejaVuSans-72" transform="translate(60.302734 0.09375)"/>
    </g>
   </g>
   <g id="text_9">
    <!-- $\mathrm{AlCu_{3}}$ -->
    <g transform="translate(161.613529 68.638869) scale(0.1 -0.1)">
     <use xlink:href="#DejaVuSans-41" transform="translate(0 0.015625)"/>
     <use xlink:href="#DejaVuSans-6c" transform="translate(68.408203 0.015625)"/>
     <use xlink:href="#DejaVuSans-43" transform="translate(96.191406 0.015625)"/>
     <use xlink:href="#DejaVuSans-75" transform="translate(166.015625 0.015625)"/>
     <use xlink:href="#DejaVuSans-33" transform="translate(230.351562 -16.390625) scale(0.7)"/>
    </g>
   </g>
   <g id="text_10">
    <!-- $\mathrm{Al_{4}Cu_{9}}$ -->
    <g transform="translate(175.944876 87.026639) scale(0.1 -0.1)">
     <defs>
      <path id="DejaVuSans-34" d="M 2419 4116 
L 825 1625 
L 2419 1625 
L 2419 4116 
z
M 2253 4666 
L 3047 4666 
L 3047 1625 
L 3713 1625 
L 3713 1100 
L 3047 1100 
L 3047 0 
L 2419 0 
L 2419 1100 
L 313 1100 
L 313 1709 
L 2253 4666 
z
" transform="scale(0.015625)"/>
      <path id="DejaVuSans-39" d="M 703 97 
L 703 672 
Q 941 559 1184 500 
Q 1428 441 1663 441 
Q 2288 441 2617 861 
Q 2947 1281 2994 2138 
Q 2813 1869 2534 1725 
Q 2256 1581 1919 1581 
Q 1219 1581 811 2004 
Q 403 2428 403 3163 
Q 403 3881 828 4315 
Q 1253 4750 1959 4750 
Q 2769 4750 3195 4129 
Q 3622 3509 3622 2328 
Q 3622 1225 3098 567 
Q 2575 -91 1691 -91 
Q 1453 -91 1209 -44 
Q 966 3 703 97 
z
M 1959 2075 
Q 2384 2075 2632 2365 
Q 2881 2656 2881 3163 
Q 2881 3666 2632 3958 
Q 2384 4250 1959 4250 
Q 1534 4250 1286 3958 
Q 1038 3666 1038 3163 
Q 1038 2656 1286 2365 
Q 1534 2075 1959 2075 
z
" transform="scale(0.015625)"/>
     </defs>
     <use xlink:href="#DejaVuSans-41" transform="translate(0 0.015625)"/>
     <use xlink:href="#DejaVuSans-6c" transform="translate(68.408203 0.015625)"/>
     <use xlink:href="#DejaVuSans-34" transform="translate(97.148438 -16.390625) scale(0.7)"/>
     <use xlink:href="#DejaVuSans-43" transform="translate(144.418945 0.015625)"/>
     <use xlink:href="#DejaVuSans-75" transform="translate(214.243164 0.015625)"/>
     <use xlink:href="#DejaVuSans-39" transform="translate(278.579102 -16.390625) scale(0.7)"/>
    </g>
   </g>
   <g id="text_11">
    <!-- $\mathrm{PrAl_{3}Cu}$ -->
    <g transform="translate(150.924123 185.697136) scale(0.1 -0.1)">
     <use xlink:href="#DejaVuSans-50" transform="translate(0 0.015625)"/>
     <use xlink:href="#DejaVuSans-72" transform="translate(60.302734 0.015625)"/>
     <use xlink:href="#DejaVuSans-41" transform="translate(101.416016 0.015625)"/>
     <use xlink:href="#DejaVuSans-6c" transform="translate(169.824219 0.015625)"/>
     <use xlink:href="#DejaVuSans-33" transform="translate(198.564453 -16.390625) scale(0.7)"/>
     <use xlink:href="#DejaVuSans-43" transform="translate(245.834961 0.015625)"/>
     <use xlink:href="#DejaVuSans-75" transform="translate(315.65918 0.015625)"/>
    </g>
   </g>
   <g id="text_12">
    <!-- $\mathrm{AlCu}$ -->
    <g transform="translate(180.225125 128.238638) scale(0.1 -0.1)">
     <use xlink:href="#DejaVuSans-41" transform="translate(0 0.015625)"/>
     <use xlink:href="#DejaVuSans-6c" transform="translate(68.408203 0.015625)"/>
     <use xlink:href="#DejaVuSans-43" transform="translate(96.191406 0.015625)"/>
     <use xlink:href="#DejaVuSans-75" transform="translate(166.015625 0.015625)"/>
    </g>
   </g>
   <g id="text_13">
    <!-- $\mathrm{PrAl_{2}}$ -->
    <g transform="translate(171.890122 210.544971) scale(0.1 -0.1)">
     <use xlink:href="#DejaVuSans-50" transform="translate(0 0.015625)"/>
     <use xlink:href="#DejaVuSans-72" transform="translate(60.302734 0.015625)"/>
     <use xlink:href="#DejaVuSans-41" transform="translate(101.416016 0.015625)"/>
     <use xlink:href="#DejaVuSans-6c" transform="translate(169.824219 0.015625)"/>
     <use xlink:href="#DejaVuSans-32" transform="translate(198.564453 -16.390625) scale(0.7)"/>
    </g>
   </g>
   <g id="text_14">
    <!-- $\mathrm{PrCu_{5}}$ -->
    <g transform="translate(95.72602 65.931057) scale(0.1 -0.1)">
     <defs>
      <path id="DejaVuSans-35" d="M 691 4666 
L 3169 4666 
L 3169 4134 
L 1269 4134 
L 1269 2991 
Q 1406 3038 1543 3061 
Q 1681 3084 1819 3084 
Q 2600 3084 3056 2656 
Q 3513 2228 3513 1497 
Q 3513 744 3044 326 
Q 2575 -91 1722 -91 
Q 1428 -91 1123 -41 
Q 819 9 494 109 
L 494 744 
Q 775 591 1075 516 
Q 1375 441 1709 441 
Q 2250 441 2565 725 
Q 2881 1009 2881 1497 
Q 2881 1984 2565 2268 
Q 2250 2553 1709 2553 
Q 1456 2553 1204 2497 
Q 953 2441 691 2322 
L 691 4666 
z
" transform="scale(0.015625)"/>
     </defs>
     <use xlink:href="#DejaVuSans-50" transform="translate(0 0.78125)"/>
     <use xlink:href="#DejaVuSans-72" transform="translate(60.302734 0.78125)"/>
     <use xlink:href="#DejaVuSans-43" transform="translate(101.416016 0.78125)"/>
     <use xlink:href="#DejaVuSans-75" transform="translate(171.240234 0.78125)"/>
     <use xlink:href="#DejaVuSans-35" transform="translate(235.576172 -15.625) scale(0.7)"/>
    </g>
   </g>
   <g id="text_15">
    <!-- $\mathrm{Cu}$ -->
    <g transform="translate(129.692842 33.725944) scale(0.1 -0.1)">
     <use xlink:href="#DejaVuSans-43" transform="translate(0 0.78125)"/>
     <use xlink:href="#DejaVuSans-75" transform="translate(69.824219 0.78125)"/>
    </g>
   </g>
   <g id="text_16">
    <!-- $\mathrm{PrAl_{3}}$ -->
    <g transform="translate(197.097853 198.124205) scale(0.1 -0.1)">
     <use xlink:href="#DejaVuSans-50" transform="translate(0 0.015625)"/>
     <use xlink:href="#DejaVuSans-72" transform="translate(60.302734 0.015625)"/>
     <use xlink:href="#DejaVuSans-41" transform="translate(101.416016 0.015625)"/>
     <use xlink:href="#DejaVuSans-6c" transform="translate(169.824219 0.015625)"/>
     <use xlink:href="#DejaVuSans-33" transform="translate(198.564453 -16.390625) scale(0.7)"/>
    </g>
   </g>
   <g id="text_17">
    <!-- $\mathrm{Pr(Al_{2}Cu)_{4}}$ -->
    <g style="fill: #ff0000" transform="translate(159.90663 165.290556) scale(0.1 -0.1)">
     <defs>
      <path id="DejaVuSans-28" d="M 1984 4856 
Q 1566 4138 1362 3434 
Q 1159 2731 1159 2009 
Q 1159 1288 1364 580 
Q 1569 -128 1984 -844 
L 1484 -844 
Q 1016 -109 783 600 
Q 550 1309 550 2009 
Q 550 2706 781 3412 
Q 1013 4119 1484 4856 
L 1984 4856 
z
" transform="scale(0.015625)"/>
      <path id="DejaVuSans-29" d="M 513 4856 
L 1013 4856 
Q 1481 4119 1714 3412 
Q 1947 2706 1947 2009 
Q 1947 1309 1714 600 
Q 1481 -109 1013 -844 
L 513 -844 
Q 928 -128 1133 580 
Q 1338 1288 1338 2009 
Q 1338 2731 1133 3434 
Q 928 4138 513 4856 
z
" transform="scale(0.015625)"/>
     </defs>
     <use xlink:href="#DejaVuSans-50" transform="translate(0 0.015625)"/>
     <use xlink:href="#DejaVuSans-72" transform="translate(60.302734 0.015625)"/>
     <use xlink:href="#DejaVuSans-28" transform="translate(101.416016 0.015625)"/>
     <use xlink:href="#DejaVuSans-41" transform="translate(140.429688 0.015625)"/>
     <use xlink:href="#DejaVuSans-6c" transform="translate(208.837891 0.015625)"/>
     <use xlink:href="#DejaVuSans-32" transform="translate(237.578125 -16.390625) scale(0.7)"/>
     <use xlink:href="#DejaVuSans-43" transform="translate(284.848633 0.015625)"/>
     <use xlink:href="#DejaVuSans-75" transform="translate(354.672852 0.015625)"/>
     <use xlink:href="#DejaVuSans-29" transform="translate(418.051758 0.015625)"/>
     <use xlink:href="#DejaVuSans-34" transform="translate(458.022461 -16.390625) scale(0.7)"/>
    </g>
   </g>
  </g>
  <g id="axes_2">
   <g id="patch_3">
    <path d="M 287.298425 195.703937 
L 296.029134 195.703937 
L 296.029134 36.96378 
L 287.298425 36.96378 
L 287.298425 195.703937 
z
" style="fill: none"/>
   </g>
   <g id="patch_4">
    <path d="M 287.298425 195.703937 
L 291.66378 203.640945 
L 296.029134 195.703937 
" style="fill: #440154; opacity: 0.7"/>
   </g>
   <g id="patch_5">
    <path d="M 287.298425 36.96378 
L 291.66378 29.026772 
L 296.029134 36.96378 
" style="fill: #fde725; opacity: 0.7"/>
   </g>
   <g id="QuadMesh_1">
    <path d="M 287.298425 195.703937 
L 296.029134 195.703937 
L 296.029134 192.39685 
L 287.298425 192.39685 
L 287.298425 195.703937 
" clip-path="url(#pbeb62fadb3)" style="fill: #450457; fill-opacity: 0.7"/>
    <path d="M 287.298425 192.39685 
L 296.029134 192.39685 
L 296.029134 189.089764 
L 287.298425 189.089764 
L 287.298425 192.39685 
" clip-path="url(#pbeb62fadb3)" style="fill: #470d60; fill-opacity: 0.7"/>
    <path d="M 287.298425 189.089764 
L 296.029134 189.089764 
L 296.029134 185.782677 
L 287.298425 185.782677 
L 287.298425 189.089764 
" clip-path="url(#pbeb62fadb3)" style="fill: #481467; fill-opacity: 0.7"/>
    <path d="M 287.298425 185.782677 
L 296.029134 185.782677 
L 296.029134 182.475591 
L 287.298425 182.475591 
L 287.298425 185.782677 
" clip-path="url(#pbeb62fadb3)" style="fill: #481b6d; fill-opacity: 0.7"/>
    <path d="M 287.298425 182.475591 
L 296.029134 182.475591 
L 296.029134 179.168504 
L 287.298425 179.168504 
L 287.298425 182.475591 
" clip-path="url(#pbeb62fadb3)" style="fill: #482173; fill-opacity: 0.7"/>
    <path d="M 287.298425 179.168504 
L 296.029134 179.168504 
L 296.029134 175.861417 
L 287.298425 175.861417 
L 287.298425 179.168504 
" clip-path="url(#pbeb62fadb3)" style="fill: #482979; fill-opacity: 0.7"/>
    <path d="M 287.298425 175.861417 
L 296.029134 175.861417 
L 296.029134 172.554331 
L 287.298425 172.554331 
L 287.298425 175.861417 
" clip-path="url(#pbeb62fadb3)" style="fill: #472f7d; fill-opacity: 0.7"/>
    <path d="M 287.298425 172.554331 
L 296.029134 172.554331 
L 296.029134 169.247244 
L 287.298425 169.247244 
L 287.298425 172.554331 
" clip-path="url(#pbeb62fadb3)" style="fill: #453581; fill-opacity: 0.7"/>
    <path d="M 287.298425 169.247244 
L 296.029134 169.247244 
L 296.029134 165.940157 
L 287.298425 165.940157 
L 287.298425 169.247244 
" clip-path="url(#pbeb62fadb3)" style="fill: #433d84; fill-opacity: 0.7"/>
    <path d="M 287.298425 165.940157 
L 296.029134 165.940157 
L 296.029134 162.633071 
L 287.298425 162.633071 
L 287.298425 165.940157 
" clip-path="url(#pbeb62fadb3)" style="fill: #414287; fill-opacity: 0.7"/>
    <path d="M 287.298425 162.633071 
L 296.029134 162.633071 
L 296.029134 159.325984 
L 287.298425 159.325984 
L 287.298425 162.633071 
" clip-path="url(#pbeb62fadb3)" style="fill: #3f4889; fill-opacity: 0.7"/>
    <path d="M 287.298425 159.325984 
L 296.029134 159.325984 
L 296.029134 156.018898 
L 287.298425 156.018898 
L 287.298425 159.325984 
" clip-path="url(#pbeb62fadb3)" style="fill: #3c4f8a; fill-opacity: 0.7"/>
    <path d="M 287.298425 156.018898 
L 296.029134 156.018898 
L 296.029134 152.711811 
L 287.298425 152.711811 
L 287.298425 156.018898 
" clip-path="url(#pbeb62fadb3)" style="fill: #3a548c; fill-opacity: 0.7"/>
    <path d="M 287.298425 152.711811 
L 296.029134 152.711811 
L 296.029134 149.404724 
L 287.298425 149.404724 
L 287.298425 152.711811 
" clip-path="url(#pbeb62fadb3)" style="fill: #375b8d; fill-opacity: 0.7"/>
    <path d="M 287.298425 149.404724 
L 296.029134 149.404724 
L 296.029134 146.097638 
L 287.298425 146.097638 
L 287.298425 149.404724 
" clip-path="url(#pbeb62fadb3)" style="fill: #34608d; fill-opacity: 0.7"/>
    <path d="M 287.298425 146.097638 
L 296.029134 146.097638 
L 296.029134 142.790551 
L 287.298425 142.790551 
L 287.298425 146.097638 
" clip-path="url(#pbeb62fadb3)" style="fill: #32658e; fill-opacity: 0.7"/>
    <path d="M 287.298425 142.790551 
L 296.029134 142.790551 
L 296.029134 139.483465 
L 287.298425 139.483465 
L 287.298425 142.790551 
" clip-path="url(#pbeb62fadb3)" style="fill: #2f6b8e; fill-opacity: 0.7"/>
    <path d="M 287.298425 139.483465 
L 296.029134 139.483465 
L 296.029134 136.176378 
L 287.298425 136.176378 
L 287.298425 139.483465 
" clip-path="url(#pbeb62fadb3)" style="fill: #2d708e; fill-opacity: 0.7"/>
    <path d="M 287.298425 136.176378 
L 296.029134 136.176378 
L 296.029134 132.869291 
L 287.298425 132.869291 
L 287.298425 136.176378 
" clip-path="url(#pbeb62fadb3)" style="fill: #2b748e; fill-opacity: 0.7"/>
    <path d="M 287.298425 132.869291 
L 296.029134 132.869291 
L 296.029134 129.562205 
L 287.298425 129.562205 
L 287.298425 132.869291 
" clip-path="url(#pbeb62fadb3)" style="fill: #29798e; fill-opacity: 0.7"/>
    <path d="M 287.298425 129.562205 
L 296.029134 129.562205 
L 296.029134 126.255118 
L 287.298425 126.255118 
L 287.298425 129.562205 
" clip-path="url(#pbeb62fadb3)" style="fill: #277f8e; fill-opacity: 0.7"/>
    <path d="M 287.298425 126.255118 
L 296.029134 126.255118 
L 296.029134 122.948031 
L 287.298425 122.948031 
L 287.298425 126.255118 
" clip-path="url(#pbeb62fadb3)" style="fill: #25838e; fill-opacity: 0.7"/>
    <path d="M 287.298425 122.948031 
L 296.029134 122.948031 
L 296.029134 119.640945 
L 287.298425 119.640945 
L 287.298425 122.948031 
" clip-path="url(#pbeb62fadb3)" style="fill: #23888e; fill-opacity: 0.7"/>
    <path d="M 287.298425 119.640945 
L 296.029134 119.640945 
L 296.029134 116.333858 
L 287.298425 116.333858 
L 287.298425 119.640945 
" clip-path="url(#pbeb62fadb3)" style="fill: #218e8d; fill-opacity: 0.7"/>
    <path d="M 287.298425 116.333858 
L 296.029134 116.333858 
L 296.029134 113.026772 
L 287.298425 113.026772 
L 287.298425 116.333858 
" clip-path="url(#pbeb62fadb3)" style="fill: #20928c; fill-opacity: 0.7"/>
    <path d="M 287.298425 113.026772 
L 296.029134 113.026772 
L 296.029134 109.719685 
L 287.298425 109.719685 
L 287.298425 113.026772 
" clip-path="url(#pbeb62fadb3)" style="fill: #1f988b; fill-opacity: 0.7"/>
    <path d="M 287.298425 109.719685 
L 296.029134 109.719685 
L 296.029134 106.412598 
L 287.298425 106.412598 
L 287.298425 109.719685 
" clip-path="url(#pbeb62fadb3)" style="fill: #1e9d89; fill-opacity: 0.7"/>
    <path d="M 287.298425 106.412598 
L 296.029134 106.412598 
L 296.029134 103.105512 
L 287.298425 103.105512 
L 287.298425 106.412598 
" clip-path="url(#pbeb62fadb3)" style="fill: #1fa187; fill-opacity: 0.7"/>
    <path d="M 287.298425 103.105512 
L 296.029134 103.105512 
L 296.029134 99.798425 
L 287.298425 99.798425 
L 287.298425 103.105512 
" clip-path="url(#pbeb62fadb3)" style="fill: #22a785; fill-opacity: 0.7"/>
    <path d="M 287.298425 99.798425 
L 296.029134 99.798425 
L 296.029134 96.491339 
L 287.298425 96.491339 
L 287.298425 99.798425 
" clip-path="url(#pbeb62fadb3)" style="fill: #25ac82; fill-opacity: 0.7"/>
    <path d="M 287.298425 96.491339 
L 296.029134 96.491339 
L 296.029134 93.184252 
L 287.298425 93.184252 
L 287.298425 96.491339 
" clip-path="url(#pbeb62fadb3)" style="fill: #2ab07f; fill-opacity: 0.7"/>
    <path d="M 287.298425 93.184252 
L 296.029134 93.184252 
L 296.029134 89.877165 
L 287.298425 89.877165 
L 287.298425 93.184252 
" clip-path="url(#pbeb62fadb3)" style="fill: #32b67a; fill-opacity: 0.7"/>
    <path d="M 287.298425 89.877165 
L 296.029134 89.877165 
L 296.029134 86.570079 
L 287.298425 86.570079 
L 287.298425 89.877165 
" clip-path="url(#pbeb62fadb3)" style="fill: #3aba76; fill-opacity: 0.7"/>
    <path d="M 287.298425 86.570079 
L 296.029134 86.570079 
L 296.029134 83.262992 
L 287.298425 83.262992 
L 287.298425 86.570079 
" clip-path="url(#pbeb62fadb3)" style="fill: #42be71; fill-opacity: 0.7"/>
    <path d="M 287.298425 83.262992 
L 296.029134 83.262992 
L 296.029134 79.955906 
L 287.298425 79.955906 
L 287.298425 83.262992 
" clip-path="url(#pbeb62fadb3)" style="fill: #4ec36b; fill-opacity: 0.7"/>
    <path d="M 287.298425 79.955906 
L 296.029134 79.955906 
L 296.029134 76.648819 
L 287.298425 76.648819 
L 287.298425 79.955906 
" clip-path="url(#pbeb62fadb3)" style="fill: #58c765; fill-opacity: 0.7"/>
    <path d="M 287.298425 76.648819 
L 296.029134 76.648819 
L 296.029134 73.341732 
L 287.298425 73.341732 
L 287.298425 76.648819 
" clip-path="url(#pbeb62fadb3)" style="fill: #63cb5f; fill-opacity: 0.7"/>
    <path d="M 287.298425 73.341732 
L 296.029134 73.341732 
L 296.029134 70.034646 
L 287.298425 70.034646 
L 287.298425 73.341732 
" clip-path="url(#pbeb62fadb3)" style="fill: #70cf57; fill-opacity: 0.7"/>
    <path d="M 287.298425 70.034646 
L 296.029134 70.034646 
L 296.029134 66.727559 
L 287.298425 66.727559 
L 287.298425 70.034646 
" clip-path="url(#pbeb62fadb3)" style="fill: #7cd250; fill-opacity: 0.7"/>
    <path d="M 287.298425 66.727559 
L 296.029134 66.727559 
L 296.029134 63.420472 
L 287.298425 63.420472 
L 287.298425 66.727559 
" clip-path="url(#pbeb62fadb3)" style="fill: #89d548; fill-opacity: 0.7"/>
    <path d="M 287.298425 63.420472 
L 296.029134 63.420472 
L 296.029134 60.113386 
L 287.298425 60.113386 
L 287.298425 63.420472 
" clip-path="url(#pbeb62fadb3)" style="fill: #98d83e; fill-opacity: 0.7"/>
    <path d="M 287.298425 60.113386 
L 296.029134 60.113386 
L 296.029134 56.806299 
L 287.298425 56.806299 
L 287.298425 60.113386 
" clip-path="url(#pbeb62fadb3)" style="fill: #a5db36; fill-opacity: 0.7"/>
    <path d="M 287.298425 56.806299 
L 296.029134 56.806299 
L 296.029134 53.499213 
L 287.298425 53.499213 
L 287.298425 56.806299 
" clip-path="url(#pbeb62fadb3)" style="fill: #b2dd2d; fill-opacity: 0.7"/>
    <path d="M 287.298425 53.499213 
L 296.029134 53.499213 
L 296.029134 50.192126 
L 287.298425 50.192126 
L 287.298425 53.499213 
" clip-path="url(#pbeb62fadb3)" style="fill: #c2df23; fill-opacity: 0.7"/>
    <path d="M 287.298425 50.192126 
L 296.029134 50.192126 
L 296.029134 46.885039 
L 287.298425 46.885039 
L 287.298425 50.192126 
" clip-path="url(#pbeb62fadb3)" style="fill: #d0e11c; fill-opacity: 0.7"/>
    <path d="M 287.298425 46.885039 
L 296.029134 46.885039 
L 296.029134 43.577953 
L 287.298425 43.577953 
L 287.298425 46.885039 
" clip-path="url(#pbeb62fadb3)" style="fill: #dde318; fill-opacity: 0.7"/>
    <path d="M 287.298425 43.577953 
L 296.029134 43.577953 
L 296.029134 40.270866 
L 287.298425 40.270866 
L 287.298425 43.577953 
" clip-path="url(#pbeb62fadb3)" style="fill: #ece51b; fill-opacity: 0.7"/>
    <path d="M 287.298425 40.270866 
L 296.029134 40.270866 
L 296.029134 36.96378 
L 287.298425 36.96378 
L 287.298425 40.270866 
" clip-path="url(#pbeb62fadb3)" style="fill: #f8e621; fill-opacity: 0.7"/>
   </g>
   <g id="matplotlib.axis_3"/>
   <g id="matplotlib.axis_4">
    <g id="ytick_1">
     <g id="line2d_35">
      <defs>
       <path id="mb2f0eddeaa" d="M 0 0 
L -2 0 
" style="stroke: #000000; stroke-width: 0.3"/>
      </defs>
      <g>
       <use xlink:href="#mb2f0eddeaa" x="296.029134" y="185.782677" style="stroke: #000000; stroke-width: 0.3"/>
      </g>
     </g>
     <g id="text_18">
      <!-- 0.46 -->
      <g transform="translate(299.529134 188.645802) scale(0.08 -0.08)">
       <defs>
        <path id="ArialMT-2212" d="M 3381 1997 
L 356 1997 
L 356 2522 
L 3381 2522 
L 3381 1997 
z
" transform="scale(0.015625)"/>
        <path id="ArialMT-30" d="M 266 2259 
Q 266 3072 433 3567 
Q 600 4063 929 4331 
Q 1259 4600 1759 4600 
Q 2128 4600 2406 4451 
Q 2684 4303 2865 4023 
Q 3047 3744 3150 3342 
Q 3253 2941 3253 2259 
Q 3253 1453 3087 958 
Q 2922 463 2592 192 
Q 2263 -78 1759 -78 
Q 1097 -78 719 397 
Q 266 969 266 2259 
z
M 844 2259 
Q 844 1131 1108 757 
Q 1372 384 1759 384 
Q 2147 384 2411 759 
Q 2675 1134 2675 2259 
Q 2675 3391 2411 3762 
Q 2147 4134 1753 4134 
Q 1366 4134 1134 3806 
Q 844 3388 844 2259 
z
" transform="scale(0.015625)"/>
        <path id="ArialMT-2e" d="M 581 0 
L 581 641 
L 1222 641 
L 1222 0 
L 581 0 
z
" transform="scale(0.015625)"/>
        <path id="ArialMT-34" d="M 2069 0 
L 2069 1097 
L 81 1097 
L 81 1613 
L 2172 4581 
L 2631 4581 
L 2631 1613 
L 3250 1613 
L 3250 1097 
L 2631 1097 
L 2631 0 
L 2069 0 
z
M 2069 1613 
L 2069 3678 
L 634 1613 
L 2069 1613 
z
" transform="scale(0.015625)"/>
        <path id="ArialMT-36" d="M 3184 3459 
L 2625 3416 
Q 2550 3747 2413 3897 
Q 2184 4138 1850 4138 
Q 1581 4138 1378 3988 
Q 1113 3794 959 3422 
Q 806 3050 800 2363 
Q 1003 2672 1297 2822 
Q 1591 2972 1913 2972 
Q 2475 2972 2870 2558 
Q 3266 2144 3266 1488 
Q 3266 1056 3080 686 
Q 2894 316 2569 119 
Q 2244 -78 1831 -78 
Q 1128 -78 684 439 
Q 241 956 241 2144 
Q 241 3472 731 4075 
Q 1159 4600 1884 4600 
Q 2425 4600 2770 4297 
Q 3116 3994 3184 3459 
z
M 888 1484 
Q 888 1194 1011 928 
Q 1134 663 1356 523 
Q 1578 384 1822 384 
Q 2178 384 2434 671 
Q 2691 959 2691 1453 
Q 2691 1928 2437 2201 
Q 2184 2475 1800 2475 
Q 1419 2475 1153 2201 
Q 888 1928 888 1484 
z
" transform="scale(0.015625)"/>
       </defs>
       <use xlink:href="#ArialMT-2212"/>
       <use xlink:href="#ArialMT-30" transform="translate(58.398438 0)"/>
       <use xlink:href="#ArialMT-2e" transform="translate(114.013672 0)"/>
       <use xlink:href="#ArialMT-34" transform="translate(141.796875 0)"/>
       <use xlink:href="#ArialMT-36" transform="translate(197.412109 0)"/>
      </g>
     </g>
    </g>
    <g id="ytick_2">
     <g id="line2d_36">
      <g>
       <use xlink:href="#mb2f0eddeaa" x="296.029134" y="169.247244" style="stroke: #000000; stroke-width: 0.3"/>
      </g>
     </g>
     <g id="text_19">
      <!-- 0.41 -->
      <g transform="translate(299.529134 172.110369) scale(0.08 -0.08)">
       <defs>
        <path id="ArialMT-31" d="M 2384 0 
L 1822 0 
L 1822 3584 
Q 1619 3391 1289 3197 
Q 959 3003 697 2906 
L 697 3450 
Q 1169 3672 1522 3987 
Q 1875 4303 2022 4600 
L 2384 4600 
L 2384 0 
z
" transform="scale(0.015625)"/>
       </defs>
       <use xlink:href="#ArialMT-2212"/>
       <use xlink:href="#ArialMT-30" transform="translate(58.398438 0)"/>
       <use xlink:href="#ArialMT-2e" transform="translate(114.013672 0)"/>
       <use xlink:href="#ArialMT-34" transform="translate(141.796875 0)"/>
       <use xlink:href="#ArialMT-31" transform="translate(197.412109 0)"/>
      </g>
     </g>
    </g>
    <g id="ytick_3">
     <g id="line2d_37">
      <g>
       <use xlink:href="#mb2f0eddeaa" x="296.029134" y="152.711811" style="stroke: #000000; stroke-width: 0.3"/>
      </g>
     </g>
     <g id="text_20">
      <!-- 0.36 -->
      <g transform="translate(299.529134 155.574936) scale(0.08 -0.08)">
       <defs>
        <path id="ArialMT-33" d="M 269 1209 
L 831 1284 
Q 928 806 1161 595 
Q 1394 384 1728 384 
Q 2125 384 2398 659 
Q 2672 934 2672 1341 
Q 2672 1728 2419 1979 
Q 2166 2231 1775 2231 
Q 1616 2231 1378 2169 
L 1441 2663 
Q 1497 2656 1531 2656 
Q 1891 2656 2178 2843 
Q 2466 3031 2466 3422 
Q 2466 3731 2256 3934 
Q 2047 4138 1716 4138 
Q 1388 4138 1169 3931 
Q 950 3725 888 3313 
L 325 3413 
Q 428 3978 793 4289 
Q 1159 4600 1703 4600 
Q 2078 4600 2393 4439 
Q 2709 4278 2876 4000 
Q 3044 3722 3044 3409 
Q 3044 3113 2884 2869 
Q 2725 2625 2413 2481 
Q 2819 2388 3044 2092 
Q 3269 1797 3269 1353 
Q 3269 753 2831 336 
Q 2394 -81 1725 -81 
Q 1122 -81 723 278 
Q 325 638 269 1209 
z
" transform="scale(0.015625)"/>
       </defs>
       <use xlink:href="#ArialMT-2212"/>
       <use xlink:href="#ArialMT-30" transform="translate(58.398438 0)"/>
       <use xlink:href="#ArialMT-2e" transform="translate(114.013672 0)"/>
       <use xlink:href="#ArialMT-33" transform="translate(141.796875 0)"/>
       <use xlink:href="#ArialMT-36" transform="translate(197.412109 0)"/>
      </g>
     </g>
    </g>
    <g id="ytick_4">
     <g id="line2d_38">
      <g>
       <use xlink:href="#mb2f0eddeaa" x="296.029134" y="136.176378" style="stroke: #000000; stroke-width: 0.3"/>
      </g>
     </g>
     <g id="text_21">
      <!-- 0.31 -->
      <g transform="translate(299.529134 139.039503) scale(0.08 -0.08)">
       <use xlink:href="#ArialMT-2212"/>
       <use xlink:href="#ArialMT-30" transform="translate(58.398438 0)"/>
       <use xlink:href="#ArialMT-2e" transform="translate(114.013672 0)"/>
       <use xlink:href="#ArialMT-33" transform="translate(141.796875 0)"/>
       <use xlink:href="#ArialMT-31" transform="translate(197.412109 0)"/>
      </g>
     </g>
    </g>
    <g id="ytick_5">
     <g id="line2d_39">
      <g>
       <use xlink:href="#mb2f0eddeaa" x="296.029134" y="119.640945" style="stroke: #000000; stroke-width: 0.3"/>
      </g>
     </g>
     <g id="text_22">
      <!-- 0.26 -->
      <g transform="translate(299.529134 122.50407) scale(0.08 -0.08)">
       <defs>
        <path id="ArialMT-32" d="M 3222 541 
L 3222 0 
L 194 0 
Q 188 203 259 391 
Q 375 700 629 1000 
Q 884 1300 1366 1694 
Q 2113 2306 2375 2664 
Q 2638 3022 2638 3341 
Q 2638 3675 2398 3904 
Q 2159 4134 1775 4134 
Q 1369 4134 1125 3890 
Q 881 3647 878 3216 
L 300 3275 
Q 359 3922 746 4261 
Q 1134 4600 1788 4600 
Q 2447 4600 2831 4234 
Q 3216 3869 3216 3328 
Q 3216 3053 3103 2787 
Q 2991 2522 2730 2228 
Q 2469 1934 1863 1422 
Q 1356 997 1212 845 
Q 1069 694 975 541 
L 3222 541 
z
" transform="scale(0.015625)"/>
       </defs>
       <use xlink:href="#ArialMT-2212"/>
       <use xlink:href="#ArialMT-30" transform="translate(58.398438 0)"/>
       <use xlink:href="#ArialMT-2e" transform="translate(114.013672 0)"/>
       <use xlink:href="#ArialMT-32" transform="translate(141.796875 0)"/>
       <use xlink:href="#ArialMT-36" transform="translate(197.412109 0)"/>
      </g>
     </g>
    </g>
    <g id="ytick_6">
     <g id="line2d_40">
      <g>
       <use xlink:href="#mb2f0eddeaa" x="296.029134" y="103.105512" style="stroke: #000000; stroke-width: 0.3"/>
      </g>
     </g>
     <g id="text_23">
      <!-- 0.21 -->
      <g transform="translate(299.529134 105.968637) scale(0.08 -0.08)">
       <use xlink:href="#ArialMT-2212"/>
       <use xlink:href="#ArialMT-30" transform="translate(58.398438 0)"/>
       <use xlink:href="#ArialMT-2e" transform="translate(114.013672 0)"/>
       <use xlink:href="#ArialMT-32" transform="translate(141.796875 0)"/>
       <use xlink:href="#ArialMT-31" transform="translate(197.412109 0)"/>
      </g>
     </g>
    </g>
    <g id="ytick_7">
     <g id="line2d_41">
      <g>
       <use xlink:href="#mb2f0eddeaa" x="296.029134" y="86.570079" style="stroke: #000000; stroke-width: 0.3"/>
      </g>
     </g>
     <g id="text_24">
      <!-- 0.16 -->
      <g transform="translate(299.529134 89.433204) scale(0.08 -0.08)">
       <use xlink:href="#ArialMT-2212"/>
       <use xlink:href="#ArialMT-30" transform="translate(58.398438 0)"/>
       <use xlink:href="#ArialMT-2e" transform="translate(114.013672 0)"/>
       <use xlink:href="#ArialMT-31" transform="translate(141.796875 0)"/>
       <use xlink:href="#ArialMT-36" transform="translate(197.412109 0)"/>
      </g>
     </g>
    </g>
    <g id="ytick_8">
     <g id="line2d_42">
      <g>
       <use xlink:href="#mb2f0eddeaa" x="296.029134" y="70.034646" style="stroke: #000000; stroke-width: 0.3"/>
      </g>
     </g>
     <g id="text_25">
      <!-- 0.11 -->
      <g transform="translate(299.529134 72.897771) scale(0.08 -0.08)">
       <use xlink:href="#ArialMT-2212"/>
       <use xlink:href="#ArialMT-30" transform="translate(58.398438 0)"/>
       <use xlink:href="#ArialMT-2e" transform="translate(114.013672 0)"/>
       <use xlink:href="#ArialMT-31" transform="translate(141.796875 0)"/>
       <use xlink:href="#ArialMT-31" transform="translate(190.037109 0)"/>
      </g>
     </g>
    </g>
    <g id="ytick_9">
     <g id="line2d_43">
      <g>
       <use xlink:href="#mb2f0eddeaa" x="296.029134" y="53.499213" style="stroke: #000000; stroke-width: 0.3"/>
      </g>
     </g>
     <g id="text_26">
      <!-- 0.06 -->
      <g transform="translate(299.529134 56.362338) scale(0.08 -0.08)">
       <use xlink:href="#ArialMT-2212"/>
       <use xlink:href="#ArialMT-30" transform="translate(58.398438 0)"/>
       <use xlink:href="#ArialMT-2e" transform="translate(114.013672 0)"/>
       <use xlink:href="#ArialMT-30" transform="translate(141.796875 0)"/>
       <use xlink:href="#ArialMT-36" transform="translate(197.412109 0)"/>
      </g>
     </g>
    </g>
    <g id="ytick_10">
     <g id="line2d_44">
      <g>
       <use xlink:href="#mb2f0eddeaa" x="296.029134" y="36.96378" style="stroke: #000000; stroke-width: 0.3"/>
      </g>
     </g>
     <g id="text_27">
      <!-- 0.01 -->
      <g transform="translate(299.529134 39.826905) scale(0.08 -0.08)">
       <use xlink:href="#ArialMT-2212"/>
       <use xlink:href="#ArialMT-30" transform="translate(58.398438 0)"/>
       <use xlink:href="#ArialMT-2e" transform="translate(114.013672 0)"/>
       <use xlink:href="#ArialMT-30" transform="translate(141.796875 0)"/>
       <use xlink:href="#ArialMT-31" transform="translate(197.412109 0)"/>
      </g>
     </g>
    </g>
    <g id="text_28">
     <!-- Formation Energy (eV/atom) -->
     <g transform="translate(331.050071 179.408077) rotate(-90) scale(0.1 -0.1)">
      <defs>
       <path id="ArialMT-46" d="M 525 0 
L 525 4581 
L 3616 4581 
L 3616 4041 
L 1131 4041 
L 1131 2622 
L 3281 2622 
L 3281 2081 
L 1131 2081 
L 1131 0 
L 525 0 
z
" transform="scale(0.015625)"/>
       <path id="ArialMT-6f" d="M 213 1659 
Q 213 2581 725 3025 
Q 1153 3394 1769 3394 
Q 2453 3394 2887 2945 
Q 3322 2497 3322 1706 
Q 3322 1066 3130 698 
Q 2938 331 2570 128 
Q 2203 -75 1769 -75 
Q 1072 -75 642 372 
Q 213 819 213 1659 
z
M 791 1659 
Q 791 1022 1069 705 
Q 1347 388 1769 388 
Q 2188 388 2466 706 
Q 2744 1025 2744 1678 
Q 2744 2294 2464 2611 
Q 2184 2928 1769 2928 
Q 1347 2928 1069 2612 
Q 791 2297 791 1659 
z
" transform="scale(0.015625)"/>
       <path id="ArialMT-72" d="M 416 0 
L 416 3319 
L 922 3319 
L 922 2816 
Q 1116 3169 1280 3281 
Q 1444 3394 1641 3394 
Q 1925 3394 2219 3213 
L 2025 2691 
Q 1819 2813 1613 2813 
Q 1428 2813 1281 2702 
Q 1134 2591 1072 2394 
Q 978 2094 978 1738 
L 978 0 
L 416 0 
z
" transform="scale(0.015625)"/>
       <path id="ArialMT-6d" d="M 422 0 
L 422 3319 
L 925 3319 
L 925 2853 
Q 1081 3097 1340 3245 
Q 1600 3394 1931 3394 
Q 2300 3394 2536 3241 
Q 2772 3088 2869 2813 
Q 3263 3394 3894 3394 
Q 4388 3394 4653 3120 
Q 4919 2847 4919 2278 
L 4919 0 
L 4359 0 
L 4359 2091 
Q 4359 2428 4304 2576 
Q 4250 2725 4106 2815 
Q 3963 2906 3769 2906 
Q 3419 2906 3187 2673 
Q 2956 2441 2956 1928 
L 2956 0 
L 2394 0 
L 2394 2156 
Q 2394 2531 2256 2718 
Q 2119 2906 1806 2906 
Q 1569 2906 1367 2781 
Q 1166 2656 1075 2415 
Q 984 2175 984 1722 
L 984 0 
L 422 0 
z
" transform="scale(0.015625)"/>
       <path id="ArialMT-61" d="M 2588 409 
Q 2275 144 1986 34 
Q 1697 -75 1366 -75 
Q 819 -75 525 192 
Q 231 459 231 875 
Q 231 1119 342 1320 
Q 453 1522 633 1644 
Q 813 1766 1038 1828 
Q 1203 1872 1538 1913 
Q 2219 1994 2541 2106 
Q 2544 2222 2544 2253 
Q 2544 2597 2384 2738 
Q 2169 2928 1744 2928 
Q 1347 2928 1158 2789 
Q 969 2650 878 2297 
L 328 2372 
Q 403 2725 575 2942 
Q 747 3159 1072 3276 
Q 1397 3394 1825 3394 
Q 2250 3394 2515 3294 
Q 2781 3194 2906 3042 
Q 3031 2891 3081 2659 
Q 3109 2516 3109 2141 
L 3109 1391 
Q 3109 606 3145 398 
Q 3181 191 3288 0 
L 2700 0 
Q 2613 175 2588 409 
z
M 2541 1666 
Q 2234 1541 1622 1453 
Q 1275 1403 1131 1340 
Q 988 1278 909 1158 
Q 831 1038 831 891 
Q 831 666 1001 516 
Q 1172 366 1500 366 
Q 1825 366 2078 508 
Q 2331 650 2450 897 
Q 2541 1088 2541 1459 
L 2541 1666 
z
" transform="scale(0.015625)"/>
       <path id="ArialMT-74" d="M 1650 503 
L 1731 6 
Q 1494 -44 1306 -44 
Q 1000 -44 831 53 
Q 663 150 594 308 
Q 525 466 525 972 
L 525 2881 
L 113 2881 
L 113 3319 
L 525 3319 
L 525 4141 
L 1084 4478 
L 1084 3319 
L 1650 3319 
L 1650 2881 
L 1084 2881 
L 1084 941 
Q 1084 700 1114 631 
Q 1144 563 1211 522 
Q 1278 481 1403 481 
Q 1497 481 1650 503 
z
" transform="scale(0.015625)"/>
       <path id="ArialMT-69" d="M 425 3934 
L 425 4581 
L 988 4581 
L 988 3934 
L 425 3934 
z
M 425 0 
L 425 3319 
L 988 3319 
L 988 0 
L 425 0 
z
" transform="scale(0.015625)"/>
       <path id="ArialMT-6e" d="M 422 0 
L 422 3319 
L 928 3319 
L 928 2847 
Q 1294 3394 1984 3394 
Q 2284 3394 2536 3286 
Q 2788 3178 2913 3003 
Q 3038 2828 3088 2588 
Q 3119 2431 3119 2041 
L 3119 0 
L 2556 0 
L 2556 2019 
Q 2556 2363 2490 2533 
Q 2425 2703 2258 2804 
Q 2091 2906 1866 2906 
Q 1506 2906 1245 2678 
Q 984 2450 984 1813 
L 984 0 
L 422 0 
z
" transform="scale(0.015625)"/>
       <path id="ArialMT-20" transform="scale(0.015625)"/>
       <path id="ArialMT-45" d="M 506 0 
L 506 4581 
L 3819 4581 
L 3819 4041 
L 1113 4041 
L 1113 2638 
L 3647 2638 
L 3647 2100 
L 1113 2100 
L 1113 541 
L 3925 541 
L 3925 0 
L 506 0 
z
" transform="scale(0.015625)"/>
       <path id="ArialMT-65" d="M 2694 1069 
L 3275 997 
Q 3138 488 2766 206 
Q 2394 -75 1816 -75 
Q 1088 -75 661 373 
Q 234 822 234 1631 
Q 234 2469 665 2931 
Q 1097 3394 1784 3394 
Q 2450 3394 2872 2941 
Q 3294 2488 3294 1666 
Q 3294 1616 3291 1516 
L 816 1516 
Q 847 969 1125 678 
Q 1403 388 1819 388 
Q 2128 388 2347 550 
Q 2566 713 2694 1069 
z
M 847 1978 
L 2700 1978 
Q 2663 2397 2488 2606 
Q 2219 2931 1791 2931 
Q 1403 2931 1139 2672 
Q 875 2413 847 1978 
z
" transform="scale(0.015625)"/>
       <path id="ArialMT-67" d="M 319 -275 
L 866 -356 
Q 900 -609 1056 -725 
Q 1266 -881 1628 -881 
Q 2019 -881 2231 -725 
Q 2444 -569 2519 -288 
Q 2563 -116 2559 434 
Q 2191 0 1641 0 
Q 956 0 581 494 
Q 206 988 206 1678 
Q 206 2153 378 2554 
Q 550 2956 876 3175 
Q 1203 3394 1644 3394 
Q 2231 3394 2613 2919 
L 2613 3319 
L 3131 3319 
L 3131 450 
Q 3131 -325 2973 -648 
Q 2816 -972 2473 -1159 
Q 2131 -1347 1631 -1347 
Q 1038 -1347 672 -1080 
Q 306 -813 319 -275 
z
M 784 1719 
Q 784 1066 1043 766 
Q 1303 466 1694 466 
Q 2081 466 2343 764 
Q 2606 1063 2606 1700 
Q 2606 2309 2336 2618 
Q 2066 2928 1684 2928 
Q 1309 2928 1046 2623 
Q 784 2319 784 1719 
z
" transform="scale(0.015625)"/>
       <path id="ArialMT-79" d="M 397 -1278 
L 334 -750 
Q 519 -800 656 -800 
Q 844 -800 956 -737 
Q 1069 -675 1141 -563 
Q 1194 -478 1313 -144 
Q 1328 -97 1363 -6 
L 103 3319 
L 709 3319 
L 1400 1397 
Q 1534 1031 1641 628 
Q 1738 1016 1872 1384 
L 2581 3319 
L 3144 3319 
L 1881 -56 
Q 1678 -603 1566 -809 
Q 1416 -1088 1222 -1217 
Q 1028 -1347 759 -1347 
Q 597 -1347 397 -1278 
z
" transform="scale(0.015625)"/>
       <path id="ArialMT-28" d="M 1497 -1347 
Q 1031 -759 709 28 
Q 388 816 388 1659 
Q 388 2403 628 3084 
Q 909 3875 1497 4659 
L 1900 4659 
Q 1522 4009 1400 3731 
Q 1209 3300 1100 2831 
Q 966 2247 966 1656 
Q 966 153 1900 -1347 
L 1497 -1347 
z
" transform="scale(0.015625)"/>
       <path id="ArialMT-56" d="M 1803 0 
L 28 4581 
L 684 4581 
L 1875 1253 
Q 2019 853 2116 503 
Q 2222 878 2363 1253 
L 3600 4581 
L 4219 4581 
L 2425 0 
L 1803 0 
z
" transform="scale(0.015625)"/>
       <path id="ArialMT-2f" d="M 0 -78 
L 1328 4659 
L 1778 4659 
L 453 -78 
L 0 -78 
z
" transform="scale(0.015625)"/>
       <path id="ArialMT-29" d="M 791 -1347 
L 388 -1347 
Q 1322 153 1322 1656 
Q 1322 2244 1188 2822 
Q 1081 3291 891 3722 
Q 769 4003 388 4659 
L 791 4659 
Q 1378 3875 1659 3084 
Q 1900 2403 1900 1659 
Q 1900 816 1576 28 
Q 1253 -759 791 -1347 
z
" transform="scale(0.015625)"/>
      </defs>
      <use xlink:href="#ArialMT-46"/>
      <use xlink:href="#ArialMT-6f" transform="translate(61.083984 0)"/>
      <use xlink:href="#ArialMT-72" transform="translate(116.699219 0)"/>
      <use xlink:href="#ArialMT-6d" transform="translate(150 0)"/>
      <use xlink:href="#ArialMT-61" transform="translate(233.300781 0)"/>
      <use xlink:href="#ArialMT-74" transform="translate(288.916016 0)"/>
      <use xlink:href="#ArialMT-69" transform="translate(316.699219 0)"/>
      <use xlink:href="#ArialMT-6f" transform="translate(338.916016 0)"/>
      <use xlink:href="#ArialMT-6e" transform="translate(394.53125 0)"/>
      <use xlink:href="#ArialMT-20" transform="translate(450.146484 0)"/>
      <use xlink:href="#ArialMT-45" transform="translate(477.929688 0)"/>
      <use xlink:href="#ArialMT-6e" transform="translate(544.628906 0)"/>
      <use xlink:href="#ArialMT-65" transform="translate(600.244141 0)"/>
      <use xlink:href="#ArialMT-72" transform="translate(655.859375 0)"/>
      <use xlink:href="#ArialMT-67" transform="translate(689.160156 0)"/>
      <use xlink:href="#ArialMT-79" transform="translate(744.775391 0)"/>
      <use xlink:href="#ArialMT-20" transform="translate(794.775391 0)"/>
      <use xlink:href="#ArialMT-28" transform="translate(822.558594 0)"/>
      <use xlink:href="#ArialMT-65" transform="translate(855.859375 0)"/>
      <use xlink:href="#ArialMT-56" transform="translate(911.474609 0)"/>
      <use xlink:href="#ArialMT-2f" transform="translate(978.173828 0)"/>
      <use xlink:href="#ArialMT-61" transform="translate(1005.957031 0)"/>
      <use xlink:href="#ArialMT-74" transform="translate(1061.572266 0)"/>
      <use xlink:href="#ArialMT-6f" transform="translate(1089.355469 0)"/>
      <use xlink:href="#ArialMT-6d" transform="translate(1144.970703 0)"/>
      <use xlink:href="#ArialMT-29" transform="translate(1228.271484 0)"/>
     </g>
    </g>
   </g>
   <g id="LineCollection_1"/>
   <g id="patch_6">
    <path d="M 287.298425 195.703937 
L 291.66378 203.640945 
L 296.029134 195.703937 
L 296.029134 36.96378 
L 291.66378 29.026772 
L 287.298425 36.96378 
L 287.298425 195.703937 
z
" style="fill: none; stroke: #000000; stroke-width: 0.8; stroke-linejoin: miter; stroke-linecap: square"/>
   </g>
  </g>
 </g>
 <defs>
  <clipPath id="pa2c693afc9">
   <rect x="7.2" y="7.2" width="263.622047" height="218.267717"/>
  </clipPath>
  <clipPath id="pbeb62fadb3">
   <rect x="287.298425" y="36.96378" width="8.730709" height="158.740157"/>
  </clipPath>
 </defs>
</svg>
