<?xml version="1.0" encoding="utf-8" standalone="no"?>
<!DOCTYPE svg PUBLIC "-//W3C//DTD SVG 1.1//EN"
  "http://www.w3.org/Graphics/SVG/1.1/DTD/svg11.dtd">
<svg xmlns:xlink="http://www.w3.org/1999/xlink" width="344.803509pt" height="232.667717pt" viewBox="0 0 344.803509 232.667717" xmlns="http://www.w3.org/2000/svg" version="1.1">
 <metadata>
  <rdf:RDF xmlns:dc="http://purl.org/dc/elements/1.1/" xmlns:cc="http://creativecommons.org/ns#" xmlns:rdf="http://www.w3.org/1999/02/22-rdf-syntax-ns#">
   <cc:Work>
    <dc:type rdf:resource="http://purl.org/dc/dcmitype/StillImage"/>
    <dc:date>2026-01-27T21:37:58.163546</dc:date>
    <dc:format>image/svg+xml</dc:format>
    <dc:creator>
     <cc:Agent>
      <dc:title>Matplotlib v3.10.8, https://matplotlib.org/</dc:title>
     </cc:Agent>
    </dc:creator>
   </cc:Work>
  </rdf:RDF>
 </metadata>
 <defs>
  <style type="text/css">*{stroke-linejoin: round; stroke-linecap: butt}</style>
 </defs>
 <g id="figure_1">
  <g id="patch_1">
   <path d="M 0 232.667717 
L 344.803509 232.667717 
L 344.803509 0 
L 0 0 
L 0 232.667717 
z
" style="fill: none"/>
  </g>
  <g id="axes_1">
   <g id="patch_2">
    <path d="M 7.2 225.467717 
L 270.822047 225.467717 
L 270.822047 7.2 
L 7.2 7.2 
L 7.2 225.467717 
z
" style="fill: none"/>
   </g>
   <g id="TriContourSet_1">
    <path d="M 79.962629 214.554331 
L 79.352926 213.10051 
L 79.096922 213.430103 
L 78.935158 214.043975 
L 78.910747 214.554331 
L 79.096922 214.554331 
z
" clip-path="url(#p00405cc881)" style="fill: #440154; fill-opacity: 0.7"/>
    <path d="M 85.748715 214.554331 
L 81.063971 203.383674 
L 79.096922 205.916151 
L 77.853983 210.632934 
L 77.666415 214.554331 
L 78.910747 214.554331 
L 78.935158 214.043975 
L 79.096922 213.430103 
L 79.352926 213.10051 
L 79.962629 214.554331 
z
" clip-path="url(#p00405cc881)" style="fill: #450457; fill-opacity: 0.7"/>
    <path d="M 91.534802 214.554331 
L 82.775015 193.666838 
L 79.096922 198.402199 
L 76.772808 207.221892 
L 76.422083 214.554331 
L 77.666415 214.554331 
L 77.853983 210.632934 
L 79.096922 205.916151 
L 81.063971 203.383674 
L 85.748715 214.554331 
z
" clip-path="url(#p00405cc881)" style="fill: #470d60; fill-opacity: 0.7"/>
    <path d="M 97.320888 214.554331 
L 84.48606 183.950001 
L 79.096922 190.888248 
L 75.691634 203.810851 
L 75.177751 214.554331 
L 76.422083 214.554331 
L 76.772808 207.221892 
L 79.096922 198.402199 
L 82.775015 193.666838 
L 91.534802 214.554331 
z
" clip-path="url(#p00405cc881)" style="fill: #481467; fill-opacity: 0.7"/>
    <path d="M 103.106974 214.554331 
L 86.197104 174.233165 
L 79.096922 183.374296 
L 74.610459 200.399809 
L 73.933419 214.554331 
L 75.177751 214.554331 
L 75.691634 203.810851 
L 79.096922 190.888248 
L 84.48606 183.950001 
L 97.320888 214.554331 
z
" clip-path="url(#p00405cc881)" style="fill: #481c6e; fill-opacity: 0.7"/>
    <path d="M 108.893061 214.554331 
L 87.908148 164.516329 
L 79.096922 175.860344 
L 73.529284 196.988768 
L 72.689088 214.554331 
L 73.933419 214.554331 
L 74.610459 200.399809 
L 79.096922 183.374296 
L 86.197104 174.233165 
L 103.106974 214.554331 
z
" clip-path="url(#p00405cc881)" style="fill: #482374; fill-opacity: 0.7"/>
    <path d="M 114.679147 214.554331 
L 89.619193 154.799493 
L 79.096922 168.346393 
L 72.448109 193.577727 
L 71.444756 214.554331 
L 72.689088 214.554331 
L 73.529284 196.988768 
L 79.096922 175.860344 
L 87.908148 164.516329 
L 108.893061 214.554331 
z
" clip-path="url(#p00405cc881)" style="fill: #482979; fill-opacity: 0.7"/>
    <path d="M 120.465233 214.554331 
L 91.330237 145.082657 
L 79.096922 160.832441 
L 71.366935 190.166685 
L 70.200424 214.554331 
L 71.444756 214.554331 
L 72.448109 193.577727 
L 79.096922 168.346393 
L 89.619193 154.799493 
L 114.679147 214.554331 
z
" clip-path="url(#p00405cc881)" style="fill: #46307e; fill-opacity: 0.7"/>
    <path d="M 126.251319 214.554331 
L 93.041282 135.365821 
L 79.096922 153.318489 
L 70.28576 186.755644 
L 68.956092 214.554331 
L 70.200424 214.554331 
L 71.366935 190.166685 
L 79.096922 160.832441 
L 91.330237 145.082657 
L 120.465233 214.554331 
z
" clip-path="url(#p00405cc881)" style="fill: #453781; fill-opacity: 0.7"/>
    <path d="M 132.037406 214.554331 
L 94.752326 125.648985 
L 79.096922 145.804538 
L 69.204585 183.344602 
L 67.71176 214.554331 
L 68.956092 214.554331 
L 70.28576 186.755644 
L 79.096922 153.318489 
L 93.041282 135.365821 
L 126.251319 214.554331 
z
" clip-path="url(#p00405cc881)" style="fill: #433e85; fill-opacity: 0.7"/>
    <path d="M 137.823492 214.554331 
L 96.463371 115.932149 
L 79.096922 138.290586 
L 68.12341 179.933561 
L 66.467429 214.554331 
L 67.71176 214.554331 
L 69.204585 183.344602 
L 79.096922 145.804538 
L 94.752326 125.648985 
L 132.037406 214.554331 
z
" clip-path="url(#p00405cc881)" style="fill: #414487; fill-opacity: 0.7"/>
    <path d="M 142.098896 214.554331 
L 129.597531 181.142951 
L 98.174415 106.215312 
L 79.096922 130.776634 
L 67.042235 176.52252 
L 65.223097 214.554331 
L 66.467429 214.554331 
L 68.12341 179.933561 
L 79.096922 138.290586 
L 96.463371 115.932149 
L 137.823492 214.554331 
L 139.011024 214.554331 
z
" clip-path="url(#p00405cc881)" style="fill: #3e4a89; fill-opacity: 0.7"/>
    <path d="M 145.98418 214.554331 
L 117.753096 139.103411 
L 99.88546 96.498476 
L 79.096922 123.262683 
L 65.961061 173.111478 
L 63.978765 214.554331 
L 65.223097 214.554331 
L 67.042235 176.52252 
L 79.096922 130.776634 
L 98.174415 106.215312 
L 129.597531 181.142951 
L 142.098896 214.554331 
z
" clip-path="url(#p00405cc881)" style="fill: #3c508b; fill-opacity: 0.7"/>
    <path d="M 149.869465 214.554331 
L 105.908661 97.063871 
L 101.596504 86.78164 
L 93.899038 96.691745 
L 79.096922 120.041637 
L 77.160907 123.095642 
L 64.879886 169.700437 
L 62.734433 214.554331 
L 63.978765 214.554331 
L 65.961061 173.111478 
L 79.096922 123.262683 
L 99.88546 96.498476 
L 117.753096 139.103411 
L 145.98418 214.554331 
z
" clip-path="url(#p00405cc881)" style="fill: #39568c; fill-opacity: 0.7"/>
    <path d="M 153.75475 214.554331 
L 107.502898 90.940776 
L 103.659162 81.295443 
L 102.140807 83.690601 
L 93.899038 96.691745 
L 101.596504 86.78164 
L 105.908661 97.063871 
L 149.869465 214.554331 
z
M 73.772265 128.441123 
L 63.798711 166.289395 
L 61.490101 214.554331 
L 62.734433 214.554331 
L 64.879886 169.700437 
L 77.160907 123.095642 
z
" clip-path="url(#p00405cc881)" style="fill: #365c8d; fill-opacity: 0.7"/>
    <path d="M 157.640035 214.554331 
L 115.36649 101.573272 
L 105.885852 77.782905 
L 103.659162 81.295443 
L 107.502898 90.940776 
L 153.75475 214.554331 
z
M 70.383623 133.786604 
L 62.717536 162.878354 
L 60.24577 214.554331 
L 61.490101 214.554331 
L 63.798711 166.289395 
L 73.772265 128.441123 
z
" clip-path="url(#p00405cc881)" style="fill: #34618d; fill-opacity: 0.7"/>
    <path d="M 161.525319 214.554331 
L 123.230081 112.205769 
L 108.112543 74.270368 
L 105.885852 77.782905 
L 115.36649 101.573272 
L 157.640035 214.554331 
z
M 66.994981 139.132085 
L 61.636362 159.467313 
L 59.001438 214.554331 
L 60.24577 214.554331 
L 62.717536 162.878354 
L 70.383623 133.786604 
z
" clip-path="url(#p00405cc881)" style="fill: #31678e; fill-opacity: 0.7"/>
    <path d="M 165.410604 214.554331 
L 131.093673 122.838265 
L 114.690503 81.676746 
L 111.79193 75.376717 
L 109.601564 71.921481 
L 109.053973 72.78529 
L 108.112543 74.270368 
L 123.230081 112.205769 
L 161.525319 214.554331 
z
M 63.606339 144.477566 
L 60.555187 156.056271 
L 57.757106 214.554331 
L 59.001438 214.554331 
L 61.636362 159.467313 
L 66.994981 139.132085 
z
" clip-path="url(#p00405cc881)" style="fill: #2f6c8e; fill-opacity: 0.7"/>
    <path d="M 169.295889 214.554331 
L 138.957265 133.470762 
L 124.455687 97.081032 
L 116.535391 79.866318 
L 110.550257 70.424948 
L 109.601564 71.921481 
L 111.79193 75.376717 
L 114.690503 81.676746 
L 131.093673 122.838265 
L 165.410604 214.554331 
z
M 60.217697 149.823047 
L 59.474012 152.64523 
L 56.512774 214.554331 
L 57.757106 214.554331 
L 60.555187 156.056271 
L 63.606339 144.477566 
z
" clip-path="url(#p00405cc881)" style="fill: #2c718e; fill-opacity: 0.7"/>
    <path d="M 173.181174 214.554331 
L 146.820856 144.103258 
L 134.220872 112.485317 
L 121.278853 84.355918 
L 111.498949 68.928414 
L 110.550257 70.424948 
L 116.535391 79.866318 
L 124.455687 97.081032 
L 138.957265 133.470762 
L 169.295889 214.554331 
z
M 58.213443 152.984698 
L 55.268442 214.554331 
L 56.512774 214.554331 
L 59.474012 152.64523 
L 60.217697 149.823047 
L 59.125555 151.545868 
z
" clip-path="url(#p00405cc881)" style="fill: #2a768e; fill-opacity: 0.7"/>
    <path d="M 177.066458 214.554331 
L 154.684448 154.735755 
L 143.986057 127.889603 
L 126.022314 88.845519 
L 112.447641 67.431881 
L 111.498949 68.928414 
L 121.278853 84.355918 
L 134.220872 112.485317 
L 146.820856 144.103258 
L 173.181174 214.554331 
z
M 56.867559 155.107788 
L 54.024111 214.554331 
L 55.268442 214.554331 
L 58.213443 152.984698 
z
" clip-path="url(#p00405cc881)" style="fill: #287c8e; fill-opacity: 0.7"/>
    <path d="M 180.951743 214.554331 
L 162.548039 165.368251 
L 153.751242 143.293888 
L 130.765775 93.335119 
L 113.396333 65.935347 
L 112.447641 67.431881 
L 126.022314 88.845519 
L 143.986057 127.889603 
L 154.684448 154.735755 
L 177.066458 214.554331 
z
M 55.521676 157.230879 
L 52.779779 214.554331 
L 54.024111 214.554331 
L 56.867559 155.107788 
z
" clip-path="url(#p00405cc881)" style="fill: #26818e; fill-opacity: 0.7"/>
    <path d="M 184.837028 214.554331 
L 170.411631 176.000748 
L 163.516427 158.698174 
L 135.509236 97.82472 
L 114.345025 64.438814 
L 113.396333 65.935347 
L 130.765775 93.335119 
L 153.751242 143.293888 
L 162.548039 165.368251 
L 180.951743 214.554331 
z
M 54.175792 159.35397 
L 51.535447 214.554331 
L 52.779779 214.554331 
L 55.521676 157.230879 
z
" clip-path="url(#p00405cc881)" style="fill: #24868e; fill-opacity: 0.7"/>
    <path d="M 188.722313 214.554331 
L 178.275222 186.633244 
L 173.281612 174.102459 
L 140.252697 102.31432 
L 115.293718 62.94228 
L 114.345025 64.438814 
L 135.509236 97.82472 
L 163.516427 158.698174 
L 170.411631 176.000748 
L 184.837028 214.554331 
z
M 52.829909 161.477061 
L 50.291115 214.554331 
L 51.535447 214.554331 
L 54.175792 159.35397 
z
" clip-path="url(#p00405cc881)" style="fill: #228b8d; fill-opacity: 0.7"/>
    <path d="M 192.607597 214.554331 
L 186.138814 197.265741 
L 183.046796 189.506744 
L 144.996159 106.80392 
L 116.24241 61.445747 
L 115.293718 62.94228 
L 140.252697 102.31432 
L 173.281612 174.102459 
L 178.275222 186.633244 
L 188.722313 214.554331 
z
M 51.484025 163.600152 
L 49.046783 214.554331 
L 50.291115 214.554331 
L 52.829909 161.477061 
z
" clip-path="url(#p00405cc881)" style="fill: #21918c; fill-opacity: 0.7"/>
    <path d="M 196.492882 214.554331 
L 194.002406 207.898237 
L 192.811981 204.91103 
L 149.73962 111.293521 
L 117.191102 59.949213 
L 116.24241 61.445747 
L 144.996159 106.80392 
L 183.046796 189.506744 
L 186.138814 197.265741 
L 192.607597 214.554331 
z
M 50.138142 165.723242 
L 47.802452 214.554331 
L 49.046783 214.554331 
L 51.484025 163.600152 
z
" clip-path="url(#p00405cc881)" style="fill: #1f958b; fill-opacity: 0.7"/>
    <path d="M 199.926602 214.554331 
L 154.483081 115.783121 
L 118.139794 58.45268 
L 117.191102 59.949213 
L 149.73962 111.293521 
L 192.811981 204.91103 
L 194.002406 207.898237 
L 196.492882 214.554331 
L 198.925125 214.554331 
z
M 48.792258 167.846333 
L 46.55812 214.554331 
L 47.802452 214.554331 
L 50.138142 165.723242 
z
" clip-path="url(#p00405cc881)" style="fill: #1f9a8a; fill-opacity: 0.7"/>
    <path d="M 202.604449 214.554331 
L 159.226542 120.272722 
L 119.088487 56.956146 
L 118.139794 58.45268 
L 154.483081 115.783121 
L 199.926602 214.554331 
z
M 47.446375 169.969424 
L 45.313788 214.554331 
L 46.55812 214.554331 
L 48.792258 167.846333 
z
" clip-path="url(#p00405cc881)" style="fill: #1fa088; fill-opacity: 0.7"/>
    <path d="M 205.282295 214.554331 
L 163.970003 124.762322 
L 120.037179 55.459613 
L 119.088487 56.956146 
L 159.226542 120.272722 
L 202.604449 214.554331 
z
M 46.100491 172.092515 
L 44.069456 214.554331 
L 45.313788 214.554331 
L 47.446375 169.969424 
z
" clip-path="url(#p00405cc881)" style="fill: #20a486; fill-opacity: 0.7"/>
    <path d="M 207.960142 214.554331 
L 168.713464 129.251923 
L 120.985871 53.963079 
L 120.037179 55.459613 
L 163.970003 124.762322 
L 205.282295 214.554331 
z
M 44.754607 174.215606 
L 42.825124 214.554331 
L 44.069456 214.554331 
L 46.100491 172.092515 
z
" clip-path="url(#p00405cc881)" style="fill: #24aa83; fill-opacity: 0.7"/>
    <path d="M 210.637988 214.554331 
L 173.456926 133.741523 
L 121.934563 52.466546 
L 120.985871 53.963079 
L 168.713464 129.251923 
L 207.960142 214.554331 
z
M 43.408724 176.338696 
L 41.580793 214.554331 
L 42.825124 214.554331 
L 44.754607 174.215606 
z
" clip-path="url(#p00405cc881)" style="fill: #28ae80; fill-opacity: 0.7"/>
    <path d="M 213.315835 214.554331 
L 178.200387 138.231123 
L 122.883256 50.970012 
L 121.934563 52.466546 
L 173.456926 133.741523 
L 210.637988 214.554331 
z
M 42.06284 178.461787 
L 40.336461 214.554331 
L 41.580793 214.554331 
L 43.408724 176.338696 
z
" clip-path="url(#p00405cc881)" style="fill: #2fb47c; fill-opacity: 0.7"/>
    <path d="M 215.993681 214.554331 
L 182.943848 142.720724 
L 123.831948 49.473479 
L 122.883256 50.970012 
L 178.200387 138.231123 
L 213.315835 214.554331 
z
M 40.716957 180.584878 
L 39.092129 214.554331 
L 40.336461 214.554331 
L 42.06284 178.461787 
z
" clip-path="url(#p00405cc881)" style="fill: #37b878; fill-opacity: 0.7"/>
    <path d="M 218.671528 214.554331 
L 187.687309 147.210324 
L 124.78064 47.976945 
L 123.831948 49.473479 
L 182.943848 142.720724 
L 215.993681 214.554331 
z
M 39.371073 182.707969 
L 37.847797 214.554331 
L 39.092129 214.554331 
L 40.716957 180.584878 
z
" clip-path="url(#p00405cc881)" style="fill: #40bd72; fill-opacity: 0.7"/>
    <path d="M 221.349375 214.554331 
L 192.43077 151.699925 
L 125.729332 46.480412 
L 124.78064 47.976945 
L 187.687309 147.210324 
L 218.671528 214.554331 
z
M 38.02519 184.83106 
L 36.603465 214.554331 
L 37.847797 214.554331 
L 39.371073 182.707969 
z
" clip-path="url(#p00405cc881)" style="fill: #4ac16d; fill-opacity: 0.7"/>
    <path d="M 224.027221 214.554331 
L 197.174232 156.189525 
L 126.678025 44.983879 
L 125.729332 46.480412 
L 192.43077 151.699925 
L 221.349375 214.554331 
z
M 36.679306 186.95415 
L 35.359134 214.554331 
L 36.603465 214.554331 
L 38.02519 184.83106 
z
" clip-path="url(#p00405cc881)" style="fill: #54c568; fill-opacity: 0.7"/>
    <path d="M 226.705068 214.554331 
L 201.917693 160.679126 
L 127.626717 43.487345 
L 126.678025 44.983879 
L 197.174232 156.189525 
L 224.027221 214.554331 
z
M 35.333423 189.077241 
L 34.114802 214.554331 
L 35.359134 214.554331 
L 36.679306 186.95415 
z
" clip-path="url(#p00405cc881)" style="fill: #60ca60; fill-opacity: 0.7"/>
    <path d="M 229.382914 214.554331 
L 206.661154 165.168726 
L 128.575409 41.990812 
L 127.626717 43.487345 
L 201.917693 160.679126 
L 226.705068 214.554331 
z
M 33.987539 191.200332 
L 32.87047 214.554331 
L 34.114802 214.554331 
L 35.333423 189.077241 
z
" clip-path="url(#p00405cc881)" style="fill: #6ccd5a; fill-opacity: 0.7"/>
    <path d="M 232.060761 214.554331 
L 211.404615 169.658326 
L 129.524101 40.494278 
L 128.575409 41.990812 
L 206.661154 165.168726 
L 229.382914 214.554331 
z
M 32.641656 193.323423 
L 31.626138 214.554331 
L 32.87047 214.554331 
L 33.987539 191.200332 
z
" clip-path="url(#p00405cc881)" style="fill: #7ad151; fill-opacity: 0.7"/>
    <path d="M 234.738608 214.554331 
L 216.148076 174.147927 
L 130.472793 38.997745 
L 129.524101 40.494278 
L 211.404615 169.658326 
L 232.060761 214.554331 
z
M 31.295772 195.446514 
L 30.381807 214.554331 
L 31.626138 214.554331 
L 32.641656 193.323423 
z
" clip-path="url(#p00405cc881)" style="fill: #86d549; fill-opacity: 0.7"/>
    <path d="M 237.416454 214.554331 
L 220.891537 178.637527 
L 131.421486 37.501211 
L 130.472793 38.997745 
L 216.148076 174.147927 
L 234.738608 214.554331 
z
M 29.949889 197.569604 
L 29.137475 214.554331 
L 30.381807 214.554331 
L 31.295772 195.446514 
z
" clip-path="url(#p00405cc881)" style="fill: #95d840; fill-opacity: 0.7"/>
    <path d="M 240.094301 214.554331 
L 225.634999 183.127128 
L 132.370178 36.004678 
L 131.421486 37.501211 
L 220.891537 178.637527 
L 237.416454 214.554331 
z
M 28.604005 199.692695 
L 27.893143 214.554331 
L 29.137475 214.554331 
L 29.949889 197.569604 
z
" clip-path="url(#p00405cc881)" style="fill: #a2da37; fill-opacity: 0.7"/>
    <path d="M 242.772147 214.554331 
L 230.37846 187.616728 
L 133.31887 34.508144 
L 132.370178 36.004678 
L 225.634999 183.127128 
L 240.094301 214.554331 
z
M 27.258122 201.815786 
L 26.648811 214.554331 
L 27.893143 214.554331 
L 28.604005 199.692695 
z
" clip-path="url(#p00405cc881)" style="fill: #b2dd2d; fill-opacity: 0.7"/>
    <path d="M 245.449994 214.554331 
L 235.121921 192.106329 
L 134.267562 33.011611 
L 133.31887 34.508144 
L 230.37846 187.616728 
L 242.772147 214.554331 
z
M 25.912238 203.938877 
L 25.404479 214.554331 
L 26.648811 214.554331 
L 27.258122 201.815786 
z
" clip-path="url(#p00405cc881)" style="fill: #c0df25; fill-opacity: 0.7"/>
    <path d="M 248.127841 214.554331 
L 239.865382 196.595929 
L 135.216255 31.515077 
L 134.267562 33.011611 
L 235.121921 192.106329 
L 245.449994 214.554331 
z
M 24.566354 206.061968 
L 24.160148 214.554331 
L 25.404479 214.554331 
L 25.912238 203.938877 
z
" clip-path="url(#p00405cc881)" style="fill: #cde11d; fill-opacity: 0.7"/>
    <path d="M 250.805687 214.554331 
L 244.608843 201.085529 
L 136.164947 30.018544 
L 135.216255 31.515077 
L 239.865382 196.595929 
L 248.127841 214.554331 
z
M 23.220471 208.185058 
L 22.915816 214.554331 
L 24.160148 214.554331 
L 24.566354 206.061968 
z
" clip-path="url(#p00405cc881)" style="fill: #dde318; fill-opacity: 0.7"/>
    <path d="M 253.483534 214.554331 
L 249.352305 205.57513 
L 137.113639 28.52201 
L 136.164947 30.018544 
L 244.608843 201.085529 
L 250.805687 214.554331 
z
M 21.874587 210.308149 
L 21.671484 214.554331 
L 22.915816 214.554331 
L 23.220471 208.185058 
z
" clip-path="url(#p00405cc881)" style="fill: #eae51a; fill-opacity: 0.7"/>
    <path d="M 256.16138 214.554331 
L 254.095766 210.06473 
L 138.062331 27.025477 
L 137.113639 28.52201 
L 249.352305 205.57513 
L 253.483534 214.554331 
z
M 20.528704 212.43124 
L 20.427152 214.554331 
L 21.671484 214.554331 
L 21.874587 210.308149 
z
" clip-path="url(#p00405cc881)" style="fill: #f8e621; fill-opacity: 0.7"/>
    <path d="M 138.062331 27.025477 
L 254.095766 210.06473 
L 256.16138 214.554331 
L 258.839227 214.554331 
L 139.011024 25.528943 
z
M 20.427152 214.554331 
L 20.528704 212.43124 
L 19.18282 214.554331 
z
" clip-path="url(#p00405cc881)" style="fill: #fde725; fill-opacity: 0.7"/>
   </g>
   <g id="matplotlib.axis_1"/>
   <g id="matplotlib.axis_2"/>
   <g id="line2d_1">
    <path d="M 79.096922 214.554331 
L 102.140807 83.690601 
" clip-path="url(#p00405cc881)" style="fill: none; stroke: #555555; stroke-opacity: 0.9; stroke-width: 0.5; stroke-linecap: square"/>
   </g>
   <g id="line2d_2">
    <path d="M 109.053973 72.78529 
L 139.011024 25.528943 
" clip-path="url(#p00405cc881)" style="fill: none; stroke: #555555; stroke-opacity: 0.9; stroke-width: 0.5; stroke-linecap: square"/>
   </g>
   <g id="line2d_3">
    <path d="M 79.096922 120.041637 
L 102.140807 83.690601 
" clip-path="url(#p00405cc881)" style="fill: none; stroke: #555555; stroke-opacity: 0.9; stroke-width: 0.5; stroke-linecap: square"/>
   </g>
   <g id="line2d_4">
    <path d="M 109.053973 72.78529 
L 198.925125 214.554331 
" clip-path="url(#p00405cc881)" style="fill: none; stroke: #555555; stroke-opacity: 0.9; stroke-width: 0.5; stroke-linecap: square"/>
   </g>
   <g id="line2d_5">
    <path d="M 79.096922 120.041637 
L 79.096922 214.554331 
" clip-path="url(#p00405cc881)" style="fill: none; stroke: #555555; stroke-opacity: 0.9; stroke-width: 0.5; stroke-linecap: square"/>
   </g>
   <g id="line2d_6">
    <path d="M 59.125555 151.545868 
L 19.18282 214.554331 
" clip-path="url(#p00405cc881)" style="fill: none; stroke: #555555; stroke-opacity: 0.9; stroke-width: 0.5; stroke-linecap: square"/>
   </g>
   <g id="line2d_7">
    <path d="M 139.011024 25.528943 
L 258.839227 214.554331 
" clip-path="url(#p00405cc881)" style="fill: none; stroke: #555555; stroke-opacity: 0.9; stroke-width: 0.5; stroke-linecap: square"/>
   </g>
   <g id="line2d_8">
    <path d="M 79.096922 120.041637 
L 59.125555 151.545868 
" clip-path="url(#p00405cc881)" style="fill: none; stroke: #555555; stroke-opacity: 0.9; stroke-width: 0.5; stroke-linecap: square"/>
   </g>
   <g id="line2d_9">
    <path d="M 139.011024 214.554331 
L 102.140807 83.690601 
" clip-path="url(#p00405cc881)" style="fill: none; stroke: #555555; stroke-opacity: 0.9; stroke-width: 0.5; stroke-linecap: square"/>
   </g>
   <g id="line2d_10">
    <path d="M 198.925125 214.554331 
L 102.140807 83.690601 
" clip-path="url(#p00405cc881)" style="fill: none; stroke: #555555; stroke-opacity: 0.9; stroke-width: 0.5; stroke-linecap: square"/>
   </g>
   <g id="line2d_11">
    <path d="M 139.011024 214.554331 
L 79.096922 214.554331 
" clip-path="url(#p00405cc881)" style="fill: none; stroke: #555555; stroke-opacity: 0.9; stroke-width: 0.5; stroke-linecap: square"/>
   </g>
   <g id="line2d_12">
    <path d="M 109.053973 72.78529 
L 102.140807 83.690601 
" clip-path="url(#p00405cc881)" style="fill: none; stroke: #555555; stroke-opacity: 0.9; stroke-width: 0.5; stroke-linecap: square"/>
   </g>
   <g id="line2d_13">
    <path d="M 198.925125 214.554331 
L 258.839227 214.554331 
" clip-path="url(#p00405cc881)" style="fill: none; stroke: #555555; stroke-opacity: 0.9; stroke-width: 0.5; stroke-linecap: square"/>
   </g>
   <g id="line2d_14">
    <path d="M 109.053973 72.78529 
L 258.839227 214.554331 
" clip-path="url(#p00405cc881)" style="fill: none; stroke: #555555; stroke-opacity: 0.9; stroke-width: 0.5; stroke-linecap: square"/>
   </g>
   <g id="line2d_15">
    <path d="M 59.125555 151.545868 
L 79.096922 214.554331 
" clip-path="url(#p00405cc881)" style="fill: none; stroke: #555555; stroke-opacity: 0.9; stroke-width: 0.5; stroke-linecap: square"/>
   </g>
   <g id="line2d_16">
    <path d="M 139.011024 214.554331 
L 198.925125 214.554331 
" clip-path="url(#p00405cc881)" style="fill: none; stroke: #555555; stroke-opacity: 0.9; stroke-width: 0.5; stroke-linecap: square"/>
   </g>
   <g id="line2d_17">
    <path d="M 79.096922 214.554331 
L 19.18282 214.554331 
" clip-path="url(#p00405cc881)" style="fill: none; stroke: #555555; stroke-opacity: 0.9; stroke-width: 0.5; stroke-linecap: square"/>
   </g>
   <g id="PathCollection_1">
    <defs>
     <path id="m3add807a4b" d="M 0 2.738613 
C 0.726289 2.738613 1.422928 2.450055 1.936492 1.936492 
C 2.450055 1.422928 2.738613 0.726289 2.738613 0 
C 2.738613 -0.726289 2.450055 -1.422928 1.936492 -1.936492 
C 1.422928 -2.450055 0.726289 -2.738613 0 -2.738613 
C -0.726289 -2.738613 -1.422928 -2.450055 -1.936492 -1.936492 
C -2.450055 -1.422928 -2.738613 -0.726289 -2.738613 0 
C -2.738613 0.726289 -2.450055 1.422928 -1.936492 1.936492 
C -1.422928 2.450055 -0.726289 2.738613 0 2.738613 
z
" style="stroke: #008000"/>
    </defs>
    <g clip-path="url(#p00405cc881)">
     <use xlink:href="#m3add807a4b" x="79.096922" y="214.554331" style="fill: #008000; stroke: #008000"/>
     <use xlink:href="#m3add807a4b" x="102.140807" y="83.690601" style="fill: #008000; stroke: #008000"/>
     <use xlink:href="#m3add807a4b" x="109.053973" y="72.78529" style="fill: #008000; stroke: #008000"/>
     <use xlink:href="#m3add807a4b" x="139.011024" y="25.528943" style="fill: #008000; stroke: #008000"/>
     <use xlink:href="#m3add807a4b" x="79.096922" y="120.041637" style="fill: #008000; stroke: #008000"/>
     <use xlink:href="#m3add807a4b" x="198.925125" y="214.554331" style="fill: #008000; stroke: #008000"/>
     <use xlink:href="#m3add807a4b" x="59.125555" y="151.545868" style="fill: #008000; stroke: #008000"/>
     <use xlink:href="#m3add807a4b" x="19.18282" y="214.554331" style="fill: #008000; stroke: #008000"/>
     <use xlink:href="#m3add807a4b" x="258.839227" y="214.554331" style="fill: #008000; stroke: #008000"/>
     <use xlink:href="#m3add807a4b" x="139.011024" y="214.554331" style="fill: #008000; stroke: #008000"/>
    </g>
   </g>
   <g id="PathCollection_2">
    <defs>
     <path id="m003068a266" d="M -0 2.236068 
L 1.341641 0 
L 0 -2.236068 
L -1.341641 -0 
z
" style="stroke: #d3d3d3"/>
    </defs>
    <g clip-path="url(#p00405cc881)">
     <use xlink:href="#m003068a266" x="139.011024" y="25.528943" style="fill: #d3d3d3; stroke: #d3d3d3"/>
     <use xlink:href="#m003068a266" x="139.011024" y="25.528943" style="fill: #d3d3d3; stroke: #d3d3d3"/>
     <use xlink:href="#m003068a266" x="139.011024" y="25.528943" style="fill: #d3d3d3; stroke: #d3d3d3"/>
     <use xlink:href="#m003068a266" x="139.011024" y="25.528943" style="fill: #d3d3d3; stroke: #d3d3d3"/>
     <use xlink:href="#m003068a266" x="139.011024" y="25.528943" style="fill: #d3d3d3; stroke: #d3d3d3"/>
     <use xlink:href="#m003068a266" x="139.011024" y="25.528943" style="fill: #d3d3d3; stroke: #d3d3d3"/>
     <use xlink:href="#m003068a266" x="139.011024" y="25.528943" style="fill: #d3d3d3; stroke: #d3d3d3"/>
     <use xlink:href="#m003068a266" x="258.839227" y="214.554331" style="fill: #d3d3d3; stroke: #d3d3d3"/>
     <use xlink:href="#m003068a266" x="258.839227" y="214.554331" style="fill: #d3d3d3; stroke: #d3d3d3"/>
     <use xlink:href="#m003068a266" x="228.882176" y="167.297984" style="fill: #d3d3d3; stroke: #d3d3d3"/>
     <use xlink:href="#m003068a266" x="228.882176" y="167.297984" style="fill: #d3d3d3; stroke: #d3d3d3"/>
     <use xlink:href="#m003068a266" x="19.18282" y="214.554331" style="fill: #d3d3d3; stroke: #d3d3d3"/>
     <use xlink:href="#m003068a266" x="19.18282" y="214.554331" style="fill: #d3d3d3; stroke: #d3d3d3"/>
     <use xlink:href="#m003068a266" x="19.18282" y="214.554331" style="fill: #d3d3d3; stroke: #d3d3d3"/>
     <use xlink:href="#m003068a266" x="19.18282" y="214.554331" style="fill: #d3d3d3; stroke: #d3d3d3"/>
     <use xlink:href="#m003068a266" x="19.18282" y="214.554331" style="fill: #d3d3d3; stroke: #d3d3d3"/>
     <use xlink:href="#m003068a266" x="19.18282" y="214.554331" style="fill: #d3d3d3; stroke: #d3d3d3"/>
     <use xlink:href="#m003068a266" x="19.18282" y="214.554331" style="fill: #d3d3d3; stroke: #d3d3d3"/>
     <use xlink:href="#m003068a266" x="19.18282" y="214.554331" style="fill: #d3d3d3; stroke: #d3d3d3"/>
     <use xlink:href="#m003068a266" x="19.18282" y="214.554331" style="fill: #d3d3d3; stroke: #d3d3d3"/>
     <use xlink:href="#m003068a266" x="79.096922" y="120.041637" style="fill: #d3d3d3; stroke: #d3d3d3"/>
     <use xlink:href="#m003068a266" x="109.053973" y="72.78529" style="fill: #d3d3d3; stroke: #d3d3d3"/>
     <use xlink:href="#m003068a266" x="109.053973" y="72.78529" style="fill: #d3d3d3; stroke: #d3d3d3"/>
     <use xlink:href="#m003068a266" x="109.053973" y="72.78529" style="fill: #d3d3d3; stroke: #d3d3d3"/>
     <use xlink:href="#m003068a266" x="115.045383" y="63.334021" style="fill: #d3d3d3; stroke: #d3d3d3"/>
     <use xlink:href="#m003068a266" x="178.953758" y="214.554331" style="fill: #d3d3d3; stroke: #d3d3d3"/>
     <use xlink:href="#m003068a266" x="198.925125" y="214.554331" style="fill: #d3d3d3; stroke: #d3d3d3"/>
     <use xlink:href="#m003068a266" x="59.125555" y="151.545868" style="fill: #d3d3d3; stroke: #d3d3d3"/>
     <use xlink:href="#m003068a266" x="59.125555" y="151.545868" style="fill: #d3d3d3; stroke: #d3d3d3"/>
     <use xlink:href="#m003068a266" x="49.139871" y="167.297984" style="fill: #d3d3d3; stroke: #d3d3d3"/>
     <use xlink:href="#m003068a266" x="49.139871" y="167.297984" style="fill: #d3d3d3; stroke: #d3d3d3"/>
     <use xlink:href="#m003068a266" x="67.114102" y="138.944176" style="fill: #d3d3d3; stroke: #d3d3d3"/>
     <use xlink:href="#m003068a266" x="79.096922" y="214.554331" style="fill: #d3d3d3; stroke: #d3d3d3"/>
     <use xlink:href="#m003068a266" x="113.784033" y="65.323762" style="fill: #d3d3d3; stroke: #d3d3d3"/>
     <use xlink:href="#m003068a266" x="74.488145" y="156.392673" style="fill: #d3d3d3; stroke: #d3d3d3"/>
     <use xlink:href="#m003068a266" x="111.358361" y="214.554331" style="fill: #d3d3d3; stroke: #d3d3d3"/>
     <use xlink:href="#m003068a266" x="111.358361" y="214.554331" style="fill: #d3d3d3; stroke: #d3d3d3"/>
     <use xlink:href="#m003068a266" x="40.969766" y="214.554331" style="fill: #d3d3d3; stroke: #d3d3d3"/>
     <use xlink:href="#m003068a266" x="54.687473" y="214.554331" style="fill: #d3d3d3; stroke: #d3d3d3"/>
     <use xlink:href="#m003068a266" x="27.741978" y="214.554331" style="fill: #d3d3d3; stroke: #d3d3d3"/>
     <use xlink:href="#m003068a266" x="40.485612" y="214.554331" style="fill: #d3d3d3; stroke: #d3d3d3"/>
     <use xlink:href="#m003068a266" x="51.44426" y="214.554331" style="fill: #d3d3d3; stroke: #d3d3d3"/>
    </g>
   </g>
   <g id="PathCollection_3">
    <defs>
     <path id="mfc00955488" d="M 0 -5 
L -1.12257 -1.545085 
L -4.755283 -1.545085 
L -1.816356 0.59017 
L -2.938926 4.045085 
L -0 1.90983 
L 2.938926 4.045085 
L 1.816356 0.59017 
L 4.755283 -1.545085 
L 1.12257 -1.545085 
z
" style="stroke: #0000ff"/>
    </defs>
    <g clip-path="url(#p00405cc881)">
     <use xlink:href="#mfc00955488" x="74.488145" y="156.392673" style="fill: #0000ff; stroke: #0000ff"/>
    </g>
   </g>
   <g id="text_1">
    <!-- $\mathrm{Al_{3}V}$ -->
    <g transform="translate(72.374195 210.594971) scale(0.1 -0.1)">
     <defs>
      <path id="DejaVuSans-41" d="M 2188 4044 
L 1331 1722 
L 3047 1722 
L 2188 4044 
z
M 1831 4666 
L 2547 4666 
L 4325 0 
L 3669 0 
L 3244 1197 
L 1141 1197 
L 716 0 
L 50 0 
L 1831 4666 
z
" transform="scale(0.015625)"/>
      <path id="DejaVuSans-6c" d="M 603 4863 
L 1178 4863 
L 1178 0 
L 603 0 
L 603 4863 
z
" transform="scale(0.015625)"/>
      <path id="DejaVuSans-33" d="M 2597 2516 
Q 3050 2419 3304 2112 
Q 3559 1806 3559 1356 
Q 3559 666 3084 287 
Q 2609 -91 1734 -91 
Q 1441 -91 1130 -33 
Q 819 25 488 141 
L 488 750 
Q 750 597 1062 519 
Q 1375 441 1716 441 
Q 2309 441 2620 675 
Q 2931 909 2931 1356 
Q 2931 1769 2642 2001 
Q 2353 2234 1838 2234 
L 1294 2234 
L 1294 2753 
L 1863 2753 
Q 2328 2753 2575 2939 
Q 2822 3125 2822 3475 
Q 2822 3834 2567 4026 
Q 2313 4219 1838 4219 
Q 1578 4219 1281 4162 
Q 984 4106 628 3988 
L 628 4550 
Q 988 4650 1302 4700 
Q 1616 4750 1894 4750 
Q 2613 4750 3031 4423 
Q 3450 4097 3450 3541 
Q 3450 3153 3228 2886 
Q 3006 2619 2597 2516 
z
" transform="scale(0.015625)"/>
      <path id="DejaVuSans-56" d="M 1831 0 
L 50 4666 
L 709 4666 
L 2188 738 
L 3669 4666 
L 4325 4666 
L 2547 0 
L 1831 0 
z
" transform="scale(0.015625)"/>
     </defs>
     <use xlink:href="#DejaVuSans-41" transform="translate(0 0.015625)"/>
     <use xlink:href="#DejaVuSans-6c" transform="translate(68.408203 0.015625)"/>
     <use xlink:href="#DejaVuSans-33" transform="translate(97.148438 -16.390625) scale(0.7)"/>
     <use xlink:href="#DejaVuSans-56" transform="translate(144.418945 0.015625)"/>
    </g>
   </g>
   <g id="text_2">
    <!-- $\mathrm{Al_{4}Cu_{9}}$ -->
    <g transform="translate(76.022625 92.638484) scale(0.1 -0.1)">
     <defs>
      <path id="DejaVuSans-34" d="M 2419 4116 
L 825 1625 
L 2419 1625 
L 2419 4116 
z
M 2253 4666 
L 3047 4666 
L 3047 1625 
L 3713 1625 
L 3713 1100 
L 3047 1100 
L 3047 0 
L 2419 0 
L 2419 1100 
L 313 1100 
L 313 1709 
L 2253 4666 
z
" transform="scale(0.015625)"/>
      <path id="DejaVuSans-43" d="M 4122 4306 
L 4122 3641 
Q 3803 3938 3442 4084 
Q 3081 4231 2675 4231 
Q 1875 4231 1450 3742 
Q 1025 3253 1025 2328 
Q 1025 1406 1450 917 
Q 1875 428 2675 428 
Q 3081 428 3442 575 
Q 3803 722 4122 1019 
L 4122 359 
Q 3791 134 3420 21 
Q 3050 -91 2638 -91 
Q 1578 -91 968 557 
Q 359 1206 359 2328 
Q 359 3453 968 4101 
Q 1578 4750 2638 4750 
Q 3056 4750 3426 4639 
Q 3797 4528 4122 4306 
z
" transform="scale(0.015625)"/>
      <path id="DejaVuSans-75" d="M 544 1381 
L 544 3500 
L 1119 3500 
L 1119 1403 
Q 1119 906 1312 657 
Q 1506 409 1894 409 
Q 2359 409 2629 706 
Q 2900 1003 2900 1516 
L 2900 3500 
L 3475 3500 
L 3475 0 
L 2900 0 
L 2900 538 
Q 2691 219 2414 64 
Q 2138 -91 1772 -91 
Q 1169 -91 856 284 
Q 544 659 544 1381 
z
M 1991 3584 
L 1991 3584 
z
" transform="scale(0.015625)"/>
      <path id="DejaVuSans-39" d="M 703 97 
L 703 672 
Q 941 559 1184 500 
Q 1428 441 1663 441 
Q 2288 441 2617 861 
Q 2947 1281 2994 2138 
Q 2813 1869 2534 1725 
Q 2256 1581 1919 1581 
Q 1219 1581 811 2004 
Q 403 2428 403 3163 
Q 403 3881 828 4315 
Q 1253 4750 1959 4750 
Q 2769 4750 3195 4129 
Q 3622 3509 3622 2328 
Q 3622 1225 3098 567 
Q 2575 -91 1691 -91 
Q 1453 -91 1209 -44 
Q 966 3 703 97 
z
M 1959 2075 
Q 2384 2075 2632 2365 
Q 2881 2656 2881 3163 
Q 2881 3666 2632 3958 
Q 2384 4250 1959 4250 
Q 1534 4250 1286 3958 
Q 1038 3666 1038 3163 
Q 1038 2656 1286 2365 
Q 1534 2075 1959 2075 
z
" transform="scale(0.015625)"/>
     </defs>
     <use xlink:href="#DejaVuSans-41" transform="translate(0 0.015625)"/>
     <use xlink:href="#DejaVuSans-6c" transform="translate(68.408203 0.015625)"/>
     <use xlink:href="#DejaVuSans-34" transform="translate(97.148438 -16.390625) scale(0.7)"/>
     <use xlink:href="#DejaVuSans-43" transform="translate(144.418945 0.015625)"/>
     <use xlink:href="#DejaVuSans-75" transform="translate(214.243164 0.015625)"/>
     <use xlink:href="#DejaVuSans-39" transform="translate(278.579102 -16.390625) scale(0.7)"/>
    </g>
   </g>
   <g id="text_3">
    <!-- $\mathrm{AlCu_{3}}$ -->
    <g transform="translate(102.353973 68.638869) scale(0.1 -0.1)">
     <use xlink:href="#DejaVuSans-41" transform="translate(0 0.015625)"/>
     <use xlink:href="#DejaVuSans-6c" transform="translate(68.408203 0.015625)"/>
     <use xlink:href="#DejaVuSans-43" transform="translate(96.191406 0.015625)"/>
     <use xlink:href="#DejaVuSans-75" transform="translate(166.015625 0.015625)"/>
     <use xlink:href="#DejaVuSans-33" transform="translate(230.351562 -16.390625) scale(0.7)"/>
    </g>
   </g>
   <g id="text_4">
    <!-- $\mathrm{Cu}$ -->
    <g transform="translate(130.347387 33.102406) scale(0.1 -0.1)">
     <use xlink:href="#DejaVuSans-43" transform="translate(0 0.78125)"/>
     <use xlink:href="#DejaVuSans-75" transform="translate(69.824219 0.78125)"/>
    </g>
   </g>
   <g id="text_5">
    <!-- $\mathrm{AlCu}$ -->
    <g transform="translate(61.051467 127.6151) scale(0.1 -0.1)">
     <use xlink:href="#DejaVuSans-41" transform="translate(0 0.015625)"/>
     <use xlink:href="#DejaVuSans-6c" transform="translate(68.408203 0.015625)"/>
     <use xlink:href="#DejaVuSans-43" transform="translate(96.191406 0.015625)"/>
     <use xlink:href="#DejaVuSans-75" transform="translate(166.015625 0.015625)"/>
    </g>
   </g>
   <g id="text_6">
    <!-- $\mathrm{AlV_{3}}$ -->
    <g transform="translate(192.202398 210.594971) scale(0.1 -0.1)">
     <use xlink:href="#DejaVuSans-41" transform="translate(0 0.015625)"/>
     <use xlink:href="#DejaVuSans-6c" transform="translate(68.408203 0.015625)"/>
     <use xlink:href="#DejaVuSans-56" transform="translate(96.191406 0.015625)"/>
     <use xlink:href="#DejaVuSans-33" transform="translate(165.556641 -16.390625) scale(0.7)"/>
    </g>
   </g>
   <g id="text_7">
    <!-- $\mathrm{Al_{2}Cu}$ -->
    <g transform="translate(51.771009 147.420198) scale(0.1 -0.1)">
     <defs>
      <path id="DejaVuSans-32" d="M 1228 531 
L 3431 531 
L 3431 0 
L 469 0 
L 469 531 
Q 828 903 1448 1529 
Q 2069 2156 2228 2338 
Q 2531 2678 2651 2914 
Q 2772 3150 2772 3378 
Q 2772 3750 2511 3984 
Q 2250 4219 1831 4219 
Q 1534 4219 1204 4116 
Q 875 4013 500 3803 
L 500 4441 
Q 881 4594 1212 4672 
Q 1544 4750 1819 4750 
Q 2544 4750 2975 4387 
Q 3406 4025 3406 3419 
Q 3406 3131 3298 2873 
Q 3191 2616 2906 2266 
Q 2828 2175 2409 1742 
Q 1991 1309 1228 531 
z
" transform="scale(0.015625)"/>
     </defs>
     <use xlink:href="#DejaVuSans-41" transform="translate(0 0.015625)"/>
     <use xlink:href="#DejaVuSans-6c" transform="translate(68.408203 0.015625)"/>
     <use xlink:href="#DejaVuSans-32" transform="translate(97.148438 -16.390625) scale(0.7)"/>
     <use xlink:href="#DejaVuSans-43" transform="translate(144.418945 0.015625)"/>
     <use xlink:href="#DejaVuSans-75" transform="translate(214.243164 0.015625)"/>
    </g>
   </g>
   <g id="text_8">
    <!-- $\mathrm{Al}$ -->
    <g transform="translate(19.586902 211.839411) scale(0.1 -0.1)">
     <use xlink:href="#DejaVuSans-41" transform="translate(0 0.015625)"/>
     <use xlink:href="#DejaVuSans-6c" transform="translate(68.408203 0.015625)"/>
    </g>
   </g>
   <g id="text_9">
    <!-- $\mathrm{V}$ -->
    <g transform="translate(251.6665 211.527642) scale(0.1 -0.1)">
     <use xlink:href="#DejaVuSans-56" transform="translate(0 0.09375)"/>
    </g>
   </g>
   <g id="text_10">
    <!-- $\mathrm{AlV}$ -->
    <g transform="translate(132.72466 211.215873) scale(0.1 -0.1)">
     <use xlink:href="#DejaVuSans-41" transform="translate(0 0.015625)"/>
     <use xlink:href="#DejaVuSans-6c" transform="translate(68.408203 0.015625)"/>
     <use xlink:href="#DejaVuSans-56" transform="translate(96.191406 0.015625)"/>
    </g>
   </g>
   <g id="text_11">
    <!-- $\mathrm{Al_{8}VCu_{4}}$ -->
    <g style="fill: #0000ff" transform="translate(74.374509 164.717018) scale(0.1 -0.1)">
     <defs>
      <path id="DejaVuSans-38" d="M 2034 2216 
Q 1584 2216 1326 1975 
Q 1069 1734 1069 1313 
Q 1069 891 1326 650 
Q 1584 409 2034 409 
Q 2484 409 2743 651 
Q 3003 894 3003 1313 
Q 3003 1734 2745 1975 
Q 2488 2216 2034 2216 
z
M 1403 2484 
Q 997 2584 770 2862 
Q 544 3141 544 3541 
Q 544 4100 942 4425 
Q 1341 4750 2034 4750 
Q 2731 4750 3128 4425 
Q 3525 4100 3525 3541 
Q 3525 3141 3298 2862 
Q 3072 2584 2669 2484 
Q 3125 2378 3379 2068 
Q 3634 1759 3634 1313 
Q 3634 634 3220 271 
Q 2806 -91 2034 -91 
Q 1263 -91 848 271 
Q 434 634 434 1313 
Q 434 1759 690 2068 
Q 947 2378 1403 2484 
z
M 1172 3481 
Q 1172 3119 1398 2916 
Q 1625 2713 2034 2713 
Q 2441 2713 2670 2916 
Q 2900 3119 2900 3481 
Q 2900 3844 2670 4047 
Q 2441 4250 2034 4250 
Q 1625 4250 1398 4047 
Q 1172 3844 1172 3481 
z
" transform="scale(0.015625)"/>
     </defs>
     <use xlink:href="#DejaVuSans-41" transform="translate(0 0.015625)"/>
     <use xlink:href="#DejaVuSans-6c" transform="translate(68.408203 0.015625)"/>
     <use xlink:href="#DejaVuSans-38" transform="translate(97.148438 -16.390625) scale(0.7)"/>
     <use xlink:href="#DejaVuSans-56" transform="translate(144.418945 0.015625)"/>
     <use xlink:href="#DejaVuSans-43" transform="translate(212.827148 0.015625)"/>
     <use xlink:href="#DejaVuSans-75" transform="translate(282.651367 0.015625)"/>
     <use xlink:href="#DejaVuSans-34" transform="translate(346.987305 -16.390625) scale(0.7)"/>
    </g>
   </g>
  </g>
  <g id="axes_2">
   <g id="patch_3">
    <path d="M 287.298425 195.703937 
L 296.029134 195.703937 
L 296.029134 36.96378 
L 287.298425 36.96378 
L 287.298425 195.703937 
z
" style="fill: none"/>
   </g>
   <g id="patch_4">
    <path d="M 287.298425 195.703937 
L 291.66378 203.640945 
L 296.029134 195.703937 
" style="fill: #440154; opacity: 0.7"/>
   </g>
   <g id="patch_5">
    <path d="M 287.298425 36.96378 
L 291.66378 29.026772 
L 296.029134 36.96378 
" style="fill: #fde725; opacity: 0.7"/>
   </g>
   <g id="QuadMesh_1">
    <path d="M 287.298425 195.703937 
L 296.029134 195.703937 
L 296.029134 192.326487 
L 287.298425 192.326487 
L 287.298425 195.703937 
" clip-path="url(#p0ed3ecc97e)" style="fill: #450457; fill-opacity: 0.7"/>
    <path d="M 287.298425 192.326487 
L 296.029134 192.326487 
L 296.029134 188.949037 
L 287.298425 188.949037 
L 287.298425 192.326487 
" clip-path="url(#p0ed3ecc97e)" style="fill: #470d60; fill-opacity: 0.7"/>
    <path d="M 287.298425 188.949037 
L 296.029134 188.949037 
L 296.029134 185.571587 
L 287.298425 185.571587 
L 287.298425 188.949037 
" clip-path="url(#p0ed3ecc97e)" style="fill: #481467; fill-opacity: 0.7"/>
    <path d="M 287.298425 185.571587 
L 296.029134 185.571587 
L 296.029134 182.194136 
L 287.298425 182.194136 
L 287.298425 185.571587 
" clip-path="url(#p0ed3ecc97e)" style="fill: #481c6e; fill-opacity: 0.7"/>
    <path d="M 287.298425 182.194136 
L 296.029134 182.194136 
L 296.029134 178.816686 
L 287.298425 178.816686 
L 287.298425 182.194136 
" clip-path="url(#p0ed3ecc97e)" style="fill: #482374; fill-opacity: 0.7"/>
    <path d="M 287.298425 178.816686 
L 296.029134 178.816686 
L 296.029134 175.439236 
L 287.298425 175.439236 
L 287.298425 178.816686 
" clip-path="url(#p0ed3ecc97e)" style="fill: #482979; fill-opacity: 0.7"/>
    <path d="M 287.298425 175.439236 
L 296.029134 175.439236 
L 296.029134 172.061786 
L 287.298425 172.061786 
L 287.298425 175.439236 
" clip-path="url(#p0ed3ecc97e)" style="fill: #46307e; fill-opacity: 0.7"/>
    <path d="M 287.298425 172.061786 
L 296.029134 172.061786 
L 296.029134 168.684336 
L 287.298425 168.684336 
L 287.298425 172.061786 
" clip-path="url(#p0ed3ecc97e)" style="fill: #453781; fill-opacity: 0.7"/>
    <path d="M 287.298425 168.684336 
L 296.029134 168.684336 
L 296.029134 165.306886 
L 287.298425 165.306886 
L 287.298425 168.684336 
" clip-path="url(#p0ed3ecc97e)" style="fill: #433e85; fill-opacity: 0.7"/>
    <path d="M 287.298425 165.306886 
L 296.029134 165.306886 
L 296.029134 161.929435 
L 287.298425 161.929435 
L 287.298425 165.306886 
" clip-path="url(#p0ed3ecc97e)" style="fill: #414487; fill-opacity: 0.7"/>
    <path d="M 287.298425 161.929435 
L 296.029134 161.929435 
L 296.029134 158.551985 
L 287.298425 158.551985 
L 287.298425 161.929435 
" clip-path="url(#p0ed3ecc97e)" style="fill: #3e4a89; fill-opacity: 0.7"/>
    <path d="M 287.298425 158.551985 
L 296.029134 158.551985 
L 296.029134 155.174535 
L 287.298425 155.174535 
L 287.298425 158.551985 
" clip-path="url(#p0ed3ecc97e)" style="fill: #3c508b; fill-opacity: 0.7"/>
    <path d="M 287.298425 155.174535 
L 296.029134 155.174535 
L 296.029134 151.797085 
L 287.298425 151.797085 
L 287.298425 155.174535 
" clip-path="url(#p0ed3ecc97e)" style="fill: #39568c; fill-opacity: 0.7"/>
    <path d="M 287.298425 151.797085 
L 296.029134 151.797085 
L 296.029134 148.419635 
L 287.298425 148.419635 
L 287.298425 151.797085 
" clip-path="url(#p0ed3ecc97e)" style="fill: #365c8d; fill-opacity: 0.7"/>
    <path d="M 287.298425 148.419635 
L 296.029134 148.419635 
L 296.029134 145.042185 
L 287.298425 145.042185 
L 287.298425 148.419635 
" clip-path="url(#p0ed3ecc97e)" style="fill: #34618d; fill-opacity: 0.7"/>
    <path d="M 287.298425 145.042185 
L 296.029134 145.042185 
L 296.029134 141.664734 
L 287.298425 141.664734 
L 287.298425 145.042185 
" clip-path="url(#p0ed3ecc97e)" style="fill: #31678e; fill-opacity: 0.7"/>
    <path d="M 287.298425 141.664734 
L 296.029134 141.664734 
L 296.029134 138.287284 
L 287.298425 138.287284 
L 287.298425 141.664734 
" clip-path="url(#p0ed3ecc97e)" style="fill: #2f6c8e; fill-opacity: 0.7"/>
    <path d="M 287.298425 138.287284 
L 296.029134 138.287284 
L 296.029134 134.909834 
L 287.298425 134.909834 
L 287.298425 138.287284 
" clip-path="url(#p0ed3ecc97e)" style="fill: #2c718e; fill-opacity: 0.7"/>
    <path d="M 287.298425 134.909834 
L 296.029134 134.909834 
L 296.029134 131.532384 
L 287.298425 131.532384 
L 287.298425 134.909834 
" clip-path="url(#p0ed3ecc97e)" style="fill: #2a768e; fill-opacity: 0.7"/>
    <path d="M 287.298425 131.532384 
L 296.029134 131.532384 
L 296.029134 128.154934 
L 287.298425 128.154934 
L 287.298425 131.532384 
" clip-path="url(#p0ed3ecc97e)" style="fill: #287c8e; fill-opacity: 0.7"/>
    <path d="M 287.298425 128.154934 
L 296.029134 128.154934 
L 296.029134 124.777484 
L 287.298425 124.777484 
L 287.298425 128.154934 
" clip-path="url(#p0ed3ecc97e)" style="fill: #26818e; fill-opacity: 0.7"/>
    <path d="M 287.298425 124.777484 
L 296.029134 124.777484 
L 296.029134 121.400034 
L 287.298425 121.400034 
L 287.298425 124.777484 
" clip-path="url(#p0ed3ecc97e)" style="fill: #24868e; fill-opacity: 0.7"/>
    <path d="M 287.298425 121.400034 
L 296.029134 121.400034 
L 296.029134 118.022583 
L 287.298425 118.022583 
L 287.298425 121.400034 
" clip-path="url(#p0ed3ecc97e)" style="fill: #228b8d; fill-opacity: 0.7"/>
    <path d="M 287.298425 118.022583 
L 296.029134 118.022583 
L 296.029134 114.645133 
L 287.298425 114.645133 
L 287.298425 118.022583 
" clip-path="url(#p0ed3ecc97e)" style="fill: #21918c; fill-opacity: 0.7"/>
    <path d="M 287.298425 114.645133 
L 296.029134 114.645133 
L 296.029134 111.267683 
L 287.298425 111.267683 
L 287.298425 114.645133 
" clip-path="url(#p0ed3ecc97e)" style="fill: #1f958b; fill-opacity: 0.7"/>
    <path d="M 287.298425 111.267683 
L 296.029134 111.267683 
L 296.029134 107.890233 
L 287.298425 107.890233 
L 287.298425 111.267683 
" clip-path="url(#p0ed3ecc97e)" style="fill: #1f9a8a; fill-opacity: 0.7"/>
    <path d="M 287.298425 107.890233 
L 296.029134 107.890233 
L 296.029134 104.512783 
L 287.298425 104.512783 
L 287.298425 107.890233 
" clip-path="url(#p0ed3ecc97e)" style="fill: #1fa088; fill-opacity: 0.7"/>
    <path d="M 287.298425 104.512783 
L 296.029134 104.512783 
L 296.029134 101.135333 
L 287.298425 101.135333 
L 287.298425 104.512783 
" clip-path="url(#p0ed3ecc97e)" style="fill: #20a486; fill-opacity: 0.7"/>
    <path d="M 287.298425 101.135333 
L 296.029134 101.135333 
L 296.029134 97.757882 
L 287.298425 97.757882 
L 287.298425 101.135333 
" clip-path="url(#p0ed3ecc97e)" style="fill: #24aa83; fill-opacity: 0.7"/>
    <path d="M 287.298425 97.757882 
L 296.029134 97.757882 
L 296.029134 94.380432 
L 287.298425 94.380432 
L 287.298425 97.757882 
" clip-path="url(#p0ed3ecc97e)" style="fill: #28ae80; fill-opacity: 0.7"/>
    <path d="M 287.298425 94.380432 
L 296.029134 94.380432 
L 296.029134 91.002982 
L 287.298425 91.002982 
L 287.298425 94.380432 
" clip-path="url(#p0ed3ecc97e)" style="fill: #2fb47c; fill-opacity: 0.7"/>
    <path d="M 287.298425 91.002982 
L 296.029134 91.002982 
L 296.029134 87.625532 
L 287.298425 87.625532 
L 287.298425 91.002982 
" clip-path="url(#p0ed3ecc97e)" style="fill: #37b878; fill-opacity: 0.7"/>
    <path d="M 287.298425 87.625532 
L 296.029134 87.625532 
L 296.029134 84.248082 
L 287.298425 84.248082 
L 287.298425 87.625532 
" clip-path="url(#p0ed3ecc97e)" style="fill: #40bd72; fill-opacity: 0.7"/>
    <path d="M 287.298425 84.248082 
L 296.029134 84.248082 
L 296.029134 80.870632 
L 287.298425 80.870632 
L 287.298425 84.248082 
" clip-path="url(#p0ed3ecc97e)" style="fill: #4ac16d; fill-opacity: 0.7"/>
    <path d="M 287.298425 80.870632 
L 296.029134 80.870632 
L 296.029134 77.493181 
L 287.298425 77.493181 
L 287.298425 80.870632 
" clip-path="url(#p0ed3ecc97e)" style="fill: #54c568; fill-opacity: 0.7"/>
    <path d="M 287.298425 77.493181 
L 296.029134 77.493181 
L 296.029134 74.115731 
L 287.298425 74.115731 
L 287.298425 77.493181 
" clip-path="url(#p0ed3ecc97e)" style="fill: #60ca60; fill-opacity: 0.7"/>
    <path d="M 287.298425 74.115731 
L 296.029134 74.115731 
L 296.029134 70.738281 
L 287.298425 70.738281 
L 287.298425 74.115731 
" clip-path="url(#p0ed3ecc97e)" style="fill: #6ccd5a; fill-opacity: 0.7"/>
    <path d="M 287.298425 70.738281 
L 296.029134 70.738281 
L 296.029134 67.360831 
L 287.298425 67.360831 
L 287.298425 70.738281 
" clip-path="url(#p0ed3ecc97e)" style="fill: #7ad151; fill-opacity: 0.7"/>
    <path d="M 287.298425 67.360831 
L 296.029134 67.360831 
L 296.029134 63.983381 
L 287.298425 63.983381 
L 287.298425 67.360831 
" clip-path="url(#p0ed3ecc97e)" style="fill: #86d549; fill-opacity: 0.7"/>
    <path d="M 287.298425 63.983381 
L 296.029134 63.983381 
L 296.029134 60.605931 
L 287.298425 60.605931 
L 287.298425 63.983381 
" clip-path="url(#p0ed3ecc97e)" style="fill: #95d840; fill-opacity: 0.7"/>
    <path d="M 287.298425 60.605931 
L 296.029134 60.605931 
L 296.029134 57.22848 
L 287.298425 57.22848 
L 287.298425 60.605931 
" clip-path="url(#p0ed3ecc97e)" style="fill: #a2da37; fill-opacity: 0.7"/>
    <path d="M 287.298425 57.22848 
L 296.029134 57.22848 
L 296.029134 53.85103 
L 287.298425 53.85103 
L 287.298425 57.22848 
" clip-path="url(#p0ed3ecc97e)" style="fill: #b2dd2d; fill-opacity: 0.7"/>
    <path d="M 287.298425 53.85103 
L 296.029134 53.85103 
L 296.029134 50.47358 
L 287.298425 50.47358 
L 287.298425 53.85103 
" clip-path="url(#p0ed3ecc97e)" style="fill: #c0df25; fill-opacity: 0.7"/>
    <path d="M 287.298425 50.47358 
L 296.029134 50.47358 
L 296.029134 47.09613 
L 287.298425 47.09613 
L 287.298425 50.47358 
" clip-path="url(#p0ed3ecc97e)" style="fill: #cde11d; fill-opacity: 0.7"/>
    <path d="M 287.298425 47.09613 
L 296.029134 47.09613 
L 296.029134 43.71868 
L 287.298425 43.71868 
L 287.298425 47.09613 
" clip-path="url(#p0ed3ecc97e)" style="fill: #dde318; fill-opacity: 0.7"/>
    <path d="M 287.298425 43.71868 
L 296.029134 43.71868 
L 296.029134 40.34123 
L 287.298425 40.34123 
L 287.298425 43.71868 
" clip-path="url(#p0ed3ecc97e)" style="fill: #eae51a; fill-opacity: 0.7"/>
    <path d="M 287.298425 40.34123 
L 296.029134 40.34123 
L 296.029134 36.96378 
L 287.298425 36.96378 
L 287.298425 40.34123 
" clip-path="url(#p0ed3ecc97e)" style="fill: #f8e621; fill-opacity: 0.7"/>
   </g>
   <g id="matplotlib.axis_3"/>
   <g id="matplotlib.axis_4">
    <g id="ytick_1">
     <g id="line2d_18">
      <defs>
       <path id="m2189afe097" d="M 0 0 
L -2 0 
" style="stroke: #000000; stroke-width: 0.3"/>
      </defs>
      <g>
       <use xlink:href="#m2189afe097" x="296.029134" y="188.949037" style="stroke: #000000; stroke-width: 0.3"/>
      </g>
     </g>
     <g id="text_12">
      <!-- −0.276 -->
      <g transform="translate(299.529134 191.812162) scale(0.08 -0.08)">
       <defs>
        <path id="ArialMT-2212" d="M 3381 1997 
L 356 1997 
L 356 2522 
L 3381 2522 
L 3381 1997 
z
" transform="scale(0.015625)"/>
        <path id="ArialMT-30" d="M 266 2259 
Q 266 3072 433 3567 
Q 600 4063 929 4331 
Q 1259 4600 1759 4600 
Q 2128 4600 2406 4451 
Q 2684 4303 2865 4023 
Q 3047 3744 3150 3342 
Q 3253 2941 3253 2259 
Q 3253 1453 3087 958 
Q 2922 463 2592 192 
Q 2263 -78 1759 -78 
Q 1097 -78 719 397 
Q 266 969 266 2259 
z
M 844 2259 
Q 844 1131 1108 757 
Q 1372 384 1759 384 
Q 2147 384 2411 759 
Q 2675 1134 2675 2259 
Q 2675 3391 2411 3762 
Q 2147 4134 1753 4134 
Q 1366 4134 1134 3806 
Q 844 3388 844 2259 
z
" transform="scale(0.015625)"/>
        <path id="ArialMT-2e" d="M 581 0 
L 581 641 
L 1222 641 
L 1222 0 
L 581 0 
z
" transform="scale(0.015625)"/>
        <path id="ArialMT-32" d="M 3222 541 
L 3222 0 
L 194 0 
Q 188 203 259 391 
Q 375 700 629 1000 
Q 884 1300 1366 1694 
Q 2113 2306 2375 2664 
Q 2638 3022 2638 3341 
Q 2638 3675 2398 3904 
Q 2159 4134 1775 4134 
Q 1369 4134 1125 3890 
Q 881 3647 878 3216 
L 300 3275 
Q 359 3922 746 4261 
Q 1134 4600 1788 4600 
Q 2447 4600 2831 4234 
Q 3216 3869 3216 3328 
Q 3216 3053 3103 2787 
Q 2991 2522 2730 2228 
Q 2469 1934 1863 1422 
Q 1356 997 1212 845 
Q 1069 694 975 541 
L 3222 541 
z
" transform="scale(0.015625)"/>
        <path id="ArialMT-37" d="M 303 3981 
L 303 4522 
L 3269 4522 
L 3269 4084 
Q 2831 3619 2401 2847 
Q 1972 2075 1738 1259 
Q 1569 684 1522 0 
L 944 0 
Q 953 541 1156 1306 
Q 1359 2072 1739 2783 
Q 2119 3494 2547 3981 
L 303 3981 
z
" transform="scale(0.015625)"/>
        <path id="ArialMT-36" d="M 3184 3459 
L 2625 3416 
Q 2550 3747 2413 3897 
Q 2184 4138 1850 4138 
Q 1581 4138 1378 3988 
Q 1113 3794 959 3422 
Q 806 3050 800 2363 
Q 1003 2672 1297 2822 
Q 1591 2972 1913 2972 
Q 2475 2972 2870 2558 
Q 3266 2144 3266 1488 
Q 3266 1056 3080 686 
Q 2894 316 2569 119 
Q 2244 -78 1831 -78 
Q 1128 -78 684 439 
Q 241 956 241 2144 
Q 241 3472 731 4075 
Q 1159 4600 1884 4600 
Q 2425 4600 2770 4297 
Q 3116 3994 3184 3459 
z
M 888 1484 
Q 888 1194 1011 928 
Q 1134 663 1356 523 
Q 1578 384 1822 384 
Q 2178 384 2434 671 
Q 2691 959 2691 1453 
Q 2691 1928 2437 2201 
Q 2184 2475 1800 2475 
Q 1419 2475 1153 2201 
Q 888 1928 888 1484 
z
" transform="scale(0.015625)"/>
       </defs>
       <use xlink:href="#ArialMT-2212"/>
       <use xlink:href="#ArialMT-30" transform="translate(58.398438 0)"/>
       <use xlink:href="#ArialMT-2e" transform="translate(114.013672 0)"/>
       <use xlink:href="#ArialMT-32" transform="translate(141.796875 0)"/>
       <use xlink:href="#ArialMT-37" transform="translate(197.412109 0)"/>
       <use xlink:href="#ArialMT-36" transform="translate(253.027344 0)"/>
      </g>
     </g>
    </g>
    <g id="ytick_2">
     <g id="line2d_19">
      <g>
       <use xlink:href="#m2189afe097" x="296.029134" y="172.061786" style="stroke: #000000; stroke-width: 0.3"/>
      </g>
     </g>
     <g id="text_13">
      <!-- −0.246 -->
      <g transform="translate(299.529134 174.924911) scale(0.08 -0.08)">
       <defs>
        <path id="ArialMT-34" d="M 2069 0 
L 2069 1097 
L 81 1097 
L 81 1613 
L 2172 4581 
L 2631 4581 
L 2631 1613 
L 3250 1613 
L 3250 1097 
L 2631 1097 
L 2631 0 
L 2069 0 
z
M 2069 1613 
L 2069 3678 
L 634 1613 
L 2069 1613 
z
" transform="scale(0.015625)"/>
       </defs>
       <use xlink:href="#ArialMT-2212"/>
       <use xlink:href="#ArialMT-30" transform="translate(58.398438 0)"/>
       <use xlink:href="#ArialMT-2e" transform="translate(114.013672 0)"/>
       <use xlink:href="#ArialMT-32" transform="translate(141.796875 0)"/>
       <use xlink:href="#ArialMT-34" transform="translate(197.412109 0)"/>
       <use xlink:href="#ArialMT-36" transform="translate(253.027344 0)"/>
      </g>
     </g>
    </g>
    <g id="ytick_3">
     <g id="line2d_20">
      <g>
       <use xlink:href="#m2189afe097" x="296.029134" y="155.174535" style="stroke: #000000; stroke-width: 0.3"/>
      </g>
     </g>
     <g id="text_14">
      <!-- −0.216 -->
      <g transform="translate(299.529134 158.03766) scale(0.08 -0.08)">
       <defs>
        <path id="ArialMT-31" d="M 2384 0 
L 1822 0 
L 1822 3584 
Q 1619 3391 1289 3197 
Q 959 3003 697 2906 
L 697 3450 
Q 1169 3672 1522 3987 
Q 1875 4303 2022 4600 
L 2384 4600 
L 2384 0 
z
" transform="scale(0.015625)"/>
       </defs>
       <use xlink:href="#ArialMT-2212"/>
       <use xlink:href="#ArialMT-30" transform="translate(58.398438 0)"/>
       <use xlink:href="#ArialMT-2e" transform="translate(114.013672 0)"/>
       <use xlink:href="#ArialMT-32" transform="translate(141.796875 0)"/>
       <use xlink:href="#ArialMT-31" transform="translate(197.412109 0)"/>
       <use xlink:href="#ArialMT-36" transform="translate(253.027344 0)"/>
      </g>
     </g>
    </g>
    <g id="ytick_4">
     <g id="line2d_21">
      <g>
       <use xlink:href="#m2189afe097" x="296.029134" y="138.287284" style="stroke: #000000; stroke-width: 0.3"/>
      </g>
     </g>
     <g id="text_15">
      <!-- −0.186 -->
      <g transform="translate(299.529134 141.150409) scale(0.08 -0.08)">
       <defs>
        <path id="ArialMT-38" d="M 1131 2484 
Q 781 2613 612 2850 
Q 444 3088 444 3419 
Q 444 3919 803 4259 
Q 1163 4600 1759 4600 
Q 2359 4600 2725 4251 
Q 3091 3903 3091 3403 
Q 3091 3084 2923 2848 
Q 2756 2613 2416 2484 
Q 2838 2347 3058 2040 
Q 3278 1734 3278 1309 
Q 3278 722 2862 322 
Q 2447 -78 1769 -78 
Q 1091 -78 675 323 
Q 259 725 259 1325 
Q 259 1772 486 2073 
Q 713 2375 1131 2484 
z
M 1019 3438 
Q 1019 3113 1228 2906 
Q 1438 2700 1772 2700 
Q 2097 2700 2305 2904 
Q 2513 3109 2513 3406 
Q 2513 3716 2298 3927 
Q 2084 4138 1766 4138 
Q 1444 4138 1231 3931 
Q 1019 3725 1019 3438 
z
M 838 1322 
Q 838 1081 952 856 
Q 1066 631 1291 507 
Q 1516 384 1775 384 
Q 2178 384 2440 643 
Q 2703 903 2703 1303 
Q 2703 1709 2433 1975 
Q 2163 2241 1756 2241 
Q 1359 2241 1098 1978 
Q 838 1716 838 1322 
z
" transform="scale(0.015625)"/>
       </defs>
       <use xlink:href="#ArialMT-2212"/>
       <use xlink:href="#ArialMT-30" transform="translate(58.398438 0)"/>
       <use xlink:href="#ArialMT-2e" transform="translate(114.013672 0)"/>
       <use xlink:href="#ArialMT-31" transform="translate(141.796875 0)"/>
       <use xlink:href="#ArialMT-38" transform="translate(197.412109 0)"/>
       <use xlink:href="#ArialMT-36" transform="translate(253.027344 0)"/>
      </g>
     </g>
    </g>
    <g id="ytick_5">
     <g id="line2d_22">
      <g>
       <use xlink:href="#m2189afe097" x="296.029134" y="121.400034" style="stroke: #000000; stroke-width: 0.3"/>
      </g>
     </g>
     <g id="text_16">
      <!-- −0.156 -->
      <g transform="translate(299.529134 124.263159) scale(0.08 -0.08)">
       <defs>
        <path id="ArialMT-35" d="M 266 1200 
L 856 1250 
Q 922 819 1161 601 
Q 1400 384 1738 384 
Q 2144 384 2425 690 
Q 2706 997 2706 1503 
Q 2706 1984 2436 2262 
Q 2166 2541 1728 2541 
Q 1456 2541 1237 2417 
Q 1019 2294 894 2097 
L 366 2166 
L 809 4519 
L 3088 4519 
L 3088 3981 
L 1259 3981 
L 1013 2750 
Q 1425 3038 1878 3038 
Q 2478 3038 2890 2622 
Q 3303 2206 3303 1553 
Q 3303 931 2941 478 
Q 2500 -78 1738 -78 
Q 1113 -78 717 272 
Q 322 622 266 1200 
z
" transform="scale(0.015625)"/>
       </defs>
       <use xlink:href="#ArialMT-2212"/>
       <use xlink:href="#ArialMT-30" transform="translate(58.398438 0)"/>
       <use xlink:href="#ArialMT-2e" transform="translate(114.013672 0)"/>
       <use xlink:href="#ArialMT-31" transform="translate(141.796875 0)"/>
       <use xlink:href="#ArialMT-35" transform="translate(197.412109 0)"/>
       <use xlink:href="#ArialMT-36" transform="translate(253.027344 0)"/>
      </g>
     </g>
    </g>
    <g id="ytick_6">
     <g id="line2d_23">
      <g>
       <use xlink:href="#m2189afe097" x="296.029134" y="104.512783" style="stroke: #000000; stroke-width: 0.3"/>
      </g>
     </g>
     <g id="text_17">
      <!-- −0.126 -->
      <g transform="translate(299.529134 107.375908) scale(0.08 -0.08)">
       <use xlink:href="#ArialMT-2212"/>
       <use xlink:href="#ArialMT-30" transform="translate(58.398438 0)"/>
       <use xlink:href="#ArialMT-2e" transform="translate(114.013672 0)"/>
       <use xlink:href="#ArialMT-31" transform="translate(141.796875 0)"/>
       <use xlink:href="#ArialMT-32" transform="translate(197.412109 0)"/>
       <use xlink:href="#ArialMT-36" transform="translate(253.027344 0)"/>
      </g>
     </g>
    </g>
    <g id="ytick_7">
     <g id="line2d_24">
      <g>
       <use xlink:href="#m2189afe097" x="296.029134" y="87.625532" style="stroke: #000000; stroke-width: 0.3"/>
      </g>
     </g>
     <g id="text_18">
      <!-- −0.096 -->
      <g transform="translate(299.529134 90.488657) scale(0.08 -0.08)">
       <defs>
        <path id="ArialMT-39" d="M 350 1059 
L 891 1109 
Q 959 728 1153 556 
Q 1347 384 1650 384 
Q 1909 384 2104 503 
Q 2300 622 2425 820 
Q 2550 1019 2634 1356 
Q 2719 1694 2719 2044 
Q 2719 2081 2716 2156 
Q 2547 1888 2255 1720 
Q 1963 1553 1622 1553 
Q 1053 1553 659 1965 
Q 266 2378 266 3053 
Q 266 3750 677 4175 
Q 1088 4600 1706 4600 
Q 2153 4600 2523 4359 
Q 2894 4119 3086 3673 
Q 3278 3228 3278 2384 
Q 3278 1506 3087 986 
Q 2897 466 2520 194 
Q 2144 -78 1638 -78 
Q 1100 -78 759 220 
Q 419 519 350 1059 
z
M 2653 3081 
Q 2653 3566 2395 3850 
Q 2138 4134 1775 4134 
Q 1400 4134 1122 3828 
Q 844 3522 844 3034 
Q 844 2597 1108 2323 
Q 1372 2050 1759 2050 
Q 2150 2050 2401 2323 
Q 2653 2597 2653 3081 
z
" transform="scale(0.015625)"/>
       </defs>
       <use xlink:href="#ArialMT-2212"/>
       <use xlink:href="#ArialMT-30" transform="translate(58.398438 0)"/>
       <use xlink:href="#ArialMT-2e" transform="translate(114.013672 0)"/>
       <use xlink:href="#ArialMT-30" transform="translate(141.796875 0)"/>
       <use xlink:href="#ArialMT-39" transform="translate(197.412109 0)"/>
       <use xlink:href="#ArialMT-36" transform="translate(253.027344 0)"/>
      </g>
     </g>
    </g>
    <g id="ytick_8">
     <g id="line2d_25">
      <g>
       <use xlink:href="#m2189afe097" x="296.029134" y="70.738281" style="stroke: #000000; stroke-width: 0.3"/>
      </g>
     </g>
     <g id="text_19">
      <!-- −0.066 -->
      <g transform="translate(299.529134 73.601406) scale(0.08 -0.08)">
       <use xlink:href="#ArialMT-2212"/>
       <use xlink:href="#ArialMT-30" transform="translate(58.398438 0)"/>
       <use xlink:href="#ArialMT-2e" transform="translate(114.013672 0)"/>
       <use xlink:href="#ArialMT-30" transform="translate(141.796875 0)"/>
       <use xlink:href="#ArialMT-36" transform="translate(197.412109 0)"/>
       <use xlink:href="#ArialMT-36" transform="translate(253.027344 0)"/>
      </g>
     </g>
    </g>
    <g id="ytick_9">
     <g id="line2d_26">
      <g>
       <use xlink:href="#m2189afe097" x="296.029134" y="53.85103" style="stroke: #000000; stroke-width: 0.3"/>
      </g>
     </g>
     <g id="text_20">
      <!-- −0.036 -->
      <g transform="translate(299.529134 56.714155) scale(0.08 -0.08)">
       <defs>
        <path id="ArialMT-33" d="M 269 1209 
L 831 1284 
Q 928 806 1161 595 
Q 1394 384 1728 384 
Q 2125 384 2398 659 
Q 2672 934 2672 1341 
Q 2672 1728 2419 1979 
Q 2166 2231 1775 2231 
Q 1616 2231 1378 2169 
L 1441 2663 
Q 1497 2656 1531 2656 
Q 1891 2656 2178 2843 
Q 2466 3031 2466 3422 
Q 2466 3731 2256 3934 
Q 2047 4138 1716 4138 
Q 1388 4138 1169 3931 
Q 950 3725 888 3313 
L 325 3413 
Q 428 3978 793 4289 
Q 1159 4600 1703 4600 
Q 2078 4600 2393 4439 
Q 2709 4278 2876 4000 
Q 3044 3722 3044 3409 
Q 3044 3113 2884 2869 
Q 2725 2625 2413 2481 
Q 2819 2388 3044 2092 
Q 3269 1797 3269 1353 
Q 3269 753 2831 336 
Q 2394 -81 1725 -81 
Q 1122 -81 723 278 
Q 325 638 269 1209 
z
" transform="scale(0.015625)"/>
       </defs>
       <use xlink:href="#ArialMT-2212"/>
       <use xlink:href="#ArialMT-30" transform="translate(58.398438 0)"/>
       <use xlink:href="#ArialMT-2e" transform="translate(114.013672 0)"/>
       <use xlink:href="#ArialMT-30" transform="translate(141.796875 0)"/>
       <use xlink:href="#ArialMT-33" transform="translate(197.412109 0)"/>
       <use xlink:href="#ArialMT-36" transform="translate(253.027344 0)"/>
      </g>
     </g>
    </g>
    <g id="ytick_10">
     <g id="line2d_27">
      <g>
       <use xlink:href="#m2189afe097" x="296.029134" y="36.96378" style="stroke: #000000; stroke-width: 0.3"/>
      </g>
     </g>
     <g id="text_21">
      <!-- −0.006 -->
      <g transform="translate(299.529134 39.826905) scale(0.08 -0.08)">
       <use xlink:href="#ArialMT-2212"/>
       <use xlink:href="#ArialMT-30" transform="translate(58.398438 0)"/>
       <use xlink:href="#ArialMT-2e" transform="translate(114.013672 0)"/>
       <use xlink:href="#ArialMT-30" transform="translate(141.796875 0)"/>
       <use xlink:href="#ArialMT-30" transform="translate(197.412109 0)"/>
       <use xlink:href="#ArialMT-36" transform="translate(253.027344 0)"/>
      </g>
     </g>
    </g>
    <g id="text_22">
     <!-- Formation Energy (eV/atom) -->
     <g transform="translate(335.498821 179.408077) rotate(-90) scale(0.1 -0.1)">
      <defs>
       <path id="ArialMT-46" d="M 525 0 
L 525 4581 
L 3616 4581 
L 3616 4041 
L 1131 4041 
L 1131 2622 
L 3281 2622 
L 3281 2081 
L 1131 2081 
L 1131 0 
L 525 0 
z
" transform="scale(0.015625)"/>
       <path id="ArialMT-6f" d="M 213 1659 
Q 213 2581 725 3025 
Q 1153 3394 1769 3394 
Q 2453 3394 2887 2945 
Q 3322 2497 3322 1706 
Q 3322 1066 3130 698 
Q 2938 331 2570 128 
Q 2203 -75 1769 -75 
Q 1072 -75 642 372 
Q 213 819 213 1659 
z
M 791 1659 
Q 791 1022 1069 705 
Q 1347 388 1769 388 
Q 2188 388 2466 706 
Q 2744 1025 2744 1678 
Q 2744 2294 2464 2611 
Q 2184 2928 1769 2928 
Q 1347 2928 1069 2612 
Q 791 2297 791 1659 
z
" transform="scale(0.015625)"/>
       <path id="ArialMT-72" d="M 416 0 
L 416 3319 
L 922 3319 
L 922 2816 
Q 1116 3169 1280 3281 
Q 1444 3394 1641 3394 
Q 1925 3394 2219 3213 
L 2025 2691 
Q 1819 2813 1613 2813 
Q 1428 2813 1281 2702 
Q 1134 2591 1072 2394 
Q 978 2094 978 1738 
L 978 0 
L 416 0 
z
" transform="scale(0.015625)"/>
       <path id="ArialMT-6d" d="M 422 0 
L 422 3319 
L 925 3319 
L 925 2853 
Q 1081 3097 1340 3245 
Q 1600 3394 1931 3394 
Q 2300 3394 2536 3241 
Q 2772 3088 2869 2813 
Q 3263 3394 3894 3394 
Q 4388 3394 4653 3120 
Q 4919 2847 4919 2278 
L 4919 0 
L 4359 0 
L 4359 2091 
Q 4359 2428 4304 2576 
Q 4250 2725 4106 2815 
Q 3963 2906 3769 2906 
Q 3419 2906 3187 2673 
Q 2956 2441 2956 1928 
L 2956 0 
L 2394 0 
L 2394 2156 
Q 2394 2531 2256 2718 
Q 2119 2906 1806 2906 
Q 1569 2906 1367 2781 
Q 1166 2656 1075 2415 
Q 984 2175 984 1722 
L 984 0 
L 422 0 
z
" transform="scale(0.015625)"/>
       <path id="ArialMT-61" d="M 2588 409 
Q 2275 144 1986 34 
Q 1697 -75 1366 -75 
Q 819 -75 525 192 
Q 231 459 231 875 
Q 231 1119 342 1320 
Q 453 1522 633 1644 
Q 813 1766 1038 1828 
Q 1203 1872 1538 1913 
Q 2219 1994 2541 2106 
Q 2544 2222 2544 2253 
Q 2544 2597 2384 2738 
Q 2169 2928 1744 2928 
Q 1347 2928 1158 2789 
Q 969 2650 878 2297 
L 328 2372 
Q 403 2725 575 2942 
Q 747 3159 1072 3276 
Q 1397 3394 1825 3394 
Q 2250 3394 2515 3294 
Q 2781 3194 2906 3042 
Q 3031 2891 3081 2659 
Q 3109 2516 3109 2141 
L 3109 1391 
Q 3109 606 3145 398 
Q 3181 191 3288 0 
L 2700 0 
Q 2613 175 2588 409 
z
M 2541 1666 
Q 2234 1541 1622 1453 
Q 1275 1403 1131 1340 
Q 988 1278 909 1158 
Q 831 1038 831 891 
Q 831 666 1001 516 
Q 1172 366 1500 366 
Q 1825 366 2078 508 
Q 2331 650 2450 897 
Q 2541 1088 2541 1459 
L 2541 1666 
z
" transform="scale(0.015625)"/>
       <path id="ArialMT-74" d="M 1650 503 
L 1731 6 
Q 1494 -44 1306 -44 
Q 1000 -44 831 53 
Q 663 150 594 308 
Q 525 466 525 972 
L 525 2881 
L 113 2881 
L 113 3319 
L 525 3319 
L 525 4141 
L 1084 4478 
L 1084 3319 
L 1650 3319 
L 1650 2881 
L 1084 2881 
L 1084 941 
Q 1084 700 1114 631 
Q 1144 563 1211 522 
Q 1278 481 1403 481 
Q 1497 481 1650 503 
z
" transform="scale(0.015625)"/>
       <path id="ArialMT-69" d="M 425 3934 
L 425 4581 
L 988 4581 
L 988 3934 
L 425 3934 
z
M 425 0 
L 425 3319 
L 988 3319 
L 988 0 
L 425 0 
z
" transform="scale(0.015625)"/>
       <path id="ArialMT-6e" d="M 422 0 
L 422 3319 
L 928 3319 
L 928 2847 
Q 1294 3394 1984 3394 
Q 2284 3394 2536 3286 
Q 2788 3178 2913 3003 
Q 3038 2828 3088 2588 
Q 3119 2431 3119 2041 
L 3119 0 
L 2556 0 
L 2556 2019 
Q 2556 2363 2490 2533 
Q 2425 2703 2258 2804 
Q 2091 2906 1866 2906 
Q 1506 2906 1245 2678 
Q 984 2450 984 1813 
L 984 0 
L 422 0 
z
" transform="scale(0.015625)"/>
       <path id="ArialMT-20" transform="scale(0.015625)"/>
       <path id="ArialMT-45" d="M 506 0 
L 506 4581 
L 3819 4581 
L 3819 4041 
L 1113 4041 
L 1113 2638 
L 3647 2638 
L 3647 2100 
L 1113 2100 
L 1113 541 
L 3925 541 
L 3925 0 
L 506 0 
z
" transform="scale(0.015625)"/>
       <path id="ArialMT-65" d="M 2694 1069 
L 3275 997 
Q 3138 488 2766 206 
Q 2394 -75 1816 -75 
Q 1088 -75 661 373 
Q 234 822 234 1631 
Q 234 2469 665 2931 
Q 1097 3394 1784 3394 
Q 2450 3394 2872 2941 
Q 3294 2488 3294 1666 
Q 3294 1616 3291 1516 
L 816 1516 
Q 847 969 1125 678 
Q 1403 388 1819 388 
Q 2128 388 2347 550 
Q 2566 713 2694 1069 
z
M 847 1978 
L 2700 1978 
Q 2663 2397 2488 2606 
Q 2219 2931 1791 2931 
Q 1403 2931 1139 2672 
Q 875 2413 847 1978 
z
" transform="scale(0.015625)"/>
       <path id="ArialMT-67" d="M 319 -275 
L 866 -356 
Q 900 -609 1056 -725 
Q 1266 -881 1628 -881 
Q 2019 -881 2231 -725 
Q 2444 -569 2519 -288 
Q 2563 -116 2559 434 
Q 2191 0 1641 0 
Q 956 0 581 494 
Q 206 988 206 1678 
Q 206 2153 378 2554 
Q 550 2956 876 3175 
Q 1203 3394 1644 3394 
Q 2231 3394 2613 2919 
L 2613 3319 
L 3131 3319 
L 3131 450 
Q 3131 -325 2973 -648 
Q 2816 -972 2473 -1159 
Q 2131 -1347 1631 -1347 
Q 1038 -1347 672 -1080 
Q 306 -813 319 -275 
z
M 784 1719 
Q 784 1066 1043 766 
Q 1303 466 1694 466 
Q 2081 466 2343 764 
Q 2606 1063 2606 1700 
Q 2606 2309 2336 2618 
Q 2066 2928 1684 2928 
Q 1309 2928 1046 2623 
Q 784 2319 784 1719 
z
" transform="scale(0.015625)"/>
       <path id="ArialMT-79" d="M 397 -1278 
L 334 -750 
Q 519 -800 656 -800 
Q 844 -800 956 -737 
Q 1069 -675 1141 -563 
Q 1194 -478 1313 -144 
Q 1328 -97 1363 -6 
L 103 3319 
L 709 3319 
L 1400 1397 
Q 1534 1031 1641 628 
Q 1738 1016 1872 1384 
L 2581 3319 
L 3144 3319 
L 1881 -56 
Q 1678 -603 1566 -809 
Q 1416 -1088 1222 -1217 
Q 1028 -1347 759 -1347 
Q 597 -1347 397 -1278 
z
" transform="scale(0.015625)"/>
       <path id="ArialMT-28" d="M 1497 -1347 
Q 1031 -759 709 28 
Q 388 816 388 1659 
Q 388 2403 628 3084 
Q 909 3875 1497 4659 
L 1900 4659 
Q 1522 4009 1400 3731 
Q 1209 3300 1100 2831 
Q 966 2247 966 1656 
Q 966 153 1900 -1347 
L 1497 -1347 
z
" transform="scale(0.015625)"/>
       <path id="ArialMT-56" d="M 1803 0 
L 28 4581 
L 684 4581 
L 1875 1253 
Q 2019 853 2116 503 
Q 2222 878 2363 1253 
L 3600 4581 
L 4219 4581 
L 2425 0 
L 1803 0 
z
" transform="scale(0.015625)"/>
       <path id="ArialMT-2f" d="M 0 -78 
L 1328 4659 
L 1778 4659 
L 453 -78 
L 0 -78 
z
" transform="scale(0.015625)"/>
       <path id="ArialMT-29" d="M 791 -1347 
L 388 -1347 
Q 1322 153 1322 1656 
Q 1322 2244 1188 2822 
Q 1081 3291 891 3722 
Q 769 4003 388 4659 
L 791 4659 
Q 1378 3875 1659 3084 
Q 1900 2403 1900 1659 
Q 1900 816 1576 28 
Q 1253 -759 791 -1347 
z
" transform="scale(0.015625)"/>
      </defs>
      <use xlink:href="#ArialMT-46"/>
      <use xlink:href="#ArialMT-6f" transform="translate(61.083984 0)"/>
      <use xlink:href="#ArialMT-72" transform="translate(116.699219 0)"/>
      <use xlink:href="#ArialMT-6d" transform="translate(150 0)"/>
      <use xlink:href="#ArialMT-61" transform="translate(233.300781 0)"/>
      <use xlink:href="#ArialMT-74" transform="translate(288.916016 0)"/>
      <use xlink:href="#ArialMT-69" transform="translate(316.699219 0)"/>
      <use xlink:href="#ArialMT-6f" transform="translate(338.916016 0)"/>
      <use xlink:href="#ArialMT-6e" transform="translate(394.53125 0)"/>
      <use xlink:href="#ArialMT-20" transform="translate(450.146484 0)"/>
      <use xlink:href="#ArialMT-45" transform="translate(477.929688 0)"/>
      <use xlink:href="#ArialMT-6e" transform="translate(544.628906 0)"/>
      <use xlink:href="#ArialMT-65" transform="translate(600.244141 0)"/>
      <use xlink:href="#ArialMT-72" transform="translate(655.859375 0)"/>
      <use xlink:href="#ArialMT-67" transform="translate(689.160156 0)"/>
      <use xlink:href="#ArialMT-79" transform="translate(744.775391 0)"/>
      <use xlink:href="#ArialMT-20" transform="translate(794.775391 0)"/>
      <use xlink:href="#ArialMT-28" transform="translate(822.558594 0)"/>
      <use xlink:href="#ArialMT-65" transform="translate(855.859375 0)"/>
      <use xlink:href="#ArialMT-56" transform="translate(911.474609 0)"/>
      <use xlink:href="#ArialMT-2f" transform="translate(978.173828 0)"/>
      <use xlink:href="#ArialMT-61" transform="translate(1005.957031 0)"/>
      <use xlink:href="#ArialMT-74" transform="translate(1061.572266 0)"/>
      <use xlink:href="#ArialMT-6f" transform="translate(1089.355469 0)"/>
      <use xlink:href="#ArialMT-6d" transform="translate(1144.970703 0)"/>
      <use xlink:href="#ArialMT-29" transform="translate(1228.271484 0)"/>
     </g>
    </g>
   </g>
   <g id="LineCollection_1"/>
   <g id="patch_6">
    <path d="M 287.298425 195.703937 
L 291.66378 203.640945 
L 296.029134 195.703937 
L 296.029134 36.96378 
L 291.66378 29.026772 
L 287.298425 36.96378 
L 287.298425 195.703937 
z
" style="fill: none; stroke: #000000; stroke-width: 0.8; stroke-linejoin: miter; stroke-linecap: square"/>
   </g>
  </g>
 </g>
 <defs>
  <clipPath id="p00405cc881">
   <rect x="7.2" y="7.2" width="263.622047" height="218.267717"/>
  </clipPath>
  <clipPath id="p0ed3ecc97e">
   <rect x="287.298425" y="36.96378" width="8.730709" height="158.740157"/>
  </clipPath>
 </defs>
</svg>
