<?xml version="1.0" encoding="utf-8" standalone="no"?>
<!DOCTYPE svg PUBLIC "-//W3C//DTD SVG 1.1//EN"
  "http://www.w3.org/Graphics/SVG/1.1/DTD/svg11.dtd">
<svg xmlns:xlink="http://www.w3.org/1999/xlink" width="344.803509pt" height="232.667717pt" viewBox="0 0 344.803509 232.667717" xmlns="http://www.w3.org/2000/svg" version="1.1">
 <metadata>
  <rdf:RDF xmlns:dc="http://purl.org/dc/elements/1.1/" xmlns:cc="http://creativecommons.org/ns#" xmlns:rdf="http://www.w3.org/1999/02/22-rdf-syntax-ns#">
   <cc:Work>
    <dc:type rdf:resource="http://purl.org/dc/dcmitype/StillImage"/>
    <dc:date>2026-01-27T21:37:07.221154</dc:date>
    <dc:format>image/svg+xml</dc:format>
    <dc:creator>
     <cc:Agent>
      <dc:title>Matplotlib v3.10.8, https://matplotlib.org/</dc:title>
     </cc:Agent>
    </dc:creator>
   </cc:Work>
  </rdf:RDF>
 </metadata>
 <defs>
  <style type="text/css">*{stroke-linejoin: round; stroke-linecap: butt}</style>
 </defs>
 <g id="figure_1">
  <g id="patch_1">
   <path d="M 0 232.667717 
L 344.803509 232.667717 
L 344.803509 0 
L 0 0 
L 0 232.667717 
z
" style="fill: none"/>
  </g>
  <g id="axes_1">
   <g id="patch_2">
    <path d="M 7.2 225.467717 
L 270.822047 225.467717 
L 270.822047 7.2 
L 7.2 7.2 
L 7.2 225.467717 
z
" style="fill: none"/>
   </g>
   <g id="TriContourSet_1">
    <path d="M 180.090905 214.554331 
L 180.517795 210.8535 
L 179.848942 182.079263 
L 178.887707 180.914133 
L 178.767418 180.992482 
L 178.197192 181.45882 
L 177.546553 182.16217 
L 177.514706 182.671756 
L 176.390985 213.206765 
L 176.444005 214.554331 
L 178.953758 214.554331 
z
" clip-path="url(#pf0bed641fb)" style="fill: #440154; fill-opacity: 0.7"/>
    <path d="M 176.444005 214.554331 
L 176.390985 213.206765 
L 177.514706 182.671756 
L 177.546553 182.16217 
L 178.197192 181.45882 
L 178.767418 180.992482 
L 178.887707 180.914133 
L 179.848942 182.079263 
L 180.517795 210.8535 
L 180.090905 214.554331 
L 182.011595 214.554331 
L 183.159521 204.602633 
L 182.567438 179.131025 
L 178.687123 174.427628 
L 178.201541 174.743905 
L 175.899653 176.626421 
L 173.273149 179.465703 
L 173.14459 181.522801 
L 172.062349 210.930667 
L 172.20492 214.554331 
z
" clip-path="url(#pf0bed641fb)" style="fill: #450559; fill-opacity: 0.7"/>
    <path d="M 172.20492 214.554331 
L 172.062349 210.930667 
L 173.14459 181.522801 
L 173.273149 179.465703 
L 175.899653 176.626421 
L 178.201541 174.743905 
L 178.687123 174.427628 
L 182.567438 179.131025 
L 183.159521 204.602633 
L 182.011595 214.554331 
L 183.932286 214.554331 
L 185.801248 198.351766 
L 185.285934 176.182788 
L 178.486539 167.941122 
L 177.635664 168.495329 
L 173.602114 171.794022 
L 168.999745 176.769237 
L 168.774474 180.373847 
L 167.733713 208.65457 
L 167.965836 214.554331 
z
" clip-path="url(#pf0bed641fb)" style="fill: #470e61; fill-opacity: 0.7"/>
    <path d="M 167.965836 214.554331 
L 167.733713 208.65457 
L 168.774474 180.373847 
L 168.999745 176.769237 
L 173.602114 171.794022 
L 177.635664 168.495329 
L 178.486539 167.941122 
L 185.285934 176.182788 
L 185.801248 198.351766 
L 183.932286 214.554331 
L 185.852977 214.554331 
L 188.442975 192.100899 
L 188.00443 173.23455 
L 178.285956 161.454616 
L 177.069788 162.246752 
L 171.304574 166.961623 
L 164.726342 174.072771 
L 164.404357 179.224893 
L 163.405077 206.378472 
L 163.726752 214.554331 
z
" clip-path="url(#pf0bed641fb)" style="fill: #481769; fill-opacity: 0.7"/>
    <path d="M 163.726752 214.554331 
L 163.405077 206.378472 
L 164.404357 179.224893 
L 164.726342 174.072771 
L 171.304574 166.961623 
L 177.069788 162.246752 
L 178.285956 161.454616 
L 188.00443 173.23455 
L 188.442975 192.100899 
L 185.852977 214.554331 
L 187.773668 214.554331 
L 191.084702 185.850033 
L 190.722925 170.286313 
L 178.085372 154.968111 
L 176.503911 155.998176 
L 169.007035 162.129224 
L 160.452938 171.376305 
L 160.034241 178.075938 
L 159.076441 204.102374 
L 159.487668 214.554331 
z
" clip-path="url(#pf0bed641fb)" style="fill: #482071; fill-opacity: 0.7"/>
    <path d="M 159.487668 214.554331 
L 159.076441 204.102374 
L 160.034241 178.075938 
L 160.452938 171.376305 
L 169.007035 162.129224 
L 176.503911 155.998176 
L 178.085372 154.968111 
L 190.722925 170.286313 
L 191.084702 185.850033 
L 187.773668 214.554331 
L 189.694359 214.554331 
L 193.726428 179.599166 
L 193.441421 167.338076 
L 177.884788 148.481605 
L 175.938034 149.7496 
L 166.709496 157.296826 
L 156.179535 168.679838 
L 155.664125 176.926984 
L 154.747805 201.826277 
L 155.248583 214.554331 
z
" clip-path="url(#pf0bed641fb)" style="fill: #482878; fill-opacity: 0.7"/>
    <path d="M 155.248583 214.554331 
L 154.747805 201.826277 
L 155.664125 176.926984 
L 156.179535 168.679838 
L 166.709496 157.296826 
L 175.938034 149.7496 
L 177.884788 148.481605 
L 193.441421 167.338076 
L 193.726428 179.599166 
L 189.694359 214.554331 
L 191.615049 214.554331 
L 196.368155 173.348299 
L 196.159917 164.389838 
L 177.684204 141.9951 
L 175.372157 143.501023 
L 164.411957 152.464427 
L 151.906131 165.983372 
L 151.294009 175.778029 
L 150.419169 199.550179 
L 151.009499 214.554331 
z
" clip-path="url(#pf0bed641fb)" style="fill: #46307e; fill-opacity: 0.7"/>
    <path d="M 151.009499 214.554331 
L 150.419169 199.550179 
L 151.294009 175.778029 
L 151.906131 165.983372 
L 164.411957 152.464427 
L 175.372157 143.501023 
L 177.684204 141.9951 
L 196.159917 164.389838 
L 196.368155 173.348299 
L 191.615049 214.554331 
L 193.53574 214.554331 
L 199.009882 167.097432 
L 198.878413 161.441601 
L 177.48362 135.508594 
L 174.80628 137.252447 
L 162.114417 147.632028 
L 147.632727 163.286906 
L 146.923893 174.629075 
L 146.090533 197.274081 
L 146.770415 214.554331 
z
" clip-path="url(#pf0bed641fb)" style="fill: #453882; fill-opacity: 0.7"/>
    <path d="M 146.770415 214.554331 
L 146.090533 197.274081 
L 146.923893 174.629075 
L 147.632727 163.286906 
L 162.114417 147.632028 
L 174.80628 137.252447 
L 177.48362 135.508594 
L 198.878413 161.441601 
L 199.009882 167.097432 
L 193.53574 214.554331 
L 195.456431 214.554331 
L 201.651609 160.846566 
L 201.596909 158.493363 
L 177.283037 129.022089 
L 174.240403 131.00387 
L 159.816878 142.799629 
L 143.359324 160.59044 
L 142.553777 173.48012 
L 141.761897 194.997983 
L 142.531331 214.554331 
z
" clip-path="url(#pf0bed641fb)" style="fill: #424086; fill-opacity: 0.7"/>
    <path d="M 142.531331 214.554331 
L 141.761897 194.997983 
L 142.553777 173.48012 
L 143.359324 160.59044 
L 159.816878 142.799629 
L 174.240403 131.00387 
L 177.283037 129.022089 
L 201.596909 158.493363 
L 201.651609 160.846566 
L 195.456431 214.554331 
L 197.377122 214.554331 
L 204.026321 156.910523 
L 203.974254 156.253745 
L 203.29769 154.529581 
L 202.267267 153.062542 
L 177.082453 122.535583 
L 173.674526 124.755294 
L 157.519339 137.96723 
L 139.08592 157.893973 
L 138.183661 172.331166 
L 137.433261 192.721886 
L 138.292246 214.554331 
z
" clip-path="url(#pf0bed641fb)" style="fill: #3f4788; fill-opacity: 0.7"/>
    <path d="M 138.292246 214.554331 
L 137.433261 192.721886 
L 138.183661 172.331166 
L 139.08592 157.893973 
L 157.519339 137.96723 
L 173.674526 124.755294 
L 177.082453 122.535583 
L 202.267267 153.062542 
L 203.29769 154.529581 
L 203.974254 156.253745 
L 204.026321 156.910523 
L 197.377122 214.554331 
L 199.297813 214.554331 
L 205.739224 158.711892 
L 205.506041 155.770475 
L 202.476012 148.04872 
L 197.861213 141.478511 
L 176.881869 116.049077 
L 173.108649 118.506717 
L 155.221799 133.134831 
L 134.812516 155.197507 
L 133.813545 171.182211 
L 133.104625 190.445788 
L 134.053162 214.554331 
z
" clip-path="url(#pf0bed641fb)" style="fill: #3d4e8a; fill-opacity: 0.7"/>
    <path d="M 134.053162 214.554331 
L 133.104625 190.445788 
L 133.813545 171.182211 
L 134.812516 155.197507 
L 155.221799 133.134831 
L 173.108649 118.506717 
L 176.881869 116.049077 
L 197.861213 141.478511 
L 202.476012 148.04872 
L 205.506041 155.770475 
L 205.739224 158.711892 
L 199.297813 214.554331 
L 201.218503 214.554331 
L 207.452128 160.513261 
L 207.037827 155.287206 
L 201.654334 141.567859 
L 193.455158 129.89448 
L 176.681285 109.562572 
L 172.542773 112.258141 
L 152.92426 128.302432 
L 130.539113 152.501041 
L 129.443429 170.033257 
L 128.775989 188.16969 
L 129.814078 214.554331 
z
" clip-path="url(#pf0bed641fb)" style="fill: #39558c; fill-opacity: 0.7"/>
    <path d="M 129.814078 214.554331 
L 128.775989 188.16969 
L 129.443429 170.033257 
L 130.539113 152.501041 
L 152.92426 128.302432 
L 172.542773 112.258141 
L 176.681285 109.562572 
L 193.455158 129.89448 
L 201.654334 141.567859 
L 207.037827 155.287206 
L 207.452128 160.513261 
L 201.218503 214.554331 
L 203.139194 214.554331 
L 209.165031 162.31463 
L 208.569614 154.803936 
L 200.832656 135.086998 
L 189.049103 118.310449 
L 176.480701 103.076066 
L 171.976896 106.009565 
L 150.626721 123.470033 
L 126.265709 149.804574 
L 125.073313 168.884302 
L 124.447353 185.893593 
L 125.574994 214.554331 
z
" clip-path="url(#pf0bed641fb)" style="fill: #365c8d; fill-opacity: 0.7"/>
    <path d="M 125.574994 214.554331 
L 124.447353 185.893593 
L 125.073313 168.884302 
L 126.265709 149.804574 
L 150.626721 123.470033 
L 171.976896 106.009565 
L 176.480701 103.076066 
L 189.049103 118.310449 
L 200.832656 135.086998 
L 208.569614 154.803936 
L 209.165031 162.31463 
L 203.139194 214.554331 
L 205.059885 214.554331 
L 210.877934 164.115999 
L 210.101401 154.320667 
L 200.010978 128.606137 
L 184.643049 106.726417 
L 176.280118 96.589561 
L 171.411019 99.760988 
L 148.329181 118.637634 
L 121.992306 147.108108 
L 120.703197 167.735348 
L 120.118717 183.617495 
L 121.335909 214.554331 
z
" clip-path="url(#pf0bed641fb)" style="fill: #33628d; fill-opacity: 0.7"/>
    <path d="M 121.335909 214.554331 
L 120.118717 183.617495 
L 120.703197 167.735348 
L 121.992306 147.108108 
L 148.329181 118.637634 
L 171.411019 99.760988 
L 176.280118 96.589561 
L 184.643049 106.726417 
L 200.010978 128.606137 
L 210.101401 154.320667 
L 210.877934 164.115999 
L 205.059885 214.554331 
L 206.980576 214.554331 
L 212.590837 165.917368 
L 211.633187 153.837397 
L 199.1893 122.125276 
L 180.236994 95.142386 
L 176.079534 90.103055 
L 170.845142 93.512412 
L 146.031642 113.805235 
L 117.718902 144.411642 
L 116.333081 166.586394 
L 115.790081 181.341397 
L 117.096825 214.554331 
z
" clip-path="url(#pf0bed641fb)" style="fill: #30698e; fill-opacity: 0.7"/>
    <path d="M 175.847346 83.637134 
L 170.279265 87.263835 
L 143.734103 108.972836 
L 113.445498 141.715176 
L 111.962965 165.437439 
L 111.461445 179.065299 
L 112.857741 214.554331 
L 117.096825 214.554331 
L 115.790081 181.341397 
L 116.333081 166.586394 
L 117.718902 144.411642 
L 146.031642 113.805235 
L 170.845142 93.512412 
L 176.079534 90.103055 
L 180.236994 95.142386 
L 199.1893 122.125276 
L 211.633187 153.837397 
L 212.590837 165.917368 
L 206.980576 214.554331 
L 208.901266 214.554331 
L 214.303741 167.718737 
L 213.164974 153.354128 
L 201.990687 124.877469 
L 198.925125 120.041637 
L 175.88124 83.690601 
z
" clip-path="url(#pf0bed641fb)" style="fill: #2e6f8e; fill-opacity: 0.7"/>
    <path d="M 172.878425 78.953751 
L 169.713388 81.015259 
L 141.436563 104.140437 
L 109.172095 139.018709 
L 107.592849 164.288485 
L 107.132809 176.789202 
L 108.618657 214.554331 
L 112.857741 214.554331 
L 111.461445 179.065299 
L 111.962965 165.437439 
L 113.445498 141.715176 
L 143.734103 108.972836 
L 170.279265 87.263835 
L 175.847346 83.637134 
z
M 210.821957 214.554331 
L 216.016644 169.520106 
L 214.696761 152.870858 
L 206.508877 132.004777 
L 201.990687 124.877469 
L 213.164974 153.354128 
L 214.303741 167.718737 
L 208.901266 214.554331 
z
" clip-path="url(#pf0bed641fb)" style="fill: #2b758e; fill-opacity: 0.7"/>
    <path d="M 169.909504 74.270368 
L 169.147511 74.766683 
L 139.139024 99.308038 
L 104.898691 136.322243 
L 103.222733 163.13953 
L 102.804173 174.513104 
L 104.379572 214.554331 
L 108.618657 214.554331 
L 107.132809 176.789202 
L 107.592849 164.288485 
L 109.172095 139.018709 
L 141.436563 104.140437 
L 169.713388 81.015259 
L 172.878425 78.953751 
z
M 212.742648 214.554331 
L 217.729547 171.321475 
L 216.228547 152.387589 
L 211.027066 139.132085 
L 206.508877 132.004777 
L 214.696761 152.870858 
L 216.016644 169.520106 
L 210.821957 214.554331 
z
" clip-path="url(#pf0bed641fb)" style="fill: #297b8e; fill-opacity: 0.7"/>
    <path d="M 168.104252 71.422637 
L 164.923966 71.509398 
L 136.841485 94.475639 
L 100.625288 133.625777 
L 98.852617 161.990576 
L 98.475537 172.237006 
L 100.140488 214.554331 
L 104.379572 214.554331 
L 102.804173 174.513104 
L 103.222733 163.13953 
L 104.898691 136.322243 
L 139.139024 99.308038 
L 169.147511 74.766683 
L 169.909504 74.270368 
L 168.968074 72.78529 
z
M 214.663339 214.554331 
L 219.442451 173.122844 
L 217.760334 151.904319 
L 215.545255 146.259393 
L 211.027066 139.132085 
L 216.228547 152.387589 
L 217.729547 171.321475 
L 212.742648 214.554331 
z
" clip-path="url(#pf0bed641fb)" style="fill: #26828e; fill-opacity: 0.7"/>
    <path d="M 166.839329 69.427259 
L 159.002045 69.641068 
L 134.543945 89.643241 
L 96.351884 130.929311 
L 94.4825 160.841621 
L 94.146901 169.960909 
L 95.901404 214.554331 
L 100.140488 214.554331 
L 98.475537 172.237006 
L 98.852617 161.990576 
L 100.625288 133.625777 
L 136.841485 94.475639 
L 164.923966 71.509398 
L 168.104252 71.422637 
z
M 216.58403 214.554331 
L 221.155354 174.924213 
L 219.359977 152.277001 
L 218.896492 151.545868 
L 215.545255 146.259393 
L 217.760334 151.904319 
L 219.442451 173.122844 
L 214.663339 214.554331 
z
" clip-path="url(#pf0bed641fb)" style="fill: #24878e; fill-opacity: 0.7"/>
    <path d="M 165.574406 67.431881 
L 153.080125 67.772738 
L 132.246406 84.810842 
L 92.07848 128.232844 
L 90.112384 159.692667 
L 89.818265 167.684811 
L 91.66232 214.554331 
L 95.901404 214.554331 
L 94.146901 169.960909 
L 94.4825 160.841621 
L 96.351884 130.929311 
L 134.543945 89.643241 
L 159.002045 69.641068 
L 166.839329 69.427259 
z
M 218.50472 214.554331 
L 222.868257 176.725582 
L 221.154488 155.107788 
L 219.359977 152.277001 
L 221.155354 174.924213 
L 216.58403 214.554331 
z
" clip-path="url(#pf0bed641fb)" style="fill: #228d8d; fill-opacity: 0.7"/>
    <path d="M 164.309483 65.436503 
L 147.158205 65.904408 
L 129.948867 79.978443 
L 87.805077 125.536378 
L 85.742268 158.543712 
L 85.489629 165.408713 
L 87.423235 214.554331 
L 91.66232 214.554331 
L 89.818265 167.684811 
L 90.112384 159.692667 
L 92.07848 128.232844 
L 132.246406 84.810842 
L 153.080125 67.772738 
L 165.574406 67.431881 
z
M 220.425411 214.554331 
L 224.581161 178.526951 
L 222.948999 157.938576 
L 221.154488 155.107788 
L 222.868257 176.725582 
L 218.50472 214.554331 
z
" clip-path="url(#pf0bed641fb)" style="fill: #20938c; fill-opacity: 0.7"/>
    <path d="M 163.04456 63.441125 
L 141.236285 64.036077 
L 127.651327 75.146044 
L 83.531673 122.839912 
L 81.372152 157.394758 
L 81.160993 163.132615 
L 83.037229 210.82007 
L 83.458723 214.554331 
L 84.543658 214.554331 
L 87.423235 214.554331 
L 85.489629 165.408713 
L 85.742268 158.543712 
L 87.805077 125.536378 
L 129.948867 79.978443 
L 147.158205 65.904408 
L 164.309483 65.436503 
z
M 222.346102 214.554331 
L 226.294064 180.32832 
L 224.743511 160.769364 
L 222.948999 157.938576 
L 224.581161 178.526951 
L 220.425411 214.554331 
z
" clip-path="url(#pf0bed641fb)" style="fill: #1f998a; fill-opacity: 0.7"/>
    <path d="M 161.779637 61.445747 
L 135.314365 62.167747 
L 125.353788 70.313645 
L 79.25827 120.143445 
L 77.002036 156.245804 
L 76.832357 160.856518 
L 78.340026 199.176261 
L 80.07578 214.554331 
L 83.458723 214.554331 
L 83.037229 210.82007 
L 81.160993 163.132615 
L 81.372152 157.394758 
L 83.531673 122.839912 
L 127.651327 75.146044 
L 141.236285 64.036077 
L 163.04456 63.441125 
z
M 224.266793 214.554331 
L 228.006967 182.129689 
L 226.538022 163.600152 
L 224.743511 160.769364 
L 226.294064 180.32832 
L 222.346102 214.554331 
z
" clip-path="url(#pf0bed641fb)" style="fill: #1fa088; fill-opacity: 0.7"/>
    <path d="M 160.514714 59.450369 
L 129.392445 60.299417 
L 123.056249 65.481246 
L 93.277049 97.672913 
L 79.096922 120.041637 
L 74.355256 127.521473 
L 72.63192 155.096849 
L 72.503721 158.58042 
L 73.642822 187.532451 
L 76.692838 214.554331 
L 80.07578 214.554331 
L 78.340026 199.176261 
L 76.832357 160.856518 
L 77.002036 156.245804 
L 79.25827 120.143445 
L 125.353788 70.313645 
L 135.314365 62.167747 
L 161.779637 61.445747 
z
M 226.187484 214.554331 
L 229.719871 183.931058 
L 228.332534 166.430939 
L 226.538022 163.600152 
L 228.006967 182.129689 
L 224.266793 214.554331 
z
" clip-path="url(#pf0bed641fb)" style="fill: #21a585; fill-opacity: 0.7"/>
    <path d="M 159.249791 57.454991 
L 123.470525 58.431087 
L 120.758709 60.648847 
L 108.013572 74.426491 
L 93.277049 97.672913 
L 123.056249 65.481246 
L 129.392445 60.299417 
L 160.514714 59.450369 
z
M 69.427538 135.2948 
L 68.261804 153.947895 
L 68.175085 156.304322 
L 68.945619 175.888642 
L 73.309896 214.554331 
L 76.692838 214.554331 
L 73.642822 187.532451 
L 72.503721 158.58042 
L 72.63192 155.096849 
L 74.355256 127.521473 
z
M 228.108174 214.554331 
L 231.432774 185.732427 
L 230.127045 169.261727 
L 228.332534 166.430939 
L 229.719871 183.931058 
L 226.187484 214.554331 
z
" clip-path="url(#pf0bed641fb)" style="fill: #25ab82; fill-opacity: 0.7"/>
    <path d="M 157.984868 55.459613 
L 119.369355 56.513085 
L 119.039656 57.033175 
L 108.013572 74.426491 
L 120.758709 60.648847 
L 123.470525 58.431087 
L 159.249791 57.454991 
z
M 64.49982 143.068127 
L 63.891688 152.79894 
L 63.846449 154.028225 
L 64.248416 164.244832 
L 69.926954 214.554331 
L 73.309896 214.554331 
L 68.945619 175.888642 
L 68.175085 156.304322 
L 68.261804 153.947895 
L 69.427538 135.2948 
z
M 230.028865 214.554331 
L 233.145677 187.533796 
L 231.921556 172.092515 
L 230.127045 169.261727 
L 231.432774 185.732427 
L 228.108174 214.554331 
z
" clip-path="url(#pf0bed641fb)" style="fill: #2cb17e; fill-opacity: 0.7"/>
    <path d="M 156.719945 53.464235 
L 120.6788 54.447475 
L 119.369355 56.513085 
L 157.984868 55.459613 
z
M 59.572101 150.841454 
L 59.521572 151.649986 
L 59.517813 151.752127 
L 59.551212 152.601023 
L 66.544011 214.554331 
L 69.926954 214.554331 
L 64.248416 164.244832 
L 63.846449 154.028225 
L 63.891688 152.79894 
L 64.49982 143.068127 
z
M 231.949556 214.554331 
L 234.858581 189.335165 
L 233.716068 174.923302 
L 231.921556 172.092515 
L 233.145677 187.533796 
L 230.028865 214.554331 
z
" clip-path="url(#pf0bed641fb)" style="fill: #34b679; fill-opacity: 0.7"/>
    <path d="M 155.455022 51.468857 
L 121.988244 52.381866 
L 120.6788 54.447475 
L 156.719945 53.464235 
z
M 56.514141 155.665295 
L 63.161069 214.554331 
L 66.544011 214.554331 
L 59.551212 152.601023 
L 59.517813 151.752127 
L 59.521572 151.649986 
L 59.572101 150.841454 
L 59.125555 151.545868 
z
M 233.870247 214.554331 
L 236.571484 191.136534 
L 235.510579 177.75409 
L 233.716068 174.923302 
L 234.858581 189.335165 
L 231.949556 214.554331 
z
" clip-path="url(#pf0bed641fb)" style="fill: #3fbc73; fill-opacity: 0.7"/>
    <path d="M 154.190099 49.473479 
L 123.297689 50.316256 
L 121.988244 52.381866 
L 155.455022 51.468857 
z
M 53.642501 160.195221 
L 59.778127 214.554331 
L 63.161069 214.554331 
L 56.514141 155.665295 
z
M 235.790937 214.554331 
L 238.284387 192.937903 
L 237.30509 180.584878 
L 235.510579 177.75409 
L 236.571484 191.136534 
L 233.870247 214.554331 
z
" clip-path="url(#pf0bed641fb)" style="fill: #4ac16d; fill-opacity: 0.7"/>
    <path d="M 152.925176 47.478101 
L 124.607133 48.250647 
L 123.297689 50.316256 
L 154.190099 49.473479 
z
M 50.770861 164.725147 
L 56.395185 214.554331 
L 59.778127 214.554331 
L 53.642501 160.195221 
z
M 237.711628 214.554331 
L 239.99729 194.739272 
L 239.099602 183.415666 
L 237.30509 180.584878 
L 238.284387 192.937903 
L 235.790937 214.554331 
z
" clip-path="url(#pf0bed641fb)" style="fill: #56c667; fill-opacity: 0.7"/>
    <path d="M 151.660253 45.482723 
L 125.916578 46.185038 
L 124.607133 48.250647 
L 152.925176 47.478101 
z
M 47.899221 169.255072 
L 53.012243 214.554331 
L 56.395185 214.554331 
L 50.770861 164.725147 
z
M 239.632319 214.554331 
L 241.710194 196.540641 
L 240.894113 186.246453 
L 239.099602 183.415666 
L 239.99729 194.739272 
L 237.711628 214.554331 
z
" clip-path="url(#pf0bed641fb)" style="fill: #65cb5e; fill-opacity: 0.7"/>
    <path d="M 150.39533 43.487345 
L 127.226023 44.119428 
L 125.916578 46.185038 
L 151.660253 45.482723 
z
M 45.027581 173.784998 
L 49.6293 214.554331 
L 53.012243 214.554331 
L 47.899221 169.255072 
z
M 241.55301 214.554331 
L 243.423097 198.34201 
L 242.688625 189.077241 
L 240.894113 186.246453 
L 241.710194 196.540641 
L 239.632319 214.554331 
z
" clip-path="url(#pf0bed641fb)" style="fill: #73d056; fill-opacity: 0.7"/>
    <path d="M 149.130407 41.491967 
L 128.535467 42.053819 
L 127.226023 44.119428 
L 150.39533 43.487345 
z
M 42.155941 178.314924 
L 46.246358 214.554331 
L 49.6293 214.554331 
L 45.027581 173.784998 
z
M 243.473701 214.554331 
L 245.136 200.143379 
L 244.483136 191.908029 
L 242.688625 189.077241 
L 243.423097 198.34201 
L 241.55301 214.554331 
z
" clip-path="url(#pf0bed641fb)" style="fill: #84d44b; fill-opacity: 0.7"/>
    <path d="M 147.865484 39.496589 
L 129.844912 39.988209 
L 128.535467 42.053819 
L 149.130407 41.491967 
z
M 39.284301 182.84485 
L 42.863416 214.554331 
L 46.246358 214.554331 
L 42.155941 178.314924 
z
M 245.394391 214.554331 
L 246.848904 201.944748 
L 246.277647 194.738817 
L 244.483136 191.908029 
L 245.136 200.143379 
L 243.473701 214.554331 
z
" clip-path="url(#pf0bed641fb)" style="fill: #93d741; fill-opacity: 0.7"/>
    <path d="M 146.600562 37.501211 
L 131.154356 37.9226 
L 129.844912 39.988209 
L 147.865484 39.496589 
z
M 36.412661 187.374776 
L 39.480474 214.554331 
L 42.863416 214.554331 
L 39.284301 182.84485 
z
M 247.315082 214.554331 
L 248.561807 203.746117 
L 248.072159 197.569604 
L 246.277647 194.738817 
L 246.848904 201.944748 
L 245.394391 214.554331 
z
" clip-path="url(#pf0bed641fb)" style="fill: #a2da37; fill-opacity: 0.7"/>
    <path d="M 145.335639 35.505833 
L 132.463801 35.85699 
L 131.154356 37.9226 
L 146.600562 37.501211 
z
M 33.541021 191.904702 
L 36.097531 214.554331 
L 39.480474 214.554331 
L 36.412661 187.374776 
z
M 249.235773 214.554331 
L 250.27471 205.547486 
L 249.86667 200.400392 
L 248.072159 197.569604 
L 248.561807 203.746117 
L 247.315082 214.554331 
z
" clip-path="url(#pf0bed641fb)" style="fill: #b5de2b; fill-opacity: 0.7"/>
    <path d="M 144.070716 33.510455 
L 133.773245 33.791381 
L 132.463801 35.85699 
L 145.335639 35.505833 
z
M 30.669381 196.434627 
L 32.714589 214.554331 
L 36.097531 214.554331 
L 33.541021 191.904702 
z
M 251.156464 214.554331 
L 251.987614 207.348855 
L 251.661181 203.23118 
L 249.86667 200.400392 
L 250.27471 205.547486 
L 249.235773 214.554331 
z
" clip-path="url(#pf0bed641fb)" style="fill: #c5e021; fill-opacity: 0.7"/>
    <path d="M 142.805793 31.515077 
L 135.08269 31.725772 
L 133.773245 33.791381 
L 144.070716 33.510455 
z
M 27.79774 200.964553 
L 29.331647 214.554331 
L 32.714589 214.554331 
L 30.669381 196.434627 
z
M 253.077155 214.554331 
L 253.700517 209.150224 
L 253.455693 206.061968 
L 251.661181 203.23118 
L 251.987614 207.348855 
L 251.156464 214.554331 
z
" clip-path="url(#pf0bed641fb)" style="fill: #d8e219; fill-opacity: 0.7"/>
    <path d="M 141.54087 29.519699 
L 136.392134 29.660162 
L 135.08269 31.725772 
L 142.805793 31.515077 
z
M 24.9261 205.494479 
L 25.948705 214.554331 
L 29.331647 214.554331 
L 27.79774 200.964553 
z
M 254.997845 214.554331 
L 255.41342 210.951593 
L 255.250204 208.892755 
L 253.455693 206.061968 
L 253.700517 209.150224 
L 253.077155 214.554331 
z
" clip-path="url(#pf0bed641fb)" style="fill: #e7e419; fill-opacity: 0.7"/>
    <path d="M 140.275947 27.524321 
L 137.701579 27.594553 
L 136.392134 29.660162 
L 141.54087 29.519699 
z
M 22.05446 210.024405 
L 22.565763 214.554331 
L 25.948705 214.554331 
L 24.9261 205.494479 
z
M 256.918536 214.554331 
L 257.126324 212.752962 
L 257.044716 211.723543 
L 255.250204 208.892755 
L 255.41342 210.951593 
L 254.997845 214.554331 
z
" clip-path="url(#pf0bed641fb)" style="fill: #f6e620; fill-opacity: 0.7"/>
    <path d="M 137.701579 27.594553 
L 140.275947 27.524321 
L 139.011024 25.528943 
z
M 22.565763 214.554331 
L 22.05446 210.024405 
L 19.18282 214.554331 
z
M 257.044716 211.723543 
L 257.126324 212.752962 
L 256.918536 214.554331 
L 258.839227 214.554331 
z
" clip-path="url(#pf0bed641fb)" style="fill: #fde725; fill-opacity: 0.7"/>
   </g>
   <g id="matplotlib.axis_1"/>
   <g id="matplotlib.axis_2"/>
   <g id="line2d_1">
    <path d="M 175.88124 83.690601 
L 203.533902 156.392673 
" clip-path="url(#pf0bed641fb)" style="fill: none; stroke: #555555; stroke-opacity: 0.9; stroke-width: 0.5; stroke-linecap: square"/>
   </g>
   <g id="line2d_2">
    <path d="M 203.533902 156.392673 
L 258.839227 214.554331 
" clip-path="url(#pf0bed641fb)" style="fill: none; stroke: #555555; stroke-opacity: 0.9; stroke-width: 0.5; stroke-linecap: square"/>
   </g>
   <g id="line2d_3">
    <path d="M 218.896492 151.545868 
L 258.839227 214.554331 
" clip-path="url(#pf0bed641fb)" style="fill: none; stroke: #555555; stroke-opacity: 0.9; stroke-width: 0.5; stroke-linecap: square"/>
   </g>
   <g id="line2d_4">
    <path d="M 79.096922 120.041637 
L 119.039656 57.033175 
" clip-path="url(#pf0bed641fb)" style="fill: none; stroke: #555555; stroke-opacity: 0.9; stroke-width: 0.5; stroke-linecap: square"/>
   </g>
   <g id="line2d_5">
    <path d="M 119.039656 57.033175 
L 178.953758 183.050099 
" clip-path="url(#pf0bed641fb)" style="fill: none; stroke: #555555; stroke-opacity: 0.9; stroke-width: 0.5; stroke-linecap: square"/>
   </g>
   <g id="line2d_6">
    <path d="M 168.968074 72.78529 
L 175.88124 83.690601 
" clip-path="url(#pf0bed641fb)" style="fill: none; stroke: #555555; stroke-opacity: 0.9; stroke-width: 0.5; stroke-linecap: square"/>
   </g>
   <g id="line2d_7">
    <path d="M 178.953758 214.554331 
L 203.533902 156.392673 
" clip-path="url(#pf0bed641fb)" style="fill: none; stroke: #555555; stroke-opacity: 0.9; stroke-width: 0.5; stroke-linecap: square"/>
   </g>
   <g id="line2d_8">
    <path d="M 168.968074 72.78529 
L 119.039656 57.033175 
" clip-path="url(#pf0bed641fb)" style="fill: none; stroke: #555555; stroke-opacity: 0.9; stroke-width: 0.5; stroke-linecap: square"/>
   </g>
   <g id="line2d_9">
    <path d="M 178.953758 214.554331 
L 84.543658 214.554331 
" clip-path="url(#pf0bed641fb)" style="fill: none; stroke: #555555; stroke-opacity: 0.9; stroke-width: 0.5; stroke-linecap: square"/>
   </g>
   <g id="line2d_10">
    <path d="M 59.125555 151.545868 
L 178.953758 183.050099 
" clip-path="url(#pf0bed641fb)" style="fill: none; stroke: #555555; stroke-opacity: 0.9; stroke-width: 0.5; stroke-linecap: square"/>
   </g>
   <g id="line2d_11">
    <path d="M 168.968074 72.78529 
L 139.011024 25.528943 
" clip-path="url(#pf0bed641fb)" style="fill: none; stroke: #555555; stroke-opacity: 0.9; stroke-width: 0.5; stroke-linecap: square"/>
   </g>
   <g id="line2d_12">
    <path d="M 59.125555 151.545868 
L 19.18282 214.554331 
" clip-path="url(#pf0bed641fb)" style="fill: none; stroke: #555555; stroke-opacity: 0.9; stroke-width: 0.5; stroke-linecap: square"/>
   </g>
   <g id="line2d_13">
    <path d="M 175.88124 83.690601 
L 178.953758 183.050099 
" clip-path="url(#pf0bed641fb)" style="fill: none; stroke: #555555; stroke-opacity: 0.9; stroke-width: 0.5; stroke-linecap: square"/>
   </g>
   <g id="line2d_14">
    <path d="M 84.543658 214.554331 
L 19.18282 214.554331 
" clip-path="url(#pf0bed641fb)" style="fill: none; stroke: #555555; stroke-opacity: 0.9; stroke-width: 0.5; stroke-linecap: square"/>
   </g>
   <g id="line2d_15">
    <path d="M 218.896492 151.545868 
L 203.533902 156.392673 
" clip-path="url(#pf0bed641fb)" style="fill: none; stroke: #555555; stroke-opacity: 0.9; stroke-width: 0.5; stroke-linecap: square"/>
   </g>
   <g id="line2d_16">
    <path d="M 79.096922 120.041637 
L 178.953758 183.050099 
" clip-path="url(#pf0bed641fb)" style="fill: none; stroke: #555555; stroke-opacity: 0.9; stroke-width: 0.5; stroke-linecap: square"/>
   </g>
   <g id="line2d_17">
    <path d="M 178.953758 214.554331 
L 178.953758 183.050099 
" clip-path="url(#pf0bed641fb)" style="fill: none; stroke: #555555; stroke-opacity: 0.9; stroke-width: 0.5; stroke-linecap: square"/>
   </g>
   <g id="line2d_18">
    <path d="M 168.968074 72.78529 
L 178.953758 183.050099 
" clip-path="url(#pf0bed641fb)" style="fill: none; stroke: #555555; stroke-opacity: 0.9; stroke-width: 0.5; stroke-linecap: square"/>
   </g>
   <g id="line2d_19">
    <path d="M 203.533902 156.392673 
L 178.953758 183.050099 
" clip-path="url(#pf0bed641fb)" style="fill: none; stroke: #555555; stroke-opacity: 0.9; stroke-width: 0.5; stroke-linecap: square"/>
   </g>
   <g id="line2d_20">
    <path d="M 198.925125 120.041637 
L 218.896492 151.545868 
" clip-path="url(#pf0bed641fb)" style="fill: none; stroke: #555555; stroke-opacity: 0.9; stroke-width: 0.5; stroke-linecap: square"/>
   </g>
   <g id="line2d_21">
    <path d="M 178.953758 214.554331 
L 59.125555 151.545868 
" clip-path="url(#pf0bed641fb)" style="fill: none; stroke: #555555; stroke-opacity: 0.9; stroke-width: 0.5; stroke-linecap: square"/>
   </g>
   <g id="line2d_22">
    <path d="M 198.925125 120.041637 
L 175.88124 83.690601 
" clip-path="url(#pf0bed641fb)" style="fill: none; stroke: #555555; stroke-opacity: 0.9; stroke-width: 0.5; stroke-linecap: square"/>
   </g>
   <g id="line2d_23">
    <path d="M 79.096922 120.041637 
L 59.125555 151.545868 
" clip-path="url(#pf0bed641fb)" style="fill: none; stroke: #555555; stroke-opacity: 0.9; stroke-width: 0.5; stroke-linecap: square"/>
   </g>
   <g id="line2d_24">
    <path d="M 198.925125 120.041637 
L 203.533902 156.392673 
" clip-path="url(#pf0bed641fb)" style="fill: none; stroke: #555555; stroke-opacity: 0.9; stroke-width: 0.5; stroke-linecap: square"/>
   </g>
   <g id="line2d_25">
    <path d="M 119.039656 57.033175 
L 139.011024 25.528943 
" clip-path="url(#pf0bed641fb)" style="fill: none; stroke: #555555; stroke-opacity: 0.9; stroke-width: 0.5; stroke-linecap: square"/>
   </g>
   <g id="line2d_26">
    <path d="M 178.953758 214.554331 
L 258.839227 214.554331 
" clip-path="url(#pf0bed641fb)" style="fill: none; stroke: #555555; stroke-opacity: 0.9; stroke-width: 0.5; stroke-linecap: square"/>
   </g>
   <g id="line2d_27">
    <path d="M 59.125555 151.545868 
L 84.543658 214.554331 
" clip-path="url(#pf0bed641fb)" style="fill: none; stroke: #555555; stroke-opacity: 0.9; stroke-width: 0.5; stroke-linecap: square"/>
   </g>
   <g id="PathCollection_1">
    <defs>
     <path id="m45d4671178" d="M 0 2.738613 
C 0.726289 2.738613 1.422928 2.450055 1.936492 1.936492 
C 2.450055 1.422928 2.738613 0.726289 2.738613 0 
C 2.738613 -0.726289 2.450055 -1.422928 1.936492 -1.936492 
C 1.422928 -2.450055 0.726289 -2.738613 0 -2.738613 
C -0.726289 -2.738613 -1.422928 -2.450055 -1.936492 -1.936492 
C -2.450055 -1.422928 -2.738613 -0.726289 -2.738613 0 
C -2.738613 0.726289 -2.450055 1.422928 -1.936492 1.936492 
C -1.422928 2.450055 -0.726289 2.738613 0 2.738613 
z
" style="stroke: #008000"/>
    </defs>
    <g clip-path="url(#pf0bed641fb)">
     <use xlink:href="#m45d4671178" x="175.88124" y="83.690601" style="fill: #008000; stroke: #008000"/>
     <use xlink:href="#m45d4671178" x="203.533902" y="156.392673" style="fill: #008000; stroke: #008000"/>
     <use xlink:href="#m45d4671178" x="258.839227" y="214.554331" style="fill: #008000; stroke: #008000"/>
     <use xlink:href="#m45d4671178" x="218.896492" y="151.545868" style="fill: #008000; stroke: #008000"/>
     <use xlink:href="#m45d4671178" x="79.096922" y="120.041637" style="fill: #008000; stroke: #008000"/>
     <use xlink:href="#m45d4671178" x="119.039656" y="57.033175" style="fill: #008000; stroke: #008000"/>
     <use xlink:href="#m45d4671178" x="178.953758" y="183.050099" style="fill: #008000; stroke: #008000"/>
     <use xlink:href="#m45d4671178" x="168.968074" y="72.78529" style="fill: #008000; stroke: #008000"/>
     <use xlink:href="#m45d4671178" x="178.953758" y="214.554331" style="fill: #008000; stroke: #008000"/>
     <use xlink:href="#m45d4671178" x="84.543658" y="214.554331" style="fill: #008000; stroke: #008000"/>
     <use xlink:href="#m45d4671178" x="59.125555" y="151.545868" style="fill: #008000; stroke: #008000"/>
     <use xlink:href="#m45d4671178" x="139.011024" y="25.528943" style="fill: #008000; stroke: #008000"/>
     <use xlink:href="#m45d4671178" x="19.18282" y="214.554331" style="fill: #008000; stroke: #008000"/>
     <use xlink:href="#m45d4671178" x="198.925125" y="120.041637" style="fill: #008000; stroke: #008000"/>
    </g>
   </g>
   <g id="PathCollection_2">
    <defs>
     <path id="m8d1a35808a" d="M -0 2.236068 
L 1.341641 0 
L 0 -2.236068 
L -1.341641 -0 
z
" style="stroke: #d3d3d3"/>
    </defs>
    <g clip-path="url(#pf0bed641fb)">
     <use xlink:href="#m8d1a35808a" x="139.011024" y="25.528943" style="fill: #d3d3d3; stroke: #d3d3d3"/>
     <use xlink:href="#m8d1a35808a" x="139.011024" y="25.528943" style="fill: #d3d3d3; stroke: #d3d3d3"/>
     <use xlink:href="#m8d1a35808a" x="139.011024" y="25.528943" style="fill: #d3d3d3; stroke: #d3d3d3"/>
     <use xlink:href="#m8d1a35808a" x="139.011024" y="25.528943" style="fill: #d3d3d3; stroke: #d3d3d3"/>
     <use xlink:href="#m8d1a35808a" x="139.011024" y="25.528943" style="fill: #d3d3d3; stroke: #d3d3d3"/>
     <use xlink:href="#m8d1a35808a" x="139.011024" y="25.528943" style="fill: #d3d3d3; stroke: #d3d3d3"/>
     <use xlink:href="#m8d1a35808a" x="139.011024" y="25.528943" style="fill: #d3d3d3; stroke: #d3d3d3"/>
     <use xlink:href="#m8d1a35808a" x="258.839227" y="214.554331" style="fill: #d3d3d3; stroke: #d3d3d3"/>
     <use xlink:href="#m8d1a35808a" x="258.839227" y="214.554331" style="fill: #d3d3d3; stroke: #d3d3d3"/>
     <use xlink:href="#m8d1a35808a" x="258.839227" y="214.554331" style="fill: #d3d3d3; stroke: #d3d3d3"/>
     <use xlink:href="#m8d1a35808a" x="258.839227" y="214.554331" style="fill: #d3d3d3; stroke: #d3d3d3"/>
     <use xlink:href="#m8d1a35808a" x="258.839227" y="214.554331" style="fill: #d3d3d3; stroke: #d3d3d3"/>
     <use xlink:href="#m8d1a35808a" x="258.839227" y="214.554331" style="fill: #d3d3d3; stroke: #d3d3d3"/>
     <use xlink:href="#m8d1a35808a" x="258.839227" y="214.554331" style="fill: #d3d3d3; stroke: #d3d3d3"/>
     <use xlink:href="#m8d1a35808a" x="258.839227" y="214.554331" style="fill: #d3d3d3; stroke: #d3d3d3"/>
     <use xlink:href="#m8d1a35808a" x="258.839227" y="214.554331" style="fill: #d3d3d3; stroke: #d3d3d3"/>
     <use xlink:href="#m8d1a35808a" x="198.925125" y="120.041637" style="fill: #d3d3d3; stroke: #d3d3d3"/>
     <use xlink:href="#m8d1a35808a" x="168.968074" y="72.78529" style="fill: #d3d3d3; stroke: #d3d3d3"/>
     <use xlink:href="#m8d1a35808a" x="168.968074" y="72.78529" style="fill: #d3d3d3; stroke: #d3d3d3"/>
     <use xlink:href="#m8d1a35808a" x="168.968074" y="72.78529" style="fill: #d3d3d3; stroke: #d3d3d3"/>
     <use xlink:href="#m8d1a35808a" x="162.976664" y="63.334021" style="fill: #d3d3d3; stroke: #d3d3d3"/>
     <use xlink:href="#m8d1a35808a" x="218.896492" y="151.545868" style="fill: #d3d3d3; stroke: #d3d3d3"/>
     <use xlink:href="#m8d1a35808a" x="218.896492" y="151.545868" style="fill: #d3d3d3; stroke: #d3d3d3"/>
     <use xlink:href="#m8d1a35808a" x="228.882176" y="167.297984" style="fill: #d3d3d3; stroke: #d3d3d3"/>
     <use xlink:href="#m8d1a35808a" x="228.882176" y="167.297984" style="fill: #d3d3d3; stroke: #d3d3d3"/>
     <use xlink:href="#m8d1a35808a" x="210.907946" y="138.944176" style="fill: #d3d3d3; stroke: #d3d3d3"/>
     <use xlink:href="#m8d1a35808a" x="164.238014" y="65.323762" style="fill: #d3d3d3; stroke: #d3d3d3"/>
     <use xlink:href="#m8d1a35808a" x="19.18282" y="214.554331" style="fill: #d3d3d3; stroke: #d3d3d3"/>
     <use xlink:href="#m8d1a35808a" x="19.18282" y="214.554331" style="fill: #d3d3d3; stroke: #d3d3d3"/>
     <use xlink:href="#m8d1a35808a" x="19.18282" y="214.554331" style="fill: #d3d3d3; stroke: #d3d3d3"/>
     <use xlink:href="#m8d1a35808a" x="19.18282" y="214.554331" style="fill: #d3d3d3; stroke: #d3d3d3"/>
     <use xlink:href="#m8d1a35808a" x="19.18282" y="214.554331" style="fill: #d3d3d3; stroke: #d3d3d3"/>
     <use xlink:href="#m8d1a35808a" x="19.18282" y="214.554331" style="fill: #d3d3d3; stroke: #d3d3d3"/>
     <use xlink:href="#m8d1a35808a" x="19.18282" y="214.554331" style="fill: #d3d3d3; stroke: #d3d3d3"/>
     <use xlink:href="#m8d1a35808a" x="19.18282" y="214.554331" style="fill: #d3d3d3; stroke: #d3d3d3"/>
     <use xlink:href="#m8d1a35808a" x="19.18282" y="214.554331" style="fill: #d3d3d3; stroke: #d3d3d3"/>
     <use xlink:href="#m8d1a35808a" x="19.18282" y="214.554331" style="fill: #d3d3d3; stroke: #d3d3d3"/>
     <use xlink:href="#m8d1a35808a" x="19.18282" y="214.554331" style="fill: #d3d3d3; stroke: #d3d3d3"/>
     <use xlink:href="#m8d1a35808a" x="79.096922" y="120.041637" style="fill: #d3d3d3; stroke: #d3d3d3"/>
     <use xlink:href="#m8d1a35808a" x="210.907946" y="214.554331" style="fill: #d3d3d3; stroke: #d3d3d3"/>
     <use xlink:href="#m8d1a35808a" x="67.114102" y="214.554331" style="fill: #d3d3d3; stroke: #d3d3d3"/>
     <use xlink:href="#m8d1a35808a" x="108.087616" y="98.700061" style="fill: #d3d3d3; stroke: #d3d3d3"/>
     <use xlink:href="#m8d1a35808a" x="143.449105" y="214.554331" style="fill: #d3d3d3; stroke: #d3d3d3"/>
    </g>
   </g>
   <g id="PathCollection_3">
    <defs>
     <path id="m614efdc096" d="M 0 -5 
L -1.12257 -1.545085 
L -4.755283 -1.545085 
L -1.816356 0.59017 
L -2.938926 4.045085 
L -0 1.90983 
L 2.938926 4.045085 
L 1.816356 0.59017 
L 4.755283 -1.545085 
L 1.12257 -1.545085 
z
" style="stroke: #ff0000"/>
    </defs>
    <g clip-path="url(#pf0bed641fb)">
     <use xlink:href="#m614efdc096" x="203.533902" y="156.392673" style="fill: #ff0000; stroke: #ff0000"/>
    </g>
   </g>
   <g id="text_1">
    <!-- $\mathrm{Al_{4}Cu_{9}}$ -->
    <g transform="translate(175.944876 87.026639) scale(0.1 -0.1)">
     <defs>
      <path id="DejaVuSans-41" d="M 2188 4044 
L 1331 1722 
L 3047 1722 
L 2188 4044 
z
M 1831 4666 
L 2547 4666 
L 4325 0 
L 3669 0 
L 3244 1197 
L 1141 1197 
L 716 0 
L 50 0 
L 1831 4666 
z
" transform="scale(0.015625)"/>
      <path id="DejaVuSans-6c" d="M 603 4863 
L 1178 4863 
L 1178 0 
L 603 0 
L 603 4863 
z
" transform="scale(0.015625)"/>
      <path id="DejaVuSans-34" d="M 2419 4116 
L 825 1625 
L 2419 1625 
L 2419 4116 
z
M 2253 4666 
L 3047 4666 
L 3047 1625 
L 3713 1625 
L 3713 1100 
L 3047 1100 
L 3047 0 
L 2419 0 
L 2419 1100 
L 313 1100 
L 313 1709 
L 2253 4666 
z
" transform="scale(0.015625)"/>
      <path id="DejaVuSans-43" d="M 4122 4306 
L 4122 3641 
Q 3803 3938 3442 4084 
Q 3081 4231 2675 4231 
Q 1875 4231 1450 3742 
Q 1025 3253 1025 2328 
Q 1025 1406 1450 917 
Q 1875 428 2675 428 
Q 3081 428 3442 575 
Q 3803 722 4122 1019 
L 4122 359 
Q 3791 134 3420 21 
Q 3050 -91 2638 -91 
Q 1578 -91 968 557 
Q 359 1206 359 2328 
Q 359 3453 968 4101 
Q 1578 4750 2638 4750 
Q 3056 4750 3426 4639 
Q 3797 4528 4122 4306 
z
" transform="scale(0.015625)"/>
      <path id="DejaVuSans-75" d="M 544 1381 
L 544 3500 
L 1119 3500 
L 1119 1403 
Q 1119 906 1312 657 
Q 1506 409 1894 409 
Q 2359 409 2629 706 
Q 2900 1003 2900 1516 
L 2900 3500 
L 3475 3500 
L 3475 0 
L 2900 0 
L 2900 538 
Q 2691 219 2414 64 
Q 2138 -91 1772 -91 
Q 1169 -91 856 284 
Q 544 659 544 1381 
z
M 1991 3584 
L 1991 3584 
z
" transform="scale(0.015625)"/>
      <path id="DejaVuSans-39" d="M 703 97 
L 703 672 
Q 941 559 1184 500 
Q 1428 441 1663 441 
Q 2288 441 2617 861 
Q 2947 1281 2994 2138 
Q 2813 1869 2534 1725 
Q 2256 1581 1919 1581 
Q 1219 1581 811 2004 
Q 403 2428 403 3163 
Q 403 3881 828 4315 
Q 1253 4750 1959 4750 
Q 2769 4750 3195 4129 
Q 3622 3509 3622 2328 
Q 3622 1225 3098 567 
Q 2575 -91 1691 -91 
Q 1453 -91 1209 -44 
Q 966 3 703 97 
z
M 1959 2075 
Q 2384 2075 2632 2365 
Q 2881 2656 2881 3163 
Q 2881 3666 2632 3958 
Q 2384 4250 1959 4250 
Q 1534 4250 1286 3958 
Q 1038 3666 1038 3163 
Q 1038 2656 1286 2365 
Q 1534 2075 1959 2075 
z
" transform="scale(0.015625)"/>
     </defs>
     <use xlink:href="#DejaVuSans-41" transform="translate(0 0.015625)"/>
     <use xlink:href="#DejaVuSans-6c" transform="translate(68.408203 0.015625)"/>
     <use xlink:href="#DejaVuSans-34" transform="translate(97.148438 -16.390625) scale(0.7)"/>
     <use xlink:href="#DejaVuSans-43" transform="translate(144.418945 0.015625)"/>
     <use xlink:href="#DejaVuSans-75" transform="translate(214.243164 0.015625)"/>
     <use xlink:href="#DejaVuSans-39" transform="translate(278.579102 -16.390625) scale(0.7)"/>
    </g>
   </g>
   <g id="text_2">
    <!-- $\mathrm{Al}$ -->
    <g transform="translate(249.389691 211.215873) scale(0.1 -0.1)">
     <use xlink:href="#DejaVuSans-41" transform="translate(0 0.015625)"/>
     <use xlink:href="#DejaVuSans-6c" transform="translate(68.408203 0.015625)"/>
    </g>
   </g>
   <g id="text_3">
    <!-- $\mathrm{Al_{2}Cu}$ -->
    <g transform="translate(211.541947 147.420198) scale(0.1 -0.1)">
     <defs>
      <path id="DejaVuSans-32" d="M 1228 531 
L 3431 531 
L 3431 0 
L 469 0 
L 469 531 
Q 828 903 1448 1529 
Q 2069 2156 2228 2338 
Q 2531 2678 2651 2914 
Q 2772 3150 2772 3378 
Q 2772 3750 2511 3984 
Q 2250 4219 1831 4219 
Q 1534 4219 1204 4116 
Q 875 4013 500 3803 
L 500 4441 
Q 881 4594 1212 4672 
Q 1544 4750 1819 4750 
Q 2544 4750 2975 4387 
Q 3406 4025 3406 3419 
Q 3406 3131 3298 2873 
Q 3191 2616 2906 2266 
Q 2828 2175 2409 1742 
Q 1991 1309 1228 531 
z
" transform="scale(0.015625)"/>
     </defs>
     <use xlink:href="#DejaVuSans-41" transform="translate(0 0.015625)"/>
     <use xlink:href="#DejaVuSans-6c" transform="translate(68.408203 0.015625)"/>
     <use xlink:href="#DejaVuSans-32" transform="translate(97.148438 -16.390625) scale(0.7)"/>
     <use xlink:href="#DejaVuSans-43" transform="translate(144.418945 0.015625)"/>
     <use xlink:href="#DejaVuSans-75" transform="translate(214.243164 0.015625)"/>
    </g>
   </g>
   <g id="text_4">
    <!-- $\mathrm{CaCu}$ -->
    <g transform="translate(58.646922 127.6151) scale(0.1 -0.1)">
     <defs>
      <path id="DejaVuSans-61" d="M 2194 1759 
Q 1497 1759 1228 1600 
Q 959 1441 959 1056 
Q 959 750 1161 570 
Q 1363 391 1709 391 
Q 2188 391 2477 730 
Q 2766 1069 2766 1631 
L 2766 1759 
L 2194 1759 
z
M 3341 1997 
L 3341 0 
L 2766 0 
L 2766 531 
Q 2569 213 2275 61 
Q 1981 -91 1556 -91 
Q 1019 -91 701 211 
Q 384 513 384 1019 
Q 384 1609 779 1909 
Q 1175 2209 1959 2209 
L 2766 2209 
L 2766 2266 
Q 2766 2663 2505 2880 
Q 2244 3097 1772 3097 
Q 1472 3097 1187 3025 
Q 903 2953 641 2809 
L 641 3341 
Q 956 3463 1253 3523 
Q 1550 3584 1831 3584 
Q 2591 3584 2966 3190 
Q 3341 2797 3341 1997 
z
" transform="scale(0.015625)"/>
     </defs>
     <use xlink:href="#DejaVuSans-43" transform="translate(0 0.78125)"/>
     <use xlink:href="#DejaVuSans-61" transform="translate(69.824219 0.78125)"/>
     <use xlink:href="#DejaVuSans-43" transform="translate(131.103516 0.78125)"/>
     <use xlink:href="#DejaVuSans-75" transform="translate(200.927734 0.78125)"/>
    </g>
   </g>
   <g id="text_5">
    <!-- $\mathrm{CaCu_{5}}$ -->
    <g transform="translate(94.22602 65.307519) scale(0.1 -0.1)">
     <defs>
      <path id="DejaVuSans-35" d="M 691 4666 
L 3169 4666 
L 3169 4134 
L 1269 4134 
L 1269 2991 
Q 1406 3038 1543 3061 
Q 1681 3084 1819 3084 
Q 2600 3084 3056 2656 
Q 3513 2228 3513 1497 
Q 3513 744 3044 326 
Q 2575 -91 1722 -91 
Q 1428 -91 1123 -41 
Q 819 9 494 109 
L 494 744 
Q 775 591 1075 516 
Q 1375 441 1709 441 
Q 2250 441 2565 725 
Q 2881 1009 2881 1497 
Q 2881 1984 2565 2268 
Q 2250 2553 1709 2553 
Q 1456 2553 1204 2497 
Q 953 2441 691 2322 
L 691 4666 
z
" transform="scale(0.015625)"/>
     </defs>
     <use xlink:href="#DejaVuSans-43" transform="translate(0 0.78125)"/>
     <use xlink:href="#DejaVuSans-61" transform="translate(69.824219 0.78125)"/>
     <use xlink:href="#DejaVuSans-43" transform="translate(131.103516 0.78125)"/>
     <use xlink:href="#DejaVuSans-75" transform="translate(200.927734 0.78125)"/>
     <use xlink:href="#DejaVuSans-35" transform="translate(265.263672 -15.625) scale(0.7)"/>
    </g>
   </g>
   <g id="text_6">
    <!-- $\mathrm{Ca_{3}Al_{7}Cu_{2}}$ -->
    <g transform="translate(135.326485 191.997982) scale(0.1 -0.1)">
     <defs>
      <path id="DejaVuSans-33" d="M 2597 2516 
Q 3050 2419 3304 2112 
Q 3559 1806 3559 1356 
Q 3559 666 3084 287 
Q 2609 -91 1734 -91 
Q 1441 -91 1130 -33 
Q 819 25 488 141 
L 488 750 
Q 750 597 1062 519 
Q 1375 441 1716 441 
Q 2309 441 2620 675 
Q 2931 909 2931 1356 
Q 2931 1769 2642 2001 
Q 2353 2234 1838 2234 
L 1294 2234 
L 1294 2753 
L 1863 2753 
Q 2328 2753 2575 2939 
Q 2822 3125 2822 3475 
Q 2822 3834 2567 4026 
Q 2313 4219 1838 4219 
Q 1578 4219 1281 4162 
Q 984 4106 628 3988 
L 628 4550 
Q 988 4650 1302 4700 
Q 1616 4750 1894 4750 
Q 2613 4750 3031 4423 
Q 3450 4097 3450 3541 
Q 3450 3153 3228 2886 
Q 3006 2619 2597 2516 
z
" transform="scale(0.015625)"/>
      <path id="DejaVuSans-37" d="M 525 4666 
L 3525 4666 
L 3525 4397 
L 1831 0 
L 1172 0 
L 2766 4134 
L 525 4134 
L 525 4666 
z
" transform="scale(0.015625)"/>
     </defs>
     <use xlink:href="#DejaVuSans-43" transform="translate(0 0.015625)"/>
     <use xlink:href="#DejaVuSans-61" transform="translate(69.824219 0.015625)"/>
     <use xlink:href="#DejaVuSans-33" transform="translate(132.060547 -16.390625) scale(0.7)"/>
     <use xlink:href="#DejaVuSans-41" transform="translate(179.331055 0.015625)"/>
     <use xlink:href="#DejaVuSans-6c" transform="translate(247.739258 0.015625)"/>
     <use xlink:href="#DejaVuSans-37" transform="translate(276.479492 -16.390625) scale(0.7)"/>
     <use xlink:href="#DejaVuSans-43" transform="translate(323.75 0.015625)"/>
     <use xlink:href="#DejaVuSans-75" transform="translate(393.574219 0.015625)"/>
     <use xlink:href="#DejaVuSans-32" transform="translate(457.910156 -16.390625) scale(0.7)"/>
    </g>
   </g>
   <g id="text_7">
    <!-- $\mathrm{AlCu_{3}}$ -->
    <g transform="translate(161.613529 68.638869) scale(0.1 -0.1)">
     <use xlink:href="#DejaVuSans-41" transform="translate(0 0.015625)"/>
     <use xlink:href="#DejaVuSans-6c" transform="translate(68.408203 0.015625)"/>
     <use xlink:href="#DejaVuSans-43" transform="translate(96.191406 0.015625)"/>
     <use xlink:href="#DejaVuSans-75" transform="translate(166.015625 0.015625)"/>
     <use xlink:href="#DejaVuSans-33" transform="translate(230.351562 -16.390625) scale(0.7)"/>
    </g>
   </g>
   <g id="text_8">
    <!-- $\mathrm{CaAl_{2}}$ -->
    <g transform="translate(171.699213 210.544971) scale(0.1 -0.1)">
     <use xlink:href="#DejaVuSans-43" transform="translate(0 0.015625)"/>
     <use xlink:href="#DejaVuSans-61" transform="translate(69.824219 0.015625)"/>
     <use xlink:href="#DejaVuSans-41" transform="translate(131.103516 0.015625)"/>
     <use xlink:href="#DejaVuSans-6c" transform="translate(199.511719 0.015625)"/>
     <use xlink:href="#DejaVuSans-32" transform="translate(228.251953 -16.390625) scale(0.7)"/>
    </g>
   </g>
   <g id="text_9">
    <!-- $\mathrm{Ca_{8}Al_{3}}$ -->
    <g transform="translate(76.852749 210.594971) scale(0.1 -0.1)">
     <defs>
      <path id="DejaVuSans-38" d="M 2034 2216 
Q 1584 2216 1326 1975 
Q 1069 1734 1069 1313 
Q 1069 891 1326 650 
Q 1584 409 2034 409 
Q 2484 409 2743 651 
Q 3003 894 3003 1313 
Q 3003 1734 2745 1975 
Q 2488 2216 2034 2216 
z
M 1403 2484 
Q 997 2584 770 2862 
Q 544 3141 544 3541 
Q 544 4100 942 4425 
Q 1341 4750 2034 4750 
Q 2731 4750 3128 4425 
Q 3525 4100 3525 3541 
Q 3525 3141 3298 2862 
Q 3072 2584 2669 2484 
Q 3125 2378 3379 2068 
Q 3634 1759 3634 1313 
Q 3634 634 3220 271 
Q 2806 -91 2034 -91 
Q 1263 -91 848 271 
Q 434 634 434 1313 
Q 434 1759 690 2068 
Q 947 2378 1403 2484 
z
M 1172 3481 
Q 1172 3119 1398 2916 
Q 1625 2713 2034 2713 
Q 2441 2713 2670 2916 
Q 2900 3119 2900 3481 
Q 2900 3844 2670 4047 
Q 2441 4250 2034 4250 
Q 1625 4250 1398 4047 
Q 1172 3844 1172 3481 
z
" transform="scale(0.015625)"/>
     </defs>
     <use xlink:href="#DejaVuSans-43" transform="translate(0 0.015625)"/>
     <use xlink:href="#DejaVuSans-61" transform="translate(69.824219 0.015625)"/>
     <use xlink:href="#DejaVuSans-38" transform="translate(132.060547 -16.390625) scale(0.7)"/>
     <use xlink:href="#DejaVuSans-41" transform="translate(179.331055 0.015625)"/>
     <use xlink:href="#DejaVuSans-6c" transform="translate(247.739258 0.015625)"/>
     <use xlink:href="#DejaVuSans-33" transform="translate(276.479492 -16.390625) scale(0.7)"/>
    </g>
   </g>
   <g id="text_10">
    <!-- $\mathrm{Ca_{2}Cu}$ -->
    <g transform="translate(59.184646 154.781907) scale(0.1 -0.1)">
     <use xlink:href="#DejaVuSans-43" transform="translate(0 0.78125)"/>
     <use xlink:href="#DejaVuSans-61" transform="translate(69.824219 0.78125)"/>
     <use xlink:href="#DejaVuSans-32" transform="translate(132.060547 -15.625) scale(0.7)"/>
     <use xlink:href="#DejaVuSans-43" transform="translate(179.331055 0.78125)"/>
     <use xlink:href="#DejaVuSans-75" transform="translate(249.155273 0.78125)"/>
    </g>
   </g>
   <g id="text_11">
    <!-- $\mathrm{Cu}$ -->
    <g transform="translate(130.347387 33.102406) scale(0.1 -0.1)">
     <use xlink:href="#DejaVuSans-43" transform="translate(0 0.78125)"/>
     <use xlink:href="#DejaVuSans-75" transform="translate(69.824219 0.78125)"/>
    </g>
   </g>
   <g id="text_12">
    <!-- $\mathrm{Ca}$ -->
    <g transform="translate(19.455747 212.151181) scale(0.1 -0.1)">
     <use xlink:href="#DejaVuSans-43" transform="translate(0 0.78125)"/>
     <use xlink:href="#DejaVuSans-61" transform="translate(69.824219 0.78125)"/>
    </g>
   </g>
   <g id="text_13">
    <!-- $\mathrm{AlCu}$ -->
    <g transform="translate(180.879671 127.6151) scale(0.1 -0.1)">
     <use xlink:href="#DejaVuSans-41" transform="translate(0 0.015625)"/>
     <use xlink:href="#DejaVuSans-6c" transform="translate(68.408203 0.015625)"/>
     <use xlink:href="#DejaVuSans-43" transform="translate(96.191406 0.015625)"/>
     <use xlink:href="#DejaVuSans-75" transform="translate(166.015625 0.015625)"/>
    </g>
   </g>
   <g id="text_14">
    <!-- $\mathrm{Ca(Al_{2}Cu)_{4}}$ -->
    <g style="fill: #ff0000" transform="translate(156.492993 165.914094) scale(0.1 -0.1)">
     <defs>
      <path id="DejaVuSans-28" d="M 1984 4856 
Q 1566 4138 1362 3434 
Q 1159 2731 1159 2009 
Q 1159 1288 1364 580 
Q 1569 -128 1984 -844 
L 1484 -844 
Q 1016 -109 783 600 
Q 550 1309 550 2009 
Q 550 2706 781 3412 
Q 1013 4119 1484 4856 
L 1984 4856 
z
" transform="scale(0.015625)"/>
      <path id="DejaVuSans-29" d="M 513 4856 
L 1013 4856 
Q 1481 4119 1714 3412 
Q 1947 2706 1947 2009 
Q 1947 1309 1714 600 
Q 1481 -109 1013 -844 
L 513 -844 
Q 928 -128 1133 580 
Q 1338 1288 1338 2009 
Q 1338 2731 1133 3434 
Q 928 4138 513 4856 
z
" transform="scale(0.015625)"/>
     </defs>
     <use xlink:href="#DejaVuSans-43" transform="translate(0 0.015625)"/>
     <use xlink:href="#DejaVuSans-61" transform="translate(69.824219 0.015625)"/>
     <use xlink:href="#DejaVuSans-28" transform="translate(131.103516 0.015625)"/>
     <use xlink:href="#DejaVuSans-41" transform="translate(170.117188 0.015625)"/>
     <use xlink:href="#DejaVuSans-6c" transform="translate(238.525391 0.015625)"/>
     <use xlink:href="#DejaVuSans-32" transform="translate(267.265625 -16.390625) scale(0.7)"/>
     <use xlink:href="#DejaVuSans-43" transform="translate(314.536133 0.015625)"/>
     <use xlink:href="#DejaVuSans-75" transform="translate(384.360352 0.015625)"/>
     <use xlink:href="#DejaVuSans-29" transform="translate(447.739258 0.015625)"/>
     <use xlink:href="#DejaVuSans-34" transform="translate(487.709961 -16.390625) scale(0.7)"/>
    </g>
   </g>
  </g>
  <g id="axes_2">
   <g id="patch_3">
    <path d="M 287.298425 195.703937 
L 296.029134 195.703937 
L 296.029134 36.96378 
L 287.298425 36.96378 
L 287.298425 195.703937 
z
" style="fill: none"/>
   </g>
   <g id="patch_4">
    <path d="M 287.298425 195.703937 
L 291.66378 203.640945 
L 296.029134 195.703937 
" style="fill: #440154; opacity: 0.7"/>
   </g>
   <g id="patch_5">
    <path d="M 287.298425 36.96378 
L 291.66378 29.026772 
L 296.029134 36.96378 
" style="fill: #fde725; opacity: 0.7"/>
   </g>
   <g id="QuadMesh_1">
    <path d="M 287.298425 195.703937 
L 296.029134 195.703937 
L 296.029134 191.735433 
L 287.298425 191.735433 
L 287.298425 195.703937 
" clip-path="url(#pd5c675535c)" style="fill: #450559; fill-opacity: 0.7"/>
    <path d="M 287.298425 191.735433 
L 296.029134 191.735433 
L 296.029134 187.766929 
L 287.298425 187.766929 
L 287.298425 191.735433 
" clip-path="url(#pd5c675535c)" style="fill: #470e61; fill-opacity: 0.7"/>
    <path d="M 287.298425 187.766929 
L 296.029134 187.766929 
L 296.029134 183.798425 
L 287.298425 183.798425 
L 287.298425 187.766929 
" clip-path="url(#pd5c675535c)" style="fill: #481769; fill-opacity: 0.7"/>
    <path d="M 287.298425 183.798425 
L 296.029134 183.798425 
L 296.029134 179.829921 
L 287.298425 179.829921 
L 287.298425 183.798425 
" clip-path="url(#pd5c675535c)" style="fill: #482071; fill-opacity: 0.7"/>
    <path d="M 287.298425 179.829921 
L 296.029134 179.829921 
L 296.029134 175.861417 
L 287.298425 175.861417 
L 287.298425 179.829921 
" clip-path="url(#pd5c675535c)" style="fill: #482878; fill-opacity: 0.7"/>
    <path d="M 287.298425 175.861417 
L 296.029134 175.861417 
L 296.029134 171.892913 
L 287.298425 171.892913 
L 287.298425 175.861417 
" clip-path="url(#pd5c675535c)" style="fill: #46307e; fill-opacity: 0.7"/>
    <path d="M 287.298425 171.892913 
L 296.029134 171.892913 
L 296.029134 167.924409 
L 287.298425 167.924409 
L 287.298425 171.892913 
" clip-path="url(#pd5c675535c)" style="fill: #453882; fill-opacity: 0.7"/>
    <path d="M 287.298425 167.924409 
L 296.029134 167.924409 
L 296.029134 163.955906 
L 287.298425 163.955906 
L 287.298425 167.924409 
" clip-path="url(#pd5c675535c)" style="fill: #424086; fill-opacity: 0.7"/>
    <path d="M 287.298425 163.955906 
L 296.029134 163.955906 
L 296.029134 159.987402 
L 287.298425 159.987402 
L 287.298425 163.955906 
" clip-path="url(#pd5c675535c)" style="fill: #3f4788; fill-opacity: 0.7"/>
    <path d="M 287.298425 159.987402 
L 296.029134 159.987402 
L 296.029134 156.018898 
L 287.298425 156.018898 
L 287.298425 159.987402 
" clip-path="url(#pd5c675535c)" style="fill: #3d4e8a; fill-opacity: 0.7"/>
    <path d="M 287.298425 156.018898 
L 296.029134 156.018898 
L 296.029134 152.050394 
L 287.298425 152.050394 
L 287.298425 156.018898 
" clip-path="url(#pd5c675535c)" style="fill: #39558c; fill-opacity: 0.7"/>
    <path d="M 287.298425 152.050394 
L 296.029134 152.050394 
L 296.029134 148.08189 
L 287.298425 148.08189 
L 287.298425 152.050394 
" clip-path="url(#pd5c675535c)" style="fill: #365c8d; fill-opacity: 0.7"/>
    <path d="M 287.298425 148.08189 
L 296.029134 148.08189 
L 296.029134 144.113386 
L 287.298425 144.113386 
L 287.298425 148.08189 
" clip-path="url(#pd5c675535c)" style="fill: #33628d; fill-opacity: 0.7"/>
    <path d="M 287.298425 144.113386 
L 296.029134 144.113386 
L 296.029134 140.144882 
L 287.298425 140.144882 
L 287.298425 144.113386 
" clip-path="url(#pd5c675535c)" style="fill: #30698e; fill-opacity: 0.7"/>
    <path d="M 287.298425 140.144882 
L 296.029134 140.144882 
L 296.029134 136.176378 
L 287.298425 136.176378 
L 287.298425 140.144882 
" clip-path="url(#pd5c675535c)" style="fill: #2e6f8e; fill-opacity: 0.7"/>
    <path d="M 287.298425 136.176378 
L 296.029134 136.176378 
L 296.029134 132.207874 
L 287.298425 132.207874 
L 287.298425 136.176378 
" clip-path="url(#pd5c675535c)" style="fill: #2b758e; fill-opacity: 0.7"/>
    <path d="M 287.298425 132.207874 
L 296.029134 132.207874 
L 296.029134 128.23937 
L 287.298425 128.23937 
L 287.298425 132.207874 
" clip-path="url(#pd5c675535c)" style="fill: #297b8e; fill-opacity: 0.7"/>
    <path d="M 287.298425 128.23937 
L 296.029134 128.23937 
L 296.029134 124.270866 
L 287.298425 124.270866 
L 287.298425 128.23937 
" clip-path="url(#pd5c675535c)" style="fill: #26828e; fill-opacity: 0.7"/>
    <path d="M 287.298425 124.270866 
L 296.029134 124.270866 
L 296.029134 120.302362 
L 287.298425 120.302362 
L 287.298425 124.270866 
" clip-path="url(#pd5c675535c)" style="fill: #24878e; fill-opacity: 0.7"/>
    <path d="M 287.298425 120.302362 
L 296.029134 120.302362 
L 296.029134 116.333858 
L 287.298425 116.333858 
L 287.298425 120.302362 
" clip-path="url(#pd5c675535c)" style="fill: #228d8d; fill-opacity: 0.7"/>
    <path d="M 287.298425 116.333858 
L 296.029134 116.333858 
L 296.029134 112.365354 
L 287.298425 112.365354 
L 287.298425 116.333858 
" clip-path="url(#pd5c675535c)" style="fill: #20938c; fill-opacity: 0.7"/>
    <path d="M 287.298425 112.365354 
L 296.029134 112.365354 
L 296.029134 108.39685 
L 287.298425 108.39685 
L 287.298425 112.365354 
" clip-path="url(#pd5c675535c)" style="fill: #1f998a; fill-opacity: 0.7"/>
    <path d="M 287.298425 108.39685 
L 296.029134 108.39685 
L 296.029134 104.428346 
L 287.298425 104.428346 
L 287.298425 108.39685 
" clip-path="url(#pd5c675535c)" style="fill: #1fa088; fill-opacity: 0.7"/>
    <path d="M 287.298425 104.428346 
L 296.029134 104.428346 
L 296.029134 100.459843 
L 287.298425 100.459843 
L 287.298425 104.428346 
" clip-path="url(#pd5c675535c)" style="fill: #21a585; fill-opacity: 0.7"/>
    <path d="M 287.298425 100.459843 
L 296.029134 100.459843 
L 296.029134 96.491339 
L 287.298425 96.491339 
L 287.298425 100.459843 
" clip-path="url(#pd5c675535c)" style="fill: #25ab82; fill-opacity: 0.7"/>
    <path d="M 287.298425 96.491339 
L 296.029134 96.491339 
L 296.029134 92.522835 
L 287.298425 92.522835 
L 287.298425 96.491339 
" clip-path="url(#pd5c675535c)" style="fill: #2cb17e; fill-opacity: 0.7"/>
    <path d="M 287.298425 92.522835 
L 296.029134 92.522835 
L 296.029134 88.554331 
L 287.298425 88.554331 
L 287.298425 92.522835 
" clip-path="url(#pd5c675535c)" style="fill: #34b679; fill-opacity: 0.7"/>
    <path d="M 287.298425 88.554331 
L 296.029134 88.554331 
L 296.029134 84.585827 
L 287.298425 84.585827 
L 287.298425 88.554331 
" clip-path="url(#pd5c675535c)" style="fill: #3fbc73; fill-opacity: 0.7"/>
    <path d="M 287.298425 84.585827 
L 296.029134 84.585827 
L 296.029134 80.617323 
L 287.298425 80.617323 
L 287.298425 84.585827 
" clip-path="url(#pd5c675535c)" style="fill: #4ac16d; fill-opacity: 0.7"/>
    <path d="M 287.298425 80.617323 
L 296.029134 80.617323 
L 296.029134 76.648819 
L 287.298425 76.648819 
L 287.298425 80.617323 
" clip-path="url(#pd5c675535c)" style="fill: #56c667; fill-opacity: 0.7"/>
    <path d="M 287.298425 76.648819 
L 296.029134 76.648819 
L 296.029134 72.680315 
L 287.298425 72.680315 
L 287.298425 76.648819 
" clip-path="url(#pd5c675535c)" style="fill: #65cb5e; fill-opacity: 0.7"/>
    <path d="M 287.298425 72.680315 
L 296.029134 72.680315 
L 296.029134 68.711811 
L 287.298425 68.711811 
L 287.298425 72.680315 
" clip-path="url(#pd5c675535c)" style="fill: #73d056; fill-opacity: 0.7"/>
    <path d="M 287.298425 68.711811 
L 296.029134 68.711811 
L 296.029134 64.743307 
L 287.298425 64.743307 
L 287.298425 68.711811 
" clip-path="url(#pd5c675535c)" style="fill: #84d44b; fill-opacity: 0.7"/>
    <path d="M 287.298425 64.743307 
L 296.029134 64.743307 
L 296.029134 60.774803 
L 287.298425 60.774803 
L 287.298425 64.743307 
" clip-path="url(#pd5c675535c)" style="fill: #93d741; fill-opacity: 0.7"/>
    <path d="M 287.298425 60.774803 
L 296.029134 60.774803 
L 296.029134 56.806299 
L 287.298425 56.806299 
L 287.298425 60.774803 
" clip-path="url(#pd5c675535c)" style="fill: #a2da37; fill-opacity: 0.7"/>
    <path d="M 287.298425 56.806299 
L 296.029134 56.806299 
L 296.029134 52.837795 
L 287.298425 52.837795 
L 287.298425 56.806299 
" clip-path="url(#pd5c675535c)" style="fill: #b5de2b; fill-opacity: 0.7"/>
    <path d="M 287.298425 52.837795 
L 296.029134 52.837795 
L 296.029134 48.869291 
L 287.298425 48.869291 
L 287.298425 52.837795 
" clip-path="url(#pd5c675535c)" style="fill: #c5e021; fill-opacity: 0.7"/>
    <path d="M 287.298425 48.869291 
L 296.029134 48.869291 
L 296.029134 44.900787 
L 287.298425 44.900787 
L 287.298425 48.869291 
" clip-path="url(#pd5c675535c)" style="fill: #d8e219; fill-opacity: 0.7"/>
    <path d="M 287.298425 44.900787 
L 296.029134 44.900787 
L 296.029134 40.932283 
L 287.298425 40.932283 
L 287.298425 44.900787 
" clip-path="url(#pd5c675535c)" style="fill: #e7e419; fill-opacity: 0.7"/>
    <path d="M 287.298425 40.932283 
L 296.029134 40.932283 
L 296.029134 36.96378 
L 287.298425 36.96378 
L 287.298425 40.932283 
" clip-path="url(#pd5c675535c)" style="fill: #f6e620; fill-opacity: 0.7"/>
   </g>
   <g id="matplotlib.axis_3"/>
   <g id="matplotlib.axis_4">
    <g id="ytick_1">
     <g id="line2d_28">
      <defs>
       <path id="m71f3d8f738" d="M 0 0 
L -2 0 
" style="stroke: #000000; stroke-width: 0.3"/>
      </defs>
      <g>
       <use xlink:href="#m71f3d8f738" x="296.029134" y="195.703937" style="stroke: #000000; stroke-width: 0.3"/>
      </g>
     </g>
     <g id="text_15">
      <!-- 0.328 -->
      <g transform="translate(299.529134 198.567062) scale(0.08 -0.08)">
       <defs>
        <path id="ArialMT-2212" d="M 3381 1997 
L 356 1997 
L 356 2522 
L 3381 2522 
L 3381 1997 
z
" transform="scale(0.015625)"/>
        <path id="ArialMT-30" d="M 266 2259 
Q 266 3072 433 3567 
Q 600 4063 929 4331 
Q 1259 4600 1759 4600 
Q 2128 4600 2406 4451 
Q 2684 4303 2865 4023 
Q 3047 3744 3150 3342 
Q 3253 2941 3253 2259 
Q 3253 1453 3087 958 
Q 2922 463 2592 192 
Q 2263 -78 1759 -78 
Q 1097 -78 719 397 
Q 266 969 266 2259 
z
M 844 2259 
Q 844 1131 1108 757 
Q 1372 384 1759 384 
Q 2147 384 2411 759 
Q 2675 1134 2675 2259 
Q 2675 3391 2411 3762 
Q 2147 4134 1753 4134 
Q 1366 4134 1134 3806 
Q 844 3388 844 2259 
z
" transform="scale(0.015625)"/>
        <path id="ArialMT-2e" d="M 581 0 
L 581 641 
L 1222 641 
L 1222 0 
L 581 0 
z
" transform="scale(0.015625)"/>
        <path id="ArialMT-33" d="M 269 1209 
L 831 1284 
Q 928 806 1161 595 
Q 1394 384 1728 384 
Q 2125 384 2398 659 
Q 2672 934 2672 1341 
Q 2672 1728 2419 1979 
Q 2166 2231 1775 2231 
Q 1616 2231 1378 2169 
L 1441 2663 
Q 1497 2656 1531 2656 
Q 1891 2656 2178 2843 
Q 2466 3031 2466 3422 
Q 2466 3731 2256 3934 
Q 2047 4138 1716 4138 
Q 1388 4138 1169 3931 
Q 950 3725 888 3313 
L 325 3413 
Q 428 3978 793 4289 
Q 1159 4600 1703 4600 
Q 2078 4600 2393 4439 
Q 2709 4278 2876 4000 
Q 3044 3722 3044 3409 
Q 3044 3113 2884 2869 
Q 2725 2625 2413 2481 
Q 2819 2388 3044 2092 
Q 3269 1797 3269 1353 
Q 3269 753 2831 336 
Q 2394 -81 1725 -81 
Q 1122 -81 723 278 
Q 325 638 269 1209 
z
" transform="scale(0.015625)"/>
        <path id="ArialMT-32" d="M 3222 541 
L 3222 0 
L 194 0 
Q 188 203 259 391 
Q 375 700 629 1000 
Q 884 1300 1366 1694 
Q 2113 2306 2375 2664 
Q 2638 3022 2638 3341 
Q 2638 3675 2398 3904 
Q 2159 4134 1775 4134 
Q 1369 4134 1125 3890 
Q 881 3647 878 3216 
L 300 3275 
Q 359 3922 746 4261 
Q 1134 4600 1788 4600 
Q 2447 4600 2831 4234 
Q 3216 3869 3216 3328 
Q 3216 3053 3103 2787 
Q 2991 2522 2730 2228 
Q 2469 1934 1863 1422 
Q 1356 997 1212 845 
Q 1069 694 975 541 
L 3222 541 
z
" transform="scale(0.015625)"/>
        <path id="ArialMT-38" d="M 1131 2484 
Q 781 2613 612 2850 
Q 444 3088 444 3419 
Q 444 3919 803 4259 
Q 1163 4600 1759 4600 
Q 2359 4600 2725 4251 
Q 3091 3903 3091 3403 
Q 3091 3084 2923 2848 
Q 2756 2613 2416 2484 
Q 2838 2347 3058 2040 
Q 3278 1734 3278 1309 
Q 3278 722 2862 322 
Q 2447 -78 1769 -78 
Q 1091 -78 675 323 
Q 259 725 259 1325 
Q 259 1772 486 2073 
Q 713 2375 1131 2484 
z
M 1019 3438 
Q 1019 3113 1228 2906 
Q 1438 2700 1772 2700 
Q 2097 2700 2305 2904 
Q 2513 3109 2513 3406 
Q 2513 3716 2298 3927 
Q 2084 4138 1766 4138 
Q 1444 4138 1231 3931 
Q 1019 3725 1019 3438 
z
M 838 1322 
Q 838 1081 952 856 
Q 1066 631 1291 507 
Q 1516 384 1775 384 
Q 2178 384 2440 643 
Q 2703 903 2703 1303 
Q 2703 1709 2433 1975 
Q 2163 2241 1756 2241 
Q 1359 2241 1098 1978 
Q 838 1716 838 1322 
z
" transform="scale(0.015625)"/>
       </defs>
       <use xlink:href="#ArialMT-2212"/>
       <use xlink:href="#ArialMT-30" transform="translate(58.398438 0)"/>
       <use xlink:href="#ArialMT-2e" transform="translate(114.013672 0)"/>
       <use xlink:href="#ArialMT-33" transform="translate(141.796875 0)"/>
       <use xlink:href="#ArialMT-32" transform="translate(197.412109 0)"/>
       <use xlink:href="#ArialMT-38" transform="translate(253.027344 0)"/>
      </g>
     </g>
    </g>
    <g id="ytick_2">
     <g id="line2d_29">
      <g>
       <use xlink:href="#m71f3d8f738" x="296.029134" y="175.861417" style="stroke: #000000; stroke-width: 0.3"/>
      </g>
     </g>
     <g id="text_16">
      <!-- 0.288 -->
      <g transform="translate(299.529134 178.724542) scale(0.08 -0.08)">
       <use xlink:href="#ArialMT-2212"/>
       <use xlink:href="#ArialMT-30" transform="translate(58.398438 0)"/>
       <use xlink:href="#ArialMT-2e" transform="translate(114.013672 0)"/>
       <use xlink:href="#ArialMT-32" transform="translate(141.796875 0)"/>
       <use xlink:href="#ArialMT-38" transform="translate(197.412109 0)"/>
       <use xlink:href="#ArialMT-38" transform="translate(253.027344 0)"/>
      </g>
     </g>
    </g>
    <g id="ytick_3">
     <g id="line2d_30">
      <g>
       <use xlink:href="#m71f3d8f738" x="296.029134" y="156.018898" style="stroke: #000000; stroke-width: 0.3"/>
      </g>
     </g>
     <g id="text_17">
      <!-- 0.248 -->
      <g transform="translate(299.529134 158.882023) scale(0.08 -0.08)">
       <defs>
        <path id="ArialMT-34" d="M 2069 0 
L 2069 1097 
L 81 1097 
L 81 1613 
L 2172 4581 
L 2631 4581 
L 2631 1613 
L 3250 1613 
L 3250 1097 
L 2631 1097 
L 2631 0 
L 2069 0 
z
M 2069 1613 
L 2069 3678 
L 634 1613 
L 2069 1613 
z
" transform="scale(0.015625)"/>
       </defs>
       <use xlink:href="#ArialMT-2212"/>
       <use xlink:href="#ArialMT-30" transform="translate(58.398438 0)"/>
       <use xlink:href="#ArialMT-2e" transform="translate(114.013672 0)"/>
       <use xlink:href="#ArialMT-32" transform="translate(141.796875 0)"/>
       <use xlink:href="#ArialMT-34" transform="translate(197.412109 0)"/>
       <use xlink:href="#ArialMT-38" transform="translate(253.027344 0)"/>
      </g>
     </g>
    </g>
    <g id="ytick_4">
     <g id="line2d_31">
      <g>
       <use xlink:href="#m71f3d8f738" x="296.029134" y="136.176378" style="stroke: #000000; stroke-width: 0.3"/>
      </g>
     </g>
     <g id="text_18">
      <!-- 0.208 -->
      <g transform="translate(299.529134 139.039503) scale(0.08 -0.08)">
       <use xlink:href="#ArialMT-2212"/>
       <use xlink:href="#ArialMT-30" transform="translate(58.398438 0)"/>
       <use xlink:href="#ArialMT-2e" transform="translate(114.013672 0)"/>
       <use xlink:href="#ArialMT-32" transform="translate(141.796875 0)"/>
       <use xlink:href="#ArialMT-30" transform="translate(197.412109 0)"/>
       <use xlink:href="#ArialMT-38" transform="translate(253.027344 0)"/>
      </g>
     </g>
    </g>
    <g id="ytick_5">
     <g id="line2d_32">
      <g>
       <use xlink:href="#m71f3d8f738" x="296.029134" y="116.333858" style="stroke: #000000; stroke-width: 0.3"/>
      </g>
     </g>
     <g id="text_19">
      <!-- 0.168 -->
      <g transform="translate(299.529134 119.196983) scale(0.08 -0.08)">
       <defs>
        <path id="ArialMT-31" d="M 2384 0 
L 1822 0 
L 1822 3584 
Q 1619 3391 1289 3197 
Q 959 3003 697 2906 
L 697 3450 
Q 1169 3672 1522 3987 
Q 1875 4303 2022 4600 
L 2384 4600 
L 2384 0 
z
" transform="scale(0.015625)"/>
        <path id="ArialMT-36" d="M 3184 3459 
L 2625 3416 
Q 2550 3747 2413 3897 
Q 2184 4138 1850 4138 
Q 1581 4138 1378 3988 
Q 1113 3794 959 3422 
Q 806 3050 800 2363 
Q 1003 2672 1297 2822 
Q 1591 2972 1913 2972 
Q 2475 2972 2870 2558 
Q 3266 2144 3266 1488 
Q 3266 1056 3080 686 
Q 2894 316 2569 119 
Q 2244 -78 1831 -78 
Q 1128 -78 684 439 
Q 241 956 241 2144 
Q 241 3472 731 4075 
Q 1159 4600 1884 4600 
Q 2425 4600 2770 4297 
Q 3116 3994 3184 3459 
z
M 888 1484 
Q 888 1194 1011 928 
Q 1134 663 1356 523 
Q 1578 384 1822 384 
Q 2178 384 2434 671 
Q 2691 959 2691 1453 
Q 2691 1928 2437 2201 
Q 2184 2475 1800 2475 
Q 1419 2475 1153 2201 
Q 888 1928 888 1484 
z
" transform="scale(0.015625)"/>
       </defs>
       <use xlink:href="#ArialMT-2212"/>
       <use xlink:href="#ArialMT-30" transform="translate(58.398438 0)"/>
       <use xlink:href="#ArialMT-2e" transform="translate(114.013672 0)"/>
       <use xlink:href="#ArialMT-31" transform="translate(141.796875 0)"/>
       <use xlink:href="#ArialMT-36" transform="translate(197.412109 0)"/>
       <use xlink:href="#ArialMT-38" transform="translate(253.027344 0)"/>
      </g>
     </g>
    </g>
    <g id="ytick_6">
     <g id="line2d_33">
      <g>
       <use xlink:href="#m71f3d8f738" x="296.029134" y="96.491339" style="stroke: #000000; stroke-width: 0.3"/>
      </g>
     </g>
     <g id="text_20">
      <!-- 0.128 -->
      <g transform="translate(299.529134 99.354464) scale(0.08 -0.08)">
       <use xlink:href="#ArialMT-2212"/>
       <use xlink:href="#ArialMT-30" transform="translate(58.398438 0)"/>
       <use xlink:href="#ArialMT-2e" transform="translate(114.013672 0)"/>
       <use xlink:href="#ArialMT-31" transform="translate(141.796875 0)"/>
       <use xlink:href="#ArialMT-32" transform="translate(197.412109 0)"/>
       <use xlink:href="#ArialMT-38" transform="translate(253.027344 0)"/>
      </g>
     </g>
    </g>
    <g id="ytick_7">
     <g id="line2d_34">
      <g>
       <use xlink:href="#m71f3d8f738" x="296.029134" y="76.648819" style="stroke: #000000; stroke-width: 0.3"/>
      </g>
     </g>
     <g id="text_21">
      <!-- 0.088 -->
      <g transform="translate(299.529134 79.511944) scale(0.08 -0.08)">
       <use xlink:href="#ArialMT-2212"/>
       <use xlink:href="#ArialMT-30" transform="translate(58.398438 0)"/>
       <use xlink:href="#ArialMT-2e" transform="translate(114.013672 0)"/>
       <use xlink:href="#ArialMT-30" transform="translate(141.796875 0)"/>
       <use xlink:href="#ArialMT-38" transform="translate(197.412109 0)"/>
       <use xlink:href="#ArialMT-38" transform="translate(253.027344 0)"/>
      </g>
     </g>
    </g>
    <g id="ytick_8">
     <g id="line2d_35">
      <g>
       <use xlink:href="#m71f3d8f738" x="296.029134" y="56.806299" style="stroke: #000000; stroke-width: 0.3"/>
      </g>
     </g>
     <g id="text_22">
      <!-- 0.048 -->
      <g transform="translate(299.529134 59.669424) scale(0.08 -0.08)">
       <use xlink:href="#ArialMT-2212"/>
       <use xlink:href="#ArialMT-30" transform="translate(58.398438 0)"/>
       <use xlink:href="#ArialMT-2e" transform="translate(114.013672 0)"/>
       <use xlink:href="#ArialMT-30" transform="translate(141.796875 0)"/>
       <use xlink:href="#ArialMT-34" transform="translate(197.412109 0)"/>
       <use xlink:href="#ArialMT-38" transform="translate(253.027344 0)"/>
      </g>
     </g>
    </g>
    <g id="ytick_9">
     <g id="line2d_36">
      <g>
       <use xlink:href="#m71f3d8f738" x="296.029134" y="36.96378" style="stroke: #000000; stroke-width: 0.3"/>
      </g>
     </g>
     <g id="text_23">
      <!-- 0.008 -->
      <g transform="translate(299.529134 39.826905) scale(0.08 -0.08)">
       <use xlink:href="#ArialMT-2212"/>
       <use xlink:href="#ArialMT-30" transform="translate(58.398438 0)"/>
       <use xlink:href="#ArialMT-2e" transform="translate(114.013672 0)"/>
       <use xlink:href="#ArialMT-30" transform="translate(141.796875 0)"/>
       <use xlink:href="#ArialMT-30" transform="translate(197.412109 0)"/>
       <use xlink:href="#ArialMT-38" transform="translate(253.027344 0)"/>
      </g>
     </g>
    </g>
    <g id="text_24">
     <!-- Formation Energy (eV/atom) -->
     <g transform="translate(335.498821 179.408077) rotate(-90) scale(0.1 -0.1)">
      <defs>
       <path id="ArialMT-46" d="M 525 0 
L 525 4581 
L 3616 4581 
L 3616 4041 
L 1131 4041 
L 1131 2622 
L 3281 2622 
L 3281 2081 
L 1131 2081 
L 1131 0 
L 525 0 
z
" transform="scale(0.015625)"/>
       <path id="ArialMT-6f" d="M 213 1659 
Q 213 2581 725 3025 
Q 1153 3394 1769 3394 
Q 2453 3394 2887 2945 
Q 3322 2497 3322 1706 
Q 3322 1066 3130 698 
Q 2938 331 2570 128 
Q 2203 -75 1769 -75 
Q 1072 -75 642 372 
Q 213 819 213 1659 
z
M 791 1659 
Q 791 1022 1069 705 
Q 1347 388 1769 388 
Q 2188 388 2466 706 
Q 2744 1025 2744 1678 
Q 2744 2294 2464 2611 
Q 2184 2928 1769 2928 
Q 1347 2928 1069 2612 
Q 791 2297 791 1659 
z
" transform="scale(0.015625)"/>
       <path id="ArialMT-72" d="M 416 0 
L 416 3319 
L 922 3319 
L 922 2816 
Q 1116 3169 1280 3281 
Q 1444 3394 1641 3394 
Q 1925 3394 2219 3213 
L 2025 2691 
Q 1819 2813 1613 2813 
Q 1428 2813 1281 2702 
Q 1134 2591 1072 2394 
Q 978 2094 978 1738 
L 978 0 
L 416 0 
z
" transform="scale(0.015625)"/>
       <path id="ArialMT-6d" d="M 422 0 
L 422 3319 
L 925 3319 
L 925 2853 
Q 1081 3097 1340 3245 
Q 1600 3394 1931 3394 
Q 2300 3394 2536 3241 
Q 2772 3088 2869 2813 
Q 3263 3394 3894 3394 
Q 4388 3394 4653 3120 
Q 4919 2847 4919 2278 
L 4919 0 
L 4359 0 
L 4359 2091 
Q 4359 2428 4304 2576 
Q 4250 2725 4106 2815 
Q 3963 2906 3769 2906 
Q 3419 2906 3187 2673 
Q 2956 2441 2956 1928 
L 2956 0 
L 2394 0 
L 2394 2156 
Q 2394 2531 2256 2718 
Q 2119 2906 1806 2906 
Q 1569 2906 1367 2781 
Q 1166 2656 1075 2415 
Q 984 2175 984 1722 
L 984 0 
L 422 0 
z
" transform="scale(0.015625)"/>
       <path id="ArialMT-61" d="M 2588 409 
Q 2275 144 1986 34 
Q 1697 -75 1366 -75 
Q 819 -75 525 192 
Q 231 459 231 875 
Q 231 1119 342 1320 
Q 453 1522 633 1644 
Q 813 1766 1038 1828 
Q 1203 1872 1538 1913 
Q 2219 1994 2541 2106 
Q 2544 2222 2544 2253 
Q 2544 2597 2384 2738 
Q 2169 2928 1744 2928 
Q 1347 2928 1158 2789 
Q 969 2650 878 2297 
L 328 2372 
Q 403 2725 575 2942 
Q 747 3159 1072 3276 
Q 1397 3394 1825 3394 
Q 2250 3394 2515 3294 
Q 2781 3194 2906 3042 
Q 3031 2891 3081 2659 
Q 3109 2516 3109 2141 
L 3109 1391 
Q 3109 606 3145 398 
Q 3181 191 3288 0 
L 2700 0 
Q 2613 175 2588 409 
z
M 2541 1666 
Q 2234 1541 1622 1453 
Q 1275 1403 1131 1340 
Q 988 1278 909 1158 
Q 831 1038 831 891 
Q 831 666 1001 516 
Q 1172 366 1500 366 
Q 1825 366 2078 508 
Q 2331 650 2450 897 
Q 2541 1088 2541 1459 
L 2541 1666 
z
" transform="scale(0.015625)"/>
       <path id="ArialMT-74" d="M 1650 503 
L 1731 6 
Q 1494 -44 1306 -44 
Q 1000 -44 831 53 
Q 663 150 594 308 
Q 525 466 525 972 
L 525 2881 
L 113 2881 
L 113 3319 
L 525 3319 
L 525 4141 
L 1084 4478 
L 1084 3319 
L 1650 3319 
L 1650 2881 
L 1084 2881 
L 1084 941 
Q 1084 700 1114 631 
Q 1144 563 1211 522 
Q 1278 481 1403 481 
Q 1497 481 1650 503 
z
" transform="scale(0.015625)"/>
       <path id="ArialMT-69" d="M 425 3934 
L 425 4581 
L 988 4581 
L 988 3934 
L 425 3934 
z
M 425 0 
L 425 3319 
L 988 3319 
L 988 0 
L 425 0 
z
" transform="scale(0.015625)"/>
       <path id="ArialMT-6e" d="M 422 0 
L 422 3319 
L 928 3319 
L 928 2847 
Q 1294 3394 1984 3394 
Q 2284 3394 2536 3286 
Q 2788 3178 2913 3003 
Q 3038 2828 3088 2588 
Q 3119 2431 3119 2041 
L 3119 0 
L 2556 0 
L 2556 2019 
Q 2556 2363 2490 2533 
Q 2425 2703 2258 2804 
Q 2091 2906 1866 2906 
Q 1506 2906 1245 2678 
Q 984 2450 984 1813 
L 984 0 
L 422 0 
z
" transform="scale(0.015625)"/>
       <path id="ArialMT-20" transform="scale(0.015625)"/>
       <path id="ArialMT-45" d="M 506 0 
L 506 4581 
L 3819 4581 
L 3819 4041 
L 1113 4041 
L 1113 2638 
L 3647 2638 
L 3647 2100 
L 1113 2100 
L 1113 541 
L 3925 541 
L 3925 0 
L 506 0 
z
" transform="scale(0.015625)"/>
       <path id="ArialMT-65" d="M 2694 1069 
L 3275 997 
Q 3138 488 2766 206 
Q 2394 -75 1816 -75 
Q 1088 -75 661 373 
Q 234 822 234 1631 
Q 234 2469 665 2931 
Q 1097 3394 1784 3394 
Q 2450 3394 2872 2941 
Q 3294 2488 3294 1666 
Q 3294 1616 3291 1516 
L 816 1516 
Q 847 969 1125 678 
Q 1403 388 1819 388 
Q 2128 388 2347 550 
Q 2566 713 2694 1069 
z
M 847 1978 
L 2700 1978 
Q 2663 2397 2488 2606 
Q 2219 2931 1791 2931 
Q 1403 2931 1139 2672 
Q 875 2413 847 1978 
z
" transform="scale(0.015625)"/>
       <path id="ArialMT-67" d="M 319 -275 
L 866 -356 
Q 900 -609 1056 -725 
Q 1266 -881 1628 -881 
Q 2019 -881 2231 -725 
Q 2444 -569 2519 -288 
Q 2563 -116 2559 434 
Q 2191 0 1641 0 
Q 956 0 581 494 
Q 206 988 206 1678 
Q 206 2153 378 2554 
Q 550 2956 876 3175 
Q 1203 3394 1644 3394 
Q 2231 3394 2613 2919 
L 2613 3319 
L 3131 3319 
L 3131 450 
Q 3131 -325 2973 -648 
Q 2816 -972 2473 -1159 
Q 2131 -1347 1631 -1347 
Q 1038 -1347 672 -1080 
Q 306 -813 319 -275 
z
M 784 1719 
Q 784 1066 1043 766 
Q 1303 466 1694 466 
Q 2081 466 2343 764 
Q 2606 1063 2606 1700 
Q 2606 2309 2336 2618 
Q 2066 2928 1684 2928 
Q 1309 2928 1046 2623 
Q 784 2319 784 1719 
z
" transform="scale(0.015625)"/>
       <path id="ArialMT-79" d="M 397 -1278 
L 334 -750 
Q 519 -800 656 -800 
Q 844 -800 956 -737 
Q 1069 -675 1141 -563 
Q 1194 -478 1313 -144 
Q 1328 -97 1363 -6 
L 103 3319 
L 709 3319 
L 1400 1397 
Q 1534 1031 1641 628 
Q 1738 1016 1872 1384 
L 2581 3319 
L 3144 3319 
L 1881 -56 
Q 1678 -603 1566 -809 
Q 1416 -1088 1222 -1217 
Q 1028 -1347 759 -1347 
Q 597 -1347 397 -1278 
z
" transform="scale(0.015625)"/>
       <path id="ArialMT-28" d="M 1497 -1347 
Q 1031 -759 709 28 
Q 388 816 388 1659 
Q 388 2403 628 3084 
Q 909 3875 1497 4659 
L 1900 4659 
Q 1522 4009 1400 3731 
Q 1209 3300 1100 2831 
Q 966 2247 966 1656 
Q 966 153 1900 -1347 
L 1497 -1347 
z
" transform="scale(0.015625)"/>
       <path id="ArialMT-56" d="M 1803 0 
L 28 4581 
L 684 4581 
L 1875 1253 
Q 2019 853 2116 503 
Q 2222 878 2363 1253 
L 3600 4581 
L 4219 4581 
L 2425 0 
L 1803 0 
z
" transform="scale(0.015625)"/>
       <path id="ArialMT-2f" d="M 0 -78 
L 1328 4659 
L 1778 4659 
L 453 -78 
L 0 -78 
z
" transform="scale(0.015625)"/>
       <path id="ArialMT-29" d="M 791 -1347 
L 388 -1347 
Q 1322 153 1322 1656 
Q 1322 2244 1188 2822 
Q 1081 3291 891 3722 
Q 769 4003 388 4659 
L 791 4659 
Q 1378 3875 1659 3084 
Q 1900 2403 1900 1659 
Q 1900 816 1576 28 
Q 1253 -759 791 -1347 
z
" transform="scale(0.015625)"/>
      </defs>
      <use xlink:href="#ArialMT-46"/>
      <use xlink:href="#ArialMT-6f" transform="translate(61.083984 0)"/>
      <use xlink:href="#ArialMT-72" transform="translate(116.699219 0)"/>
      <use xlink:href="#ArialMT-6d" transform="translate(150 0)"/>
      <use xlink:href="#ArialMT-61" transform="translate(233.300781 0)"/>
      <use xlink:href="#ArialMT-74" transform="translate(288.916016 0)"/>
      <use xlink:href="#ArialMT-69" transform="translate(316.699219 0)"/>
      <use xlink:href="#ArialMT-6f" transform="translate(338.916016 0)"/>
      <use xlink:href="#ArialMT-6e" transform="translate(394.53125 0)"/>
      <use xlink:href="#ArialMT-20" transform="translate(450.146484 0)"/>
      <use xlink:href="#ArialMT-45" transform="translate(477.929688 0)"/>
      <use xlink:href="#ArialMT-6e" transform="translate(544.628906 0)"/>
      <use xlink:href="#ArialMT-65" transform="translate(600.244141 0)"/>
      <use xlink:href="#ArialMT-72" transform="translate(655.859375 0)"/>
      <use xlink:href="#ArialMT-67" transform="translate(689.160156 0)"/>
      <use xlink:href="#ArialMT-79" transform="translate(744.775391 0)"/>
      <use xlink:href="#ArialMT-20" transform="translate(794.775391 0)"/>
      <use xlink:href="#ArialMT-28" transform="translate(822.558594 0)"/>
      <use xlink:href="#ArialMT-65" transform="translate(855.859375 0)"/>
      <use xlink:href="#ArialMT-56" transform="translate(911.474609 0)"/>
      <use xlink:href="#ArialMT-2f" transform="translate(978.173828 0)"/>
      <use xlink:href="#ArialMT-61" transform="translate(1005.957031 0)"/>
      <use xlink:href="#ArialMT-74" transform="translate(1061.572266 0)"/>
      <use xlink:href="#ArialMT-6f" transform="translate(1089.355469 0)"/>
      <use xlink:href="#ArialMT-6d" transform="translate(1144.970703 0)"/>
      <use xlink:href="#ArialMT-29" transform="translate(1228.271484 0)"/>
     </g>
    </g>
   </g>
   <g id="LineCollection_1"/>
   <g id="patch_6">
    <path d="M 287.298425 195.703937 
L 291.66378 203.640945 
L 296.029134 195.703937 
L 296.029134 36.96378 
L 291.66378 29.026772 
L 287.298425 36.96378 
L 287.298425 195.703937 
z
" style="fill: none; stroke: #000000; stroke-width: 0.8; stroke-linejoin: miter; stroke-linecap: square"/>
   </g>
  </g>
 </g>
 <defs>
  <clipPath id="pf0bed641fb">
   <rect x="7.2" y="7.2" width="263.622047" height="218.267717"/>
  </clipPath>
  <clipPath id="pd5c675535c">
   <rect x="287.298425" y="36.96378" width="8.730709" height="158.740157"/>
  </clipPath>
 </defs>
</svg>
