<?xml version="1.0" encoding="utf-8" standalone="no"?>
<!DOCTYPE svg PUBLIC "-//W3C//DTD SVG 1.1//EN"
  "http://www.w3.org/Graphics/SVG/1.1/DTD/svg11.dtd">
<svg xmlns:xlink="http://www.w3.org/1999/xlink" width="344.803509pt" height="232.667717pt" viewBox="0 0 344.803509 232.667717" xmlns="http://www.w3.org/2000/svg" version="1.1">
 <metadata>
  <rdf:RDF xmlns:dc="http://purl.org/dc/elements/1.1/" xmlns:cc="http://creativecommons.org/ns#" xmlns:rdf="http://www.w3.org/1999/02/22-rdf-syntax-ns#">
   <cc:Work>
    <dc:type rdf:resource="http://purl.org/dc/dcmitype/StillImage"/>
    <dc:date>2026-01-27T21:37:28.083399</dc:date>
    <dc:format>image/svg+xml</dc:format>
    <dc:creator>
     <cc:Agent>
      <dc:title>Matplotlib v3.10.8, https://matplotlib.org/</dc:title>
     </cc:Agent>
    </dc:creator>
   </cc:Work>
  </rdf:RDF>
 </metadata>
 <defs>
  <style type="text/css">*{stroke-linejoin: round; stroke-linecap: butt}</style>
 </defs>
 <g id="figure_1">
  <g id="patch_1">
   <path d="M 0 232.667717 
L 344.803509 232.667717 
L 344.803509 0 
L 0 0 
L 0 232.667717 
z
" style="fill: none"/>
  </g>
  <g id="axes_1">
   <g id="patch_2">
    <path d="M 7.2 225.467717 
L 270.822047 225.467717 
L 270.822047 7.2 
L 7.2 7.2 
L 7.2 225.467717 
z
" style="fill: none"/>
   </g>
   <g id="TriContourSet_1">
    <path d="M 50.393818 165.319921 
L 57.382785 166.267046 
L 59.949005 166.13055 
L 56.697647 155.375819 
L 51.863239 163.001952 
z
" clip-path="url(#p61d7e26a37)" style="fill: #440154; fill-opacity: 0.7"/>
    <path d="M 48.963892 167.575586 
L 49.623711 167.755929 
L 50.296043 167.905926 
L 63.082482 169.638709 
L 68.298679 169.361261 
L 61.689844 147.500779 
L 56.697647 155.375819 
L 59.949005 166.13055 
L 57.382785 166.267046 
L 50.393818 165.319921 
L 49.139871 167.297984 
z
" clip-path="url(#p61d7e26a37)" style="fill: #450559; fill-opacity: 0.7"/>
    <path d="M 47.950255 169.174568 
L 52.410621 170.393689 
L 56.955573 171.407662 
L 68.782178 173.010371 
L 76.648353 172.591972 
L 66.682041 139.625739 
L 61.689844 147.500779 
L 68.298679 169.361261 
L 63.082482 169.638709 
L 50.296043 167.905926 
L 49.623711 167.755929 
L 48.963892 167.575586 
z
" clip-path="url(#p61d7e26a37)" style="fill: #470e61; fill-opacity: 0.7"/>
    <path d="M 46.936618 170.77355 
L 55.197531 173.031449 
L 63.615104 174.909399 
L 74.481874 176.382033 
L 84.998027 175.822683 
L 71.674237 131.750699 
L 66.682041 139.625739 
L 76.648353 172.591972 
L 68.782178 173.010371 
L 56.955573 171.407662 
L 52.410621 170.393689 
L 47.950255 169.174568 
z
" clip-path="url(#p61d7e26a37)" style="fill: #481769; fill-opacity: 0.7"/>
    <path d="M 45.92298 172.372532 
L 57.984441 175.669209 
L 70.274635 178.411135 
L 80.181571 179.753696 
L 93.347701 179.053394 
L 76.666434 123.875659 
L 71.674237 131.750699 
L 84.998027 175.822683 
L 74.481874 176.382033 
L 63.615104 174.909399 
L 55.197531 173.031449 
L 46.936618 170.77355 
z
" clip-path="url(#p61d7e26a37)" style="fill: #482071; fill-opacity: 0.7"/>
    <path d="M 44.909343 173.971515 
L 60.77135 178.306969 
L 76.934165 181.912872 
L 85.881267 183.125358 
L 101.697375 182.284104 
L 81.65863 116.000619 
L 76.666434 123.875659 
L 93.347701 179.053394 
L 80.181571 179.753696 
L 70.274635 178.411135 
L 57.984441 175.669209 
L 45.92298 172.372532 
z
" clip-path="url(#p61d7e26a37)" style="fill: #482878; fill-opacity: 0.7"/>
    <path d="M 43.895706 175.570497 
L 63.55826 180.944729 
L 83.593696 185.414608 
L 91.580963 186.497021 
L 110.047049 185.514815 
L 86.650827 108.125579 
L 81.65863 116.000619 
L 101.697375 182.284104 
L 85.881267 183.125358 
L 76.934165 181.912872 
L 60.77135 178.306969 
L 44.909343 173.971515 
z
" clip-path="url(#p61d7e26a37)" style="fill: #46307e; fill-opacity: 0.7"/>
    <path d="M 42.882069 177.169479 
L 66.34517 183.582489 
L 90.253227 188.916345 
L 97.28066 189.868683 
L 118.396723 188.745526 
L 91.643023 100.250539 
L 86.650827 108.125579 
L 110.047049 185.514815 
L 91.580963 186.497021 
L 83.593696 185.414608 
L 63.55826 180.944729 
L 43.895706 175.570497 
z
" clip-path="url(#p61d7e26a37)" style="fill: #453882; fill-opacity: 0.7"/>
    <path d="M 41.868431 178.768462 
L 69.13208 186.220249 
L 96.912757 192.418081 
L 102.980356 193.240345 
L 126.746397 191.976237 
L 96.63522 92.375499 
L 91.643023 100.250539 
L 118.396723 188.745526 
L 97.28066 189.868683 
L 90.253227 188.916345 
L 66.34517 183.582489 
L 42.882069 177.169479 
z
" clip-path="url(#p61d7e26a37)" style="fill: #424086; fill-opacity: 0.7"/>
    <path d="M 40.854794 180.367444 
L 71.91899 188.858009 
L 103.572288 195.919817 
L 108.680052 196.612008 
L 135.096072 195.206948 
L 101.627417 84.500459 
L 96.63522 92.375499 
L 126.746397 191.976237 
L 102.980356 193.240345 
L 96.912757 192.418081 
L 69.13208 186.220249 
L 41.868431 178.768462 
z
" clip-path="url(#p61d7e26a37)" style="fill: #3f4788; fill-opacity: 0.7"/>
    <path d="M 39.841157 181.966426 
L 74.7059 191.495769 
L 110.231819 199.421554 
L 114.379749 199.98367 
L 143.445746 198.437659 
L 106.619613 76.625419 
L 101.627417 84.500459 
L 135.096072 195.206948 
L 108.680052 196.612008 
L 103.572288 195.919817 
L 71.91899 188.858009 
L 40.854794 180.367444 
z
" clip-path="url(#p61d7e26a37)" style="fill: #3d4e8a; fill-opacity: 0.7"/>
    <path d="M 38.92908 183.4052 
L 41.548621 184.309148 
L 77.49281 194.133529 
L 116.891349 202.92329 
L 120.079445 203.355332 
L 151.79542 201.66837 
L 117.710557 88.92361 
L 115.79638 83.421235 
L 111.569183 75.165892 
L 109.557015 71.991756 
L 109.053973 72.78529 
L 106.619613 76.625419 
L 143.445746 198.437659 
L 114.379749 199.98367 
L 110.231819 199.421554 
L 74.7059 191.495769 
L 39.841157 181.966426 
L 39.154188 183.050099 
z
" clip-path="url(#p61d7e26a37)" style="fill: #39558c; fill-opacity: 0.7"/>
    <path d="M 38.23058 184.507063 
L 48.97845 188.215926 
L 80.27972 196.771289 
L 123.55088 206.425027 
L 125.779141 206.726995 
L 160.145094 204.899081 
L 134.605836 120.421186 
L 128.955711 104.179684 
L 116.478185 79.812173 
L 110.538815 70.442996 
L 109.557015 71.991756 
L 111.569183 75.165892 
L 115.79638 83.421235 
L 117.710557 88.92361 
L 151.79542 201.66837 
L 120.079445 203.355332 
L 116.891349 202.92329 
L 77.49281 194.133529 
L 41.548621 184.309148 
L 38.92908 183.4052 
z
" clip-path="url(#p61d7e26a37)" style="fill: #365c8d; fill-opacity: 0.7"/>
    <path d="M 37.53208 185.608926 
L 56.40828 192.122703 
L 83.06663 199.409049 
L 130.210411 209.926763 
L 131.478838 210.098657 
L 168.494768 208.129791 
L 151.501116 151.918762 
L 142.115043 124.938134 
L 121.387186 84.458454 
L 111.520615 68.894236 
L 110.538815 70.442996 
L 116.478185 79.812173 
L 128.955711 104.179684 
L 134.605836 120.421186 
L 160.145094 204.899081 
L 125.779141 206.726995 
L 123.55088 206.425027 
L 80.27972 196.771289 
L 48.97845 188.215926 
L 38.23058 184.507063 
z
" clip-path="url(#p61d7e26a37)" style="fill: #33628d; fill-opacity: 0.7"/>
    <path d="M 36.833579 186.710789 
L 63.838109 196.029481 
L 85.853539 202.046808 
L 136.869941 213.4285 
L 137.178534 213.470319 
L 176.844442 211.360502 
L 168.396395 183.416338 
L 155.274374 145.696583 
L 126.296188 89.104735 
L 112.502416 67.345475 
L 111.520615 68.894236 
L 121.387186 84.458454 
L 142.115043 124.938134 
L 151.501116 151.918762 
L 168.494768 208.129791 
L 131.478838 210.098657 
L 130.210411 209.926763 
L 83.06663 199.409049 
L 56.40828 192.122703 
L 37.53208 185.608926 
z
" clip-path="url(#p61d7e26a37)" style="fill: #30698e; fill-opacity: 0.7"/>
    <path d="M 36.135079 187.812652 
L 71.267939 199.936258 
L 88.640449 204.684568 
L 132.879899 214.554331 
L 139.011024 214.554331 
L 185.098794 214.554331 
L 185.166582 214.554331 
L 168.433705 166.455032 
L 131.205189 93.751017 
L 113.484216 65.796715 
L 112.502416 67.345475 
L 126.296188 89.104735 
L 155.274374 145.696583 
L 168.396395 183.416338 
L 176.844442 211.360502 
L 137.178534 213.470319 
L 136.869941 213.4285 
L 85.853539 202.046808 
L 63.838109 196.029481 
L 36.833579 186.710789 
z
" clip-path="url(#p61d7e26a37)" style="fill: #2e6f8e; fill-opacity: 0.7"/>
    <path d="M 35.436579 188.914515 
L 78.697768 203.843036 
L 91.427359 207.322328 
L 123.843521 214.554331 
L 132.879899 214.554331 
L 88.640449 204.684568 
L 71.267939 199.936258 
L 36.135079 187.812652 
z
M 191.104424 214.554331 
L 181.593036 187.213481 
L 136.114191 98.397298 
L 114.466016 64.247954 
L 113.484216 65.796715 
L 131.205189 93.751017 
L 168.433705 166.455032 
L 185.166582 214.554331 
z
" clip-path="url(#p61d7e26a37)" style="fill: #2b758e; fill-opacity: 0.7"/>
    <path d="M 34.738079 190.016378 
L 86.127597 207.749813 
L 94.214269 209.960088 
L 114.807142 214.554331 
L 123.843521 214.554331 
L 91.427359 207.322328 
L 78.697768 203.843036 
L 35.436579 188.914515 
z
M 197.042265 214.554331 
L 194.752367 207.97193 
L 141.023192 103.043579 
L 115.447817 62.699194 
L 114.466016 64.247954 
L 136.114191 98.397298 
L 181.593036 187.213481 
L 191.104424 214.554331 
z
" clip-path="url(#p61d7e26a37)" style="fill: #297b8e; fill-opacity: 0.7"/>
    <path d="M 34.039579 191.118241 
L 93.557427 211.656591 
L 97.001179 212.597848 
L 105.770763 214.554331 
L 114.807142 214.554331 
L 94.214269 209.960088 
L 86.127597 207.749813 
L 34.738079 190.016378 
z
M 200.65277 214.554331 
L 145.932193 107.689861 
L 116.429617 61.150433 
L 115.447817 62.699194 
L 141.023192 103.043579 
L 194.752367 207.97193 
L 197.042265 214.554331 
L 198.925125 214.554331 
z
" clip-path="url(#p61d7e26a37)" style="fill: #26828e; fill-opacity: 0.7"/>
    <path d="M 33.341079 192.220104 
L 96.578783 214.042098 
L 98.141321 214.554331 
L 99.068289 214.554331 
L 105.770763 214.554331 
L 97.001179 212.597848 
L 93.557427 211.656591 
L 34.039579 191.118241 
z
M 203.182616 214.554331 
L 150.841195 112.336142 
L 117.411417 59.601673 
L 116.429617 61.150433 
L 145.932193 107.689861 
L 200.65277 214.554331 
z
" clip-path="url(#p61d7e26a37)" style="fill: #24878e; fill-opacity: 0.7"/>
    <path d="M 32.642579 193.321967 
L 86.93995 212.058841 
L 94.552298 214.554331 
L 98.141321 214.554331 
L 96.578783 214.042098 
L 33.341079 192.220104 
z
M 205.712462 214.554331 
L 155.750196 116.982423 
L 118.393218 58.052912 
L 117.411417 59.601673 
L 150.841195 112.336142 
L 203.182616 214.554331 
z
" clip-path="url(#p61d7e26a37)" style="fill: #228d8d; fill-opacity: 0.7"/>
    <path d="M 31.944079 194.42383 
L 77.301116 210.075584 
L 90.963275 214.554331 
L 94.552298 214.554331 
L 86.93995 212.058841 
L 32.642579 193.321967 
z
M 208.242308 214.554331 
L 160.659198 121.628705 
L 119.375018 56.504152 
L 118.393218 58.052912 
L 155.750196 116.982423 
L 205.712462 214.554331 
z
" clip-path="url(#p61d7e26a37)" style="fill: #20938c; fill-opacity: 0.7"/>
    <path d="M 31.245578 195.525692 
L 67.662283 208.092327 
L 87.374253 214.554331 
L 90.963275 214.554331 
L 77.301116 210.075584 
L 31.944079 194.42383 
z
M 210.772154 214.554331 
L 165.568199 126.274986 
L 120.356818 54.955392 
L 119.375018 56.504152 
L 160.659198 121.628705 
L 208.242308 214.554331 
z
" clip-path="url(#p61d7e26a37)" style="fill: #1f998a; fill-opacity: 0.7"/>
    <path d="M 30.547078 196.627555 
L 58.023449 206.10907 
L 83.78523 214.554331 
L 87.374253 214.554331 
L 67.662283 208.092327 
L 31.245578 195.525692 
z
M 213.302 214.554331 
L 170.477201 130.921267 
L 121.338618 53.406631 
L 120.356818 54.955392 
L 165.568199 126.274986 
L 210.772154 214.554331 
z
" clip-path="url(#p61d7e26a37)" style="fill: #1fa088; fill-opacity: 0.7"/>
    <path d="M 29.848578 197.729418 
L 48.384616 204.125813 
L 80.196207 214.554331 
L 83.78523 214.554331 
L 58.023449 206.10907 
L 30.547078 196.627555 
z
M 215.831846 214.554331 
L 175.386202 135.567549 
L 122.320419 51.857871 
L 121.338618 53.406631 
L 170.477201 130.921267 
L 213.302 214.554331 
z
" clip-path="url(#p61d7e26a37)" style="fill: #21a585; fill-opacity: 0.7"/>
    <path d="M 29.150078 198.831281 
L 38.745783 202.142556 
L 76.607184 214.554331 
L 80.196207 214.554331 
L 48.384616 204.125813 
L 29.848578 197.729418 
z
M 218.361691 214.554331 
L 180.295204 140.21383 
L 123.302219 50.30911 
L 122.320419 51.857871 
L 175.386202 135.567549 
L 215.831846 214.554331 
z
" clip-path="url(#p61d7e26a37)" style="fill: #25ab82; fill-opacity: 0.7"/>
    <path d="M 28.451578 199.933144 
L 29.106949 200.159299 
L 73.018162 214.554331 
L 76.607184 214.554331 
L 38.745783 202.142556 
L 29.150078 198.831281 
z
M 220.891537 214.554331 
L 185.204205 144.860111 
L 124.284019 48.76035 
L 123.302219 50.30911 
L 180.295204 140.21383 
L 218.361691 214.554331 
z
" clip-path="url(#p61d7e26a37)" style="fill: #2cb17e; fill-opacity: 0.7"/>
    <path d="M 27.82812 200.91663 
L 69.429139 214.554331 
L 73.018162 214.554331 
L 29.106949 200.159299 
L 28.451578 199.933144 
L 28.400374 200.013916 
z
M 223.421383 214.554331 
L 190.113207 149.506392 
L 125.26582 47.211589 
L 124.284019 48.76035 
L 185.204205 144.860111 
L 220.891537 214.554331 
z
" clip-path="url(#p61d7e26a37)" style="fill: #34b679; fill-opacity: 0.7"/>
    <path d="M 27.210599 201.890751 
L 65.840116 214.554331 
L 69.429139 214.554331 
L 27.82812 200.91663 
z
M 225.951229 214.554331 
L 195.022208 154.152674 
L 126.24762 45.662829 
L 125.26582 47.211589 
L 190.113207 149.506392 
L 223.421383 214.554331 
z
" clip-path="url(#p61d7e26a37)" style="fill: #3fbc73; fill-opacity: 0.7"/>
    <path d="M 26.593078 202.864873 
L 62.251093 214.554331 
L 65.840116 214.554331 
L 27.210599 201.890751 
z
M 228.481075 214.554331 
L 199.931209 158.798955 
L 127.22942 44.114069 
L 126.24762 45.662829 
L 195.022208 154.152674 
L 225.951229 214.554331 
z
" clip-path="url(#p61d7e26a37)" style="fill: #4ac16d; fill-opacity: 0.7"/>
    <path d="M 25.975556 203.838994 
L 58.662071 214.554331 
L 62.251093 214.554331 
L 26.593078 202.864873 
z
M 231.010921 214.554331 
L 204.840211 163.445236 
L 128.21122 42.565308 
L 127.22942 44.114069 
L 199.931209 158.798955 
L 228.481075 214.554331 
z
" clip-path="url(#p61d7e26a37)" style="fill: #56c667; fill-opacity: 0.7"/>
    <path d="M 25.358035 204.813116 
L 55.073048 214.554331 
L 58.662071 214.554331 
L 25.975556 203.838994 
z
M 233.540767 214.554331 
L 209.749212 168.091518 
L 129.193021 41.016548 
L 128.21122 42.565308 
L 204.840211 163.445236 
L 231.010921 214.554331 
z
" clip-path="url(#p61d7e26a37)" style="fill: #65cb5e; fill-opacity: 0.7"/>
    <path d="M 24.740513 205.787237 
L 51.484025 214.554331 
L 55.073048 214.554331 
L 25.358035 204.813116 
z
M 236.070613 214.554331 
L 214.658214 172.737799 
L 130.174821 39.467787 
L 129.193021 41.016548 
L 209.749212 168.091518 
L 233.540767 214.554331 
z
" clip-path="url(#p61d7e26a37)" style="fill: #73d056; fill-opacity: 0.7"/>
    <path d="M 24.122992 206.761359 
L 47.895002 214.554331 
L 51.484025 214.554331 
L 24.740513 205.787237 
z
M 238.600459 214.554331 
L 219.567215 177.38408 
L 131.156621 37.919027 
L 130.174821 39.467787 
L 214.658214 172.737799 
L 236.070613 214.554331 
z
" clip-path="url(#p61d7e26a37)" style="fill: #84d44b; fill-opacity: 0.7"/>
    <path d="M 23.50547 207.73548 
L 44.30598 214.554331 
L 47.895002 214.554331 
L 24.122992 206.761359 
z
M 241.130305 214.554331 
L 224.476217 182.030362 
L 132.138422 36.370266 
L 131.156621 37.919027 
L 219.567215 177.38408 
L 238.600459 214.554331 
z
" clip-path="url(#p61d7e26a37)" style="fill: #93d741; fill-opacity: 0.7"/>
    <path d="M 22.887949 208.709602 
L 40.716957 214.554331 
L 44.30598 214.554331 
L 23.50547 207.73548 
z
M 243.660151 214.554331 
L 229.385218 186.676643 
L 133.120222 34.821506 
L 132.138422 36.370266 
L 224.476217 182.030362 
L 241.130305 214.554331 
z
" clip-path="url(#p61d7e26a37)" style="fill: #a2da37; fill-opacity: 0.7"/>
    <path d="M 22.270427 209.683723 
L 37.127934 214.554331 
L 40.716957 214.554331 
L 22.887949 208.709602 
z
M 246.189997 214.554331 
L 234.29422 191.322924 
L 134.102022 33.272746 
L 133.120222 34.821506 
L 229.385218 186.676643 
L 243.660151 214.554331 
z
" clip-path="url(#p61d7e26a37)" style="fill: #b5de2b; fill-opacity: 0.7"/>
    <path d="M 21.652906 210.657845 
L 33.538911 214.554331 
L 37.127934 214.554331 
L 22.270427 209.683723 
z
M 248.719843 214.554331 
L 239.203221 195.969205 
L 135.083822 31.723985 
L 134.102022 33.272746 
L 234.29422 191.322924 
L 246.189997 214.554331 
z
" clip-path="url(#p61d7e26a37)" style="fill: #c5e021; fill-opacity: 0.7"/>
    <path d="M 21.035385 211.631966 
L 29.949889 214.554331 
L 33.538911 214.554331 
L 21.652906 210.657845 
z
M 251.249689 214.554331 
L 244.112223 200.615487 
L 136.065623 30.175225 
L 135.083822 31.723985 
L 239.203221 195.969205 
L 248.719843 214.554331 
z
" clip-path="url(#p61d7e26a37)" style="fill: #d8e219; fill-opacity: 0.7"/>
    <path d="M 20.417863 212.606088 
L 26.360866 214.554331 
L 29.949889 214.554331 
L 21.035385 211.631966 
z
M 253.779535 214.554331 
L 249.021224 205.261768 
L 137.047423 28.626464 
L 136.065623 30.175225 
L 244.112223 200.615487 
L 251.249689 214.554331 
z
" clip-path="url(#p61d7e26a37)" style="fill: #e7e419; fill-opacity: 0.7"/>
    <path d="M 19.800342 213.580209 
L 22.771843 214.554331 
L 26.360866 214.554331 
L 20.417863 212.606088 
z
M 256.309381 214.554331 
L 253.930225 209.908049 
L 138.029223 27.077704 
L 137.047423 28.626464 
L 249.021224 205.261768 
L 253.779535 214.554331 
z
" clip-path="url(#p61d7e26a37)" style="fill: #f6e620; fill-opacity: 0.7"/>
    <path d="M 22.771843 214.554331 
L 19.800342 213.580209 
L 19.18282 214.554331 
z
M 138.029223 27.077704 
L 253.930225 209.908049 
L 256.309381 214.554331 
L 258.839227 214.554331 
L 139.011024 25.528943 
z
" clip-path="url(#p61d7e26a37)" style="fill: #fde725; fill-opacity: 0.7"/>
   </g>
   <g id="matplotlib.axis_1"/>
   <g id="matplotlib.axis_2"/>
   <g id="line2d_1">
    <path d="M 49.139871 167.297984 
L 39.154188 183.050099 
" clip-path="url(#p61d7e26a37)" style="fill: none; stroke: #555555; stroke-opacity: 0.9; stroke-width: 0.5; stroke-linecap: square"/>
   </g>
   <g id="line2d_2">
    <path d="M 39.154188 183.050099 
L 28.400374 200.013916 
" clip-path="url(#p61d7e26a37)" style="fill: none; stroke: #555555; stroke-opacity: 0.9; stroke-width: 0.5; stroke-linecap: square"/>
   </g>
   <g id="line2d_3">
    <path d="M 99.068289 214.554331 
L 49.139871 167.297984 
" clip-path="url(#p61d7e26a37)" style="fill: none; stroke: #555555; stroke-opacity: 0.9; stroke-width: 0.5; stroke-linecap: square"/>
   </g>
   <g id="line2d_4">
    <path d="M 99.068289 214.554331 
L 39.154188 183.050099 
" clip-path="url(#p61d7e26a37)" style="fill: none; stroke: #555555; stroke-opacity: 0.9; stroke-width: 0.5; stroke-linecap: square"/>
   </g>
   <g id="line2d_5">
    <path d="M 99.068289 214.554331 
L 19.18282 214.554331 
" clip-path="url(#p61d7e26a37)" style="fill: none; stroke: #555555; stroke-opacity: 0.9; stroke-width: 0.5; stroke-linecap: square"/>
   </g>
   <g id="line2d_6">
    <path d="M 109.053973 72.78529 
L 198.925125 214.554331 
" clip-path="url(#p61d7e26a37)" style="fill: none; stroke: #555555; stroke-opacity: 0.9; stroke-width: 0.5; stroke-linecap: square"/>
   </g>
   <g id="line2d_7">
    <path d="M 139.011024 214.554331 
L 49.139871 167.297984 
" clip-path="url(#p61d7e26a37)" style="fill: none; stroke: #555555; stroke-opacity: 0.9; stroke-width: 0.5; stroke-linecap: square"/>
   </g>
   <g id="line2d_8">
    <path d="M 109.053973 72.78529 
L 51.863239 163.001952 
" clip-path="url(#p61d7e26a37)" style="fill: none; stroke: #555555; stroke-opacity: 0.9; stroke-width: 0.5; stroke-linecap: square"/>
   </g>
   <g id="line2d_9">
    <path d="M 109.053973 72.78529 
L 258.839227 214.554331 
" clip-path="url(#p61d7e26a37)" style="fill: none; stroke: #555555; stroke-opacity: 0.9; stroke-width: 0.5; stroke-linecap: square"/>
   </g>
   <g id="line2d_10">
    <path d="M 198.925125 214.554331 
L 258.839227 214.554331 
" clip-path="url(#p61d7e26a37)" style="fill: none; stroke: #555555; stroke-opacity: 0.9; stroke-width: 0.5; stroke-linecap: square"/>
   </g>
   <g id="line2d_11">
    <path d="M 49.139871 167.297984 
L 51.863239 163.001952 
" clip-path="url(#p61d7e26a37)" style="fill: none; stroke: #555555; stroke-opacity: 0.9; stroke-width: 0.5; stroke-linecap: square"/>
   </g>
   <g id="line2d_12">
    <path d="M 109.053973 72.78529 
L 185.098794 214.554331 
" clip-path="url(#p61d7e26a37)" style="fill: none; stroke: #555555; stroke-opacity: 0.9; stroke-width: 0.5; stroke-linecap: square"/>
   </g>
   <g id="line2d_13">
    <path d="M 185.098794 214.554331 
L 51.863239 163.001952 
" clip-path="url(#p61d7e26a37)" style="fill: none; stroke: #555555; stroke-opacity: 0.9; stroke-width: 0.5; stroke-linecap: square"/>
   </g>
   <g id="line2d_14">
    <path d="M 109.053973 72.78529 
L 139.011024 25.528943 
" clip-path="url(#p61d7e26a37)" style="fill: none; stroke: #555555; stroke-opacity: 0.9; stroke-width: 0.5; stroke-linecap: square"/>
   </g>
   <g id="line2d_15">
    <path d="M 139.011024 25.528943 
L 258.839227 214.554331 
" clip-path="url(#p61d7e26a37)" style="fill: none; stroke: #555555; stroke-opacity: 0.9; stroke-width: 0.5; stroke-linecap: square"/>
   </g>
   <g id="line2d_16">
    <path d="M 198.925125 214.554331 
L 185.098794 214.554331 
" clip-path="url(#p61d7e26a37)" style="fill: none; stroke: #555555; stroke-opacity: 0.9; stroke-width: 0.5; stroke-linecap: square"/>
   </g>
   <g id="line2d_17">
    <path d="M 139.011024 214.554331 
L 51.863239 163.001952 
" clip-path="url(#p61d7e26a37)" style="fill: none; stroke: #555555; stroke-opacity: 0.9; stroke-width: 0.5; stroke-linecap: square"/>
   </g>
   <g id="line2d_18">
    <path d="M 28.400374 200.013916 
L 19.18282 214.554331 
" clip-path="url(#p61d7e26a37)" style="fill: none; stroke: #555555; stroke-opacity: 0.9; stroke-width: 0.5; stroke-linecap: square"/>
   </g>
   <g id="line2d_19">
    <path d="M 99.068289 214.554331 
L 28.400374 200.013916 
" clip-path="url(#p61d7e26a37)" style="fill: none; stroke: #555555; stroke-opacity: 0.9; stroke-width: 0.5; stroke-linecap: square"/>
   </g>
   <g id="line2d_20">
    <path d="M 139.011024 214.554331 
L 99.068289 214.554331 
" clip-path="url(#p61d7e26a37)" style="fill: none; stroke: #555555; stroke-opacity: 0.9; stroke-width: 0.5; stroke-linecap: square"/>
   </g>
   <g id="line2d_21">
    <path d="M 139.011024 214.554331 
L 185.098794 214.554331 
" clip-path="url(#p61d7e26a37)" style="fill: none; stroke: #555555; stroke-opacity: 0.9; stroke-width: 0.5; stroke-linecap: square"/>
   </g>
   <g id="PathCollection_1">
    <defs>
     <path id="mf548a96719" d="M 0 2.738613 
C 0.726289 2.738613 1.422928 2.450055 1.936492 1.936492 
C 2.450055 1.422928 2.738613 0.726289 2.738613 0 
C 2.738613 -0.726289 2.450055 -1.422928 1.936492 -1.936492 
C 1.422928 -2.450055 0.726289 -2.738613 0 -2.738613 
C -0.726289 -2.738613 -1.422928 -2.450055 -1.936492 -1.936492 
C -2.450055 -1.422928 -2.738613 -0.726289 -2.738613 0 
C -2.738613 0.726289 -2.450055 1.422928 -1.936492 1.936492 
C -1.422928 2.450055 -0.726289 2.738613 0 2.738613 
z
" style="stroke: #008000"/>
    </defs>
    <g clip-path="url(#p61d7e26a37)">
     <use xlink:href="#mf548a96719" x="49.139871" y="167.297984" style="fill: #008000; stroke: #008000"/>
     <use xlink:href="#mf548a96719" x="39.154188" y="183.050099" style="fill: #008000; stroke: #008000"/>
     <use xlink:href="#mf548a96719" x="28.400374" y="200.013916" style="fill: #008000; stroke: #008000"/>
     <use xlink:href="#mf548a96719" x="99.068289" y="214.554331" style="fill: #008000; stroke: #008000"/>
     <use xlink:href="#mf548a96719" x="19.18282" y="214.554331" style="fill: #008000; stroke: #008000"/>
     <use xlink:href="#mf548a96719" x="109.053973" y="72.78529" style="fill: #008000; stroke: #008000"/>
     <use xlink:href="#mf548a96719" x="198.925125" y="214.554331" style="fill: #008000; stroke: #008000"/>
     <use xlink:href="#mf548a96719" x="139.011024" y="214.554331" style="fill: #008000; stroke: #008000"/>
     <use xlink:href="#mf548a96719" x="51.863239" y="163.001952" style="fill: #008000; stroke: #008000"/>
     <use xlink:href="#mf548a96719" x="258.839227" y="214.554331" style="fill: #008000; stroke: #008000"/>
     <use xlink:href="#mf548a96719" x="185.098794" y="214.554331" style="fill: #008000; stroke: #008000"/>
     <use xlink:href="#mf548a96719" x="139.011024" y="25.528943" style="fill: #008000; stroke: #008000"/>
    </g>
   </g>
   <g id="PathCollection_2">
    <defs>
     <path id="m1f172cb101" d="M -0 2.236068 
L 1.341641 0 
L 0 -2.236068 
L -1.341641 -0 
z
" style="stroke: #d3d3d3"/>
    </defs>
    <g clip-path="url(#p61d7e26a37)">
     <use xlink:href="#m1f172cb101" x="139.011024" y="25.528943" style="fill: #d3d3d3; stroke: #d3d3d3"/>
     <use xlink:href="#m1f172cb101" x="139.011024" y="25.528943" style="fill: #d3d3d3; stroke: #d3d3d3"/>
     <use xlink:href="#m1f172cb101" x="139.011024" y="25.528943" style="fill: #d3d3d3; stroke: #d3d3d3"/>
     <use xlink:href="#m1f172cb101" x="139.011024" y="25.528943" style="fill: #d3d3d3; stroke: #d3d3d3"/>
     <use xlink:href="#m1f172cb101" x="139.011024" y="25.528943" style="fill: #d3d3d3; stroke: #d3d3d3"/>
     <use xlink:href="#m1f172cb101" x="139.011024" y="25.528943" style="fill: #d3d3d3; stroke: #d3d3d3"/>
     <use xlink:href="#m1f172cb101" x="139.011024" y="25.528943" style="fill: #d3d3d3; stroke: #d3d3d3"/>
     <use xlink:href="#m1f172cb101" x="258.839227" y="214.554331" style="fill: #d3d3d3; stroke: #d3d3d3"/>
     <use xlink:href="#m1f172cb101" x="258.839227" y="214.554331" style="fill: #d3d3d3; stroke: #d3d3d3"/>
     <use xlink:href="#m1f172cb101" x="258.839227" y="214.554331" style="fill: #d3d3d3; stroke: #d3d3d3"/>
     <use xlink:href="#m1f172cb101" x="258.839227" y="214.554331" style="fill: #d3d3d3; stroke: #d3d3d3"/>
     <use xlink:href="#m1f172cb101" x="258.839227" y="214.554331" style="fill: #d3d3d3; stroke: #d3d3d3"/>
     <use xlink:href="#m1f172cb101" x="258.839227" y="214.554331" style="fill: #d3d3d3; stroke: #d3d3d3"/>
     <use xlink:href="#m1f172cb101" x="258.839227" y="214.554331" style="fill: #d3d3d3; stroke: #d3d3d3"/>
     <use xlink:href="#m1f172cb101" x="19.18282" y="214.554331" style="fill: #d3d3d3; stroke: #d3d3d3"/>
     <use xlink:href="#m1f172cb101" x="19.18282" y="214.554331" style="fill: #d3d3d3; stroke: #d3d3d3"/>
     <use xlink:href="#m1f172cb101" x="19.18282" y="214.554331" style="fill: #d3d3d3; stroke: #d3d3d3"/>
     <use xlink:href="#m1f172cb101" x="19.18282" y="214.554331" style="fill: #d3d3d3; stroke: #d3d3d3"/>
     <use xlink:href="#m1f172cb101" x="19.18282" y="214.554331" style="fill: #d3d3d3; stroke: #d3d3d3"/>
     <use xlink:href="#m1f172cb101" x="19.18282" y="214.554331" style="fill: #d3d3d3; stroke: #d3d3d3"/>
     <use xlink:href="#m1f172cb101" x="19.18282" y="214.554331" style="fill: #d3d3d3; stroke: #d3d3d3"/>
     <use xlink:href="#m1f172cb101" x="19.18282" y="214.554331" style="fill: #d3d3d3; stroke: #d3d3d3"/>
     <use xlink:href="#m1f172cb101" x="19.18282" y="214.554331" style="fill: #d3d3d3; stroke: #d3d3d3"/>
     <use xlink:href="#m1f172cb101" x="139.011024" y="214.554331" style="fill: #d3d3d3; stroke: #d3d3d3"/>
     <use xlink:href="#m1f172cb101" x="198.925125" y="214.554331" style="fill: #d3d3d3; stroke: #d3d3d3"/>
     <use xlink:href="#m1f172cb101" x="198.925125" y="214.554331" style="fill: #d3d3d3; stroke: #d3d3d3"/>
     <use xlink:href="#m1f172cb101" x="198.925125" y="214.554331" style="fill: #d3d3d3; stroke: #d3d3d3"/>
     <use xlink:href="#m1f172cb101" x="210.907946" y="214.554331" style="fill: #d3d3d3; stroke: #d3d3d3"/>
     <use xlink:href="#m1f172cb101" x="91.079742" y="101.139098" style="fill: #d3d3d3; stroke: #d3d3d3"/>
     <use xlink:href="#m1f172cb101" x="91.079742" y="101.139098" style="fill: #d3d3d3; stroke: #d3d3d3"/>
     <use xlink:href="#m1f172cb101" x="99.068289" y="214.554331" style="fill: #d3d3d3; stroke: #d3d3d3"/>
     <use xlink:href="#m1f172cb101" x="99.068289" y="214.554331" style="fill: #d3d3d3; stroke: #d3d3d3"/>
     <use xlink:href="#m1f172cb101" x="109.053973" y="167.297984" style="fill: #d3d3d3; stroke: #d3d3d3"/>
     <use xlink:href="#m1f172cb101" x="79.096922" y="214.554331" style="fill: #d3d3d3; stroke: #d3d3d3"/>
     <use xlink:href="#m1f172cb101" x="79.096922" y="214.554331" style="fill: #d3d3d3; stroke: #d3d3d3"/>
     <use xlink:href="#m1f172cb101" x="115.045383" y="214.554331" style="fill: #d3d3d3; stroke: #d3d3d3"/>
     <use xlink:href="#m1f172cb101" x="43.148461" y="176.749253" style="fill: #d3d3d3; stroke: #d3d3d3"/>
     <use xlink:href="#m1f172cb101" x="208.385247" y="214.554331" style="fill: #d3d3d3; stroke: #d3d3d3"/>
     <use xlink:href="#m1f172cb101" x="39.154188" y="183.050099" style="fill: #d3d3d3; stroke: #d3d3d3"/>
     <use xlink:href="#m1f172cb101" x="39.154188" y="183.050099" style="fill: #d3d3d3; stroke: #d3d3d3"/>
     <use xlink:href="#m1f172cb101" x="79.096922" y="167.297984" style="fill: #d3d3d3; stroke: #d3d3d3"/>
     <use xlink:href="#m1f172cb101" x="102.140807" y="200.013916" style="fill: #d3d3d3; stroke: #d3d3d3"/>
     <use xlink:href="#m1f172cb101" x="42.00724" y="178.549495" style="fill: #d3d3d3; stroke: #d3d3d3"/>
     <use xlink:href="#m1f172cb101" x="41.373228" y="179.549629" style="fill: #d3d3d3; stroke: #d3d3d3"/>
    </g>
   </g>
   <g id="PathCollection_3">
    <defs>
     <path id="m817593aa46" d="M 0 -5 
L -1.12257 -1.545085 
L -4.755283 -1.545085 
L -1.816356 0.59017 
L -2.938926 4.045085 
L -0 1.90983 
L 2.938926 4.045085 
L 1.816356 0.59017 
L 4.755283 -1.545085 
L 1.12257 -1.545085 
z
" style="stroke: #0000ff"/>
    </defs>
    <g clip-path="url(#p61d7e26a37)">
     <use xlink:href="#m817593aa46" x="102.140807" y="200.013916" style="fill: #0000ff; stroke: #0000ff"/>
    </g>
   </g>
   <g id="text_1">
    <!-- $\mathrm{Al_{3}Mo}$ -->
    <g transform="translate(52.212598 170.634022) scale(0.1 -0.1)">
     <defs>
      <path id="DejaVuSans-41" d="M 2188 4044 
L 1331 1722 
L 3047 1722 
L 2188 4044 
z
M 1831 4666 
L 2547 4666 
L 4325 0 
L 3669 0 
L 3244 1197 
L 1141 1197 
L 716 0 
L 50 0 
L 1831 4666 
z
" transform="scale(0.015625)"/>
      <path id="DejaVuSans-6c" d="M 603 4863 
L 1178 4863 
L 1178 0 
L 603 0 
L 603 4863 
z
" transform="scale(0.015625)"/>
      <path id="DejaVuSans-33" d="M 2597 2516 
Q 3050 2419 3304 2112 
Q 3559 1806 3559 1356 
Q 3559 666 3084 287 
Q 2609 -91 1734 -91 
Q 1441 -91 1130 -33 
Q 819 25 488 141 
L 488 750 
Q 750 597 1062 519 
Q 1375 441 1716 441 
Q 2309 441 2620 675 
Q 2931 909 2931 1356 
Q 2931 1769 2642 2001 
Q 2353 2234 1838 2234 
L 1294 2234 
L 1294 2753 
L 1863 2753 
Q 2328 2753 2575 2939 
Q 2822 3125 2822 3475 
Q 2822 3834 2567 4026 
Q 2313 4219 1838 4219 
Q 1578 4219 1281 4162 
Q 984 4106 628 3988 
L 628 4550 
Q 988 4650 1302 4700 
Q 1616 4750 1894 4750 
Q 2613 4750 3031 4423 
Q 3450 4097 3450 3541 
Q 3450 3153 3228 2886 
Q 3006 2619 2597 2516 
z
" transform="scale(0.015625)"/>
      <path id="DejaVuSans-4d" d="M 628 4666 
L 1569 4666 
L 2759 1491 
L 3956 4666 
L 4897 4666 
L 4897 0 
L 4281 0 
L 4281 4097 
L 3078 897 
L 2444 897 
L 1241 4097 
L 1241 0 
L 628 0 
L 628 4666 
z
" transform="scale(0.015625)"/>
      <path id="DejaVuSans-6f" d="M 1959 3097 
Q 1497 3097 1228 2736 
Q 959 2375 959 1747 
Q 959 1119 1226 758 
Q 1494 397 1959 397 
Q 2419 397 2687 759 
Q 2956 1122 2956 1747 
Q 2956 2369 2687 2733 
Q 2419 3097 1959 3097 
z
M 1959 3584 
Q 2709 3584 3137 3096 
Q 3566 2609 3566 1747 
Q 3566 888 3137 398 
Q 2709 -91 1959 -91 
Q 1206 -91 779 398 
Q 353 888 353 1747 
Q 353 2609 779 3096 
Q 1206 3584 1959 3584 
z
" transform="scale(0.015625)"/>
     </defs>
     <use xlink:href="#DejaVuSans-41" transform="translate(0 0.015625)"/>
     <use xlink:href="#DejaVuSans-6c" transform="translate(68.408203 0.015625)"/>
     <use xlink:href="#DejaVuSans-33" transform="translate(97.148438 -16.390625) scale(0.7)"/>
     <use xlink:href="#DejaVuSans-4d" transform="translate(144.418945 0.015625)"/>
     <use xlink:href="#DejaVuSans-6f" transform="translate(230.698242 0.015625)"/>
    </g>
   </g>
   <g id="text_2">
    <!-- $\mathrm{Al_{5}Mo}$ -->
    <g transform="translate(18.238176 192.621521) scale(0.1 -0.1)">
     <defs>
      <path id="DejaVuSans-35" d="M 691 4666 
L 3169 4666 
L 3169 4134 
L 1269 4134 
L 1269 2991 
Q 1406 3038 1543 3061 
Q 1681 3084 1819 3084 
Q 2600 3084 3056 2656 
Q 3513 2228 3513 1497 
Q 3513 744 3044 326 
Q 2575 -91 1722 -91 
Q 1428 -91 1123 -41 
Q 819 9 494 109 
L 494 744 
Q 775 591 1075 516 
Q 1375 441 1709 441 
Q 2250 441 2565 725 
Q 2881 1009 2881 1497 
Q 2881 1984 2565 2268 
Q 2250 2553 1709 2553 
Q 1456 2553 1204 2497 
Q 953 2441 691 2322 
L 691 4666 
z
" transform="scale(0.015625)"/>
     </defs>
     <use xlink:href="#DejaVuSans-41" transform="translate(0 0.015625)"/>
     <use xlink:href="#DejaVuSans-6c" transform="translate(68.408203 0.015625)"/>
     <use xlink:href="#DejaVuSans-35" transform="translate(97.148438 -16.390625) scale(0.7)"/>
     <use xlink:href="#DejaVuSans-4d" transform="translate(144.418945 0.015625)"/>
     <use xlink:href="#DejaVuSans-6f" transform="translate(230.698242 0.015625)"/>
    </g>
   </g>
   <g id="text_3">
    <!-- $\mathrm{Al_{12}Mo}$ -->
    <g transform="translate(33.719612 204.547031) scale(0.1 -0.1)">
     <defs>
      <path id="DejaVuSans-31" d="M 794 531 
L 1825 531 
L 1825 4091 
L 703 3866 
L 703 4441 
L 1819 4666 
L 2450 4666 
L 2450 531 
L 3481 531 
L 3481 0 
L 794 0 
L 794 531 
z
" transform="scale(0.015625)"/>
      <path id="DejaVuSans-32" d="M 1228 531 
L 3431 531 
L 3431 0 
L 469 0 
L 469 531 
Q 828 903 1448 1529 
Q 2069 2156 2228 2338 
Q 2531 2678 2651 2914 
Q 2772 3150 2772 3378 
Q 2772 3750 2511 3984 
Q 2250 4219 1831 4219 
Q 1534 4219 1204 4116 
Q 875 4013 500 3803 
L 500 4441 
Q 881 4594 1212 4672 
Q 1544 4750 1819 4750 
Q 2544 4750 2975 4387 
Q 3406 4025 3406 3419 
Q 3406 3131 3298 2873 
Q 3191 2616 2906 2266 
Q 2828 2175 2409 1742 
Q 1991 1309 1228 531 
z
" transform="scale(0.015625)"/>
     </defs>
     <use xlink:href="#DejaVuSans-41" transform="translate(0 0.015625)"/>
     <use xlink:href="#DejaVuSans-6c" transform="translate(68.408203 0.015625)"/>
     <use xlink:href="#DejaVuSans-31" transform="translate(97.148438 -16.390625) scale(0.7)"/>
     <use xlink:href="#DejaVuSans-32" transform="translate(141.68457 -16.390625) scale(0.7)"/>
     <use xlink:href="#DejaVuSans-4d" transform="translate(188.955078 0.015625)"/>
     <use xlink:href="#DejaVuSans-6f" transform="translate(275.234375 0.015625)"/>
    </g>
   </g>
   <g id="text_4">
    <!-- $\mathrm{Al_{2}Cu}$ -->
    <g transform="translate(92.061037 210.544971) scale(0.1 -0.1)">
     <defs>
      <path id="DejaVuSans-43" d="M 4122 4306 
L 4122 3641 
Q 3803 3938 3442 4084 
Q 3081 4231 2675 4231 
Q 1875 4231 1450 3742 
Q 1025 3253 1025 2328 
Q 1025 1406 1450 917 
Q 1875 428 2675 428 
Q 3081 428 3442 575 
Q 3803 722 4122 1019 
L 4122 359 
Q 3791 134 3420 21 
Q 3050 -91 2638 -91 
Q 1578 -91 968 557 
Q 359 1206 359 2328 
Q 359 3453 968 4101 
Q 1578 4750 2638 4750 
Q 3056 4750 3426 4639 
Q 3797 4528 4122 4306 
z
" transform="scale(0.015625)"/>
      <path id="DejaVuSans-75" d="M 544 1381 
L 544 3500 
L 1119 3500 
L 1119 1403 
Q 1119 906 1312 657 
Q 1506 409 1894 409 
Q 2359 409 2629 706 
Q 2900 1003 2900 1516 
L 2900 3500 
L 3475 3500 
L 3475 0 
L 2900 0 
L 2900 538 
Q 2691 219 2414 64 
Q 2138 -91 1772 -91 
Q 1169 -91 856 284 
Q 544 659 544 1381 
z
M 1991 3584 
L 1991 3584 
z
" transform="scale(0.015625)"/>
     </defs>
     <use xlink:href="#DejaVuSans-41" transform="translate(0 0.015625)"/>
     <use xlink:href="#DejaVuSans-6c" transform="translate(68.408203 0.015625)"/>
     <use xlink:href="#DejaVuSans-32" transform="translate(97.148438 -16.390625) scale(0.7)"/>
     <use xlink:href="#DejaVuSans-43" transform="translate(144.418945 0.015625)"/>
     <use xlink:href="#DejaVuSans-75" transform="translate(214.243164 0.015625)"/>
    </g>
   </g>
   <g id="text_5">
    <!-- $\mathrm{Al}$ -->
    <g transform="translate(19.586902 211.839411) scale(0.1 -0.1)">
     <use xlink:href="#DejaVuSans-41" transform="translate(0 0.015625)"/>
     <use xlink:href="#DejaVuSans-6c" transform="translate(68.408203 0.015625)"/>
    </g>
   </g>
   <g id="text_6">
    <!-- $\mathrm{AlMo_{3}}$ -->
    <g transform="translate(85.944882 81.733173) scale(0.1 -0.1)">
     <use xlink:href="#DejaVuSans-41" transform="translate(0 0.015625)"/>
     <use xlink:href="#DejaVuSans-6c" transform="translate(68.408203 0.015625)"/>
     <use xlink:href="#DejaVuSans-4d" transform="translate(96.191406 0.015625)"/>
     <use xlink:href="#DejaVuSans-6f" transform="translate(182.470703 0.015625)"/>
     <use xlink:href="#DejaVuSans-33" transform="translate(244.609375 -16.390625) scale(0.7)"/>
    </g>
   </g>
   <g id="text_7">
    <!-- $\mathrm{AlCu_{3}}$ -->
    <g transform="translate(205.316034 210.594971) scale(0.1 -0.1)">
     <use xlink:href="#DejaVuSans-41" transform="translate(0 0.015625)"/>
     <use xlink:href="#DejaVuSans-6c" transform="translate(68.408203 0.015625)"/>
     <use xlink:href="#DejaVuSans-43" transform="translate(96.191406 0.015625)"/>
     <use xlink:href="#DejaVuSans-75" transform="translate(166.015625 0.015625)"/>
     <use xlink:href="#DejaVuSans-33" transform="translate(230.351562 -16.390625) scale(0.7)"/>
    </g>
   </g>
   <g id="text_8">
    <!-- $\mathrm{AlCu}$ -->
    <g transform="translate(132.092842 211.215873) scale(0.1 -0.1)">
     <use xlink:href="#DejaVuSans-41" transform="translate(0 0.015625)"/>
     <use xlink:href="#DejaVuSans-6c" transform="translate(68.408203 0.015625)"/>
     <use xlink:href="#DejaVuSans-43" transform="translate(96.191406 0.015625)"/>
     <use xlink:href="#DejaVuSans-75" transform="translate(166.015625 0.015625)"/>
    </g>
   </g>
   <g id="text_9">
    <!-- $\mathrm{Al_{8}Mo_{3}}$ -->
    <g transform="translate(44.631421 156.361378) scale(0.1 -0.1)">
     <defs>
      <path id="DejaVuSans-38" d="M 2034 2216 
Q 1584 2216 1326 1975 
Q 1069 1734 1069 1313 
Q 1069 891 1326 650 
Q 1584 409 2034 409 
Q 2484 409 2743 651 
Q 3003 894 3003 1313 
Q 3003 1734 2745 1975 
Q 2488 2216 2034 2216 
z
M 1403 2484 
Q 997 2584 770 2862 
Q 544 3141 544 3541 
Q 544 4100 942 4425 
Q 1341 4750 2034 4750 
Q 2731 4750 3128 4425 
Q 3525 4100 3525 3541 
Q 3525 3141 3298 2862 
Q 3072 2584 2669 2484 
Q 3125 2378 3379 2068 
Q 3634 1759 3634 1313 
Q 3634 634 3220 271 
Q 2806 -91 2034 -91 
Q 1263 -91 848 271 
Q 434 634 434 1313 
Q 434 1759 690 2068 
Q 947 2378 1403 2484 
z
M 1172 3481 
Q 1172 3119 1398 2916 
Q 1625 2713 2034 2713 
Q 2441 2713 2670 2916 
Q 2900 3119 2900 3481 
Q 2900 3844 2670 4047 
Q 2441 4250 2034 4250 
Q 1625 4250 1398 4047 
Q 1172 3844 1172 3481 
z
" transform="scale(0.015625)"/>
     </defs>
     <use xlink:href="#DejaVuSans-41" transform="translate(0 0.015625)"/>
     <use xlink:href="#DejaVuSans-6c" transform="translate(68.408203 0.015625)"/>
     <use xlink:href="#DejaVuSans-38" transform="translate(97.148438 -16.390625) scale(0.7)"/>
     <use xlink:href="#DejaVuSans-4d" transform="translate(144.418945 0.015625)"/>
     <use xlink:href="#DejaVuSans-6f" transform="translate(230.698242 0.015625)"/>
     <use xlink:href="#DejaVuSans-33" transform="translate(292.836914 -16.390625) scale(0.7)"/>
    </g>
   </g>
   <g id="text_10">
    <!-- $\mathrm{Cu}$ -->
    <g transform="translate(245.859482 211.527642) scale(0.1 -0.1)">
     <use xlink:href="#DejaVuSans-43" transform="translate(0 0.78125)"/>
     <use xlink:href="#DejaVuSans-75" transform="translate(69.824219 0.78125)"/>
    </g>
   </g>
   <g id="text_11">
    <!-- $\mathrm{Al_{4}Cu_{9}}$ -->
    <g transform="translate(171.416976 210.594971) scale(0.1 -0.1)">
     <defs>
      <path id="DejaVuSans-34" d="M 2419 4116 
L 825 1625 
L 2419 1625 
L 2419 4116 
z
M 2253 4666 
L 3047 4666 
L 3047 1625 
L 3713 1625 
L 3713 1100 
L 3047 1100 
L 3047 0 
L 2419 0 
L 2419 1100 
L 313 1100 
L 313 1709 
L 2253 4666 
z
" transform="scale(0.015625)"/>
      <path id="DejaVuSans-39" d="M 703 97 
L 703 672 
Q 941 559 1184 500 
Q 1428 441 1663 441 
Q 2288 441 2617 861 
Q 2947 1281 2994 2138 
Q 2813 1869 2534 1725 
Q 2256 1581 1919 1581 
Q 1219 1581 811 2004 
Q 403 2428 403 3163 
Q 403 3881 828 4315 
Q 1253 4750 1959 4750 
Q 2769 4750 3195 4129 
Q 3622 3509 3622 2328 
Q 3622 1225 3098 567 
Q 2575 -91 1691 -91 
Q 1453 -91 1209 -44 
Q 966 3 703 97 
z
M 1959 2075 
Q 2384 2075 2632 2365 
Q 2881 2656 2881 3163 
Q 2881 3666 2632 3958 
Q 2384 4250 1959 4250 
Q 1534 4250 1286 3958 
Q 1038 3666 1038 3163 
Q 1038 2656 1286 2365 
Q 1534 2075 1959 2075 
z
" transform="scale(0.015625)"/>
     </defs>
     <use xlink:href="#DejaVuSans-41" transform="translate(0 0.015625)"/>
     <use xlink:href="#DejaVuSans-6c" transform="translate(68.408203 0.015625)"/>
     <use xlink:href="#DejaVuSans-34" transform="translate(97.148438 -16.390625) scale(0.7)"/>
     <use xlink:href="#DejaVuSans-43" transform="translate(144.418945 0.015625)"/>
     <use xlink:href="#DejaVuSans-75" transform="translate(214.243164 0.015625)"/>
     <use xlink:href="#DejaVuSans-39" transform="translate(278.579102 -16.390625) scale(0.7)"/>
    </g>
   </g>
   <g id="text_12">
    <!-- $\mathrm{Mo}$ -->
    <g transform="translate(129.647387 33.102406) scale(0.1 -0.1)">
     <use xlink:href="#DejaVuSans-4d" transform="translate(0 0.09375)"/>
     <use xlink:href="#DejaVuSans-6f" transform="translate(86.279297 0.09375)"/>
    </g>
   </g>
   <g id="text_13">
    <!-- $\mathrm{Al_{8}Cu_{4}Mo}$ -->
    <g style="fill: #0000ff" transform="translate(94.109856 195.867495) scale(0.1 -0.1)">
     <use xlink:href="#DejaVuSans-41" transform="translate(0 0.015625)"/>
     <use xlink:href="#DejaVuSans-6c" transform="translate(68.408203 0.015625)"/>
     <use xlink:href="#DejaVuSans-38" transform="translate(97.148438 -16.390625) scale(0.7)"/>
     <use xlink:href="#DejaVuSans-43" transform="translate(144.418945 0.015625)"/>
     <use xlink:href="#DejaVuSans-75" transform="translate(214.243164 0.015625)"/>
     <use xlink:href="#DejaVuSans-34" transform="translate(278.579102 -16.390625) scale(0.7)"/>
     <use xlink:href="#DejaVuSans-4d" transform="translate(325.849609 0.015625)"/>
     <use xlink:href="#DejaVuSans-6f" transform="translate(412.128906 0.015625)"/>
    </g>
   </g>
  </g>
  <g id="axes_2">
   <g id="patch_3">
    <path d="M 287.298425 195.703937 
L 296.029134 195.703937 
L 296.029134 36.96378 
L 287.298425 36.96378 
L 287.298425 195.703937 
z
" style="fill: none"/>
   </g>
   <g id="patch_4">
    <path d="M 287.298425 195.703937 
L 291.66378 203.640945 
L 296.029134 195.703937 
" style="fill: #440154; opacity: 0.7"/>
   </g>
   <g id="patch_5">
    <path d="M 287.298425 36.96378 
L 291.66378 29.026772 
L 296.029134 36.96378 
" style="fill: #fde725; opacity: 0.7"/>
   </g>
   <g id="QuadMesh_1">
    <path d="M 287.298425 195.703937 
L 296.029134 195.703937 
L 296.029134 191.735433 
L 287.298425 191.735433 
L 287.298425 195.703937 
" clip-path="url(#paa53f9a724)" style="fill: #450559; fill-opacity: 0.7"/>
    <path d="M 287.298425 191.735433 
L 296.029134 191.735433 
L 296.029134 187.766929 
L 287.298425 187.766929 
L 287.298425 191.735433 
" clip-path="url(#paa53f9a724)" style="fill: #470e61; fill-opacity: 0.7"/>
    <path d="M 287.298425 187.766929 
L 296.029134 187.766929 
L 296.029134 183.798425 
L 287.298425 183.798425 
L 287.298425 187.766929 
" clip-path="url(#paa53f9a724)" style="fill: #481769; fill-opacity: 0.7"/>
    <path d="M 287.298425 183.798425 
L 296.029134 183.798425 
L 296.029134 179.829921 
L 287.298425 179.829921 
L 287.298425 183.798425 
" clip-path="url(#paa53f9a724)" style="fill: #482071; fill-opacity: 0.7"/>
    <path d="M 287.298425 179.829921 
L 296.029134 179.829921 
L 296.029134 175.861417 
L 287.298425 175.861417 
L 287.298425 179.829921 
" clip-path="url(#paa53f9a724)" style="fill: #482878; fill-opacity: 0.7"/>
    <path d="M 287.298425 175.861417 
L 296.029134 175.861417 
L 296.029134 171.892913 
L 287.298425 171.892913 
L 287.298425 175.861417 
" clip-path="url(#paa53f9a724)" style="fill: #46307e; fill-opacity: 0.7"/>
    <path d="M 287.298425 171.892913 
L 296.029134 171.892913 
L 296.029134 167.924409 
L 287.298425 167.924409 
L 287.298425 171.892913 
" clip-path="url(#paa53f9a724)" style="fill: #453882; fill-opacity: 0.7"/>
    <path d="M 287.298425 167.924409 
L 296.029134 167.924409 
L 296.029134 163.955906 
L 287.298425 163.955906 
L 287.298425 167.924409 
" clip-path="url(#paa53f9a724)" style="fill: #424086; fill-opacity: 0.7"/>
    <path d="M 287.298425 163.955906 
L 296.029134 163.955906 
L 296.029134 159.987402 
L 287.298425 159.987402 
L 287.298425 163.955906 
" clip-path="url(#paa53f9a724)" style="fill: #3f4788; fill-opacity: 0.7"/>
    <path d="M 287.298425 159.987402 
L 296.029134 159.987402 
L 296.029134 156.018898 
L 287.298425 156.018898 
L 287.298425 159.987402 
" clip-path="url(#paa53f9a724)" style="fill: #3d4e8a; fill-opacity: 0.7"/>
    <path d="M 287.298425 156.018898 
L 296.029134 156.018898 
L 296.029134 152.050394 
L 287.298425 152.050394 
L 287.298425 156.018898 
" clip-path="url(#paa53f9a724)" style="fill: #39558c; fill-opacity: 0.7"/>
    <path d="M 287.298425 152.050394 
L 296.029134 152.050394 
L 296.029134 148.08189 
L 287.298425 148.08189 
L 287.298425 152.050394 
" clip-path="url(#paa53f9a724)" style="fill: #365c8d; fill-opacity: 0.7"/>
    <path d="M 287.298425 148.08189 
L 296.029134 148.08189 
L 296.029134 144.113386 
L 287.298425 144.113386 
L 287.298425 148.08189 
" clip-path="url(#paa53f9a724)" style="fill: #33628d; fill-opacity: 0.7"/>
    <path d="M 287.298425 144.113386 
L 296.029134 144.113386 
L 296.029134 140.144882 
L 287.298425 140.144882 
L 287.298425 144.113386 
" clip-path="url(#paa53f9a724)" style="fill: #30698e; fill-opacity: 0.7"/>
    <path d="M 287.298425 140.144882 
L 296.029134 140.144882 
L 296.029134 136.176378 
L 287.298425 136.176378 
L 287.298425 140.144882 
" clip-path="url(#paa53f9a724)" style="fill: #2e6f8e; fill-opacity: 0.7"/>
    <path d="M 287.298425 136.176378 
L 296.029134 136.176378 
L 296.029134 132.207874 
L 287.298425 132.207874 
L 287.298425 136.176378 
" clip-path="url(#paa53f9a724)" style="fill: #2b758e; fill-opacity: 0.7"/>
    <path d="M 287.298425 132.207874 
L 296.029134 132.207874 
L 296.029134 128.23937 
L 287.298425 128.23937 
L 287.298425 132.207874 
" clip-path="url(#paa53f9a724)" style="fill: #297b8e; fill-opacity: 0.7"/>
    <path d="M 287.298425 128.23937 
L 296.029134 128.23937 
L 296.029134 124.270866 
L 287.298425 124.270866 
L 287.298425 128.23937 
" clip-path="url(#paa53f9a724)" style="fill: #26828e; fill-opacity: 0.7"/>
    <path d="M 287.298425 124.270866 
L 296.029134 124.270866 
L 296.029134 120.302362 
L 287.298425 120.302362 
L 287.298425 124.270866 
" clip-path="url(#paa53f9a724)" style="fill: #24878e; fill-opacity: 0.7"/>
    <path d="M 287.298425 120.302362 
L 296.029134 120.302362 
L 296.029134 116.333858 
L 287.298425 116.333858 
L 287.298425 120.302362 
" clip-path="url(#paa53f9a724)" style="fill: #228d8d; fill-opacity: 0.7"/>
    <path d="M 287.298425 116.333858 
L 296.029134 116.333858 
L 296.029134 112.365354 
L 287.298425 112.365354 
L 287.298425 116.333858 
" clip-path="url(#paa53f9a724)" style="fill: #20938c; fill-opacity: 0.7"/>
    <path d="M 287.298425 112.365354 
L 296.029134 112.365354 
L 296.029134 108.39685 
L 287.298425 108.39685 
L 287.298425 112.365354 
" clip-path="url(#paa53f9a724)" style="fill: #1f998a; fill-opacity: 0.7"/>
    <path d="M 287.298425 108.39685 
L 296.029134 108.39685 
L 296.029134 104.428346 
L 287.298425 104.428346 
L 287.298425 108.39685 
" clip-path="url(#paa53f9a724)" style="fill: #1fa088; fill-opacity: 0.7"/>
    <path d="M 287.298425 104.428346 
L 296.029134 104.428346 
L 296.029134 100.459843 
L 287.298425 100.459843 
L 287.298425 104.428346 
" clip-path="url(#paa53f9a724)" style="fill: #21a585; fill-opacity: 0.7"/>
    <path d="M 287.298425 100.459843 
L 296.029134 100.459843 
L 296.029134 96.491339 
L 287.298425 96.491339 
L 287.298425 100.459843 
" clip-path="url(#paa53f9a724)" style="fill: #25ab82; fill-opacity: 0.7"/>
    <path d="M 287.298425 96.491339 
L 296.029134 96.491339 
L 296.029134 92.522835 
L 287.298425 92.522835 
L 287.298425 96.491339 
" clip-path="url(#paa53f9a724)" style="fill: #2cb17e; fill-opacity: 0.7"/>
    <path d="M 287.298425 92.522835 
L 296.029134 92.522835 
L 296.029134 88.554331 
L 287.298425 88.554331 
L 287.298425 92.522835 
" clip-path="url(#paa53f9a724)" style="fill: #34b679; fill-opacity: 0.7"/>
    <path d="M 287.298425 88.554331 
L 296.029134 88.554331 
L 296.029134 84.585827 
L 287.298425 84.585827 
L 287.298425 88.554331 
" clip-path="url(#paa53f9a724)" style="fill: #3fbc73; fill-opacity: 0.7"/>
    <path d="M 287.298425 84.585827 
L 296.029134 84.585827 
L 296.029134 80.617323 
L 287.298425 80.617323 
L 287.298425 84.585827 
" clip-path="url(#paa53f9a724)" style="fill: #4ac16d; fill-opacity: 0.7"/>
    <path d="M 287.298425 80.617323 
L 296.029134 80.617323 
L 296.029134 76.648819 
L 287.298425 76.648819 
L 287.298425 80.617323 
" clip-path="url(#paa53f9a724)" style="fill: #56c667; fill-opacity: 0.7"/>
    <path d="M 287.298425 76.648819 
L 296.029134 76.648819 
L 296.029134 72.680315 
L 287.298425 72.680315 
L 287.298425 76.648819 
" clip-path="url(#paa53f9a724)" style="fill: #65cb5e; fill-opacity: 0.7"/>
    <path d="M 287.298425 72.680315 
L 296.029134 72.680315 
L 296.029134 68.711811 
L 287.298425 68.711811 
L 287.298425 72.680315 
" clip-path="url(#paa53f9a724)" style="fill: #73d056; fill-opacity: 0.7"/>
    <path d="M 287.298425 68.711811 
L 296.029134 68.711811 
L 296.029134 64.743307 
L 287.298425 64.743307 
L 287.298425 68.711811 
" clip-path="url(#paa53f9a724)" style="fill: #84d44b; fill-opacity: 0.7"/>
    <path d="M 287.298425 64.743307 
L 296.029134 64.743307 
L 296.029134 60.774803 
L 287.298425 60.774803 
L 287.298425 64.743307 
" clip-path="url(#paa53f9a724)" style="fill: #93d741; fill-opacity: 0.7"/>
    <path d="M 287.298425 60.774803 
L 296.029134 60.774803 
L 296.029134 56.806299 
L 287.298425 56.806299 
L 287.298425 60.774803 
" clip-path="url(#paa53f9a724)" style="fill: #a2da37; fill-opacity: 0.7"/>
    <path d="M 287.298425 56.806299 
L 296.029134 56.806299 
L 296.029134 52.837795 
L 287.298425 52.837795 
L 287.298425 56.806299 
" clip-path="url(#paa53f9a724)" style="fill: #b5de2b; fill-opacity: 0.7"/>
    <path d="M 287.298425 52.837795 
L 296.029134 52.837795 
L 296.029134 48.869291 
L 287.298425 48.869291 
L 287.298425 52.837795 
" clip-path="url(#paa53f9a724)" style="fill: #c5e021; fill-opacity: 0.7"/>
    <path d="M 287.298425 48.869291 
L 296.029134 48.869291 
L 296.029134 44.900787 
L 287.298425 44.900787 
L 287.298425 48.869291 
" clip-path="url(#paa53f9a724)" style="fill: #d8e219; fill-opacity: 0.7"/>
    <path d="M 287.298425 44.900787 
L 296.029134 44.900787 
L 296.029134 40.932283 
L 287.298425 40.932283 
L 287.298425 44.900787 
" clip-path="url(#paa53f9a724)" style="fill: #e7e419; fill-opacity: 0.7"/>
    <path d="M 287.298425 40.932283 
L 296.029134 40.932283 
L 296.029134 36.96378 
L 287.298425 36.96378 
L 287.298425 40.932283 
" clip-path="url(#paa53f9a724)" style="fill: #f6e620; fill-opacity: 0.7"/>
   </g>
   <g id="matplotlib.axis_3"/>
   <g id="matplotlib.axis_4">
    <g id="ytick_1">
     <g id="line2d_22">
      <defs>
       <path id="mc91f902211" d="M 0 0 
L -2 0 
" style="stroke: #000000; stroke-width: 0.3"/>
      </defs>
      <g>
       <use xlink:href="#mc91f902211" x="296.029134" y="195.703937" style="stroke: #000000; stroke-width: 0.3"/>
      </g>
     </g>
     <g id="text_14">
      <!-- 0.328 -->
      <g transform="translate(299.529134 198.567062) scale(0.08 -0.08)">
       <defs>
        <path id="ArialMT-2212" d="M 3381 1997 
L 356 1997 
L 356 2522 
L 3381 2522 
L 3381 1997 
z
" transform="scale(0.015625)"/>
        <path id="ArialMT-30" d="M 266 2259 
Q 266 3072 433 3567 
Q 600 4063 929 4331 
Q 1259 4600 1759 4600 
Q 2128 4600 2406 4451 
Q 2684 4303 2865 4023 
Q 3047 3744 3150 3342 
Q 3253 2941 3253 2259 
Q 3253 1453 3087 958 
Q 2922 463 2592 192 
Q 2263 -78 1759 -78 
Q 1097 -78 719 397 
Q 266 969 266 2259 
z
M 844 2259 
Q 844 1131 1108 757 
Q 1372 384 1759 384 
Q 2147 384 2411 759 
Q 2675 1134 2675 2259 
Q 2675 3391 2411 3762 
Q 2147 4134 1753 4134 
Q 1366 4134 1134 3806 
Q 844 3388 844 2259 
z
" transform="scale(0.015625)"/>
        <path id="ArialMT-2e" d="M 581 0 
L 581 641 
L 1222 641 
L 1222 0 
L 581 0 
z
" transform="scale(0.015625)"/>
        <path id="ArialMT-33" d="M 269 1209 
L 831 1284 
Q 928 806 1161 595 
Q 1394 384 1728 384 
Q 2125 384 2398 659 
Q 2672 934 2672 1341 
Q 2672 1728 2419 1979 
Q 2166 2231 1775 2231 
Q 1616 2231 1378 2169 
L 1441 2663 
Q 1497 2656 1531 2656 
Q 1891 2656 2178 2843 
Q 2466 3031 2466 3422 
Q 2466 3731 2256 3934 
Q 2047 4138 1716 4138 
Q 1388 4138 1169 3931 
Q 950 3725 888 3313 
L 325 3413 
Q 428 3978 793 4289 
Q 1159 4600 1703 4600 
Q 2078 4600 2393 4439 
Q 2709 4278 2876 4000 
Q 3044 3722 3044 3409 
Q 3044 3113 2884 2869 
Q 2725 2625 2413 2481 
Q 2819 2388 3044 2092 
Q 3269 1797 3269 1353 
Q 3269 753 2831 336 
Q 2394 -81 1725 -81 
Q 1122 -81 723 278 
Q 325 638 269 1209 
z
" transform="scale(0.015625)"/>
        <path id="ArialMT-32" d="M 3222 541 
L 3222 0 
L 194 0 
Q 188 203 259 391 
Q 375 700 629 1000 
Q 884 1300 1366 1694 
Q 2113 2306 2375 2664 
Q 2638 3022 2638 3341 
Q 2638 3675 2398 3904 
Q 2159 4134 1775 4134 
Q 1369 4134 1125 3890 
Q 881 3647 878 3216 
L 300 3275 
Q 359 3922 746 4261 
Q 1134 4600 1788 4600 
Q 2447 4600 2831 4234 
Q 3216 3869 3216 3328 
Q 3216 3053 3103 2787 
Q 2991 2522 2730 2228 
Q 2469 1934 1863 1422 
Q 1356 997 1212 845 
Q 1069 694 975 541 
L 3222 541 
z
" transform="scale(0.015625)"/>
        <path id="ArialMT-38" d="M 1131 2484 
Q 781 2613 612 2850 
Q 444 3088 444 3419 
Q 444 3919 803 4259 
Q 1163 4600 1759 4600 
Q 2359 4600 2725 4251 
Q 3091 3903 3091 3403 
Q 3091 3084 2923 2848 
Q 2756 2613 2416 2484 
Q 2838 2347 3058 2040 
Q 3278 1734 3278 1309 
Q 3278 722 2862 322 
Q 2447 -78 1769 -78 
Q 1091 -78 675 323 
Q 259 725 259 1325 
Q 259 1772 486 2073 
Q 713 2375 1131 2484 
z
M 1019 3438 
Q 1019 3113 1228 2906 
Q 1438 2700 1772 2700 
Q 2097 2700 2305 2904 
Q 2513 3109 2513 3406 
Q 2513 3716 2298 3927 
Q 2084 4138 1766 4138 
Q 1444 4138 1231 3931 
Q 1019 3725 1019 3438 
z
M 838 1322 
Q 838 1081 952 856 
Q 1066 631 1291 507 
Q 1516 384 1775 384 
Q 2178 384 2440 643 
Q 2703 903 2703 1303 
Q 2703 1709 2433 1975 
Q 2163 2241 1756 2241 
Q 1359 2241 1098 1978 
Q 838 1716 838 1322 
z
" transform="scale(0.015625)"/>
       </defs>
       <use xlink:href="#ArialMT-2212"/>
       <use xlink:href="#ArialMT-30" transform="translate(58.398438 0)"/>
       <use xlink:href="#ArialMT-2e" transform="translate(114.013672 0)"/>
       <use xlink:href="#ArialMT-33" transform="translate(141.796875 0)"/>
       <use xlink:href="#ArialMT-32" transform="translate(197.412109 0)"/>
       <use xlink:href="#ArialMT-38" transform="translate(253.027344 0)"/>
      </g>
     </g>
    </g>
    <g id="ytick_2">
     <g id="line2d_23">
      <g>
       <use xlink:href="#mc91f902211" x="296.029134" y="175.861417" style="stroke: #000000; stroke-width: 0.3"/>
      </g>
     </g>
     <g id="text_15">
      <!-- 0.288 -->
      <g transform="translate(299.529134 178.724542) scale(0.08 -0.08)">
       <use xlink:href="#ArialMT-2212"/>
       <use xlink:href="#ArialMT-30" transform="translate(58.398438 0)"/>
       <use xlink:href="#ArialMT-2e" transform="translate(114.013672 0)"/>
       <use xlink:href="#ArialMT-32" transform="translate(141.796875 0)"/>
       <use xlink:href="#ArialMT-38" transform="translate(197.412109 0)"/>
       <use xlink:href="#ArialMT-38" transform="translate(253.027344 0)"/>
      </g>
     </g>
    </g>
    <g id="ytick_3">
     <g id="line2d_24">
      <g>
       <use xlink:href="#mc91f902211" x="296.029134" y="156.018898" style="stroke: #000000; stroke-width: 0.3"/>
      </g>
     </g>
     <g id="text_16">
      <!-- 0.248 -->
      <g transform="translate(299.529134 158.882023) scale(0.08 -0.08)">
       <defs>
        <path id="ArialMT-34" d="M 2069 0 
L 2069 1097 
L 81 1097 
L 81 1613 
L 2172 4581 
L 2631 4581 
L 2631 1613 
L 3250 1613 
L 3250 1097 
L 2631 1097 
L 2631 0 
L 2069 0 
z
M 2069 1613 
L 2069 3678 
L 634 1613 
L 2069 1613 
z
" transform="scale(0.015625)"/>
       </defs>
       <use xlink:href="#ArialMT-2212"/>
       <use xlink:href="#ArialMT-30" transform="translate(58.398438 0)"/>
       <use xlink:href="#ArialMT-2e" transform="translate(114.013672 0)"/>
       <use xlink:href="#ArialMT-32" transform="translate(141.796875 0)"/>
       <use xlink:href="#ArialMT-34" transform="translate(197.412109 0)"/>
       <use xlink:href="#ArialMT-38" transform="translate(253.027344 0)"/>
      </g>
     </g>
    </g>
    <g id="ytick_4">
     <g id="line2d_25">
      <g>
       <use xlink:href="#mc91f902211" x="296.029134" y="136.176378" style="stroke: #000000; stroke-width: 0.3"/>
      </g>
     </g>
     <g id="text_17">
      <!-- 0.208 -->
      <g transform="translate(299.529134 139.039503) scale(0.08 -0.08)">
       <use xlink:href="#ArialMT-2212"/>
       <use xlink:href="#ArialMT-30" transform="translate(58.398438 0)"/>
       <use xlink:href="#ArialMT-2e" transform="translate(114.013672 0)"/>
       <use xlink:href="#ArialMT-32" transform="translate(141.796875 0)"/>
       <use xlink:href="#ArialMT-30" transform="translate(197.412109 0)"/>
       <use xlink:href="#ArialMT-38" transform="translate(253.027344 0)"/>
      </g>
     </g>
    </g>
    <g id="ytick_5">
     <g id="line2d_26">
      <g>
       <use xlink:href="#mc91f902211" x="296.029134" y="116.333858" style="stroke: #000000; stroke-width: 0.3"/>
      </g>
     </g>
     <g id="text_18">
      <!-- 0.168 -->
      <g transform="translate(299.529134 119.196983) scale(0.08 -0.08)">
       <defs>
        <path id="ArialMT-31" d="M 2384 0 
L 1822 0 
L 1822 3584 
Q 1619 3391 1289 3197 
Q 959 3003 697 2906 
L 697 3450 
Q 1169 3672 1522 3987 
Q 1875 4303 2022 4600 
L 2384 4600 
L 2384 0 
z
" transform="scale(0.015625)"/>
        <path id="ArialMT-36" d="M 3184 3459 
L 2625 3416 
Q 2550 3747 2413 3897 
Q 2184 4138 1850 4138 
Q 1581 4138 1378 3988 
Q 1113 3794 959 3422 
Q 806 3050 800 2363 
Q 1003 2672 1297 2822 
Q 1591 2972 1913 2972 
Q 2475 2972 2870 2558 
Q 3266 2144 3266 1488 
Q 3266 1056 3080 686 
Q 2894 316 2569 119 
Q 2244 -78 1831 -78 
Q 1128 -78 684 439 
Q 241 956 241 2144 
Q 241 3472 731 4075 
Q 1159 4600 1884 4600 
Q 2425 4600 2770 4297 
Q 3116 3994 3184 3459 
z
M 888 1484 
Q 888 1194 1011 928 
Q 1134 663 1356 523 
Q 1578 384 1822 384 
Q 2178 384 2434 671 
Q 2691 959 2691 1453 
Q 2691 1928 2437 2201 
Q 2184 2475 1800 2475 
Q 1419 2475 1153 2201 
Q 888 1928 888 1484 
z
" transform="scale(0.015625)"/>
       </defs>
       <use xlink:href="#ArialMT-2212"/>
       <use xlink:href="#ArialMT-30" transform="translate(58.398438 0)"/>
       <use xlink:href="#ArialMT-2e" transform="translate(114.013672 0)"/>
       <use xlink:href="#ArialMT-31" transform="translate(141.796875 0)"/>
       <use xlink:href="#ArialMT-36" transform="translate(197.412109 0)"/>
       <use xlink:href="#ArialMT-38" transform="translate(253.027344 0)"/>
      </g>
     </g>
    </g>
    <g id="ytick_6">
     <g id="line2d_27">
      <g>
       <use xlink:href="#mc91f902211" x="296.029134" y="96.491339" style="stroke: #000000; stroke-width: 0.3"/>
      </g>
     </g>
     <g id="text_19">
      <!-- 0.128 -->
      <g transform="translate(299.529134 99.354464) scale(0.08 -0.08)">
       <use xlink:href="#ArialMT-2212"/>
       <use xlink:href="#ArialMT-30" transform="translate(58.398438 0)"/>
       <use xlink:href="#ArialMT-2e" transform="translate(114.013672 0)"/>
       <use xlink:href="#ArialMT-31" transform="translate(141.796875 0)"/>
       <use xlink:href="#ArialMT-32" transform="translate(197.412109 0)"/>
       <use xlink:href="#ArialMT-38" transform="translate(253.027344 0)"/>
      </g>
     </g>
    </g>
    <g id="ytick_7">
     <g id="line2d_28">
      <g>
       <use xlink:href="#mc91f902211" x="296.029134" y="76.648819" style="stroke: #000000; stroke-width: 0.3"/>
      </g>
     </g>
     <g id="text_20">
      <!-- 0.088 -->
      <g transform="translate(299.529134 79.511944) scale(0.08 -0.08)">
       <use xlink:href="#ArialMT-2212"/>
       <use xlink:href="#ArialMT-30" transform="translate(58.398438 0)"/>
       <use xlink:href="#ArialMT-2e" transform="translate(114.013672 0)"/>
       <use xlink:href="#ArialMT-30" transform="translate(141.796875 0)"/>
       <use xlink:href="#ArialMT-38" transform="translate(197.412109 0)"/>
       <use xlink:href="#ArialMT-38" transform="translate(253.027344 0)"/>
      </g>
     </g>
    </g>
    <g id="ytick_8">
     <g id="line2d_29">
      <g>
       <use xlink:href="#mc91f902211" x="296.029134" y="56.806299" style="stroke: #000000; stroke-width: 0.3"/>
      </g>
     </g>
     <g id="text_21">
      <!-- 0.048 -->
      <g transform="translate(299.529134 59.669424) scale(0.08 -0.08)">
       <use xlink:href="#ArialMT-2212"/>
       <use xlink:href="#ArialMT-30" transform="translate(58.398438 0)"/>
       <use xlink:href="#ArialMT-2e" transform="translate(114.013672 0)"/>
       <use xlink:href="#ArialMT-30" transform="translate(141.796875 0)"/>
       <use xlink:href="#ArialMT-34" transform="translate(197.412109 0)"/>
       <use xlink:href="#ArialMT-38" transform="translate(253.027344 0)"/>
      </g>
     </g>
    </g>
    <g id="ytick_9">
     <g id="line2d_30">
      <g>
       <use xlink:href="#mc91f902211" x="296.029134" y="36.96378" style="stroke: #000000; stroke-width: 0.3"/>
      </g>
     </g>
     <g id="text_22">
      <!-- 0.008 -->
      <g transform="translate(299.529134 39.826905) scale(0.08 -0.08)">
       <use xlink:href="#ArialMT-2212"/>
       <use xlink:href="#ArialMT-30" transform="translate(58.398438 0)"/>
       <use xlink:href="#ArialMT-2e" transform="translate(114.013672 0)"/>
       <use xlink:href="#ArialMT-30" transform="translate(141.796875 0)"/>
       <use xlink:href="#ArialMT-30" transform="translate(197.412109 0)"/>
       <use xlink:href="#ArialMT-38" transform="translate(253.027344 0)"/>
      </g>
     </g>
    </g>
    <g id="text_23">
     <!-- Formation Energy (eV/atom) -->
     <g transform="translate(335.498821 179.408077) rotate(-90) scale(0.1 -0.1)">
      <defs>
       <path id="ArialMT-46" d="M 525 0 
L 525 4581 
L 3616 4581 
L 3616 4041 
L 1131 4041 
L 1131 2622 
L 3281 2622 
L 3281 2081 
L 1131 2081 
L 1131 0 
L 525 0 
z
" transform="scale(0.015625)"/>
       <path id="ArialMT-6f" d="M 213 1659 
Q 213 2581 725 3025 
Q 1153 3394 1769 3394 
Q 2453 3394 2887 2945 
Q 3322 2497 3322 1706 
Q 3322 1066 3130 698 
Q 2938 331 2570 128 
Q 2203 -75 1769 -75 
Q 1072 -75 642 372 
Q 213 819 213 1659 
z
M 791 1659 
Q 791 1022 1069 705 
Q 1347 388 1769 388 
Q 2188 388 2466 706 
Q 2744 1025 2744 1678 
Q 2744 2294 2464 2611 
Q 2184 2928 1769 2928 
Q 1347 2928 1069 2612 
Q 791 2297 791 1659 
z
" transform="scale(0.015625)"/>
       <path id="ArialMT-72" d="M 416 0 
L 416 3319 
L 922 3319 
L 922 2816 
Q 1116 3169 1280 3281 
Q 1444 3394 1641 3394 
Q 1925 3394 2219 3213 
L 2025 2691 
Q 1819 2813 1613 2813 
Q 1428 2813 1281 2702 
Q 1134 2591 1072 2394 
Q 978 2094 978 1738 
L 978 0 
L 416 0 
z
" transform="scale(0.015625)"/>
       <path id="ArialMT-6d" d="M 422 0 
L 422 3319 
L 925 3319 
L 925 2853 
Q 1081 3097 1340 3245 
Q 1600 3394 1931 3394 
Q 2300 3394 2536 3241 
Q 2772 3088 2869 2813 
Q 3263 3394 3894 3394 
Q 4388 3394 4653 3120 
Q 4919 2847 4919 2278 
L 4919 0 
L 4359 0 
L 4359 2091 
Q 4359 2428 4304 2576 
Q 4250 2725 4106 2815 
Q 3963 2906 3769 2906 
Q 3419 2906 3187 2673 
Q 2956 2441 2956 1928 
L 2956 0 
L 2394 0 
L 2394 2156 
Q 2394 2531 2256 2718 
Q 2119 2906 1806 2906 
Q 1569 2906 1367 2781 
Q 1166 2656 1075 2415 
Q 984 2175 984 1722 
L 984 0 
L 422 0 
z
" transform="scale(0.015625)"/>
       <path id="ArialMT-61" d="M 2588 409 
Q 2275 144 1986 34 
Q 1697 -75 1366 -75 
Q 819 -75 525 192 
Q 231 459 231 875 
Q 231 1119 342 1320 
Q 453 1522 633 1644 
Q 813 1766 1038 1828 
Q 1203 1872 1538 1913 
Q 2219 1994 2541 2106 
Q 2544 2222 2544 2253 
Q 2544 2597 2384 2738 
Q 2169 2928 1744 2928 
Q 1347 2928 1158 2789 
Q 969 2650 878 2297 
L 328 2372 
Q 403 2725 575 2942 
Q 747 3159 1072 3276 
Q 1397 3394 1825 3394 
Q 2250 3394 2515 3294 
Q 2781 3194 2906 3042 
Q 3031 2891 3081 2659 
Q 3109 2516 3109 2141 
L 3109 1391 
Q 3109 606 3145 398 
Q 3181 191 3288 0 
L 2700 0 
Q 2613 175 2588 409 
z
M 2541 1666 
Q 2234 1541 1622 1453 
Q 1275 1403 1131 1340 
Q 988 1278 909 1158 
Q 831 1038 831 891 
Q 831 666 1001 516 
Q 1172 366 1500 366 
Q 1825 366 2078 508 
Q 2331 650 2450 897 
Q 2541 1088 2541 1459 
L 2541 1666 
z
" transform="scale(0.015625)"/>
       <path id="ArialMT-74" d="M 1650 503 
L 1731 6 
Q 1494 -44 1306 -44 
Q 1000 -44 831 53 
Q 663 150 594 308 
Q 525 466 525 972 
L 525 2881 
L 113 2881 
L 113 3319 
L 525 3319 
L 525 4141 
L 1084 4478 
L 1084 3319 
L 1650 3319 
L 1650 2881 
L 1084 2881 
L 1084 941 
Q 1084 700 1114 631 
Q 1144 563 1211 522 
Q 1278 481 1403 481 
Q 1497 481 1650 503 
z
" transform="scale(0.015625)"/>
       <path id="ArialMT-69" d="M 425 3934 
L 425 4581 
L 988 4581 
L 988 3934 
L 425 3934 
z
M 425 0 
L 425 3319 
L 988 3319 
L 988 0 
L 425 0 
z
" transform="scale(0.015625)"/>
       <path id="ArialMT-6e" d="M 422 0 
L 422 3319 
L 928 3319 
L 928 2847 
Q 1294 3394 1984 3394 
Q 2284 3394 2536 3286 
Q 2788 3178 2913 3003 
Q 3038 2828 3088 2588 
Q 3119 2431 3119 2041 
L 3119 0 
L 2556 0 
L 2556 2019 
Q 2556 2363 2490 2533 
Q 2425 2703 2258 2804 
Q 2091 2906 1866 2906 
Q 1506 2906 1245 2678 
Q 984 2450 984 1813 
L 984 0 
L 422 0 
z
" transform="scale(0.015625)"/>
       <path id="ArialMT-20" transform="scale(0.015625)"/>
       <path id="ArialMT-45" d="M 506 0 
L 506 4581 
L 3819 4581 
L 3819 4041 
L 1113 4041 
L 1113 2638 
L 3647 2638 
L 3647 2100 
L 1113 2100 
L 1113 541 
L 3925 541 
L 3925 0 
L 506 0 
z
" transform="scale(0.015625)"/>
       <path id="ArialMT-65" d="M 2694 1069 
L 3275 997 
Q 3138 488 2766 206 
Q 2394 -75 1816 -75 
Q 1088 -75 661 373 
Q 234 822 234 1631 
Q 234 2469 665 2931 
Q 1097 3394 1784 3394 
Q 2450 3394 2872 2941 
Q 3294 2488 3294 1666 
Q 3294 1616 3291 1516 
L 816 1516 
Q 847 969 1125 678 
Q 1403 388 1819 388 
Q 2128 388 2347 550 
Q 2566 713 2694 1069 
z
M 847 1978 
L 2700 1978 
Q 2663 2397 2488 2606 
Q 2219 2931 1791 2931 
Q 1403 2931 1139 2672 
Q 875 2413 847 1978 
z
" transform="scale(0.015625)"/>
       <path id="ArialMT-67" d="M 319 -275 
L 866 -356 
Q 900 -609 1056 -725 
Q 1266 -881 1628 -881 
Q 2019 -881 2231 -725 
Q 2444 -569 2519 -288 
Q 2563 -116 2559 434 
Q 2191 0 1641 0 
Q 956 0 581 494 
Q 206 988 206 1678 
Q 206 2153 378 2554 
Q 550 2956 876 3175 
Q 1203 3394 1644 3394 
Q 2231 3394 2613 2919 
L 2613 3319 
L 3131 3319 
L 3131 450 
Q 3131 -325 2973 -648 
Q 2816 -972 2473 -1159 
Q 2131 -1347 1631 -1347 
Q 1038 -1347 672 -1080 
Q 306 -813 319 -275 
z
M 784 1719 
Q 784 1066 1043 766 
Q 1303 466 1694 466 
Q 2081 466 2343 764 
Q 2606 1063 2606 1700 
Q 2606 2309 2336 2618 
Q 2066 2928 1684 2928 
Q 1309 2928 1046 2623 
Q 784 2319 784 1719 
z
" transform="scale(0.015625)"/>
       <path id="ArialMT-79" d="M 397 -1278 
L 334 -750 
Q 519 -800 656 -800 
Q 844 -800 956 -737 
Q 1069 -675 1141 -563 
Q 1194 -478 1313 -144 
Q 1328 -97 1363 -6 
L 103 3319 
L 709 3319 
L 1400 1397 
Q 1534 1031 1641 628 
Q 1738 1016 1872 1384 
L 2581 3319 
L 3144 3319 
L 1881 -56 
Q 1678 -603 1566 -809 
Q 1416 -1088 1222 -1217 
Q 1028 -1347 759 -1347 
Q 597 -1347 397 -1278 
z
" transform="scale(0.015625)"/>
       <path id="ArialMT-28" d="M 1497 -1347 
Q 1031 -759 709 28 
Q 388 816 388 1659 
Q 388 2403 628 3084 
Q 909 3875 1497 4659 
L 1900 4659 
Q 1522 4009 1400 3731 
Q 1209 3300 1100 2831 
Q 966 2247 966 1656 
Q 966 153 1900 -1347 
L 1497 -1347 
z
" transform="scale(0.015625)"/>
       <path id="ArialMT-56" d="M 1803 0 
L 28 4581 
L 684 4581 
L 1875 1253 
Q 2019 853 2116 503 
Q 2222 878 2363 1253 
L 3600 4581 
L 4219 4581 
L 2425 0 
L 1803 0 
z
" transform="scale(0.015625)"/>
       <path id="ArialMT-2f" d="M 0 -78 
L 1328 4659 
L 1778 4659 
L 453 -78 
L 0 -78 
z
" transform="scale(0.015625)"/>
       <path id="ArialMT-29" d="M 791 -1347 
L 388 -1347 
Q 1322 153 1322 1656 
Q 1322 2244 1188 2822 
Q 1081 3291 891 3722 
Q 769 4003 388 4659 
L 791 4659 
Q 1378 3875 1659 3084 
Q 1900 2403 1900 1659 
Q 1900 816 1576 28 
Q 1253 -759 791 -1347 
z
" transform="scale(0.015625)"/>
      </defs>
      <use xlink:href="#ArialMT-46"/>
      <use xlink:href="#ArialMT-6f" transform="translate(61.083984 0)"/>
      <use xlink:href="#ArialMT-72" transform="translate(116.699219 0)"/>
      <use xlink:href="#ArialMT-6d" transform="translate(150 0)"/>
      <use xlink:href="#ArialMT-61" transform="translate(233.300781 0)"/>
      <use xlink:href="#ArialMT-74" transform="translate(288.916016 0)"/>
      <use xlink:href="#ArialMT-69" transform="translate(316.699219 0)"/>
      <use xlink:href="#ArialMT-6f" transform="translate(338.916016 0)"/>
      <use xlink:href="#ArialMT-6e" transform="translate(394.53125 0)"/>
      <use xlink:href="#ArialMT-20" transform="translate(450.146484 0)"/>
      <use xlink:href="#ArialMT-45" transform="translate(477.929688 0)"/>
      <use xlink:href="#ArialMT-6e" transform="translate(544.628906 0)"/>
      <use xlink:href="#ArialMT-65" transform="translate(600.244141 0)"/>
      <use xlink:href="#ArialMT-72" transform="translate(655.859375 0)"/>
      <use xlink:href="#ArialMT-67" transform="translate(689.160156 0)"/>
      <use xlink:href="#ArialMT-79" transform="translate(744.775391 0)"/>
      <use xlink:href="#ArialMT-20" transform="translate(794.775391 0)"/>
      <use xlink:href="#ArialMT-28" transform="translate(822.558594 0)"/>
      <use xlink:href="#ArialMT-65" transform="translate(855.859375 0)"/>
      <use xlink:href="#ArialMT-56" transform="translate(911.474609 0)"/>
      <use xlink:href="#ArialMT-2f" transform="translate(978.173828 0)"/>
      <use xlink:href="#ArialMT-61" transform="translate(1005.957031 0)"/>
      <use xlink:href="#ArialMT-74" transform="translate(1061.572266 0)"/>
      <use xlink:href="#ArialMT-6f" transform="translate(1089.355469 0)"/>
      <use xlink:href="#ArialMT-6d" transform="translate(1144.970703 0)"/>
      <use xlink:href="#ArialMT-29" transform="translate(1228.271484 0)"/>
     </g>
    </g>
   </g>
   <g id="LineCollection_1"/>
   <g id="patch_6">
    <path d="M 287.298425 195.703937 
L 291.66378 203.640945 
L 296.029134 195.703937 
L 296.029134 36.96378 
L 291.66378 29.026772 
L 287.298425 36.96378 
L 287.298425 195.703937 
z
" style="fill: none; stroke: #000000; stroke-width: 0.8; stroke-linejoin: miter; stroke-linecap: square"/>
   </g>
  </g>
 </g>
 <defs>
  <clipPath id="p61d7e26a37">
   <rect x="7.2" y="7.2" width="263.622047" height="218.267717"/>
  </clipPath>
  <clipPath id="paa53f9a724">
   <rect x="287.298425" y="36.96378" width="8.730709" height="158.740157"/>
  </clipPath>
 </defs>
</svg>
