<?xml version="1.0" encoding="utf-8" standalone="no"?>
<!DOCTYPE svg PUBLIC "-//W3C//DTD SVG 1.1//EN"
  "http://www.w3.org/Graphics/SVG/1.1/DTD/svg11.dtd">
<svg xmlns:xlink="http://www.w3.org/1999/xlink" width="340.354759pt" height="232.667717pt" viewBox="0 0 340.354759 232.667717" xmlns="http://www.w3.org/2000/svg" version="1.1">
 <metadata>
  <rdf:RDF xmlns:dc="http://purl.org/dc/elements/1.1/" xmlns:cc="http://creativecommons.org/ns#" xmlns:rdf="http://www.w3.org/1999/02/22-rdf-syntax-ns#">
   <cc:Work>
    <dc:type rdf:resource="http://purl.org/dc/dcmitype/StillImage"/>
    <dc:date>2026-01-27T21:37:08.887168</dc:date>
    <dc:format>image/svg+xml</dc:format>
    <dc:creator>
     <cc:Agent>
      <dc:title>Matplotlib v3.10.8, https://matplotlib.org/</dc:title>
     </cc:Agent>
    </dc:creator>
   </cc:Work>
  </rdf:RDF>
 </metadata>
 <defs>
  <style type="text/css">*{stroke-linejoin: round; stroke-linecap: butt}</style>
 </defs>
 <g id="figure_1">
  <g id="patch_1">
   <path d="M 0 232.667717 
L 340.354759 232.667717 
L 340.354759 0 
L 0 0 
L 0 232.667717 
z
" style="fill: none"/>
  </g>
  <g id="axes_1">
   <g id="patch_2">
    <path d="M 7.2 225.467717 
L 270.822047 225.467717 
L 270.822047 7.2 
L 7.2 7.2 
L 7.2 225.467717 
z
" style="fill: none"/>
   </g>
   <g id="TriContourSet_1">
    <path d="M 180.588014 214.554331 
L 179.703751 211.005059 
L 178.113909 210.579821 
L 177.766801 212.681942 
L 177.514811 214.554331 
L 178.953758 214.554331 
z
" clip-path="url(#p5eac3e7456)" style="fill: #440154; fill-opacity: 0.7"/>
    <path d="M 177.514811 214.554331 
L 177.766801 212.681942 
L 178.113909 210.579821 
L 179.703751 211.005059 
L 180.588014 214.554331 
L 184.497198 214.554331 
L 181.497752 202.515109 
L 176.104968 201.072689 
L 174.927569 208.203138 
L 174.072811 214.554331 
z
" clip-path="url(#p5eac3e7456)" style="fill: #450457; fill-opacity: 0.7"/>
    <path d="M 174.072811 214.554331 
L 174.927569 208.203138 
L 176.104968 201.072689 
L 181.497752 202.515109 
L 184.497198 214.554331 
L 188.406381 214.554331 
L 183.291754 194.025158 
L 174.096027 191.565558 
L 172.088336 203.724334 
L 170.630811 214.554331 
z
" clip-path="url(#p5eac3e7456)" style="fill: #470d60; fill-opacity: 0.7"/>
    <path d="M 170.630811 214.554331 
L 172.088336 203.724334 
L 174.096027 191.565558 
L 183.291754 194.025158 
L 188.406381 214.554331 
L 192.315565 214.554331 
L 185.085755 185.535208 
L 172.087086 182.058427 
L 169.249104 199.245531 
L 167.188811 214.554331 
z
" clip-path="url(#p5eac3e7456)" style="fill: #481668; fill-opacity: 0.7"/>
    <path d="M 167.188811 214.554331 
L 169.249104 199.245531 
L 172.087086 182.058427 
L 185.085755 185.535208 
L 192.315565 214.554331 
L 196.224748 214.554331 
L 186.879757 177.045258 
L 170.078146 172.551295 
L 166.409872 194.766727 
L 163.746811 214.554331 
z
" clip-path="url(#p5eac3e7456)" style="fill: #481c6e; fill-opacity: 0.7"/>
    <path d="M 163.746811 214.554331 
L 166.409872 194.766727 
L 170.078146 172.551295 
L 186.879757 177.045258 
L 196.224748 214.554331 
L 198.925125 214.554331 
L 199.381285 214.554331 
L 199.058965 212.865303 
L 188.358897 175.011207 
L 186.4377 172.503927 
L 182.025486 166.77708 
L 168.069205 163.044164 
L 163.57064 190.287924 
L 160.304812 214.554331 
z
" clip-path="url(#p5eac3e7456)" style="fill: #482475; fill-opacity: 0.7"/>
    <path d="M 160.304812 214.554331 
L 163.57064 190.287924 
L 168.069205 163.044164 
L 182.025486 166.77708 
L 186.4377 172.503927 
L 188.358897 175.011207 
L 199.058965 212.865303 
L 199.381285 214.554331 
L 200.856469 214.554331 
L 199.491793 207.403123 
L 189.826663 173.210373 
L 185.914867 168.105239 
L 176.931047 156.444664 
L 166.060264 153.537033 
L 160.731407 185.80912 
L 156.862812 214.554331 
z
" clip-path="url(#p5eac3e7456)" style="fill: #472c7a; fill-opacity: 0.7"/>
    <path d="M 156.862812 214.554331 
L 160.731407 185.80912 
L 166.060264 153.537033 
L 176.931047 156.444664 
L 185.914867 168.105239 
L 189.826663 173.210373 
L 199.491793 207.403123 
L 200.856469 214.554331 
L 202.331654 214.554331 
L 199.92462 201.940943 
L 191.294429 171.40954 
L 185.392033 163.706551 
L 171.836609 146.112248 
L 164.051323 144.029902 
L 157.892175 181.330317 
L 153.420812 214.554331 
z
" clip-path="url(#p5eac3e7456)" style="fill: #46327e; fill-opacity: 0.7"/>
    <path d="M 153.420812 214.554331 
L 157.892175 181.330317 
L 164.051323 144.029902 
L 171.836609 146.112248 
L 185.392033 163.706551 
L 191.294429 171.40954 
L 199.92462 201.940943 
L 202.331654 214.554331 
L 203.806838 214.554331 
L 200.357448 196.478762 
L 192.762195 169.608707 
L 184.8692 159.307863 
L 166.74217 135.779833 
L 162.042382 134.52277 
L 155.052943 176.851513 
L 149.978812 214.554331 
z
" clip-path="url(#p5eac3e7456)" style="fill: #443983; fill-opacity: 0.7"/>
    <path d="M 149.978812 214.554331 
L 155.052943 176.851513 
L 162.042382 134.52277 
L 166.74217 135.779833 
L 184.8692 159.307863 
L 192.762195 169.608707 
L 200.357448 196.478762 
L 203.806838 214.554331 
L 205.282022 214.554331 
L 200.790276 191.016582 
L 194.229962 167.807874 
L 184.346367 154.909175 
L 161.647732 125.447417 
L 160.033441 125.015639 
L 152.213711 172.37271 
L 146.536812 214.554331 
z
" clip-path="url(#p5eac3e7456)" style="fill: #424086; fill-opacity: 0.7"/>
    <path d="M 146.536812 214.554331 
L 152.213711 172.37271 
L 160.033441 125.015639 
L 161.647732 125.447417 
L 184.346367 154.909175 
L 194.229962 167.807874 
L 200.790276 191.016582 
L 205.282022 214.554331 
L 206.757206 214.554331 
L 201.223103 185.554402 
L 195.697728 166.007041 
L 183.823533 150.510486 
L 159.496673 118.935368 
L 159.253992 118.756307 
L 158.162881 118.748886 
L 157.477595 119.25038 
L 156.674942 123.681568 
L 149.374478 167.893906 
L 143.094813 214.554331 
z
" clip-path="url(#p5eac3e7456)" style="fill: #3f4788; fill-opacity: 0.7"/>
    <path d="M 143.094813 214.554331 
L 149.374478 167.893906 
L 156.674942 123.681568 
L 157.477595 119.25038 
L 158.162881 118.748886 
L 159.253992 118.756307 
L 159.496673 118.935368 
L 183.823533 150.510486 
L 195.697728 166.007041 
L 201.223103 185.554402 
L 206.757206 214.554331 
L 207.484283 214.554331 
L 208.217757 214.554331 
L 207.070877 208.467744 
L 201.655931 180.092222 
L 197.165494 164.206208 
L 183.3007 146.111798 
L 160.575253 116.615239 
L 159.823611 116.060641 
L 156.444161 116.037655 
L 154.321654 117.590913 
L 151.835632 131.315433 
L 146.535246 163.415103 
L 139.652813 214.554331 
z
" clip-path="url(#p5eac3e7456)" style="fill: #3d4d8a; fill-opacity: 0.7"/>
    <path d="M 139.652813 214.554331 
L 146.535246 163.415103 
L 151.835632 131.315433 
L 154.321654 117.590913 
L 156.444161 116.037655 
L 159.823611 116.060641 
L 160.575253 116.615239 
L 183.3007 146.111798 
L 197.165494 164.206208 
L 201.655931 180.092222 
L 207.070877 208.467744 
L 208.217757 214.554331 
L 209.664084 214.554331 
L 206.255689 196.465683 
L 202.088758 174.630041 
L 198.63326 162.405374 
L 182.777866 141.71311 
L 161.653833 114.295111 
L 160.393229 113.364975 
L 154.72544 113.326425 
L 151.165713 115.931446 
L 146.996323 138.949299 
L 143.696014 158.936299 
L 136.210813 214.554331 
z
" clip-path="url(#p5eac3e7456)" style="fill: #3a538b; fill-opacity: 0.7"/>
    <path d="M 136.210813 214.554331 
L 143.696014 158.936299 
L 146.996323 138.949299 
L 151.165713 115.931446 
L 154.72544 113.326425 
L 160.393229 113.364975 
L 161.653833 114.295111 
L 182.777866 141.71311 
L 198.63326 162.405374 
L 202.088758 174.630041 
L 206.255689 196.465683 
L 209.664084 214.554331 
L 211.110412 214.554331 
L 205.440501 184.463622 
L 202.521586 169.167861 
L 200.101026 160.604541 
L 182.255033 137.314422 
L 162.732413 111.974982 
L 160.962847 110.669308 
L 153.006719 110.615194 
L 148.009773 114.271979 
L 142.157013 146.583165 
L 140.856782 154.457496 
L 132.768813 214.554331 
z
" clip-path="url(#p5eac3e7456)" style="fill: #375a8c; fill-opacity: 0.7"/>
    <path d="M 132.768813 214.554331 
L 140.856782 154.457496 
L 142.157013 146.583165 
L 148.009773 114.271979 
L 153.006719 110.615194 
L 160.962847 110.669308 
L 162.732413 111.974982 
L 182.255033 137.314422 
L 200.101026 160.604541 
L 202.521586 169.167861 
L 205.440501 184.463622 
L 211.110412 214.554331 
L 212.55674 214.554331 
L 204.625312 172.461561 
L 202.954414 163.705681 
L 201.568792 158.803708 
L 181.732199 132.915734 
L 163.810993 109.654853 
L 161.532465 107.973642 
L 151.287998 107.903964 
L 144.853832 112.612511 
L 138.07034 150.061968 
L 137.714914 152.227393 
L 129.326814 214.554331 
z
" clip-path="url(#p5eac3e7456)" style="fill: #355f8d; fill-opacity: 0.7"/>
    <path d="M 129.326814 214.554331 
L 137.714914 152.227393 
L 138.07034 150.061968 
L 144.853832 112.612511 
L 151.287998 107.903964 
L 161.532465 107.973642 
L 163.810993 109.654853 
L 181.732199 132.915734 
L 201.568792 158.803708 
L 202.954414 163.705681 
L 204.625312 172.461561 
L 212.55674 214.554331 
L 214.003067 214.554331 
L 203.810124 160.459501 
L 203.387241 158.243501 
L 203.036558 157.002875 
L 181.209366 128.517046 
L 164.889573 107.334724 
L 162.102083 105.277976 
L 149.569277 105.192734 
L 141.697891 110.953044 
L 135.381977 145.821156 
L 134.010786 154.17511 
L 125.884814 214.554331 
z
" clip-path="url(#p5eac3e7456)" style="fill: #32658e; fill-opacity: 0.7"/>
    <path d="M 125.884814 214.554331 
L 134.010786 154.17511 
L 135.381977 145.821156 
L 141.697891 110.953044 
L 149.569277 105.192734 
L 162.102083 105.277976 
L 164.889573 107.334724 
L 181.209366 128.517046 
L 203.036558 157.002875 
L 203.387241 158.243501 
L 203.810124 160.459501 
L 214.003067 214.554331 
L 215.449395 214.554331 
L 204.726468 157.646831 
L 204.324057 156.143384 
L 203.206901 153.813496 
L 201.67817 151.513736 
L 180.686533 124.118358 
L 165.968153 105.014596 
L 162.671701 102.58231 
L 147.850557 102.481503 
L 138.54195 109.293577 
L 132.693613 141.580344 
L 130.306658 156.122826 
L 122.442814 214.554331 
z
" clip-path="url(#p5eac3e7456)" style="fill: #2f6b8e; fill-opacity: 0.7"/>
    <path d="M 122.442814 214.554331 
L 130.306658 156.122826 
L 132.693613 141.580344 
L 138.54195 109.293577 
L 147.850557 102.481503 
L 162.671701 102.58231 
L 165.968153 105.014596 
L 180.686533 124.118358 
L 201.67817 151.513736 
L 203.206901 153.813496 
L 204.324057 156.143384 
L 204.726468 157.646831 
L 215.449395 214.554331 
L 216.895723 214.554331 
L 206.530227 159.543747 
L 205.519168 155.766334 
L 202.71231 149.912484 
L 198.871369 144.13433 
L 180.163699 119.71967 
L 167.046734 102.694467 
L 163.241319 99.886644 
L 146.131836 99.770273 
L 135.386009 107.634109 
L 130.00525 137.339531 
L 126.60253 158.070543 
L 119.000814 214.554331 
z
" clip-path="url(#p5eac3e7456)" style="fill: #2d708e; fill-opacity: 0.7"/>
    <path d="M 119.000814 214.554331 
L 126.60253 158.070543 
L 130.00525 137.339531 
L 135.386009 107.634109 
L 146.131836 99.770273 
L 163.241319 99.886644 
L 167.046734 102.694467 
L 180.163699 119.71967 
L 198.871369 144.13433 
L 202.71231 149.912484 
L 205.519168 155.766334 
L 206.530227 159.543747 
L 216.895723 214.554331 
L 218.342051 214.554331 
L 208.333985 161.440664 
L 206.714278 155.389284 
L 202.217719 146.011473 
L 196.064569 136.754925 
L 179.640866 115.320982 
L 168.125314 100.374338 
L 163.810937 97.190978 
L 144.413115 97.059043 
L 132.230068 105.974642 
L 127.316887 133.098719 
L 122.898402 160.01826 
L 115.558814 214.554331 
z
" clip-path="url(#p5eac3e7456)" style="fill: #2b758e; fill-opacity: 0.7"/>
    <path d="M 115.558814 214.554331 
L 122.898402 160.01826 
L 127.316887 133.098719 
L 132.230068 105.974642 
L 144.413115 97.059043 
L 163.810937 97.190978 
L 168.125314 100.374338 
L 179.640866 115.320982 
L 196.064569 136.754925 
L 202.217719 146.011473 
L 206.714278 155.389284 
L 208.333985 161.440664 
L 218.342051 214.554331 
L 219.788378 214.554331 
L 210.137744 163.337581 
L 207.909389 155.012233 
L 201.723128 142.110461 
L 193.257768 129.375519 
L 179.118032 110.922294 
L 169.203894 98.054209 
L 164.380555 94.495312 
L 142.694394 94.347812 
L 129.074127 104.315175 
L 124.628524 128.857907 
L 119.194274 161.965977 
L 112.116815 214.554331 
z
" clip-path="url(#p5eac3e7456)" style="fill: #297b8e; fill-opacity: 0.7"/>
    <path d="M 112.116815 214.554331 
L 119.194274 161.965977 
L 124.628524 128.857907 
L 129.074127 104.315175 
L 142.694394 94.347812 
L 164.380555 94.495312 
L 169.203894 98.054209 
L 179.118032 110.922294 
L 193.257768 129.375519 
L 201.723128 142.110461 
L 207.909389 155.012233 
L 210.137744 163.337581 
L 219.788378 214.554331 
L 221.234706 214.554331 
L 211.941503 165.234497 
L 209.1045 154.635183 
L 201.228537 138.209449 
L 190.450968 121.996114 
L 178.595199 106.523606 
L 170.282474 95.734081 
L 164.950173 91.799646 
L 140.975673 91.636582 
L 125.918186 102.655707 
L 121.940161 124.617095 
L 115.490146 163.913694 
L 108.674815 214.554331 
z
" clip-path="url(#p5eac3e7456)" style="fill: #27808e; fill-opacity: 0.7"/>
    <path d="M 108.674815 214.554331 
L 115.490146 163.913694 
L 121.940161 124.617095 
L 125.918186 102.655707 
L 140.975673 91.636582 
L 164.950173 91.799646 
L 170.282474 95.734081 
L 178.595199 106.523606 
L 190.450968 121.996114 
L 201.228537 138.209449 
L 209.1045 154.635183 
L 211.941503 165.234497 
L 221.234706 214.554331 
L 222.681034 214.554331 
L 213.745261 167.131414 
L 210.29961 154.258133 
L 200.733946 134.308437 
L 187.644167 114.616708 
L 178.072365 102.124918 
L 171.361054 93.413952 
L 165.519791 89.103979 
L 139.256953 88.925351 
L 122.762245 100.99624 
L 119.251797 120.376283 
L 111.786019 165.861411 
L 105.232815 214.554331 
z
" clip-path="url(#p5eac3e7456)" style="fill: #25858e; fill-opacity: 0.7"/>
    <path d="M 105.232815 214.554331 
L 111.786019 165.861411 
L 119.251797 120.376283 
L 122.762245 100.99624 
L 139.256953 88.925351 
L 165.519791 89.103979 
L 171.361054 93.413952 
L 178.072365 102.124918 
L 187.644167 114.616708 
L 200.733946 134.308437 
L 210.29961 154.258133 
L 213.745261 167.131414 
L 222.681034 214.554331 
L 224.127362 214.554331 
L 215.54902 169.028331 
L 211.494721 153.881083 
L 200.239355 130.407426 
L 184.837367 107.237303 
L 177.549532 97.72623 
L 172.439634 91.093823 
L 166.089409 86.408313 
L 143.354169 86.253678 
L 137.93977 86.284246 
L 134.363494 88.537406 
L 119.606304 99.336773 
L 116.563434 116.135471 
L 108.081891 167.809127 
L 101.790815 214.554331 
z
" clip-path="url(#p5eac3e7456)" style="fill: #228b8d; fill-opacity: 0.7"/>
    <path d="M 101.790815 214.554331 
L 108.081891 167.809127 
L 116.563434 116.135471 
L 119.606304 99.336773 
L 134.363494 88.537406 
L 137.93977 86.284246 
L 143.354169 86.253678 
L 166.089409 86.408313 
L 172.439634 91.093823 
L 177.549532 97.72623 
L 184.837367 107.237303 
L 200.239355 130.407426 
L 211.494721 153.881083 
L 215.54902 169.028331 
L 224.127362 214.554331 
L 225.573689 214.554331 
L 217.352778 170.925247 
L 212.689832 153.504032 
L 199.744764 126.506414 
L 182.030567 99.857897 
L 177.026699 93.327542 
L 173.518214 88.773695 
L 166.659027 83.712647 
L 148.42254 83.588611 
L 136.689637 83.654849 
L 128.939914 88.537406 
L 116.450363 97.677306 
L 113.875071 111.894659 
L 104.377763 169.756844 
L 98.348815 214.554331 
z
" clip-path="url(#p5eac3e7456)" style="fill: #21908d; fill-opacity: 0.7"/>
    <path d="M 98.348815 214.554331 
L 104.377763 169.756844 
L 113.875071 111.894659 
L 116.450363 97.677306 
L 128.939914 88.537406 
L 136.689637 83.654849 
L 148.42254 83.588611 
L 166.659027 83.712647 
L 173.518214 88.773695 
L 177.026699 93.327542 
L 182.030567 99.857897 
L 199.744764 126.506414 
L 212.689832 153.504032 
L 217.352778 170.925247 
L 225.573689 214.554331 
L 227.020017 214.554331 
L 219.156537 172.822164 
L 213.884943 153.126982 
L 199.250173 122.605402 
L 179.223766 92.478492 
L 176.503865 88.928854 
L 174.596795 86.453566 
L 167.228645 81.016981 
L 153.490911 80.923543 
L 135.439504 81.025453 
L 123.516333 88.537406 
L 113.294422 96.017838 
L 111.186708 107.653847 
L 100.673635 171.704561 
L 94.906816 214.554331 
z
" clip-path="url(#p5eac3e7456)" style="fill: #1f958b; fill-opacity: 0.7"/>
    <path d="M 184.123009 96.691745 
L 176.416966 85.099086 
L 175.981032 84.530165 
L 175.675375 84.133437 
L 167.798263 78.321315 
L 158.559283 78.258476 
L 134.189371 78.396056 
L 118.092752 88.537406 
L 110.138482 94.358371 
L 108.498345 103.413035 
L 96.969507 173.652278 
L 91.464816 214.554331 
L 94.906816 214.554331 
L 100.673635 171.704561 
L 111.186708 107.653847 
L 113.294422 96.017838 
L 123.516333 88.537406 
L 135.439504 81.025453 
L 153.490911 80.923543 
L 167.228645 81.016981 
L 174.596795 86.453566 
L 176.503865 88.928854 
L 179.223766 92.478492 
L 199.250173 122.605402 
L 213.884943 153.126982 
L 219.156537 172.822164 
L 227.020017 214.554331 
L 228.466345 214.554331 
L 220.960296 174.719081 
L 215.080053 152.749932 
L 200.86114 123.095642 
L 198.925125 120.041637 
z
" clip-path="url(#p5eac3e7456)" style="fill: #1e9b8a; fill-opacity: 0.7"/>
    <path d="M 172.878425 78.953751 
L 168.367882 75.625649 
L 163.627654 75.593408 
L 132.939238 75.76666 
L 112.669172 88.537406 
L 106.982541 92.698904 
L 105.809981 99.172223 
L 93.265379 175.599995 
L 88.022816 214.554331 
L 91.464816 214.554331 
L 96.969507 173.652278 
L 108.498345 103.413035 
L 110.138482 94.358371 
L 118.092752 88.537406 
L 134.189371 78.396056 
L 158.559283 78.258476 
L 167.798263 78.321315 
L 175.675375 84.133437 
L 175.981032 84.530165 
L 176.416966 85.099086 
L 184.123009 96.691745 
L 175.88124 83.690601 
z
M 229.912672 214.554331 
L 222.764054 176.615997 
L 216.275164 152.372882 
L 206.508877 132.004777 
L 200.86114 123.095642 
L 215.080053 152.749932 
L 220.960296 174.719081 
L 228.466345 214.554331 
z
" clip-path="url(#p5eac3e7456)" style="fill: #1fa188; fill-opacity: 0.7"/>
    <path d="M 169.167274 73.099522 
L 168.9375 72.929983 
L 168.696025 72.92834 
L 131.689105 73.137263 
L 107.245591 88.537406 
L 103.8266 91.039436 
L 103.121618 94.93141 
L 89.561251 177.547711 
L 84.580816 214.554331 
L 88.022816 214.554331 
L 93.265379 175.599995 
L 105.809981 99.172223 
L 106.982541 92.698904 
L 112.669172 88.537406 
L 132.939238 75.76666 
L 163.627654 75.593408 
L 168.367882 75.625649 
L 172.878425 78.953751 
z
M 231.359 214.554331 
L 224.567813 178.512914 
L 217.470275 151.995831 
L 212.156613 140.913912 
L 206.508877 132.004777 
L 216.275164 152.372882 
L 222.764054 176.615997 
L 229.912672 214.554331 
z
" clip-path="url(#p5eac3e7456)" style="fill: #21a585; fill-opacity: 0.7"/>
    <path d="M 167.471791 70.424948 
L 163.243958 70.322666 
L 130.438972 70.507867 
L 101.82201 88.537406 
L 100.670659 89.379969 
L 100.433255 90.690598 
L 85.857123 179.495428 
L 81.138816 214.554331 
L 84.580816 214.554331 
L 89.561251 177.547711 
L 103.121618 94.93141 
L 103.8266 91.039436 
L 107.245591 88.537406 
L 131.689105 73.137263 
L 168.696025 72.92834 
L 168.9375 72.929983 
L 169.167274 73.099522 
L 168.968074 72.78529 
z
M 232.805328 214.554331 
L 226.371572 180.409831 
L 218.665386 151.618781 
L 217.80435 149.823047 
L 212.156613 140.913912 
L 217.470275 151.995831 
L 224.567813 178.512914 
L 231.359 214.554331 
z
" clip-path="url(#p5eac3e7456)" style="fill: #25ab82; fill-opacity: 0.7"/>
    <path d="M 165.890637 67.930725 
L 157.195166 67.72036 
L 129.188838 67.87847 
L 100.843696 85.736756 
L 99.068289 88.537406 
L 96.820146 92.083784 
L 82.152995 181.443145 
L 77.696817 214.554331 
L 81.138816 214.554331 
L 85.857123 179.495428 
L 100.433255 90.690598 
L 100.670659 89.379969 
L 101.82201 88.537406 
L 130.438972 70.507867 
L 163.243958 70.322666 
L 167.471791 70.424948 
z
M 234.251656 214.554331 
L 228.17533 182.306747 
L 220.70586 154.400091 
L 218.896492 151.545868 
L 217.80435 149.823047 
L 218.665386 151.618781 
L 226.371572 180.409831 
L 232.805328 214.554331 
z
" clip-path="url(#p5eac3e7456)" style="fill: #2ab07f; fill-opacity: 0.7"/>
    <path d="M 164.309483 65.436503 
L 151.146374 65.118055 
L 127.938705 65.249074 
L 104.450275 80.047486 
L 100.843696 85.736756 
L 129.188838 67.87847 
L 157.195166 67.72036 
L 165.890637 67.930725 
z
M 92.253244 99.287934 
L 78.448867 183.390862 
L 74.254817 214.554331 
L 77.696817 214.554331 
L 82.152995 181.443145 
L 96.820146 92.083784 
z
M 235.697983 214.554331 
L 229.979089 184.203664 
L 222.948999 157.938576 
L 220.70586 154.400091 
L 228.17533 182.306747 
L 234.251656 214.554331 
z
" clip-path="url(#p5eac3e7456)" style="fill: #31b57b; fill-opacity: 0.7"/>
    <path d="M 162.72833 62.94228 
L 145.097582 62.515749 
L 126.688572 62.619677 
L 108.056854 74.358216 
L 104.450275 80.047486 
L 127.938705 65.249074 
L 151.146374 65.118055 
L 164.309483 65.436503 
z
M 87.686343 106.492084 
L 74.744739 185.338579 
L 70.812817 214.554331 
L 74.254817 214.554331 
L 78.448867 183.390862 
L 92.253244 99.287934 
z
M 237.144311 214.554331 
L 231.782847 186.100581 
L 225.192139 161.477061 
L 222.948999 157.938576 
L 229.979089 184.203664 
L 235.697983 214.554331 
z
" clip-path="url(#p5eac3e7456)" style="fill: #3aba76; fill-opacity: 0.7"/>
    <path d="M 161.147176 60.448058 
L 139.04879 59.913443 
L 125.438439 59.990281 
L 111.663433 68.668946 
L 108.056854 74.358216 
L 126.688572 62.619677 
L 145.097582 62.515749 
L 162.72833 62.94228 
z
M 83.119441 113.696234 
L 71.040611 187.286295 
L 67.370817 214.554331 
L 70.812817 214.554331 
L 74.744739 185.338579 
L 87.686343 106.492084 
z
M 238.590639 214.554331 
L 233.586606 187.997497 
L 227.435278 165.015545 
L 225.192139 161.477061 
L 231.782847 186.100581 
L 237.144311 214.554331 
z
" clip-path="url(#p5eac3e7456)" style="fill: #44bf70; fill-opacity: 0.7"/>
    <path d="M 159.566022 57.953835 
L 132.999998 57.311138 
L 124.188306 57.360884 
L 115.270012 62.979676 
L 111.663433 68.668946 
L 125.438439 59.990281 
L 139.04879 59.913443 
L 161.147176 60.448058 
z
M 78.55254 120.900383 
L 67.336483 189.234012 
L 63.928818 214.554331 
L 67.370817 214.554331 
L 71.040611 187.286295 
L 83.119441 113.696234 
z
M 240.036967 214.554331 
L 235.390365 189.894414 
L 229.678417 168.55403 
L 227.435278 165.015545 
L 233.586606 187.997497 
L 238.590639 214.554331 
z
" clip-path="url(#p5eac3e7456)" style="fill: #4ec36b; fill-opacity: 0.7"/>
    <path d="M 157.984868 55.459613 
L 126.951206 54.708832 
L 122.938173 54.731488 
L 118.876591 57.290406 
L 115.270012 62.979676 
L 124.188306 57.360884 
L 132.999998 57.311138 
L 159.566022 57.953835 
z
M 73.985638 128.104533 
L 63.632355 191.181729 
L 60.486818 214.554331 
L 63.928818 214.554331 
L 67.336483 189.234012 
L 78.55254 120.900383 
z
M 241.483294 214.554331 
L 237.194123 191.791331 
L 231.921556 172.092515 
L 229.678417 168.55403 
L 235.390365 189.894414 
L 240.036967 214.554331 
z
" clip-path="url(#p5eac3e7456)" style="fill: #5ac864; fill-opacity: 0.7"/>
    <path d="M 156.403715 52.96539 
L 122.143752 52.136558 
L 121.892709 52.53257 
L 118.876591 57.290406 
L 122.938173 54.731488 
L 126.951206 54.708832 
L 157.984868 55.459613 
z
M 69.418737 135.308683 
L 59.928228 193.129446 
L 57.044818 214.554331 
L 60.486818 214.554331 
L 63.632355 191.181729 
L 73.985638 128.104533 
z
M 242.929622 214.554331 
L 238.997882 193.688247 
L 234.164695 175.630999 
L 231.921556 172.092515 
L 237.194123 191.791331 
L 241.483294 214.554331 
z
" clip-path="url(#p5eac3e7456)" style="fill: #67cc5c; fill-opacity: 0.7"/>
    <path d="M 154.822561 50.471168 
L 123.67714 49.717684 
L 122.143752 52.136558 
L 156.403715 52.96539 
z
M 64.851835 142.512833 
L 56.2241 195.077163 
L 53.602818 214.554331 
L 57.044818 214.554331 
L 59.928228 193.129446 
L 69.418737 135.308683 
z
M 244.37595 214.554331 
L 240.801641 195.585164 
L 236.407835 179.169484 
L 234.164695 175.630999 
L 238.997882 193.688247 
L 242.929622 214.554331 
z
" clip-path="url(#p5eac3e7456)" style="fill: #73d056; fill-opacity: 0.7"/>
    <path d="M 153.241407 47.976945 
L 125.210528 47.298809 
L 123.67714 49.717684 
L 154.822561 50.471168 
z
M 60.284934 149.716983 
L 52.519972 197.024879 
L 50.160818 214.554331 
L 53.602818 214.554331 
L 56.2241 195.077163 
L 64.851835 142.512833 
z
M 245.822277 214.554331 
L 242.605399 197.482081 
L 238.650974 182.707969 
L 236.407835 179.169484 
L 240.801641 195.585164 
L 244.37595 214.554331 
z
" clip-path="url(#p5eac3e7456)" style="fill: #81d34d; fill-opacity: 0.7"/>
    <path d="M 151.660253 45.482723 
L 126.743917 44.879935 
L 125.210528 47.298809 
L 153.241407 47.976945 
z
M 55.718032 156.921132 
L 48.815844 198.972596 
L 46.718819 214.554331 
L 50.160818 214.554331 
L 52.519972 197.024879 
L 60.284934 149.716983 
z
M 247.268605 214.554331 
L 244.409158 199.378997 
L 240.894113 186.246453 
L 238.650974 182.707969 
L 242.605399 197.482081 
L 245.822277 214.554331 
z
" clip-path="url(#p5eac3e7456)" style="fill: #90d743; fill-opacity: 0.7"/>
    <path d="M 150.0791 42.988501 
L 128.277305 42.461061 
L 126.743917 44.879935 
L 151.660253 45.482723 
z
M 51.151131 164.125282 
L 45.111716 200.920313 
L 43.276819 214.554331 
L 46.718819 214.554331 
L 48.815844 198.972596 
L 55.718032 156.921132 
z
M 248.714933 214.554331 
L 246.212916 201.275914 
L 243.137252 189.784938 
L 240.894113 186.246453 
L 244.409158 199.378997 
L 247.268605 214.554331 
z
" clip-path="url(#p5eac3e7456)" style="fill: #a0da39; fill-opacity: 0.7"/>
    <path d="M 148.497946 40.494278 
L 129.810694 40.042187 
L 128.277305 42.461061 
L 150.0791 42.988501 
z
M 46.584229 171.329432 
L 41.407588 202.86803 
L 39.834819 214.554331 
L 43.276819 214.554331 
L 45.111716 200.920313 
L 51.151131 164.125282 
z
M 250.161261 214.554331 
L 248.016675 203.172831 
L 245.380392 193.323423 
L 243.137252 189.784938 
L 246.212916 201.275914 
L 248.714933 214.554331 
z
" clip-path="url(#p5eac3e7456)" style="fill: #addc30; fill-opacity: 0.7"/>
    <path d="M 146.916792 38.000056 
L 131.344082 37.623313 
L 129.810694 40.042187 
L 148.497946 40.494278 
z
M 42.017328 178.533582 
L 37.70346 204.815747 
L 36.392819 214.554331 
L 39.834819 214.554331 
L 41.407588 202.86803 
L 46.584229 171.329432 
z
M 251.607588 214.554331 
L 249.820434 205.069747 
L 247.623531 196.861907 
L 245.380392 193.323423 
L 248.016675 203.172831 
L 250.161261 214.554331 
z
" clip-path="url(#p5eac3e7456)" style="fill: #bddf26; fill-opacity: 0.7"/>
    <path d="M 145.335639 35.505833 
L 132.87747 35.204439 
L 131.344082 37.623313 
L 146.916792 38.000056 
z
M 37.450426 185.737732 
L 33.999332 206.763463 
L 32.950819 214.554331 
L 36.392819 214.554331 
L 37.70346 204.815747 
L 42.017328 178.533582 
z
M 253.053916 214.554331 
L 251.624192 206.966664 
L 249.86667 200.400392 
L 247.623531 196.861907 
L 249.820434 205.069747 
L 251.607588 214.554331 
z
" clip-path="url(#p5eac3e7456)" style="fill: #cde11d; fill-opacity: 0.7"/>
    <path d="M 143.754485 33.011611 
L 134.410859 32.785565 
L 132.87747 35.204439 
L 145.335639 35.505833 
z
M 32.883525 192.941881 
L 30.295204 208.71118 
L 29.50882 214.554331 
L 32.950819 214.554331 
L 33.999332 206.763463 
L 37.450426 185.737732 
z
M 254.500244 214.554331 
L 253.427951 208.863581 
L 252.109809 203.938877 
L 249.86667 200.400392 
L 251.624192 206.966664 
L 253.053916 214.554331 
z
" clip-path="url(#p5eac3e7456)" style="fill: #dae319; fill-opacity: 0.7"/>
    <path d="M 142.173331 30.517388 
L 135.944247 30.366691 
L 134.410859 32.785565 
L 143.754485 33.011611 
z
M 28.316623 200.146031 
L 26.591076 210.658897 
L 26.06682 214.554331 
L 29.50882 214.554331 
L 30.295204 208.71118 
L 32.883525 192.941881 
z
M 255.946571 214.554331 
L 255.23171 210.760497 
L 254.352948 207.477361 
L 252.109809 203.938877 
L 253.427951 208.863581 
L 254.500244 214.554331 
z
" clip-path="url(#p5eac3e7456)" style="fill: #eae51a; fill-opacity: 0.7"/>
    <path d="M 140.592177 28.023166 
L 137.477635 27.947817 
L 135.944247 30.366691 
L 142.173331 30.517388 
z
M 23.749722 207.350181 
L 22.886948 212.606614 
L 22.62482 214.554331 
L 26.06682 214.554331 
L 26.591076 210.658897 
L 28.316623 200.146031 
z
M 257.392899 214.554331 
L 257.035468 212.657414 
L 256.596088 211.015846 
L 254.352948 207.477361 
L 255.23171 210.760497 
L 255.946571 214.554331 
z
" clip-path="url(#p5eac3e7456)" style="fill: #f8e621; fill-opacity: 0.7"/>
    <path d="M 137.477635 27.947817 
L 140.592177 28.023166 
L 139.011024 25.528943 
z
M 22.62482 214.554331 
L 22.886948 212.606614 
L 23.749722 207.350181 
L 19.18282 214.554331 
z
M 256.596088 211.015846 
L 257.035468 212.657414 
L 257.392899 214.554331 
L 258.839227 214.554331 
z
" clip-path="url(#p5eac3e7456)" style="fill: #fde725; fill-opacity: 0.7"/>
   </g>
   <g id="matplotlib.axis_1"/>
   <g id="matplotlib.axis_2"/>
   <g id="line2d_1">
    <path d="M 175.88124 83.690601 
L 186.942305 176.749253 
" clip-path="url(#p5eac3e7456)" style="fill: none; stroke: #555555; stroke-opacity: 0.9; stroke-width: 0.5; stroke-linecap: square"/>
   </g>
   <g id="line2d_2">
    <path d="M 186.942305 176.749253 
L 203.533902 156.392673 
" clip-path="url(#p5eac3e7456)" style="fill: none; stroke: #555555; stroke-opacity: 0.9; stroke-width: 0.5; stroke-linecap: square"/>
   </g>
   <g id="line2d_3">
    <path d="M 139.011024 88.537406 
L 158.982391 120.041637 
" clip-path="url(#p5eac3e7456)" style="fill: none; stroke: #555555; stroke-opacity: 0.9; stroke-width: 0.5; stroke-linecap: square"/>
   </g>
   <g id="line2d_4">
    <path d="M 99.068289 88.537406 
L 139.011024 88.537406 
" clip-path="url(#p5eac3e7456)" style="fill: none; stroke: #555555; stroke-opacity: 0.9; stroke-width: 0.5; stroke-linecap: square"/>
   </g>
   <g id="line2d_5">
    <path d="M 99.068289 88.537406 
L 121.892709 52.53257 
" clip-path="url(#p5eac3e7456)" style="fill: none; stroke: #555555; stroke-opacity: 0.9; stroke-width: 0.5; stroke-linecap: square"/>
   </g>
   <g id="line2d_6">
    <path d="M 198.925125 214.554331 
L 186.942305 176.749253 
" clip-path="url(#p5eac3e7456)" style="fill: none; stroke: #555555; stroke-opacity: 0.9; stroke-width: 0.5; stroke-linecap: square"/>
   </g>
   <g id="line2d_7">
    <path d="M 121.892709 52.53257 
L 139.011024 88.537406 
" clip-path="url(#p5eac3e7456)" style="fill: none; stroke: #555555; stroke-opacity: 0.9; stroke-width: 0.5; stroke-linecap: square"/>
   </g>
   <g id="line2d_8">
    <path d="M 168.968074 72.78529 
L 175.88124 83.690601 
" clip-path="url(#p5eac3e7456)" style="fill: none; stroke: #555555; stroke-opacity: 0.9; stroke-width: 0.5; stroke-linecap: square"/>
   </g>
   <g id="line2d_9">
    <path d="M 121.892709 52.53257 
L 139.011024 25.528943 
" clip-path="url(#p5eac3e7456)" style="fill: none; stroke: #555555; stroke-opacity: 0.9; stroke-width: 0.5; stroke-linecap: square"/>
   </g>
   <g id="line2d_10">
    <path d="M 198.925125 120.041637 
L 203.533902 156.392673 
" clip-path="url(#p5eac3e7456)" style="fill: none; stroke: #555555; stroke-opacity: 0.9; stroke-width: 0.5; stroke-linecap: square"/>
   </g>
   <g id="line2d_11">
    <path d="M 178.953758 214.554331 
L 198.925125 214.554331 
" clip-path="url(#p5eac3e7456)" style="fill: none; stroke: #555555; stroke-opacity: 0.9; stroke-width: 0.5; stroke-linecap: square"/>
   </g>
   <g id="line2d_12">
    <path d="M 175.88124 83.690601 
L 203.533902 156.392673 
" clip-path="url(#p5eac3e7456)" style="fill: none; stroke: #555555; stroke-opacity: 0.9; stroke-width: 0.5; stroke-linecap: square"/>
   </g>
   <g id="line2d_13">
    <path d="M 203.533902 156.392673 
L 207.484283 214.554331 
" clip-path="url(#p5eac3e7456)" style="fill: none; stroke: #555555; stroke-opacity: 0.9; stroke-width: 0.5; stroke-linecap: square"/>
   </g>
   <g id="line2d_14">
    <path d="M 99.068289 88.537406 
L 158.982391 120.041637 
" clip-path="url(#p5eac3e7456)" style="fill: none; stroke: #555555; stroke-opacity: 0.9; stroke-width: 0.5; stroke-linecap: square"/>
   </g>
   <g id="line2d_15">
    <path d="M 218.896492 151.545868 
L 258.839227 214.554331 
" clip-path="url(#p5eac3e7456)" style="fill: none; stroke: #555555; stroke-opacity: 0.9; stroke-width: 0.5; stroke-linecap: square"/>
   </g>
   <g id="line2d_16">
    <path d="M 99.068289 88.537406 
L 139.011024 151.545868 
" clip-path="url(#p5eac3e7456)" style="fill: none; stroke: #555555; stroke-opacity: 0.9; stroke-width: 0.5; stroke-linecap: square"/>
   </g>
   <g id="line2d_17">
    <path d="M 198.925125 214.554331 
L 203.533902 156.392673 
" clip-path="url(#p5eac3e7456)" style="fill: none; stroke: #555555; stroke-opacity: 0.9; stroke-width: 0.5; stroke-linecap: square"/>
   </g>
   <g id="line2d_18">
    <path d="M 168.968074 72.78529 
L 121.892709 52.53257 
" clip-path="url(#p5eac3e7456)" style="fill: none; stroke: #555555; stroke-opacity: 0.9; stroke-width: 0.5; stroke-linecap: square"/>
   </g>
   <g id="line2d_19">
    <path d="M 139.011024 151.545868 
L 158.982391 120.041637 
" clip-path="url(#p5eac3e7456)" style="fill: none; stroke: #555555; stroke-opacity: 0.9; stroke-width: 0.5; stroke-linecap: square"/>
   </g>
   <g id="line2d_20">
    <path d="M 99.068289 88.537406 
L 19.18282 214.554331 
" clip-path="url(#p5eac3e7456)" style="fill: none; stroke: #555555; stroke-opacity: 0.9; stroke-width: 0.5; stroke-linecap: square"/>
   </g>
   <g id="line2d_21">
    <path d="M 168.968074 72.78529 
L 139.011024 88.537406 
" clip-path="url(#p5eac3e7456)" style="fill: none; stroke: #555555; stroke-opacity: 0.9; stroke-width: 0.5; stroke-linecap: square"/>
   </g>
   <g id="line2d_22">
    <path d="M 178.953758 214.554331 
L 158.982391 120.041637 
" clip-path="url(#p5eac3e7456)" style="fill: none; stroke: #555555; stroke-opacity: 0.9; stroke-width: 0.5; stroke-linecap: square"/>
   </g>
   <g id="line2d_23">
    <path d="M 168.968074 72.78529 
L 139.011024 25.528943 
" clip-path="url(#p5eac3e7456)" style="fill: none; stroke: #555555; stroke-opacity: 0.9; stroke-width: 0.5; stroke-linecap: square"/>
   </g>
   <g id="line2d_24">
    <path d="M 178.953758 214.554331 
L 19.18282 214.554331 
" clip-path="url(#p5eac3e7456)" style="fill: none; stroke: #555555; stroke-opacity: 0.9; stroke-width: 0.5; stroke-linecap: square"/>
   </g>
   <g id="line2d_25">
    <path d="M 158.982391 120.041637 
L 186.942305 176.749253 
" clip-path="url(#p5eac3e7456)" style="fill: none; stroke: #555555; stroke-opacity: 0.9; stroke-width: 0.5; stroke-linecap: square"/>
   </g>
   <g id="line2d_26">
    <path d="M 139.011024 151.545868 
L 19.18282 214.554331 
" clip-path="url(#p5eac3e7456)" style="fill: none; stroke: #555555; stroke-opacity: 0.9; stroke-width: 0.5; stroke-linecap: square"/>
   </g>
   <g id="line2d_27">
    <path d="M 175.88124 83.690601 
L 158.982391 120.041637 
" clip-path="url(#p5eac3e7456)" style="fill: none; stroke: #555555; stroke-opacity: 0.9; stroke-width: 0.5; stroke-linecap: square"/>
   </g>
   <g id="line2d_28">
    <path d="M 203.533902 156.392673 
L 258.839227 214.554331 
" clip-path="url(#p5eac3e7456)" style="fill: none; stroke: #555555; stroke-opacity: 0.9; stroke-width: 0.5; stroke-linecap: square"/>
   </g>
   <g id="line2d_29">
    <path d="M 207.484283 214.554331 
L 258.839227 214.554331 
" clip-path="url(#p5eac3e7456)" style="fill: none; stroke: #555555; stroke-opacity: 0.9; stroke-width: 0.5; stroke-linecap: square"/>
   </g>
   <g id="line2d_30">
    <path d="M 218.896492 151.545868 
L 203.533902 156.392673 
" clip-path="url(#p5eac3e7456)" style="fill: none; stroke: #555555; stroke-opacity: 0.9; stroke-width: 0.5; stroke-linecap: square"/>
   </g>
   <g id="line2d_31">
    <path d="M 198.925125 120.041637 
L 218.896492 151.545868 
" clip-path="url(#p5eac3e7456)" style="fill: none; stroke: #555555; stroke-opacity: 0.9; stroke-width: 0.5; stroke-linecap: square"/>
   </g>
   <g id="line2d_32">
    <path d="M 198.925125 120.041637 
L 175.88124 83.690601 
" clip-path="url(#p5eac3e7456)" style="fill: none; stroke: #555555; stroke-opacity: 0.9; stroke-width: 0.5; stroke-linecap: square"/>
   </g>
   <g id="line2d_33">
    <path d="M 198.925125 214.554331 
L 207.484283 214.554331 
" clip-path="url(#p5eac3e7456)" style="fill: none; stroke: #555555; stroke-opacity: 0.9; stroke-width: 0.5; stroke-linecap: square"/>
   </g>
   <g id="line2d_34">
    <path d="M 168.968074 72.78529 
L 158.982391 120.041637 
" clip-path="url(#p5eac3e7456)" style="fill: none; stroke: #555555; stroke-opacity: 0.9; stroke-width: 0.5; stroke-linecap: square"/>
   </g>
   <g id="line2d_35">
    <path d="M 139.011024 151.545868 
L 178.953758 214.554331 
" clip-path="url(#p5eac3e7456)" style="fill: none; stroke: #555555; stroke-opacity: 0.9; stroke-width: 0.5; stroke-linecap: square"/>
   </g>
   <g id="line2d_36">
    <path d="M 178.953758 214.554331 
L 186.942305 176.749253 
" clip-path="url(#p5eac3e7456)" style="fill: none; stroke: #555555; stroke-opacity: 0.9; stroke-width: 0.5; stroke-linecap: square"/>
   </g>
   <g id="PathCollection_1">
    <defs>
     <path id="mf99323f9c8" d="M 0 2.738613 
C 0.726289 2.738613 1.422928 2.450055 1.936492 1.936492 
C 2.450055 1.422928 2.738613 0.726289 2.738613 0 
C 2.738613 -0.726289 2.450055 -1.422928 1.936492 -1.936492 
C 1.422928 -2.450055 0.726289 -2.738613 0 -2.738613 
C -0.726289 -2.738613 -1.422928 -2.450055 -1.936492 -1.936492 
C -2.450055 -1.422928 -2.738613 -0.726289 -2.738613 0 
C -2.738613 0.726289 -2.450055 1.422928 -1.936492 1.936492 
C -1.422928 2.450055 -0.726289 2.738613 0 2.738613 
z
" style="stroke: #008000"/>
    </defs>
    <g clip-path="url(#p5eac3e7456)">
     <use xlink:href="#mf99323f9c8" x="175.88124" y="83.690601" style="fill: #008000; stroke: #008000"/>
     <use xlink:href="#mf99323f9c8" x="186.942305" y="176.749253" style="fill: #008000; stroke: #008000"/>
     <use xlink:href="#mf99323f9c8" x="203.533902" y="156.392673" style="fill: #008000; stroke: #008000"/>
     <use xlink:href="#mf99323f9c8" x="139.011024" y="88.537406" style="fill: #008000; stroke: #008000"/>
     <use xlink:href="#mf99323f9c8" x="158.982391" y="120.041637" style="fill: #008000; stroke: #008000"/>
     <use xlink:href="#mf99323f9c8" x="99.068289" y="88.537406" style="fill: #008000; stroke: #008000"/>
     <use xlink:href="#mf99323f9c8" x="121.892709" y="52.53257" style="fill: #008000; stroke: #008000"/>
     <use xlink:href="#mf99323f9c8" x="198.925125" y="214.554331" style="fill: #008000; stroke: #008000"/>
     <use xlink:href="#mf99323f9c8" x="168.968074" y="72.78529" style="fill: #008000; stroke: #008000"/>
     <use xlink:href="#mf99323f9c8" x="139.011024" y="25.528943" style="fill: #008000; stroke: #008000"/>
     <use xlink:href="#mf99323f9c8" x="198.925125" y="120.041637" style="fill: #008000; stroke: #008000"/>
     <use xlink:href="#mf99323f9c8" x="178.953758" y="214.554331" style="fill: #008000; stroke: #008000"/>
     <use xlink:href="#mf99323f9c8" x="207.484283" y="214.554331" style="fill: #008000; stroke: #008000"/>
     <use xlink:href="#mf99323f9c8" x="218.896492" y="151.545868" style="fill: #008000; stroke: #008000"/>
     <use xlink:href="#mf99323f9c8" x="258.839227" y="214.554331" style="fill: #008000; stroke: #008000"/>
     <use xlink:href="#mf99323f9c8" x="139.011024" y="151.545868" style="fill: #008000; stroke: #008000"/>
     <use xlink:href="#mf99323f9c8" x="19.18282" y="214.554331" style="fill: #008000; stroke: #008000"/>
    </g>
   </g>
   <g id="PathCollection_2">
    <defs>
     <path id="mf6f35c1b3a" d="M -0 2.236068 
L 1.341641 0 
L 0 -2.236068 
L -1.341641 -0 
z
" style="stroke: #d3d3d3"/>
    </defs>
    <g clip-path="url(#p5eac3e7456)">
     <use xlink:href="#mf6f35c1b3a" x="139.011024" y="25.528943" style="fill: #d3d3d3; stroke: #d3d3d3"/>
     <use xlink:href="#mf6f35c1b3a" x="139.011024" y="25.528943" style="fill: #d3d3d3; stroke: #d3d3d3"/>
     <use xlink:href="#mf6f35c1b3a" x="139.011024" y="25.528943" style="fill: #d3d3d3; stroke: #d3d3d3"/>
     <use xlink:href="#mf6f35c1b3a" x="139.011024" y="25.528943" style="fill: #d3d3d3; stroke: #d3d3d3"/>
     <use xlink:href="#mf6f35c1b3a" x="139.011024" y="25.528943" style="fill: #d3d3d3; stroke: #d3d3d3"/>
     <use xlink:href="#mf6f35c1b3a" x="139.011024" y="25.528943" style="fill: #d3d3d3; stroke: #d3d3d3"/>
     <use xlink:href="#mf6f35c1b3a" x="139.011024" y="25.528943" style="fill: #d3d3d3; stroke: #d3d3d3"/>
     <use xlink:href="#mf6f35c1b3a" x="258.839227" y="214.554331" style="fill: #d3d3d3; stroke: #d3d3d3"/>
     <use xlink:href="#mf6f35c1b3a" x="258.839227" y="214.554331" style="fill: #d3d3d3; stroke: #d3d3d3"/>
     <use xlink:href="#mf6f35c1b3a" x="258.839227" y="214.554331" style="fill: #d3d3d3; stroke: #d3d3d3"/>
     <use xlink:href="#mf6f35c1b3a" x="258.839227" y="214.554331" style="fill: #d3d3d3; stroke: #d3d3d3"/>
     <use xlink:href="#mf6f35c1b3a" x="258.839227" y="214.554331" style="fill: #d3d3d3; stroke: #d3d3d3"/>
     <use xlink:href="#mf6f35c1b3a" x="258.839227" y="214.554331" style="fill: #d3d3d3; stroke: #d3d3d3"/>
     <use xlink:href="#mf6f35c1b3a" x="258.839227" y="214.554331" style="fill: #d3d3d3; stroke: #d3d3d3"/>
     <use xlink:href="#mf6f35c1b3a" x="258.839227" y="214.554331" style="fill: #d3d3d3; stroke: #d3d3d3"/>
     <use xlink:href="#mf6f35c1b3a" x="258.839227" y="214.554331" style="fill: #d3d3d3; stroke: #d3d3d3"/>
     <use xlink:href="#mf6f35c1b3a" x="198.925125" y="120.041637" style="fill: #d3d3d3; stroke: #d3d3d3"/>
     <use xlink:href="#mf6f35c1b3a" x="168.968074" y="72.78529" style="fill: #d3d3d3; stroke: #d3d3d3"/>
     <use xlink:href="#mf6f35c1b3a" x="168.968074" y="72.78529" style="fill: #d3d3d3; stroke: #d3d3d3"/>
     <use xlink:href="#mf6f35c1b3a" x="168.968074" y="72.78529" style="fill: #d3d3d3; stroke: #d3d3d3"/>
     <use xlink:href="#mf6f35c1b3a" x="162.976664" y="63.334021" style="fill: #d3d3d3; stroke: #d3d3d3"/>
     <use xlink:href="#mf6f35c1b3a" x="218.896492" y="151.545868" style="fill: #d3d3d3; stroke: #d3d3d3"/>
     <use xlink:href="#mf6f35c1b3a" x="218.896492" y="151.545868" style="fill: #d3d3d3; stroke: #d3d3d3"/>
     <use xlink:href="#mf6f35c1b3a" x="228.882176" y="167.297984" style="fill: #d3d3d3; stroke: #d3d3d3"/>
     <use xlink:href="#mf6f35c1b3a" x="228.882176" y="167.297984" style="fill: #d3d3d3; stroke: #d3d3d3"/>
     <use xlink:href="#mf6f35c1b3a" x="210.907946" y="138.944176" style="fill: #d3d3d3; stroke: #d3d3d3"/>
     <use xlink:href="#mf6f35c1b3a" x="164.238014" y="65.323762" style="fill: #d3d3d3; stroke: #d3d3d3"/>
     <use xlink:href="#mf6f35c1b3a" x="19.18282" y="214.554331" style="fill: #d3d3d3; stroke: #d3d3d3"/>
     <use xlink:href="#mf6f35c1b3a" x="19.18282" y="214.554331" style="fill: #d3d3d3; stroke: #d3d3d3"/>
     <use xlink:href="#mf6f35c1b3a" x="19.18282" y="214.554331" style="fill: #d3d3d3; stroke: #d3d3d3"/>
     <use xlink:href="#mf6f35c1b3a" x="19.18282" y="214.554331" style="fill: #d3d3d3; stroke: #d3d3d3"/>
     <use xlink:href="#mf6f35c1b3a" x="19.18282" y="214.554331" style="fill: #d3d3d3; stroke: #d3d3d3"/>
     <use xlink:href="#mf6f35c1b3a" x="79.096922" y="120.041637" style="fill: #d3d3d3; stroke: #d3d3d3"/>
     <use xlink:href="#mf6f35c1b3a" x="119.039656" y="57.033175" style="fill: #d3d3d3; stroke: #d3d3d3"/>
     <use xlink:href="#mf6f35c1b3a" x="121.892709" y="52.53257" style="fill: #d3d3d3; stroke: #d3d3d3"/>
     <use xlink:href="#mf6f35c1b3a" x="139.011024" y="214.554331" style="fill: #d3d3d3; stroke: #d3d3d3"/>
     <use xlink:href="#mf6f35c1b3a" x="139.011024" y="214.554331" style="fill: #d3d3d3; stroke: #d3d3d3"/>
     <use xlink:href="#mf6f35c1b3a" x="139.011024" y="88.537406" style="fill: #d3d3d3; stroke: #d3d3d3"/>
     <use xlink:href="#mf6f35c1b3a" x="158.982391" y="120.041637" style="fill: #d3d3d3; stroke: #d3d3d3"/>
     <use xlink:href="#mf6f35c1b3a" x="186.942305" y="176.749253" style="fill: #d3d3d3; stroke: #d3d3d3"/>
     <use xlink:href="#mf6f35c1b3a" x="210.907946" y="214.554331" style="fill: #d3d3d3; stroke: #d3d3d3"/>
     <use xlink:href="#mf6f35c1b3a" x="210.907946" y="214.554331" style="fill: #d3d3d3; stroke: #d3d3d3"/>
     <use xlink:href="#mf6f35c1b3a" x="49.139871" y="167.297984" style="fill: #d3d3d3; stroke: #d3d3d3"/>
     <use xlink:href="#mf6f35c1b3a" x="49.139871" y="167.297984" style="fill: #d3d3d3; stroke: #d3d3d3"/>
     <use xlink:href="#mf6f35c1b3a" x="79.096922" y="214.554331" style="fill: #d3d3d3; stroke: #d3d3d3"/>
     <use xlink:href="#mf6f35c1b3a" x="79.096922" y="214.554331" style="fill: #d3d3d3; stroke: #d3d3d3"/>
     <use xlink:href="#mf6f35c1b3a" x="79.096922" y="214.554331" style="fill: #d3d3d3; stroke: #d3d3d3"/>
    </g>
   </g>
   <g id="PathCollection_3">
    <defs>
     <path id="m71c8abe049" d="M 0 -5 
L -1.12257 -1.545085 
L -4.755283 -1.545085 
L -1.816356 0.59017 
L -2.938926 4.045085 
L -0 1.90983 
L 2.938926 4.045085 
L 1.816356 0.59017 
L 4.755283 -1.545085 
L 1.12257 -1.545085 
z
" style="stroke: #ff0000"/>
    </defs>
    <g clip-path="url(#p5eac3e7456)">
     <use xlink:href="#m71c8abe049" x="203.533902" y="156.392673" style="fill: #ff0000; stroke: #ff0000"/>
    </g>
   </g>
   <g id="text_1">
    <!-- $\mathrm{Al_{4}Cu_{9}}$ -->
    <g transform="translate(179.217604 85.779563) scale(0.1 -0.1)">
     <defs>
      <path id="DejaVuSans-41" d="M 2188 4044 
L 1331 1722 
L 3047 1722 
L 2188 4044 
z
M 1831 4666 
L 2547 4666 
L 4325 0 
L 3669 0 
L 3244 1197 
L 1141 1197 
L 716 0 
L 50 0 
L 1831 4666 
z
" transform="scale(0.015625)"/>
      <path id="DejaVuSans-6c" d="M 603 4863 
L 1178 4863 
L 1178 0 
L 603 0 
L 603 4863 
z
" transform="scale(0.015625)"/>
      <path id="DejaVuSans-34" d="M 2419 4116 
L 825 1625 
L 2419 1625 
L 2419 4116 
z
M 2253 4666 
L 3047 4666 
L 3047 1625 
L 3713 1625 
L 3713 1100 
L 3047 1100 
L 3047 0 
L 2419 0 
L 2419 1100 
L 313 1100 
L 313 1709 
L 2253 4666 
z
" transform="scale(0.015625)"/>
      <path id="DejaVuSans-43" d="M 4122 4306 
L 4122 3641 
Q 3803 3938 3442 4084 
Q 3081 4231 2675 4231 
Q 1875 4231 1450 3742 
Q 1025 3253 1025 2328 
Q 1025 1406 1450 917 
Q 1875 428 2675 428 
Q 3081 428 3442 575 
Q 3803 722 4122 1019 
L 4122 359 
Q 3791 134 3420 21 
Q 3050 -91 2638 -91 
Q 1578 -91 968 557 
Q 359 1206 359 2328 
Q 359 3453 968 4101 
Q 1578 4750 2638 4750 
Q 3056 4750 3426 4639 
Q 3797 4528 4122 4306 
z
" transform="scale(0.015625)"/>
      <path id="DejaVuSans-75" d="M 544 1381 
L 544 3500 
L 1119 3500 
L 1119 1403 
Q 1119 906 1312 657 
Q 1506 409 1894 409 
Q 2359 409 2629 706 
Q 2900 1003 2900 1516 
L 2900 3500 
L 3475 3500 
L 3475 0 
L 2900 0 
L 2900 538 
Q 2691 219 2414 64 
Q 2138 -91 1772 -91 
Q 1169 -91 856 284 
Q 544 659 544 1381 
z
M 1991 3584 
L 1991 3584 
z
" transform="scale(0.015625)"/>
      <path id="DejaVuSans-39" d="M 703 97 
L 703 672 
Q 941 559 1184 500 
Q 1428 441 1663 441 
Q 2288 441 2617 861 
Q 2947 1281 2994 2138 
Q 2813 1869 2534 1725 
Q 2256 1581 1919 1581 
Q 1219 1581 811 2004 
Q 403 2428 403 3163 
Q 403 3881 828 4315 
Q 1253 4750 1959 4750 
Q 2769 4750 3195 4129 
Q 3622 3509 3622 2328 
Q 3622 1225 3098 567 
Q 2575 -91 1691 -91 
Q 1453 -91 1209 -44 
Q 966 3 703 97 
z
M 1959 2075 
Q 2384 2075 2632 2365 
Q 2881 2656 2881 3163 
Q 2881 3666 2632 3958 
Q 2384 4250 1959 4250 
Q 1534 4250 1286 3958 
Q 1038 3666 1038 3163 
Q 1038 2656 1286 2365 
Q 1534 2075 1959 2075 
z
" transform="scale(0.015625)"/>
     </defs>
     <use xlink:href="#DejaVuSans-41" transform="translate(0 0.015625)"/>
     <use xlink:href="#DejaVuSans-6c" transform="translate(68.408203 0.015625)"/>
     <use xlink:href="#DejaVuSans-34" transform="translate(97.148438 -16.390625) scale(0.7)"/>
     <use xlink:href="#DejaVuSans-43" transform="translate(144.418945 0.015625)"/>
     <use xlink:href="#DejaVuSans-75" transform="translate(214.243164 0.015625)"/>
     <use xlink:href="#DejaVuSans-39" transform="translate(278.579102 -16.390625) scale(0.7)"/>
    </g>
   </g>
   <g id="text_2">
    <!-- $\mathrm{CeAl_{3}Cu}$ -->
    <g transform="translate(152.092305 186.320674) scale(0.1 -0.1)">
     <defs>
      <path id="DejaVuSans-65" d="M 3597 1894 
L 3597 1613 
L 953 1613 
Q 991 1019 1311 708 
Q 1631 397 2203 397 
Q 2534 397 2845 478 
Q 3156 559 3463 722 
L 3463 178 
Q 3153 47 2828 -22 
Q 2503 -91 2169 -91 
Q 1331 -91 842 396 
Q 353 884 353 1716 
Q 353 2575 817 3079 
Q 1281 3584 2069 3584 
Q 2775 3584 3186 3129 
Q 3597 2675 3597 1894 
z
M 3022 2063 
Q 3016 2534 2758 2815 
Q 2500 3097 2075 3097 
Q 1594 3097 1305 2825 
Q 1016 2553 972 2059 
L 3022 2063 
z
" transform="scale(0.015625)"/>
      <path id="DejaVuSans-33" d="M 2597 2516 
Q 3050 2419 3304 2112 
Q 3559 1806 3559 1356 
Q 3559 666 3084 287 
Q 2609 -91 1734 -91 
Q 1441 -91 1130 -33 
Q 819 25 488 141 
L 488 750 
Q 750 597 1062 519 
Q 1375 441 1716 441 
Q 2309 441 2620 675 
Q 2931 909 2931 1356 
Q 2931 1769 2642 2001 
Q 2353 2234 1838 2234 
L 1294 2234 
L 1294 2753 
L 1863 2753 
Q 2328 2753 2575 2939 
Q 2822 3125 2822 3475 
Q 2822 3834 2567 4026 
Q 2313 4219 1838 4219 
Q 1578 4219 1281 4162 
Q 984 4106 628 3988 
L 628 4550 
Q 988 4650 1302 4700 
Q 1616 4750 1894 4750 
Q 2613 4750 3031 4423 
Q 3450 4097 3450 3541 
Q 3450 3153 3228 2886 
Q 3006 2619 2597 2516 
z
" transform="scale(0.015625)"/>
     </defs>
     <use xlink:href="#DejaVuSans-43" transform="translate(0 0.015625)"/>
     <use xlink:href="#DejaVuSans-65" transform="translate(69.824219 0.015625)"/>
     <use xlink:href="#DejaVuSans-41" transform="translate(131.347656 0.015625)"/>
     <use xlink:href="#DejaVuSans-6c" transform="translate(199.755859 0.015625)"/>
     <use xlink:href="#DejaVuSans-33" transform="translate(228.496094 -16.390625) scale(0.7)"/>
     <use xlink:href="#DejaVuSans-43" transform="translate(275.766602 0.015625)"/>
     <use xlink:href="#DejaVuSans-75" transform="translate(345.59082 0.015625)"/>
    </g>
   </g>
   <g id="text_3">
    <!-- $\mathrm{CeAlCu_{4}}$ -->
    <g transform="translate(138.851933 93.070521) scale(0.1 -0.1)">
     <use xlink:href="#DejaVuSans-43" transform="translate(0 0.015625)"/>
     <use xlink:href="#DejaVuSans-65" transform="translate(69.824219 0.015625)"/>
     <use xlink:href="#DejaVuSans-41" transform="translate(131.347656 0.015625)"/>
     <use xlink:href="#DejaVuSans-6c" transform="translate(199.755859 0.015625)"/>
     <use xlink:href="#DejaVuSans-43" transform="translate(227.539062 0.015625)"/>
     <use xlink:href="#DejaVuSans-75" transform="translate(297.363281 0.015625)"/>
     <use xlink:href="#DejaVuSans-34" transform="translate(361.699219 -16.390625) scale(0.7)"/>
    </g>
   </g>
   <g id="text_4">
    <!-- $\mathrm{CeAl_{2}Cu_{3}}$ -->
    <g transform="translate(155.718754 129.613058) scale(0.1 -0.1)">
     <defs>
      <path id="DejaVuSans-32" d="M 1228 531 
L 3431 531 
L 3431 0 
L 469 0 
L 469 531 
Q 828 903 1448 1529 
Q 2069 2156 2228 2338 
Q 2531 2678 2651 2914 
Q 2772 3150 2772 3378 
Q 2772 3750 2511 3984 
Q 2250 4219 1831 4219 
Q 1534 4219 1204 4116 
Q 875 4013 500 3803 
L 500 4441 
Q 881 4594 1212 4672 
Q 1544 4750 1819 4750 
Q 2544 4750 2975 4387 
Q 3406 4025 3406 3419 
Q 3406 3131 3298 2873 
Q 3191 2616 2906 2266 
Q 2828 2175 2409 1742 
Q 1991 1309 1228 531 
z
" transform="scale(0.015625)"/>
     </defs>
     <use xlink:href="#DejaVuSans-43" transform="translate(0 0.015625)"/>
     <use xlink:href="#DejaVuSans-65" transform="translate(69.824219 0.015625)"/>
     <use xlink:href="#DejaVuSans-41" transform="translate(131.347656 0.015625)"/>
     <use xlink:href="#DejaVuSans-6c" transform="translate(199.755859 0.015625)"/>
     <use xlink:href="#DejaVuSans-32" transform="translate(228.496094 -16.390625) scale(0.7)"/>
     <use xlink:href="#DejaVuSans-43" transform="translate(275.766602 0.015625)"/>
     <use xlink:href="#DejaVuSans-75" transform="translate(345.59082 0.015625)"/>
     <use xlink:href="#DejaVuSans-33" transform="translate(409.926758 -16.390625) scale(0.7)"/>
    </g>
   </g>
   <g id="text_5">
    <!-- $\mathrm{CeCu_{2}}$ -->
    <g transform="translate(73.600107 97.385289) scale(0.1 -0.1)">
     <use xlink:href="#DejaVuSans-43" transform="translate(0 0.78125)"/>
     <use xlink:href="#DejaVuSans-65" transform="translate(69.824219 0.78125)"/>
     <use xlink:href="#DejaVuSans-43" transform="translate(131.347656 0.78125)"/>
     <use xlink:href="#DejaVuSans-75" transform="translate(201.171875 0.78125)"/>
     <use xlink:href="#DejaVuSans-32" transform="translate(265.507812 -15.625) scale(0.7)"/>
    </g>
   </g>
   <g id="text_6">
    <!-- $\mathrm{CeCu_{6}}$ -->
    <g transform="translate(96.424527 61.430453) scale(0.1 -0.1)">
     <defs>
      <path id="DejaVuSans-36" d="M 2113 2584 
Q 1688 2584 1439 2293 
Q 1191 2003 1191 1497 
Q 1191 994 1439 701 
Q 1688 409 2113 409 
Q 2538 409 2786 701 
Q 3034 994 3034 1497 
Q 3034 2003 2786 2293 
Q 2538 2584 2113 2584 
z
M 3366 4563 
L 3366 3988 
Q 3128 4100 2886 4159 
Q 2644 4219 2406 4219 
Q 1781 4219 1451 3797 
Q 1122 3375 1075 2522 
Q 1259 2794 1537 2939 
Q 1816 3084 2150 3084 
Q 2853 3084 3261 2657 
Q 3669 2231 3669 1497 
Q 3669 778 3244 343 
Q 2819 -91 2113 -91 
Q 1303 -91 875 529 
Q 447 1150 447 2328 
Q 447 3434 972 4092 
Q 1497 4750 2381 4750 
Q 2619 4750 2861 4703 
Q 3103 4656 3366 4563 
z
" transform="scale(0.015625)"/>
     </defs>
     <use xlink:href="#DejaVuSans-43" transform="translate(0 0.78125)"/>
     <use xlink:href="#DejaVuSans-65" transform="translate(69.824219 0.78125)"/>
     <use xlink:href="#DejaVuSans-43" transform="translate(131.347656 0.78125)"/>
     <use xlink:href="#DejaVuSans-75" transform="translate(201.171875 0.78125)"/>
     <use xlink:href="#DejaVuSans-36" transform="translate(265.507812 -15.625) scale(0.7)"/>
    </g>
   </g>
   <g id="text_7">
    <!-- $\mathrm{CeAl_{3}}$ -->
    <g transform="translate(186.434216 210.594971) scale(0.1 -0.1)">
     <use xlink:href="#DejaVuSans-43" transform="translate(0 0.015625)"/>
     <use xlink:href="#DejaVuSans-65" transform="translate(69.824219 0.015625)"/>
     <use xlink:href="#DejaVuSans-41" transform="translate(131.347656 0.015625)"/>
     <use xlink:href="#DejaVuSans-6c" transform="translate(199.755859 0.015625)"/>
     <use xlink:href="#DejaVuSans-33" transform="translate(228.496094 -16.390625) scale(0.7)"/>
    </g>
   </g>
   <g id="text_8">
    <!-- $\mathrm{AlCu_{3}}$ -->
    <g transform="translate(161.613529 68.638869) scale(0.1 -0.1)">
     <use xlink:href="#DejaVuSans-41" transform="translate(0 0.015625)"/>
     <use xlink:href="#DejaVuSans-6c" transform="translate(68.408203 0.015625)"/>
     <use xlink:href="#DejaVuSans-43" transform="translate(96.191406 0.015625)"/>
     <use xlink:href="#DejaVuSans-75" transform="translate(166.015625 0.015625)"/>
     <use xlink:href="#DejaVuSans-33" transform="translate(230.351562 -16.390625) scale(0.7)"/>
    </g>
   </g>
   <g id="text_9">
    <!-- $\mathrm{Cu}$ -->
    <g transform="translate(129.692842 33.725944) scale(0.1 -0.1)">
     <use xlink:href="#DejaVuSans-43" transform="translate(0 0.78125)"/>
     <use xlink:href="#DejaVuSans-75" transform="translate(69.824219 0.78125)"/>
    </g>
   </g>
   <g id="text_10">
    <!-- $\mathrm{AlCu}$ -->
    <g transform="translate(201.825125 122.626793) scale(0.1 -0.1)">
     <use xlink:href="#DejaVuSans-41" transform="translate(0 0.015625)"/>
     <use xlink:href="#DejaVuSans-6c" transform="translate(68.408203 0.015625)"/>
     <use xlink:href="#DejaVuSans-43" transform="translate(96.191406 0.015625)"/>
     <use xlink:href="#DejaVuSans-75" transform="translate(166.015625 0.015625)"/>
    </g>
   </g>
   <g id="text_11">
    <!-- $\mathrm{CeAl_{2}}$ -->
    <g transform="translate(157.953758 210.544971) scale(0.1 -0.1)">
     <use xlink:href="#DejaVuSans-43" transform="translate(0 0.015625)"/>
     <use xlink:href="#DejaVuSans-65" transform="translate(69.824219 0.015625)"/>
     <use xlink:href="#DejaVuSans-41" transform="translate(131.347656 0.015625)"/>
     <use xlink:href="#DejaVuSans-6c" transform="translate(199.755859 0.015625)"/>
     <use xlink:href="#DejaVuSans-32" transform="translate(228.496094 -16.390625) scale(0.7)"/>
    </g>
   </g>
   <g id="text_12">
    <!-- $\mathrm{Ce_{3}Al_{11}}$ -->
    <g transform="translate(211.943374 210.594971) scale(0.1 -0.1)">
     <defs>
      <path id="DejaVuSans-31" d="M 794 531 
L 1825 531 
L 1825 4091 
L 703 3866 
L 703 4441 
L 1819 4666 
L 2450 4666 
L 2450 531 
L 3481 531 
L 3481 0 
L 794 0 
L 794 531 
z
" transform="scale(0.015625)"/>
     </defs>
     <use xlink:href="#DejaVuSans-43" transform="translate(0 0.015625)"/>
     <use xlink:href="#DejaVuSans-65" transform="translate(69.824219 0.015625)"/>
     <use xlink:href="#DejaVuSans-33" transform="translate(132.304688 -16.390625) scale(0.7)"/>
     <use xlink:href="#DejaVuSans-41" transform="translate(179.575195 0.015625)"/>
     <use xlink:href="#DejaVuSans-6c" transform="translate(247.983398 0.015625)"/>
     <use xlink:href="#DejaVuSans-31" transform="translate(276.723633 -16.390625) scale(0.7)"/>
     <use xlink:href="#DejaVuSans-31" transform="translate(321.259766 -16.390625) scale(0.7)"/>
    </g>
   </g>
   <g id="text_13">
    <!-- $\mathrm{Al_{2}Cu}$ -->
    <g transform="translate(211.541947 144.926045) scale(0.1 -0.1)">
     <use xlink:href="#DejaVuSans-41" transform="translate(0 0.015625)"/>
     <use xlink:href="#DejaVuSans-6c" transform="translate(68.408203 0.015625)"/>
     <use xlink:href="#DejaVuSans-32" transform="translate(97.148438 -16.390625) scale(0.7)"/>
     <use xlink:href="#DejaVuSans-43" transform="translate(144.418945 0.015625)"/>
     <use xlink:href="#DejaVuSans-75" transform="translate(214.243164 0.015625)"/>
    </g>
   </g>
   <g id="text_14">
    <!-- $\mathrm{Al}$ -->
    <g transform="translate(249.389691 211.215873) scale(0.1 -0.1)">
     <use xlink:href="#DejaVuSans-41" transform="translate(0 0.015625)"/>
     <use xlink:href="#DejaVuSans-6c" transform="translate(68.408203 0.015625)"/>
    </g>
   </g>
   <g id="text_15">
    <!-- $\mathrm{CeAlCu}$ -->
    <g transform="translate(109.179205 159.742869) scale(0.1 -0.1)">
     <use xlink:href="#DejaVuSans-43" transform="translate(0 0.015625)"/>
     <use xlink:href="#DejaVuSans-65" transform="translate(69.824219 0.015625)"/>
     <use xlink:href="#DejaVuSans-41" transform="translate(131.347656 0.015625)"/>
     <use xlink:href="#DejaVuSans-6c" transform="translate(199.755859 0.015625)"/>
     <use xlink:href="#DejaVuSans-43" transform="translate(227.539062 0.015625)"/>
     <use xlink:href="#DejaVuSans-75" transform="translate(297.363281 0.015625)"/>
    </g>
   </g>
   <g id="text_16">
    <!-- $\mathrm{Ce}$ -->
    <g transform="translate(19.619384 212.151181) scale(0.1 -0.1)">
     <use xlink:href="#DejaVuSans-43" transform="translate(0 0.78125)"/>
     <use xlink:href="#DejaVuSans-65" transform="translate(69.824219 0.78125)"/>
    </g>
   </g>
   <g id="text_17">
    <!-- $\mathrm{Ce(Al_{2}Cu)_{4}}$ -->
    <g style="fill: #ff0000" transform="translate(207.395211 160.30225) scale(0.1 -0.1)">
     <defs>
      <path id="DejaVuSans-28" d="M 1984 4856 
Q 1566 4138 1362 3434 
Q 1159 2731 1159 2009 
Q 1159 1288 1364 580 
Q 1569 -128 1984 -844 
L 1484 -844 
Q 1016 -109 783 600 
Q 550 1309 550 2009 
Q 550 2706 781 3412 
Q 1013 4119 1484 4856 
L 1984 4856 
z
" transform="scale(0.015625)"/>
      <path id="DejaVuSans-29" d="M 513 4856 
L 1013 4856 
Q 1481 4119 1714 3412 
Q 1947 2706 1947 2009 
Q 1947 1309 1714 600 
Q 1481 -109 1013 -844 
L 513 -844 
Q 928 -128 1133 580 
Q 1338 1288 1338 2009 
Q 1338 2731 1133 3434 
Q 928 4138 513 4856 
z
" transform="scale(0.015625)"/>
     </defs>
     <use xlink:href="#DejaVuSans-43" transform="translate(0 0.015625)"/>
     <use xlink:href="#DejaVuSans-65" transform="translate(69.824219 0.015625)"/>
     <use xlink:href="#DejaVuSans-28" transform="translate(131.347656 0.015625)"/>
     <use xlink:href="#DejaVuSans-41" transform="translate(170.361328 0.015625)"/>
     <use xlink:href="#DejaVuSans-6c" transform="translate(238.769531 0.015625)"/>
     <use xlink:href="#DejaVuSans-32" transform="translate(267.509766 -16.390625) scale(0.7)"/>
     <use xlink:href="#DejaVuSans-43" transform="translate(314.780273 0.015625)"/>
     <use xlink:href="#DejaVuSans-75" transform="translate(384.604492 0.015625)"/>
     <use xlink:href="#DejaVuSans-29" transform="translate(447.983398 0.015625)"/>
     <use xlink:href="#DejaVuSans-34" transform="translate(487.954102 -16.390625) scale(0.7)"/>
    </g>
   </g>
  </g>
  <g id="axes_2">
   <g id="patch_3">
    <path d="M 287.298425 195.703937 
L 296.029134 195.703937 
L 296.029134 36.96378 
L 287.298425 36.96378 
L 287.298425 195.703937 
z
" style="fill: none"/>
   </g>
   <g id="patch_4">
    <path d="M 287.298425 195.703937 
L 291.66378 203.640945 
L 296.029134 195.703937 
" style="fill: #440154; opacity: 0.7"/>
   </g>
   <g id="patch_5">
    <path d="M 287.298425 36.96378 
L 291.66378 29.026772 
L 296.029134 36.96378 
" style="fill: #fde725; opacity: 0.7"/>
   </g>
   <g id="QuadMesh_1">
    <path d="M 287.298425 195.703937 
L 296.029134 195.703937 
L 296.029134 192.176378 
L 287.298425 192.176378 
L 287.298425 195.703937 
" clip-path="url(#p65074910eb)" style="fill: #450457; fill-opacity: 0.7"/>
    <path d="M 287.298425 192.176378 
L 296.029134 192.176378 
L 296.029134 188.648819 
L 287.298425 188.648819 
L 287.298425 192.176378 
" clip-path="url(#p65074910eb)" style="fill: #470d60; fill-opacity: 0.7"/>
    <path d="M 287.298425 188.648819 
L 296.029134 188.648819 
L 296.029134 185.12126 
L 287.298425 185.12126 
L 287.298425 188.648819 
" clip-path="url(#p65074910eb)" style="fill: #481668; fill-opacity: 0.7"/>
    <path d="M 287.298425 185.12126 
L 296.029134 185.12126 
L 296.029134 181.593701 
L 287.298425 181.593701 
L 287.298425 185.12126 
" clip-path="url(#p65074910eb)" style="fill: #481c6e; fill-opacity: 0.7"/>
    <path d="M 287.298425 181.593701 
L 296.029134 181.593701 
L 296.029134 178.066142 
L 287.298425 178.066142 
L 287.298425 181.593701 
" clip-path="url(#p65074910eb)" style="fill: #482475; fill-opacity: 0.7"/>
    <path d="M 287.298425 178.066142 
L 296.029134 178.066142 
L 296.029134 174.538583 
L 287.298425 174.538583 
L 287.298425 178.066142 
" clip-path="url(#p65074910eb)" style="fill: #472c7a; fill-opacity: 0.7"/>
    <path d="M 287.298425 174.538583 
L 296.029134 174.538583 
L 296.029134 171.011024 
L 287.298425 171.011024 
L 287.298425 174.538583 
" clip-path="url(#p65074910eb)" style="fill: #46327e; fill-opacity: 0.7"/>
    <path d="M 287.298425 171.011024 
L 296.029134 171.011024 
L 296.029134 167.483465 
L 287.298425 167.483465 
L 287.298425 171.011024 
" clip-path="url(#p65074910eb)" style="fill: #443983; fill-opacity: 0.7"/>
    <path d="M 287.298425 167.483465 
L 296.029134 167.483465 
L 296.029134 163.955906 
L 287.298425 163.955906 
L 287.298425 167.483465 
" clip-path="url(#p65074910eb)" style="fill: #424086; fill-opacity: 0.7"/>
    <path d="M 287.298425 163.955906 
L 296.029134 163.955906 
L 296.029134 160.428346 
L 287.298425 160.428346 
L 287.298425 163.955906 
" clip-path="url(#p65074910eb)" style="fill: #3f4788; fill-opacity: 0.7"/>
    <path d="M 287.298425 160.428346 
L 296.029134 160.428346 
L 296.029134 156.900787 
L 287.298425 156.900787 
L 287.298425 160.428346 
" clip-path="url(#p65074910eb)" style="fill: #3d4d8a; fill-opacity: 0.7"/>
    <path d="M 287.298425 156.900787 
L 296.029134 156.900787 
L 296.029134 153.373228 
L 287.298425 153.373228 
L 287.298425 156.900787 
" clip-path="url(#p65074910eb)" style="fill: #3a538b; fill-opacity: 0.7"/>
    <path d="M 287.298425 153.373228 
L 296.029134 153.373228 
L 296.029134 149.845669 
L 287.298425 149.845669 
L 287.298425 153.373228 
" clip-path="url(#p65074910eb)" style="fill: #375a8c; fill-opacity: 0.7"/>
    <path d="M 287.298425 149.845669 
L 296.029134 149.845669 
L 296.029134 146.31811 
L 287.298425 146.31811 
L 287.298425 149.845669 
" clip-path="url(#p65074910eb)" style="fill: #355f8d; fill-opacity: 0.7"/>
    <path d="M 287.298425 146.31811 
L 296.029134 146.31811 
L 296.029134 142.790551 
L 287.298425 142.790551 
L 287.298425 146.31811 
" clip-path="url(#p65074910eb)" style="fill: #32658e; fill-opacity: 0.7"/>
    <path d="M 287.298425 142.790551 
L 296.029134 142.790551 
L 296.029134 139.262992 
L 287.298425 139.262992 
L 287.298425 142.790551 
" clip-path="url(#p65074910eb)" style="fill: #2f6b8e; fill-opacity: 0.7"/>
    <path d="M 287.298425 139.262992 
L 296.029134 139.262992 
L 296.029134 135.735433 
L 287.298425 135.735433 
L 287.298425 139.262992 
" clip-path="url(#p65074910eb)" style="fill: #2d708e; fill-opacity: 0.7"/>
    <path d="M 287.298425 135.735433 
L 296.029134 135.735433 
L 296.029134 132.207874 
L 287.298425 132.207874 
L 287.298425 135.735433 
" clip-path="url(#p65074910eb)" style="fill: #2b758e; fill-opacity: 0.7"/>
    <path d="M 287.298425 132.207874 
L 296.029134 132.207874 
L 296.029134 128.680315 
L 287.298425 128.680315 
L 287.298425 132.207874 
" clip-path="url(#p65074910eb)" style="fill: #297b8e; fill-opacity: 0.7"/>
    <path d="M 287.298425 128.680315 
L 296.029134 128.680315 
L 296.029134 125.152756 
L 287.298425 125.152756 
L 287.298425 128.680315 
" clip-path="url(#p65074910eb)" style="fill: #27808e; fill-opacity: 0.7"/>
    <path d="M 287.298425 125.152756 
L 296.029134 125.152756 
L 296.029134 121.625197 
L 287.298425 121.625197 
L 287.298425 125.152756 
" clip-path="url(#p65074910eb)" style="fill: #25858e; fill-opacity: 0.7"/>
    <path d="M 287.298425 121.625197 
L 296.029134 121.625197 
L 296.029134 118.097638 
L 287.298425 118.097638 
L 287.298425 121.625197 
" clip-path="url(#p65074910eb)" style="fill: #228b8d; fill-opacity: 0.7"/>
    <path d="M 287.298425 118.097638 
L 296.029134 118.097638 
L 296.029134 114.570079 
L 287.298425 114.570079 
L 287.298425 118.097638 
" clip-path="url(#p65074910eb)" style="fill: #21908d; fill-opacity: 0.7"/>
    <path d="M 287.298425 114.570079 
L 296.029134 114.570079 
L 296.029134 111.04252 
L 287.298425 111.04252 
L 287.298425 114.570079 
" clip-path="url(#p65074910eb)" style="fill: #1f958b; fill-opacity: 0.7"/>
    <path d="M 287.298425 111.04252 
L 296.029134 111.04252 
L 296.029134 107.514961 
L 287.298425 107.514961 
L 287.298425 111.04252 
" clip-path="url(#p65074910eb)" style="fill: #1e9b8a; fill-opacity: 0.7"/>
    <path d="M 287.298425 107.514961 
L 296.029134 107.514961 
L 296.029134 103.987402 
L 287.298425 103.987402 
L 287.298425 107.514961 
" clip-path="url(#p65074910eb)" style="fill: #1fa188; fill-opacity: 0.7"/>
    <path d="M 287.298425 103.987402 
L 296.029134 103.987402 
L 296.029134 100.459843 
L 287.298425 100.459843 
L 287.298425 103.987402 
" clip-path="url(#p65074910eb)" style="fill: #21a585; fill-opacity: 0.7"/>
    <path d="M 287.298425 100.459843 
L 296.029134 100.459843 
L 296.029134 96.932283 
L 287.298425 96.932283 
L 287.298425 100.459843 
" clip-path="url(#p65074910eb)" style="fill: #25ab82; fill-opacity: 0.7"/>
    <path d="M 287.298425 96.932283 
L 296.029134 96.932283 
L 296.029134 93.404724 
L 287.298425 93.404724 
L 287.298425 96.932283 
" clip-path="url(#p65074910eb)" style="fill: #2ab07f; fill-opacity: 0.7"/>
    <path d="M 287.298425 93.404724 
L 296.029134 93.404724 
L 296.029134 89.877165 
L 287.298425 89.877165 
L 287.298425 93.404724 
" clip-path="url(#p65074910eb)" style="fill: #31b57b; fill-opacity: 0.7"/>
    <path d="M 287.298425 89.877165 
L 296.029134 89.877165 
L 296.029134 86.349606 
L 287.298425 86.349606 
L 287.298425 89.877165 
" clip-path="url(#p65074910eb)" style="fill: #3aba76; fill-opacity: 0.7"/>
    <path d="M 287.298425 86.349606 
L 296.029134 86.349606 
L 296.029134 82.822047 
L 287.298425 82.822047 
L 287.298425 86.349606 
" clip-path="url(#p65074910eb)" style="fill: #44bf70; fill-opacity: 0.7"/>
    <path d="M 287.298425 82.822047 
L 296.029134 82.822047 
L 296.029134 79.294488 
L 287.298425 79.294488 
L 287.298425 82.822047 
" clip-path="url(#p65074910eb)" style="fill: #4ec36b; fill-opacity: 0.7"/>
    <path d="M 287.298425 79.294488 
L 296.029134 79.294488 
L 296.029134 75.766929 
L 287.298425 75.766929 
L 287.298425 79.294488 
" clip-path="url(#p65074910eb)" style="fill: #5ac864; fill-opacity: 0.7"/>
    <path d="M 287.298425 75.766929 
L 296.029134 75.766929 
L 296.029134 72.23937 
L 287.298425 72.23937 
L 287.298425 75.766929 
" clip-path="url(#p65074910eb)" style="fill: #67cc5c; fill-opacity: 0.7"/>
    <path d="M 287.298425 72.23937 
L 296.029134 72.23937 
L 296.029134 68.711811 
L 287.298425 68.711811 
L 287.298425 72.23937 
" clip-path="url(#p65074910eb)" style="fill: #73d056; fill-opacity: 0.7"/>
    <path d="M 287.298425 68.711811 
L 296.029134 68.711811 
L 296.029134 65.184252 
L 287.298425 65.184252 
L 287.298425 68.711811 
" clip-path="url(#p65074910eb)" style="fill: #81d34d; fill-opacity: 0.7"/>
    <path d="M 287.298425 65.184252 
L 296.029134 65.184252 
L 296.029134 61.656693 
L 287.298425 61.656693 
L 287.298425 65.184252 
" clip-path="url(#p65074910eb)" style="fill: #90d743; fill-opacity: 0.7"/>
    <path d="M 287.298425 61.656693 
L 296.029134 61.656693 
L 296.029134 58.129134 
L 287.298425 58.129134 
L 287.298425 61.656693 
" clip-path="url(#p65074910eb)" style="fill: #a0da39; fill-opacity: 0.7"/>
    <path d="M 287.298425 58.129134 
L 296.029134 58.129134 
L 296.029134 54.601575 
L 287.298425 54.601575 
L 287.298425 58.129134 
" clip-path="url(#p65074910eb)" style="fill: #addc30; fill-opacity: 0.7"/>
    <path d="M 287.298425 54.601575 
L 296.029134 54.601575 
L 296.029134 51.074016 
L 287.298425 51.074016 
L 287.298425 54.601575 
" clip-path="url(#p65074910eb)" style="fill: #bddf26; fill-opacity: 0.7"/>
    <path d="M 287.298425 51.074016 
L 296.029134 51.074016 
L 296.029134 47.546457 
L 287.298425 47.546457 
L 287.298425 51.074016 
" clip-path="url(#p65074910eb)" style="fill: #cde11d; fill-opacity: 0.7"/>
    <path d="M 287.298425 47.546457 
L 296.029134 47.546457 
L 296.029134 44.018898 
L 287.298425 44.018898 
L 287.298425 47.546457 
" clip-path="url(#p65074910eb)" style="fill: #dae319; fill-opacity: 0.7"/>
    <path d="M 287.298425 44.018898 
L 296.029134 44.018898 
L 296.029134 40.491339 
L 287.298425 40.491339 
L 287.298425 44.018898 
" clip-path="url(#p65074910eb)" style="fill: #eae51a; fill-opacity: 0.7"/>
    <path d="M 287.298425 40.491339 
L 296.029134 40.491339 
L 296.029134 36.96378 
L 287.298425 36.96378 
L 287.298425 40.491339 
" clip-path="url(#p65074910eb)" style="fill: #f8e621; fill-opacity: 0.7"/>
   </g>
   <g id="matplotlib.axis_3"/>
   <g id="matplotlib.axis_4">
    <g id="ytick_1">
     <g id="line2d_37">
      <defs>
       <path id="m863805b840" d="M 0 0 
L -2 0 
" style="stroke: #000000; stroke-width: 0.3"/>
      </defs>
      <g>
       <use xlink:href="#m863805b840" x="296.029134" y="195.703937" style="stroke: #000000; stroke-width: 0.3"/>
      </g>
     </g>
     <g id="text_18">
      <!-- 0.46 -->
      <g transform="translate(299.529134 198.567062) scale(0.08 -0.08)">
       <defs>
        <path id="ArialMT-2212" d="M 3381 1997 
L 356 1997 
L 356 2522 
L 3381 2522 
L 3381 1997 
z
" transform="scale(0.015625)"/>
        <path id="ArialMT-30" d="M 266 2259 
Q 266 3072 433 3567 
Q 600 4063 929 4331 
Q 1259 4600 1759 4600 
Q 2128 4600 2406 4451 
Q 2684 4303 2865 4023 
Q 3047 3744 3150 3342 
Q 3253 2941 3253 2259 
Q 3253 1453 3087 958 
Q 2922 463 2592 192 
Q 2263 -78 1759 -78 
Q 1097 -78 719 397 
Q 266 969 266 2259 
z
M 844 2259 
Q 844 1131 1108 757 
Q 1372 384 1759 384 
Q 2147 384 2411 759 
Q 2675 1134 2675 2259 
Q 2675 3391 2411 3762 
Q 2147 4134 1753 4134 
Q 1366 4134 1134 3806 
Q 844 3388 844 2259 
z
" transform="scale(0.015625)"/>
        <path id="ArialMT-2e" d="M 581 0 
L 581 641 
L 1222 641 
L 1222 0 
L 581 0 
z
" transform="scale(0.015625)"/>
        <path id="ArialMT-34" d="M 2069 0 
L 2069 1097 
L 81 1097 
L 81 1613 
L 2172 4581 
L 2631 4581 
L 2631 1613 
L 3250 1613 
L 3250 1097 
L 2631 1097 
L 2631 0 
L 2069 0 
z
M 2069 1613 
L 2069 3678 
L 634 1613 
L 2069 1613 
z
" transform="scale(0.015625)"/>
        <path id="ArialMT-36" d="M 3184 3459 
L 2625 3416 
Q 2550 3747 2413 3897 
Q 2184 4138 1850 4138 
Q 1581 4138 1378 3988 
Q 1113 3794 959 3422 
Q 806 3050 800 2363 
Q 1003 2672 1297 2822 
Q 1591 2972 1913 2972 
Q 2475 2972 2870 2558 
Q 3266 2144 3266 1488 
Q 3266 1056 3080 686 
Q 2894 316 2569 119 
Q 2244 -78 1831 -78 
Q 1128 -78 684 439 
Q 241 956 241 2144 
Q 241 3472 731 4075 
Q 1159 4600 1884 4600 
Q 2425 4600 2770 4297 
Q 3116 3994 3184 3459 
z
M 888 1484 
Q 888 1194 1011 928 
Q 1134 663 1356 523 
Q 1578 384 1822 384 
Q 2178 384 2434 671 
Q 2691 959 2691 1453 
Q 2691 1928 2437 2201 
Q 2184 2475 1800 2475 
Q 1419 2475 1153 2201 
Q 888 1928 888 1484 
z
" transform="scale(0.015625)"/>
       </defs>
       <use xlink:href="#ArialMT-2212"/>
       <use xlink:href="#ArialMT-30" transform="translate(58.398438 0)"/>
       <use xlink:href="#ArialMT-2e" transform="translate(114.013672 0)"/>
       <use xlink:href="#ArialMT-34" transform="translate(141.796875 0)"/>
       <use xlink:href="#ArialMT-36" transform="translate(197.412109 0)"/>
      </g>
     </g>
    </g>
    <g id="ytick_2">
     <g id="line2d_38">
      <g>
       <use xlink:href="#m863805b840" x="296.029134" y="178.066142" style="stroke: #000000; stroke-width: 0.3"/>
      </g>
     </g>
     <g id="text_19">
      <!-- 0.41 -->
      <g transform="translate(299.529134 180.929267) scale(0.08 -0.08)">
       <defs>
        <path id="ArialMT-31" d="M 2384 0 
L 1822 0 
L 1822 3584 
Q 1619 3391 1289 3197 
Q 959 3003 697 2906 
L 697 3450 
Q 1169 3672 1522 3987 
Q 1875 4303 2022 4600 
L 2384 4600 
L 2384 0 
z
" transform="scale(0.015625)"/>
       </defs>
       <use xlink:href="#ArialMT-2212"/>
       <use xlink:href="#ArialMT-30" transform="translate(58.398438 0)"/>
       <use xlink:href="#ArialMT-2e" transform="translate(114.013672 0)"/>
       <use xlink:href="#ArialMT-34" transform="translate(141.796875 0)"/>
       <use xlink:href="#ArialMT-31" transform="translate(197.412109 0)"/>
      </g>
     </g>
    </g>
    <g id="ytick_3">
     <g id="line2d_39">
      <g>
       <use xlink:href="#m863805b840" x="296.029134" y="160.428346" style="stroke: #000000; stroke-width: 0.3"/>
      </g>
     </g>
     <g id="text_20">
      <!-- 0.36 -->
      <g transform="translate(299.529134 163.291471) scale(0.08 -0.08)">
       <defs>
        <path id="ArialMT-33" d="M 269 1209 
L 831 1284 
Q 928 806 1161 595 
Q 1394 384 1728 384 
Q 2125 384 2398 659 
Q 2672 934 2672 1341 
Q 2672 1728 2419 1979 
Q 2166 2231 1775 2231 
Q 1616 2231 1378 2169 
L 1441 2663 
Q 1497 2656 1531 2656 
Q 1891 2656 2178 2843 
Q 2466 3031 2466 3422 
Q 2466 3731 2256 3934 
Q 2047 4138 1716 4138 
Q 1388 4138 1169 3931 
Q 950 3725 888 3313 
L 325 3413 
Q 428 3978 793 4289 
Q 1159 4600 1703 4600 
Q 2078 4600 2393 4439 
Q 2709 4278 2876 4000 
Q 3044 3722 3044 3409 
Q 3044 3113 2884 2869 
Q 2725 2625 2413 2481 
Q 2819 2388 3044 2092 
Q 3269 1797 3269 1353 
Q 3269 753 2831 336 
Q 2394 -81 1725 -81 
Q 1122 -81 723 278 
Q 325 638 269 1209 
z
" transform="scale(0.015625)"/>
       </defs>
       <use xlink:href="#ArialMT-2212"/>
       <use xlink:href="#ArialMT-30" transform="translate(58.398438 0)"/>
       <use xlink:href="#ArialMT-2e" transform="translate(114.013672 0)"/>
       <use xlink:href="#ArialMT-33" transform="translate(141.796875 0)"/>
       <use xlink:href="#ArialMT-36" transform="translate(197.412109 0)"/>
      </g>
     </g>
    </g>
    <g id="ytick_4">
     <g id="line2d_40">
      <g>
       <use xlink:href="#m863805b840" x="296.029134" y="142.790551" style="stroke: #000000; stroke-width: 0.3"/>
      </g>
     </g>
     <g id="text_21">
      <!-- 0.31 -->
      <g transform="translate(299.529134 145.653676) scale(0.08 -0.08)">
       <use xlink:href="#ArialMT-2212"/>
       <use xlink:href="#ArialMT-30" transform="translate(58.398438 0)"/>
       <use xlink:href="#ArialMT-2e" transform="translate(114.013672 0)"/>
       <use xlink:href="#ArialMT-33" transform="translate(141.796875 0)"/>
       <use xlink:href="#ArialMT-31" transform="translate(197.412109 0)"/>
      </g>
     </g>
    </g>
    <g id="ytick_5">
     <g id="line2d_41">
      <g>
       <use xlink:href="#m863805b840" x="296.029134" y="125.152756" style="stroke: #000000; stroke-width: 0.3"/>
      </g>
     </g>
     <g id="text_22">
      <!-- 0.26 -->
      <g transform="translate(299.529134 128.015881) scale(0.08 -0.08)">
       <defs>
        <path id="ArialMT-32" d="M 3222 541 
L 3222 0 
L 194 0 
Q 188 203 259 391 
Q 375 700 629 1000 
Q 884 1300 1366 1694 
Q 2113 2306 2375 2664 
Q 2638 3022 2638 3341 
Q 2638 3675 2398 3904 
Q 2159 4134 1775 4134 
Q 1369 4134 1125 3890 
Q 881 3647 878 3216 
L 300 3275 
Q 359 3922 746 4261 
Q 1134 4600 1788 4600 
Q 2447 4600 2831 4234 
Q 3216 3869 3216 3328 
Q 3216 3053 3103 2787 
Q 2991 2522 2730 2228 
Q 2469 1934 1863 1422 
Q 1356 997 1212 845 
Q 1069 694 975 541 
L 3222 541 
z
" transform="scale(0.015625)"/>
       </defs>
       <use xlink:href="#ArialMT-2212"/>
       <use xlink:href="#ArialMT-30" transform="translate(58.398438 0)"/>
       <use xlink:href="#ArialMT-2e" transform="translate(114.013672 0)"/>
       <use xlink:href="#ArialMT-32" transform="translate(141.796875 0)"/>
       <use xlink:href="#ArialMT-36" transform="translate(197.412109 0)"/>
      </g>
     </g>
    </g>
    <g id="ytick_6">
     <g id="line2d_42">
      <g>
       <use xlink:href="#m863805b840" x="296.029134" y="107.514961" style="stroke: #000000; stroke-width: 0.3"/>
      </g>
     </g>
     <g id="text_23">
      <!-- 0.21 -->
      <g transform="translate(299.529134 110.378086) scale(0.08 -0.08)">
       <use xlink:href="#ArialMT-2212"/>
       <use xlink:href="#ArialMT-30" transform="translate(58.398438 0)"/>
       <use xlink:href="#ArialMT-2e" transform="translate(114.013672 0)"/>
       <use xlink:href="#ArialMT-32" transform="translate(141.796875 0)"/>
       <use xlink:href="#ArialMT-31" transform="translate(197.412109 0)"/>
      </g>
     </g>
    </g>
    <g id="ytick_7">
     <g id="line2d_43">
      <g>
       <use xlink:href="#m863805b840" x="296.029134" y="89.877165" style="stroke: #000000; stroke-width: 0.3"/>
      </g>
     </g>
     <g id="text_24">
      <!-- 0.16 -->
      <g transform="translate(299.529134 92.74029) scale(0.08 -0.08)">
       <use xlink:href="#ArialMT-2212"/>
       <use xlink:href="#ArialMT-30" transform="translate(58.398438 0)"/>
       <use xlink:href="#ArialMT-2e" transform="translate(114.013672 0)"/>
       <use xlink:href="#ArialMT-31" transform="translate(141.796875 0)"/>
       <use xlink:href="#ArialMT-36" transform="translate(197.412109 0)"/>
      </g>
     </g>
    </g>
    <g id="ytick_8">
     <g id="line2d_44">
      <g>
       <use xlink:href="#m863805b840" x="296.029134" y="72.23937" style="stroke: #000000; stroke-width: 0.3"/>
      </g>
     </g>
     <g id="text_25">
      <!-- 0.11 -->
      <g transform="translate(299.529134 75.102495) scale(0.08 -0.08)">
       <use xlink:href="#ArialMT-2212"/>
       <use xlink:href="#ArialMT-30" transform="translate(58.398438 0)"/>
       <use xlink:href="#ArialMT-2e" transform="translate(114.013672 0)"/>
       <use xlink:href="#ArialMT-31" transform="translate(141.796875 0)"/>
       <use xlink:href="#ArialMT-31" transform="translate(190.037109 0)"/>
      </g>
     </g>
    </g>
    <g id="ytick_9">
     <g id="line2d_45">
      <g>
       <use xlink:href="#m863805b840" x="296.029134" y="54.601575" style="stroke: #000000; stroke-width: 0.3"/>
      </g>
     </g>
     <g id="text_26">
      <!-- 0.06 -->
      <g transform="translate(299.529134 57.4647) scale(0.08 -0.08)">
       <use xlink:href="#ArialMT-2212"/>
       <use xlink:href="#ArialMT-30" transform="translate(58.398438 0)"/>
       <use xlink:href="#ArialMT-2e" transform="translate(114.013672 0)"/>
       <use xlink:href="#ArialMT-30" transform="translate(141.796875 0)"/>
       <use xlink:href="#ArialMT-36" transform="translate(197.412109 0)"/>
      </g>
     </g>
    </g>
    <g id="ytick_10">
     <g id="line2d_46">
      <g>
       <use xlink:href="#m863805b840" x="296.029134" y="36.96378" style="stroke: #000000; stroke-width: 0.3"/>
      </g>
     </g>
     <g id="text_27">
      <!-- 0.01 -->
      <g transform="translate(299.529134 39.826905) scale(0.08 -0.08)">
       <use xlink:href="#ArialMT-2212"/>
       <use xlink:href="#ArialMT-30" transform="translate(58.398438 0)"/>
       <use xlink:href="#ArialMT-2e" transform="translate(114.013672 0)"/>
       <use xlink:href="#ArialMT-30" transform="translate(141.796875 0)"/>
       <use xlink:href="#ArialMT-31" transform="translate(197.412109 0)"/>
      </g>
     </g>
    </g>
    <g id="text_28">
     <!-- Formation Energy (eV/atom) -->
     <g transform="translate(331.050071 179.408077) rotate(-90) scale(0.1 -0.1)">
      <defs>
       <path id="ArialMT-46" d="M 525 0 
L 525 4581 
L 3616 4581 
L 3616 4041 
L 1131 4041 
L 1131 2622 
L 3281 2622 
L 3281 2081 
L 1131 2081 
L 1131 0 
L 525 0 
z
" transform="scale(0.015625)"/>
       <path id="ArialMT-6f" d="M 213 1659 
Q 213 2581 725 3025 
Q 1153 3394 1769 3394 
Q 2453 3394 2887 2945 
Q 3322 2497 3322 1706 
Q 3322 1066 3130 698 
Q 2938 331 2570 128 
Q 2203 -75 1769 -75 
Q 1072 -75 642 372 
Q 213 819 213 1659 
z
M 791 1659 
Q 791 1022 1069 705 
Q 1347 388 1769 388 
Q 2188 388 2466 706 
Q 2744 1025 2744 1678 
Q 2744 2294 2464 2611 
Q 2184 2928 1769 2928 
Q 1347 2928 1069 2612 
Q 791 2297 791 1659 
z
" transform="scale(0.015625)"/>
       <path id="ArialMT-72" d="M 416 0 
L 416 3319 
L 922 3319 
L 922 2816 
Q 1116 3169 1280 3281 
Q 1444 3394 1641 3394 
Q 1925 3394 2219 3213 
L 2025 2691 
Q 1819 2813 1613 2813 
Q 1428 2813 1281 2702 
Q 1134 2591 1072 2394 
Q 978 2094 978 1738 
L 978 0 
L 416 0 
z
" transform="scale(0.015625)"/>
       <path id="ArialMT-6d" d="M 422 0 
L 422 3319 
L 925 3319 
L 925 2853 
Q 1081 3097 1340 3245 
Q 1600 3394 1931 3394 
Q 2300 3394 2536 3241 
Q 2772 3088 2869 2813 
Q 3263 3394 3894 3394 
Q 4388 3394 4653 3120 
Q 4919 2847 4919 2278 
L 4919 0 
L 4359 0 
L 4359 2091 
Q 4359 2428 4304 2576 
Q 4250 2725 4106 2815 
Q 3963 2906 3769 2906 
Q 3419 2906 3187 2673 
Q 2956 2441 2956 1928 
L 2956 0 
L 2394 0 
L 2394 2156 
Q 2394 2531 2256 2718 
Q 2119 2906 1806 2906 
Q 1569 2906 1367 2781 
Q 1166 2656 1075 2415 
Q 984 2175 984 1722 
L 984 0 
L 422 0 
z
" transform="scale(0.015625)"/>
       <path id="ArialMT-61" d="M 2588 409 
Q 2275 144 1986 34 
Q 1697 -75 1366 -75 
Q 819 -75 525 192 
Q 231 459 231 875 
Q 231 1119 342 1320 
Q 453 1522 633 1644 
Q 813 1766 1038 1828 
Q 1203 1872 1538 1913 
Q 2219 1994 2541 2106 
Q 2544 2222 2544 2253 
Q 2544 2597 2384 2738 
Q 2169 2928 1744 2928 
Q 1347 2928 1158 2789 
Q 969 2650 878 2297 
L 328 2372 
Q 403 2725 575 2942 
Q 747 3159 1072 3276 
Q 1397 3394 1825 3394 
Q 2250 3394 2515 3294 
Q 2781 3194 2906 3042 
Q 3031 2891 3081 2659 
Q 3109 2516 3109 2141 
L 3109 1391 
Q 3109 606 3145 398 
Q 3181 191 3288 0 
L 2700 0 
Q 2613 175 2588 409 
z
M 2541 1666 
Q 2234 1541 1622 1453 
Q 1275 1403 1131 1340 
Q 988 1278 909 1158 
Q 831 1038 831 891 
Q 831 666 1001 516 
Q 1172 366 1500 366 
Q 1825 366 2078 508 
Q 2331 650 2450 897 
Q 2541 1088 2541 1459 
L 2541 1666 
z
" transform="scale(0.015625)"/>
       <path id="ArialMT-74" d="M 1650 503 
L 1731 6 
Q 1494 -44 1306 -44 
Q 1000 -44 831 53 
Q 663 150 594 308 
Q 525 466 525 972 
L 525 2881 
L 113 2881 
L 113 3319 
L 525 3319 
L 525 4141 
L 1084 4478 
L 1084 3319 
L 1650 3319 
L 1650 2881 
L 1084 2881 
L 1084 941 
Q 1084 700 1114 631 
Q 1144 563 1211 522 
Q 1278 481 1403 481 
Q 1497 481 1650 503 
z
" transform="scale(0.015625)"/>
       <path id="ArialMT-69" d="M 425 3934 
L 425 4581 
L 988 4581 
L 988 3934 
L 425 3934 
z
M 425 0 
L 425 3319 
L 988 3319 
L 988 0 
L 425 0 
z
" transform="scale(0.015625)"/>
       <path id="ArialMT-6e" d="M 422 0 
L 422 3319 
L 928 3319 
L 928 2847 
Q 1294 3394 1984 3394 
Q 2284 3394 2536 3286 
Q 2788 3178 2913 3003 
Q 3038 2828 3088 2588 
Q 3119 2431 3119 2041 
L 3119 0 
L 2556 0 
L 2556 2019 
Q 2556 2363 2490 2533 
Q 2425 2703 2258 2804 
Q 2091 2906 1866 2906 
Q 1506 2906 1245 2678 
Q 984 2450 984 1813 
L 984 0 
L 422 0 
z
" transform="scale(0.015625)"/>
       <path id="ArialMT-20" transform="scale(0.015625)"/>
       <path id="ArialMT-45" d="M 506 0 
L 506 4581 
L 3819 4581 
L 3819 4041 
L 1113 4041 
L 1113 2638 
L 3647 2638 
L 3647 2100 
L 1113 2100 
L 1113 541 
L 3925 541 
L 3925 0 
L 506 0 
z
" transform="scale(0.015625)"/>
       <path id="ArialMT-65" d="M 2694 1069 
L 3275 997 
Q 3138 488 2766 206 
Q 2394 -75 1816 -75 
Q 1088 -75 661 373 
Q 234 822 234 1631 
Q 234 2469 665 2931 
Q 1097 3394 1784 3394 
Q 2450 3394 2872 2941 
Q 3294 2488 3294 1666 
Q 3294 1616 3291 1516 
L 816 1516 
Q 847 969 1125 678 
Q 1403 388 1819 388 
Q 2128 388 2347 550 
Q 2566 713 2694 1069 
z
M 847 1978 
L 2700 1978 
Q 2663 2397 2488 2606 
Q 2219 2931 1791 2931 
Q 1403 2931 1139 2672 
Q 875 2413 847 1978 
z
" transform="scale(0.015625)"/>
       <path id="ArialMT-67" d="M 319 -275 
L 866 -356 
Q 900 -609 1056 -725 
Q 1266 -881 1628 -881 
Q 2019 -881 2231 -725 
Q 2444 -569 2519 -288 
Q 2563 -116 2559 434 
Q 2191 0 1641 0 
Q 956 0 581 494 
Q 206 988 206 1678 
Q 206 2153 378 2554 
Q 550 2956 876 3175 
Q 1203 3394 1644 3394 
Q 2231 3394 2613 2919 
L 2613 3319 
L 3131 3319 
L 3131 450 
Q 3131 -325 2973 -648 
Q 2816 -972 2473 -1159 
Q 2131 -1347 1631 -1347 
Q 1038 -1347 672 -1080 
Q 306 -813 319 -275 
z
M 784 1719 
Q 784 1066 1043 766 
Q 1303 466 1694 466 
Q 2081 466 2343 764 
Q 2606 1063 2606 1700 
Q 2606 2309 2336 2618 
Q 2066 2928 1684 2928 
Q 1309 2928 1046 2623 
Q 784 2319 784 1719 
z
" transform="scale(0.015625)"/>
       <path id="ArialMT-79" d="M 397 -1278 
L 334 -750 
Q 519 -800 656 -800 
Q 844 -800 956 -737 
Q 1069 -675 1141 -563 
Q 1194 -478 1313 -144 
Q 1328 -97 1363 -6 
L 103 3319 
L 709 3319 
L 1400 1397 
Q 1534 1031 1641 628 
Q 1738 1016 1872 1384 
L 2581 3319 
L 3144 3319 
L 1881 -56 
Q 1678 -603 1566 -809 
Q 1416 -1088 1222 -1217 
Q 1028 -1347 759 -1347 
Q 597 -1347 397 -1278 
z
" transform="scale(0.015625)"/>
       <path id="ArialMT-28" d="M 1497 -1347 
Q 1031 -759 709 28 
Q 388 816 388 1659 
Q 388 2403 628 3084 
Q 909 3875 1497 4659 
L 1900 4659 
Q 1522 4009 1400 3731 
Q 1209 3300 1100 2831 
Q 966 2247 966 1656 
Q 966 153 1900 -1347 
L 1497 -1347 
z
" transform="scale(0.015625)"/>
       <path id="ArialMT-56" d="M 1803 0 
L 28 4581 
L 684 4581 
L 1875 1253 
Q 2019 853 2116 503 
Q 2222 878 2363 1253 
L 3600 4581 
L 4219 4581 
L 2425 0 
L 1803 0 
z
" transform="scale(0.015625)"/>
       <path id="ArialMT-2f" d="M 0 -78 
L 1328 4659 
L 1778 4659 
L 453 -78 
L 0 -78 
z
" transform="scale(0.015625)"/>
       <path id="ArialMT-29" d="M 791 -1347 
L 388 -1347 
Q 1322 153 1322 1656 
Q 1322 2244 1188 2822 
Q 1081 3291 891 3722 
Q 769 4003 388 4659 
L 791 4659 
Q 1378 3875 1659 3084 
Q 1900 2403 1900 1659 
Q 1900 816 1576 28 
Q 1253 -759 791 -1347 
z
" transform="scale(0.015625)"/>
      </defs>
      <use xlink:href="#ArialMT-46"/>
      <use xlink:href="#ArialMT-6f" transform="translate(61.083984 0)"/>
      <use xlink:href="#ArialMT-72" transform="translate(116.699219 0)"/>
      <use xlink:href="#ArialMT-6d" transform="translate(150 0)"/>
      <use xlink:href="#ArialMT-61" transform="translate(233.300781 0)"/>
      <use xlink:href="#ArialMT-74" transform="translate(288.916016 0)"/>
      <use xlink:href="#ArialMT-69" transform="translate(316.699219 0)"/>
      <use xlink:href="#ArialMT-6f" transform="translate(338.916016 0)"/>
      <use xlink:href="#ArialMT-6e" transform="translate(394.53125 0)"/>
      <use xlink:href="#ArialMT-20" transform="translate(450.146484 0)"/>
      <use xlink:href="#ArialMT-45" transform="translate(477.929688 0)"/>
      <use xlink:href="#ArialMT-6e" transform="translate(544.628906 0)"/>
      <use xlink:href="#ArialMT-65" transform="translate(600.244141 0)"/>
      <use xlink:href="#ArialMT-72" transform="translate(655.859375 0)"/>
      <use xlink:href="#ArialMT-67" transform="translate(689.160156 0)"/>
      <use xlink:href="#ArialMT-79" transform="translate(744.775391 0)"/>
      <use xlink:href="#ArialMT-20" transform="translate(794.775391 0)"/>
      <use xlink:href="#ArialMT-28" transform="translate(822.558594 0)"/>
      <use xlink:href="#ArialMT-65" transform="translate(855.859375 0)"/>
      <use xlink:href="#ArialMT-56" transform="translate(911.474609 0)"/>
      <use xlink:href="#ArialMT-2f" transform="translate(978.173828 0)"/>
      <use xlink:href="#ArialMT-61" transform="translate(1005.957031 0)"/>
      <use xlink:href="#ArialMT-74" transform="translate(1061.572266 0)"/>
      <use xlink:href="#ArialMT-6f" transform="translate(1089.355469 0)"/>
      <use xlink:href="#ArialMT-6d" transform="translate(1144.970703 0)"/>
      <use xlink:href="#ArialMT-29" transform="translate(1228.271484 0)"/>
     </g>
    </g>
   </g>
   <g id="LineCollection_1"/>
   <g id="patch_6">
    <path d="M 287.298425 195.703937 
L 291.66378 203.640945 
L 296.029134 195.703937 
L 296.029134 36.96378 
L 291.66378 29.026772 
L 287.298425 36.96378 
L 287.298425 195.703937 
z
" style="fill: none; stroke: #000000; stroke-width: 0.8; stroke-linejoin: miter; stroke-linecap: square"/>
   </g>
  </g>
 </g>
 <defs>
  <clipPath id="p5eac3e7456">
   <rect x="7.2" y="7.2" width="263.622047" height="218.267717"/>
  </clipPath>
  <clipPath id="p65074910eb">
   <rect x="287.298425" y="36.96378" width="8.730709" height="158.740157"/>
  </clipPath>
 </defs>
</svg>
