<?xml version="1.0" encoding="utf-8" standalone="no"?>
<!DOCTYPE svg PUBLIC "-//W3C//DTD SVG 1.1//EN"
  "http://www.w3.org/Graphics/SVG/1.1/DTD/svg11.dtd">
<svg xmlns:xlink="http://www.w3.org/1999/xlink" width="340.354759pt" height="232.667717pt" viewBox="0 0 340.354759 232.667717" xmlns="http://www.w3.org/2000/svg" version="1.1">
 <metadata>
  <rdf:RDF xmlns:dc="http://purl.org/dc/elements/1.1/" xmlns:cc="http://creativecommons.org/ns#" xmlns:rdf="http://www.w3.org/1999/02/22-rdf-syntax-ns#">
   <cc:Work>
    <dc:type rdf:resource="http://purl.org/dc/dcmitype/StillImage"/>
    <dc:date>2026-01-27T21:37:35.528571</dc:date>
    <dc:format>image/svg+xml</dc:format>
    <dc:creator>
     <cc:Agent>
      <dc:title>Matplotlib v3.10.8, https://matplotlib.org/</dc:title>
     </cc:Agent>
    </dc:creator>
   </cc:Work>
  </rdf:RDF>
 </metadata>
 <defs>
  <style type="text/css">*{stroke-linejoin: round; stroke-linecap: butt}</style>
 </defs>
 <g id="figure_1">
  <g id="patch_1">
   <path d="M 0 232.667717 
L 340.354759 232.667717 
L 340.354759 0 
L 0 0 
L 0 232.667717 
z
" style="fill: none"/>
  </g>
  <g id="axes_1">
   <g id="patch_2">
    <path d="M 7.2 225.467717 
L 270.822047 225.467717 
L 270.822047 7.2 
L 7.2 7.2 
L 7.2 225.467717 
z
" style="fill: none"/>
   </g>
   <g id="TriContourSet_1">
    <path d="M 77.90402 121.923404 
L 80.296027 121.933189 
L 81.202377 121.918889 
L 81.415811 121.870626 
L 81.854248 121.491503 
L 82.476463 114.710512 
L 79.096922 120.041637 
z
" clip-path="url(#pf5156b7e77)" style="fill: #440154; fill-opacity: 0.7"/>
    <path d="M 82.476463 114.710512 
L 81.854248 121.491503 
L 81.415811 121.870626 
L 81.202377 121.918889 
L 80.296027 121.933189 
L 77.90402 121.923404 
L 76.202486 124.607523 
L 82.006408 124.631264 
L 84.20556 124.596567 
L 84.723432 124.479462 
L 85.787247 123.559566 
L 87.29698 107.106293 
z
" clip-path="url(#pf5156b7e77)" style="fill: #450457; fill-opacity: 0.7"/>
    <path d="M 87.29698 107.106293 
L 85.787247 123.559566 
L 84.723432 124.479462 
L 84.20556 124.596567 
L 82.006408 124.631264 
L 76.202486 124.607523 
L 74.500951 127.291642 
L 83.716789 127.329338 
L 87.208743 127.274246 
L 88.031053 127.088298 
L 89.720247 125.627629 
L 92.117496 99.502073 
z
" clip-path="url(#pf5156b7e77)" style="fill: #470d60; fill-opacity: 0.7"/>
    <path d="M 92.117496 99.502073 
L 89.720247 125.627629 
L 88.031053 127.088298 
L 87.208743 127.274246 
L 83.716789 127.329338 
L 74.500951 127.291642 
L 72.799417 129.975761 
L 85.42717 130.027413 
L 90.211926 129.951924 
L 91.338674 129.697135 
L 93.653246 127.695692 
L 96.938013 91.897853 
z
" clip-path="url(#pf5156b7e77)" style="fill: #481668; fill-opacity: 0.7"/>
    <path d="M 96.938013 91.897853 
L 93.653246 127.695692 
L 91.338674 129.697135 
L 90.211926 129.951924 
L 85.42717 130.027413 
L 72.799417 129.975761 
L 71.097883 132.65988 
L 87.137551 132.725488 
L 93.215109 132.629602 
L 94.646295 132.305971 
L 97.586246 129.763754 
L 101.213845 90.22968 
L 101.063423 89.747892 
L 100.642893 89.034184 
L 99.673264 87.583077 
L 99.068289 88.537406 
z
" clip-path="url(#pf5156b7e77)" style="fill: #481d6f; fill-opacity: 0.7"/>
    <path d="M 99.673264 87.583077 
L 100.642893 89.034184 
L 101.063423 89.747892 
L 101.213845 90.22968 
L 97.586246 129.763754 
L 94.646295 132.305971 
L 93.215109 132.629602 
L 87.137551 132.725488 
L 71.097883 132.65988 
L 69.396349 135.343999 
L 88.847933 135.423563 
L 96.218292 135.307281 
L 97.953916 134.914807 
L 101.519245 131.831817 
L 105.058366 93.261989 
L 104.638412 91.916906 
L 103.464354 89.924338 
L 100.757289 85.873059 
z
" clip-path="url(#pf5156b7e77)" style="fill: #482576; fill-opacity: 0.7"/>
    <path d="M 100.757289 85.873059 
L 103.464354 89.924338 
L 104.638412 91.916906 
L 105.058366 93.261989 
L 101.519245 131.831817 
L 97.953916 134.914807 
L 96.218292 135.307281 
L 88.847933 135.423563 
L 69.396349 135.343999 
L 67.694815 138.028118 
L 90.558314 138.121638 
L 99.221475 137.984959 
L 101.261537 137.523644 
L 105.452245 133.89988 
L 108.902888 96.294297 
L 108.2134 94.08592 
L 106.285815 90.814492 
L 101.841315 84.163042 
z
" clip-path="url(#pf5156b7e77)" style="fill: #472c7a; fill-opacity: 0.7"/>
    <path d="M 101.841315 84.163042 
L 106.285815 90.814492 
L 108.2134 94.08592 
L 108.902888 96.294297 
L 105.452245 133.89988 
L 101.261537 137.523644 
L 99.221475 137.984959 
L 90.558314 138.121638 
L 67.694815 138.028118 
L 67.114102 138.944176 
L 66.197414 140.390222 
L 67.821489 140.618 
L 68.806274 140.723743 
L 92.268695 140.819713 
L 102.224658 140.662637 
L 104.569158 140.13248 
L 109.385244 135.967943 
L 112.747409 99.326606 
L 111.788388 96.254934 
L 109.107275 91.704645 
L 102.92534 82.453024 
z
" clip-path="url(#pf5156b7e77)" style="fill: #46337f; fill-opacity: 0.7"/>
    <path d="M 102.92534 82.453024 
L 109.107275 91.704645 
L 111.788388 96.254934 
L 112.747409 99.326606 
L 109.385244 135.967943 
L 104.569158 140.13248 
L 102.224658 140.662637 
L 92.268695 140.819713 
L 68.806274 140.723743 
L 67.821489 140.618 
L 66.197414 140.390222 
L 64.805779 142.585486 
L 68.895385 143.159057 
L 71.375185 143.42533 
L 93.979076 143.517788 
L 105.227841 143.340315 
L 107.876779 142.741316 
L 113.318244 138.036006 
L 116.591931 102.358915 
L 115.363377 98.423948 
L 111.928736 92.594799 
L 104.009366 80.743006 
z
" clip-path="url(#pf5156b7e77)" style="fill: #443a83; fill-opacity: 0.7"/>
    <path d="M 104.009366 80.743006 
L 111.928736 92.594799 
L 115.363377 98.423948 
L 116.591931 102.358915 
L 113.318244 138.036006 
L 107.876779 142.741316 
L 105.227841 143.340315 
L 93.979076 143.517788 
L 71.375185 143.42533 
L 68.895385 143.159057 
L 64.805779 142.585486 
L 63.414143 144.780749 
L 69.96928 145.700113 
L 73.944096 146.126917 
L 95.689458 146.215863 
L 108.231024 146.017994 
L 111.184399 145.350152 
L 117.251244 140.104069 
L 120.436452 105.391223 
L 118.938365 100.592962 
L 114.750196 93.484953 
L 105.093391 79.032989 
z
" clip-path="url(#pf5156b7e77)" style="fill: #424186; fill-opacity: 0.7"/>
    <path d="M 105.093391 79.032989 
L 114.750196 93.484953 
L 118.938365 100.592962 
L 120.436452 105.391223 
L 117.251244 140.104069 
L 111.184399 145.350152 
L 108.231024 146.017994 
L 95.689458 146.215863 
L 73.944096 146.126917 
L 69.96928 145.700113 
L 63.414143 144.780749 
L 62.022507 146.976013 
L 71.043176 148.24117 
L 76.513007 148.828503 
L 97.399839 148.913938 
L 111.234207 148.695672 
L 114.49202 147.958989 
L 121.184243 142.172131 
L 124.280974 108.423532 
L 122.513353 102.761976 
L 117.571657 94.375107 
L 106.177417 77.322971 
z
" clip-path="url(#pf5156b7e77)" style="fill: #3f4889; fill-opacity: 0.7"/>
    <path d="M 106.177417 77.322971 
L 117.571657 94.375107 
L 122.513353 102.761976 
L 124.280974 108.423532 
L 121.184243 142.172131 
L 114.49202 147.958989 
L 111.234207 148.695672 
L 97.399839 148.913938 
L 76.513007 148.828503 
L 71.043176 148.24117 
L 62.022507 146.976013 
L 60.630871 149.171277 
L 72.117071 150.782226 
L 79.081918 151.53009 
L 99.11022 151.612013 
L 114.23739 151.37335 
L 117.799641 150.567825 
L 125.117243 144.240194 
L 128.125495 111.45584 
L 126.088342 104.93099 
L 120.393117 95.265261 
L 107.261442 75.612953 
z
" clip-path="url(#pf5156b7e77)" style="fill: #3c4f8a; fill-opacity: 0.7"/>
    <path d="M 107.261442 75.612953 
L 120.393117 95.265261 
L 126.088342 104.93099 
L 128.125495 111.45584 
L 125.117243 144.240194 
L 117.799641 150.567825 
L 114.23739 151.37335 
L 99.11022 151.612013 
L 79.081918 151.53009 
L 72.117071 150.782226 
L 60.630871 149.171277 
L 59.239236 151.36654 
L 73.190966 153.323283 
L 81.650829 154.231676 
L 100.820601 154.310088 
L 117.240573 154.051029 
L 121.107262 153.176661 
L 129.050242 146.308257 
L 131.970017 114.488149 
L 129.66333 107.100005 
L 123.214578 96.155415 
L 108.345468 73.902936 
z
" clip-path="url(#pf5156b7e77)" style="fill: #3a548c; fill-opacity: 0.7"/>
    <path d="M 108.345468 73.902936 
L 123.214578 96.155415 
L 129.66333 107.100005 
L 131.970017 114.488149 
L 129.050242 146.308257 
L 121.107262 153.176661 
L 117.240573 154.051029 
L 100.820601 154.310088 
L 81.650829 154.231676 
L 73.190966 153.323283 
L 59.239236 151.36654 
L 57.8476 153.561804 
L 74.264862 155.864339 
L 84.219741 156.933263 
L 102.530982 157.008163 
L 120.243756 156.728707 
L 124.414883 155.785498 
L 132.983242 148.37632 
L 135.814538 117.520457 
L 133.238318 109.269019 
L 126.036038 97.045568 
L 109.429493 72.192918 
z
" clip-path="url(#pf5156b7e77)" style="fill: #375b8d; fill-opacity: 0.7"/>
    <path d="M 109.429493 72.192918 
L 126.036038 97.045568 
L 133.238318 109.269019 
L 135.814538 117.520457 
L 132.983242 148.37632 
L 124.414883 155.785498 
L 120.243756 156.728707 
L 102.530982 157.008163 
L 84.219741 156.933263 
L 74.264862 155.864339 
L 57.8476 153.561804 
L 56.455964 155.757068 
L 75.338757 158.405396 
L 86.788652 159.63485 
L 104.241364 159.706238 
L 123.246939 159.406385 
L 127.722504 158.394334 
L 136.916241 150.444383 
L 139.65906 120.552766 
L 136.813307 111.438033 
L 128.857499 97.935722 
L 110.513519 70.4829 
z
" clip-path="url(#pf5156b7e77)" style="fill: #34618d; fill-opacity: 0.7"/>
    <path d="M 110.513519 70.4829 
L 128.857499 97.935722 
L 136.813307 111.438033 
L 139.65906 120.552766 
L 136.916241 150.444383 
L 127.722504 158.394334 
L 123.246939 159.406385 
L 104.241364 159.706238 
L 86.788652 159.63485 
L 75.338757 158.405396 
L 56.455964 155.757068 
L 55.064328 157.952331 
L 76.412653 160.946452 
L 89.357563 162.336436 
L 105.951745 162.404313 
L 126.250122 162.084064 
L 131.030125 161.00317 
L 140.849241 152.512446 
L 143.503581 123.585074 
L 140.388295 113.607047 
L 131.678959 98.825876 
L 111.597544 68.772883 
z
" clip-path="url(#pf5156b7e77)" style="fill: #31678e; fill-opacity: 0.7"/>
    <path d="M 111.597544 68.772883 
L 131.678959 98.825876 
L 140.388295 113.607047 
L 143.503581 123.585074 
L 140.849241 152.512446 
L 131.030125 161.00317 
L 126.250122 162.084064 
L 105.951745 162.404313 
L 89.357563 162.336436 
L 76.412653 160.946452 
L 55.064328 157.952331 
L 53.672692 160.147595 
L 77.486548 163.487509 
L 91.926474 165.038023 
L 107.662126 165.102387 
L 129.253305 164.761742 
L 134.337746 163.612007 
L 144.78224 154.580509 
L 147.348103 126.617383 
L 143.963283 115.776061 
L 134.50042 99.71603 
L 112.68157 67.062865 
z
" clip-path="url(#pf5156b7e77)" style="fill: #2e6d8e; fill-opacity: 0.7"/>
    <path d="M 112.68157 67.062865 
L 134.50042 99.71603 
L 143.963283 115.776061 
L 147.348103 126.617383 
L 144.78224 154.580509 
L 134.337746 163.612007 
L 129.253305 164.761742 
L 107.662126 165.102387 
L 91.926474 165.038023 
L 77.486548 163.487509 
L 53.672692 160.147595 
L 52.281057 162.342858 
L 78.560443 166.028566 
L 94.495385 167.73961 
L 109.372507 167.800462 
L 132.256488 167.43942 
L 137.645367 166.220843 
L 148.71524 156.648571 
L 151.192624 129.649691 
L 147.538272 117.945075 
L 137.321881 100.606184 
L 113.765595 65.352847 
z
" clip-path="url(#pf5156b7e77)" style="fill: #2c718e; fill-opacity: 0.7"/>
    <path d="M 51.092845 164.217226 
L 54.620557 165.061417 
L 79.634339 168.569622 
L 97.064296 170.441196 
L 111.082888 170.498537 
L 135.259671 170.117098 
L 140.952988 168.829679 
L 152.648239 158.716634 
L 155.037146 132.682 
L 151.11326 120.114089 
L 140.143341 101.496338 
L 114.849621 63.64283 
L 113.765595 65.352847 
L 137.321881 100.606184 
L 147.538272 117.945075 
L 151.192624 129.649691 
L 148.71524 156.648571 
L 137.645367 166.220843 
L 132.256488 167.43942 
L 109.372507 167.800462 
L 94.495385 167.73961 
L 78.560443 166.028566 
L 52.281057 162.342858 
L 52.238876 162.409396 
z
" clip-path="url(#pf5156b7e77)" style="fill: #2a778e; fill-opacity: 0.7"/>
    <path d="M 49.910993 166.081563 
L 57.076682 167.796333 
L 80.708234 171.110679 
L 99.633207 173.142783 
L 112.79327 173.196612 
L 138.262854 172.794777 
L 144.260609 171.438516 
L 156.581239 160.784697 
L 158.881667 135.714309 
L 154.688248 122.283103 
L 142.964802 102.386491 
L 115.933646 61.932812 
L 114.849621 63.64283 
L 140.143341 101.496338 
L 151.11326 120.114089 
L 155.037146 132.682 
L 152.648239 158.716634 
L 140.952988 168.829679 
L 135.259671 170.117098 
L 111.082888 170.498537 
L 97.064296 170.441196 
L 79.634339 168.569622 
L 54.620557 165.061417 
L 51.092845 164.217226 
z
" clip-path="url(#pf5156b7e77)" style="fill: #287d8e; fill-opacity: 0.7"/>
    <path d="M 48.72914 167.9459 
L 59.532807 170.531248 
L 81.78213 173.651735 
L 102.202118 175.844369 
L 114.503651 175.894687 
L 141.266037 175.472455 
L 147.56823 174.047352 
L 160.514238 162.85276 
L 162.726189 138.746617 
L 158.263237 124.452117 
L 145.786262 103.276645 
L 117.017672 60.222794 
L 115.933646 61.932812 
L 142.964802 102.386491 
L 154.688248 122.283103 
L 158.881667 135.714309 
L 156.581239 160.784697 
L 144.260609 171.438516 
L 138.262854 172.794777 
L 112.79327 173.196612 
L 99.633207 173.142783 
L 80.708234 171.110679 
L 57.076682 167.796333 
L 49.910993 166.081563 
z
" clip-path="url(#pf5156b7e77)" style="fill: #26828e; fill-opacity: 0.7"/>
    <path d="M 47.547287 169.810238 
L 61.988933 173.266164 
L 82.856025 176.192792 
L 104.771029 178.545956 
L 116.214032 178.592762 
L 144.26922 178.150133 
L 150.875851 176.656188 
L 164.447238 164.920823 
L 166.57071 141.778926 
L 161.838225 126.621131 
L 148.607723 104.166799 
L 118.101697 58.512777 
L 117.017672 60.222794 
L 145.786262 103.276645 
L 158.263237 124.452117 
L 162.726189 138.746617 
L 160.514238 162.85276 
L 147.56823 174.047352 
L 141.266037 175.472455 
L 114.503651 175.894687 
L 102.202118 175.844369 
L 81.78213 173.651735 
L 59.532807 170.531248 
L 48.72914 167.9459 
z
" clip-path="url(#pf5156b7e77)" style="fill: #23888e; fill-opacity: 0.7"/>
    <path d="M 46.365434 171.674575 
L 64.445058 176.001079 
L 83.92992 178.733848 
L 107.33994 181.247543 
L 117.924413 181.290837 
L 147.272403 180.827812 
L 154.183472 179.265025 
L 168.380238 166.988886 
L 170.415232 144.811234 
L 165.413213 128.790145 
L 151.429183 105.056953 
L 119.674014 57.533514 
L 119.378895 57.140202 
L 119.155976 56.849683 
L 119.039656 57.033175 
L 118.101697 58.512777 
L 148.607723 104.166799 
L 161.838225 126.621131 
L 166.57071 141.778926 
L 164.447238 164.920823 
L 150.875851 176.656188 
L 144.26922 178.150133 
L 116.214032 178.592762 
L 104.771029 178.545956 
L 82.856025 176.192792 
L 61.988933 173.266164 
L 47.547287 169.810238 
z
" clip-path="url(#pf5156b7e77)" style="fill: #218e8d; fill-opacity: 0.7"/>
    <path d="M 45.183581 173.538912 
L 66.901183 178.735995 
L 85.003816 181.274905 
L 109.908851 183.949129 
L 119.634795 183.988912 
L 150.275586 183.50549 
L 157.491093 181.873861 
L 172.313237 169.056948 
L 174.259753 147.843543 
L 168.988202 130.959159 
L 154.250644 105.947107 
L 124.381866 61.246762 
L 121.896539 57.934504 
L 120.019239 55.487912 
L 119.155976 56.849683 
L 119.378895 57.140202 
L 119.674014 57.533514 
L 151.429183 105.056953 
L 165.413213 128.790145 
L 170.415232 144.811234 
L 168.380238 166.988886 
L 154.183472 179.265025 
L 147.272403 180.827812 
L 117.924413 181.290837 
L 107.33994 181.247543 
L 83.92992 178.733848 
L 64.445058 176.001079 
L 46.365434 171.674575 
z
" clip-path="url(#pf5156b7e77)" style="fill: #20928c; fill-opacity: 0.7"/>
    <path d="M 44.001729 175.403249 
L 69.357308 181.47091 
L 86.077711 183.815961 
L 112.477762 186.650716 
L 121.345176 186.686987 
L 153.278769 186.183168 
L 160.798714 184.482697 
L 176.246237 171.125011 
L 178.104275 150.875851 
L 172.56319 133.128174 
L 157.072104 106.837261 
L 129.089718 64.96001 
L 124.414184 58.728806 
L 120.882502 54.126141 
L 120.019239 55.487912 
L 121.896539 57.934504 
L 124.381866 61.246762 
L 154.250644 105.947107 
L 168.988202 130.959159 
L 174.259753 147.843543 
L 172.313237 169.056948 
L 157.491093 181.873861 
L 150.275586 183.50549 
L 119.634795 183.988912 
L 109.908851 183.949129 
L 85.003816 181.274905 
L 66.901183 178.735995 
L 45.183581 173.538912 
z
" clip-path="url(#pf5156b7e77)" style="fill: #1f988b; fill-opacity: 0.7"/>
    <path d="M 42.819876 177.267586 
L 71.813433 184.205826 
L 87.151607 186.357018 
L 115.046673 189.352303 
L 123.055557 189.385062 
L 156.281952 188.860847 
L 164.106335 187.091533 
L 180.179236 173.193074 
L 181.948797 153.90816 
L 176.138178 135.297188 
L 159.893565 107.727414 
L 133.797571 68.673258 
L 126.931828 59.523107 
L 121.745765 52.76437 
L 120.882502 54.126141 
L 124.414184 58.728806 
L 129.089718 64.96001 
L 157.072104 106.837261 
L 172.56319 133.128174 
L 178.104275 150.875851 
L 176.246237 171.125011 
L 160.798714 184.482697 
L 153.278769 186.183168 
L 121.345176 186.686987 
L 112.477762 186.650716 
L 86.077711 183.815961 
L 69.357308 181.47091 
L 44.001729 175.403249 
z
" clip-path="url(#pf5156b7e77)" style="fill: #1f9e89; fill-opacity: 0.7"/>
    <path d="M 41.638023 179.131924 
L 74.269558 186.940741 
L 88.225502 188.898074 
L 117.615584 192.053889 
L 124.765938 192.083137 
L 159.285134 191.538525 
L 167.413956 189.70037 
L 184.112236 175.261137 
L 185.793318 156.940468 
L 179.713167 137.466202 
L 162.715025 108.617568 
L 138.505423 72.386505 
L 129.449472 60.317409 
L 122.609028 51.402598 
L 121.745765 52.76437 
L 126.931828 59.523107 
L 133.797571 68.673258 
L 159.893565 107.727414 
L 176.138178 135.297188 
L 181.948797 153.90816 
L 180.179236 173.193074 
L 164.106335 187.091533 
L 156.281952 188.860847 
L 123.055557 189.385062 
L 115.046673 189.352303 
L 87.151607 186.357018 
L 71.813433 184.205826 
L 42.819876 177.267586 
z
" clip-path="url(#pf5156b7e77)" style="fill: #20a386; fill-opacity: 0.7"/>
    <path d="M 40.45617 180.996261 
L 76.725684 189.675656 
L 89.299397 191.439131 
L 120.184495 194.755476 
L 126.476319 194.781212 
L 162.288317 194.216203 
L 170.721577 192.309206 
L 188.045235 177.3292 
L 189.63784 159.972777 
L 183.288155 139.635216 
L 165.536486 109.507722 
L 143.213276 76.099753 
L 131.967116 61.11171 
L 123.472291 50.040827 
L 122.609028 51.402598 
L 129.449472 60.317409 
L 138.505423 72.386505 
L 162.715025 108.617568 
L 179.713167 137.466202 
L 185.793318 156.940468 
L 184.112236 175.261137 
L 167.413956 189.70037 
L 159.285134 191.538525 
L 124.765938 192.083137 
L 117.615584 192.053889 
L 88.225502 188.898074 
L 74.269558 186.940741 
L 41.638023 179.131924 
z
" clip-path="url(#pf5156b7e77)" style="fill: #23a983; fill-opacity: 0.7"/>
    <path d="M 39.274318 182.860598 
L 79.181809 192.410572 
L 90.373293 193.980187 
L 122.753406 197.457063 
L 128.186701 197.479287 
L 165.2915 196.893882 
L 174.029198 194.918042 
L 191.978235 179.397263 
L 193.482361 163.005085 
L 186.863143 141.80423 
L 168.357947 110.397876 
L 147.921128 79.813001 
L 134.484761 61.906012 
L 124.335554 48.679056 
L 123.472291 50.040827 
L 131.967116 61.11171 
L 143.213276 76.099753 
L 165.536486 109.507722 
L 183.288155 139.635216 
L 189.63784 159.972777 
L 188.045235 177.3292 
L 170.721577 192.309206 
L 162.288317 194.216203 
L 126.476319 194.781212 
L 120.184495 194.755476 
L 89.299397 191.439131 
L 76.725684 189.675656 
L 40.45617 180.996261 
z
" clip-path="url(#pf5156b7e77)" style="fill: #28ae80; fill-opacity: 0.7"/>
    <path d="M 38.092465 184.724935 
L 81.637934 195.145487 
L 91.447188 196.521244 
L 125.322317 200.158649 
L 129.897082 200.177362 
L 168.294683 199.57156 
L 177.336819 197.526879 
L 195.911234 181.465325 
L 197.326883 166.037394 
L 190.438132 143.973244 
L 171.179407 111.28803 
L 152.62898 83.526249 
L 137.002405 62.700314 
L 125.198817 47.317284 
L 124.335554 48.679056 
L 134.484761 61.906012 
L 147.921128 79.813001 
L 168.357947 110.397876 
L 186.863143 141.80423 
L 193.482361 163.005085 
L 191.978235 179.397263 
L 174.029198 194.918042 
L 165.2915 196.893882 
L 128.186701 197.479287 
L 122.753406 197.457063 
L 90.373293 193.980187 
L 79.181809 192.410572 
L 39.274318 182.860598 
z
" clip-path="url(#pf5156b7e77)" style="fill: #2eb37c; fill-opacity: 0.7"/>
    <path d="M 36.910612 186.589272 
L 84.094059 197.880403 
L 92.521083 199.062301 
L 127.891229 202.860236 
L 131.607463 202.875437 
L 171.297866 202.249238 
L 180.64444 200.135715 
L 199.844234 183.533388 
L 201.171404 169.069703 
L 194.01312 146.142258 
L 174.000868 112.178184 
L 157.336833 87.239497 
L 139.520049 63.494615 
L 126.06208 45.955513 
L 125.198817 47.317284 
L 137.002405 62.700314 
L 152.62898 83.526249 
L 171.179407 111.28803 
L 190.438132 143.973244 
L 197.326883 166.037394 
L 195.911234 181.465325 
L 177.336819 197.526879 
L 168.294683 199.57156 
L 129.897082 200.177362 
L 125.322317 200.158649 
L 91.447188 196.521244 
L 81.637934 195.145487 
L 38.092465 184.724935 
z
" clip-path="url(#pf5156b7e77)" style="fill: #37b878; fill-opacity: 0.7"/>
    <path d="M 35.728759 188.45361 
L 86.550184 200.615318 
L 93.594979 201.603357 
L 130.46014 205.561822 
L 133.317844 205.573511 
L 174.301049 204.926916 
L 183.952061 202.744551 
L 203.777233 185.601451 
L 205.015926 172.102011 
L 197.588109 148.311272 
L 176.822328 113.068337 
L 162.044685 90.952744 
L 142.037694 64.288917 
L 126.925343 44.593742 
L 126.06208 45.955513 
L 139.520049 63.494615 
L 157.336833 87.239497 
L 174.000868 112.178184 
L 194.01312 146.142258 
L 201.171404 169.069703 
L 199.844234 183.533388 
L 180.64444 200.135715 
L 171.297866 202.249238 
L 131.607463 202.875437 
L 127.891229 202.860236 
L 92.521083 199.062301 
L 84.094059 197.880403 
L 36.910612 186.589272 
z
" clip-path="url(#pf5156b7e77)" style="fill: #40bd72; fill-opacity: 0.7"/>
    <path d="M 34.546906 190.317947 
L 89.006309 203.350234 
L 94.668874 204.144414 
L 133.029051 208.263409 
L 135.028225 208.271586 
L 177.304232 207.604595 
L 187.259682 205.353388 
L 207.710233 187.669514 
L 208.860447 175.13432 
L 201.163097 150.480286 
L 179.643789 113.958491 
L 166.752538 94.665992 
L 144.555338 65.083219 
L 127.788606 43.23197 
L 126.925343 44.593742 
L 142.037694 64.288917 
L 162.044685 90.952744 
L 176.822328 113.068337 
L 197.588109 148.311272 
L 205.015926 172.102011 
L 203.777233 185.601451 
L 183.952061 202.744551 
L 174.301049 204.926916 
L 133.317844 205.573511 
L 130.46014 205.561822 
L 93.594979 201.603357 
L 86.550184 200.615318 
L 35.728759 188.45361 
z
" clip-path="url(#pf5156b7e77)" style="fill: #4cc26c; fill-opacity: 0.7"/>
    <path d="M 33.365054 192.182284 
L 91.462435 206.085149 
L 95.74277 206.68547 
L 135.597962 210.964996 
L 136.738607 210.969661 
L 180.307415 210.282273 
L 190.567303 207.962224 
L 211.643232 189.737577 
L 212.704969 178.166628 
L 204.738085 152.6493 
L 182.465249 114.848645 
L 171.46039 98.37924 
L 147.072982 65.87752 
L 128.651869 41.870199 
L 127.788606 43.23197 
L 144.555338 65.083219 
L 166.752538 94.665992 
L 179.643789 113.958491 
L 201.163097 150.480286 
L 208.860447 175.13432 
L 207.710233 187.669514 
L 187.259682 205.353388 
L 177.304232 207.604595 
L 135.028225 208.271586 
L 133.029051 208.263409 
L 94.668874 204.144414 
L 89.006309 203.350234 
L 34.546906 190.317947 
z
" clip-path="url(#pf5156b7e77)" style="fill: #58c765; fill-opacity: 0.7"/>
    <path d="M 32.183201 194.046621 
L 93.91856 208.820065 
L 96.816665 209.226527 
L 138.166873 213.666582 
L 138.448988 213.667736 
L 183.310598 212.959951 
L 193.874924 210.57106 
L 215.576232 191.80564 
L 216.54949 181.198937 
L 208.313074 154.818314 
L 185.28671 115.738799 
L 176.168242 102.092488 
L 149.590626 66.671822 
L 129.515131 40.508428 
L 128.651869 41.870199 
L 147.072982 65.87752 
L 171.46039 98.37924 
L 182.465249 114.848645 
L 204.738085 152.6493 
L 212.704969 178.166628 
L 211.643232 189.737577 
L 190.567303 207.962224 
L 180.307415 210.282273 
L 136.738607 210.969661 
L 135.597962 210.964996 
L 95.74277 206.68547 
L 91.462435 206.085149 
L 33.365054 192.182284 
z
" clip-path="url(#pf5156b7e77)" style="fill: #63cb5f; fill-opacity: 0.7"/>
    <path d="M 31.001348 195.910959 
L 96.374685 211.55498 
L 97.89056 211.767583 
L 123.843521 214.554331 
L 139.011024 214.554331 
L 185.098794 214.554331 
L 191.104424 214.554331 
L 197.182545 213.179897 
L 219.509232 193.873702 
L 220.394012 184.231245 
L 211.888062 156.987328 
L 188.10817 116.628953 
L 180.876095 105.805736 
L 152.108271 67.466124 
L 130.378394 39.146656 
L 129.515131 40.508428 
L 149.590626 66.671822 
L 176.168242 102.092488 
L 185.28671 115.738799 
L 208.313074 154.818314 
L 216.54949 181.198937 
L 215.576232 191.80564 
L 193.874924 210.57106 
L 183.310598 212.959951 
L 138.448988 213.667736 
L 138.166873 213.666582 
L 96.816665 209.226527 
L 93.91856 208.820065 
L 32.183201 194.046621 
z
" clip-path="url(#pf5156b7e77)" style="fill: #70cf57; fill-opacity: 0.7"/>
    <path d="M 29.819495 197.775296 
L 98.83081 214.289896 
L 98.964456 214.30864 
L 101.252574 214.554331 
L 123.843521 214.554331 
L 97.89056 211.767583 
L 96.374685 211.55498 
L 31.001348 195.910959 
z
M 201.917693 214.554331 
L 223.442231 195.941765 
L 224.238533 187.263554 
L 215.46305 159.156343 
L 190.929631 117.519107 
L 185.583947 109.518983 
L 154.625915 68.260425 
L 131.241657 37.784885 
L 130.378394 39.146656 
L 152.108271 67.466124 
L 180.876095 105.805736 
L 188.10817 116.628953 
L 211.888062 156.987328 
L 220.394012 184.231245 
L 219.509232 193.873702 
L 197.182545 213.179897 
L 191.104424 214.554331 
L 198.925125 214.554331 
z
" clip-path="url(#pf5156b7e77)" style="fill: #7fd34e; fill-opacity: 0.7"/>
    <path d="M 28.637643 199.639633 
L 90.963275 214.554331 
L 99.068289 214.554331 
L 101.252574 214.554331 
L 98.964456 214.30864 
L 98.83081 214.289896 
L 29.819495 197.775296 
z
M 208.242308 214.554331 
L 227.375231 198.009828 
L 228.083055 190.295862 
L 219.038039 161.325357 
L 193.751091 118.40926 
L 190.2918 113.232231 
L 157.143559 69.054727 
L 132.10492 36.423114 
L 131.241657 37.784885 
L 154.625915 68.260425 
L 185.583947 109.518983 
L 190.929631 117.519107 
L 215.46305 159.156343 
L 224.238533 187.263554 
L 223.442231 195.941765 
L 201.917693 214.554331 
z
" clip-path="url(#pf5156b7e77)" style="fill: #8ed645; fill-opacity: 0.7"/>
    <path d="M 27.45579 201.50397 
L 81.990718 214.554331 
L 90.963275 214.554331 
L 28.637643 199.639633 
z
M 214.566923 214.554331 
L 231.30823 200.077891 
L 231.927576 193.328171 
L 222.613027 163.494371 
L 196.572552 119.299414 
L 194.999652 116.945479 
L 159.661204 69.849028 
L 132.968183 35.061343 
L 132.10492 36.423114 
L 157.143559 69.054727 
L 190.2918 113.232231 
L 193.751091 118.40926 
L 219.038039 161.325357 
L 228.083055 190.295862 
L 227.375231 198.009828 
L 208.242308 214.554331 
z
" clip-path="url(#pf5156b7e77)" style="fill: #9dd93b; fill-opacity: 0.7"/>
    <path d="M 26.273937 203.368307 
L 73.018162 214.554331 
L 81.990718 214.554331 
L 27.45579 201.50397 
z
M 220.891537 214.554331 
L 235.24123 202.145954 
L 235.772098 196.360479 
L 226.188015 165.663385 
L 204.337653 128.579737 
L 198.925125 120.041637 
L 197.186141 117.298441 
L 162.178848 70.64333 
L 133.831446 33.699571 
L 132.968183 35.061343 
L 159.661204 69.849028 
L 194.999652 116.945479 
L 196.572552 119.299414 
L 222.613027 163.494371 
L 231.927576 193.328171 
L 231.30823 200.077891 
L 214.566923 214.554331 
z
" clip-path="url(#pf5156b7e77)" style="fill: #addc30; fill-opacity: 0.7"/>
    <path d="M 25.092084 205.232645 
L 64.045605 214.554331 
L 73.018162 214.554331 
L 26.273937 203.368307 
z
M 227.216152 214.554331 
L 239.174229 204.214017 
L 239.616619 199.392788 
L 230.28905 169.517285 
L 228.882176 167.297984 
L 204.337653 128.579737 
L 226.188015 165.663385 
L 235.772098 196.360479 
L 235.24123 202.145954 
L 220.891537 214.554331 
z
M 186.722054 100.791659 
L 164.696492 71.437632 
L 134.694709 32.3378 
L 133.831446 33.699571 
L 162.178848 70.64333 
L 197.186141 117.298441 
z
" clip-path="url(#pf5156b7e77)" style="fill: #bade28; fill-opacity: 0.7"/>
    <path d="M 23.910231 207.096982 
L 55.073048 214.554331 
L 64.045605 214.554331 
L 25.092084 205.232645 
z
M 233.540767 214.554331 
L 243.107229 206.282079 
L 243.461141 202.425097 
L 235.999085 178.524694 
L 230.28905 169.517285 
L 239.616619 199.392788 
L 239.174229 204.214017 
L 227.216152 214.554331 
z
M 176.257968 84.284878 
L 167.214136 72.231933 
L 135.557972 30.976029 
L 134.694709 32.3378 
L 164.696492 71.437632 
L 186.722054 100.791659 
z
" clip-path="url(#pf5156b7e77)" style="fill: #cae11f; fill-opacity: 0.7"/>
    <path d="M 22.728379 208.961319 
L 46.100491 214.554331 
L 55.073048 214.554331 
L 23.910231 207.096982 
z
M 239.865382 214.554331 
L 247.040228 208.350142 
L 247.305662 205.457405 
L 241.709121 187.532103 
L 235.999085 178.524694 
L 243.461141 202.425097 
L 243.107229 206.282079 
L 233.540767 214.554331 
z
M 166.217157 68.4458 
L 136.421235 29.614257 
L 135.557972 30.976029 
L 167.214136 72.231933 
L 176.257968 84.284878 
L 168.968074 72.78529 
z
" clip-path="url(#pf5156b7e77)" style="fill: #dae319; fill-opacity: 0.7"/>
    <path d="M 21.546526 210.825656 
L 37.127934 214.554331 
L 46.100491 214.554331 
L 22.728379 208.961319 
z
M 246.189997 214.554331 
L 250.973228 210.418205 
L 251.150184 208.489714 
L 247.419156 196.539512 
L 241.709121 187.532103 
L 247.305662 205.457405 
L 247.040228 208.350142 
L 239.865382 214.554331 
z
M 157.148446 54.140181 
L 137.284498 28.252486 
L 136.421235 29.614257 
L 166.217157 68.4458 
z
" clip-path="url(#pf5156b7e77)" style="fill: #eae51a; fill-opacity: 0.7"/>
    <path d="M 20.364673 212.689993 
L 28.155377 214.554331 
L 37.127934 214.554331 
L 21.546526 210.825656 
z
M 252.514612 214.554331 
L 254.906227 212.486268 
L 254.994705 211.522022 
L 253.129191 205.546921 
L 247.419156 196.539512 
L 251.150184 208.489714 
L 250.973228 210.418205 
L 246.189997 214.554331 
z
M 148.079735 39.834562 
L 138.147761 26.890715 
L 137.284498 28.252486 
L 157.148446 54.140181 
z
" clip-path="url(#pf5156b7e77)" style="fill: #f8e621; fill-opacity: 0.7"/>
    <path d="M 28.155377 214.554331 
L 20.364673 212.689993 
L 19.18282 214.554331 
z
M 253.129191 205.546921 
L 254.994705 211.522022 
L 254.906227 212.486268 
L 252.514612 214.554331 
L 258.839227 214.554331 
z
M 138.147761 26.890715 
L 148.079735 39.834562 
L 139.011024 25.528943 
z
" clip-path="url(#pf5156b7e77)" style="fill: #fde725; fill-opacity: 0.7"/>
   </g>
   <g id="matplotlib.axis_1"/>
   <g id="matplotlib.axis_2"/>
   <g id="line2d_1">
    <path d="M 52.238876 162.409396 
L 19.18282 214.554331 
" clip-path="url(#pf5156b7e77)" style="fill: none; stroke: #555555; stroke-opacity: 0.9; stroke-width: 0.5; stroke-linecap: square"/>
   </g>
   <g id="line2d_2">
    <path d="M 198.925125 120.041637 
L 228.882176 167.297984 
" clip-path="url(#pf5156b7e77)" style="fill: none; stroke: #555555; stroke-opacity: 0.9; stroke-width: 0.5; stroke-linecap: square"/>
   </g>
   <g id="line2d_3">
    <path d="M 139.011024 214.554331 
L 99.068289 214.554331 
" clip-path="url(#pf5156b7e77)" style="fill: none; stroke: #555555; stroke-opacity: 0.9; stroke-width: 0.5; stroke-linecap: square"/>
   </g>
   <g id="line2d_4">
    <path d="M 139.011024 214.554331 
L 67.114102 138.944176 
" clip-path="url(#pf5156b7e77)" style="fill: none; stroke: #555555; stroke-opacity: 0.9; stroke-width: 0.5; stroke-linecap: square"/>
   </g>
   <g id="line2d_5">
    <path d="M 198.925125 120.041637 
L 119.039656 57.033175 
" clip-path="url(#pf5156b7e77)" style="fill: none; stroke: #555555; stroke-opacity: 0.9; stroke-width: 0.5; stroke-linecap: square"/>
   </g>
   <g id="line2d_6">
    <path d="M 67.114102 138.944176 
L 52.238876 162.409396 
" clip-path="url(#pf5156b7e77)" style="fill: none; stroke: #555555; stroke-opacity: 0.9; stroke-width: 0.5; stroke-linecap: square"/>
   </g>
   <g id="line2d_7">
    <path d="M 198.925125 214.554331 
L 258.839227 214.554331 
" clip-path="url(#pf5156b7e77)" style="fill: none; stroke: #555555; stroke-opacity: 0.9; stroke-width: 0.5; stroke-linecap: square"/>
   </g>
   <g id="line2d_8">
    <path d="M 228.882176 167.297984 
L 258.839227 214.554331 
" clip-path="url(#pf5156b7e77)" style="fill: none; stroke: #555555; stroke-opacity: 0.9; stroke-width: 0.5; stroke-linecap: square"/>
   </g>
   <g id="line2d_9">
    <path d="M 99.068289 88.537406 
L 119.039656 57.033175 
" clip-path="url(#pf5156b7e77)" style="fill: none; stroke: #555555; stroke-opacity: 0.9; stroke-width: 0.5; stroke-linecap: square"/>
   </g>
   <g id="line2d_10">
    <path d="M 99.068289 88.537406 
L 258.839227 214.554331 
" clip-path="url(#pf5156b7e77)" style="fill: none; stroke: #555555; stroke-opacity: 0.9; stroke-width: 0.5; stroke-linecap: square"/>
   </g>
   <g id="line2d_11">
    <path d="M 79.096922 120.041637 
L 99.068289 88.537406 
" clip-path="url(#pf5156b7e77)" style="fill: none; stroke: #555555; stroke-opacity: 0.9; stroke-width: 0.5; stroke-linecap: square"/>
   </g>
   <g id="line2d_12">
    <path d="M 79.096922 120.041637 
L 139.011024 214.554331 
" clip-path="url(#pf5156b7e77)" style="fill: none; stroke: #555555; stroke-opacity: 0.9; stroke-width: 0.5; stroke-linecap: square"/>
   </g>
   <g id="line2d_13">
    <path d="M 198.925125 120.041637 
L 168.968074 72.78529 
" clip-path="url(#pf5156b7e77)" style="fill: none; stroke: #555555; stroke-opacity: 0.9; stroke-width: 0.5; stroke-linecap: square"/>
   </g>
   <g id="line2d_14">
    <path d="M 99.068289 214.554331 
L 52.238876 162.409396 
" clip-path="url(#pf5156b7e77)" style="fill: none; stroke: #555555; stroke-opacity: 0.9; stroke-width: 0.5; stroke-linecap: square"/>
   </g>
   <g id="line2d_15">
    <path d="M 79.096922 120.041637 
L 185.098794 214.554331 
" clip-path="url(#pf5156b7e77)" style="fill: none; stroke: #555555; stroke-opacity: 0.9; stroke-width: 0.5; stroke-linecap: square"/>
   </g>
   <g id="line2d_16">
    <path d="M 99.068289 214.554331 
L 19.18282 214.554331 
" clip-path="url(#pf5156b7e77)" style="fill: none; stroke: #555555; stroke-opacity: 0.9; stroke-width: 0.5; stroke-linecap: square"/>
   </g>
   <g id="line2d_17">
    <path d="M 168.968074 72.78529 
L 119.039656 57.033175 
" clip-path="url(#pf5156b7e77)" style="fill: none; stroke: #555555; stroke-opacity: 0.9; stroke-width: 0.5; stroke-linecap: square"/>
   </g>
   <g id="line2d_18">
    <path d="M 79.096922 120.041637 
L 198.925125 214.554331 
" clip-path="url(#pf5156b7e77)" style="fill: none; stroke: #555555; stroke-opacity: 0.9; stroke-width: 0.5; stroke-linecap: square"/>
   </g>
   <g id="line2d_19">
    <path d="M 99.068289 214.554331 
L 67.114102 138.944176 
" clip-path="url(#pf5156b7e77)" style="fill: none; stroke: #555555; stroke-opacity: 0.9; stroke-width: 0.5; stroke-linecap: square"/>
   </g>
   <g id="line2d_20">
    <path d="M 79.096922 120.041637 
L 67.114102 138.944176 
" clip-path="url(#pf5156b7e77)" style="fill: none; stroke: #555555; stroke-opacity: 0.9; stroke-width: 0.5; stroke-linecap: square"/>
   </g>
   <g id="line2d_21">
    <path d="M 198.925125 120.041637 
L 99.068289 88.537406 
" clip-path="url(#pf5156b7e77)" style="fill: none; stroke: #555555; stroke-opacity: 0.9; stroke-width: 0.5; stroke-linecap: square"/>
   </g>
   <g id="line2d_22">
    <path d="M 139.011024 214.554331 
L 185.098794 214.554331 
" clip-path="url(#pf5156b7e77)" style="fill: none; stroke: #555555; stroke-opacity: 0.9; stroke-width: 0.5; stroke-linecap: square"/>
   </g>
   <g id="line2d_23">
    <path d="M 79.096922 120.041637 
L 258.839227 214.554331 
" clip-path="url(#pf5156b7e77)" style="fill: none; stroke: #555555; stroke-opacity: 0.9; stroke-width: 0.5; stroke-linecap: square"/>
   </g>
   <g id="line2d_24">
    <path d="M 228.882176 167.297984 
L 99.068289 88.537406 
" clip-path="url(#pf5156b7e77)" style="fill: none; stroke: #555555; stroke-opacity: 0.9; stroke-width: 0.5; stroke-linecap: square"/>
   </g>
   <g id="line2d_25">
    <path d="M 198.925125 214.554331 
L 185.098794 214.554331 
" clip-path="url(#pf5156b7e77)" style="fill: none; stroke: #555555; stroke-opacity: 0.9; stroke-width: 0.5; stroke-linecap: square"/>
   </g>
   <g id="line2d_26">
    <path d="M 119.039656 57.033175 
L 139.011024 25.528943 
" clip-path="url(#pf5156b7e77)" style="fill: none; stroke: #555555; stroke-opacity: 0.9; stroke-width: 0.5; stroke-linecap: square"/>
   </g>
   <g id="line2d_27">
    <path d="M 168.968074 72.78529 
L 139.011024 25.528943 
" clip-path="url(#pf5156b7e77)" style="fill: none; stroke: #555555; stroke-opacity: 0.9; stroke-width: 0.5; stroke-linecap: square"/>
   </g>
   <g id="PathCollection_1">
    <defs>
     <path id="m745899f7c6" d="M 0 2.738613 
C 0.726289 2.738613 1.422928 2.450055 1.936492 1.936492 
C 2.450055 1.422928 2.738613 0.726289 2.738613 0 
C 2.738613 -0.726289 2.450055 -1.422928 1.936492 -1.936492 
C 1.422928 -2.450055 0.726289 -2.738613 0 -2.738613 
C -0.726289 -2.738613 -1.422928 -2.450055 -1.936492 -1.936492 
C -2.450055 -1.422928 -2.738613 -0.726289 -2.738613 0 
C -2.738613 0.726289 -2.450055 1.422928 -1.936492 1.936492 
C -1.422928 2.450055 -0.726289 2.738613 0 2.738613 
z
" style="stroke: #008000"/>
    </defs>
    <g clip-path="url(#pf5156b7e77)">
     <use xlink:href="#m745899f7c6" x="52.238876" y="162.409396" style="fill: #008000; stroke: #008000"/>
     <use xlink:href="#m745899f7c6" x="19.18282" y="214.554331" style="fill: #008000; stroke: #008000"/>
     <use xlink:href="#m745899f7c6" x="198.925125" y="120.041637" style="fill: #008000; stroke: #008000"/>
     <use xlink:href="#m745899f7c6" x="228.882176" y="167.297984" style="fill: #008000; stroke: #008000"/>
     <use xlink:href="#m745899f7c6" x="139.011024" y="214.554331" style="fill: #008000; stroke: #008000"/>
     <use xlink:href="#m745899f7c6" x="99.068289" y="214.554331" style="fill: #008000; stroke: #008000"/>
     <use xlink:href="#m745899f7c6" x="67.114102" y="138.944176" style="fill: #008000; stroke: #008000"/>
     <use xlink:href="#m745899f7c6" x="119.039656" y="57.033175" style="fill: #008000; stroke: #008000"/>
     <use xlink:href="#m745899f7c6" x="198.925125" y="214.554331" style="fill: #008000; stroke: #008000"/>
     <use xlink:href="#m745899f7c6" x="258.839227" y="214.554331" style="fill: #008000; stroke: #008000"/>
     <use xlink:href="#m745899f7c6" x="99.068289" y="88.537406" style="fill: #008000; stroke: #008000"/>
     <use xlink:href="#m745899f7c6" x="79.096922" y="120.041637" style="fill: #008000; stroke: #008000"/>
     <use xlink:href="#m745899f7c6" x="168.968074" y="72.78529" style="fill: #008000; stroke: #008000"/>
     <use xlink:href="#m745899f7c6" x="185.098794" y="214.554331" style="fill: #008000; stroke: #008000"/>
     <use xlink:href="#m745899f7c6" x="139.011024" y="25.528943" style="fill: #008000; stroke: #008000"/>
    </g>
   </g>
   <g id="PathCollection_2">
    <defs>
     <path id="m25e1df3428" d="M -0 2.236068 
L 1.341641 0 
L 0 -2.236068 
L -1.341641 -0 
z
" style="stroke: #d3d3d3"/>
    </defs>
    <g clip-path="url(#pf5156b7e77)">
     <use xlink:href="#m25e1df3428" x="139.011024" y="25.528943" style="fill: #d3d3d3; stroke: #d3d3d3"/>
     <use xlink:href="#m25e1df3428" x="139.011024" y="25.528943" style="fill: #d3d3d3; stroke: #d3d3d3"/>
     <use xlink:href="#m25e1df3428" x="139.011024" y="25.528943" style="fill: #d3d3d3; stroke: #d3d3d3"/>
     <use xlink:href="#m25e1df3428" x="258.839227" y="214.554331" style="fill: #d3d3d3; stroke: #d3d3d3"/>
     <use xlink:href="#m25e1df3428" x="258.839227" y="214.554331" style="fill: #d3d3d3; stroke: #d3d3d3"/>
     <use xlink:href="#m25e1df3428" x="258.839227" y="214.554331" style="fill: #d3d3d3; stroke: #d3d3d3"/>
     <use xlink:href="#m25e1df3428" x="258.839227" y="214.554331" style="fill: #d3d3d3; stroke: #d3d3d3"/>
     <use xlink:href="#m25e1df3428" x="258.839227" y="214.554331" style="fill: #d3d3d3; stroke: #d3d3d3"/>
     <use xlink:href="#m25e1df3428" x="258.839227" y="214.554331" style="fill: #d3d3d3; stroke: #d3d3d3"/>
     <use xlink:href="#m25e1df3428" x="258.839227" y="214.554331" style="fill: #d3d3d3; stroke: #d3d3d3"/>
     <use xlink:href="#m25e1df3428" x="198.925125" y="120.041637" style="fill: #d3d3d3; stroke: #d3d3d3"/>
     <use xlink:href="#m25e1df3428" x="198.925125" y="120.041637" style="fill: #d3d3d3; stroke: #d3d3d3"/>
     <use xlink:href="#m25e1df3428" x="228.882176" y="167.297984" style="fill: #d3d3d3; stroke: #d3d3d3"/>
     <use xlink:href="#m25e1df3428" x="228.882176" y="167.297984" style="fill: #d3d3d3; stroke: #d3d3d3"/>
     <use xlink:href="#m25e1df3428" x="210.907946" y="138.944176" style="fill: #d3d3d3; stroke: #d3d3d3"/>
     <use xlink:href="#m25e1df3428" x="234.873586" y="176.749253" style="fill: #d3d3d3; stroke: #d3d3d3"/>
     <use xlink:href="#m25e1df3428" x="19.18282" y="214.554331" style="fill: #d3d3d3; stroke: #d3d3d3"/>
     <use xlink:href="#m25e1df3428" x="19.18282" y="214.554331" style="fill: #d3d3d3; stroke: #d3d3d3"/>
     <use xlink:href="#m25e1df3428" x="19.18282" y="214.554331" style="fill: #d3d3d3; stroke: #d3d3d3"/>
     <use xlink:href="#m25e1df3428" x="19.18282" y="214.554331" style="fill: #d3d3d3; stroke: #d3d3d3"/>
     <use xlink:href="#m25e1df3428" x="19.18282" y="214.554331" style="fill: #d3d3d3; stroke: #d3d3d3"/>
     <use xlink:href="#m25e1df3428" x="19.18282" y="214.554331" style="fill: #d3d3d3; stroke: #d3d3d3"/>
     <use xlink:href="#m25e1df3428" x="19.18282" y="214.554331" style="fill: #d3d3d3; stroke: #d3d3d3"/>
     <use xlink:href="#m25e1df3428" x="19.18282" y="214.554331" style="fill: #d3d3d3; stroke: #d3d3d3"/>
     <use xlink:href="#m25e1df3428" x="19.18282" y="214.554331" style="fill: #d3d3d3; stroke: #d3d3d3"/>
     <use xlink:href="#m25e1df3428" x="79.096922" y="120.041637" style="fill: #d3d3d3; stroke: #d3d3d3"/>
     <use xlink:href="#m25e1df3428" x="79.096922" y="120.041637" style="fill: #d3d3d3; stroke: #d3d3d3"/>
     <use xlink:href="#m25e1df3428" x="109.053973" y="72.78529" style="fill: #d3d3d3; stroke: #d3d3d3"/>
     <use xlink:href="#m25e1df3428" x="139.011024" y="214.554331" style="fill: #d3d3d3; stroke: #d3d3d3"/>
     <use xlink:href="#m25e1df3428" x="139.011024" y="120.041637" style="fill: #d3d3d3; stroke: #d3d3d3"/>
     <use xlink:href="#m25e1df3428" x="139.011024" y="120.041637" style="fill: #d3d3d3; stroke: #d3d3d3"/>
     <use xlink:href="#m25e1df3428" x="198.925125" y="214.554331" style="fill: #d3d3d3; stroke: #d3d3d3"/>
     <use xlink:href="#m25e1df3428" x="198.925125" y="214.554331" style="fill: #d3d3d3; stroke: #d3d3d3"/>
     <use xlink:href="#m25e1df3428" x="198.925125" y="214.554331" style="fill: #d3d3d3; stroke: #d3d3d3"/>
     <use xlink:href="#m25e1df3428" x="210.907946" y="214.554331" style="fill: #d3d3d3; stroke: #d3d3d3"/>
     <use xlink:href="#m25e1df3428" x="59.125555" y="151.545868" style="fill: #d3d3d3; stroke: #d3d3d3"/>
     <use xlink:href="#m25e1df3428" x="99.068289" y="214.554331" style="fill: #d3d3d3; stroke: #d3d3d3"/>
     <use xlink:href="#m25e1df3428" x="99.068289" y="214.554331" style="fill: #d3d3d3; stroke: #d3d3d3"/>
     <use xlink:href="#m25e1df3428" x="109.053973" y="167.297984" style="fill: #d3d3d3; stroke: #d3d3d3"/>
     <use xlink:href="#m25e1df3428" x="109.053973" y="167.297984" style="fill: #d3d3d3; stroke: #d3d3d3"/>
     <use xlink:href="#m25e1df3428" x="109.053973" y="167.297984" style="fill: #d3d3d3; stroke: #d3d3d3"/>
     <use xlink:href="#m25e1df3428" x="49.139871" y="167.297984" style="fill: #d3d3d3; stroke: #d3d3d3"/>
     <use xlink:href="#m25e1df3428" x="94.075447" y="96.413464" style="fill: #d3d3d3; stroke: #d3d3d3"/>
     <use xlink:href="#m25e1df3428" x="79.096922" y="214.554331" style="fill: #d3d3d3; stroke: #d3d3d3"/>
     <use xlink:href="#m25e1df3428" x="79.096922" y="214.554331" style="fill: #d3d3d3; stroke: #d3d3d3"/>
     <use xlink:href="#m25e1df3428" x="115.045383" y="214.554331" style="fill: #d3d3d3; stroke: #d3d3d3"/>
     <use xlink:href="#m25e1df3428" x="208.385247" y="214.554331" style="fill: #d3d3d3; stroke: #d3d3d3"/>
     <use xlink:href="#m25e1df3428" x="102.140807" y="200.013916" style="fill: #d3d3d3; stroke: #d3d3d3"/>
    </g>
   </g>
   <g id="PathCollection_3">
    <defs>
     <path id="m335f1323ea" d="M 0 -5 
L -1.12257 -1.545085 
L -4.755283 -1.545085 
L -1.816356 0.59017 
L -2.938926 4.045085 
L -0 1.90983 
L 2.938926 4.045085 
L 1.816356 0.59017 
L 4.755283 -1.545085 
L 1.12257 -1.545085 
z
" style="stroke: #0000ff"/>
    </defs>
    <g clip-path="url(#pf5156b7e77)">
     <use xlink:href="#m335f1323ea" x="102.140807" y="200.013916" style="fill: #0000ff; stroke: #0000ff"/>
    </g>
   </g>
   <g id="text_1">
    <!-- $\mathrm{Al_{21}Pd_{8}}$ -->
    <g transform="translate(47.279786 171.357279) scale(0.1 -0.1)">
     <defs>
      <path id="DejaVuSans-41" d="M 2188 4044 
L 1331 1722 
L 3047 1722 
L 2188 4044 
z
M 1831 4666 
L 2547 4666 
L 4325 0 
L 3669 0 
L 3244 1197 
L 1141 1197 
L 716 0 
L 50 0 
L 1831 4666 
z
" transform="scale(0.015625)"/>
      <path id="DejaVuSans-6c" d="M 603 4863 
L 1178 4863 
L 1178 0 
L 603 0 
L 603 4863 
z
" transform="scale(0.015625)"/>
      <path id="DejaVuSans-32" d="M 1228 531 
L 3431 531 
L 3431 0 
L 469 0 
L 469 531 
Q 828 903 1448 1529 
Q 2069 2156 2228 2338 
Q 2531 2678 2651 2914 
Q 2772 3150 2772 3378 
Q 2772 3750 2511 3984 
Q 2250 4219 1831 4219 
Q 1534 4219 1204 4116 
Q 875 4013 500 3803 
L 500 4441 
Q 881 4594 1212 4672 
Q 1544 4750 1819 4750 
Q 2544 4750 2975 4387 
Q 3406 4025 3406 3419 
Q 3406 3131 3298 2873 
Q 3191 2616 2906 2266 
Q 2828 2175 2409 1742 
Q 1991 1309 1228 531 
z
" transform="scale(0.015625)"/>
      <path id="DejaVuSans-31" d="M 794 531 
L 1825 531 
L 1825 4091 
L 703 3866 
L 703 4441 
L 1819 4666 
L 2450 4666 
L 2450 531 
L 3481 531 
L 3481 0 
L 794 0 
L 794 531 
z
" transform="scale(0.015625)"/>
      <path id="DejaVuSans-50" d="M 1259 4147 
L 1259 2394 
L 2053 2394 
Q 2494 2394 2734 2622 
Q 2975 2850 2975 3272 
Q 2975 3691 2734 3919 
Q 2494 4147 2053 4147 
L 1259 4147 
z
M 628 4666 
L 2053 4666 
Q 2838 4666 3239 4311 
Q 3641 3956 3641 3272 
Q 3641 2581 3239 2228 
Q 2838 1875 2053 1875 
L 1259 1875 
L 1259 0 
L 628 0 
L 628 4666 
z
" transform="scale(0.015625)"/>
      <path id="DejaVuSans-64" d="M 2906 2969 
L 2906 4863 
L 3481 4863 
L 3481 0 
L 2906 0 
L 2906 525 
Q 2725 213 2448 61 
Q 2172 -91 1784 -91 
Q 1150 -91 751 415 
Q 353 922 353 1747 
Q 353 2572 751 3078 
Q 1150 3584 1784 3584 
Q 2172 3584 2448 3432 
Q 2725 3281 2906 2969 
z
M 947 1747 
Q 947 1113 1208 752 
Q 1469 391 1925 391 
Q 2381 391 2643 752 
Q 2906 1113 2906 1747 
Q 2906 2381 2643 2742 
Q 2381 3103 1925 3103 
Q 1469 3103 1208 2742 
Q 947 2381 947 1747 
z
" transform="scale(0.015625)"/>
      <path id="DejaVuSans-38" d="M 2034 2216 
Q 1584 2216 1326 1975 
Q 1069 1734 1069 1313 
Q 1069 891 1326 650 
Q 1584 409 2034 409 
Q 2484 409 2743 651 
Q 3003 894 3003 1313 
Q 3003 1734 2745 1975 
Q 2488 2216 2034 2216 
z
M 1403 2484 
Q 997 2584 770 2862 
Q 544 3141 544 3541 
Q 544 4100 942 4425 
Q 1341 4750 2034 4750 
Q 2731 4750 3128 4425 
Q 3525 4100 3525 3541 
Q 3525 3141 3298 2862 
Q 3072 2584 2669 2484 
Q 3125 2378 3379 2068 
Q 3634 1759 3634 1313 
Q 3634 634 3220 271 
Q 2806 -91 2034 -91 
Q 1263 -91 848 271 
Q 434 634 434 1313 
Q 434 1759 690 2068 
Q 947 2378 1403 2484 
z
M 1172 3481 
Q 1172 3119 1398 2916 
Q 1625 2713 2034 2713 
Q 2441 2713 2670 2916 
Q 2900 3119 2900 3481 
Q 2900 3844 2670 4047 
Q 2441 4250 2034 4250 
Q 1625 4250 1398 4047 
Q 1172 3844 1172 3481 
z
" transform="scale(0.015625)"/>
     </defs>
     <use xlink:href="#DejaVuSans-41" transform="translate(0 0.015625)"/>
     <use xlink:href="#DejaVuSans-6c" transform="translate(68.408203 0.015625)"/>
     <use xlink:href="#DejaVuSans-32" transform="translate(97.148438 -16.390625) scale(0.7)"/>
     <use xlink:href="#DejaVuSans-31" transform="translate(141.68457 -16.390625) scale(0.7)"/>
     <use xlink:href="#DejaVuSans-50" transform="translate(188.955078 0.015625)"/>
     <use xlink:href="#DejaVuSans-64" transform="translate(249.257812 0.015625)"/>
     <use xlink:href="#DejaVuSans-38" transform="translate(313.691406 -16.390625) scale(0.7)"/>
    </g>
   </g>
   <g id="text_2">
    <!-- $\mathrm{Al}$ -->
    <g transform="translate(19.586902 211.839411) scale(0.1 -0.1)">
     <use xlink:href="#DejaVuSans-41" transform="translate(0 0.015625)"/>
     <use xlink:href="#DejaVuSans-6c" transform="translate(68.408203 0.015625)"/>
    </g>
   </g>
   <g id="text_3">
    <!-- $\mathrm{CuPd}$ -->
    <g transform="translate(178.875125 127.6151) scale(0.1 -0.1)">
     <defs>
      <path id="DejaVuSans-43" d="M 4122 4306 
L 4122 3641 
Q 3803 3938 3442 4084 
Q 3081 4231 2675 4231 
Q 1875 4231 1450 3742 
Q 1025 3253 1025 2328 
Q 1025 1406 1450 917 
Q 1875 428 2675 428 
Q 3081 428 3442 575 
Q 3803 722 4122 1019 
L 4122 359 
Q 3791 134 3420 21 
Q 3050 -91 2638 -91 
Q 1578 -91 968 557 
Q 359 1206 359 2328 
Q 359 3453 968 4101 
Q 1578 4750 2638 4750 
Q 3056 4750 3426 4639 
Q 3797 4528 4122 4306 
z
" transform="scale(0.015625)"/>
      <path id="DejaVuSans-75" d="M 544 1381 
L 544 3500 
L 1119 3500 
L 1119 1403 
Q 1119 906 1312 657 
Q 1506 409 1894 409 
Q 2359 409 2629 706 
Q 2900 1003 2900 1516 
L 2900 3500 
L 3475 3500 
L 3475 0 
L 2900 0 
L 2900 538 
Q 2691 219 2414 64 
Q 2138 -91 1772 -91 
Q 1169 -91 856 284 
Q 544 659 544 1381 
z
M 1991 3584 
L 1991 3584 
z
" transform="scale(0.015625)"/>
     </defs>
     <use xlink:href="#DejaVuSans-43" transform="translate(0 0.015625)"/>
     <use xlink:href="#DejaVuSans-75" transform="translate(69.824219 0.015625)"/>
     <use xlink:href="#DejaVuSans-50" transform="translate(133.203125 0.015625)"/>
     <use xlink:href="#DejaVuSans-64" transform="translate(193.505859 0.015625)"/>
    </g>
   </g>
   <g id="text_4">
    <!-- $\mathrm{Cu_{3}Pd}$ -->
    <g transform="translate(205.073085 176.245867) scale(0.1 -0.1)">
     <defs>
      <path id="DejaVuSans-33" d="M 2597 2516 
Q 3050 2419 3304 2112 
Q 3559 1806 3559 1356 
Q 3559 666 3084 287 
Q 2609 -91 1734 -91 
Q 1441 -91 1130 -33 
Q 819 25 488 141 
L 488 750 
Q 750 597 1062 519 
Q 1375 441 1716 441 
Q 2309 441 2620 675 
Q 2931 909 2931 1356 
Q 2931 1769 2642 2001 
Q 2353 2234 1838 2234 
L 1294 2234 
L 1294 2753 
L 1863 2753 
Q 2328 2753 2575 2939 
Q 2822 3125 2822 3475 
Q 2822 3834 2567 4026 
Q 2313 4219 1838 4219 
Q 1578 4219 1281 4162 
Q 984 4106 628 3988 
L 628 4550 
Q 988 4650 1302 4700 
Q 1616 4750 1894 4750 
Q 2613 4750 3031 4423 
Q 3450 4097 3450 3541 
Q 3450 3153 3228 2886 
Q 3006 2619 2597 2516 
z
" transform="scale(0.015625)"/>
     </defs>
     <use xlink:href="#DejaVuSans-43" transform="translate(0 0.015625)"/>
     <use xlink:href="#DejaVuSans-75" transform="translate(69.824219 0.015625)"/>
     <use xlink:href="#DejaVuSans-33" transform="translate(134.160156 -16.390625) scale(0.7)"/>
     <use xlink:href="#DejaVuSans-50" transform="translate(181.430664 0.015625)"/>
     <use xlink:href="#DejaVuSans-64" transform="translate(241.733398 0.015625)"/>
    </g>
   </g>
   <g id="text_5">
    <!-- $\mathrm{AlCu}$ -->
    <g transform="translate(130.783751 211.215873) scale(0.1 -0.1)">
     <use xlink:href="#DejaVuSans-41" transform="translate(0 0.015625)"/>
     <use xlink:href="#DejaVuSans-6c" transform="translate(68.408203 0.015625)"/>
     <use xlink:href="#DejaVuSans-43" transform="translate(96.191406 0.015625)"/>
     <use xlink:href="#DejaVuSans-75" transform="translate(166.015625 0.015625)"/>
    </g>
   </g>
   <g id="text_6">
    <!-- $\mathrm{Al_{2}Cu}$ -->
    <g transform="translate(87.479219 210.544971) scale(0.1 -0.1)">
     <use xlink:href="#DejaVuSans-41" transform="translate(0 0.015625)"/>
     <use xlink:href="#DejaVuSans-6c" transform="translate(68.408203 0.015625)"/>
     <use xlink:href="#DejaVuSans-32" transform="translate(97.148438 -16.390625) scale(0.7)"/>
     <use xlink:href="#DejaVuSans-43" transform="translate(144.418945 0.015625)"/>
     <use xlink:href="#DejaVuSans-75" transform="translate(214.243164 0.015625)"/>
    </g>
   </g>
   <g id="text_7">
    <!-- $\mathrm{Al_{3}Pd_{2}}$ -->
    <g transform="translate(42.100465 147.892059) scale(0.1 -0.1)">
     <use xlink:href="#DejaVuSans-41" transform="translate(0 0.015625)"/>
     <use xlink:href="#DejaVuSans-6c" transform="translate(68.408203 0.015625)"/>
     <use xlink:href="#DejaVuSans-33" transform="translate(97.148438 -16.390625) scale(0.7)"/>
     <use xlink:href="#DejaVuSans-50" transform="translate(144.418945 0.015625)"/>
     <use xlink:href="#DejaVuSans-64" transform="translate(204.72168 0.015625)"/>
     <use xlink:href="#DejaVuSans-32" transform="translate(269.155273 -16.390625) scale(0.7)"/>
    </g>
   </g>
   <g id="text_8">
    <!-- $\mathrm{AlPd_{5}}$ -->
    <g transform="translate(98.389656 65.981057) scale(0.1 -0.1)">
     <defs>
      <path id="DejaVuSans-35" d="M 691 4666 
L 3169 4666 
L 3169 4134 
L 1269 4134 
L 1269 2991 
Q 1406 3038 1543 3061 
Q 1681 3084 1819 3084 
Q 2600 3084 3056 2656 
Q 3513 2228 3513 1497 
Q 3513 744 3044 326 
Q 2575 -91 1722 -91 
Q 1428 -91 1123 -41 
Q 819 9 494 109 
L 494 744 
Q 775 591 1075 516 
Q 1375 441 1709 441 
Q 2250 441 2565 725 
Q 2881 1009 2881 1497 
Q 2881 1984 2565 2268 
Q 2250 2553 1709 2553 
Q 1456 2553 1204 2497 
Q 953 2441 691 2322 
L 691 4666 
z
" transform="scale(0.015625)"/>
     </defs>
     <use xlink:href="#DejaVuSans-41" transform="translate(0 0.015625)"/>
     <use xlink:href="#DejaVuSans-6c" transform="translate(68.408203 0.015625)"/>
     <use xlink:href="#DejaVuSans-50" transform="translate(96.191406 0.015625)"/>
     <use xlink:href="#DejaVuSans-64" transform="translate(156.494141 0.015625)"/>
     <use xlink:href="#DejaVuSans-35" transform="translate(220.927734 -16.390625) scale(0.7)"/>
    </g>
   </g>
   <g id="text_9">
    <!-- $\mathrm{AlCu_{3}}$ -->
    <g transform="translate(198.116034 210.594971) scale(0.1 -0.1)">
     <use xlink:href="#DejaVuSans-41" transform="translate(0 0.015625)"/>
     <use xlink:href="#DejaVuSans-6c" transform="translate(68.408203 0.015625)"/>
     <use xlink:href="#DejaVuSans-43" transform="translate(96.191406 0.015625)"/>
     <use xlink:href="#DejaVuSans-75" transform="translate(166.015625 0.015625)"/>
     <use xlink:href="#DejaVuSans-33" transform="translate(230.351562 -16.390625) scale(0.7)"/>
    </g>
   </g>
   <g id="text_10">
    <!-- $\mathrm{Cu}$ -->
    <g transform="translate(245.859482 211.527642) scale(0.1 -0.1)">
     <use xlink:href="#DejaVuSans-43" transform="translate(0 0.78125)"/>
     <use xlink:href="#DejaVuSans-75" transform="translate(69.824219 0.78125)"/>
    </g>
   </g>
   <g id="text_11">
    <!-- $\mathrm{AlPd_{2}}$ -->
    <g transform="translate(78.418289 97.435289) scale(0.1 -0.1)">
     <use xlink:href="#DejaVuSans-41" transform="translate(0 0.015625)"/>
     <use xlink:href="#DejaVuSans-6c" transform="translate(68.408203 0.015625)"/>
     <use xlink:href="#DejaVuSans-50" transform="translate(96.191406 0.015625)"/>
     <use xlink:href="#DejaVuSans-64" transform="translate(156.494141 0.015625)"/>
     <use xlink:href="#DejaVuSans-32" transform="translate(220.927734 -16.390625) scale(0.7)"/>
    </g>
   </g>
   <g id="text_12">
    <!-- $\mathrm{AlPd}$ -->
    <g transform="translate(79.224195 117.014949) scale(0.1 -0.1)">
     <use xlink:href="#DejaVuSans-41" transform="translate(0 0.015625)"/>
     <use xlink:href="#DejaVuSans-6c" transform="translate(68.408203 0.015625)"/>
     <use xlink:href="#DejaVuSans-50" transform="translate(96.191406 0.015625)"/>
     <use xlink:href="#DejaVuSans-64" transform="translate(156.494141 0.015625)"/>
    </g>
   </g>
   <g id="text_13">
    <!-- $\mathrm{CuPd_{3}}$ -->
    <g transform="translate(145.158984 81.733173) scale(0.1 -0.1)">
     <use xlink:href="#DejaVuSans-43" transform="translate(0 0.015625)"/>
     <use xlink:href="#DejaVuSans-75" transform="translate(69.824219 0.015625)"/>
     <use xlink:href="#DejaVuSans-50" transform="translate(133.203125 0.015625)"/>
     <use xlink:href="#DejaVuSans-64" transform="translate(193.505859 0.015625)"/>
     <use xlink:href="#DejaVuSans-33" transform="translate(257.939453 -16.390625) scale(0.7)"/>
    </g>
   </g>
   <g id="text_14">
    <!-- $\mathrm{Al_{4}Cu_{9}}$ -->
    <g transform="translate(160.944249 210.594971) scale(0.1 -0.1)">
     <defs>
      <path id="DejaVuSans-34" d="M 2419 4116 
L 825 1625 
L 2419 1625 
L 2419 4116 
z
M 2253 4666 
L 3047 4666 
L 3047 1625 
L 3713 1625 
L 3713 1100 
L 3047 1100 
L 3047 0 
L 2419 0 
L 2419 1100 
L 313 1100 
L 313 1709 
L 2253 4666 
z
" transform="scale(0.015625)"/>
      <path id="DejaVuSans-39" d="M 703 97 
L 703 672 
Q 941 559 1184 500 
Q 1428 441 1663 441 
Q 2288 441 2617 861 
Q 2947 1281 2994 2138 
Q 2813 1869 2534 1725 
Q 2256 1581 1919 1581 
Q 1219 1581 811 2004 
Q 403 2428 403 3163 
Q 403 3881 828 4315 
Q 1253 4750 1959 4750 
Q 2769 4750 3195 4129 
Q 3622 3509 3622 2328 
Q 3622 1225 3098 567 
Q 2575 -91 1691 -91 
Q 1453 -91 1209 -44 
Q 966 3 703 97 
z
M 1959 2075 
Q 2384 2075 2632 2365 
Q 2881 2656 2881 3163 
Q 2881 3666 2632 3958 
Q 2384 4250 1959 4250 
Q 1534 4250 1286 3958 
Q 1038 3666 1038 3163 
Q 1038 2656 1286 2365 
Q 1534 2075 1959 2075 
z
" transform="scale(0.015625)"/>
     </defs>
     <use xlink:href="#DejaVuSans-41" transform="translate(0 0.015625)"/>
     <use xlink:href="#DejaVuSans-6c" transform="translate(68.408203 0.015625)"/>
     <use xlink:href="#DejaVuSans-34" transform="translate(97.148438 -16.390625) scale(0.7)"/>
     <use xlink:href="#DejaVuSans-43" transform="translate(144.418945 0.015625)"/>
     <use xlink:href="#DejaVuSans-75" transform="translate(214.243164 0.015625)"/>
     <use xlink:href="#DejaVuSans-39" transform="translate(278.579102 -16.390625) scale(0.7)"/>
    </g>
   </g>
   <g id="text_15">
    <!-- $\mathrm{Pd}$ -->
    <g transform="translate(131.501933 33.414175) scale(0.1 -0.1)">
     <use xlink:href="#DejaVuSans-50" transform="translate(0 0.015625)"/>
     <use xlink:href="#DejaVuSans-64" transform="translate(60.302734 0.015625)"/>
    </g>
   </g>
   <g id="text_16">
    <!-- $\mathrm{Al_{8}Cu_{4}Pd}$ -->
    <g style="fill: #0000ff" transform="translate(94.000765 195.867495) scale(0.1 -0.1)">
     <use xlink:href="#DejaVuSans-41" transform="translate(0 0.015625)"/>
     <use xlink:href="#DejaVuSans-6c" transform="translate(68.408203 0.015625)"/>
     <use xlink:href="#DejaVuSans-38" transform="translate(97.148438 -16.390625) scale(0.7)"/>
     <use xlink:href="#DejaVuSans-43" transform="translate(144.418945 0.015625)"/>
     <use xlink:href="#DejaVuSans-75" transform="translate(214.243164 0.015625)"/>
     <use xlink:href="#DejaVuSans-34" transform="translate(278.579102 -16.390625) scale(0.7)"/>
     <use xlink:href="#DejaVuSans-50" transform="translate(325.849609 0.015625)"/>
     <use xlink:href="#DejaVuSans-64" transform="translate(386.152344 0.015625)"/>
    </g>
   </g>
  </g>
  <g id="axes_2">
   <g id="patch_3">
    <path d="M 287.298425 195.703937 
L 296.029134 195.703937 
L 296.029134 36.96378 
L 287.298425 36.96378 
L 287.298425 195.703937 
z
" style="fill: none"/>
   </g>
   <g id="patch_4">
    <path d="M 287.298425 195.703937 
L 291.66378 203.640945 
L 296.029134 195.703937 
" style="fill: #440154; opacity: 0.7"/>
   </g>
   <g id="patch_5">
    <path d="M 287.298425 36.96378 
L 291.66378 29.026772 
L 296.029134 36.96378 
" style="fill: #fde725; opacity: 0.7"/>
   </g>
   <g id="QuadMesh_1">
    <path d="M 287.298425 195.703937 
L 296.029134 195.703937 
L 296.029134 192.096206 
L 287.298425 192.096206 
L 287.298425 195.703937 
" clip-path="url(#p228d099309)" style="fill: #450457; fill-opacity: 0.7"/>
    <path d="M 287.298425 192.096206 
L 296.029134 192.096206 
L 296.029134 188.488475 
L 287.298425 188.488475 
L 287.298425 192.096206 
" clip-path="url(#p228d099309)" style="fill: #470d60; fill-opacity: 0.7"/>
    <path d="M 287.298425 188.488475 
L 296.029134 188.488475 
L 296.029134 184.880744 
L 287.298425 184.880744 
L 287.298425 188.488475 
" clip-path="url(#p228d099309)" style="fill: #481668; fill-opacity: 0.7"/>
    <path d="M 287.298425 184.880744 
L 296.029134 184.880744 
L 296.029134 181.273014 
L 287.298425 181.273014 
L 287.298425 184.880744 
" clip-path="url(#p228d099309)" style="fill: #481d6f; fill-opacity: 0.7"/>
    <path d="M 287.298425 181.273014 
L 296.029134 181.273014 
L 296.029134 177.665283 
L 287.298425 177.665283 
L 287.298425 181.273014 
" clip-path="url(#p228d099309)" style="fill: #482576; fill-opacity: 0.7"/>
    <path d="M 287.298425 177.665283 
L 296.029134 177.665283 
L 296.029134 174.057552 
L 287.298425 174.057552 
L 287.298425 177.665283 
" clip-path="url(#p228d099309)" style="fill: #472c7a; fill-opacity: 0.7"/>
    <path d="M 287.298425 174.057552 
L 296.029134 174.057552 
L 296.029134 170.449821 
L 287.298425 170.449821 
L 287.298425 174.057552 
" clip-path="url(#p228d099309)" style="fill: #46337f; fill-opacity: 0.7"/>
    <path d="M 287.298425 170.449821 
L 296.029134 170.449821 
L 296.029134 166.84209 
L 287.298425 166.84209 
L 287.298425 170.449821 
" clip-path="url(#p228d099309)" style="fill: #443a83; fill-opacity: 0.7"/>
    <path d="M 287.298425 166.84209 
L 296.029134 166.84209 
L 296.029134 163.234359 
L 287.298425 163.234359 
L 287.298425 166.84209 
" clip-path="url(#p228d099309)" style="fill: #424186; fill-opacity: 0.7"/>
    <path d="M 287.298425 163.234359 
L 296.029134 163.234359 
L 296.029134 159.626628 
L 287.298425 159.626628 
L 287.298425 163.234359 
" clip-path="url(#p228d099309)" style="fill: #3f4889; fill-opacity: 0.7"/>
    <path d="M 287.298425 159.626628 
L 296.029134 159.626628 
L 296.029134 156.018898 
L 287.298425 156.018898 
L 287.298425 159.626628 
" clip-path="url(#p228d099309)" style="fill: #3c4f8a; fill-opacity: 0.7"/>
    <path d="M 287.298425 156.018898 
L 296.029134 156.018898 
L 296.029134 152.411167 
L 287.298425 152.411167 
L 287.298425 156.018898 
" clip-path="url(#p228d099309)" style="fill: #3a548c; fill-opacity: 0.7"/>
    <path d="M 287.298425 152.411167 
L 296.029134 152.411167 
L 296.029134 148.803436 
L 287.298425 148.803436 
L 287.298425 152.411167 
" clip-path="url(#p228d099309)" style="fill: #375b8d; fill-opacity: 0.7"/>
    <path d="M 287.298425 148.803436 
L 296.029134 148.803436 
L 296.029134 145.195705 
L 287.298425 145.195705 
L 287.298425 148.803436 
" clip-path="url(#p228d099309)" style="fill: #34618d; fill-opacity: 0.7"/>
    <path d="M 287.298425 145.195705 
L 296.029134 145.195705 
L 296.029134 141.587974 
L 287.298425 141.587974 
L 287.298425 145.195705 
" clip-path="url(#p228d099309)" style="fill: #31678e; fill-opacity: 0.7"/>
    <path d="M 287.298425 141.587974 
L 296.029134 141.587974 
L 296.029134 137.980243 
L 287.298425 137.980243 
L 287.298425 141.587974 
" clip-path="url(#p228d099309)" style="fill: #2e6d8e; fill-opacity: 0.7"/>
    <path d="M 287.298425 137.980243 
L 296.029134 137.980243 
L 296.029134 134.372513 
L 287.298425 134.372513 
L 287.298425 137.980243 
" clip-path="url(#p228d099309)" style="fill: #2c718e; fill-opacity: 0.7"/>
    <path d="M 287.298425 134.372513 
L 296.029134 134.372513 
L 296.029134 130.764782 
L 287.298425 130.764782 
L 287.298425 134.372513 
" clip-path="url(#p228d099309)" style="fill: #2a778e; fill-opacity: 0.7"/>
    <path d="M 287.298425 130.764782 
L 296.029134 130.764782 
L 296.029134 127.157051 
L 287.298425 127.157051 
L 287.298425 130.764782 
" clip-path="url(#p228d099309)" style="fill: #287d8e; fill-opacity: 0.7"/>
    <path d="M 287.298425 127.157051 
L 296.029134 127.157051 
L 296.029134 123.54932 
L 287.298425 123.54932 
L 287.298425 127.157051 
" clip-path="url(#p228d099309)" style="fill: #26828e; fill-opacity: 0.7"/>
    <path d="M 287.298425 123.54932 
L 296.029134 123.54932 
L 296.029134 119.941589 
L 287.298425 119.941589 
L 287.298425 123.54932 
" clip-path="url(#p228d099309)" style="fill: #23888e; fill-opacity: 0.7"/>
    <path d="M 287.298425 119.941589 
L 296.029134 119.941589 
L 296.029134 116.333858 
L 287.298425 116.333858 
L 287.298425 119.941589 
" clip-path="url(#p228d099309)" style="fill: #218e8d; fill-opacity: 0.7"/>
    <path d="M 287.298425 116.333858 
L 296.029134 116.333858 
L 296.029134 112.726127 
L 287.298425 112.726127 
L 287.298425 116.333858 
" clip-path="url(#p228d099309)" style="fill: #20928c; fill-opacity: 0.7"/>
    <path d="M 287.298425 112.726127 
L 296.029134 112.726127 
L 296.029134 109.118397 
L 287.298425 109.118397 
L 287.298425 112.726127 
" clip-path="url(#p228d099309)" style="fill: #1f988b; fill-opacity: 0.7"/>
    <path d="M 287.298425 109.118397 
L 296.029134 109.118397 
L 296.029134 105.510666 
L 287.298425 105.510666 
L 287.298425 109.118397 
" clip-path="url(#p228d099309)" style="fill: #1f9e89; fill-opacity: 0.7"/>
    <path d="M 287.298425 105.510666 
L 296.029134 105.510666 
L 296.029134 101.902935 
L 287.298425 101.902935 
L 287.298425 105.510666 
" clip-path="url(#p228d099309)" style="fill: #20a386; fill-opacity: 0.7"/>
    <path d="M 287.298425 101.902935 
L 296.029134 101.902935 
L 296.029134 98.295204 
L 287.298425 98.295204 
L 287.298425 101.902935 
" clip-path="url(#p228d099309)" style="fill: #23a983; fill-opacity: 0.7"/>
    <path d="M 287.298425 98.295204 
L 296.029134 98.295204 
L 296.029134 94.687473 
L 287.298425 94.687473 
L 287.298425 98.295204 
" clip-path="url(#p228d099309)" style="fill: #28ae80; fill-opacity: 0.7"/>
    <path d="M 287.298425 94.687473 
L 296.029134 94.687473 
L 296.029134 91.079742 
L 287.298425 91.079742 
L 287.298425 94.687473 
" clip-path="url(#p228d099309)" style="fill: #2eb37c; fill-opacity: 0.7"/>
    <path d="M 287.298425 91.079742 
L 296.029134 91.079742 
L 296.029134 87.472011 
L 287.298425 87.472011 
L 287.298425 91.079742 
" clip-path="url(#p228d099309)" style="fill: #37b878; fill-opacity: 0.7"/>
    <path d="M 287.298425 87.472011 
L 296.029134 87.472011 
L 296.029134 83.864281 
L 287.298425 83.864281 
L 287.298425 87.472011 
" clip-path="url(#p228d099309)" style="fill: #40bd72; fill-opacity: 0.7"/>
    <path d="M 287.298425 83.864281 
L 296.029134 83.864281 
L 296.029134 80.25655 
L 287.298425 80.25655 
L 287.298425 83.864281 
" clip-path="url(#p228d099309)" style="fill: #4cc26c; fill-opacity: 0.7"/>
    <path d="M 287.298425 80.25655 
L 296.029134 80.25655 
L 296.029134 76.648819 
L 287.298425 76.648819 
L 287.298425 80.25655 
" clip-path="url(#p228d099309)" style="fill: #58c765; fill-opacity: 0.7"/>
    <path d="M 287.298425 76.648819 
L 296.029134 76.648819 
L 296.029134 73.041088 
L 287.298425 73.041088 
L 287.298425 76.648819 
" clip-path="url(#p228d099309)" style="fill: #63cb5f; fill-opacity: 0.7"/>
    <path d="M 287.298425 73.041088 
L 296.029134 73.041088 
L 296.029134 69.433357 
L 287.298425 69.433357 
L 287.298425 73.041088 
" clip-path="url(#p228d099309)" style="fill: #70cf57; fill-opacity: 0.7"/>
    <path d="M 287.298425 69.433357 
L 296.029134 69.433357 
L 296.029134 65.825626 
L 287.298425 65.825626 
L 287.298425 69.433357 
" clip-path="url(#p228d099309)" style="fill: #7fd34e; fill-opacity: 0.7"/>
    <path d="M 287.298425 65.825626 
L 296.029134 65.825626 
L 296.029134 62.217895 
L 287.298425 62.217895 
L 287.298425 65.825626 
" clip-path="url(#p228d099309)" style="fill: #8ed645; fill-opacity: 0.7"/>
    <path d="M 287.298425 62.217895 
L 296.029134 62.217895 
L 296.029134 58.610165 
L 287.298425 58.610165 
L 287.298425 62.217895 
" clip-path="url(#p228d099309)" style="fill: #9dd93b; fill-opacity: 0.7"/>
    <path d="M 287.298425 58.610165 
L 296.029134 58.610165 
L 296.029134 55.002434 
L 287.298425 55.002434 
L 287.298425 58.610165 
" clip-path="url(#p228d099309)" style="fill: #addc30; fill-opacity: 0.7"/>
    <path d="M 287.298425 55.002434 
L 296.029134 55.002434 
L 296.029134 51.394703 
L 287.298425 51.394703 
L 287.298425 55.002434 
" clip-path="url(#p228d099309)" style="fill: #bade28; fill-opacity: 0.7"/>
    <path d="M 287.298425 51.394703 
L 296.029134 51.394703 
L 296.029134 47.786972 
L 287.298425 47.786972 
L 287.298425 51.394703 
" clip-path="url(#p228d099309)" style="fill: #cae11f; fill-opacity: 0.7"/>
    <path d="M 287.298425 47.786972 
L 296.029134 47.786972 
L 296.029134 44.179241 
L 287.298425 44.179241 
L 287.298425 47.786972 
" clip-path="url(#p228d099309)" style="fill: #dae319; fill-opacity: 0.7"/>
    <path d="M 287.298425 44.179241 
L 296.029134 44.179241 
L 296.029134 40.57151 
L 287.298425 40.57151 
L 287.298425 44.179241 
" clip-path="url(#p228d099309)" style="fill: #eae51a; fill-opacity: 0.7"/>
    <path d="M 287.298425 40.57151 
L 296.029134 40.57151 
L 296.029134 36.96378 
L 287.298425 36.96378 
L 287.298425 40.57151 
" clip-path="url(#p228d099309)" style="fill: #f8e621; fill-opacity: 0.7"/>
   </g>
   <g id="matplotlib.axis_3"/>
   <g id="matplotlib.axis_4">
    <g id="ytick_1">
     <g id="line2d_28">
      <defs>
       <path id="ma9abe78f45" d="M 0 0 
L -2 0 
" style="stroke: #000000; stroke-width: 0.3"/>
      </defs>
      <g>
       <use xlink:href="#ma9abe78f45" x="296.029134" y="181.273014" style="stroke: #000000; stroke-width: 0.3"/>
      </g>
     </g>
     <g id="text_17">
      <!-- 0.82 -->
      <g transform="translate(299.529134 184.136139) scale(0.08 -0.08)">
       <defs>
        <path id="ArialMT-2212" d="M 3381 1997 
L 356 1997 
L 356 2522 
L 3381 2522 
L 3381 1997 
z
" transform="scale(0.015625)"/>
        <path id="ArialMT-30" d="M 266 2259 
Q 266 3072 433 3567 
Q 600 4063 929 4331 
Q 1259 4600 1759 4600 
Q 2128 4600 2406 4451 
Q 2684 4303 2865 4023 
Q 3047 3744 3150 3342 
Q 3253 2941 3253 2259 
Q 3253 1453 3087 958 
Q 2922 463 2592 192 
Q 2263 -78 1759 -78 
Q 1097 -78 719 397 
Q 266 969 266 2259 
z
M 844 2259 
Q 844 1131 1108 757 
Q 1372 384 1759 384 
Q 2147 384 2411 759 
Q 2675 1134 2675 2259 
Q 2675 3391 2411 3762 
Q 2147 4134 1753 4134 
Q 1366 4134 1134 3806 
Q 844 3388 844 2259 
z
" transform="scale(0.015625)"/>
        <path id="ArialMT-2e" d="M 581 0 
L 581 641 
L 1222 641 
L 1222 0 
L 581 0 
z
" transform="scale(0.015625)"/>
        <path id="ArialMT-38" d="M 1131 2484 
Q 781 2613 612 2850 
Q 444 3088 444 3419 
Q 444 3919 803 4259 
Q 1163 4600 1759 4600 
Q 2359 4600 2725 4251 
Q 3091 3903 3091 3403 
Q 3091 3084 2923 2848 
Q 2756 2613 2416 2484 
Q 2838 2347 3058 2040 
Q 3278 1734 3278 1309 
Q 3278 722 2862 322 
Q 2447 -78 1769 -78 
Q 1091 -78 675 323 
Q 259 725 259 1325 
Q 259 1772 486 2073 
Q 713 2375 1131 2484 
z
M 1019 3438 
Q 1019 3113 1228 2906 
Q 1438 2700 1772 2700 
Q 2097 2700 2305 2904 
Q 2513 3109 2513 3406 
Q 2513 3716 2298 3927 
Q 2084 4138 1766 4138 
Q 1444 4138 1231 3931 
Q 1019 3725 1019 3438 
z
M 838 1322 
Q 838 1081 952 856 
Q 1066 631 1291 507 
Q 1516 384 1775 384 
Q 2178 384 2440 643 
Q 2703 903 2703 1303 
Q 2703 1709 2433 1975 
Q 2163 2241 1756 2241 
Q 1359 2241 1098 1978 
Q 838 1716 838 1322 
z
" transform="scale(0.015625)"/>
        <path id="ArialMT-32" d="M 3222 541 
L 3222 0 
L 194 0 
Q 188 203 259 391 
Q 375 700 629 1000 
Q 884 1300 1366 1694 
Q 2113 2306 2375 2664 
Q 2638 3022 2638 3341 
Q 2638 3675 2398 3904 
Q 2159 4134 1775 4134 
Q 1369 4134 1125 3890 
Q 881 3647 878 3216 
L 300 3275 
Q 359 3922 746 4261 
Q 1134 4600 1788 4600 
Q 2447 4600 2831 4234 
Q 3216 3869 3216 3328 
Q 3216 3053 3103 2787 
Q 2991 2522 2730 2228 
Q 2469 1934 1863 1422 
Q 1356 997 1212 845 
Q 1069 694 975 541 
L 3222 541 
z
" transform="scale(0.015625)"/>
       </defs>
       <use xlink:href="#ArialMT-2212"/>
       <use xlink:href="#ArialMT-30" transform="translate(58.398438 0)"/>
       <use xlink:href="#ArialMT-2e" transform="translate(114.013672 0)"/>
       <use xlink:href="#ArialMT-38" transform="translate(141.796875 0)"/>
       <use xlink:href="#ArialMT-32" transform="translate(197.412109 0)"/>
      </g>
     </g>
    </g>
    <g id="ytick_2">
     <g id="line2d_29">
      <g>
       <use xlink:href="#ma9abe78f45" x="296.029134" y="163.234359" style="stroke: #000000; stroke-width: 0.3"/>
      </g>
     </g>
     <g id="text_18">
      <!-- 0.72 -->
      <g transform="translate(299.529134 166.097484) scale(0.08 -0.08)">
       <defs>
        <path id="ArialMT-37" d="M 303 3981 
L 303 4522 
L 3269 4522 
L 3269 4084 
Q 2831 3619 2401 2847 
Q 1972 2075 1738 1259 
Q 1569 684 1522 0 
L 944 0 
Q 953 541 1156 1306 
Q 1359 2072 1739 2783 
Q 2119 3494 2547 3981 
L 303 3981 
z
" transform="scale(0.015625)"/>
       </defs>
       <use xlink:href="#ArialMT-2212"/>
       <use xlink:href="#ArialMT-30" transform="translate(58.398438 0)"/>
       <use xlink:href="#ArialMT-2e" transform="translate(114.013672 0)"/>
       <use xlink:href="#ArialMT-37" transform="translate(141.796875 0)"/>
       <use xlink:href="#ArialMT-32" transform="translate(197.412109 0)"/>
      </g>
     </g>
    </g>
    <g id="ytick_3">
     <g id="line2d_30">
      <g>
       <use xlink:href="#ma9abe78f45" x="296.029134" y="145.195705" style="stroke: #000000; stroke-width: 0.3"/>
      </g>
     </g>
     <g id="text_19">
      <!-- 0.62 -->
      <g transform="translate(299.529134 148.05883) scale(0.08 -0.08)">
       <defs>
        <path id="ArialMT-36" d="M 3184 3459 
L 2625 3416 
Q 2550 3747 2413 3897 
Q 2184 4138 1850 4138 
Q 1581 4138 1378 3988 
Q 1113 3794 959 3422 
Q 806 3050 800 2363 
Q 1003 2672 1297 2822 
Q 1591 2972 1913 2972 
Q 2475 2972 2870 2558 
Q 3266 2144 3266 1488 
Q 3266 1056 3080 686 
Q 2894 316 2569 119 
Q 2244 -78 1831 -78 
Q 1128 -78 684 439 
Q 241 956 241 2144 
Q 241 3472 731 4075 
Q 1159 4600 1884 4600 
Q 2425 4600 2770 4297 
Q 3116 3994 3184 3459 
z
M 888 1484 
Q 888 1194 1011 928 
Q 1134 663 1356 523 
Q 1578 384 1822 384 
Q 2178 384 2434 671 
Q 2691 959 2691 1453 
Q 2691 1928 2437 2201 
Q 2184 2475 1800 2475 
Q 1419 2475 1153 2201 
Q 888 1928 888 1484 
z
" transform="scale(0.015625)"/>
       </defs>
       <use xlink:href="#ArialMT-2212"/>
       <use xlink:href="#ArialMT-30" transform="translate(58.398438 0)"/>
       <use xlink:href="#ArialMT-2e" transform="translate(114.013672 0)"/>
       <use xlink:href="#ArialMT-36" transform="translate(141.796875 0)"/>
       <use xlink:href="#ArialMT-32" transform="translate(197.412109 0)"/>
      </g>
     </g>
    </g>
    <g id="ytick_4">
     <g id="line2d_31">
      <g>
       <use xlink:href="#ma9abe78f45" x="296.029134" y="127.157051" style="stroke: #000000; stroke-width: 0.3"/>
      </g>
     </g>
     <g id="text_20">
      <!-- 0.52 -->
      <g transform="translate(299.529134 130.020176) scale(0.08 -0.08)">
       <defs>
        <path id="ArialMT-35" d="M 266 1200 
L 856 1250 
Q 922 819 1161 601 
Q 1400 384 1738 384 
Q 2144 384 2425 690 
Q 2706 997 2706 1503 
Q 2706 1984 2436 2262 
Q 2166 2541 1728 2541 
Q 1456 2541 1237 2417 
Q 1019 2294 894 2097 
L 366 2166 
L 809 4519 
L 3088 4519 
L 3088 3981 
L 1259 3981 
L 1013 2750 
Q 1425 3038 1878 3038 
Q 2478 3038 2890 2622 
Q 3303 2206 3303 1553 
Q 3303 931 2941 478 
Q 2500 -78 1738 -78 
Q 1113 -78 717 272 
Q 322 622 266 1200 
z
" transform="scale(0.015625)"/>
       </defs>
       <use xlink:href="#ArialMT-2212"/>
       <use xlink:href="#ArialMT-30" transform="translate(58.398438 0)"/>
       <use xlink:href="#ArialMT-2e" transform="translate(114.013672 0)"/>
       <use xlink:href="#ArialMT-35" transform="translate(141.796875 0)"/>
       <use xlink:href="#ArialMT-32" transform="translate(197.412109 0)"/>
      </g>
     </g>
    </g>
    <g id="ytick_5">
     <g id="line2d_32">
      <g>
       <use xlink:href="#ma9abe78f45" x="296.029134" y="109.118397" style="stroke: #000000; stroke-width: 0.3"/>
      </g>
     </g>
     <g id="text_21">
      <!-- 0.42 -->
      <g transform="translate(299.529134 111.981522) scale(0.08 -0.08)">
       <defs>
        <path id="ArialMT-34" d="M 2069 0 
L 2069 1097 
L 81 1097 
L 81 1613 
L 2172 4581 
L 2631 4581 
L 2631 1613 
L 3250 1613 
L 3250 1097 
L 2631 1097 
L 2631 0 
L 2069 0 
z
M 2069 1613 
L 2069 3678 
L 634 1613 
L 2069 1613 
z
" transform="scale(0.015625)"/>
       </defs>
       <use xlink:href="#ArialMT-2212"/>
       <use xlink:href="#ArialMT-30" transform="translate(58.398438 0)"/>
       <use xlink:href="#ArialMT-2e" transform="translate(114.013672 0)"/>
       <use xlink:href="#ArialMT-34" transform="translate(141.796875 0)"/>
       <use xlink:href="#ArialMT-32" transform="translate(197.412109 0)"/>
      </g>
     </g>
    </g>
    <g id="ytick_6">
     <g id="line2d_33">
      <g>
       <use xlink:href="#ma9abe78f45" x="296.029134" y="91.079742" style="stroke: #000000; stroke-width: 0.3"/>
      </g>
     </g>
     <g id="text_22">
      <!-- 0.32 -->
      <g transform="translate(299.529134 93.942867) scale(0.08 -0.08)">
       <defs>
        <path id="ArialMT-33" d="M 269 1209 
L 831 1284 
Q 928 806 1161 595 
Q 1394 384 1728 384 
Q 2125 384 2398 659 
Q 2672 934 2672 1341 
Q 2672 1728 2419 1979 
Q 2166 2231 1775 2231 
Q 1616 2231 1378 2169 
L 1441 2663 
Q 1497 2656 1531 2656 
Q 1891 2656 2178 2843 
Q 2466 3031 2466 3422 
Q 2466 3731 2256 3934 
Q 2047 4138 1716 4138 
Q 1388 4138 1169 3931 
Q 950 3725 888 3313 
L 325 3413 
Q 428 3978 793 4289 
Q 1159 4600 1703 4600 
Q 2078 4600 2393 4439 
Q 2709 4278 2876 4000 
Q 3044 3722 3044 3409 
Q 3044 3113 2884 2869 
Q 2725 2625 2413 2481 
Q 2819 2388 3044 2092 
Q 3269 1797 3269 1353 
Q 3269 753 2831 336 
Q 2394 -81 1725 -81 
Q 1122 -81 723 278 
Q 325 638 269 1209 
z
" transform="scale(0.015625)"/>
       </defs>
       <use xlink:href="#ArialMT-2212"/>
       <use xlink:href="#ArialMT-30" transform="translate(58.398438 0)"/>
       <use xlink:href="#ArialMT-2e" transform="translate(114.013672 0)"/>
       <use xlink:href="#ArialMT-33" transform="translate(141.796875 0)"/>
       <use xlink:href="#ArialMT-32" transform="translate(197.412109 0)"/>
      </g>
     </g>
    </g>
    <g id="ytick_7">
     <g id="line2d_34">
      <g>
       <use xlink:href="#ma9abe78f45" x="296.029134" y="73.041088" style="stroke: #000000; stroke-width: 0.3"/>
      </g>
     </g>
     <g id="text_23">
      <!-- 0.22 -->
      <g transform="translate(299.529134 75.904213) scale(0.08 -0.08)">
       <use xlink:href="#ArialMT-2212"/>
       <use xlink:href="#ArialMT-30" transform="translate(58.398438 0)"/>
       <use xlink:href="#ArialMT-2e" transform="translate(114.013672 0)"/>
       <use xlink:href="#ArialMT-32" transform="translate(141.796875 0)"/>
       <use xlink:href="#ArialMT-32" transform="translate(197.412109 0)"/>
      </g>
     </g>
    </g>
    <g id="ytick_8">
     <g id="line2d_35">
      <g>
       <use xlink:href="#ma9abe78f45" x="296.029134" y="55.002434" style="stroke: #000000; stroke-width: 0.3"/>
      </g>
     </g>
     <g id="text_24">
      <!-- 0.12 -->
      <g transform="translate(299.529134 57.865559) scale(0.08 -0.08)">
       <defs>
        <path id="ArialMT-31" d="M 2384 0 
L 1822 0 
L 1822 3584 
Q 1619 3391 1289 3197 
Q 959 3003 697 2906 
L 697 3450 
Q 1169 3672 1522 3987 
Q 1875 4303 2022 4600 
L 2384 4600 
L 2384 0 
z
" transform="scale(0.015625)"/>
       </defs>
       <use xlink:href="#ArialMT-2212"/>
       <use xlink:href="#ArialMT-30" transform="translate(58.398438 0)"/>
       <use xlink:href="#ArialMT-2e" transform="translate(114.013672 0)"/>
       <use xlink:href="#ArialMT-31" transform="translate(141.796875 0)"/>
       <use xlink:href="#ArialMT-32" transform="translate(197.412109 0)"/>
      </g>
     </g>
    </g>
    <g id="ytick_9">
     <g id="line2d_36">
      <g>
       <use xlink:href="#ma9abe78f45" x="296.029134" y="36.96378" style="stroke: #000000; stroke-width: 0.3"/>
      </g>
     </g>
     <g id="text_25">
      <!-- 0.02 -->
      <g transform="translate(299.529134 39.826905) scale(0.08 -0.08)">
       <use xlink:href="#ArialMT-2212"/>
       <use xlink:href="#ArialMT-30" transform="translate(58.398438 0)"/>
       <use xlink:href="#ArialMT-2e" transform="translate(114.013672 0)"/>
       <use xlink:href="#ArialMT-30" transform="translate(141.796875 0)"/>
       <use xlink:href="#ArialMT-32" transform="translate(197.412109 0)"/>
      </g>
     </g>
    </g>
    <g id="text_26">
     <!-- Formation Energy (eV/atom) -->
     <g transform="translate(331.050071 179.408077) rotate(-90) scale(0.1 -0.1)">
      <defs>
       <path id="ArialMT-46" d="M 525 0 
L 525 4581 
L 3616 4581 
L 3616 4041 
L 1131 4041 
L 1131 2622 
L 3281 2622 
L 3281 2081 
L 1131 2081 
L 1131 0 
L 525 0 
z
" transform="scale(0.015625)"/>
       <path id="ArialMT-6f" d="M 213 1659 
Q 213 2581 725 3025 
Q 1153 3394 1769 3394 
Q 2453 3394 2887 2945 
Q 3322 2497 3322 1706 
Q 3322 1066 3130 698 
Q 2938 331 2570 128 
Q 2203 -75 1769 -75 
Q 1072 -75 642 372 
Q 213 819 213 1659 
z
M 791 1659 
Q 791 1022 1069 705 
Q 1347 388 1769 388 
Q 2188 388 2466 706 
Q 2744 1025 2744 1678 
Q 2744 2294 2464 2611 
Q 2184 2928 1769 2928 
Q 1347 2928 1069 2612 
Q 791 2297 791 1659 
z
" transform="scale(0.015625)"/>
       <path id="ArialMT-72" d="M 416 0 
L 416 3319 
L 922 3319 
L 922 2816 
Q 1116 3169 1280 3281 
Q 1444 3394 1641 3394 
Q 1925 3394 2219 3213 
L 2025 2691 
Q 1819 2813 1613 2813 
Q 1428 2813 1281 2702 
Q 1134 2591 1072 2394 
Q 978 2094 978 1738 
L 978 0 
L 416 0 
z
" transform="scale(0.015625)"/>
       <path id="ArialMT-6d" d="M 422 0 
L 422 3319 
L 925 3319 
L 925 2853 
Q 1081 3097 1340 3245 
Q 1600 3394 1931 3394 
Q 2300 3394 2536 3241 
Q 2772 3088 2869 2813 
Q 3263 3394 3894 3394 
Q 4388 3394 4653 3120 
Q 4919 2847 4919 2278 
L 4919 0 
L 4359 0 
L 4359 2091 
Q 4359 2428 4304 2576 
Q 4250 2725 4106 2815 
Q 3963 2906 3769 2906 
Q 3419 2906 3187 2673 
Q 2956 2441 2956 1928 
L 2956 0 
L 2394 0 
L 2394 2156 
Q 2394 2531 2256 2718 
Q 2119 2906 1806 2906 
Q 1569 2906 1367 2781 
Q 1166 2656 1075 2415 
Q 984 2175 984 1722 
L 984 0 
L 422 0 
z
" transform="scale(0.015625)"/>
       <path id="ArialMT-61" d="M 2588 409 
Q 2275 144 1986 34 
Q 1697 -75 1366 -75 
Q 819 -75 525 192 
Q 231 459 231 875 
Q 231 1119 342 1320 
Q 453 1522 633 1644 
Q 813 1766 1038 1828 
Q 1203 1872 1538 1913 
Q 2219 1994 2541 2106 
Q 2544 2222 2544 2253 
Q 2544 2597 2384 2738 
Q 2169 2928 1744 2928 
Q 1347 2928 1158 2789 
Q 969 2650 878 2297 
L 328 2372 
Q 403 2725 575 2942 
Q 747 3159 1072 3276 
Q 1397 3394 1825 3394 
Q 2250 3394 2515 3294 
Q 2781 3194 2906 3042 
Q 3031 2891 3081 2659 
Q 3109 2516 3109 2141 
L 3109 1391 
Q 3109 606 3145 398 
Q 3181 191 3288 0 
L 2700 0 
Q 2613 175 2588 409 
z
M 2541 1666 
Q 2234 1541 1622 1453 
Q 1275 1403 1131 1340 
Q 988 1278 909 1158 
Q 831 1038 831 891 
Q 831 666 1001 516 
Q 1172 366 1500 366 
Q 1825 366 2078 508 
Q 2331 650 2450 897 
Q 2541 1088 2541 1459 
L 2541 1666 
z
" transform="scale(0.015625)"/>
       <path id="ArialMT-74" d="M 1650 503 
L 1731 6 
Q 1494 -44 1306 -44 
Q 1000 -44 831 53 
Q 663 150 594 308 
Q 525 466 525 972 
L 525 2881 
L 113 2881 
L 113 3319 
L 525 3319 
L 525 4141 
L 1084 4478 
L 1084 3319 
L 1650 3319 
L 1650 2881 
L 1084 2881 
L 1084 941 
Q 1084 700 1114 631 
Q 1144 563 1211 522 
Q 1278 481 1403 481 
Q 1497 481 1650 503 
z
" transform="scale(0.015625)"/>
       <path id="ArialMT-69" d="M 425 3934 
L 425 4581 
L 988 4581 
L 988 3934 
L 425 3934 
z
M 425 0 
L 425 3319 
L 988 3319 
L 988 0 
L 425 0 
z
" transform="scale(0.015625)"/>
       <path id="ArialMT-6e" d="M 422 0 
L 422 3319 
L 928 3319 
L 928 2847 
Q 1294 3394 1984 3394 
Q 2284 3394 2536 3286 
Q 2788 3178 2913 3003 
Q 3038 2828 3088 2588 
Q 3119 2431 3119 2041 
L 3119 0 
L 2556 0 
L 2556 2019 
Q 2556 2363 2490 2533 
Q 2425 2703 2258 2804 
Q 2091 2906 1866 2906 
Q 1506 2906 1245 2678 
Q 984 2450 984 1813 
L 984 0 
L 422 0 
z
" transform="scale(0.015625)"/>
       <path id="ArialMT-20" transform="scale(0.015625)"/>
       <path id="ArialMT-45" d="M 506 0 
L 506 4581 
L 3819 4581 
L 3819 4041 
L 1113 4041 
L 1113 2638 
L 3647 2638 
L 3647 2100 
L 1113 2100 
L 1113 541 
L 3925 541 
L 3925 0 
L 506 0 
z
" transform="scale(0.015625)"/>
       <path id="ArialMT-65" d="M 2694 1069 
L 3275 997 
Q 3138 488 2766 206 
Q 2394 -75 1816 -75 
Q 1088 -75 661 373 
Q 234 822 234 1631 
Q 234 2469 665 2931 
Q 1097 3394 1784 3394 
Q 2450 3394 2872 2941 
Q 3294 2488 3294 1666 
Q 3294 1616 3291 1516 
L 816 1516 
Q 847 969 1125 678 
Q 1403 388 1819 388 
Q 2128 388 2347 550 
Q 2566 713 2694 1069 
z
M 847 1978 
L 2700 1978 
Q 2663 2397 2488 2606 
Q 2219 2931 1791 2931 
Q 1403 2931 1139 2672 
Q 875 2413 847 1978 
z
" transform="scale(0.015625)"/>
       <path id="ArialMT-67" d="M 319 -275 
L 866 -356 
Q 900 -609 1056 -725 
Q 1266 -881 1628 -881 
Q 2019 -881 2231 -725 
Q 2444 -569 2519 -288 
Q 2563 -116 2559 434 
Q 2191 0 1641 0 
Q 956 0 581 494 
Q 206 988 206 1678 
Q 206 2153 378 2554 
Q 550 2956 876 3175 
Q 1203 3394 1644 3394 
Q 2231 3394 2613 2919 
L 2613 3319 
L 3131 3319 
L 3131 450 
Q 3131 -325 2973 -648 
Q 2816 -972 2473 -1159 
Q 2131 -1347 1631 -1347 
Q 1038 -1347 672 -1080 
Q 306 -813 319 -275 
z
M 784 1719 
Q 784 1066 1043 766 
Q 1303 466 1694 466 
Q 2081 466 2343 764 
Q 2606 1063 2606 1700 
Q 2606 2309 2336 2618 
Q 2066 2928 1684 2928 
Q 1309 2928 1046 2623 
Q 784 2319 784 1719 
z
" transform="scale(0.015625)"/>
       <path id="ArialMT-79" d="M 397 -1278 
L 334 -750 
Q 519 -800 656 -800 
Q 844 -800 956 -737 
Q 1069 -675 1141 -563 
Q 1194 -478 1313 -144 
Q 1328 -97 1363 -6 
L 103 3319 
L 709 3319 
L 1400 1397 
Q 1534 1031 1641 628 
Q 1738 1016 1872 1384 
L 2581 3319 
L 3144 3319 
L 1881 -56 
Q 1678 -603 1566 -809 
Q 1416 -1088 1222 -1217 
Q 1028 -1347 759 -1347 
Q 597 -1347 397 -1278 
z
" transform="scale(0.015625)"/>
       <path id="ArialMT-28" d="M 1497 -1347 
Q 1031 -759 709 28 
Q 388 816 388 1659 
Q 388 2403 628 3084 
Q 909 3875 1497 4659 
L 1900 4659 
Q 1522 4009 1400 3731 
Q 1209 3300 1100 2831 
Q 966 2247 966 1656 
Q 966 153 1900 -1347 
L 1497 -1347 
z
" transform="scale(0.015625)"/>
       <path id="ArialMT-56" d="M 1803 0 
L 28 4581 
L 684 4581 
L 1875 1253 
Q 2019 853 2116 503 
Q 2222 878 2363 1253 
L 3600 4581 
L 4219 4581 
L 2425 0 
L 1803 0 
z
" transform="scale(0.015625)"/>
       <path id="ArialMT-2f" d="M 0 -78 
L 1328 4659 
L 1778 4659 
L 453 -78 
L 0 -78 
z
" transform="scale(0.015625)"/>
       <path id="ArialMT-29" d="M 791 -1347 
L 388 -1347 
Q 1322 153 1322 1656 
Q 1322 2244 1188 2822 
Q 1081 3291 891 3722 
Q 769 4003 388 4659 
L 791 4659 
Q 1378 3875 1659 3084 
Q 1900 2403 1900 1659 
Q 1900 816 1576 28 
Q 1253 -759 791 -1347 
z
" transform="scale(0.015625)"/>
      </defs>
      <use xlink:href="#ArialMT-46"/>
      <use xlink:href="#ArialMT-6f" transform="translate(61.083984 0)"/>
      <use xlink:href="#ArialMT-72" transform="translate(116.699219 0)"/>
      <use xlink:href="#ArialMT-6d" transform="translate(150 0)"/>
      <use xlink:href="#ArialMT-61" transform="translate(233.300781 0)"/>
      <use xlink:href="#ArialMT-74" transform="translate(288.916016 0)"/>
      <use xlink:href="#ArialMT-69" transform="translate(316.699219 0)"/>
      <use xlink:href="#ArialMT-6f" transform="translate(338.916016 0)"/>
      <use xlink:href="#ArialMT-6e" transform="translate(394.53125 0)"/>
      <use xlink:href="#ArialMT-20" transform="translate(450.146484 0)"/>
      <use xlink:href="#ArialMT-45" transform="translate(477.929688 0)"/>
      <use xlink:href="#ArialMT-6e" transform="translate(544.628906 0)"/>
      <use xlink:href="#ArialMT-65" transform="translate(600.244141 0)"/>
      <use xlink:href="#ArialMT-72" transform="translate(655.859375 0)"/>
      <use xlink:href="#ArialMT-67" transform="translate(689.160156 0)"/>
      <use xlink:href="#ArialMT-79" transform="translate(744.775391 0)"/>
      <use xlink:href="#ArialMT-20" transform="translate(794.775391 0)"/>
      <use xlink:href="#ArialMT-28" transform="translate(822.558594 0)"/>
      <use xlink:href="#ArialMT-65" transform="translate(855.859375 0)"/>
      <use xlink:href="#ArialMT-56" transform="translate(911.474609 0)"/>
      <use xlink:href="#ArialMT-2f" transform="translate(978.173828 0)"/>
      <use xlink:href="#ArialMT-61" transform="translate(1005.957031 0)"/>
      <use xlink:href="#ArialMT-74" transform="translate(1061.572266 0)"/>
      <use xlink:href="#ArialMT-6f" transform="translate(1089.355469 0)"/>
      <use xlink:href="#ArialMT-6d" transform="translate(1144.970703 0)"/>
      <use xlink:href="#ArialMT-29" transform="translate(1228.271484 0)"/>
     </g>
    </g>
   </g>
   <g id="LineCollection_1"/>
   <g id="patch_6">
    <path d="M 287.298425 195.703937 
L 291.66378 203.640945 
L 296.029134 195.703937 
L 296.029134 36.96378 
L 291.66378 29.026772 
L 287.298425 36.96378 
L 287.298425 195.703937 
z
" style="fill: none; stroke: #000000; stroke-width: 0.8; stroke-linejoin: miter; stroke-linecap: square"/>
   </g>
  </g>
 </g>
 <defs>
  <clipPath id="pf5156b7e77">
   <rect x="7.2" y="7.2" width="263.622047" height="218.267717"/>
  </clipPath>
  <clipPath id="p228d099309">
   <rect x="287.298425" y="36.96378" width="8.730709" height="158.740157"/>
  </clipPath>
 </defs>
</svg>
