<?xml version="1.0" encoding="utf-8" standalone="no"?>
<!DOCTYPE svg PUBLIC "-//W3C//DTD SVG 1.1//EN"
  "http://www.w3.org/Graphics/SVG/1.1/DTD/svg11.dtd">
<svg xmlns:xlink="http://www.w3.org/1999/xlink" width="344.803509pt" height="232.667717pt" viewBox="0 0 344.803509 232.667717" xmlns="http://www.w3.org/2000/svg" version="1.1">
 <metadata>
  <rdf:RDF xmlns:dc="http://purl.org/dc/elements/1.1/" xmlns:cc="http://creativecommons.org/ns#" xmlns:rdf="http://www.w3.org/1999/02/22-rdf-syntax-ns#">
   <cc:Work>
    <dc:type rdf:resource="http://purl.org/dc/dcmitype/StillImage"/>
    <dc:date>2026-01-27T21:37:33.469832</dc:date>
    <dc:format>image/svg+xml</dc:format>
    <dc:creator>
     <cc:Agent>
      <dc:title>Matplotlib v3.10.8, https://matplotlib.org/</dc:title>
     </cc:Agent>
    </dc:creator>
   </cc:Work>
  </rdf:RDF>
 </metadata>
 <defs>
  <style type="text/css">*{stroke-linejoin: round; stroke-linecap: butt}</style>
 </defs>
 <g id="figure_1">
  <g id="patch_1">
   <path d="M 0 232.667717 
L 344.803509 232.667717 
L 344.803509 0 
L 0 0 
L 0 232.667717 
z
" style="fill: none"/>
  </g>
  <g id="axes_1">
   <g id="patch_2">
    <path d="M 7.2 225.467717 
L 270.822047 225.467717 
L 270.822047 7.2 
L 7.2 7.2 
L 7.2 225.467717 
z
" style="fill: none"/>
   </g>
   <g id="TriContourSet_1">
    <path d="M 75.201411 126.186689 
L 82.630164 122.828429 
L 82.872699 122.027028 
L 81.32722 116.523409 
L 79.096922 120.041637 
z
" clip-path="url(#pd26fbf664a)" style="fill: #440154; fill-opacity: 0.7"/>
    <path d="M 70.979395 132.846791 
L 86.459546 125.848796 
L 86.964943 124.178826 
L 83.744452 112.710298 
L 81.32722 116.523409 
L 82.872699 122.027028 
L 82.630164 122.828429 
L 75.201411 126.186689 
z
" clip-path="url(#pd26fbf664a)" style="fill: #450559; fill-opacity: 0.7"/>
    <path d="M 67.514163 138.313091 
L 74.198295 136.131964 
L 74.465996 136.022117 
L 90.288929 128.869164 
L 91.057188 126.330624 
L 86.161684 108.897188 
L 83.744452 112.710298 
L 86.964943 124.178826 
L 86.459546 125.848796 
L 70.979395 132.846791 
L 70.537765 133.54345 
z
" clip-path="url(#pd26fbf664a)" style="fill: #470e61; fill-opacity: 0.7"/>
    <path d="M 65.973134 140.744019 
L 68.085079 141.241707 
L 69.492037 141.444923 
L 70.964952 141.411982 
L 78.286454 139.022872 
L 78.853131 138.790346 
L 94.118311 131.889532 
L 95.149433 128.482422 
L 88.578915 105.084078 
L 86.161684 108.897188 
L 91.057188 126.330624 
L 90.288929 128.869164 
L 74.465996 136.022117 
L 74.198295 136.131964 
L 67.514163 138.313091 
L 67.114102 138.944176 
z
" clip-path="url(#pd26fbf664a)" style="fill: #481769; fill-opacity: 0.7"/>
    <path d="M 64.678825 142.785751 
L 69.186551 143.848015 
L 72.189554 144.281758 
L 75.333336 144.211449 
L 82.374613 141.91378 
L 83.240265 141.558575 
L 97.947693 134.9099 
L 99.241678 130.634219 
L 90.996147 101.270967 
L 88.578915 105.084078 
L 95.149433 128.482422 
L 94.118311 131.889532 
L 78.853131 138.790346 
L 78.286454 139.022872 
L 70.964952 141.411982 
L 69.492037 141.444923 
L 68.085079 141.241707 
L 65.973134 140.744019 
z
" clip-path="url(#pd26fbf664a)" style="fill: #481f70; fill-opacity: 0.7"/>
    <path d="M 63.384517 144.827483 
L 70.288023 146.454323 
L 74.887072 147.118593 
L 79.70172 147.010915 
L 86.462773 144.804688 
L 87.627399 144.326804 
L 101.777076 137.930267 
L 103.333923 132.786017 
L 93.413379 97.457857 
L 90.996147 101.270967 
L 99.241678 130.634219 
L 97.947693 134.9099 
L 83.240265 141.558575 
L 82.374613 141.91378 
L 75.333336 144.211449 
L 72.189554 144.281758 
L 69.186551 143.848015 
L 64.678825 142.785751 
z
" clip-path="url(#pd26fbf664a)" style="fill: #482677; fill-opacity: 0.7"/>
    <path d="M 62.090209 146.869215 
L 71.389495 149.060631 
L 77.584589 149.955428 
L 84.070104 149.810382 
L 90.550932 147.695596 
L 92.014534 147.095033 
L 105.606458 140.950635 
L 107.426168 134.937815 
L 97.246613 98.68729 
L 95.313266 94.460842 
L 94.075447 96.413464 
L 93.413379 97.457857 
L 103.333923 132.786017 
L 101.777076 137.930267 
L 87.627399 144.326804 
L 86.462773 144.804688 
L 79.70172 147.010915 
L 74.887072 147.118593 
L 70.288023 146.454323 
L 63.384517 144.827483 
z
" clip-path="url(#pd26fbf664a)" style="fill: #472e7c; fill-opacity: 0.7"/>
    <path d="M 60.795901 148.910948 
L 72.490966 151.666939 
L 80.282106 152.792263 
L 88.438488 152.609848 
L 94.639091 150.586504 
L 96.401668 149.863262 
L 109.43584 143.971003 
L 111.518412 137.089612 
L 101.613981 101.818832 
L 97.018004 91.771669 
L 95.313266 94.460842 
L 97.246613 98.68729 
L 107.426168 134.937815 
L 105.606458 140.950635 
L 92.014534 147.095033 
L 90.550932 147.695596 
L 84.070104 149.810382 
L 77.584589 149.955428 
L 71.389495 149.060631 
L 62.090209 146.869215 
z
" clip-path="url(#pd26fbf664a)" style="fill: #453581; fill-opacity: 0.7"/>
    <path d="M 59.501593 150.95268 
L 73.592438 154.273247 
L 82.979623 155.629098 
L 92.806873 155.409315 
L 98.727251 153.477411 
L 100.788802 152.631491 
L 113.265223 146.991371 
L 115.610657 139.24141 
L 105.981349 104.950374 
L 98.722743 89.082495 
L 97.018004 91.771669 
L 101.613981 101.818832 
L 111.518412 137.089612 
L 109.43584 143.971003 
L 96.401668 149.863262 
L 94.639091 150.586504 
L 88.438488 152.609848 
L 80.282106 152.792263 
L 72.490966 151.666939 
L 60.795901 148.910948 
z
" clip-path="url(#pd26fbf664a)" style="fill: #433d84; fill-opacity: 0.7"/>
    <path d="M 58.207284 152.994412 
L 74.69391 156.879555 
L 85.677141 158.465933 
L 97.175257 158.208782 
L 102.81541 156.368319 
L 105.175937 155.39972 
L 117.094605 150.011738 
L 119.702902 141.393208 
L 110.348717 108.081915 
L 100.427481 86.393322 
L 98.722743 89.082495 
L 105.981349 104.950374 
L 115.610657 139.24141 
L 113.265223 146.991371 
L 100.788802 152.631491 
L 98.727251 153.477411 
L 92.806873 155.409315 
L 82.979623 155.629098 
L 73.592438 154.273247 
L 59.501593 150.95268 
z
" clip-path="url(#pd26fbf664a)" style="fill: #414487; fill-opacity: 0.7"/>
    <path d="M 56.912976 155.036144 
L 75.795382 159.485863 
L 88.374658 161.302768 
L 101.543641 161.008248 
L 106.90357 159.259227 
L 109.563071 158.167949 
L 120.923987 153.032106 
L 123.795147 143.545006 
L 114.716085 111.213457 
L 102.132219 83.704148 
L 100.427481 86.393322 
L 110.348717 108.081915 
L 119.702902 141.393208 
L 117.094605 150.011738 
L 105.175937 155.39972 
L 102.81541 156.368319 
L 97.175257 158.208782 
L 85.677141 158.465933 
L 74.69391 156.879555 
L 58.207284 152.994412 
z
" clip-path="url(#pd26fbf664a)" style="fill: #3e4a89; fill-opacity: 0.7"/>
    <path d="M 55.618668 157.077877 
L 76.896854 162.092171 
L 91.072175 164.139603 
L 105.912025 163.807715 
L 110.991729 162.150135 
L 113.950205 160.936178 
L 124.75337 156.052474 
L 127.887392 145.696803 
L 119.083453 114.344999 
L 103.836958 81.014974 
L 102.132219 83.704148 
L 114.716085 111.213457 
L 123.795147 143.545006 
L 120.923987 153.032106 
L 109.563071 158.167949 
L 106.90357 159.259227 
L 101.543641 161.008248 
L 88.374658 161.302768 
L 75.795382 159.485863 
L 56.912976 155.036144 
z
" clip-path="url(#pd26fbf664a)" style="fill: #3b518b; fill-opacity: 0.7"/>
    <path d="M 54.32436 159.119609 
L 77.998325 164.698479 
L 93.769693 166.976438 
L 110.280409 166.607181 
L 115.079888 165.041043 
L 118.33734 163.704407 
L 128.582752 159.072841 
L 131.979637 147.848601 
L 123.450821 117.47654 
L 105.541696 78.325801 
L 103.836958 81.014974 
L 119.083453 114.344999 
L 127.887392 145.696803 
L 124.75337 156.052474 
L 113.950205 160.936178 
L 110.991729 162.150135 
L 105.912025 163.807715 
L 91.072175 164.139603 
L 76.896854 162.092171 
L 55.618668 157.077877 
z
" clip-path="url(#pd26fbf664a)" style="fill: #38598c; fill-opacity: 0.7"/>
    <path d="M 53.030052 161.161341 
L 79.099797 167.304787 
L 96.46721 169.813273 
L 114.648794 169.406648 
L 119.168048 167.931951 
L 122.724474 166.472636 
L 132.412134 162.093209 
L 136.071882 150.000399 
L 127.818189 120.608082 
L 107.246435 75.636627 
L 105.541696 78.325801 
L 123.450821 117.47654 
L 131.979637 147.848601 
L 128.582752 159.072841 
L 118.33734 163.704407 
L 115.079888 165.041043 
L 110.280409 166.607181 
L 93.769693 166.976438 
L 77.998325 164.698479 
L 54.32436 159.119609 
z
" clip-path="url(#pd26fbf664a)" style="fill: #355f8d; fill-opacity: 0.7"/>
    <path d="M 51.735744 163.203073 
L 80.201269 169.911095 
L 99.164727 172.650108 
L 119.017178 172.206115 
L 123.256207 170.822859 
L 127.111608 169.240865 
L 136.241517 165.113577 
L 140.164126 152.152197 
L 132.185557 123.739623 
L 108.951173 72.947454 
L 107.246435 75.636627 
L 127.818189 120.608082 
L 136.071882 150.000399 
L 132.412134 162.093209 
L 122.724474 166.472636 
L 119.168048 167.931951 
L 114.648794 169.406648 
L 96.46721 169.813273 
L 79.099797 167.304787 
L 53.030052 161.161341 
z
" clip-path="url(#pd26fbf664a)" style="fill: #32658e; fill-opacity: 0.7"/>
    <path d="M 50.441435 165.244806 
L 81.302741 172.517403 
L 101.862245 175.486943 
L 123.385562 175.005581 
L 127.344366 173.713767 
L 131.498743 172.009094 
L 140.070899 168.133945 
L 144.256371 154.303994 
L 136.552925 126.871165 
L 113.917633 77.388657 
L 110.026705 71.250835 
L 109.053973 72.78529 
L 108.951173 72.947454 
L 132.185557 123.739623 
L 140.164126 152.152197 
L 136.241517 165.113577 
L 127.111608 169.240865 
L 123.256207 170.822859 
L 119.017178 172.206115 
L 99.164727 172.650108 
L 80.201269 169.911095 
L 51.735744 163.203073 
z
" clip-path="url(#pd26fbf664a)" style="fill: #2f6b8e; fill-opacity: 0.7"/>
    <path d="M 49.147127 167.286538 
L 82.404213 175.123711 
L 104.559762 178.323778 
L 127.753946 177.805048 
L 131.432526 176.604675 
L 135.885877 174.777323 
L 143.900281 171.154312 
L 148.348616 156.455792 
L 140.920293 130.002707 
L 119.093404 82.287431 
L 111.061859 69.61791 
L 110.026705 71.250835 
L 113.917633 77.388657 
L 136.552925 126.871165 
L 144.256371 154.303994 
L 140.070899 168.133945 
L 131.498743 172.009094 
L 127.344366 173.713767 
L 123.385562 175.005581 
L 101.862245 175.486943 
L 81.302741 172.517403 
L 50.441435 165.244806 
z
" clip-path="url(#pd26fbf664a)" style="fill: #2d718e; fill-opacity: 0.7"/>
    <path d="M 48.036342 169.038768 
L 52.422784 170.405202 
L 83.505684 177.730019 
L 107.257279 181.160613 
L 132.12233 180.604514 
L 135.520685 179.495583 
L 140.273011 177.545552 
L 147.729664 174.17468 
L 152.440861 158.60759 
L 145.287661 133.134248 
L 124.269175 87.186205 
L 112.097013 67.984985 
L 111.061859 69.61791 
L 119.093404 82.287431 
L 140.920293 130.002707 
L 148.348616 156.455792 
L 143.900281 171.154312 
L 135.885877 174.777323 
L 131.432526 176.604675 
L 127.753946 177.805048 
L 104.559762 178.323778 
L 82.404213 175.123711 
L 49.147127 167.286538 
L 49.139871 167.297984 
z
" clip-path="url(#pd26fbf664a)" style="fill: #2a768e; fill-opacity: 0.7"/>
    <path d="M 46.926591 170.789367 
L 55.724205 173.529937 
L 84.607156 180.336327 
L 109.954797 183.997448 
L 136.490714 183.403981 
L 139.608845 182.386491 
L 144.660146 180.313781 
L 151.559046 177.195048 
L 156.533106 160.759387 
L 149.655029 136.26579 
L 129.444947 92.084979 
L 113.132168 66.352061 
L 112.097013 67.984985 
L 124.269175 87.186205 
L 145.287661 133.134248 
L 152.440861 158.60759 
L 147.729664 174.17468 
L 140.273011 177.545552 
L 135.520685 179.495583 
L 132.12233 180.604514 
L 107.257279 181.160613 
L 83.505684 177.730019 
L 52.422784 170.405202 
L 48.036342 169.038768 
z
" clip-path="url(#pd26fbf664a)" style="fill: #287c8e; fill-opacity: 0.7"/>
    <path d="M 45.81684 172.539966 
L 59.025626 176.654672 
L 85.708628 182.942635 
L 112.652314 186.834283 
L 140.859099 186.203448 
L 143.697004 185.277399 
L 149.04728 183.08201 
L 155.388428 180.215416 
L 160.625351 162.911185 
L 154.022396 139.397332 
L 134.620718 96.983753 
L 114.167322 64.719136 
L 113.132168 66.352061 
L 129.444947 92.084979 
L 149.655029 136.26579 
L 156.533106 160.759387 
L 151.559046 177.195048 
L 144.660146 180.313781 
L 139.608845 182.386491 
L 136.490714 183.403981 
L 109.954797 183.997448 
L 84.607156 180.336327 
L 55.724205 173.529937 
L 46.926591 170.789367 
z
" clip-path="url(#pd26fbf664a)" style="fill: #26828e; fill-opacity: 0.7"/>
    <path d="M 44.707089 174.290564 
L 62.327047 179.779408 
L 86.8101 185.548943 
L 115.349831 189.671118 
L 145.227483 189.002914 
L 147.785163 188.168307 
L 153.434414 185.850239 
L 159.217811 183.235783 
L 164.717595 165.062983 
L 158.389764 142.528873 
L 139.796489 101.882527 
L 115.202476 63.086211 
L 114.167322 64.719136 
L 134.620718 96.983753 
L 154.022396 139.397332 
L 160.625351 162.911185 
L 155.388428 180.215416 
L 149.04728 183.08201 
L 143.697004 185.277399 
L 140.859099 186.203448 
L 112.652314 186.834283 
L 85.708628 182.942635 
L 59.025626 176.654672 
L 45.81684 172.539966 
z
" clip-path="url(#pd26fbf664a)" style="fill: #24878e; fill-opacity: 0.7"/>
    <path d="M 43.597338 176.041163 
L 65.628468 182.904143 
L 87.911572 188.155251 
L 118.047348 192.507953 
L 149.595867 191.802381 
L 151.873323 191.059215 
L 157.821549 188.618468 
L 163.047193 186.256151 
L 168.80984 167.214781 
L 162.757132 145.660415 
L 144.97226 106.781301 
L 116.23763 61.453287 
L 115.202476 63.086211 
L 139.796489 101.882527 
L 158.389764 142.528873 
L 164.717595 165.062983 
L 159.217811 183.235783 
L 153.434414 185.850239 
L 147.785163 188.168307 
L 145.227483 189.002914 
L 115.349831 189.671118 
L 86.8101 185.548943 
L 62.327047 179.779408 
L 44.707089 174.290564 
z
" clip-path="url(#pd26fbf664a)" style="fill: #228d8d; fill-opacity: 0.7"/>
    <path d="M 42.487588 177.791761 
L 68.929889 186.028878 
L 89.013043 190.761559 
L 120.744866 195.344788 
L 153.964251 194.601847 
L 155.961482 193.950123 
L 162.208683 191.386697 
L 166.876575 189.276519 
L 172.902085 169.366578 
L 167.1245 148.791956 
L 150.148031 111.680075 
L 117.272785 59.820362 
L 116.23763 61.453287 
L 144.97226 106.781301 
L 162.757132 145.660415 
L 168.80984 167.214781 
L 163.047193 186.256151 
L 157.821549 188.618468 
L 151.873323 191.059215 
L 149.595867 191.802381 
L 118.047348 192.507953 
L 87.911572 188.155251 
L 65.628468 182.904143 
L 43.597338 176.041163 
z
" clip-path="url(#pd26fbf664a)" style="fill: #20938c; fill-opacity: 0.7"/>
    <path d="M 41.377837 179.54236 
L 72.231309 189.153614 
L 90.114515 193.367867 
L 123.442383 198.181622 
L 158.332635 197.401314 
L 160.049641 196.84103 
L 166.595818 194.154926 
L 170.705958 192.296886 
L 176.99433 171.518376 
L 171.491868 151.923498 
L 155.323803 116.578849 
L 118.307939 58.187437 
L 117.272785 59.820362 
L 150.148031 111.680075 
L 167.1245 148.791956 
L 172.902085 169.366578 
L 166.876575 189.276519 
L 162.208683 191.386697 
L 155.961482 193.950123 
L 153.964251 194.601847 
L 120.744866 195.344788 
L 89.013043 190.761559 
L 68.929889 186.028878 
L 42.487588 177.791761 
z
" clip-path="url(#pd26fbf664a)" style="fill: #1f998a; fill-opacity: 0.7"/>
    <path d="M 40.268086 181.292958 
L 75.53273 192.278349 
L 91.215987 195.974175 
L 126.1399 201.018457 
L 162.70102 200.200781 
L 164.137801 199.731938 
L 170.982952 196.923155 
L 174.53534 195.317254 
L 181.086575 173.670174 
L 175.859236 155.05504 
L 160.499574 121.477623 
L 119.343093 56.554512 
L 118.307939 58.187437 
L 155.323803 116.578849 
L 171.491868 151.923498 
L 176.99433 171.518376 
L 170.705958 192.296886 
L 166.595818 194.154926 
L 160.049641 196.84103 
L 158.332635 197.401314 
L 123.442383 198.181622 
L 90.114515 193.367867 
L 72.231309 189.153614 
L 41.377837 179.54236 
z
" clip-path="url(#pd26fbf664a)" style="fill: #1f9f88; fill-opacity: 0.7"/>
    <path d="M 39.158335 183.043557 
L 78.834151 195.403084 
L 92.317459 198.580483 
L 128.837418 203.855292 
L 167.069404 203.000247 
L 168.22596 202.622846 
L 175.370086 199.691384 
L 178.364722 198.337622 
L 185.17882 175.821972 
L 180.226604 158.186581 
L 165.675345 126.376397 
L 120.378247 54.921588 
L 119.343093 56.554512 
L 160.499574 121.477623 
L 175.859236 155.05504 
L 181.086575 173.670174 
L 174.53534 195.317254 
L 170.982952 196.923155 
L 164.137801 199.731938 
L 162.70102 200.200781 
L 126.1399 201.018457 
L 91.215987 195.974175 
L 75.53273 192.278349 
L 40.268086 181.292958 
z
" clip-path="url(#pd26fbf664a)" style="fill: #20a486; fill-opacity: 0.7"/>
    <path d="M 38.048584 184.794155 
L 82.135572 198.52782 
L 93.418931 201.186791 
L 131.534935 206.692127 
L 171.437788 205.799714 
L 172.314119 205.513754 
L 179.757221 202.459613 
L 182.194105 201.35799 
L 189.271065 177.973769 
L 184.593972 161.318123 
L 170.851116 131.275172 
L 121.413401 53.288663 
L 120.378247 54.921588 
L 165.675345 126.376397 
L 180.226604 158.186581 
L 185.17882 175.821972 
L 178.364722 198.337622 
L 175.370086 199.691384 
L 168.22596 202.622846 
L 167.069404 203.000247 
L 128.837418 203.855292 
L 92.317459 198.580483 
L 78.834151 195.403084 
L 39.158335 183.043557 
z
" clip-path="url(#pd26fbf664a)" style="fill: #24aa83; fill-opacity: 0.7"/>
    <path d="M 36.938833 186.544754 
L 85.436993 201.652555 
L 94.520402 203.793099 
L 134.232452 209.528962 
L 175.806172 208.59918 
L 176.402279 208.404662 
L 184.144355 205.227842 
L 186.023487 204.378357 
L 193.363309 180.125567 
L 188.96134 164.449665 
L 176.026887 136.173946 
L 122.448556 51.655738 
L 121.413401 53.288663 
L 170.851116 131.275172 
L 184.593972 161.318123 
L 189.271065 177.973769 
L 182.194105 201.35799 
L 179.757221 202.459613 
L 172.314119 205.513754 
L 171.437788 205.799714 
L 131.534935 206.692127 
L 93.418931 201.186791 
L 82.135572 198.52782 
L 38.048584 184.794155 
z
" clip-path="url(#pd26fbf664a)" style="fill: #29af7f; fill-opacity: 0.7"/>
    <path d="M 35.829083 188.295352 
L 88.738414 204.77729 
L 95.621874 206.399407 
L 136.92997 212.365797 
L 180.174556 211.398647 
L 180.490438 211.29557 
L 188.531489 207.996071 
L 189.852869 207.398725 
L 197.455554 182.277365 
L 193.328708 167.581206 
L 181.202659 141.07272 
L 123.48371 50.022814 
L 122.448556 51.655738 
L 176.026887 136.173946 
L 188.96134 164.449665 
L 193.363309 180.125567 
L 186.023487 204.378357 
L 184.144355 205.227842 
L 176.402279 208.404662 
L 175.806172 208.59918 
L 134.232452 209.528962 
L 94.520402 203.793099 
L 85.436993 201.652555 
L 36.938833 186.544754 
z
" clip-path="url(#pd26fbf664a)" style="fill: #31b57b; fill-opacity: 0.7"/>
    <path d="M 34.719332 190.045951 
L 92.039835 207.902025 
L 96.723346 209.005715 
L 135.138994 214.554331 
L 139.011024 214.554331 
L 168.615255 214.554331 
L 184.54294 214.198113 
L 184.578598 214.186478 
L 192.918624 210.7643 
L 193.682252 210.419093 
L 201.547799 184.429163 
L 197.696076 170.712748 
L 186.37843 145.971494 
L 124.518864 48.389889 
L 123.48371 50.022814 
L 181.202659 141.07272 
L 193.328708 167.581206 
L 197.455554 182.277365 
L 189.852869 207.398725 
L 188.531489 207.996071 
L 180.490438 211.29557 
L 180.174556 211.398647 
L 136.92997 212.365797 
L 95.621874 206.399407 
L 88.738414 204.77729 
L 35.829083 188.295352 
z
" clip-path="url(#pd26fbf664a)" style="fill: #3aba76; fill-opacity: 0.7"/>
    <path d="M 33.609581 191.79655 
L 95.341256 211.026761 
L 97.824818 211.612023 
L 118.195784 214.554331 
L 135.138994 214.554331 
L 96.723346 209.005715 
L 92.039835 207.902025 
L 34.719332 190.045951 
z
M 194.815575 214.554331 
L 197.305758 213.532529 
L 197.511634 213.439461 
L 205.640044 186.58096 
L 202.063444 173.84429 
L 191.554201 150.870268 
L 125.554018 46.756964 
L 124.518864 48.389889 
L 186.37843 145.971494 
L 197.696076 170.712748 
L 201.547799 184.429163 
L 193.682252 210.419093 
L 192.918624 210.7643 
L 184.578598 214.186478 
L 184.54294 214.198113 
L 168.615255 214.554331 
L 185.098794 214.554331 
z
" clip-path="url(#pd26fbf664a)" style="fill: #44bf70; fill-opacity: 0.7"/>
    <path d="M 32.49983 193.547148 
L 98.642677 214.151496 
L 98.92629 214.218331 
L 101.252574 214.554331 
L 118.195784 214.554331 
L 97.824818 211.612023 
L 95.341256 211.026761 
L 33.609581 191.79655 
z
M 201.917693 214.554331 
L 209.732289 188.732758 
L 206.430812 176.975831 
L 196.729972 155.769042 
L 126.589173 45.12404 
L 125.554018 46.756964 
L 191.554201 150.870268 
L 202.063444 173.84429 
L 205.640044 186.58096 
L 197.511634 213.439461 
L 197.305758 213.532529 
L 194.815575 214.554331 
L 198.925125 214.554331 
z
" clip-path="url(#pd26fbf664a)" style="fill: #50c46a; fill-opacity: 0.7"/>
    <path d="M 31.390079 195.297747 
L 93.206415 214.554331 
L 99.068289 214.554331 
L 101.252574 214.554331 
L 98.92629 214.218331 
L 98.642677 214.151496 
L 32.49983 193.547148 
z
M 206.661154 214.554331 
L 213.824534 190.884556 
L 210.79818 180.107373 
L 201.905744 160.667816 
L 127.624327 43.491115 
L 126.589173 45.12404 
L 196.729972 155.769042 
L 206.430812 176.975831 
L 209.732289 188.732758 
L 201.917693 214.554331 
z
" clip-path="url(#pd26fbf664a)" style="fill: #5ec962; fill-opacity: 0.7"/>
    <path d="M 30.280329 197.048345 
L 86.476997 214.554331 
L 93.206415 214.554331 
L 31.390079 195.297747 
z
M 211.404615 214.554331 
L 217.916778 193.036353 
L 215.165548 183.238914 
L 207.081515 165.56659 
L 128.659481 41.85819 
L 127.624327 43.491115 
L 201.905744 160.667816 
L 210.79818 180.107373 
L 213.824534 190.884556 
L 206.661154 214.554331 
z
" clip-path="url(#pd26fbf664a)" style="fill: #6ccd5a; fill-opacity: 0.7"/>
    <path d="M 29.170578 198.798944 
L 79.747579 214.554331 
L 86.476997 214.554331 
L 30.280329 197.048345 
z
M 216.148076 214.554331 
L 222.009023 195.188151 
L 219.532915 186.370456 
L 212.257286 170.465364 
L 129.694635 40.225266 
L 128.659481 41.85819 
L 207.081515 165.56659 
L 215.165548 183.238914 
L 217.916778 193.036353 
L 211.404615 214.554331 
z
" clip-path="url(#pd26fbf664a)" style="fill: #7ad151; fill-opacity: 0.7"/>
    <path d="M 28.060827 200.549542 
L 73.018162 214.554331 
L 79.747579 214.554331 
L 29.170578 198.798944 
z
M 220.891537 214.554331 
L 226.101268 197.339949 
L 223.900283 189.501998 
L 217.433057 175.364138 
L 130.72979 38.592341 
L 129.694635 40.225266 
L 212.257286 170.465364 
L 219.532915 186.370456 
L 222.009023 195.188151 
L 216.148076 214.554331 
z
" clip-path="url(#pd26fbf664a)" style="fill: #89d548; fill-opacity: 0.7"/>
    <path d="M 26.951076 202.300141 
L 66.288744 214.554331 
L 73.018162 214.554331 
L 28.060827 200.549542 
z
M 225.634999 214.554331 
L 230.193513 199.491747 
L 228.267651 192.633539 
L 222.608828 180.262912 
L 131.764944 36.959416 
L 130.72979 38.592341 
L 217.433057 175.364138 
L 223.900283 189.501998 
L 226.101268 197.339949 
L 220.891537 214.554331 
z
" clip-path="url(#pd26fbf664a)" style="fill: #98d83e; fill-opacity: 0.7"/>
    <path d="M 25.841325 204.050739 
L 59.559326 214.554331 
L 66.288744 214.554331 
L 26.951076 202.300141 
z
M 230.37846 214.554331 
L 234.285758 201.643544 
L 232.635019 195.765081 
L 227.7846 185.161686 
L 132.800098 35.326492 
L 131.764944 36.959416 
L 222.608828 180.262912 
L 228.267651 192.633539 
L 230.193513 199.491747 
L 225.634999 214.554331 
z
" clip-path="url(#pd26fbf664a)" style="fill: #a8db34; fill-opacity: 0.7"/>
    <path d="M 24.731574 205.801338 
L 52.829909 214.554331 
L 59.559326 214.554331 
L 25.841325 204.050739 
z
M 235.121921 214.554331 
L 238.378003 203.795342 
L 237.002387 198.896623 
L 232.960371 190.06046 
L 133.835252 33.693567 
L 132.800098 35.326492 
L 227.7846 185.161686 
L 232.635019 195.765081 
L 234.285758 201.643544 
L 230.37846 214.554331 
z
" clip-path="url(#pd26fbf664a)" style="fill: #b8de29; fill-opacity: 0.7"/>
    <path d="M 23.621824 207.551937 
L 46.100491 214.554331 
L 52.829909 214.554331 
L 24.731574 205.801338 
z
M 239.865382 214.554331 
L 242.470248 205.94714 
L 241.369755 202.028164 
L 238.136142 194.959234 
L 134.870407 32.060642 
L 133.835252 33.693567 
L 232.960371 190.06046 
L 237.002387 198.896623 
L 238.378003 203.795342 
L 235.121921 214.554331 
z
" clip-path="url(#pd26fbf664a)" style="fill: #c8e020; fill-opacity: 0.7"/>
    <path d="M 22.512073 209.302535 
L 39.371073 214.554331 
L 46.100491 214.554331 
L 23.621824 207.551937 
z
M 244.608843 214.554331 
L 246.562492 208.098938 
L 245.737123 205.159706 
L 243.311913 199.858009 
L 135.905561 30.427717 
L 134.870407 32.060642 
L 238.136142 194.959234 
L 241.369755 202.028164 
L 242.470248 205.94714 
L 239.865382 214.554331 
z
" clip-path="url(#pd26fbf664a)" style="fill: #d8e219; fill-opacity: 0.7"/>
    <path d="M 21.402322 211.053134 
L 32.641656 214.554331 
L 39.371073 214.554331 
L 22.512073 209.302535 
z
M 249.352305 214.554331 
L 250.654737 210.250735 
L 250.104491 208.291247 
L 248.487684 204.756783 
L 136.940715 28.794793 
L 135.905561 30.427717 
L 243.311913 199.858009 
L 245.737123 205.159706 
L 246.562492 208.098938 
L 244.608843 214.554331 
z
" clip-path="url(#pd26fbf664a)" style="fill: #e7e419; fill-opacity: 0.7"/>
    <path d="M 20.292571 212.803732 
L 25.912238 214.554331 
L 32.641656 214.554331 
L 21.402322 211.053134 
z
M 254.095766 214.554331 
L 254.746982 212.402533 
L 254.471859 211.422789 
L 253.663456 209.655557 
L 137.975869 27.161868 
L 136.940715 28.794793 
L 248.487684 204.756783 
L 250.104491 208.291247 
L 250.654737 210.250735 
L 249.352305 214.554331 
z
" clip-path="url(#pd26fbf664a)" style="fill: #f6e620; fill-opacity: 0.7"/>
    <path d="M 25.912238 214.554331 
L 20.292571 212.803732 
L 19.18282 214.554331 
z
M 137.975869 27.161868 
L 253.663456 209.655557 
L 254.471859 211.422789 
L 254.746982 212.402533 
L 254.095766 214.554331 
L 258.839227 214.554331 
L 139.011024 25.528943 
z
" clip-path="url(#pd26fbf664a)" style="fill: #fde725; fill-opacity: 0.7"/>
   </g>
   <g id="matplotlib.axis_1"/>
   <g id="matplotlib.axis_2"/>
   <g id="line2d_1">
    <path d="M 79.096922 120.041637 
L 198.925125 214.554331 
" clip-path="url(#pd26fbf664a)" style="fill: none; stroke: #555555; stroke-opacity: 0.9; stroke-width: 0.5; stroke-linecap: square"/>
   </g>
   <g id="line2d_2">
    <path d="M 67.114102 138.944176 
L 185.098794 214.554331 
" clip-path="url(#pd26fbf664a)" style="fill: none; stroke: #555555; stroke-opacity: 0.9; stroke-width: 0.5; stroke-linecap: square"/>
   </g>
   <g id="line2d_3">
    <path d="M 109.053973 72.78529 
L 139.011024 25.528943 
" clip-path="url(#pd26fbf664a)" style="fill: none; stroke: #555555; stroke-opacity: 0.9; stroke-width: 0.5; stroke-linecap: square"/>
   </g>
   <g id="line2d_4">
    <path d="M 70.537765 133.54345 
L 185.098794 214.554331 
" clip-path="url(#pd26fbf664a)" style="fill: none; stroke: #555555; stroke-opacity: 0.9; stroke-width: 0.5; stroke-linecap: square"/>
   </g>
   <g id="line2d_5">
    <path d="M 109.053973 72.78529 
L 258.839227 214.554331 
" clip-path="url(#pd26fbf664a)" style="fill: none; stroke: #555555; stroke-opacity: 0.9; stroke-width: 0.5; stroke-linecap: square"/>
   </g>
   <g id="line2d_6">
    <path d="M 94.075447 96.413464 
L 258.839227 214.554331 
" clip-path="url(#pd26fbf664a)" style="fill: none; stroke: #555555; stroke-opacity: 0.9; stroke-width: 0.5; stroke-linecap: square"/>
   </g>
   <g id="line2d_7">
    <path d="M 99.068289 214.554331 
L 67.114102 138.944176 
" clip-path="url(#pd26fbf664a)" style="fill: none; stroke: #555555; stroke-opacity: 0.9; stroke-width: 0.5; stroke-linecap: square"/>
   </g>
   <g id="line2d_8">
    <path d="M 198.925125 214.554331 
L 70.537765 133.54345 
" clip-path="url(#pd26fbf664a)" style="fill: none; stroke: #555555; stroke-opacity: 0.9; stroke-width: 0.5; stroke-linecap: square"/>
   </g>
   <g id="line2d_9">
    <path d="M 198.925125 214.554331 
L 258.839227 214.554331 
" clip-path="url(#pd26fbf664a)" style="fill: none; stroke: #555555; stroke-opacity: 0.9; stroke-width: 0.5; stroke-linecap: square"/>
   </g>
   <g id="line2d_10">
    <path d="M 49.139871 167.297984 
L 67.114102 138.944176 
" clip-path="url(#pd26fbf664a)" style="fill: none; stroke: #555555; stroke-opacity: 0.9; stroke-width: 0.5; stroke-linecap: square"/>
   </g>
   <g id="line2d_11">
    <path d="M 139.011024 214.554331 
L 67.114102 138.944176 
" clip-path="url(#pd26fbf664a)" style="fill: none; stroke: #555555; stroke-opacity: 0.9; stroke-width: 0.5; stroke-linecap: square"/>
   </g>
   <g id="line2d_12">
    <path d="M 139.011024 25.528943 
L 258.839227 214.554331 
" clip-path="url(#pd26fbf664a)" style="fill: none; stroke: #555555; stroke-opacity: 0.9; stroke-width: 0.5; stroke-linecap: square"/>
   </g>
   <g id="line2d_13">
    <path d="M 139.011024 214.554331 
L 99.068289 214.554331 
" clip-path="url(#pd26fbf664a)" style="fill: none; stroke: #555555; stroke-opacity: 0.9; stroke-width: 0.5; stroke-linecap: square"/>
   </g>
   <g id="line2d_14">
    <path d="M 139.011024 214.554331 
L 185.098794 214.554331 
" clip-path="url(#pd26fbf664a)" style="fill: none; stroke: #555555; stroke-opacity: 0.9; stroke-width: 0.5; stroke-linecap: square"/>
   </g>
   <g id="line2d_15">
    <path d="M 99.068289 214.554331 
L 49.139871 167.297984 
" clip-path="url(#pd26fbf664a)" style="fill: none; stroke: #555555; stroke-opacity: 0.9; stroke-width: 0.5; stroke-linecap: square"/>
   </g>
   <g id="line2d_16">
    <path d="M 198.925125 214.554331 
L 185.098794 214.554331 
" clip-path="url(#pd26fbf664a)" style="fill: none; stroke: #555555; stroke-opacity: 0.9; stroke-width: 0.5; stroke-linecap: square"/>
   </g>
   <g id="line2d_17">
    <path d="M 79.096922 120.041637 
L 94.075447 96.413464 
" clip-path="url(#pd26fbf664a)" style="fill: none; stroke: #555555; stroke-opacity: 0.9; stroke-width: 0.5; stroke-linecap: square"/>
   </g>
   <g id="line2d_18">
    <path d="M 79.096922 120.041637 
L 70.537765 133.54345 
" clip-path="url(#pd26fbf664a)" style="fill: none; stroke: #555555; stroke-opacity: 0.9; stroke-width: 0.5; stroke-linecap: square"/>
   </g>
   <g id="line2d_19">
    <path d="M 79.096922 120.041637 
L 258.839227 214.554331 
" clip-path="url(#pd26fbf664a)" style="fill: none; stroke: #555555; stroke-opacity: 0.9; stroke-width: 0.5; stroke-linecap: square"/>
   </g>
   <g id="line2d_20">
    <path d="M 109.053973 72.78529 
L 94.075447 96.413464 
" clip-path="url(#pd26fbf664a)" style="fill: none; stroke: #555555; stroke-opacity: 0.9; stroke-width: 0.5; stroke-linecap: square"/>
   </g>
   <g id="line2d_21">
    <path d="M 99.068289 214.554331 
L 19.18282 214.554331 
" clip-path="url(#pd26fbf664a)" style="fill: none; stroke: #555555; stroke-opacity: 0.9; stroke-width: 0.5; stroke-linecap: square"/>
   </g>
   <g id="line2d_22">
    <path d="M 67.114102 138.944176 
L 70.537765 133.54345 
" clip-path="url(#pd26fbf664a)" style="fill: none; stroke: #555555; stroke-opacity: 0.9; stroke-width: 0.5; stroke-linecap: square"/>
   </g>
   <g id="line2d_23">
    <path d="M 49.139871 167.297984 
L 19.18282 214.554331 
" clip-path="url(#pd26fbf664a)" style="fill: none; stroke: #555555; stroke-opacity: 0.9; stroke-width: 0.5; stroke-linecap: square"/>
   </g>
   <g id="PathCollection_1">
    <defs>
     <path id="m3d98dda2f3" d="M 0 2.738613 
C 0.726289 2.738613 1.422928 2.450055 1.936492 1.936492 
C 2.450055 1.422928 2.738613 0.726289 2.738613 0 
C 2.738613 -0.726289 2.450055 -1.422928 1.936492 -1.936492 
C 1.422928 -2.450055 0.726289 -2.738613 0 -2.738613 
C -0.726289 -2.738613 -1.422928 -2.450055 -1.936492 -1.936492 
C -2.450055 -1.422928 -2.738613 -0.726289 -2.738613 0 
C -2.738613 0.726289 -2.450055 1.422928 -1.936492 1.936492 
C -1.422928 2.450055 -0.726289 2.738613 0 2.738613 
z
" style="stroke: #008000"/>
    </defs>
    <g clip-path="url(#pd26fbf664a)">
     <use xlink:href="#m3d98dda2f3" x="79.096922" y="120.041637" style="fill: #008000; stroke: #008000"/>
     <use xlink:href="#m3d98dda2f3" x="198.925125" y="214.554331" style="fill: #008000; stroke: #008000"/>
     <use xlink:href="#m3d98dda2f3" x="67.114102" y="138.944176" style="fill: #008000; stroke: #008000"/>
     <use xlink:href="#m3d98dda2f3" x="185.098794" y="214.554331" style="fill: #008000; stroke: #008000"/>
     <use xlink:href="#m3d98dda2f3" x="109.053973" y="72.78529" style="fill: #008000; stroke: #008000"/>
     <use xlink:href="#m3d98dda2f3" x="139.011024" y="25.528943" style="fill: #008000; stroke: #008000"/>
     <use xlink:href="#m3d98dda2f3" x="70.537765" y="133.54345" style="fill: #008000; stroke: #008000"/>
     <use xlink:href="#m3d98dda2f3" x="258.839227" y="214.554331" style="fill: #008000; stroke: #008000"/>
     <use xlink:href="#m3d98dda2f3" x="94.075447" y="96.413464" style="fill: #008000; stroke: #008000"/>
     <use xlink:href="#m3d98dda2f3" x="99.068289" y="214.554331" style="fill: #008000; stroke: #008000"/>
     <use xlink:href="#m3d98dda2f3" x="49.139871" y="167.297984" style="fill: #008000; stroke: #008000"/>
     <use xlink:href="#m3d98dda2f3" x="139.011024" y="214.554331" style="fill: #008000; stroke: #008000"/>
     <use xlink:href="#m3d98dda2f3" x="19.18282" y="214.554331" style="fill: #008000; stroke: #008000"/>
    </g>
   </g>
   <g id="PathCollection_2">
    <defs>
     <path id="mc7578128a2" d="M -0 2.236068 
L 1.341641 0 
L 0 -2.236068 
L -1.341641 -0 
z
" style="stroke: #d3d3d3"/>
    </defs>
    <g clip-path="url(#pd26fbf664a)">
     <use xlink:href="#mc7578128a2" x="139.011024" y="25.528943" style="fill: #d3d3d3; stroke: #d3d3d3"/>
     <use xlink:href="#mc7578128a2" x="139.011024" y="25.528943" style="fill: #d3d3d3; stroke: #d3d3d3"/>
     <use xlink:href="#mc7578128a2" x="139.011024" y="25.528943" style="fill: #d3d3d3; stroke: #d3d3d3"/>
     <use xlink:href="#mc7578128a2" x="139.011024" y="25.528943" style="fill: #d3d3d3; stroke: #d3d3d3"/>
     <use xlink:href="#mc7578128a2" x="139.011024" y="25.528943" style="fill: #d3d3d3; stroke: #d3d3d3"/>
     <use xlink:href="#mc7578128a2" x="258.839227" y="214.554331" style="fill: #d3d3d3; stroke: #d3d3d3"/>
     <use xlink:href="#mc7578128a2" x="258.839227" y="214.554331" style="fill: #d3d3d3; stroke: #d3d3d3"/>
     <use xlink:href="#mc7578128a2" x="258.839227" y="214.554331" style="fill: #d3d3d3; stroke: #d3d3d3"/>
     <use xlink:href="#mc7578128a2" x="258.839227" y="214.554331" style="fill: #d3d3d3; stroke: #d3d3d3"/>
     <use xlink:href="#mc7578128a2" x="258.839227" y="214.554331" style="fill: #d3d3d3; stroke: #d3d3d3"/>
     <use xlink:href="#mc7578128a2" x="258.839227" y="214.554331" style="fill: #d3d3d3; stroke: #d3d3d3"/>
     <use xlink:href="#mc7578128a2" x="258.839227" y="214.554331" style="fill: #d3d3d3; stroke: #d3d3d3"/>
     <use xlink:href="#mc7578128a2" x="198.925125" y="120.041637" style="fill: #d3d3d3; stroke: #d3d3d3"/>
     <use xlink:href="#mc7578128a2" x="198.925125" y="120.041637" style="fill: #d3d3d3; stroke: #d3d3d3"/>
     <use xlink:href="#mc7578128a2" x="198.925125" y="120.041637" style="fill: #d3d3d3; stroke: #d3d3d3"/>
     <use xlink:href="#mc7578128a2" x="168.968074" y="72.78529" style="fill: #d3d3d3; stroke: #d3d3d3"/>
     <use xlink:href="#mc7578128a2" x="168.968074" y="72.78529" style="fill: #d3d3d3; stroke: #d3d3d3"/>
     <use xlink:href="#mc7578128a2" x="228.882176" y="167.297984" style="fill: #d3d3d3; stroke: #d3d3d3"/>
     <use xlink:href="#mc7578128a2" x="19.18282" y="214.554331" style="fill: #d3d3d3; stroke: #d3d3d3"/>
     <use xlink:href="#mc7578128a2" x="19.18282" y="214.554331" style="fill: #d3d3d3; stroke: #d3d3d3"/>
     <use xlink:href="#mc7578128a2" x="19.18282" y="214.554331" style="fill: #d3d3d3; stroke: #d3d3d3"/>
     <use xlink:href="#mc7578128a2" x="19.18282" y="214.554331" style="fill: #d3d3d3; stroke: #d3d3d3"/>
     <use xlink:href="#mc7578128a2" x="19.18282" y="214.554331" style="fill: #d3d3d3; stroke: #d3d3d3"/>
     <use xlink:href="#mc7578128a2" x="19.18282" y="214.554331" style="fill: #d3d3d3; stroke: #d3d3d3"/>
     <use xlink:href="#mc7578128a2" x="19.18282" y="214.554331" style="fill: #d3d3d3; stroke: #d3d3d3"/>
     <use xlink:href="#mc7578128a2" x="19.18282" y="214.554331" style="fill: #d3d3d3; stroke: #d3d3d3"/>
     <use xlink:href="#mc7578128a2" x="19.18282" y="214.554331" style="fill: #d3d3d3; stroke: #d3d3d3"/>
     <use xlink:href="#mc7578128a2" x="79.096922" y="120.041637" style="fill: #d3d3d3; stroke: #d3d3d3"/>
     <use xlink:href="#mc7578128a2" x="79.096922" y="120.041637" style="fill: #d3d3d3; stroke: #d3d3d3"/>
     <use xlink:href="#mc7578128a2" x="99.068289" y="88.537406" style="fill: #d3d3d3; stroke: #d3d3d3"/>
     <use xlink:href="#mc7578128a2" x="109.053973" y="72.78529" style="fill: #d3d3d3; stroke: #d3d3d3"/>
     <use xlink:href="#mc7578128a2" x="109.053973" y="72.78529" style="fill: #d3d3d3; stroke: #d3d3d3"/>
     <use xlink:href="#mc7578128a2" x="139.011024" y="214.554331" style="fill: #d3d3d3; stroke: #d3d3d3"/>
     <use xlink:href="#mc7578128a2" x="139.011024" y="120.041637" style="fill: #d3d3d3; stroke: #d3d3d3"/>
     <use xlink:href="#mc7578128a2" x="139.011024" y="72.78529" style="fill: #d3d3d3; stroke: #d3d3d3"/>
     <use xlink:href="#mc7578128a2" x="198.925125" y="214.554331" style="fill: #d3d3d3; stroke: #d3d3d3"/>
     <use xlink:href="#mc7578128a2" x="198.925125" y="214.554331" style="fill: #d3d3d3; stroke: #d3d3d3"/>
     <use xlink:href="#mc7578128a2" x="198.925125" y="214.554331" style="fill: #d3d3d3; stroke: #d3d3d3"/>
     <use xlink:href="#mc7578128a2" x="210.907946" y="214.554331" style="fill: #d3d3d3; stroke: #d3d3d3"/>
     <use xlink:href="#mc7578128a2" x="91.079742" y="101.139098" style="fill: #d3d3d3; stroke: #d3d3d3"/>
     <use xlink:href="#mc7578128a2" x="99.068289" y="214.554331" style="fill: #d3d3d3; stroke: #d3d3d3"/>
     <use xlink:href="#mc7578128a2" x="99.068289" y="214.554331" style="fill: #d3d3d3; stroke: #d3d3d3"/>
     <use xlink:href="#mc7578128a2" x="109.053973" y="167.297984" style="fill: #d3d3d3; stroke: #d3d3d3"/>
     <use xlink:href="#mc7578128a2" x="139.011024" y="176.749253" style="fill: #d3d3d3; stroke: #d3d3d3"/>
     <use xlink:href="#mc7578128a2" x="79.096922" y="214.554331" style="fill: #d3d3d3; stroke: #d3d3d3"/>
     <use xlink:href="#mc7578128a2" x="79.096922" y="214.554331" style="fill: #d3d3d3; stroke: #d3d3d3"/>
     <use xlink:href="#mc7578128a2" x="115.045383" y="214.554331" style="fill: #d3d3d3; stroke: #d3d3d3"/>
     <use xlink:href="#mc7578128a2" x="113.784033" y="65.323762" style="fill: #d3d3d3; stroke: #d3d3d3"/>
     <use xlink:href="#mc7578128a2" x="208.385247" y="214.554331" style="fill: #d3d3d3; stroke: #d3d3d3"/>
     <use xlink:href="#mc7578128a2" x="102.140807" y="200.013916" style="fill: #d3d3d3; stroke: #d3d3d3"/>
    </g>
   </g>
   <g id="PathCollection_3">
    <defs>
     <path id="m9a92eed447" d="M 0 -5 
L -1.12257 -1.545085 
L -4.755283 -1.545085 
L -1.816356 0.59017 
L -2.938926 4.045085 
L -0 1.90983 
L 2.938926 4.045085 
L 1.816356 0.59017 
L 4.755283 -1.545085 
L 1.12257 -1.545085 
z
" style="stroke: #0000ff"/>
    </defs>
    <g clip-path="url(#pd26fbf664a)">
     <use xlink:href="#m9a92eed447" x="102.140807" y="200.013916" style="fill: #0000ff; stroke: #0000ff"/>
    </g>
   </g>
   <g id="text_1">
    <!-- $\mathrm{AlNi}$ -->
    <g transform="translate(78.965104 117.014949) scale(0.1 -0.1)">
     <defs>
      <path id="DejaVuSans-41" d="M 2188 4044 
L 1331 1722 
L 3047 1722 
L 2188 4044 
z
M 1831 4666 
L 2547 4666 
L 4325 0 
L 3669 0 
L 3244 1197 
L 1141 1197 
L 716 0 
L 50 0 
L 1831 4666 
z
" transform="scale(0.015625)"/>
      <path id="DejaVuSans-6c" d="M 603 4863 
L 1178 4863 
L 1178 0 
L 603 0 
L 603 4863 
z
" transform="scale(0.015625)"/>
      <path id="DejaVuSans-4e" d="M 628 4666 
L 1478 4666 
L 3547 763 
L 3547 4666 
L 4159 4666 
L 4159 0 
L 3309 0 
L 1241 3903 
L 1241 0 
L 628 0 
L 628 4666 
z
" transform="scale(0.015625)"/>
      <path id="DejaVuSans-69" d="M 603 3500 
L 1178 3500 
L 1178 0 
L 603 0 
L 603 3500 
z
M 603 4863 
L 1178 4863 
L 1178 4134 
L 603 4134 
L 603 4863 
z
" transform="scale(0.015625)"/>
     </defs>
     <use xlink:href="#DejaVuSans-41" transform="translate(0 0.015625)"/>
     <use xlink:href="#DejaVuSans-6c" transform="translate(68.408203 0.015625)"/>
     <use xlink:href="#DejaVuSans-4e" transform="translate(96.191406 0.015625)"/>
     <use xlink:href="#DejaVuSans-69" transform="translate(170.996094 0.015625)"/>
    </g>
   </g>
   <g id="text_2">
    <!-- $\mathrm{AlCu_{3}}$ -->
    <g transform="translate(204.661489 210.594971) scale(0.1 -0.1)">
     <defs>
      <path id="DejaVuSans-43" d="M 4122 4306 
L 4122 3641 
Q 3803 3938 3442 4084 
Q 3081 4231 2675 4231 
Q 1875 4231 1450 3742 
Q 1025 3253 1025 2328 
Q 1025 1406 1450 917 
Q 1875 428 2675 428 
Q 3081 428 3442 575 
Q 3803 722 4122 1019 
L 4122 359 
Q 3791 134 3420 21 
Q 3050 -91 2638 -91 
Q 1578 -91 968 557 
Q 359 1206 359 2328 
Q 359 3453 968 4101 
Q 1578 4750 2638 4750 
Q 3056 4750 3426 4639 
Q 3797 4528 4122 4306 
z
" transform="scale(0.015625)"/>
      <path id="DejaVuSans-75" d="M 544 1381 
L 544 3500 
L 1119 3500 
L 1119 1403 
Q 1119 906 1312 657 
Q 1506 409 1894 409 
Q 2359 409 2629 706 
Q 2900 1003 2900 1516 
L 2900 3500 
L 3475 3500 
L 3475 0 
L 2900 0 
L 2900 538 
Q 2691 219 2414 64 
Q 2138 -91 1772 -91 
Q 1169 -91 856 284 
Q 544 659 544 1381 
z
M 1991 3584 
L 1991 3584 
z
" transform="scale(0.015625)"/>
      <path id="DejaVuSans-33" d="M 2597 2516 
Q 3050 2419 3304 2112 
Q 3559 1806 3559 1356 
Q 3559 666 3084 287 
Q 2609 -91 1734 -91 
Q 1441 -91 1130 -33 
Q 819 25 488 141 
L 488 750 
Q 750 597 1062 519 
Q 1375 441 1716 441 
Q 2309 441 2620 675 
Q 2931 909 2931 1356 
Q 2931 1769 2642 2001 
Q 2353 2234 1838 2234 
L 1294 2234 
L 1294 2753 
L 1863 2753 
Q 2328 2753 2575 2939 
Q 2822 3125 2822 3475 
Q 2822 3834 2567 4026 
Q 2313 4219 1838 4219 
Q 1578 4219 1281 4162 
Q 984 4106 628 3988 
L 628 4550 
Q 988 4650 1302 4700 
Q 1616 4750 1894 4750 
Q 2613 4750 3031 4423 
Q 3450 4097 3450 3541 
Q 3450 3153 3228 2886 
Q 3006 2619 2597 2516 
z
" transform="scale(0.015625)"/>
     </defs>
     <use xlink:href="#DejaVuSans-41" transform="translate(0 0.015625)"/>
     <use xlink:href="#DejaVuSans-6c" transform="translate(68.408203 0.015625)"/>
     <use xlink:href="#DejaVuSans-43" transform="translate(96.191406 0.015625)"/>
     <use xlink:href="#DejaVuSans-75" transform="translate(166.015625 0.015625)"/>
     <use xlink:href="#DejaVuSans-33" transform="translate(230.351562 -16.390625) scale(0.7)"/>
    </g>
   </g>
   <g id="text_3">
    <!-- $\mathrm{Al_{3}Ni_{2}}$ -->
    <g transform="translate(43.805011 148.515597) scale(0.1 -0.1)">
     <defs>
      <path id="DejaVuSans-32" d="M 1228 531 
L 3431 531 
L 3431 0 
L 469 0 
L 469 531 
Q 828 903 1448 1529 
Q 2069 2156 2228 2338 
Q 2531 2678 2651 2914 
Q 2772 3150 2772 3378 
Q 2772 3750 2511 3984 
Q 2250 4219 1831 4219 
Q 1534 4219 1204 4116 
Q 875 4013 500 3803 
L 500 4441 
Q 881 4594 1212 4672 
Q 1544 4750 1819 4750 
Q 2544 4750 2975 4387 
Q 3406 4025 3406 3419 
Q 3406 3131 3298 2873 
Q 3191 2616 2906 2266 
Q 2828 2175 2409 1742 
Q 1991 1309 1228 531 
z
" transform="scale(0.015625)"/>
     </defs>
     <use xlink:href="#DejaVuSans-41" transform="translate(0 0.015625)"/>
     <use xlink:href="#DejaVuSans-6c" transform="translate(68.408203 0.015625)"/>
     <use xlink:href="#DejaVuSans-33" transform="translate(97.148438 -16.390625) scale(0.7)"/>
     <use xlink:href="#DejaVuSans-4e" transform="translate(144.418945 0.015625)"/>
     <use xlink:href="#DejaVuSans-69" transform="translate(219.223633 0.015625)"/>
     <use xlink:href="#DejaVuSans-32" transform="translate(247.963867 -16.390625) scale(0.7)"/>
    </g>
   </g>
   <g id="text_4">
    <!-- $\mathrm{Al_{4}Cu_{9}}$ -->
    <g transform="translate(172.071521 210.594971) scale(0.1 -0.1)">
     <defs>
      <path id="DejaVuSans-34" d="M 2419 4116 
L 825 1625 
L 2419 1625 
L 2419 4116 
z
M 2253 4666 
L 3047 4666 
L 3047 1625 
L 3713 1625 
L 3713 1100 
L 3047 1100 
L 3047 0 
L 2419 0 
L 2419 1100 
L 313 1100 
L 313 1709 
L 2253 4666 
z
" transform="scale(0.015625)"/>
      <path id="DejaVuSans-39" d="M 703 97 
L 703 672 
Q 941 559 1184 500 
Q 1428 441 1663 441 
Q 2288 441 2617 861 
Q 2947 1281 2994 2138 
Q 2813 1869 2534 1725 
Q 2256 1581 1919 1581 
Q 1219 1581 811 2004 
Q 403 2428 403 3163 
Q 403 3881 828 4315 
Q 1253 4750 1959 4750 
Q 2769 4750 3195 4129 
Q 3622 3509 3622 2328 
Q 3622 1225 3098 567 
Q 2575 -91 1691 -91 
Q 1453 -91 1209 -44 
Q 966 3 703 97 
z
M 1959 2075 
Q 2384 2075 2632 2365 
Q 2881 2656 2881 3163 
Q 2881 3666 2632 3958 
Q 2384 4250 1959 4250 
Q 1534 4250 1286 3958 
Q 1038 3666 1038 3163 
Q 1038 2656 1286 2365 
Q 1534 2075 1959 2075 
z
" transform="scale(0.015625)"/>
     </defs>
     <use xlink:href="#DejaVuSans-41" transform="translate(0 0.015625)"/>
     <use xlink:href="#DejaVuSans-6c" transform="translate(68.408203 0.015625)"/>
     <use xlink:href="#DejaVuSans-34" transform="translate(97.148438 -16.390625) scale(0.7)"/>
     <use xlink:href="#DejaVuSans-43" transform="translate(144.418945 0.015625)"/>
     <use xlink:href="#DejaVuSans-75" transform="translate(214.243164 0.015625)"/>
     <use xlink:href="#DejaVuSans-39" transform="translate(278.579102 -16.390625) scale(0.7)"/>
    </g>
   </g>
   <g id="text_5">
    <!-- $\mathrm{AlNi_{3}}$ -->
    <g transform="translate(88.799427 82.356711) scale(0.1 -0.1)">
     <use xlink:href="#DejaVuSans-41" transform="translate(0 0.015625)"/>
     <use xlink:href="#DejaVuSans-6c" transform="translate(68.408203 0.015625)"/>
     <use xlink:href="#DejaVuSans-4e" transform="translate(96.191406 0.015625)"/>
     <use xlink:href="#DejaVuSans-69" transform="translate(170.996094 0.015625)"/>
     <use xlink:href="#DejaVuSans-33" transform="translate(199.736328 -16.390625) scale(0.7)"/>
    </g>
   </g>
   <g id="text_6">
    <!-- $\mathrm{Ni}$ -->
    <g transform="translate(131.897387 34.037713) scale(0.1 -0.1)">
     <use xlink:href="#DejaVuSans-4e" transform="translate(0 0.015625)"/>
     <use xlink:href="#DejaVuSans-69" transform="translate(74.804688 0.015625)"/>
    </g>
   </g>
   <g id="text_7">
    <!-- $\mathrm{Al_{4}Ni_{3}}$ -->
    <g transform="translate(70.278761 131.267644) scale(0.1 -0.1)">
     <use xlink:href="#DejaVuSans-41" transform="translate(0 0.015625)"/>
     <use xlink:href="#DejaVuSans-6c" transform="translate(68.408203 0.015625)"/>
     <use xlink:href="#DejaVuSans-34" transform="translate(97.148438 -16.390625) scale(0.7)"/>
     <use xlink:href="#DejaVuSans-4e" transform="translate(144.418945 0.015625)"/>
     <use xlink:href="#DejaVuSans-69" transform="translate(219.223633 0.015625)"/>
     <use xlink:href="#DejaVuSans-33" transform="translate(247.963867 -16.390625) scale(0.7)"/>
    </g>
   </g>
   <g id="text_8">
    <!-- $\mathrm{Cu}$ -->
    <g transform="translate(245.859482 211.527642) scale(0.1 -0.1)">
     <use xlink:href="#DejaVuSans-43" transform="translate(0 0.78125)"/>
     <use xlink:href="#DejaVuSans-75" transform="translate(69.824219 0.78125)"/>
    </g>
   </g>
   <g id="text_9">
    <!-- $\mathrm{Al_{3}Ni_{5}}$ -->
    <g transform="translate(65.529993 102.867193) scale(0.1 -0.1)">
     <defs>
      <path id="DejaVuSans-35" d="M 691 4666 
L 3169 4666 
L 3169 4134 
L 1269 4134 
L 1269 2991 
Q 1406 3038 1543 3061 
Q 1681 3084 1819 3084 
Q 2600 3084 3056 2656 
Q 3513 2228 3513 1497 
Q 3513 744 3044 326 
Q 2575 -91 1722 -91 
Q 1428 -91 1123 -41 
Q 819 9 494 109 
L 494 744 
Q 775 591 1075 516 
Q 1375 441 1709 441 
Q 2250 441 2565 725 
Q 2881 1009 2881 1497 
Q 2881 1984 2565 2268 
Q 2250 2553 1709 2553 
Q 1456 2553 1204 2497 
Q 953 2441 691 2322 
L 691 4666 
z
" transform="scale(0.015625)"/>
     </defs>
     <use xlink:href="#DejaVuSans-41" transform="translate(0 0.015625)"/>
     <use xlink:href="#DejaVuSans-6c" transform="translate(68.408203 0.015625)"/>
     <use xlink:href="#DejaVuSans-33" transform="translate(97.148438 -16.390625) scale(0.7)"/>
     <use xlink:href="#DejaVuSans-4e" transform="translate(144.418945 0.015625)"/>
     <use xlink:href="#DejaVuSans-69" transform="translate(219.223633 0.015625)"/>
     <use xlink:href="#DejaVuSans-35" transform="translate(247.963867 -16.390625) scale(0.7)"/>
    </g>
   </g>
   <g id="text_10">
    <!-- $\mathrm{Al_{2}Cu}$ -->
    <g transform="translate(92.061037 210.544971) scale(0.1 -0.1)">
     <use xlink:href="#DejaVuSans-41" transform="translate(0 0.015625)"/>
     <use xlink:href="#DejaVuSans-6c" transform="translate(68.408203 0.015625)"/>
     <use xlink:href="#DejaVuSans-32" transform="translate(97.148438 -16.390625) scale(0.7)"/>
     <use xlink:href="#DejaVuSans-43" transform="translate(144.418945 0.015625)"/>
     <use xlink:href="#DejaVuSans-75" transform="translate(214.243164 0.015625)"/>
    </g>
   </g>
   <g id="text_11">
    <!-- $\mathrm{Al_{3}Ni}$ -->
    <g transform="translate(28.885326 176.869405) scale(0.1 -0.1)">
     <use xlink:href="#DejaVuSans-41" transform="translate(0 0.015625)"/>
     <use xlink:href="#DejaVuSans-6c" transform="translate(68.408203 0.015625)"/>
     <use xlink:href="#DejaVuSans-33" transform="translate(97.148438 -16.390625) scale(0.7)"/>
     <use xlink:href="#DejaVuSans-4e" transform="translate(144.418945 0.015625)"/>
     <use xlink:href="#DejaVuSans-69" transform="translate(219.223633 0.015625)"/>
    </g>
   </g>
   <g id="text_12">
    <!-- $\mathrm{AlCu}$ -->
    <g transform="translate(132.092842 211.215873) scale(0.1 -0.1)">
     <use xlink:href="#DejaVuSans-41" transform="translate(0 0.015625)"/>
     <use xlink:href="#DejaVuSans-6c" transform="translate(68.408203 0.015625)"/>
     <use xlink:href="#DejaVuSans-43" transform="translate(96.191406 0.015625)"/>
     <use xlink:href="#DejaVuSans-75" transform="translate(166.015625 0.015625)"/>
    </g>
   </g>
   <g id="text_13">
    <!-- $\mathrm{Al}$ -->
    <g transform="translate(19.586902 211.839411) scale(0.1 -0.1)">
     <use xlink:href="#DejaVuSans-41" transform="translate(0 0.015625)"/>
     <use xlink:href="#DejaVuSans-6c" transform="translate(68.408203 0.015625)"/>
    </g>
   </g>
   <g id="text_14">
    <!-- $\mathrm{Al_{8}Cu_{4}Ni}$ -->
    <g style="fill: #0000ff" transform="translate(94.39622 195.867495) scale(0.1 -0.1)">
     <defs>
      <path id="DejaVuSans-38" d="M 2034 2216 
Q 1584 2216 1326 1975 
Q 1069 1734 1069 1313 
Q 1069 891 1326 650 
Q 1584 409 2034 409 
Q 2484 409 2743 651 
Q 3003 894 3003 1313 
Q 3003 1734 2745 1975 
Q 2488 2216 2034 2216 
z
M 1403 2484 
Q 997 2584 770 2862 
Q 544 3141 544 3541 
Q 544 4100 942 4425 
Q 1341 4750 2034 4750 
Q 2731 4750 3128 4425 
Q 3525 4100 3525 3541 
Q 3525 3141 3298 2862 
Q 3072 2584 2669 2484 
Q 3125 2378 3379 2068 
Q 3634 1759 3634 1313 
Q 3634 634 3220 271 
Q 2806 -91 2034 -91 
Q 1263 -91 848 271 
Q 434 634 434 1313 
Q 434 1759 690 2068 
Q 947 2378 1403 2484 
z
M 1172 3481 
Q 1172 3119 1398 2916 
Q 1625 2713 2034 2713 
Q 2441 2713 2670 2916 
Q 2900 3119 2900 3481 
Q 2900 3844 2670 4047 
Q 2441 4250 2034 4250 
Q 1625 4250 1398 4047 
Q 1172 3844 1172 3481 
z
" transform="scale(0.015625)"/>
     </defs>
     <use xlink:href="#DejaVuSans-41" transform="translate(0 0.015625)"/>
     <use xlink:href="#DejaVuSans-6c" transform="translate(68.408203 0.015625)"/>
     <use xlink:href="#DejaVuSans-38" transform="translate(97.148438 -16.390625) scale(0.7)"/>
     <use xlink:href="#DejaVuSans-43" transform="translate(144.418945 0.015625)"/>
     <use xlink:href="#DejaVuSans-75" transform="translate(214.243164 0.015625)"/>
     <use xlink:href="#DejaVuSans-34" transform="translate(278.579102 -16.390625) scale(0.7)"/>
     <use xlink:href="#DejaVuSans-4e" transform="translate(325.849609 0.015625)"/>
     <use xlink:href="#DejaVuSans-69" transform="translate(400.654297 0.015625)"/>
    </g>
   </g>
  </g>
  <g id="axes_2">
   <g id="patch_3">
    <path d="M 287.298425 195.703937 
L 296.029134 195.703937 
L 296.029134 36.96378 
L 287.298425 36.96378 
L 287.298425 195.703937 
z
" style="fill: none"/>
   </g>
   <g id="patch_4">
    <path d="M 287.298425 195.703937 
L 291.66378 203.640945 
L 296.029134 195.703937 
" style="fill: #440154; opacity: 0.7"/>
   </g>
   <g id="patch_5">
    <path d="M 287.298425 36.96378 
L 291.66378 29.026772 
L 296.029134 36.96378 
" style="fill: #fde725; opacity: 0.7"/>
   </g>
   <g id="QuadMesh_1">
    <path d="M 287.298425 195.703937 
L 296.029134 195.703937 
L 296.029134 191.924409 
L 287.298425 191.924409 
L 287.298425 195.703937 
" clip-path="url(#p435accb961)" style="fill: #450559; fill-opacity: 0.7"/>
    <path d="M 287.298425 191.924409 
L 296.029134 191.924409 
L 296.029134 188.144882 
L 287.298425 188.144882 
L 287.298425 191.924409 
" clip-path="url(#p435accb961)" style="fill: #470e61; fill-opacity: 0.7"/>
    <path d="M 287.298425 188.144882 
L 296.029134 188.144882 
L 296.029134 184.365354 
L 287.298425 184.365354 
L 287.298425 188.144882 
" clip-path="url(#p435accb961)" style="fill: #481769; fill-opacity: 0.7"/>
    <path d="M 287.298425 184.365354 
L 296.029134 184.365354 
L 296.029134 180.585827 
L 287.298425 180.585827 
L 287.298425 184.365354 
" clip-path="url(#p435accb961)" style="fill: #481f70; fill-opacity: 0.7"/>
    <path d="M 287.298425 180.585827 
L 296.029134 180.585827 
L 296.029134 176.806299 
L 287.298425 176.806299 
L 287.298425 180.585827 
" clip-path="url(#p435accb961)" style="fill: #482677; fill-opacity: 0.7"/>
    <path d="M 287.298425 176.806299 
L 296.029134 176.806299 
L 296.029134 173.026772 
L 287.298425 173.026772 
L 287.298425 176.806299 
" clip-path="url(#p435accb961)" style="fill: #472e7c; fill-opacity: 0.7"/>
    <path d="M 287.298425 173.026772 
L 296.029134 173.026772 
L 296.029134 169.247244 
L 287.298425 169.247244 
L 287.298425 173.026772 
" clip-path="url(#p435accb961)" style="fill: #453581; fill-opacity: 0.7"/>
    <path d="M 287.298425 169.247244 
L 296.029134 169.247244 
L 296.029134 165.467717 
L 287.298425 165.467717 
L 287.298425 169.247244 
" clip-path="url(#p435accb961)" style="fill: #433d84; fill-opacity: 0.7"/>
    <path d="M 287.298425 165.467717 
L 296.029134 165.467717 
L 296.029134 161.688189 
L 287.298425 161.688189 
L 287.298425 165.467717 
" clip-path="url(#p435accb961)" style="fill: #414487; fill-opacity: 0.7"/>
    <path d="M 287.298425 161.688189 
L 296.029134 161.688189 
L 296.029134 157.908661 
L 287.298425 157.908661 
L 287.298425 161.688189 
" clip-path="url(#p435accb961)" style="fill: #3e4a89; fill-opacity: 0.7"/>
    <path d="M 287.298425 157.908661 
L 296.029134 157.908661 
L 296.029134 154.129134 
L 287.298425 154.129134 
L 287.298425 157.908661 
" clip-path="url(#p435accb961)" style="fill: #3b518b; fill-opacity: 0.7"/>
    <path d="M 287.298425 154.129134 
L 296.029134 154.129134 
L 296.029134 150.349606 
L 287.298425 150.349606 
L 287.298425 154.129134 
" clip-path="url(#p435accb961)" style="fill: #38598c; fill-opacity: 0.7"/>
    <path d="M 287.298425 150.349606 
L 296.029134 150.349606 
L 296.029134 146.570079 
L 287.298425 146.570079 
L 287.298425 150.349606 
" clip-path="url(#p435accb961)" style="fill: #355f8d; fill-opacity: 0.7"/>
    <path d="M 287.298425 146.570079 
L 296.029134 146.570079 
L 296.029134 142.790551 
L 287.298425 142.790551 
L 287.298425 146.570079 
" clip-path="url(#p435accb961)" style="fill: #32658e; fill-opacity: 0.7"/>
    <path d="M 287.298425 142.790551 
L 296.029134 142.790551 
L 296.029134 139.011024 
L 287.298425 139.011024 
L 287.298425 142.790551 
" clip-path="url(#p435accb961)" style="fill: #2f6b8e; fill-opacity: 0.7"/>
    <path d="M 287.298425 139.011024 
L 296.029134 139.011024 
L 296.029134 135.231496 
L 287.298425 135.231496 
L 287.298425 139.011024 
" clip-path="url(#p435accb961)" style="fill: #2d718e; fill-opacity: 0.7"/>
    <path d="M 287.298425 135.231496 
L 296.029134 135.231496 
L 296.029134 131.451969 
L 287.298425 131.451969 
L 287.298425 135.231496 
" clip-path="url(#p435accb961)" style="fill: #2a768e; fill-opacity: 0.7"/>
    <path d="M 287.298425 131.451969 
L 296.029134 131.451969 
L 296.029134 127.672441 
L 287.298425 127.672441 
L 287.298425 131.451969 
" clip-path="url(#p435accb961)" style="fill: #287c8e; fill-opacity: 0.7"/>
    <path d="M 287.298425 127.672441 
L 296.029134 127.672441 
L 296.029134 123.892913 
L 287.298425 123.892913 
L 287.298425 127.672441 
" clip-path="url(#p435accb961)" style="fill: #26828e; fill-opacity: 0.7"/>
    <path d="M 287.298425 123.892913 
L 296.029134 123.892913 
L 296.029134 120.113386 
L 287.298425 120.113386 
L 287.298425 123.892913 
" clip-path="url(#p435accb961)" style="fill: #24878e; fill-opacity: 0.7"/>
    <path d="M 287.298425 120.113386 
L 296.029134 120.113386 
L 296.029134 116.333858 
L 287.298425 116.333858 
L 287.298425 120.113386 
" clip-path="url(#p435accb961)" style="fill: #228d8d; fill-opacity: 0.7"/>
    <path d="M 287.298425 116.333858 
L 296.029134 116.333858 
L 296.029134 112.554331 
L 287.298425 112.554331 
L 287.298425 116.333858 
" clip-path="url(#p435accb961)" style="fill: #20938c; fill-opacity: 0.7"/>
    <path d="M 287.298425 112.554331 
L 296.029134 112.554331 
L 296.029134 108.774803 
L 287.298425 108.774803 
L 287.298425 112.554331 
" clip-path="url(#p435accb961)" style="fill: #1f998a; fill-opacity: 0.7"/>
    <path d="M 287.298425 108.774803 
L 296.029134 108.774803 
L 296.029134 104.995276 
L 287.298425 104.995276 
L 287.298425 108.774803 
" clip-path="url(#p435accb961)" style="fill: #1f9f88; fill-opacity: 0.7"/>
    <path d="M 287.298425 104.995276 
L 296.029134 104.995276 
L 296.029134 101.215748 
L 287.298425 101.215748 
L 287.298425 104.995276 
" clip-path="url(#p435accb961)" style="fill: #20a486; fill-opacity: 0.7"/>
    <path d="M 287.298425 101.215748 
L 296.029134 101.215748 
L 296.029134 97.43622 
L 287.298425 97.43622 
L 287.298425 101.215748 
" clip-path="url(#p435accb961)" style="fill: #24aa83; fill-opacity: 0.7"/>
    <path d="M 287.298425 97.43622 
L 296.029134 97.43622 
L 296.029134 93.656693 
L 287.298425 93.656693 
L 287.298425 97.43622 
" clip-path="url(#p435accb961)" style="fill: #29af7f; fill-opacity: 0.7"/>
    <path d="M 287.298425 93.656693 
L 296.029134 93.656693 
L 296.029134 89.877165 
L 287.298425 89.877165 
L 287.298425 93.656693 
" clip-path="url(#p435accb961)" style="fill: #31b57b; fill-opacity: 0.7"/>
    <path d="M 287.298425 89.877165 
L 296.029134 89.877165 
L 296.029134 86.097638 
L 287.298425 86.097638 
L 287.298425 89.877165 
" clip-path="url(#p435accb961)" style="fill: #3aba76; fill-opacity: 0.7"/>
    <path d="M 287.298425 86.097638 
L 296.029134 86.097638 
L 296.029134 82.31811 
L 287.298425 82.31811 
L 287.298425 86.097638 
" clip-path="url(#p435accb961)" style="fill: #44bf70; fill-opacity: 0.7"/>
    <path d="M 287.298425 82.31811 
L 296.029134 82.31811 
L 296.029134 78.538583 
L 287.298425 78.538583 
L 287.298425 82.31811 
" clip-path="url(#p435accb961)" style="fill: #50c46a; fill-opacity: 0.7"/>
    <path d="M 287.298425 78.538583 
L 296.029134 78.538583 
L 296.029134 74.759055 
L 287.298425 74.759055 
L 287.298425 78.538583 
" clip-path="url(#p435accb961)" style="fill: #5ec962; fill-opacity: 0.7"/>
    <path d="M 287.298425 74.759055 
L 296.029134 74.759055 
L 296.029134 70.979528 
L 287.298425 70.979528 
L 287.298425 74.759055 
" clip-path="url(#p435accb961)" style="fill: #6ccd5a; fill-opacity: 0.7"/>
    <path d="M 287.298425 70.979528 
L 296.029134 70.979528 
L 296.029134 67.2 
L 287.298425 67.2 
L 287.298425 70.979528 
" clip-path="url(#p435accb961)" style="fill: #7ad151; fill-opacity: 0.7"/>
    <path d="M 287.298425 67.2 
L 296.029134 67.2 
L 296.029134 63.420472 
L 287.298425 63.420472 
L 287.298425 67.2 
" clip-path="url(#p435accb961)" style="fill: #89d548; fill-opacity: 0.7"/>
    <path d="M 287.298425 63.420472 
L 296.029134 63.420472 
L 296.029134 59.640945 
L 287.298425 59.640945 
L 287.298425 63.420472 
" clip-path="url(#p435accb961)" style="fill: #98d83e; fill-opacity: 0.7"/>
    <path d="M 287.298425 59.640945 
L 296.029134 59.640945 
L 296.029134 55.861417 
L 287.298425 55.861417 
L 287.298425 59.640945 
" clip-path="url(#p435accb961)" style="fill: #a8db34; fill-opacity: 0.7"/>
    <path d="M 287.298425 55.861417 
L 296.029134 55.861417 
L 296.029134 52.08189 
L 287.298425 52.08189 
L 287.298425 55.861417 
" clip-path="url(#p435accb961)" style="fill: #b8de29; fill-opacity: 0.7"/>
    <path d="M 287.298425 52.08189 
L 296.029134 52.08189 
L 296.029134 48.302362 
L 287.298425 48.302362 
L 287.298425 52.08189 
" clip-path="url(#p435accb961)" style="fill: #c8e020; fill-opacity: 0.7"/>
    <path d="M 287.298425 48.302362 
L 296.029134 48.302362 
L 296.029134 44.522835 
L 287.298425 44.522835 
L 287.298425 48.302362 
" clip-path="url(#p435accb961)" style="fill: #d8e219; fill-opacity: 0.7"/>
    <path d="M 287.298425 44.522835 
L 296.029134 44.522835 
L 296.029134 40.743307 
L 287.298425 40.743307 
L 287.298425 44.522835 
" clip-path="url(#p435accb961)" style="fill: #e7e419; fill-opacity: 0.7"/>
    <path d="M 287.298425 40.743307 
L 296.029134 40.743307 
L 296.029134 36.96378 
L 287.298425 36.96378 
L 287.298425 40.743307 
" clip-path="url(#p435accb961)" style="fill: #f6e620; fill-opacity: 0.7"/>
   </g>
   <g id="matplotlib.axis_3"/>
   <g id="matplotlib.axis_4">
    <g id="ytick_1">
     <g id="line2d_24">
      <defs>
       <path id="md0bc9ffaa3" d="M 0 0 
L -2 0 
" style="stroke: #000000; stroke-width: 0.3"/>
      </defs>
      <g>
       <use xlink:href="#md0bc9ffaa3" x="296.029134" y="188.144882" style="stroke: #000000; stroke-width: 0.3"/>
      </g>
     </g>
     <g id="text_15">
      <!-- 0.615 -->
      <g transform="translate(299.529134 191.008007) scale(0.08 -0.08)">
       <defs>
        <path id="ArialMT-2212" d="M 3381 1997 
L 356 1997 
L 356 2522 
L 3381 2522 
L 3381 1997 
z
" transform="scale(0.015625)"/>
        <path id="ArialMT-30" d="M 266 2259 
Q 266 3072 433 3567 
Q 600 4063 929 4331 
Q 1259 4600 1759 4600 
Q 2128 4600 2406 4451 
Q 2684 4303 2865 4023 
Q 3047 3744 3150 3342 
Q 3253 2941 3253 2259 
Q 3253 1453 3087 958 
Q 2922 463 2592 192 
Q 2263 -78 1759 -78 
Q 1097 -78 719 397 
Q 266 969 266 2259 
z
M 844 2259 
Q 844 1131 1108 757 
Q 1372 384 1759 384 
Q 2147 384 2411 759 
Q 2675 1134 2675 2259 
Q 2675 3391 2411 3762 
Q 2147 4134 1753 4134 
Q 1366 4134 1134 3806 
Q 844 3388 844 2259 
z
" transform="scale(0.015625)"/>
        <path id="ArialMT-2e" d="M 581 0 
L 581 641 
L 1222 641 
L 1222 0 
L 581 0 
z
" transform="scale(0.015625)"/>
        <path id="ArialMT-36" d="M 3184 3459 
L 2625 3416 
Q 2550 3747 2413 3897 
Q 2184 4138 1850 4138 
Q 1581 4138 1378 3988 
Q 1113 3794 959 3422 
Q 806 3050 800 2363 
Q 1003 2672 1297 2822 
Q 1591 2972 1913 2972 
Q 2475 2972 2870 2558 
Q 3266 2144 3266 1488 
Q 3266 1056 3080 686 
Q 2894 316 2569 119 
Q 2244 -78 1831 -78 
Q 1128 -78 684 439 
Q 241 956 241 2144 
Q 241 3472 731 4075 
Q 1159 4600 1884 4600 
Q 2425 4600 2770 4297 
Q 3116 3994 3184 3459 
z
M 888 1484 
Q 888 1194 1011 928 
Q 1134 663 1356 523 
Q 1578 384 1822 384 
Q 2178 384 2434 671 
Q 2691 959 2691 1453 
Q 2691 1928 2437 2201 
Q 2184 2475 1800 2475 
Q 1419 2475 1153 2201 
Q 888 1928 888 1484 
z
" transform="scale(0.015625)"/>
        <path id="ArialMT-31" d="M 2384 0 
L 1822 0 
L 1822 3584 
Q 1619 3391 1289 3197 
Q 959 3003 697 2906 
L 697 3450 
Q 1169 3672 1522 3987 
Q 1875 4303 2022 4600 
L 2384 4600 
L 2384 0 
z
" transform="scale(0.015625)"/>
        <path id="ArialMT-35" d="M 266 1200 
L 856 1250 
Q 922 819 1161 601 
Q 1400 384 1738 384 
Q 2144 384 2425 690 
Q 2706 997 2706 1503 
Q 2706 1984 2436 2262 
Q 2166 2541 1728 2541 
Q 1456 2541 1237 2417 
Q 1019 2294 894 2097 
L 366 2166 
L 809 4519 
L 3088 4519 
L 3088 3981 
L 1259 3981 
L 1013 2750 
Q 1425 3038 1878 3038 
Q 2478 3038 2890 2622 
Q 3303 2206 3303 1553 
Q 3303 931 2941 478 
Q 2500 -78 1738 -78 
Q 1113 -78 717 272 
Q 322 622 266 1200 
z
" transform="scale(0.015625)"/>
       </defs>
       <use xlink:href="#ArialMT-2212"/>
       <use xlink:href="#ArialMT-30" transform="translate(58.398438 0)"/>
       <use xlink:href="#ArialMT-2e" transform="translate(114.013672 0)"/>
       <use xlink:href="#ArialMT-36" transform="translate(141.796875 0)"/>
       <use xlink:href="#ArialMT-31" transform="translate(197.412109 0)"/>
       <use xlink:href="#ArialMT-35" transform="translate(253.027344 0)"/>
      </g>
     </g>
    </g>
    <g id="ytick_2">
     <g id="line2d_25">
      <g>
       <use xlink:href="#md0bc9ffaa3" x="296.029134" y="169.247244" style="stroke: #000000; stroke-width: 0.3"/>
      </g>
     </g>
     <g id="text_16">
      <!-- 0.540 -->
      <g transform="translate(299.529134 172.110369) scale(0.08 -0.08)">
       <defs>
        <path id="ArialMT-34" d="M 2069 0 
L 2069 1097 
L 81 1097 
L 81 1613 
L 2172 4581 
L 2631 4581 
L 2631 1613 
L 3250 1613 
L 3250 1097 
L 2631 1097 
L 2631 0 
L 2069 0 
z
M 2069 1613 
L 2069 3678 
L 634 1613 
L 2069 1613 
z
" transform="scale(0.015625)"/>
       </defs>
       <use xlink:href="#ArialMT-2212"/>
       <use xlink:href="#ArialMT-30" transform="translate(58.398438 0)"/>
       <use xlink:href="#ArialMT-2e" transform="translate(114.013672 0)"/>
       <use xlink:href="#ArialMT-35" transform="translate(141.796875 0)"/>
       <use xlink:href="#ArialMT-34" transform="translate(197.412109 0)"/>
       <use xlink:href="#ArialMT-30" transform="translate(253.027344 0)"/>
      </g>
     </g>
    </g>
    <g id="ytick_3">
     <g id="line2d_26">
      <g>
       <use xlink:href="#md0bc9ffaa3" x="296.029134" y="150.349606" style="stroke: #000000; stroke-width: 0.3"/>
      </g>
     </g>
     <g id="text_17">
      <!-- 0.465 -->
      <g transform="translate(299.529134 153.212731) scale(0.08 -0.08)">
       <use xlink:href="#ArialMT-2212"/>
       <use xlink:href="#ArialMT-30" transform="translate(58.398438 0)"/>
       <use xlink:href="#ArialMT-2e" transform="translate(114.013672 0)"/>
       <use xlink:href="#ArialMT-34" transform="translate(141.796875 0)"/>
       <use xlink:href="#ArialMT-36" transform="translate(197.412109 0)"/>
       <use xlink:href="#ArialMT-35" transform="translate(253.027344 0)"/>
      </g>
     </g>
    </g>
    <g id="ytick_4">
     <g id="line2d_27">
      <g>
       <use xlink:href="#md0bc9ffaa3" x="296.029134" y="131.451969" style="stroke: #000000; stroke-width: 0.3"/>
      </g>
     </g>
     <g id="text_18">
      <!-- 0.390 -->
      <g transform="translate(299.529134 134.315094) scale(0.08 -0.08)">
       <defs>
        <path id="ArialMT-33" d="M 269 1209 
L 831 1284 
Q 928 806 1161 595 
Q 1394 384 1728 384 
Q 2125 384 2398 659 
Q 2672 934 2672 1341 
Q 2672 1728 2419 1979 
Q 2166 2231 1775 2231 
Q 1616 2231 1378 2169 
L 1441 2663 
Q 1497 2656 1531 2656 
Q 1891 2656 2178 2843 
Q 2466 3031 2466 3422 
Q 2466 3731 2256 3934 
Q 2047 4138 1716 4138 
Q 1388 4138 1169 3931 
Q 950 3725 888 3313 
L 325 3413 
Q 428 3978 793 4289 
Q 1159 4600 1703 4600 
Q 2078 4600 2393 4439 
Q 2709 4278 2876 4000 
Q 3044 3722 3044 3409 
Q 3044 3113 2884 2869 
Q 2725 2625 2413 2481 
Q 2819 2388 3044 2092 
Q 3269 1797 3269 1353 
Q 3269 753 2831 336 
Q 2394 -81 1725 -81 
Q 1122 -81 723 278 
Q 325 638 269 1209 
z
" transform="scale(0.015625)"/>
        <path id="ArialMT-39" d="M 350 1059 
L 891 1109 
Q 959 728 1153 556 
Q 1347 384 1650 384 
Q 1909 384 2104 503 
Q 2300 622 2425 820 
Q 2550 1019 2634 1356 
Q 2719 1694 2719 2044 
Q 2719 2081 2716 2156 
Q 2547 1888 2255 1720 
Q 1963 1553 1622 1553 
Q 1053 1553 659 1965 
Q 266 2378 266 3053 
Q 266 3750 677 4175 
Q 1088 4600 1706 4600 
Q 2153 4600 2523 4359 
Q 2894 4119 3086 3673 
Q 3278 3228 3278 2384 
Q 3278 1506 3087 986 
Q 2897 466 2520 194 
Q 2144 -78 1638 -78 
Q 1100 -78 759 220 
Q 419 519 350 1059 
z
M 2653 3081 
Q 2653 3566 2395 3850 
Q 2138 4134 1775 4134 
Q 1400 4134 1122 3828 
Q 844 3522 844 3034 
Q 844 2597 1108 2323 
Q 1372 2050 1759 2050 
Q 2150 2050 2401 2323 
Q 2653 2597 2653 3081 
z
" transform="scale(0.015625)"/>
       </defs>
       <use xlink:href="#ArialMT-2212"/>
       <use xlink:href="#ArialMT-30" transform="translate(58.398438 0)"/>
       <use xlink:href="#ArialMT-2e" transform="translate(114.013672 0)"/>
       <use xlink:href="#ArialMT-33" transform="translate(141.796875 0)"/>
       <use xlink:href="#ArialMT-39" transform="translate(197.412109 0)"/>
       <use xlink:href="#ArialMT-30" transform="translate(253.027344 0)"/>
      </g>
     </g>
    </g>
    <g id="ytick_5">
     <g id="line2d_28">
      <g>
       <use xlink:href="#md0bc9ffaa3" x="296.029134" y="112.554331" style="stroke: #000000; stroke-width: 0.3"/>
      </g>
     </g>
     <g id="text_19">
      <!-- 0.315 -->
      <g transform="translate(299.529134 115.417456) scale(0.08 -0.08)">
       <use xlink:href="#ArialMT-2212"/>
       <use xlink:href="#ArialMT-30" transform="translate(58.398438 0)"/>
       <use xlink:href="#ArialMT-2e" transform="translate(114.013672 0)"/>
       <use xlink:href="#ArialMT-33" transform="translate(141.796875 0)"/>
       <use xlink:href="#ArialMT-31" transform="translate(197.412109 0)"/>
       <use xlink:href="#ArialMT-35" transform="translate(253.027344 0)"/>
      </g>
     </g>
    </g>
    <g id="ytick_6">
     <g id="line2d_29">
      <g>
       <use xlink:href="#md0bc9ffaa3" x="296.029134" y="93.656693" style="stroke: #000000; stroke-width: 0.3"/>
      </g>
     </g>
     <g id="text_20">
      <!-- 0.240 -->
      <g transform="translate(299.529134 96.519818) scale(0.08 -0.08)">
       <defs>
        <path id="ArialMT-32" d="M 3222 541 
L 3222 0 
L 194 0 
Q 188 203 259 391 
Q 375 700 629 1000 
Q 884 1300 1366 1694 
Q 2113 2306 2375 2664 
Q 2638 3022 2638 3341 
Q 2638 3675 2398 3904 
Q 2159 4134 1775 4134 
Q 1369 4134 1125 3890 
Q 881 3647 878 3216 
L 300 3275 
Q 359 3922 746 4261 
Q 1134 4600 1788 4600 
Q 2447 4600 2831 4234 
Q 3216 3869 3216 3328 
Q 3216 3053 3103 2787 
Q 2991 2522 2730 2228 
Q 2469 1934 1863 1422 
Q 1356 997 1212 845 
Q 1069 694 975 541 
L 3222 541 
z
" transform="scale(0.015625)"/>
       </defs>
       <use xlink:href="#ArialMT-2212"/>
       <use xlink:href="#ArialMT-30" transform="translate(58.398438 0)"/>
       <use xlink:href="#ArialMT-2e" transform="translate(114.013672 0)"/>
       <use xlink:href="#ArialMT-32" transform="translate(141.796875 0)"/>
       <use xlink:href="#ArialMT-34" transform="translate(197.412109 0)"/>
       <use xlink:href="#ArialMT-30" transform="translate(253.027344 0)"/>
      </g>
     </g>
    </g>
    <g id="ytick_7">
     <g id="line2d_30">
      <g>
       <use xlink:href="#md0bc9ffaa3" x="296.029134" y="74.759055" style="stroke: #000000; stroke-width: 0.3"/>
      </g>
     </g>
     <g id="text_21">
      <!-- 0.165 -->
      <g transform="translate(299.529134 77.62218) scale(0.08 -0.08)">
       <use xlink:href="#ArialMT-2212"/>
       <use xlink:href="#ArialMT-30" transform="translate(58.398438 0)"/>
       <use xlink:href="#ArialMT-2e" transform="translate(114.013672 0)"/>
       <use xlink:href="#ArialMT-31" transform="translate(141.796875 0)"/>
       <use xlink:href="#ArialMT-36" transform="translate(197.412109 0)"/>
       <use xlink:href="#ArialMT-35" transform="translate(253.027344 0)"/>
      </g>
     </g>
    </g>
    <g id="ytick_8">
     <g id="line2d_31">
      <g>
       <use xlink:href="#md0bc9ffaa3" x="296.029134" y="55.861417" style="stroke: #000000; stroke-width: 0.3"/>
      </g>
     </g>
     <g id="text_22">
      <!-- 0.090 -->
      <g transform="translate(299.529134 58.724542) scale(0.08 -0.08)">
       <use xlink:href="#ArialMT-2212"/>
       <use xlink:href="#ArialMT-30" transform="translate(58.398438 0)"/>
       <use xlink:href="#ArialMT-2e" transform="translate(114.013672 0)"/>
       <use xlink:href="#ArialMT-30" transform="translate(141.796875 0)"/>
       <use xlink:href="#ArialMT-39" transform="translate(197.412109 0)"/>
       <use xlink:href="#ArialMT-30" transform="translate(253.027344 0)"/>
      </g>
     </g>
    </g>
    <g id="ytick_9">
     <g id="line2d_32">
      <g>
       <use xlink:href="#md0bc9ffaa3" x="296.029134" y="36.96378" style="stroke: #000000; stroke-width: 0.3"/>
      </g>
     </g>
     <g id="text_23">
      <!-- 0.015 -->
      <g transform="translate(299.529134 39.826905) scale(0.08 -0.08)">
       <use xlink:href="#ArialMT-2212"/>
       <use xlink:href="#ArialMT-30" transform="translate(58.398438 0)"/>
       <use xlink:href="#ArialMT-2e" transform="translate(114.013672 0)"/>
       <use xlink:href="#ArialMT-30" transform="translate(141.796875 0)"/>
       <use xlink:href="#ArialMT-31" transform="translate(197.412109 0)"/>
       <use xlink:href="#ArialMT-35" transform="translate(253.027344 0)"/>
      </g>
     </g>
    </g>
    <g id="text_24">
     <!-- Formation Energy (eV/atom) -->
     <g transform="translate(335.498821 179.408077) rotate(-90) scale(0.1 -0.1)">
      <defs>
       <path id="ArialMT-46" d="M 525 0 
L 525 4581 
L 3616 4581 
L 3616 4041 
L 1131 4041 
L 1131 2622 
L 3281 2622 
L 3281 2081 
L 1131 2081 
L 1131 0 
L 525 0 
z
" transform="scale(0.015625)"/>
       <path id="ArialMT-6f" d="M 213 1659 
Q 213 2581 725 3025 
Q 1153 3394 1769 3394 
Q 2453 3394 2887 2945 
Q 3322 2497 3322 1706 
Q 3322 1066 3130 698 
Q 2938 331 2570 128 
Q 2203 -75 1769 -75 
Q 1072 -75 642 372 
Q 213 819 213 1659 
z
M 791 1659 
Q 791 1022 1069 705 
Q 1347 388 1769 388 
Q 2188 388 2466 706 
Q 2744 1025 2744 1678 
Q 2744 2294 2464 2611 
Q 2184 2928 1769 2928 
Q 1347 2928 1069 2612 
Q 791 2297 791 1659 
z
" transform="scale(0.015625)"/>
       <path id="ArialMT-72" d="M 416 0 
L 416 3319 
L 922 3319 
L 922 2816 
Q 1116 3169 1280 3281 
Q 1444 3394 1641 3394 
Q 1925 3394 2219 3213 
L 2025 2691 
Q 1819 2813 1613 2813 
Q 1428 2813 1281 2702 
Q 1134 2591 1072 2394 
Q 978 2094 978 1738 
L 978 0 
L 416 0 
z
" transform="scale(0.015625)"/>
       <path id="ArialMT-6d" d="M 422 0 
L 422 3319 
L 925 3319 
L 925 2853 
Q 1081 3097 1340 3245 
Q 1600 3394 1931 3394 
Q 2300 3394 2536 3241 
Q 2772 3088 2869 2813 
Q 3263 3394 3894 3394 
Q 4388 3394 4653 3120 
Q 4919 2847 4919 2278 
L 4919 0 
L 4359 0 
L 4359 2091 
Q 4359 2428 4304 2576 
Q 4250 2725 4106 2815 
Q 3963 2906 3769 2906 
Q 3419 2906 3187 2673 
Q 2956 2441 2956 1928 
L 2956 0 
L 2394 0 
L 2394 2156 
Q 2394 2531 2256 2718 
Q 2119 2906 1806 2906 
Q 1569 2906 1367 2781 
Q 1166 2656 1075 2415 
Q 984 2175 984 1722 
L 984 0 
L 422 0 
z
" transform="scale(0.015625)"/>
       <path id="ArialMT-61" d="M 2588 409 
Q 2275 144 1986 34 
Q 1697 -75 1366 -75 
Q 819 -75 525 192 
Q 231 459 231 875 
Q 231 1119 342 1320 
Q 453 1522 633 1644 
Q 813 1766 1038 1828 
Q 1203 1872 1538 1913 
Q 2219 1994 2541 2106 
Q 2544 2222 2544 2253 
Q 2544 2597 2384 2738 
Q 2169 2928 1744 2928 
Q 1347 2928 1158 2789 
Q 969 2650 878 2297 
L 328 2372 
Q 403 2725 575 2942 
Q 747 3159 1072 3276 
Q 1397 3394 1825 3394 
Q 2250 3394 2515 3294 
Q 2781 3194 2906 3042 
Q 3031 2891 3081 2659 
Q 3109 2516 3109 2141 
L 3109 1391 
Q 3109 606 3145 398 
Q 3181 191 3288 0 
L 2700 0 
Q 2613 175 2588 409 
z
M 2541 1666 
Q 2234 1541 1622 1453 
Q 1275 1403 1131 1340 
Q 988 1278 909 1158 
Q 831 1038 831 891 
Q 831 666 1001 516 
Q 1172 366 1500 366 
Q 1825 366 2078 508 
Q 2331 650 2450 897 
Q 2541 1088 2541 1459 
L 2541 1666 
z
" transform="scale(0.015625)"/>
       <path id="ArialMT-74" d="M 1650 503 
L 1731 6 
Q 1494 -44 1306 -44 
Q 1000 -44 831 53 
Q 663 150 594 308 
Q 525 466 525 972 
L 525 2881 
L 113 2881 
L 113 3319 
L 525 3319 
L 525 4141 
L 1084 4478 
L 1084 3319 
L 1650 3319 
L 1650 2881 
L 1084 2881 
L 1084 941 
Q 1084 700 1114 631 
Q 1144 563 1211 522 
Q 1278 481 1403 481 
Q 1497 481 1650 503 
z
" transform="scale(0.015625)"/>
       <path id="ArialMT-69" d="M 425 3934 
L 425 4581 
L 988 4581 
L 988 3934 
L 425 3934 
z
M 425 0 
L 425 3319 
L 988 3319 
L 988 0 
L 425 0 
z
" transform="scale(0.015625)"/>
       <path id="ArialMT-6e" d="M 422 0 
L 422 3319 
L 928 3319 
L 928 2847 
Q 1294 3394 1984 3394 
Q 2284 3394 2536 3286 
Q 2788 3178 2913 3003 
Q 3038 2828 3088 2588 
Q 3119 2431 3119 2041 
L 3119 0 
L 2556 0 
L 2556 2019 
Q 2556 2363 2490 2533 
Q 2425 2703 2258 2804 
Q 2091 2906 1866 2906 
Q 1506 2906 1245 2678 
Q 984 2450 984 1813 
L 984 0 
L 422 0 
z
" transform="scale(0.015625)"/>
       <path id="ArialMT-20" transform="scale(0.015625)"/>
       <path id="ArialMT-45" d="M 506 0 
L 506 4581 
L 3819 4581 
L 3819 4041 
L 1113 4041 
L 1113 2638 
L 3647 2638 
L 3647 2100 
L 1113 2100 
L 1113 541 
L 3925 541 
L 3925 0 
L 506 0 
z
" transform="scale(0.015625)"/>
       <path id="ArialMT-65" d="M 2694 1069 
L 3275 997 
Q 3138 488 2766 206 
Q 2394 -75 1816 -75 
Q 1088 -75 661 373 
Q 234 822 234 1631 
Q 234 2469 665 2931 
Q 1097 3394 1784 3394 
Q 2450 3394 2872 2941 
Q 3294 2488 3294 1666 
Q 3294 1616 3291 1516 
L 816 1516 
Q 847 969 1125 678 
Q 1403 388 1819 388 
Q 2128 388 2347 550 
Q 2566 713 2694 1069 
z
M 847 1978 
L 2700 1978 
Q 2663 2397 2488 2606 
Q 2219 2931 1791 2931 
Q 1403 2931 1139 2672 
Q 875 2413 847 1978 
z
" transform="scale(0.015625)"/>
       <path id="ArialMT-67" d="M 319 -275 
L 866 -356 
Q 900 -609 1056 -725 
Q 1266 -881 1628 -881 
Q 2019 -881 2231 -725 
Q 2444 -569 2519 -288 
Q 2563 -116 2559 434 
Q 2191 0 1641 0 
Q 956 0 581 494 
Q 206 988 206 1678 
Q 206 2153 378 2554 
Q 550 2956 876 3175 
Q 1203 3394 1644 3394 
Q 2231 3394 2613 2919 
L 2613 3319 
L 3131 3319 
L 3131 450 
Q 3131 -325 2973 -648 
Q 2816 -972 2473 -1159 
Q 2131 -1347 1631 -1347 
Q 1038 -1347 672 -1080 
Q 306 -813 319 -275 
z
M 784 1719 
Q 784 1066 1043 766 
Q 1303 466 1694 466 
Q 2081 466 2343 764 
Q 2606 1063 2606 1700 
Q 2606 2309 2336 2618 
Q 2066 2928 1684 2928 
Q 1309 2928 1046 2623 
Q 784 2319 784 1719 
z
" transform="scale(0.015625)"/>
       <path id="ArialMT-79" d="M 397 -1278 
L 334 -750 
Q 519 -800 656 -800 
Q 844 -800 956 -737 
Q 1069 -675 1141 -563 
Q 1194 -478 1313 -144 
Q 1328 -97 1363 -6 
L 103 3319 
L 709 3319 
L 1400 1397 
Q 1534 1031 1641 628 
Q 1738 1016 1872 1384 
L 2581 3319 
L 3144 3319 
L 1881 -56 
Q 1678 -603 1566 -809 
Q 1416 -1088 1222 -1217 
Q 1028 -1347 759 -1347 
Q 597 -1347 397 -1278 
z
" transform="scale(0.015625)"/>
       <path id="ArialMT-28" d="M 1497 -1347 
Q 1031 -759 709 28 
Q 388 816 388 1659 
Q 388 2403 628 3084 
Q 909 3875 1497 4659 
L 1900 4659 
Q 1522 4009 1400 3731 
Q 1209 3300 1100 2831 
Q 966 2247 966 1656 
Q 966 153 1900 -1347 
L 1497 -1347 
z
" transform="scale(0.015625)"/>
       <path id="ArialMT-56" d="M 1803 0 
L 28 4581 
L 684 4581 
L 1875 1253 
Q 2019 853 2116 503 
Q 2222 878 2363 1253 
L 3600 4581 
L 4219 4581 
L 2425 0 
L 1803 0 
z
" transform="scale(0.015625)"/>
       <path id="ArialMT-2f" d="M 0 -78 
L 1328 4659 
L 1778 4659 
L 453 -78 
L 0 -78 
z
" transform="scale(0.015625)"/>
       <path id="ArialMT-29" d="M 791 -1347 
L 388 -1347 
Q 1322 153 1322 1656 
Q 1322 2244 1188 2822 
Q 1081 3291 891 3722 
Q 769 4003 388 4659 
L 791 4659 
Q 1378 3875 1659 3084 
Q 1900 2403 1900 1659 
Q 1900 816 1576 28 
Q 1253 -759 791 -1347 
z
" transform="scale(0.015625)"/>
      </defs>
      <use xlink:href="#ArialMT-46"/>
      <use xlink:href="#ArialMT-6f" transform="translate(61.083984 0)"/>
      <use xlink:href="#ArialMT-72" transform="translate(116.699219 0)"/>
      <use xlink:href="#ArialMT-6d" transform="translate(150 0)"/>
      <use xlink:href="#ArialMT-61" transform="translate(233.300781 0)"/>
      <use xlink:href="#ArialMT-74" transform="translate(288.916016 0)"/>
      <use xlink:href="#ArialMT-69" transform="translate(316.699219 0)"/>
      <use xlink:href="#ArialMT-6f" transform="translate(338.916016 0)"/>
      <use xlink:href="#ArialMT-6e" transform="translate(394.53125 0)"/>
      <use xlink:href="#ArialMT-20" transform="translate(450.146484 0)"/>
      <use xlink:href="#ArialMT-45" transform="translate(477.929688 0)"/>
      <use xlink:href="#ArialMT-6e" transform="translate(544.628906 0)"/>
      <use xlink:href="#ArialMT-65" transform="translate(600.244141 0)"/>
      <use xlink:href="#ArialMT-72" transform="translate(655.859375 0)"/>
      <use xlink:href="#ArialMT-67" transform="translate(689.160156 0)"/>
      <use xlink:href="#ArialMT-79" transform="translate(744.775391 0)"/>
      <use xlink:href="#ArialMT-20" transform="translate(794.775391 0)"/>
      <use xlink:href="#ArialMT-28" transform="translate(822.558594 0)"/>
      <use xlink:href="#ArialMT-65" transform="translate(855.859375 0)"/>
      <use xlink:href="#ArialMT-56" transform="translate(911.474609 0)"/>
      <use xlink:href="#ArialMT-2f" transform="translate(978.173828 0)"/>
      <use xlink:href="#ArialMT-61" transform="translate(1005.957031 0)"/>
      <use xlink:href="#ArialMT-74" transform="translate(1061.572266 0)"/>
      <use xlink:href="#ArialMT-6f" transform="translate(1089.355469 0)"/>
      <use xlink:href="#ArialMT-6d" transform="translate(1144.970703 0)"/>
      <use xlink:href="#ArialMT-29" transform="translate(1228.271484 0)"/>
     </g>
    </g>
   </g>
   <g id="LineCollection_1"/>
   <g id="patch_6">
    <path d="M 287.298425 195.703937 
L 291.66378 203.640945 
L 296.029134 195.703937 
L 296.029134 36.96378 
L 291.66378 29.026772 
L 287.298425 36.96378 
L 287.298425 195.703937 
z
" style="fill: none; stroke: #000000; stroke-width: 0.8; stroke-linejoin: miter; stroke-linecap: square"/>
   </g>
  </g>
 </g>
 <defs>
  <clipPath id="pd26fbf664a">
   <rect x="7.2" y="7.2" width="263.622047" height="218.267717"/>
  </clipPath>
  <clipPath id="p435accb961">
   <rect x="287.298425" y="36.96378" width="8.730709" height="158.740157"/>
  </clipPath>
 </defs>
</svg>
