<?xml version="1.0" encoding="utf-8" standalone="no"?>
<!DOCTYPE svg PUBLIC "-//W3C//DTD SVG 1.1//EN"
  "http://www.w3.org/Graphics/SVG/1.1/DTD/svg11.dtd">
<svg xmlns:xlink="http://www.w3.org/1999/xlink" width="344.803509pt" height="232.667717pt" viewBox="0 0 344.803509 232.667717" xmlns="http://www.w3.org/2000/svg" version="1.1">
 <metadata>
  <rdf:RDF xmlns:dc="http://purl.org/dc/elements/1.1/" xmlns:cc="http://creativecommons.org/ns#" xmlns:rdf="http://www.w3.org/1999/02/22-rdf-syntax-ns#">
   <cc:Work>
    <dc:type rdf:resource="http://purl.org/dc/dcmitype/StillImage"/>
    <dc:date>2026-01-27T21:37:47.005966</dc:date>
    <dc:format>image/svg+xml</dc:format>
    <dc:creator>
     <cc:Agent>
      <dc:title>Matplotlib v3.10.8, https://matplotlib.org/</dc:title>
     </cc:Agent>
    </dc:creator>
   </cc:Work>
  </rdf:RDF>
 </metadata>
 <defs>
  <style type="text/css">*{stroke-linejoin: round; stroke-linecap: butt}</style>
 </defs>
 <g id="figure_1">
  <g id="patch_1">
   <path d="M 0 232.667717 
L 344.803509 232.667717 
L 344.803509 0 
L 0 0 
L 0 232.667717 
z
" style="fill: none"/>
  </g>
  <g id="axes_1">
   <g id="patch_2">
    <path d="M 7.2 225.467717 
L 270.822047 225.467717 
L 270.822047 7.2 
L 7.2 7.2 
L 7.2 225.467717 
z
" style="fill: none"/>
   </g>
   <g id="TriContourSet_1">
    <path d="M 180.224713 214.554331 
L 179.702161 211.012581 
L 177.206239 211.797672 
L 177.286379 214.554331 
L 178.953758 214.554331 
z
" clip-path="url(#p7bb4665493)" style="fill: #440154; fill-opacity: 0.7"/>
    <path d="M 177.286379 214.554331 
L 177.206239 211.797672 
L 179.702161 211.012581 
L 180.224713 214.554331 
L 184.380056 214.554331 
L 182.149039 199.432953 
L 171.492787 202.784873 
L 171.83494 214.554331 
z
" clip-path="url(#p7bb4665493)" style="fill: #450559; fill-opacity: 0.7"/>
    <path d="M 171.83494 214.554331 
L 171.492787 202.784873 
L 182.149039 199.432953 
L 184.380056 214.554331 
L 188.535399 214.554331 
L 184.595916 187.853325 
L 165.779334 193.772073 
L 166.383502 214.554331 
z
" clip-path="url(#p7bb4665493)" style="fill: #471164; fill-opacity: 0.7"/>
    <path d="M 166.383502 214.554331 
L 165.779334 193.772073 
L 184.595916 187.853325 
L 188.535399 214.554331 
L 192.690742 214.554331 
L 187.26157 177.756515 
L 187.008784 176.667689 
L 186.971576 176.610732 
L 186.915846 176.526648 
L 186.902209 176.517337 
L 186.798506 176.495729 
L 186.414031 176.471474 
L 160.065882 184.759274 
L 160.932064 214.554331 
z
" clip-path="url(#p7bb4665493)" style="fill: #481c6e; fill-opacity: 0.7"/>
    <path d="M 160.932064 214.554331 
L 160.065882 184.759274 
L 186.414031 176.471474 
L 186.798506 176.495729 
L 186.902209 176.517337 
L 186.915846 176.526648 
L 186.971576 176.610732 
L 187.008784 176.667689 
L 187.26157 177.756515 
L 192.690742 214.554331 
L 196.846085 214.554331 
L 195.035566 202.283006 
L 188.627528 174.681618 
L 187.684307 173.237796 
L 186.271574 171.106275 
L 185.925889 170.870247 
L 183.297061 170.322488 
L 173.550737 169.707655 
L 154.352429 175.746475 
L 155.480625 214.554331 
z
" clip-path="url(#p7bb4665493)" style="fill: #482677; fill-opacity: 0.7"/>
    <path d="M 199.939961 214.554331 
L 199.189571 211.217084 
L 190.246271 172.695547 
L 188.397038 169.86486 
L 185.627302 165.685903 
L 184.949569 165.223158 
L 179.795615 164.149248 
L 160.687443 162.943835 
L 148.638977 166.733675 
L 150.029187 214.554331 
L 155.480625 214.554331 
L 154.352429 175.746475 
L 173.550737 169.707655 
L 183.297061 170.322488 
L 185.925889 170.870247 
L 186.271574 171.106275 
L 187.684307 173.237796 
L 188.627528 174.681618 
L 195.035566 202.283006 
L 196.846085 214.554331 
L 198.925125 214.554331 
z
" clip-path="url(#p7bb4665493)" style="fill: #472f7d; fill-opacity: 0.7"/>
    <path d="M 201.97097 214.554331 
L 199.718812 204.538191 
L 191.865015 170.709477 
L 189.109769 166.491924 
L 184.983029 160.26553 
L 183.973249 159.576069 
L 176.294169 157.976008 
L 147.82415 156.180015 
L 142.925525 157.720876 
L 144.577749 214.554331 
L 150.029187 214.554331 
L 148.638977 166.733675 
L 160.687443 162.943835 
L 179.795615 164.149248 
L 184.949569 165.223158 
L 185.627302 165.685903 
L 188.397038 169.86486 
L 190.246271 172.695547 
L 199.189571 211.217084 
L 199.939961 214.554331 
z
" clip-path="url(#p7bb4665493)" style="fill: #443983; fill-opacity: 0.7"/>
    <path d="M 204.001979 214.554331 
L 200.248053 197.859298 
L 193.483759 168.723406 
L 189.8225 163.118988 
L 184.338757 154.845157 
L 182.99693 153.928979 
L 172.792723 151.802768 
L 138.609644 149.646375 
L 137.95167 149.874769 
L 137.607761 150.808 
L 137.629746 152.272176 
L 139.011024 210.588678 
L 139.12631 214.554331 
L 144.577749 214.554331 
L 142.925525 157.720876 
L 147.82415 156.180015 
L 176.294169 157.976008 
L 183.973249 159.576069 
L 184.983029 160.26553 
L 189.109769 166.491924 
L 191.865015 170.709477 
L 199.718812 204.538191 
L 201.97097 214.554331 
z
" clip-path="url(#p7bb4665493)" style="fill: #414287; fill-opacity: 0.7"/>
    <path d="M 206.032988 214.554331 
L 200.777294 191.180405 
L 195.102502 166.737335 
L 190.535232 159.746052 
L 183.694485 149.424785 
L 182.02061 148.28189 
L 169.291278 145.629528 
L 137.334865 143.613601 
L 134.587172 144.567375 
L 133.151012 148.464538 
L 133.242823 154.578922 
L 134.663393 214.554331 
L 139.011024 214.554331 
L 139.12631 214.554331 
L 139.011024 210.588678 
L 137.629746 152.272176 
L 137.607761 150.808 
L 137.95167 149.874769 
L 138.609644 149.646375 
L 172.792723 151.802768 
L 182.99693 153.928979 
L 184.338757 154.845157 
L 189.8225 163.118988 
L 193.483759 168.723406 
L 200.248053 197.859298 
L 204.001979 214.554331 
z
" clip-path="url(#p7bb4665493)" style="fill: #3e4c8a; fill-opacity: 0.7"/>
    <path d="M 208.063998 214.554331 
L 201.306535 184.501512 
L 196.721246 164.751265 
L 191.247963 156.373116 
L 183.050213 144.004412 
L 181.04429 142.634801 
L 165.789832 139.456288 
L 136.060087 137.580827 
L 131.222674 139.259982 
L 128.694264 146.121075 
L 128.8559 156.885669 
L 130.221833 214.554331 
L 134.663393 214.554331 
L 133.242823 154.578922 
L 133.151012 148.464538 
L 134.587172 144.567375 
L 137.334865 143.613601 
L 169.291278 145.629528 
L 182.02061 148.28189 
L 183.694485 149.424785 
L 190.535232 159.746052 
L 195.102502 166.737335 
L 200.777294 191.180405 
L 206.032988 214.554331 
z
" clip-path="url(#p7bb4665493)" style="fill: #3a538b; fill-opacity: 0.7"/>
    <path d="M 210.095007 214.554331 
L 201.835776 177.822619 
L 198.339989 162.765194 
L 191.960694 153.00018 
L 182.405941 138.58404 
L 180.06797 136.987711 
L 162.288386 133.283047 
L 134.785309 131.548053 
L 127.858177 133.952588 
L 124.237515 143.777613 
L 124.468977 159.192415 
L 125.780272 214.554331 
L 130.221833 214.554331 
L 128.8559 156.885669 
L 128.694264 146.121075 
L 131.222674 139.259982 
L 136.060087 137.580827 
L 165.789832 139.456288 
L 181.04429 142.634801 
L 183.050213 144.004412 
L 191.247963 156.373116 
L 196.721246 164.751265 
L 201.306535 184.501512 
L 208.063998 214.554331 
z
" clip-path="url(#p7bb4665493)" style="fill: #365c8d; fill-opacity: 0.7"/>
    <path d="M 212.126016 214.554331 
L 202.365017 171.143726 
L 199.958733 160.779123 
L 192.673425 149.627244 
L 181.761669 133.163667 
L 179.09165 131.340622 
L 158.78694 127.109807 
L 133.51053 125.515279 
L 124.493679 128.645194 
L 119.780767 141.434151 
L 120.082054 161.499162 
L 121.338712 214.554331 
L 125.780272 214.554331 
L 124.468977 159.192415 
L 124.237515 143.777613 
L 127.858177 133.952588 
L 134.785309 131.548053 
L 162.288386 133.283047 
L 180.06797 136.987711 
L 182.405941 138.58404 
L 191.960694 153.00018 
L 198.339989 162.765194 
L 201.835776 177.822619 
L 210.095007 214.554331 
z
" clip-path="url(#p7bb4665493)" style="fill: #32648e; fill-opacity: 0.7"/>
    <path d="M 214.157025 214.554331 
L 202.894258 164.464833 
L 201.577477 158.793053 
L 193.386156 146.254308 
L 181.117397 127.743295 
L 178.11533 125.693533 
L 155.285495 120.936567 
L 132.235752 119.482505 
L 121.129181 123.3378 
L 115.324018 139.090689 
L 115.69513 163.805908 
L 116.897151 214.554331 
L 121.338712 214.554331 
L 120.082054 161.499162 
L 119.780767 141.434151 
L 124.493679 128.645194 
L 133.51053 125.515279 
L 158.78694 127.109807 
L 179.09165 131.340622 
L 181.761669 133.163667 
L 192.673425 149.627244 
L 199.958733 160.779123 
L 202.365017 171.143726 
L 212.126016 214.554331 
z
" clip-path="url(#p7bb4665493)" style="fill: #2f6c8e; fill-opacity: 0.7"/>
    <path d="M 216.188034 214.554331 
L 203.423499 157.78594 
L 203.19622 156.806982 
L 194.098887 142.881372 
L 180.473125 122.322922 
L 177.13901 120.046443 
L 151.784049 114.763327 
L 130.960973 113.449731 
L 117.764684 118.030406 
L 110.867269 136.747226 
L 111.308207 166.112655 
L 112.455591 214.554331 
L 116.897151 214.554331 
L 115.69513 163.805908 
L 115.324018 139.090689 
L 121.129181 123.3378 
L 132.235752 119.482505 
L 155.285495 120.936567 
L 178.11533 125.693533 
L 181.117397 127.743295 
L 193.386156 146.254308 
L 201.577477 158.793053 
L 202.894258 164.464833 
L 214.157025 214.554331 
z
" clip-path="url(#p7bb4665493)" style="fill: #2c728e; fill-opacity: 0.7"/>
    <path d="M 218.219043 214.554331 
L 205.639015 158.606508 
L 204.896841 155.962674 
L 202.978146 152.009229 
L 194.811619 139.508436 
L 179.828853 116.90255 
L 176.16269 114.399354 
L 148.282603 108.590087 
L 129.686195 107.416958 
L 114.400186 112.723012 
L 106.410521 134.403764 
L 106.921284 168.419401 
L 108.01403 214.554331 
L 112.455591 214.554331 
L 111.308207 166.112655 
L 110.867269 136.747226 
L 117.764684 118.030406 
L 130.960973 113.449731 
L 151.784049 114.763327 
L 177.13901 120.046443 
L 180.473125 122.322922 
L 194.098887 142.881372 
L 203.19622 156.806982 
L 203.423499 157.78594 
L 216.188034 214.554331 
z
" clip-path="url(#p7bb4665493)" style="fill: #297a8e; fill-opacity: 0.7"/>
    <path d="M 220.250053 214.554331 
L 208.299025 161.403899 
L 206.619045 155.419329 
L 202.275895 146.47033 
L 195.52435 136.1355 
L 179.184581 111.482177 
L 175.18637 108.752265 
L 144.781157 102.416847 
L 128.411416 101.384184 
L 111.035688 107.415618 
L 101.953772 132.060302 
L 102.534361 170.726148 
L 103.57247 214.554331 
L 108.01403 214.554331 
L 106.921284 168.419401 
L 106.410521 134.403764 
L 114.400186 112.723012 
L 129.686195 107.416958 
L 148.282603 108.590087 
L 176.16269 114.399354 
L 179.828853 116.90255 
L 194.811619 139.508436 
L 202.978146 152.009229 
L 204.896841 155.962674 
L 205.639015 158.606508 
L 218.219043 214.554331 
z
" clip-path="url(#p7bb4665493)" style="fill: #26828e; fill-opacity: 0.7"/>
    <path d="M 222.281062 214.554331 
L 210.959036 164.20129 
L 208.341248 154.875984 
L 201.573644 140.931431 
L 196.237081 132.762564 
L 178.540309 106.061805 
L 174.210051 103.105175 
L 141.279711 96.243607 
L 127.136638 95.35141 
L 107.671191 102.108224 
L 97.497023 129.716839 
L 98.147438 173.032894 
L 99.130909 214.554331 
L 103.57247 214.554331 
L 102.534361 170.726148 
L 101.953772 132.060302 
L 111.035688 107.415618 
L 128.411416 101.384184 
L 144.781157 102.416847 
L 175.18637 108.752265 
L 179.184581 111.482177 
L 195.52435 136.1355 
L 202.275895 146.47033 
L 206.619045 155.419329 
L 208.299025 161.403899 
L 220.250053 214.554331 
z
" clip-path="url(#p7bb4665493)" style="fill: #23898e; fill-opacity: 0.7"/>
    <path d="M 224.312071 214.554331 
L 213.619047 166.998681 
L 210.063452 154.332639 
L 200.871393 135.392531 
L 196.949812 129.389628 
L 177.896036 100.641432 
L 173.233731 97.458086 
L 137.778266 90.070366 
L 125.86186 89.318636 
L 104.306693 96.80083 
L 93.040275 127.373377 
L 93.760515 175.339641 
L 94.689349 214.554331 
L 99.130909 214.554331 
L 98.147438 173.032894 
L 97.497023 129.716839 
L 107.671191 102.108224 
L 127.136638 95.35141 
L 141.279711 96.243607 
L 174.210051 103.105175 
L 178.540309 106.061805 
L 196.237081 132.762564 
L 201.573644 140.931431 
L 208.341248 154.875984 
L 210.959036 164.20129 
L 222.281062 214.554331 
z
" clip-path="url(#p7bb4665493)" style="fill: #21918c; fill-opacity: 0.7"/>
    <path d="M 226.34308 214.554331 
L 216.279057 169.796072 
L 211.785655 153.789295 
L 200.169142 129.853632 
L 197.662543 126.016692 
L 177.251764 95.22106 
L 172.257411 91.810997 
L 134.27682 83.897126 
L 124.587081 83.285862 
L 100.942195 91.493436 
L 88.583526 125.029915 
L 89.373591 177.646387 
L 90.247788 214.554331 
L 94.689349 214.554331 
L 93.760515 175.339641 
L 93.040275 127.373377 
L 104.306693 96.80083 
L 125.86186 89.318636 
L 137.778266 90.070366 
L 173.233731 97.458086 
L 177.896036 100.641432 
L 196.949812 129.389628 
L 200.871393 135.392531 
L 210.063452 154.332639 
L 213.619047 166.998681 
L 224.312071 214.554331 
z
" clip-path="url(#p7bb4665493)" style="fill: #1f978b; fill-opacity: 0.7"/>
    <path d="M 228.374089 214.554331 
L 218.939068 172.593463 
L 213.507859 153.24595 
L 199.466891 124.314732 
L 198.375274 122.643756 
L 176.607492 89.800687 
L 171.281091 86.163907 
L 130.775374 77.723886 
L 123.312303 77.253088 
L 101.39996 84.859265 
L 99.068289 88.537406 
L 93.438445 97.418316 
L 84.126778 122.686452 
L 84.986668 179.953134 
L 85.806228 214.554331 
L 90.247788 214.554331 
L 89.373591 177.646387 
L 88.583526 125.029915 
L 100.942195 91.493436 
L 124.587081 83.285862 
L 134.27682 83.897126 
L 172.257411 91.810997 
L 177.251764 95.22106 
L 197.662543 126.016692 
L 200.169142 129.853632 
L 211.785655 153.789295 
L 216.279057 169.796072 
L 226.34308 214.554331 
z
" clip-path="url(#p7bb4665493)" style="fill: #1f9f88; fill-opacity: 0.7"/>
    <path d="M 230.405098 214.554331 
L 221.599079 175.390855 
L 215.230062 152.702605 
L 200.86114 123.095642 
L 198.925125 120.041637 
L 184.123009 96.691745 
L 175.96322 84.380315 
L 170.304771 80.516818 
L 127.273928 71.550646 
L 122.037524 71.220314 
L 106.662906 76.557127 
L 101.39996 84.859265 
L 123.312303 77.253088 
L 130.775374 77.723886 
L 171.281091 86.163907 
L 176.607492 89.800687 
L 198.375274 122.643756 
L 199.466891 124.314732 
L 213.507859 153.24595 
L 218.939068 172.593463 
L 228.374089 214.554331 
z
M 80.73101 117.463912 
L 79.670029 120.34299 
L 80.599745 182.25988 
L 81.364667 214.554331 
L 85.806228 214.554331 
L 84.986668 179.953134 
L 84.126778 122.686452 
L 93.438445 97.418316 
z
" clip-path="url(#p7bb4665493)" style="fill: #21a685; fill-opacity: 0.7"/>
    <path d="M 232.436108 214.554331 
L 224.259089 178.188246 
L 216.952266 152.15926 
L 209.332745 136.459344 
L 200.86114 123.095642 
L 215.230062 152.702605 
L 221.599079 175.390855 
L 230.405098 214.554331 
z
M 171.02285 76.026636 
L 169.328451 74.869729 
L 123.772483 65.377406 
L 120.762746 65.187541 
L 111.925851 68.254989 
L 106.662906 76.557127 
L 122.037524 71.220314 
L 127.273928 71.550646 
L 170.304771 80.516818 
L 175.96322 84.380315 
L 184.123009 96.691745 
L 175.88124 83.690601 
z
M 75.333096 125.978959 
L 76.212822 184.566627 
L 76.923107 214.554331 
L 81.364667 214.554331 
L 80.599745 182.25988 
L 79.670029 120.34299 
L 80.73101 117.463912 
L 79.096922 120.041637 
z
" clip-path="url(#p7bb4665493)" style="fill: #27ad81; fill-opacity: 0.7"/>
    <path d="M 234.467117 214.554331 
L 226.9191 180.985637 
L 218.674469 151.615915 
L 217.80435 149.823047 
L 209.332745 136.459344 
L 216.952266 152.15926 
L 224.259089 178.188246 
L 232.436108 214.554331 
z
M 167.471791 70.424948 
L 136.910021 62.671167 
L 120.271037 59.204166 
L 119.487968 59.154767 
L 117.188796 59.952851 
L 111.925851 68.254989 
L 120.762746 65.187541 
L 123.772483 65.377406 
L 169.328451 74.869729 
L 171.02285 76.026636 
L 168.968074 72.78529 
z
M 71.013844 132.79245 
L 71.825899 186.873373 
L 72.481546 214.554331 
L 76.923107 214.554331 
L 76.212822 184.566627 
L 75.333096 125.978959 
z
" clip-path="url(#p7bb4665493)" style="fill: #2fb47c; fill-opacity: 0.7"/>
    <path d="M 236.498126 214.554331 
L 229.57911 183.783028 
L 221.82743 156.169334 
L 218.896492 151.545868 
L 217.80435 149.823047 
L 218.674469 151.615915 
L 226.9191 180.985637 
L 234.467117 214.554331 
z
M 165.10006 66.683614 
L 120.151223 55.279712 
L 119.039656 57.033175 
L 117.188796 59.952851 
L 119.487968 59.154767 
L 120.271037 59.204166 
L 136.910021 62.671167 
L 167.471791 70.424948 
z
M 66.694592 139.60594 
L 67.438975 189.18012 
L 68.039986 214.554331 
L 72.481546 214.554331 
L 71.825899 186.873373 
L 71.013844 132.79245 
z
" clip-path="url(#p7bb4665493)" style="fill: #3bbb75; fill-opacity: 0.7"/>
    <path d="M 238.529135 214.554331 
L 232.239121 186.580419 
L 225.192139 161.477061 
L 221.82743 156.169334 
L 229.57911 183.783028 
L 236.498126 214.554331 
z
M 162.72833 62.94228 
L 121.86575 52.575097 
L 120.151223 55.279712 
L 165.10006 66.683614 
z
M 62.37534 146.41943 
L 63.052052 191.486866 
L 63.598425 214.554331 
L 68.039986 214.554331 
L 67.438975 189.18012 
L 66.694592 139.60594 
z
" clip-path="url(#p7bb4665493)" style="fill: #4ac16d; fill-opacity: 0.7"/>
    <path d="M 240.560144 214.554331 
L 234.899132 189.37781 
L 228.556847 166.784788 
L 225.192139 161.477061 
L 232.239121 186.580419 
L 238.529135 214.554331 
z
M 160.356599 59.200947 
L 123.580277 49.870482 
L 121.86575 52.575097 
L 162.72833 62.94228 
z
M 58.056088 153.23292 
L 58.665129 193.793612 
L 59.156865 214.554331 
L 63.598425 214.554331 
L 63.052052 191.486866 
L 62.37534 146.41943 
z
" clip-path="url(#p7bb4665493)" style="fill: #5ac864; fill-opacity: 0.7"/>
    <path d="M 242.591154 214.554331 
L 237.559142 192.175201 
L 231.921556 172.092515 
L 228.556847 166.784788 
L 234.899132 189.37781 
L 240.560144 214.554331 
z
M 157.984868 55.459613 
L 125.294805 47.165866 
L 123.580277 49.870482 
L 160.356599 59.200947 
z
M 53.736836 160.04641 
L 54.278206 196.100359 
L 54.715304 214.554331 
L 59.156865 214.554331 
L 58.665129 193.793612 
L 58.056088 153.23292 
z
" clip-path="url(#p7bb4665493)" style="fill: #69cd5b; fill-opacity: 0.7"/>
    <path d="M 244.622163 214.554331 
L 240.219153 194.972593 
L 235.286265 177.400242 
L 231.921556 172.092515 
L 237.559142 192.175201 
L 242.591154 214.554331 
z
M 155.613138 51.718279 
L 127.009332 44.461251 
L 125.294805 47.165866 
L 157.984868 55.459613 
z
M 49.417584 166.8599 
L 49.891283 198.407105 
L 50.273744 214.554331 
L 54.715304 214.554331 
L 54.278206 196.100359 
L 53.736836 160.04641 
z
" clip-path="url(#p7bb4665493)" style="fill: #7cd250; fill-opacity: 0.7"/>
    <path d="M 246.653172 214.554331 
L 242.879163 197.769984 
L 238.650974 182.707969 
L 235.286265 177.400242 
L 240.219153 194.972593 
L 244.622163 214.554331 
z
M 153.241407 47.976945 
L 128.723859 41.756635 
L 127.009332 44.461251 
L 155.613138 51.718279 
z
M 45.098332 173.67339 
L 45.504359 200.713852 
L 45.832183 214.554331 
L 50.273744 214.554331 
L 49.891283 198.407105 
L 49.417584 166.8599 
z
" clip-path="url(#p7bb4665493)" style="fill: #90d743; fill-opacity: 0.7"/>
    <path d="M 248.684181 214.554331 
L 245.539174 200.567375 
L 242.015683 188.015696 
L 238.650974 182.707969 
L 242.879163 197.769984 
L 246.653172 214.554331 
z
M 150.869677 44.235612 
L 130.438387 39.05202 
L 128.723859 41.756635 
L 153.241407 47.976945 
z
M 40.77908 180.48688 
L 41.117436 203.020598 
L 41.390623 214.554331 
L 45.832183 214.554331 
L 45.504359 200.713852 
L 45.098332 173.67339 
z
" clip-path="url(#p7bb4665493)" style="fill: #a5db36; fill-opacity: 0.7"/>
    <path d="M 250.71519 214.554331 
L 248.199185 203.364766 
L 245.380392 193.323423 
L 242.015683 188.015696 
L 245.539174 200.567375 
L 248.684181 214.554331 
z
M 148.497946 40.494278 
L 132.152914 36.347405 
L 130.438387 39.05202 
L 150.869677 44.235612 
z
M 36.459828 187.30037 
L 36.730513 205.327345 
L 36.949062 214.554331 
L 41.390623 214.554331 
L 41.117436 203.020598 
L 40.77908 180.48688 
z
" clip-path="url(#p7bb4665493)" style="fill: #b8de29; fill-opacity: 0.7"/>
    <path d="M 252.746199 214.554331 
L 250.859195 206.162157 
L 248.7451 198.63115 
L 245.380392 193.323423 
L 248.199185 203.364766 
L 250.71519 214.554331 
z
M 146.126215 36.752944 
L 133.867442 33.642789 
L 132.152914 36.347405 
L 148.497946 40.494278 
z
M 32.140576 194.11386 
L 32.34359 207.634091 
L 32.507502 214.554331 
L 36.949062 214.554331 
L 36.730513 205.327345 
L 36.459828 187.30037 
z
" clip-path="url(#p7bb4665493)" style="fill: #cde11d; fill-opacity: 0.7"/>
    <path d="M 254.777209 214.554331 
L 253.519206 208.959548 
L 252.109809 203.938877 
L 248.7451 198.63115 
L 250.859195 206.162157 
L 252.746199 214.554331 
z
M 143.754485 33.011611 
L 135.581969 30.938174 
L 133.867442 33.642789 
L 146.126215 36.752944 
z
M 27.821324 200.927351 
L 27.956667 209.940838 
L 28.065941 214.554331 
L 32.507502 214.554331 
L 32.34359 207.634091 
L 32.140576 194.11386 
z
" clip-path="url(#p7bb4665493)" style="fill: #e2e418; fill-opacity: 0.7"/>
    <path d="M 256.808218 214.554331 
L 256.179216 211.75694 
L 255.474518 209.246604 
L 252.109809 203.938877 
L 253.519206 208.959548 
L 254.777209 214.554331 
z
M 141.382754 29.270277 
L 137.296496 28.233559 
L 135.581969 30.938174 
L 143.754485 33.011611 
z
M 23.502072 207.740841 
L 23.569744 212.247584 
L 23.624381 214.554331 
L 28.065941 214.554331 
L 27.956667 209.940838 
L 27.821324 200.927351 
z
" clip-path="url(#p7bb4665493)" style="fill: #f6e620; fill-opacity: 0.7"/>
    <path d="M 255.474518 209.246604 
L 256.179216 211.75694 
L 256.808218 214.554331 
L 258.839227 214.554331 
z
M 137.296496 28.233559 
L 141.382754 29.270277 
L 139.011024 25.528943 
z
M 23.624381 214.554331 
L 23.569744 212.247584 
L 23.502072 207.740841 
L 19.18282 214.554331 
z
" clip-path="url(#p7bb4665493)" style="fill: #fde725; fill-opacity: 0.7"/>
   </g>
   <g id="matplotlib.axis_1"/>
   <g id="matplotlib.axis_2"/>
   <g id="line2d_1">
    <path d="M 198.925125 214.554331 
L 203.533902 156.392673 
" clip-path="url(#p7bb4665493)" style="fill: none; stroke: #555555; stroke-opacity: 0.9; stroke-width: 0.5; stroke-linecap: square"/>
   </g>
   <g id="line2d_2">
    <path d="M 139.011024 214.554331 
L 139.011024 151.545868 
" clip-path="url(#p7bb4665493)" style="fill: none; stroke: #555555; stroke-opacity: 0.9; stroke-width: 0.5; stroke-linecap: square"/>
   </g>
   <g id="line2d_3">
    <path d="M 218.896492 151.545868 
L 258.839227 214.554331 
" clip-path="url(#p7bb4665493)" style="fill: none; stroke: #555555; stroke-opacity: 0.9; stroke-width: 0.5; stroke-linecap: square"/>
   </g>
   <g id="line2d_4">
    <path d="M 79.096922 120.041637 
L 99.068289 88.537406 
" clip-path="url(#p7bb4665493)" style="fill: none; stroke: #555555; stroke-opacity: 0.9; stroke-width: 0.5; stroke-linecap: square"/>
   </g>
   <g id="line2d_5">
    <path d="M 168.968074 72.78529 
L 175.88124 83.690601 
" clip-path="url(#p7bb4665493)" style="fill: none; stroke: #555555; stroke-opacity: 0.9; stroke-width: 0.5; stroke-linecap: square"/>
   </g>
   <g id="line2d_6">
    <path d="M 198.925125 120.041637 
L 186.942305 176.749253 
" clip-path="url(#p7bb4665493)" style="fill: none; stroke: #555555; stroke-opacity: 0.9; stroke-width: 0.5; stroke-linecap: square"/>
   </g>
   <g id="line2d_7">
    <path d="M 198.925125 120.041637 
L 203.533902 156.392673 
" clip-path="url(#p7bb4665493)" style="fill: none; stroke: #555555; stroke-opacity: 0.9; stroke-width: 0.5; stroke-linecap: square"/>
   </g>
   <g id="line2d_8">
    <path d="M 119.039656 57.033175 
L 139.011024 25.528943 
" clip-path="url(#p7bb4665493)" style="fill: none; stroke: #555555; stroke-opacity: 0.9; stroke-width: 0.5; stroke-linecap: square"/>
   </g>
   <g id="line2d_9">
    <path d="M 139.011024 151.545868 
L 186.942305 176.749253 
" clip-path="url(#p7bb4665493)" style="fill: none; stroke: #555555; stroke-opacity: 0.9; stroke-width: 0.5; stroke-linecap: square"/>
   </g>
   <g id="line2d_10">
    <path d="M 168.968074 72.78529 
L 139.011024 25.528943 
" clip-path="url(#p7bb4665493)" style="fill: none; stroke: #555555; stroke-opacity: 0.9; stroke-width: 0.5; stroke-linecap: square"/>
   </g>
   <g id="line2d_11">
    <path d="M 178.953758 214.554331 
L 186.942305 176.749253 
" clip-path="url(#p7bb4665493)" style="fill: none; stroke: #555555; stroke-opacity: 0.9; stroke-width: 0.5; stroke-linecap: square"/>
   </g>
   <g id="line2d_12">
    <path d="M 139.011024 151.545868 
L 19.18282 214.554331 
" clip-path="url(#p7bb4665493)" style="fill: none; stroke: #555555; stroke-opacity: 0.9; stroke-width: 0.5; stroke-linecap: square"/>
   </g>
   <g id="line2d_13">
    <path d="M 175.88124 83.690601 
L 186.942305 176.749253 
" clip-path="url(#p7bb4665493)" style="fill: none; stroke: #555555; stroke-opacity: 0.9; stroke-width: 0.5; stroke-linecap: square"/>
   </g>
   <g id="line2d_14">
    <path d="M 198.925125 214.554331 
L 258.839227 214.554331 
" clip-path="url(#p7bb4665493)" style="fill: none; stroke: #555555; stroke-opacity: 0.9; stroke-width: 0.5; stroke-linecap: square"/>
   </g>
   <g id="line2d_15">
    <path d="M 203.533902 156.392673 
L 258.839227 214.554331 
" clip-path="url(#p7bb4665493)" style="fill: none; stroke: #555555; stroke-opacity: 0.9; stroke-width: 0.5; stroke-linecap: square"/>
   </g>
   <g id="line2d_16">
    <path d="M 139.011024 214.554331 
L 178.953758 214.554331 
" clip-path="url(#p7bb4665493)" style="fill: none; stroke: #555555; stroke-opacity: 0.9; stroke-width: 0.5; stroke-linecap: square"/>
   </g>
   <g id="line2d_17">
    <path d="M 99.068289 88.537406 
L 119.039656 57.033175 
" clip-path="url(#p7bb4665493)" style="fill: none; stroke: #555555; stroke-opacity: 0.9; stroke-width: 0.5; stroke-linecap: square"/>
   </g>
   <g id="line2d_18">
    <path d="M 99.068289 88.537406 
L 139.011024 151.545868 
" clip-path="url(#p7bb4665493)" style="fill: none; stroke: #555555; stroke-opacity: 0.9; stroke-width: 0.5; stroke-linecap: square"/>
   </g>
   <g id="line2d_19">
    <path d="M 186.942305 176.749253 
L 203.533902 156.392673 
" clip-path="url(#p7bb4665493)" style="fill: none; stroke: #555555; stroke-opacity: 0.9; stroke-width: 0.5; stroke-linecap: square"/>
   </g>
   <g id="line2d_20">
    <path d="M 119.039656 57.033175 
L 186.942305 176.749253 
" clip-path="url(#p7bb4665493)" style="fill: none; stroke: #555555; stroke-opacity: 0.9; stroke-width: 0.5; stroke-linecap: square"/>
   </g>
   <g id="line2d_21">
    <path d="M 79.096922 120.041637 
L 19.18282 214.554331 
" clip-path="url(#p7bb4665493)" style="fill: none; stroke: #555555; stroke-opacity: 0.9; stroke-width: 0.5; stroke-linecap: square"/>
   </g>
   <g id="line2d_22">
    <path d="M 168.968074 72.78529 
L 186.942305 176.749253 
" clip-path="url(#p7bb4665493)" style="fill: none; stroke: #555555; stroke-opacity: 0.9; stroke-width: 0.5; stroke-linecap: square"/>
   </g>
   <g id="line2d_23">
    <path d="M 178.953758 214.554331 
L 198.925125 214.554331 
" clip-path="url(#p7bb4665493)" style="fill: none; stroke: #555555; stroke-opacity: 0.9; stroke-width: 0.5; stroke-linecap: square"/>
   </g>
   <g id="line2d_24">
    <path d="M 139.011024 214.554331 
L 19.18282 214.554331 
" clip-path="url(#p7bb4665493)" style="fill: none; stroke: #555555; stroke-opacity: 0.9; stroke-width: 0.5; stroke-linecap: square"/>
   </g>
   <g id="line2d_25">
    <path d="M 218.896492 151.545868 
L 203.533902 156.392673 
" clip-path="url(#p7bb4665493)" style="fill: none; stroke: #555555; stroke-opacity: 0.9; stroke-width: 0.5; stroke-linecap: square"/>
   </g>
   <g id="line2d_26">
    <path d="M 198.925125 120.041637 
L 218.896492 151.545868 
" clip-path="url(#p7bb4665493)" style="fill: none; stroke: #555555; stroke-opacity: 0.9; stroke-width: 0.5; stroke-linecap: square"/>
   </g>
   <g id="line2d_27">
    <path d="M 119.039656 57.033175 
L 139.011024 151.545868 
" clip-path="url(#p7bb4665493)" style="fill: none; stroke: #555555; stroke-opacity: 0.9; stroke-width: 0.5; stroke-linecap: square"/>
   </g>
   <g id="line2d_28">
    <path d="M 198.925125 120.041637 
L 175.88124 83.690601 
" clip-path="url(#p7bb4665493)" style="fill: none; stroke: #555555; stroke-opacity: 0.9; stroke-width: 0.5; stroke-linecap: square"/>
   </g>
   <g id="line2d_29">
    <path d="M 79.096922 120.041637 
L 139.011024 151.545868 
" clip-path="url(#p7bb4665493)" style="fill: none; stroke: #555555; stroke-opacity: 0.9; stroke-width: 0.5; stroke-linecap: square"/>
   </g>
   <g id="line2d_30">
    <path d="M 168.968074 72.78529 
L 119.039656 57.033175 
" clip-path="url(#p7bb4665493)" style="fill: none; stroke: #555555; stroke-opacity: 0.9; stroke-width: 0.5; stroke-linecap: square"/>
   </g>
   <g id="line2d_31">
    <path d="M 139.011024 151.545868 
L 178.953758 214.554331 
" clip-path="url(#p7bb4665493)" style="fill: none; stroke: #555555; stroke-opacity: 0.9; stroke-width: 0.5; stroke-linecap: square"/>
   </g>
   <g id="line2d_32">
    <path d="M 198.925125 214.554331 
L 186.942305 176.749253 
" clip-path="url(#p7bb4665493)" style="fill: none; stroke: #555555; stroke-opacity: 0.9; stroke-width: 0.5; stroke-linecap: square"/>
   </g>
   <g id="PathCollection_1">
    <defs>
     <path id="m40920b1801" d="M 0 2.738613 
C 0.726289 2.738613 1.422928 2.450055 1.936492 1.936492 
C 2.450055 1.422928 2.738613 0.726289 2.738613 0 
C 2.738613 -0.726289 2.450055 -1.422928 1.936492 -1.936492 
C 1.422928 -2.450055 0.726289 -2.738613 0 -2.738613 
C -0.726289 -2.738613 -1.422928 -2.450055 -1.936492 -1.936492 
C -2.450055 -1.422928 -2.738613 -0.726289 -2.738613 0 
C -2.738613 0.726289 -2.450055 1.422928 -1.936492 1.936492 
C -1.422928 2.450055 -0.726289 2.738613 0 2.738613 
z
" style="stroke: #008000"/>
    </defs>
    <g clip-path="url(#p7bb4665493)">
     <use xlink:href="#m40920b1801" x="198.925125" y="214.554331" style="fill: #008000; stroke: #008000"/>
     <use xlink:href="#m40920b1801" x="203.533902" y="156.392673" style="fill: #008000; stroke: #008000"/>
     <use xlink:href="#m40920b1801" x="139.011024" y="214.554331" style="fill: #008000; stroke: #008000"/>
     <use xlink:href="#m40920b1801" x="139.011024" y="151.545868" style="fill: #008000; stroke: #008000"/>
     <use xlink:href="#m40920b1801" x="218.896492" y="151.545868" style="fill: #008000; stroke: #008000"/>
     <use xlink:href="#m40920b1801" x="258.839227" y="214.554331" style="fill: #008000; stroke: #008000"/>
     <use xlink:href="#m40920b1801" x="79.096922" y="120.041637" style="fill: #008000; stroke: #008000"/>
     <use xlink:href="#m40920b1801" x="99.068289" y="88.537406" style="fill: #008000; stroke: #008000"/>
     <use xlink:href="#m40920b1801" x="168.968074" y="72.78529" style="fill: #008000; stroke: #008000"/>
     <use xlink:href="#m40920b1801" x="175.88124" y="83.690601" style="fill: #008000; stroke: #008000"/>
     <use xlink:href="#m40920b1801" x="198.925125" y="120.041637" style="fill: #008000; stroke: #008000"/>
     <use xlink:href="#m40920b1801" x="186.942305" y="176.749253" style="fill: #008000; stroke: #008000"/>
     <use xlink:href="#m40920b1801" x="119.039656" y="57.033175" style="fill: #008000; stroke: #008000"/>
     <use xlink:href="#m40920b1801" x="139.011024" y="25.528943" style="fill: #008000; stroke: #008000"/>
     <use xlink:href="#m40920b1801" x="178.953758" y="214.554331" style="fill: #008000; stroke: #008000"/>
     <use xlink:href="#m40920b1801" x="19.18282" y="214.554331" style="fill: #008000; stroke: #008000"/>
    </g>
   </g>
   <g id="PathCollection_2">
    <defs>
     <path id="m2fb841c14d" d="M -0 2.236068 
L 1.341641 0 
L 0 -2.236068 
L -1.341641 -0 
z
" style="stroke: #d3d3d3"/>
    </defs>
    <g clip-path="url(#p7bb4665493)">
     <use xlink:href="#m2fb841c14d" x="139.011024" y="25.528943" style="fill: #d3d3d3; stroke: #d3d3d3"/>
     <use xlink:href="#m2fb841c14d" x="139.011024" y="25.528943" style="fill: #d3d3d3; stroke: #d3d3d3"/>
     <use xlink:href="#m2fb841c14d" x="139.011024" y="25.528943" style="fill: #d3d3d3; stroke: #d3d3d3"/>
     <use xlink:href="#m2fb841c14d" x="139.011024" y="25.528943" style="fill: #d3d3d3; stroke: #d3d3d3"/>
     <use xlink:href="#m2fb841c14d" x="139.011024" y="25.528943" style="fill: #d3d3d3; stroke: #d3d3d3"/>
     <use xlink:href="#m2fb841c14d" x="139.011024" y="25.528943" style="fill: #d3d3d3; stroke: #d3d3d3"/>
     <use xlink:href="#m2fb841c14d" x="139.011024" y="25.528943" style="fill: #d3d3d3; stroke: #d3d3d3"/>
     <use xlink:href="#m2fb841c14d" x="258.839227" y="214.554331" style="fill: #d3d3d3; stroke: #d3d3d3"/>
     <use xlink:href="#m2fb841c14d" x="258.839227" y="214.554331" style="fill: #d3d3d3; stroke: #d3d3d3"/>
     <use xlink:href="#m2fb841c14d" x="258.839227" y="214.554331" style="fill: #d3d3d3; stroke: #d3d3d3"/>
     <use xlink:href="#m2fb841c14d" x="258.839227" y="214.554331" style="fill: #d3d3d3; stroke: #d3d3d3"/>
     <use xlink:href="#m2fb841c14d" x="258.839227" y="214.554331" style="fill: #d3d3d3; stroke: #d3d3d3"/>
     <use xlink:href="#m2fb841c14d" x="258.839227" y="214.554331" style="fill: #d3d3d3; stroke: #d3d3d3"/>
     <use xlink:href="#m2fb841c14d" x="258.839227" y="214.554331" style="fill: #d3d3d3; stroke: #d3d3d3"/>
     <use xlink:href="#m2fb841c14d" x="258.839227" y="214.554331" style="fill: #d3d3d3; stroke: #d3d3d3"/>
     <use xlink:href="#m2fb841c14d" x="258.839227" y="214.554331" style="fill: #d3d3d3; stroke: #d3d3d3"/>
     <use xlink:href="#m2fb841c14d" x="198.925125" y="120.041637" style="fill: #d3d3d3; stroke: #d3d3d3"/>
     <use xlink:href="#m2fb841c14d" x="168.968074" y="72.78529" style="fill: #d3d3d3; stroke: #d3d3d3"/>
     <use xlink:href="#m2fb841c14d" x="168.968074" y="72.78529" style="fill: #d3d3d3; stroke: #d3d3d3"/>
     <use xlink:href="#m2fb841c14d" x="168.968074" y="72.78529" style="fill: #d3d3d3; stroke: #d3d3d3"/>
     <use xlink:href="#m2fb841c14d" x="162.976664" y="63.334021" style="fill: #d3d3d3; stroke: #d3d3d3"/>
     <use xlink:href="#m2fb841c14d" x="218.896492" y="151.545868" style="fill: #d3d3d3; stroke: #d3d3d3"/>
     <use xlink:href="#m2fb841c14d" x="218.896492" y="151.545868" style="fill: #d3d3d3; stroke: #d3d3d3"/>
     <use xlink:href="#m2fb841c14d" x="228.882176" y="167.297984" style="fill: #d3d3d3; stroke: #d3d3d3"/>
     <use xlink:href="#m2fb841c14d" x="228.882176" y="167.297984" style="fill: #d3d3d3; stroke: #d3d3d3"/>
     <use xlink:href="#m2fb841c14d" x="210.907946" y="138.944176" style="fill: #d3d3d3; stroke: #d3d3d3"/>
     <use xlink:href="#m2fb841c14d" x="164.238014" y="65.323762" style="fill: #d3d3d3; stroke: #d3d3d3"/>
     <use xlink:href="#m2fb841c14d" x="19.18282" y="214.554331" style="fill: #d3d3d3; stroke: #d3d3d3"/>
     <use xlink:href="#m2fb841c14d" x="19.18282" y="214.554331" style="fill: #d3d3d3; stroke: #d3d3d3"/>
     <use xlink:href="#m2fb841c14d" x="19.18282" y="214.554331" style="fill: #d3d3d3; stroke: #d3d3d3"/>
     <use xlink:href="#m2fb841c14d" x="79.096922" y="120.041637" style="fill: #d3d3d3; stroke: #d3d3d3"/>
     <use xlink:href="#m2fb841c14d" x="121.892709" y="52.53257" style="fill: #d3d3d3; stroke: #d3d3d3"/>
     <use xlink:href="#m2fb841c14d" x="139.011024" y="214.554331" style="fill: #d3d3d3; stroke: #d3d3d3"/>
     <use xlink:href="#m2fb841c14d" x="139.011024" y="151.545868" style="fill: #d3d3d3; stroke: #d3d3d3"/>
     <use xlink:href="#m2fb841c14d" x="139.011024" y="88.537406" style="fill: #d3d3d3; stroke: #d3d3d3"/>
     <use xlink:href="#m2fb841c14d" x="210.907946" y="214.554331" style="fill: #d3d3d3; stroke: #d3d3d3"/>
     <use xlink:href="#m2fb841c14d" x="210.907946" y="214.554331" style="fill: #d3d3d3; stroke: #d3d3d3"/>
     <use xlink:href="#m2fb841c14d" x="218.896492" y="214.554331" style="fill: #d3d3d3; stroke: #d3d3d3"/>
     <use xlink:href="#m2fb841c14d" x="99.068289" y="214.554331" style="fill: #d3d3d3; stroke: #d3d3d3"/>
     <use xlink:href="#m2fb841c14d" x="79.096922" y="214.554331" style="fill: #d3d3d3; stroke: #d3d3d3"/>
     <use xlink:href="#m2fb841c14d" x="79.096922" y="214.554331" style="fill: #d3d3d3; stroke: #d3d3d3"/>
     <use xlink:href="#m2fb841c14d" x="207.484283" y="214.554331" style="fill: #d3d3d3; stroke: #d3d3d3"/>
     <use xlink:href="#m2fb841c14d" x="67.114102" y="214.554331" style="fill: #d3d3d3; stroke: #d3d3d3"/>
    </g>
   </g>
   <g id="PathCollection_3">
    <defs>
     <path id="me706426d8c" d="M 0 -5 
L -1.12257 -1.545085 
L -4.755283 -1.545085 
L -1.816356 0.59017 
L -2.938926 4.045085 
L -0 1.90983 
L 2.938926 4.045085 
L 1.816356 0.59017 
L 4.755283 -1.545085 
L 1.12257 -1.545085 
z
" style="stroke: #ff0000"/>
    </defs>
    <g clip-path="url(#p7bb4665493)">
     <use xlink:href="#me706426d8c" x="203.533902" y="156.392673" style="fill: #ff0000; stroke: #ff0000"/>
    </g>
   </g>
   <g id="text_1">
    <!-- $\mathrm{SmAl_{3}}$ -->
    <g transform="translate(199.988762 210.594971) scale(0.1 -0.1)">
     <defs>
      <path id="DejaVuSans-53" d="M 3425 4513 
L 3425 3897 
Q 3066 4069 2747 4153 
Q 2428 4238 2131 4238 
Q 1616 4238 1336 4038 
Q 1056 3838 1056 3469 
Q 1056 3159 1242 3001 
Q 1428 2844 1947 2747 
L 2328 2669 
Q 3034 2534 3370 2195 
Q 3706 1856 3706 1288 
Q 3706 609 3251 259 
Q 2797 -91 1919 -91 
Q 1588 -91 1214 -16 
Q 841 59 441 206 
L 441 856 
Q 825 641 1194 531 
Q 1563 422 1919 422 
Q 2459 422 2753 634 
Q 3047 847 3047 1241 
Q 3047 1584 2836 1778 
Q 2625 1972 2144 2069 
L 1759 2144 
Q 1053 2284 737 2584 
Q 422 2884 422 3419 
Q 422 4038 858 4394 
Q 1294 4750 2059 4750 
Q 2388 4750 2728 4690 
Q 3069 4631 3425 4513 
z
" transform="scale(0.015625)"/>
      <path id="DejaVuSans-6d" d="M 3328 2828 
Q 3544 3216 3844 3400 
Q 4144 3584 4550 3584 
Q 5097 3584 5394 3201 
Q 5691 2819 5691 2113 
L 5691 0 
L 5113 0 
L 5113 2094 
Q 5113 2597 4934 2840 
Q 4756 3084 4391 3084 
Q 3944 3084 3684 2787 
Q 3425 2491 3425 1978 
L 3425 0 
L 2847 0 
L 2847 2094 
Q 2847 2600 2669 2842 
Q 2491 3084 2119 3084 
Q 1678 3084 1418 2786 
Q 1159 2488 1159 1978 
L 1159 0 
L 581 0 
L 581 3500 
L 1159 3500 
L 1159 2956 
Q 1356 3278 1631 3431 
Q 1906 3584 2284 3584 
Q 2666 3584 2933 3390 
Q 3200 3197 3328 2828 
z
" transform="scale(0.015625)"/>
      <path id="DejaVuSans-41" d="M 2188 4044 
L 1331 1722 
L 3047 1722 
L 2188 4044 
z
M 1831 4666 
L 2547 4666 
L 4325 0 
L 3669 0 
L 3244 1197 
L 1141 1197 
L 716 0 
L 50 0 
L 1831 4666 
z
" transform="scale(0.015625)"/>
      <path id="DejaVuSans-6c" d="M 603 4863 
L 1178 4863 
L 1178 0 
L 603 0 
L 603 4863 
z
" transform="scale(0.015625)"/>
      <path id="DejaVuSans-33" d="M 2597 2516 
Q 3050 2419 3304 2112 
Q 3559 1806 3559 1356 
Q 3559 666 3084 287 
Q 2609 -91 1734 -91 
Q 1441 -91 1130 -33 
Q 819 25 488 141 
L 488 750 
Q 750 597 1062 519 
Q 1375 441 1716 441 
Q 2309 441 2620 675 
Q 2931 909 2931 1356 
Q 2931 1769 2642 2001 
Q 2353 2234 1838 2234 
L 1294 2234 
L 1294 2753 
L 1863 2753 
Q 2328 2753 2575 2939 
Q 2822 3125 2822 3475 
Q 2822 3834 2567 4026 
Q 2313 4219 1838 4219 
Q 1578 4219 1281 4162 
Q 984 4106 628 3988 
L 628 4550 
Q 988 4650 1302 4700 
Q 1616 4750 1894 4750 
Q 2613 4750 3031 4423 
Q 3450 4097 3450 3541 
Q 3450 3153 3228 2886 
Q 3006 2619 2597 2516 
z
" transform="scale(0.015625)"/>
     </defs>
     <use xlink:href="#DejaVuSans-53" transform="translate(0 0.015625)"/>
     <use xlink:href="#DejaVuSans-6d" transform="translate(63.476562 0.015625)"/>
     <use xlink:href="#DejaVuSans-41" transform="translate(160.888672 0.015625)"/>
     <use xlink:href="#DejaVuSans-6c" transform="translate(229.296875 0.015625)"/>
     <use xlink:href="#DejaVuSans-33" transform="translate(258.037109 -16.390625) scale(0.7)"/>
    </g>
   </g>
   <g id="text_2">
    <!-- $\mathrm{SmAl}$ -->
    <g transform="translate(132.001933 211.215873) scale(0.1 -0.1)">
     <use xlink:href="#DejaVuSans-53" transform="translate(0 0.015625)"/>
     <use xlink:href="#DejaVuSans-6d" transform="translate(63.476562 0.015625)"/>
     <use xlink:href="#DejaVuSans-41" transform="translate(160.888672 0.015625)"/>
     <use xlink:href="#DejaVuSans-6c" transform="translate(229.296875 0.015625)"/>
    </g>
   </g>
   <g id="text_3">
    <!-- $\mathrm{SmAlCu}$ -->
    <g transform="translate(107.02466 159.119331) scale(0.1 -0.1)">
     <defs>
      <path id="DejaVuSans-43" d="M 4122 4306 
L 4122 3641 
Q 3803 3938 3442 4084 
Q 3081 4231 2675 4231 
Q 1875 4231 1450 3742 
Q 1025 3253 1025 2328 
Q 1025 1406 1450 917 
Q 1875 428 2675 428 
Q 3081 428 3442 575 
Q 3803 722 4122 1019 
L 4122 359 
Q 3791 134 3420 21 
Q 3050 -91 2638 -91 
Q 1578 -91 968 557 
Q 359 1206 359 2328 
Q 359 3453 968 4101 
Q 1578 4750 2638 4750 
Q 3056 4750 3426 4639 
Q 3797 4528 4122 4306 
z
" transform="scale(0.015625)"/>
      <path id="DejaVuSans-75" d="M 544 1381 
L 544 3500 
L 1119 3500 
L 1119 1403 
Q 1119 906 1312 657 
Q 1506 409 1894 409 
Q 2359 409 2629 706 
Q 2900 1003 2900 1516 
L 2900 3500 
L 3475 3500 
L 3475 0 
L 2900 0 
L 2900 538 
Q 2691 219 2414 64 
Q 2138 -91 1772 -91 
Q 1169 -91 856 284 
Q 544 659 544 1381 
z
M 1991 3584 
L 1991 3584 
z
" transform="scale(0.015625)"/>
     </defs>
     <use xlink:href="#DejaVuSans-53" transform="translate(0 0.015625)"/>
     <use xlink:href="#DejaVuSans-6d" transform="translate(63.476562 0.015625)"/>
     <use xlink:href="#DejaVuSans-41" transform="translate(160.888672 0.015625)"/>
     <use xlink:href="#DejaVuSans-6c" transform="translate(229.296875 0.015625)"/>
     <use xlink:href="#DejaVuSans-43" transform="translate(257.080078 0.015625)"/>
     <use xlink:href="#DejaVuSans-75" transform="translate(326.904297 0.015625)"/>
    </g>
   </g>
   <g id="text_4">
    <!-- $\mathrm{Al_{2}Cu}$ -->
    <g transform="translate(211.541947 144.926045) scale(0.1 -0.1)">
     <defs>
      <path id="DejaVuSans-32" d="M 1228 531 
L 3431 531 
L 3431 0 
L 469 0 
L 469 531 
Q 828 903 1448 1529 
Q 2069 2156 2228 2338 
Q 2531 2678 2651 2914 
Q 2772 3150 2772 3378 
Q 2772 3750 2511 3984 
Q 2250 4219 1831 4219 
Q 1534 4219 1204 4116 
Q 875 4013 500 3803 
L 500 4441 
Q 881 4594 1212 4672 
Q 1544 4750 1819 4750 
Q 2544 4750 2975 4387 
Q 3406 4025 3406 3419 
Q 3406 3131 3298 2873 
Q 3191 2616 2906 2266 
Q 2828 2175 2409 1742 
Q 1991 1309 1228 531 
z
" transform="scale(0.015625)"/>
     </defs>
     <use xlink:href="#DejaVuSans-41" transform="translate(0 0.015625)"/>
     <use xlink:href="#DejaVuSans-6c" transform="translate(68.408203 0.015625)"/>
     <use xlink:href="#DejaVuSans-32" transform="translate(97.148438 -16.390625) scale(0.7)"/>
     <use xlink:href="#DejaVuSans-43" transform="translate(144.418945 0.015625)"/>
     <use xlink:href="#DejaVuSans-75" transform="translate(214.243164 0.015625)"/>
    </g>
   </g>
   <g id="text_5">
    <!-- $\mathrm{Al}$ -->
    <g transform="translate(249.389691 211.215873) scale(0.1 -0.1)">
     <use xlink:href="#DejaVuSans-41" transform="translate(0 0.015625)"/>
     <use xlink:href="#DejaVuSans-6c" transform="translate(68.408203 0.015625)"/>
    </g>
   </g>
   <g id="text_6">
    <!-- $\mathrm{SmCu}$ -->
    <g transform="translate(55.837831 127.6151) scale(0.1 -0.1)">
     <use xlink:href="#DejaVuSans-53" transform="translate(0 0.78125)"/>
     <use xlink:href="#DejaVuSans-6d" transform="translate(63.476562 0.78125)"/>
     <use xlink:href="#DejaVuSans-43" transform="translate(160.888672 0.78125)"/>
     <use xlink:href="#DejaVuSans-75" transform="translate(230.712891 0.78125)"/>
    </g>
   </g>
   <g id="text_7">
    <!-- $\mathrm{SmCu_{2}}$ -->
    <g transform="translate(71.445562 96.76175) scale(0.1 -0.1)">
     <use xlink:href="#DejaVuSans-53" transform="translate(0 0.78125)"/>
     <use xlink:href="#DejaVuSans-6d" transform="translate(63.476562 0.78125)"/>
     <use xlink:href="#DejaVuSans-43" transform="translate(160.888672 0.78125)"/>
     <use xlink:href="#DejaVuSans-75" transform="translate(230.712891 0.78125)"/>
     <use xlink:href="#DejaVuSans-32" transform="translate(295.048828 -15.625) scale(0.7)"/>
    </g>
   </g>
   <g id="text_8">
    <!-- $\mathrm{AlCu_{3}}$ -->
    <g transform="translate(161.613529 68.638869) scale(0.1 -0.1)">
     <use xlink:href="#DejaVuSans-41" transform="translate(0 0.015625)"/>
     <use xlink:href="#DejaVuSans-6c" transform="translate(68.408203 0.015625)"/>
     <use xlink:href="#DejaVuSans-43" transform="translate(96.191406 0.015625)"/>
     <use xlink:href="#DejaVuSans-75" transform="translate(166.015625 0.015625)"/>
     <use xlink:href="#DejaVuSans-33" transform="translate(230.351562 -16.390625) scale(0.7)"/>
    </g>
   </g>
   <g id="text_9">
    <!-- $\mathrm{Al_{4}Cu_{9}}$ -->
    <g transform="translate(175.944876 87.026639) scale(0.1 -0.1)">
     <defs>
      <path id="DejaVuSans-34" d="M 2419 4116 
L 825 1625 
L 2419 1625 
L 2419 4116 
z
M 2253 4666 
L 3047 4666 
L 3047 1625 
L 3713 1625 
L 3713 1100 
L 3047 1100 
L 3047 0 
L 2419 0 
L 2419 1100 
L 313 1100 
L 313 1709 
L 2253 4666 
z
" transform="scale(0.015625)"/>
      <path id="DejaVuSans-39" d="M 703 97 
L 703 672 
Q 941 559 1184 500 
Q 1428 441 1663 441 
Q 2288 441 2617 861 
Q 2947 1281 2994 2138 
Q 2813 1869 2534 1725 
Q 2256 1581 1919 1581 
Q 1219 1581 811 2004 
Q 403 2428 403 3163 
Q 403 3881 828 4315 
Q 1253 4750 1959 4750 
Q 2769 4750 3195 4129 
Q 3622 3509 3622 2328 
Q 3622 1225 3098 567 
Q 2575 -91 1691 -91 
Q 1453 -91 1209 -44 
Q 966 3 703 97 
z
M 1959 2075 
Q 2384 2075 2632 2365 
Q 2881 2656 2881 3163 
Q 2881 3666 2632 3958 
Q 2384 4250 1959 4250 
Q 1534 4250 1286 3958 
Q 1038 3666 1038 3163 
Q 1038 2656 1286 2365 
Q 1534 2075 1959 2075 
z
" transform="scale(0.015625)"/>
     </defs>
     <use xlink:href="#DejaVuSans-41" transform="translate(0 0.015625)"/>
     <use xlink:href="#DejaVuSans-6c" transform="translate(68.408203 0.015625)"/>
     <use xlink:href="#DejaVuSans-34" transform="translate(97.148438 -16.390625) scale(0.7)"/>
     <use xlink:href="#DejaVuSans-43" transform="translate(144.418945 0.015625)"/>
     <use xlink:href="#DejaVuSans-75" transform="translate(214.243164 0.015625)"/>
     <use xlink:href="#DejaVuSans-39" transform="translate(278.579102 -16.390625) scale(0.7)"/>
    </g>
   </g>
   <g id="text_10">
    <!-- $\mathrm{AlCu}$ -->
    <g transform="translate(180.879671 127.6151) scale(0.1 -0.1)">
     <use xlink:href="#DejaVuSans-41" transform="translate(0 0.015625)"/>
     <use xlink:href="#DejaVuSans-6c" transform="translate(68.408203 0.015625)"/>
     <use xlink:href="#DejaVuSans-43" transform="translate(96.191406 0.015625)"/>
     <use xlink:href="#DejaVuSans-75" transform="translate(166.015625 0.015625)"/>
    </g>
   </g>
   <g id="text_11">
    <!-- $\mathrm{SmAl_{3}Cu}$ -->
    <g transform="translate(149.937759 185.697136) scale(0.1 -0.1)">
     <use xlink:href="#DejaVuSans-53" transform="translate(0 0.015625)"/>
     <use xlink:href="#DejaVuSans-6d" transform="translate(63.476562 0.015625)"/>
     <use xlink:href="#DejaVuSans-41" transform="translate(160.888672 0.015625)"/>
     <use xlink:href="#DejaVuSans-6c" transform="translate(229.296875 0.015625)"/>
     <use xlink:href="#DejaVuSans-33" transform="translate(258.037109 -16.390625) scale(0.7)"/>
     <use xlink:href="#DejaVuSans-43" transform="translate(305.307617 0.015625)"/>
     <use xlink:href="#DejaVuSans-75" transform="translate(375.131836 0.015625)"/>
    </g>
   </g>
   <g id="text_12">
    <!-- $\mathrm{SmCu_{5}}$ -->
    <g transform="translate(91.416929 65.307519) scale(0.1 -0.1)">
     <defs>
      <path id="DejaVuSans-35" d="M 691 4666 
L 3169 4666 
L 3169 4134 
L 1269 4134 
L 1269 2991 
Q 1406 3038 1543 3061 
Q 1681 3084 1819 3084 
Q 2600 3084 3056 2656 
Q 3513 2228 3513 1497 
Q 3513 744 3044 326 
Q 2575 -91 1722 -91 
Q 1428 -91 1123 -41 
Q 819 9 494 109 
L 494 744 
Q 775 591 1075 516 
Q 1375 441 1709 441 
Q 2250 441 2565 725 
Q 2881 1009 2881 1497 
Q 2881 1984 2565 2268 
Q 2250 2553 1709 2553 
Q 1456 2553 1204 2497 
Q 953 2441 691 2322 
L 691 4666 
z
" transform="scale(0.015625)"/>
     </defs>
     <use xlink:href="#DejaVuSans-53" transform="translate(0 0.78125)"/>
     <use xlink:href="#DejaVuSans-6d" transform="translate(63.476562 0.78125)"/>
     <use xlink:href="#DejaVuSans-43" transform="translate(160.888672 0.78125)"/>
     <use xlink:href="#DejaVuSans-75" transform="translate(230.712891 0.78125)"/>
     <use xlink:href="#DejaVuSans-35" transform="translate(295.048828 -15.625) scale(0.7)"/>
    </g>
   </g>
   <g id="text_13">
    <!-- $\mathrm{Cu}$ -->
    <g transform="translate(130.347387 33.102406) scale(0.1 -0.1)">
     <use xlink:href="#DejaVuSans-43" transform="translate(0 0.78125)"/>
     <use xlink:href="#DejaVuSans-75" transform="translate(69.824219 0.78125)"/>
    </g>
   </g>
   <g id="text_14">
    <!-- $\mathrm{SmAl_{2}}$ -->
    <g transform="translate(167.581031 210.544971) scale(0.1 -0.1)">
     <use xlink:href="#DejaVuSans-53" transform="translate(0 0.015625)"/>
     <use xlink:href="#DejaVuSans-6d" transform="translate(63.476562 0.015625)"/>
     <use xlink:href="#DejaVuSans-41" transform="translate(160.888672 0.015625)"/>
     <use xlink:href="#DejaVuSans-6c" transform="translate(229.296875 0.015625)"/>
     <use xlink:href="#DejaVuSans-32" transform="translate(258.037109 -16.390625) scale(0.7)"/>
    </g>
   </g>
   <g id="text_15">
    <!-- $\mathrm{Sm}$ -->
    <g transform="translate(19.35387 212.151181) scale(0.1 -0.1)">
     <use xlink:href="#DejaVuSans-53" transform="translate(0 0.78125)"/>
     <use xlink:href="#DejaVuSans-6d" transform="translate(63.476562 0.78125)"/>
    </g>
   </g>
   <g id="text_16">
    <!-- $\mathrm{Sm(Al_{2}Cu)_{4}}$ -->
    <g style="fill: #ff0000" transform="translate(203.020613 164.667018) scale(0.1 -0.1)">
     <defs>
      <path id="DejaVuSans-28" d="M 1984 4856 
Q 1566 4138 1362 3434 
Q 1159 2731 1159 2009 
Q 1159 1288 1364 580 
Q 1569 -128 1984 -844 
L 1484 -844 
Q 1016 -109 783 600 
Q 550 1309 550 2009 
Q 550 2706 781 3412 
Q 1013 4119 1484 4856 
L 1984 4856 
z
" transform="scale(0.015625)"/>
      <path id="DejaVuSans-29" d="M 513 4856 
L 1013 4856 
Q 1481 4119 1714 3412 
Q 1947 2706 1947 2009 
Q 1947 1309 1714 600 
Q 1481 -109 1013 -844 
L 513 -844 
Q 928 -128 1133 580 
Q 1338 1288 1338 2009 
Q 1338 2731 1133 3434 
Q 928 4138 513 4856 
z
" transform="scale(0.015625)"/>
     </defs>
     <use xlink:href="#DejaVuSans-53" transform="translate(0 0.015625)"/>
     <use xlink:href="#DejaVuSans-6d" transform="translate(63.476562 0.015625)"/>
     <use xlink:href="#DejaVuSans-28" transform="translate(160.888672 0.015625)"/>
     <use xlink:href="#DejaVuSans-41" transform="translate(199.902344 0.015625)"/>
     <use xlink:href="#DejaVuSans-6c" transform="translate(268.310547 0.015625)"/>
     <use xlink:href="#DejaVuSans-32" transform="translate(297.050781 -16.390625) scale(0.7)"/>
     <use xlink:href="#DejaVuSans-43" transform="translate(344.321289 0.015625)"/>
     <use xlink:href="#DejaVuSans-75" transform="translate(414.145508 0.015625)"/>
     <use xlink:href="#DejaVuSans-29" transform="translate(477.524414 0.015625)"/>
     <use xlink:href="#DejaVuSans-34" transform="translate(517.495117 -16.390625) scale(0.7)"/>
    </g>
   </g>
  </g>
  <g id="axes_2">
   <g id="patch_3">
    <path d="M 287.298425 195.703937 
L 296.029134 195.703937 
L 296.029134 36.96378 
L 287.298425 36.96378 
L 287.298425 195.703937 
z
" style="fill: none"/>
   </g>
   <g id="patch_4">
    <path d="M 287.298425 195.703937 
L 291.66378 203.640945 
L 296.029134 195.703937 
" style="fill: #440154; opacity: 0.7"/>
   </g>
   <g id="patch_5">
    <path d="M 287.298425 36.96378 
L 291.66378 29.026772 
L 296.029134 36.96378 
" style="fill: #fde725; opacity: 0.7"/>
   </g>
   <g id="QuadMesh_1">
    <path d="M 287.298425 195.703937 
L 296.029134 195.703937 
L 296.029134 190.893629 
L 287.298425 190.893629 
L 287.298425 195.703937 
" clip-path="url(#p6932ffc92e)" style="fill: #450559; fill-opacity: 0.7"/>
    <path d="M 287.298425 190.893629 
L 296.029134 190.893629 
L 296.029134 186.083321 
L 287.298425 186.083321 
L 287.298425 190.893629 
" clip-path="url(#p6932ffc92e)" style="fill: #471164; fill-opacity: 0.7"/>
    <path d="M 287.298425 186.083321 
L 296.029134 186.083321 
L 296.029134 181.273014 
L 287.298425 181.273014 
L 287.298425 186.083321 
" clip-path="url(#p6932ffc92e)" style="fill: #481c6e; fill-opacity: 0.7"/>
    <path d="M 287.298425 181.273014 
L 296.029134 181.273014 
L 296.029134 176.462706 
L 287.298425 176.462706 
L 287.298425 181.273014 
" clip-path="url(#p6932ffc92e)" style="fill: #482677; fill-opacity: 0.7"/>
    <path d="M 287.298425 176.462706 
L 296.029134 176.462706 
L 296.029134 171.652398 
L 287.298425 171.652398 
L 287.298425 176.462706 
" clip-path="url(#p6932ffc92e)" style="fill: #472f7d; fill-opacity: 0.7"/>
    <path d="M 287.298425 171.652398 
L 296.029134 171.652398 
L 296.029134 166.84209 
L 287.298425 166.84209 
L 287.298425 171.652398 
" clip-path="url(#p6932ffc92e)" style="fill: #443983; fill-opacity: 0.7"/>
    <path d="M 287.298425 166.84209 
L 296.029134 166.84209 
L 296.029134 162.031782 
L 287.298425 162.031782 
L 287.298425 166.84209 
" clip-path="url(#p6932ffc92e)" style="fill: #414287; fill-opacity: 0.7"/>
    <path d="M 287.298425 162.031782 
L 296.029134 162.031782 
L 296.029134 157.221475 
L 287.298425 157.221475 
L 287.298425 162.031782 
" clip-path="url(#p6932ffc92e)" style="fill: #3e4c8a; fill-opacity: 0.7"/>
    <path d="M 287.298425 157.221475 
L 296.029134 157.221475 
L 296.029134 152.411167 
L 287.298425 152.411167 
L 287.298425 157.221475 
" clip-path="url(#p6932ffc92e)" style="fill: #3a538b; fill-opacity: 0.7"/>
    <path d="M 287.298425 152.411167 
L 296.029134 152.411167 
L 296.029134 147.600859 
L 287.298425 147.600859 
L 287.298425 152.411167 
" clip-path="url(#p6932ffc92e)" style="fill: #365c8d; fill-opacity: 0.7"/>
    <path d="M 287.298425 147.600859 
L 296.029134 147.600859 
L 296.029134 142.790551 
L 287.298425 142.790551 
L 287.298425 147.600859 
" clip-path="url(#p6932ffc92e)" style="fill: #32648e; fill-opacity: 0.7"/>
    <path d="M 287.298425 142.790551 
L 296.029134 142.790551 
L 296.029134 137.980243 
L 287.298425 137.980243 
L 287.298425 142.790551 
" clip-path="url(#p6932ffc92e)" style="fill: #2f6c8e; fill-opacity: 0.7"/>
    <path d="M 287.298425 137.980243 
L 296.029134 137.980243 
L 296.029134 133.169936 
L 287.298425 133.169936 
L 287.298425 137.980243 
" clip-path="url(#p6932ffc92e)" style="fill: #2c728e; fill-opacity: 0.7"/>
    <path d="M 287.298425 133.169936 
L 296.029134 133.169936 
L 296.029134 128.359628 
L 287.298425 128.359628 
L 287.298425 133.169936 
" clip-path="url(#p6932ffc92e)" style="fill: #297a8e; fill-opacity: 0.7"/>
    <path d="M 287.298425 128.359628 
L 296.029134 128.359628 
L 296.029134 123.54932 
L 287.298425 123.54932 
L 287.298425 128.359628 
" clip-path="url(#p6932ffc92e)" style="fill: #26828e; fill-opacity: 0.7"/>
    <path d="M 287.298425 123.54932 
L 296.029134 123.54932 
L 296.029134 118.739012 
L 287.298425 118.739012 
L 287.298425 123.54932 
" clip-path="url(#p6932ffc92e)" style="fill: #23898e; fill-opacity: 0.7"/>
    <path d="M 287.298425 118.739012 
L 296.029134 118.739012 
L 296.029134 113.928704 
L 287.298425 113.928704 
L 287.298425 118.739012 
" clip-path="url(#p6932ffc92e)" style="fill: #21918c; fill-opacity: 0.7"/>
    <path d="M 287.298425 113.928704 
L 296.029134 113.928704 
L 296.029134 109.118397 
L 287.298425 109.118397 
L 287.298425 113.928704 
" clip-path="url(#p6932ffc92e)" style="fill: #1f978b; fill-opacity: 0.7"/>
    <path d="M 287.298425 109.118397 
L 296.029134 109.118397 
L 296.029134 104.308089 
L 287.298425 104.308089 
L 287.298425 109.118397 
" clip-path="url(#p6932ffc92e)" style="fill: #1f9f88; fill-opacity: 0.7"/>
    <path d="M 287.298425 104.308089 
L 296.029134 104.308089 
L 296.029134 99.497781 
L 287.298425 99.497781 
L 287.298425 104.308089 
" clip-path="url(#p6932ffc92e)" style="fill: #21a685; fill-opacity: 0.7"/>
    <path d="M 287.298425 99.497781 
L 296.029134 99.497781 
L 296.029134 94.687473 
L 287.298425 94.687473 
L 287.298425 99.497781 
" clip-path="url(#p6932ffc92e)" style="fill: #27ad81; fill-opacity: 0.7"/>
    <path d="M 287.298425 94.687473 
L 296.029134 94.687473 
L 296.029134 89.877165 
L 287.298425 89.877165 
L 287.298425 94.687473 
" clip-path="url(#p6932ffc92e)" style="fill: #2fb47c; fill-opacity: 0.7"/>
    <path d="M 287.298425 89.877165 
L 296.029134 89.877165 
L 296.029134 85.066858 
L 287.298425 85.066858 
L 287.298425 89.877165 
" clip-path="url(#p6932ffc92e)" style="fill: #3bbb75; fill-opacity: 0.7"/>
    <path d="M 287.298425 85.066858 
L 296.029134 85.066858 
L 296.029134 80.25655 
L 287.298425 80.25655 
L 287.298425 85.066858 
" clip-path="url(#p6932ffc92e)" style="fill: #4ac16d; fill-opacity: 0.7"/>
    <path d="M 287.298425 80.25655 
L 296.029134 80.25655 
L 296.029134 75.446242 
L 287.298425 75.446242 
L 287.298425 80.25655 
" clip-path="url(#p6932ffc92e)" style="fill: #5ac864; fill-opacity: 0.7"/>
    <path d="M 287.298425 75.446242 
L 296.029134 75.446242 
L 296.029134 70.635934 
L 287.298425 70.635934 
L 287.298425 75.446242 
" clip-path="url(#p6932ffc92e)" style="fill: #69cd5b; fill-opacity: 0.7"/>
    <path d="M 287.298425 70.635934 
L 296.029134 70.635934 
L 296.029134 65.825626 
L 287.298425 65.825626 
L 287.298425 70.635934 
" clip-path="url(#p6932ffc92e)" style="fill: #7cd250; fill-opacity: 0.7"/>
    <path d="M 287.298425 65.825626 
L 296.029134 65.825626 
L 296.029134 61.015319 
L 287.298425 61.015319 
L 287.298425 65.825626 
" clip-path="url(#p6932ffc92e)" style="fill: #90d743; fill-opacity: 0.7"/>
    <path d="M 287.298425 61.015319 
L 296.029134 61.015319 
L 296.029134 56.205011 
L 287.298425 56.205011 
L 287.298425 61.015319 
" clip-path="url(#p6932ffc92e)" style="fill: #a5db36; fill-opacity: 0.7"/>
    <path d="M 287.298425 56.205011 
L 296.029134 56.205011 
L 296.029134 51.394703 
L 287.298425 51.394703 
L 287.298425 56.205011 
" clip-path="url(#p6932ffc92e)" style="fill: #b8de29; fill-opacity: 0.7"/>
    <path d="M 287.298425 51.394703 
L 296.029134 51.394703 
L 296.029134 46.584395 
L 287.298425 46.584395 
L 287.298425 51.394703 
" clip-path="url(#p6932ffc92e)" style="fill: #cde11d; fill-opacity: 0.7"/>
    <path d="M 287.298425 46.584395 
L 296.029134 46.584395 
L 296.029134 41.774087 
L 287.298425 41.774087 
L 287.298425 46.584395 
" clip-path="url(#p6932ffc92e)" style="fill: #e2e418; fill-opacity: 0.7"/>
    <path d="M 287.298425 41.774087 
L 296.029134 41.774087 
L 296.029134 36.96378 
L 287.298425 36.96378 
L 287.298425 41.774087 
" clip-path="url(#p6932ffc92e)" style="fill: #f6e620; fill-opacity: 0.7"/>
   </g>
   <g id="matplotlib.axis_3"/>
   <g id="matplotlib.axis_4">
    <g id="ytick_1">
     <g id="line2d_33">
      <defs>
       <path id="m4fdc75271d" d="M 0 0 
L -2 0 
" style="stroke: #000000; stroke-width: 0.3"/>
      </defs>
      <g>
       <use xlink:href="#m4fdc75271d" x="296.029134" y="190.893629" style="stroke: #000000; stroke-width: 0.3"/>
      </g>
     </g>
     <g id="text_17">
      <!-- 0.495 -->
      <g transform="translate(299.529134 193.756754) scale(0.08 -0.08)">
       <defs>
        <path id="ArialMT-2212" d="M 3381 1997 
L 356 1997 
L 356 2522 
L 3381 2522 
L 3381 1997 
z
" transform="scale(0.015625)"/>
        <path id="ArialMT-30" d="M 266 2259 
Q 266 3072 433 3567 
Q 600 4063 929 4331 
Q 1259 4600 1759 4600 
Q 2128 4600 2406 4451 
Q 2684 4303 2865 4023 
Q 3047 3744 3150 3342 
Q 3253 2941 3253 2259 
Q 3253 1453 3087 958 
Q 2922 463 2592 192 
Q 2263 -78 1759 -78 
Q 1097 -78 719 397 
Q 266 969 266 2259 
z
M 844 2259 
Q 844 1131 1108 757 
Q 1372 384 1759 384 
Q 2147 384 2411 759 
Q 2675 1134 2675 2259 
Q 2675 3391 2411 3762 
Q 2147 4134 1753 4134 
Q 1366 4134 1134 3806 
Q 844 3388 844 2259 
z
" transform="scale(0.015625)"/>
        <path id="ArialMT-2e" d="M 581 0 
L 581 641 
L 1222 641 
L 1222 0 
L 581 0 
z
" transform="scale(0.015625)"/>
        <path id="ArialMT-34" d="M 2069 0 
L 2069 1097 
L 81 1097 
L 81 1613 
L 2172 4581 
L 2631 4581 
L 2631 1613 
L 3250 1613 
L 3250 1097 
L 2631 1097 
L 2631 0 
L 2069 0 
z
M 2069 1613 
L 2069 3678 
L 634 1613 
L 2069 1613 
z
" transform="scale(0.015625)"/>
        <path id="ArialMT-39" d="M 350 1059 
L 891 1109 
Q 959 728 1153 556 
Q 1347 384 1650 384 
Q 1909 384 2104 503 
Q 2300 622 2425 820 
Q 2550 1019 2634 1356 
Q 2719 1694 2719 2044 
Q 2719 2081 2716 2156 
Q 2547 1888 2255 1720 
Q 1963 1553 1622 1553 
Q 1053 1553 659 1965 
Q 266 2378 266 3053 
Q 266 3750 677 4175 
Q 1088 4600 1706 4600 
Q 2153 4600 2523 4359 
Q 2894 4119 3086 3673 
Q 3278 3228 3278 2384 
Q 3278 1506 3087 986 
Q 2897 466 2520 194 
Q 2144 -78 1638 -78 
Q 1100 -78 759 220 
Q 419 519 350 1059 
z
M 2653 3081 
Q 2653 3566 2395 3850 
Q 2138 4134 1775 4134 
Q 1400 4134 1122 3828 
Q 844 3522 844 3034 
Q 844 2597 1108 2323 
Q 1372 2050 1759 2050 
Q 2150 2050 2401 2323 
Q 2653 2597 2653 3081 
z
" transform="scale(0.015625)"/>
        <path id="ArialMT-35" d="M 266 1200 
L 856 1250 
Q 922 819 1161 601 
Q 1400 384 1738 384 
Q 2144 384 2425 690 
Q 2706 997 2706 1503 
Q 2706 1984 2436 2262 
Q 2166 2541 1728 2541 
Q 1456 2541 1237 2417 
Q 1019 2294 894 2097 
L 366 2166 
L 809 4519 
L 3088 4519 
L 3088 3981 
L 1259 3981 
L 1013 2750 
Q 1425 3038 1878 3038 
Q 2478 3038 2890 2622 
Q 3303 2206 3303 1553 
Q 3303 931 2941 478 
Q 2500 -78 1738 -78 
Q 1113 -78 717 272 
Q 322 622 266 1200 
z
" transform="scale(0.015625)"/>
       </defs>
       <use xlink:href="#ArialMT-2212"/>
       <use xlink:href="#ArialMT-30" transform="translate(58.398438 0)"/>
       <use xlink:href="#ArialMT-2e" transform="translate(114.013672 0)"/>
       <use xlink:href="#ArialMT-34" transform="translate(141.796875 0)"/>
       <use xlink:href="#ArialMT-39" transform="translate(197.412109 0)"/>
       <use xlink:href="#ArialMT-35" transform="translate(253.027344 0)"/>
      </g>
     </g>
    </g>
    <g id="ytick_2">
     <g id="line2d_34">
      <g>
       <use xlink:href="#m4fdc75271d" x="296.029134" y="171.652398" style="stroke: #000000; stroke-width: 0.3"/>
      </g>
     </g>
     <g id="text_18">
      <!-- 0.435 -->
      <g transform="translate(299.529134 174.515523) scale(0.08 -0.08)">
       <defs>
        <path id="ArialMT-33" d="M 269 1209 
L 831 1284 
Q 928 806 1161 595 
Q 1394 384 1728 384 
Q 2125 384 2398 659 
Q 2672 934 2672 1341 
Q 2672 1728 2419 1979 
Q 2166 2231 1775 2231 
Q 1616 2231 1378 2169 
L 1441 2663 
Q 1497 2656 1531 2656 
Q 1891 2656 2178 2843 
Q 2466 3031 2466 3422 
Q 2466 3731 2256 3934 
Q 2047 4138 1716 4138 
Q 1388 4138 1169 3931 
Q 950 3725 888 3313 
L 325 3413 
Q 428 3978 793 4289 
Q 1159 4600 1703 4600 
Q 2078 4600 2393 4439 
Q 2709 4278 2876 4000 
Q 3044 3722 3044 3409 
Q 3044 3113 2884 2869 
Q 2725 2625 2413 2481 
Q 2819 2388 3044 2092 
Q 3269 1797 3269 1353 
Q 3269 753 2831 336 
Q 2394 -81 1725 -81 
Q 1122 -81 723 278 
Q 325 638 269 1209 
z
" transform="scale(0.015625)"/>
       </defs>
       <use xlink:href="#ArialMT-2212"/>
       <use xlink:href="#ArialMT-30" transform="translate(58.398438 0)"/>
       <use xlink:href="#ArialMT-2e" transform="translate(114.013672 0)"/>
       <use xlink:href="#ArialMT-34" transform="translate(141.796875 0)"/>
       <use xlink:href="#ArialMT-33" transform="translate(197.412109 0)"/>
       <use xlink:href="#ArialMT-35" transform="translate(253.027344 0)"/>
      </g>
     </g>
    </g>
    <g id="ytick_3">
     <g id="line2d_35">
      <g>
       <use xlink:href="#m4fdc75271d" x="296.029134" y="152.411167" style="stroke: #000000; stroke-width: 0.3"/>
      </g>
     </g>
     <g id="text_19">
      <!-- 0.375 -->
      <g transform="translate(299.529134 155.274292) scale(0.08 -0.08)">
       <defs>
        <path id="ArialMT-37" d="M 303 3981 
L 303 4522 
L 3269 4522 
L 3269 4084 
Q 2831 3619 2401 2847 
Q 1972 2075 1738 1259 
Q 1569 684 1522 0 
L 944 0 
Q 953 541 1156 1306 
Q 1359 2072 1739 2783 
Q 2119 3494 2547 3981 
L 303 3981 
z
" transform="scale(0.015625)"/>
       </defs>
       <use xlink:href="#ArialMT-2212"/>
       <use xlink:href="#ArialMT-30" transform="translate(58.398438 0)"/>
       <use xlink:href="#ArialMT-2e" transform="translate(114.013672 0)"/>
       <use xlink:href="#ArialMT-33" transform="translate(141.796875 0)"/>
       <use xlink:href="#ArialMT-37" transform="translate(197.412109 0)"/>
       <use xlink:href="#ArialMT-35" transform="translate(253.027344 0)"/>
      </g>
     </g>
    </g>
    <g id="ytick_4">
     <g id="line2d_36">
      <g>
       <use xlink:href="#m4fdc75271d" x="296.029134" y="133.169936" style="stroke: #000000; stroke-width: 0.3"/>
      </g>
     </g>
     <g id="text_20">
      <!-- 0.315 -->
      <g transform="translate(299.529134 136.033061) scale(0.08 -0.08)">
       <defs>
        <path id="ArialMT-31" d="M 2384 0 
L 1822 0 
L 1822 3584 
Q 1619 3391 1289 3197 
Q 959 3003 697 2906 
L 697 3450 
Q 1169 3672 1522 3987 
Q 1875 4303 2022 4600 
L 2384 4600 
L 2384 0 
z
" transform="scale(0.015625)"/>
       </defs>
       <use xlink:href="#ArialMT-2212"/>
       <use xlink:href="#ArialMT-30" transform="translate(58.398438 0)"/>
       <use xlink:href="#ArialMT-2e" transform="translate(114.013672 0)"/>
       <use xlink:href="#ArialMT-33" transform="translate(141.796875 0)"/>
       <use xlink:href="#ArialMT-31" transform="translate(197.412109 0)"/>
       <use xlink:href="#ArialMT-35" transform="translate(253.027344 0)"/>
      </g>
     </g>
    </g>
    <g id="ytick_5">
     <g id="line2d_37">
      <g>
       <use xlink:href="#m4fdc75271d" x="296.029134" y="113.928704" style="stroke: #000000; stroke-width: 0.3"/>
      </g>
     </g>
     <g id="text_21">
      <!-- 0.255 -->
      <g transform="translate(299.529134 116.791829) scale(0.08 -0.08)">
       <defs>
        <path id="ArialMT-32" d="M 3222 541 
L 3222 0 
L 194 0 
Q 188 203 259 391 
Q 375 700 629 1000 
Q 884 1300 1366 1694 
Q 2113 2306 2375 2664 
Q 2638 3022 2638 3341 
Q 2638 3675 2398 3904 
Q 2159 4134 1775 4134 
Q 1369 4134 1125 3890 
Q 881 3647 878 3216 
L 300 3275 
Q 359 3922 746 4261 
Q 1134 4600 1788 4600 
Q 2447 4600 2831 4234 
Q 3216 3869 3216 3328 
Q 3216 3053 3103 2787 
Q 2991 2522 2730 2228 
Q 2469 1934 1863 1422 
Q 1356 997 1212 845 
Q 1069 694 975 541 
L 3222 541 
z
" transform="scale(0.015625)"/>
       </defs>
       <use xlink:href="#ArialMT-2212"/>
       <use xlink:href="#ArialMT-30" transform="translate(58.398438 0)"/>
       <use xlink:href="#ArialMT-2e" transform="translate(114.013672 0)"/>
       <use xlink:href="#ArialMT-32" transform="translate(141.796875 0)"/>
       <use xlink:href="#ArialMT-35" transform="translate(197.412109 0)"/>
       <use xlink:href="#ArialMT-35" transform="translate(253.027344 0)"/>
      </g>
     </g>
    </g>
    <g id="ytick_6">
     <g id="line2d_38">
      <g>
       <use xlink:href="#m4fdc75271d" x="296.029134" y="94.687473" style="stroke: #000000; stroke-width: 0.3"/>
      </g>
     </g>
     <g id="text_22">
      <!-- 0.195 -->
      <g transform="translate(299.529134 97.550598) scale(0.08 -0.08)">
       <use xlink:href="#ArialMT-2212"/>
       <use xlink:href="#ArialMT-30" transform="translate(58.398438 0)"/>
       <use xlink:href="#ArialMT-2e" transform="translate(114.013672 0)"/>
       <use xlink:href="#ArialMT-31" transform="translate(141.796875 0)"/>
       <use xlink:href="#ArialMT-39" transform="translate(197.412109 0)"/>
       <use xlink:href="#ArialMT-35" transform="translate(253.027344 0)"/>
      </g>
     </g>
    </g>
    <g id="ytick_7">
     <g id="line2d_39">
      <g>
       <use xlink:href="#m4fdc75271d" x="296.029134" y="75.446242" style="stroke: #000000; stroke-width: 0.3"/>
      </g>
     </g>
     <g id="text_23">
      <!-- 0.135 -->
      <g transform="translate(299.529134 78.309367) scale(0.08 -0.08)">
       <use xlink:href="#ArialMT-2212"/>
       <use xlink:href="#ArialMT-30" transform="translate(58.398438 0)"/>
       <use xlink:href="#ArialMT-2e" transform="translate(114.013672 0)"/>
       <use xlink:href="#ArialMT-31" transform="translate(141.796875 0)"/>
       <use xlink:href="#ArialMT-33" transform="translate(197.412109 0)"/>
       <use xlink:href="#ArialMT-35" transform="translate(253.027344 0)"/>
      </g>
     </g>
    </g>
    <g id="ytick_8">
     <g id="line2d_40">
      <g>
       <use xlink:href="#m4fdc75271d" x="296.029134" y="56.205011" style="stroke: #000000; stroke-width: 0.3"/>
      </g>
     </g>
     <g id="text_24">
      <!-- 0.075 -->
      <g transform="translate(299.529134 59.068136) scale(0.08 -0.08)">
       <use xlink:href="#ArialMT-2212"/>
       <use xlink:href="#ArialMT-30" transform="translate(58.398438 0)"/>
       <use xlink:href="#ArialMT-2e" transform="translate(114.013672 0)"/>
       <use xlink:href="#ArialMT-30" transform="translate(141.796875 0)"/>
       <use xlink:href="#ArialMT-37" transform="translate(197.412109 0)"/>
       <use xlink:href="#ArialMT-35" transform="translate(253.027344 0)"/>
      </g>
     </g>
    </g>
    <g id="ytick_9">
     <g id="line2d_41">
      <g>
       <use xlink:href="#m4fdc75271d" x="296.029134" y="36.96378" style="stroke: #000000; stroke-width: 0.3"/>
      </g>
     </g>
     <g id="text_25">
      <!-- 0.015 -->
      <g transform="translate(299.529134 39.826905) scale(0.08 -0.08)">
       <use xlink:href="#ArialMT-2212"/>
       <use xlink:href="#ArialMT-30" transform="translate(58.398438 0)"/>
       <use xlink:href="#ArialMT-2e" transform="translate(114.013672 0)"/>
       <use xlink:href="#ArialMT-30" transform="translate(141.796875 0)"/>
       <use xlink:href="#ArialMT-31" transform="translate(197.412109 0)"/>
       <use xlink:href="#ArialMT-35" transform="translate(253.027344 0)"/>
      </g>
     </g>
    </g>
    <g id="text_26">
     <!-- Formation Energy (eV/atom) -->
     <g transform="translate(335.498821 179.408077) rotate(-90) scale(0.1 -0.1)">
      <defs>
       <path id="ArialMT-46" d="M 525 0 
L 525 4581 
L 3616 4581 
L 3616 4041 
L 1131 4041 
L 1131 2622 
L 3281 2622 
L 3281 2081 
L 1131 2081 
L 1131 0 
L 525 0 
z
" transform="scale(0.015625)"/>
       <path id="ArialMT-6f" d="M 213 1659 
Q 213 2581 725 3025 
Q 1153 3394 1769 3394 
Q 2453 3394 2887 2945 
Q 3322 2497 3322 1706 
Q 3322 1066 3130 698 
Q 2938 331 2570 128 
Q 2203 -75 1769 -75 
Q 1072 -75 642 372 
Q 213 819 213 1659 
z
M 791 1659 
Q 791 1022 1069 705 
Q 1347 388 1769 388 
Q 2188 388 2466 706 
Q 2744 1025 2744 1678 
Q 2744 2294 2464 2611 
Q 2184 2928 1769 2928 
Q 1347 2928 1069 2612 
Q 791 2297 791 1659 
z
" transform="scale(0.015625)"/>
       <path id="ArialMT-72" d="M 416 0 
L 416 3319 
L 922 3319 
L 922 2816 
Q 1116 3169 1280 3281 
Q 1444 3394 1641 3394 
Q 1925 3394 2219 3213 
L 2025 2691 
Q 1819 2813 1613 2813 
Q 1428 2813 1281 2702 
Q 1134 2591 1072 2394 
Q 978 2094 978 1738 
L 978 0 
L 416 0 
z
" transform="scale(0.015625)"/>
       <path id="ArialMT-6d" d="M 422 0 
L 422 3319 
L 925 3319 
L 925 2853 
Q 1081 3097 1340 3245 
Q 1600 3394 1931 3394 
Q 2300 3394 2536 3241 
Q 2772 3088 2869 2813 
Q 3263 3394 3894 3394 
Q 4388 3394 4653 3120 
Q 4919 2847 4919 2278 
L 4919 0 
L 4359 0 
L 4359 2091 
Q 4359 2428 4304 2576 
Q 4250 2725 4106 2815 
Q 3963 2906 3769 2906 
Q 3419 2906 3187 2673 
Q 2956 2441 2956 1928 
L 2956 0 
L 2394 0 
L 2394 2156 
Q 2394 2531 2256 2718 
Q 2119 2906 1806 2906 
Q 1569 2906 1367 2781 
Q 1166 2656 1075 2415 
Q 984 2175 984 1722 
L 984 0 
L 422 0 
z
" transform="scale(0.015625)"/>
       <path id="ArialMT-61" d="M 2588 409 
Q 2275 144 1986 34 
Q 1697 -75 1366 -75 
Q 819 -75 525 192 
Q 231 459 231 875 
Q 231 1119 342 1320 
Q 453 1522 633 1644 
Q 813 1766 1038 1828 
Q 1203 1872 1538 1913 
Q 2219 1994 2541 2106 
Q 2544 2222 2544 2253 
Q 2544 2597 2384 2738 
Q 2169 2928 1744 2928 
Q 1347 2928 1158 2789 
Q 969 2650 878 2297 
L 328 2372 
Q 403 2725 575 2942 
Q 747 3159 1072 3276 
Q 1397 3394 1825 3394 
Q 2250 3394 2515 3294 
Q 2781 3194 2906 3042 
Q 3031 2891 3081 2659 
Q 3109 2516 3109 2141 
L 3109 1391 
Q 3109 606 3145 398 
Q 3181 191 3288 0 
L 2700 0 
Q 2613 175 2588 409 
z
M 2541 1666 
Q 2234 1541 1622 1453 
Q 1275 1403 1131 1340 
Q 988 1278 909 1158 
Q 831 1038 831 891 
Q 831 666 1001 516 
Q 1172 366 1500 366 
Q 1825 366 2078 508 
Q 2331 650 2450 897 
Q 2541 1088 2541 1459 
L 2541 1666 
z
" transform="scale(0.015625)"/>
       <path id="ArialMT-74" d="M 1650 503 
L 1731 6 
Q 1494 -44 1306 -44 
Q 1000 -44 831 53 
Q 663 150 594 308 
Q 525 466 525 972 
L 525 2881 
L 113 2881 
L 113 3319 
L 525 3319 
L 525 4141 
L 1084 4478 
L 1084 3319 
L 1650 3319 
L 1650 2881 
L 1084 2881 
L 1084 941 
Q 1084 700 1114 631 
Q 1144 563 1211 522 
Q 1278 481 1403 481 
Q 1497 481 1650 503 
z
" transform="scale(0.015625)"/>
       <path id="ArialMT-69" d="M 425 3934 
L 425 4581 
L 988 4581 
L 988 3934 
L 425 3934 
z
M 425 0 
L 425 3319 
L 988 3319 
L 988 0 
L 425 0 
z
" transform="scale(0.015625)"/>
       <path id="ArialMT-6e" d="M 422 0 
L 422 3319 
L 928 3319 
L 928 2847 
Q 1294 3394 1984 3394 
Q 2284 3394 2536 3286 
Q 2788 3178 2913 3003 
Q 3038 2828 3088 2588 
Q 3119 2431 3119 2041 
L 3119 0 
L 2556 0 
L 2556 2019 
Q 2556 2363 2490 2533 
Q 2425 2703 2258 2804 
Q 2091 2906 1866 2906 
Q 1506 2906 1245 2678 
Q 984 2450 984 1813 
L 984 0 
L 422 0 
z
" transform="scale(0.015625)"/>
       <path id="ArialMT-20" transform="scale(0.015625)"/>
       <path id="ArialMT-45" d="M 506 0 
L 506 4581 
L 3819 4581 
L 3819 4041 
L 1113 4041 
L 1113 2638 
L 3647 2638 
L 3647 2100 
L 1113 2100 
L 1113 541 
L 3925 541 
L 3925 0 
L 506 0 
z
" transform="scale(0.015625)"/>
       <path id="ArialMT-65" d="M 2694 1069 
L 3275 997 
Q 3138 488 2766 206 
Q 2394 -75 1816 -75 
Q 1088 -75 661 373 
Q 234 822 234 1631 
Q 234 2469 665 2931 
Q 1097 3394 1784 3394 
Q 2450 3394 2872 2941 
Q 3294 2488 3294 1666 
Q 3294 1616 3291 1516 
L 816 1516 
Q 847 969 1125 678 
Q 1403 388 1819 388 
Q 2128 388 2347 550 
Q 2566 713 2694 1069 
z
M 847 1978 
L 2700 1978 
Q 2663 2397 2488 2606 
Q 2219 2931 1791 2931 
Q 1403 2931 1139 2672 
Q 875 2413 847 1978 
z
" transform="scale(0.015625)"/>
       <path id="ArialMT-67" d="M 319 -275 
L 866 -356 
Q 900 -609 1056 -725 
Q 1266 -881 1628 -881 
Q 2019 -881 2231 -725 
Q 2444 -569 2519 -288 
Q 2563 -116 2559 434 
Q 2191 0 1641 0 
Q 956 0 581 494 
Q 206 988 206 1678 
Q 206 2153 378 2554 
Q 550 2956 876 3175 
Q 1203 3394 1644 3394 
Q 2231 3394 2613 2919 
L 2613 3319 
L 3131 3319 
L 3131 450 
Q 3131 -325 2973 -648 
Q 2816 -972 2473 -1159 
Q 2131 -1347 1631 -1347 
Q 1038 -1347 672 -1080 
Q 306 -813 319 -275 
z
M 784 1719 
Q 784 1066 1043 766 
Q 1303 466 1694 466 
Q 2081 466 2343 764 
Q 2606 1063 2606 1700 
Q 2606 2309 2336 2618 
Q 2066 2928 1684 2928 
Q 1309 2928 1046 2623 
Q 784 2319 784 1719 
z
" transform="scale(0.015625)"/>
       <path id="ArialMT-79" d="M 397 -1278 
L 334 -750 
Q 519 -800 656 -800 
Q 844 -800 956 -737 
Q 1069 -675 1141 -563 
Q 1194 -478 1313 -144 
Q 1328 -97 1363 -6 
L 103 3319 
L 709 3319 
L 1400 1397 
Q 1534 1031 1641 628 
Q 1738 1016 1872 1384 
L 2581 3319 
L 3144 3319 
L 1881 -56 
Q 1678 -603 1566 -809 
Q 1416 -1088 1222 -1217 
Q 1028 -1347 759 -1347 
Q 597 -1347 397 -1278 
z
" transform="scale(0.015625)"/>
       <path id="ArialMT-28" d="M 1497 -1347 
Q 1031 -759 709 28 
Q 388 816 388 1659 
Q 388 2403 628 3084 
Q 909 3875 1497 4659 
L 1900 4659 
Q 1522 4009 1400 3731 
Q 1209 3300 1100 2831 
Q 966 2247 966 1656 
Q 966 153 1900 -1347 
L 1497 -1347 
z
" transform="scale(0.015625)"/>
       <path id="ArialMT-56" d="M 1803 0 
L 28 4581 
L 684 4581 
L 1875 1253 
Q 2019 853 2116 503 
Q 2222 878 2363 1253 
L 3600 4581 
L 4219 4581 
L 2425 0 
L 1803 0 
z
" transform="scale(0.015625)"/>
       <path id="ArialMT-2f" d="M 0 -78 
L 1328 4659 
L 1778 4659 
L 453 -78 
L 0 -78 
z
" transform="scale(0.015625)"/>
       <path id="ArialMT-29" d="M 791 -1347 
L 388 -1347 
Q 1322 153 1322 1656 
Q 1322 2244 1188 2822 
Q 1081 3291 891 3722 
Q 769 4003 388 4659 
L 791 4659 
Q 1378 3875 1659 3084 
Q 1900 2403 1900 1659 
Q 1900 816 1576 28 
Q 1253 -759 791 -1347 
z
" transform="scale(0.015625)"/>
      </defs>
      <use xlink:href="#ArialMT-46"/>
      <use xlink:href="#ArialMT-6f" transform="translate(61.083984 0)"/>
      <use xlink:href="#ArialMT-72" transform="translate(116.699219 0)"/>
      <use xlink:href="#ArialMT-6d" transform="translate(150 0)"/>
      <use xlink:href="#ArialMT-61" transform="translate(233.300781 0)"/>
      <use xlink:href="#ArialMT-74" transform="translate(288.916016 0)"/>
      <use xlink:href="#ArialMT-69" transform="translate(316.699219 0)"/>
      <use xlink:href="#ArialMT-6f" transform="translate(338.916016 0)"/>
      <use xlink:href="#ArialMT-6e" transform="translate(394.53125 0)"/>
      <use xlink:href="#ArialMT-20" transform="translate(450.146484 0)"/>
      <use xlink:href="#ArialMT-45" transform="translate(477.929688 0)"/>
      <use xlink:href="#ArialMT-6e" transform="translate(544.628906 0)"/>
      <use xlink:href="#ArialMT-65" transform="translate(600.244141 0)"/>
      <use xlink:href="#ArialMT-72" transform="translate(655.859375 0)"/>
      <use xlink:href="#ArialMT-67" transform="translate(689.160156 0)"/>
      <use xlink:href="#ArialMT-79" transform="translate(744.775391 0)"/>
      <use xlink:href="#ArialMT-20" transform="translate(794.775391 0)"/>
      <use xlink:href="#ArialMT-28" transform="translate(822.558594 0)"/>
      <use xlink:href="#ArialMT-65" transform="translate(855.859375 0)"/>
      <use xlink:href="#ArialMT-56" transform="translate(911.474609 0)"/>
      <use xlink:href="#ArialMT-2f" transform="translate(978.173828 0)"/>
      <use xlink:href="#ArialMT-61" transform="translate(1005.957031 0)"/>
      <use xlink:href="#ArialMT-74" transform="translate(1061.572266 0)"/>
      <use xlink:href="#ArialMT-6f" transform="translate(1089.355469 0)"/>
      <use xlink:href="#ArialMT-6d" transform="translate(1144.970703 0)"/>
      <use xlink:href="#ArialMT-29" transform="translate(1228.271484 0)"/>
     </g>
    </g>
   </g>
   <g id="LineCollection_1"/>
   <g id="patch_6">
    <path d="M 287.298425 195.703937 
L 291.66378 203.640945 
L 296.029134 195.703937 
L 296.029134 36.96378 
L 291.66378 29.026772 
L 287.298425 36.96378 
L 287.298425 195.703937 
z
" style="fill: none; stroke: #000000; stroke-width: 0.8; stroke-linejoin: miter; stroke-linecap: square"/>
   </g>
  </g>
 </g>
 <defs>
  <clipPath id="p7bb4665493">
   <rect x="7.2" y="7.2" width="263.622047" height="218.267717"/>
  </clipPath>
  <clipPath id="p6932ffc92e">
   <rect x="287.298425" y="36.96378" width="8.730709" height="158.740157"/>
  </clipPath>
 </defs>
</svg>
