<?xml version="1.0" encoding="utf-8" standalone="no"?>
<!DOCTYPE svg PUBLIC "-//W3C//DTD SVG 1.1//EN"
  "http://www.w3.org/Graphics/SVG/1.1/DTD/svg11.dtd">
<svg xmlns:xlink="http://www.w3.org/1999/xlink" width="344.803509pt" height="232.667717pt" viewBox="0 0 344.803509 232.667717" xmlns="http://www.w3.org/2000/svg" version="1.1">
 <metadata>
  <rdf:RDF xmlns:dc="http://purl.org/dc/elements/1.1/" xmlns:cc="http://creativecommons.org/ns#" xmlns:rdf="http://www.w3.org/1999/02/22-rdf-syntax-ns#">
   <cc:Work>
    <dc:type rdf:resource="http://purl.org/dc/dcmitype/StillImage"/>
    <dc:date>2026-01-27T21:38:02.560853</dc:date>
    <dc:format>image/svg+xml</dc:format>
    <dc:creator>
     <cc:Agent>
      <dc:title>Matplotlib v3.10.8, https://matplotlib.org/</dc:title>
     </cc:Agent>
    </dc:creator>
   </cc:Work>
  </rdf:RDF>
 </metadata>
 <defs>
  <style type="text/css">*{stroke-linejoin: round; stroke-linecap: butt}</style>
 </defs>
 <g id="figure_1">
  <g id="patch_1">
   <path d="M 0 232.667717 
L 344.803509 232.667717 
L 344.803509 0 
L 0 0 
L 0 232.667717 
z
" style="fill: none"/>
  </g>
  <g id="axes_1">
   <g id="patch_2">
    <path d="M 7.2 225.467717 
L 270.822047 225.467717 
L 270.822047 7.2 
L 7.2 7.2 
L 7.2 225.467717 
z
" style="fill: none"/>
   </g>
   <g id="TriContourSet_1">
    <path d="M 77.160907 123.095642 
L 82.970653 121.263776 
L 83.391583 121.041183 
L 93.899038 96.691745 
L 79.096922 120.041637 
z
" clip-path="url(#pbd36df4e5c)" style="fill: #440154; fill-opacity: 0.7"/>
    <path d="M 74.337039 127.55021 
L 88.620872 123.046386 
L 89.655769 122.499119 
L 105.540537 85.688571 
L 105.572597 85.495116 
L 103.288046 81.880866 
L 102.140807 83.690601 
L 93.899038 96.691745 
L 83.391583 121.041183 
L 82.970653 121.263776 
L 77.160907 123.095642 
z
" clip-path="url(#pbd36df4e5c)" style="fill: #450559; fill-opacity: 0.7"/>
    <path d="M 71.513171 132.004777 
L 94.271091 124.828996 
L 95.919955 123.957054 
L 111.039351 88.920141 
L 111.123267 88.413788 
L 105.143622 78.953751 
L 103.288046 81.880866 
L 105.572597 85.495116 
L 105.540537 85.688571 
L 89.655769 122.499119 
L 88.620872 123.046386 
L 74.337039 127.55021 
z
" clip-path="url(#pbd36df4e5c)" style="fill: #470e61; fill-opacity: 0.7"/>
    <path d="M 68.689302 136.459344 
L 99.92131 126.611606 
L 102.184141 125.41499 
L 116.538165 92.15171 
L 116.673936 91.332459 
L 106.999198 76.026636 
L 105.143622 78.953751 
L 111.123267 88.413788 
L 111.039351 88.920141 
L 95.919955 123.957054 
L 94.271091 124.828996 
L 71.513171 132.004777 
z
" clip-path="url(#pbd36df4e5c)" style="fill: #481769; fill-opacity: 0.7"/>
    <path d="M 65.865434 140.913912 
L 105.571529 128.394216 
L 108.448327 126.872926 
L 122.036979 95.38328 
L 122.224606 94.25113 
L 108.854773 73.099522 
L 106.999198 76.026636 
L 116.673936 91.332459 
L 116.538165 92.15171 
L 102.184141 125.41499 
L 99.92131 126.611606 
L 68.689302 136.459344 
z
" clip-path="url(#pbd36df4e5c)" style="fill: #481f70; fill-opacity: 0.7"/>
    <path d="M 63.041565 145.368479 
L 111.221748 130.176826 
L 114.712513 128.330862 
L 127.535793 98.61485 
L 127.775275 97.169802 
L 114.76724 76.590571 
L 113.117632 74.922057 
L 109.75968 71.672059 
L 109.053973 72.78529 
L 108.854773 73.099522 
L 122.224606 94.25113 
L 122.036979 95.38328 
L 108.448327 126.872926 
L 105.571529 128.394216 
L 65.865434 140.913912 
z
" clip-path="url(#pbd36df4e5c)" style="fill: #482878; fill-opacity: 0.7"/>
    <path d="M 60.217697 149.823047 
L 116.871967 131.959437 
L 120.976699 129.788798 
L 133.034607 101.84642 
L 133.325944 100.088473 
L 121.167598 80.853484 
L 117.669997 77.315796 
L 110.550257 70.424948 
L 109.75968 71.672059 
L 113.117632 74.922057 
L 114.76724 76.590571 
L 127.775275 97.169802 
L 127.535793 98.61485 
L 114.712513 128.330862 
L 111.221748 130.176826 
L 63.041565 145.368479 
z
" clip-path="url(#pbd36df4e5c)" style="fill: #472f7d; fill-opacity: 0.7"/>
    <path d="M 58.437757 152.630849 
L 62.564545 152.630849 
L 64.481371 152.042847 
L 122.522186 133.742047 
L 127.240886 131.246734 
L 138.533421 105.07799 
L 138.876614 103.007144 
L 127.567956 85.116397 
L 122.222361 79.709536 
L 111.340833 69.177836 
L 110.550257 70.424948 
L 117.669997 77.315796 
L 121.167598 80.853484 
L 133.325944 100.088473 
L 133.034607 101.84642 
L 120.976699 129.788798 
L 116.871967 131.959437 
L 60.217697 149.823047 
L 59.125555 151.545868 
z
" clip-path="url(#pbd36df4e5c)" style="fill: #453781; fill-opacity: 0.7"/>
    <path d="M 57.316187 154.400091 
L 68.172393 154.400091 
L 73.214923 152.853254 
L 128.172405 135.524657 
L 133.505072 132.704669 
L 144.032235 108.30956 
L 144.427283 105.925816 
L 133.968314 89.379309 
L 126.774726 82.103275 
L 112.13141 67.930725 
L 111.340833 69.177836 
L 122.222361 79.709536 
L 127.567956 85.116397 
L 138.876614 103.007144 
L 138.533421 105.07799 
L 127.240886 131.246734 
L 122.522186 133.742047 
L 64.481371 152.042847 
L 62.564545 152.630849 
L 58.437757 152.630849 
z
" clip-path="url(#pbd36df4e5c)" style="fill: #433e85; fill-opacity: 0.7"/>
    <path d="M 56.194617 156.169334 
L 73.780241 156.169334 
L 81.948476 153.663661 
L 133.822624 137.307267 
L 139.769258 134.162605 
L 149.531049 111.541129 
L 149.977953 108.844487 
L 140.368672 93.642222 
L 131.32709 84.497015 
L 112.921987 66.683614 
L 112.13141 67.930725 
L 126.774726 82.103275 
L 133.968314 89.379309 
L 144.427283 105.925816 
L 144.032235 108.30956 
L 133.505072 132.704669 
L 128.172405 135.524657 
L 73.214923 152.853254 
L 68.172393 154.400091 
L 57.316187 154.400091 
z
" clip-path="url(#pbd36df4e5c)" style="fill: #404688; fill-opacity: 0.7"/>
    <path d="M 55.073048 157.938576 
L 79.388089 157.938576 
L 90.682028 154.474068 
L 139.472843 139.089877 
L 146.033444 135.620541 
L 155.029863 114.772699 
L 155.528622 111.763159 
L 146.769031 97.905135 
L 135.879455 86.890754 
L 113.712564 65.436503 
L 112.921987 66.683614 
L 131.32709 84.497015 
L 140.368672 93.642222 
L 149.977953 108.844487 
L 149.531049 111.541129 
L 139.769258 134.162605 
L 133.822624 137.307267 
L 81.948476 153.663661 
L 73.780241 156.169334 
L 56.194617 156.169334 
z
" clip-path="url(#pbd36df4e5c)" style="fill: #3d4d8a; fill-opacity: 0.7"/>
    <path d="M 53.951478 159.707818 
L 84.995937 159.707818 
L 99.41558 155.284474 
L 145.123062 140.872487 
L 152.29763 137.078477 
L 160.528677 118.004269 
L 161.079292 114.68183 
L 153.169389 102.168048 
L 140.43182 89.284493 
L 114.503141 64.189391 
L 113.712564 65.436503 
L 135.879455 86.890754 
L 146.769031 97.905135 
L 155.528622 111.763159 
L 155.029863 114.772699 
L 146.033444 135.620541 
L 139.472843 139.089877 
L 90.682028 154.474068 
L 79.388089 157.938576 
L 55.073048 157.938576 
z
" clip-path="url(#pbd36df4e5c)" style="fill: #3a538b; fill-opacity: 0.7"/>
    <path d="M 52.829909 161.477061 
L 90.603785 161.477061 
L 108.149133 156.094881 
L 150.773281 142.655097 
L 158.561816 138.536413 
L 166.027491 121.235839 
L 166.629961 117.600501 
L 159.569747 106.430961 
L 144.984184 91.678233 
L 115.293718 62.94228 
L 114.503141 64.189391 
L 140.43182 89.284493 
L 153.169389 102.168048 
L 161.079292 114.68183 
L 160.528677 118.004269 
L 152.29763 137.078477 
L 145.123062 140.872487 
L 99.41558 155.284474 
L 84.995937 159.707818 
L 53.951478 159.707818 
z
" clip-path="url(#pbd36df4e5c)" style="fill: #375a8c; fill-opacity: 0.7"/>
    <path d="M 51.708339 163.246303 
L 96.211633 163.246303 
L 116.882685 156.905288 
L 156.4235 144.437707 
L 164.826002 139.994349 
L 171.526305 124.467409 
L 172.180631 120.519173 
L 165.970105 110.693874 
L 149.536549 94.071972 
L 116.084295 61.695169 
L 115.293718 62.94228 
L 144.984184 91.678233 
L 159.569747 106.430961 
L 166.629961 117.600501 
L 166.027491 121.235839 
L 158.561816 138.536413 
L 150.773281 142.655097 
L 108.149133 156.094881 
L 90.603785 161.477061 
L 52.829909 161.477061 
z
" clip-path="url(#pbd36df4e5c)" style="fill: #34618d; fill-opacity: 0.7"/>
    <path d="M 50.586769 165.015545 
L 101.819481 165.015545 
L 125.616238 157.715695 
L 162.073719 146.220317 
L 171.090188 141.452285 
L 177.02512 127.698979 
L 177.7313 123.437844 
L 172.370463 114.956787 
L 154.088913 96.465712 
L 116.874871 60.448058 
L 116.084295 61.695169 
L 149.536549 94.071972 
L 165.970105 110.693874 
L 172.180631 120.519173 
L 171.526305 124.467409 
L 164.826002 139.994349 
L 156.4235 144.437707 
L 116.882685 156.905288 
L 96.211633 163.246303 
L 51.708339 163.246303 
z
" clip-path="url(#pbd36df4e5c)" style="fill: #31678e; fill-opacity: 0.7"/>
    <path d="M 49.4652 166.784788 
L 107.42733 166.784788 
L 134.34979 158.526102 
L 167.723938 148.002927 
L 177.354374 142.91022 
L 182.523934 130.930549 
L 183.281969 126.356515 
L 178.770821 119.219699 
L 158.641278 98.859451 
L 117.665448 59.200947 
L 116.874871 60.448058 
L 154.088913 96.465712 
L 172.370463 114.956787 
L 177.7313 123.437844 
L 177.02512 127.698979 
L 171.090188 141.452285 
L 162.073719 146.220317 
L 125.616238 157.715695 
L 101.819481 165.015545 
L 50.586769 165.015545 
z
" clip-path="url(#pbd36df4e5c)" style="fill: #2e6d8e; fill-opacity: 0.7"/>
    <path d="M 48.34363 168.55403 
L 113.035178 168.55403 
L 143.083342 159.336509 
L 173.374157 149.785538 
L 183.61856 144.368156 
L 188.022748 134.162118 
L 188.832639 129.275187 
L 185.17118 123.482612 
L 163.193643 101.253191 
L 118.456025 57.953835 
L 117.665448 59.200947 
L 158.641278 98.859451 
L 178.770821 119.219699 
L 183.281969 126.356515 
L 182.523934 130.930549 
L 177.354374 142.91022 
L 167.723938 148.002927 
L 134.34979 158.526102 
L 107.42733 166.784788 
L 49.4652 166.784788 
z
" clip-path="url(#pbd36df4e5c)" style="fill: #2c728e; fill-opacity: 0.7"/>
    <path d="M 47.222061 170.323272 
L 118.643026 170.323272 
L 151.816895 160.146915 
L 179.024376 151.568148 
L 189.882747 145.826092 
L 193.521562 137.393688 
L 194.383308 132.193858 
L 191.571538 127.745525 
L 167.746007 103.64693 
L 119.246602 56.706724 
L 118.456025 57.953835 
L 163.193643 101.253191 
L 185.17118 123.482612 
L 188.832639 129.275187 
L 188.022748 134.162118 
L 183.61856 144.368156 
L 173.374157 149.785538 
L 143.083342 159.336509 
L 113.035178 168.55403 
L 48.34363 168.55403 
z
" clip-path="url(#pbd36df4e5c)" style="fill: #29798e; fill-opacity: 0.7"/>
    <path d="M 46.100491 172.092515 
L 124.250874 172.092515 
L 160.550447 160.957322 
L 184.674595 153.350758 
L 196.146933 147.284028 
L 199.020376 140.625258 
L 199.933978 135.11253 
L 197.971896 132.008438 
L 172.298372 106.040669 
L 120.037179 55.459613 
L 119.246602 56.706724 
L 167.746007 103.64693 
L 191.571538 127.745525 
L 194.383308 132.193858 
L 193.521562 137.393688 
L 189.882747 145.826092 
L 179.024376 151.568148 
L 151.816895 160.146915 
L 118.643026 170.323272 
L 47.222061 170.323272 
z
" clip-path="url(#pbd36df4e5c)" style="fill: #277f8e; fill-opacity: 0.7"/>
    <path d="M 44.978921 173.861757 
L 129.858722 173.861757 
L 169.284 161.767729 
L 190.324814 155.133368 
L 202.411119 148.741964 
L 204.51919 143.856828 
L 205.484647 138.031201 
L 204.372254 136.271351 
L 176.850737 108.434409 
L 120.827756 54.212502 
L 120.037179 55.459613 
L 172.298372 106.040669 
L 197.971896 132.008438 
L 199.933978 135.11253 
L 199.020376 140.625258 
L 196.146933 147.284028 
L 184.674595 153.350758 
L 160.550447 160.957322 
L 124.250874 172.092515 
L 46.100491 172.092515 
z
" clip-path="url(#pbd36df4e5c)" style="fill: #25848e; fill-opacity: 0.7"/>
    <path d="M 43.857352 175.630999 
L 135.46657 175.630999 
L 178.017552 162.578136 
L 195.975032 156.915978 
L 208.675305 150.1999 
L 210.018004 147.088398 
L 211.035317 140.949872 
L 210.772612 140.534264 
L 181.403101 110.828148 
L 121.618333 52.96539 
L 120.827756 54.212502 
L 176.850737 108.434409 
L 204.372254 136.271351 
L 205.484647 138.031201 
L 204.51919 143.856828 
L 202.411119 148.741964 
L 190.324814 155.133368 
L 169.284 161.767729 
L 129.858722 173.861757 
L 44.978921 173.861757 
z
" clip-path="url(#pbd36df4e5c)" style="fill: #238a8d; fill-opacity: 0.7"/>
    <path d="M 42.735782 177.400242 
L 141.074418 177.400242 
L 186.751104 163.388543 
L 201.625251 158.698588 
L 214.939491 151.657836 
L 215.516818 150.319968 
L 216.056188 147.065374 
L 212.751456 141.852259 
L 210.05314 137.595745 
L 185.955466 113.221888 
L 122.408909 51.718279 
L 121.618333 52.96539 
L 181.403101 110.828148 
L 210.772612 140.534264 
L 211.035317 140.949872 
L 210.018004 147.088398 
L 208.675305 150.1999 
L 195.975032 156.915978 
L 178.017552 162.578136 
L 135.46657 175.630999 
L 43.857352 175.630999 
z
" clip-path="url(#pbd36df4e5c)" style="fill: #21918c; fill-opacity: 0.7"/>
    <path d="M 41.614213 179.169484 
L 146.682266 179.169484 
L 195.484657 164.19895 
L 207.27547 160.481198 
L 220.221088 153.635378 
L 219.664622 152.757569 
L 216.056188 147.065374 
L 215.516818 150.319968 
L 214.939491 151.657836 
L 201.625251 158.698588 
L 186.751104 163.388543 
L 141.074418 177.400242 
L 42.735782 177.400242 
z
M 206.147195 131.434234 
L 190.50783 115.615627 
L 123.199486 50.471168 
L 122.408909 51.718279 
L 185.955466 113.221888 
L 210.05314 137.595745 
z
" clip-path="url(#pbd36df4e5c)" style="fill: #1f968b; fill-opacity: 0.7"/>
    <path d="M 40.492643 180.938726 
L 152.290114 180.938726 
L 204.218209 165.009356 
L 212.925689 162.263808 
L 222.485989 157.208191 
L 220.221088 153.635378 
L 207.27547 160.481198 
L 195.484657 164.19895 
L 146.682266 179.169484 
L 41.614213 179.169484 
z
M 202.241249 125.272723 
L 195.060195 118.009367 
L 123.990063 49.224057 
L 123.199486 50.471168 
L 190.50783 115.615627 
L 206.147195 131.434234 
z
" clip-path="url(#pbd36df4e5c)" style="fill: #1e9c89; fill-opacity: 0.7"/>
    <path d="M 39.371073 182.707969 
L 157.897962 182.707969 
L 212.951762 165.819763 
L 218.575908 164.046418 
L 224.75089 160.781004 
L 222.485989 157.208191 
L 212.925689 162.263808 
L 204.218209 165.009356 
L 152.290114 180.938726 
L 40.492643 180.938726 
z
M 198.426674 119.255345 
L 124.78064 47.976945 
L 123.990063 49.224057 
L 195.060195 118.009367 
L 202.241249 125.272723 
L 198.925125 120.041637 
z
" clip-path="url(#pbd36df4e5c)" style="fill: #1fa187; fill-opacity: 0.7"/>
    <path d="M 38.249504 184.477211 
L 163.50581 184.477211 
L 221.685314 166.63017 
L 224.226127 165.829028 
L 227.01579 164.353816 
L 224.75089 160.781004 
L 218.575908 164.046418 
L 212.951762 165.819763 
L 157.897962 182.707969 
L 39.371073 182.707969 
z
M 195.125805 114.048323 
L 125.571217 46.729834 
L 124.78064 47.976945 
L 198.426674 119.255345 
z
" clip-path="url(#pbd36df4e5c)" style="fill: #22a785; fill-opacity: 0.7"/>
    <path d="M 37.127934 186.246453 
L 169.113658 186.246453 
L 229.208031 167.812011 
L 228.882176 167.297984 
L 227.01579 164.353816 
L 224.226127 165.829028 
L 221.685314 166.63017 
L 163.50581 184.477211 
L 38.249504 184.477211 
z
M 191.824935 108.841301 
L 126.361794 45.482723 
L 125.571217 46.729834 
L 195.125805 114.048323 
z
" clip-path="url(#pbd36df4e5c)" style="fill: #27ad81; fill-opacity: 0.7"/>
    <path d="M 36.006364 188.015696 
L 174.721506 188.015696 
L 231.059981 170.733406 
L 229.208031 167.812011 
L 169.113658 186.246453 
L 37.127934 186.246453 
z
M 188.524066 103.634278 
L 127.152371 44.235612 
L 126.361794 45.482723 
L 191.824935 108.841301 
z
" clip-path="url(#pbd36df4e5c)" style="fill: #2eb37c; fill-opacity: 0.7"/>
    <path d="M 34.884795 189.784938 
L 180.329354 189.784938 
L 232.911931 173.654801 
L 231.059981 170.733406 
L 174.721506 188.015696 
L 36.006364 188.015696 
z
M 185.223196 98.427256 
L 127.942948 42.988501 
L 127.152371 44.235612 
L 188.524066 103.634278 
z
" clip-path="url(#pbd36df4e5c)" style="fill: #37b878; fill-opacity: 0.7"/>
    <path d="M 33.763225 191.55418 
L 185.937202 191.55418 
L 234.76388 176.576196 
L 232.911931 173.654801 
L 180.329354 189.784938 
L 34.884795 189.784938 
z
M 181.922327 93.220234 
L 128.733524 41.741389 
L 127.942948 42.988501 
L 185.223196 98.427256 
z
" clip-path="url(#pbd36df4e5c)" style="fill: #40bd72; fill-opacity: 0.7"/>
    <path d="M 32.641656 193.323423 
L 191.54505 193.323423 
L 236.61583 179.497591 
L 234.76388 176.576196 
L 185.937202 191.55418 
L 33.763225 191.55418 
z
M 178.621457 88.013211 
L 129.524101 40.494278 
L 128.733524 41.741389 
L 181.922327 93.220234 
z
" clip-path="url(#pbd36df4e5c)" style="fill: #4ec36b; fill-opacity: 0.7"/>
    <path d="M 31.520086 195.092665 
L 197.152898 195.092665 
L 238.46778 182.418986 
L 236.61583 179.497591 
L 191.54505 193.323423 
L 32.641656 193.323423 
z
M 175.320588 82.806189 
L 130.314678 39.247167 
L 129.524101 40.494278 
L 178.621457 88.013211 
z
" clip-path="url(#pbd36df4e5c)" style="fill: #5ac864; fill-opacity: 0.7"/>
    <path d="M 30.398516 196.861907 
L 202.760746 196.861907 
L 240.31973 185.340381 
L 238.46778 182.418986 
L 197.152898 195.092665 
L 31.520086 195.092665 
z
M 172.019718 77.599167 
L 131.105255 38.000056 
L 130.314678 39.247167 
L 175.320588 82.806189 
z
" clip-path="url(#pbd36df4e5c)" style="fill: #67cc5c; fill-opacity: 0.7"/>
    <path d="M 29.276947 198.63115 
L 208.368594 198.63115 
L 242.171679 188.261776 
L 240.31973 185.340381 
L 202.760746 196.861907 
L 30.398516 196.861907 
z
M 168.718849 72.392144 
L 131.895832 36.752944 
L 131.105255 38.000056 
L 172.019718 77.599167 
z
" clip-path="url(#pbd36df4e5c)" style="fill: #75d054; fill-opacity: 0.7"/>
    <path d="M 28.155377 200.400392 
L 213.976443 200.400392 
L 244.023629 191.183171 
L 242.171679 188.261776 
L 208.368594 198.63115 
L 29.276947 198.63115 
z
M 165.417979 67.185122 
L 132.686409 35.505833 
L 131.895832 36.752944 
L 168.718849 72.392144 
z
" clip-path="url(#pbd36df4e5c)" style="fill: #86d549; fill-opacity: 0.7"/>
    <path d="M 27.033808 202.169634 
L 219.584291 202.169634 
L 245.875579 194.104566 
L 244.023629 191.183171 
L 213.976443 200.400392 
L 28.155377 200.400392 
z
M 162.11711 61.9781 
L 133.476986 34.258722 
L 132.686409 35.505833 
L 165.417979 67.185122 
z
" clip-path="url(#pbd36df4e5c)" style="fill: #95d840; fill-opacity: 0.7"/>
    <path d="M 25.912238 203.938877 
L 225.192139 203.938877 
L 247.727529 197.025961 
L 245.875579 194.104566 
L 219.584291 202.169634 
L 27.033808 202.169634 
z
M 158.81624 56.771077 
L 134.267562 33.011611 
L 133.476986 34.258722 
L 162.11711 61.9781 
z
" clip-path="url(#pbd36df4e5c)" style="fill: #a5db36; fill-opacity: 0.7"/>
    <path d="M 24.790668 205.708119 
L 230.799987 205.708119 
L 249.579478 199.947356 
L 247.727529 197.025961 
L 225.192139 203.938877 
L 25.912238 203.938877 
z
M 155.515371 51.564055 
L 135.058139 31.7645 
L 134.267562 33.011611 
L 158.81624 56.771077 
z
" clip-path="url(#pbd36df4e5c)" style="fill: #b5de2b; fill-opacity: 0.7"/>
    <path d="M 23.669099 207.477361 
L 236.407835 207.477361 
L 251.431428 202.868751 
L 249.579478 199.947356 
L 230.799987 205.708119 
L 24.790668 205.708119 
z
M 152.214502 46.357033 
L 135.848716 30.517388 
L 135.058139 31.7645 
L 155.515371 51.564055 
z
" clip-path="url(#pbd36df4e5c)" style="fill: #c8e020; fill-opacity: 0.7"/>
    <path d="M 22.547529 209.246604 
L 242.015683 209.246604 
L 253.283378 205.790146 
L 251.431428 202.868751 
L 236.407835 207.477361 
L 23.669099 207.477361 
z
M 148.913632 41.15001 
L 136.639293 29.270277 
L 135.848716 30.517388 
L 152.214502 46.357033 
z
" clip-path="url(#pbd36df4e5c)" style="fill: #d8e219; fill-opacity: 0.7"/>
    <path d="M 21.42596 211.015846 
L 247.623531 211.015846 
L 255.135327 208.711541 
L 253.283378 205.790146 
L 242.015683 209.246604 
L 22.547529 209.246604 
z
M 145.612763 35.942988 
L 137.42987 28.023166 
L 136.639293 29.270277 
L 148.913632 41.15001 
z
" clip-path="url(#pbd36df4e5c)" style="fill: #e7e419; fill-opacity: 0.7"/>
    <path d="M 20.30439 212.785088 
L 253.231379 212.785088 
L 256.987277 211.632936 
L 255.135327 208.711541 
L 247.623531 211.015846 
L 21.42596 211.015846 
z
M 142.311893 30.735966 
L 138.220447 26.776055 
L 137.42987 28.023166 
L 145.612763 35.942988 
z
" clip-path="url(#pbd36df4e5c)" style="fill: #f6e620; fill-opacity: 0.7"/>
    <path d="M 256.987277 211.632936 
L 253.231379 212.785088 
L 20.30439 212.785088 
L 19.18282 214.554331 
L 258.839227 214.554331 
z
M 138.220447 26.776055 
L 142.311893 30.735966 
L 139.011024 25.528943 
z
" clip-path="url(#pbd36df4e5c)" style="fill: #fde725; fill-opacity: 0.7"/>
   </g>
   <g id="matplotlib.axis_1"/>
   <g id="matplotlib.axis_2"/>
   <g id="line2d_1">
    <path d="M 228.882176 167.297984 
L 59.125555 151.545868 
" clip-path="url(#pbd36df4e5c)" style="fill: none; stroke: #555555; stroke-opacity: 0.9; stroke-width: 0.5; stroke-linecap: square"/>
   </g>
   <g id="line2d_2">
    <path d="M 219.664622 152.757569 
L 102.140807 83.690601 
" clip-path="url(#pbd36df4e5c)" style="fill: none; stroke: #555555; stroke-opacity: 0.9; stroke-width: 0.5; stroke-linecap: square"/>
   </g>
   <g id="line2d_3">
    <path d="M 258.839227 214.554331 
L 19.18282 214.554331 
" clip-path="url(#pbd36df4e5c)" style="fill: none; stroke: #555555; stroke-opacity: 0.9; stroke-width: 0.5; stroke-linecap: square"/>
   </g>
   <g id="line2d_4">
    <path d="M 59.125555 151.545868 
L 19.18282 214.554331 
" clip-path="url(#pbd36df4e5c)" style="fill: none; stroke: #555555; stroke-opacity: 0.9; stroke-width: 0.5; stroke-linecap: square"/>
   </g>
   <g id="line2d_5">
    <path d="M 109.053973 72.78529 
L 139.011024 25.528943 
" clip-path="url(#pbd36df4e5c)" style="fill: none; stroke: #555555; stroke-opacity: 0.9; stroke-width: 0.5; stroke-linecap: square"/>
   </g>
   <g id="line2d_6">
    <path d="M 109.053973 72.78529 
L 102.140807 83.690601 
" clip-path="url(#pbd36df4e5c)" style="fill: none; stroke: #555555; stroke-opacity: 0.9; stroke-width: 0.5; stroke-linecap: square"/>
   </g>
   <g id="line2d_7">
    <path d="M 212.751456 141.852259 
L 219.664622 152.757569 
" clip-path="url(#pbd36df4e5c)" style="fill: none; stroke: #555555; stroke-opacity: 0.9; stroke-width: 0.5; stroke-linecap: square"/>
   </g>
   <g id="line2d_8">
    <path d="M 219.664622 152.757569 
L 79.096922 120.041637 
" clip-path="url(#pbd36df4e5c)" style="fill: none; stroke: #555555; stroke-opacity: 0.9; stroke-width: 0.5; stroke-linecap: square"/>
   </g>
   <g id="line2d_9">
    <path d="M 228.882176 167.297984 
L 79.096922 120.041637 
" clip-path="url(#pbd36df4e5c)" style="fill: none; stroke: #555555; stroke-opacity: 0.9; stroke-width: 0.5; stroke-linecap: square"/>
   </g>
   <g id="line2d_10">
    <path d="M 198.925125 120.041637 
L 109.053973 72.78529 
" clip-path="url(#pbd36df4e5c)" style="fill: none; stroke: #555555; stroke-opacity: 0.9; stroke-width: 0.5; stroke-linecap: square"/>
   </g>
   <g id="line2d_11">
    <path d="M 198.925125 120.041637 
L 212.751456 141.852259 
" clip-path="url(#pbd36df4e5c)" style="fill: none; stroke: #555555; stroke-opacity: 0.9; stroke-width: 0.5; stroke-linecap: square"/>
   </g>
   <g id="line2d_12">
    <path d="M 198.925125 120.041637 
L 139.011024 25.528943 
" clip-path="url(#pbd36df4e5c)" style="fill: none; stroke: #555555; stroke-opacity: 0.9; stroke-width: 0.5; stroke-linecap: square"/>
   </g>
   <g id="line2d_13">
    <path d="M 59.125555 151.545868 
L 258.839227 214.554331 
" clip-path="url(#pbd36df4e5c)" style="fill: none; stroke: #555555; stroke-opacity: 0.9; stroke-width: 0.5; stroke-linecap: square"/>
   </g>
   <g id="line2d_14">
    <path d="M 79.096922 120.041637 
L 102.140807 83.690601 
" clip-path="url(#pbd36df4e5c)" style="fill: none; stroke: #555555; stroke-opacity: 0.9; stroke-width: 0.5; stroke-linecap: square"/>
   </g>
   <g id="line2d_15">
    <path d="M 79.096922 120.041637 
L 59.125555 151.545868 
" clip-path="url(#pbd36df4e5c)" style="fill: none; stroke: #555555; stroke-opacity: 0.9; stroke-width: 0.5; stroke-linecap: square"/>
   </g>
   <g id="line2d_16">
    <path d="M 212.751456 141.852259 
L 109.053973 72.78529 
" clip-path="url(#pbd36df4e5c)" style="fill: none; stroke: #555555; stroke-opacity: 0.9; stroke-width: 0.5; stroke-linecap: square"/>
   </g>
   <g id="line2d_17">
    <path d="M 228.882176 167.297984 
L 219.664622 152.757569 
" clip-path="url(#pbd36df4e5c)" style="fill: none; stroke: #555555; stroke-opacity: 0.9; stroke-width: 0.5; stroke-linecap: square"/>
   </g>
   <g id="line2d_18">
    <path d="M 212.751456 141.852259 
L 102.140807 83.690601 
" clip-path="url(#pbd36df4e5c)" style="fill: none; stroke: #555555; stroke-opacity: 0.9; stroke-width: 0.5; stroke-linecap: square"/>
   </g>
   <g id="line2d_19">
    <path d="M 228.882176 167.297984 
L 258.839227 214.554331 
" clip-path="url(#pbd36df4e5c)" style="fill: none; stroke: #555555; stroke-opacity: 0.9; stroke-width: 0.5; stroke-linecap: square"/>
   </g>
   <g id="PathCollection_1">
    <defs>
     <path id="m3252c61253" d="M 0 2.738613 
C 0.726289 2.738613 1.422928 2.450055 1.936492 1.936492 
C 2.450055 1.422928 2.738613 0.726289 2.738613 0 
C 2.738613 -0.726289 2.450055 -1.422928 1.936492 -1.936492 
C 1.422928 -2.450055 0.726289 -2.738613 0 -2.738613 
C -0.726289 -2.738613 -1.422928 -2.450055 -1.936492 -1.936492 
C -2.450055 -1.422928 -2.738613 -0.726289 -2.738613 0 
C -2.738613 0.726289 -2.450055 1.422928 -1.936492 1.936492 
C -1.422928 2.450055 -0.726289 2.738613 0 2.738613 
z
" style="stroke: #008000"/>
    </defs>
    <g clip-path="url(#pbd36df4e5c)">
     <use xlink:href="#m3252c61253" x="228.882176" y="167.297984" style="fill: #008000; stroke: #008000"/>
     <use xlink:href="#m3252c61253" x="59.125555" y="151.545868" style="fill: #008000; stroke: #008000"/>
     <use xlink:href="#m3252c61253" x="219.664622" y="152.757569" style="fill: #008000; stroke: #008000"/>
     <use xlink:href="#m3252c61253" x="102.140807" y="83.690601" style="fill: #008000; stroke: #008000"/>
     <use xlink:href="#m3252c61253" x="258.839227" y="214.554331" style="fill: #008000; stroke: #008000"/>
     <use xlink:href="#m3252c61253" x="19.18282" y="214.554331" style="fill: #008000; stroke: #008000"/>
     <use xlink:href="#m3252c61253" x="109.053973" y="72.78529" style="fill: #008000; stroke: #008000"/>
     <use xlink:href="#m3252c61253" x="139.011024" y="25.528943" style="fill: #008000; stroke: #008000"/>
     <use xlink:href="#m3252c61253" x="212.751456" y="141.852259" style="fill: #008000; stroke: #008000"/>
     <use xlink:href="#m3252c61253" x="79.096922" y="120.041637" style="fill: #008000; stroke: #008000"/>
     <use xlink:href="#m3252c61253" x="198.925125" y="120.041637" style="fill: #008000; stroke: #008000"/>
    </g>
   </g>
   <g id="PathCollection_2">
    <defs>
     <path id="m86cd950076" d="M -0 2.236068 
L 1.341641 0 
L 0 -2.236068 
L -1.341641 -0 
z
" style="stroke: #d3d3d3"/>
    </defs>
    <g clip-path="url(#pbd36df4e5c)">
     <use xlink:href="#m86cd950076" x="139.011024" y="25.528943" style="fill: #d3d3d3; stroke: #d3d3d3"/>
     <use xlink:href="#m86cd950076" x="139.011024" y="25.528943" style="fill: #d3d3d3; stroke: #d3d3d3"/>
     <use xlink:href="#m86cd950076" x="139.011024" y="25.528943" style="fill: #d3d3d3; stroke: #d3d3d3"/>
     <use xlink:href="#m86cd950076" x="139.011024" y="25.528943" style="fill: #d3d3d3; stroke: #d3d3d3"/>
     <use xlink:href="#m86cd950076" x="139.011024" y="25.528943" style="fill: #d3d3d3; stroke: #d3d3d3"/>
     <use xlink:href="#m86cd950076" x="139.011024" y="25.528943" style="fill: #d3d3d3; stroke: #d3d3d3"/>
     <use xlink:href="#m86cd950076" x="139.011024" y="25.528943" style="fill: #d3d3d3; stroke: #d3d3d3"/>
     <use xlink:href="#m86cd950076" x="258.839227" y="214.554331" style="fill: #d3d3d3; stroke: #d3d3d3"/>
     <use xlink:href="#m86cd950076" x="258.839227" y="214.554331" style="fill: #d3d3d3; stroke: #d3d3d3"/>
     <use xlink:href="#m86cd950076" x="258.839227" y="214.554331" style="fill: #d3d3d3; stroke: #d3d3d3"/>
     <use xlink:href="#m86cd950076" x="258.839227" y="214.554331" style="fill: #d3d3d3; stroke: #d3d3d3"/>
     <use xlink:href="#m86cd950076" x="258.839227" y="214.554331" style="fill: #d3d3d3; stroke: #d3d3d3"/>
     <use xlink:href="#m86cd950076" x="258.839227" y="214.554331" style="fill: #d3d3d3; stroke: #d3d3d3"/>
     <use xlink:href="#m86cd950076" x="258.839227" y="214.554331" style="fill: #d3d3d3; stroke: #d3d3d3"/>
     <use xlink:href="#m86cd950076" x="198.925125" y="120.041637" style="fill: #d3d3d3; stroke: #d3d3d3"/>
     <use xlink:href="#m86cd950076" x="178.953758" y="88.537406" style="fill: #d3d3d3; stroke: #d3d3d3"/>
     <use xlink:href="#m86cd950076" x="168.968074" y="72.78529" style="fill: #d3d3d3; stroke: #d3d3d3"/>
     <use xlink:href="#m86cd950076" x="168.968074" y="72.78529" style="fill: #d3d3d3; stroke: #d3d3d3"/>
     <use xlink:href="#m86cd950076" x="228.882176" y="167.297984" style="fill: #d3d3d3; stroke: #d3d3d3"/>
     <use xlink:href="#m86cd950076" x="19.18282" y="214.554331" style="fill: #d3d3d3; stroke: #d3d3d3"/>
     <use xlink:href="#m86cd950076" x="19.18282" y="214.554331" style="fill: #d3d3d3; stroke: #d3d3d3"/>
     <use xlink:href="#m86cd950076" x="19.18282" y="214.554331" style="fill: #d3d3d3; stroke: #d3d3d3"/>
     <use xlink:href="#m86cd950076" x="19.18282" y="214.554331" style="fill: #d3d3d3; stroke: #d3d3d3"/>
     <use xlink:href="#m86cd950076" x="19.18282" y="214.554331" style="fill: #d3d3d3; stroke: #d3d3d3"/>
     <use xlink:href="#m86cd950076" x="19.18282" y="214.554331" style="fill: #d3d3d3; stroke: #d3d3d3"/>
     <use xlink:href="#m86cd950076" x="19.18282" y="214.554331" style="fill: #d3d3d3; stroke: #d3d3d3"/>
     <use xlink:href="#m86cd950076" x="19.18282" y="214.554331" style="fill: #d3d3d3; stroke: #d3d3d3"/>
     <use xlink:href="#m86cd950076" x="19.18282" y="214.554331" style="fill: #d3d3d3; stroke: #d3d3d3"/>
     <use xlink:href="#m86cd950076" x="79.096922" y="120.041637" style="fill: #d3d3d3; stroke: #d3d3d3"/>
     <use xlink:href="#m86cd950076" x="109.053973" y="72.78529" style="fill: #d3d3d3; stroke: #d3d3d3"/>
     <use xlink:href="#m86cd950076" x="109.053973" y="72.78529" style="fill: #d3d3d3; stroke: #d3d3d3"/>
     <use xlink:href="#m86cd950076" x="109.053973" y="72.78529" style="fill: #d3d3d3; stroke: #d3d3d3"/>
     <use xlink:href="#m86cd950076" x="115.045383" y="63.334021" style="fill: #d3d3d3; stroke: #d3d3d3"/>
     <use xlink:href="#m86cd950076" x="139.011024" y="120.041637" style="fill: #d3d3d3; stroke: #d3d3d3"/>
     <use xlink:href="#m86cd950076" x="139.011024" y="120.041637" style="fill: #d3d3d3; stroke: #d3d3d3"/>
     <use xlink:href="#m86cd950076" x="59.125555" y="151.545868" style="fill: #d3d3d3; stroke: #d3d3d3"/>
     <use xlink:href="#m86cd950076" x="59.125555" y="151.545868" style="fill: #d3d3d3; stroke: #d3d3d3"/>
     <use xlink:href="#m86cd950076" x="99.068289" y="214.554331" style="fill: #d3d3d3; stroke: #d3d3d3"/>
     <use xlink:href="#m86cd950076" x="49.139871" y="167.297984" style="fill: #d3d3d3; stroke: #d3d3d3"/>
     <use xlink:href="#m86cd950076" x="49.139871" y="167.297984" style="fill: #d3d3d3; stroke: #d3d3d3"/>
     <use xlink:href="#m86cd950076" x="67.114102" y="138.944176" style="fill: #d3d3d3; stroke: #d3d3d3"/>
     <use xlink:href="#m86cd950076" x="79.096922" y="214.554331" style="fill: #d3d3d3; stroke: #d3d3d3"/>
     <use xlink:href="#m86cd950076" x="113.784033" y="65.323762" style="fill: #d3d3d3; stroke: #d3d3d3"/>
     <use xlink:href="#m86cd950076" x="74.488145" y="156.392673" style="fill: #d3d3d3; stroke: #d3d3d3"/>
    </g>
   </g>
   <g id="PathCollection_3">
    <defs>
     <path id="ma317e9f7c8" d="M 0 -5 
L -1.12257 -1.545085 
L -4.755283 -1.545085 
L -1.816356 0.59017 
L -2.938926 4.045085 
L -0 1.90983 
L 2.938926 4.045085 
L 1.816356 0.59017 
L 4.755283 -1.545085 
L 1.12257 -1.545085 
z
" style="stroke: #0000ff"/>
    </defs>
    <g clip-path="url(#pbd36df4e5c)">
     <use xlink:href="#ma317e9f7c8" x="74.488145" y="156.392673" style="fill: #0000ff; stroke: #0000ff"/>
    </g>
   </g>
   <g id="text_1">
    <!-- $\mathrm{Zn_{3}Cu}$ -->
    <g transform="translate(228.671642 173.701714) scale(0.1 -0.1)">
     <defs>
      <path id="DejaVuSans-5a" d="M 359 4666 
L 4025 4666 
L 4025 4184 
L 1075 531 
L 4097 531 
L 4097 0 
L 288 0 
L 288 481 
L 3238 4134 
L 359 4134 
L 359 4666 
z
" transform="scale(0.015625)"/>
      <path id="DejaVuSans-6e" d="M 3513 2113 
L 3513 0 
L 2938 0 
L 2938 2094 
Q 2938 2591 2744 2837 
Q 2550 3084 2163 3084 
Q 1697 3084 1428 2787 
Q 1159 2491 1159 1978 
L 1159 0 
L 581 0 
L 581 3500 
L 1159 3500 
L 1159 2956 
Q 1366 3272 1645 3428 
Q 1925 3584 2291 3584 
Q 2894 3584 3203 3211 
Q 3513 2838 3513 2113 
z
" transform="scale(0.015625)"/>
      <path id="DejaVuSans-33" d="M 2597 2516 
Q 3050 2419 3304 2112 
Q 3559 1806 3559 1356 
Q 3559 666 3084 287 
Q 2609 -91 1734 -91 
Q 1441 -91 1130 -33 
Q 819 25 488 141 
L 488 750 
Q 750 597 1062 519 
Q 1375 441 1716 441 
Q 2309 441 2620 675 
Q 2931 909 2931 1356 
Q 2931 1769 2642 2001 
Q 2353 2234 1838 2234 
L 1294 2234 
L 1294 2753 
L 1863 2753 
Q 2328 2753 2575 2939 
Q 2822 3125 2822 3475 
Q 2822 3834 2567 4026 
Q 2313 4219 1838 4219 
Q 1578 4219 1281 4162 
Q 984 4106 628 3988 
L 628 4550 
Q 988 4650 1302 4700 
Q 1616 4750 1894 4750 
Q 2613 4750 3031 4423 
Q 3450 4097 3450 3541 
Q 3450 3153 3228 2886 
Q 3006 2619 2597 2516 
z
" transform="scale(0.015625)"/>
      <path id="DejaVuSans-43" d="M 4122 4306 
L 4122 3641 
Q 3803 3938 3442 4084 
Q 3081 4231 2675 4231 
Q 1875 4231 1450 3742 
Q 1025 3253 1025 2328 
Q 1025 1406 1450 917 
Q 1875 428 2675 428 
Q 3081 428 3442 575 
Q 3803 722 4122 1019 
L 4122 359 
Q 3791 134 3420 21 
Q 3050 -91 2638 -91 
Q 1578 -91 968 557 
Q 359 1206 359 2328 
Q 359 3453 968 4101 
Q 1578 4750 2638 4750 
Q 3056 4750 3426 4639 
Q 3797 4528 4122 4306 
z
" transform="scale(0.015625)"/>
      <path id="DejaVuSans-75" d="M 544 1381 
L 544 3500 
L 1119 3500 
L 1119 1403 
Q 1119 906 1312 657 
Q 1506 409 1894 409 
Q 2359 409 2629 706 
Q 2900 1003 2900 1516 
L 2900 3500 
L 3475 3500 
L 3475 0 
L 2900 0 
L 2900 538 
Q 2691 219 2414 64 
Q 2138 -91 1772 -91 
Q 1169 -91 856 284 
Q 544 659 544 1381 
z
M 1991 3584 
L 1991 3584 
z
" transform="scale(0.015625)"/>
     </defs>
     <use xlink:href="#DejaVuSans-5a" transform="translate(0 0.78125)"/>
     <use xlink:href="#DejaVuSans-6e" transform="translate(68.505859 0.78125)"/>
     <use xlink:href="#DejaVuSans-33" transform="translate(132.841797 -15.625) scale(0.7)"/>
     <use xlink:href="#DejaVuSans-43" transform="translate(180.112305 0.78125)"/>
     <use xlink:href="#DejaVuSans-75" transform="translate(249.936523 0.78125)"/>
    </g>
   </g>
   <g id="text_2">
    <!-- $\mathrm{Al_{2}Cu}$ -->
    <g transform="translate(51.771009 144.302506) scale(0.1 -0.1)">
     <defs>
      <path id="DejaVuSans-41" d="M 2188 4044 
L 1331 1722 
L 3047 1722 
L 2188 4044 
z
M 1831 4666 
L 2547 4666 
L 4325 0 
L 3669 0 
L 3244 1197 
L 1141 1197 
L 716 0 
L 50 0 
L 1831 4666 
z
" transform="scale(0.015625)"/>
      <path id="DejaVuSans-6c" d="M 603 4863 
L 1178 4863 
L 1178 0 
L 603 0 
L 603 4863 
z
" transform="scale(0.015625)"/>
      <path id="DejaVuSans-32" d="M 1228 531 
L 3431 531 
L 3431 0 
L 469 0 
L 469 531 
Q 828 903 1448 1529 
Q 2069 2156 2228 2338 
Q 2531 2678 2651 2914 
Q 2772 3150 2772 3378 
Q 2772 3750 2511 3984 
Q 2250 4219 1831 4219 
Q 1534 4219 1204 4116 
Q 875 4013 500 3803 
L 500 4441 
Q 881 4594 1212 4672 
Q 1544 4750 1819 4750 
Q 2544 4750 2975 4387 
Q 3406 4025 3406 3419 
Q 3406 3131 3298 2873 
Q 3191 2616 2906 2266 
Q 2828 2175 2409 1742 
Q 1991 1309 1228 531 
z
" transform="scale(0.015625)"/>
     </defs>
     <use xlink:href="#DejaVuSans-41" transform="translate(0 0.015625)"/>
     <use xlink:href="#DejaVuSans-6c" transform="translate(68.408203 0.015625)"/>
     <use xlink:href="#DejaVuSans-32" transform="translate(97.148438 -16.390625) scale(0.7)"/>
     <use xlink:href="#DejaVuSans-43" transform="translate(144.418945 0.015625)"/>
     <use xlink:href="#DejaVuSans-75" transform="translate(214.243164 0.015625)"/>
    </g>
   </g>
   <g id="text_3">
    <!-- $\mathrm{Zn_{35}Cu_{17}}$ -->
    <g transform="translate(215.548609 161.655452) scale(0.1 -0.1)">
     <defs>
      <path id="DejaVuSans-35" d="M 691 4666 
L 3169 4666 
L 3169 4134 
L 1269 4134 
L 1269 2991 
Q 1406 3038 1543 3061 
Q 1681 3084 1819 3084 
Q 2600 3084 3056 2656 
Q 3513 2228 3513 1497 
Q 3513 744 3044 326 
Q 2575 -91 1722 -91 
Q 1428 -91 1123 -41 
Q 819 9 494 109 
L 494 744 
Q 775 591 1075 516 
Q 1375 441 1709 441 
Q 2250 441 2565 725 
Q 2881 1009 2881 1497 
Q 2881 1984 2565 2268 
Q 2250 2553 1709 2553 
Q 1456 2553 1204 2497 
Q 953 2441 691 2322 
L 691 4666 
z
" transform="scale(0.015625)"/>
      <path id="DejaVuSans-31" d="M 794 531 
L 1825 531 
L 1825 4091 
L 703 3866 
L 703 4441 
L 1819 4666 
L 2450 4666 
L 2450 531 
L 3481 531 
L 3481 0 
L 794 0 
L 794 531 
z
" transform="scale(0.015625)"/>
      <path id="DejaVuSans-37" d="M 525 4666 
L 3525 4666 
L 3525 4397 
L 1831 0 
L 1172 0 
L 2766 4134 
L 525 4134 
L 525 4666 
z
" transform="scale(0.015625)"/>
     </defs>
     <use xlink:href="#DejaVuSans-5a" transform="translate(0 0.78125)"/>
     <use xlink:href="#DejaVuSans-6e" transform="translate(68.505859 0.78125)"/>
     <use xlink:href="#DejaVuSans-33" transform="translate(132.841797 -15.625) scale(0.7)"/>
     <use xlink:href="#DejaVuSans-35" transform="translate(177.37793 -15.625) scale(0.7)"/>
     <use xlink:href="#DejaVuSans-43" transform="translate(224.648438 0.78125)"/>
     <use xlink:href="#DejaVuSans-75" transform="translate(294.472656 0.78125)"/>
     <use xlink:href="#DejaVuSans-31" transform="translate(358.808594 -15.625) scale(0.7)"/>
     <use xlink:href="#DejaVuSans-37" transform="translate(403.344727 -15.625) scale(0.7)"/>
    </g>
   </g>
   <g id="text_4">
    <!-- $\mathrm{Al_{4}Cu_{9}}$ -->
    <g transform="translate(75.36808 93.262022) scale(0.1 -0.1)">
     <defs>
      <path id="DejaVuSans-34" d="M 2419 4116 
L 825 1625 
L 2419 1625 
L 2419 4116 
z
M 2253 4666 
L 3047 4666 
L 3047 1625 
L 3713 1625 
L 3713 1100 
L 3047 1100 
L 3047 0 
L 2419 0 
L 2419 1100 
L 313 1100 
L 313 1709 
L 2253 4666 
z
" transform="scale(0.015625)"/>
      <path id="DejaVuSans-39" d="M 703 97 
L 703 672 
Q 941 559 1184 500 
Q 1428 441 1663 441 
Q 2288 441 2617 861 
Q 2947 1281 2994 2138 
Q 2813 1869 2534 1725 
Q 2256 1581 1919 1581 
Q 1219 1581 811 2004 
Q 403 2428 403 3163 
Q 403 3881 828 4315 
Q 1253 4750 1959 4750 
Q 2769 4750 3195 4129 
Q 3622 3509 3622 2328 
Q 3622 1225 3098 567 
Q 2575 -91 1691 -91 
Q 1453 -91 1209 -44 
Q 966 3 703 97 
z
M 1959 2075 
Q 2384 2075 2632 2365 
Q 2881 2656 2881 3163 
Q 2881 3666 2632 3958 
Q 2384 4250 1959 4250 
Q 1534 4250 1286 3958 
Q 1038 3666 1038 3163 
Q 1038 2656 1286 2365 
Q 1534 2075 1959 2075 
z
" transform="scale(0.015625)"/>
     </defs>
     <use xlink:href="#DejaVuSans-41" transform="translate(0 0.015625)"/>
     <use xlink:href="#DejaVuSans-6c" transform="translate(68.408203 0.015625)"/>
     <use xlink:href="#DejaVuSans-34" transform="translate(97.148438 -16.390625) scale(0.7)"/>
     <use xlink:href="#DejaVuSans-43" transform="translate(144.418945 0.015625)"/>
     <use xlink:href="#DejaVuSans-75" transform="translate(214.243164 0.015625)"/>
     <use xlink:href="#DejaVuSans-39" transform="translate(278.579102 -16.390625) scale(0.7)"/>
    </g>
   </g>
   <g id="text_5">
    <!-- $\mathrm{Zn}$ -->
    <g transform="translate(245.978438 211.527642) scale(0.1 -0.1)">
     <use xlink:href="#DejaVuSans-5a" transform="translate(0 0.09375)"/>
     <use xlink:href="#DejaVuSans-6e" transform="translate(68.505859 0.09375)"/>
    </g>
   </g>
   <g id="text_6">
    <!-- $\mathrm{Al}$ -->
    <g transform="translate(19.586902 211.839411) scale(0.1 -0.1)">
     <use xlink:href="#DejaVuSans-41" transform="translate(0 0.015625)"/>
     <use xlink:href="#DejaVuSans-6c" transform="translate(68.408203 0.015625)"/>
    </g>
   </g>
   <g id="text_7">
    <!-- $\mathrm{AlCu_{3}}$ -->
    <g transform="translate(102.353973 68.638869) scale(0.1 -0.1)">
     <use xlink:href="#DejaVuSans-41" transform="translate(0 0.015625)"/>
     <use xlink:href="#DejaVuSans-6c" transform="translate(68.408203 0.015625)"/>
     <use xlink:href="#DejaVuSans-43" transform="translate(96.191406 0.015625)"/>
     <use xlink:href="#DejaVuSans-75" transform="translate(166.015625 0.015625)"/>
     <use xlink:href="#DejaVuSans-33" transform="translate(230.351562 -16.390625) scale(0.7)"/>
    </g>
   </g>
   <g id="text_8">
    <!-- $\mathrm{Cu}$ -->
    <g transform="translate(129.692842 33.725944) scale(0.1 -0.1)">
     <use xlink:href="#DejaVuSans-43" transform="translate(0 0.78125)"/>
     <use xlink:href="#DejaVuSans-75" transform="translate(69.824219 0.78125)"/>
    </g>
   </g>
   <g id="text_9">
    <!-- $\mathrm{Zn_{8}Cu_{5}}$ -->
    <g transform="translate(205.124184 138.279376) scale(0.1 -0.1)">
     <defs>
      <path id="DejaVuSans-38" d="M 2034 2216 
Q 1584 2216 1326 1975 
Q 1069 1734 1069 1313 
Q 1069 891 1326 650 
Q 1584 409 2034 409 
Q 2484 409 2743 651 
Q 3003 894 3003 1313 
Q 3003 1734 2745 1975 
Q 2488 2216 2034 2216 
z
M 1403 2484 
Q 997 2584 770 2862 
Q 544 3141 544 3541 
Q 544 4100 942 4425 
Q 1341 4750 2034 4750 
Q 2731 4750 3128 4425 
Q 3525 4100 3525 3541 
Q 3525 3141 3298 2862 
Q 3072 2584 2669 2484 
Q 3125 2378 3379 2068 
Q 3634 1759 3634 1313 
Q 3634 634 3220 271 
Q 2806 -91 2034 -91 
Q 1263 -91 848 271 
Q 434 634 434 1313 
Q 434 1759 690 2068 
Q 947 2378 1403 2484 
z
M 1172 3481 
Q 1172 3119 1398 2916 
Q 1625 2713 2034 2713 
Q 2441 2713 2670 2916 
Q 2900 3119 2900 3481 
Q 2900 3844 2670 4047 
Q 2441 4250 2034 4250 
Q 1625 4250 1398 4047 
Q 1172 3844 1172 3481 
z
" transform="scale(0.015625)"/>
     </defs>
     <use xlink:href="#DejaVuSans-5a" transform="translate(0 0.78125)"/>
     <use xlink:href="#DejaVuSans-6e" transform="translate(68.505859 0.78125)"/>
     <use xlink:href="#DejaVuSans-38" transform="translate(132.841797 -15.625) scale(0.7)"/>
     <use xlink:href="#DejaVuSans-43" transform="translate(180.112305 0.78125)"/>
     <use xlink:href="#DejaVuSans-75" transform="translate(249.936523 0.78125)"/>
     <use xlink:href="#DejaVuSans-35" transform="translate(314.272461 -15.625) scale(0.7)"/>
    </g>
   </g>
   <g id="text_10">
    <!-- $\mathrm{AlCu}$ -->
    <g transform="translate(60.396922 128.238638) scale(0.1 -0.1)">
     <use xlink:href="#DejaVuSans-41" transform="translate(0 0.015625)"/>
     <use xlink:href="#DejaVuSans-6c" transform="translate(68.408203 0.015625)"/>
     <use xlink:href="#DejaVuSans-43" transform="translate(96.191406 0.015625)"/>
     <use xlink:href="#DejaVuSans-75" transform="translate(166.015625 0.015625)"/>
    </g>
   </g>
   <g id="text_11">
    <!-- $\mathrm{ZnCu}$ -->
    <g transform="translate(173.188762 125.120946) scale(0.1 -0.1)">
     <use xlink:href="#DejaVuSans-5a" transform="translate(0 0.78125)"/>
     <use xlink:href="#DejaVuSans-6e" transform="translate(68.505859 0.78125)"/>
     <use xlink:href="#DejaVuSans-43" transform="translate(131.884766 0.78125)"/>
     <use xlink:href="#DejaVuSans-75" transform="translate(201.708984 0.78125)"/>
    </g>
   </g>
   <g id="text_12">
    <!-- $\mathrm{Al_{8}ZnCu_{4}}$ -->
    <g style="fill: #0000ff" transform="translate(76.460872 159.728711) scale(0.1 -0.1)">
     <use xlink:href="#DejaVuSans-41" transform="translate(0 0.015625)"/>
     <use xlink:href="#DejaVuSans-6c" transform="translate(68.408203 0.015625)"/>
     <use xlink:href="#DejaVuSans-38" transform="translate(97.148438 -16.390625) scale(0.7)"/>
     <use xlink:href="#DejaVuSans-5a" transform="translate(144.418945 0.015625)"/>
     <use xlink:href="#DejaVuSans-6e" transform="translate(212.924805 0.015625)"/>
     <use xlink:href="#DejaVuSans-43" transform="translate(276.303711 0.015625)"/>
     <use xlink:href="#DejaVuSans-75" transform="translate(346.12793 0.015625)"/>
     <use xlink:href="#DejaVuSans-34" transform="translate(410.463867 -16.390625) scale(0.7)"/>
    </g>
   </g>
  </g>
  <g id="axes_2">
   <g id="patch_3">
    <path d="M 287.298425 195.703937 
L 296.029134 195.703937 
L 296.029134 36.96378 
L 287.298425 36.96378 
L 287.298425 195.703937 
z
" style="fill: none"/>
   </g>
   <g id="patch_4">
    <path d="M 287.298425 195.703937 
L 291.66378 203.640945 
L 296.029134 195.703937 
" style="fill: #440154; opacity: 0.7"/>
   </g>
   <g id="patch_5">
    <path d="M 287.298425 36.96378 
L 291.66378 29.026772 
L 296.029134 36.96378 
" style="fill: #fde725; opacity: 0.7"/>
   </g>
   <g id="QuadMesh_1">
    <path d="M 287.298425 195.703937 
L 296.029134 195.703937 
L 296.029134 191.832226 
L 287.298425 191.832226 
L 287.298425 195.703937 
" clip-path="url(#pf8bedbc454)" style="fill: #450559; fill-opacity: 0.7"/>
    <path d="M 287.298425 191.832226 
L 296.029134 191.832226 
L 296.029134 187.960515 
L 287.298425 187.960515 
L 287.298425 191.832226 
" clip-path="url(#pf8bedbc454)" style="fill: #470e61; fill-opacity: 0.7"/>
    <path d="M 287.298425 187.960515 
L 296.029134 187.960515 
L 296.029134 184.088804 
L 287.298425 184.088804 
L 287.298425 187.960515 
" clip-path="url(#pf8bedbc454)" style="fill: #481769; fill-opacity: 0.7"/>
    <path d="M 287.298425 184.088804 
L 296.029134 184.088804 
L 296.029134 180.217092 
L 287.298425 180.217092 
L 287.298425 184.088804 
" clip-path="url(#pf8bedbc454)" style="fill: #481f70; fill-opacity: 0.7"/>
    <path d="M 287.298425 180.217092 
L 296.029134 180.217092 
L 296.029134 176.345381 
L 287.298425 176.345381 
L 287.298425 180.217092 
" clip-path="url(#pf8bedbc454)" style="fill: #482878; fill-opacity: 0.7"/>
    <path d="M 287.298425 176.345381 
L 296.029134 176.345381 
L 296.029134 172.47367 
L 287.298425 172.47367 
L 287.298425 176.345381 
" clip-path="url(#pf8bedbc454)" style="fill: #472f7d; fill-opacity: 0.7"/>
    <path d="M 287.298425 172.47367 
L 296.029134 172.47367 
L 296.029134 168.601959 
L 287.298425 168.601959 
L 287.298425 172.47367 
" clip-path="url(#pf8bedbc454)" style="fill: #453781; fill-opacity: 0.7"/>
    <path d="M 287.298425 168.601959 
L 296.029134 168.601959 
L 296.029134 164.730248 
L 287.298425 164.730248 
L 287.298425 168.601959 
" clip-path="url(#pf8bedbc454)" style="fill: #433e85; fill-opacity: 0.7"/>
    <path d="M 287.298425 164.730248 
L 296.029134 164.730248 
L 296.029134 160.858537 
L 287.298425 160.858537 
L 287.298425 164.730248 
" clip-path="url(#pf8bedbc454)" style="fill: #404688; fill-opacity: 0.7"/>
    <path d="M 287.298425 160.858537 
L 296.029134 160.858537 
L 296.029134 156.986825 
L 287.298425 156.986825 
L 287.298425 160.858537 
" clip-path="url(#pf8bedbc454)" style="fill: #3d4d8a; fill-opacity: 0.7"/>
    <path d="M 287.298425 156.986825 
L 296.029134 156.986825 
L 296.029134 153.115114 
L 287.298425 153.115114 
L 287.298425 156.986825 
" clip-path="url(#pf8bedbc454)" style="fill: #3a538b; fill-opacity: 0.7"/>
    <path d="M 287.298425 153.115114 
L 296.029134 153.115114 
L 296.029134 149.243403 
L 287.298425 149.243403 
L 287.298425 153.115114 
" clip-path="url(#pf8bedbc454)" style="fill: #375a8c; fill-opacity: 0.7"/>
    <path d="M 287.298425 149.243403 
L 296.029134 149.243403 
L 296.029134 145.371692 
L 287.298425 145.371692 
L 287.298425 149.243403 
" clip-path="url(#pf8bedbc454)" style="fill: #34618d; fill-opacity: 0.7"/>
    <path d="M 287.298425 145.371692 
L 296.029134 145.371692 
L 296.029134 141.499981 
L 287.298425 141.499981 
L 287.298425 145.371692 
" clip-path="url(#pf8bedbc454)" style="fill: #31678e; fill-opacity: 0.7"/>
    <path d="M 287.298425 141.499981 
L 296.029134 141.499981 
L 296.029134 137.62827 
L 287.298425 137.62827 
L 287.298425 141.499981 
" clip-path="url(#pf8bedbc454)" style="fill: #2e6d8e; fill-opacity: 0.7"/>
    <path d="M 287.298425 137.62827 
L 296.029134 137.62827 
L 296.029134 133.756558 
L 287.298425 133.756558 
L 287.298425 137.62827 
" clip-path="url(#pf8bedbc454)" style="fill: #2c728e; fill-opacity: 0.7"/>
    <path d="M 287.298425 133.756558 
L 296.029134 133.756558 
L 296.029134 129.884847 
L 287.298425 129.884847 
L 287.298425 133.756558 
" clip-path="url(#pf8bedbc454)" style="fill: #29798e; fill-opacity: 0.7"/>
    <path d="M 287.298425 129.884847 
L 296.029134 129.884847 
L 296.029134 126.013136 
L 287.298425 126.013136 
L 287.298425 129.884847 
" clip-path="url(#pf8bedbc454)" style="fill: #277f8e; fill-opacity: 0.7"/>
    <path d="M 287.298425 126.013136 
L 296.029134 126.013136 
L 296.029134 122.141425 
L 287.298425 122.141425 
L 287.298425 126.013136 
" clip-path="url(#pf8bedbc454)" style="fill: #25848e; fill-opacity: 0.7"/>
    <path d="M 287.298425 122.141425 
L 296.029134 122.141425 
L 296.029134 118.269714 
L 287.298425 118.269714 
L 287.298425 122.141425 
" clip-path="url(#pf8bedbc454)" style="fill: #238a8d; fill-opacity: 0.7"/>
    <path d="M 287.298425 118.269714 
L 296.029134 118.269714 
L 296.029134 114.398003 
L 287.298425 114.398003 
L 287.298425 118.269714 
" clip-path="url(#pf8bedbc454)" style="fill: #21918c; fill-opacity: 0.7"/>
    <path d="M 287.298425 114.398003 
L 296.029134 114.398003 
L 296.029134 110.526292 
L 287.298425 110.526292 
L 287.298425 114.398003 
" clip-path="url(#pf8bedbc454)" style="fill: #1f968b; fill-opacity: 0.7"/>
    <path d="M 287.298425 110.526292 
L 296.029134 110.526292 
L 296.029134 106.65458 
L 287.298425 106.65458 
L 287.298425 110.526292 
" clip-path="url(#pf8bedbc454)" style="fill: #1e9c89; fill-opacity: 0.7"/>
    <path d="M 287.298425 106.65458 
L 296.029134 106.65458 
L 296.029134 102.782869 
L 287.298425 102.782869 
L 287.298425 106.65458 
" clip-path="url(#pf8bedbc454)" style="fill: #1fa187; fill-opacity: 0.7"/>
    <path d="M 287.298425 102.782869 
L 296.029134 102.782869 
L 296.029134 98.911158 
L 287.298425 98.911158 
L 287.298425 102.782869 
" clip-path="url(#pf8bedbc454)" style="fill: #22a785; fill-opacity: 0.7"/>
    <path d="M 287.298425 98.911158 
L 296.029134 98.911158 
L 296.029134 95.039447 
L 287.298425 95.039447 
L 287.298425 98.911158 
" clip-path="url(#pf8bedbc454)" style="fill: #27ad81; fill-opacity: 0.7"/>
    <path d="M 287.298425 95.039447 
L 296.029134 95.039447 
L 296.029134 91.167736 
L 287.298425 91.167736 
L 287.298425 95.039447 
" clip-path="url(#pf8bedbc454)" style="fill: #2eb37c; fill-opacity: 0.7"/>
    <path d="M 287.298425 91.167736 
L 296.029134 91.167736 
L 296.029134 87.296025 
L 287.298425 87.296025 
L 287.298425 91.167736 
" clip-path="url(#pf8bedbc454)" style="fill: #37b878; fill-opacity: 0.7"/>
    <path d="M 287.298425 87.296025 
L 296.029134 87.296025 
L 296.029134 83.424313 
L 287.298425 83.424313 
L 287.298425 87.296025 
" clip-path="url(#pf8bedbc454)" style="fill: #40bd72; fill-opacity: 0.7"/>
    <path d="M 287.298425 83.424313 
L 296.029134 83.424313 
L 296.029134 79.552602 
L 287.298425 79.552602 
L 287.298425 83.424313 
" clip-path="url(#pf8bedbc454)" style="fill: #4ec36b; fill-opacity: 0.7"/>
    <path d="M 287.298425 79.552602 
L 296.029134 79.552602 
L 296.029134 75.680891 
L 287.298425 75.680891 
L 287.298425 79.552602 
" clip-path="url(#pf8bedbc454)" style="fill: #5ac864; fill-opacity: 0.7"/>
    <path d="M 287.298425 75.680891 
L 296.029134 75.680891 
L 296.029134 71.80918 
L 287.298425 71.80918 
L 287.298425 75.680891 
" clip-path="url(#pf8bedbc454)" style="fill: #67cc5c; fill-opacity: 0.7"/>
    <path d="M 287.298425 71.80918 
L 296.029134 71.80918 
L 296.029134 67.937469 
L 287.298425 67.937469 
L 287.298425 71.80918 
" clip-path="url(#pf8bedbc454)" style="fill: #75d054; fill-opacity: 0.7"/>
    <path d="M 287.298425 67.937469 
L 296.029134 67.937469 
L 296.029134 64.065758 
L 287.298425 64.065758 
L 287.298425 67.937469 
" clip-path="url(#pf8bedbc454)" style="fill: #86d549; fill-opacity: 0.7"/>
    <path d="M 287.298425 64.065758 
L 296.029134 64.065758 
L 296.029134 60.194046 
L 287.298425 60.194046 
L 287.298425 64.065758 
" clip-path="url(#pf8bedbc454)" style="fill: #95d840; fill-opacity: 0.7"/>
    <path d="M 287.298425 60.194046 
L 296.029134 60.194046 
L 296.029134 56.322335 
L 287.298425 56.322335 
L 287.298425 60.194046 
" clip-path="url(#pf8bedbc454)" style="fill: #a5db36; fill-opacity: 0.7"/>
    <path d="M 287.298425 56.322335 
L 296.029134 56.322335 
L 296.029134 52.450624 
L 287.298425 52.450624 
L 287.298425 56.322335 
" clip-path="url(#pf8bedbc454)" style="fill: #b5de2b; fill-opacity: 0.7"/>
    <path d="M 287.298425 52.450624 
L 296.029134 52.450624 
L 296.029134 48.578913 
L 287.298425 48.578913 
L 287.298425 52.450624 
" clip-path="url(#pf8bedbc454)" style="fill: #c8e020; fill-opacity: 0.7"/>
    <path d="M 287.298425 48.578913 
L 296.029134 48.578913 
L 296.029134 44.707202 
L 287.298425 44.707202 
L 287.298425 48.578913 
" clip-path="url(#pf8bedbc454)" style="fill: #d8e219; fill-opacity: 0.7"/>
    <path d="M 287.298425 44.707202 
L 296.029134 44.707202 
L 296.029134 40.835491 
L 287.298425 40.835491 
L 287.298425 44.707202 
" clip-path="url(#pf8bedbc454)" style="fill: #e7e419; fill-opacity: 0.7"/>
    <path d="M 287.298425 40.835491 
L 296.029134 40.835491 
L 296.029134 36.96378 
L 287.298425 36.96378 
L 287.298425 40.835491 
" clip-path="url(#pf8bedbc454)" style="fill: #f6e620; fill-opacity: 0.7"/>
   </g>
   <g id="matplotlib.axis_3"/>
   <g id="matplotlib.axis_4">
    <g id="ytick_1">
     <g id="line2d_20">
      <defs>
       <path id="m2d59338f3f" d="M 0 0 
L -2 0 
" style="stroke: #000000; stroke-width: 0.3"/>
      </defs>
      <g>
       <use xlink:href="#m2d59338f3f" x="296.029134" y="191.832226" style="stroke: #000000; stroke-width: 0.3"/>
      </g>
     </g>
     <g id="text_13">
      <!-- 0.205 -->
      <g transform="translate(299.529134 194.695351) scale(0.08 -0.08)">
       <defs>
        <path id="ArialMT-2212" d="M 3381 1997 
L 356 1997 
L 356 2522 
L 3381 2522 
L 3381 1997 
z
" transform="scale(0.015625)"/>
        <path id="ArialMT-30" d="M 266 2259 
Q 266 3072 433 3567 
Q 600 4063 929 4331 
Q 1259 4600 1759 4600 
Q 2128 4600 2406 4451 
Q 2684 4303 2865 4023 
Q 3047 3744 3150 3342 
Q 3253 2941 3253 2259 
Q 3253 1453 3087 958 
Q 2922 463 2592 192 
Q 2263 -78 1759 -78 
Q 1097 -78 719 397 
Q 266 969 266 2259 
z
M 844 2259 
Q 844 1131 1108 757 
Q 1372 384 1759 384 
Q 2147 384 2411 759 
Q 2675 1134 2675 2259 
Q 2675 3391 2411 3762 
Q 2147 4134 1753 4134 
Q 1366 4134 1134 3806 
Q 844 3388 844 2259 
z
" transform="scale(0.015625)"/>
        <path id="ArialMT-2e" d="M 581 0 
L 581 641 
L 1222 641 
L 1222 0 
L 581 0 
z
" transform="scale(0.015625)"/>
        <path id="ArialMT-32" d="M 3222 541 
L 3222 0 
L 194 0 
Q 188 203 259 391 
Q 375 700 629 1000 
Q 884 1300 1366 1694 
Q 2113 2306 2375 2664 
Q 2638 3022 2638 3341 
Q 2638 3675 2398 3904 
Q 2159 4134 1775 4134 
Q 1369 4134 1125 3890 
Q 881 3647 878 3216 
L 300 3275 
Q 359 3922 746 4261 
Q 1134 4600 1788 4600 
Q 2447 4600 2831 4234 
Q 3216 3869 3216 3328 
Q 3216 3053 3103 2787 
Q 2991 2522 2730 2228 
Q 2469 1934 1863 1422 
Q 1356 997 1212 845 
Q 1069 694 975 541 
L 3222 541 
z
" transform="scale(0.015625)"/>
        <path id="ArialMT-35" d="M 266 1200 
L 856 1250 
Q 922 819 1161 601 
Q 1400 384 1738 384 
Q 2144 384 2425 690 
Q 2706 997 2706 1503 
Q 2706 1984 2436 2262 
Q 2166 2541 1728 2541 
Q 1456 2541 1237 2417 
Q 1019 2294 894 2097 
L 366 2166 
L 809 4519 
L 3088 4519 
L 3088 3981 
L 1259 3981 
L 1013 2750 
Q 1425 3038 1878 3038 
Q 2478 3038 2890 2622 
Q 3303 2206 3303 1553 
Q 3303 931 2941 478 
Q 2500 -78 1738 -78 
Q 1113 -78 717 272 
Q 322 622 266 1200 
z
" transform="scale(0.015625)"/>
       </defs>
       <use xlink:href="#ArialMT-2212"/>
       <use xlink:href="#ArialMT-30" transform="translate(58.398438 0)"/>
       <use xlink:href="#ArialMT-2e" transform="translate(114.013672 0)"/>
       <use xlink:href="#ArialMT-32" transform="translate(141.796875 0)"/>
       <use xlink:href="#ArialMT-30" transform="translate(197.412109 0)"/>
       <use xlink:href="#ArialMT-35" transform="translate(253.027344 0)"/>
      </g>
     </g>
    </g>
    <g id="ytick_2">
     <g id="line2d_21">
      <g>
       <use xlink:href="#m2d59338f3f" x="296.029134" y="172.47367" style="stroke: #000000; stroke-width: 0.3"/>
      </g>
     </g>
     <g id="text_14">
      <!-- 0.180 -->
      <g transform="translate(299.529134 175.336795) scale(0.08 -0.08)">
       <defs>
        <path id="ArialMT-31" d="M 2384 0 
L 1822 0 
L 1822 3584 
Q 1619 3391 1289 3197 
Q 959 3003 697 2906 
L 697 3450 
Q 1169 3672 1522 3987 
Q 1875 4303 2022 4600 
L 2384 4600 
L 2384 0 
z
" transform="scale(0.015625)"/>
        <path id="ArialMT-38" d="M 1131 2484 
Q 781 2613 612 2850 
Q 444 3088 444 3419 
Q 444 3919 803 4259 
Q 1163 4600 1759 4600 
Q 2359 4600 2725 4251 
Q 3091 3903 3091 3403 
Q 3091 3084 2923 2848 
Q 2756 2613 2416 2484 
Q 2838 2347 3058 2040 
Q 3278 1734 3278 1309 
Q 3278 722 2862 322 
Q 2447 -78 1769 -78 
Q 1091 -78 675 323 
Q 259 725 259 1325 
Q 259 1772 486 2073 
Q 713 2375 1131 2484 
z
M 1019 3438 
Q 1019 3113 1228 2906 
Q 1438 2700 1772 2700 
Q 2097 2700 2305 2904 
Q 2513 3109 2513 3406 
Q 2513 3716 2298 3927 
Q 2084 4138 1766 4138 
Q 1444 4138 1231 3931 
Q 1019 3725 1019 3438 
z
M 838 1322 
Q 838 1081 952 856 
Q 1066 631 1291 507 
Q 1516 384 1775 384 
Q 2178 384 2440 643 
Q 2703 903 2703 1303 
Q 2703 1709 2433 1975 
Q 2163 2241 1756 2241 
Q 1359 2241 1098 1978 
Q 838 1716 838 1322 
z
" transform="scale(0.015625)"/>
       </defs>
       <use xlink:href="#ArialMT-2212"/>
       <use xlink:href="#ArialMT-30" transform="translate(58.398438 0)"/>
       <use xlink:href="#ArialMT-2e" transform="translate(114.013672 0)"/>
       <use xlink:href="#ArialMT-31" transform="translate(141.796875 0)"/>
       <use xlink:href="#ArialMT-38" transform="translate(197.412109 0)"/>
       <use xlink:href="#ArialMT-30" transform="translate(253.027344 0)"/>
      </g>
     </g>
    </g>
    <g id="ytick_3">
     <g id="line2d_22">
      <g>
       <use xlink:href="#m2d59338f3f" x="296.029134" y="153.115114" style="stroke: #000000; stroke-width: 0.3"/>
      </g>
     </g>
     <g id="text_15">
      <!-- 0.155 -->
      <g transform="translate(299.529134 155.978239) scale(0.08 -0.08)">
       <use xlink:href="#ArialMT-2212"/>
       <use xlink:href="#ArialMT-30" transform="translate(58.398438 0)"/>
       <use xlink:href="#ArialMT-2e" transform="translate(114.013672 0)"/>
       <use xlink:href="#ArialMT-31" transform="translate(141.796875 0)"/>
       <use xlink:href="#ArialMT-35" transform="translate(197.412109 0)"/>
       <use xlink:href="#ArialMT-35" transform="translate(253.027344 0)"/>
      </g>
     </g>
    </g>
    <g id="ytick_4">
     <g id="line2d_23">
      <g>
       <use xlink:href="#m2d59338f3f" x="296.029134" y="133.756558" style="stroke: #000000; stroke-width: 0.3"/>
      </g>
     </g>
     <g id="text_16">
      <!-- 0.130 -->
      <g transform="translate(299.529134 136.619683) scale(0.08 -0.08)">
       <defs>
        <path id="ArialMT-33" d="M 269 1209 
L 831 1284 
Q 928 806 1161 595 
Q 1394 384 1728 384 
Q 2125 384 2398 659 
Q 2672 934 2672 1341 
Q 2672 1728 2419 1979 
Q 2166 2231 1775 2231 
Q 1616 2231 1378 2169 
L 1441 2663 
Q 1497 2656 1531 2656 
Q 1891 2656 2178 2843 
Q 2466 3031 2466 3422 
Q 2466 3731 2256 3934 
Q 2047 4138 1716 4138 
Q 1388 4138 1169 3931 
Q 950 3725 888 3313 
L 325 3413 
Q 428 3978 793 4289 
Q 1159 4600 1703 4600 
Q 2078 4600 2393 4439 
Q 2709 4278 2876 4000 
Q 3044 3722 3044 3409 
Q 3044 3113 2884 2869 
Q 2725 2625 2413 2481 
Q 2819 2388 3044 2092 
Q 3269 1797 3269 1353 
Q 3269 753 2831 336 
Q 2394 -81 1725 -81 
Q 1122 -81 723 278 
Q 325 638 269 1209 
z
" transform="scale(0.015625)"/>
       </defs>
       <use xlink:href="#ArialMT-2212"/>
       <use xlink:href="#ArialMT-30" transform="translate(58.398438 0)"/>
       <use xlink:href="#ArialMT-2e" transform="translate(114.013672 0)"/>
       <use xlink:href="#ArialMT-31" transform="translate(141.796875 0)"/>
       <use xlink:href="#ArialMT-33" transform="translate(197.412109 0)"/>
       <use xlink:href="#ArialMT-30" transform="translate(253.027344 0)"/>
      </g>
     </g>
    </g>
    <g id="ytick_5">
     <g id="line2d_24">
      <g>
       <use xlink:href="#m2d59338f3f" x="296.029134" y="114.398003" style="stroke: #000000; stroke-width: 0.3"/>
      </g>
     </g>
     <g id="text_17">
      <!-- 0.105 -->
      <g transform="translate(299.529134 117.261128) scale(0.08 -0.08)">
       <use xlink:href="#ArialMT-2212"/>
       <use xlink:href="#ArialMT-30" transform="translate(58.398438 0)"/>
       <use xlink:href="#ArialMT-2e" transform="translate(114.013672 0)"/>
       <use xlink:href="#ArialMT-31" transform="translate(141.796875 0)"/>
       <use xlink:href="#ArialMT-30" transform="translate(197.412109 0)"/>
       <use xlink:href="#ArialMT-35" transform="translate(253.027344 0)"/>
      </g>
     </g>
    </g>
    <g id="ytick_6">
     <g id="line2d_25">
      <g>
       <use xlink:href="#m2d59338f3f" x="296.029134" y="95.039447" style="stroke: #000000; stroke-width: 0.3"/>
      </g>
     </g>
     <g id="text_18">
      <!-- 0.080 -->
      <g transform="translate(299.529134 97.902572) scale(0.08 -0.08)">
       <use xlink:href="#ArialMT-2212"/>
       <use xlink:href="#ArialMT-30" transform="translate(58.398438 0)"/>
       <use xlink:href="#ArialMT-2e" transform="translate(114.013672 0)"/>
       <use xlink:href="#ArialMT-30" transform="translate(141.796875 0)"/>
       <use xlink:href="#ArialMT-38" transform="translate(197.412109 0)"/>
       <use xlink:href="#ArialMT-30" transform="translate(253.027344 0)"/>
      </g>
     </g>
    </g>
    <g id="ytick_7">
     <g id="line2d_26">
      <g>
       <use xlink:href="#m2d59338f3f" x="296.029134" y="75.680891" style="stroke: #000000; stroke-width: 0.3"/>
      </g>
     </g>
     <g id="text_19">
      <!-- 0.055 -->
      <g transform="translate(299.529134 78.544016) scale(0.08 -0.08)">
       <use xlink:href="#ArialMT-2212"/>
       <use xlink:href="#ArialMT-30" transform="translate(58.398438 0)"/>
       <use xlink:href="#ArialMT-2e" transform="translate(114.013672 0)"/>
       <use xlink:href="#ArialMT-30" transform="translate(141.796875 0)"/>
       <use xlink:href="#ArialMT-35" transform="translate(197.412109 0)"/>
       <use xlink:href="#ArialMT-35" transform="translate(253.027344 0)"/>
      </g>
     </g>
    </g>
    <g id="ytick_8">
     <g id="line2d_27">
      <g>
       <use xlink:href="#m2d59338f3f" x="296.029134" y="56.322335" style="stroke: #000000; stroke-width: 0.3"/>
      </g>
     </g>
     <g id="text_20">
      <!-- 0.030 -->
      <g transform="translate(299.529134 59.18546) scale(0.08 -0.08)">
       <use xlink:href="#ArialMT-2212"/>
       <use xlink:href="#ArialMT-30" transform="translate(58.398438 0)"/>
       <use xlink:href="#ArialMT-2e" transform="translate(114.013672 0)"/>
       <use xlink:href="#ArialMT-30" transform="translate(141.796875 0)"/>
       <use xlink:href="#ArialMT-33" transform="translate(197.412109 0)"/>
       <use xlink:href="#ArialMT-30" transform="translate(253.027344 0)"/>
      </g>
     </g>
    </g>
    <g id="ytick_9">
     <g id="line2d_28">
      <g>
       <use xlink:href="#m2d59338f3f" x="296.029134" y="36.96378" style="stroke: #000000; stroke-width: 0.3"/>
      </g>
     </g>
     <g id="text_21">
      <!-- 0.005 -->
      <g transform="translate(299.529134 39.826905) scale(0.08 -0.08)">
       <use xlink:href="#ArialMT-2212"/>
       <use xlink:href="#ArialMT-30" transform="translate(58.398438 0)"/>
       <use xlink:href="#ArialMT-2e" transform="translate(114.013672 0)"/>
       <use xlink:href="#ArialMT-30" transform="translate(141.796875 0)"/>
       <use xlink:href="#ArialMT-30" transform="translate(197.412109 0)"/>
       <use xlink:href="#ArialMT-35" transform="translate(253.027344 0)"/>
      </g>
     </g>
    </g>
    <g id="text_22">
     <!-- Formation Energy (eV/atom) -->
     <g transform="translate(335.498821 179.408077) rotate(-90) scale(0.1 -0.1)">
      <defs>
       <path id="ArialMT-46" d="M 525 0 
L 525 4581 
L 3616 4581 
L 3616 4041 
L 1131 4041 
L 1131 2622 
L 3281 2622 
L 3281 2081 
L 1131 2081 
L 1131 0 
L 525 0 
z
" transform="scale(0.015625)"/>
       <path id="ArialMT-6f" d="M 213 1659 
Q 213 2581 725 3025 
Q 1153 3394 1769 3394 
Q 2453 3394 2887 2945 
Q 3322 2497 3322 1706 
Q 3322 1066 3130 698 
Q 2938 331 2570 128 
Q 2203 -75 1769 -75 
Q 1072 -75 642 372 
Q 213 819 213 1659 
z
M 791 1659 
Q 791 1022 1069 705 
Q 1347 388 1769 388 
Q 2188 388 2466 706 
Q 2744 1025 2744 1678 
Q 2744 2294 2464 2611 
Q 2184 2928 1769 2928 
Q 1347 2928 1069 2612 
Q 791 2297 791 1659 
z
" transform="scale(0.015625)"/>
       <path id="ArialMT-72" d="M 416 0 
L 416 3319 
L 922 3319 
L 922 2816 
Q 1116 3169 1280 3281 
Q 1444 3394 1641 3394 
Q 1925 3394 2219 3213 
L 2025 2691 
Q 1819 2813 1613 2813 
Q 1428 2813 1281 2702 
Q 1134 2591 1072 2394 
Q 978 2094 978 1738 
L 978 0 
L 416 0 
z
" transform="scale(0.015625)"/>
       <path id="ArialMT-6d" d="M 422 0 
L 422 3319 
L 925 3319 
L 925 2853 
Q 1081 3097 1340 3245 
Q 1600 3394 1931 3394 
Q 2300 3394 2536 3241 
Q 2772 3088 2869 2813 
Q 3263 3394 3894 3394 
Q 4388 3394 4653 3120 
Q 4919 2847 4919 2278 
L 4919 0 
L 4359 0 
L 4359 2091 
Q 4359 2428 4304 2576 
Q 4250 2725 4106 2815 
Q 3963 2906 3769 2906 
Q 3419 2906 3187 2673 
Q 2956 2441 2956 1928 
L 2956 0 
L 2394 0 
L 2394 2156 
Q 2394 2531 2256 2718 
Q 2119 2906 1806 2906 
Q 1569 2906 1367 2781 
Q 1166 2656 1075 2415 
Q 984 2175 984 1722 
L 984 0 
L 422 0 
z
" transform="scale(0.015625)"/>
       <path id="ArialMT-61" d="M 2588 409 
Q 2275 144 1986 34 
Q 1697 -75 1366 -75 
Q 819 -75 525 192 
Q 231 459 231 875 
Q 231 1119 342 1320 
Q 453 1522 633 1644 
Q 813 1766 1038 1828 
Q 1203 1872 1538 1913 
Q 2219 1994 2541 2106 
Q 2544 2222 2544 2253 
Q 2544 2597 2384 2738 
Q 2169 2928 1744 2928 
Q 1347 2928 1158 2789 
Q 969 2650 878 2297 
L 328 2372 
Q 403 2725 575 2942 
Q 747 3159 1072 3276 
Q 1397 3394 1825 3394 
Q 2250 3394 2515 3294 
Q 2781 3194 2906 3042 
Q 3031 2891 3081 2659 
Q 3109 2516 3109 2141 
L 3109 1391 
Q 3109 606 3145 398 
Q 3181 191 3288 0 
L 2700 0 
Q 2613 175 2588 409 
z
M 2541 1666 
Q 2234 1541 1622 1453 
Q 1275 1403 1131 1340 
Q 988 1278 909 1158 
Q 831 1038 831 891 
Q 831 666 1001 516 
Q 1172 366 1500 366 
Q 1825 366 2078 508 
Q 2331 650 2450 897 
Q 2541 1088 2541 1459 
L 2541 1666 
z
" transform="scale(0.015625)"/>
       <path id="ArialMT-74" d="M 1650 503 
L 1731 6 
Q 1494 -44 1306 -44 
Q 1000 -44 831 53 
Q 663 150 594 308 
Q 525 466 525 972 
L 525 2881 
L 113 2881 
L 113 3319 
L 525 3319 
L 525 4141 
L 1084 4478 
L 1084 3319 
L 1650 3319 
L 1650 2881 
L 1084 2881 
L 1084 941 
Q 1084 700 1114 631 
Q 1144 563 1211 522 
Q 1278 481 1403 481 
Q 1497 481 1650 503 
z
" transform="scale(0.015625)"/>
       <path id="ArialMT-69" d="M 425 3934 
L 425 4581 
L 988 4581 
L 988 3934 
L 425 3934 
z
M 425 0 
L 425 3319 
L 988 3319 
L 988 0 
L 425 0 
z
" transform="scale(0.015625)"/>
       <path id="ArialMT-6e" d="M 422 0 
L 422 3319 
L 928 3319 
L 928 2847 
Q 1294 3394 1984 3394 
Q 2284 3394 2536 3286 
Q 2788 3178 2913 3003 
Q 3038 2828 3088 2588 
Q 3119 2431 3119 2041 
L 3119 0 
L 2556 0 
L 2556 2019 
Q 2556 2363 2490 2533 
Q 2425 2703 2258 2804 
Q 2091 2906 1866 2906 
Q 1506 2906 1245 2678 
Q 984 2450 984 1813 
L 984 0 
L 422 0 
z
" transform="scale(0.015625)"/>
       <path id="ArialMT-20" transform="scale(0.015625)"/>
       <path id="ArialMT-45" d="M 506 0 
L 506 4581 
L 3819 4581 
L 3819 4041 
L 1113 4041 
L 1113 2638 
L 3647 2638 
L 3647 2100 
L 1113 2100 
L 1113 541 
L 3925 541 
L 3925 0 
L 506 0 
z
" transform="scale(0.015625)"/>
       <path id="ArialMT-65" d="M 2694 1069 
L 3275 997 
Q 3138 488 2766 206 
Q 2394 -75 1816 -75 
Q 1088 -75 661 373 
Q 234 822 234 1631 
Q 234 2469 665 2931 
Q 1097 3394 1784 3394 
Q 2450 3394 2872 2941 
Q 3294 2488 3294 1666 
Q 3294 1616 3291 1516 
L 816 1516 
Q 847 969 1125 678 
Q 1403 388 1819 388 
Q 2128 388 2347 550 
Q 2566 713 2694 1069 
z
M 847 1978 
L 2700 1978 
Q 2663 2397 2488 2606 
Q 2219 2931 1791 2931 
Q 1403 2931 1139 2672 
Q 875 2413 847 1978 
z
" transform="scale(0.015625)"/>
       <path id="ArialMT-67" d="M 319 -275 
L 866 -356 
Q 900 -609 1056 -725 
Q 1266 -881 1628 -881 
Q 2019 -881 2231 -725 
Q 2444 -569 2519 -288 
Q 2563 -116 2559 434 
Q 2191 0 1641 0 
Q 956 0 581 494 
Q 206 988 206 1678 
Q 206 2153 378 2554 
Q 550 2956 876 3175 
Q 1203 3394 1644 3394 
Q 2231 3394 2613 2919 
L 2613 3319 
L 3131 3319 
L 3131 450 
Q 3131 -325 2973 -648 
Q 2816 -972 2473 -1159 
Q 2131 -1347 1631 -1347 
Q 1038 -1347 672 -1080 
Q 306 -813 319 -275 
z
M 784 1719 
Q 784 1066 1043 766 
Q 1303 466 1694 466 
Q 2081 466 2343 764 
Q 2606 1063 2606 1700 
Q 2606 2309 2336 2618 
Q 2066 2928 1684 2928 
Q 1309 2928 1046 2623 
Q 784 2319 784 1719 
z
" transform="scale(0.015625)"/>
       <path id="ArialMT-79" d="M 397 -1278 
L 334 -750 
Q 519 -800 656 -800 
Q 844 -800 956 -737 
Q 1069 -675 1141 -563 
Q 1194 -478 1313 -144 
Q 1328 -97 1363 -6 
L 103 3319 
L 709 3319 
L 1400 1397 
Q 1534 1031 1641 628 
Q 1738 1016 1872 1384 
L 2581 3319 
L 3144 3319 
L 1881 -56 
Q 1678 -603 1566 -809 
Q 1416 -1088 1222 -1217 
Q 1028 -1347 759 -1347 
Q 597 -1347 397 -1278 
z
" transform="scale(0.015625)"/>
       <path id="ArialMT-28" d="M 1497 -1347 
Q 1031 -759 709 28 
Q 388 816 388 1659 
Q 388 2403 628 3084 
Q 909 3875 1497 4659 
L 1900 4659 
Q 1522 4009 1400 3731 
Q 1209 3300 1100 2831 
Q 966 2247 966 1656 
Q 966 153 1900 -1347 
L 1497 -1347 
z
" transform="scale(0.015625)"/>
       <path id="ArialMT-56" d="M 1803 0 
L 28 4581 
L 684 4581 
L 1875 1253 
Q 2019 853 2116 503 
Q 2222 878 2363 1253 
L 3600 4581 
L 4219 4581 
L 2425 0 
L 1803 0 
z
" transform="scale(0.015625)"/>
       <path id="ArialMT-2f" d="M 0 -78 
L 1328 4659 
L 1778 4659 
L 453 -78 
L 0 -78 
z
" transform="scale(0.015625)"/>
       <path id="ArialMT-29" d="M 791 -1347 
L 388 -1347 
Q 1322 153 1322 1656 
Q 1322 2244 1188 2822 
Q 1081 3291 891 3722 
Q 769 4003 388 4659 
L 791 4659 
Q 1378 3875 1659 3084 
Q 1900 2403 1900 1659 
Q 1900 816 1576 28 
Q 1253 -759 791 -1347 
z
" transform="scale(0.015625)"/>
      </defs>
      <use xlink:href="#ArialMT-46"/>
      <use xlink:href="#ArialMT-6f" transform="translate(61.083984 0)"/>
      <use xlink:href="#ArialMT-72" transform="translate(116.699219 0)"/>
      <use xlink:href="#ArialMT-6d" transform="translate(150 0)"/>
      <use xlink:href="#ArialMT-61" transform="translate(233.300781 0)"/>
      <use xlink:href="#ArialMT-74" transform="translate(288.916016 0)"/>
      <use xlink:href="#ArialMT-69" transform="translate(316.699219 0)"/>
      <use xlink:href="#ArialMT-6f" transform="translate(338.916016 0)"/>
      <use xlink:href="#ArialMT-6e" transform="translate(394.53125 0)"/>
      <use xlink:href="#ArialMT-20" transform="translate(450.146484 0)"/>
      <use xlink:href="#ArialMT-45" transform="translate(477.929688 0)"/>
      <use xlink:href="#ArialMT-6e" transform="translate(544.628906 0)"/>
      <use xlink:href="#ArialMT-65" transform="translate(600.244141 0)"/>
      <use xlink:href="#ArialMT-72" transform="translate(655.859375 0)"/>
      <use xlink:href="#ArialMT-67" transform="translate(689.160156 0)"/>
      <use xlink:href="#ArialMT-79" transform="translate(744.775391 0)"/>
      <use xlink:href="#ArialMT-20" transform="translate(794.775391 0)"/>
      <use xlink:href="#ArialMT-28" transform="translate(822.558594 0)"/>
      <use xlink:href="#ArialMT-65" transform="translate(855.859375 0)"/>
      <use xlink:href="#ArialMT-56" transform="translate(911.474609 0)"/>
      <use xlink:href="#ArialMT-2f" transform="translate(978.173828 0)"/>
      <use xlink:href="#ArialMT-61" transform="translate(1005.957031 0)"/>
      <use xlink:href="#ArialMT-74" transform="translate(1061.572266 0)"/>
      <use xlink:href="#ArialMT-6f" transform="translate(1089.355469 0)"/>
      <use xlink:href="#ArialMT-6d" transform="translate(1144.970703 0)"/>
      <use xlink:href="#ArialMT-29" transform="translate(1228.271484 0)"/>
     </g>
    </g>
   </g>
   <g id="LineCollection_1"/>
   <g id="patch_6">
    <path d="M 287.298425 195.703937 
L 291.66378 203.640945 
L 296.029134 195.703937 
L 296.029134 36.96378 
L 291.66378 29.026772 
L 287.298425 36.96378 
L 287.298425 195.703937 
z
" style="fill: none; stroke: #000000; stroke-width: 0.8; stroke-linejoin: miter; stroke-linecap: square"/>
   </g>
  </g>
 </g>
 <defs>
  <clipPath id="pbd36df4e5c">
   <rect x="7.2" y="7.2" width="263.622047" height="218.267717"/>
  </clipPath>
  <clipPath id="pf8bedbc454">
   <rect x="287.298425" y="36.96378" width="8.730709" height="158.740157"/>
  </clipPath>
 </defs>
</svg>
