<?xml version="1.0" encoding="utf-8" standalone="no"?>
<!DOCTYPE svg PUBLIC "-//W3C//DTD SVG 1.1//EN"
  "http://www.w3.org/Graphics/SVG/1.1/DTD/svg11.dtd">
<svg xmlns:xlink="http://www.w3.org/1999/xlink" width="344.803509pt" height="232.667717pt" viewBox="0 0 344.803509 232.667717" xmlns="http://www.w3.org/2000/svg" version="1.1">
 <metadata>
  <rdf:RDF xmlns:dc="http://purl.org/dc/elements/1.1/" xmlns:cc="http://creativecommons.org/ns#" xmlns:rdf="http://www.w3.org/1999/02/22-rdf-syntax-ns#">
   <cc:Work>
    <dc:type rdf:resource="http://purl.org/dc/dcmitype/StillImage"/>
    <dc:date>2026-01-27T21:37:49.572190</dc:date>
    <dc:format>image/svg+xml</dc:format>
    <dc:creator>
     <cc:Agent>
      <dc:title>Matplotlib v3.10.8, https://matplotlib.org/</dc:title>
     </cc:Agent>
    </dc:creator>
   </cc:Work>
  </rdf:RDF>
 </metadata>
 <defs>
  <style type="text/css">*{stroke-linejoin: round; stroke-linecap: butt}</style>
 </defs>
 <g id="figure_1">
  <g id="patch_1">
   <path d="M 0 232.667717 
L 344.803509 232.667717 
L 344.803509 0 
L 0 0 
L 0 232.667717 
z
" style="fill: none"/>
  </g>
  <g id="axes_1">
   <g id="patch_2">
    <path d="M 7.2 225.467717 
L 270.822047 225.467717 
L 270.822047 7.2 
L 7.2 7.2 
L 7.2 225.467717 
z
" style="fill: none"/>
   </g>
   <g id="TriContourSet_1">
    <path d="M 176.232971 214.554331 
L 175.791474 209.669182 
L 173.370202 208.464847 
L 171.653315 212.953863 
L 171.671608 214.554331 
L 173.247653 214.554331 
z
" clip-path="url(#p6b574bbbb9)" style="fill: #440154; fill-opacity: 0.7"/>
    <path d="M 171.671608 214.554331 
L 171.653315 212.953863 
L 173.370202 208.464847 
L 175.791474 209.669182 
L 176.232971 214.554331 
L 182.797553 214.554331 
L 181.385223 198.926956 
L 173.639681 195.074339 
L 168.147434 209.434504 
L 168.205954 214.554331 
z
" clip-path="url(#p6b574bbbb9)" style="fill: #450457; fill-opacity: 0.7"/>
    <path d="M 168.205954 214.554331 
L 168.147434 209.434504 
L 173.639681 195.074339 
L 181.385223 198.926956 
L 182.797553 214.554331 
L 189.362136 214.554331 
L 186.978973 188.184729 
L 173.90916 181.683832 
L 164.641554 205.915146 
L 164.740299 214.554331 
z
" clip-path="url(#p6b574bbbb9)" style="fill: #470d60; fill-opacity: 0.7"/>
    <path d="M 164.740299 214.554331 
L 164.641554 205.915146 
L 173.90916 181.683832 
L 186.978973 188.184729 
L 189.362136 214.554331 
L 195.926718 214.554331 
L 192.572723 177.442502 
L 174.17864 168.293324 
L 161.135674 202.395787 
L 161.274645 214.554331 
z
" clip-path="url(#p6b574bbbb9)" style="fill: #481668; fill-opacity: 0.7"/>
    <path d="M 161.274645 214.554331 
L 161.135674 202.395787 
L 174.17864 168.293324 
L 192.572723 177.442502 
L 195.926718 214.554331 
L 202.491301 214.554331 
L 198.166473 166.700275 
L 174.448119 154.902816 
L 157.629794 198.876428 
L 157.808991 214.554331 
z
" clip-path="url(#p6b574bbbb9)" style="fill: #481d6f; fill-opacity: 0.7"/>
    <path d="M 157.808991 214.554331 
L 157.629794 198.876428 
L 174.448119 154.902816 
L 198.166473 166.700275 
L 202.491301 214.554331 
L 209.055884 214.554331 
L 204.458762 163.687368 
L 203.600289 156.371728 
L 203.480152 155.968722 
L 203.27721 155.7178 
L 174.717598 141.512309 
L 154.123913 195.35707 
L 154.343337 214.554331 
z
" clip-path="url(#p6b574bbbb9)" style="fill: #482576; fill-opacity: 0.7"/>
    <path d="M 154.343337 214.554331 
L 154.123913 195.35707 
L 174.717598 141.512309 
L 203.27721 155.7178 
L 203.480152 155.968722 
L 203.600289 156.371728 
L 204.458762 163.687368 
L 209.055884 214.554331 
L 210.907946 214.554331 
L 211.796643 214.554331 
L 211.542308 209.550891 
L 205.241108 155.85406 
L 202.151643 145.490307 
L 196.932777 139.037546 
L 174.987078 128.121801 
L 150.618033 191.837711 
L 150.877682 214.554331 
z
" clip-path="url(#p6b574bbbb9)" style="fill: #472d7b; fill-opacity: 0.7"/>
    <path d="M 150.877682 214.554331 
L 150.618033 191.837711 
L 174.987078 128.121801 
L 196.932777 139.037546 
L 202.151643 145.490307 
L 205.241108 155.85406 
L 211.542308 209.550891 
L 211.796643 214.554331 
L 213.034605 214.554331 
L 212.425981 202.581056 
L 206.881928 155.336391 
L 200.823133 135.011891 
L 190.588344 122.357292 
L 175.256557 114.731293 
L 147.112153 188.318353 
L 147.412028 214.554331 
z
" clip-path="url(#p6b574bbbb9)" style="fill: #463480; fill-opacity: 0.7"/>
    <path d="M 147.412028 214.554331 
L 147.112153 188.318353 
L 175.256557 114.731293 
L 190.588344 122.357292 
L 200.823133 135.011891 
L 206.881928 155.336391 
L 212.425981 202.581056 
L 213.034605 214.554331 
L 214.272568 214.554331 
L 213.309653 195.611221 
L 208.522747 154.818722 
L 199.494624 124.533475 
L 184.243911 105.677039 
L 175.526036 101.340786 
L 143.606273 184.798994 
L 143.946374 214.554331 
z
" clip-path="url(#p6b574bbbb9)" style="fill: #443b84; fill-opacity: 0.7"/>
    <path d="M 143.946374 214.554331 
L 143.606273 184.798994 
L 175.526036 101.340786 
L 184.243911 105.677039 
L 199.494624 124.533475 
L 208.522747 154.818722 
L 213.309653 195.611221 
L 214.272568 214.554331 
L 215.510531 214.554331 
L 214.193326 188.641386 
L 210.163567 154.301054 
L 200.86114 123.095642 
L 198.925125 120.041637 
L 184.123009 96.691745 
L 177.899478 88.996785 
L 175.795516 87.950278 
L 140.100393 181.279635 
L 140.48072 214.554331 
z
" clip-path="url(#p6b574bbbb9)" style="fill: #414287; fill-opacity: 0.7"/>
    <path d="M 140.48072 214.554331 
L 140.100393 181.279635 
L 175.795516 87.950278 
L 177.899478 88.996785 
L 184.123009 96.691745 
L 175.88124 83.690601 
L 174.362886 81.295443 
L 172.017802 85.141662 
L 136.594512 177.760277 
L 137.015065 214.554331 
z
M 216.748494 214.554331 
L 215.076999 181.671551 
L 211.804387 153.783385 
L 204.249782 128.441123 
L 200.86114 123.095642 
L 210.163567 154.301054 
L 214.193326 188.641386 
L 215.510531 214.554331 
z
" clip-path="url(#p6b574bbbb9)" style="fill: #3e4989; fill-opacity: 0.7"/>
    <path d="M 137.015065 214.554331 
L 136.594512 177.760277 
L 172.017802 85.141662 
L 174.362886 81.295443 
L 172.136195 77.782905 
L 166.352008 87.269667 
L 133.088632 174.240918 
L 133.549411 214.554331 
z
M 217.986456 214.554331 
L 215.960671 174.701716 
L 213.445206 153.265716 
L 207.638424 133.786604 
L 204.249782 128.441123 
L 211.804387 153.783385 
L 215.076999 181.671551 
L 216.748494 214.554331 
z
" clip-path="url(#p6b574bbbb9)" style="fill: #3c508b; fill-opacity: 0.7"/>
    <path d="M 133.549411 214.554331 
L 133.088632 174.240918 
L 166.352008 87.269667 
L 172.136195 77.782905 
L 169.909504 74.270368 
L 160.686215 89.397671 
L 129.582752 170.72156 
L 130.083757 214.554331 
z
M 219.224419 214.554331 
L 216.844344 167.731881 
L 215.086026 152.748048 
L 211.027066 139.132085 
L 207.638424 133.786604 
L 213.445206 153.265716 
L 215.960671 174.701716 
L 217.986456 214.554331 
z
" clip-path="url(#p6b574bbbb9)" style="fill: #39568c; fill-opacity: 0.7"/>
    <path d="M 130.083757 214.554331 
L 129.582752 170.72156 
L 160.686215 89.397671 
L 169.909504 74.270368 
L 168.968074 72.78529 
L 168.420483 71.921481 
L 167.603573 72.354798 
L 165.256817 74.736756 
L 155.020421 91.525676 
L 126.076872 167.202201 
L 126.618103 214.554331 
z
M 220.462382 214.554331 
L 217.728017 160.762046 
L 216.726845 152.230379 
L 214.415708 144.477566 
L 211.027066 139.132085 
L 215.086026 152.748048 
L 216.844344 167.731881 
L 219.224419 214.554331 
z
" clip-path="url(#p6b574bbbb9)" style="fill: #365d8d; fill-opacity: 0.7"/>
    <path d="M 126.618103 214.554331 
L 126.076872 167.202201 
L 155.020421 91.525676 
L 165.256817 74.736756 
L 167.603573 72.354798 
L 168.420483 71.921481 
L 167.471791 70.424948 
L 165.2396 71.608979 
L 158.827132 78.117634 
L 149.354627 93.65368 
L 122.570991 163.682842 
L 123.152448 214.554331 
z
M 221.700345 214.554331 
L 218.611689 153.792211 
L 218.367665 151.71271 
L 217.80435 149.823047 
L 214.415708 144.477566 
L 216.726845 152.230379 
L 217.728017 160.762046 
L 220.462382 214.554331 
z
" clip-path="url(#p6b574bbbb9)" style="fill: #33638d; fill-opacity: 0.7"/>
    <path d="M 123.152448 214.554331 
L 122.570991 163.682842 
L 149.354627 93.65368 
L 158.827132 78.117634 
L 165.2396 71.608979 
L 167.471791 70.424948 
L 166.523098 68.928414 
L 162.875627 70.86316 
L 152.397447 81.498512 
L 143.688834 95.781685 
L 119.065111 160.163484 
L 119.686794 214.554331 
z
M 222.938307 214.554331 
L 219.808604 152.984698 
L 218.896492 151.545868 
L 217.80435 149.823047 
L 218.367665 151.71271 
L 218.611689 153.792211 
L 221.700345 214.554331 
z
" clip-path="url(#p6b574bbbb9)" style="fill: #30698e; fill-opacity: 0.7"/>
    <path d="M 119.686794 214.554331 
L 119.065111 160.163484 
L 143.688834 95.781685 
L 152.397447 81.498512 
L 162.875627 70.86316 
L 166.523098 68.928414 
L 165.574406 67.431881 
L 160.511654 70.11734 
L 145.967763 84.87939 
L 138.02304 97.909689 
L 115.559231 156.644125 
L 116.22114 214.554331 
z
M 224.17627 214.554331 
L 221.154488 155.107788 
L 219.808604 152.984698 
L 222.938307 214.554331 
z
" clip-path="url(#p6b574bbbb9)" style="fill: #2e6f8e; fill-opacity: 0.7"/>
    <path d="M 116.22114 214.554331 
L 115.559231 156.644125 
L 138.02304 97.909689 
L 145.967763 84.87939 
L 160.511654 70.11734 
L 165.574406 67.431881 
L 164.625714 65.935347 
L 158.147681 69.371521 
L 139.538078 88.260269 
L 132.357247 100.037694 
L 112.053351 153.124767 
L 112.755485 214.554331 
z
M 225.414233 214.554331 
L 222.500372 157.230879 
L 221.154488 155.107788 
L 224.17627 214.554331 
z
" clip-path="url(#p6b574bbbb9)" style="fill: #2b748e; fill-opacity: 0.7"/>
    <path d="M 112.755485 214.554331 
L 112.053351 153.124767 
L 132.357247 100.037694 
L 139.538078 88.260269 
L 158.147681 69.371521 
L 164.625714 65.935347 
L 163.677022 64.438814 
L 155.783708 68.625702 
L 133.108393 91.641147 
L 126.691453 102.165699 
L 108.54747 149.605408 
L 109.289831 214.554331 
z
M 226.652196 214.554331 
L 223.846255 159.35397 
L 222.500372 157.230879 
L 225.414233 214.554331 
z
" clip-path="url(#p6b574bbbb9)" style="fill: #297a8e; fill-opacity: 0.7"/>
    <path d="M 109.289831 214.554331 
L 108.54747 149.605408 
L 126.691453 102.165699 
L 133.108393 91.641147 
L 155.783708 68.625702 
L 163.677022 64.438814 
L 162.72833 62.94228 
L 153.419735 67.879883 
L 126.678708 95.022025 
L 121.02566 104.293703 
L 105.04159 146.086049 
L 105.824177 214.554331 
z
M 227.890158 214.554331 
L 225.192139 161.477061 
L 223.846255 159.35397 
L 226.652196 214.554331 
z
" clip-path="url(#p6b574bbbb9)" style="fill: #27808e; fill-opacity: 0.7"/>
    <path d="M 105.824177 214.554331 
L 105.04159 146.086049 
L 121.02566 104.293703 
L 126.678708 95.022025 
L 153.419735 67.879883 
L 162.72833 62.94228 
L 161.779637 61.445747 
L 151.055762 67.134063 
L 120.249023 98.402903 
L 115.359866 106.421708 
L 101.53571 142.566691 
L 102.358523 214.554331 
z
M 229.128121 214.554331 
L 226.538022 163.600152 
L 225.192139 161.477061 
L 227.890158 214.554331 
z
" clip-path="url(#p6b574bbbb9)" style="fill: #25858e; fill-opacity: 0.7"/>
    <path d="M 102.358523 214.554331 
L 101.53571 142.566691 
L 115.359866 106.421708 
L 120.249023 98.402903 
L 151.055762 67.134063 
L 161.779637 61.445747 
L 160.830945 59.949213 
L 148.691789 66.388244 
L 113.819338 101.783781 
L 109.694073 108.549712 
L 98.02983 139.047332 
L 98.892868 214.554331 
z
M 230.366084 214.554331 
L 227.883906 165.723242 
L 226.538022 163.600152 
L 229.128121 214.554331 
z
" clip-path="url(#p6b574bbbb9)" style="fill: #228b8d; fill-opacity: 0.7"/>
    <path d="M 98.892868 214.554331 
L 98.02983 139.047332 
L 109.694073 108.549712 
L 113.819338 101.783781 
L 148.691789 66.388244 
L 160.830945 59.949213 
L 159.882253 58.45268 
L 146.327816 65.642425 
L 107.389653 105.16466 
L 104.028279 110.677717 
L 94.523949 135.527974 
L 95.427214 214.554331 
z
M 231.604047 214.554331 
L 229.229789 167.846333 
L 227.883906 165.723242 
L 230.366084 214.554331 
z
" clip-path="url(#p6b574bbbb9)" style="fill: #21918c; fill-opacity: 0.7"/>
    <path d="M 95.427214 214.554331 
L 94.523949 135.527974 
L 104.028279 110.677717 
L 107.389653 105.16466 
L 146.327816 65.642425 
L 159.882253 58.45268 
L 158.933561 56.956146 
L 143.963842 64.896605 
L 100.959968 108.545538 
L 98.362485 112.805721 
L 91.018069 132.008615 
L 91.96156 214.554331 
z
M 232.842009 214.554331 
L 230.575673 169.969424 
L 229.229789 167.846333 
L 231.604047 214.554331 
z
" clip-path="url(#p6b574bbbb9)" style="fill: #1f958b; fill-opacity: 0.7"/>
    <path d="M 91.96156 214.554331 
L 91.018069 132.008615 
L 98.362485 112.805721 
L 100.959968 108.545538 
L 143.963842 64.896605 
L 158.933561 56.956146 
L 157.984868 55.459613 
L 141.599869 64.150786 
L 94.530283 111.926416 
L 92.696692 114.933726 
L 87.512189 128.489256 
L 88.495906 214.554331 
z
M 234.079972 214.554331 
L 231.921556 172.092515 
L 230.575673 169.969424 
L 232.842009 214.554331 
z
" clip-path="url(#p6b574bbbb9)" style="fill: #1e9b8a; fill-opacity: 0.7"/>
    <path d="M 88.495906 214.554331 
L 87.512189 128.489256 
L 92.696692 114.933726 
L 94.530283 111.926416 
L 141.599869 64.150786 
L 157.984868 55.459613 
L 157.036176 53.963079 
L 139.235896 63.404967 
L 88.100598 115.307294 
L 87.030898 117.06173 
L 84.006309 124.969898 
L 85.030251 214.554331 
z
M 235.317935 214.554331 
L 233.26744 174.215606 
L 231.921556 172.092515 
L 234.079972 214.554331 
z
" clip-path="url(#p6b574bbbb9)" style="fill: #1fa188; fill-opacity: 0.7"/>
    <path d="M 85.030251 214.554331 
L 84.006309 124.969898 
L 87.030898 117.06173 
L 88.100598 115.307294 
L 139.235896 63.404967 
L 157.036176 53.963079 
L 156.087484 52.466546 
L 136.871923 62.659148 
L 81.670913 118.688173 
L 81.365105 119.189735 
L 80.500428 121.450539 
L 81.564597 214.554331 
z
M 236.555898 214.554331 
L 234.613323 176.338696 
L 233.26744 174.215606 
L 235.317935 214.554331 
z
" clip-path="url(#p6b574bbbb9)" style="fill: #21a685; fill-opacity: 0.7"/>
    <path d="M 77.055478 123.261953 
L 78.098943 214.554331 
L 81.564597 214.554331 
L 80.500428 121.450539 
L 81.365105 119.189735 
L 81.670913 118.688173 
L 136.871923 62.659148 
L 156.087484 52.466546 
L 155.138792 50.970012 
L 134.50795 61.913328 
L 82.450196 114.751949 
L 79.096922 120.041637 
z
M 237.79386 214.554331 
L 235.959207 178.461787 
L 234.613323 176.338696 
L 236.555898 214.554331 
z
" clip-path="url(#p6b574bbbb9)" style="fill: #25ac82; fill-opacity: 0.7"/>
    <path d="M 73.651204 128.632093 
L 74.633289 214.554331 
L 78.098943 214.554331 
L 77.055478 123.261953 
z
M 239.031823 214.554331 
L 237.30509 180.584878 
L 235.959207 178.461787 
L 237.79386 214.554331 
z
M 154.190099 49.473479 
L 132.143977 61.167509 
L 88.042054 105.930961 
L 82.450196 114.751949 
L 134.50795 61.913328 
L 155.138792 50.970012 
z
" clip-path="url(#p6b574bbbb9)" style="fill: #2cb17e; fill-opacity: 0.7"/>
    <path d="M 70.24693 134.002233 
L 71.167634 214.554331 
L 74.633289 214.554331 
L 73.651204 128.632093 
z
M 240.269786 214.554331 
L 238.650974 182.707969 
L 237.30509 180.584878 
L 239.031823 214.554331 
z
M 153.241407 47.976945 
L 129.780004 60.42169 
L 93.633912 97.109973 
L 88.042054 105.930961 
L 132.143977 61.167509 
L 154.190099 49.473479 
z
" clip-path="url(#p6b574bbbb9)" style="fill: #34b679; fill-opacity: 0.7"/>
    <path d="M 66.842656 139.372373 
L 67.70198 214.554331 
L 71.167634 214.554331 
L 70.24693 134.002233 
z
M 241.507748 214.554331 
L 239.996857 184.83106 
L 238.650974 182.707969 
L 240.269786 214.554331 
z
M 152.292715 46.480412 
L 127.416031 59.67587 
L 99.225769 88.288985 
L 93.633912 97.109973 
L 129.780004 60.42169 
L 153.241407 47.976945 
z
" clip-path="url(#p6b574bbbb9)" style="fill: #3dbc74; fill-opacity: 0.7"/>
    <path d="M 63.438382 144.742512 
L 64.236326 214.554331 
L 67.70198 214.554331 
L 66.842656 139.372373 
z
M 242.745711 214.554331 
L 241.342741 186.95415 
L 239.996857 184.83106 
L 241.507748 214.554331 
z
M 151.344023 44.983879 
L 125.052058 58.930051 
L 104.817627 79.467998 
L 99.225769 88.288985 
L 127.416031 59.67587 
L 152.292715 46.480412 
z
" clip-path="url(#p6b574bbbb9)" style="fill: #48c16e; fill-opacity: 0.7"/>
    <path d="M 60.034108 150.112652 
L 60.770671 214.554331 
L 64.236326 214.554331 
L 63.438382 144.742512 
z
M 243.983674 214.554331 
L 242.688625 189.077241 
L 241.342741 186.95415 
L 242.745711 214.554331 
z
M 150.39533 43.487345 
L 122.688085 58.184232 
L 110.409485 70.64701 
L 104.817627 79.467998 
L 125.052058 58.930051 
L 151.344023 44.983879 
z
" clip-path="url(#p6b574bbbb9)" style="fill: #54c568; fill-opacity: 0.7"/>
    <path d="M 56.629834 155.482792 
L 57.305017 214.554331 
L 60.770671 214.554331 
L 60.034108 150.112652 
z
M 245.221637 214.554331 
L 244.034508 191.200332 
L 242.688625 189.077241 
L 243.983674 214.554331 
z
M 149.446638 41.990812 
L 120.324112 57.438412 
L 116.001343 61.826022 
L 110.409485 70.64701 
L 122.688085 58.184232 
L 150.39533 43.487345 
z
" clip-path="url(#p6b574bbbb9)" style="fill: #60ca60; fill-opacity: 0.7"/>
    <path d="M 53.22556 160.852932 
L 53.839363 214.554331 
L 57.305017 214.554331 
L 56.629834 155.482792 
z
M 246.459599 214.554331 
L 245.380392 193.323423 
L 244.034508 191.200332 
L 245.221637 214.554331 
z
M 148.497946 40.494278 
L 119.911829 55.657349 
L 119.039656 57.033175 
L 116.001343 61.826022 
L 120.324112 57.438412 
L 149.446638 41.990812 
z
" clip-path="url(#p6b574bbbb9)" style="fill: #6ece58; fill-opacity: 0.7"/>
    <path d="M 49.821286 166.223072 
L 50.373709 214.554331 
L 53.839363 214.554331 
L 53.22556 160.852932 
z
M 247.697562 214.554331 
L 246.726275 195.446514 
L 245.380392 193.323423 
L 246.459599 214.554331 
z
M 147.549254 38.997745 
L 121.821748 52.644508 
L 119.911829 55.657349 
L 148.497946 40.494278 
z
" clip-path="url(#p6b574bbbb9)" style="fill: #7cd250; fill-opacity: 0.7"/>
    <path d="M 46.417012 171.593212 
L 46.908054 214.554331 
L 50.373709 214.554331 
L 49.821286 166.223072 
z
M 248.935525 214.554331 
L 248.072159 197.569604 
L 246.726275 195.446514 
L 247.697562 214.554331 
z
M 146.600562 37.501211 
L 123.731668 49.631668 
L 121.821748 52.644508 
L 147.549254 38.997745 
z
" clip-path="url(#p6b574bbbb9)" style="fill: #8bd646; fill-opacity: 0.7"/>
    <path d="M 43.012738 176.963352 
L 43.4424 214.554331 
L 46.908054 214.554331 
L 46.417012 171.593212 
z
M 250.173488 214.554331 
L 249.418042 199.692695 
L 248.072159 197.569604 
L 248.935525 214.554331 
z
M 145.651869 36.004678 
L 125.641587 46.618827 
L 123.731668 49.631668 
L 146.600562 37.501211 
z
" clip-path="url(#p6b574bbbb9)" style="fill: #9bd93c; fill-opacity: 0.7"/>
    <path d="M 39.608464 182.333491 
L 39.976746 214.554331 
L 43.4424 214.554331 
L 43.012738 176.963352 
z
M 251.41145 214.554331 
L 250.763926 201.815786 
L 249.418042 199.692695 
L 250.173488 214.554331 
z
M 144.703177 34.508144 
L 127.551507 43.605987 
L 125.641587 46.618827 
L 145.651869 36.004678 
z
" clip-path="url(#p6b574bbbb9)" style="fill: #aadc32; fill-opacity: 0.7"/>
    <path d="M 36.20419 187.703631 
L 36.511092 214.554331 
L 39.976746 214.554331 
L 39.608464 182.333491 
z
M 252.649413 214.554331 
L 252.109809 203.938877 
L 250.763926 201.815786 
L 251.41145 214.554331 
z
M 143.754485 33.011611 
L 129.461426 40.593146 
L 127.551507 43.605987 
L 144.703177 34.508144 
z
" clip-path="url(#p6b574bbbb9)" style="fill: #bade28; fill-opacity: 0.7"/>
    <path d="M 32.799916 193.073771 
L 33.045437 214.554331 
L 36.511092 214.554331 
L 36.20419 187.703631 
z
M 253.887376 214.554331 
L 253.455693 206.061968 
L 252.109809 203.938877 
L 252.649413 214.554331 
z
M 142.805793 31.515077 
L 131.371346 37.580305 
L 129.461426 40.593146 
L 143.754485 33.011611 
z
" clip-path="url(#p6b574bbbb9)" style="fill: #cae11f; fill-opacity: 0.7"/>
    <path d="M 29.395642 198.443911 
L 29.579783 214.554331 
L 33.045437 214.554331 
L 32.799916 193.073771 
z
M 255.125339 214.554331 
L 254.801576 208.185058 
L 253.455693 206.061968 
L 253.887376 214.554331 
z
M 141.8571 30.018544 
L 133.281265 34.567465 
L 131.371346 37.580305 
L 142.805793 31.515077 
z
" clip-path="url(#p6b574bbbb9)" style="fill: #dae319; fill-opacity: 0.7"/>
    <path d="M 25.991368 203.814051 
L 26.114129 214.554331 
L 29.579783 214.554331 
L 29.395642 198.443911 
z
M 256.363301 214.554331 
L 256.14746 210.308149 
L 254.801576 208.185058 
L 255.125339 214.554331 
z
M 140.908408 28.52201 
L 135.191185 31.554624 
L 133.281265 34.567465 
L 141.8571 30.018544 
z
" clip-path="url(#p6b574bbbb9)" style="fill: #eae51a; fill-opacity: 0.7"/>
    <path d="M 22.587094 209.184191 
L 22.648475 214.554331 
L 26.114129 214.554331 
L 25.991368 203.814051 
z
M 257.601264 214.554331 
L 257.493343 212.43124 
L 256.14746 210.308149 
L 256.363301 214.554331 
z
M 139.959716 27.025477 
L 137.101104 28.541784 
L 135.191185 31.554624 
L 140.908408 28.52201 
z
" clip-path="url(#p6b574bbbb9)" style="fill: #f8e621; fill-opacity: 0.7"/>
    <path d="M 22.648475 214.554331 
L 22.587094 209.184191 
L 19.18282 214.554331 
z
M 257.493343 212.43124 
L 257.601264 214.554331 
L 258.839227 214.554331 
z
M 137.101104 28.541784 
L 139.959716 27.025477 
L 139.011024 25.528943 
z
" clip-path="url(#p6b574bbbb9)" style="fill: #fde725; fill-opacity: 0.7"/>
   </g>
   <g id="matplotlib.axis_1"/>
   <g id="matplotlib.axis_2"/>
   <g id="line2d_1">
    <path d="M 173.247653 214.554331 
L 19.18282 214.554331 
" clip-path="url(#p6b574bbbb9)" style="fill: none; stroke: #555555; stroke-opacity: 0.9; stroke-width: 0.5; stroke-linecap: square"/>
   </g>
   <g id="line2d_2">
    <path d="M 210.907946 214.554331 
L 173.247653 214.554331 
" clip-path="url(#p6b574bbbb9)" style="fill: none; stroke: #555555; stroke-opacity: 0.9; stroke-width: 0.5; stroke-linecap: square"/>
   </g>
   <g id="line2d_3">
    <path d="M 210.907946 214.554331 
L 203.533902 156.392673 
" clip-path="url(#p6b574bbbb9)" style="fill: none; stroke: #555555; stroke-opacity: 0.9; stroke-width: 0.5; stroke-linecap: square"/>
   </g>
   <g id="line2d_4">
    <path d="M 210.907946 214.554331 
L 258.839227 214.554331 
" clip-path="url(#p6b574bbbb9)" style="fill: none; stroke: #555555; stroke-opacity: 0.9; stroke-width: 0.5; stroke-linecap: square"/>
   </g>
   <g id="line2d_5">
    <path d="M 218.896492 151.545868 
L 203.533902 156.392673 
" clip-path="url(#p6b574bbbb9)" style="fill: none; stroke: #555555; stroke-opacity: 0.9; stroke-width: 0.5; stroke-linecap: square"/>
   </g>
   <g id="line2d_6">
    <path d="M 218.896492 151.545868 
L 258.839227 214.554331 
" clip-path="url(#p6b574bbbb9)" style="fill: none; stroke: #555555; stroke-opacity: 0.9; stroke-width: 0.5; stroke-linecap: square"/>
   </g>
   <g id="line2d_7">
    <path d="M 79.096922 120.041637 
L 119.039656 57.033175 
" clip-path="url(#p6b574bbbb9)" style="fill: none; stroke: #555555; stroke-opacity: 0.9; stroke-width: 0.5; stroke-linecap: square"/>
   </g>
   <g id="line2d_8">
    <path d="M 168.968074 72.78529 
L 175.88124 83.690601 
" clip-path="url(#p6b574bbbb9)" style="fill: none; stroke: #555555; stroke-opacity: 0.9; stroke-width: 0.5; stroke-linecap: square"/>
   </g>
   <g id="line2d_9">
    <path d="M 168.968074 72.78529 
L 119.039656 57.033175 
" clip-path="url(#p6b574bbbb9)" style="fill: none; stroke: #555555; stroke-opacity: 0.9; stroke-width: 0.5; stroke-linecap: square"/>
   </g>
   <g id="line2d_10">
    <path d="M 168.968074 72.78529 
L 139.011024 25.528943 
" clip-path="url(#p6b574bbbb9)" style="fill: none; stroke: #555555; stroke-opacity: 0.9; stroke-width: 0.5; stroke-linecap: square"/>
   </g>
   <g id="line2d_11">
    <path d="M 175.88124 83.690601 
L 79.096922 120.041637 
" clip-path="url(#p6b574bbbb9)" style="fill: none; stroke: #555555; stroke-opacity: 0.9; stroke-width: 0.5; stroke-linecap: square"/>
   </g>
   <g id="line2d_12">
    <path d="M 218.896492 151.545868 
L 210.907946 214.554331 
" clip-path="url(#p6b574bbbb9)" style="fill: none; stroke: #555555; stroke-opacity: 0.9; stroke-width: 0.5; stroke-linecap: square"/>
   </g>
   <g id="line2d_13">
    <path d="M 198.925125 120.041637 
L 203.533902 156.392673 
" clip-path="url(#p6b574bbbb9)" style="fill: none; stroke: #555555; stroke-opacity: 0.9; stroke-width: 0.5; stroke-linecap: square"/>
   </g>
   <g id="line2d_14">
    <path d="M 79.096922 120.041637 
L 19.18282 214.554331 
" clip-path="url(#p6b574bbbb9)" style="fill: none; stroke: #555555; stroke-opacity: 0.9; stroke-width: 0.5; stroke-linecap: square"/>
   </g>
   <g id="line2d_15">
    <path d="M 168.968074 72.78529 
L 79.096922 120.041637 
" clip-path="url(#p6b574bbbb9)" style="fill: none; stroke: #555555; stroke-opacity: 0.9; stroke-width: 0.5; stroke-linecap: square"/>
   </g>
   <g id="line2d_16">
    <path d="M 203.533902 156.392673 
L 173.247653 214.554331 
" clip-path="url(#p6b574bbbb9)" style="fill: none; stroke: #555555; stroke-opacity: 0.9; stroke-width: 0.5; stroke-linecap: square"/>
   </g>
   <g id="line2d_17">
    <path d="M 175.88124 83.690601 
L 203.533902 156.392673 
" clip-path="url(#p6b574bbbb9)" style="fill: none; stroke: #555555; stroke-opacity: 0.9; stroke-width: 0.5; stroke-linecap: square"/>
   </g>
   <g id="line2d_18">
    <path d="M 175.88124 83.690601 
L 173.247653 214.554331 
" clip-path="url(#p6b574bbbb9)" style="fill: none; stroke: #555555; stroke-opacity: 0.9; stroke-width: 0.5; stroke-linecap: square"/>
   </g>
   <g id="line2d_19">
    <path d="M 198.925125 120.041637 
L 218.896492 151.545868 
" clip-path="url(#p6b574bbbb9)" style="fill: none; stroke: #555555; stroke-opacity: 0.9; stroke-width: 0.5; stroke-linecap: square"/>
   </g>
   <g id="line2d_20">
    <path d="M 79.096922 120.041637 
L 173.247653 214.554331 
" clip-path="url(#p6b574bbbb9)" style="fill: none; stroke: #555555; stroke-opacity: 0.9; stroke-width: 0.5; stroke-linecap: square"/>
   </g>
   <g id="line2d_21">
    <path d="M 198.925125 120.041637 
L 175.88124 83.690601 
" clip-path="url(#p6b574bbbb9)" style="fill: none; stroke: #555555; stroke-opacity: 0.9; stroke-width: 0.5; stroke-linecap: square"/>
   </g>
   <g id="line2d_22">
    <path d="M 119.039656 57.033175 
L 139.011024 25.528943 
" clip-path="url(#p6b574bbbb9)" style="fill: none; stroke: #555555; stroke-opacity: 0.9; stroke-width: 0.5; stroke-linecap: square"/>
   </g>
   <g id="PathCollection_1">
    <defs>
     <path id="mc954da3310" d="M 0 2.738613 
C 0.726289 2.738613 1.422928 2.450055 1.936492 1.936492 
C 2.450055 1.422928 2.738613 0.726289 2.738613 0 
C 2.738613 -0.726289 2.450055 -1.422928 1.936492 -1.936492 
C 1.422928 -2.450055 0.726289 -2.738613 0 -2.738613 
C -0.726289 -2.738613 -1.422928 -2.450055 -1.936492 -1.936492 
C -2.450055 -1.422928 -2.738613 -0.726289 -2.738613 0 
C -2.738613 0.726289 -2.450055 1.422928 -1.936492 1.936492 
C -1.422928 2.450055 -0.726289 2.738613 0 2.738613 
z
" style="stroke: #008000"/>
    </defs>
    <g clip-path="url(#p6b574bbbb9)">
     <use xlink:href="#mc954da3310" x="173.247653" y="214.554331" style="fill: #008000; stroke: #008000"/>
     <use xlink:href="#mc954da3310" x="19.18282" y="214.554331" style="fill: #008000; stroke: #008000"/>
     <use xlink:href="#mc954da3310" x="210.907946" y="214.554331" style="fill: #008000; stroke: #008000"/>
     <use xlink:href="#mc954da3310" x="203.533902" y="156.392673" style="fill: #008000; stroke: #008000"/>
     <use xlink:href="#mc954da3310" x="258.839227" y="214.554331" style="fill: #008000; stroke: #008000"/>
     <use xlink:href="#mc954da3310" x="218.896492" y="151.545868" style="fill: #008000; stroke: #008000"/>
     <use xlink:href="#mc954da3310" x="79.096922" y="120.041637" style="fill: #008000; stroke: #008000"/>
     <use xlink:href="#mc954da3310" x="119.039656" y="57.033175" style="fill: #008000; stroke: #008000"/>
     <use xlink:href="#mc954da3310" x="168.968074" y="72.78529" style="fill: #008000; stroke: #008000"/>
     <use xlink:href="#mc954da3310" x="175.88124" y="83.690601" style="fill: #008000; stroke: #008000"/>
     <use xlink:href="#mc954da3310" x="139.011024" y="25.528943" style="fill: #008000; stroke: #008000"/>
     <use xlink:href="#mc954da3310" x="198.925125" y="120.041637" style="fill: #008000; stroke: #008000"/>
    </g>
   </g>
   <g id="PathCollection_2">
    <defs>
     <path id="ma0bd14506d" d="M -0 2.236068 
L 1.341641 0 
L 0 -2.236068 
L -1.341641 -0 
z
" style="stroke: #d3d3d3"/>
    </defs>
    <g clip-path="url(#p6b574bbbb9)">
     <use xlink:href="#ma0bd14506d" x="139.011024" y="25.528943" style="fill: #d3d3d3; stroke: #d3d3d3"/>
     <use xlink:href="#ma0bd14506d" x="139.011024" y="25.528943" style="fill: #d3d3d3; stroke: #d3d3d3"/>
     <use xlink:href="#ma0bd14506d" x="139.011024" y="25.528943" style="fill: #d3d3d3; stroke: #d3d3d3"/>
     <use xlink:href="#ma0bd14506d" x="139.011024" y="25.528943" style="fill: #d3d3d3; stroke: #d3d3d3"/>
     <use xlink:href="#ma0bd14506d" x="139.011024" y="25.528943" style="fill: #d3d3d3; stroke: #d3d3d3"/>
     <use xlink:href="#ma0bd14506d" x="139.011024" y="25.528943" style="fill: #d3d3d3; stroke: #d3d3d3"/>
     <use xlink:href="#ma0bd14506d" x="139.011024" y="25.528943" style="fill: #d3d3d3; stroke: #d3d3d3"/>
     <use xlink:href="#ma0bd14506d" x="258.839227" y="214.554331" style="fill: #d3d3d3; stroke: #d3d3d3"/>
     <use xlink:href="#ma0bd14506d" x="258.839227" y="214.554331" style="fill: #d3d3d3; stroke: #d3d3d3"/>
     <use xlink:href="#ma0bd14506d" x="258.839227" y="214.554331" style="fill: #d3d3d3; stroke: #d3d3d3"/>
     <use xlink:href="#ma0bd14506d" x="258.839227" y="214.554331" style="fill: #d3d3d3; stroke: #d3d3d3"/>
     <use xlink:href="#ma0bd14506d" x="258.839227" y="214.554331" style="fill: #d3d3d3; stroke: #d3d3d3"/>
     <use xlink:href="#ma0bd14506d" x="258.839227" y="214.554331" style="fill: #d3d3d3; stroke: #d3d3d3"/>
     <use xlink:href="#ma0bd14506d" x="258.839227" y="214.554331" style="fill: #d3d3d3; stroke: #d3d3d3"/>
     <use xlink:href="#ma0bd14506d" x="258.839227" y="214.554331" style="fill: #d3d3d3; stroke: #d3d3d3"/>
     <use xlink:href="#ma0bd14506d" x="258.839227" y="214.554331" style="fill: #d3d3d3; stroke: #d3d3d3"/>
     <use xlink:href="#ma0bd14506d" x="198.925125" y="120.041637" style="fill: #d3d3d3; stroke: #d3d3d3"/>
     <use xlink:href="#ma0bd14506d" x="168.968074" y="72.78529" style="fill: #d3d3d3; stroke: #d3d3d3"/>
     <use xlink:href="#ma0bd14506d" x="168.968074" y="72.78529" style="fill: #d3d3d3; stroke: #d3d3d3"/>
     <use xlink:href="#ma0bd14506d" x="168.968074" y="72.78529" style="fill: #d3d3d3; stroke: #d3d3d3"/>
     <use xlink:href="#ma0bd14506d" x="162.976664" y="63.334021" style="fill: #d3d3d3; stroke: #d3d3d3"/>
     <use xlink:href="#ma0bd14506d" x="218.896492" y="151.545868" style="fill: #d3d3d3; stroke: #d3d3d3"/>
     <use xlink:href="#ma0bd14506d" x="218.896492" y="151.545868" style="fill: #d3d3d3; stroke: #d3d3d3"/>
     <use xlink:href="#ma0bd14506d" x="228.882176" y="167.297984" style="fill: #d3d3d3; stroke: #d3d3d3"/>
     <use xlink:href="#ma0bd14506d" x="228.882176" y="167.297984" style="fill: #d3d3d3; stroke: #d3d3d3"/>
     <use xlink:href="#ma0bd14506d" x="210.907946" y="138.944176" style="fill: #d3d3d3; stroke: #d3d3d3"/>
     <use xlink:href="#ma0bd14506d" x="164.238014" y="65.323762" style="fill: #d3d3d3; stroke: #d3d3d3"/>
     <use xlink:href="#ma0bd14506d" x="19.18282" y="214.554331" style="fill: #d3d3d3; stroke: #d3d3d3"/>
     <use xlink:href="#ma0bd14506d" x="19.18282" y="214.554331" style="fill: #d3d3d3; stroke: #d3d3d3"/>
     <use xlink:href="#ma0bd14506d" x="19.18282" y="214.554331" style="fill: #d3d3d3; stroke: #d3d3d3"/>
     <use xlink:href="#ma0bd14506d" x="19.18282" y="214.554331" style="fill: #d3d3d3; stroke: #d3d3d3"/>
     <use xlink:href="#ma0bd14506d" x="19.18282" y="214.554331" style="fill: #d3d3d3; stroke: #d3d3d3"/>
     <use xlink:href="#ma0bd14506d" x="19.18282" y="214.554331" style="fill: #d3d3d3; stroke: #d3d3d3"/>
     <use xlink:href="#ma0bd14506d" x="19.18282" y="214.554331" style="fill: #d3d3d3; stroke: #d3d3d3"/>
     <use xlink:href="#ma0bd14506d" x="19.18282" y="214.554331" style="fill: #d3d3d3; stroke: #d3d3d3"/>
     <use xlink:href="#ma0bd14506d" x="19.18282" y="214.554331" style="fill: #d3d3d3; stroke: #d3d3d3"/>
     <use xlink:href="#ma0bd14506d" x="19.18282" y="214.554331" style="fill: #d3d3d3; stroke: #d3d3d3"/>
     <use xlink:href="#ma0bd14506d" x="139.011024" y="214.554331" style="fill: #d3d3d3; stroke: #d3d3d3"/>
     <use xlink:href="#ma0bd14506d" x="178.953758" y="214.554331" style="fill: #d3d3d3; stroke: #d3d3d3"/>
     <use xlink:href="#ma0bd14506d" x="178.953758" y="214.554331" style="fill: #d3d3d3; stroke: #d3d3d3"/>
     <use xlink:href="#ma0bd14506d" x="178.953758" y="214.554331" style="fill: #d3d3d3; stroke: #d3d3d3"/>
     <use xlink:href="#ma0bd14506d" x="99.068289" y="214.554331" style="fill: #d3d3d3; stroke: #d3d3d3"/>
     <use xlink:href="#ma0bd14506d" x="49.139871" y="167.297984" style="fill: #d3d3d3; stroke: #d3d3d3"/>
     <use xlink:href="#ma0bd14506d" x="115.045383" y="214.554331" style="fill: #d3d3d3; stroke: #d3d3d3"/>
     <use xlink:href="#ma0bd14506d" x="67.114102" y="214.554331" style="fill: #d3d3d3; stroke: #d3d3d3"/>
     <use xlink:href="#ma0bd14506d" x="131.022477" y="214.554331" style="fill: #d3d3d3; stroke: #d3d3d3"/>
    </g>
   </g>
   <g id="PathCollection_3">
    <defs>
     <path id="m9ae13f529b" d="M 0 -5 
L -1.12257 -1.545085 
L -4.755283 -1.545085 
L -1.816356 0.59017 
L -2.938926 4.045085 
L -0 1.90983 
L 2.938926 4.045085 
L 1.816356 0.59017 
L 4.755283 -1.545085 
L 1.12257 -1.545085 
z
" style="stroke: #ff0000"/>
    </defs>
    <g clip-path="url(#p6b574bbbb9)">
     <use xlink:href="#m9ae13f529b" x="203.533902" y="156.392673" style="fill: #ff0000; stroke: #ff0000"/>
    </g>
   </g>
   <g id="text_1">
    <!-- $\mathrm{Sr_{5}Al_{9}}$ -->
    <g transform="translate(166.202199 210.594971) scale(0.1 -0.1)">
     <defs>
      <path id="DejaVuSans-53" d="M 3425 4513 
L 3425 3897 
Q 3066 4069 2747 4153 
Q 2428 4238 2131 4238 
Q 1616 4238 1336 4038 
Q 1056 3838 1056 3469 
Q 1056 3159 1242 3001 
Q 1428 2844 1947 2747 
L 2328 2669 
Q 3034 2534 3370 2195 
Q 3706 1856 3706 1288 
Q 3706 609 3251 259 
Q 2797 -91 1919 -91 
Q 1588 -91 1214 -16 
Q 841 59 441 206 
L 441 856 
Q 825 641 1194 531 
Q 1563 422 1919 422 
Q 2459 422 2753 634 
Q 3047 847 3047 1241 
Q 3047 1584 2836 1778 
Q 2625 1972 2144 2069 
L 1759 2144 
Q 1053 2284 737 2584 
Q 422 2884 422 3419 
Q 422 4038 858 4394 
Q 1294 4750 2059 4750 
Q 2388 4750 2728 4690 
Q 3069 4631 3425 4513 
z
" transform="scale(0.015625)"/>
      <path id="DejaVuSans-72" d="M 2631 2963 
Q 2534 3019 2420 3045 
Q 2306 3072 2169 3072 
Q 1681 3072 1420 2755 
Q 1159 2438 1159 1844 
L 1159 0 
L 581 0 
L 581 3500 
L 1159 3500 
L 1159 2956 
Q 1341 3275 1631 3429 
Q 1922 3584 2338 3584 
Q 2397 3584 2469 3576 
Q 2541 3569 2628 3553 
L 2631 2963 
z
" transform="scale(0.015625)"/>
      <path id="DejaVuSans-35" d="M 691 4666 
L 3169 4666 
L 3169 4134 
L 1269 4134 
L 1269 2991 
Q 1406 3038 1543 3061 
Q 1681 3084 1819 3084 
Q 2600 3084 3056 2656 
Q 3513 2228 3513 1497 
Q 3513 744 3044 326 
Q 2575 -91 1722 -91 
Q 1428 -91 1123 -41 
Q 819 9 494 109 
L 494 744 
Q 775 591 1075 516 
Q 1375 441 1709 441 
Q 2250 441 2565 725 
Q 2881 1009 2881 1497 
Q 2881 1984 2565 2268 
Q 2250 2553 1709 2553 
Q 1456 2553 1204 2497 
Q 953 2441 691 2322 
L 691 4666 
z
" transform="scale(0.015625)"/>
      <path id="DejaVuSans-41" d="M 2188 4044 
L 1331 1722 
L 3047 1722 
L 2188 4044 
z
M 1831 4666 
L 2547 4666 
L 4325 0 
L 3669 0 
L 3244 1197 
L 1141 1197 
L 716 0 
L 50 0 
L 1831 4666 
z
" transform="scale(0.015625)"/>
      <path id="DejaVuSans-6c" d="M 603 4863 
L 1178 4863 
L 1178 0 
L 603 0 
L 603 4863 
z
" transform="scale(0.015625)"/>
      <path id="DejaVuSans-39" d="M 703 97 
L 703 672 
Q 941 559 1184 500 
Q 1428 441 1663 441 
Q 2288 441 2617 861 
Q 2947 1281 2994 2138 
Q 2813 1869 2534 1725 
Q 2256 1581 1919 1581 
Q 1219 1581 811 2004 
Q 403 2428 403 3163 
Q 403 3881 828 4315 
Q 1253 4750 1959 4750 
Q 2769 4750 3195 4129 
Q 3622 3509 3622 2328 
Q 3622 1225 3098 567 
Q 2575 -91 1691 -91 
Q 1453 -91 1209 -44 
Q 966 3 703 97 
z
M 1959 2075 
Q 2384 2075 2632 2365 
Q 2881 2656 2881 3163 
Q 2881 3666 2632 3958 
Q 2384 4250 1959 4250 
Q 1534 4250 1286 3958 
Q 1038 3666 1038 3163 
Q 1038 2656 1286 2365 
Q 1534 2075 1959 2075 
z
" transform="scale(0.015625)"/>
     </defs>
     <use xlink:href="#DejaVuSans-53" transform="translate(0 0.015625)"/>
     <use xlink:href="#DejaVuSans-72" transform="translate(63.476562 0.015625)"/>
     <use xlink:href="#DejaVuSans-35" transform="translate(105.546875 -16.390625) scale(0.7)"/>
     <use xlink:href="#DejaVuSans-41" transform="translate(152.817383 0.015625)"/>
     <use xlink:href="#DejaVuSans-6c" transform="translate(221.225586 0.015625)"/>
     <use xlink:href="#DejaVuSans-39" transform="translate(249.96582 -16.390625) scale(0.7)"/>
    </g>
   </g>
   <g id="text_2">
    <!-- $\mathrm{Sr}$ -->
    <g transform="translate(20.006142 212.151181) scale(0.1 -0.1)">
     <use xlink:href="#DejaVuSans-53" transform="translate(0 0.78125)"/>
     <use xlink:href="#DejaVuSans-72" transform="translate(63.476562 0.78125)"/>
    </g>
   </g>
   <g id="text_3">
    <!-- $\mathrm{SrAl_{4}}$ -->
    <g transform="translate(203.644309 210.544971) scale(0.1 -0.1)">
     <defs>
      <path id="DejaVuSans-34" d="M 2419 4116 
L 825 1625 
L 2419 1625 
L 2419 4116 
z
M 2253 4666 
L 3047 4666 
L 3047 1625 
L 3713 1625 
L 3713 1100 
L 3047 1100 
L 3047 0 
L 2419 0 
L 2419 1100 
L 313 1100 
L 313 1709 
L 2253 4666 
z
" transform="scale(0.015625)"/>
     </defs>
     <use xlink:href="#DejaVuSans-53" transform="translate(0 0.015625)"/>
     <use xlink:href="#DejaVuSans-72" transform="translate(63.476562 0.015625)"/>
     <use xlink:href="#DejaVuSans-41" transform="translate(104.589844 0.015625)"/>
     <use xlink:href="#DejaVuSans-6c" transform="translate(172.998047 0.015625)"/>
     <use xlink:href="#DejaVuSans-34" transform="translate(201.738281 -16.390625) scale(0.7)"/>
    </g>
   </g>
   <g id="text_4">
    <!-- $\mathrm{Al}$ -->
    <g transform="translate(249.389691 211.215873) scale(0.1 -0.1)">
     <use xlink:href="#DejaVuSans-41" transform="translate(0 0.015625)"/>
     <use xlink:href="#DejaVuSans-6c" transform="translate(68.408203 0.015625)"/>
    </g>
   </g>
   <g id="text_5">
    <!-- $\mathrm{Al_{2}Cu}$ -->
    <g transform="translate(211.541947 147.420198) scale(0.1 -0.1)">
     <defs>
      <path id="DejaVuSans-32" d="M 1228 531 
L 3431 531 
L 3431 0 
L 469 0 
L 469 531 
Q 828 903 1448 1529 
Q 2069 2156 2228 2338 
Q 2531 2678 2651 2914 
Q 2772 3150 2772 3378 
Q 2772 3750 2511 3984 
Q 2250 4219 1831 4219 
Q 1534 4219 1204 4116 
Q 875 4013 500 3803 
L 500 4441 
Q 881 4594 1212 4672 
Q 1544 4750 1819 4750 
Q 2544 4750 2975 4387 
Q 3406 4025 3406 3419 
Q 3406 3131 3298 2873 
Q 3191 2616 2906 2266 
Q 2828 2175 2409 1742 
Q 1991 1309 1228 531 
z
" transform="scale(0.015625)"/>
      <path id="DejaVuSans-43" d="M 4122 4306 
L 4122 3641 
Q 3803 3938 3442 4084 
Q 3081 4231 2675 4231 
Q 1875 4231 1450 3742 
Q 1025 3253 1025 2328 
Q 1025 1406 1450 917 
Q 1875 428 2675 428 
Q 3081 428 3442 575 
Q 3803 722 4122 1019 
L 4122 359 
Q 3791 134 3420 21 
Q 3050 -91 2638 -91 
Q 1578 -91 968 557 
Q 359 1206 359 2328 
Q 359 3453 968 4101 
Q 1578 4750 2638 4750 
Q 3056 4750 3426 4639 
Q 3797 4528 4122 4306 
z
" transform="scale(0.015625)"/>
      <path id="DejaVuSans-75" d="M 544 1381 
L 544 3500 
L 1119 3500 
L 1119 1403 
Q 1119 906 1312 657 
Q 1506 409 1894 409 
Q 2359 409 2629 706 
Q 2900 1003 2900 1516 
L 2900 3500 
L 3475 3500 
L 3475 0 
L 2900 0 
L 2900 538 
Q 2691 219 2414 64 
Q 2138 -91 1772 -91 
Q 1169 -91 856 284 
Q 544 659 544 1381 
z
M 1991 3584 
L 1991 3584 
z
" transform="scale(0.015625)"/>
     </defs>
     <use xlink:href="#DejaVuSans-41" transform="translate(0 0.015625)"/>
     <use xlink:href="#DejaVuSans-6c" transform="translate(68.408203 0.015625)"/>
     <use xlink:href="#DejaVuSans-32" transform="translate(97.148438 -16.390625) scale(0.7)"/>
     <use xlink:href="#DejaVuSans-43" transform="translate(144.418945 0.015625)"/>
     <use xlink:href="#DejaVuSans-75" transform="translate(214.243164 0.015625)"/>
    </g>
   </g>
   <g id="text_6">
    <!-- $\mathrm{SrCu}$ -->
    <g transform="translate(59.996922 128.238638) scale(0.1 -0.1)">
     <use xlink:href="#DejaVuSans-53" transform="translate(0 0.78125)"/>
     <use xlink:href="#DejaVuSans-72" transform="translate(63.476562 0.78125)"/>
     <use xlink:href="#DejaVuSans-43" transform="translate(104.589844 0.78125)"/>
     <use xlink:href="#DejaVuSans-75" transform="translate(174.414062 0.78125)"/>
    </g>
   </g>
   <g id="text_7">
    <!-- $\mathrm{SrCu_{5}}$ -->
    <g transform="translate(95.52602 65.931057) scale(0.1 -0.1)">
     <use xlink:href="#DejaVuSans-53" transform="translate(0 0.78125)"/>
     <use xlink:href="#DejaVuSans-72" transform="translate(63.476562 0.78125)"/>
     <use xlink:href="#DejaVuSans-43" transform="translate(104.589844 0.78125)"/>
     <use xlink:href="#DejaVuSans-75" transform="translate(174.414062 0.78125)"/>
     <use xlink:href="#DejaVuSans-35" transform="translate(238.75 -15.625) scale(0.7)"/>
    </g>
   </g>
   <g id="text_8">
    <!-- $\mathrm{AlCu_{3}}$ -->
    <g transform="translate(161.613529 68.638869) scale(0.1 -0.1)">
     <defs>
      <path id="DejaVuSans-33" d="M 2597 2516 
Q 3050 2419 3304 2112 
Q 3559 1806 3559 1356 
Q 3559 666 3084 287 
Q 2609 -91 1734 -91 
Q 1441 -91 1130 -33 
Q 819 25 488 141 
L 488 750 
Q 750 597 1062 519 
Q 1375 441 1716 441 
Q 2309 441 2620 675 
Q 2931 909 2931 1356 
Q 2931 1769 2642 2001 
Q 2353 2234 1838 2234 
L 1294 2234 
L 1294 2753 
L 1863 2753 
Q 2328 2753 2575 2939 
Q 2822 3125 2822 3475 
Q 2822 3834 2567 4026 
Q 2313 4219 1838 4219 
Q 1578 4219 1281 4162 
Q 984 4106 628 3988 
L 628 4550 
Q 988 4650 1302 4700 
Q 1616 4750 1894 4750 
Q 2613 4750 3031 4423 
Q 3450 4097 3450 3541 
Q 3450 3153 3228 2886 
Q 3006 2619 2597 2516 
z
" transform="scale(0.015625)"/>
     </defs>
     <use xlink:href="#DejaVuSans-41" transform="translate(0 0.015625)"/>
     <use xlink:href="#DejaVuSans-6c" transform="translate(68.408203 0.015625)"/>
     <use xlink:href="#DejaVuSans-43" transform="translate(96.191406 0.015625)"/>
     <use xlink:href="#DejaVuSans-75" transform="translate(166.015625 0.015625)"/>
     <use xlink:href="#DejaVuSans-33" transform="translate(230.351562 -16.390625) scale(0.7)"/>
    </g>
   </g>
   <g id="text_9">
    <!-- $\mathrm{Al_{4}Cu_{9}}$ -->
    <g transform="translate(175.944876 87.026639) scale(0.1 -0.1)">
     <use xlink:href="#DejaVuSans-41" transform="translate(0 0.015625)"/>
     <use xlink:href="#DejaVuSans-6c" transform="translate(68.408203 0.015625)"/>
     <use xlink:href="#DejaVuSans-34" transform="translate(97.148438 -16.390625) scale(0.7)"/>
     <use xlink:href="#DejaVuSans-43" transform="translate(144.418945 0.015625)"/>
     <use xlink:href="#DejaVuSans-75" transform="translate(214.243164 0.015625)"/>
     <use xlink:href="#DejaVuSans-39" transform="translate(278.579102 -16.390625) scale(0.7)"/>
    </g>
   </g>
   <g id="text_10">
    <!-- $\mathrm{Cu}$ -->
    <g transform="translate(129.692842 33.725944) scale(0.1 -0.1)">
     <use xlink:href="#DejaVuSans-43" transform="translate(0 0.78125)"/>
     <use xlink:href="#DejaVuSans-75" transform="translate(69.824219 0.78125)"/>
    </g>
   </g>
   <g id="text_11">
    <!-- $\mathrm{AlCu}$ -->
    <g transform="translate(180.225125 128.238638) scale(0.1 -0.1)">
     <use xlink:href="#DejaVuSans-41" transform="translate(0 0.015625)"/>
     <use xlink:href="#DejaVuSans-6c" transform="translate(68.408203 0.015625)"/>
     <use xlink:href="#DejaVuSans-43" transform="translate(96.191406 0.015625)"/>
     <use xlink:href="#DejaVuSans-75" transform="translate(166.015625 0.015625)"/>
    </g>
   </g>
   <g id="text_12">
    <!-- $\mathrm{Sr(Al_{2}Cu)_{4}}$ -->
    <g style="fill: #ff0000" transform="translate(159.75663 165.290556) scale(0.1 -0.1)">
     <defs>
      <path id="DejaVuSans-28" d="M 1984 4856 
Q 1566 4138 1362 3434 
Q 1159 2731 1159 2009 
Q 1159 1288 1364 580 
Q 1569 -128 1984 -844 
L 1484 -844 
Q 1016 -109 783 600 
Q 550 1309 550 2009 
Q 550 2706 781 3412 
Q 1013 4119 1484 4856 
L 1984 4856 
z
" transform="scale(0.015625)"/>
      <path id="DejaVuSans-29" d="M 513 4856 
L 1013 4856 
Q 1481 4119 1714 3412 
Q 1947 2706 1947 2009 
Q 1947 1309 1714 600 
Q 1481 -109 1013 -844 
L 513 -844 
Q 928 -128 1133 580 
Q 1338 1288 1338 2009 
Q 1338 2731 1133 3434 
Q 928 4138 513 4856 
z
" transform="scale(0.015625)"/>
     </defs>
     <use xlink:href="#DejaVuSans-53" transform="translate(0 0.015625)"/>
     <use xlink:href="#DejaVuSans-72" transform="translate(63.476562 0.015625)"/>
     <use xlink:href="#DejaVuSans-28" transform="translate(104.589844 0.015625)"/>
     <use xlink:href="#DejaVuSans-41" transform="translate(143.603516 0.015625)"/>
     <use xlink:href="#DejaVuSans-6c" transform="translate(212.011719 0.015625)"/>
     <use xlink:href="#DejaVuSans-32" transform="translate(240.751953 -16.390625) scale(0.7)"/>
     <use xlink:href="#DejaVuSans-43" transform="translate(288.022461 0.015625)"/>
     <use xlink:href="#DejaVuSans-75" transform="translate(357.84668 0.015625)"/>
     <use xlink:href="#DejaVuSans-29" transform="translate(421.225586 0.015625)"/>
     <use xlink:href="#DejaVuSans-34" transform="translate(461.196289 -16.390625) scale(0.7)"/>
    </g>
   </g>
  </g>
  <g id="axes_2">
   <g id="patch_3">
    <path d="M 287.298425 195.703937 
L 296.029134 195.703937 
L 296.029134 36.96378 
L 287.298425 36.96378 
L 287.298425 195.703937 
z
" style="fill: none"/>
   </g>
   <g id="patch_4">
    <path d="M 287.298425 195.703937 
L 291.66378 203.640945 
L 296.029134 195.703937 
" style="fill: #440154; opacity: 0.7"/>
   </g>
   <g id="patch_5">
    <path d="M 287.298425 36.96378 
L 291.66378 29.026772 
L 296.029134 36.96378 
" style="fill: #fde725; opacity: 0.7"/>
   </g>
   <g id="QuadMesh_1">
    <path d="M 287.298425 195.703937 
L 296.029134 195.703937 
L 296.029134 192.012305 
L 287.298425 192.012305 
L 287.298425 195.703937 
" clip-path="url(#p754de809f0)" style="fill: #450457; fill-opacity: 0.7"/>
    <path d="M 287.298425 192.012305 
L 296.029134 192.012305 
L 296.029134 188.320674 
L 287.298425 188.320674 
L 287.298425 192.012305 
" clip-path="url(#p754de809f0)" style="fill: #470d60; fill-opacity: 0.7"/>
    <path d="M 287.298425 188.320674 
L 296.029134 188.320674 
L 296.029134 184.629042 
L 287.298425 184.629042 
L 287.298425 188.320674 
" clip-path="url(#p754de809f0)" style="fill: #481668; fill-opacity: 0.7"/>
    <path d="M 287.298425 184.629042 
L 296.029134 184.629042 
L 296.029134 180.937411 
L 287.298425 180.937411 
L 287.298425 184.629042 
" clip-path="url(#p754de809f0)" style="fill: #481d6f; fill-opacity: 0.7"/>
    <path d="M 287.298425 180.937411 
L 296.029134 180.937411 
L 296.029134 177.245779 
L 287.298425 177.245779 
L 287.298425 180.937411 
" clip-path="url(#p754de809f0)" style="fill: #482576; fill-opacity: 0.7"/>
    <path d="M 287.298425 177.245779 
L 296.029134 177.245779 
L 296.029134 173.554148 
L 287.298425 173.554148 
L 287.298425 177.245779 
" clip-path="url(#p754de809f0)" style="fill: #472d7b; fill-opacity: 0.7"/>
    <path d="M 287.298425 173.554148 
L 296.029134 173.554148 
L 296.029134 169.862516 
L 287.298425 169.862516 
L 287.298425 173.554148 
" clip-path="url(#p754de809f0)" style="fill: #463480; fill-opacity: 0.7"/>
    <path d="M 287.298425 169.862516 
L 296.029134 169.862516 
L 296.029134 166.170884 
L 287.298425 166.170884 
L 287.298425 169.862516 
" clip-path="url(#p754de809f0)" style="fill: #443b84; fill-opacity: 0.7"/>
    <path d="M 287.298425 166.170884 
L 296.029134 166.170884 
L 296.029134 162.479253 
L 287.298425 162.479253 
L 287.298425 166.170884 
" clip-path="url(#p754de809f0)" style="fill: #414287; fill-opacity: 0.7"/>
    <path d="M 287.298425 162.479253 
L 296.029134 162.479253 
L 296.029134 158.787621 
L 287.298425 158.787621 
L 287.298425 162.479253 
" clip-path="url(#p754de809f0)" style="fill: #3e4989; fill-opacity: 0.7"/>
    <path d="M 287.298425 158.787621 
L 296.029134 158.787621 
L 296.029134 155.09599 
L 287.298425 155.09599 
L 287.298425 158.787621 
" clip-path="url(#p754de809f0)" style="fill: #3c508b; fill-opacity: 0.7"/>
    <path d="M 287.298425 155.09599 
L 296.029134 155.09599 
L 296.029134 151.404358 
L 287.298425 151.404358 
L 287.298425 155.09599 
" clip-path="url(#p754de809f0)" style="fill: #39568c; fill-opacity: 0.7"/>
    <path d="M 287.298425 151.404358 
L 296.029134 151.404358 
L 296.029134 147.712727 
L 287.298425 147.712727 
L 287.298425 151.404358 
" clip-path="url(#p754de809f0)" style="fill: #365d8d; fill-opacity: 0.7"/>
    <path d="M 287.298425 147.712727 
L 296.029134 147.712727 
L 296.029134 144.021095 
L 287.298425 144.021095 
L 287.298425 147.712727 
" clip-path="url(#p754de809f0)" style="fill: #33638d; fill-opacity: 0.7"/>
    <path d="M 287.298425 144.021095 
L 296.029134 144.021095 
L 296.029134 140.329463 
L 287.298425 140.329463 
L 287.298425 144.021095 
" clip-path="url(#p754de809f0)" style="fill: #30698e; fill-opacity: 0.7"/>
    <path d="M 287.298425 140.329463 
L 296.029134 140.329463 
L 296.029134 136.637832 
L 287.298425 136.637832 
L 287.298425 140.329463 
" clip-path="url(#p754de809f0)" style="fill: #2e6f8e; fill-opacity: 0.7"/>
    <path d="M 287.298425 136.637832 
L 296.029134 136.637832 
L 296.029134 132.9462 
L 287.298425 132.9462 
L 287.298425 136.637832 
" clip-path="url(#p754de809f0)" style="fill: #2b748e; fill-opacity: 0.7"/>
    <path d="M 287.298425 132.9462 
L 296.029134 132.9462 
L 296.029134 129.254569 
L 287.298425 129.254569 
L 287.298425 132.9462 
" clip-path="url(#p754de809f0)" style="fill: #297a8e; fill-opacity: 0.7"/>
    <path d="M 287.298425 129.254569 
L 296.029134 129.254569 
L 296.029134 125.562937 
L 287.298425 125.562937 
L 287.298425 129.254569 
" clip-path="url(#p754de809f0)" style="fill: #27808e; fill-opacity: 0.7"/>
    <path d="M 287.298425 125.562937 
L 296.029134 125.562937 
L 296.029134 121.871306 
L 287.298425 121.871306 
L 287.298425 125.562937 
" clip-path="url(#p754de809f0)" style="fill: #25858e; fill-opacity: 0.7"/>
    <path d="M 287.298425 121.871306 
L 296.029134 121.871306 
L 296.029134 118.179674 
L 287.298425 118.179674 
L 287.298425 121.871306 
" clip-path="url(#p754de809f0)" style="fill: #228b8d; fill-opacity: 0.7"/>
    <path d="M 287.298425 118.179674 
L 296.029134 118.179674 
L 296.029134 114.488042 
L 287.298425 114.488042 
L 287.298425 118.179674 
" clip-path="url(#p754de809f0)" style="fill: #21918c; fill-opacity: 0.7"/>
    <path d="M 287.298425 114.488042 
L 296.029134 114.488042 
L 296.029134 110.796411 
L 287.298425 110.796411 
L 287.298425 114.488042 
" clip-path="url(#p754de809f0)" style="fill: #1f958b; fill-opacity: 0.7"/>
    <path d="M 287.298425 110.796411 
L 296.029134 110.796411 
L 296.029134 107.104779 
L 287.298425 107.104779 
L 287.298425 110.796411 
" clip-path="url(#p754de809f0)" style="fill: #1e9b8a; fill-opacity: 0.7"/>
    <path d="M 287.298425 107.104779 
L 296.029134 107.104779 
L 296.029134 103.413148 
L 287.298425 103.413148 
L 287.298425 107.104779 
" clip-path="url(#p754de809f0)" style="fill: #1fa188; fill-opacity: 0.7"/>
    <path d="M 287.298425 103.413148 
L 296.029134 103.413148 
L 296.029134 99.721516 
L 287.298425 99.721516 
L 287.298425 103.413148 
" clip-path="url(#p754de809f0)" style="fill: #21a685; fill-opacity: 0.7"/>
    <path d="M 287.298425 99.721516 
L 296.029134 99.721516 
L 296.029134 96.029885 
L 287.298425 96.029885 
L 287.298425 99.721516 
" clip-path="url(#p754de809f0)" style="fill: #25ac82; fill-opacity: 0.7"/>
    <path d="M 287.298425 96.029885 
L 296.029134 96.029885 
L 296.029134 92.338253 
L 287.298425 92.338253 
L 287.298425 96.029885 
" clip-path="url(#p754de809f0)" style="fill: #2cb17e; fill-opacity: 0.7"/>
    <path d="M 287.298425 92.338253 
L 296.029134 92.338253 
L 296.029134 88.646621 
L 287.298425 88.646621 
L 287.298425 92.338253 
" clip-path="url(#p754de809f0)" style="fill: #34b679; fill-opacity: 0.7"/>
    <path d="M 287.298425 88.646621 
L 296.029134 88.646621 
L 296.029134 84.95499 
L 287.298425 84.95499 
L 287.298425 88.646621 
" clip-path="url(#p754de809f0)" style="fill: #3dbc74; fill-opacity: 0.7"/>
    <path d="M 287.298425 84.95499 
L 296.029134 84.95499 
L 296.029134 81.263358 
L 287.298425 81.263358 
L 287.298425 84.95499 
" clip-path="url(#p754de809f0)" style="fill: #48c16e; fill-opacity: 0.7"/>
    <path d="M 287.298425 81.263358 
L 296.029134 81.263358 
L 296.029134 77.571727 
L 287.298425 77.571727 
L 287.298425 81.263358 
" clip-path="url(#p754de809f0)" style="fill: #54c568; fill-opacity: 0.7"/>
    <path d="M 287.298425 77.571727 
L 296.029134 77.571727 
L 296.029134 73.880095 
L 287.298425 73.880095 
L 287.298425 77.571727 
" clip-path="url(#p754de809f0)" style="fill: #60ca60; fill-opacity: 0.7"/>
    <path d="M 287.298425 73.880095 
L 296.029134 73.880095 
L 296.029134 70.188464 
L 287.298425 70.188464 
L 287.298425 73.880095 
" clip-path="url(#p754de809f0)" style="fill: #6ece58; fill-opacity: 0.7"/>
    <path d="M 287.298425 70.188464 
L 296.029134 70.188464 
L 296.029134 66.496832 
L 287.298425 66.496832 
L 287.298425 70.188464 
" clip-path="url(#p754de809f0)" style="fill: #7cd250; fill-opacity: 0.7"/>
    <path d="M 287.298425 66.496832 
L 296.029134 66.496832 
L 296.029134 62.805201 
L 287.298425 62.805201 
L 287.298425 66.496832 
" clip-path="url(#p754de809f0)" style="fill: #8bd646; fill-opacity: 0.7"/>
    <path d="M 287.298425 62.805201 
L 296.029134 62.805201 
L 296.029134 59.113569 
L 287.298425 59.113569 
L 287.298425 62.805201 
" clip-path="url(#p754de809f0)" style="fill: #9bd93c; fill-opacity: 0.7"/>
    <path d="M 287.298425 59.113569 
L 296.029134 59.113569 
L 296.029134 55.421937 
L 287.298425 55.421937 
L 287.298425 59.113569 
" clip-path="url(#p754de809f0)" style="fill: #aadc32; fill-opacity: 0.7"/>
    <path d="M 287.298425 55.421937 
L 296.029134 55.421937 
L 296.029134 51.730306 
L 287.298425 51.730306 
L 287.298425 55.421937 
" clip-path="url(#p754de809f0)" style="fill: #bade28; fill-opacity: 0.7"/>
    <path d="M 287.298425 51.730306 
L 296.029134 51.730306 
L 296.029134 48.038674 
L 287.298425 48.038674 
L 287.298425 51.730306 
" clip-path="url(#p754de809f0)" style="fill: #cae11f; fill-opacity: 0.7"/>
    <path d="M 287.298425 48.038674 
L 296.029134 48.038674 
L 296.029134 44.347043 
L 287.298425 44.347043 
L 287.298425 48.038674 
" clip-path="url(#p754de809f0)" style="fill: #dae319; fill-opacity: 0.7"/>
    <path d="M 287.298425 44.347043 
L 296.029134 44.347043 
L 296.029134 40.655411 
L 287.298425 40.655411 
L 287.298425 44.347043 
" clip-path="url(#p754de809f0)" style="fill: #eae51a; fill-opacity: 0.7"/>
    <path d="M 287.298425 40.655411 
L 296.029134 40.655411 
L 296.029134 36.96378 
L 287.298425 36.96378 
L 287.298425 40.655411 
" clip-path="url(#p754de809f0)" style="fill: #f8e621; fill-opacity: 0.7"/>
   </g>
   <g id="matplotlib.axis_3"/>
   <g id="matplotlib.axis_4">
    <g id="ytick_1">
     <g id="line2d_23">
      <defs>
       <path id="m5dd6dff941" d="M 0 0 
L -2 0 
" style="stroke: #000000; stroke-width: 0.3"/>
      </defs>
      <g>
       <use xlink:href="#m5dd6dff941" x="296.029134" y="184.629042" style="stroke: #000000; stroke-width: 0.3"/>
      </g>
     </g>
     <g id="text_13">
      <!-- 0.246 -->
      <g transform="translate(299.529134 187.492167) scale(0.08 -0.08)">
       <defs>
        <path id="ArialMT-2212" d="M 3381 1997 
L 356 1997 
L 356 2522 
L 3381 2522 
L 3381 1997 
z
" transform="scale(0.015625)"/>
        <path id="ArialMT-30" d="M 266 2259 
Q 266 3072 433 3567 
Q 600 4063 929 4331 
Q 1259 4600 1759 4600 
Q 2128 4600 2406 4451 
Q 2684 4303 2865 4023 
Q 3047 3744 3150 3342 
Q 3253 2941 3253 2259 
Q 3253 1453 3087 958 
Q 2922 463 2592 192 
Q 2263 -78 1759 -78 
Q 1097 -78 719 397 
Q 266 969 266 2259 
z
M 844 2259 
Q 844 1131 1108 757 
Q 1372 384 1759 384 
Q 2147 384 2411 759 
Q 2675 1134 2675 2259 
Q 2675 3391 2411 3762 
Q 2147 4134 1753 4134 
Q 1366 4134 1134 3806 
Q 844 3388 844 2259 
z
" transform="scale(0.015625)"/>
        <path id="ArialMT-2e" d="M 581 0 
L 581 641 
L 1222 641 
L 1222 0 
L 581 0 
z
" transform="scale(0.015625)"/>
        <path id="ArialMT-32" d="M 3222 541 
L 3222 0 
L 194 0 
Q 188 203 259 391 
Q 375 700 629 1000 
Q 884 1300 1366 1694 
Q 2113 2306 2375 2664 
Q 2638 3022 2638 3341 
Q 2638 3675 2398 3904 
Q 2159 4134 1775 4134 
Q 1369 4134 1125 3890 
Q 881 3647 878 3216 
L 300 3275 
Q 359 3922 746 4261 
Q 1134 4600 1788 4600 
Q 2447 4600 2831 4234 
Q 3216 3869 3216 3328 
Q 3216 3053 3103 2787 
Q 2991 2522 2730 2228 
Q 2469 1934 1863 1422 
Q 1356 997 1212 845 
Q 1069 694 975 541 
L 3222 541 
z
" transform="scale(0.015625)"/>
        <path id="ArialMT-34" d="M 2069 0 
L 2069 1097 
L 81 1097 
L 81 1613 
L 2172 4581 
L 2631 4581 
L 2631 1613 
L 3250 1613 
L 3250 1097 
L 2631 1097 
L 2631 0 
L 2069 0 
z
M 2069 1613 
L 2069 3678 
L 634 1613 
L 2069 1613 
z
" transform="scale(0.015625)"/>
        <path id="ArialMT-36" d="M 3184 3459 
L 2625 3416 
Q 2550 3747 2413 3897 
Q 2184 4138 1850 4138 
Q 1581 4138 1378 3988 
Q 1113 3794 959 3422 
Q 806 3050 800 2363 
Q 1003 2672 1297 2822 
Q 1591 2972 1913 2972 
Q 2475 2972 2870 2558 
Q 3266 2144 3266 1488 
Q 3266 1056 3080 686 
Q 2894 316 2569 119 
Q 2244 -78 1831 -78 
Q 1128 -78 684 439 
Q 241 956 241 2144 
Q 241 3472 731 4075 
Q 1159 4600 1884 4600 
Q 2425 4600 2770 4297 
Q 3116 3994 3184 3459 
z
M 888 1484 
Q 888 1194 1011 928 
Q 1134 663 1356 523 
Q 1578 384 1822 384 
Q 2178 384 2434 671 
Q 2691 959 2691 1453 
Q 2691 1928 2437 2201 
Q 2184 2475 1800 2475 
Q 1419 2475 1153 2201 
Q 888 1928 888 1484 
z
" transform="scale(0.015625)"/>
       </defs>
       <use xlink:href="#ArialMT-2212"/>
       <use xlink:href="#ArialMT-30" transform="translate(58.398438 0)"/>
       <use xlink:href="#ArialMT-2e" transform="translate(114.013672 0)"/>
       <use xlink:href="#ArialMT-32" transform="translate(141.796875 0)"/>
       <use xlink:href="#ArialMT-34" transform="translate(197.412109 0)"/>
       <use xlink:href="#ArialMT-36" transform="translate(253.027344 0)"/>
      </g>
     </g>
    </g>
    <g id="ytick_2">
     <g id="line2d_24">
      <g>
       <use xlink:href="#m5dd6dff941" x="296.029134" y="166.170884" style="stroke: #000000; stroke-width: 0.3"/>
      </g>
     </g>
     <g id="text_14">
      <!-- 0.216 -->
      <g transform="translate(299.529134 169.034009) scale(0.08 -0.08)">
       <defs>
        <path id="ArialMT-31" d="M 2384 0 
L 1822 0 
L 1822 3584 
Q 1619 3391 1289 3197 
Q 959 3003 697 2906 
L 697 3450 
Q 1169 3672 1522 3987 
Q 1875 4303 2022 4600 
L 2384 4600 
L 2384 0 
z
" transform="scale(0.015625)"/>
       </defs>
       <use xlink:href="#ArialMT-2212"/>
       <use xlink:href="#ArialMT-30" transform="translate(58.398438 0)"/>
       <use xlink:href="#ArialMT-2e" transform="translate(114.013672 0)"/>
       <use xlink:href="#ArialMT-32" transform="translate(141.796875 0)"/>
       <use xlink:href="#ArialMT-31" transform="translate(197.412109 0)"/>
       <use xlink:href="#ArialMT-36" transform="translate(253.027344 0)"/>
      </g>
     </g>
    </g>
    <g id="ytick_3">
     <g id="line2d_25">
      <g>
       <use xlink:href="#m5dd6dff941" x="296.029134" y="147.712727" style="stroke: #000000; stroke-width: 0.3"/>
      </g>
     </g>
     <g id="text_15">
      <!-- 0.186 -->
      <g transform="translate(299.529134 150.575852) scale(0.08 -0.08)">
       <defs>
        <path id="ArialMT-38" d="M 1131 2484 
Q 781 2613 612 2850 
Q 444 3088 444 3419 
Q 444 3919 803 4259 
Q 1163 4600 1759 4600 
Q 2359 4600 2725 4251 
Q 3091 3903 3091 3403 
Q 3091 3084 2923 2848 
Q 2756 2613 2416 2484 
Q 2838 2347 3058 2040 
Q 3278 1734 3278 1309 
Q 3278 722 2862 322 
Q 2447 -78 1769 -78 
Q 1091 -78 675 323 
Q 259 725 259 1325 
Q 259 1772 486 2073 
Q 713 2375 1131 2484 
z
M 1019 3438 
Q 1019 3113 1228 2906 
Q 1438 2700 1772 2700 
Q 2097 2700 2305 2904 
Q 2513 3109 2513 3406 
Q 2513 3716 2298 3927 
Q 2084 4138 1766 4138 
Q 1444 4138 1231 3931 
Q 1019 3725 1019 3438 
z
M 838 1322 
Q 838 1081 952 856 
Q 1066 631 1291 507 
Q 1516 384 1775 384 
Q 2178 384 2440 643 
Q 2703 903 2703 1303 
Q 2703 1709 2433 1975 
Q 2163 2241 1756 2241 
Q 1359 2241 1098 1978 
Q 838 1716 838 1322 
z
" transform="scale(0.015625)"/>
       </defs>
       <use xlink:href="#ArialMT-2212"/>
       <use xlink:href="#ArialMT-30" transform="translate(58.398438 0)"/>
       <use xlink:href="#ArialMT-2e" transform="translate(114.013672 0)"/>
       <use xlink:href="#ArialMT-31" transform="translate(141.796875 0)"/>
       <use xlink:href="#ArialMT-38" transform="translate(197.412109 0)"/>
       <use xlink:href="#ArialMT-36" transform="translate(253.027344 0)"/>
      </g>
     </g>
    </g>
    <g id="ytick_4">
     <g id="line2d_26">
      <g>
       <use xlink:href="#m5dd6dff941" x="296.029134" y="129.254569" style="stroke: #000000; stroke-width: 0.3"/>
      </g>
     </g>
     <g id="text_16">
      <!-- 0.156 -->
      <g transform="translate(299.529134 132.117694) scale(0.08 -0.08)">
       <defs>
        <path id="ArialMT-35" d="M 266 1200 
L 856 1250 
Q 922 819 1161 601 
Q 1400 384 1738 384 
Q 2144 384 2425 690 
Q 2706 997 2706 1503 
Q 2706 1984 2436 2262 
Q 2166 2541 1728 2541 
Q 1456 2541 1237 2417 
Q 1019 2294 894 2097 
L 366 2166 
L 809 4519 
L 3088 4519 
L 3088 3981 
L 1259 3981 
L 1013 2750 
Q 1425 3038 1878 3038 
Q 2478 3038 2890 2622 
Q 3303 2206 3303 1553 
Q 3303 931 2941 478 
Q 2500 -78 1738 -78 
Q 1113 -78 717 272 
Q 322 622 266 1200 
z
" transform="scale(0.015625)"/>
       </defs>
       <use xlink:href="#ArialMT-2212"/>
       <use xlink:href="#ArialMT-30" transform="translate(58.398438 0)"/>
       <use xlink:href="#ArialMT-2e" transform="translate(114.013672 0)"/>
       <use xlink:href="#ArialMT-31" transform="translate(141.796875 0)"/>
       <use xlink:href="#ArialMT-35" transform="translate(197.412109 0)"/>
       <use xlink:href="#ArialMT-36" transform="translate(253.027344 0)"/>
      </g>
     </g>
    </g>
    <g id="ytick_5">
     <g id="line2d_27">
      <g>
       <use xlink:href="#m5dd6dff941" x="296.029134" y="110.796411" style="stroke: #000000; stroke-width: 0.3"/>
      </g>
     </g>
     <g id="text_17">
      <!-- 0.126 -->
      <g transform="translate(299.529134 113.659536) scale(0.08 -0.08)">
       <use xlink:href="#ArialMT-2212"/>
       <use xlink:href="#ArialMT-30" transform="translate(58.398438 0)"/>
       <use xlink:href="#ArialMT-2e" transform="translate(114.013672 0)"/>
       <use xlink:href="#ArialMT-31" transform="translate(141.796875 0)"/>
       <use xlink:href="#ArialMT-32" transform="translate(197.412109 0)"/>
       <use xlink:href="#ArialMT-36" transform="translate(253.027344 0)"/>
      </g>
     </g>
    </g>
    <g id="ytick_6">
     <g id="line2d_28">
      <g>
       <use xlink:href="#m5dd6dff941" x="296.029134" y="92.338253" style="stroke: #000000; stroke-width: 0.3"/>
      </g>
     </g>
     <g id="text_18">
      <!-- 0.096 -->
      <g transform="translate(299.529134 95.201378) scale(0.08 -0.08)">
       <defs>
        <path id="ArialMT-39" d="M 350 1059 
L 891 1109 
Q 959 728 1153 556 
Q 1347 384 1650 384 
Q 1909 384 2104 503 
Q 2300 622 2425 820 
Q 2550 1019 2634 1356 
Q 2719 1694 2719 2044 
Q 2719 2081 2716 2156 
Q 2547 1888 2255 1720 
Q 1963 1553 1622 1553 
Q 1053 1553 659 1965 
Q 266 2378 266 3053 
Q 266 3750 677 4175 
Q 1088 4600 1706 4600 
Q 2153 4600 2523 4359 
Q 2894 4119 3086 3673 
Q 3278 3228 3278 2384 
Q 3278 1506 3087 986 
Q 2897 466 2520 194 
Q 2144 -78 1638 -78 
Q 1100 -78 759 220 
Q 419 519 350 1059 
z
M 2653 3081 
Q 2653 3566 2395 3850 
Q 2138 4134 1775 4134 
Q 1400 4134 1122 3828 
Q 844 3522 844 3034 
Q 844 2597 1108 2323 
Q 1372 2050 1759 2050 
Q 2150 2050 2401 2323 
Q 2653 2597 2653 3081 
z
" transform="scale(0.015625)"/>
       </defs>
       <use xlink:href="#ArialMT-2212"/>
       <use xlink:href="#ArialMT-30" transform="translate(58.398438 0)"/>
       <use xlink:href="#ArialMT-2e" transform="translate(114.013672 0)"/>
       <use xlink:href="#ArialMT-30" transform="translate(141.796875 0)"/>
       <use xlink:href="#ArialMT-39" transform="translate(197.412109 0)"/>
       <use xlink:href="#ArialMT-36" transform="translate(253.027344 0)"/>
      </g>
     </g>
    </g>
    <g id="ytick_7">
     <g id="line2d_29">
      <g>
       <use xlink:href="#m5dd6dff941" x="296.029134" y="73.880095" style="stroke: #000000; stroke-width: 0.3"/>
      </g>
     </g>
     <g id="text_19">
      <!-- 0.066 -->
      <g transform="translate(299.529134 76.74322) scale(0.08 -0.08)">
       <use xlink:href="#ArialMT-2212"/>
       <use xlink:href="#ArialMT-30" transform="translate(58.398438 0)"/>
       <use xlink:href="#ArialMT-2e" transform="translate(114.013672 0)"/>
       <use xlink:href="#ArialMT-30" transform="translate(141.796875 0)"/>
       <use xlink:href="#ArialMT-36" transform="translate(197.412109 0)"/>
       <use xlink:href="#ArialMT-36" transform="translate(253.027344 0)"/>
      </g>
     </g>
    </g>
    <g id="ytick_8">
     <g id="line2d_30">
      <g>
       <use xlink:href="#m5dd6dff941" x="296.029134" y="55.421937" style="stroke: #000000; stroke-width: 0.3"/>
      </g>
     </g>
     <g id="text_20">
      <!-- 0.036 -->
      <g transform="translate(299.529134 58.285062) scale(0.08 -0.08)">
       <defs>
        <path id="ArialMT-33" d="M 269 1209 
L 831 1284 
Q 928 806 1161 595 
Q 1394 384 1728 384 
Q 2125 384 2398 659 
Q 2672 934 2672 1341 
Q 2672 1728 2419 1979 
Q 2166 2231 1775 2231 
Q 1616 2231 1378 2169 
L 1441 2663 
Q 1497 2656 1531 2656 
Q 1891 2656 2178 2843 
Q 2466 3031 2466 3422 
Q 2466 3731 2256 3934 
Q 2047 4138 1716 4138 
Q 1388 4138 1169 3931 
Q 950 3725 888 3313 
L 325 3413 
Q 428 3978 793 4289 
Q 1159 4600 1703 4600 
Q 2078 4600 2393 4439 
Q 2709 4278 2876 4000 
Q 3044 3722 3044 3409 
Q 3044 3113 2884 2869 
Q 2725 2625 2413 2481 
Q 2819 2388 3044 2092 
Q 3269 1797 3269 1353 
Q 3269 753 2831 336 
Q 2394 -81 1725 -81 
Q 1122 -81 723 278 
Q 325 638 269 1209 
z
" transform="scale(0.015625)"/>
       </defs>
       <use xlink:href="#ArialMT-2212"/>
       <use xlink:href="#ArialMT-30" transform="translate(58.398438 0)"/>
       <use xlink:href="#ArialMT-2e" transform="translate(114.013672 0)"/>
       <use xlink:href="#ArialMT-30" transform="translate(141.796875 0)"/>
       <use xlink:href="#ArialMT-33" transform="translate(197.412109 0)"/>
       <use xlink:href="#ArialMT-36" transform="translate(253.027344 0)"/>
      </g>
     </g>
    </g>
    <g id="ytick_9">
     <g id="line2d_31">
      <g>
       <use xlink:href="#m5dd6dff941" x="296.029134" y="36.96378" style="stroke: #000000; stroke-width: 0.3"/>
      </g>
     </g>
     <g id="text_21">
      <!-- 0.006 -->
      <g transform="translate(299.529134 39.826905) scale(0.08 -0.08)">
       <use xlink:href="#ArialMT-2212"/>
       <use xlink:href="#ArialMT-30" transform="translate(58.398438 0)"/>
       <use xlink:href="#ArialMT-2e" transform="translate(114.013672 0)"/>
       <use xlink:href="#ArialMT-30" transform="translate(141.796875 0)"/>
       <use xlink:href="#ArialMT-30" transform="translate(197.412109 0)"/>
       <use xlink:href="#ArialMT-36" transform="translate(253.027344 0)"/>
      </g>
     </g>
    </g>
    <g id="text_22">
     <!-- Formation Energy (eV/atom) -->
     <g transform="translate(335.498821 179.408077) rotate(-90) scale(0.1 -0.1)">
      <defs>
       <path id="ArialMT-46" d="M 525 0 
L 525 4581 
L 3616 4581 
L 3616 4041 
L 1131 4041 
L 1131 2622 
L 3281 2622 
L 3281 2081 
L 1131 2081 
L 1131 0 
L 525 0 
z
" transform="scale(0.015625)"/>
       <path id="ArialMT-6f" d="M 213 1659 
Q 213 2581 725 3025 
Q 1153 3394 1769 3394 
Q 2453 3394 2887 2945 
Q 3322 2497 3322 1706 
Q 3322 1066 3130 698 
Q 2938 331 2570 128 
Q 2203 -75 1769 -75 
Q 1072 -75 642 372 
Q 213 819 213 1659 
z
M 791 1659 
Q 791 1022 1069 705 
Q 1347 388 1769 388 
Q 2188 388 2466 706 
Q 2744 1025 2744 1678 
Q 2744 2294 2464 2611 
Q 2184 2928 1769 2928 
Q 1347 2928 1069 2612 
Q 791 2297 791 1659 
z
" transform="scale(0.015625)"/>
       <path id="ArialMT-72" d="M 416 0 
L 416 3319 
L 922 3319 
L 922 2816 
Q 1116 3169 1280 3281 
Q 1444 3394 1641 3394 
Q 1925 3394 2219 3213 
L 2025 2691 
Q 1819 2813 1613 2813 
Q 1428 2813 1281 2702 
Q 1134 2591 1072 2394 
Q 978 2094 978 1738 
L 978 0 
L 416 0 
z
" transform="scale(0.015625)"/>
       <path id="ArialMT-6d" d="M 422 0 
L 422 3319 
L 925 3319 
L 925 2853 
Q 1081 3097 1340 3245 
Q 1600 3394 1931 3394 
Q 2300 3394 2536 3241 
Q 2772 3088 2869 2813 
Q 3263 3394 3894 3394 
Q 4388 3394 4653 3120 
Q 4919 2847 4919 2278 
L 4919 0 
L 4359 0 
L 4359 2091 
Q 4359 2428 4304 2576 
Q 4250 2725 4106 2815 
Q 3963 2906 3769 2906 
Q 3419 2906 3187 2673 
Q 2956 2441 2956 1928 
L 2956 0 
L 2394 0 
L 2394 2156 
Q 2394 2531 2256 2718 
Q 2119 2906 1806 2906 
Q 1569 2906 1367 2781 
Q 1166 2656 1075 2415 
Q 984 2175 984 1722 
L 984 0 
L 422 0 
z
" transform="scale(0.015625)"/>
       <path id="ArialMT-61" d="M 2588 409 
Q 2275 144 1986 34 
Q 1697 -75 1366 -75 
Q 819 -75 525 192 
Q 231 459 231 875 
Q 231 1119 342 1320 
Q 453 1522 633 1644 
Q 813 1766 1038 1828 
Q 1203 1872 1538 1913 
Q 2219 1994 2541 2106 
Q 2544 2222 2544 2253 
Q 2544 2597 2384 2738 
Q 2169 2928 1744 2928 
Q 1347 2928 1158 2789 
Q 969 2650 878 2297 
L 328 2372 
Q 403 2725 575 2942 
Q 747 3159 1072 3276 
Q 1397 3394 1825 3394 
Q 2250 3394 2515 3294 
Q 2781 3194 2906 3042 
Q 3031 2891 3081 2659 
Q 3109 2516 3109 2141 
L 3109 1391 
Q 3109 606 3145 398 
Q 3181 191 3288 0 
L 2700 0 
Q 2613 175 2588 409 
z
M 2541 1666 
Q 2234 1541 1622 1453 
Q 1275 1403 1131 1340 
Q 988 1278 909 1158 
Q 831 1038 831 891 
Q 831 666 1001 516 
Q 1172 366 1500 366 
Q 1825 366 2078 508 
Q 2331 650 2450 897 
Q 2541 1088 2541 1459 
L 2541 1666 
z
" transform="scale(0.015625)"/>
       <path id="ArialMT-74" d="M 1650 503 
L 1731 6 
Q 1494 -44 1306 -44 
Q 1000 -44 831 53 
Q 663 150 594 308 
Q 525 466 525 972 
L 525 2881 
L 113 2881 
L 113 3319 
L 525 3319 
L 525 4141 
L 1084 4478 
L 1084 3319 
L 1650 3319 
L 1650 2881 
L 1084 2881 
L 1084 941 
Q 1084 700 1114 631 
Q 1144 563 1211 522 
Q 1278 481 1403 481 
Q 1497 481 1650 503 
z
" transform="scale(0.015625)"/>
       <path id="ArialMT-69" d="M 425 3934 
L 425 4581 
L 988 4581 
L 988 3934 
L 425 3934 
z
M 425 0 
L 425 3319 
L 988 3319 
L 988 0 
L 425 0 
z
" transform="scale(0.015625)"/>
       <path id="ArialMT-6e" d="M 422 0 
L 422 3319 
L 928 3319 
L 928 2847 
Q 1294 3394 1984 3394 
Q 2284 3394 2536 3286 
Q 2788 3178 2913 3003 
Q 3038 2828 3088 2588 
Q 3119 2431 3119 2041 
L 3119 0 
L 2556 0 
L 2556 2019 
Q 2556 2363 2490 2533 
Q 2425 2703 2258 2804 
Q 2091 2906 1866 2906 
Q 1506 2906 1245 2678 
Q 984 2450 984 1813 
L 984 0 
L 422 0 
z
" transform="scale(0.015625)"/>
       <path id="ArialMT-20" transform="scale(0.015625)"/>
       <path id="ArialMT-45" d="M 506 0 
L 506 4581 
L 3819 4581 
L 3819 4041 
L 1113 4041 
L 1113 2638 
L 3647 2638 
L 3647 2100 
L 1113 2100 
L 1113 541 
L 3925 541 
L 3925 0 
L 506 0 
z
" transform="scale(0.015625)"/>
       <path id="ArialMT-65" d="M 2694 1069 
L 3275 997 
Q 3138 488 2766 206 
Q 2394 -75 1816 -75 
Q 1088 -75 661 373 
Q 234 822 234 1631 
Q 234 2469 665 2931 
Q 1097 3394 1784 3394 
Q 2450 3394 2872 2941 
Q 3294 2488 3294 1666 
Q 3294 1616 3291 1516 
L 816 1516 
Q 847 969 1125 678 
Q 1403 388 1819 388 
Q 2128 388 2347 550 
Q 2566 713 2694 1069 
z
M 847 1978 
L 2700 1978 
Q 2663 2397 2488 2606 
Q 2219 2931 1791 2931 
Q 1403 2931 1139 2672 
Q 875 2413 847 1978 
z
" transform="scale(0.015625)"/>
       <path id="ArialMT-67" d="M 319 -275 
L 866 -356 
Q 900 -609 1056 -725 
Q 1266 -881 1628 -881 
Q 2019 -881 2231 -725 
Q 2444 -569 2519 -288 
Q 2563 -116 2559 434 
Q 2191 0 1641 0 
Q 956 0 581 494 
Q 206 988 206 1678 
Q 206 2153 378 2554 
Q 550 2956 876 3175 
Q 1203 3394 1644 3394 
Q 2231 3394 2613 2919 
L 2613 3319 
L 3131 3319 
L 3131 450 
Q 3131 -325 2973 -648 
Q 2816 -972 2473 -1159 
Q 2131 -1347 1631 -1347 
Q 1038 -1347 672 -1080 
Q 306 -813 319 -275 
z
M 784 1719 
Q 784 1066 1043 766 
Q 1303 466 1694 466 
Q 2081 466 2343 764 
Q 2606 1063 2606 1700 
Q 2606 2309 2336 2618 
Q 2066 2928 1684 2928 
Q 1309 2928 1046 2623 
Q 784 2319 784 1719 
z
" transform="scale(0.015625)"/>
       <path id="ArialMT-79" d="M 397 -1278 
L 334 -750 
Q 519 -800 656 -800 
Q 844 -800 956 -737 
Q 1069 -675 1141 -563 
Q 1194 -478 1313 -144 
Q 1328 -97 1363 -6 
L 103 3319 
L 709 3319 
L 1400 1397 
Q 1534 1031 1641 628 
Q 1738 1016 1872 1384 
L 2581 3319 
L 3144 3319 
L 1881 -56 
Q 1678 -603 1566 -809 
Q 1416 -1088 1222 -1217 
Q 1028 -1347 759 -1347 
Q 597 -1347 397 -1278 
z
" transform="scale(0.015625)"/>
       <path id="ArialMT-28" d="M 1497 -1347 
Q 1031 -759 709 28 
Q 388 816 388 1659 
Q 388 2403 628 3084 
Q 909 3875 1497 4659 
L 1900 4659 
Q 1522 4009 1400 3731 
Q 1209 3300 1100 2831 
Q 966 2247 966 1656 
Q 966 153 1900 -1347 
L 1497 -1347 
z
" transform="scale(0.015625)"/>
       <path id="ArialMT-56" d="M 1803 0 
L 28 4581 
L 684 4581 
L 1875 1253 
Q 2019 853 2116 503 
Q 2222 878 2363 1253 
L 3600 4581 
L 4219 4581 
L 2425 0 
L 1803 0 
z
" transform="scale(0.015625)"/>
       <path id="ArialMT-2f" d="M 0 -78 
L 1328 4659 
L 1778 4659 
L 453 -78 
L 0 -78 
z
" transform="scale(0.015625)"/>
       <path id="ArialMT-29" d="M 791 -1347 
L 388 -1347 
Q 1322 153 1322 1656 
Q 1322 2244 1188 2822 
Q 1081 3291 891 3722 
Q 769 4003 388 4659 
L 791 4659 
Q 1378 3875 1659 3084 
Q 1900 2403 1900 1659 
Q 1900 816 1576 28 
Q 1253 -759 791 -1347 
z
" transform="scale(0.015625)"/>
      </defs>
      <use xlink:href="#ArialMT-46"/>
      <use xlink:href="#ArialMT-6f" transform="translate(61.083984 0)"/>
      <use xlink:href="#ArialMT-72" transform="translate(116.699219 0)"/>
      <use xlink:href="#ArialMT-6d" transform="translate(150 0)"/>
      <use xlink:href="#ArialMT-61" transform="translate(233.300781 0)"/>
      <use xlink:href="#ArialMT-74" transform="translate(288.916016 0)"/>
      <use xlink:href="#ArialMT-69" transform="translate(316.699219 0)"/>
      <use xlink:href="#ArialMT-6f" transform="translate(338.916016 0)"/>
      <use xlink:href="#ArialMT-6e" transform="translate(394.53125 0)"/>
      <use xlink:href="#ArialMT-20" transform="translate(450.146484 0)"/>
      <use xlink:href="#ArialMT-45" transform="translate(477.929688 0)"/>
      <use xlink:href="#ArialMT-6e" transform="translate(544.628906 0)"/>
      <use xlink:href="#ArialMT-65" transform="translate(600.244141 0)"/>
      <use xlink:href="#ArialMT-72" transform="translate(655.859375 0)"/>
      <use xlink:href="#ArialMT-67" transform="translate(689.160156 0)"/>
      <use xlink:href="#ArialMT-79" transform="translate(744.775391 0)"/>
      <use xlink:href="#ArialMT-20" transform="translate(794.775391 0)"/>
      <use xlink:href="#ArialMT-28" transform="translate(822.558594 0)"/>
      <use xlink:href="#ArialMT-65" transform="translate(855.859375 0)"/>
      <use xlink:href="#ArialMT-56" transform="translate(911.474609 0)"/>
      <use xlink:href="#ArialMT-2f" transform="translate(978.173828 0)"/>
      <use xlink:href="#ArialMT-61" transform="translate(1005.957031 0)"/>
      <use xlink:href="#ArialMT-74" transform="translate(1061.572266 0)"/>
      <use xlink:href="#ArialMT-6f" transform="translate(1089.355469 0)"/>
      <use xlink:href="#ArialMT-6d" transform="translate(1144.970703 0)"/>
      <use xlink:href="#ArialMT-29" transform="translate(1228.271484 0)"/>
     </g>
    </g>
   </g>
   <g id="LineCollection_1"/>
   <g id="patch_6">
    <path d="M 287.298425 195.703937 
L 291.66378 203.640945 
L 296.029134 195.703937 
L 296.029134 36.96378 
L 291.66378 29.026772 
L 287.298425 36.96378 
L 287.298425 195.703937 
z
" style="fill: none; stroke: #000000; stroke-width: 0.8; stroke-linejoin: miter; stroke-linecap: square"/>
   </g>
  </g>
 </g>
 <defs>
  <clipPath id="p6b574bbbb9">
   <rect x="7.2" y="7.2" width="263.622047" height="218.267717"/>
  </clipPath>
  <clipPath id="p754de809f0">
   <rect x="287.298425" y="36.96378" width="8.730709" height="158.740157"/>
  </clipPath>
 </defs>
</svg>
