<?xml version="1.0" encoding="utf-8" standalone="no"?>
<!DOCTYPE svg PUBLIC "-//W3C//DTD SVG 1.1//EN"
  "http://www.w3.org/Graphics/SVG/1.1/DTD/svg11.dtd">
<svg xmlns:xlink="http://www.w3.org/1999/xlink" width="340.354759pt" height="232.667717pt" viewBox="0 0 340.354759 232.667717" xmlns="http://www.w3.org/2000/svg" version="1.1">
 <metadata>
  <rdf:RDF xmlns:dc="http://purl.org/dc/elements/1.1/" xmlns:cc="http://creativecommons.org/ns#" xmlns:rdf="http://www.w3.org/1999/02/22-rdf-syntax-ns#">
   <cc:Work>
    <dc:type rdf:resource="http://purl.org/dc/dcmitype/StillImage"/>
    <dc:date>2026-01-27T21:37:57.320857</dc:date>
    <dc:format>image/svg+xml</dc:format>
    <dc:creator>
     <cc:Agent>
      <dc:title>Matplotlib v3.10.8, https://matplotlib.org/</dc:title>
     </cc:Agent>
    </dc:creator>
   </cc:Work>
  </rdf:RDF>
 </metadata>
 <defs>
  <style type="text/css">*{stroke-linejoin: round; stroke-linecap: butt}</style>
 </defs>
 <g id="figure_1">
  <g id="patch_1">
   <path d="M 0 232.667717 
L 340.354759 232.667717 
L 340.354759 0 
L 0 0 
L 0 232.667717 
z
" style="fill: none"/>
  </g>
  <g id="axes_1">
   <g id="patch_2">
    <path d="M 7.2 225.467717 
L 270.822047 225.467717 
L 270.822047 7.2 
L 7.2 7.2 
L 7.2 225.467717 
z
" style="fill: none"/>
   </g>
   <g id="TriContourSet_1">
    <path d="M 181.050155 214.554331 
L 179.327696 209.245451 
L 167.215499 196.03758 
L 175.028905 214.554331 
L 178.953758 214.554331 
z
" clip-path="url(#p1c5254db4b)" style="fill: #440154; fill-opacity: 0.7"/>
    <path d="M 175.028905 214.554331 
L 167.215499 196.03758 
L 179.327696 209.245451 
L 181.050155 214.554331 
L 183.39537 214.554331 
L 179.746016 203.306468 
L 154.084041 175.323099 
L 170.638216 214.554331 
z
" clip-path="url(#p1c5254db4b)" style="fill: #450457; fill-opacity: 0.7"/>
    <path d="M 170.638216 214.554331 
L 154.084041 175.323099 
L 179.746016 203.306468 
L 183.39537 214.554331 
L 185.740585 214.554331 
L 180.164336 197.367484 
L 140.952583 154.608619 
L 166.247527 214.554331 
z
" clip-path="url(#p1c5254db4b)" style="fill: #470d60; fill-opacity: 0.7"/>
    <path d="M 166.247527 214.554331 
L 140.952583 154.608619 
L 180.164336 197.367484 
L 185.740585 214.554331 
L 188.0858 214.554331 
L 180.582655 191.428501 
L 142.382701 149.772962 
L 139.410055 147.559285 
L 137.116423 148.557193 
L 136.093993 150.012026 
L 136.831594 152.691863 
L 137.568601 155.338166 
L 139.011024 160.412737 
L 161.856838 214.554331 
z
" clip-path="url(#p1c5254db4b)" style="fill: #481467; fill-opacity: 0.7"/>
    <path d="M 161.856838 214.554331 
L 139.011024 160.412737 
L 137.568601 155.338166 
L 136.831594 152.691863 
L 136.093993 150.012026 
L 137.116423 148.557193 
L 139.410055 147.559285 
L 142.382701 149.772962 
L 180.582655 191.428501 
L 188.0858 214.554331 
L 190.431015 214.554331 
L 181.000975 185.489517 
L 146.339398 147.692438 
L 139.878323 142.88099 
L 134.893091 145.049953 
L 132.670829 148.212046 
L 134.274012 154.036699 
L 135.875903 159.788466 
L 139.011024 170.818096 
L 157.466149 214.554331 
z
" clip-path="url(#p1c5254db4b)" style="fill: #481b6d; fill-opacity: 0.7"/>
    <path d="M 157.466149 214.554331 
L 139.011024 170.818096 
L 135.875903 159.788466 
L 134.274012 154.036699 
L 132.670829 148.212046 
L 134.893091 145.049953 
L 139.878323 142.88099 
L 146.339398 147.692438 
L 181.000975 185.489517 
L 190.431015 214.554331 
L 192.77623 214.554331 
L 181.419295 179.550534 
L 150.296094 145.611915 
L 140.346591 138.202694 
L 132.669758 141.542713 
L 129.247665 146.412067 
L 131.71643 155.381536 
L 134.183205 164.238765 
L 139.011024 181.223455 
L 153.07546 214.554331 
z
" clip-path="url(#p1c5254db4b)" style="fill: #482173; fill-opacity: 0.7"/>
    <path d="M 153.07546 214.554331 
L 139.011024 181.223455 
L 134.183205 164.238765 
L 131.71643 155.381536 
L 129.247665 146.412067 
L 132.669758 141.542713 
L 140.346591 138.202694 
L 150.296094 145.611915 
L 181.419295 179.550534 
L 192.77623 214.554331 
L 195.121445 214.554331 
L 181.837615 173.611551 
L 154.252791 143.531392 
L 140.814858 133.524399 
L 130.446426 138.035473 
L 125.824501 144.612087 
L 129.158848 156.726372 
L 132.490508 168.689065 
L 139.011024 191.628814 
L 148.684771 214.554331 
z
" clip-path="url(#p1c5254db4b)" style="fill: #482979; fill-opacity: 0.7"/>
    <path d="M 148.684771 214.554331 
L 139.011024 191.628814 
L 132.490508 168.689065 
L 129.158848 156.726372 
L 125.824501 144.612087 
L 130.446426 138.035473 
L 140.814858 133.524399 
L 154.252791 143.531392 
L 181.837615 173.611551 
L 195.121445 214.554331 
L 197.46666 214.554331 
L 182.255935 167.672567 
L 158.209488 141.450868 
L 141.283126 128.846103 
L 128.223094 134.528233 
L 122.401336 142.812108 
L 126.601266 158.071208 
L 130.79781 173.139364 
L 139.011024 202.034173 
L 144.294082 214.554331 
z
" clip-path="url(#p1c5254db4b)" style="fill: #472f7d; fill-opacity: 0.7"/>
    <path d="M 144.294082 214.554331 
L 139.011024 202.034173 
L 130.79781 173.139364 
L 126.601266 158.071208 
L 122.401336 142.812108 
L 128.223094 134.528233 
L 141.283126 128.846103 
L 158.209488 141.450868 
L 182.255935 167.672567 
L 197.46666 214.554331 
L 198.925125 214.554331 
L 199.472616 214.554331 
L 199.072275 212.697332 
L 198.07837 209.211404 
L 182.674255 161.733584 
L 162.166185 139.370345 
L 141.751394 124.167808 
L 125.999761 131.020993 
L 118.978172 141.012128 
L 124.043684 159.416044 
L 129.105112 177.589664 
L 139.011024 212.439532 
L 139.903393 214.554331 
z
" clip-path="url(#p1c5254db4b)" style="fill: #453581; fill-opacity: 0.7"/>
    <path d="M 139.903393 214.554331 
L 139.011024 212.439532 
L 129.105112 177.589664 
L 124.043684 159.416044 
L 118.978172 141.012128 
L 125.999761 131.020993 
L 141.751394 124.167808 
L 162.166185 139.370345 
L 182.674255 161.733584 
L 198.07837 209.211404 
L 199.072275 212.697332 
L 199.472616 214.554331 
L 200.920582 214.554331 
L 199.461448 207.78607 
L 195.838928 195.080795 
L 183.092575 155.7946 
L 166.122882 137.289821 
L 142.219662 119.489513 
L 123.776429 127.513753 
L 115.555008 139.212148 
L 121.486102 160.760881 
L 127.412415 182.039963 
L 136.654471 214.554331 
L 139.011024 214.554331 
z
" clip-path="url(#p1c5254db4b)" style="fill: #433d84; fill-opacity: 0.7"/>
    <path d="M 136.654471 214.554331 
L 127.412415 182.039963 
L 121.486102 160.760881 
L 115.555008 139.212148 
L 123.776429 127.513753 
L 142.219662 119.489513 
L 166.122882 137.289821 
L 183.092575 155.7946 
L 195.838928 195.080795 
L 199.461448 207.78607 
L 200.920582 214.554331 
L 202.368548 214.554331 
L 199.85062 202.874807 
L 193.599486 180.950186 
L 183.510895 149.855617 
L 170.079579 135.209298 
L 142.687929 114.811217 
L 121.553096 124.006513 
L 112.131844 137.412169 
L 118.92852 162.105717 
L 125.719717 186.490263 
L 133.696796 214.554331 
z
" clip-path="url(#p1c5254db4b)" style="fill: #414287; fill-opacity: 0.7"/>
    <path d="M 133.696796 214.554331 
L 125.719717 186.490263 
L 118.92852 162.105717 
L 112.131844 137.412169 
L 121.553096 124.006513 
L 142.687929 114.811217 
L 170.079579 135.209298 
L 183.510895 149.855617 
L 193.599486 180.950186 
L 199.85062 202.874807 
L 202.368548 214.554331 
L 203.816514 214.554331 
L 200.239793 197.963544 
L 191.360044 166.819578 
L 183.929215 143.916633 
L 174.036275 133.128774 
L 143.560759 110.434192 
L 143.181084 110.209236 
L 143.105653 110.181915 
L 143.007463 110.197633 
L 119.329764 120.499273 
L 108.708679 135.612189 
L 116.370938 163.450553 
L 124.027019 190.940562 
L 130.739122 214.554331 
z
" clip-path="url(#p1c5254db4b)" style="fill: #3f4889; fill-opacity: 0.7"/>
    <path d="M 130.739122 214.554331 
L 124.027019 190.940562 
L 116.370938 163.450553 
L 108.708679 135.612189 
L 119.329764 120.499273 
L 143.007463 110.197633 
L 143.105653 110.181915 
L 143.181084 110.209236 
L 143.560759 110.434192 
L 174.036275 133.128774 
L 183.929215 143.916633 
L 191.360044 166.819578 
L 200.239793 197.963544 
L 203.816514 214.554331 
L 205.26448 214.554331 
L 200.628965 193.052282 
L 189.120602 152.688969 
L 184.347534 137.97765 
L 177.992972 131.048251 
L 158.41754 116.47077 
L 144.53447 108.245104 
L 141.776296 107.246086 
L 138.185929 107.820812 
L 117.106431 116.992033 
L 105.285515 133.81221 
L 113.813356 164.795389 
L 122.334322 195.390862 
L 127.781448 214.554331 
z
" clip-path="url(#p1c5254db4b)" style="fill: #3c4f8a; fill-opacity: 0.7"/>
    <path d="M 127.781448 214.554331 
L 122.334322 195.390862 
L 113.813356 164.795389 
L 105.285515 133.81221 
L 117.106431 116.992033 
L 138.185929 107.820812 
L 141.776296 107.246086 
L 144.53447 108.245104 
L 158.41754 116.47077 
L 177.992972 131.048251 
L 184.347534 137.97765 
L 189.120602 152.688969 
L 200.628965 193.052282 
L 205.26448 214.554331 
L 206.712447 214.554331 
L 201.018138 188.141019 
L 186.88116 138.55836 
L 184.765854 132.038666 
L 181.949669 128.967728 
L 173.27432 122.507347 
L 145.887857 106.280971 
L 140.446939 104.310257 
L 133.364395 105.443992 
L 114.883099 113.484793 
L 101.862351 132.01223 
L 111.255774 166.140226 
L 120.641624 199.841161 
L 124.823773 214.554331 
z
" clip-path="url(#p1c5254db4b)" style="fill: #3a548c; fill-opacity: 0.7"/>
    <path d="M 124.823773 214.554331 
L 120.641624 199.841161 
L 111.255774 166.140226 
L 101.862351 132.01223 
L 114.883099 113.484793 
L 133.364395 105.443992 
L 140.446939 104.310257 
L 145.887857 106.280971 
L 173.27432 122.507347 
L 181.949669 128.967728 
L 184.765854 132.038666 
L 186.88116 138.55836 
L 201.018138 188.141019 
L 206.712447 214.554331 
L 208.160413 214.554331 
L 201.40731 183.229756 
L 185.762577 128.358942 
L 185.4953 127.596151 
L 185.302382 127.204793 
L 184.968101 126.69335 
L 184.896287 126.62731 
L 147.241244 104.316838 
L 139.117582 101.374428 
L 128.542861 103.067172 
L 112.659767 109.977553 
L 98.439187 130.212251 
L 108.698192 167.485062 
L 118.948926 204.291461 
L 121.866099 214.554331 
z
" clip-path="url(#p1c5254db4b)" style="fill: #375b8d; fill-opacity: 0.7"/>
    <path d="M 121.866099 214.554331 
L 118.948926 204.291461 
L 108.698192 167.485062 
L 98.439187 130.212251 
L 112.659767 109.977553 
L 128.542861 103.067172 
L 139.117582 101.374428 
L 147.241244 104.316838 
L 184.896287 126.62731 
L 184.968101 126.69335 
L 185.302382 127.204793 
L 185.4953 127.596151 
L 185.762577 128.358942 
L 201.40731 183.229756 
L 208.160413 214.554331 
L 209.608379 214.554331 
L 201.796482 178.318494 
L 189.01478 133.489194 
L 187.437977 128.989113 
L 186.299858 126.680297 
L 184.327769 123.663038 
L 183.904102 123.273435 
L 148.59463 102.352706 
L 137.788225 98.438599 
L 123.721327 100.690351 
L 110.436434 106.470313 
L 95.016023 128.412271 
L 106.14061 168.829898 
L 117.256228 208.74176 
L 118.908424 214.554331 
z
" clip-path="url(#p1c5254db4b)" style="fill: #34608d; fill-opacity: 0.7"/>
    <path d="M 118.908424 214.554331 
L 117.256228 208.74176 
L 106.14061 168.829898 
L 95.016023 128.412271 
L 110.436434 106.470313 
L 123.721327 100.690351 
L 137.788225 98.438599 
L 148.59463 102.352706 
L 183.904102 123.273435 
L 184.327769 123.663038 
L 186.299858 126.680297 
L 187.437977 128.989113 
L 189.01478 133.489194 
L 201.796482 178.318494 
L 209.608379 214.554331 
L 211.056345 214.554331 
L 202.185655 173.407231 
L 192.266983 138.619447 
L 189.380655 130.382075 
L 187.297335 126.1558 
L 183.687438 120.632727 
L 182.911917 119.91956 
L 149.948017 100.388573 
L 136.458868 95.50277 
L 118.899793 98.313531 
L 108.213102 102.963073 
L 91.592858 126.612292 
L 103.583028 170.174734 
L 115.563531 213.19206 
L 115.95075 214.554331 
z
" clip-path="url(#p1c5254db4b)" style="fill: #32658e; fill-opacity: 0.7"/>
    <path d="M 115.95075 214.554331 
L 115.563531 213.19206 
L 103.583028 170.174734 
L 91.592858 126.612292 
L 108.213102 102.963073 
L 118.899793 98.313531 
L 136.458868 95.50277 
L 149.948017 100.388573 
L 182.911917 119.91956 
L 183.687438 120.632727 
L 187.297335 126.1558 
L 189.380655 130.382075 
L 192.266983 138.619447 
L 202.185655 173.407231 
L 211.056345 214.554331 
L 212.504311 214.554331 
L 202.574827 168.495968 
L 195.519186 143.7497 
L 191.323333 131.775037 
L 188.294812 125.631304 
L 183.047106 117.602415 
L 181.919733 116.565685 
L 151.301404 98.424441 
L 135.129511 92.566941 
L 114.078259 95.936711 
L 105.989769 99.455833 
L 88.169694 124.812312 
L 101.025446 171.519571 
L 113.010804 214.554331 
L 115.045383 214.554331 
z
" clip-path="url(#p1c5254db4b)" style="fill: #2f6b8e; fill-opacity: 0.7"/>
    <path d="M 113.010804 214.554331 
L 101.025446 171.519571 
L 88.169694 124.812312 
L 105.989769 99.455833 
L 114.078259 95.936711 
L 135.129511 92.566941 
L 151.301404 98.424441 
L 181.919733 116.565685 
L 183.047106 117.602415 
L 188.294812 125.631304 
L 191.323333 131.775037 
L 195.519186 143.7497 
L 202.574827 168.495968 
L 212.504311 214.554331 
L 213.952277 214.554331 
L 202.964 163.584706 
L 198.77139 148.879953 
L 193.266011 133.167998 
L 189.292288 125.106807 
L 182.406774 114.572104 
L 180.927548 113.211811 
L 152.65479 96.460308 
L 133.800154 89.631112 
L 109.256725 93.55989 
L 103.766437 95.948593 
L 84.74653 123.012333 
L 98.467864 172.864407 
L 110.07868 214.554331 
z
" clip-path="url(#p1c5254db4b)" style="fill: #2d708e; fill-opacity: 0.7"/>
    <path d="M 110.07868 214.554331 
L 98.467864 172.864407 
L 84.74653 123.012333 
L 103.766437 95.948593 
L 109.256725 93.55989 
L 133.800154 89.631112 
L 152.65479 96.460308 
L 180.927548 113.211811 
L 182.406774 114.572104 
L 189.292288 125.106807 
L 193.266011 133.167998 
L 198.77139 148.879953 
L 202.964 163.584706 
L 213.952277 214.554331 
L 215.400243 214.554331 
L 203.353172 158.673443 
L 202.023593 154.010205 
L 195.208689 134.56096 
L 190.289765 124.582311 
L 181.766443 111.541792 
L 179.935363 109.857936 
L 154.008177 94.496176 
L 132.470797 86.695283 
L 104.435191 91.18307 
L 101.543104 92.441353 
L 81.323366 121.212353 
L 95.910282 174.209243 
L 107.146555 214.554331 
z
" clip-path="url(#p1c5254db4b)" style="fill: #2b748e; fill-opacity: 0.7"/>
    <path d="M 78.383261 121.167416 
L 93.3527 175.554079 
L 104.214431 214.554331 
L 107.146555 214.554331 
L 95.910282 174.209243 
L 81.323366 121.212353 
L 101.543104 92.441353 
L 104.435191 91.18307 
L 132.470797 86.695283 
L 154.008177 94.496176 
L 179.935363 109.857936 
L 181.766443 111.541792 
L 190.289765 124.582311 
L 195.208689 134.56096 
L 202.023593 154.010205 
L 203.353172 158.673443 
L 215.400243 214.554331 
L 216.848209 214.554331 
L 204.536819 157.447387 
L 204.235435 156.171344 
L 197.151367 135.953922 
L 191.287242 124.057814 
L 181.126111 108.51148 
L 178.943178 106.504061 
L 155.361564 92.532043 
L 131.14144 83.759454 
L 99.613657 88.80625 
L 99.319772 88.934112 
L 94.186185 96.238778 
L 79.096922 120.041637 
z
" clip-path="url(#p1c5254db4b)" style="fill: #29798e; fill-opacity: 0.7"/>
    <path d="M 94.186185 96.238778 
L 99.319772 88.934112 
L 99.613657 88.80625 
L 131.14144 83.759454 
L 155.361564 92.532043 
L 178.943178 106.504061 
L 181.126111 108.51148 
L 191.287242 124.057814 
L 197.151367 135.953922 
L 204.235435 156.171344 
L 204.536819 157.447387 
L 216.848209 214.554331 
L 218.296176 214.554331 
L 206.409316 159.416592 
L 205.545233 155.75811 
L 199.094045 137.346884 
L 192.284718 123.533318 
L 180.48578 105.481169 
L 177.950994 103.150186 
L 156.71495 90.56791 
L 129.812083 80.823625 
L 101.038439 85.429553 
L 99.068289 88.537406 
z
M 76.341866 124.387654 
L 90.795118 176.898916 
L 101.282306 214.554331 
L 104.214431 214.554331 
L 93.3527 175.554079 
L 78.383261 121.167416 
z
" clip-path="url(#p1c5254db4b)" style="fill: #277f8e; fill-opacity: 0.7"/>
    <path d="M 101.038439 85.429553 
L 129.812083 80.823625 
L 156.71495 90.56791 
L 177.950994 103.150186 
L 180.48578 105.481169 
L 192.284718 123.533318 
L 199.094045 137.346884 
L 205.545233 155.75811 
L 206.409316 159.416592 
L 218.296176 214.554331 
L 219.744142 214.554331 
L 208.281813 161.385797 
L 206.85503 155.344877 
L 201.036722 138.739845 
L 193.282195 123.008821 
L 179.845448 102.450857 
L 176.958809 99.796311 
L 158.068337 88.603778 
L 128.482726 77.887796 
L 103.259856 81.925336 
z
M 74.300472 127.607893 
L 88.237535 178.243752 
L 98.350182 214.554331 
L 101.282306 214.554331 
L 90.795118 176.898916 
L 76.341866 124.387654 
z
" clip-path="url(#p1c5254db4b)" style="fill: #25838e; fill-opacity: 0.7"/>
    <path d="M 103.259856 81.925336 
L 128.482726 77.887796 
L 158.068337 88.603778 
L 176.958809 99.796311 
L 179.845448 102.450857 
L 193.282195 123.008821 
L 201.036722 138.739845 
L 206.85503 155.344877 
L 208.281813 161.385797 
L 219.744142 214.554331 
L 221.192108 214.554331 
L 210.15431 163.355002 
L 208.164828 154.931644 
L 202.9794 140.132807 
L 194.279672 122.484325 
L 179.205116 99.420546 
L 175.966624 96.442437 
L 159.421724 86.639645 
L 127.153369 74.951967 
L 105.481272 78.421118 
z
M 72.259077 130.828131 
L 85.679953 179.588588 
L 95.418057 214.554331 
L 98.350182 214.554331 
L 88.237535 178.243752 
L 74.300472 127.607893 
z
" clip-path="url(#p1c5254db4b)" style="fill: #23888e; fill-opacity: 0.7"/>
    <path d="M 105.481272 78.421118 
L 127.153369 74.951967 
L 159.421724 86.639645 
L 175.966624 96.442437 
L 179.205116 99.420546 
L 194.279672 122.484325 
L 202.9794 140.132807 
L 208.164828 154.931644 
L 210.15431 163.355002 
L 221.192108 214.554331 
L 222.640074 214.554331 
L 212.026807 165.324207 
L 209.474625 154.518411 
L 204.922078 141.525769 
L 195.277148 121.959828 
L 178.564785 96.390234 
L 174.974439 93.088562 
L 160.77511 84.675513 
L 125.824012 72.016138 
L 107.702688 74.916901 
z
M 70.217683 134.04837 
L 83.122371 180.933424 
L 92.485933 214.554331 
L 95.418057 214.554331 
L 85.679953 179.588588 
L 72.259077 130.828131 
z
" clip-path="url(#p1c5254db4b)" style="fill: #218e8d; fill-opacity: 0.7"/>
    <path d="M 107.702688 74.916901 
L 125.824012 72.016138 
L 160.77511 84.675513 
L 174.974439 93.088562 
L 178.564785 96.390234 
L 195.277148 121.959828 
L 204.922078 141.525769 
L 209.474625 154.518411 
L 212.026807 165.324207 
L 222.640074 214.554331 
L 224.08804 214.554331 
L 213.899304 167.293412 
L 210.784423 154.105177 
L 206.864756 142.918731 
L 196.274625 121.435332 
L 177.924453 93.359922 
L 173.982255 89.734687 
L 162.128497 82.71138 
L 124.494655 69.080309 
L 109.924105 71.412684 
z
M 68.176288 137.268608 
L 80.564789 182.278261 
L 89.553808 214.554331 
L 92.485933 214.554331 
L 83.122371 180.933424 
L 70.217683 134.04837 
z
" clip-path="url(#p1c5254db4b)" style="fill: #20928c; fill-opacity: 0.7"/>
    <path d="M 109.924105 71.412684 
L 124.494655 69.080309 
L 162.128497 82.71138 
L 173.982255 89.734687 
L 177.924453 93.359922 
L 196.274625 121.435332 
L 206.864756 142.918731 
L 210.784423 154.105177 
L 213.899304 167.293412 
L 224.08804 214.554331 
L 225.536006 214.554331 
L 215.7718 169.262617 
L 212.09422 153.691944 
L 208.807434 144.311693 
L 197.272102 120.910835 
L 177.284121 90.329611 
L 172.99007 86.380812 
L 163.481883 80.747247 
L 123.165298 66.14448 
L 112.145521 67.908466 
z
M 66.134894 140.488846 
L 78.007207 183.623097 
L 86.621684 214.554331 
L 89.553808 214.554331 
L 80.564789 182.278261 
L 68.176288 137.268608 
z
" clip-path="url(#p1c5254db4b)" style="fill: #1f988b; fill-opacity: 0.7"/>
    <path d="M 112.145521 67.908466 
L 123.165298 66.14448 
L 163.481883 80.747247 
L 172.99007 86.380812 
L 177.284121 90.329611 
L 197.272102 120.910835 
L 208.807434 144.311693 
L 212.09422 153.691944 
L 215.7718 169.262617 
L 225.536006 214.554331 
L 226.983972 214.554331 
L 217.644297 171.231822 
L 213.404018 153.278711 
L 210.750112 145.704654 
L 198.269578 120.386339 
L 176.64379 87.299299 
L 171.997885 83.026937 
L 164.83527 78.783115 
L 121.835941 63.208651 
L 114.366937 64.404249 
z
M 64.093499 143.709085 
L 75.449625 184.967933 
L 83.689559 214.554331 
L 86.621684 214.554331 
L 78.007207 183.623097 
L 66.134894 140.488846 
z
" clip-path="url(#p1c5254db4b)" style="fill: #1e9d89; fill-opacity: 0.7"/>
    <path d="M 184.123009 96.691745 
L 176.003458 84.268988 
L 171.0057 79.673062 
L 166.188657 76.818982 
L 120.506584 60.272822 
L 116.588353 60.900031 
L 114.366937 64.404249 
L 121.835941 63.208651 
L 164.83527 78.783115 
L 171.997885 83.026937 
L 176.64379 87.299299 
L 198.269578 120.386339 
L 210.750112 145.704654 
L 213.404018 153.278711 
L 217.644297 171.231822 
L 226.983972 214.554331 
L 228.431938 214.554331 
L 219.516794 173.201027 
L 214.713815 152.865478 
L 212.69279 147.097616 
L 200.86114 123.095642 
L 198.925125 120.041637 
z
M 62.052105 146.929323 
L 72.892043 186.312769 
L 80.757435 214.554331 
L 83.689559 214.554331 
L 75.449625 184.967933 
L 64.093499 143.709085 
z
" clip-path="url(#p1c5254db4b)" style="fill: #1fa187; fill-opacity: 0.7"/>
    <path d="M 200.86114 123.095642 
L 212.69279 147.097616 
L 214.713815 152.865478 
L 219.516794 173.201027 
L 228.431938 214.554331 
L 229.879905 214.554331 
L 221.389291 175.170232 
L 216.023613 152.452245 
L 214.635468 148.490578 
L 206.508877 132.004777 
z
M 172.878425 78.953751 
L 170.013516 76.319188 
L 167.542043 74.85485 
L 119.177227 57.336993 
L 118.80977 57.395814 
L 116.588353 60.900031 
L 120.506584 60.272822 
L 166.188657 76.818982 
L 171.0057 79.673062 
L 176.003458 84.268988 
L 184.123009 96.691745 
L 175.88124 83.690601 
z
M 60.01071 150.149562 
L 70.334461 187.657606 
L 77.82531 214.554331 
L 80.757435 214.554331 
L 72.892043 186.312769 
L 62.052105 146.929323 
z
" clip-path="url(#p1c5254db4b)" style="fill: #22a785; fill-opacity: 0.7"/>
    <path d="M 206.508877 132.004777 
L 214.635468 148.490578 
L 216.023613 152.452245 
L 221.389291 175.170232 
L 229.879905 214.554331 
L 231.327871 214.554331 
L 223.261788 177.139437 
L 217.33341 152.039011 
L 216.578145 149.88354 
L 212.156613 140.913912 
z
M 169.167274 73.099522 
L 169.021331 72.965313 
L 168.89543 72.890717 
L 166.147629 71.895457 
L 119.939543 55.613631 
L 119.039656 57.033175 
L 118.80977 57.395814 
L 119.177227 57.336993 
L 167.542043 74.85485 
L 170.013516 76.319188 
L 172.878425 78.953751 
z
M 57.969316 153.3698 
L 67.776879 189.002442 
L 74.893186 214.554331 
L 77.82531 214.554331 
L 70.334461 187.657606 
L 60.01071 150.149562 
z
" clip-path="url(#p1c5254db4b)" style="fill: #25ac82; fill-opacity: 0.7"/>
    <path d="M 212.156613 140.913912 
L 216.578145 149.88354 
L 217.33341 152.039011 
L 223.261788 177.139437 
L 231.327871 214.554331 
L 232.775837 214.554331 
L 225.134284 179.108642 
L 218.643208 151.625778 
L 218.520823 151.276501 
L 217.80435 149.823047 
z
M 167.471791 70.424948 
L 120.943305 54.030226 
L 119.939543 55.613631 
L 166.147629 71.895457 
L 168.89543 72.890717 
L 169.021331 72.965313 
L 169.167274 73.099522 
L 168.968074 72.78529 
z
M 55.927921 156.590039 
L 65.219297 190.347278 
L 71.961061 214.554331 
L 74.893186 214.554331 
L 67.776879 189.002442 
L 57.969316 153.3698 
z
" clip-path="url(#p1c5254db4b)" style="fill: #2ab07f; fill-opacity: 0.7"/>
    <path d="M 217.80435 149.823047 
L 218.520823 151.276501 
L 218.643208 151.625778 
L 225.134284 179.108642 
L 232.775837 214.554331 
L 234.223803 214.554331 
L 227.006781 181.077847 
L 220.70586 154.400091 
L 218.896492 151.545868 
z
M 165.890637 67.930725 
L 121.947067 52.446822 
L 120.943305 54.030226 
L 167.471791 70.424948 
z
M 53.886527 159.810277 
L 62.661715 191.692114 
L 69.028937 214.554331 
L 71.961061 214.554331 
L 65.219297 190.347278 
L 55.927921 156.590039 
z
" clip-path="url(#p1c5254db4b)" style="fill: #32b67a; fill-opacity: 0.7"/>
    <path d="M 164.309483 65.436503 
L 122.950829 50.863417 
L 121.947067 52.446822 
L 165.890637 67.930725 
z
M 51.845132 163.030516 
L 60.104133 193.036951 
L 66.096812 214.554331 
L 69.028937 214.554331 
L 62.661715 191.692114 
L 53.886527 159.810277 
z
M 235.671769 214.554331 
L 228.879278 183.047052 
L 222.948999 157.938576 
L 220.70586 154.400091 
L 227.006781 181.077847 
L 234.223803 214.554331 
z
" clip-path="url(#p1c5254db4b)" style="fill: #3aba76; fill-opacity: 0.7"/>
    <path d="M 162.72833 62.94228 
L 123.954591 49.280013 
L 122.950829 50.863417 
L 164.309483 65.436503 
z
M 49.803738 166.250754 
L 57.546551 194.381787 
L 63.164688 214.554331 
L 66.096812 214.554331 
L 60.104133 193.036951 
L 51.845132 163.030516 
z
M 237.119735 214.554331 
L 230.751775 185.016257 
L 225.192139 161.477061 
L 222.948999 157.938576 
L 228.879278 183.047052 
L 235.671769 214.554331 
z
" clip-path="url(#p1c5254db4b)" style="fill: #42be71; fill-opacity: 0.7"/>
    <path d="M 161.147176 60.448058 
L 124.958353 47.696608 
L 123.954591 49.280013 
L 162.72833 62.94228 
z
M 47.762343 169.470992 
L 54.988969 195.726623 
L 60.232563 214.554331 
L 63.164688 214.554331 
L 57.546551 194.381787 
L 49.803738 166.250754 
z
M 238.567701 214.554331 
L 232.624272 186.985462 
L 227.435278 165.015545 
L 225.192139 161.477061 
L 230.751775 185.016257 
L 237.119735 214.554331 
z
" clip-path="url(#p1c5254db4b)" style="fill: #4ec36b; fill-opacity: 0.7"/>
    <path d="M 159.566022 57.953835 
L 125.962116 46.113203 
L 124.958353 47.696608 
L 161.147176 60.448058 
z
M 45.720949 172.691231 
L 52.431387 197.071459 
L 57.300439 214.554331 
L 60.232563 214.554331 
L 54.988969 195.726623 
L 47.762343 169.470992 
z
M 240.015667 214.554331 
L 234.496768 188.954667 
L 229.678417 168.55403 
L 227.435278 165.015545 
L 232.624272 186.985462 
L 238.567701 214.554331 
z
" clip-path="url(#p1c5254db4b)" style="fill: #58c765; fill-opacity: 0.7"/>
    <path d="M 157.984868 55.459613 
L 126.965878 44.529799 
L 125.962116 46.113203 
L 159.566022 57.953835 
z
M 43.679554 175.911469 
L 49.873805 198.416296 
L 54.368314 214.554331 
L 57.300439 214.554331 
L 52.431387 197.071459 
L 45.720949 172.691231 
z
M 241.463633 214.554331 
L 236.369265 190.923871 
L 231.921556 172.092515 
L 229.678417 168.55403 
L 234.496768 188.954667 
L 240.015667 214.554331 
z
" clip-path="url(#p1c5254db4b)" style="fill: #63cb5f; fill-opacity: 0.7"/>
    <path d="M 156.403715 52.96539 
L 127.96964 42.946394 
L 126.965878 44.529799 
L 157.984868 55.459613 
z
M 41.63816 179.131708 
L 47.316223 199.761132 
L 51.43619 214.554331 
L 54.368314 214.554331 
L 49.873805 198.416296 
L 43.679554 175.911469 
z
M 242.9116 214.554331 
L 238.241762 192.893076 
L 234.164695 175.630999 
L 231.921556 172.092515 
L 236.369265 190.923871 
L 241.463633 214.554331 
z
" clip-path="url(#p1c5254db4b)" style="fill: #70cf57; fill-opacity: 0.7"/>
    <path d="M 154.822561 50.471168 
L 128.973402 41.36299 
L 127.96964 42.946394 
L 156.403715 52.96539 
z
M 39.596765 182.351946 
L 44.758641 201.105968 
L 48.504065 214.554331 
L 51.43619 214.554331 
L 47.316223 199.761132 
L 41.63816 179.131708 
z
M 244.359566 214.554331 
L 240.114259 194.862281 
L 236.407835 179.169484 
L 234.164695 175.630999 
L 238.241762 192.893076 
L 242.9116 214.554331 
z
" clip-path="url(#p1c5254db4b)" style="fill: #7cd250; fill-opacity: 0.7"/>
    <path d="M 153.241407 47.976945 
L 129.977164 39.779585 
L 128.973402 41.36299 
L 154.822561 50.471168 
z
M 37.555371 185.572185 
L 42.201059 202.450804 
L 45.571941 214.554331 
L 48.504065 214.554331 
L 44.758641 201.105968 
L 39.596765 182.351946 
z
M 245.807532 214.554331 
L 241.986756 196.831486 
L 238.650974 182.707969 
L 236.407835 179.169484 
L 240.114259 194.862281 
L 244.359566 214.554331 
z
" clip-path="url(#p1c5254db4b)" style="fill: #89d548; fill-opacity: 0.7"/>
    <path d="M 151.660253 45.482723 
L 130.980926 38.19618 
L 129.977164 39.779585 
L 153.241407 47.976945 
z
M 35.513976 188.792423 
L 39.643477 203.795641 
L 42.639816 214.554331 
L 45.571941 214.554331 
L 42.201059 202.450804 
L 37.555371 185.572185 
z
M 247.255498 214.554331 
L 243.859252 198.800691 
L 240.894113 186.246453 
L 238.650974 182.707969 
L 241.986756 196.831486 
L 245.807532 214.554331 
z
" clip-path="url(#p1c5254db4b)" style="fill: #98d83e; fill-opacity: 0.7"/>
    <path d="M 150.0791 42.988501 
L 131.984689 36.612776 
L 130.980926 38.19618 
L 151.660253 45.482723 
z
M 33.472582 192.012662 
L 37.085895 205.140477 
L 39.707692 214.554331 
L 42.639816 214.554331 
L 39.643477 203.795641 
L 35.513976 188.792423 
z
M 248.703464 214.554331 
L 245.731749 200.769896 
L 243.137252 189.784938 
L 240.894113 186.246453 
L 243.859252 198.800691 
L 247.255498 214.554331 
z
" clip-path="url(#p1c5254db4b)" style="fill: #a5db36; fill-opacity: 0.7"/>
    <path d="M 148.497946 40.494278 
L 132.988451 35.029371 
L 131.984689 36.612776 
L 150.0791 42.988501 
z
M 31.431187 195.2329 
L 34.528313 206.485313 
L 36.775567 214.554331 
L 39.707692 214.554331 
L 37.085895 205.140477 
L 33.472582 192.012662 
z
M 250.15143 214.554331 
L 247.604246 202.739101 
L 245.380392 193.323423 
L 243.137252 189.784938 
L 245.731749 200.769896 
L 248.703464 214.554331 
z
" clip-path="url(#p1c5254db4b)" style="fill: #b2dd2d; fill-opacity: 0.7"/>
    <path d="M 146.916792 38.000056 
L 133.992213 33.445966 
L 132.988451 35.029371 
L 148.497946 40.494278 
z
M 29.389793 198.453138 
L 31.970731 207.830149 
L 33.843443 214.554331 
L 36.775567 214.554331 
L 34.528313 206.485313 
L 31.431187 195.2329 
z
M 251.599396 214.554331 
L 249.476743 204.708306 
L 247.623531 196.861907 
L 245.380392 193.323423 
L 247.604246 202.739101 
L 250.15143 214.554331 
z
" clip-path="url(#p1c5254db4b)" style="fill: #c2df23; fill-opacity: 0.7"/>
    <path d="M 145.335639 35.505833 
L 134.995975 31.862562 
L 133.992213 33.445966 
L 146.916792 38.000056 
z
M 27.348398 201.673377 
L 29.413149 209.174986 
L 30.911318 214.554331 
L 33.843443 214.554331 
L 31.970731 207.830149 
L 29.389793 198.453138 
z
M 253.047362 214.554331 
L 251.34924 206.677511 
L 249.86667 200.400392 
L 247.623531 196.861907 
L 249.476743 204.708306 
L 251.599396 214.554331 
z
" clip-path="url(#p1c5254db4b)" style="fill: #d0e11c; fill-opacity: 0.7"/>
    <path d="M 143.754485 33.011611 
L 135.999737 30.279157 
L 134.995975 31.862562 
L 145.335639 35.505833 
z
M 25.307004 204.893615 
L 26.855566 210.519822 
L 27.979194 214.554331 
L 30.911318 214.554331 
L 29.413149 209.174986 
L 27.348398 201.673377 
z
M 254.495329 214.554331 
L 253.221736 208.646716 
L 252.109809 203.938877 
L 249.86667 200.400392 
L 251.34924 206.677511 
L 253.047362 214.554331 
z
" clip-path="url(#p1c5254db4b)" style="fill: #dde318; fill-opacity: 0.7"/>
    <path d="M 142.173331 30.517388 
L 137.003499 28.695753 
L 135.999737 30.279157 
L 143.754485 33.011611 
z
M 23.265609 208.113854 
L 24.297984 211.864658 
L 25.047069 214.554331 
L 27.979194 214.554331 
L 26.855566 210.519822 
L 25.307004 204.893615 
z
M 255.943295 214.554331 
L 255.094233 210.615921 
L 254.352948 207.477361 
L 252.109809 203.938877 
L 253.221736 208.646716 
L 254.495329 214.554331 
z
" clip-path="url(#p1c5254db4b)" style="fill: #ece51b; fill-opacity: 0.7"/>
    <path d="M 140.592177 28.023166 
L 138.007261 27.112348 
L 137.003499 28.695753 
L 142.173331 30.517388 
z
M 21.224215 211.334092 
L 21.740402 213.209494 
L 22.114945 214.554331 
L 25.047069 214.554331 
L 24.297984 211.864658 
L 23.265609 208.113854 
z
M 257.391261 214.554331 
L 256.96673 212.585126 
L 256.596088 211.015846 
L 254.352948 207.477361 
L 255.094233 210.615921 
L 255.943295 214.554331 
z
" clip-path="url(#p1c5254db4b)" style="fill: #f8e621; fill-opacity: 0.7"/>
    <path d="M 138.007261 27.112348 
L 140.592177 28.023166 
L 139.011024 25.528943 
z
M 22.114945 214.554331 
L 21.740402 213.209494 
L 21.224215 211.334092 
L 19.18282 214.554331 
z
M 256.596088 211.015846 
L 256.96673 212.585126 
L 257.391261 214.554331 
L 258.839227 214.554331 
z
" clip-path="url(#p1c5254db4b)" style="fill: #fde725; fill-opacity: 0.7"/>
   </g>
   <g id="matplotlib.axis_1"/>
   <g id="matplotlib.axis_2"/>
   <g id="line2d_1">
    <path d="M 185.098794 127.311844 
L 143.143031 110.264462 
" clip-path="url(#p1c5254db4b)" style="fill: none; stroke: #555555; stroke-opacity: 0.9; stroke-width: 0.5; stroke-linecap: square"/>
   </g>
   <g id="line2d_2">
    <path d="M 139.011024 151.545868 
L 185.098794 127.311844 
" clip-path="url(#p1c5254db4b)" style="fill: none; stroke: #555555; stroke-opacity: 0.9; stroke-width: 0.5; stroke-linecap: square"/>
   </g>
   <g id="line2d_3">
    <path d="M 139.011024 151.545868 
L 115.045383 214.554331 
" clip-path="url(#p1c5254db4b)" style="fill: none; stroke: #555555; stroke-opacity: 0.9; stroke-width: 0.5; stroke-linecap: square"/>
   </g>
   <g id="line2d_4">
    <path d="M 218.896492 151.545868 
L 185.098794 127.311844 
" clip-path="url(#p1c5254db4b)" style="fill: none; stroke: #555555; stroke-opacity: 0.9; stroke-width: 0.5; stroke-linecap: square"/>
   </g>
   <g id="line2d_5">
    <path d="M 178.953758 214.554331 
L 185.098794 127.311844 
" clip-path="url(#p1c5254db4b)" style="fill: none; stroke: #555555; stroke-opacity: 0.9; stroke-width: 0.5; stroke-linecap: square"/>
   </g>
   <g id="line2d_6">
    <path d="M 79.096922 120.041637 
L 99.068289 88.537406 
" clip-path="url(#p1c5254db4b)" style="fill: none; stroke: #555555; stroke-opacity: 0.9; stroke-width: 0.5; stroke-linecap: square"/>
   </g>
   <g id="line2d_7">
    <path d="M 218.896492 151.545868 
L 258.839227 214.554331 
" clip-path="url(#p1c5254db4b)" style="fill: none; stroke: #555555; stroke-opacity: 0.9; stroke-width: 0.5; stroke-linecap: square"/>
   </g>
   <g id="line2d_8">
    <path d="M 79.096922 120.041637 
L 139.011024 151.545868 
" clip-path="url(#p1c5254db4b)" style="fill: none; stroke: #555555; stroke-opacity: 0.9; stroke-width: 0.5; stroke-linecap: square"/>
   </g>
   <g id="line2d_9">
    <path d="M 168.968074 72.78529 
L 175.88124 83.690601 
" clip-path="url(#p1c5254db4b)" style="fill: none; stroke: #555555; stroke-opacity: 0.9; stroke-width: 0.5; stroke-linecap: square"/>
   </g>
   <g id="line2d_10">
    <path d="M 139.011024 214.554331 
L 178.953758 214.554331 
" clip-path="url(#p1c5254db4b)" style="fill: none; stroke: #555555; stroke-opacity: 0.9; stroke-width: 0.5; stroke-linecap: square"/>
   </g>
   <g id="line2d_11">
    <path d="M 99.068289 88.537406 
L 143.143031 110.264462 
" clip-path="url(#p1c5254db4b)" style="fill: none; stroke: #555555; stroke-opacity: 0.9; stroke-width: 0.5; stroke-linecap: square"/>
   </g>
   <g id="line2d_12">
    <path d="M 119.039656 57.033175 
L 139.011024 25.528943 
" clip-path="url(#p1c5254db4b)" style="fill: none; stroke: #555555; stroke-opacity: 0.9; stroke-width: 0.5; stroke-linecap: square"/>
   </g>
   <g id="line2d_13">
    <path d="M 168.968074 72.78529 
L 139.011024 25.528943 
" clip-path="url(#p1c5254db4b)" style="fill: none; stroke: #555555; stroke-opacity: 0.9; stroke-width: 0.5; stroke-linecap: square"/>
   </g>
   <g id="line2d_14">
    <path d="M 198.925125 214.554331 
L 203.533902 156.392673 
" clip-path="url(#p1c5254db4b)" style="fill: none; stroke: #555555; stroke-opacity: 0.9; stroke-width: 0.5; stroke-linecap: square"/>
   </g>
   <g id="line2d_15">
    <path d="M 178.953758 214.554331 
L 198.925125 214.554331 
" clip-path="url(#p1c5254db4b)" style="fill: none; stroke: #555555; stroke-opacity: 0.9; stroke-width: 0.5; stroke-linecap: square"/>
   </g>
   <g id="line2d_16">
    <path d="M 99.068289 88.537406 
L 119.039656 57.033175 
" clip-path="url(#p1c5254db4b)" style="fill: none; stroke: #555555; stroke-opacity: 0.9; stroke-width: 0.5; stroke-linecap: square"/>
   </g>
   <g id="line2d_17">
    <path d="M 198.925125 120.041637 
L 185.098794 127.311844 
" clip-path="url(#p1c5254db4b)" style="fill: none; stroke: #555555; stroke-opacity: 0.9; stroke-width: 0.5; stroke-linecap: square"/>
   </g>
   <g id="line2d_18">
    <path d="M 79.096922 120.041637 
L 19.18282 214.554331 
" clip-path="url(#p1c5254db4b)" style="fill: none; stroke: #555555; stroke-opacity: 0.9; stroke-width: 0.5; stroke-linecap: square"/>
   </g>
   <g id="line2d_19">
    <path d="M 115.045383 214.554331 
L 19.18282 214.554331 
" clip-path="url(#p1c5254db4b)" style="fill: none; stroke: #555555; stroke-opacity: 0.9; stroke-width: 0.5; stroke-linecap: square"/>
   </g>
   <g id="line2d_20">
    <path d="M 139.011024 214.554331 
L 115.045383 214.554331 
" clip-path="url(#p1c5254db4b)" style="fill: none; stroke: #555555; stroke-opacity: 0.9; stroke-width: 0.5; stroke-linecap: square"/>
   </g>
   <g id="line2d_21">
    <path d="M 168.968074 72.78529 
L 143.143031 110.264462 
" clip-path="url(#p1c5254db4b)" style="fill: none; stroke: #555555; stroke-opacity: 0.9; stroke-width: 0.5; stroke-linecap: square"/>
   </g>
   <g id="line2d_22">
    <path d="M 119.039656 57.033175 
L 143.143031 110.264462 
" clip-path="url(#p1c5254db4b)" style="fill: none; stroke: #555555; stroke-opacity: 0.9; stroke-width: 0.5; stroke-linecap: square"/>
   </g>
   <g id="line2d_23">
    <path d="M 198.925125 214.554331 
L 185.098794 127.311844 
" clip-path="url(#p1c5254db4b)" style="fill: none; stroke: #555555; stroke-opacity: 0.9; stroke-width: 0.5; stroke-linecap: square"/>
   </g>
   <g id="line2d_24">
    <path d="M 175.88124 83.690601 
L 185.098794 127.311844 
" clip-path="url(#p1c5254db4b)" style="fill: none; stroke: #555555; stroke-opacity: 0.9; stroke-width: 0.5; stroke-linecap: square"/>
   </g>
   <g id="line2d_25">
    <path d="M 198.925125 214.554331 
L 258.839227 214.554331 
" clip-path="url(#p1c5254db4b)" style="fill: none; stroke: #555555; stroke-opacity: 0.9; stroke-width: 0.5; stroke-linecap: square"/>
   </g>
   <g id="line2d_26">
    <path d="M 139.011024 151.545868 
L 178.953758 214.554331 
" clip-path="url(#p1c5254db4b)" style="fill: none; stroke: #555555; stroke-opacity: 0.9; stroke-width: 0.5; stroke-linecap: square"/>
   </g>
   <g id="line2d_27">
    <path d="M 139.011024 151.545868 
L 19.18282 214.554331 
" clip-path="url(#p1c5254db4b)" style="fill: none; stroke: #555555; stroke-opacity: 0.9; stroke-width: 0.5; stroke-linecap: square"/>
   </g>
   <g id="line2d_28">
    <path d="M 139.011024 151.545868 
L 143.143031 110.264462 
" clip-path="url(#p1c5254db4b)" style="fill: none; stroke: #555555; stroke-opacity: 0.9; stroke-width: 0.5; stroke-linecap: square"/>
   </g>
   <g id="line2d_29">
    <path d="M 218.896492 151.545868 
L 203.533902 156.392673 
" clip-path="url(#p1c5254db4b)" style="fill: none; stroke: #555555; stroke-opacity: 0.9; stroke-width: 0.5; stroke-linecap: square"/>
   </g>
   <g id="line2d_30">
    <path d="M 198.925125 120.041637 
L 218.896492 151.545868 
" clip-path="url(#p1c5254db4b)" style="fill: none; stroke: #555555; stroke-opacity: 0.9; stroke-width: 0.5; stroke-linecap: square"/>
   </g>
   <g id="line2d_31">
    <path d="M 99.068289 88.537406 
L 139.011024 151.545868 
" clip-path="url(#p1c5254db4b)" style="fill: none; stroke: #555555; stroke-opacity: 0.9; stroke-width: 0.5; stroke-linecap: square"/>
   </g>
   <g id="line2d_32">
    <path d="M 198.925125 120.041637 
L 175.88124 83.690601 
" clip-path="url(#p1c5254db4b)" style="fill: none; stroke: #555555; stroke-opacity: 0.9; stroke-width: 0.5; stroke-linecap: square"/>
   </g>
   <g id="line2d_33">
    <path d="M 139.011024 214.554331 
L 139.011024 151.545868 
" clip-path="url(#p1c5254db4b)" style="fill: none; stroke: #555555; stroke-opacity: 0.9; stroke-width: 0.5; stroke-linecap: square"/>
   </g>
   <g id="line2d_34">
    <path d="M 203.533902 156.392673 
L 258.839227 214.554331 
" clip-path="url(#p1c5254db4b)" style="fill: none; stroke: #555555; stroke-opacity: 0.9; stroke-width: 0.5; stroke-linecap: square"/>
   </g>
   <g id="line2d_35">
    <path d="M 168.968074 72.78529 
L 119.039656 57.033175 
" clip-path="url(#p1c5254db4b)" style="fill: none; stroke: #555555; stroke-opacity: 0.9; stroke-width: 0.5; stroke-linecap: square"/>
   </g>
   <g id="line2d_36">
    <path d="M 168.968074 72.78529 
L 185.098794 127.311844 
" clip-path="url(#p1c5254db4b)" style="fill: none; stroke: #555555; stroke-opacity: 0.9; stroke-width: 0.5; stroke-linecap: square"/>
   </g>
   <g id="line2d_37">
    <path d="M 185.098794 127.311844 
L 203.533902 156.392673 
" clip-path="url(#p1c5254db4b)" style="fill: none; stroke: #555555; stroke-opacity: 0.9; stroke-width: 0.5; stroke-linecap: square"/>
   </g>
   <g id="PathCollection_1">
    <defs>
     <path id="mbf208eb35c" d="M 0 2.738613 
C 0.726289 2.738613 1.422928 2.450055 1.936492 1.936492 
C 2.450055 1.422928 2.738613 0.726289 2.738613 0 
C 2.738613 -0.726289 2.450055 -1.422928 1.936492 -1.936492 
C 1.422928 -2.450055 0.726289 -2.738613 0 -2.738613 
C -0.726289 -2.738613 -1.422928 -2.450055 -1.936492 -1.936492 
C -2.450055 -1.422928 -2.738613 -0.726289 -2.738613 0 
C -2.738613 0.726289 -2.450055 1.422928 -1.936492 1.936492 
C -1.422928 2.450055 -0.726289 2.738613 0 2.738613 
z
" style="stroke: #008000"/>
    </defs>
    <g clip-path="url(#p1c5254db4b)">
     <use xlink:href="#mbf208eb35c" x="185.098794" y="127.311844" style="fill: #008000; stroke: #008000"/>
     <use xlink:href="#mbf208eb35c" x="143.143031" y="110.264462" style="fill: #008000; stroke: #008000"/>
     <use xlink:href="#mbf208eb35c" x="139.011024" y="151.545868" style="fill: #008000; stroke: #008000"/>
     <use xlink:href="#mbf208eb35c" x="115.045383" y="214.554331" style="fill: #008000; stroke: #008000"/>
     <use xlink:href="#mbf208eb35c" x="218.896492" y="151.545868" style="fill: #008000; stroke: #008000"/>
     <use xlink:href="#mbf208eb35c" x="178.953758" y="214.554331" style="fill: #008000; stroke: #008000"/>
     <use xlink:href="#mbf208eb35c" x="79.096922" y="120.041637" style="fill: #008000; stroke: #008000"/>
     <use xlink:href="#mbf208eb35c" x="99.068289" y="88.537406" style="fill: #008000; stroke: #008000"/>
     <use xlink:href="#mbf208eb35c" x="258.839227" y="214.554331" style="fill: #008000; stroke: #008000"/>
     <use xlink:href="#mbf208eb35c" x="168.968074" y="72.78529" style="fill: #008000; stroke: #008000"/>
     <use xlink:href="#mbf208eb35c" x="175.88124" y="83.690601" style="fill: #008000; stroke: #008000"/>
     <use xlink:href="#mbf208eb35c" x="139.011024" y="214.554331" style="fill: #008000; stroke: #008000"/>
     <use xlink:href="#mbf208eb35c" x="119.039656" y="57.033175" style="fill: #008000; stroke: #008000"/>
     <use xlink:href="#mbf208eb35c" x="139.011024" y="25.528943" style="fill: #008000; stroke: #008000"/>
     <use xlink:href="#mbf208eb35c" x="198.925125" y="214.554331" style="fill: #008000; stroke: #008000"/>
     <use xlink:href="#mbf208eb35c" x="203.533902" y="156.392673" style="fill: #008000; stroke: #008000"/>
     <use xlink:href="#mbf208eb35c" x="198.925125" y="120.041637" style="fill: #008000; stroke: #008000"/>
     <use xlink:href="#mbf208eb35c" x="19.18282" y="214.554331" style="fill: #008000; stroke: #008000"/>
    </g>
   </g>
   <g id="PathCollection_2">
    <defs>
     <path id="m2eae31737c" d="M -0 2.236068 
L 1.341641 0 
L 0 -2.236068 
L -1.341641 -0 
z
" style="stroke: #d3d3d3"/>
    </defs>
    <g clip-path="url(#p1c5254db4b)">
     <use xlink:href="#m2eae31737c" x="139.011024" y="25.528943" style="fill: #d3d3d3; stroke: #d3d3d3"/>
     <use xlink:href="#m2eae31737c" x="139.011024" y="25.528943" style="fill: #d3d3d3; stroke: #d3d3d3"/>
     <use xlink:href="#m2eae31737c" x="139.011024" y="25.528943" style="fill: #d3d3d3; stroke: #d3d3d3"/>
     <use xlink:href="#m2eae31737c" x="139.011024" y="25.528943" style="fill: #d3d3d3; stroke: #d3d3d3"/>
     <use xlink:href="#m2eae31737c" x="139.011024" y="25.528943" style="fill: #d3d3d3; stroke: #d3d3d3"/>
     <use xlink:href="#m2eae31737c" x="139.011024" y="25.528943" style="fill: #d3d3d3; stroke: #d3d3d3"/>
     <use xlink:href="#m2eae31737c" x="139.011024" y="25.528943" style="fill: #d3d3d3; stroke: #d3d3d3"/>
     <use xlink:href="#m2eae31737c" x="258.839227" y="214.554331" style="fill: #d3d3d3; stroke: #d3d3d3"/>
     <use xlink:href="#m2eae31737c" x="258.839227" y="214.554331" style="fill: #d3d3d3; stroke: #d3d3d3"/>
     <use xlink:href="#m2eae31737c" x="258.839227" y="214.554331" style="fill: #d3d3d3; stroke: #d3d3d3"/>
     <use xlink:href="#m2eae31737c" x="258.839227" y="214.554331" style="fill: #d3d3d3; stroke: #d3d3d3"/>
     <use xlink:href="#m2eae31737c" x="258.839227" y="214.554331" style="fill: #d3d3d3; stroke: #d3d3d3"/>
     <use xlink:href="#m2eae31737c" x="258.839227" y="214.554331" style="fill: #d3d3d3; stroke: #d3d3d3"/>
     <use xlink:href="#m2eae31737c" x="258.839227" y="214.554331" style="fill: #d3d3d3; stroke: #d3d3d3"/>
     <use xlink:href="#m2eae31737c" x="258.839227" y="214.554331" style="fill: #d3d3d3; stroke: #d3d3d3"/>
     <use xlink:href="#m2eae31737c" x="258.839227" y="214.554331" style="fill: #d3d3d3; stroke: #d3d3d3"/>
     <use xlink:href="#m2eae31737c" x="198.925125" y="120.041637" style="fill: #d3d3d3; stroke: #d3d3d3"/>
     <use xlink:href="#m2eae31737c" x="168.968074" y="72.78529" style="fill: #d3d3d3; stroke: #d3d3d3"/>
     <use xlink:href="#m2eae31737c" x="168.968074" y="72.78529" style="fill: #d3d3d3; stroke: #d3d3d3"/>
     <use xlink:href="#m2eae31737c" x="168.968074" y="72.78529" style="fill: #d3d3d3; stroke: #d3d3d3"/>
     <use xlink:href="#m2eae31737c" x="162.976664" y="63.334021" style="fill: #d3d3d3; stroke: #d3d3d3"/>
     <use xlink:href="#m2eae31737c" x="218.896492" y="151.545868" style="fill: #d3d3d3; stroke: #d3d3d3"/>
     <use xlink:href="#m2eae31737c" x="218.896492" y="151.545868" style="fill: #d3d3d3; stroke: #d3d3d3"/>
     <use xlink:href="#m2eae31737c" x="228.882176" y="167.297984" style="fill: #d3d3d3; stroke: #d3d3d3"/>
     <use xlink:href="#m2eae31737c" x="228.882176" y="167.297984" style="fill: #d3d3d3; stroke: #d3d3d3"/>
     <use xlink:href="#m2eae31737c" x="210.907946" y="138.944176" style="fill: #d3d3d3; stroke: #d3d3d3"/>
     <use xlink:href="#m2eae31737c" x="164.238014" y="65.323762" style="fill: #d3d3d3; stroke: #d3d3d3"/>
     <use xlink:href="#m2eae31737c" x="19.18282" y="214.554331" style="fill: #d3d3d3; stroke: #d3d3d3"/>
     <use xlink:href="#m2eae31737c" x="19.18282" y="214.554331" style="fill: #d3d3d3; stroke: #d3d3d3"/>
     <use xlink:href="#m2eae31737c" x="19.18282" y="214.554331" style="fill: #d3d3d3; stroke: #d3d3d3"/>
     <use xlink:href="#m2eae31737c" x="19.18282" y="214.554331" style="fill: #d3d3d3; stroke: #d3d3d3"/>
     <use xlink:href="#m2eae31737c" x="139.011024" y="151.545868" style="fill: #d3d3d3; stroke: #d3d3d3"/>
     <use xlink:href="#m2eae31737c" x="139.011024" y="88.537406" style="fill: #d3d3d3; stroke: #d3d3d3"/>
     <use xlink:href="#m2eae31737c" x="198.925125" y="214.554331" style="fill: #d3d3d3; stroke: #d3d3d3"/>
     <use xlink:href="#m2eae31737c" x="79.096922" y="214.554331" style="fill: #d3d3d3; stroke: #d3d3d3"/>
     <use xlink:href="#m2eae31737c" x="67.114102" y="214.554331" style="fill: #d3d3d3; stroke: #d3d3d3"/>
    </g>
   </g>
   <g id="PathCollection_3">
    <defs>
     <path id="mc86b84977a" d="M 0 -5 
L -1.12257 -1.545085 
L -4.755283 -1.545085 
L -1.816356 0.59017 
L -2.938926 4.045085 
L -0 1.90983 
L 2.938926 4.045085 
L 1.816356 0.59017 
L 4.755283 -1.545085 
L 1.12257 -1.545085 
z
" style="stroke: #ff0000"/>
    </defs>
    <g clip-path="url(#p1c5254db4b)">
     <use xlink:href="#mc86b84977a" x="203.533902" y="156.392673" style="fill: #ff0000; stroke: #ff0000"/>
    </g>
   </g>
   <g id="text_1">
    <!-- $\mathrm{Tm(AlCu)_{6}}$ -->
    <g transform="translate(140.366976 136.883265) scale(0.1 -0.1)">
     <defs>
      <path id="DejaVuSans-54" d="M -19 4666 
L 3928 4666 
L 3928 4134 
L 2272 4134 
L 2272 0 
L 1638 0 
L 1638 4134 
L -19 4134 
L -19 4666 
z
" transform="scale(0.015625)"/>
      <path id="DejaVuSans-6d" d="M 3328 2828 
Q 3544 3216 3844 3400 
Q 4144 3584 4550 3584 
Q 5097 3584 5394 3201 
Q 5691 2819 5691 2113 
L 5691 0 
L 5113 0 
L 5113 2094 
Q 5113 2597 4934 2840 
Q 4756 3084 4391 3084 
Q 3944 3084 3684 2787 
Q 3425 2491 3425 1978 
L 3425 0 
L 2847 0 
L 2847 2094 
Q 2847 2600 2669 2842 
Q 2491 3084 2119 3084 
Q 1678 3084 1418 2786 
Q 1159 2488 1159 1978 
L 1159 0 
L 581 0 
L 581 3500 
L 1159 3500 
L 1159 2956 
Q 1356 3278 1631 3431 
Q 1906 3584 2284 3584 
Q 2666 3584 2933 3390 
Q 3200 3197 3328 2828 
z
" transform="scale(0.015625)"/>
      <path id="DejaVuSans-28" d="M 1984 4856 
Q 1566 4138 1362 3434 
Q 1159 2731 1159 2009 
Q 1159 1288 1364 580 
Q 1569 -128 1984 -844 
L 1484 -844 
Q 1016 -109 783 600 
Q 550 1309 550 2009 
Q 550 2706 781 3412 
Q 1013 4119 1484 4856 
L 1984 4856 
z
" transform="scale(0.015625)"/>
      <path id="DejaVuSans-41" d="M 2188 4044 
L 1331 1722 
L 3047 1722 
L 2188 4044 
z
M 1831 4666 
L 2547 4666 
L 4325 0 
L 3669 0 
L 3244 1197 
L 1141 1197 
L 716 0 
L 50 0 
L 1831 4666 
z
" transform="scale(0.015625)"/>
      <path id="DejaVuSans-6c" d="M 603 4863 
L 1178 4863 
L 1178 0 
L 603 0 
L 603 4863 
z
" transform="scale(0.015625)"/>
      <path id="DejaVuSans-43" d="M 4122 4306 
L 4122 3641 
Q 3803 3938 3442 4084 
Q 3081 4231 2675 4231 
Q 1875 4231 1450 3742 
Q 1025 3253 1025 2328 
Q 1025 1406 1450 917 
Q 1875 428 2675 428 
Q 3081 428 3442 575 
Q 3803 722 4122 1019 
L 4122 359 
Q 3791 134 3420 21 
Q 3050 -91 2638 -91 
Q 1578 -91 968 557 
Q 359 1206 359 2328 
Q 359 3453 968 4101 
Q 1578 4750 2638 4750 
Q 3056 4750 3426 4639 
Q 3797 4528 4122 4306 
z
" transform="scale(0.015625)"/>
      <path id="DejaVuSans-75" d="M 544 1381 
L 544 3500 
L 1119 3500 
L 1119 1403 
Q 1119 906 1312 657 
Q 1506 409 1894 409 
Q 2359 409 2629 706 
Q 2900 1003 2900 1516 
L 2900 3500 
L 3475 3500 
L 3475 0 
L 2900 0 
L 2900 538 
Q 2691 219 2414 64 
Q 2138 -91 1772 -91 
Q 1169 -91 856 284 
Q 544 659 544 1381 
z
M 1991 3584 
L 1991 3584 
z
" transform="scale(0.015625)"/>
      <path id="DejaVuSans-29" d="M 513 4856 
L 1013 4856 
Q 1481 4119 1714 3412 
Q 1947 2706 1947 2009 
Q 1947 1309 1714 600 
Q 1481 -109 1013 -844 
L 513 -844 
Q 928 -128 1133 580 
Q 1338 1288 1338 2009 
Q 1338 2731 1133 3434 
Q 928 4138 513 4856 
z
" transform="scale(0.015625)"/>
      <path id="DejaVuSans-36" d="M 2113 2584 
Q 1688 2584 1439 2293 
Q 1191 2003 1191 1497 
Q 1191 994 1439 701 
Q 1688 409 2113 409 
Q 2538 409 2786 701 
Q 3034 994 3034 1497 
Q 3034 2003 2786 2293 
Q 2538 2584 2113 2584 
z
M 3366 4563 
L 3366 3988 
Q 3128 4100 2886 4159 
Q 2644 4219 2406 4219 
Q 1781 4219 1451 3797 
Q 1122 3375 1075 2522 
Q 1259 2794 1537 2939 
Q 1816 3084 2150 3084 
Q 2853 3084 3261 2657 
Q 3669 2231 3669 1497 
Q 3669 778 3244 343 
Q 2819 -91 2113 -91 
Q 1303 -91 875 529 
Q 447 1150 447 2328 
Q 447 3434 972 4092 
Q 1497 4750 2381 4750 
Q 2619 4750 2861 4703 
Q 3103 4656 3366 4563 
z
" transform="scale(0.015625)"/>
     </defs>
     <use xlink:href="#DejaVuSans-54" transform="translate(0 0.015625)"/>
     <use xlink:href="#DejaVuSans-6d" transform="translate(61.083984 0.015625)"/>
     <use xlink:href="#DejaVuSans-28" transform="translate(158.496094 0.015625)"/>
     <use xlink:href="#DejaVuSans-41" transform="translate(197.509766 0.015625)"/>
     <use xlink:href="#DejaVuSans-6c" transform="translate(265.917969 0.015625)"/>
     <use xlink:href="#DejaVuSans-43" transform="translate(293.701172 0.015625)"/>
     <use xlink:href="#DejaVuSans-75" transform="translate(363.525391 0.015625)"/>
     <use xlink:href="#DejaVuSans-29" transform="translate(426.904297 0.015625)"/>
     <use xlink:href="#DejaVuSans-36" transform="translate(466.875 -16.390625) scale(0.7)"/>
    </g>
   </g>
   <g id="text_2">
    <!-- $\mathrm{Tm_{6}Al_{7}Cu_{16}}$ -->
    <g transform="translate(91.988485 119.835883) scale(0.1 -0.1)">
     <defs>
      <path id="DejaVuSans-37" d="M 525 4666 
L 3525 4666 
L 3525 4397 
L 1831 0 
L 1172 0 
L 2766 4134 
L 525 4134 
L 525 4666 
z
" transform="scale(0.015625)"/>
      <path id="DejaVuSans-31" d="M 794 531 
L 1825 531 
L 1825 4091 
L 703 3866 
L 703 4441 
L 1819 4666 
L 2450 4666 
L 2450 531 
L 3481 531 
L 3481 0 
L 794 0 
L 794 531 
z
" transform="scale(0.015625)"/>
     </defs>
     <use xlink:href="#DejaVuSans-54" transform="translate(0 0.015625)"/>
     <use xlink:href="#DejaVuSans-6d" transform="translate(61.083984 0.015625)"/>
     <use xlink:href="#DejaVuSans-36" transform="translate(159.453125 -16.390625) scale(0.7)"/>
     <use xlink:href="#DejaVuSans-41" transform="translate(206.723633 0.015625)"/>
     <use xlink:href="#DejaVuSans-6c" transform="translate(275.131836 0.015625)"/>
     <use xlink:href="#DejaVuSans-37" transform="translate(303.87207 -16.390625) scale(0.7)"/>
     <use xlink:href="#DejaVuSans-43" transform="translate(351.142578 0.015625)"/>
     <use xlink:href="#DejaVuSans-75" transform="translate(420.966797 0.015625)"/>
     <use xlink:href="#DejaVuSans-31" transform="translate(485.302734 -16.390625) scale(0.7)"/>
     <use xlink:href="#DejaVuSans-36" transform="translate(529.838867 -16.390625) scale(0.7)"/>
    </g>
   </g>
   <g id="text_3">
    <!-- $\mathrm{TmAlCu}$ -->
    <g transform="translate(106.520115 159.742869) scale(0.1 -0.1)">
     <use xlink:href="#DejaVuSans-54" transform="translate(0 0.015625)"/>
     <use xlink:href="#DejaVuSans-6d" transform="translate(61.083984 0.015625)"/>
     <use xlink:href="#DejaVuSans-41" transform="translate(158.496094 0.015625)"/>
     <use xlink:href="#DejaVuSans-6c" transform="translate(226.904297 0.015625)"/>
     <use xlink:href="#DejaVuSans-43" transform="translate(254.6875 0.015625)"/>
     <use xlink:href="#DejaVuSans-75" transform="translate(324.511719 0.015625)"/>
    </g>
   </g>
   <g id="text_4">
    <!-- $\mathrm{Tm_{3}Al_{2}}$ -->
    <g transform="translate(107.263565 210.594971) scale(0.1 -0.1)">
     <defs>
      <path id="DejaVuSans-33" d="M 2597 2516 
Q 3050 2419 3304 2112 
Q 3559 1806 3559 1356 
Q 3559 666 3084 287 
Q 2609 -91 1734 -91 
Q 1441 -91 1130 -33 
Q 819 25 488 141 
L 488 750 
Q 750 597 1062 519 
Q 1375 441 1716 441 
Q 2309 441 2620 675 
Q 2931 909 2931 1356 
Q 2931 1769 2642 2001 
Q 2353 2234 1838 2234 
L 1294 2234 
L 1294 2753 
L 1863 2753 
Q 2328 2753 2575 2939 
Q 2822 3125 2822 3475 
Q 2822 3834 2567 4026 
Q 2313 4219 1838 4219 
Q 1578 4219 1281 4162 
Q 984 4106 628 3988 
L 628 4550 
Q 988 4650 1302 4700 
Q 1616 4750 1894 4750 
Q 2613 4750 3031 4423 
Q 3450 4097 3450 3541 
Q 3450 3153 3228 2886 
Q 3006 2619 2597 2516 
z
" transform="scale(0.015625)"/>
      <path id="DejaVuSans-32" d="M 1228 531 
L 3431 531 
L 3431 0 
L 469 0 
L 469 531 
Q 828 903 1448 1529 
Q 2069 2156 2228 2338 
Q 2531 2678 2651 2914 
Q 2772 3150 2772 3378 
Q 2772 3750 2511 3984 
Q 2250 4219 1831 4219 
Q 1534 4219 1204 4116 
Q 875 4013 500 3803 
L 500 4441 
Q 881 4594 1212 4672 
Q 1544 4750 1819 4750 
Q 2544 4750 2975 4387 
Q 3406 4025 3406 3419 
Q 3406 3131 3298 2873 
Q 3191 2616 2906 2266 
Q 2828 2175 2409 1742 
Q 1991 1309 1228 531 
z
" transform="scale(0.015625)"/>
     </defs>
     <use xlink:href="#DejaVuSans-54" transform="translate(0 0.015625)"/>
     <use xlink:href="#DejaVuSans-6d" transform="translate(61.083984 0.015625)"/>
     <use xlink:href="#DejaVuSans-33" transform="translate(159.453125 -16.390625) scale(0.7)"/>
     <use xlink:href="#DejaVuSans-41" transform="translate(206.723633 0.015625)"/>
     <use xlink:href="#DejaVuSans-6c" transform="translate(275.131836 0.015625)"/>
     <use xlink:href="#DejaVuSans-32" transform="translate(303.87207 -16.390625) scale(0.7)"/>
    </g>
   </g>
   <g id="text_5">
    <!-- $\mathrm{Al_{2}Cu}$ -->
    <g transform="translate(211.541947 147.420198) scale(0.1 -0.1)">
     <use xlink:href="#DejaVuSans-41" transform="translate(0 0.015625)"/>
     <use xlink:href="#DejaVuSans-6c" transform="translate(68.408203 0.015625)"/>
     <use xlink:href="#DejaVuSans-32" transform="translate(97.148438 -16.390625) scale(0.7)"/>
     <use xlink:href="#DejaVuSans-43" transform="translate(144.418945 0.015625)"/>
     <use xlink:href="#DejaVuSans-75" transform="translate(214.243164 0.015625)"/>
    </g>
   </g>
   <g id="text_6">
    <!-- $\mathrm{TmAl_{2}}$ -->
    <g transform="translate(171.658304 210.544971) scale(0.1 -0.1)">
     <use xlink:href="#DejaVuSans-54" transform="translate(0 0.015625)"/>
     <use xlink:href="#DejaVuSans-6d" transform="translate(61.083984 0.015625)"/>
     <use xlink:href="#DejaVuSans-41" transform="translate(158.496094 0.015625)"/>
     <use xlink:href="#DejaVuSans-6c" transform="translate(226.904297 0.015625)"/>
     <use xlink:href="#DejaVuSans-32" transform="translate(255.644531 -16.390625) scale(0.7)"/>
    </g>
   </g>
   <g id="text_7">
    <!-- $\mathrm{TmCu}$ -->
    <g transform="translate(55.333286 128.238638) scale(0.1 -0.1)">
     <use xlink:href="#DejaVuSans-54" transform="translate(0 0.78125)"/>
     <use xlink:href="#DejaVuSans-6d" transform="translate(61.083984 0.78125)"/>
     <use xlink:href="#DejaVuSans-43" transform="translate(158.496094 0.78125)"/>
     <use xlink:href="#DejaVuSans-75" transform="translate(228.320312 0.78125)"/>
    </g>
   </g>
   <g id="text_8">
    <!-- $\mathrm{TmCu_{2}}$ -->
    <g transform="translate(70.941016 97.385289) scale(0.1 -0.1)">
     <use xlink:href="#DejaVuSans-54" transform="translate(0 0.78125)"/>
     <use xlink:href="#DejaVuSans-6d" transform="translate(61.083984 0.78125)"/>
     <use xlink:href="#DejaVuSans-43" transform="translate(158.496094 0.78125)"/>
     <use xlink:href="#DejaVuSans-75" transform="translate(228.320312 0.78125)"/>
     <use xlink:href="#DejaVuSans-32" transform="translate(292.65625 -15.625) scale(0.7)"/>
    </g>
   </g>
   <g id="text_9">
    <!-- $\mathrm{Al}$ -->
    <g transform="translate(249.389691 211.215873) scale(0.1 -0.1)">
     <use xlink:href="#DejaVuSans-41" transform="translate(0 0.015625)"/>
     <use xlink:href="#DejaVuSans-6c" transform="translate(68.408203 0.015625)"/>
    </g>
   </g>
   <g id="text_10">
    <!-- $\mathrm{AlCu_{3}}$ -->
    <g transform="translate(161.613529 68.638869) scale(0.1 -0.1)">
     <use xlink:href="#DejaVuSans-41" transform="translate(0 0.015625)"/>
     <use xlink:href="#DejaVuSans-6c" transform="translate(68.408203 0.015625)"/>
     <use xlink:href="#DejaVuSans-43" transform="translate(96.191406 0.015625)"/>
     <use xlink:href="#DejaVuSans-75" transform="translate(166.015625 0.015625)"/>
     <use xlink:href="#DejaVuSans-33" transform="translate(230.351562 -16.390625) scale(0.7)"/>
    </g>
   </g>
   <g id="text_11">
    <!-- $\mathrm{Al_{4}Cu_{9}}$ -->
    <g transform="translate(175.944876 87.026639) scale(0.1 -0.1)">
     <defs>
      <path id="DejaVuSans-34" d="M 2419 4116 
L 825 1625 
L 2419 1625 
L 2419 4116 
z
M 2253 4666 
L 3047 4666 
L 3047 1625 
L 3713 1625 
L 3713 1100 
L 3047 1100 
L 3047 0 
L 2419 0 
L 2419 1100 
L 313 1100 
L 313 1709 
L 2253 4666 
z
" transform="scale(0.015625)"/>
      <path id="DejaVuSans-39" d="M 703 97 
L 703 672 
Q 941 559 1184 500 
Q 1428 441 1663 441 
Q 2288 441 2617 861 
Q 2947 1281 2994 2138 
Q 2813 1869 2534 1725 
Q 2256 1581 1919 1581 
Q 1219 1581 811 2004 
Q 403 2428 403 3163 
Q 403 3881 828 4315 
Q 1253 4750 1959 4750 
Q 2769 4750 3195 4129 
Q 3622 3509 3622 2328 
Q 3622 1225 3098 567 
Q 2575 -91 1691 -91 
Q 1453 -91 1209 -44 
Q 966 3 703 97 
z
M 1959 2075 
Q 2384 2075 2632 2365 
Q 2881 2656 2881 3163 
Q 2881 3666 2632 3958 
Q 2384 4250 1959 4250 
Q 1534 4250 1286 3958 
Q 1038 3666 1038 3163 
Q 1038 2656 1286 2365 
Q 1534 2075 1959 2075 
z
" transform="scale(0.015625)"/>
     </defs>
     <use xlink:href="#DejaVuSans-41" transform="translate(0 0.015625)"/>
     <use xlink:href="#DejaVuSans-6c" transform="translate(68.408203 0.015625)"/>
     <use xlink:href="#DejaVuSans-34" transform="translate(97.148438 -16.390625) scale(0.7)"/>
     <use xlink:href="#DejaVuSans-43" transform="translate(144.418945 0.015625)"/>
     <use xlink:href="#DejaVuSans-75" transform="translate(214.243164 0.015625)"/>
     <use xlink:href="#DejaVuSans-39" transform="translate(278.579102 -16.390625) scale(0.7)"/>
    </g>
   </g>
   <g id="text_12">
    <!-- $\mathrm{TmAl}$ -->
    <g transform="translate(142.62466 209.968797) scale(0.1 -0.1)">
     <use xlink:href="#DejaVuSans-54" transform="translate(0 0.015625)"/>
     <use xlink:href="#DejaVuSans-6d" transform="translate(61.083984 0.015625)"/>
     <use xlink:href="#DejaVuSans-41" transform="translate(158.496094 0.015625)"/>
     <use xlink:href="#DejaVuSans-6c" transform="translate(226.904297 0.015625)"/>
    </g>
   </g>
   <g id="text_13">
    <!-- $\mathrm{TmCu_{5}}$ -->
    <g transform="translate(90.912384 65.931057) scale(0.1 -0.1)">
     <defs>
      <path id="DejaVuSans-35" d="M 691 4666 
L 3169 4666 
L 3169 4134 
L 1269 4134 
L 1269 2991 
Q 1406 3038 1543 3061 
Q 1681 3084 1819 3084 
Q 2600 3084 3056 2656 
Q 3513 2228 3513 1497 
Q 3513 744 3044 326 
Q 2575 -91 1722 -91 
Q 1428 -91 1123 -41 
Q 819 9 494 109 
L 494 744 
Q 775 591 1075 516 
Q 1375 441 1709 441 
Q 2250 441 2565 725 
Q 2881 1009 2881 1497 
Q 2881 1984 2565 2268 
Q 2250 2553 1709 2553 
Q 1456 2553 1204 2497 
Q 953 2441 691 2322 
L 691 4666 
z
" transform="scale(0.015625)"/>
     </defs>
     <use xlink:href="#DejaVuSans-54" transform="translate(0 0.78125)"/>
     <use xlink:href="#DejaVuSans-6d" transform="translate(61.083984 0.78125)"/>
     <use xlink:href="#DejaVuSans-43" transform="translate(158.496094 0.78125)"/>
     <use xlink:href="#DejaVuSans-75" transform="translate(228.320312 0.78125)"/>
     <use xlink:href="#DejaVuSans-35" transform="translate(292.65625 -15.625) scale(0.7)"/>
    </g>
   </g>
   <g id="text_14">
    <!-- $\mathrm{Cu}$ -->
    <g transform="translate(129.692842 33.725944) scale(0.1 -0.1)">
     <use xlink:href="#DejaVuSans-43" transform="translate(0 0.78125)"/>
     <use xlink:href="#DejaVuSans-75" transform="translate(69.824219 0.78125)"/>
    </g>
   </g>
   <g id="text_15">
    <!-- $\mathrm{TmAl_{3}}$ -->
    <g transform="translate(202.756943 210.594971) scale(0.1 -0.1)">
     <use xlink:href="#DejaVuSans-54" transform="translate(0 0.015625)"/>
     <use xlink:href="#DejaVuSans-6d" transform="translate(61.083984 0.015625)"/>
     <use xlink:href="#DejaVuSans-41" transform="translate(158.496094 0.015625)"/>
     <use xlink:href="#DejaVuSans-6c" transform="translate(226.904297 0.015625)"/>
     <use xlink:href="#DejaVuSans-33" transform="translate(255.644531 -16.390625) scale(0.7)"/>
    </g>
   </g>
   <g id="text_16">
    <!-- $\mathrm{AlCu}$ -->
    <g transform="translate(199.206943 117.014949) scale(0.1 -0.1)">
     <use xlink:href="#DejaVuSans-41" transform="translate(0 0.015625)"/>
     <use xlink:href="#DejaVuSans-6c" transform="translate(68.408203 0.015625)"/>
     <use xlink:href="#DejaVuSans-43" transform="translate(96.191406 0.015625)"/>
     <use xlink:href="#DejaVuSans-75" transform="translate(166.015625 0.015625)"/>
    </g>
   </g>
   <g id="text_17">
    <!-- $\mathrm{Tm}$ -->
    <g transform="translate(19.345225 212.151181) scale(0.1 -0.1)">
     <use xlink:href="#DejaVuSans-54" transform="translate(0 0.09375)"/>
     <use xlink:href="#DejaVuSans-6d" transform="translate(61.083984 0.09375)"/>
    </g>
   </g>
   <g id="text_18">
    <!-- $\mathrm{Tm(Al_{2}Cu)_{4}}$ -->
    <g style="fill: #ff0000" transform="translate(154.438448 165.290556) scale(0.1 -0.1)">
     <use xlink:href="#DejaVuSans-54" transform="translate(0 0.015625)"/>
     <use xlink:href="#DejaVuSans-6d" transform="translate(61.083984 0.015625)"/>
     <use xlink:href="#DejaVuSans-28" transform="translate(158.496094 0.015625)"/>
     <use xlink:href="#DejaVuSans-41" transform="translate(197.509766 0.015625)"/>
     <use xlink:href="#DejaVuSans-6c" transform="translate(265.917969 0.015625)"/>
     <use xlink:href="#DejaVuSans-32" transform="translate(294.658203 -16.390625) scale(0.7)"/>
     <use xlink:href="#DejaVuSans-43" transform="translate(341.928711 0.015625)"/>
     <use xlink:href="#DejaVuSans-75" transform="translate(411.75293 0.015625)"/>
     <use xlink:href="#DejaVuSans-29" transform="translate(475.131836 0.015625)"/>
     <use xlink:href="#DejaVuSans-34" transform="translate(515.102539 -16.390625) scale(0.7)"/>
    </g>
   </g>
  </g>
  <g id="axes_2">
   <g id="patch_3">
    <path d="M 287.298425 195.703937 
L 296.029134 195.703937 
L 296.029134 36.96378 
L 287.298425 36.96378 
L 287.298425 195.703937 
z
" style="fill: none"/>
   </g>
   <g id="patch_4">
    <path d="M 287.298425 195.703937 
L 291.66378 203.640945 
L 296.029134 195.703937 
" style="fill: #440154; opacity: 0.7"/>
   </g>
   <g id="patch_5">
    <path d="M 287.298425 36.96378 
L 291.66378 29.026772 
L 296.029134 36.96378 
" style="fill: #fde725; opacity: 0.7"/>
   </g>
   <g id="QuadMesh_1">
    <path d="M 287.298425 195.703937 
L 296.029134 195.703937 
L 296.029134 192.39685 
L 287.298425 192.39685 
L 287.298425 195.703937 
" clip-path="url(#p528ee98b9f)" style="fill: #450457; fill-opacity: 0.7"/>
    <path d="M 287.298425 192.39685 
L 296.029134 192.39685 
L 296.029134 189.089764 
L 287.298425 189.089764 
L 287.298425 192.39685 
" clip-path="url(#p528ee98b9f)" style="fill: #470d60; fill-opacity: 0.7"/>
    <path d="M 287.298425 189.089764 
L 296.029134 189.089764 
L 296.029134 185.782677 
L 287.298425 185.782677 
L 287.298425 189.089764 
" clip-path="url(#p528ee98b9f)" style="fill: #481467; fill-opacity: 0.7"/>
    <path d="M 287.298425 185.782677 
L 296.029134 185.782677 
L 296.029134 182.475591 
L 287.298425 182.475591 
L 287.298425 185.782677 
" clip-path="url(#p528ee98b9f)" style="fill: #481b6d; fill-opacity: 0.7"/>
    <path d="M 287.298425 182.475591 
L 296.029134 182.475591 
L 296.029134 179.168504 
L 287.298425 179.168504 
L 287.298425 182.475591 
" clip-path="url(#p528ee98b9f)" style="fill: #482173; fill-opacity: 0.7"/>
    <path d="M 287.298425 179.168504 
L 296.029134 179.168504 
L 296.029134 175.861417 
L 287.298425 175.861417 
L 287.298425 179.168504 
" clip-path="url(#p528ee98b9f)" style="fill: #482979; fill-opacity: 0.7"/>
    <path d="M 287.298425 175.861417 
L 296.029134 175.861417 
L 296.029134 172.554331 
L 287.298425 172.554331 
L 287.298425 175.861417 
" clip-path="url(#p528ee98b9f)" style="fill: #472f7d; fill-opacity: 0.7"/>
    <path d="M 287.298425 172.554331 
L 296.029134 172.554331 
L 296.029134 169.247244 
L 287.298425 169.247244 
L 287.298425 172.554331 
" clip-path="url(#p528ee98b9f)" style="fill: #453581; fill-opacity: 0.7"/>
    <path d="M 287.298425 169.247244 
L 296.029134 169.247244 
L 296.029134 165.940157 
L 287.298425 165.940157 
L 287.298425 169.247244 
" clip-path="url(#p528ee98b9f)" style="fill: #433d84; fill-opacity: 0.7"/>
    <path d="M 287.298425 165.940157 
L 296.029134 165.940157 
L 296.029134 162.633071 
L 287.298425 162.633071 
L 287.298425 165.940157 
" clip-path="url(#p528ee98b9f)" style="fill: #414287; fill-opacity: 0.7"/>
    <path d="M 287.298425 162.633071 
L 296.029134 162.633071 
L 296.029134 159.325984 
L 287.298425 159.325984 
L 287.298425 162.633071 
" clip-path="url(#p528ee98b9f)" style="fill: #3f4889; fill-opacity: 0.7"/>
    <path d="M 287.298425 159.325984 
L 296.029134 159.325984 
L 296.029134 156.018898 
L 287.298425 156.018898 
L 287.298425 159.325984 
" clip-path="url(#p528ee98b9f)" style="fill: #3c4f8a; fill-opacity: 0.7"/>
    <path d="M 287.298425 156.018898 
L 296.029134 156.018898 
L 296.029134 152.711811 
L 287.298425 152.711811 
L 287.298425 156.018898 
" clip-path="url(#p528ee98b9f)" style="fill: #3a548c; fill-opacity: 0.7"/>
    <path d="M 287.298425 152.711811 
L 296.029134 152.711811 
L 296.029134 149.404724 
L 287.298425 149.404724 
L 287.298425 152.711811 
" clip-path="url(#p528ee98b9f)" style="fill: #375b8d; fill-opacity: 0.7"/>
    <path d="M 287.298425 149.404724 
L 296.029134 149.404724 
L 296.029134 146.097638 
L 287.298425 146.097638 
L 287.298425 149.404724 
" clip-path="url(#p528ee98b9f)" style="fill: #34608d; fill-opacity: 0.7"/>
    <path d="M 287.298425 146.097638 
L 296.029134 146.097638 
L 296.029134 142.790551 
L 287.298425 142.790551 
L 287.298425 146.097638 
" clip-path="url(#p528ee98b9f)" style="fill: #32658e; fill-opacity: 0.7"/>
    <path d="M 287.298425 142.790551 
L 296.029134 142.790551 
L 296.029134 139.483465 
L 287.298425 139.483465 
L 287.298425 142.790551 
" clip-path="url(#p528ee98b9f)" style="fill: #2f6b8e; fill-opacity: 0.7"/>
    <path d="M 287.298425 139.483465 
L 296.029134 139.483465 
L 296.029134 136.176378 
L 287.298425 136.176378 
L 287.298425 139.483465 
" clip-path="url(#p528ee98b9f)" style="fill: #2d708e; fill-opacity: 0.7"/>
    <path d="M 287.298425 136.176378 
L 296.029134 136.176378 
L 296.029134 132.869291 
L 287.298425 132.869291 
L 287.298425 136.176378 
" clip-path="url(#p528ee98b9f)" style="fill: #2b748e; fill-opacity: 0.7"/>
    <path d="M 287.298425 132.869291 
L 296.029134 132.869291 
L 296.029134 129.562205 
L 287.298425 129.562205 
L 287.298425 132.869291 
" clip-path="url(#p528ee98b9f)" style="fill: #29798e; fill-opacity: 0.7"/>
    <path d="M 287.298425 129.562205 
L 296.029134 129.562205 
L 296.029134 126.255118 
L 287.298425 126.255118 
L 287.298425 129.562205 
" clip-path="url(#p528ee98b9f)" style="fill: #277f8e; fill-opacity: 0.7"/>
    <path d="M 287.298425 126.255118 
L 296.029134 126.255118 
L 296.029134 122.948031 
L 287.298425 122.948031 
L 287.298425 126.255118 
" clip-path="url(#p528ee98b9f)" style="fill: #25838e; fill-opacity: 0.7"/>
    <path d="M 287.298425 122.948031 
L 296.029134 122.948031 
L 296.029134 119.640945 
L 287.298425 119.640945 
L 287.298425 122.948031 
" clip-path="url(#p528ee98b9f)" style="fill: #23888e; fill-opacity: 0.7"/>
    <path d="M 287.298425 119.640945 
L 296.029134 119.640945 
L 296.029134 116.333858 
L 287.298425 116.333858 
L 287.298425 119.640945 
" clip-path="url(#p528ee98b9f)" style="fill: #218e8d; fill-opacity: 0.7"/>
    <path d="M 287.298425 116.333858 
L 296.029134 116.333858 
L 296.029134 113.026772 
L 287.298425 113.026772 
L 287.298425 116.333858 
" clip-path="url(#p528ee98b9f)" style="fill: #20928c; fill-opacity: 0.7"/>
    <path d="M 287.298425 113.026772 
L 296.029134 113.026772 
L 296.029134 109.719685 
L 287.298425 109.719685 
L 287.298425 113.026772 
" clip-path="url(#p528ee98b9f)" style="fill: #1f988b; fill-opacity: 0.7"/>
    <path d="M 287.298425 109.719685 
L 296.029134 109.719685 
L 296.029134 106.412598 
L 287.298425 106.412598 
L 287.298425 109.719685 
" clip-path="url(#p528ee98b9f)" style="fill: #1e9d89; fill-opacity: 0.7"/>
    <path d="M 287.298425 106.412598 
L 296.029134 106.412598 
L 296.029134 103.105512 
L 287.298425 103.105512 
L 287.298425 106.412598 
" clip-path="url(#p528ee98b9f)" style="fill: #1fa187; fill-opacity: 0.7"/>
    <path d="M 287.298425 103.105512 
L 296.029134 103.105512 
L 296.029134 99.798425 
L 287.298425 99.798425 
L 287.298425 103.105512 
" clip-path="url(#p528ee98b9f)" style="fill: #22a785; fill-opacity: 0.7"/>
    <path d="M 287.298425 99.798425 
L 296.029134 99.798425 
L 296.029134 96.491339 
L 287.298425 96.491339 
L 287.298425 99.798425 
" clip-path="url(#p528ee98b9f)" style="fill: #25ac82; fill-opacity: 0.7"/>
    <path d="M 287.298425 96.491339 
L 296.029134 96.491339 
L 296.029134 93.184252 
L 287.298425 93.184252 
L 287.298425 96.491339 
" clip-path="url(#p528ee98b9f)" style="fill: #2ab07f; fill-opacity: 0.7"/>
    <path d="M 287.298425 93.184252 
L 296.029134 93.184252 
L 296.029134 89.877165 
L 287.298425 89.877165 
L 287.298425 93.184252 
" clip-path="url(#p528ee98b9f)" style="fill: #32b67a; fill-opacity: 0.7"/>
    <path d="M 287.298425 89.877165 
L 296.029134 89.877165 
L 296.029134 86.570079 
L 287.298425 86.570079 
L 287.298425 89.877165 
" clip-path="url(#p528ee98b9f)" style="fill: #3aba76; fill-opacity: 0.7"/>
    <path d="M 287.298425 86.570079 
L 296.029134 86.570079 
L 296.029134 83.262992 
L 287.298425 83.262992 
L 287.298425 86.570079 
" clip-path="url(#p528ee98b9f)" style="fill: #42be71; fill-opacity: 0.7"/>
    <path d="M 287.298425 83.262992 
L 296.029134 83.262992 
L 296.029134 79.955906 
L 287.298425 79.955906 
L 287.298425 83.262992 
" clip-path="url(#p528ee98b9f)" style="fill: #4ec36b; fill-opacity: 0.7"/>
    <path d="M 287.298425 79.955906 
L 296.029134 79.955906 
L 296.029134 76.648819 
L 287.298425 76.648819 
L 287.298425 79.955906 
" clip-path="url(#p528ee98b9f)" style="fill: #58c765; fill-opacity: 0.7"/>
    <path d="M 287.298425 76.648819 
L 296.029134 76.648819 
L 296.029134 73.341732 
L 287.298425 73.341732 
L 287.298425 76.648819 
" clip-path="url(#p528ee98b9f)" style="fill: #63cb5f; fill-opacity: 0.7"/>
    <path d="M 287.298425 73.341732 
L 296.029134 73.341732 
L 296.029134 70.034646 
L 287.298425 70.034646 
L 287.298425 73.341732 
" clip-path="url(#p528ee98b9f)" style="fill: #70cf57; fill-opacity: 0.7"/>
    <path d="M 287.298425 70.034646 
L 296.029134 70.034646 
L 296.029134 66.727559 
L 287.298425 66.727559 
L 287.298425 70.034646 
" clip-path="url(#p528ee98b9f)" style="fill: #7cd250; fill-opacity: 0.7"/>
    <path d="M 287.298425 66.727559 
L 296.029134 66.727559 
L 296.029134 63.420472 
L 287.298425 63.420472 
L 287.298425 66.727559 
" clip-path="url(#p528ee98b9f)" style="fill: #89d548; fill-opacity: 0.7"/>
    <path d="M 287.298425 63.420472 
L 296.029134 63.420472 
L 296.029134 60.113386 
L 287.298425 60.113386 
L 287.298425 63.420472 
" clip-path="url(#p528ee98b9f)" style="fill: #98d83e; fill-opacity: 0.7"/>
    <path d="M 287.298425 60.113386 
L 296.029134 60.113386 
L 296.029134 56.806299 
L 287.298425 56.806299 
L 287.298425 60.113386 
" clip-path="url(#p528ee98b9f)" style="fill: #a5db36; fill-opacity: 0.7"/>
    <path d="M 287.298425 56.806299 
L 296.029134 56.806299 
L 296.029134 53.499213 
L 287.298425 53.499213 
L 287.298425 56.806299 
" clip-path="url(#p528ee98b9f)" style="fill: #b2dd2d; fill-opacity: 0.7"/>
    <path d="M 287.298425 53.499213 
L 296.029134 53.499213 
L 296.029134 50.192126 
L 287.298425 50.192126 
L 287.298425 53.499213 
" clip-path="url(#p528ee98b9f)" style="fill: #c2df23; fill-opacity: 0.7"/>
    <path d="M 287.298425 50.192126 
L 296.029134 50.192126 
L 296.029134 46.885039 
L 287.298425 46.885039 
L 287.298425 50.192126 
" clip-path="url(#p528ee98b9f)" style="fill: #d0e11c; fill-opacity: 0.7"/>
    <path d="M 287.298425 46.885039 
L 296.029134 46.885039 
L 296.029134 43.577953 
L 287.298425 43.577953 
L 287.298425 46.885039 
" clip-path="url(#p528ee98b9f)" style="fill: #dde318; fill-opacity: 0.7"/>
    <path d="M 287.298425 43.577953 
L 296.029134 43.577953 
L 296.029134 40.270866 
L 287.298425 40.270866 
L 287.298425 43.577953 
" clip-path="url(#p528ee98b9f)" style="fill: #ece51b; fill-opacity: 0.7"/>
    <path d="M 287.298425 40.270866 
L 296.029134 40.270866 
L 296.029134 36.96378 
L 287.298425 36.96378 
L 287.298425 40.270866 
" clip-path="url(#p528ee98b9f)" style="fill: #f8e621; fill-opacity: 0.7"/>
   </g>
   <g id="matplotlib.axis_3"/>
   <g id="matplotlib.axis_4">
    <g id="ytick_1">
     <g id="line2d_38">
      <defs>
       <path id="m8c17b168a0" d="M 0 0 
L -2 0 
" style="stroke: #000000; stroke-width: 0.3"/>
      </defs>
      <g>
       <use xlink:href="#m8c17b168a0" x="296.029134" y="185.782677" style="stroke: #000000; stroke-width: 0.3"/>
      </g>
     </g>
     <g id="text_19">
      <!-- 0.46 -->
      <g transform="translate(299.529134 188.645802) scale(0.08 -0.08)">
       <defs>
        <path id="ArialMT-2212" d="M 3381 1997 
L 356 1997 
L 356 2522 
L 3381 2522 
L 3381 1997 
z
" transform="scale(0.015625)"/>
        <path id="ArialMT-30" d="M 266 2259 
Q 266 3072 433 3567 
Q 600 4063 929 4331 
Q 1259 4600 1759 4600 
Q 2128 4600 2406 4451 
Q 2684 4303 2865 4023 
Q 3047 3744 3150 3342 
Q 3253 2941 3253 2259 
Q 3253 1453 3087 958 
Q 2922 463 2592 192 
Q 2263 -78 1759 -78 
Q 1097 -78 719 397 
Q 266 969 266 2259 
z
M 844 2259 
Q 844 1131 1108 757 
Q 1372 384 1759 384 
Q 2147 384 2411 759 
Q 2675 1134 2675 2259 
Q 2675 3391 2411 3762 
Q 2147 4134 1753 4134 
Q 1366 4134 1134 3806 
Q 844 3388 844 2259 
z
" transform="scale(0.015625)"/>
        <path id="ArialMT-2e" d="M 581 0 
L 581 641 
L 1222 641 
L 1222 0 
L 581 0 
z
" transform="scale(0.015625)"/>
        <path id="ArialMT-34" d="M 2069 0 
L 2069 1097 
L 81 1097 
L 81 1613 
L 2172 4581 
L 2631 4581 
L 2631 1613 
L 3250 1613 
L 3250 1097 
L 2631 1097 
L 2631 0 
L 2069 0 
z
M 2069 1613 
L 2069 3678 
L 634 1613 
L 2069 1613 
z
" transform="scale(0.015625)"/>
        <path id="ArialMT-36" d="M 3184 3459 
L 2625 3416 
Q 2550 3747 2413 3897 
Q 2184 4138 1850 4138 
Q 1581 4138 1378 3988 
Q 1113 3794 959 3422 
Q 806 3050 800 2363 
Q 1003 2672 1297 2822 
Q 1591 2972 1913 2972 
Q 2475 2972 2870 2558 
Q 3266 2144 3266 1488 
Q 3266 1056 3080 686 
Q 2894 316 2569 119 
Q 2244 -78 1831 -78 
Q 1128 -78 684 439 
Q 241 956 241 2144 
Q 241 3472 731 4075 
Q 1159 4600 1884 4600 
Q 2425 4600 2770 4297 
Q 3116 3994 3184 3459 
z
M 888 1484 
Q 888 1194 1011 928 
Q 1134 663 1356 523 
Q 1578 384 1822 384 
Q 2178 384 2434 671 
Q 2691 959 2691 1453 
Q 2691 1928 2437 2201 
Q 2184 2475 1800 2475 
Q 1419 2475 1153 2201 
Q 888 1928 888 1484 
z
" transform="scale(0.015625)"/>
       </defs>
       <use xlink:href="#ArialMT-2212"/>
       <use xlink:href="#ArialMT-30" transform="translate(58.398438 0)"/>
       <use xlink:href="#ArialMT-2e" transform="translate(114.013672 0)"/>
       <use xlink:href="#ArialMT-34" transform="translate(141.796875 0)"/>
       <use xlink:href="#ArialMT-36" transform="translate(197.412109 0)"/>
      </g>
     </g>
    </g>
    <g id="ytick_2">
     <g id="line2d_39">
      <g>
       <use xlink:href="#m8c17b168a0" x="296.029134" y="169.247244" style="stroke: #000000; stroke-width: 0.3"/>
      </g>
     </g>
     <g id="text_20">
      <!-- 0.41 -->
      <g transform="translate(299.529134 172.110369) scale(0.08 -0.08)">
       <defs>
        <path id="ArialMT-31" d="M 2384 0 
L 1822 0 
L 1822 3584 
Q 1619 3391 1289 3197 
Q 959 3003 697 2906 
L 697 3450 
Q 1169 3672 1522 3987 
Q 1875 4303 2022 4600 
L 2384 4600 
L 2384 0 
z
" transform="scale(0.015625)"/>
       </defs>
       <use xlink:href="#ArialMT-2212"/>
       <use xlink:href="#ArialMT-30" transform="translate(58.398438 0)"/>
       <use xlink:href="#ArialMT-2e" transform="translate(114.013672 0)"/>
       <use xlink:href="#ArialMT-34" transform="translate(141.796875 0)"/>
       <use xlink:href="#ArialMT-31" transform="translate(197.412109 0)"/>
      </g>
     </g>
    </g>
    <g id="ytick_3">
     <g id="line2d_40">
      <g>
       <use xlink:href="#m8c17b168a0" x="296.029134" y="152.711811" style="stroke: #000000; stroke-width: 0.3"/>
      </g>
     </g>
     <g id="text_21">
      <!-- 0.36 -->
      <g transform="translate(299.529134 155.574936) scale(0.08 -0.08)">
       <defs>
        <path id="ArialMT-33" d="M 269 1209 
L 831 1284 
Q 928 806 1161 595 
Q 1394 384 1728 384 
Q 2125 384 2398 659 
Q 2672 934 2672 1341 
Q 2672 1728 2419 1979 
Q 2166 2231 1775 2231 
Q 1616 2231 1378 2169 
L 1441 2663 
Q 1497 2656 1531 2656 
Q 1891 2656 2178 2843 
Q 2466 3031 2466 3422 
Q 2466 3731 2256 3934 
Q 2047 4138 1716 4138 
Q 1388 4138 1169 3931 
Q 950 3725 888 3313 
L 325 3413 
Q 428 3978 793 4289 
Q 1159 4600 1703 4600 
Q 2078 4600 2393 4439 
Q 2709 4278 2876 4000 
Q 3044 3722 3044 3409 
Q 3044 3113 2884 2869 
Q 2725 2625 2413 2481 
Q 2819 2388 3044 2092 
Q 3269 1797 3269 1353 
Q 3269 753 2831 336 
Q 2394 -81 1725 -81 
Q 1122 -81 723 278 
Q 325 638 269 1209 
z
" transform="scale(0.015625)"/>
       </defs>
       <use xlink:href="#ArialMT-2212"/>
       <use xlink:href="#ArialMT-30" transform="translate(58.398438 0)"/>
       <use xlink:href="#ArialMT-2e" transform="translate(114.013672 0)"/>
       <use xlink:href="#ArialMT-33" transform="translate(141.796875 0)"/>
       <use xlink:href="#ArialMT-36" transform="translate(197.412109 0)"/>
      </g>
     </g>
    </g>
    <g id="ytick_4">
     <g id="line2d_41">
      <g>
       <use xlink:href="#m8c17b168a0" x="296.029134" y="136.176378" style="stroke: #000000; stroke-width: 0.3"/>
      </g>
     </g>
     <g id="text_22">
      <!-- 0.31 -->
      <g transform="translate(299.529134 139.039503) scale(0.08 -0.08)">
       <use xlink:href="#ArialMT-2212"/>
       <use xlink:href="#ArialMT-30" transform="translate(58.398438 0)"/>
       <use xlink:href="#ArialMT-2e" transform="translate(114.013672 0)"/>
       <use xlink:href="#ArialMT-33" transform="translate(141.796875 0)"/>
       <use xlink:href="#ArialMT-31" transform="translate(197.412109 0)"/>
      </g>
     </g>
    </g>
    <g id="ytick_5">
     <g id="line2d_42">
      <g>
       <use xlink:href="#m8c17b168a0" x="296.029134" y="119.640945" style="stroke: #000000; stroke-width: 0.3"/>
      </g>
     </g>
     <g id="text_23">
      <!-- 0.26 -->
      <g transform="translate(299.529134 122.50407) scale(0.08 -0.08)">
       <defs>
        <path id="ArialMT-32" d="M 3222 541 
L 3222 0 
L 194 0 
Q 188 203 259 391 
Q 375 700 629 1000 
Q 884 1300 1366 1694 
Q 2113 2306 2375 2664 
Q 2638 3022 2638 3341 
Q 2638 3675 2398 3904 
Q 2159 4134 1775 4134 
Q 1369 4134 1125 3890 
Q 881 3647 878 3216 
L 300 3275 
Q 359 3922 746 4261 
Q 1134 4600 1788 4600 
Q 2447 4600 2831 4234 
Q 3216 3869 3216 3328 
Q 3216 3053 3103 2787 
Q 2991 2522 2730 2228 
Q 2469 1934 1863 1422 
Q 1356 997 1212 845 
Q 1069 694 975 541 
L 3222 541 
z
" transform="scale(0.015625)"/>
       </defs>
       <use xlink:href="#ArialMT-2212"/>
       <use xlink:href="#ArialMT-30" transform="translate(58.398438 0)"/>
       <use xlink:href="#ArialMT-2e" transform="translate(114.013672 0)"/>
       <use xlink:href="#ArialMT-32" transform="translate(141.796875 0)"/>
       <use xlink:href="#ArialMT-36" transform="translate(197.412109 0)"/>
      </g>
     </g>
    </g>
    <g id="ytick_6">
     <g id="line2d_43">
      <g>
       <use xlink:href="#m8c17b168a0" x="296.029134" y="103.105512" style="stroke: #000000; stroke-width: 0.3"/>
      </g>
     </g>
     <g id="text_24">
      <!-- 0.21 -->
      <g transform="translate(299.529134 105.968637) scale(0.08 -0.08)">
       <use xlink:href="#ArialMT-2212"/>
       <use xlink:href="#ArialMT-30" transform="translate(58.398438 0)"/>
       <use xlink:href="#ArialMT-2e" transform="translate(114.013672 0)"/>
       <use xlink:href="#ArialMT-32" transform="translate(141.796875 0)"/>
       <use xlink:href="#ArialMT-31" transform="translate(197.412109 0)"/>
      </g>
     </g>
    </g>
    <g id="ytick_7">
     <g id="line2d_44">
      <g>
       <use xlink:href="#m8c17b168a0" x="296.029134" y="86.570079" style="stroke: #000000; stroke-width: 0.3"/>
      </g>
     </g>
     <g id="text_25">
      <!-- 0.16 -->
      <g transform="translate(299.529134 89.433204) scale(0.08 -0.08)">
       <use xlink:href="#ArialMT-2212"/>
       <use xlink:href="#ArialMT-30" transform="translate(58.398438 0)"/>
       <use xlink:href="#ArialMT-2e" transform="translate(114.013672 0)"/>
       <use xlink:href="#ArialMT-31" transform="translate(141.796875 0)"/>
       <use xlink:href="#ArialMT-36" transform="translate(197.412109 0)"/>
      </g>
     </g>
    </g>
    <g id="ytick_8">
     <g id="line2d_45">
      <g>
       <use xlink:href="#m8c17b168a0" x="296.029134" y="70.034646" style="stroke: #000000; stroke-width: 0.3"/>
      </g>
     </g>
     <g id="text_26">
      <!-- 0.11 -->
      <g transform="translate(299.529134 72.897771) scale(0.08 -0.08)">
       <use xlink:href="#ArialMT-2212"/>
       <use xlink:href="#ArialMT-30" transform="translate(58.398438 0)"/>
       <use xlink:href="#ArialMT-2e" transform="translate(114.013672 0)"/>
       <use xlink:href="#ArialMT-31" transform="translate(141.796875 0)"/>
       <use xlink:href="#ArialMT-31" transform="translate(190.037109 0)"/>
      </g>
     </g>
    </g>
    <g id="ytick_9">
     <g id="line2d_46">
      <g>
       <use xlink:href="#m8c17b168a0" x="296.029134" y="53.499213" style="stroke: #000000; stroke-width: 0.3"/>
      </g>
     </g>
     <g id="text_27">
      <!-- 0.06 -->
      <g transform="translate(299.529134 56.362338) scale(0.08 -0.08)">
       <use xlink:href="#ArialMT-2212"/>
       <use xlink:href="#ArialMT-30" transform="translate(58.398438 0)"/>
       <use xlink:href="#ArialMT-2e" transform="translate(114.013672 0)"/>
       <use xlink:href="#ArialMT-30" transform="translate(141.796875 0)"/>
       <use xlink:href="#ArialMT-36" transform="translate(197.412109 0)"/>
      </g>
     </g>
    </g>
    <g id="ytick_10">
     <g id="line2d_47">
      <g>
       <use xlink:href="#m8c17b168a0" x="296.029134" y="36.96378" style="stroke: #000000; stroke-width: 0.3"/>
      </g>
     </g>
     <g id="text_28">
      <!-- 0.01 -->
      <g transform="translate(299.529134 39.826905) scale(0.08 -0.08)">
       <use xlink:href="#ArialMT-2212"/>
       <use xlink:href="#ArialMT-30" transform="translate(58.398438 0)"/>
       <use xlink:href="#ArialMT-2e" transform="translate(114.013672 0)"/>
       <use xlink:href="#ArialMT-30" transform="translate(141.796875 0)"/>
       <use xlink:href="#ArialMT-31" transform="translate(197.412109 0)"/>
      </g>
     </g>
    </g>
    <g id="text_29">
     <!-- Formation Energy (eV/atom) -->
     <g transform="translate(331.050071 179.408077) rotate(-90) scale(0.1 -0.1)">
      <defs>
       <path id="ArialMT-46" d="M 525 0 
L 525 4581 
L 3616 4581 
L 3616 4041 
L 1131 4041 
L 1131 2622 
L 3281 2622 
L 3281 2081 
L 1131 2081 
L 1131 0 
L 525 0 
z
" transform="scale(0.015625)"/>
       <path id="ArialMT-6f" d="M 213 1659 
Q 213 2581 725 3025 
Q 1153 3394 1769 3394 
Q 2453 3394 2887 2945 
Q 3322 2497 3322 1706 
Q 3322 1066 3130 698 
Q 2938 331 2570 128 
Q 2203 -75 1769 -75 
Q 1072 -75 642 372 
Q 213 819 213 1659 
z
M 791 1659 
Q 791 1022 1069 705 
Q 1347 388 1769 388 
Q 2188 388 2466 706 
Q 2744 1025 2744 1678 
Q 2744 2294 2464 2611 
Q 2184 2928 1769 2928 
Q 1347 2928 1069 2612 
Q 791 2297 791 1659 
z
" transform="scale(0.015625)"/>
       <path id="ArialMT-72" d="M 416 0 
L 416 3319 
L 922 3319 
L 922 2816 
Q 1116 3169 1280 3281 
Q 1444 3394 1641 3394 
Q 1925 3394 2219 3213 
L 2025 2691 
Q 1819 2813 1613 2813 
Q 1428 2813 1281 2702 
Q 1134 2591 1072 2394 
Q 978 2094 978 1738 
L 978 0 
L 416 0 
z
" transform="scale(0.015625)"/>
       <path id="ArialMT-6d" d="M 422 0 
L 422 3319 
L 925 3319 
L 925 2853 
Q 1081 3097 1340 3245 
Q 1600 3394 1931 3394 
Q 2300 3394 2536 3241 
Q 2772 3088 2869 2813 
Q 3263 3394 3894 3394 
Q 4388 3394 4653 3120 
Q 4919 2847 4919 2278 
L 4919 0 
L 4359 0 
L 4359 2091 
Q 4359 2428 4304 2576 
Q 4250 2725 4106 2815 
Q 3963 2906 3769 2906 
Q 3419 2906 3187 2673 
Q 2956 2441 2956 1928 
L 2956 0 
L 2394 0 
L 2394 2156 
Q 2394 2531 2256 2718 
Q 2119 2906 1806 2906 
Q 1569 2906 1367 2781 
Q 1166 2656 1075 2415 
Q 984 2175 984 1722 
L 984 0 
L 422 0 
z
" transform="scale(0.015625)"/>
       <path id="ArialMT-61" d="M 2588 409 
Q 2275 144 1986 34 
Q 1697 -75 1366 -75 
Q 819 -75 525 192 
Q 231 459 231 875 
Q 231 1119 342 1320 
Q 453 1522 633 1644 
Q 813 1766 1038 1828 
Q 1203 1872 1538 1913 
Q 2219 1994 2541 2106 
Q 2544 2222 2544 2253 
Q 2544 2597 2384 2738 
Q 2169 2928 1744 2928 
Q 1347 2928 1158 2789 
Q 969 2650 878 2297 
L 328 2372 
Q 403 2725 575 2942 
Q 747 3159 1072 3276 
Q 1397 3394 1825 3394 
Q 2250 3394 2515 3294 
Q 2781 3194 2906 3042 
Q 3031 2891 3081 2659 
Q 3109 2516 3109 2141 
L 3109 1391 
Q 3109 606 3145 398 
Q 3181 191 3288 0 
L 2700 0 
Q 2613 175 2588 409 
z
M 2541 1666 
Q 2234 1541 1622 1453 
Q 1275 1403 1131 1340 
Q 988 1278 909 1158 
Q 831 1038 831 891 
Q 831 666 1001 516 
Q 1172 366 1500 366 
Q 1825 366 2078 508 
Q 2331 650 2450 897 
Q 2541 1088 2541 1459 
L 2541 1666 
z
" transform="scale(0.015625)"/>
       <path id="ArialMT-74" d="M 1650 503 
L 1731 6 
Q 1494 -44 1306 -44 
Q 1000 -44 831 53 
Q 663 150 594 308 
Q 525 466 525 972 
L 525 2881 
L 113 2881 
L 113 3319 
L 525 3319 
L 525 4141 
L 1084 4478 
L 1084 3319 
L 1650 3319 
L 1650 2881 
L 1084 2881 
L 1084 941 
Q 1084 700 1114 631 
Q 1144 563 1211 522 
Q 1278 481 1403 481 
Q 1497 481 1650 503 
z
" transform="scale(0.015625)"/>
       <path id="ArialMT-69" d="M 425 3934 
L 425 4581 
L 988 4581 
L 988 3934 
L 425 3934 
z
M 425 0 
L 425 3319 
L 988 3319 
L 988 0 
L 425 0 
z
" transform="scale(0.015625)"/>
       <path id="ArialMT-6e" d="M 422 0 
L 422 3319 
L 928 3319 
L 928 2847 
Q 1294 3394 1984 3394 
Q 2284 3394 2536 3286 
Q 2788 3178 2913 3003 
Q 3038 2828 3088 2588 
Q 3119 2431 3119 2041 
L 3119 0 
L 2556 0 
L 2556 2019 
Q 2556 2363 2490 2533 
Q 2425 2703 2258 2804 
Q 2091 2906 1866 2906 
Q 1506 2906 1245 2678 
Q 984 2450 984 1813 
L 984 0 
L 422 0 
z
" transform="scale(0.015625)"/>
       <path id="ArialMT-20" transform="scale(0.015625)"/>
       <path id="ArialMT-45" d="M 506 0 
L 506 4581 
L 3819 4581 
L 3819 4041 
L 1113 4041 
L 1113 2638 
L 3647 2638 
L 3647 2100 
L 1113 2100 
L 1113 541 
L 3925 541 
L 3925 0 
L 506 0 
z
" transform="scale(0.015625)"/>
       <path id="ArialMT-65" d="M 2694 1069 
L 3275 997 
Q 3138 488 2766 206 
Q 2394 -75 1816 -75 
Q 1088 -75 661 373 
Q 234 822 234 1631 
Q 234 2469 665 2931 
Q 1097 3394 1784 3394 
Q 2450 3394 2872 2941 
Q 3294 2488 3294 1666 
Q 3294 1616 3291 1516 
L 816 1516 
Q 847 969 1125 678 
Q 1403 388 1819 388 
Q 2128 388 2347 550 
Q 2566 713 2694 1069 
z
M 847 1978 
L 2700 1978 
Q 2663 2397 2488 2606 
Q 2219 2931 1791 2931 
Q 1403 2931 1139 2672 
Q 875 2413 847 1978 
z
" transform="scale(0.015625)"/>
       <path id="ArialMT-67" d="M 319 -275 
L 866 -356 
Q 900 -609 1056 -725 
Q 1266 -881 1628 -881 
Q 2019 -881 2231 -725 
Q 2444 -569 2519 -288 
Q 2563 -116 2559 434 
Q 2191 0 1641 0 
Q 956 0 581 494 
Q 206 988 206 1678 
Q 206 2153 378 2554 
Q 550 2956 876 3175 
Q 1203 3394 1644 3394 
Q 2231 3394 2613 2919 
L 2613 3319 
L 3131 3319 
L 3131 450 
Q 3131 -325 2973 -648 
Q 2816 -972 2473 -1159 
Q 2131 -1347 1631 -1347 
Q 1038 -1347 672 -1080 
Q 306 -813 319 -275 
z
M 784 1719 
Q 784 1066 1043 766 
Q 1303 466 1694 466 
Q 2081 466 2343 764 
Q 2606 1063 2606 1700 
Q 2606 2309 2336 2618 
Q 2066 2928 1684 2928 
Q 1309 2928 1046 2623 
Q 784 2319 784 1719 
z
" transform="scale(0.015625)"/>
       <path id="ArialMT-79" d="M 397 -1278 
L 334 -750 
Q 519 -800 656 -800 
Q 844 -800 956 -737 
Q 1069 -675 1141 -563 
Q 1194 -478 1313 -144 
Q 1328 -97 1363 -6 
L 103 3319 
L 709 3319 
L 1400 1397 
Q 1534 1031 1641 628 
Q 1738 1016 1872 1384 
L 2581 3319 
L 3144 3319 
L 1881 -56 
Q 1678 -603 1566 -809 
Q 1416 -1088 1222 -1217 
Q 1028 -1347 759 -1347 
Q 597 -1347 397 -1278 
z
" transform="scale(0.015625)"/>
       <path id="ArialMT-28" d="M 1497 -1347 
Q 1031 -759 709 28 
Q 388 816 388 1659 
Q 388 2403 628 3084 
Q 909 3875 1497 4659 
L 1900 4659 
Q 1522 4009 1400 3731 
Q 1209 3300 1100 2831 
Q 966 2247 966 1656 
Q 966 153 1900 -1347 
L 1497 -1347 
z
" transform="scale(0.015625)"/>
       <path id="ArialMT-56" d="M 1803 0 
L 28 4581 
L 684 4581 
L 1875 1253 
Q 2019 853 2116 503 
Q 2222 878 2363 1253 
L 3600 4581 
L 4219 4581 
L 2425 0 
L 1803 0 
z
" transform="scale(0.015625)"/>
       <path id="ArialMT-2f" d="M 0 -78 
L 1328 4659 
L 1778 4659 
L 453 -78 
L 0 -78 
z
" transform="scale(0.015625)"/>
       <path id="ArialMT-29" d="M 791 -1347 
L 388 -1347 
Q 1322 153 1322 1656 
Q 1322 2244 1188 2822 
Q 1081 3291 891 3722 
Q 769 4003 388 4659 
L 791 4659 
Q 1378 3875 1659 3084 
Q 1900 2403 1900 1659 
Q 1900 816 1576 28 
Q 1253 -759 791 -1347 
z
" transform="scale(0.015625)"/>
      </defs>
      <use xlink:href="#ArialMT-46"/>
      <use xlink:href="#ArialMT-6f" transform="translate(61.083984 0)"/>
      <use xlink:href="#ArialMT-72" transform="translate(116.699219 0)"/>
      <use xlink:href="#ArialMT-6d" transform="translate(150 0)"/>
      <use xlink:href="#ArialMT-61" transform="translate(233.300781 0)"/>
      <use xlink:href="#ArialMT-74" transform="translate(288.916016 0)"/>
      <use xlink:href="#ArialMT-69" transform="translate(316.699219 0)"/>
      <use xlink:href="#ArialMT-6f" transform="translate(338.916016 0)"/>
      <use xlink:href="#ArialMT-6e" transform="translate(394.53125 0)"/>
      <use xlink:href="#ArialMT-20" transform="translate(450.146484 0)"/>
      <use xlink:href="#ArialMT-45" transform="translate(477.929688 0)"/>
      <use xlink:href="#ArialMT-6e" transform="translate(544.628906 0)"/>
      <use xlink:href="#ArialMT-65" transform="translate(600.244141 0)"/>
      <use xlink:href="#ArialMT-72" transform="translate(655.859375 0)"/>
      <use xlink:href="#ArialMT-67" transform="translate(689.160156 0)"/>
      <use xlink:href="#ArialMT-79" transform="translate(744.775391 0)"/>
      <use xlink:href="#ArialMT-20" transform="translate(794.775391 0)"/>
      <use xlink:href="#ArialMT-28" transform="translate(822.558594 0)"/>
      <use xlink:href="#ArialMT-65" transform="translate(855.859375 0)"/>
      <use xlink:href="#ArialMT-56" transform="translate(911.474609 0)"/>
      <use xlink:href="#ArialMT-2f" transform="translate(978.173828 0)"/>
      <use xlink:href="#ArialMT-61" transform="translate(1005.957031 0)"/>
      <use xlink:href="#ArialMT-74" transform="translate(1061.572266 0)"/>
      <use xlink:href="#ArialMT-6f" transform="translate(1089.355469 0)"/>
      <use xlink:href="#ArialMT-6d" transform="translate(1144.970703 0)"/>
      <use xlink:href="#ArialMT-29" transform="translate(1228.271484 0)"/>
     </g>
    </g>
   </g>
   <g id="LineCollection_1"/>
   <g id="patch_6">
    <path d="M 287.298425 195.703937 
L 291.66378 203.640945 
L 296.029134 195.703937 
L 296.029134 36.96378 
L 291.66378 29.026772 
L 287.298425 36.96378 
L 287.298425 195.703937 
z
" style="fill: none; stroke: #000000; stroke-width: 0.8; stroke-linejoin: miter; stroke-linecap: square"/>
   </g>
  </g>
 </g>
 <defs>
  <clipPath id="p1c5254db4b">
   <rect x="7.2" y="7.2" width="263.622047" height="218.267717"/>
  </clipPath>
  <clipPath id="p528ee98b9f">
   <rect x="287.298425" y="36.96378" width="8.730709" height="158.740157"/>
  </clipPath>
 </defs>
</svg>
