<?xml version="1.0" encoding="utf-8" standalone="no"?>
<!DOCTYPE svg PUBLIC "-//W3C//DTD SVG 1.1//EN"
  "http://www.w3.org/Graphics/SVG/1.1/DTD/svg11.dtd">
<svg xmlns:xlink="http://www.w3.org/1999/xlink" width="340.354759pt" height="232.667717pt" viewBox="0 0 340.354759 232.667717" xmlns="http://www.w3.org/2000/svg" version="1.1">
 <metadata>
  <rdf:RDF xmlns:dc="http://purl.org/dc/elements/1.1/" xmlns:cc="http://creativecommons.org/ns#" xmlns:rdf="http://www.w3.org/1999/02/22-rdf-syntax-ns#">
   <cc:Work>
    <dc:type rdf:resource="http://purl.org/dc/dcmitype/StillImage"/>
    <dc:date>2026-01-27T21:37:46.201648</dc:date>
    <dc:format>image/svg+xml</dc:format>
    <dc:creator>
     <cc:Agent>
      <dc:title>Matplotlib v3.10.8, https://matplotlib.org/</dc:title>
     </cc:Agent>
    </dc:creator>
   </cc:Work>
  </rdf:RDF>
 </metadata>
 <defs>
  <style type="text/css">*{stroke-linejoin: round; stroke-linecap: butt}</style>
 </defs>
 <g id="figure_1">
  <g id="patch_1">
   <path d="M 0 232.667717 
L 340.354759 232.667717 
L 340.354759 0 
L 0 0 
L 0 232.667717 
z
" style="fill: none"/>
  </g>
  <g id="axes_1">
   <g id="patch_2">
    <path d="M 7.2 225.467717 
L 270.822047 225.467717 
L 270.822047 7.2 
L 7.2 7.2 
L 7.2 225.467717 
z
" style="fill: none"/>
   </g>
   <g id="TriContourSet_1">
    <path d="M 183.258756 214.554331 
L 175.232438 205.748926 
L 172.098922 214.554331 
L 178.953758 214.554331 
z
" clip-path="url(#p2265a3bdbc)" style="fill: #440154; fill-opacity: 0.7"/>
    <path d="M 172.098922 214.554331 
L 175.232438 205.748926 
L 183.258756 214.554331 
L 189.508096 214.554331 
L 169.830394 192.966582 
L 162.148116 214.554331 
z
" clip-path="url(#p2265a3bdbc)" style="fill: #450457; fill-opacity: 0.7"/>
    <path d="M 162.148116 214.554331 
L 169.830394 192.966582 
L 189.508096 214.554331 
L 195.757436 214.554331 
L 164.42835 180.184239 
L 152.197311 214.554331 
z
" clip-path="url(#p2265a3bdbc)" style="fill: #470d60; fill-opacity: 0.7"/>
    <path d="M 199.574556 214.554331 
L 199.28083 213.432105 
L 198.925125 212.624512 
L 198.464774 211.940044 
L 191.887758 203.453095 
L 159.026306 167.401896 
L 142.246506 214.554331 
L 152.197311 214.554331 
L 164.42835 180.184239 
L 195.757436 214.554331 
L 198.925125 214.554331 
z
" clip-path="url(#p2265a3bdbc)" style="fill: #481467; fill-opacity: 0.7"/>
    <path d="M 200.891548 214.554331 
L 200.002169 211.156322 
L 198.925125 208.710995 
L 197.531217 206.638479 
L 177.61654 180.940678 
L 153.624262 154.619552 
L 139.011024 195.683793 
L 136.574604 210.710953 
L 136.19733 214.554331 
L 139.011024 214.554331 
L 142.246506 214.554331 
L 159.026306 167.401896 
L 191.887758 203.453095 
L 198.464774 211.940044 
L 198.925125 212.624512 
L 199.28083 213.432105 
L 199.574556 214.554331 
z
" clip-path="url(#p2265a3bdbc)" style="fill: #481c6e; fill-opacity: 0.7"/>
    <path d="M 202.208541 214.554331 
L 200.723509 208.880538 
L 198.925125 204.797478 
L 196.597661 201.336915 
L 163.345322 158.42826 
L 148.222217 141.837209 
L 139.011024 167.72132 
L 132.964304 205.015813 
L 132.027983 214.554331 
L 136.19733 214.554331 
L 136.574604 210.710953 
L 139.011024 195.683793 
L 153.624262 154.619552 
L 177.61654 180.940678 
L 197.531217 206.638479 
L 198.925125 208.710995 
L 200.002169 211.156322 
L 200.891548 214.554331 
z
" clip-path="url(#p2265a3bdbc)" style="fill: #482374; fill-opacity: 0.7"/>
    <path d="M 203.525534 214.554331 
L 201.444849 206.604755 
L 198.925125 200.883961 
L 195.664105 196.03535 
L 149.074104 135.915843 
L 142.820173 129.054865 
L 139.011024 139.758847 
L 129.354004 199.320673 
L 127.858636 214.554331 
L 132.027983 214.554331 
L 132.964304 205.015813 
L 139.011024 167.72132 
L 148.222217 141.837209 
L 163.345322 158.42826 
L 196.597661 201.336915 
L 198.925125 204.797478 
L 200.723509 208.880538 
L 202.208541 214.554331 
z
" clip-path="url(#p2265a3bdbc)" style="fill: #482979; fill-opacity: 0.7"/>
    <path d="M 204.842526 214.554331 
L 202.166188 204.328971 
L 198.925125 196.970444 
L 194.730549 190.733786 
L 139.541728 119.518405 
L 139.40628 119.418132 
L 139.011024 119.366763 
L 138.24338 119.43617 
L 137.674183 120.041637 
L 125.743704 193.625533 
L 123.689288 214.554331 
L 127.858636 214.554331 
L 129.354004 199.320673 
L 139.011024 139.758847 
L 142.820173 129.054865 
L 149.074104 135.915843 
L 195.664105 196.03535 
L 198.925125 200.883961 
L 201.444849 206.604755 
L 203.525534 214.554331 
z
" clip-path="url(#p2265a3bdbc)" style="fill: #46307e; fill-opacity: 0.7"/>
    <path d="M 206.159519 214.554331 
L 202.887528 202.053188 
L 198.925125 193.056927 
L 193.796993 185.432221 
L 141.341528 117.743949 
L 140.746727 117.303617 
L 139.011024 117.078035 
L 135.64004 117.382825 
L 133.140505 120.041637 
L 122.133404 187.930393 
L 119.519941 214.554331 
L 123.689288 214.554331 
L 125.743704 193.625533 
L 137.674183 120.041637 
L 138.24338 119.43617 
L 139.011024 119.366763 
L 139.40628 119.418132 
L 139.541728 119.518405 
L 194.730549 190.733786 
L 198.925125 196.970444 
L 202.166188 204.328971 
L 204.842526 214.554331 
z
" clip-path="url(#p2265a3bdbc)" style="fill: #453781; fill-opacity: 0.7"/>
    <path d="M 207.476512 214.554331 
L 203.608868 199.777405 
L 198.925125 189.14341 
L 192.863437 180.130657 
L 143.141327 115.969493 
L 142.087175 115.189101 
L 139.011024 114.789308 
L 133.036701 115.32948 
L 128.606827 120.041637 
L 118.523104 182.235254 
L 115.350594 214.554331 
L 119.519941 214.554331 
L 122.133404 187.930393 
L 133.140505 120.041637 
L 135.64004 117.382825 
L 139.011024 117.078035 
L 140.746727 117.303617 
L 141.341528 117.743949 
L 193.796993 185.432221 
L 198.925125 193.056927 
L 202.887528 202.053188 
L 206.159519 214.554331 
z
" clip-path="url(#p2265a3bdbc)" style="fill: #433e85; fill-opacity: 0.7"/>
    <path d="M 208.793504 214.554331 
L 204.330208 197.501621 
L 198.925125 185.229893 
L 191.92988 174.829092 
L 144.941127 114.195037 
L 143.427622 113.074585 
L 139.011024 112.500581 
L 130.433362 113.276135 
L 124.073149 120.041637 
L 114.912804 176.540114 
L 111.181246 214.554331 
L 115.350594 214.554331 
L 118.523104 182.235254 
L 128.606827 120.041637 
L 133.036701 115.32948 
L 139.011024 114.789308 
L 142.087175 115.189101 
L 143.141327 115.969493 
L 192.863437 180.130657 
L 198.925125 189.14341 
L 203.608868 199.777405 
L 207.476512 214.554331 
z
" clip-path="url(#p2265a3bdbc)" style="fill: #414487; fill-opacity: 0.7"/>
    <path d="M 210.110497 214.554331 
L 205.051547 195.225838 
L 198.925125 181.316376 
L 190.996324 169.527527 
L 146.740926 112.420581 
L 144.76807 110.96007 
L 139.011024 110.211853 
L 127.830022 111.22279 
L 119.539471 120.041637 
L 111.302504 170.844974 
L 107.011899 214.554331 
L 111.181246 214.554331 
L 114.912804 176.540114 
L 124.073149 120.041637 
L 130.433362 113.276135 
L 139.011024 112.500581 
L 143.427622 113.074585 
L 144.941127 114.195037 
L 191.92988 174.829092 
L 198.925125 185.229893 
L 204.330208 197.501621 
L 208.793504 214.554331 
z
" clip-path="url(#p2265a3bdbc)" style="fill: #3e4a89; fill-opacity: 0.7"/>
    <path d="M 211.42749 214.554331 
L 205.772887 192.950054 
L 198.925125 177.402859 
L 190.062768 164.225963 
L 148.540726 110.646125 
L 146.108517 108.845554 
L 139.011024 107.923126 
L 125.226683 109.169446 
L 115.005793 120.041637 
L 107.692204 165.149834 
L 102.842552 214.554331 
L 107.011899 214.554331 
L 111.302504 170.844974 
L 119.539471 120.041637 
L 127.830022 111.22279 
L 139.011024 110.211853 
L 144.76807 110.96007 
L 146.740926 112.420581 
L 190.996324 169.527527 
L 198.925125 181.316376 
L 205.051547 195.225838 
L 210.110497 214.554331 
z
" clip-path="url(#p2265a3bdbc)" style="fill: #3c508b; fill-opacity: 0.7"/>
    <path d="M 212.744483 214.554331 
L 206.494227 190.674271 
L 198.925125 173.489342 
L 189.129212 158.924398 
L 150.340525 108.871669 
L 147.448965 106.731039 
L 139.011024 105.634399 
L 122.623344 107.116101 
L 110.472115 120.041637 
L 104.081904 159.454694 
L 98.798523 213.277686 
L 98.8377 214.554331 
L 99.068289 214.554331 
L 102.842552 214.554331 
L 107.692204 165.149834 
L 115.005793 120.041637 
L 125.226683 109.169446 
L 139.011024 107.923126 
L 146.108517 108.845554 
L 148.540726 110.646125 
L 190.062768 164.225963 
L 198.925125 177.402859 
L 205.772887 192.950054 
L 211.42749 214.554331 
z
" clip-path="url(#p2265a3bdbc)" style="fill: #39568c; fill-opacity: 0.7"/>
    <path d="M 214.061475 214.554331 
L 207.215566 188.398487 
L 198.925125 169.575825 
L 188.195656 153.622834 
L 152.140325 107.097214 
L 148.789412 104.616523 
L 139.011024 103.345672 
L 120.020004 105.062756 
L 105.938437 120.041637 
L 100.471604 153.759554 
L 95.951665 199.805188 
L 96.404276 214.554331 
L 98.8377 214.554331 
L 98.798523 213.277686 
L 104.081904 159.454694 
L 110.472115 120.041637 
L 122.623344 107.116101 
L 139.011024 105.634399 
L 147.448965 106.731039 
L 150.340525 108.871669 
L 189.129212 158.924398 
L 198.925125 173.489342 
L 206.494227 190.674271 
L 212.744483 214.554331 
z
" clip-path="url(#p2265a3bdbc)" style="fill: #365c8d; fill-opacity: 0.7"/>
    <path d="M 215.378468 214.554331 
L 207.936906 186.122704 
L 198.925125 165.662308 
L 187.262099 148.321269 
L 153.940124 105.322758 
L 150.12986 102.502007 
L 139.011024 101.056944 
L 117.416665 103.009411 
L 101.404759 120.041637 
L 96.861303 148.064415 
L 93.104807 186.33269 
L 93.970853 214.554331 
L 96.404276 214.554331 
L 95.951665 199.805188 
L 100.471604 153.759554 
L 105.938437 120.041637 
L 120.020004 105.062756 
L 139.011024 103.345672 
L 148.789412 104.616523 
L 152.140325 107.097214 
L 188.195656 153.622834 
L 198.925125 169.575825 
L 207.215566 188.398487 
L 214.061475 214.554331 
z
" clip-path="url(#p2265a3bdbc)" style="fill: #34618d; fill-opacity: 0.7"/>
    <path d="M 216.695461 214.554331 
L 208.658246 183.846921 
L 198.925125 161.748791 
L 186.328543 143.019705 
L 155.739924 103.548302 
L 151.470307 100.387492 
L 139.011024 98.768217 
L 114.813325 100.956066 
L 96.871081 120.041637 
L 93.251003 142.369275 
L 90.257949 172.860192 
L 91.53743 214.554331 
L 93.970853 214.554331 
L 93.104807 186.33269 
L 96.861303 148.064415 
L 101.404759 120.041637 
L 117.416665 103.009411 
L 139.011024 101.056944 
L 150.12986 102.502007 
L 153.940124 105.322758 
L 187.262099 148.321269 
L 198.925125 165.662308 
L 207.936906 186.122704 
L 215.378468 214.554331 
z
" clip-path="url(#p2265a3bdbc)" style="fill: #31678e; fill-opacity: 0.7"/>
    <path d="M 218.012453 214.554331 
L 209.379586 181.571137 
L 198.925125 157.835274 
L 185.394987 137.71814 
L 157.539723 101.773846 
L 152.810755 98.272976 
L 139.011024 96.47949 
L 112.209986 98.902722 
L 92.337403 120.041637 
L 89.640703 136.674135 
L 87.411091 159.387694 
L 89.104007 214.554331 
L 91.53743 214.554331 
L 90.257949 172.860192 
L 93.251003 142.369275 
L 96.871081 120.041637 
L 114.813325 100.956066 
L 139.011024 98.768217 
L 151.470307 100.387492 
L 155.739924 103.548302 
L 186.328543 143.019705 
L 198.925125 161.748791 
L 208.658246 183.846921 
L 216.695461 214.554331 
z
" clip-path="url(#p2265a3bdbc)" style="fill: #2f6c8e; fill-opacity: 0.7"/>
    <path d="M 219.329446 214.554331 
L 210.100925 179.295354 
L 198.925125 153.921757 
L 184.461431 132.416576 
L 159.339523 99.99939 
L 154.151202 96.158461 
L 139.011024 94.190762 
L 109.606647 96.849377 
L 87.803725 120.041637 
L 86.030403 130.978995 
L 84.564234 145.915196 
L 86.670583 214.554331 
L 89.104007 214.554331 
L 87.411091 159.387694 
L 89.640703 136.674135 
L 92.337403 120.041637 
L 112.209986 98.902722 
L 139.011024 96.47949 
L 152.810755 98.272976 
L 157.539723 101.773846 
L 185.394987 137.71814 
L 198.925125 157.835274 
L 209.379586 181.571137 
L 218.012453 214.554331 
z
" clip-path="url(#p2265a3bdbc)" style="fill: #2c718e; fill-opacity: 0.7"/>
    <path d="M 220.646439 214.554331 
L 210.822265 177.01957 
L 198.925125 150.00824 
L 183.527875 127.115011 
L 161.139322 98.224934 
L 155.49165 94.043945 
L 139.011024 91.902035 
L 107.003307 94.796032 
L 83.270047 120.041637 
L 82.420103 125.283855 
L 81.717376 132.442698 
L 84.23716 214.554331 
L 86.670583 214.554331 
L 84.564234 145.915196 
L 86.030403 130.978995 
L 87.803725 120.041637 
L 109.606647 96.849377 
L 139.011024 94.190762 
L 154.151202 96.158461 
L 159.339523 99.99939 
L 184.461431 132.416576 
L 198.925125 153.921757 
L 210.100925 179.295354 
L 219.329446 214.554331 
z
" clip-path="url(#p2265a3bdbc)" style="fill: #2a768e; fill-opacity: 0.7"/>
    <path d="M 221.963431 214.554331 
L 211.543605 174.743787 
L 198.925125 146.094723 
L 182.594318 121.813447 
L 162.939121 96.450478 
L 156.832097 91.929429 
L 139.011024 89.613308 
L 104.399968 92.742687 
L 79.843454 118.864006 
L 79.096922 120.041637 
L 78.927231 120.309319 
L 79.096922 126.347981 
L 81.803737 214.554331 
L 84.23716 214.554331 
L 81.717376 132.442698 
L 82.420103 125.283855 
L 83.270047 120.041637 
L 107.003307 94.796032 
L 139.011024 91.902035 
L 155.49165 94.043945 
L 161.139322 98.224934 
L 183.527875 127.115011 
L 198.925125 150.00824 
L 210.822265 177.01957 
L 220.646439 214.554331 
z
" clip-path="url(#p2265a3bdbc)" style="fill: #287c8e; fill-opacity: 0.7"/>
    <path d="M 223.280424 214.554331 
L 212.264944 172.468003 
L 198.925125 142.181206 
L 181.660762 116.511882 
L 164.738921 94.676022 
L 158.172545 89.814914 
L 139.011024 87.32458 
L 101.796628 90.689342 
L 89.230511 104.056205 
L 79.843454 118.864006 
L 104.399968 92.742687 
L 139.011024 89.613308 
L 156.832097 91.929429 
L 162.939121 96.450478 
L 182.594318 121.813447 
L 198.925125 146.094723 
L 211.543605 174.743787 
L 221.963431 214.554331 
z
M 76.793502 123.675212 
L 79.096922 205.645377 
L 79.370314 214.554331 
L 81.803737 214.554331 
L 79.096922 126.347981 
L 78.927231 120.309319 
z
" clip-path="url(#p2265a3bdbc)" style="fill: #26818e; fill-opacity: 0.7"/>
    <path d="M 224.597417 214.554331 
L 212.986284 170.19222 
L 198.925125 138.267689 
L 180.727206 111.210318 
L 166.53872 92.901566 
L 159.512992 87.700398 
L 139.011024 85.035853 
L 99.193289 88.635998 
L 98.617568 89.248405 
L 89.230511 104.056205 
L 101.796628 90.689342 
L 139.011024 87.32458 
L 158.172545 89.814914 
L 164.738921 94.676022 
L 181.660762 116.511882 
L 198.925125 142.181206 
L 212.264944 172.468003 
L 223.280424 214.554331 
z
M 74.659773 127.041106 
L 77.118957 214.554331 
L 79.096922 214.554331 
L 79.370314 214.554331 
L 79.096922 205.645377 
L 76.793502 123.675212 
z
" clip-path="url(#p2265a3bdbc)" style="fill: #24868e; fill-opacity: 0.7"/>
    <path d="M 225.91441 214.554331 
L 213.707624 167.916436 
L 198.925125 134.354172 
L 179.79365 105.908753 
L 168.33852 91.12711 
L 160.85344 85.585883 
L 139.011024 82.747126 
L 100.53349 86.226095 
L 99.068289 88.537406 
L 98.617568 89.248405 
L 99.193289 88.635998 
L 139.011024 85.035853 
L 159.512992 87.700398 
L 166.53872 92.901566 
L 180.727206 111.210318 
L 198.925125 138.267689 
L 212.986284 170.19222 
L 224.597417 214.554331 
z
M 72.526044 130.406999 
L 74.890644 214.554331 
L 77.118957 214.554331 
L 74.659773 127.041106 
z
" clip-path="url(#p2265a3bdbc)" style="fill: #228b8d; fill-opacity: 0.7"/>
    <path d="M 227.231402 214.554331 
L 214.428964 165.640653 
L 198.925125 130.440655 
L 178.860094 100.607188 
L 170.138319 89.352654 
L 162.193887 83.471367 
L 139.011024 80.458399 
L 102.072592 83.798209 
L 100.53349 86.226095 
L 139.011024 82.747126 
L 160.85344 85.585883 
L 168.33852 91.12711 
L 179.79365 105.908753 
L 198.925125 134.354172 
L 213.707624 167.916436 
L 225.91441 214.554331 
z
M 70.392315 133.772892 
L 72.662331 214.554331 
L 74.890644 214.554331 
L 72.526044 130.406999 
z
" clip-path="url(#p2265a3bdbc)" style="fill: #21918c; fill-opacity: 0.7"/>
    <path d="M 228.548395 214.554331 
L 215.150303 163.36487 
L 198.925125 126.527138 
L 177.926537 95.305624 
L 171.938119 87.578198 
L 163.534335 81.356851 
L 139.011024 78.169671 
L 103.611693 81.370323 
L 102.072592 83.798209 
L 139.011024 80.458399 
L 162.193887 83.471367 
L 170.138319 89.352654 
L 178.860094 100.607188 
L 198.925125 130.440655 
L 214.428964 165.640653 
L 227.231402 214.554331 
z
M 68.258586 137.138785 
L 70.434018 214.554331 
L 72.662331 214.554331 
L 70.392315 133.772892 
z
" clip-path="url(#p2265a3bdbc)" style="fill: #1f958b; fill-opacity: 0.7"/>
    <path d="M 229.865388 214.554331 
L 215.871643 161.089086 
L 198.925125 122.613621 
L 176.992981 90.004059 
L 173.737918 85.803742 
L 164.874782 79.242336 
L 139.011024 75.880944 
L 105.150794 78.942437 
L 103.611693 81.370323 
L 139.011024 78.169671 
L 163.534335 81.356851 
L 171.938119 87.578198 
L 177.926537 95.305624 
L 198.925125 126.527138 
L 215.150303 163.36487 
L 228.548395 214.554331 
z
M 66.124858 140.504679 
L 68.205705 214.554331 
L 70.434018 214.554331 
L 68.258586 137.138785 
z
" clip-path="url(#p2265a3bdbc)" style="fill: #1f9a8a; fill-opacity: 0.7"/>
    <path d="M 231.18238 214.554331 
L 216.592983 158.813303 
L 200.86114 123.095642 
L 198.925125 120.041637 
L 184.123009 96.691745 
L 176.059425 84.702495 
L 175.537718 84.029286 
L 166.21523 77.12782 
L 139.011024 73.592217 
L 106.689896 76.514551 
L 105.150794 78.942437 
L 139.011024 75.880944 
L 164.874782 79.242336 
L 173.737918 85.803742 
L 176.992981 90.004059 
L 198.925125 122.613621 
L 215.871643 161.089086 
L 229.865388 214.554331 
z
M 63.991129 143.870572 
L 65.977392 214.554331 
L 68.205705 214.554331 
L 66.124858 140.504679 
z
" clip-path="url(#p2265a3bdbc)" style="fill: #1fa088; fill-opacity: 0.7"/>
    <path d="M 232.499373 214.554331 
L 217.314323 156.537519 
L 206.508877 132.004777 
L 200.86114 123.095642 
L 216.592983 158.813303 
L 231.18238 214.554331 
z
M 172.878425 78.953751 
L 167.555677 75.013305 
L 139.011024 71.303489 
L 108.228997 74.086665 
L 106.689896 76.514551 
L 139.011024 73.592217 
L 166.21523 77.12782 
L 175.537718 84.029286 
L 176.059425 84.702495 
L 184.123009 96.691745 
L 175.88124 83.690601 
z
M 61.8574 147.236465 
L 63.749079 214.554331 
L 65.977392 214.554331 
L 63.991129 143.870572 
z
" clip-path="url(#p2265a3bdbc)" style="fill: #20a486; fill-opacity: 0.7"/>
    <path d="M 233.816366 214.554331 
L 218.035662 154.261736 
L 212.156613 140.913912 
L 206.508877 132.004777 
L 217.314323 156.537519 
L 232.499373 214.554331 
z
M 169.167274 73.099522 
L 168.896125 72.898789 
L 139.011024 69.014762 
L 109.768098 71.658779 
L 108.228997 74.086665 
L 139.011024 71.303489 
L 167.555677 75.013305 
L 172.878425 78.953751 
z
M 59.723671 150.602358 
L 61.520766 214.554331 
L 63.749079 214.554331 
L 61.8574 147.236465 
z
" clip-path="url(#p2265a3bdbc)" style="fill: #24aa83; fill-opacity: 0.7"/>
    <path d="M 235.133358 214.554331 
L 218.757002 151.985952 
L 217.80435 149.823047 
L 212.156613 140.913912 
L 218.035662 154.261736 
L 233.816366 214.554331 
z
M 167.471791 70.424948 
L 139.011024 66.726035 
L 111.3072 69.230893 
L 109.768098 71.658779 
L 139.011024 69.014762 
L 168.896125 72.898789 
L 169.167274 73.099522 
L 168.968074 72.78529 
z
M 57.589942 153.968252 
L 59.292453 214.554331 
L 61.520766 214.554331 
L 59.723671 150.602358 
z
" clip-path="url(#p2265a3bdbc)" style="fill: #28ae80; fill-opacity: 0.7"/>
    <path d="M 236.450351 214.554331 
L 220.70586 154.400091 
L 218.896492 151.545868 
L 217.80435 149.823047 
L 218.757002 151.985952 
L 235.133358 214.554331 
z
M 165.890637 67.930725 
L 139.011024 64.437307 
L 112.846301 66.803007 
L 111.3072 69.230893 
L 139.011024 66.726035 
L 167.471791 70.424948 
z
M 55.456213 157.334145 
L 57.06414 214.554331 
L 59.292453 214.554331 
L 57.589942 153.968252 
z
" clip-path="url(#p2265a3bdbc)" style="fill: #2fb47c; fill-opacity: 0.7"/>
    <path d="M 237.767344 214.554331 
L 222.948999 157.938576 
L 220.70586 154.400091 
L 236.450351 214.554331 
z
M 164.309483 65.436503 
L 139.011024 62.14858 
L 114.385402 64.37512 
L 112.846301 66.803007 
L 139.011024 64.437307 
L 165.890637 67.930725 
z
M 53.322484 160.700038 
L 54.835827 214.554331 
L 57.06414 214.554331 
L 55.456213 157.334145 
z
" clip-path="url(#p2265a3bdbc)" style="fill: #37b878; fill-opacity: 0.7"/>
    <path d="M 239.084336 214.554331 
L 225.192139 161.477061 
L 222.948999 157.938576 
L 237.767344 214.554331 
z
M 162.72833 62.94228 
L 139.011024 59.859853 
L 115.924504 61.947234 
L 114.385402 64.37512 
L 139.011024 62.14858 
L 164.309483 65.436503 
z
M 51.188755 164.065932 
L 52.607515 214.554331 
L 54.835827 214.554331 
L 53.322484 160.700038 
z
" clip-path="url(#p2265a3bdbc)" style="fill: #40bd72; fill-opacity: 0.7"/>
    <path d="M 240.401329 214.554331 
L 227.435278 165.015545 
L 225.192139 161.477061 
L 239.084336 214.554331 
z
M 161.147176 60.448058 
L 139.011024 57.571126 
L 117.463605 59.519348 
L 115.924504 61.947234 
L 139.011024 59.859853 
L 162.72833 62.94228 
z
M 49.055026 167.431825 
L 50.379202 214.554331 
L 52.607515 214.554331 
L 51.188755 164.065932 
z
" clip-path="url(#p2265a3bdbc)" style="fill: #4ac16d; fill-opacity: 0.7"/>
    <path d="M 241.718322 214.554331 
L 229.678417 168.55403 
L 227.435278 165.015545 
L 240.401329 214.554331 
z
M 159.566022 57.953835 
L 139.011024 55.282398 
L 119.002706 57.091462 
L 117.463605 59.519348 
L 139.011024 57.571126 
L 161.147176 60.448058 
z
M 46.921297 170.797718 
L 48.150889 214.554331 
L 50.379202 214.554331 
L 49.055026 167.431825 
z
" clip-path="url(#p2265a3bdbc)" style="fill: #54c568; fill-opacity: 0.7"/>
    <path d="M 243.035315 214.554331 
L 231.921556 172.092515 
L 229.678417 168.55403 
L 241.718322 214.554331 
z
M 157.984868 55.459613 
L 139.011024 52.993671 
L 120.541808 54.663576 
L 119.002706 57.091462 
L 139.011024 55.282398 
L 159.566022 57.953835 
z
M 44.787568 174.163611 
L 45.922576 214.554331 
L 48.150889 214.554331 
L 46.921297 170.797718 
z
" clip-path="url(#p2265a3bdbc)" style="fill: #60ca60; fill-opacity: 0.7"/>
    <path d="M 244.352307 214.554331 
L 234.164695 175.630999 
L 231.921556 172.092515 
L 243.035315 214.554331 
z
M 156.403715 52.96539 
L 139.011024 50.704944 
L 122.080909 52.23569 
L 120.541808 54.663576 
L 139.011024 52.993671 
L 157.984868 55.459613 
z
M 42.653839 177.529505 
L 43.694263 214.554331 
L 45.922576 214.554331 
L 44.787568 174.163611 
z
" clip-path="url(#p2265a3bdbc)" style="fill: #6ccd5a; fill-opacity: 0.7"/>
    <path d="M 245.6693 214.554331 
L 236.407835 179.169484 
L 234.164695 175.630999 
L 244.352307 214.554331 
z
M 154.822561 50.471168 
L 139.011024 48.416216 
L 123.62001 49.807804 
L 122.080909 52.23569 
L 139.011024 50.704944 
L 156.403715 52.96539 
z
M 40.52011 180.895398 
L 41.46595 214.554331 
L 43.694263 214.554331 
L 42.653839 177.529505 
z
" clip-path="url(#p2265a3bdbc)" style="fill: #7ad151; fill-opacity: 0.7"/>
    <path d="M 246.986293 214.554331 
L 238.650974 182.707969 
L 236.407835 179.169484 
L 245.6693 214.554331 
z
M 153.241407 47.976945 
L 139.011024 46.127489 
L 125.159112 47.379918 
L 123.62001 49.807804 
L 139.011024 48.416216 
L 154.822561 50.471168 
z
M 38.386381 184.261291 
L 39.237637 214.554331 
L 41.46595 214.554331 
L 40.52011 180.895398 
z
" clip-path="url(#p2265a3bdbc)" style="fill: #86d549; fill-opacity: 0.7"/>
    <path d="M 248.303285 214.554331 
L 240.894113 186.246453 
L 238.650974 182.707969 
L 246.986293 214.554331 
z
M 151.660253 45.482723 
L 139.011024 43.838762 
L 126.698213 44.952032 
L 125.159112 47.379918 
L 139.011024 46.127489 
L 153.241407 47.976945 
z
M 36.252652 187.627184 
L 37.009324 214.554331 
L 39.237637 214.554331 
L 38.386381 184.261291 
z
" clip-path="url(#p2265a3bdbc)" style="fill: #95d840; fill-opacity: 0.7"/>
    <path d="M 249.620278 214.554331 
L 243.137252 189.784938 
L 240.894113 186.246453 
L 248.303285 214.554331 
z
M 150.0791 42.988501 
L 139.011024 41.550034 
L 128.237314 42.524146 
L 126.698213 44.952032 
L 139.011024 43.838762 
L 151.660253 45.482723 
z
M 34.118923 190.993078 
L 34.781011 214.554331 
L 37.009324 214.554331 
L 36.252652 187.627184 
z
" clip-path="url(#p2265a3bdbc)" style="fill: #a2da37; fill-opacity: 0.7"/>
    <path d="M 250.937271 214.554331 
L 245.380392 193.323423 
L 243.137252 189.784938 
L 249.620278 214.554331 
z
M 148.497946 40.494278 
L 139.011024 39.261307 
L 129.776416 40.09626 
L 128.237314 42.524146 
L 139.011024 41.550034 
L 150.0791 42.988501 
z
M 31.985194 194.358971 
L 32.552698 214.554331 
L 34.781011 214.554331 
L 34.118923 190.993078 
z
" clip-path="url(#p2265a3bdbc)" style="fill: #b2dd2d; fill-opacity: 0.7"/>
    <path d="M 252.254263 214.554331 
L 247.623531 196.861907 
L 245.380392 193.323423 
L 250.937271 214.554331 
z
M 146.916792 38.000056 
L 139.011024 36.97258 
L 131.315517 37.668374 
L 129.776416 40.09626 
L 139.011024 39.261307 
L 148.497946 40.494278 
z
M 29.851465 197.724864 
L 30.324385 214.554331 
L 32.552698 214.554331 
L 31.985194 194.358971 
z
" clip-path="url(#p2265a3bdbc)" style="fill: #c0df25; fill-opacity: 0.7"/>
    <path d="M 253.571256 214.554331 
L 249.86667 200.400392 
L 247.623531 196.861907 
L 252.254263 214.554331 
z
M 145.335639 35.505833 
L 139.011024 34.683853 
L 132.854618 35.240488 
L 131.315517 37.668374 
L 139.011024 36.97258 
L 146.916792 38.000056 
z
M 27.717736 201.090758 
L 28.096072 214.554331 
L 30.324385 214.554331 
L 29.851465 197.724864 
z
" clip-path="url(#p2265a3bdbc)" style="fill: #cde11d; fill-opacity: 0.7"/>
    <path d="M 254.888249 214.554331 
L 252.109809 203.938877 
L 249.86667 200.400392 
L 253.571256 214.554331 
z
M 143.754485 33.011611 
L 139.011024 32.395125 
L 134.39372 32.812602 
L 132.854618 35.240488 
L 139.011024 34.683853 
L 145.335639 35.505833 
z
M 25.584007 204.456651 
L 25.867759 214.554331 
L 28.096072 214.554331 
L 27.717736 201.090758 
z
" clip-path="url(#p2265a3bdbc)" style="fill: #dde318; fill-opacity: 0.7"/>
    <path d="M 256.205242 214.554331 
L 254.352948 207.477361 
L 252.109809 203.938877 
L 254.888249 214.554331 
z
M 142.173331 30.517388 
L 139.011024 30.106398 
L 135.932821 30.384716 
L 134.39372 32.812602 
L 139.011024 32.395125 
L 143.754485 33.011611 
z
M 23.450278 207.822544 
L 23.639446 214.554331 
L 25.867759 214.554331 
L 25.584007 204.456651 
z
" clip-path="url(#p2265a3bdbc)" style="fill: #eae51a; fill-opacity: 0.7"/>
    <path d="M 257.522234 214.554331 
L 256.596088 211.015846 
L 254.352948 207.477361 
L 256.205242 214.554331 
z
M 140.592177 28.023166 
L 139.011024 27.817671 
L 137.471922 27.956829 
L 135.932821 30.384716 
L 139.011024 30.106398 
L 142.173331 30.517388 
z
M 21.316549 211.188437 
L 21.411133 214.554331 
L 23.639446 214.554331 
L 23.450278 207.822544 
z
" clip-path="url(#p2265a3bdbc)" style="fill: #f8e621; fill-opacity: 0.7"/>
    <path d="M 256.596088 211.015846 
L 257.522234 214.554331 
L 258.839227 214.554331 
z
M 137.471922 27.956829 
L 139.011024 27.817671 
L 140.592177 28.023166 
L 139.011024 25.528943 
z
M 21.411133 214.554331 
L 21.316549 211.188437 
L 19.18282 214.554331 
z
" clip-path="url(#p2265a3bdbc)" style="fill: #fde725; fill-opacity: 0.7"/>
   </g>
   <g id="matplotlib.axis_1"/>
   <g id="matplotlib.axis_2"/>
   <g id="line2d_1">
    <path d="M 198.925125 214.554331 
L 258.839227 214.554331 
" clip-path="url(#p2265a3bdbc)" style="fill: none; stroke: #555555; stroke-opacity: 0.9; stroke-width: 0.5; stroke-linecap: square"/>
   </g>
   <g id="line2d_2">
    <path d="M 175.88124 83.690601 
L 198.925125 214.554331 
" clip-path="url(#p2265a3bdbc)" style="fill: none; stroke: #555555; stroke-opacity: 0.9; stroke-width: 0.5; stroke-linecap: square"/>
   </g>
   <g id="line2d_3">
    <path d="M 79.096922 120.041637 
L 99.068289 88.537406 
" clip-path="url(#p2265a3bdbc)" style="fill: none; stroke: #555555; stroke-opacity: 0.9; stroke-width: 0.5; stroke-linecap: square"/>
   </g>
   <g id="line2d_4">
    <path d="M 168.968074 72.78529 
L 175.88124 83.690601 
" clip-path="url(#p2265a3bdbc)" style="fill: none; stroke: #555555; stroke-opacity: 0.9; stroke-width: 0.5; stroke-linecap: square"/>
   </g>
   <g id="line2d_5">
    <path d="M 139.011024 214.554331 
L 178.953758 214.554331 
" clip-path="url(#p2265a3bdbc)" style="fill: none; stroke: #555555; stroke-opacity: 0.9; stroke-width: 0.5; stroke-linecap: square"/>
   </g>
   <g id="line2d_6">
    <path d="M 99.068289 88.537406 
L 139.011024 25.528943 
" clip-path="url(#p2265a3bdbc)" style="fill: none; stroke: #555555; stroke-opacity: 0.9; stroke-width: 0.5; stroke-linecap: square"/>
   </g>
   <g id="line2d_7">
    <path d="M 139.011024 214.554331 
L 99.068289 214.554331 
" clip-path="url(#p2265a3bdbc)" style="fill: none; stroke: #555555; stroke-opacity: 0.9; stroke-width: 0.5; stroke-linecap: square"/>
   </g>
   <g id="line2d_8">
    <path d="M 139.011024 120.041637 
L 178.953758 214.554331 
" clip-path="url(#p2265a3bdbc)" style="fill: none; stroke: #555555; stroke-opacity: 0.9; stroke-width: 0.5; stroke-linecap: square"/>
   </g>
   <g id="line2d_9">
    <path d="M 139.011024 120.041637 
L 139.011024 25.528943 
" clip-path="url(#p2265a3bdbc)" style="fill: none; stroke: #555555; stroke-opacity: 0.9; stroke-width: 0.5; stroke-linecap: square"/>
   </g>
   <g id="line2d_10">
    <path d="M 218.896492 151.545868 
L 198.925125 214.554331 
" clip-path="url(#p2265a3bdbc)" style="fill: none; stroke: #555555; stroke-opacity: 0.9; stroke-width: 0.5; stroke-linecap: square"/>
   </g>
   <g id="line2d_11">
    <path d="M 218.896492 151.545868 
L 258.839227 214.554331 
" clip-path="url(#p2265a3bdbc)" style="fill: none; stroke: #555555; stroke-opacity: 0.9; stroke-width: 0.5; stroke-linecap: square"/>
   </g>
   <g id="line2d_12">
    <path d="M 79.096922 120.041637 
L 139.011024 214.554331 
" clip-path="url(#p2265a3bdbc)" style="fill: none; stroke: #555555; stroke-opacity: 0.9; stroke-width: 0.5; stroke-linecap: square"/>
   </g>
   <g id="line2d_13">
    <path d="M 178.953758 214.554331 
L 198.925125 214.554331 
" clip-path="url(#p2265a3bdbc)" style="fill: none; stroke: #555555; stroke-opacity: 0.9; stroke-width: 0.5; stroke-linecap: square"/>
   </g>
   <g id="line2d_14">
    <path d="M 99.068289 88.537406 
L 139.011024 120.041637 
" clip-path="url(#p2265a3bdbc)" style="fill: none; stroke: #555555; stroke-opacity: 0.9; stroke-width: 0.5; stroke-linecap: square"/>
   </g>
   <g id="line2d_15">
    <path d="M 79.096922 120.041637 
L 99.068289 214.554331 
" clip-path="url(#p2265a3bdbc)" style="fill: none; stroke: #555555; stroke-opacity: 0.9; stroke-width: 0.5; stroke-linecap: square"/>
   </g>
   <g id="line2d_16">
    <path d="M 139.011024 214.554331 
L 139.011024 120.041637 
" clip-path="url(#p2265a3bdbc)" style="fill: none; stroke: #555555; stroke-opacity: 0.9; stroke-width: 0.5; stroke-linecap: square"/>
   </g>
   <g id="line2d_17">
    <path d="M 168.968074 72.78529 
L 139.011024 25.528943 
" clip-path="url(#p2265a3bdbc)" style="fill: none; stroke: #555555; stroke-opacity: 0.9; stroke-width: 0.5; stroke-linecap: square"/>
   </g>
   <g id="line2d_18">
    <path d="M 175.88124 83.690601 
L 139.011024 120.041637 
" clip-path="url(#p2265a3bdbc)" style="fill: none; stroke: #555555; stroke-opacity: 0.9; stroke-width: 0.5; stroke-linecap: square"/>
   </g>
   <g id="line2d_19">
    <path d="M 198.925125 120.041637 
L 218.896492 151.545868 
" clip-path="url(#p2265a3bdbc)" style="fill: none; stroke: #555555; stroke-opacity: 0.9; stroke-width: 0.5; stroke-linecap: square"/>
   </g>
   <g id="line2d_20">
    <path d="M 99.068289 214.554331 
L 79.096922 214.554331 
" clip-path="url(#p2265a3bdbc)" style="fill: none; stroke: #555555; stroke-opacity: 0.9; stroke-width: 0.5; stroke-linecap: square"/>
   </g>
   <g id="line2d_21">
    <path d="M 198.925125 120.041637 
L 175.88124 83.690601 
" clip-path="url(#p2265a3bdbc)" style="fill: none; stroke: #555555; stroke-opacity: 0.9; stroke-width: 0.5; stroke-linecap: square"/>
   </g>
   <g id="line2d_22">
    <path d="M 79.096922 120.041637 
L 139.011024 120.041637 
" clip-path="url(#p2265a3bdbc)" style="fill: none; stroke: #555555; stroke-opacity: 0.9; stroke-width: 0.5; stroke-linecap: square"/>
   </g>
   <g id="line2d_23">
    <path d="M 79.096922 120.041637 
L 79.096922 214.554331 
" clip-path="url(#p2265a3bdbc)" style="fill: none; stroke: #555555; stroke-opacity: 0.9; stroke-width: 0.5; stroke-linecap: square"/>
   </g>
   <g id="line2d_24">
    <path d="M 168.968074 72.78529 
L 139.011024 120.041637 
" clip-path="url(#p2265a3bdbc)" style="fill: none; stroke: #555555; stroke-opacity: 0.9; stroke-width: 0.5; stroke-linecap: square"/>
   </g>
   <g id="line2d_25">
    <path d="M 198.925125 120.041637 
L 198.925125 214.554331 
" clip-path="url(#p2265a3bdbc)" style="fill: none; stroke: #555555; stroke-opacity: 0.9; stroke-width: 0.5; stroke-linecap: square"/>
   </g>
   <g id="line2d_26">
    <path d="M 79.096922 214.554331 
L 19.18282 214.554331 
" clip-path="url(#p2265a3bdbc)" style="fill: none; stroke: #555555; stroke-opacity: 0.9; stroke-width: 0.5; stroke-linecap: square"/>
   </g>
   <g id="line2d_27">
    <path d="M 79.096922 120.041637 
L 19.18282 214.554331 
" clip-path="url(#p2265a3bdbc)" style="fill: none; stroke: #555555; stroke-opacity: 0.9; stroke-width: 0.5; stroke-linecap: square"/>
   </g>
   <g id="line2d_28">
    <path d="M 139.011024 120.041637 
L 198.925125 214.554331 
" clip-path="url(#p2265a3bdbc)" style="fill: none; stroke: #555555; stroke-opacity: 0.9; stroke-width: 0.5; stroke-linecap: square"/>
   </g>
   <g id="PathCollection_1">
    <defs>
     <path id="m30e66e0c0c" d="M 0 2.738613 
C 0.726289 2.738613 1.422928 2.450055 1.936492 1.936492 
C 2.450055 1.422928 2.738613 0.726289 2.738613 0 
C 2.738613 -0.726289 2.450055 -1.422928 1.936492 -1.936492 
C 1.422928 -2.450055 0.726289 -2.738613 0 -2.738613 
C -0.726289 -2.738613 -1.422928 -2.450055 -1.936492 -1.936492 
C -2.450055 -1.422928 -2.738613 -0.726289 -2.738613 0 
C -2.738613 0.726289 -2.450055 1.422928 -1.936492 1.936492 
C -1.422928 2.450055 -0.726289 2.738613 0 2.738613 
z
" style="stroke: #008000"/>
    </defs>
    <g clip-path="url(#p2265a3bdbc)">
     <use xlink:href="#m30e66e0c0c" x="198.925125" y="214.554331" style="fill: #008000; stroke: #008000"/>
     <use xlink:href="#m30e66e0c0c" x="258.839227" y="214.554331" style="fill: #008000; stroke: #008000"/>
     <use xlink:href="#m30e66e0c0c" x="175.88124" y="83.690601" style="fill: #008000; stroke: #008000"/>
     <use xlink:href="#m30e66e0c0c" x="79.096922" y="120.041637" style="fill: #008000; stroke: #008000"/>
     <use xlink:href="#m30e66e0c0c" x="99.068289" y="88.537406" style="fill: #008000; stroke: #008000"/>
     <use xlink:href="#m30e66e0c0c" x="168.968074" y="72.78529" style="fill: #008000; stroke: #008000"/>
     <use xlink:href="#m30e66e0c0c" x="139.011024" y="214.554331" style="fill: #008000; stroke: #008000"/>
     <use xlink:href="#m30e66e0c0c" x="178.953758" y="214.554331" style="fill: #008000; stroke: #008000"/>
     <use xlink:href="#m30e66e0c0c" x="139.011024" y="25.528943" style="fill: #008000; stroke: #008000"/>
     <use xlink:href="#m30e66e0c0c" x="99.068289" y="214.554331" style="fill: #008000; stroke: #008000"/>
     <use xlink:href="#m30e66e0c0c" x="139.011024" y="120.041637" style="fill: #008000; stroke: #008000"/>
     <use xlink:href="#m30e66e0c0c" x="218.896492" y="151.545868" style="fill: #008000; stroke: #008000"/>
     <use xlink:href="#m30e66e0c0c" x="198.925125" y="120.041637" style="fill: #008000; stroke: #008000"/>
     <use xlink:href="#m30e66e0c0c" x="79.096922" y="214.554331" style="fill: #008000; stroke: #008000"/>
     <use xlink:href="#m30e66e0c0c" x="19.18282" y="214.554331" style="fill: #008000; stroke: #008000"/>
    </g>
   </g>
   <g id="PathCollection_2">
    <defs>
     <path id="m645e3776d2" d="M -0 2.236068 
L 1.341641 0 
L 0 -2.236068 
L -1.341641 -0 
z
" style="stroke: #d3d3d3"/>
    </defs>
    <g clip-path="url(#p2265a3bdbc)">
     <use xlink:href="#m645e3776d2" x="139.011024" y="25.528943" style="fill: #d3d3d3; stroke: #d3d3d3"/>
     <use xlink:href="#m645e3776d2" x="139.011024" y="25.528943" style="fill: #d3d3d3; stroke: #d3d3d3"/>
     <use xlink:href="#m645e3776d2" x="139.011024" y="25.528943" style="fill: #d3d3d3; stroke: #d3d3d3"/>
     <use xlink:href="#m645e3776d2" x="139.011024" y="25.528943" style="fill: #d3d3d3; stroke: #d3d3d3"/>
     <use xlink:href="#m645e3776d2" x="139.011024" y="25.528943" style="fill: #d3d3d3; stroke: #d3d3d3"/>
     <use xlink:href="#m645e3776d2" x="139.011024" y="25.528943" style="fill: #d3d3d3; stroke: #d3d3d3"/>
     <use xlink:href="#m645e3776d2" x="139.011024" y="25.528943" style="fill: #d3d3d3; stroke: #d3d3d3"/>
     <use xlink:href="#m645e3776d2" x="258.839227" y="214.554331" style="fill: #d3d3d3; stroke: #d3d3d3"/>
     <use xlink:href="#m645e3776d2" x="258.839227" y="214.554331" style="fill: #d3d3d3; stroke: #d3d3d3"/>
     <use xlink:href="#m645e3776d2" x="258.839227" y="214.554331" style="fill: #d3d3d3; stroke: #d3d3d3"/>
     <use xlink:href="#m645e3776d2" x="258.839227" y="214.554331" style="fill: #d3d3d3; stroke: #d3d3d3"/>
     <use xlink:href="#m645e3776d2" x="258.839227" y="214.554331" style="fill: #d3d3d3; stroke: #d3d3d3"/>
     <use xlink:href="#m645e3776d2" x="258.839227" y="214.554331" style="fill: #d3d3d3; stroke: #d3d3d3"/>
     <use xlink:href="#m645e3776d2" x="258.839227" y="214.554331" style="fill: #d3d3d3; stroke: #d3d3d3"/>
     <use xlink:href="#m645e3776d2" x="258.839227" y="214.554331" style="fill: #d3d3d3; stroke: #d3d3d3"/>
     <use xlink:href="#m645e3776d2" x="258.839227" y="214.554331" style="fill: #d3d3d3; stroke: #d3d3d3"/>
     <use xlink:href="#m645e3776d2" x="198.925125" y="120.041637" style="fill: #d3d3d3; stroke: #d3d3d3"/>
     <use xlink:href="#m645e3776d2" x="168.968074" y="72.78529" style="fill: #d3d3d3; stroke: #d3d3d3"/>
     <use xlink:href="#m645e3776d2" x="168.968074" y="72.78529" style="fill: #d3d3d3; stroke: #d3d3d3"/>
     <use xlink:href="#m645e3776d2" x="168.968074" y="72.78529" style="fill: #d3d3d3; stroke: #d3d3d3"/>
     <use xlink:href="#m645e3776d2" x="162.976664" y="63.334021" style="fill: #d3d3d3; stroke: #d3d3d3"/>
     <use xlink:href="#m645e3776d2" x="218.896492" y="151.545868" style="fill: #d3d3d3; stroke: #d3d3d3"/>
     <use xlink:href="#m645e3776d2" x="218.896492" y="151.545868" style="fill: #d3d3d3; stroke: #d3d3d3"/>
     <use xlink:href="#m645e3776d2" x="228.882176" y="167.297984" style="fill: #d3d3d3; stroke: #d3d3d3"/>
     <use xlink:href="#m645e3776d2" x="228.882176" y="167.297984" style="fill: #d3d3d3; stroke: #d3d3d3"/>
     <use xlink:href="#m645e3776d2" x="210.907946" y="138.944176" style="fill: #d3d3d3; stroke: #d3d3d3"/>
     <use xlink:href="#m645e3776d2" x="164.238014" y="65.323762" style="fill: #d3d3d3; stroke: #d3d3d3"/>
     <use xlink:href="#m645e3776d2" x="19.18282" y="214.554331" style="fill: #d3d3d3; stroke: #d3d3d3"/>
     <use xlink:href="#m645e3776d2" x="19.18282" y="214.554331" style="fill: #d3d3d3; stroke: #d3d3d3"/>
     <use xlink:href="#m645e3776d2" x="19.18282" y="214.554331" style="fill: #d3d3d3; stroke: #d3d3d3"/>
     <use xlink:href="#m645e3776d2" x="19.18282" y="214.554331" style="fill: #d3d3d3; stroke: #d3d3d3"/>
     <use xlink:href="#m645e3776d2" x="19.18282" y="214.554331" style="fill: #d3d3d3; stroke: #d3d3d3"/>
     <use xlink:href="#m645e3776d2" x="19.18282" y="214.554331" style="fill: #d3d3d3; stroke: #d3d3d3"/>
     <use xlink:href="#m645e3776d2" x="19.18282" y="214.554331" style="fill: #d3d3d3; stroke: #d3d3d3"/>
     <use xlink:href="#m645e3776d2" x="19.18282" y="214.554331" style="fill: #d3d3d3; stroke: #d3d3d3"/>
     <use xlink:href="#m645e3776d2" x="19.18282" y="214.554331" style="fill: #d3d3d3; stroke: #d3d3d3"/>
     <use xlink:href="#m645e3776d2" x="109.053973" y="72.78529" style="fill: #d3d3d3; stroke: #d3d3d3"/>
     <use xlink:href="#m645e3776d2" x="109.053973" y="72.78529" style="fill: #d3d3d3; stroke: #d3d3d3"/>
     <use xlink:href="#m645e3776d2" x="139.011024" y="214.554331" style="fill: #d3d3d3; stroke: #d3d3d3"/>
     <use xlink:href="#m645e3776d2" x="139.011024" y="151.545868" style="fill: #d3d3d3; stroke: #d3d3d3"/>
     <use xlink:href="#m645e3776d2" x="139.011024" y="120.041637" style="fill: #d3d3d3; stroke: #d3d3d3"/>
     <use xlink:href="#m645e3776d2" x="198.925125" y="214.554331" style="fill: #d3d3d3; stroke: #d3d3d3"/>
     <use xlink:href="#m645e3776d2" x="203.533902" y="156.392673" style="fill: #d3d3d3; stroke: #d3d3d3"/>
     <use xlink:href="#m645e3776d2" x="109.053973" y="167.297984" style="fill: #d3d3d3; stroke: #d3d3d3"/>
     <use xlink:href="#m645e3776d2" x="79.096922" y="214.554331" style="fill: #d3d3d3; stroke: #d3d3d3"/>
     <use xlink:href="#m645e3776d2" x="67.114102" y="214.554331" style="fill: #d3d3d3; stroke: #d3d3d3"/>
    </g>
   </g>
   <g id="PathCollection_3">
    <defs>
     <path id="ma35dd52707" d="M 0 -5 
L -1.12257 -1.545085 
L -4.755283 -1.545085 
L -1.816356 0.59017 
L -2.938926 4.045085 
L -0 1.90983 
L 2.938926 4.045085 
L 1.816356 0.59017 
L 4.755283 -1.545085 
L 1.12257 -1.545085 
z
" style="stroke: #0000ff"/>
    </defs>
    <g clip-path="url(#p2265a3bdbc)">
     <use xlink:href="#ma35dd52707" x="203.533902" y="156.392673" style="fill: #0000ff; stroke: #0000ff"/>
    </g>
   </g>
   <g id="text_1">
    <!-- $\mathrm{ScAl_{3}}$ -->
    <g transform="translate(198.211489 210.594971) scale(0.1 -0.1)">
     <defs>
      <path id="DejaVuSans-53" d="M 3425 4513 
L 3425 3897 
Q 3066 4069 2747 4153 
Q 2428 4238 2131 4238 
Q 1616 4238 1336 4038 
Q 1056 3838 1056 3469 
Q 1056 3159 1242 3001 
Q 1428 2844 1947 2747 
L 2328 2669 
Q 3034 2534 3370 2195 
Q 3706 1856 3706 1288 
Q 3706 609 3251 259 
Q 2797 -91 1919 -91 
Q 1588 -91 1214 -16 
Q 841 59 441 206 
L 441 856 
Q 825 641 1194 531 
Q 1563 422 1919 422 
Q 2459 422 2753 634 
Q 3047 847 3047 1241 
Q 3047 1584 2836 1778 
Q 2625 1972 2144 2069 
L 1759 2144 
Q 1053 2284 737 2584 
Q 422 2884 422 3419 
Q 422 4038 858 4394 
Q 1294 4750 2059 4750 
Q 2388 4750 2728 4690 
Q 3069 4631 3425 4513 
z
" transform="scale(0.015625)"/>
      <path id="DejaVuSans-63" d="M 3122 3366 
L 3122 2828 
Q 2878 2963 2633 3030 
Q 2388 3097 2138 3097 
Q 1578 3097 1268 2742 
Q 959 2388 959 1747 
Q 959 1106 1268 751 
Q 1578 397 2138 397 
Q 2388 397 2633 464 
Q 2878 531 3122 666 
L 3122 134 
Q 2881 22 2623 -34 
Q 2366 -91 2075 -91 
Q 1284 -91 818 406 
Q 353 903 353 1747 
Q 353 2603 823 3093 
Q 1294 3584 2113 3584 
Q 2378 3584 2631 3529 
Q 2884 3475 3122 3366 
z
" transform="scale(0.015625)"/>
      <path id="DejaVuSans-41" d="M 2188 4044 
L 1331 1722 
L 3047 1722 
L 2188 4044 
z
M 1831 4666 
L 2547 4666 
L 4325 0 
L 3669 0 
L 3244 1197 
L 1141 1197 
L 716 0 
L 50 0 
L 1831 4666 
z
" transform="scale(0.015625)"/>
      <path id="DejaVuSans-6c" d="M 603 4863 
L 1178 4863 
L 1178 0 
L 603 0 
L 603 4863 
z
" transform="scale(0.015625)"/>
      <path id="DejaVuSans-33" d="M 2597 2516 
Q 3050 2419 3304 2112 
Q 3559 1806 3559 1356 
Q 3559 666 3084 287 
Q 2609 -91 1734 -91 
Q 1441 -91 1130 -33 
Q 819 25 488 141 
L 488 750 
Q 750 597 1062 519 
Q 1375 441 1716 441 
Q 2309 441 2620 675 
Q 2931 909 2931 1356 
Q 2931 1769 2642 2001 
Q 2353 2234 1838 2234 
L 1294 2234 
L 1294 2753 
L 1863 2753 
Q 2328 2753 2575 2939 
Q 2822 3125 2822 3475 
Q 2822 3834 2567 4026 
Q 2313 4219 1838 4219 
Q 1578 4219 1281 4162 
Q 984 4106 628 3988 
L 628 4550 
Q 988 4650 1302 4700 
Q 1616 4750 1894 4750 
Q 2613 4750 3031 4423 
Q 3450 4097 3450 3541 
Q 3450 3153 3228 2886 
Q 3006 2619 2597 2516 
z
" transform="scale(0.015625)"/>
     </defs>
     <use xlink:href="#DejaVuSans-53" transform="translate(0 0.015625)"/>
     <use xlink:href="#DejaVuSans-63" transform="translate(63.476562 0.015625)"/>
     <use xlink:href="#DejaVuSans-41" transform="translate(118.457031 0.015625)"/>
     <use xlink:href="#DejaVuSans-6c" transform="translate(186.865234 0.015625)"/>
     <use xlink:href="#DejaVuSans-33" transform="translate(215.605469 -16.390625) scale(0.7)"/>
    </g>
   </g>
   <g id="text_2">
    <!-- $\mathrm{Al}$ -->
    <g transform="translate(249.389691 211.215873) scale(0.1 -0.1)">
     <use xlink:href="#DejaVuSans-41" transform="translate(0 0.015625)"/>
     <use xlink:href="#DejaVuSans-6c" transform="translate(68.408203 0.015625)"/>
    </g>
   </g>
   <g id="text_3">
    <!-- $\mathrm{Al_{4}Cu_{9}}$ -->
    <g transform="translate(175.944876 87.026639) scale(0.1 -0.1)">
     <defs>
      <path id="DejaVuSans-34" d="M 2419 4116 
L 825 1625 
L 2419 1625 
L 2419 4116 
z
M 2253 4666 
L 3047 4666 
L 3047 1625 
L 3713 1625 
L 3713 1100 
L 3047 1100 
L 3047 0 
L 2419 0 
L 2419 1100 
L 313 1100 
L 313 1709 
L 2253 4666 
z
" transform="scale(0.015625)"/>
      <path id="DejaVuSans-43" d="M 4122 4306 
L 4122 3641 
Q 3803 3938 3442 4084 
Q 3081 4231 2675 4231 
Q 1875 4231 1450 3742 
Q 1025 3253 1025 2328 
Q 1025 1406 1450 917 
Q 1875 428 2675 428 
Q 3081 428 3442 575 
Q 3803 722 4122 1019 
L 4122 359 
Q 3791 134 3420 21 
Q 3050 -91 2638 -91 
Q 1578 -91 968 557 
Q 359 1206 359 2328 
Q 359 3453 968 4101 
Q 1578 4750 2638 4750 
Q 3056 4750 3426 4639 
Q 3797 4528 4122 4306 
z
" transform="scale(0.015625)"/>
      <path id="DejaVuSans-75" d="M 544 1381 
L 544 3500 
L 1119 3500 
L 1119 1403 
Q 1119 906 1312 657 
Q 1506 409 1894 409 
Q 2359 409 2629 706 
Q 2900 1003 2900 1516 
L 2900 3500 
L 3475 3500 
L 3475 0 
L 2900 0 
L 2900 538 
Q 2691 219 2414 64 
Q 2138 -91 1772 -91 
Q 1169 -91 856 284 
Q 544 659 544 1381 
z
M 1991 3584 
L 1991 3584 
z
" transform="scale(0.015625)"/>
      <path id="DejaVuSans-39" d="M 703 97 
L 703 672 
Q 941 559 1184 500 
Q 1428 441 1663 441 
Q 2288 441 2617 861 
Q 2947 1281 2994 2138 
Q 2813 1869 2534 1725 
Q 2256 1581 1919 1581 
Q 1219 1581 811 2004 
Q 403 2428 403 3163 
Q 403 3881 828 4315 
Q 1253 4750 1959 4750 
Q 2769 4750 3195 4129 
Q 3622 3509 3622 2328 
Q 3622 1225 3098 567 
Q 2575 -91 1691 -91 
Q 1453 -91 1209 -44 
Q 966 3 703 97 
z
M 1959 2075 
Q 2384 2075 2632 2365 
Q 2881 2656 2881 3163 
Q 2881 3666 2632 3958 
Q 2384 4250 1959 4250 
Q 1534 4250 1286 3958 
Q 1038 3666 1038 3163 
Q 1038 2656 1286 2365 
Q 1534 2075 1959 2075 
z
" transform="scale(0.015625)"/>
     </defs>
     <use xlink:href="#DejaVuSans-41" transform="translate(0 0.015625)"/>
     <use xlink:href="#DejaVuSans-6c" transform="translate(68.408203 0.015625)"/>
     <use xlink:href="#DejaVuSans-34" transform="translate(97.148438 -16.390625) scale(0.7)"/>
     <use xlink:href="#DejaVuSans-43" transform="translate(144.418945 0.015625)"/>
     <use xlink:href="#DejaVuSans-75" transform="translate(214.243164 0.015625)"/>
     <use xlink:href="#DejaVuSans-39" transform="translate(278.579102 -16.390625) scale(0.7)"/>
    </g>
   </g>
   <g id="text_4">
    <!-- $\mathrm{ScCu}$ -->
    <g transform="translate(58.642377 128.238638) scale(0.1 -0.1)">
     <use xlink:href="#DejaVuSans-53" transform="translate(0 0.78125)"/>
     <use xlink:href="#DejaVuSans-63" transform="translate(63.476562 0.78125)"/>
     <use xlink:href="#DejaVuSans-43" transform="translate(118.457031 0.78125)"/>
     <use xlink:href="#DejaVuSans-75" transform="translate(188.28125 0.78125)"/>
    </g>
   </g>
   <g id="text_5">
    <!-- $\mathrm{ScCu_{2}}$ -->
    <g transform="translate(74.904653 97.385289) scale(0.1 -0.1)">
     <defs>
      <path id="DejaVuSans-32" d="M 1228 531 
L 3431 531 
L 3431 0 
L 469 0 
L 469 531 
Q 828 903 1448 1529 
Q 2069 2156 2228 2338 
Q 2531 2678 2651 2914 
Q 2772 3150 2772 3378 
Q 2772 3750 2511 3984 
Q 2250 4219 1831 4219 
Q 1534 4219 1204 4116 
Q 875 4013 500 3803 
L 500 4441 
Q 881 4594 1212 4672 
Q 1544 4750 1819 4750 
Q 2544 4750 2975 4387 
Q 3406 4025 3406 3419 
Q 3406 3131 3298 2873 
Q 3191 2616 2906 2266 
Q 2828 2175 2409 1742 
Q 1991 1309 1228 531 
z
" transform="scale(0.015625)"/>
     </defs>
     <use xlink:href="#DejaVuSans-53" transform="translate(0 0.78125)"/>
     <use xlink:href="#DejaVuSans-63" transform="translate(63.476562 0.78125)"/>
     <use xlink:href="#DejaVuSans-43" transform="translate(118.457031 0.78125)"/>
     <use xlink:href="#DejaVuSans-75" transform="translate(188.28125 0.78125)"/>
     <use xlink:href="#DejaVuSans-32" transform="translate(252.617188 -15.625) scale(0.7)"/>
    </g>
   </g>
   <g id="text_6">
    <!-- $\mathrm{AlCu_{3}}$ -->
    <g transform="translate(161.613529 68.638869) scale(0.1 -0.1)">
     <use xlink:href="#DejaVuSans-41" transform="translate(0 0.015625)"/>
     <use xlink:href="#DejaVuSans-6c" transform="translate(68.408203 0.015625)"/>
     <use xlink:href="#DejaVuSans-43" transform="translate(96.191406 0.015625)"/>
     <use xlink:href="#DejaVuSans-75" transform="translate(166.015625 0.015625)"/>
     <use xlink:href="#DejaVuSans-33" transform="translate(230.351562 -16.390625) scale(0.7)"/>
    </g>
   </g>
   <g id="text_7">
    <!-- $\mathrm{ScAl}$ -->
    <g transform="translate(132.188296 211.215873) scale(0.1 -0.1)">
     <use xlink:href="#DejaVuSans-53" transform="translate(0 0.015625)"/>
     <use xlink:href="#DejaVuSans-63" transform="translate(63.476562 0.015625)"/>
     <use xlink:href="#DejaVuSans-41" transform="translate(118.457031 0.015625)"/>
     <use xlink:href="#DejaVuSans-6c" transform="translate(186.865234 0.015625)"/>
    </g>
   </g>
   <g id="text_8">
    <!-- $\mathrm{ScAl_{2}}$ -->
    <g transform="translate(171.694667 210.544971) scale(0.1 -0.1)">
     <use xlink:href="#DejaVuSans-53" transform="translate(0 0.015625)"/>
     <use xlink:href="#DejaVuSans-63" transform="translate(63.476562 0.015625)"/>
     <use xlink:href="#DejaVuSans-41" transform="translate(118.457031 0.015625)"/>
     <use xlink:href="#DejaVuSans-6c" transform="translate(186.865234 0.015625)"/>
     <use xlink:href="#DejaVuSans-32" transform="translate(215.605469 -16.390625) scale(0.7)"/>
    </g>
   </g>
   <g id="text_9">
    <!-- $\mathrm{Cu}$ -->
    <g transform="translate(129.692842 33.725944) scale(0.1 -0.1)">
     <use xlink:href="#DejaVuSans-43" transform="translate(0 0.78125)"/>
     <use xlink:href="#DejaVuSans-75" transform="translate(69.824219 0.78125)"/>
    </g>
   </g>
   <g id="text_10">
    <!-- $\mathrm{Sc_{2}Al}$ -->
    <g transform="translate(98.354653 210.544971) scale(0.1 -0.1)">
     <use xlink:href="#DejaVuSans-53" transform="translate(0 0.015625)"/>
     <use xlink:href="#DejaVuSans-63" transform="translate(63.476562 0.015625)"/>
     <use xlink:href="#DejaVuSans-32" transform="translate(119.414062 -16.390625) scale(0.7)"/>
     <use xlink:href="#DejaVuSans-41" transform="translate(166.68457 0.015625)"/>
     <use xlink:href="#DejaVuSans-6c" transform="translate(235.092773 0.015625)"/>
    </g>
   </g>
   <g id="text_11">
    <!-- $\mathrm{ScAlCu_{2}}$ -->
    <g transform="translate(105.415569 129.563058) scale(0.1 -0.1)">
     <use xlink:href="#DejaVuSans-53" transform="translate(0 0.015625)"/>
     <use xlink:href="#DejaVuSans-63" transform="translate(63.476562 0.015625)"/>
     <use xlink:href="#DejaVuSans-41" transform="translate(118.457031 0.015625)"/>
     <use xlink:href="#DejaVuSans-6c" transform="translate(186.865234 0.015625)"/>
     <use xlink:href="#DejaVuSans-43" transform="translate(214.648438 0.015625)"/>
     <use xlink:href="#DejaVuSans-75" transform="translate(284.472656 0.015625)"/>
     <use xlink:href="#DejaVuSans-32" transform="translate(348.808594 -16.390625) scale(0.7)"/>
    </g>
   </g>
   <g id="text_12">
    <!-- $\mathrm{Al_{2}Cu}$ -->
    <g transform="translate(211.541947 147.420198) scale(0.1 -0.1)">
     <use xlink:href="#DejaVuSans-41" transform="translate(0 0.015625)"/>
     <use xlink:href="#DejaVuSans-6c" transform="translate(68.408203 0.015625)"/>
     <use xlink:href="#DejaVuSans-32" transform="translate(97.148438 -16.390625) scale(0.7)"/>
     <use xlink:href="#DejaVuSans-43" transform="translate(144.418945 0.015625)"/>
     <use xlink:href="#DejaVuSans-75" transform="translate(214.243164 0.015625)"/>
    </g>
   </g>
   <g id="text_13">
    <!-- $\mathrm{AlCu}$ -->
    <g transform="translate(180.225125 128.238638) scale(0.1 -0.1)">
     <use xlink:href="#DejaVuSans-41" transform="translate(0 0.015625)"/>
     <use xlink:href="#DejaVuSans-6c" transform="translate(68.408203 0.015625)"/>
     <use xlink:href="#DejaVuSans-43" transform="translate(96.191406 0.015625)"/>
     <use xlink:href="#DejaVuSans-75" transform="translate(166.015625 0.015625)"/>
    </g>
   </g>
   <g id="text_14">
    <!-- $\mathrm{Sc_{3}Al}$ -->
    <g transform="translate(71.837831 210.594971) scale(0.1 -0.1)">
     <use xlink:href="#DejaVuSans-53" transform="translate(0 0.015625)"/>
     <use xlink:href="#DejaVuSans-63" transform="translate(63.476562 0.015625)"/>
     <use xlink:href="#DejaVuSans-33" transform="translate(119.414062 -16.390625) scale(0.7)"/>
     <use xlink:href="#DejaVuSans-41" transform="translate(166.68457 0.015625)"/>
     <use xlink:href="#DejaVuSans-6c" transform="translate(235.092773 0.015625)"/>
    </g>
   </g>
   <g id="text_15">
    <!-- $\mathrm{Sc}$ -->
    <g transform="translate(19.633415 212.151181) scale(0.1 -0.1)">
     <use xlink:href="#DejaVuSans-53" transform="translate(0 0.78125)"/>
     <use xlink:href="#DejaVuSans-63" transform="translate(63.476562 0.78125)"/>
    </g>
   </g>
   <g id="text_16">
    <!-- $\mathrm{Sc(Al_{2}Cu)_{4}}$ -->
    <g style="fill: #0000ff" transform="translate(158.402084 165.290556) scale(0.1 -0.1)">
     <defs>
      <path id="DejaVuSans-28" d="M 1984 4856 
Q 1566 4138 1362 3434 
Q 1159 2731 1159 2009 
Q 1159 1288 1364 580 
Q 1569 -128 1984 -844 
L 1484 -844 
Q 1016 -109 783 600 
Q 550 1309 550 2009 
Q 550 2706 781 3412 
Q 1013 4119 1484 4856 
L 1984 4856 
z
" transform="scale(0.015625)"/>
      <path id="DejaVuSans-29" d="M 513 4856 
L 1013 4856 
Q 1481 4119 1714 3412 
Q 1947 2706 1947 2009 
Q 1947 1309 1714 600 
Q 1481 -109 1013 -844 
L 513 -844 
Q 928 -128 1133 580 
Q 1338 1288 1338 2009 
Q 1338 2731 1133 3434 
Q 928 4138 513 4856 
z
" transform="scale(0.015625)"/>
     </defs>
     <use xlink:href="#DejaVuSans-53" transform="translate(0 0.015625)"/>
     <use xlink:href="#DejaVuSans-63" transform="translate(63.476562 0.015625)"/>
     <use xlink:href="#DejaVuSans-28" transform="translate(118.457031 0.015625)"/>
     <use xlink:href="#DejaVuSans-41" transform="translate(157.470703 0.015625)"/>
     <use xlink:href="#DejaVuSans-6c" transform="translate(225.878906 0.015625)"/>
     <use xlink:href="#DejaVuSans-32" transform="translate(254.619141 -16.390625) scale(0.7)"/>
     <use xlink:href="#DejaVuSans-43" transform="translate(301.889648 0.015625)"/>
     <use xlink:href="#DejaVuSans-75" transform="translate(371.713867 0.015625)"/>
     <use xlink:href="#DejaVuSans-29" transform="translate(435.092773 0.015625)"/>
     <use xlink:href="#DejaVuSans-34" transform="translate(475.063477 -16.390625) scale(0.7)"/>
    </g>
   </g>
  </g>
  <g id="axes_2">
   <g id="patch_3">
    <path d="M 287.298425 195.703937 
L 296.029134 195.703937 
L 296.029134 36.96378 
L 287.298425 36.96378 
L 287.298425 195.703937 
z
" style="fill: none"/>
   </g>
   <g id="patch_4">
    <path d="M 287.298425 195.703937 
L 291.66378 203.640945 
L 296.029134 195.703937 
" style="fill: #440154; opacity: 0.7"/>
   </g>
   <g id="patch_5">
    <path d="M 287.298425 36.96378 
L 291.66378 29.026772 
L 296.029134 36.96378 
" style="fill: #fde725; opacity: 0.7"/>
   </g>
   <g id="QuadMesh_1">
    <path d="M 287.298425 195.703937 
L 296.029134 195.703937 
L 296.029134 192.326487 
L 287.298425 192.326487 
L 287.298425 195.703937 
" clip-path="url(#p51d6f35013)" style="fill: #450457; fill-opacity: 0.7"/>
    <path d="M 287.298425 192.326487 
L 296.029134 192.326487 
L 296.029134 188.949037 
L 287.298425 188.949037 
L 287.298425 192.326487 
" clip-path="url(#p51d6f35013)" style="fill: #470d60; fill-opacity: 0.7"/>
    <path d="M 287.298425 188.949037 
L 296.029134 188.949037 
L 296.029134 185.571587 
L 287.298425 185.571587 
L 287.298425 188.949037 
" clip-path="url(#p51d6f35013)" style="fill: #481467; fill-opacity: 0.7"/>
    <path d="M 287.298425 185.571587 
L 296.029134 185.571587 
L 296.029134 182.194136 
L 287.298425 182.194136 
L 287.298425 185.571587 
" clip-path="url(#p51d6f35013)" style="fill: #481c6e; fill-opacity: 0.7"/>
    <path d="M 287.298425 182.194136 
L 296.029134 182.194136 
L 296.029134 178.816686 
L 287.298425 178.816686 
L 287.298425 182.194136 
" clip-path="url(#p51d6f35013)" style="fill: #482374; fill-opacity: 0.7"/>
    <path d="M 287.298425 178.816686 
L 296.029134 178.816686 
L 296.029134 175.439236 
L 287.298425 175.439236 
L 287.298425 178.816686 
" clip-path="url(#p51d6f35013)" style="fill: #482979; fill-opacity: 0.7"/>
    <path d="M 287.298425 175.439236 
L 296.029134 175.439236 
L 296.029134 172.061786 
L 287.298425 172.061786 
L 287.298425 175.439236 
" clip-path="url(#p51d6f35013)" style="fill: #46307e; fill-opacity: 0.7"/>
    <path d="M 287.298425 172.061786 
L 296.029134 172.061786 
L 296.029134 168.684336 
L 287.298425 168.684336 
L 287.298425 172.061786 
" clip-path="url(#p51d6f35013)" style="fill: #453781; fill-opacity: 0.7"/>
    <path d="M 287.298425 168.684336 
L 296.029134 168.684336 
L 296.029134 165.306886 
L 287.298425 165.306886 
L 287.298425 168.684336 
" clip-path="url(#p51d6f35013)" style="fill: #433e85; fill-opacity: 0.7"/>
    <path d="M 287.298425 165.306886 
L 296.029134 165.306886 
L 296.029134 161.929435 
L 287.298425 161.929435 
L 287.298425 165.306886 
" clip-path="url(#p51d6f35013)" style="fill: #414487; fill-opacity: 0.7"/>
    <path d="M 287.298425 161.929435 
L 296.029134 161.929435 
L 296.029134 158.551985 
L 287.298425 158.551985 
L 287.298425 161.929435 
" clip-path="url(#p51d6f35013)" style="fill: #3e4a89; fill-opacity: 0.7"/>
    <path d="M 287.298425 158.551985 
L 296.029134 158.551985 
L 296.029134 155.174535 
L 287.298425 155.174535 
L 287.298425 158.551985 
" clip-path="url(#p51d6f35013)" style="fill: #3c508b; fill-opacity: 0.7"/>
    <path d="M 287.298425 155.174535 
L 296.029134 155.174535 
L 296.029134 151.797085 
L 287.298425 151.797085 
L 287.298425 155.174535 
" clip-path="url(#p51d6f35013)" style="fill: #39568c; fill-opacity: 0.7"/>
    <path d="M 287.298425 151.797085 
L 296.029134 151.797085 
L 296.029134 148.419635 
L 287.298425 148.419635 
L 287.298425 151.797085 
" clip-path="url(#p51d6f35013)" style="fill: #365c8d; fill-opacity: 0.7"/>
    <path d="M 287.298425 148.419635 
L 296.029134 148.419635 
L 296.029134 145.042185 
L 287.298425 145.042185 
L 287.298425 148.419635 
" clip-path="url(#p51d6f35013)" style="fill: #34618d; fill-opacity: 0.7"/>
    <path d="M 287.298425 145.042185 
L 296.029134 145.042185 
L 296.029134 141.664734 
L 287.298425 141.664734 
L 287.298425 145.042185 
" clip-path="url(#p51d6f35013)" style="fill: #31678e; fill-opacity: 0.7"/>
    <path d="M 287.298425 141.664734 
L 296.029134 141.664734 
L 296.029134 138.287284 
L 287.298425 138.287284 
L 287.298425 141.664734 
" clip-path="url(#p51d6f35013)" style="fill: #2f6c8e; fill-opacity: 0.7"/>
    <path d="M 287.298425 138.287284 
L 296.029134 138.287284 
L 296.029134 134.909834 
L 287.298425 134.909834 
L 287.298425 138.287284 
" clip-path="url(#p51d6f35013)" style="fill: #2c718e; fill-opacity: 0.7"/>
    <path d="M 287.298425 134.909834 
L 296.029134 134.909834 
L 296.029134 131.532384 
L 287.298425 131.532384 
L 287.298425 134.909834 
" clip-path="url(#p51d6f35013)" style="fill: #2a768e; fill-opacity: 0.7"/>
    <path d="M 287.298425 131.532384 
L 296.029134 131.532384 
L 296.029134 128.154934 
L 287.298425 128.154934 
L 287.298425 131.532384 
" clip-path="url(#p51d6f35013)" style="fill: #287c8e; fill-opacity: 0.7"/>
    <path d="M 287.298425 128.154934 
L 296.029134 128.154934 
L 296.029134 124.777484 
L 287.298425 124.777484 
L 287.298425 128.154934 
" clip-path="url(#p51d6f35013)" style="fill: #26818e; fill-opacity: 0.7"/>
    <path d="M 287.298425 124.777484 
L 296.029134 124.777484 
L 296.029134 121.400034 
L 287.298425 121.400034 
L 287.298425 124.777484 
" clip-path="url(#p51d6f35013)" style="fill: #24868e; fill-opacity: 0.7"/>
    <path d="M 287.298425 121.400034 
L 296.029134 121.400034 
L 296.029134 118.022583 
L 287.298425 118.022583 
L 287.298425 121.400034 
" clip-path="url(#p51d6f35013)" style="fill: #228b8d; fill-opacity: 0.7"/>
    <path d="M 287.298425 118.022583 
L 296.029134 118.022583 
L 296.029134 114.645133 
L 287.298425 114.645133 
L 287.298425 118.022583 
" clip-path="url(#p51d6f35013)" style="fill: #21918c; fill-opacity: 0.7"/>
    <path d="M 287.298425 114.645133 
L 296.029134 114.645133 
L 296.029134 111.267683 
L 287.298425 111.267683 
L 287.298425 114.645133 
" clip-path="url(#p51d6f35013)" style="fill: #1f958b; fill-opacity: 0.7"/>
    <path d="M 287.298425 111.267683 
L 296.029134 111.267683 
L 296.029134 107.890233 
L 287.298425 107.890233 
L 287.298425 111.267683 
" clip-path="url(#p51d6f35013)" style="fill: #1f9a8a; fill-opacity: 0.7"/>
    <path d="M 287.298425 107.890233 
L 296.029134 107.890233 
L 296.029134 104.512783 
L 287.298425 104.512783 
L 287.298425 107.890233 
" clip-path="url(#p51d6f35013)" style="fill: #1fa088; fill-opacity: 0.7"/>
    <path d="M 287.298425 104.512783 
L 296.029134 104.512783 
L 296.029134 101.135333 
L 287.298425 101.135333 
L 287.298425 104.512783 
" clip-path="url(#p51d6f35013)" style="fill: #20a486; fill-opacity: 0.7"/>
    <path d="M 287.298425 101.135333 
L 296.029134 101.135333 
L 296.029134 97.757882 
L 287.298425 97.757882 
L 287.298425 101.135333 
" clip-path="url(#p51d6f35013)" style="fill: #24aa83; fill-opacity: 0.7"/>
    <path d="M 287.298425 97.757882 
L 296.029134 97.757882 
L 296.029134 94.380432 
L 287.298425 94.380432 
L 287.298425 97.757882 
" clip-path="url(#p51d6f35013)" style="fill: #28ae80; fill-opacity: 0.7"/>
    <path d="M 287.298425 94.380432 
L 296.029134 94.380432 
L 296.029134 91.002982 
L 287.298425 91.002982 
L 287.298425 94.380432 
" clip-path="url(#p51d6f35013)" style="fill: #2fb47c; fill-opacity: 0.7"/>
    <path d="M 287.298425 91.002982 
L 296.029134 91.002982 
L 296.029134 87.625532 
L 287.298425 87.625532 
L 287.298425 91.002982 
" clip-path="url(#p51d6f35013)" style="fill: #37b878; fill-opacity: 0.7"/>
    <path d="M 287.298425 87.625532 
L 296.029134 87.625532 
L 296.029134 84.248082 
L 287.298425 84.248082 
L 287.298425 87.625532 
" clip-path="url(#p51d6f35013)" style="fill: #40bd72; fill-opacity: 0.7"/>
    <path d="M 287.298425 84.248082 
L 296.029134 84.248082 
L 296.029134 80.870632 
L 287.298425 80.870632 
L 287.298425 84.248082 
" clip-path="url(#p51d6f35013)" style="fill: #4ac16d; fill-opacity: 0.7"/>
    <path d="M 287.298425 80.870632 
L 296.029134 80.870632 
L 296.029134 77.493181 
L 287.298425 77.493181 
L 287.298425 80.870632 
" clip-path="url(#p51d6f35013)" style="fill: #54c568; fill-opacity: 0.7"/>
    <path d="M 287.298425 77.493181 
L 296.029134 77.493181 
L 296.029134 74.115731 
L 287.298425 74.115731 
L 287.298425 77.493181 
" clip-path="url(#p51d6f35013)" style="fill: #60ca60; fill-opacity: 0.7"/>
    <path d="M 287.298425 74.115731 
L 296.029134 74.115731 
L 296.029134 70.738281 
L 287.298425 70.738281 
L 287.298425 74.115731 
" clip-path="url(#p51d6f35013)" style="fill: #6ccd5a; fill-opacity: 0.7"/>
    <path d="M 287.298425 70.738281 
L 296.029134 70.738281 
L 296.029134 67.360831 
L 287.298425 67.360831 
L 287.298425 70.738281 
" clip-path="url(#p51d6f35013)" style="fill: #7ad151; fill-opacity: 0.7"/>
    <path d="M 287.298425 67.360831 
L 296.029134 67.360831 
L 296.029134 63.983381 
L 287.298425 63.983381 
L 287.298425 67.360831 
" clip-path="url(#p51d6f35013)" style="fill: #86d549; fill-opacity: 0.7"/>
    <path d="M 287.298425 63.983381 
L 296.029134 63.983381 
L 296.029134 60.605931 
L 287.298425 60.605931 
L 287.298425 63.983381 
" clip-path="url(#p51d6f35013)" style="fill: #95d840; fill-opacity: 0.7"/>
    <path d="M 287.298425 60.605931 
L 296.029134 60.605931 
L 296.029134 57.22848 
L 287.298425 57.22848 
L 287.298425 60.605931 
" clip-path="url(#p51d6f35013)" style="fill: #a2da37; fill-opacity: 0.7"/>
    <path d="M 287.298425 57.22848 
L 296.029134 57.22848 
L 296.029134 53.85103 
L 287.298425 53.85103 
L 287.298425 57.22848 
" clip-path="url(#p51d6f35013)" style="fill: #b2dd2d; fill-opacity: 0.7"/>
    <path d="M 287.298425 53.85103 
L 296.029134 53.85103 
L 296.029134 50.47358 
L 287.298425 50.47358 
L 287.298425 53.85103 
" clip-path="url(#p51d6f35013)" style="fill: #c0df25; fill-opacity: 0.7"/>
    <path d="M 287.298425 50.47358 
L 296.029134 50.47358 
L 296.029134 47.09613 
L 287.298425 47.09613 
L 287.298425 50.47358 
" clip-path="url(#p51d6f35013)" style="fill: #cde11d; fill-opacity: 0.7"/>
    <path d="M 287.298425 47.09613 
L 296.029134 47.09613 
L 296.029134 43.71868 
L 287.298425 43.71868 
L 287.298425 47.09613 
" clip-path="url(#p51d6f35013)" style="fill: #dde318; fill-opacity: 0.7"/>
    <path d="M 287.298425 43.71868 
L 296.029134 43.71868 
L 296.029134 40.34123 
L 287.298425 40.34123 
L 287.298425 43.71868 
" clip-path="url(#p51d6f35013)" style="fill: #eae51a; fill-opacity: 0.7"/>
    <path d="M 287.298425 40.34123 
L 296.029134 40.34123 
L 296.029134 36.96378 
L 287.298425 36.96378 
L 287.298425 40.34123 
" clip-path="url(#p51d6f35013)" style="fill: #f8e621; fill-opacity: 0.7"/>
   </g>
   <g id="matplotlib.axis_3"/>
   <g id="matplotlib.axis_4">
    <g id="ytick_1">
     <g id="line2d_29">
      <defs>
       <path id="ma36fa654dd" d="M 0 0 
L -2 0 
" style="stroke: #000000; stroke-width: 0.3"/>
      </defs>
      <g>
       <use xlink:href="#ma36fa654dd" x="296.029134" y="188.949037" style="stroke: #000000; stroke-width: 0.3"/>
      </g>
     </g>
     <g id="text_17">
      <!-- 0.46 -->
      <g transform="translate(299.529134 191.812162) scale(0.08 -0.08)">
       <defs>
        <path id="ArialMT-2212" d="M 3381 1997 
L 356 1997 
L 356 2522 
L 3381 2522 
L 3381 1997 
z
" transform="scale(0.015625)"/>
        <path id="ArialMT-30" d="M 266 2259 
Q 266 3072 433 3567 
Q 600 4063 929 4331 
Q 1259 4600 1759 4600 
Q 2128 4600 2406 4451 
Q 2684 4303 2865 4023 
Q 3047 3744 3150 3342 
Q 3253 2941 3253 2259 
Q 3253 1453 3087 958 
Q 2922 463 2592 192 
Q 2263 -78 1759 -78 
Q 1097 -78 719 397 
Q 266 969 266 2259 
z
M 844 2259 
Q 844 1131 1108 757 
Q 1372 384 1759 384 
Q 2147 384 2411 759 
Q 2675 1134 2675 2259 
Q 2675 3391 2411 3762 
Q 2147 4134 1753 4134 
Q 1366 4134 1134 3806 
Q 844 3388 844 2259 
z
" transform="scale(0.015625)"/>
        <path id="ArialMT-2e" d="M 581 0 
L 581 641 
L 1222 641 
L 1222 0 
L 581 0 
z
" transform="scale(0.015625)"/>
        <path id="ArialMT-34" d="M 2069 0 
L 2069 1097 
L 81 1097 
L 81 1613 
L 2172 4581 
L 2631 4581 
L 2631 1613 
L 3250 1613 
L 3250 1097 
L 2631 1097 
L 2631 0 
L 2069 0 
z
M 2069 1613 
L 2069 3678 
L 634 1613 
L 2069 1613 
z
" transform="scale(0.015625)"/>
        <path id="ArialMT-36" d="M 3184 3459 
L 2625 3416 
Q 2550 3747 2413 3897 
Q 2184 4138 1850 4138 
Q 1581 4138 1378 3988 
Q 1113 3794 959 3422 
Q 806 3050 800 2363 
Q 1003 2672 1297 2822 
Q 1591 2972 1913 2972 
Q 2475 2972 2870 2558 
Q 3266 2144 3266 1488 
Q 3266 1056 3080 686 
Q 2894 316 2569 119 
Q 2244 -78 1831 -78 
Q 1128 -78 684 439 
Q 241 956 241 2144 
Q 241 3472 731 4075 
Q 1159 4600 1884 4600 
Q 2425 4600 2770 4297 
Q 3116 3994 3184 3459 
z
M 888 1484 
Q 888 1194 1011 928 
Q 1134 663 1356 523 
Q 1578 384 1822 384 
Q 2178 384 2434 671 
Q 2691 959 2691 1453 
Q 2691 1928 2437 2201 
Q 2184 2475 1800 2475 
Q 1419 2475 1153 2201 
Q 888 1928 888 1484 
z
" transform="scale(0.015625)"/>
       </defs>
       <use xlink:href="#ArialMT-2212"/>
       <use xlink:href="#ArialMT-30" transform="translate(58.398438 0)"/>
       <use xlink:href="#ArialMT-2e" transform="translate(114.013672 0)"/>
       <use xlink:href="#ArialMT-34" transform="translate(141.796875 0)"/>
       <use xlink:href="#ArialMT-36" transform="translate(197.412109 0)"/>
      </g>
     </g>
    </g>
    <g id="ytick_2">
     <g id="line2d_30">
      <g>
       <use xlink:href="#ma36fa654dd" x="296.029134" y="172.061786" style="stroke: #000000; stroke-width: 0.3"/>
      </g>
     </g>
     <g id="text_18">
      <!-- 0.41 -->
      <g transform="translate(299.529134 174.924911) scale(0.08 -0.08)">
       <defs>
        <path id="ArialMT-31" d="M 2384 0 
L 1822 0 
L 1822 3584 
Q 1619 3391 1289 3197 
Q 959 3003 697 2906 
L 697 3450 
Q 1169 3672 1522 3987 
Q 1875 4303 2022 4600 
L 2384 4600 
L 2384 0 
z
" transform="scale(0.015625)"/>
       </defs>
       <use xlink:href="#ArialMT-2212"/>
       <use xlink:href="#ArialMT-30" transform="translate(58.398438 0)"/>
       <use xlink:href="#ArialMT-2e" transform="translate(114.013672 0)"/>
       <use xlink:href="#ArialMT-34" transform="translate(141.796875 0)"/>
       <use xlink:href="#ArialMT-31" transform="translate(197.412109 0)"/>
      </g>
     </g>
    </g>
    <g id="ytick_3">
     <g id="line2d_31">
      <g>
       <use xlink:href="#ma36fa654dd" x="296.029134" y="155.174535" style="stroke: #000000; stroke-width: 0.3"/>
      </g>
     </g>
     <g id="text_19">
      <!-- 0.36 -->
      <g transform="translate(299.529134 158.03766) scale(0.08 -0.08)">
       <defs>
        <path id="ArialMT-33" d="M 269 1209 
L 831 1284 
Q 928 806 1161 595 
Q 1394 384 1728 384 
Q 2125 384 2398 659 
Q 2672 934 2672 1341 
Q 2672 1728 2419 1979 
Q 2166 2231 1775 2231 
Q 1616 2231 1378 2169 
L 1441 2663 
Q 1497 2656 1531 2656 
Q 1891 2656 2178 2843 
Q 2466 3031 2466 3422 
Q 2466 3731 2256 3934 
Q 2047 4138 1716 4138 
Q 1388 4138 1169 3931 
Q 950 3725 888 3313 
L 325 3413 
Q 428 3978 793 4289 
Q 1159 4600 1703 4600 
Q 2078 4600 2393 4439 
Q 2709 4278 2876 4000 
Q 3044 3722 3044 3409 
Q 3044 3113 2884 2869 
Q 2725 2625 2413 2481 
Q 2819 2388 3044 2092 
Q 3269 1797 3269 1353 
Q 3269 753 2831 336 
Q 2394 -81 1725 -81 
Q 1122 -81 723 278 
Q 325 638 269 1209 
z
" transform="scale(0.015625)"/>
       </defs>
       <use xlink:href="#ArialMT-2212"/>
       <use xlink:href="#ArialMT-30" transform="translate(58.398438 0)"/>
       <use xlink:href="#ArialMT-2e" transform="translate(114.013672 0)"/>
       <use xlink:href="#ArialMT-33" transform="translate(141.796875 0)"/>
       <use xlink:href="#ArialMT-36" transform="translate(197.412109 0)"/>
      </g>
     </g>
    </g>
    <g id="ytick_4">
     <g id="line2d_32">
      <g>
       <use xlink:href="#ma36fa654dd" x="296.029134" y="138.287284" style="stroke: #000000; stroke-width: 0.3"/>
      </g>
     </g>
     <g id="text_20">
      <!-- 0.31 -->
      <g transform="translate(299.529134 141.150409) scale(0.08 -0.08)">
       <use xlink:href="#ArialMT-2212"/>
       <use xlink:href="#ArialMT-30" transform="translate(58.398438 0)"/>
       <use xlink:href="#ArialMT-2e" transform="translate(114.013672 0)"/>
       <use xlink:href="#ArialMT-33" transform="translate(141.796875 0)"/>
       <use xlink:href="#ArialMT-31" transform="translate(197.412109 0)"/>
      </g>
     </g>
    </g>
    <g id="ytick_5">
     <g id="line2d_33">
      <g>
       <use xlink:href="#ma36fa654dd" x="296.029134" y="121.400034" style="stroke: #000000; stroke-width: 0.3"/>
      </g>
     </g>
     <g id="text_21">
      <!-- 0.26 -->
      <g transform="translate(299.529134 124.263159) scale(0.08 -0.08)">
       <defs>
        <path id="ArialMT-32" d="M 3222 541 
L 3222 0 
L 194 0 
Q 188 203 259 391 
Q 375 700 629 1000 
Q 884 1300 1366 1694 
Q 2113 2306 2375 2664 
Q 2638 3022 2638 3341 
Q 2638 3675 2398 3904 
Q 2159 4134 1775 4134 
Q 1369 4134 1125 3890 
Q 881 3647 878 3216 
L 300 3275 
Q 359 3922 746 4261 
Q 1134 4600 1788 4600 
Q 2447 4600 2831 4234 
Q 3216 3869 3216 3328 
Q 3216 3053 3103 2787 
Q 2991 2522 2730 2228 
Q 2469 1934 1863 1422 
Q 1356 997 1212 845 
Q 1069 694 975 541 
L 3222 541 
z
" transform="scale(0.015625)"/>
       </defs>
       <use xlink:href="#ArialMT-2212"/>
       <use xlink:href="#ArialMT-30" transform="translate(58.398438 0)"/>
       <use xlink:href="#ArialMT-2e" transform="translate(114.013672 0)"/>
       <use xlink:href="#ArialMT-32" transform="translate(141.796875 0)"/>
       <use xlink:href="#ArialMT-36" transform="translate(197.412109 0)"/>
      </g>
     </g>
    </g>
    <g id="ytick_6">
     <g id="line2d_34">
      <g>
       <use xlink:href="#ma36fa654dd" x="296.029134" y="104.512783" style="stroke: #000000; stroke-width: 0.3"/>
      </g>
     </g>
     <g id="text_22">
      <!-- 0.21 -->
      <g transform="translate(299.529134 107.375908) scale(0.08 -0.08)">
       <use xlink:href="#ArialMT-2212"/>
       <use xlink:href="#ArialMT-30" transform="translate(58.398438 0)"/>
       <use xlink:href="#ArialMT-2e" transform="translate(114.013672 0)"/>
       <use xlink:href="#ArialMT-32" transform="translate(141.796875 0)"/>
       <use xlink:href="#ArialMT-31" transform="translate(197.412109 0)"/>
      </g>
     </g>
    </g>
    <g id="ytick_7">
     <g id="line2d_35">
      <g>
       <use xlink:href="#ma36fa654dd" x="296.029134" y="87.625532" style="stroke: #000000; stroke-width: 0.3"/>
      </g>
     </g>
     <g id="text_23">
      <!-- 0.16 -->
      <g transform="translate(299.529134 90.488657) scale(0.08 -0.08)">
       <use xlink:href="#ArialMT-2212"/>
       <use xlink:href="#ArialMT-30" transform="translate(58.398438 0)"/>
       <use xlink:href="#ArialMT-2e" transform="translate(114.013672 0)"/>
       <use xlink:href="#ArialMT-31" transform="translate(141.796875 0)"/>
       <use xlink:href="#ArialMT-36" transform="translate(197.412109 0)"/>
      </g>
     </g>
    </g>
    <g id="ytick_8">
     <g id="line2d_36">
      <g>
       <use xlink:href="#ma36fa654dd" x="296.029134" y="70.738281" style="stroke: #000000; stroke-width: 0.3"/>
      </g>
     </g>
     <g id="text_24">
      <!-- 0.11 -->
      <g transform="translate(299.529134 73.601406) scale(0.08 -0.08)">
       <use xlink:href="#ArialMT-2212"/>
       <use xlink:href="#ArialMT-30" transform="translate(58.398438 0)"/>
       <use xlink:href="#ArialMT-2e" transform="translate(114.013672 0)"/>
       <use xlink:href="#ArialMT-31" transform="translate(141.796875 0)"/>
       <use xlink:href="#ArialMT-31" transform="translate(190.037109 0)"/>
      </g>
     </g>
    </g>
    <g id="ytick_9">
     <g id="line2d_37">
      <g>
       <use xlink:href="#ma36fa654dd" x="296.029134" y="53.85103" style="stroke: #000000; stroke-width: 0.3"/>
      </g>
     </g>
     <g id="text_25">
      <!-- 0.06 -->
      <g transform="translate(299.529134 56.714155) scale(0.08 -0.08)">
       <use xlink:href="#ArialMT-2212"/>
       <use xlink:href="#ArialMT-30" transform="translate(58.398438 0)"/>
       <use xlink:href="#ArialMT-2e" transform="translate(114.013672 0)"/>
       <use xlink:href="#ArialMT-30" transform="translate(141.796875 0)"/>
       <use xlink:href="#ArialMT-36" transform="translate(197.412109 0)"/>
      </g>
     </g>
    </g>
    <g id="ytick_10">
     <g id="line2d_38">
      <g>
       <use xlink:href="#ma36fa654dd" x="296.029134" y="36.96378" style="stroke: #000000; stroke-width: 0.3"/>
      </g>
     </g>
     <g id="text_26">
      <!-- 0.01 -->
      <g transform="translate(299.529134 39.826905) scale(0.08 -0.08)">
       <use xlink:href="#ArialMT-2212"/>
       <use xlink:href="#ArialMT-30" transform="translate(58.398438 0)"/>
       <use xlink:href="#ArialMT-2e" transform="translate(114.013672 0)"/>
       <use xlink:href="#ArialMT-30" transform="translate(141.796875 0)"/>
       <use xlink:href="#ArialMT-31" transform="translate(197.412109 0)"/>
      </g>
     </g>
    </g>
    <g id="text_27">
     <!-- Formation Energy (eV/atom) -->
     <g transform="translate(331.050071 179.408077) rotate(-90) scale(0.1 -0.1)">
      <defs>
       <path id="ArialMT-46" d="M 525 0 
L 525 4581 
L 3616 4581 
L 3616 4041 
L 1131 4041 
L 1131 2622 
L 3281 2622 
L 3281 2081 
L 1131 2081 
L 1131 0 
L 525 0 
z
" transform="scale(0.015625)"/>
       <path id="ArialMT-6f" d="M 213 1659 
Q 213 2581 725 3025 
Q 1153 3394 1769 3394 
Q 2453 3394 2887 2945 
Q 3322 2497 3322 1706 
Q 3322 1066 3130 698 
Q 2938 331 2570 128 
Q 2203 -75 1769 -75 
Q 1072 -75 642 372 
Q 213 819 213 1659 
z
M 791 1659 
Q 791 1022 1069 705 
Q 1347 388 1769 388 
Q 2188 388 2466 706 
Q 2744 1025 2744 1678 
Q 2744 2294 2464 2611 
Q 2184 2928 1769 2928 
Q 1347 2928 1069 2612 
Q 791 2297 791 1659 
z
" transform="scale(0.015625)"/>
       <path id="ArialMT-72" d="M 416 0 
L 416 3319 
L 922 3319 
L 922 2816 
Q 1116 3169 1280 3281 
Q 1444 3394 1641 3394 
Q 1925 3394 2219 3213 
L 2025 2691 
Q 1819 2813 1613 2813 
Q 1428 2813 1281 2702 
Q 1134 2591 1072 2394 
Q 978 2094 978 1738 
L 978 0 
L 416 0 
z
" transform="scale(0.015625)"/>
       <path id="ArialMT-6d" d="M 422 0 
L 422 3319 
L 925 3319 
L 925 2853 
Q 1081 3097 1340 3245 
Q 1600 3394 1931 3394 
Q 2300 3394 2536 3241 
Q 2772 3088 2869 2813 
Q 3263 3394 3894 3394 
Q 4388 3394 4653 3120 
Q 4919 2847 4919 2278 
L 4919 0 
L 4359 0 
L 4359 2091 
Q 4359 2428 4304 2576 
Q 4250 2725 4106 2815 
Q 3963 2906 3769 2906 
Q 3419 2906 3187 2673 
Q 2956 2441 2956 1928 
L 2956 0 
L 2394 0 
L 2394 2156 
Q 2394 2531 2256 2718 
Q 2119 2906 1806 2906 
Q 1569 2906 1367 2781 
Q 1166 2656 1075 2415 
Q 984 2175 984 1722 
L 984 0 
L 422 0 
z
" transform="scale(0.015625)"/>
       <path id="ArialMT-61" d="M 2588 409 
Q 2275 144 1986 34 
Q 1697 -75 1366 -75 
Q 819 -75 525 192 
Q 231 459 231 875 
Q 231 1119 342 1320 
Q 453 1522 633 1644 
Q 813 1766 1038 1828 
Q 1203 1872 1538 1913 
Q 2219 1994 2541 2106 
Q 2544 2222 2544 2253 
Q 2544 2597 2384 2738 
Q 2169 2928 1744 2928 
Q 1347 2928 1158 2789 
Q 969 2650 878 2297 
L 328 2372 
Q 403 2725 575 2942 
Q 747 3159 1072 3276 
Q 1397 3394 1825 3394 
Q 2250 3394 2515 3294 
Q 2781 3194 2906 3042 
Q 3031 2891 3081 2659 
Q 3109 2516 3109 2141 
L 3109 1391 
Q 3109 606 3145 398 
Q 3181 191 3288 0 
L 2700 0 
Q 2613 175 2588 409 
z
M 2541 1666 
Q 2234 1541 1622 1453 
Q 1275 1403 1131 1340 
Q 988 1278 909 1158 
Q 831 1038 831 891 
Q 831 666 1001 516 
Q 1172 366 1500 366 
Q 1825 366 2078 508 
Q 2331 650 2450 897 
Q 2541 1088 2541 1459 
L 2541 1666 
z
" transform="scale(0.015625)"/>
       <path id="ArialMT-74" d="M 1650 503 
L 1731 6 
Q 1494 -44 1306 -44 
Q 1000 -44 831 53 
Q 663 150 594 308 
Q 525 466 525 972 
L 525 2881 
L 113 2881 
L 113 3319 
L 525 3319 
L 525 4141 
L 1084 4478 
L 1084 3319 
L 1650 3319 
L 1650 2881 
L 1084 2881 
L 1084 941 
Q 1084 700 1114 631 
Q 1144 563 1211 522 
Q 1278 481 1403 481 
Q 1497 481 1650 503 
z
" transform="scale(0.015625)"/>
       <path id="ArialMT-69" d="M 425 3934 
L 425 4581 
L 988 4581 
L 988 3934 
L 425 3934 
z
M 425 0 
L 425 3319 
L 988 3319 
L 988 0 
L 425 0 
z
" transform="scale(0.015625)"/>
       <path id="ArialMT-6e" d="M 422 0 
L 422 3319 
L 928 3319 
L 928 2847 
Q 1294 3394 1984 3394 
Q 2284 3394 2536 3286 
Q 2788 3178 2913 3003 
Q 3038 2828 3088 2588 
Q 3119 2431 3119 2041 
L 3119 0 
L 2556 0 
L 2556 2019 
Q 2556 2363 2490 2533 
Q 2425 2703 2258 2804 
Q 2091 2906 1866 2906 
Q 1506 2906 1245 2678 
Q 984 2450 984 1813 
L 984 0 
L 422 0 
z
" transform="scale(0.015625)"/>
       <path id="ArialMT-20" transform="scale(0.015625)"/>
       <path id="ArialMT-45" d="M 506 0 
L 506 4581 
L 3819 4581 
L 3819 4041 
L 1113 4041 
L 1113 2638 
L 3647 2638 
L 3647 2100 
L 1113 2100 
L 1113 541 
L 3925 541 
L 3925 0 
L 506 0 
z
" transform="scale(0.015625)"/>
       <path id="ArialMT-65" d="M 2694 1069 
L 3275 997 
Q 3138 488 2766 206 
Q 2394 -75 1816 -75 
Q 1088 -75 661 373 
Q 234 822 234 1631 
Q 234 2469 665 2931 
Q 1097 3394 1784 3394 
Q 2450 3394 2872 2941 
Q 3294 2488 3294 1666 
Q 3294 1616 3291 1516 
L 816 1516 
Q 847 969 1125 678 
Q 1403 388 1819 388 
Q 2128 388 2347 550 
Q 2566 713 2694 1069 
z
M 847 1978 
L 2700 1978 
Q 2663 2397 2488 2606 
Q 2219 2931 1791 2931 
Q 1403 2931 1139 2672 
Q 875 2413 847 1978 
z
" transform="scale(0.015625)"/>
       <path id="ArialMT-67" d="M 319 -275 
L 866 -356 
Q 900 -609 1056 -725 
Q 1266 -881 1628 -881 
Q 2019 -881 2231 -725 
Q 2444 -569 2519 -288 
Q 2563 -116 2559 434 
Q 2191 0 1641 0 
Q 956 0 581 494 
Q 206 988 206 1678 
Q 206 2153 378 2554 
Q 550 2956 876 3175 
Q 1203 3394 1644 3394 
Q 2231 3394 2613 2919 
L 2613 3319 
L 3131 3319 
L 3131 450 
Q 3131 -325 2973 -648 
Q 2816 -972 2473 -1159 
Q 2131 -1347 1631 -1347 
Q 1038 -1347 672 -1080 
Q 306 -813 319 -275 
z
M 784 1719 
Q 784 1066 1043 766 
Q 1303 466 1694 466 
Q 2081 466 2343 764 
Q 2606 1063 2606 1700 
Q 2606 2309 2336 2618 
Q 2066 2928 1684 2928 
Q 1309 2928 1046 2623 
Q 784 2319 784 1719 
z
" transform="scale(0.015625)"/>
       <path id="ArialMT-79" d="M 397 -1278 
L 334 -750 
Q 519 -800 656 -800 
Q 844 -800 956 -737 
Q 1069 -675 1141 -563 
Q 1194 -478 1313 -144 
Q 1328 -97 1363 -6 
L 103 3319 
L 709 3319 
L 1400 1397 
Q 1534 1031 1641 628 
Q 1738 1016 1872 1384 
L 2581 3319 
L 3144 3319 
L 1881 -56 
Q 1678 -603 1566 -809 
Q 1416 -1088 1222 -1217 
Q 1028 -1347 759 -1347 
Q 597 -1347 397 -1278 
z
" transform="scale(0.015625)"/>
       <path id="ArialMT-28" d="M 1497 -1347 
Q 1031 -759 709 28 
Q 388 816 388 1659 
Q 388 2403 628 3084 
Q 909 3875 1497 4659 
L 1900 4659 
Q 1522 4009 1400 3731 
Q 1209 3300 1100 2831 
Q 966 2247 966 1656 
Q 966 153 1900 -1347 
L 1497 -1347 
z
" transform="scale(0.015625)"/>
       <path id="ArialMT-56" d="M 1803 0 
L 28 4581 
L 684 4581 
L 1875 1253 
Q 2019 853 2116 503 
Q 2222 878 2363 1253 
L 3600 4581 
L 4219 4581 
L 2425 0 
L 1803 0 
z
" transform="scale(0.015625)"/>
       <path id="ArialMT-2f" d="M 0 -78 
L 1328 4659 
L 1778 4659 
L 453 -78 
L 0 -78 
z
" transform="scale(0.015625)"/>
       <path id="ArialMT-29" d="M 791 -1347 
L 388 -1347 
Q 1322 153 1322 1656 
Q 1322 2244 1188 2822 
Q 1081 3291 891 3722 
Q 769 4003 388 4659 
L 791 4659 
Q 1378 3875 1659 3084 
Q 1900 2403 1900 1659 
Q 1900 816 1576 28 
Q 1253 -759 791 -1347 
z
" transform="scale(0.015625)"/>
      </defs>
      <use xlink:href="#ArialMT-46"/>
      <use xlink:href="#ArialMT-6f" transform="translate(61.083984 0)"/>
      <use xlink:href="#ArialMT-72" transform="translate(116.699219 0)"/>
      <use xlink:href="#ArialMT-6d" transform="translate(150 0)"/>
      <use xlink:href="#ArialMT-61" transform="translate(233.300781 0)"/>
      <use xlink:href="#ArialMT-74" transform="translate(288.916016 0)"/>
      <use xlink:href="#ArialMT-69" transform="translate(316.699219 0)"/>
      <use xlink:href="#ArialMT-6f" transform="translate(338.916016 0)"/>
      <use xlink:href="#ArialMT-6e" transform="translate(394.53125 0)"/>
      <use xlink:href="#ArialMT-20" transform="translate(450.146484 0)"/>
      <use xlink:href="#ArialMT-45" transform="translate(477.929688 0)"/>
      <use xlink:href="#ArialMT-6e" transform="translate(544.628906 0)"/>
      <use xlink:href="#ArialMT-65" transform="translate(600.244141 0)"/>
      <use xlink:href="#ArialMT-72" transform="translate(655.859375 0)"/>
      <use xlink:href="#ArialMT-67" transform="translate(689.160156 0)"/>
      <use xlink:href="#ArialMT-79" transform="translate(744.775391 0)"/>
      <use xlink:href="#ArialMT-20" transform="translate(794.775391 0)"/>
      <use xlink:href="#ArialMT-28" transform="translate(822.558594 0)"/>
      <use xlink:href="#ArialMT-65" transform="translate(855.859375 0)"/>
      <use xlink:href="#ArialMT-56" transform="translate(911.474609 0)"/>
      <use xlink:href="#ArialMT-2f" transform="translate(978.173828 0)"/>
      <use xlink:href="#ArialMT-61" transform="translate(1005.957031 0)"/>
      <use xlink:href="#ArialMT-74" transform="translate(1061.572266 0)"/>
      <use xlink:href="#ArialMT-6f" transform="translate(1089.355469 0)"/>
      <use xlink:href="#ArialMT-6d" transform="translate(1144.970703 0)"/>
      <use xlink:href="#ArialMT-29" transform="translate(1228.271484 0)"/>
     </g>
    </g>
   </g>
   <g id="LineCollection_1"/>
   <g id="patch_6">
    <path d="M 287.298425 195.703937 
L 291.66378 203.640945 
L 296.029134 195.703937 
L 296.029134 36.96378 
L 291.66378 29.026772 
L 287.298425 36.96378 
L 287.298425 195.703937 
z
" style="fill: none; stroke: #000000; stroke-width: 0.8; stroke-linejoin: miter; stroke-linecap: square"/>
   </g>
  </g>
 </g>
 <defs>
  <clipPath id="p2265a3bdbc">
   <rect x="7.2" y="7.2" width="263.622047" height="218.267717"/>
  </clipPath>
  <clipPath id="p51d6f35013">
   <rect x="287.298425" y="36.96378" width="8.730709" height="158.740157"/>
  </clipPath>
 </defs>
</svg>
