<?xml version="1.0" encoding="utf-8" standalone="no"?>
<!DOCTYPE svg PUBLIC "-//W3C//DTD SVG 1.1//EN"
  "http://www.w3.org/Graphics/SVG/1.1/DTD/svg11.dtd">
<svg xmlns:xlink="http://www.w3.org/1999/xlink" width="344.803509pt" height="232.667717pt" viewBox="0 0 344.803509 232.667717" xmlns="http://www.w3.org/2000/svg" version="1.1">
 <metadata>
  <rdf:RDF xmlns:dc="http://purl.org/dc/elements/1.1/" xmlns:cc="http://creativecommons.org/ns#" xmlns:rdf="http://www.w3.org/1999/02/22-rdf-syntax-ns#">
   <cc:Work>
    <dc:type rdf:resource="http://purl.org/dc/dcmitype/StillImage"/>
    <dc:date>2026-01-27T21:37:12.975160</dc:date>
    <dc:format>image/svg+xml</dc:format>
    <dc:creator>
     <cc:Agent>
      <dc:title>Matplotlib v3.10.8, https://matplotlib.org/</dc:title>
     </cc:Agent>
    </dc:creator>
   </cc:Work>
  </rdf:RDF>
 </metadata>
 <defs>
  <style type="text/css">*{stroke-linejoin: round; stroke-linecap: butt}</style>
 </defs>
 <g id="figure_1">
  <g id="patch_1">
   <path d="M 0 232.667717 
L 344.803509 232.667717 
L 344.803509 0 
L 0 0 
L 0 232.667717 
z
" style="fill: none"/>
  </g>
  <g id="axes_1">
   <g id="patch_2">
    <path d="M 7.2 225.467717 
L 270.822047 225.467717 
L 270.822047 7.2 
L 7.2 7.2 
L 7.2 225.467717 
z
" style="fill: none"/>
   </g>
   <g id="TriContourSet_1">
    <path d="M 180.401199 214.554331 
L 178.953758 191.711891 
L 177.031612 212.735054 
L 176.91171 214.554331 
L 178.953758 214.554331 
z
" clip-path="url(#p6199ae84d2)" style="fill: #440154; fill-opacity: 0.7"/>
    <path d="M 176.91171 214.554331 
L 177.031612 212.735054 
L 178.953758 191.711891 
L 180.401199 214.554331 
L 182.940872 214.554331 
L 178.953758 151.632673 
L 173.659024 209.542961 
L 173.328745 214.554331 
z
" clip-path="url(#p6199ae84d2)" style="fill: #450457; fill-opacity: 0.7"/>
    <path d="M 173.328745 214.554331 
L 173.659024 209.542961 
L 178.953758 151.632673 
L 182.940872 214.554331 
L 185.480544 214.554331 
L 181.849783 157.256358 
L 181.327384 152.013909 
L 178.80767 148.319577 
L 178.52639 148.175067 
L 177.136253 148.678809 
L 176.268081 149.427581 
L 175.399771 150.424607 
L 170.286437 206.350868 
L 169.745779 214.554331 
z
" clip-path="url(#p6199ae84d2)" style="fill: #470d60; fill-opacity: 0.7"/>
    <path d="M 169.745779 214.554331 
L 170.286437 206.350868 
L 175.399771 150.424607 
L 176.268081 149.427581 
L 177.136253 148.678809 
L 178.52639 148.175067 
L 178.80767 148.319577 
L 181.327384 152.013909 
L 181.849783 157.256358 
L 185.480544 214.554331 
L 188.020217 214.554331 
L 184.752093 162.979243 
L 183.706162 152.482965 
L 178.661265 145.086282 
L 178.098094 144.796949 
L 175.314803 145.805527 
L 173.576574 147.304695 
L 171.838071 149.300912 
L 166.91385 203.158775 
L 166.162813 214.554331 
z
" clip-path="url(#p6199ae84d2)" style="fill: #481467; fill-opacity: 0.7"/>
    <path d="M 166.162813 214.554331 
L 166.91385 203.158775 
L 171.838071 149.300912 
L 173.576574 147.304695 
L 175.314803 145.805527 
L 178.098094 144.796949 
L 178.661265 145.086282 
L 183.706162 152.482965 
L 184.752093 162.979243 
L 188.020217 214.554331 
L 190.559889 214.554331 
L 187.654404 168.702128 
L 186.08494 152.952021 
L 178.51486 141.852988 
L 177.669799 141.418831 
L 173.493353 142.932244 
L 170.885068 145.18181 
L 168.27637 148.177217 
L 163.541263 199.966682 
L 162.579848 214.554331 
z
" clip-path="url(#p6199ae84d2)" style="fill: #481c6e; fill-opacity: 0.7"/>
    <path d="M 162.579848 214.554331 
L 163.541263 199.966682 
L 168.27637 148.177217 
L 170.885068 145.18181 
L 173.493353 142.932244 
L 177.669799 141.418831 
L 178.51486 141.852988 
L 186.08494 152.952021 
L 187.654404 168.702128 
L 190.559889 214.554331 
L 193.099562 214.554331 
L 190.556715 174.425012 
L 188.463718 153.421078 
L 178.368455 138.619694 
L 177.241503 138.040713 
L 171.671904 140.058962 
L 168.193561 143.058925 
L 164.714669 147.053521 
L 160.168676 196.774589 
L 158.996882 214.554331 
z
" clip-path="url(#p6199ae84d2)" style="fill: #482374; fill-opacity: 0.7"/>
    <path d="M 158.996882 214.554331 
L 160.168676 196.774589 
L 164.714669 147.053521 
L 168.193561 143.058925 
L 171.671904 140.058962 
L 177.241503 138.040713 
L 178.368455 138.619694 
L 188.463718 153.421078 
L 190.556715 174.425012 
L 193.099562 214.554331 
L 195.639234 214.554331 
L 193.459025 180.147897 
L 190.842496 153.890134 
L 178.22205 135.386399 
L 176.813207 134.662596 
L 169.850454 137.18568 
L 165.502054 140.936039 
L 161.152969 145.929826 
L 156.796088 193.582496 
L 155.413916 214.554331 
z
" clip-path="url(#p6199ae84d2)" style="fill: #482979; fill-opacity: 0.7"/>
    <path d="M 155.413916 214.554331 
L 156.796088 193.582496 
L 161.152969 145.929826 
L 165.502054 140.936039 
L 169.850454 137.18568 
L 176.813207 134.662596 
L 178.22205 135.386399 
L 190.842496 153.890134 
L 193.459025 180.147897 
L 195.639234 214.554331 
L 198.178907 214.554331 
L 196.361336 185.870782 
L 193.221274 154.35919 
L 178.075645 132.153105 
L 176.384912 131.284478 
L 168.029004 134.312397 
L 162.810548 138.813154 
L 157.591268 144.806131 
L 153.423501 190.390403 
L 151.830951 214.554331 
z
" clip-path="url(#p6199ae84d2)" style="fill: #46307e; fill-opacity: 0.7"/>
    <path d="M 151.830951 214.554331 
L 153.423501 190.390403 
L 157.591268 144.806131 
L 162.810548 138.813154 
L 168.029004 134.312397 
L 176.384912 131.284478 
L 178.075645 132.153105 
L 193.221274 154.35919 
L 196.361336 185.870782 
L 198.178907 214.554331 
L 200.718579 214.554331 
L 199.263647 191.593667 
L 195.600051 154.828247 
L 177.92924 128.91981 
L 175.956616 127.90636 
L 166.207554 131.439115 
L 160.119041 136.690269 
L 154.029567 143.682436 
L 150.050914 187.19831 
L 148.247985 214.554331 
z
" clip-path="url(#p6199ae84d2)" style="fill: #453781; fill-opacity: 0.7"/>
    <path d="M 148.247985 214.554331 
L 150.050914 187.19831 
L 154.029567 143.682436 
L 160.119041 136.690269 
L 166.207554 131.439115 
L 175.956616 127.90636 
L 177.92924 128.91981 
L 195.600051 154.828247 
L 199.263647 191.593667 
L 200.718579 214.554331 
L 203.258252 214.554331 
L 202.165957 197.316551 
L 197.978829 155.297303 
L 177.782835 125.686516 
L 175.52832 124.528242 
L 164.386104 128.565833 
L 157.427535 134.567383 
L 150.467867 142.558741 
L 146.678327 184.006217 
L 144.66502 214.554331 
z
" clip-path="url(#p6199ae84d2)" style="fill: #433e85; fill-opacity: 0.7"/>
    <path d="M 144.66502 214.554331 
L 146.678327 184.006217 
L 150.467867 142.558741 
L 157.427535 134.567383 
L 164.386104 128.565833 
L 175.52832 124.528242 
L 177.782835 125.686516 
L 197.978829 155.297303 
L 202.165957 197.316551 
L 203.258252 214.554331 
L 205.797925 214.554331 
L 205.068268 203.039436 
L 200.357607 155.766359 
L 177.636429 122.453222 
L 175.100024 121.150124 
L 162.564654 125.69255 
L 154.736028 132.444498 
L 146.906166 141.435046 
L 143.30574 180.814124 
L 141.082054 214.554331 
z
" clip-path="url(#p6199ae84d2)" style="fill: #414487; fill-opacity: 0.7"/>
    <path d="M 141.082054 214.554331 
L 143.30574 180.814124 
L 146.906166 141.435046 
L 154.736028 132.444498 
L 162.564654 125.69255 
L 175.100024 121.150124 
L 177.636429 122.453222 
L 200.357607 155.766359 
L 205.068268 203.039436 
L 205.797925 214.554331 
L 208.337597 214.554331 
L 207.970579 208.762321 
L 202.736385 156.235416 
L 177.490024 119.219927 
L 174.671729 117.772006 
L 160.743205 122.819268 
L 152.044521 130.321613 
L 143.344465 140.311351 
L 139.933152 177.622032 
L 137.641473 212.393906 
L 137.584433 213.429128 
L 137.659814 214.554331 
L 139.011024 214.554331 
z
" clip-path="url(#p6199ae84d2)" style="fill: #3e4a89; fill-opacity: 0.7"/>
    <path d="M 137.659814 214.554331 
L 137.584433 213.429128 
L 137.641473 212.393906 
L 139.933152 177.622032 
L 143.344465 140.311351 
L 152.044521 130.321613 
L 160.743205 122.819268 
L 174.671729 117.772006 
L 177.490024 119.219927 
L 202.736385 156.235416 
L 207.970579 208.762321 
L 208.337597 214.554331 
L 210.87727 214.554331 
L 210.872889 214.485205 
L 210.776345 213.516352 
L 204.536595 157.447152 
L 204.242756 156.169034 
L 203.227118 153.972958 
L 201.808456 151.856272 
L 177.343619 115.986633 
L 174.243433 114.393889 
L 158.921755 119.945985 
L 149.353015 128.198727 
L 139.782765 139.187655 
L 136.560565 174.429939 
L 134.39593 207.27416 
L 134.203715 210.762638 
L 134.457733 214.554331 
z
" clip-path="url(#p6199ae84d2)" style="fill: #3c508b; fill-opacity: 0.7"/>
    <path d="M 134.457733 214.554331 
L 134.203715 210.762638 
L 134.39593 207.27416 
L 136.560565 174.429939 
L 139.782765 139.187655 
L 149.353015 128.198727 
L 158.921755 119.945985 
L 174.243433 114.393889 
L 177.343619 115.986633 
L 201.808456 151.856272 
L 203.227118 153.972958 
L 204.242756 156.169034 
L 204.536595 157.447152 
L 210.776345 213.516352 
L 210.872889 214.485205 
L 210.87727 214.554331 
L 210.907946 214.554331 
L 212.22373 214.554331 
L 206.045002 159.033462 
L 205.309125 155.832601 
L 202.765605 150.332847 
L 199.212771 145.031914 
L 177.197214 112.753338 
L 173.815137 111.015771 
L 157.100305 117.072703 
L 146.661508 126.075842 
L 136.221064 138.06396 
L 133.187978 171.237846 
L 131.150387 202.154413 
L 130.822997 208.096148 
L 131.255652 214.554331 
z
" clip-path="url(#p6199ae84d2)" style="fill: #39568c; fill-opacity: 0.7"/>
    <path d="M 131.255652 214.554331 
L 130.822997 208.096148 
L 131.150387 202.154413 
L 133.187978 171.237846 
L 136.221064 138.06396 
L 146.661508 126.075842 
L 157.100305 117.072703 
L 173.815137 111.015771 
L 177.197214 112.753338 
L 199.212771 145.031914 
L 202.765605 150.332847 
L 205.309125 155.832601 
L 206.045002 159.033462 
L 212.22373 214.554331 
L 213.555601 214.554331 
L 207.553408 160.619773 
L 206.375493 155.496168 
L 202.304093 146.692735 
L 196.617086 138.207556 
L 177.050809 109.520044 
L 173.386842 107.637653 
L 155.278855 114.199421 
L 143.970002 123.952956 
L 132.659363 136.940265 
L 129.815391 168.045753 
L 127.904844 197.034667 
L 127.442279 205.429657 
L 128.053571 214.554331 
z
" clip-path="url(#p6199ae84d2)" style="fill: #365c8d; fill-opacity: 0.7"/>
    <path d="M 128.053571 214.554331 
L 127.442279 205.429657 
L 127.904844 197.034667 
L 129.815391 168.045753 
L 132.659363 136.940265 
L 143.970002 123.952956 
L 155.278855 114.199421 
L 173.386842 107.637653 
L 177.050809 109.520044 
L 196.617086 138.207556 
L 202.304093 146.692735 
L 206.375493 155.496168 
L 207.553408 160.619773 
L 213.555601 214.554331 
L 214.887472 214.554331 
L 209.061815 162.206083 
L 207.441861 155.159736 
L 201.84258 143.052624 
L 194.021401 131.383198 
L 176.904404 106.28675 
L 172.958546 104.259535 
L 153.457405 111.326138 
L 141.278495 121.830071 
L 129.097663 135.81657 
L 126.442804 164.85366 
L 124.659301 191.91492 
L 124.061561 202.763167 
L 124.85149 214.554331 
z
" clip-path="url(#p6199ae84d2)" style="fill: #34618d; fill-opacity: 0.7"/>
    <path d="M 124.85149 214.554331 
L 124.061561 202.763167 
L 124.659301 191.91492 
L 126.442804 164.85366 
L 129.097663 135.81657 
L 141.278495 121.830071 
L 153.457405 111.326138 
L 172.958546 104.259535 
L 176.904404 106.28675 
L 194.021401 131.383198 
L 201.84258 143.052624 
L 207.441861 155.159736 
L 209.061815 162.206083 
L 214.887472 214.554331 
L 216.219344 214.554331 
L 210.570221 163.792394 
L 208.50823 154.823303 
L 201.381068 139.412513 
L 191.425716 124.558841 
L 176.757999 103.053455 
L 172.53025 100.881417 
L 151.635955 108.452856 
L 138.586989 119.707186 
L 125.535962 134.692875 
L 123.070216 161.661567 
L 121.413758 186.795174 
L 120.680843 200.096677 
L 121.649409 214.554331 
z
" clip-path="url(#p6199ae84d2)" style="fill: #31678e; fill-opacity: 0.7"/>
    <path d="M 121.649409 214.554331 
L 120.680843 200.096677 
L 121.413758 186.795174 
L 123.070216 161.661567 
L 125.535962 134.692875 
L 138.586989 119.707186 
L 151.635955 108.452856 
L 172.53025 100.881417 
L 176.757999 103.053455 
L 191.425716 124.558841 
L 201.381068 139.412513 
L 208.50823 154.823303 
L 210.570221 163.792394 
L 216.219344 214.554331 
L 217.551215 214.554331 
L 212.078627 165.378704 
L 209.574598 154.48687 
L 200.919555 135.772402 
L 188.830031 117.734483 
L 176.611594 99.820161 
L 172.101955 97.503299 
L 149.814506 105.579574 
L 135.895482 117.5843 
L 121.974261 133.56918 
L 119.697629 158.469474 
L 118.168215 181.675427 
L 117.300125 197.430186 
L 118.447328 214.554331 
z
" clip-path="url(#p6199ae84d2)" style="fill: #2f6c8e; fill-opacity: 0.7"/>
    <path d="M 118.447328 214.554331 
L 117.300125 197.430186 
L 118.168215 181.675427 
L 119.697629 158.469474 
L 121.974261 133.56918 
L 135.895482 117.5843 
L 149.814506 105.579574 
L 172.101955 97.503299 
L 176.611594 99.820161 
L 188.830031 117.734483 
L 200.919555 135.772402 
L 209.574598 154.48687 
L 212.078627 165.378704 
L 217.551215 214.554331 
L 218.883086 214.554331 
L 213.587034 166.965015 
L 210.640966 154.150437 
L 200.458042 132.13229 
L 186.234346 110.910125 
L 176.465189 96.586867 
L 171.673659 94.125181 
L 147.993056 102.706291 
L 133.203975 115.461415 
L 118.412561 132.445485 
L 116.325042 155.277381 
L 114.922672 176.55568 
L 113.919408 194.763696 
L 115.245247 214.554331 
z
" clip-path="url(#p6199ae84d2)" style="fill: #2c718e; fill-opacity: 0.7"/>
    <path d="M 115.245247 214.554331 
L 113.919408 194.763696 
L 114.922672 176.55568 
L 116.325042 155.277381 
L 118.412561 132.445485 
L 133.203975 115.461415 
L 147.993056 102.706291 
L 171.673659 94.125181 
L 176.465189 96.586867 
L 186.234346 110.910125 
L 200.458042 132.13229 
L 210.640966 154.150437 
L 213.587034 166.965015 
L 218.883086 214.554331 
L 220.214958 214.554331 
L 215.09544 168.551325 
L 211.707335 153.814004 
L 199.99653 128.492179 
L 183.638662 104.085767 
L 176.318784 93.353572 
L 171.245363 90.747064 
L 146.171606 99.833009 
L 130.512469 113.33853 
L 114.85086 131.321789 
L 112.952455 152.085288 
L 111.677129 171.435934 
L 110.53869 192.097205 
L 112.043166 214.554331 
z
" clip-path="url(#p6199ae84d2)" style="fill: #2a768e; fill-opacity: 0.7"/>
    <path d="M 112.043166 214.554331 
L 110.53869 192.097205 
L 111.677129 171.435934 
L 112.952455 152.085288 
L 114.85086 131.321789 
L 130.512469 113.33853 
L 146.171606 99.833009 
L 171.245363 90.747064 
L 176.318784 93.353572 
L 183.638662 104.085767 
L 199.99653 128.492179 
L 211.707335 153.814004 
L 215.09544 168.551325 
L 220.214958 214.554331 
L 221.546829 214.554331 
L 216.603847 170.137636 
L 212.773703 153.477572 
L 199.535017 124.852068 
L 181.042977 97.261409 
L 176.172379 90.120278 
L 170.817068 87.368946 
L 144.350156 96.959727 
L 127.820962 111.215644 
L 111.289159 130.198094 
L 109.579868 148.893195 
L 108.431586 166.316187 
L 107.157972 189.430715 
L 108.841085 214.554331 
z
" clip-path="url(#p6199ae84d2)" style="fill: #287c8e; fill-opacity: 0.7"/>
    <path d="M 108.841085 214.554331 
L 107.157972 189.430715 
L 108.431586 166.316187 
L 109.579868 148.893195 
L 111.289159 130.198094 
L 127.820962 111.215644 
L 144.350156 96.959727 
L 170.817068 87.368946 
L 176.172379 90.120278 
L 181.042977 97.261409 
L 199.535017 124.852068 
L 212.773703 153.477572 
L 216.603847 170.137636 
L 221.546829 214.554331 
L 222.8787 214.554331 
L 218.112253 171.723946 
L 213.840071 153.141139 
L 199.073505 121.211956 
L 178.447292 90.437051 
L 176.025974 86.886983 
L 170.388772 83.990828 
L 142.528706 94.086444 
L 125.129456 109.092759 
L 107.727459 129.074399 
L 106.20728 145.701102 
L 105.186043 161.196441 
L 103.777254 186.764225 
L 105.639005 214.554331 
z
" clip-path="url(#p6199ae84d2)" style="fill: #26818e; fill-opacity: 0.7"/>
    <path d="M 175.847346 83.637134 
L 169.960476 80.61271 
L 140.707256 91.213162 
L 122.437949 106.969874 
L 104.165758 127.950704 
L 102.834693 142.509009 
L 101.9405 156.076694 
L 100.396536 184.097734 
L 102.436924 214.554331 
L 105.639005 214.554331 
L 103.777254 186.764225 
L 105.186043 161.196441 
L 106.20728 145.701102 
L 107.727459 129.074399 
L 125.129456 109.092759 
L 142.528706 94.086444 
L 170.388772 83.990828 
L 176.025974 86.886983 
L 178.447292 90.437051 
L 199.073505 121.211956 
L 213.840071 153.141139 
L 218.112253 171.723946 
L 222.8787 214.554331 
L 224.210572 214.554331 
L 219.62066 173.310257 
L 214.90644 152.804706 
L 201.990687 124.877469 
L 198.925125 120.041637 
L 175.88124 83.690601 
z
" clip-path="url(#p6199ae84d2)" style="fill: #24868e; fill-opacity: 0.7"/>
    <path d="M 172.878425 78.953751 
L 169.532181 77.234592 
L 138.885807 88.33988 
L 119.746442 104.846988 
L 100.604057 126.827009 
L 99.462106 139.316916 
L 98.694957 150.956948 
L 97.015818 181.431244 
L 99.234843 214.554331 
L 102.436924 214.554331 
L 100.396536 184.097734 
L 101.9405 156.076694 
L 102.834693 142.509009 
L 104.165758 127.950704 
L 122.437949 106.969874 
L 140.707256 91.213162 
L 169.960476 80.61271 
L 175.847346 83.637134 
z
M 225.542443 214.554331 
L 221.129066 174.896568 
L 215.972808 152.468273 
L 206.508877 132.004777 
L 201.990687 124.877469 
L 214.90644 152.804706 
L 219.62066 173.310257 
L 224.210572 214.554331 
z
" clip-path="url(#p6199ae84d2)" style="fill: #228b8d; fill-opacity: 0.7"/>
    <path d="M 169.909504 74.270368 
L 169.103885 73.856474 
L 137.064357 85.466597 
L 117.054936 102.724103 
L 97.042357 125.703314 
L 96.089519 136.124823 
L 95.449414 145.837201 
L 93.6351 178.764753 
L 96.032762 214.554331 
L 99.234843 214.554331 
L 97.015818 181.431244 
L 98.694957 150.956948 
L 99.462106 139.316916 
L 100.604057 126.827009 
L 119.746442 104.846988 
L 138.885807 88.33988 
L 169.532181 77.234592 
L 172.878425 78.953751 
z
M 226.874314 214.554331 
L 222.637473 176.482878 
L 217.039176 152.13184 
L 211.027066 139.132085 
L 206.508877 132.004777 
L 215.972808 152.468273 
L 221.129066 174.896568 
L 225.542443 214.554331 
z
" clip-path="url(#p6199ae84d2)" style="fill: #21918c; fill-opacity: 0.7"/>
    <path d="M 168.104252 71.422637 
L 165.408473 71.662257 
L 135.242907 82.593315 
L 114.363429 100.601218 
L 93.480656 124.579619 
L 92.716932 132.93273 
L 92.203871 140.717454 
L 90.254383 176.098263 
L 92.830681 214.554331 
L 96.032762 214.554331 
L 93.6351 178.764753 
L 95.449414 145.837201 
L 96.089519 136.124823 
L 97.042357 125.703314 
L 117.054936 102.724103 
L 137.064357 85.466597 
L 169.103885 73.856474 
L 169.909504 74.270368 
L 168.968074 72.78529 
z
M 228.206186 214.554331 
L 224.145879 178.069189 
L 218.105544 151.795408 
L 215.545255 146.259393 
L 211.027066 139.132085 
L 217.039176 152.13184 
L 222.637473 176.482878 
L 226.874314 214.554331 
z
" clip-path="url(#p6199ae84d2)" style="fill: #1f958b; fill-opacity: 0.7"/>
    <path d="M 166.839329 69.427259 
L 160.196033 70.017764 
L 133.421457 79.720033 
L 111.671923 98.478332 
L 89.918955 123.455923 
L 89.344344 129.740637 
L 88.958328 135.597708 
L 86.873665 173.431773 
L 89.6286 214.554331 
L 92.830681 214.554331 
L 90.254383 176.098263 
L 92.203871 140.717454 
L 92.716932 132.93273 
L 93.480656 124.579619 
L 114.363429 100.601218 
L 135.242907 82.593315 
L 165.408473 71.662257 
L 168.104252 71.422637 
z
M 229.538057 214.554331 
L 225.654285 179.655499 
L 219.359977 152.277001 
L 218.896492 151.545868 
L 215.545255 146.259393 
L 218.105544 151.795408 
L 224.145879 178.069189 
L 228.206186 214.554331 
z
" clip-path="url(#p6199ae84d2)" style="fill: #1f9a8a; fill-opacity: 0.7"/>
    <path d="M 165.574406 67.431881 
L 154.983593 68.37327 
L 131.600007 76.84675 
L 108.980416 96.355447 
L 86.357255 122.332228 
L 85.971757 126.548544 
L 85.712785 130.477961 
L 83.492947 170.765282 
L 86.426519 214.554331 
L 89.6286 214.554331 
L 86.873665 173.431773 
L 88.958328 135.597708 
L 89.344344 129.740637 
L 89.918955 123.455923 
L 111.671923 98.478332 
L 133.421457 79.720033 
L 160.196033 70.017764 
L 166.839329 69.427259 
z
M 230.869929 214.554331 
L 227.162692 181.24181 
L 221.154488 155.107788 
L 219.359977 152.277001 
L 225.654285 179.655499 
L 229.538057 214.554331 
z
" clip-path="url(#p6199ae84d2)" style="fill: #1fa088; fill-opacity: 0.7"/>
    <path d="M 164.309483 65.436503 
L 149.771152 66.728777 
L 129.778557 73.973468 
L 106.288909 94.232561 
L 82.795554 121.208533 
L 82.59917 123.356451 
L 82.467241 125.358215 
L 80.112229 168.098792 
L 83.224438 214.554331 
L 86.426519 214.554331 
L 83.492947 170.765282 
L 85.712785 130.477961 
L 85.971757 126.548544 
L 86.357255 122.332228 
L 108.980416 96.355447 
L 131.600007 76.84675 
L 154.983593 68.37327 
L 165.574406 67.431881 
z
M 232.2018 214.554331 
L 228.671098 182.82812 
L 222.948999 157.938576 
L 221.154488 155.107788 
L 227.162692 181.24181 
L 230.869929 214.554331 
z
" clip-path="url(#p6199ae84d2)" style="fill: #20a486; fill-opacity: 0.7"/>
    <path d="M 163.04456 63.441125 
L 144.558712 65.084283 
L 127.957107 71.100186 
L 103.597403 92.109676 
L 79.233853 120.084838 
L 79.226583 120.164359 
L 79.221698 120.238468 
L 76.731511 165.432302 
L 80.022357 214.554331 
L 83.224438 214.554331 
L 80.112229 168.098792 
L 82.467241 125.358215 
L 82.59917 123.356451 
L 82.795554 121.208533 
L 106.288909 94.232561 
L 129.778557 73.973468 
L 149.771152 66.728777 
L 164.309483 65.436503 
z
M 233.533671 214.554331 
L 230.179505 184.414431 
L 224.743511 160.769364 
L 222.948999 157.938576 
L 228.671098 182.82812 
L 232.2018 214.554331 
z
" clip-path="url(#p6199ae84d2)" style="fill: #24aa83; fill-opacity: 0.7"/>
    <path d="M 161.779637 61.445747 
L 139.346272 63.43979 
L 126.135658 68.226903 
L 100.905896 89.986791 
L 90.775806 101.618549 
L 79.096922 120.041637 
L 75.382006 125.901806 
L 73.350793 162.765811 
L 76.820276 214.554331 
L 80.022357 214.554331 
L 76.731511 165.432302 
L 79.221698 120.238468 
L 79.226583 120.164359 
L 79.233853 120.084838 
L 103.597403 92.109676 
L 127.957107 71.100186 
L 144.558712 65.084283 
L 163.04456 63.441125 
z
M 234.865543 214.554331 
L 231.687911 186.000741 
L 226.538022 163.600152 
L 224.743511 160.769364 
L 230.179505 184.414431 
L 233.533671 214.554331 
z
" clip-path="url(#p6199ae84d2)" style="fill: #28ae80; fill-opacity: 0.7"/>
    <path d="M 160.514714 59.450369 
L 134.133832 61.795296 
L 124.314208 65.353621 
L 101.040262 85.426678 
L 99.068289 88.537406 
L 90.775806 101.618549 
L 100.905896 89.986791 
L 126.135658 68.226903 
L 139.346272 63.43979 
L 161.779637 61.445747 
z
M 71.518557 131.996279 
L 69.970075 160.099321 
L 73.618196 214.554331 
L 76.820276 214.554331 
L 73.350793 162.765811 
L 75.382006 125.901806 
z
M 236.197414 214.554331 
L 233.196318 187.587052 
L 228.332534 166.430939 
L 226.538022 163.600152 
L 231.687911 186.000741 
L 234.865543 214.554331 
z
" clip-path="url(#p6199ae84d2)" style="fill: #2fb47c; fill-opacity: 0.7"/>
    <path d="M 159.249791 57.454991 
L 128.921392 60.150803 
L 122.492758 62.480338 
L 107.255955 75.621609 
L 101.040262 85.426678 
L 124.314208 65.353621 
L 134.133832 61.795296 
L 160.514714 59.450369 
z
M 67.655109 138.090753 
L 66.589358 157.43283 
L 70.416115 214.554331 
L 73.618196 214.554331 
L 69.970075 160.099321 
L 71.518557 131.996279 
z
M 237.529285 214.554331 
L 234.704724 189.173362 
L 230.127045 169.261727 
L 228.332534 166.430939 
L 233.196318 187.587052 
L 236.197414 214.554331 
z
" clip-path="url(#p6199ae84d2)" style="fill: #37b878; fill-opacity: 0.7"/>
    <path d="M 157.984868 55.459613 
L 123.708952 58.506309 
L 120.671308 59.607056 
L 113.471649 65.816539 
L 107.255955 75.621609 
L 122.492758 62.480338 
L 128.921392 60.150803 
L 159.249791 57.454991 
z
M 63.791661 144.185227 
L 63.20864 154.76634 
L 67.214034 214.554331 
L 70.416115 214.554331 
L 66.589358 157.43283 
L 67.655109 138.090753 
z
M 238.861157 214.554331 
L 236.21313 190.759673 
L 231.921556 172.092515 
L 230.127045 169.261727 
L 234.704724 189.173362 
L 237.529285 214.554331 
z
" clip-path="url(#p6199ae84d2)" style="fill: #40bd72; fill-opacity: 0.7"/>
    <path d="M 156.719945 53.464235 
L 119.187205 56.800422 
L 119.039656 57.033175 
L 113.471649 65.816539 
L 120.671308 59.607056 
L 123.708952 58.506309 
L 157.984868 55.459613 
z
M 59.928212 150.2797 
L 59.827922 152.09985 
L 64.011953 214.554331 
L 67.214034 214.554331 
L 63.20864 154.76634 
L 63.791661 144.185227 
z
M 240.193028 214.554331 
L 237.721537 192.345983 
L 233.716068 174.923302 
L 231.921556 172.092515 
L 236.21313 190.759673 
L 238.861157 214.554331 
z
" clip-path="url(#p6199ae84d2)" style="fill: #4ac16d; fill-opacity: 0.7"/>
    <path d="M 155.455022 51.468857 
L 120.603192 54.566745 
L 119.187205 56.800422 
L 156.719945 53.464235 
z
M 56.831196 155.165151 
L 60.809872 214.554331 
L 64.011953 214.554331 
L 59.827922 152.09985 
L 59.928212 150.2797 
L 59.125555 151.545868 
z
M 241.524899 214.554331 
L 239.229943 193.932294 
L 235.510579 177.75409 
L 233.716068 174.923302 
L 237.721537 192.345983 
L 240.193028 214.554331 
z
" clip-path="url(#p6199ae84d2)" style="fill: #54c568; fill-opacity: 0.7"/>
    <path d="M 154.190099 49.473479 
L 122.019179 52.333068 
L 120.603192 54.566745 
L 155.455022 51.468857 
z
M 53.935167 159.733549 
L 57.607791 214.554331 
L 60.809872 214.554331 
L 56.831196 155.165151 
z
M 242.856771 214.554331 
L 240.73835 195.518604 
L 237.30509 180.584878 
L 235.510579 177.75409 
L 239.229943 193.932294 
L 241.524899 214.554331 
z
" clip-path="url(#p6199ae84d2)" style="fill: #60ca60; fill-opacity: 0.7"/>
    <path d="M 152.925176 47.478101 
L 123.435166 50.099391 
L 122.019179 52.333068 
L 154.190099 49.473479 
z
M 51.039138 164.301948 
L 54.40571 214.554331 
L 57.607791 214.554331 
L 53.935167 159.733549 
z
M 244.188642 214.554331 
L 242.246756 197.104915 
L 239.099602 183.415666 
L 237.30509 180.584878 
L 240.73835 195.518604 
L 242.856771 214.554331 
z
" clip-path="url(#p6199ae84d2)" style="fill: #6ccd5a; fill-opacity: 0.7"/>
    <path d="M 151.660253 45.482723 
L 124.851153 47.865714 
L 123.435166 50.099391 
L 152.925176 47.478101 
z
M 48.143109 168.870346 
L 51.203629 214.554331 
L 54.40571 214.554331 
L 51.039138 164.301948 
z
M 245.520513 214.554331 
L 243.755163 198.691225 
L 240.894113 186.246453 
L 239.099602 183.415666 
L 242.246756 197.104915 
L 244.188642 214.554331 
z
" clip-path="url(#p6199ae84d2)" style="fill: #7ad151; fill-opacity: 0.7"/>
    <path d="M 150.39533 43.487345 
L 126.26714 45.632037 
L 124.851153 47.865714 
L 151.660253 45.482723 
z
M 45.24708 173.438745 
L 48.001548 214.554331 
L 51.203629 214.554331 
L 48.143109 168.870346 
z
M 246.852385 214.554331 
L 245.263569 200.277536 
L 242.688625 189.077241 
L 240.894113 186.246453 
L 243.755163 198.691225 
L 245.520513 214.554331 
z
" clip-path="url(#p6199ae84d2)" style="fill: #86d549; fill-opacity: 0.7"/>
    <path d="M 149.130407 41.491967 
L 127.683127 43.39836 
L 126.26714 45.632037 
L 150.39533 43.487345 
z
M 42.351051 178.007143 
L 44.799468 214.554331 
L 48.001548 214.554331 
L 45.24708 173.438745 
z
M 248.184256 214.554331 
L 246.771975 201.863846 
L 244.483136 191.908029 
L 242.688625 189.077241 
L 245.263569 200.277536 
L 246.852385 214.554331 
z
" clip-path="url(#p6199ae84d2)" style="fill: #95d840; fill-opacity: 0.7"/>
    <path d="M 147.865484 39.496589 
L 129.099114 41.164683 
L 127.683127 43.39836 
L 149.130407 41.491967 
z
M 39.455022 182.575542 
L 41.597387 214.554331 
L 44.799468 214.554331 
L 42.351051 178.007143 
z
M 249.516127 214.554331 
L 248.280382 203.450157 
L 246.277647 194.738817 
L 244.483136 191.908029 
L 246.771975 201.863846 
L 248.184256 214.554331 
z
" clip-path="url(#p6199ae84d2)" style="fill: #a2da37; fill-opacity: 0.7"/>
    <path d="M 146.600562 37.501211 
L 130.515101 38.931006 
L 129.099114 41.164683 
L 147.865484 39.496589 
z
M 36.558993 187.14394 
L 38.395306 214.554331 
L 41.597387 214.554331 
L 39.455022 182.575542 
z
M 250.847999 214.554331 
L 249.788788 205.036468 
L 248.072159 197.569604 
L 246.277647 194.738817 
L 248.280382 203.450157 
L 249.516127 214.554331 
z
" clip-path="url(#p6199ae84d2)" style="fill: #b2dd2d; fill-opacity: 0.7"/>
    <path d="M 145.335639 35.505833 
L 131.931088 36.697328 
L 130.515101 38.931006 
L 146.600562 37.501211 
z
M 33.662965 191.712339 
L 35.193225 214.554331 
L 38.395306 214.554331 
L 36.558993 187.14394 
z
M 252.17987 214.554331 
L 251.297195 206.622778 
L 249.86667 200.400392 
L 248.072159 197.569604 
L 249.788788 205.036468 
L 250.847999 214.554331 
z
" clip-path="url(#p6199ae84d2)" style="fill: #c0df25; fill-opacity: 0.7"/>
    <path d="M 144.070716 33.510455 
L 133.347075 34.463651 
L 131.931088 36.697328 
L 145.335639 35.505833 
z
M 30.766936 196.280737 
L 31.991144 214.554331 
L 35.193225 214.554331 
L 33.662965 191.712339 
z
M 253.511742 214.554331 
L 252.805601 208.209089 
L 251.661181 203.23118 
L 249.86667 200.400392 
L 251.297195 206.622778 
L 252.17987 214.554331 
z
" clip-path="url(#p6199ae84d2)" style="fill: #cde11d; fill-opacity: 0.7"/>
    <path d="M 142.805793 31.515077 
L 134.763062 32.229974 
L 133.347075 34.463651 
L 144.070716 33.510455 
z
M 27.870907 200.849135 
L 28.789063 214.554331 
L 31.991144 214.554331 
L 30.766936 196.280737 
z
M 254.843613 214.554331 
L 254.314008 209.795399 
L 253.455693 206.061968 
L 251.661181 203.23118 
L 252.805601 208.209089 
L 253.511742 214.554331 
z
" clip-path="url(#p6199ae84d2)" style="fill: #dde318; fill-opacity: 0.7"/>
    <path d="M 141.54087 29.519699 
L 136.179049 29.996297 
L 134.763062 32.229974 
L 142.805793 31.515077 
z
M 24.974878 205.417534 
L 25.586982 214.554331 
L 28.789063 214.554331 
L 27.870907 200.849135 
z
M 256.175484 214.554331 
L 255.822414 211.38171 
L 255.250204 208.892755 
L 253.455693 206.061968 
L 254.314008 209.795399 
L 254.843613 214.554331 
z
" clip-path="url(#p6199ae84d2)" style="fill: #eae51a; fill-opacity: 0.7"/>
    <path d="M 140.275947 27.524321 
L 137.595037 27.76262 
L 136.179049 29.996297 
L 141.54087 29.519699 
z
M 22.078849 209.985932 
L 22.384901 214.554331 
L 25.586982 214.554331 
L 24.974878 205.417534 
z
M 257.507356 214.554331 
L 257.33082 212.96802 
L 257.044716 211.723543 
L 255.250204 208.892755 
L 255.822414 211.38171 
L 256.175484 214.554331 
z
" clip-path="url(#p6199ae84d2)" style="fill: #f8e621; fill-opacity: 0.7"/>
    <path d="M 137.595037 27.76262 
L 140.275947 27.524321 
L 139.011024 25.528943 
z
M 22.384901 214.554331 
L 22.078849 209.985932 
L 19.18282 214.554331 
z
M 257.044716 211.723543 
L 257.33082 212.96802 
L 257.507356 214.554331 
L 258.839227 214.554331 
z
" clip-path="url(#p6199ae84d2)" style="fill: #fde725; fill-opacity: 0.7"/>
   </g>
   <g id="matplotlib.axis_1"/>
   <g id="matplotlib.axis_2"/>
   <g id="line2d_1">
    <path d="M 175.88124 83.690601 
L 203.533902 156.392673 
" clip-path="url(#p6199ae84d2)" style="fill: none; stroke: #555555; stroke-opacity: 0.9; stroke-width: 0.5; stroke-linecap: square"/>
   </g>
   <g id="line2d_2">
    <path d="M 178.953758 214.554331 
L 178.953758 151.545868 
" clip-path="url(#p6199ae84d2)" style="fill: none; stroke: #555555; stroke-opacity: 0.9; stroke-width: 0.5; stroke-linecap: square"/>
   </g>
   <g id="line2d_3">
    <path d="M 79.096922 120.041637 
L 99.068289 88.537406 
" clip-path="url(#p6199ae84d2)" style="fill: none; stroke: #555555; stroke-opacity: 0.9; stroke-width: 0.5; stroke-linecap: square"/>
   </g>
   <g id="line2d_4">
    <path d="M 79.096922 120.041637 
L 178.953758 214.554331 
" clip-path="url(#p6199ae84d2)" style="fill: none; stroke: #555555; stroke-opacity: 0.9; stroke-width: 0.5; stroke-linecap: square"/>
   </g>
   <g id="line2d_5">
    <path d="M 168.968074 72.78529 
L 175.88124 83.690601 
" clip-path="url(#p6199ae84d2)" style="fill: none; stroke: #555555; stroke-opacity: 0.9; stroke-width: 0.5; stroke-linecap: square"/>
   </g>
   <g id="line2d_6">
    <path d="M 178.953758 151.545868 
L 210.907946 214.554331 
" clip-path="url(#p6199ae84d2)" style="fill: none; stroke: #555555; stroke-opacity: 0.9; stroke-width: 0.5; stroke-linecap: square"/>
   </g>
   <g id="line2d_7">
    <path d="M 59.125555 151.545868 
L 19.18282 214.554331 
" clip-path="url(#p6199ae84d2)" style="fill: none; stroke: #555555; stroke-opacity: 0.9; stroke-width: 0.5; stroke-linecap: square"/>
   </g>
   <g id="line2d_8">
    <path d="M 218.896492 151.545868 
L 258.839227 214.554331 
" clip-path="url(#p6199ae84d2)" style="fill: none; stroke: #555555; stroke-opacity: 0.9; stroke-width: 0.5; stroke-linecap: square"/>
   </g>
   <g id="line2d_9">
    <path d="M 210.907946 214.554331 
L 258.839227 214.554331 
" clip-path="url(#p6199ae84d2)" style="fill: none; stroke: #555555; stroke-opacity: 0.9; stroke-width: 0.5; stroke-linecap: square"/>
   </g>
   <g id="line2d_10">
    <path d="M 218.896492 151.545868 
L 203.533902 156.392673 
" clip-path="url(#p6199ae84d2)" style="fill: none; stroke: #555555; stroke-opacity: 0.9; stroke-width: 0.5; stroke-linecap: square"/>
   </g>
   <g id="line2d_11">
    <path d="M 210.907946 214.554331 
L 203.533902 156.392673 
" clip-path="url(#p6199ae84d2)" style="fill: none; stroke: #555555; stroke-opacity: 0.9; stroke-width: 0.5; stroke-linecap: square"/>
   </g>
   <g id="line2d_12">
    <path d="M 79.096922 120.041637 
L 139.011024 214.554331 
" clip-path="url(#p6199ae84d2)" style="fill: none; stroke: #555555; stroke-opacity: 0.9; stroke-width: 0.5; stroke-linecap: square"/>
   </g>
   <g id="line2d_13">
    <path d="M 99.068289 88.537406 
L 119.039656 57.033175 
" clip-path="url(#p6199ae84d2)" style="fill: none; stroke: #555555; stroke-opacity: 0.9; stroke-width: 0.5; stroke-linecap: square"/>
   </g>
   <g id="line2d_14">
    <path d="M 99.068289 88.537406 
L 178.953758 151.545868 
" clip-path="url(#p6199ae84d2)" style="fill: none; stroke: #555555; stroke-opacity: 0.9; stroke-width: 0.5; stroke-linecap: square"/>
   </g>
   <g id="line2d_15">
    <path d="M 139.011024 214.554331 
L 59.125555 151.545868 
" clip-path="url(#p6199ae84d2)" style="fill: none; stroke: #555555; stroke-opacity: 0.9; stroke-width: 0.5; stroke-linecap: square"/>
   </g>
   <g id="line2d_16">
    <path d="M 139.011024 214.554331 
L 19.18282 214.554331 
" clip-path="url(#p6199ae84d2)" style="fill: none; stroke: #555555; stroke-opacity: 0.9; stroke-width: 0.5; stroke-linecap: square"/>
   </g>
   <g id="line2d_17">
    <path d="M 119.039656 57.033175 
L 139.011024 25.528943 
" clip-path="url(#p6199ae84d2)" style="fill: none; stroke: #555555; stroke-opacity: 0.9; stroke-width: 0.5; stroke-linecap: square"/>
   </g>
   <g id="line2d_18">
    <path d="M 168.968074 72.78529 
L 139.011024 25.528943 
" clip-path="url(#p6199ae84d2)" style="fill: none; stroke: #555555; stroke-opacity: 0.9; stroke-width: 0.5; stroke-linecap: square"/>
   </g>
   <g id="line2d_19">
    <path d="M 175.88124 83.690601 
L 178.953758 151.545868 
" clip-path="url(#p6199ae84d2)" style="fill: none; stroke: #555555; stroke-opacity: 0.9; stroke-width: 0.5; stroke-linecap: square"/>
   </g>
   <g id="line2d_20">
    <path d="M 178.953758 214.554331 
L 210.907946 214.554331 
" clip-path="url(#p6199ae84d2)" style="fill: none; stroke: #555555; stroke-opacity: 0.9; stroke-width: 0.5; stroke-linecap: square"/>
   </g>
   <g id="line2d_21">
    <path d="M 198.925125 120.041637 
L 218.896492 151.545868 
" clip-path="url(#p6199ae84d2)" style="fill: none; stroke: #555555; stroke-opacity: 0.9; stroke-width: 0.5; stroke-linecap: square"/>
   </g>
   <g id="line2d_22">
    <path d="M 79.096922 120.041637 
L 59.125555 151.545868 
" clip-path="url(#p6199ae84d2)" style="fill: none; stroke: #555555; stroke-opacity: 0.9; stroke-width: 0.5; stroke-linecap: square"/>
   </g>
   <g id="line2d_23">
    <path d="M 119.039656 57.033175 
L 178.953758 151.545868 
" clip-path="url(#p6199ae84d2)" style="fill: none; stroke: #555555; stroke-opacity: 0.9; stroke-width: 0.5; stroke-linecap: square"/>
   </g>
   <g id="line2d_24">
    <path d="M 198.925125 120.041637 
L 175.88124 83.690601 
" clip-path="url(#p6199ae84d2)" style="fill: none; stroke: #555555; stroke-opacity: 0.9; stroke-width: 0.5; stroke-linecap: square"/>
   </g>
   <g id="line2d_25">
    <path d="M 79.096922 120.041637 
L 178.953758 151.545868 
" clip-path="url(#p6199ae84d2)" style="fill: none; stroke: #555555; stroke-opacity: 0.9; stroke-width: 0.5; stroke-linecap: square"/>
   </g>
   <g id="line2d_26">
    <path d="M 139.011024 214.554331 
L 178.953758 214.554331 
" clip-path="url(#p6199ae84d2)" style="fill: none; stroke: #555555; stroke-opacity: 0.9; stroke-width: 0.5; stroke-linecap: square"/>
   </g>
   <g id="line2d_27">
    <path d="M 168.968074 72.78529 
L 178.953758 151.545868 
" clip-path="url(#p6199ae84d2)" style="fill: none; stroke: #555555; stroke-opacity: 0.9; stroke-width: 0.5; stroke-linecap: square"/>
   </g>
   <g id="line2d_28">
    <path d="M 198.925125 120.041637 
L 203.533902 156.392673 
" clip-path="url(#p6199ae84d2)" style="fill: none; stroke: #555555; stroke-opacity: 0.9; stroke-width: 0.5; stroke-linecap: square"/>
   </g>
   <g id="line2d_29">
    <path d="M 168.968074 72.78529 
L 119.039656 57.033175 
" clip-path="url(#p6199ae84d2)" style="fill: none; stroke: #555555; stroke-opacity: 0.9; stroke-width: 0.5; stroke-linecap: square"/>
   </g>
   <g id="line2d_30">
    <path d="M 178.953758 151.545868 
L 203.533902 156.392673 
" clip-path="url(#p6199ae84d2)" style="fill: none; stroke: #555555; stroke-opacity: 0.9; stroke-width: 0.5; stroke-linecap: square"/>
   </g>
   <g id="line2d_31">
    <path d="M 203.533902 156.392673 
L 258.839227 214.554331 
" clip-path="url(#p6199ae84d2)" style="fill: none; stroke: #555555; stroke-opacity: 0.9; stroke-width: 0.5; stroke-linecap: square"/>
   </g>
   <g id="PathCollection_1">
    <defs>
     <path id="mf73b000c05" d="M 0 2.738613 
C 0.726289 2.738613 1.422928 2.450055 1.936492 1.936492 
C 2.450055 1.422928 2.738613 0.726289 2.738613 0 
C 2.738613 -0.726289 2.450055 -1.422928 1.936492 -1.936492 
C 1.422928 -2.450055 0.726289 -2.738613 0 -2.738613 
C -0.726289 -2.738613 -1.422928 -2.450055 -1.936492 -1.936492 
C -2.450055 -1.422928 -2.738613 -0.726289 -2.738613 0 
C -2.738613 0.726289 -2.450055 1.422928 -1.936492 1.936492 
C -1.422928 2.450055 -0.726289 2.738613 0 2.738613 
z
" style="stroke: #008000"/>
    </defs>
    <g clip-path="url(#p6199ae84d2)">
     <use xlink:href="#mf73b000c05" x="175.88124" y="83.690601" style="fill: #008000; stroke: #008000"/>
     <use xlink:href="#mf73b000c05" x="203.533902" y="156.392673" style="fill: #008000; stroke: #008000"/>
     <use xlink:href="#mf73b000c05" x="178.953758" y="214.554331" style="fill: #008000; stroke: #008000"/>
     <use xlink:href="#mf73b000c05" x="178.953758" y="151.545868" style="fill: #008000; stroke: #008000"/>
     <use xlink:href="#mf73b000c05" x="79.096922" y="120.041637" style="fill: #008000; stroke: #008000"/>
     <use xlink:href="#mf73b000c05" x="99.068289" y="88.537406" style="fill: #008000; stroke: #008000"/>
     <use xlink:href="#mf73b000c05" x="168.968074" y="72.78529" style="fill: #008000; stroke: #008000"/>
     <use xlink:href="#mf73b000c05" x="210.907946" y="214.554331" style="fill: #008000; stroke: #008000"/>
     <use xlink:href="#mf73b000c05" x="59.125555" y="151.545868" style="fill: #008000; stroke: #008000"/>
     <use xlink:href="#mf73b000c05" x="19.18282" y="214.554331" style="fill: #008000; stroke: #008000"/>
     <use xlink:href="#mf73b000c05" x="218.896492" y="151.545868" style="fill: #008000; stroke: #008000"/>
     <use xlink:href="#mf73b000c05" x="258.839227" y="214.554331" style="fill: #008000; stroke: #008000"/>
     <use xlink:href="#mf73b000c05" x="139.011024" y="214.554331" style="fill: #008000; stroke: #008000"/>
     <use xlink:href="#mf73b000c05" x="119.039656" y="57.033175" style="fill: #008000; stroke: #008000"/>
     <use xlink:href="#mf73b000c05" x="139.011024" y="25.528943" style="fill: #008000; stroke: #008000"/>
     <use xlink:href="#mf73b000c05" x="198.925125" y="120.041637" style="fill: #008000; stroke: #008000"/>
    </g>
   </g>
   <g id="PathCollection_2">
    <defs>
     <path id="m665c772b1a" d="M -0 2.236068 
L 1.341641 0 
L 0 -2.236068 
L -1.341641 -0 
z
" style="stroke: #d3d3d3"/>
    </defs>
    <g clip-path="url(#p6199ae84d2)">
     <use xlink:href="#m665c772b1a" x="139.011024" y="25.528943" style="fill: #d3d3d3; stroke: #d3d3d3"/>
     <use xlink:href="#m665c772b1a" x="139.011024" y="25.528943" style="fill: #d3d3d3; stroke: #d3d3d3"/>
     <use xlink:href="#m665c772b1a" x="139.011024" y="25.528943" style="fill: #d3d3d3; stroke: #d3d3d3"/>
     <use xlink:href="#m665c772b1a" x="139.011024" y="25.528943" style="fill: #d3d3d3; stroke: #d3d3d3"/>
     <use xlink:href="#m665c772b1a" x="139.011024" y="25.528943" style="fill: #d3d3d3; stroke: #d3d3d3"/>
     <use xlink:href="#m665c772b1a" x="139.011024" y="25.528943" style="fill: #d3d3d3; stroke: #d3d3d3"/>
     <use xlink:href="#m665c772b1a" x="139.011024" y="25.528943" style="fill: #d3d3d3; stroke: #d3d3d3"/>
     <use xlink:href="#m665c772b1a" x="258.839227" y="214.554331" style="fill: #d3d3d3; stroke: #d3d3d3"/>
     <use xlink:href="#m665c772b1a" x="258.839227" y="214.554331" style="fill: #d3d3d3; stroke: #d3d3d3"/>
     <use xlink:href="#m665c772b1a" x="258.839227" y="214.554331" style="fill: #d3d3d3; stroke: #d3d3d3"/>
     <use xlink:href="#m665c772b1a" x="258.839227" y="214.554331" style="fill: #d3d3d3; stroke: #d3d3d3"/>
     <use xlink:href="#m665c772b1a" x="258.839227" y="214.554331" style="fill: #d3d3d3; stroke: #d3d3d3"/>
     <use xlink:href="#m665c772b1a" x="258.839227" y="214.554331" style="fill: #d3d3d3; stroke: #d3d3d3"/>
     <use xlink:href="#m665c772b1a" x="258.839227" y="214.554331" style="fill: #d3d3d3; stroke: #d3d3d3"/>
     <use xlink:href="#m665c772b1a" x="258.839227" y="214.554331" style="fill: #d3d3d3; stroke: #d3d3d3"/>
     <use xlink:href="#m665c772b1a" x="258.839227" y="214.554331" style="fill: #d3d3d3; stroke: #d3d3d3"/>
     <use xlink:href="#m665c772b1a" x="198.925125" y="120.041637" style="fill: #d3d3d3; stroke: #d3d3d3"/>
     <use xlink:href="#m665c772b1a" x="168.968074" y="72.78529" style="fill: #d3d3d3; stroke: #d3d3d3"/>
     <use xlink:href="#m665c772b1a" x="168.968074" y="72.78529" style="fill: #d3d3d3; stroke: #d3d3d3"/>
     <use xlink:href="#m665c772b1a" x="168.968074" y="72.78529" style="fill: #d3d3d3; stroke: #d3d3d3"/>
     <use xlink:href="#m665c772b1a" x="162.976664" y="63.334021" style="fill: #d3d3d3; stroke: #d3d3d3"/>
     <use xlink:href="#m665c772b1a" x="218.896492" y="151.545868" style="fill: #d3d3d3; stroke: #d3d3d3"/>
     <use xlink:href="#m665c772b1a" x="218.896492" y="151.545868" style="fill: #d3d3d3; stroke: #d3d3d3"/>
     <use xlink:href="#m665c772b1a" x="228.882176" y="167.297984" style="fill: #d3d3d3; stroke: #d3d3d3"/>
     <use xlink:href="#m665c772b1a" x="228.882176" y="167.297984" style="fill: #d3d3d3; stroke: #d3d3d3"/>
     <use xlink:href="#m665c772b1a" x="210.907946" y="138.944176" style="fill: #d3d3d3; stroke: #d3d3d3"/>
     <use xlink:href="#m665c772b1a" x="164.238014" y="65.323762" style="fill: #d3d3d3; stroke: #d3d3d3"/>
     <use xlink:href="#m665c772b1a" x="19.18282" y="214.554331" style="fill: #d3d3d3; stroke: #d3d3d3"/>
     <use xlink:href="#m665c772b1a" x="19.18282" y="214.554331" style="fill: #d3d3d3; stroke: #d3d3d3"/>
     <use xlink:href="#m665c772b1a" x="19.18282" y="214.554331" style="fill: #d3d3d3; stroke: #d3d3d3"/>
     <use xlink:href="#m665c772b1a" x="19.18282" y="214.554331" style="fill: #d3d3d3; stroke: #d3d3d3"/>
     <use xlink:href="#m665c772b1a" x="19.18282" y="214.554331" style="fill: #d3d3d3; stroke: #d3d3d3"/>
     <use xlink:href="#m665c772b1a" x="79.096922" y="120.041637" style="fill: #d3d3d3; stroke: #d3d3d3"/>
     <use xlink:href="#m665c772b1a" x="139.011024" y="214.554331" style="fill: #d3d3d3; stroke: #d3d3d3"/>
     <use xlink:href="#m665c772b1a" x="67.114102" y="214.554331" style="fill: #d3d3d3; stroke: #d3d3d3"/>
    </g>
   </g>
   <g id="PathCollection_3">
    <defs>
     <path id="m7076446a7d" d="M 0 -5 
L -1.12257 -1.545085 
L -4.755283 -1.545085 
L -1.816356 0.59017 
L -2.938926 4.045085 
L -0 1.90983 
L 2.938926 4.045085 
L 1.816356 0.59017 
L 4.755283 -1.545085 
L 1.12257 -1.545085 
z
" style="stroke: #ff0000"/>
    </defs>
    <g clip-path="url(#p6199ae84d2)">
     <use xlink:href="#m7076446a7d" x="203.533902" y="156.392673" style="fill: #ff0000; stroke: #ff0000"/>
    </g>
   </g>
   <g id="text_1">
    <!-- $\mathrm{Al_{4}Cu_{9}}$ -->
    <g transform="translate(170.053967 92.638484) scale(0.1 -0.1)">
     <defs>
      <path id="DejaVuSans-41" d="M 2188 4044 
L 1331 1722 
L 3047 1722 
L 2188 4044 
z
M 1831 4666 
L 2547 4666 
L 4325 0 
L 3669 0 
L 3244 1197 
L 1141 1197 
L 716 0 
L 50 0 
L 1831 4666 
z
" transform="scale(0.015625)"/>
      <path id="DejaVuSans-6c" d="M 603 4863 
L 1178 4863 
L 1178 0 
L 603 0 
L 603 4863 
z
" transform="scale(0.015625)"/>
      <path id="DejaVuSans-34" d="M 2419 4116 
L 825 1625 
L 2419 1625 
L 2419 4116 
z
M 2253 4666 
L 3047 4666 
L 3047 1625 
L 3713 1625 
L 3713 1100 
L 3047 1100 
L 3047 0 
L 2419 0 
L 2419 1100 
L 313 1100 
L 313 1709 
L 2253 4666 
z
" transform="scale(0.015625)"/>
      <path id="DejaVuSans-43" d="M 4122 4306 
L 4122 3641 
Q 3803 3938 3442 4084 
Q 3081 4231 2675 4231 
Q 1875 4231 1450 3742 
Q 1025 3253 1025 2328 
Q 1025 1406 1450 917 
Q 1875 428 2675 428 
Q 3081 428 3442 575 
Q 3803 722 4122 1019 
L 4122 359 
Q 3791 134 3420 21 
Q 3050 -91 2638 -91 
Q 1578 -91 968 557 
Q 359 1206 359 2328 
Q 359 3453 968 4101 
Q 1578 4750 2638 4750 
Q 3056 4750 3426 4639 
Q 3797 4528 4122 4306 
z
" transform="scale(0.015625)"/>
      <path id="DejaVuSans-75" d="M 544 1381 
L 544 3500 
L 1119 3500 
L 1119 1403 
Q 1119 906 1312 657 
Q 1506 409 1894 409 
Q 2359 409 2629 706 
Q 2900 1003 2900 1516 
L 2900 3500 
L 3475 3500 
L 3475 0 
L 2900 0 
L 2900 538 
Q 2691 219 2414 64 
Q 2138 -91 1772 -91 
Q 1169 -91 856 284 
Q 544 659 544 1381 
z
M 1991 3584 
L 1991 3584 
z
" transform="scale(0.015625)"/>
      <path id="DejaVuSans-39" d="M 703 97 
L 703 672 
Q 941 559 1184 500 
Q 1428 441 1663 441 
Q 2288 441 2617 861 
Q 2947 1281 2994 2138 
Q 2813 1869 2534 1725 
Q 2256 1581 1919 1581 
Q 1219 1581 811 2004 
Q 403 2428 403 3163 
Q 403 3881 828 4315 
Q 1253 4750 1959 4750 
Q 2769 4750 3195 4129 
Q 3622 3509 3622 2328 
Q 3622 1225 3098 567 
Q 2575 -91 1691 -91 
Q 1453 -91 1209 -44 
Q 966 3 703 97 
z
M 1959 2075 
Q 2384 2075 2632 2365 
Q 2881 2656 2881 3163 
Q 2881 3666 2632 3958 
Q 2384 4250 1959 4250 
Q 1534 4250 1286 3958 
Q 1038 3666 1038 3163 
Q 1038 2656 1286 2365 
Q 1534 2075 1959 2075 
z
" transform="scale(0.015625)"/>
     </defs>
     <use xlink:href="#DejaVuSans-41" transform="translate(0 0.015625)"/>
     <use xlink:href="#DejaVuSans-6c" transform="translate(68.408203 0.015625)"/>
     <use xlink:href="#DejaVuSans-34" transform="translate(97.148438 -16.390625) scale(0.7)"/>
     <use xlink:href="#DejaVuSans-43" transform="translate(144.418945 0.015625)"/>
     <use xlink:href="#DejaVuSans-75" transform="translate(214.243164 0.015625)"/>
     <use xlink:href="#DejaVuSans-39" transform="translate(278.579102 -16.390625) scale(0.7)"/>
    </g>
   </g>
   <g id="text_2">
    <!-- $\mathrm{EuAl_{2}}$ -->
    <g transform="translate(164.094667 210.544971) scale(0.1 -0.1)">
     <defs>
      <path id="DejaVuSans-45" d="M 628 4666 
L 3578 4666 
L 3578 4134 
L 1259 4134 
L 1259 2753 
L 3481 2753 
L 3481 2222 
L 1259 2222 
L 1259 531 
L 3634 531 
L 3634 0 
L 628 0 
L 628 4666 
z
" transform="scale(0.015625)"/>
      <path id="DejaVuSans-32" d="M 1228 531 
L 3431 531 
L 3431 0 
L 469 0 
L 469 531 
Q 828 903 1448 1529 
Q 2069 2156 2228 2338 
Q 2531 2678 2651 2914 
Q 2772 3150 2772 3378 
Q 2772 3750 2511 3984 
Q 2250 4219 1831 4219 
Q 1534 4219 1204 4116 
Q 875 4013 500 3803 
L 500 4441 
Q 881 4594 1212 4672 
Q 1544 4750 1819 4750 
Q 2544 4750 2975 4387 
Q 3406 4025 3406 3419 
Q 3406 3131 3298 2873 
Q 3191 2616 2906 2266 
Q 2828 2175 2409 1742 
Q 1991 1309 1228 531 
z
" transform="scale(0.015625)"/>
     </defs>
     <use xlink:href="#DejaVuSans-45" transform="translate(0 0.015625)"/>
     <use xlink:href="#DejaVuSans-75" transform="translate(63.183594 0.015625)"/>
     <use xlink:href="#DejaVuSans-41" transform="translate(126.5625 0.015625)"/>
     <use xlink:href="#DejaVuSans-6c" transform="translate(194.970703 0.015625)"/>
     <use xlink:href="#DejaVuSans-32" transform="translate(223.710938 -16.390625) scale(0.7)"/>
    </g>
   </g>
   <g id="text_3">
    <!-- $\mathrm{EuAl_{3}Cu_{2}}$ -->
    <g transform="translate(150.412849 147.470198) scale(0.1 -0.1)">
     <defs>
      <path id="DejaVuSans-33" d="M 2597 2516 
Q 3050 2419 3304 2112 
Q 3559 1806 3559 1356 
Q 3559 666 3084 287 
Q 2609 -91 1734 -91 
Q 1441 -91 1130 -33 
Q 819 25 488 141 
L 488 750 
Q 750 597 1062 519 
Q 1375 441 1716 441 
Q 2309 441 2620 675 
Q 2931 909 2931 1356 
Q 2931 1769 2642 2001 
Q 2353 2234 1838 2234 
L 1294 2234 
L 1294 2753 
L 1863 2753 
Q 2328 2753 2575 2939 
Q 2822 3125 2822 3475 
Q 2822 3834 2567 4026 
Q 2313 4219 1838 4219 
Q 1578 4219 1281 4162 
Q 984 4106 628 3988 
L 628 4550 
Q 988 4650 1302 4700 
Q 1616 4750 1894 4750 
Q 2613 4750 3031 4423 
Q 3450 4097 3450 3541 
Q 3450 3153 3228 2886 
Q 3006 2619 2597 2516 
z
" transform="scale(0.015625)"/>
     </defs>
     <use xlink:href="#DejaVuSans-45" transform="translate(0 0.015625)"/>
     <use xlink:href="#DejaVuSans-75" transform="translate(63.183594 0.015625)"/>
     <use xlink:href="#DejaVuSans-41" transform="translate(126.5625 0.015625)"/>
     <use xlink:href="#DejaVuSans-6c" transform="translate(194.970703 0.015625)"/>
     <use xlink:href="#DejaVuSans-33" transform="translate(223.710938 -16.390625) scale(0.7)"/>
     <use xlink:href="#DejaVuSans-43" transform="translate(270.981445 0.015625)"/>
     <use xlink:href="#DejaVuSans-75" transform="translate(340.805664 0.015625)"/>
     <use xlink:href="#DejaVuSans-32" transform="translate(405.141602 -16.390625) scale(0.7)"/>
    </g>
   </g>
   <g id="text_4">
    <!-- $\mathrm{EuCu}$ -->
    <g transform="translate(58.896922 127.6151) scale(0.1 -0.1)">
     <use xlink:href="#DejaVuSans-45" transform="translate(0 0.78125)"/>
     <use xlink:href="#DejaVuSans-75" transform="translate(63.183594 0.78125)"/>
     <use xlink:href="#DejaVuSans-43" transform="translate(126.5625 0.78125)"/>
     <use xlink:href="#DejaVuSans-75" transform="translate(196.386719 0.78125)"/>
    </g>
   </g>
   <g id="text_5">
    <!-- $\mathrm{EuCu_{2}}$ -->
    <g transform="translate(75.159198 96.76175) scale(0.1 -0.1)">
     <use xlink:href="#DejaVuSans-45" transform="translate(0 0.78125)"/>
     <use xlink:href="#DejaVuSans-75" transform="translate(63.183594 0.78125)"/>
     <use xlink:href="#DejaVuSans-43" transform="translate(126.5625 0.78125)"/>
     <use xlink:href="#DejaVuSans-75" transform="translate(196.386719 0.78125)"/>
     <use xlink:href="#DejaVuSans-32" transform="translate(260.722656 -15.625) scale(0.7)"/>
    </g>
   </g>
   <g id="text_6">
    <!-- $\mathrm{AlCu_{3}}$ -->
    <g transform="translate(149.831711 68.638869) scale(0.1 -0.1)">
     <use xlink:href="#DejaVuSans-41" transform="translate(0 0.015625)"/>
     <use xlink:href="#DejaVuSans-6c" transform="translate(68.408203 0.015625)"/>
     <use xlink:href="#DejaVuSans-43" transform="translate(96.191406 0.015625)"/>
     <use xlink:href="#DejaVuSans-75" transform="translate(166.015625 0.015625)"/>
     <use xlink:href="#DejaVuSans-33" transform="translate(230.351562 -16.390625) scale(0.7)"/>
    </g>
   </g>
   <g id="text_7">
    <!-- $\mathrm{EuAl_{4}}$ -->
    <g transform="translate(196.048855 210.544971) scale(0.1 -0.1)">
     <use xlink:href="#DejaVuSans-45" transform="translate(0 0.015625)"/>
     <use xlink:href="#DejaVuSans-75" transform="translate(63.183594 0.015625)"/>
     <use xlink:href="#DejaVuSans-41" transform="translate(126.5625 0.015625)"/>
     <use xlink:href="#DejaVuSans-6c" transform="translate(194.970703 0.015625)"/>
     <use xlink:href="#DejaVuSans-34" transform="translate(223.710938 -16.390625) scale(0.7)"/>
    </g>
   </g>
   <g id="text_8">
    <!-- $\mathrm{Eu_{2}Cu}$ -->
    <g transform="translate(35.216464 159.770213) scale(0.1 -0.1)">
     <use xlink:href="#DejaVuSans-45" transform="translate(0 0.78125)"/>
     <use xlink:href="#DejaVuSans-75" transform="translate(63.183594 0.78125)"/>
     <use xlink:href="#DejaVuSans-32" transform="translate(127.519531 -15.625) scale(0.7)"/>
     <use xlink:href="#DejaVuSans-43" transform="translate(174.790039 0.78125)"/>
     <use xlink:href="#DejaVuSans-75" transform="translate(244.614258 0.78125)"/>
    </g>
   </g>
   <g id="text_9">
    <!-- $\mathrm{Eu}$ -->
    <g transform="translate(19.465566 212.151181) scale(0.1 -0.1)">
     <use xlink:href="#DejaVuSans-45" transform="translate(0 0.09375)"/>
     <use xlink:href="#DejaVuSans-75" transform="translate(63.183594 0.09375)"/>
    </g>
   </g>
   <g id="text_10">
    <!-- $\mathrm{Al_{2}Cu}$ -->
    <g transform="translate(211.541947 147.420198) scale(0.1 -0.1)">
     <use xlink:href="#DejaVuSans-41" transform="translate(0 0.015625)"/>
     <use xlink:href="#DejaVuSans-6c" transform="translate(68.408203 0.015625)"/>
     <use xlink:href="#DejaVuSans-32" transform="translate(97.148438 -16.390625) scale(0.7)"/>
     <use xlink:href="#DejaVuSans-43" transform="translate(144.418945 0.015625)"/>
     <use xlink:href="#DejaVuSans-75" transform="translate(214.243164 0.015625)"/>
    </g>
   </g>
   <g id="text_11">
    <!-- $\mathrm{Al}$ -->
    <g transform="translate(249.389691 211.215873) scale(0.1 -0.1)">
     <use xlink:href="#DejaVuSans-41" transform="translate(0 0.015625)"/>
     <use xlink:href="#DejaVuSans-6c" transform="translate(68.408203 0.015625)"/>
    </g>
   </g>
   <g id="text_12">
    <!-- $\mathrm{EuAl}$ -->
    <g transform="translate(127.206478 211.215873) scale(0.1 -0.1)">
     <use xlink:href="#DejaVuSans-45" transform="translate(0 0.015625)"/>
     <use xlink:href="#DejaVuSans-75" transform="translate(63.183594 0.015625)"/>
     <use xlink:href="#DejaVuSans-41" transform="translate(126.5625 0.015625)"/>
     <use xlink:href="#DejaVuSans-6c" transform="translate(194.970703 0.015625)"/>
    </g>
   </g>
   <g id="text_13">
    <!-- $\mathrm{EuCu_{5}}$ -->
    <g transform="translate(95.130565 65.307519) scale(0.1 -0.1)">
     <defs>
      <path id="DejaVuSans-35" d="M 691 4666 
L 3169 4666 
L 3169 4134 
L 1269 4134 
L 1269 2991 
Q 1406 3038 1543 3061 
Q 1681 3084 1819 3084 
Q 2600 3084 3056 2656 
Q 3513 2228 3513 1497 
Q 3513 744 3044 326 
Q 2575 -91 1722 -91 
Q 1428 -91 1123 -41 
Q 819 9 494 109 
L 494 744 
Q 775 591 1075 516 
Q 1375 441 1709 441 
Q 2250 441 2565 725 
Q 2881 1009 2881 1497 
Q 2881 1984 2565 2268 
Q 2250 2553 1709 2553 
Q 1456 2553 1204 2497 
Q 953 2441 691 2322 
L 691 4666 
z
" transform="scale(0.015625)"/>
     </defs>
     <use xlink:href="#DejaVuSans-45" transform="translate(0 0.78125)"/>
     <use xlink:href="#DejaVuSans-75" transform="translate(63.183594 0.78125)"/>
     <use xlink:href="#DejaVuSans-43" transform="translate(126.5625 0.78125)"/>
     <use xlink:href="#DejaVuSans-75" transform="translate(196.386719 0.78125)"/>
     <use xlink:href="#DejaVuSans-35" transform="translate(260.722656 -15.625) scale(0.7)"/>
    </g>
   </g>
   <g id="text_14">
    <!-- $\mathrm{Cu}$ -->
    <g transform="translate(130.347387 33.102406) scale(0.1 -0.1)">
     <use xlink:href="#DejaVuSans-43" transform="translate(0 0.78125)"/>
     <use xlink:href="#DejaVuSans-75" transform="translate(69.824219 0.78125)"/>
    </g>
   </g>
   <g id="text_15">
    <!-- $\mathrm{AlCu}$ -->
    <g transform="translate(180.879671 127.6151) scale(0.1 -0.1)">
     <use xlink:href="#DejaVuSans-41" transform="translate(0 0.015625)"/>
     <use xlink:href="#DejaVuSans-6c" transform="translate(68.408203 0.015625)"/>
     <use xlink:href="#DejaVuSans-43" transform="translate(96.191406 0.015625)"/>
     <use xlink:href="#DejaVuSans-75" transform="translate(166.015625 0.015625)"/>
    </g>
   </g>
   <g id="text_16">
    <!-- $\mathrm{Eu(Al_{2}Cu)_{4}}$ -->
    <g style="fill: #ff0000" transform="translate(189.420266 165.290556) scale(0.1 -0.1)">
     <defs>
      <path id="DejaVuSans-28" d="M 1984 4856 
Q 1566 4138 1362 3434 
Q 1159 2731 1159 2009 
Q 1159 1288 1364 580 
Q 1569 -128 1984 -844 
L 1484 -844 
Q 1016 -109 783 600 
Q 550 1309 550 2009 
Q 550 2706 781 3412 
Q 1013 4119 1484 4856 
L 1984 4856 
z
" transform="scale(0.015625)"/>
      <path id="DejaVuSans-29" d="M 513 4856 
L 1013 4856 
Q 1481 4119 1714 3412 
Q 1947 2706 1947 2009 
Q 1947 1309 1714 600 
Q 1481 -109 1013 -844 
L 513 -844 
Q 928 -128 1133 580 
Q 1338 1288 1338 2009 
Q 1338 2731 1133 3434 
Q 928 4138 513 4856 
z
" transform="scale(0.015625)"/>
     </defs>
     <use xlink:href="#DejaVuSans-45" transform="translate(0 0.015625)"/>
     <use xlink:href="#DejaVuSans-75" transform="translate(63.183594 0.015625)"/>
     <use xlink:href="#DejaVuSans-28" transform="translate(126.5625 0.015625)"/>
     <use xlink:href="#DejaVuSans-41" transform="translate(165.576172 0.015625)"/>
     <use xlink:href="#DejaVuSans-6c" transform="translate(233.984375 0.015625)"/>
     <use xlink:href="#DejaVuSans-32" transform="translate(262.724609 -16.390625) scale(0.7)"/>
     <use xlink:href="#DejaVuSans-43" transform="translate(309.995117 0.015625)"/>
     <use xlink:href="#DejaVuSans-75" transform="translate(379.819336 0.015625)"/>
     <use xlink:href="#DejaVuSans-29" transform="translate(443.198242 0.015625)"/>
     <use xlink:href="#DejaVuSans-34" transform="translate(483.168945 -16.390625) scale(0.7)"/>
    </g>
   </g>
  </g>
  <g id="axes_2">
   <g id="patch_3">
    <path d="M 287.298425 195.703937 
L 296.029134 195.703937 
L 296.029134 36.96378 
L 287.298425 36.96378 
L 287.298425 195.703937 
z
" style="fill: none"/>
   </g>
   <g id="patch_4">
    <path d="M 287.298425 195.703937 
L 291.66378 203.640945 
L 296.029134 195.703937 
" style="fill: #440154; opacity: 0.7"/>
   </g>
   <g id="patch_5">
    <path d="M 287.298425 36.96378 
L 291.66378 29.026772 
L 296.029134 36.96378 
" style="fill: #fde725; opacity: 0.7"/>
   </g>
   <g id="QuadMesh_1">
    <path d="M 287.298425 195.703937 
L 296.029134 195.703937 
L 296.029134 192.326487 
L 287.298425 192.326487 
L 287.298425 195.703937 
" clip-path="url(#p101f3eb1c7)" style="fill: #450457; fill-opacity: 0.7"/>
    <path d="M 287.298425 192.326487 
L 296.029134 192.326487 
L 296.029134 188.949037 
L 287.298425 188.949037 
L 287.298425 192.326487 
" clip-path="url(#p101f3eb1c7)" style="fill: #470d60; fill-opacity: 0.7"/>
    <path d="M 287.298425 188.949037 
L 296.029134 188.949037 
L 296.029134 185.571587 
L 287.298425 185.571587 
L 287.298425 188.949037 
" clip-path="url(#p101f3eb1c7)" style="fill: #481467; fill-opacity: 0.7"/>
    <path d="M 287.298425 185.571587 
L 296.029134 185.571587 
L 296.029134 182.194136 
L 287.298425 182.194136 
L 287.298425 185.571587 
" clip-path="url(#p101f3eb1c7)" style="fill: #481c6e; fill-opacity: 0.7"/>
    <path d="M 287.298425 182.194136 
L 296.029134 182.194136 
L 296.029134 178.816686 
L 287.298425 178.816686 
L 287.298425 182.194136 
" clip-path="url(#p101f3eb1c7)" style="fill: #482374; fill-opacity: 0.7"/>
    <path d="M 287.298425 178.816686 
L 296.029134 178.816686 
L 296.029134 175.439236 
L 287.298425 175.439236 
L 287.298425 178.816686 
" clip-path="url(#p101f3eb1c7)" style="fill: #482979; fill-opacity: 0.7"/>
    <path d="M 287.298425 175.439236 
L 296.029134 175.439236 
L 296.029134 172.061786 
L 287.298425 172.061786 
L 287.298425 175.439236 
" clip-path="url(#p101f3eb1c7)" style="fill: #46307e; fill-opacity: 0.7"/>
    <path d="M 287.298425 172.061786 
L 296.029134 172.061786 
L 296.029134 168.684336 
L 287.298425 168.684336 
L 287.298425 172.061786 
" clip-path="url(#p101f3eb1c7)" style="fill: #453781; fill-opacity: 0.7"/>
    <path d="M 287.298425 168.684336 
L 296.029134 168.684336 
L 296.029134 165.306886 
L 287.298425 165.306886 
L 287.298425 168.684336 
" clip-path="url(#p101f3eb1c7)" style="fill: #433e85; fill-opacity: 0.7"/>
    <path d="M 287.298425 165.306886 
L 296.029134 165.306886 
L 296.029134 161.929435 
L 287.298425 161.929435 
L 287.298425 165.306886 
" clip-path="url(#p101f3eb1c7)" style="fill: #414487; fill-opacity: 0.7"/>
    <path d="M 287.298425 161.929435 
L 296.029134 161.929435 
L 296.029134 158.551985 
L 287.298425 158.551985 
L 287.298425 161.929435 
" clip-path="url(#p101f3eb1c7)" style="fill: #3e4a89; fill-opacity: 0.7"/>
    <path d="M 287.298425 158.551985 
L 296.029134 158.551985 
L 296.029134 155.174535 
L 287.298425 155.174535 
L 287.298425 158.551985 
" clip-path="url(#p101f3eb1c7)" style="fill: #3c508b; fill-opacity: 0.7"/>
    <path d="M 287.298425 155.174535 
L 296.029134 155.174535 
L 296.029134 151.797085 
L 287.298425 151.797085 
L 287.298425 155.174535 
" clip-path="url(#p101f3eb1c7)" style="fill: #39568c; fill-opacity: 0.7"/>
    <path d="M 287.298425 151.797085 
L 296.029134 151.797085 
L 296.029134 148.419635 
L 287.298425 148.419635 
L 287.298425 151.797085 
" clip-path="url(#p101f3eb1c7)" style="fill: #365c8d; fill-opacity: 0.7"/>
    <path d="M 287.298425 148.419635 
L 296.029134 148.419635 
L 296.029134 145.042185 
L 287.298425 145.042185 
L 287.298425 148.419635 
" clip-path="url(#p101f3eb1c7)" style="fill: #34618d; fill-opacity: 0.7"/>
    <path d="M 287.298425 145.042185 
L 296.029134 145.042185 
L 296.029134 141.664734 
L 287.298425 141.664734 
L 287.298425 145.042185 
" clip-path="url(#p101f3eb1c7)" style="fill: #31678e; fill-opacity: 0.7"/>
    <path d="M 287.298425 141.664734 
L 296.029134 141.664734 
L 296.029134 138.287284 
L 287.298425 138.287284 
L 287.298425 141.664734 
" clip-path="url(#p101f3eb1c7)" style="fill: #2f6c8e; fill-opacity: 0.7"/>
    <path d="M 287.298425 138.287284 
L 296.029134 138.287284 
L 296.029134 134.909834 
L 287.298425 134.909834 
L 287.298425 138.287284 
" clip-path="url(#p101f3eb1c7)" style="fill: #2c718e; fill-opacity: 0.7"/>
    <path d="M 287.298425 134.909834 
L 296.029134 134.909834 
L 296.029134 131.532384 
L 287.298425 131.532384 
L 287.298425 134.909834 
" clip-path="url(#p101f3eb1c7)" style="fill: #2a768e; fill-opacity: 0.7"/>
    <path d="M 287.298425 131.532384 
L 296.029134 131.532384 
L 296.029134 128.154934 
L 287.298425 128.154934 
L 287.298425 131.532384 
" clip-path="url(#p101f3eb1c7)" style="fill: #287c8e; fill-opacity: 0.7"/>
    <path d="M 287.298425 128.154934 
L 296.029134 128.154934 
L 296.029134 124.777484 
L 287.298425 124.777484 
L 287.298425 128.154934 
" clip-path="url(#p101f3eb1c7)" style="fill: #26818e; fill-opacity: 0.7"/>
    <path d="M 287.298425 124.777484 
L 296.029134 124.777484 
L 296.029134 121.400034 
L 287.298425 121.400034 
L 287.298425 124.777484 
" clip-path="url(#p101f3eb1c7)" style="fill: #24868e; fill-opacity: 0.7"/>
    <path d="M 287.298425 121.400034 
L 296.029134 121.400034 
L 296.029134 118.022583 
L 287.298425 118.022583 
L 287.298425 121.400034 
" clip-path="url(#p101f3eb1c7)" style="fill: #228b8d; fill-opacity: 0.7"/>
    <path d="M 287.298425 118.022583 
L 296.029134 118.022583 
L 296.029134 114.645133 
L 287.298425 114.645133 
L 287.298425 118.022583 
" clip-path="url(#p101f3eb1c7)" style="fill: #21918c; fill-opacity: 0.7"/>
    <path d="M 287.298425 114.645133 
L 296.029134 114.645133 
L 296.029134 111.267683 
L 287.298425 111.267683 
L 287.298425 114.645133 
" clip-path="url(#p101f3eb1c7)" style="fill: #1f958b; fill-opacity: 0.7"/>
    <path d="M 287.298425 111.267683 
L 296.029134 111.267683 
L 296.029134 107.890233 
L 287.298425 107.890233 
L 287.298425 111.267683 
" clip-path="url(#p101f3eb1c7)" style="fill: #1f9a8a; fill-opacity: 0.7"/>
    <path d="M 287.298425 107.890233 
L 296.029134 107.890233 
L 296.029134 104.512783 
L 287.298425 104.512783 
L 287.298425 107.890233 
" clip-path="url(#p101f3eb1c7)" style="fill: #1fa088; fill-opacity: 0.7"/>
    <path d="M 287.298425 104.512783 
L 296.029134 104.512783 
L 296.029134 101.135333 
L 287.298425 101.135333 
L 287.298425 104.512783 
" clip-path="url(#p101f3eb1c7)" style="fill: #20a486; fill-opacity: 0.7"/>
    <path d="M 287.298425 101.135333 
L 296.029134 101.135333 
L 296.029134 97.757882 
L 287.298425 97.757882 
L 287.298425 101.135333 
" clip-path="url(#p101f3eb1c7)" style="fill: #24aa83; fill-opacity: 0.7"/>
    <path d="M 287.298425 97.757882 
L 296.029134 97.757882 
L 296.029134 94.380432 
L 287.298425 94.380432 
L 287.298425 97.757882 
" clip-path="url(#p101f3eb1c7)" style="fill: #28ae80; fill-opacity: 0.7"/>
    <path d="M 287.298425 94.380432 
L 296.029134 94.380432 
L 296.029134 91.002982 
L 287.298425 91.002982 
L 287.298425 94.380432 
" clip-path="url(#p101f3eb1c7)" style="fill: #2fb47c; fill-opacity: 0.7"/>
    <path d="M 287.298425 91.002982 
L 296.029134 91.002982 
L 296.029134 87.625532 
L 287.298425 87.625532 
L 287.298425 91.002982 
" clip-path="url(#p101f3eb1c7)" style="fill: #37b878; fill-opacity: 0.7"/>
    <path d="M 287.298425 87.625532 
L 296.029134 87.625532 
L 296.029134 84.248082 
L 287.298425 84.248082 
L 287.298425 87.625532 
" clip-path="url(#p101f3eb1c7)" style="fill: #40bd72; fill-opacity: 0.7"/>
    <path d="M 287.298425 84.248082 
L 296.029134 84.248082 
L 296.029134 80.870632 
L 287.298425 80.870632 
L 287.298425 84.248082 
" clip-path="url(#p101f3eb1c7)" style="fill: #4ac16d; fill-opacity: 0.7"/>
    <path d="M 287.298425 80.870632 
L 296.029134 80.870632 
L 296.029134 77.493181 
L 287.298425 77.493181 
L 287.298425 80.870632 
" clip-path="url(#p101f3eb1c7)" style="fill: #54c568; fill-opacity: 0.7"/>
    <path d="M 287.298425 77.493181 
L 296.029134 77.493181 
L 296.029134 74.115731 
L 287.298425 74.115731 
L 287.298425 77.493181 
" clip-path="url(#p101f3eb1c7)" style="fill: #60ca60; fill-opacity: 0.7"/>
    <path d="M 287.298425 74.115731 
L 296.029134 74.115731 
L 296.029134 70.738281 
L 287.298425 70.738281 
L 287.298425 74.115731 
" clip-path="url(#p101f3eb1c7)" style="fill: #6ccd5a; fill-opacity: 0.7"/>
    <path d="M 287.298425 70.738281 
L 296.029134 70.738281 
L 296.029134 67.360831 
L 287.298425 67.360831 
L 287.298425 70.738281 
" clip-path="url(#p101f3eb1c7)" style="fill: #7ad151; fill-opacity: 0.7"/>
    <path d="M 287.298425 67.360831 
L 296.029134 67.360831 
L 296.029134 63.983381 
L 287.298425 63.983381 
L 287.298425 67.360831 
" clip-path="url(#p101f3eb1c7)" style="fill: #86d549; fill-opacity: 0.7"/>
    <path d="M 287.298425 63.983381 
L 296.029134 63.983381 
L 296.029134 60.605931 
L 287.298425 60.605931 
L 287.298425 63.983381 
" clip-path="url(#p101f3eb1c7)" style="fill: #95d840; fill-opacity: 0.7"/>
    <path d="M 287.298425 60.605931 
L 296.029134 60.605931 
L 296.029134 57.22848 
L 287.298425 57.22848 
L 287.298425 60.605931 
" clip-path="url(#p101f3eb1c7)" style="fill: #a2da37; fill-opacity: 0.7"/>
    <path d="M 287.298425 57.22848 
L 296.029134 57.22848 
L 296.029134 53.85103 
L 287.298425 53.85103 
L 287.298425 57.22848 
" clip-path="url(#p101f3eb1c7)" style="fill: #b2dd2d; fill-opacity: 0.7"/>
    <path d="M 287.298425 53.85103 
L 296.029134 53.85103 
L 296.029134 50.47358 
L 287.298425 50.47358 
L 287.298425 53.85103 
" clip-path="url(#p101f3eb1c7)" style="fill: #c0df25; fill-opacity: 0.7"/>
    <path d="M 287.298425 50.47358 
L 296.029134 50.47358 
L 296.029134 47.09613 
L 287.298425 47.09613 
L 287.298425 50.47358 
" clip-path="url(#p101f3eb1c7)" style="fill: #cde11d; fill-opacity: 0.7"/>
    <path d="M 287.298425 47.09613 
L 296.029134 47.09613 
L 296.029134 43.71868 
L 287.298425 43.71868 
L 287.298425 47.09613 
" clip-path="url(#p101f3eb1c7)" style="fill: #dde318; fill-opacity: 0.7"/>
    <path d="M 287.298425 43.71868 
L 296.029134 43.71868 
L 296.029134 40.34123 
L 287.298425 40.34123 
L 287.298425 43.71868 
" clip-path="url(#p101f3eb1c7)" style="fill: #eae51a; fill-opacity: 0.7"/>
    <path d="M 287.298425 40.34123 
L 296.029134 40.34123 
L 296.029134 36.96378 
L 287.298425 36.96378 
L 287.298425 40.34123 
" clip-path="url(#p101f3eb1c7)" style="fill: #f8e621; fill-opacity: 0.7"/>
   </g>
   <g id="matplotlib.axis_3"/>
   <g id="matplotlib.axis_4">
    <g id="ytick_1">
     <g id="line2d_32">
      <defs>
       <path id="mc36344eb1d" d="M 0 0 
L -2 0 
" style="stroke: #000000; stroke-width: 0.3"/>
      </defs>
      <g>
       <use xlink:href="#mc36344eb1d" x="296.029134" y="188.949037" style="stroke: #000000; stroke-width: 0.3"/>
      </g>
     </g>
     <g id="text_17">
      <!-- 0.368 -->
      <g transform="translate(299.529134 191.812162) scale(0.08 -0.08)">
       <defs>
        <path id="ArialMT-2212" d="M 3381 1997 
L 356 1997 
L 356 2522 
L 3381 2522 
L 3381 1997 
z
" transform="scale(0.015625)"/>
        <path id="ArialMT-30" d="M 266 2259 
Q 266 3072 433 3567 
Q 600 4063 929 4331 
Q 1259 4600 1759 4600 
Q 2128 4600 2406 4451 
Q 2684 4303 2865 4023 
Q 3047 3744 3150 3342 
Q 3253 2941 3253 2259 
Q 3253 1453 3087 958 
Q 2922 463 2592 192 
Q 2263 -78 1759 -78 
Q 1097 -78 719 397 
Q 266 969 266 2259 
z
M 844 2259 
Q 844 1131 1108 757 
Q 1372 384 1759 384 
Q 2147 384 2411 759 
Q 2675 1134 2675 2259 
Q 2675 3391 2411 3762 
Q 2147 4134 1753 4134 
Q 1366 4134 1134 3806 
Q 844 3388 844 2259 
z
" transform="scale(0.015625)"/>
        <path id="ArialMT-2e" d="M 581 0 
L 581 641 
L 1222 641 
L 1222 0 
L 581 0 
z
" transform="scale(0.015625)"/>
        <path id="ArialMT-33" d="M 269 1209 
L 831 1284 
Q 928 806 1161 595 
Q 1394 384 1728 384 
Q 2125 384 2398 659 
Q 2672 934 2672 1341 
Q 2672 1728 2419 1979 
Q 2166 2231 1775 2231 
Q 1616 2231 1378 2169 
L 1441 2663 
Q 1497 2656 1531 2656 
Q 1891 2656 2178 2843 
Q 2466 3031 2466 3422 
Q 2466 3731 2256 3934 
Q 2047 4138 1716 4138 
Q 1388 4138 1169 3931 
Q 950 3725 888 3313 
L 325 3413 
Q 428 3978 793 4289 
Q 1159 4600 1703 4600 
Q 2078 4600 2393 4439 
Q 2709 4278 2876 4000 
Q 3044 3722 3044 3409 
Q 3044 3113 2884 2869 
Q 2725 2625 2413 2481 
Q 2819 2388 3044 2092 
Q 3269 1797 3269 1353 
Q 3269 753 2831 336 
Q 2394 -81 1725 -81 
Q 1122 -81 723 278 
Q 325 638 269 1209 
z
" transform="scale(0.015625)"/>
        <path id="ArialMT-36" d="M 3184 3459 
L 2625 3416 
Q 2550 3747 2413 3897 
Q 2184 4138 1850 4138 
Q 1581 4138 1378 3988 
Q 1113 3794 959 3422 
Q 806 3050 800 2363 
Q 1003 2672 1297 2822 
Q 1591 2972 1913 2972 
Q 2475 2972 2870 2558 
Q 3266 2144 3266 1488 
Q 3266 1056 3080 686 
Q 2894 316 2569 119 
Q 2244 -78 1831 -78 
Q 1128 -78 684 439 
Q 241 956 241 2144 
Q 241 3472 731 4075 
Q 1159 4600 1884 4600 
Q 2425 4600 2770 4297 
Q 3116 3994 3184 3459 
z
M 888 1484 
Q 888 1194 1011 928 
Q 1134 663 1356 523 
Q 1578 384 1822 384 
Q 2178 384 2434 671 
Q 2691 959 2691 1453 
Q 2691 1928 2437 2201 
Q 2184 2475 1800 2475 
Q 1419 2475 1153 2201 
Q 888 1928 888 1484 
z
" transform="scale(0.015625)"/>
        <path id="ArialMT-38" d="M 1131 2484 
Q 781 2613 612 2850 
Q 444 3088 444 3419 
Q 444 3919 803 4259 
Q 1163 4600 1759 4600 
Q 2359 4600 2725 4251 
Q 3091 3903 3091 3403 
Q 3091 3084 2923 2848 
Q 2756 2613 2416 2484 
Q 2838 2347 3058 2040 
Q 3278 1734 3278 1309 
Q 3278 722 2862 322 
Q 2447 -78 1769 -78 
Q 1091 -78 675 323 
Q 259 725 259 1325 
Q 259 1772 486 2073 
Q 713 2375 1131 2484 
z
M 1019 3438 
Q 1019 3113 1228 2906 
Q 1438 2700 1772 2700 
Q 2097 2700 2305 2904 
Q 2513 3109 2513 3406 
Q 2513 3716 2298 3927 
Q 2084 4138 1766 4138 
Q 1444 4138 1231 3931 
Q 1019 3725 1019 3438 
z
M 838 1322 
Q 838 1081 952 856 
Q 1066 631 1291 507 
Q 1516 384 1775 384 
Q 2178 384 2440 643 
Q 2703 903 2703 1303 
Q 2703 1709 2433 1975 
Q 2163 2241 1756 2241 
Q 1359 2241 1098 1978 
Q 838 1716 838 1322 
z
" transform="scale(0.015625)"/>
       </defs>
       <use xlink:href="#ArialMT-2212"/>
       <use xlink:href="#ArialMT-30" transform="translate(58.398438 0)"/>
       <use xlink:href="#ArialMT-2e" transform="translate(114.013672 0)"/>
       <use xlink:href="#ArialMT-33" transform="translate(141.796875 0)"/>
       <use xlink:href="#ArialMT-36" transform="translate(197.412109 0)"/>
       <use xlink:href="#ArialMT-38" transform="translate(253.027344 0)"/>
      </g>
     </g>
    </g>
    <g id="ytick_2">
     <g id="line2d_33">
      <g>
       <use xlink:href="#mc36344eb1d" x="296.029134" y="172.061786" style="stroke: #000000; stroke-width: 0.3"/>
      </g>
     </g>
     <g id="text_18">
      <!-- 0.328 -->
      <g transform="translate(299.529134 174.924911) scale(0.08 -0.08)">
       <defs>
        <path id="ArialMT-32" d="M 3222 541 
L 3222 0 
L 194 0 
Q 188 203 259 391 
Q 375 700 629 1000 
Q 884 1300 1366 1694 
Q 2113 2306 2375 2664 
Q 2638 3022 2638 3341 
Q 2638 3675 2398 3904 
Q 2159 4134 1775 4134 
Q 1369 4134 1125 3890 
Q 881 3647 878 3216 
L 300 3275 
Q 359 3922 746 4261 
Q 1134 4600 1788 4600 
Q 2447 4600 2831 4234 
Q 3216 3869 3216 3328 
Q 3216 3053 3103 2787 
Q 2991 2522 2730 2228 
Q 2469 1934 1863 1422 
Q 1356 997 1212 845 
Q 1069 694 975 541 
L 3222 541 
z
" transform="scale(0.015625)"/>
       </defs>
       <use xlink:href="#ArialMT-2212"/>
       <use xlink:href="#ArialMT-30" transform="translate(58.398438 0)"/>
       <use xlink:href="#ArialMT-2e" transform="translate(114.013672 0)"/>
       <use xlink:href="#ArialMT-33" transform="translate(141.796875 0)"/>
       <use xlink:href="#ArialMT-32" transform="translate(197.412109 0)"/>
       <use xlink:href="#ArialMT-38" transform="translate(253.027344 0)"/>
      </g>
     </g>
    </g>
    <g id="ytick_3">
     <g id="line2d_34">
      <g>
       <use xlink:href="#mc36344eb1d" x="296.029134" y="155.174535" style="stroke: #000000; stroke-width: 0.3"/>
      </g>
     </g>
     <g id="text_19">
      <!-- 0.288 -->
      <g transform="translate(299.529134 158.03766) scale(0.08 -0.08)">
       <use xlink:href="#ArialMT-2212"/>
       <use xlink:href="#ArialMT-30" transform="translate(58.398438 0)"/>
       <use xlink:href="#ArialMT-2e" transform="translate(114.013672 0)"/>
       <use xlink:href="#ArialMT-32" transform="translate(141.796875 0)"/>
       <use xlink:href="#ArialMT-38" transform="translate(197.412109 0)"/>
       <use xlink:href="#ArialMT-38" transform="translate(253.027344 0)"/>
      </g>
     </g>
    </g>
    <g id="ytick_4">
     <g id="line2d_35">
      <g>
       <use xlink:href="#mc36344eb1d" x="296.029134" y="138.287284" style="stroke: #000000; stroke-width: 0.3"/>
      </g>
     </g>
     <g id="text_20">
      <!-- 0.248 -->
      <g transform="translate(299.529134 141.150409) scale(0.08 -0.08)">
       <defs>
        <path id="ArialMT-34" d="M 2069 0 
L 2069 1097 
L 81 1097 
L 81 1613 
L 2172 4581 
L 2631 4581 
L 2631 1613 
L 3250 1613 
L 3250 1097 
L 2631 1097 
L 2631 0 
L 2069 0 
z
M 2069 1613 
L 2069 3678 
L 634 1613 
L 2069 1613 
z
" transform="scale(0.015625)"/>
       </defs>
       <use xlink:href="#ArialMT-2212"/>
       <use xlink:href="#ArialMT-30" transform="translate(58.398438 0)"/>
       <use xlink:href="#ArialMT-2e" transform="translate(114.013672 0)"/>
       <use xlink:href="#ArialMT-32" transform="translate(141.796875 0)"/>
       <use xlink:href="#ArialMT-34" transform="translate(197.412109 0)"/>
       <use xlink:href="#ArialMT-38" transform="translate(253.027344 0)"/>
      </g>
     </g>
    </g>
    <g id="ytick_5">
     <g id="line2d_36">
      <g>
       <use xlink:href="#mc36344eb1d" x="296.029134" y="121.400034" style="stroke: #000000; stroke-width: 0.3"/>
      </g>
     </g>
     <g id="text_21">
      <!-- 0.208 -->
      <g transform="translate(299.529134 124.263159) scale(0.08 -0.08)">
       <use xlink:href="#ArialMT-2212"/>
       <use xlink:href="#ArialMT-30" transform="translate(58.398438 0)"/>
       <use xlink:href="#ArialMT-2e" transform="translate(114.013672 0)"/>
       <use xlink:href="#ArialMT-32" transform="translate(141.796875 0)"/>
       <use xlink:href="#ArialMT-30" transform="translate(197.412109 0)"/>
       <use xlink:href="#ArialMT-38" transform="translate(253.027344 0)"/>
      </g>
     </g>
    </g>
    <g id="ytick_6">
     <g id="line2d_37">
      <g>
       <use xlink:href="#mc36344eb1d" x="296.029134" y="104.512783" style="stroke: #000000; stroke-width: 0.3"/>
      </g>
     </g>
     <g id="text_22">
      <!-- 0.168 -->
      <g transform="translate(299.529134 107.375908) scale(0.08 -0.08)">
       <defs>
        <path id="ArialMT-31" d="M 2384 0 
L 1822 0 
L 1822 3584 
Q 1619 3391 1289 3197 
Q 959 3003 697 2906 
L 697 3450 
Q 1169 3672 1522 3987 
Q 1875 4303 2022 4600 
L 2384 4600 
L 2384 0 
z
" transform="scale(0.015625)"/>
       </defs>
       <use xlink:href="#ArialMT-2212"/>
       <use xlink:href="#ArialMT-30" transform="translate(58.398438 0)"/>
       <use xlink:href="#ArialMT-2e" transform="translate(114.013672 0)"/>
       <use xlink:href="#ArialMT-31" transform="translate(141.796875 0)"/>
       <use xlink:href="#ArialMT-36" transform="translate(197.412109 0)"/>
       <use xlink:href="#ArialMT-38" transform="translate(253.027344 0)"/>
      </g>
     </g>
    </g>
    <g id="ytick_7">
     <g id="line2d_38">
      <g>
       <use xlink:href="#mc36344eb1d" x="296.029134" y="87.625532" style="stroke: #000000; stroke-width: 0.3"/>
      </g>
     </g>
     <g id="text_23">
      <!-- 0.128 -->
      <g transform="translate(299.529134 90.488657) scale(0.08 -0.08)">
       <use xlink:href="#ArialMT-2212"/>
       <use xlink:href="#ArialMT-30" transform="translate(58.398438 0)"/>
       <use xlink:href="#ArialMT-2e" transform="translate(114.013672 0)"/>
       <use xlink:href="#ArialMT-31" transform="translate(141.796875 0)"/>
       <use xlink:href="#ArialMT-32" transform="translate(197.412109 0)"/>
       <use xlink:href="#ArialMT-38" transform="translate(253.027344 0)"/>
      </g>
     </g>
    </g>
    <g id="ytick_8">
     <g id="line2d_39">
      <g>
       <use xlink:href="#mc36344eb1d" x="296.029134" y="70.738281" style="stroke: #000000; stroke-width: 0.3"/>
      </g>
     </g>
     <g id="text_24">
      <!-- 0.088 -->
      <g transform="translate(299.529134 73.601406) scale(0.08 -0.08)">
       <use xlink:href="#ArialMT-2212"/>
       <use xlink:href="#ArialMT-30" transform="translate(58.398438 0)"/>
       <use xlink:href="#ArialMT-2e" transform="translate(114.013672 0)"/>
       <use xlink:href="#ArialMT-30" transform="translate(141.796875 0)"/>
       <use xlink:href="#ArialMT-38" transform="translate(197.412109 0)"/>
       <use xlink:href="#ArialMT-38" transform="translate(253.027344 0)"/>
      </g>
     </g>
    </g>
    <g id="ytick_9">
     <g id="line2d_40">
      <g>
       <use xlink:href="#mc36344eb1d" x="296.029134" y="53.85103" style="stroke: #000000; stroke-width: 0.3"/>
      </g>
     </g>
     <g id="text_25">
      <!-- 0.048 -->
      <g transform="translate(299.529134 56.714155) scale(0.08 -0.08)">
       <use xlink:href="#ArialMT-2212"/>
       <use xlink:href="#ArialMT-30" transform="translate(58.398438 0)"/>
       <use xlink:href="#ArialMT-2e" transform="translate(114.013672 0)"/>
       <use xlink:href="#ArialMT-30" transform="translate(141.796875 0)"/>
       <use xlink:href="#ArialMT-34" transform="translate(197.412109 0)"/>
       <use xlink:href="#ArialMT-38" transform="translate(253.027344 0)"/>
      </g>
     </g>
    </g>
    <g id="ytick_10">
     <g id="line2d_41">
      <g>
       <use xlink:href="#mc36344eb1d" x="296.029134" y="36.96378" style="stroke: #000000; stroke-width: 0.3"/>
      </g>
     </g>
     <g id="text_26">
      <!-- 0.008 -->
      <g transform="translate(299.529134 39.826905) scale(0.08 -0.08)">
       <use xlink:href="#ArialMT-2212"/>
       <use xlink:href="#ArialMT-30" transform="translate(58.398438 0)"/>
       <use xlink:href="#ArialMT-2e" transform="translate(114.013672 0)"/>
       <use xlink:href="#ArialMT-30" transform="translate(141.796875 0)"/>
       <use xlink:href="#ArialMT-30" transform="translate(197.412109 0)"/>
       <use xlink:href="#ArialMT-38" transform="translate(253.027344 0)"/>
      </g>
     </g>
    </g>
    <g id="text_27">
     <!-- Formation Energy (eV/atom) -->
     <g transform="translate(335.498821 179.408077) rotate(-90) scale(0.1 -0.1)">
      <defs>
       <path id="ArialMT-46" d="M 525 0 
L 525 4581 
L 3616 4581 
L 3616 4041 
L 1131 4041 
L 1131 2622 
L 3281 2622 
L 3281 2081 
L 1131 2081 
L 1131 0 
L 525 0 
z
" transform="scale(0.015625)"/>
       <path id="ArialMT-6f" d="M 213 1659 
Q 213 2581 725 3025 
Q 1153 3394 1769 3394 
Q 2453 3394 2887 2945 
Q 3322 2497 3322 1706 
Q 3322 1066 3130 698 
Q 2938 331 2570 128 
Q 2203 -75 1769 -75 
Q 1072 -75 642 372 
Q 213 819 213 1659 
z
M 791 1659 
Q 791 1022 1069 705 
Q 1347 388 1769 388 
Q 2188 388 2466 706 
Q 2744 1025 2744 1678 
Q 2744 2294 2464 2611 
Q 2184 2928 1769 2928 
Q 1347 2928 1069 2612 
Q 791 2297 791 1659 
z
" transform="scale(0.015625)"/>
       <path id="ArialMT-72" d="M 416 0 
L 416 3319 
L 922 3319 
L 922 2816 
Q 1116 3169 1280 3281 
Q 1444 3394 1641 3394 
Q 1925 3394 2219 3213 
L 2025 2691 
Q 1819 2813 1613 2813 
Q 1428 2813 1281 2702 
Q 1134 2591 1072 2394 
Q 978 2094 978 1738 
L 978 0 
L 416 0 
z
" transform="scale(0.015625)"/>
       <path id="ArialMT-6d" d="M 422 0 
L 422 3319 
L 925 3319 
L 925 2853 
Q 1081 3097 1340 3245 
Q 1600 3394 1931 3394 
Q 2300 3394 2536 3241 
Q 2772 3088 2869 2813 
Q 3263 3394 3894 3394 
Q 4388 3394 4653 3120 
Q 4919 2847 4919 2278 
L 4919 0 
L 4359 0 
L 4359 2091 
Q 4359 2428 4304 2576 
Q 4250 2725 4106 2815 
Q 3963 2906 3769 2906 
Q 3419 2906 3187 2673 
Q 2956 2441 2956 1928 
L 2956 0 
L 2394 0 
L 2394 2156 
Q 2394 2531 2256 2718 
Q 2119 2906 1806 2906 
Q 1569 2906 1367 2781 
Q 1166 2656 1075 2415 
Q 984 2175 984 1722 
L 984 0 
L 422 0 
z
" transform="scale(0.015625)"/>
       <path id="ArialMT-61" d="M 2588 409 
Q 2275 144 1986 34 
Q 1697 -75 1366 -75 
Q 819 -75 525 192 
Q 231 459 231 875 
Q 231 1119 342 1320 
Q 453 1522 633 1644 
Q 813 1766 1038 1828 
Q 1203 1872 1538 1913 
Q 2219 1994 2541 2106 
Q 2544 2222 2544 2253 
Q 2544 2597 2384 2738 
Q 2169 2928 1744 2928 
Q 1347 2928 1158 2789 
Q 969 2650 878 2297 
L 328 2372 
Q 403 2725 575 2942 
Q 747 3159 1072 3276 
Q 1397 3394 1825 3394 
Q 2250 3394 2515 3294 
Q 2781 3194 2906 3042 
Q 3031 2891 3081 2659 
Q 3109 2516 3109 2141 
L 3109 1391 
Q 3109 606 3145 398 
Q 3181 191 3288 0 
L 2700 0 
Q 2613 175 2588 409 
z
M 2541 1666 
Q 2234 1541 1622 1453 
Q 1275 1403 1131 1340 
Q 988 1278 909 1158 
Q 831 1038 831 891 
Q 831 666 1001 516 
Q 1172 366 1500 366 
Q 1825 366 2078 508 
Q 2331 650 2450 897 
Q 2541 1088 2541 1459 
L 2541 1666 
z
" transform="scale(0.015625)"/>
       <path id="ArialMT-74" d="M 1650 503 
L 1731 6 
Q 1494 -44 1306 -44 
Q 1000 -44 831 53 
Q 663 150 594 308 
Q 525 466 525 972 
L 525 2881 
L 113 2881 
L 113 3319 
L 525 3319 
L 525 4141 
L 1084 4478 
L 1084 3319 
L 1650 3319 
L 1650 2881 
L 1084 2881 
L 1084 941 
Q 1084 700 1114 631 
Q 1144 563 1211 522 
Q 1278 481 1403 481 
Q 1497 481 1650 503 
z
" transform="scale(0.015625)"/>
       <path id="ArialMT-69" d="M 425 3934 
L 425 4581 
L 988 4581 
L 988 3934 
L 425 3934 
z
M 425 0 
L 425 3319 
L 988 3319 
L 988 0 
L 425 0 
z
" transform="scale(0.015625)"/>
       <path id="ArialMT-6e" d="M 422 0 
L 422 3319 
L 928 3319 
L 928 2847 
Q 1294 3394 1984 3394 
Q 2284 3394 2536 3286 
Q 2788 3178 2913 3003 
Q 3038 2828 3088 2588 
Q 3119 2431 3119 2041 
L 3119 0 
L 2556 0 
L 2556 2019 
Q 2556 2363 2490 2533 
Q 2425 2703 2258 2804 
Q 2091 2906 1866 2906 
Q 1506 2906 1245 2678 
Q 984 2450 984 1813 
L 984 0 
L 422 0 
z
" transform="scale(0.015625)"/>
       <path id="ArialMT-20" transform="scale(0.015625)"/>
       <path id="ArialMT-45" d="M 506 0 
L 506 4581 
L 3819 4581 
L 3819 4041 
L 1113 4041 
L 1113 2638 
L 3647 2638 
L 3647 2100 
L 1113 2100 
L 1113 541 
L 3925 541 
L 3925 0 
L 506 0 
z
" transform="scale(0.015625)"/>
       <path id="ArialMT-65" d="M 2694 1069 
L 3275 997 
Q 3138 488 2766 206 
Q 2394 -75 1816 -75 
Q 1088 -75 661 373 
Q 234 822 234 1631 
Q 234 2469 665 2931 
Q 1097 3394 1784 3394 
Q 2450 3394 2872 2941 
Q 3294 2488 3294 1666 
Q 3294 1616 3291 1516 
L 816 1516 
Q 847 969 1125 678 
Q 1403 388 1819 388 
Q 2128 388 2347 550 
Q 2566 713 2694 1069 
z
M 847 1978 
L 2700 1978 
Q 2663 2397 2488 2606 
Q 2219 2931 1791 2931 
Q 1403 2931 1139 2672 
Q 875 2413 847 1978 
z
" transform="scale(0.015625)"/>
       <path id="ArialMT-67" d="M 319 -275 
L 866 -356 
Q 900 -609 1056 -725 
Q 1266 -881 1628 -881 
Q 2019 -881 2231 -725 
Q 2444 -569 2519 -288 
Q 2563 -116 2559 434 
Q 2191 0 1641 0 
Q 956 0 581 494 
Q 206 988 206 1678 
Q 206 2153 378 2554 
Q 550 2956 876 3175 
Q 1203 3394 1644 3394 
Q 2231 3394 2613 2919 
L 2613 3319 
L 3131 3319 
L 3131 450 
Q 3131 -325 2973 -648 
Q 2816 -972 2473 -1159 
Q 2131 -1347 1631 -1347 
Q 1038 -1347 672 -1080 
Q 306 -813 319 -275 
z
M 784 1719 
Q 784 1066 1043 766 
Q 1303 466 1694 466 
Q 2081 466 2343 764 
Q 2606 1063 2606 1700 
Q 2606 2309 2336 2618 
Q 2066 2928 1684 2928 
Q 1309 2928 1046 2623 
Q 784 2319 784 1719 
z
" transform="scale(0.015625)"/>
       <path id="ArialMT-79" d="M 397 -1278 
L 334 -750 
Q 519 -800 656 -800 
Q 844 -800 956 -737 
Q 1069 -675 1141 -563 
Q 1194 -478 1313 -144 
Q 1328 -97 1363 -6 
L 103 3319 
L 709 3319 
L 1400 1397 
Q 1534 1031 1641 628 
Q 1738 1016 1872 1384 
L 2581 3319 
L 3144 3319 
L 1881 -56 
Q 1678 -603 1566 -809 
Q 1416 -1088 1222 -1217 
Q 1028 -1347 759 -1347 
Q 597 -1347 397 -1278 
z
" transform="scale(0.015625)"/>
       <path id="ArialMT-28" d="M 1497 -1347 
Q 1031 -759 709 28 
Q 388 816 388 1659 
Q 388 2403 628 3084 
Q 909 3875 1497 4659 
L 1900 4659 
Q 1522 4009 1400 3731 
Q 1209 3300 1100 2831 
Q 966 2247 966 1656 
Q 966 153 1900 -1347 
L 1497 -1347 
z
" transform="scale(0.015625)"/>
       <path id="ArialMT-56" d="M 1803 0 
L 28 4581 
L 684 4581 
L 1875 1253 
Q 2019 853 2116 503 
Q 2222 878 2363 1253 
L 3600 4581 
L 4219 4581 
L 2425 0 
L 1803 0 
z
" transform="scale(0.015625)"/>
       <path id="ArialMT-2f" d="M 0 -78 
L 1328 4659 
L 1778 4659 
L 453 -78 
L 0 -78 
z
" transform="scale(0.015625)"/>
       <path id="ArialMT-29" d="M 791 -1347 
L 388 -1347 
Q 1322 153 1322 1656 
Q 1322 2244 1188 2822 
Q 1081 3291 891 3722 
Q 769 4003 388 4659 
L 791 4659 
Q 1378 3875 1659 3084 
Q 1900 2403 1900 1659 
Q 1900 816 1576 28 
Q 1253 -759 791 -1347 
z
" transform="scale(0.015625)"/>
      </defs>
      <use xlink:href="#ArialMT-46"/>
      <use xlink:href="#ArialMT-6f" transform="translate(61.083984 0)"/>
      <use xlink:href="#ArialMT-72" transform="translate(116.699219 0)"/>
      <use xlink:href="#ArialMT-6d" transform="translate(150 0)"/>
      <use xlink:href="#ArialMT-61" transform="translate(233.300781 0)"/>
      <use xlink:href="#ArialMT-74" transform="translate(288.916016 0)"/>
      <use xlink:href="#ArialMT-69" transform="translate(316.699219 0)"/>
      <use xlink:href="#ArialMT-6f" transform="translate(338.916016 0)"/>
      <use xlink:href="#ArialMT-6e" transform="translate(394.53125 0)"/>
      <use xlink:href="#ArialMT-20" transform="translate(450.146484 0)"/>
      <use xlink:href="#ArialMT-45" transform="translate(477.929688 0)"/>
      <use xlink:href="#ArialMT-6e" transform="translate(544.628906 0)"/>
      <use xlink:href="#ArialMT-65" transform="translate(600.244141 0)"/>
      <use xlink:href="#ArialMT-72" transform="translate(655.859375 0)"/>
      <use xlink:href="#ArialMT-67" transform="translate(689.160156 0)"/>
      <use xlink:href="#ArialMT-79" transform="translate(744.775391 0)"/>
      <use xlink:href="#ArialMT-20" transform="translate(794.775391 0)"/>
      <use xlink:href="#ArialMT-28" transform="translate(822.558594 0)"/>
      <use xlink:href="#ArialMT-65" transform="translate(855.859375 0)"/>
      <use xlink:href="#ArialMT-56" transform="translate(911.474609 0)"/>
      <use xlink:href="#ArialMT-2f" transform="translate(978.173828 0)"/>
      <use xlink:href="#ArialMT-61" transform="translate(1005.957031 0)"/>
      <use xlink:href="#ArialMT-74" transform="translate(1061.572266 0)"/>
      <use xlink:href="#ArialMT-6f" transform="translate(1089.355469 0)"/>
      <use xlink:href="#ArialMT-6d" transform="translate(1144.970703 0)"/>
      <use xlink:href="#ArialMT-29" transform="translate(1228.271484 0)"/>
     </g>
    </g>
   </g>
   <g id="LineCollection_1"/>
   <g id="patch_6">
    <path d="M 287.298425 195.703937 
L 291.66378 203.640945 
L 296.029134 195.703937 
L 296.029134 36.96378 
L 291.66378 29.026772 
L 287.298425 36.96378 
L 287.298425 195.703937 
z
" style="fill: none; stroke: #000000; stroke-width: 0.8; stroke-linejoin: miter; stroke-linecap: square"/>
   </g>
  </g>
 </g>
 <defs>
  <clipPath id="p6199ae84d2">
   <rect x="7.2" y="7.2" width="263.622047" height="218.267717"/>
  </clipPath>
  <clipPath id="p101f3eb1c7">
   <rect x="287.298425" y="36.96378" width="8.730709" height="158.740157"/>
  </clipPath>
 </defs>
</svg>
