<?xml version="1.0" encoding="utf-8" standalone="no"?>
<!DOCTYPE svg PUBLIC "-//W3C//DTD SVG 1.1//EN"
  "http://www.w3.org/Graphics/SVG/1.1/DTD/svg11.dtd">
<svg xmlns:xlink="http://www.w3.org/1999/xlink" width="344.803509pt" height="232.667717pt" viewBox="0 0 344.803509 232.667717" xmlns="http://www.w3.org/2000/svg" version="1.1">
 <metadata>
  <rdf:RDF xmlns:dc="http://purl.org/dc/elements/1.1/" xmlns:cc="http://creativecommons.org/ns#" xmlns:rdf="http://www.w3.org/1999/02/22-rdf-syntax-ns#">
   <cc:Work>
    <dc:type rdf:resource="http://purl.org/dc/dcmitype/StillImage"/>
    <dc:date>2026-01-27T21:37:53.114688</dc:date>
    <dc:format>image/svg+xml</dc:format>
    <dc:creator>
     <cc:Agent>
      <dc:title>Matplotlib v3.10.8, https://matplotlib.org/</dc:title>
     </cc:Agent>
    </dc:creator>
   </cc:Work>
  </rdf:RDF>
 </metadata>
 <defs>
  <style type="text/css">*{stroke-linejoin: round; stroke-linecap: butt}</style>
 </defs>
 <g id="figure_1">
  <g id="patch_1">
   <path d="M 0 232.667717 
L 344.803509 232.667717 
L 344.803509 0 
L 0 0 
L 0 232.667717 
z
" style="fill: none"/>
  </g>
  <g id="axes_1">
   <g id="patch_2">
    <path d="M 7.2 225.467717 
L 270.822047 225.467717 
L 270.822047 7.2 
L 7.2 7.2 
L 7.2 225.467717 
z
" style="fill: none"/>
   </g>
   <g id="TriContourSet_1">
    <path d="M 89.600183 103.473058 
L 91.299745 104.262523 
L 92.494811 104.48744 
L 93.825613 104.451443 
L 94.115498 104.33164 
L 95.59212 102.918633 
L 93.616821 97.136933 
L 91.079742 101.139098 
z
" clip-path="url(#pa1d137cb76)" style="fill: #440154; fill-opacity: 0.7"/>
    <path d="M 93.616821 97.136933 
L 95.59212 102.918633 
L 94.115498 104.33164 
L 93.825613 104.451443 
L 92.494811 104.48744 
L 91.299745 104.262523 
L 89.600183 103.473058 
L 88.069371 105.887868 
L 91.527368 107.494147 
L 93.958898 107.951771 
L 96.666603 107.878531 
L 97.256415 107.634775 
L 100.26081 104.759813 
L 96.241786 92.996129 
z
" clip-path="url(#pa1d137cb76)" style="fill: #450457; fill-opacity: 0.7"/>
    <path d="M 96.241786 92.996129 
L 100.26081 104.759813 
L 97.256415 107.634775 
L 96.666603 107.878531 
L 93.958898 107.951771 
L 91.527368 107.494147 
L 88.069371 105.887868 
L 86.538559 108.302679 
L 91.754992 110.72577 
L 95.422986 111.416102 
L 99.507593 111.305619 
L 100.397332 110.93791 
L 104.9295 106.600992 
L 98.866751 88.855325 
z
" clip-path="url(#pa1d137cb76)" style="fill: #470d60; fill-opacity: 0.7"/>
    <path d="M 98.866751 88.855325 
L 104.9295 106.600992 
L 100.397332 110.93791 
L 99.507593 111.305619 
L 95.422986 111.416102 
L 91.754992 110.72577 
L 86.538559 108.302679 
L 85.007747 110.717489 
L 91.982615 113.957393 
L 96.887073 114.880433 
L 102.348583 114.732707 
L 103.538249 114.241045 
L 109.59819 108.442172 
L 101.491717 84.714522 
z
" clip-path="url(#pa1d137cb76)" style="fill: #481668; fill-opacity: 0.7"/>
    <path d="M 101.491717 84.714522 
L 109.59819 108.442172 
L 103.538249 114.241045 
L 102.348583 114.732707 
L 96.887073 114.880433 
L 91.982615 113.957393 
L 85.007747 110.717489 
L 83.476934 113.132299 
L 92.210239 117.189017 
L 98.351161 118.344764 
L 105.189573 118.159794 
L 106.679166 117.544179 
L 114.26688 110.283352 
L 104.116682 80.573718 
z
" clip-path="url(#pa1d137cb76)" style="fill: #481c6e; fill-opacity: 0.7"/>
    <path d="M 104.116682 80.573718 
L 114.26688 110.283352 
L 106.679166 117.544179 
L 105.189573 118.159794 
L 98.351161 118.344764 
L 92.210239 117.189017 
L 83.476934 113.132299 
L 81.946122 115.547109 
L 92.437862 120.42064 
L 99.815248 121.809095 
L 108.030563 121.586882 
L 109.820083 120.847314 
L 118.935571 112.124531 
L 109.855789 85.548008 
L 107.804792 80.839932 
L 107.197651 79.830244 
L 105.388972 78.566718 
L 104.774394 79.536197 
z
" clip-path="url(#pa1d137cb76)" style="fill: #482475; fill-opacity: 0.7"/>
    <path d="M 105.388972 78.566718 
L 107.197651 79.830244 
L 107.804792 80.839932 
L 109.855789 85.548008 
L 118.935571 112.124531 
L 109.820083 120.847314 
L 108.030563 121.586882 
L 99.815248 121.809095 
L 92.437862 120.42064 
L 81.946122 115.547109 
L 80.41531 117.96192 
L 92.665486 123.652263 
L 101.279336 125.273426 
L 110.871553 125.01397 
L 112.961 124.150449 
L 123.604261 113.965711 
L 116.636048 93.569748 
L 111.848343 82.579545 
L 110.431075 80.2226 
L 106.209022 77.273114 
z
" clip-path="url(#pa1d137cb76)" style="fill: #472c7a; fill-opacity: 0.7"/>
    <path d="M 106.209022 77.273114 
L 110.431075 80.2226 
L 111.848343 82.579545 
L 116.636048 93.569748 
L 123.604261 113.965711 
L 112.961 124.150449 
L 110.871553 125.01397 
L 101.279336 125.273426 
L 92.665486 123.652263 
L 80.41531 117.96192 
L 78.884498 120.37673 
L 92.893109 126.883887 
L 102.743423 128.737757 
L 113.712543 128.441058 
L 116.101917 127.453583 
L 128.272951 115.80689 
L 123.416306 101.591488 
L 115.891894 84.319157 
L 113.664499 80.614956 
L 107.029072 75.97951 
z
" clip-path="url(#pa1d137cb76)" style="fill: #46327e; fill-opacity: 0.7"/>
    <path d="M 107.029072 75.97951 
L 113.664499 80.614956 
L 115.891894 84.319157 
L 123.416306 101.591488 
L 128.272951 115.80689 
L 116.101917 127.453583 
L 113.712543 128.441058 
L 102.743423 128.737757 
L 92.893109 126.883887 
L 78.884498 120.37673 
L 77.353685 122.79154 
L 93.120733 130.11551 
L 104.207511 132.202088 
L 116.553533 131.868146 
L 119.242834 130.756718 
L 132.941641 117.64807 
L 130.196564 109.613229 
L 119.935445 86.05877 
L 116.897923 81.007312 
L 107.849122 74.685906 
z
" clip-path="url(#pa1d137cb76)" style="fill: #443983; fill-opacity: 0.7"/>
    <path d="M 107.849122 74.685906 
L 116.897923 81.007312 
L 119.935445 86.05877 
L 130.196564 109.613229 
L 132.941641 117.64807 
L 119.242834 130.756718 
L 116.553533 131.868146 
L 104.207511 132.202088 
L 93.120733 130.11551 
L 77.353685 122.79154 
L 75.822873 125.206351 
L 93.348356 133.347133 
L 105.671598 135.666419 
L 119.394523 135.295233 
L 122.383751 134.059853 
L 137.610332 119.48925 
L 136.976823 117.634969 
L 123.978996 87.798383 
L 120.131347 81.399668 
L 108.669172 73.392301 
z
" clip-path="url(#pa1d137cb76)" style="fill: #424086; fill-opacity: 0.7"/>
    <path d="M 108.669172 73.392301 
L 120.131347 81.399668 
L 123.978996 87.798383 
L 136.976823 117.634969 
L 137.610332 119.48925 
L 122.383751 134.059853 
L 119.394523 135.295233 
L 105.671598 135.666419 
L 93.348356 133.347133 
L 75.822873 125.206351 
L 74.292061 127.621161 
L 93.57598 136.578757 
L 107.135686 139.13075 
L 122.235513 138.722321 
L 125.524668 137.362988 
L 140.753456 122.790272 
L 141.296517 121.844286 
L 141.310966 120.041637 
L 128.022547 89.537996 
L 123.36477 81.792025 
L 109.489222 72.098697 
z
" clip-path="url(#pa1d137cb76)" style="fill: #3f4788; fill-opacity: 0.7"/>
    <path d="M 109.489222 72.098697 
L 123.36477 81.792025 
L 128.022547 89.537996 
L 141.310966 120.041637 
L 141.296517 121.844286 
L 140.753456 122.790272 
L 125.524668 137.362988 
L 122.235513 138.722321 
L 107.135686 139.13075 
L 93.57598 136.578757 
L 74.292061 127.621161 
L 72.761249 130.035971 
L 93.803603 139.81038 
L 108.599773 142.595081 
L 125.076503 142.149409 
L 128.665585 140.666122 
L 143.24271 126.716995 
L 144.561592 124.419565 
L 144.596682 120.041637 
L 132.066098 91.277608 
L 126.598194 82.184381 
L 110.309272 70.805093 
z
" clip-path="url(#pa1d137cb76)" style="fill: #3d4d8a; fill-opacity: 0.7"/>
    <path d="M 110.309272 70.805093 
L 126.598194 82.184381 
L 132.066098 91.277608 
L 144.596682 120.041637 
L 144.561592 124.419565 
L 143.24271 126.716995 
L 128.665585 140.666122 
L 125.076503 142.149409 
L 108.599773 142.595081 
L 93.803603 139.81038 
L 72.761249 130.035971 
L 71.230436 132.450781 
L 94.031227 143.042003 
L 110.063861 146.059412 
L 127.917493 145.576497 
L 131.806502 143.969257 
L 145.731964 130.643719 
L 147.826667 126.994844 
L 147.882399 120.041637 
L 136.109649 93.017221 
L 129.831618 82.576737 
L 111.129322 69.511489 
z
" clip-path="url(#pa1d137cb76)" style="fill: #3a538b; fill-opacity: 0.7"/>
    <path d="M 111.129322 69.511489 
L 129.831618 82.576737 
L 136.109649 93.017221 
L 147.882399 120.041637 
L 147.826667 126.994844 
L 145.731964 130.643719 
L 131.806502 143.969257 
L 127.917493 145.576497 
L 110.063861 146.059412 
L 94.031227 143.042003 
L 71.230436 132.450781 
L 69.699624 134.865592 
L 94.25885 146.273626 
L 111.527948 149.523744 
L 130.758483 149.003584 
L 134.947419 147.272392 
L 148.221218 134.570442 
L 151.091743 129.570123 
L 151.168116 120.041637 
L 140.1532 94.756834 
L 133.065042 82.969093 
L 111.949372 68.217884 
z
" clip-path="url(#pa1d137cb76)" style="fill: #375a8c; fill-opacity: 0.7"/>
    <path d="M 111.949372 68.217884 
L 133.065042 82.969093 
L 140.1532 94.756834 
L 151.168116 120.041637 
L 151.091743 129.570123 
L 148.221218 134.570442 
L 134.947419 147.272392 
L 130.758483 149.003584 
L 111.527948 149.523744 
L 94.25885 146.273626 
L 69.699624 134.865592 
L 68.168812 137.280402 
L 94.486474 149.50525 
L 112.992036 152.988075 
L 133.599473 152.430672 
L 138.088336 150.575527 
L 150.710472 138.497165 
L 154.356818 132.145402 
L 154.453833 120.041637 
L 144.196751 96.496447 
L 136.298466 83.361449 
L 112.769423 66.92428 
z
" clip-path="url(#pa1d137cb76)" style="fill: #355f8d; fill-opacity: 0.7"/>
    <path d="M 112.769423 66.92428 
L 136.298466 83.361449 
L 144.196751 96.496447 
L 154.453833 120.041637 
L 154.356818 132.145402 
L 150.710472 138.497165 
L 138.088336 150.575527 
L 133.599473 152.430672 
L 112.992036 152.988075 
L 94.486474 149.50525 
L 68.168812 137.280402 
L 66.638 139.695212 
L 94.714098 152.736873 
L 114.456123 156.452406 
L 136.440463 155.85776 
L 141.229253 153.878661 
L 153.199726 142.423889 
L 157.621893 134.720681 
L 157.73955 120.041637 
L 148.240302 98.23606 
L 139.53189 83.753805 
L 113.589473 65.630676 
z
" clip-path="url(#pa1d137cb76)" style="fill: #32658e; fill-opacity: 0.7"/>
    <path d="M 113.589473 65.630676 
L 139.53189 83.753805 
L 148.240302 98.23606 
L 157.73955 120.041637 
L 157.621893 134.720681 
L 153.199726 142.423889 
L 141.229253 153.878661 
L 136.440463 155.85776 
L 114.456123 156.452406 
L 94.714098 152.736873 
L 66.638 139.695212 
L 65.107188 142.110022 
L 94.941721 155.968496 
L 115.920211 159.916737 
L 139.281453 159.284848 
L 144.37017 157.181796 
L 155.68898 146.350612 
L 160.886969 137.29596 
L 161.025267 120.041637 
L 152.283853 99.975672 
L 142.765314 84.146161 
L 114.409523 64.337071 
z
" clip-path="url(#pa1d137cb76)" style="fill: #2f6b8e; fill-opacity: 0.7"/>
    <path d="M 114.409523 64.337071 
L 142.765314 84.146161 
L 152.283853 99.975672 
L 161.025267 120.041637 
L 160.886969 137.29596 
L 155.68898 146.350612 
L 144.37017 157.181796 
L 139.281453 159.284848 
L 115.920211 159.916737 
L 94.941721 155.968496 
L 65.107188 142.110022 
L 63.576375 144.524833 
L 95.169345 159.20012 
L 117.384298 163.381068 
L 142.122443 162.711935 
L 147.511087 160.484931 
L 158.178234 150.277335 
L 164.152044 139.871239 
L 164.310984 120.041637 
L 156.327404 101.715285 
L 145.998738 84.538517 
L 115.229573 63.043467 
z
" clip-path="url(#pa1d137cb76)" style="fill: #2d708e; fill-opacity: 0.7"/>
    <path d="M 115.229573 63.043467 
L 145.998738 84.538517 
L 156.327404 101.715285 
L 164.310984 120.041637 
L 164.152044 139.871239 
L 158.178234 150.277335 
L 147.511087 160.484931 
L 142.122443 162.711935 
L 117.384298 163.381068 
L 95.169345 159.20012 
L 63.576375 144.524833 
L 62.045563 146.939643 
L 95.396968 162.431743 
L 118.848386 166.845399 
L 144.963433 166.139023 
L 150.652004 163.788066 
L 160.667488 154.204059 
L 167.417119 142.446518 
L 167.5967 120.041637 
L 160.370955 103.454898 
L 149.232162 84.930873 
L 116.049623 61.749863 
z
" clip-path="url(#pa1d137cb76)" style="fill: #2b758e; fill-opacity: 0.7"/>
    <path d="M 116.049623 61.749863 
L 149.232162 84.930873 
L 160.370955 103.454898 
L 167.5967 120.041637 
L 167.417119 142.446518 
L 160.667488 154.204059 
L 150.652004 163.788066 
L 144.963433 166.139023 
L 118.848386 166.845399 
L 95.396968 162.431743 
L 62.045563 146.939643 
L 60.514751 149.354453 
L 95.624592 165.663366 
L 120.312474 170.30973 
L 147.804423 169.566111 
L 153.792921 167.0912 
L 163.156742 158.130782 
L 170.682194 145.021797 
L 170.882417 120.041637 
L 164.414506 105.194511 
L 152.465586 85.323229 
L 116.869673 60.456259 
z
" clip-path="url(#pa1d137cb76)" style="fill: #297b8e; fill-opacity: 0.7"/>
    <path d="M 116.869673 60.456259 
L 152.465586 85.323229 
L 164.414506 105.194511 
L 170.882417 120.041637 
L 170.682194 145.021797 
L 163.156742 158.130782 
L 153.792921 167.0912 
L 147.804423 169.566111 
L 120.312474 170.30973 
L 95.624592 165.663366 
L 60.514751 149.354453 
L 58.983939 151.769264 
L 95.852215 168.89499 
L 121.776561 173.774061 
L 150.645413 172.993199 
L 156.933838 170.394335 
L 165.645996 162.057505 
L 173.94727 147.597076 
L 174.168134 120.041637 
L 168.458058 106.934123 
L 155.69901 85.715585 
L 117.689723 59.162654 
z
" clip-path="url(#pa1d137cb76)" style="fill: #27808e; fill-opacity: 0.7"/>
    <path d="M 117.689723 59.162654 
L 155.69901 85.715585 
L 168.458058 106.934123 
L 174.168134 120.041637 
L 173.94727 147.597076 
L 165.645996 162.057505 
L 156.933838 170.394335 
L 150.645413 172.993199 
L 121.776561 173.774061 
L 95.852215 168.89499 
L 58.983939 151.769264 
L 57.453126 154.184074 
L 96.079839 172.126613 
L 123.240649 177.238392 
L 153.486403 176.420287 
L 160.074755 173.69747 
L 168.13525 165.984229 
L 177.212345 150.172355 
L 177.453851 120.041637 
L 172.501609 108.673736 
L 158.932434 86.107941 
L 118.509773 57.86905 
z
" clip-path="url(#pa1d137cb76)" style="fill: #25858e; fill-opacity: 0.7"/>
    <path d="M 118.509773 57.86905 
L 158.932434 86.107941 
L 172.501609 108.673736 
L 177.453851 120.041637 
L 177.212345 150.172355 
L 168.13525 165.984229 
L 160.074755 173.69747 
L 153.486403 176.420287 
L 123.240649 177.238392 
L 96.079839 172.126613 
L 57.453126 154.184074 
L 55.922314 156.598884 
L 96.307462 175.358236 
L 124.704736 180.702723 
L 156.327393 179.847374 
L 163.215672 177.000604 
L 170.624504 169.910952 
L 180.47742 152.747634 
L 180.739568 120.041637 
L 176.54516 110.413349 
L 162.165858 86.500298 
L 119.329823 56.575446 
z
" clip-path="url(#pa1d137cb76)" style="fill: #228b8d; fill-opacity: 0.7"/>
    <path d="M 119.329823 56.575446 
L 162.165858 86.500298 
L 176.54516 110.413349 
L 180.739568 120.041637 
L 180.47742 152.747634 
L 170.624504 169.910952 
L 163.215672 177.000604 
L 156.327393 179.847374 
L 124.704736 180.702723 
L 96.307462 175.358236 
L 55.922314 156.598884 
L 54.391502 159.013694 
L 96.535086 178.58986 
L 126.168824 184.167054 
L 159.168383 183.274462 
L 166.356589 180.303739 
L 173.113758 173.837676 
L 183.742496 155.322913 
L 184.025285 120.041637 
L 180.588711 112.152962 
L 165.399282 86.892654 
L 120.149873 55.281842 
z
" clip-path="url(#pa1d137cb76)" style="fill: #21918c; fill-opacity: 0.7"/>
    <path d="M 120.149873 55.281842 
L 165.399282 86.892654 
L 180.588711 112.152962 
L 184.025285 120.041637 
L 183.742496 155.322913 
L 173.113758 173.837676 
L 166.356589 180.303739 
L 159.168383 183.274462 
L 126.168824 184.167054 
L 96.535086 178.58986 
L 54.391502 159.013694 
L 52.86069 161.428505 
L 96.762709 181.821483 
L 127.632911 187.631385 
L 162.009373 186.70155 
L 169.497506 183.606874 
L 175.603012 177.764399 
L 187.007571 157.898192 
L 187.311001 120.041637 
L 184.632262 113.892575 
L 168.632706 87.28501 
L 120.969923 53.988237 
z
" clip-path="url(#pa1d137cb76)" style="fill: #1f958b; fill-opacity: 0.7"/>
    <path d="M 120.969923 53.988237 
L 168.632706 87.28501 
L 184.632262 113.892575 
L 187.311001 120.041637 
L 187.007571 157.898192 
L 175.603012 177.764399 
L 169.497506 183.606874 
L 162.009373 186.70155 
L 127.632911 187.631385 
L 96.762709 181.821483 
L 52.86069 161.428505 
L 51.329877 163.843315 
L 96.990333 185.053106 
L 129.096999 191.095716 
L 164.850363 190.128638 
L 172.638422 186.910009 
L 178.092266 181.691122 
L 190.272646 160.473471 
L 190.596718 120.041637 
L 188.675813 115.632187 
L 171.86613 87.677366 
L 121.789973 52.694633 
z
" clip-path="url(#pa1d137cb76)" style="fill: #1e9b8a; fill-opacity: 0.7"/>
    <path d="M 121.789973 52.694633 
L 171.86613 87.677366 
L 188.675813 115.632187 
L 190.596718 120.041637 
L 190.272646 160.473471 
L 178.092266 181.691122 
L 172.638422 186.910009 
L 164.850363 190.128638 
L 129.096999 191.095716 
L 96.990333 185.053106 
L 51.329877 163.843315 
L 49.799065 166.258125 
L 97.217956 188.28473 
L 130.561086 194.560047 
L 167.691353 193.555725 
L 175.779339 190.213143 
L 180.58152 185.617846 
L 193.537721 163.04875 
L 193.882435 120.041637 
L 192.719364 117.3718 
L 175.099554 88.069722 
L 122.610023 51.401029 
z
" clip-path="url(#pa1d137cb76)" style="fill: #1fa188; fill-opacity: 0.7"/>
    <path d="M 122.610023 51.401029 
L 175.099554 88.069722 
L 192.719364 117.3718 
L 193.882435 120.041637 
L 193.537721 163.04875 
L 180.58152 185.617846 
L 175.779339 190.213143 
L 167.691353 193.555725 
L 130.561086 194.560047 
L 97.217956 188.28473 
L 49.799065 166.258125 
L 48.268253 168.672935 
L 97.44558 191.516353 
L 132.025174 198.024378 
L 170.532343 196.982813 
L 178.920256 193.516278 
L 183.070774 189.544569 
L 196.802797 165.624029 
L 197.168152 120.041637 
L 196.762915 119.111413 
L 178.332978 88.462078 
L 123.430073 50.107424 
z
" clip-path="url(#pa1d137cb76)" style="fill: #21a585; fill-opacity: 0.7"/>
    <path d="M 177.237777 85.830497 
L 124.250123 48.81382 
L 123.430073 50.107424 
L 178.332978 88.462078 
L 196.762915 119.111413 
L 197.168152 120.041637 
L 196.802797 165.624029 
L 183.070774 189.544569 
L 178.920256 193.516278 
L 170.532343 196.982813 
L 132.025174 198.024378 
L 97.44558 191.516353 
L 48.268253 168.672935 
L 46.737441 171.087746 
L 97.673203 194.747976 
L 133.489261 201.48871 
L 173.373333 200.409901 
L 182.061173 196.819413 
L 185.560028 193.471292 
L 200.067872 168.199308 
L 200.434781 122.423073 
L 198.925125 120.041637 
L 178.953758 88.537406 
z
" clip-path="url(#pa1d137cb76)" style="fill: #25ab82; fill-opacity: 0.7"/>
    <path d="M 200.434781 122.423073 
L 200.067872 168.199308 
L 185.560028 193.471292 
L 182.061173 196.819413 
L 173.373333 200.409901 
L 133.489261 201.48871 
L 97.673203 194.747976 
L 46.737441 171.087746 
L 45.206628 173.502556 
L 97.900827 197.9796 
L 134.953349 204.953041 
L 176.214323 203.836989 
L 185.20209 200.122548 
L 188.049282 197.398016 
L 203.332947 170.774587 
L 203.679472 127.541477 
z
M 175.114068 82.480411 
L 125.070173 47.520216 
L 124.250123 48.81382 
L 177.237777 85.830497 
z
" clip-path="url(#pa1d137cb76)" style="fill: #2ab07f; fill-opacity: 0.7"/>
    <path d="M 203.679472 127.541477 
L 203.332947 170.774587 
L 188.049282 197.398016 
L 185.20209 200.122548 
L 176.214323 203.836989 
L 134.953349 204.953041 
L 97.900827 197.9796 
L 45.206628 173.502556 
L 43.675816 175.917366 
L 98.12845 201.211223 
L 136.417436 208.417372 
L 179.055313 207.264076 
L 188.343007 203.425682 
L 190.538536 201.324739 
L 206.598022 173.349866 
L 206.924164 132.65988 
z
M 172.99036 79.130324 
L 125.890223 46.226612 
L 125.070173 47.520216 
L 175.114068 82.480411 
z
" clip-path="url(#pa1d137cb76)" style="fill: #31b57b; fill-opacity: 0.7"/>
    <path d="M 206.924164 132.65988 
L 206.598022 173.349866 
L 190.538536 201.324739 
L 188.343007 203.425682 
L 179.055313 207.264076 
L 136.417436 208.417372 
L 98.12845 201.211223 
L 43.675816 175.917366 
L 42.145004 178.332177 
L 98.356074 204.442846 
L 137.881524 211.881703 
L 181.896303 210.691164 
L 191.483924 206.728817 
L 193.02779 205.251462 
L 209.863098 175.925145 
L 210.168855 137.778283 
z
M 170.866651 75.780238 
L 126.710273 44.933007 
L 125.890223 46.226612 
L 172.99036 79.130324 
z
" clip-path="url(#pa1d137cb76)" style="fill: #3aba76; fill-opacity: 0.7"/>
    <path d="M 168.615255 214.554331 
L 184.737293 214.118252 
L 194.624841 210.031952 
L 195.517044 209.178186 
L 213.128173 178.500424 
L 213.413547 142.896686 
L 210.168855 137.778283 
L 209.863098 175.925145 
L 193.02779 205.251462 
L 191.483924 206.728817 
L 181.896303 210.691164 
L 137.881524 211.881703 
L 98.356074 204.442846 
L 42.145004 178.332177 
L 40.614192 180.746987 
L 98.583697 207.67447 
L 135.138994 214.554331 
L 139.011024 214.554331 
z
M 168.742943 72.430152 
L 127.530323 43.639403 
L 126.710273 44.933007 
L 170.866651 75.780238 
z
" clip-path="url(#pa1d137cb76)" style="fill: #44bf70; fill-opacity: 0.7"/>
    <path d="M 194.815575 214.554331 
L 197.765758 213.335086 
L 198.006298 213.104909 
L 216.393248 181.075703 
L 216.658238 148.015089 
L 213.413547 142.896686 
L 213.128173 178.500424 
L 195.517044 209.178186 
L 194.624841 210.031952 
L 184.737293 214.118252 
L 168.615255 214.554331 
L 185.098794 214.554331 
z
M 166.619234 69.080066 
L 128.350373 42.345799 
L 127.530323 43.639403 
L 168.742943 72.430152 
z
M 39.083379 183.161797 
L 98.811321 210.906093 
L 118.195784 214.554331 
L 135.138994 214.554331 
L 98.583697 207.67447 
L 40.614192 180.746987 
z
" clip-path="url(#pa1d137cb76)" style="fill: #4ec36b; fill-opacity: 0.7"/>
    <path d="M 201.917693 214.554331 
L 219.658324 183.650982 
L 219.90293 153.133492 
L 216.658238 148.015089 
L 216.393248 181.075703 
L 198.006298 213.104909 
L 197.765758 213.335086 
L 194.815575 214.554331 
L 198.925125 214.554331 
z
M 164.495526 65.729979 
L 129.170423 41.052195 
L 128.350373 42.345799 
L 166.619234 69.080066 
z
M 37.552567 185.576607 
L 99.038944 214.137716 
L 101.252574 214.554331 
L 118.195784 214.554331 
L 98.811321 210.906093 
L 39.083379 183.161797 
z
" clip-path="url(#pa1d137cb76)" style="fill: #5ac864; fill-opacity: 0.7"/>
    <path d="M 206.661154 214.554331 
L 222.923399 186.226261 
L 223.147621 158.251896 
L 219.90293 153.133492 
L 219.658324 183.650982 
L 201.917693 214.554331 
z
M 162.371817 62.379893 
L 129.990473 39.75859 
L 129.170423 41.052195 
L 164.495526 65.729979 
z
M 36.021755 187.991418 
L 93.206415 214.554331 
L 99.068289 214.554331 
L 101.252574 214.554331 
L 99.038944 214.137716 
L 37.552567 185.576607 
z
" clip-path="url(#pa1d137cb76)" style="fill: #67cc5c; fill-opacity: 0.7"/>
    <path d="M 211.404615 214.554331 
L 226.188474 188.80154 
L 226.392312 163.370299 
L 223.147621 158.251896 
L 222.923399 186.226261 
L 206.661154 214.554331 
z
M 160.248109 59.029807 
L 130.810523 38.464986 
L 129.990473 39.75859 
L 162.371817 62.379893 
z
M 34.490943 190.406228 
L 86.476997 214.554331 
L 93.206415 214.554331 
L 36.021755 187.991418 
z
" clip-path="url(#pa1d137cb76)" style="fill: #73d056; fill-opacity: 0.7"/>
    <path d="M 216.148076 214.554331 
L 229.453549 191.376819 
L 229.637004 168.488702 
L 226.392312 163.370299 
L 226.188474 188.80154 
L 211.404615 214.554331 
z
M 158.1244 55.67972 
L 131.630573 37.171382 
L 130.810523 38.464986 
L 160.248109 59.029807 
z
M 32.96013 192.821038 
L 79.747579 214.554331 
L 86.476997 214.554331 
L 34.490943 190.406228 
z
" clip-path="url(#pa1d137cb76)" style="fill: #81d34d; fill-opacity: 0.7"/>
    <path d="M 220.891537 214.554331 
L 232.718625 193.952098 
L 232.881695 173.607105 
L 229.637004 168.488702 
L 229.453549 191.376819 
L 216.148076 214.554331 
z
M 156.000692 52.329634 
L 132.450623 35.877778 
L 131.630573 37.171382 
L 158.1244 55.67972 
z
M 31.429318 195.235849 
L 73.018162 214.554331 
L 79.747579 214.554331 
L 32.96013 192.821038 
z
" clip-path="url(#pa1d137cb76)" style="fill: #90d743; fill-opacity: 0.7"/>
    <path d="M 225.634999 214.554331 
L 235.9837 196.527377 
L 236.126387 178.725508 
L 232.881695 173.607105 
L 232.718625 193.952098 
L 220.891537 214.554331 
z
M 153.876983 48.979548 
L 133.270673 34.584173 
L 132.450623 35.877778 
L 156.000692 52.329634 
z
M 29.898506 197.650659 
L 66.288744 214.554331 
L 73.018162 214.554331 
L 31.429318 195.235849 
z
" clip-path="url(#pa1d137cb76)" style="fill: #a0da39; fill-opacity: 0.7"/>
    <path d="M 230.37846 214.554331 
L 239.248775 199.102657 
L 239.371078 183.843912 
L 236.126387 178.725508 
L 235.9837 196.527377 
L 225.634999 214.554331 
z
M 151.753275 45.629461 
L 134.090723 33.290569 
L 133.270673 34.584173 
L 153.876983 48.979548 
z
M 28.367694 200.065469 
L 59.559326 214.554331 
L 66.288744 214.554331 
L 29.898506 197.650659 
z
" clip-path="url(#pa1d137cb76)" style="fill: #addc30; fill-opacity: 0.7"/>
    <path d="M 235.121921 214.554331 
L 242.513851 201.677936 
L 242.61577 188.962315 
L 239.371078 183.843912 
L 239.248775 199.102657 
L 230.37846 214.554331 
z
M 149.629566 42.279375 
L 134.910773 31.996965 
L 134.090723 33.290569 
L 151.753275 45.629461 
z
M 26.836882 202.480279 
L 52.829909 214.554331 
L 59.559326 214.554331 
L 28.367694 200.065469 
z
" clip-path="url(#pa1d137cb76)" style="fill: #bddf26; fill-opacity: 0.7"/>
    <path d="M 239.865382 214.554331 
L 245.778926 204.253215 
L 245.860461 194.080718 
L 242.61577 188.962315 
L 242.513851 201.677936 
L 235.121921 214.554331 
z
M 147.505858 38.929289 
L 135.730823 30.70336 
L 134.910773 31.996965 
L 149.629566 42.279375 
z
M 25.306069 204.89509 
L 46.100491 214.554331 
L 52.829909 214.554331 
L 26.836882 202.480279 
z
" clip-path="url(#pa1d137cb76)" style="fill: #cde11d; fill-opacity: 0.7"/>
    <path d="M 244.608843 214.554331 
L 249.044001 206.828494 
L 249.105153 199.199121 
L 245.860461 194.080718 
L 245.778926 204.253215 
L 239.865382 214.554331 
z
M 145.382149 35.579202 
L 136.550874 29.409756 
L 135.730823 30.70336 
L 147.505858 38.929289 
z
M 23.775257 207.3099 
L 39.371073 214.554331 
L 46.100491 214.554331 
L 25.306069 204.89509 
z
" clip-path="url(#pa1d137cb76)" style="fill: #dae319; fill-opacity: 0.7"/>
    <path d="M 249.352305 214.554331 
L 252.309076 209.403773 
L 252.349844 204.317524 
L 249.105153 199.199121 
L 249.044001 206.828494 
L 244.608843 214.554331 
z
M 143.258441 32.229116 
L 137.370924 28.116152 
L 136.550874 29.409756 
L 145.382149 35.579202 
z
M 22.244445 209.72471 
L 32.641656 214.554331 
L 39.371073 214.554331 
L 23.775257 207.3099 
z
" clip-path="url(#pa1d137cb76)" style="fill: #eae51a; fill-opacity: 0.7"/>
    <path d="M 254.095766 214.554331 
L 255.574152 211.979052 
L 255.594535 209.435928 
L 252.349844 204.317524 
L 252.309076 209.403773 
L 249.352305 214.554331 
z
M 141.134732 28.87903 
L 138.190974 26.822548 
L 137.370924 28.116152 
L 143.258441 32.229116 
z
M 20.713633 212.13952 
L 25.912238 214.554331 
L 32.641656 214.554331 
L 22.244445 209.72471 
z
" clip-path="url(#pa1d137cb76)" style="fill: #f8e621; fill-opacity: 0.7"/>
    <path d="M 255.594535 209.435928 
L 255.574152 211.979052 
L 254.095766 214.554331 
L 258.839227 214.554331 
z
M 138.190974 26.822548 
L 141.134732 28.87903 
L 139.011024 25.528943 
z
M 25.912238 214.554331 
L 20.713633 212.13952 
L 19.18282 214.554331 
z
" clip-path="url(#pa1d137cb76)" style="fill: #fde725; fill-opacity: 0.7"/>
   </g>
   <g id="matplotlib.axis_1"/>
   <g id="matplotlib.axis_2"/>
   <g id="line2d_1">
    <path d="M 91.079742 101.139098 
L 185.098794 214.554331 
" clip-path="url(#pa1d137cb76)" style="fill: none; stroke: #555555; stroke-opacity: 0.9; stroke-width: 0.5; stroke-linecap: square"/>
   </g>
   <g id="line2d_2">
    <path d="M 91.079742 101.139098 
L 99.068289 214.554331 
" clip-path="url(#pa1d137cb76)" style="fill: none; stroke: #555555; stroke-opacity: 0.9; stroke-width: 0.5; stroke-linecap: square"/>
   </g>
   <g id="line2d_3">
    <path d="M 104.774394 79.536197 
L 139.011024 25.528943 
" clip-path="url(#pa1d137cb76)" style="fill: none; stroke: #555555; stroke-opacity: 0.9; stroke-width: 0.5; stroke-linecap: square"/>
   </g>
   <g id="line2d_4">
    <path d="M 91.079742 101.139098 
L 19.18282 214.554331 
" clip-path="url(#pa1d137cb76)" style="fill: none; stroke: #555555; stroke-opacity: 0.9; stroke-width: 0.5; stroke-linecap: square"/>
   </g>
   <g id="line2d_5">
    <path d="M 178.953758 88.537406 
L 139.011024 25.528943 
" clip-path="url(#pa1d137cb76)" style="fill: none; stroke: #555555; stroke-opacity: 0.9; stroke-width: 0.5; stroke-linecap: square"/>
   </g>
   <g id="line2d_6">
    <path d="M 99.068289 214.554331 
L 19.18282 214.554331 
" clip-path="url(#pa1d137cb76)" style="fill: none; stroke: #555555; stroke-opacity: 0.9; stroke-width: 0.5; stroke-linecap: square"/>
   </g>
   <g id="line2d_7">
    <path d="M 198.925125 214.554331 
L 258.839227 214.554331 
" clip-path="url(#pa1d137cb76)" style="fill: none; stroke: #555555; stroke-opacity: 0.9; stroke-width: 0.5; stroke-linecap: square"/>
   </g>
   <g id="line2d_8">
    <path d="M 139.011024 214.554331 
L 91.079742 101.139098 
" clip-path="url(#pa1d137cb76)" style="fill: none; stroke: #555555; stroke-opacity: 0.9; stroke-width: 0.5; stroke-linecap: square"/>
   </g>
   <g id="line2d_9">
    <path d="M 198.925125 120.041637 
L 178.953758 88.537406 
" clip-path="url(#pa1d137cb76)" style="fill: none; stroke: #555555; stroke-opacity: 0.9; stroke-width: 0.5; stroke-linecap: square"/>
   </g>
   <g id="line2d_10">
    <path d="M 91.079742 101.139098 
L 104.774394 79.536197 
" clip-path="url(#pa1d137cb76)" style="fill: none; stroke: #555555; stroke-opacity: 0.9; stroke-width: 0.5; stroke-linecap: square"/>
   </g>
   <g id="line2d_11">
    <path d="M 198.925125 120.041637 
L 104.774394 79.536197 
" clip-path="url(#pa1d137cb76)" style="fill: none; stroke: #555555; stroke-opacity: 0.9; stroke-width: 0.5; stroke-linecap: square"/>
   </g>
   <g id="line2d_12">
    <path d="M 198.925125 120.041637 
L 258.839227 214.554331 
" clip-path="url(#pa1d137cb76)" style="fill: none; stroke: #555555; stroke-opacity: 0.9; stroke-width: 0.5; stroke-linecap: square"/>
   </g>
   <g id="line2d_13">
    <path d="M 198.925125 214.554331 
L 91.079742 101.139098 
" clip-path="url(#pa1d137cb76)" style="fill: none; stroke: #555555; stroke-opacity: 0.9; stroke-width: 0.5; stroke-linecap: square"/>
   </g>
   <g id="line2d_14">
    <path d="M 139.011024 120.041637 
L 198.925125 214.554331 
" clip-path="url(#pa1d137cb76)" style="fill: none; stroke: #555555; stroke-opacity: 0.9; stroke-width: 0.5; stroke-linecap: square"/>
   </g>
   <g id="line2d_15">
    <path d="M 139.011024 120.041637 
L 104.774394 79.536197 
" clip-path="url(#pa1d137cb76)" style="fill: none; stroke: #555555; stroke-opacity: 0.9; stroke-width: 0.5; stroke-linecap: square"/>
   </g>
   <g id="line2d_16">
    <path d="M 139.011024 120.041637 
L 258.839227 214.554331 
" clip-path="url(#pa1d137cb76)" style="fill: none; stroke: #555555; stroke-opacity: 0.9; stroke-width: 0.5; stroke-linecap: square"/>
   </g>
   <g id="line2d_17">
    <path d="M 139.011024 214.554331 
L 99.068289 214.554331 
" clip-path="url(#pa1d137cb76)" style="fill: none; stroke: #555555; stroke-opacity: 0.9; stroke-width: 0.5; stroke-linecap: square"/>
   </g>
   <g id="line2d_18">
    <path d="M 139.011024 214.554331 
L 185.098794 214.554331 
" clip-path="url(#pa1d137cb76)" style="fill: none; stroke: #555555; stroke-opacity: 0.9; stroke-width: 0.5; stroke-linecap: square"/>
   </g>
   <g id="line2d_19">
    <path d="M 198.925125 120.041637 
L 139.011024 120.041637 
" clip-path="url(#pa1d137cb76)" style="fill: none; stroke: #555555; stroke-opacity: 0.9; stroke-width: 0.5; stroke-linecap: square"/>
   </g>
   <g id="line2d_20">
    <path d="M 178.953758 88.537406 
L 104.774394 79.536197 
" clip-path="url(#pa1d137cb76)" style="fill: none; stroke: #555555; stroke-opacity: 0.9; stroke-width: 0.5; stroke-linecap: square"/>
   </g>
   <g id="line2d_21">
    <path d="M 139.011024 120.041637 
L 91.079742 101.139098 
" clip-path="url(#pa1d137cb76)" style="fill: none; stroke: #555555; stroke-opacity: 0.9; stroke-width: 0.5; stroke-linecap: square"/>
   </g>
   <g id="line2d_22">
    <path d="M 198.925125 214.554331 
L 185.098794 214.554331 
" clip-path="url(#pa1d137cb76)" style="fill: none; stroke: #555555; stroke-opacity: 0.9; stroke-width: 0.5; stroke-linecap: square"/>
   </g>
   <g id="PathCollection_1">
    <defs>
     <path id="md959c1a0d5" d="M 0 2.738613 
C 0.726289 2.738613 1.422928 2.450055 1.936492 1.936492 
C 2.450055 1.422928 2.738613 0.726289 2.738613 0 
C 2.738613 -0.726289 2.450055 -1.422928 1.936492 -1.936492 
C 1.422928 -2.450055 0.726289 -2.738613 0 -2.738613 
C -0.726289 -2.738613 -1.422928 -2.450055 -1.936492 -1.936492 
C -2.450055 -1.422928 -2.738613 -0.726289 -2.738613 0 
C -2.738613 0.726289 -2.450055 1.422928 -1.936492 1.936492 
C -1.422928 2.450055 -0.726289 2.738613 0 2.738613 
z
" style="stroke: #008000"/>
    </defs>
    <g clip-path="url(#pa1d137cb76)">
     <use xlink:href="#md959c1a0d5" x="91.079742" y="101.139098" style="fill: #008000; stroke: #008000"/>
     <use xlink:href="#md959c1a0d5" x="185.098794" y="214.554331" style="fill: #008000; stroke: #008000"/>
     <use xlink:href="#md959c1a0d5" x="99.068289" y="214.554331" style="fill: #008000; stroke: #008000"/>
     <use xlink:href="#md959c1a0d5" x="104.774394" y="79.536197" style="fill: #008000; stroke: #008000"/>
     <use xlink:href="#md959c1a0d5" x="139.011024" y="25.528943" style="fill: #008000; stroke: #008000"/>
     <use xlink:href="#md959c1a0d5" x="19.18282" y="214.554331" style="fill: #008000; stroke: #008000"/>
     <use xlink:href="#md959c1a0d5" x="178.953758" y="88.537406" style="fill: #008000; stroke: #008000"/>
     <use xlink:href="#md959c1a0d5" x="198.925125" y="214.554331" style="fill: #008000; stroke: #008000"/>
     <use xlink:href="#md959c1a0d5" x="258.839227" y="214.554331" style="fill: #008000; stroke: #008000"/>
     <use xlink:href="#md959c1a0d5" x="139.011024" y="214.554331" style="fill: #008000; stroke: #008000"/>
     <use xlink:href="#md959c1a0d5" x="198.925125" y="120.041637" style="fill: #008000; stroke: #008000"/>
     <use xlink:href="#md959c1a0d5" x="139.011024" y="120.041637" style="fill: #008000; stroke: #008000"/>
    </g>
   </g>
   <g id="PathCollection_2">
    <defs>
     <path id="maa356dbeb1" d="M -0 2.236068 
L 1.341641 0 
L 0 -2.236068 
L -1.341641 -0 
z
" style="stroke: #d3d3d3"/>
    </defs>
    <g clip-path="url(#pa1d137cb76)">
     <use xlink:href="#maa356dbeb1" x="139.011024" y="25.528943" style="fill: #d3d3d3; stroke: #d3d3d3"/>
     <use xlink:href="#maa356dbeb1" x="139.011024" y="25.528943" style="fill: #d3d3d3; stroke: #d3d3d3"/>
     <use xlink:href="#maa356dbeb1" x="139.011024" y="25.528943" style="fill: #d3d3d3; stroke: #d3d3d3"/>
     <use xlink:href="#maa356dbeb1" x="139.011024" y="25.528943" style="fill: #d3d3d3; stroke: #d3d3d3"/>
     <use xlink:href="#maa356dbeb1" x="139.011024" y="25.528943" style="fill: #d3d3d3; stroke: #d3d3d3"/>
     <use xlink:href="#maa356dbeb1" x="139.011024" y="25.528943" style="fill: #d3d3d3; stroke: #d3d3d3"/>
     <use xlink:href="#maa356dbeb1" x="139.011024" y="25.528943" style="fill: #d3d3d3; stroke: #d3d3d3"/>
     <use xlink:href="#maa356dbeb1" x="139.011024" y="25.528943" style="fill: #d3d3d3; stroke: #d3d3d3"/>
     <use xlink:href="#maa356dbeb1" x="258.839227" y="214.554331" style="fill: #d3d3d3; stroke: #d3d3d3"/>
     <use xlink:href="#maa356dbeb1" x="258.839227" y="214.554331" style="fill: #d3d3d3; stroke: #d3d3d3"/>
     <use xlink:href="#maa356dbeb1" x="258.839227" y="214.554331" style="fill: #d3d3d3; stroke: #d3d3d3"/>
     <use xlink:href="#maa356dbeb1" x="258.839227" y="214.554331" style="fill: #d3d3d3; stroke: #d3d3d3"/>
     <use xlink:href="#maa356dbeb1" x="258.839227" y="214.554331" style="fill: #d3d3d3; stroke: #d3d3d3"/>
     <use xlink:href="#maa356dbeb1" x="258.839227" y="214.554331" style="fill: #d3d3d3; stroke: #d3d3d3"/>
     <use xlink:href="#maa356dbeb1" x="258.839227" y="214.554331" style="fill: #d3d3d3; stroke: #d3d3d3"/>
     <use xlink:href="#maa356dbeb1" x="198.925125" y="120.041637" style="fill: #d3d3d3; stroke: #d3d3d3"/>
     <use xlink:href="#maa356dbeb1" x="198.925125" y="120.041637" style="fill: #d3d3d3; stroke: #d3d3d3"/>
     <use xlink:href="#maa356dbeb1" x="198.925125" y="120.041637" style="fill: #d3d3d3; stroke: #d3d3d3"/>
     <use xlink:href="#maa356dbeb1" x="198.925125" y="120.041637" style="fill: #d3d3d3; stroke: #d3d3d3"/>
     <use xlink:href="#maa356dbeb1" x="178.953758" y="88.537406" style="fill: #d3d3d3; stroke: #d3d3d3"/>
     <use xlink:href="#maa356dbeb1" x="218.896492" y="151.545868" style="fill: #d3d3d3; stroke: #d3d3d3"/>
     <use xlink:href="#maa356dbeb1" x="228.882176" y="167.297984" style="fill: #d3d3d3; stroke: #d3d3d3"/>
     <use xlink:href="#maa356dbeb1" x="210.907946" y="138.944176" style="fill: #d3d3d3; stroke: #d3d3d3"/>
     <use xlink:href="#maa356dbeb1" x="215.265335" y="145.817826" style="fill: #d3d3d3; stroke: #d3d3d3"/>
     <use xlink:href="#maa356dbeb1" x="19.18282" y="214.554331" style="fill: #d3d3d3; stroke: #d3d3d3"/>
     <use xlink:href="#maa356dbeb1" x="19.18282" y="214.554331" style="fill: #d3d3d3; stroke: #d3d3d3"/>
     <use xlink:href="#maa356dbeb1" x="19.18282" y="214.554331" style="fill: #d3d3d3; stroke: #d3d3d3"/>
     <use xlink:href="#maa356dbeb1" x="19.18282" y="214.554331" style="fill: #d3d3d3; stroke: #d3d3d3"/>
     <use xlink:href="#maa356dbeb1" x="19.18282" y="214.554331" style="fill: #d3d3d3; stroke: #d3d3d3"/>
     <use xlink:href="#maa356dbeb1" x="19.18282" y="214.554331" style="fill: #d3d3d3; stroke: #d3d3d3"/>
     <use xlink:href="#maa356dbeb1" x="19.18282" y="214.554331" style="fill: #d3d3d3; stroke: #d3d3d3"/>
     <use xlink:href="#maa356dbeb1" x="19.18282" y="214.554331" style="fill: #d3d3d3; stroke: #d3d3d3"/>
     <use xlink:href="#maa356dbeb1" x="19.18282" y="214.554331" style="fill: #d3d3d3; stroke: #d3d3d3"/>
     <use xlink:href="#maa356dbeb1" x="139.011024" y="214.554331" style="fill: #d3d3d3; stroke: #d3d3d3"/>
     <use xlink:href="#maa356dbeb1" x="139.011024" y="120.041637" style="fill: #d3d3d3; stroke: #d3d3d3"/>
     <use xlink:href="#maa356dbeb1" x="198.925125" y="214.554331" style="fill: #d3d3d3; stroke: #d3d3d3"/>
     <use xlink:href="#maa356dbeb1" x="198.925125" y="214.554331" style="fill: #d3d3d3; stroke: #d3d3d3"/>
     <use xlink:href="#maa356dbeb1" x="198.925125" y="214.554331" style="fill: #d3d3d3; stroke: #d3d3d3"/>
     <use xlink:href="#maa356dbeb1" x="210.907946" y="214.554331" style="fill: #d3d3d3; stroke: #d3d3d3"/>
     <use xlink:href="#maa356dbeb1" x="91.079742" y="101.139098" style="fill: #d3d3d3; stroke: #d3d3d3"/>
     <use xlink:href="#maa356dbeb1" x="91.079742" y="101.139098" style="fill: #d3d3d3; stroke: #d3d3d3"/>
     <use xlink:href="#maa356dbeb1" x="99.068289" y="214.554331" style="fill: #d3d3d3; stroke: #d3d3d3"/>
     <use xlink:href="#maa356dbeb1" x="99.068289" y="214.554331" style="fill: #d3d3d3; stroke: #d3d3d3"/>
     <use xlink:href="#maa356dbeb1" x="79.096922" y="214.554331" style="fill: #d3d3d3; stroke: #d3d3d3"/>
     <use xlink:href="#maa356dbeb1" x="79.096922" y="214.554331" style="fill: #d3d3d3; stroke: #d3d3d3"/>
     <use xlink:href="#maa356dbeb1" x="115.045383" y="214.554331" style="fill: #d3d3d3; stroke: #d3d3d3"/>
     <use xlink:href="#maa356dbeb1" x="208.385247" y="214.554331" style="fill: #d3d3d3; stroke: #d3d3d3"/>
     <use xlink:href="#maa356dbeb1" x="89.669999" y="103.362926" style="fill: #d3d3d3; stroke: #d3d3d3"/>
     <use xlink:href="#maa356dbeb1" x="102.140807" y="200.013916" style="fill: #d3d3d3; stroke: #d3d3d3"/>
    </g>
   </g>
   <g id="PathCollection_3">
    <defs>
     <path id="m995dab8e3d" d="M 0 -5 
L -1.12257 -1.545085 
L -4.755283 -1.545085 
L -1.816356 0.59017 
L -2.938926 4.045085 
L -0 1.90983 
L 2.938926 4.045085 
L 1.816356 0.59017 
L 4.755283 -1.545085 
L 1.12257 -1.545085 
z
" style="stroke: #0000ff"/>
    </defs>
    <g clip-path="url(#pa1d137cb76)">
     <use xlink:href="#m995dab8e3d" x="102.140807" y="200.013916" style="fill: #0000ff; stroke: #0000ff"/>
    </g>
   </g>
   <g id="text_1">
    <!-- $\mathrm{Al_{2}Te_{3}}$ -->
    <g transform="translate(66.116106 110.086981) scale(0.1 -0.1)">
     <defs>
      <path id="DejaVuSans-41" d="M 2188 4044 
L 1331 1722 
L 3047 1722 
L 2188 4044 
z
M 1831 4666 
L 2547 4666 
L 4325 0 
L 3669 0 
L 3244 1197 
L 1141 1197 
L 716 0 
L 50 0 
L 1831 4666 
z
" transform="scale(0.015625)"/>
      <path id="DejaVuSans-6c" d="M 603 4863 
L 1178 4863 
L 1178 0 
L 603 0 
L 603 4863 
z
" transform="scale(0.015625)"/>
      <path id="DejaVuSans-32" d="M 1228 531 
L 3431 531 
L 3431 0 
L 469 0 
L 469 531 
Q 828 903 1448 1529 
Q 2069 2156 2228 2338 
Q 2531 2678 2651 2914 
Q 2772 3150 2772 3378 
Q 2772 3750 2511 3984 
Q 2250 4219 1831 4219 
Q 1534 4219 1204 4116 
Q 875 4013 500 3803 
L 500 4441 
Q 881 4594 1212 4672 
Q 1544 4750 1819 4750 
Q 2544 4750 2975 4387 
Q 3406 4025 3406 3419 
Q 3406 3131 3298 2873 
Q 3191 2616 2906 2266 
Q 2828 2175 2409 1742 
Q 1991 1309 1228 531 
z
" transform="scale(0.015625)"/>
      <path id="DejaVuSans-54" d="M -19 4666 
L 3928 4666 
L 3928 4134 
L 2272 4134 
L 2272 0 
L 1638 0 
L 1638 4134 
L -19 4134 
L -19 4666 
z
" transform="scale(0.015625)"/>
      <path id="DejaVuSans-65" d="M 3597 1894 
L 3597 1613 
L 953 1613 
Q 991 1019 1311 708 
Q 1631 397 2203 397 
Q 2534 397 2845 478 
Q 3156 559 3463 722 
L 3463 178 
Q 3153 47 2828 -22 
Q 2503 -91 2169 -91 
Q 1331 -91 842 396 
Q 353 884 353 1716 
Q 353 2575 817 3079 
Q 1281 3584 2069 3584 
Q 2775 3584 3186 3129 
Q 3597 2675 3597 1894 
z
M 3022 2063 
Q 3016 2534 2758 2815 
Q 2500 3097 2075 3097 
Q 1594 3097 1305 2825 
Q 1016 2553 972 2059 
L 3022 2063 
z
" transform="scale(0.015625)"/>
      <path id="DejaVuSans-33" d="M 2597 2516 
Q 3050 2419 3304 2112 
Q 3559 1806 3559 1356 
Q 3559 666 3084 287 
Q 2609 -91 1734 -91 
Q 1441 -91 1130 -33 
Q 819 25 488 141 
L 488 750 
Q 750 597 1062 519 
Q 1375 441 1716 441 
Q 2309 441 2620 675 
Q 2931 909 2931 1356 
Q 2931 1769 2642 2001 
Q 2353 2234 1838 2234 
L 1294 2234 
L 1294 2753 
L 1863 2753 
Q 2328 2753 2575 2939 
Q 2822 3125 2822 3475 
Q 2822 3834 2567 4026 
Q 2313 4219 1838 4219 
Q 1578 4219 1281 4162 
Q 984 4106 628 3988 
L 628 4550 
Q 988 4650 1302 4700 
Q 1616 4750 1894 4750 
Q 2613 4750 3031 4423 
Q 3450 4097 3450 3541 
Q 3450 3153 3228 2886 
Q 3006 2619 2597 2516 
z
" transform="scale(0.015625)"/>
     </defs>
     <use xlink:href="#DejaVuSans-41" transform="translate(0 0.015625)"/>
     <use xlink:href="#DejaVuSans-6c" transform="translate(68.408203 0.015625)"/>
     <use xlink:href="#DejaVuSans-32" transform="translate(97.148438 -16.390625) scale(0.7)"/>
     <use xlink:href="#DejaVuSans-54" transform="translate(144.418945 0.015625)"/>
     <use xlink:href="#DejaVuSans-65" transform="translate(205.50293 0.015625)"/>
     <use xlink:href="#DejaVuSans-33" transform="translate(267.983398 -16.390625) scale(0.7)"/>
    </g>
   </g>
   <g id="text_2">
    <!-- $\mathrm{Al_{4}Cu_{9}}$ -->
    <g transform="translate(160.944249 210.594971) scale(0.1 -0.1)">
     <defs>
      <path id="DejaVuSans-34" d="M 2419 4116 
L 825 1625 
L 2419 1625 
L 2419 4116 
z
M 2253 4666 
L 3047 4666 
L 3047 1625 
L 3713 1625 
L 3713 1100 
L 3047 1100 
L 3047 0 
L 2419 0 
L 2419 1100 
L 313 1100 
L 313 1709 
L 2253 4666 
z
" transform="scale(0.015625)"/>
      <path id="DejaVuSans-43" d="M 4122 4306 
L 4122 3641 
Q 3803 3938 3442 4084 
Q 3081 4231 2675 4231 
Q 1875 4231 1450 3742 
Q 1025 3253 1025 2328 
Q 1025 1406 1450 917 
Q 1875 428 2675 428 
Q 3081 428 3442 575 
Q 3803 722 4122 1019 
L 4122 359 
Q 3791 134 3420 21 
Q 3050 -91 2638 -91 
Q 1578 -91 968 557 
Q 359 1206 359 2328 
Q 359 3453 968 4101 
Q 1578 4750 2638 4750 
Q 3056 4750 3426 4639 
Q 3797 4528 4122 4306 
z
" transform="scale(0.015625)"/>
      <path id="DejaVuSans-75" d="M 544 1381 
L 544 3500 
L 1119 3500 
L 1119 1403 
Q 1119 906 1312 657 
Q 1506 409 1894 409 
Q 2359 409 2629 706 
Q 2900 1003 2900 1516 
L 2900 3500 
L 3475 3500 
L 3475 0 
L 2900 0 
L 2900 538 
Q 2691 219 2414 64 
Q 2138 -91 1772 -91 
Q 1169 -91 856 284 
Q 544 659 544 1381 
z
M 1991 3584 
L 1991 3584 
z
" transform="scale(0.015625)"/>
      <path id="DejaVuSans-39" d="M 703 97 
L 703 672 
Q 941 559 1184 500 
Q 1428 441 1663 441 
Q 2288 441 2617 861 
Q 2947 1281 2994 2138 
Q 2813 1869 2534 1725 
Q 2256 1581 1919 1581 
Q 1219 1581 811 2004 
Q 403 2428 403 3163 
Q 403 3881 828 4315 
Q 1253 4750 1959 4750 
Q 2769 4750 3195 4129 
Q 3622 3509 3622 2328 
Q 3622 1225 3098 567 
Q 2575 -91 1691 -91 
Q 1453 -91 1209 -44 
Q 966 3 703 97 
z
M 1959 2075 
Q 2384 2075 2632 2365 
Q 2881 2656 2881 3163 
Q 2881 3666 2632 3958 
Q 2384 4250 1959 4250 
Q 1534 4250 1286 3958 
Q 1038 3666 1038 3163 
Q 1038 2656 1286 2365 
Q 1534 2075 1959 2075 
z
" transform="scale(0.015625)"/>
     </defs>
     <use xlink:href="#DejaVuSans-41" transform="translate(0 0.015625)"/>
     <use xlink:href="#DejaVuSans-6c" transform="translate(68.408203 0.015625)"/>
     <use xlink:href="#DejaVuSans-34" transform="translate(97.148438 -16.390625) scale(0.7)"/>
     <use xlink:href="#DejaVuSans-43" transform="translate(144.418945 0.015625)"/>
     <use xlink:href="#DejaVuSans-75" transform="translate(214.243164 0.015625)"/>
     <use xlink:href="#DejaVuSans-39" transform="translate(278.579102 -16.390625) scale(0.7)"/>
    </g>
   </g>
   <g id="text_3">
    <!-- $\mathrm{Al_{2}Cu}$ -->
    <g transform="translate(83.551946 210.544971) scale(0.1 -0.1)">
     <use xlink:href="#DejaVuSans-41" transform="translate(0 0.015625)"/>
     <use xlink:href="#DejaVuSans-6c" transform="translate(68.408203 0.015625)"/>
     <use xlink:href="#DejaVuSans-32" transform="translate(97.148438 -16.390625) scale(0.7)"/>
     <use xlink:href="#DejaVuSans-43" transform="translate(144.418945 0.015625)"/>
     <use xlink:href="#DejaVuSans-75" transform="translate(214.243164 0.015625)"/>
    </g>
   </g>
   <g id="text_4">
    <!-- $\mathrm{Al_{2}Te_{5}}$ -->
    <g transform="translate(79.810758 88.48408) scale(0.1 -0.1)">
     <defs>
      <path id="DejaVuSans-35" d="M 691 4666 
L 3169 4666 
L 3169 4134 
L 1269 4134 
L 1269 2991 
Q 1406 3038 1543 3061 
Q 1681 3084 1819 3084 
Q 2600 3084 3056 2656 
Q 3513 2228 3513 1497 
Q 3513 744 3044 326 
Q 2575 -91 1722 -91 
Q 1428 -91 1123 -41 
Q 819 9 494 109 
L 494 744 
Q 775 591 1075 516 
Q 1375 441 1709 441 
Q 2250 441 2565 725 
Q 2881 1009 2881 1497 
Q 2881 1984 2565 2268 
Q 2250 2553 1709 2553 
Q 1456 2553 1204 2497 
Q 953 2441 691 2322 
L 691 4666 
z
" transform="scale(0.015625)"/>
     </defs>
     <use xlink:href="#DejaVuSans-41" transform="translate(0 0.015625)"/>
     <use xlink:href="#DejaVuSans-6c" transform="translate(68.408203 0.015625)"/>
     <use xlink:href="#DejaVuSans-32" transform="translate(97.148438 -16.390625) scale(0.7)"/>
     <use xlink:href="#DejaVuSans-54" transform="translate(144.418945 0.015625)"/>
     <use xlink:href="#DejaVuSans-65" transform="translate(205.50293 0.015625)"/>
     <use xlink:href="#DejaVuSans-35" transform="translate(267.983398 -16.390625) scale(0.7)"/>
    </g>
   </g>
   <g id="text_5">
    <!-- $\mathrm{Te}$ -->
    <g transform="translate(131.551933 33.102406) scale(0.1 -0.1)">
     <use xlink:href="#DejaVuSans-54" transform="translate(0 0.09375)"/>
     <use xlink:href="#DejaVuSans-65" transform="translate(61.083984 0.09375)"/>
    </g>
   </g>
   <g id="text_6">
    <!-- $\mathrm{Al}$ -->
    <g transform="translate(19.586902 211.839411) scale(0.1 -0.1)">
     <use xlink:href="#DejaVuSans-41" transform="translate(0 0.015625)"/>
     <use xlink:href="#DejaVuSans-6c" transform="translate(68.408203 0.015625)"/>
    </g>
   </g>
   <g id="text_7">
    <!-- $\mathrm{CuTe_{2}}$ -->
    <g transform="translate(155.194667 96.76175) scale(0.1 -0.1)">
     <use xlink:href="#DejaVuSans-43" transform="translate(0 0.78125)"/>
     <use xlink:href="#DejaVuSans-75" transform="translate(69.824219 0.78125)"/>
     <use xlink:href="#DejaVuSans-54" transform="translate(133.203125 0.78125)"/>
     <use xlink:href="#DejaVuSans-65" transform="translate(194.287109 0.78125)"/>
     <use xlink:href="#DejaVuSans-32" transform="translate(256.767578 -15.625) scale(0.7)"/>
    </g>
   </g>
   <g id="text_8">
    <!-- $\mathrm{AlCu_{3}}$ -->
    <g transform="translate(194.843307 210.594971) scale(0.1 -0.1)">
     <use xlink:href="#DejaVuSans-41" transform="translate(0 0.015625)"/>
     <use xlink:href="#DejaVuSans-6c" transform="translate(68.408203 0.015625)"/>
     <use xlink:href="#DejaVuSans-43" transform="translate(96.191406 0.015625)"/>
     <use xlink:href="#DejaVuSans-75" transform="translate(166.015625 0.015625)"/>
     <use xlink:href="#DejaVuSans-33" transform="translate(230.351562 -16.390625) scale(0.7)"/>
    </g>
   </g>
   <g id="text_9">
    <!-- $\mathrm{Cu}$ -->
    <g transform="translate(245.859482 211.527642) scale(0.1 -0.1)">
     <use xlink:href="#DejaVuSans-43" transform="translate(0 0.78125)"/>
     <use xlink:href="#DejaVuSans-75" transform="translate(69.824219 0.78125)"/>
    </g>
   </g>
   <g id="text_10">
    <!-- $\mathrm{AlCu}$ -->
    <g transform="translate(126.856478 211.215873) scale(0.1 -0.1)">
     <use xlink:href="#DejaVuSans-41" transform="translate(0 0.015625)"/>
     <use xlink:href="#DejaVuSans-6c" transform="translate(68.408203 0.015625)"/>
     <use xlink:href="#DejaVuSans-43" transform="translate(96.191406 0.015625)"/>
     <use xlink:href="#DejaVuSans-75" transform="translate(166.015625 0.015625)"/>
    </g>
   </g>
   <g id="text_11">
    <!-- $\mathrm{CuTe}$ -->
    <g transform="translate(178.925125 127.6151) scale(0.1 -0.1)">
     <use xlink:href="#DejaVuSans-43" transform="translate(0 0.78125)"/>
     <use xlink:href="#DejaVuSans-75" transform="translate(69.824219 0.78125)"/>
     <use xlink:href="#DejaVuSans-54" transform="translate(133.203125 0.78125)"/>
     <use xlink:href="#DejaVuSans-65" transform="translate(194.287109 0.78125)"/>
    </g>
   </g>
   <g id="text_12">
    <!-- $\mathrm{AlCuTe_{2}}$ -->
    <g transform="translate(107.833751 128.93952) scale(0.1 -0.1)">
     <use xlink:href="#DejaVuSans-41" transform="translate(0 0.015625)"/>
     <use xlink:href="#DejaVuSans-6c" transform="translate(68.408203 0.015625)"/>
     <use xlink:href="#DejaVuSans-43" transform="translate(96.191406 0.015625)"/>
     <use xlink:href="#DejaVuSans-75" transform="translate(166.015625 0.015625)"/>
     <use xlink:href="#DejaVuSans-54" transform="translate(229.394531 0.015625)"/>
     <use xlink:href="#DejaVuSans-65" transform="translate(290.478516 0.015625)"/>
     <use xlink:href="#DejaVuSans-32" transform="translate(352.958984 -16.390625) scale(0.7)"/>
    </g>
   </g>
   <g id="text_13">
    <!-- $\mathrm{Al_{8}Cu_{4}Te}$ -->
    <g style="fill: #0000ff" transform="translate(92.087129 195.867495) scale(0.1 -0.1)">
     <defs>
      <path id="DejaVuSans-38" d="M 2034 2216 
Q 1584 2216 1326 1975 
Q 1069 1734 1069 1313 
Q 1069 891 1326 650 
Q 1584 409 2034 409 
Q 2484 409 2743 651 
Q 3003 894 3003 1313 
Q 3003 1734 2745 1975 
Q 2488 2216 2034 2216 
z
M 1403 2484 
Q 997 2584 770 2862 
Q 544 3141 544 3541 
Q 544 4100 942 4425 
Q 1341 4750 2034 4750 
Q 2731 4750 3128 4425 
Q 3525 4100 3525 3541 
Q 3525 3141 3298 2862 
Q 3072 2584 2669 2484 
Q 3125 2378 3379 2068 
Q 3634 1759 3634 1313 
Q 3634 634 3220 271 
Q 2806 -91 2034 -91 
Q 1263 -91 848 271 
Q 434 634 434 1313 
Q 434 1759 690 2068 
Q 947 2378 1403 2484 
z
M 1172 3481 
Q 1172 3119 1398 2916 
Q 1625 2713 2034 2713 
Q 2441 2713 2670 2916 
Q 2900 3119 2900 3481 
Q 2900 3844 2670 4047 
Q 2441 4250 2034 4250 
Q 1625 4250 1398 4047 
Q 1172 3844 1172 3481 
z
" transform="scale(0.015625)"/>
     </defs>
     <use xlink:href="#DejaVuSans-41" transform="translate(0 0.015625)"/>
     <use xlink:href="#DejaVuSans-6c" transform="translate(68.408203 0.015625)"/>
     <use xlink:href="#DejaVuSans-38" transform="translate(97.148438 -16.390625) scale(0.7)"/>
     <use xlink:href="#DejaVuSans-43" transform="translate(144.418945 0.015625)"/>
     <use xlink:href="#DejaVuSans-75" transform="translate(214.243164 0.015625)"/>
     <use xlink:href="#DejaVuSans-34" transform="translate(278.579102 -16.390625) scale(0.7)"/>
     <use xlink:href="#DejaVuSans-54" transform="translate(325.849609 0.015625)"/>
     <use xlink:href="#DejaVuSans-65" transform="translate(386.933594 0.015625)"/>
    </g>
   </g>
  </g>
  <g id="axes_2">
   <g id="patch_3">
    <path d="M 287.298425 195.703937 
L 296.029134 195.703937 
L 296.029134 36.96378 
L 287.298425 36.96378 
L 287.298425 195.703937 
z
" style="fill: none"/>
   </g>
   <g id="patch_4">
    <path d="M 287.298425 195.703937 
L 291.66378 203.640945 
L 296.029134 195.703937 
" style="fill: #440154; opacity: 0.7"/>
   </g>
   <g id="patch_5">
    <path d="M 287.298425 36.96378 
L 291.66378 29.026772 
L 296.029134 36.96378 
" style="fill: #fde725; opacity: 0.7"/>
   </g>
   <g id="QuadMesh_1">
    <path d="M 287.298425 195.703937 
L 296.029134 195.703937 
L 296.029134 192.176378 
L 287.298425 192.176378 
L 287.298425 195.703937 
" clip-path="url(#p0d12a455d9)" style="fill: #450457; fill-opacity: 0.7"/>
    <path d="M 287.298425 192.176378 
L 296.029134 192.176378 
L 296.029134 188.648819 
L 287.298425 188.648819 
L 287.298425 192.176378 
" clip-path="url(#p0d12a455d9)" style="fill: #470d60; fill-opacity: 0.7"/>
    <path d="M 287.298425 188.648819 
L 296.029134 188.648819 
L 296.029134 185.12126 
L 287.298425 185.12126 
L 287.298425 188.648819 
" clip-path="url(#p0d12a455d9)" style="fill: #481668; fill-opacity: 0.7"/>
    <path d="M 287.298425 185.12126 
L 296.029134 185.12126 
L 296.029134 181.593701 
L 287.298425 181.593701 
L 287.298425 185.12126 
" clip-path="url(#p0d12a455d9)" style="fill: #481c6e; fill-opacity: 0.7"/>
    <path d="M 287.298425 181.593701 
L 296.029134 181.593701 
L 296.029134 178.066142 
L 287.298425 178.066142 
L 287.298425 181.593701 
" clip-path="url(#p0d12a455d9)" style="fill: #482475; fill-opacity: 0.7"/>
    <path d="M 287.298425 178.066142 
L 296.029134 178.066142 
L 296.029134 174.538583 
L 287.298425 174.538583 
L 287.298425 178.066142 
" clip-path="url(#p0d12a455d9)" style="fill: #472c7a; fill-opacity: 0.7"/>
    <path d="M 287.298425 174.538583 
L 296.029134 174.538583 
L 296.029134 171.011024 
L 287.298425 171.011024 
L 287.298425 174.538583 
" clip-path="url(#p0d12a455d9)" style="fill: #46327e; fill-opacity: 0.7"/>
    <path d="M 287.298425 171.011024 
L 296.029134 171.011024 
L 296.029134 167.483465 
L 287.298425 167.483465 
L 287.298425 171.011024 
" clip-path="url(#p0d12a455d9)" style="fill: #443983; fill-opacity: 0.7"/>
    <path d="M 287.298425 167.483465 
L 296.029134 167.483465 
L 296.029134 163.955906 
L 287.298425 163.955906 
L 287.298425 167.483465 
" clip-path="url(#p0d12a455d9)" style="fill: #424086; fill-opacity: 0.7"/>
    <path d="M 287.298425 163.955906 
L 296.029134 163.955906 
L 296.029134 160.428346 
L 287.298425 160.428346 
L 287.298425 163.955906 
" clip-path="url(#p0d12a455d9)" style="fill: #3f4788; fill-opacity: 0.7"/>
    <path d="M 287.298425 160.428346 
L 296.029134 160.428346 
L 296.029134 156.900787 
L 287.298425 156.900787 
L 287.298425 160.428346 
" clip-path="url(#p0d12a455d9)" style="fill: #3d4d8a; fill-opacity: 0.7"/>
    <path d="M 287.298425 156.900787 
L 296.029134 156.900787 
L 296.029134 153.373228 
L 287.298425 153.373228 
L 287.298425 156.900787 
" clip-path="url(#p0d12a455d9)" style="fill: #3a538b; fill-opacity: 0.7"/>
    <path d="M 287.298425 153.373228 
L 296.029134 153.373228 
L 296.029134 149.845669 
L 287.298425 149.845669 
L 287.298425 153.373228 
" clip-path="url(#p0d12a455d9)" style="fill: #375a8c; fill-opacity: 0.7"/>
    <path d="M 287.298425 149.845669 
L 296.029134 149.845669 
L 296.029134 146.31811 
L 287.298425 146.31811 
L 287.298425 149.845669 
" clip-path="url(#p0d12a455d9)" style="fill: #355f8d; fill-opacity: 0.7"/>
    <path d="M 287.298425 146.31811 
L 296.029134 146.31811 
L 296.029134 142.790551 
L 287.298425 142.790551 
L 287.298425 146.31811 
" clip-path="url(#p0d12a455d9)" style="fill: #32658e; fill-opacity: 0.7"/>
    <path d="M 287.298425 142.790551 
L 296.029134 142.790551 
L 296.029134 139.262992 
L 287.298425 139.262992 
L 287.298425 142.790551 
" clip-path="url(#p0d12a455d9)" style="fill: #2f6b8e; fill-opacity: 0.7"/>
    <path d="M 287.298425 139.262992 
L 296.029134 139.262992 
L 296.029134 135.735433 
L 287.298425 135.735433 
L 287.298425 139.262992 
" clip-path="url(#p0d12a455d9)" style="fill: #2d708e; fill-opacity: 0.7"/>
    <path d="M 287.298425 135.735433 
L 296.029134 135.735433 
L 296.029134 132.207874 
L 287.298425 132.207874 
L 287.298425 135.735433 
" clip-path="url(#p0d12a455d9)" style="fill: #2b758e; fill-opacity: 0.7"/>
    <path d="M 287.298425 132.207874 
L 296.029134 132.207874 
L 296.029134 128.680315 
L 287.298425 128.680315 
L 287.298425 132.207874 
" clip-path="url(#p0d12a455d9)" style="fill: #297b8e; fill-opacity: 0.7"/>
    <path d="M 287.298425 128.680315 
L 296.029134 128.680315 
L 296.029134 125.152756 
L 287.298425 125.152756 
L 287.298425 128.680315 
" clip-path="url(#p0d12a455d9)" style="fill: #27808e; fill-opacity: 0.7"/>
    <path d="M 287.298425 125.152756 
L 296.029134 125.152756 
L 296.029134 121.625197 
L 287.298425 121.625197 
L 287.298425 125.152756 
" clip-path="url(#p0d12a455d9)" style="fill: #25858e; fill-opacity: 0.7"/>
    <path d="M 287.298425 121.625197 
L 296.029134 121.625197 
L 296.029134 118.097638 
L 287.298425 118.097638 
L 287.298425 121.625197 
" clip-path="url(#p0d12a455d9)" style="fill: #228b8d; fill-opacity: 0.7"/>
    <path d="M 287.298425 118.097638 
L 296.029134 118.097638 
L 296.029134 114.570079 
L 287.298425 114.570079 
L 287.298425 118.097638 
" clip-path="url(#p0d12a455d9)" style="fill: #21918c; fill-opacity: 0.7"/>
    <path d="M 287.298425 114.570079 
L 296.029134 114.570079 
L 296.029134 111.04252 
L 287.298425 111.04252 
L 287.298425 114.570079 
" clip-path="url(#p0d12a455d9)" style="fill: #1f958b; fill-opacity: 0.7"/>
    <path d="M 287.298425 111.04252 
L 296.029134 111.04252 
L 296.029134 107.514961 
L 287.298425 107.514961 
L 287.298425 111.04252 
" clip-path="url(#p0d12a455d9)" style="fill: #1e9b8a; fill-opacity: 0.7"/>
    <path d="M 287.298425 107.514961 
L 296.029134 107.514961 
L 296.029134 103.987402 
L 287.298425 103.987402 
L 287.298425 107.514961 
" clip-path="url(#p0d12a455d9)" style="fill: #1fa188; fill-opacity: 0.7"/>
    <path d="M 287.298425 103.987402 
L 296.029134 103.987402 
L 296.029134 100.459843 
L 287.298425 100.459843 
L 287.298425 103.987402 
" clip-path="url(#p0d12a455d9)" style="fill: #21a585; fill-opacity: 0.7"/>
    <path d="M 287.298425 100.459843 
L 296.029134 100.459843 
L 296.029134 96.932283 
L 287.298425 96.932283 
L 287.298425 100.459843 
" clip-path="url(#p0d12a455d9)" style="fill: #25ab82; fill-opacity: 0.7"/>
    <path d="M 287.298425 96.932283 
L 296.029134 96.932283 
L 296.029134 93.404724 
L 287.298425 93.404724 
L 287.298425 96.932283 
" clip-path="url(#p0d12a455d9)" style="fill: #2ab07f; fill-opacity: 0.7"/>
    <path d="M 287.298425 93.404724 
L 296.029134 93.404724 
L 296.029134 89.877165 
L 287.298425 89.877165 
L 287.298425 93.404724 
" clip-path="url(#p0d12a455d9)" style="fill: #31b57b; fill-opacity: 0.7"/>
    <path d="M 287.298425 89.877165 
L 296.029134 89.877165 
L 296.029134 86.349606 
L 287.298425 86.349606 
L 287.298425 89.877165 
" clip-path="url(#p0d12a455d9)" style="fill: #3aba76; fill-opacity: 0.7"/>
    <path d="M 287.298425 86.349606 
L 296.029134 86.349606 
L 296.029134 82.822047 
L 287.298425 82.822047 
L 287.298425 86.349606 
" clip-path="url(#p0d12a455d9)" style="fill: #44bf70; fill-opacity: 0.7"/>
    <path d="M 287.298425 82.822047 
L 296.029134 82.822047 
L 296.029134 79.294488 
L 287.298425 79.294488 
L 287.298425 82.822047 
" clip-path="url(#p0d12a455d9)" style="fill: #4ec36b; fill-opacity: 0.7"/>
    <path d="M 287.298425 79.294488 
L 296.029134 79.294488 
L 296.029134 75.766929 
L 287.298425 75.766929 
L 287.298425 79.294488 
" clip-path="url(#p0d12a455d9)" style="fill: #5ac864; fill-opacity: 0.7"/>
    <path d="M 287.298425 75.766929 
L 296.029134 75.766929 
L 296.029134 72.23937 
L 287.298425 72.23937 
L 287.298425 75.766929 
" clip-path="url(#p0d12a455d9)" style="fill: #67cc5c; fill-opacity: 0.7"/>
    <path d="M 287.298425 72.23937 
L 296.029134 72.23937 
L 296.029134 68.711811 
L 287.298425 68.711811 
L 287.298425 72.23937 
" clip-path="url(#p0d12a455d9)" style="fill: #73d056; fill-opacity: 0.7"/>
    <path d="M 287.298425 68.711811 
L 296.029134 68.711811 
L 296.029134 65.184252 
L 287.298425 65.184252 
L 287.298425 68.711811 
" clip-path="url(#p0d12a455d9)" style="fill: #81d34d; fill-opacity: 0.7"/>
    <path d="M 287.298425 65.184252 
L 296.029134 65.184252 
L 296.029134 61.656693 
L 287.298425 61.656693 
L 287.298425 65.184252 
" clip-path="url(#p0d12a455d9)" style="fill: #90d743; fill-opacity: 0.7"/>
    <path d="M 287.298425 61.656693 
L 296.029134 61.656693 
L 296.029134 58.129134 
L 287.298425 58.129134 
L 287.298425 61.656693 
" clip-path="url(#p0d12a455d9)" style="fill: #a0da39; fill-opacity: 0.7"/>
    <path d="M 287.298425 58.129134 
L 296.029134 58.129134 
L 296.029134 54.601575 
L 287.298425 54.601575 
L 287.298425 58.129134 
" clip-path="url(#p0d12a455d9)" style="fill: #addc30; fill-opacity: 0.7"/>
    <path d="M 287.298425 54.601575 
L 296.029134 54.601575 
L 296.029134 51.074016 
L 287.298425 51.074016 
L 287.298425 54.601575 
" clip-path="url(#p0d12a455d9)" style="fill: #bddf26; fill-opacity: 0.7"/>
    <path d="M 287.298425 51.074016 
L 296.029134 51.074016 
L 296.029134 47.546457 
L 287.298425 47.546457 
L 287.298425 51.074016 
" clip-path="url(#p0d12a455d9)" style="fill: #cde11d; fill-opacity: 0.7"/>
    <path d="M 287.298425 47.546457 
L 296.029134 47.546457 
L 296.029134 44.018898 
L 287.298425 44.018898 
L 287.298425 47.546457 
" clip-path="url(#p0d12a455d9)" style="fill: #dae319; fill-opacity: 0.7"/>
    <path d="M 287.298425 44.018898 
L 296.029134 44.018898 
L 296.029134 40.491339 
L 287.298425 40.491339 
L 287.298425 44.018898 
" clip-path="url(#p0d12a455d9)" style="fill: #eae51a; fill-opacity: 0.7"/>
    <path d="M 287.298425 40.491339 
L 296.029134 40.491339 
L 296.029134 36.96378 
L 287.298425 36.96378 
L 287.298425 40.491339 
" clip-path="url(#p0d12a455d9)" style="fill: #f8e621; fill-opacity: 0.7"/>
   </g>
   <g id="matplotlib.axis_3"/>
   <g id="matplotlib.axis_4">
    <g id="ytick_1">
     <g id="line2d_23">
      <defs>
       <path id="m46da037c9e" d="M 0 0 
L -2 0 
" style="stroke: #000000; stroke-width: 0.3"/>
      </defs>
      <g>
       <use xlink:href="#m46da037c9e" x="296.029134" y="195.703937" style="stroke: #000000; stroke-width: 0.3"/>
      </g>
     </g>
     <g id="text_14">
      <!-- 0.690 -->
      <g transform="translate(299.529134 198.567062) scale(0.08 -0.08)">
       <defs>
        <path id="ArialMT-2212" d="M 3381 1997 
L 356 1997 
L 356 2522 
L 3381 2522 
L 3381 1997 
z
" transform="scale(0.015625)"/>
        <path id="ArialMT-30" d="M 266 2259 
Q 266 3072 433 3567 
Q 600 4063 929 4331 
Q 1259 4600 1759 4600 
Q 2128 4600 2406 4451 
Q 2684 4303 2865 4023 
Q 3047 3744 3150 3342 
Q 3253 2941 3253 2259 
Q 3253 1453 3087 958 
Q 2922 463 2592 192 
Q 2263 -78 1759 -78 
Q 1097 -78 719 397 
Q 266 969 266 2259 
z
M 844 2259 
Q 844 1131 1108 757 
Q 1372 384 1759 384 
Q 2147 384 2411 759 
Q 2675 1134 2675 2259 
Q 2675 3391 2411 3762 
Q 2147 4134 1753 4134 
Q 1366 4134 1134 3806 
Q 844 3388 844 2259 
z
" transform="scale(0.015625)"/>
        <path id="ArialMT-2e" d="M 581 0 
L 581 641 
L 1222 641 
L 1222 0 
L 581 0 
z
" transform="scale(0.015625)"/>
        <path id="ArialMT-36" d="M 3184 3459 
L 2625 3416 
Q 2550 3747 2413 3897 
Q 2184 4138 1850 4138 
Q 1581 4138 1378 3988 
Q 1113 3794 959 3422 
Q 806 3050 800 2363 
Q 1003 2672 1297 2822 
Q 1591 2972 1913 2972 
Q 2475 2972 2870 2558 
Q 3266 2144 3266 1488 
Q 3266 1056 3080 686 
Q 2894 316 2569 119 
Q 2244 -78 1831 -78 
Q 1128 -78 684 439 
Q 241 956 241 2144 
Q 241 3472 731 4075 
Q 1159 4600 1884 4600 
Q 2425 4600 2770 4297 
Q 3116 3994 3184 3459 
z
M 888 1484 
Q 888 1194 1011 928 
Q 1134 663 1356 523 
Q 1578 384 1822 384 
Q 2178 384 2434 671 
Q 2691 959 2691 1453 
Q 2691 1928 2437 2201 
Q 2184 2475 1800 2475 
Q 1419 2475 1153 2201 
Q 888 1928 888 1484 
z
" transform="scale(0.015625)"/>
        <path id="ArialMT-39" d="M 350 1059 
L 891 1109 
Q 959 728 1153 556 
Q 1347 384 1650 384 
Q 1909 384 2104 503 
Q 2300 622 2425 820 
Q 2550 1019 2634 1356 
Q 2719 1694 2719 2044 
Q 2719 2081 2716 2156 
Q 2547 1888 2255 1720 
Q 1963 1553 1622 1553 
Q 1053 1553 659 1965 
Q 266 2378 266 3053 
Q 266 3750 677 4175 
Q 1088 4600 1706 4600 
Q 2153 4600 2523 4359 
Q 2894 4119 3086 3673 
Q 3278 3228 3278 2384 
Q 3278 1506 3087 986 
Q 2897 466 2520 194 
Q 2144 -78 1638 -78 
Q 1100 -78 759 220 
Q 419 519 350 1059 
z
M 2653 3081 
Q 2653 3566 2395 3850 
Q 2138 4134 1775 4134 
Q 1400 4134 1122 3828 
Q 844 3522 844 3034 
Q 844 2597 1108 2323 
Q 1372 2050 1759 2050 
Q 2150 2050 2401 2323 
Q 2653 2597 2653 3081 
z
" transform="scale(0.015625)"/>
       </defs>
       <use xlink:href="#ArialMT-2212"/>
       <use xlink:href="#ArialMT-30" transform="translate(58.398438 0)"/>
       <use xlink:href="#ArialMT-2e" transform="translate(114.013672 0)"/>
       <use xlink:href="#ArialMT-36" transform="translate(141.796875 0)"/>
       <use xlink:href="#ArialMT-39" transform="translate(197.412109 0)"/>
       <use xlink:href="#ArialMT-30" transform="translate(253.027344 0)"/>
      </g>
     </g>
    </g>
    <g id="ytick_2">
     <g id="line2d_24">
      <g>
       <use xlink:href="#m46da037c9e" x="296.029134" y="178.066142" style="stroke: #000000; stroke-width: 0.3"/>
      </g>
     </g>
     <g id="text_15">
      <!-- 0.615 -->
      <g transform="translate(299.529134 180.929267) scale(0.08 -0.08)">
       <defs>
        <path id="ArialMT-31" d="M 2384 0 
L 1822 0 
L 1822 3584 
Q 1619 3391 1289 3197 
Q 959 3003 697 2906 
L 697 3450 
Q 1169 3672 1522 3987 
Q 1875 4303 2022 4600 
L 2384 4600 
L 2384 0 
z
" transform="scale(0.015625)"/>
        <path id="ArialMT-35" d="M 266 1200 
L 856 1250 
Q 922 819 1161 601 
Q 1400 384 1738 384 
Q 2144 384 2425 690 
Q 2706 997 2706 1503 
Q 2706 1984 2436 2262 
Q 2166 2541 1728 2541 
Q 1456 2541 1237 2417 
Q 1019 2294 894 2097 
L 366 2166 
L 809 4519 
L 3088 4519 
L 3088 3981 
L 1259 3981 
L 1013 2750 
Q 1425 3038 1878 3038 
Q 2478 3038 2890 2622 
Q 3303 2206 3303 1553 
Q 3303 931 2941 478 
Q 2500 -78 1738 -78 
Q 1113 -78 717 272 
Q 322 622 266 1200 
z
" transform="scale(0.015625)"/>
       </defs>
       <use xlink:href="#ArialMT-2212"/>
       <use xlink:href="#ArialMT-30" transform="translate(58.398438 0)"/>
       <use xlink:href="#ArialMT-2e" transform="translate(114.013672 0)"/>
       <use xlink:href="#ArialMT-36" transform="translate(141.796875 0)"/>
       <use xlink:href="#ArialMT-31" transform="translate(197.412109 0)"/>
       <use xlink:href="#ArialMT-35" transform="translate(253.027344 0)"/>
      </g>
     </g>
    </g>
    <g id="ytick_3">
     <g id="line2d_25">
      <g>
       <use xlink:href="#m46da037c9e" x="296.029134" y="160.428346" style="stroke: #000000; stroke-width: 0.3"/>
      </g>
     </g>
     <g id="text_16">
      <!-- 0.540 -->
      <g transform="translate(299.529134 163.291471) scale(0.08 -0.08)">
       <defs>
        <path id="ArialMT-34" d="M 2069 0 
L 2069 1097 
L 81 1097 
L 81 1613 
L 2172 4581 
L 2631 4581 
L 2631 1613 
L 3250 1613 
L 3250 1097 
L 2631 1097 
L 2631 0 
L 2069 0 
z
M 2069 1613 
L 2069 3678 
L 634 1613 
L 2069 1613 
z
" transform="scale(0.015625)"/>
       </defs>
       <use xlink:href="#ArialMT-2212"/>
       <use xlink:href="#ArialMT-30" transform="translate(58.398438 0)"/>
       <use xlink:href="#ArialMT-2e" transform="translate(114.013672 0)"/>
       <use xlink:href="#ArialMT-35" transform="translate(141.796875 0)"/>
       <use xlink:href="#ArialMT-34" transform="translate(197.412109 0)"/>
       <use xlink:href="#ArialMT-30" transform="translate(253.027344 0)"/>
      </g>
     </g>
    </g>
    <g id="ytick_4">
     <g id="line2d_26">
      <g>
       <use xlink:href="#m46da037c9e" x="296.029134" y="142.790551" style="stroke: #000000; stroke-width: 0.3"/>
      </g>
     </g>
     <g id="text_17">
      <!-- 0.465 -->
      <g transform="translate(299.529134 145.653676) scale(0.08 -0.08)">
       <use xlink:href="#ArialMT-2212"/>
       <use xlink:href="#ArialMT-30" transform="translate(58.398438 0)"/>
       <use xlink:href="#ArialMT-2e" transform="translate(114.013672 0)"/>
       <use xlink:href="#ArialMT-34" transform="translate(141.796875 0)"/>
       <use xlink:href="#ArialMT-36" transform="translate(197.412109 0)"/>
       <use xlink:href="#ArialMT-35" transform="translate(253.027344 0)"/>
      </g>
     </g>
    </g>
    <g id="ytick_5">
     <g id="line2d_27">
      <g>
       <use xlink:href="#m46da037c9e" x="296.029134" y="125.152756" style="stroke: #000000; stroke-width: 0.3"/>
      </g>
     </g>
     <g id="text_18">
      <!-- 0.390 -->
      <g transform="translate(299.529134 128.015881) scale(0.08 -0.08)">
       <defs>
        <path id="ArialMT-33" d="M 269 1209 
L 831 1284 
Q 928 806 1161 595 
Q 1394 384 1728 384 
Q 2125 384 2398 659 
Q 2672 934 2672 1341 
Q 2672 1728 2419 1979 
Q 2166 2231 1775 2231 
Q 1616 2231 1378 2169 
L 1441 2663 
Q 1497 2656 1531 2656 
Q 1891 2656 2178 2843 
Q 2466 3031 2466 3422 
Q 2466 3731 2256 3934 
Q 2047 4138 1716 4138 
Q 1388 4138 1169 3931 
Q 950 3725 888 3313 
L 325 3413 
Q 428 3978 793 4289 
Q 1159 4600 1703 4600 
Q 2078 4600 2393 4439 
Q 2709 4278 2876 4000 
Q 3044 3722 3044 3409 
Q 3044 3113 2884 2869 
Q 2725 2625 2413 2481 
Q 2819 2388 3044 2092 
Q 3269 1797 3269 1353 
Q 3269 753 2831 336 
Q 2394 -81 1725 -81 
Q 1122 -81 723 278 
Q 325 638 269 1209 
z
" transform="scale(0.015625)"/>
       </defs>
       <use xlink:href="#ArialMT-2212"/>
       <use xlink:href="#ArialMT-30" transform="translate(58.398438 0)"/>
       <use xlink:href="#ArialMT-2e" transform="translate(114.013672 0)"/>
       <use xlink:href="#ArialMT-33" transform="translate(141.796875 0)"/>
       <use xlink:href="#ArialMT-39" transform="translate(197.412109 0)"/>
       <use xlink:href="#ArialMT-30" transform="translate(253.027344 0)"/>
      </g>
     </g>
    </g>
    <g id="ytick_6">
     <g id="line2d_28">
      <g>
       <use xlink:href="#m46da037c9e" x="296.029134" y="107.514961" style="stroke: #000000; stroke-width: 0.3"/>
      </g>
     </g>
     <g id="text_19">
      <!-- 0.315 -->
      <g transform="translate(299.529134 110.378086) scale(0.08 -0.08)">
       <use xlink:href="#ArialMT-2212"/>
       <use xlink:href="#ArialMT-30" transform="translate(58.398438 0)"/>
       <use xlink:href="#ArialMT-2e" transform="translate(114.013672 0)"/>
       <use xlink:href="#ArialMT-33" transform="translate(141.796875 0)"/>
       <use xlink:href="#ArialMT-31" transform="translate(197.412109 0)"/>
       <use xlink:href="#ArialMT-35" transform="translate(253.027344 0)"/>
      </g>
     </g>
    </g>
    <g id="ytick_7">
     <g id="line2d_29">
      <g>
       <use xlink:href="#m46da037c9e" x="296.029134" y="89.877165" style="stroke: #000000; stroke-width: 0.3"/>
      </g>
     </g>
     <g id="text_20">
      <!-- 0.240 -->
      <g transform="translate(299.529134 92.74029) scale(0.08 -0.08)">
       <defs>
        <path id="ArialMT-32" d="M 3222 541 
L 3222 0 
L 194 0 
Q 188 203 259 391 
Q 375 700 629 1000 
Q 884 1300 1366 1694 
Q 2113 2306 2375 2664 
Q 2638 3022 2638 3341 
Q 2638 3675 2398 3904 
Q 2159 4134 1775 4134 
Q 1369 4134 1125 3890 
Q 881 3647 878 3216 
L 300 3275 
Q 359 3922 746 4261 
Q 1134 4600 1788 4600 
Q 2447 4600 2831 4234 
Q 3216 3869 3216 3328 
Q 3216 3053 3103 2787 
Q 2991 2522 2730 2228 
Q 2469 1934 1863 1422 
Q 1356 997 1212 845 
Q 1069 694 975 541 
L 3222 541 
z
" transform="scale(0.015625)"/>
       </defs>
       <use xlink:href="#ArialMT-2212"/>
       <use xlink:href="#ArialMT-30" transform="translate(58.398438 0)"/>
       <use xlink:href="#ArialMT-2e" transform="translate(114.013672 0)"/>
       <use xlink:href="#ArialMT-32" transform="translate(141.796875 0)"/>
       <use xlink:href="#ArialMT-34" transform="translate(197.412109 0)"/>
       <use xlink:href="#ArialMT-30" transform="translate(253.027344 0)"/>
      </g>
     </g>
    </g>
    <g id="ytick_8">
     <g id="line2d_30">
      <g>
       <use xlink:href="#m46da037c9e" x="296.029134" y="72.23937" style="stroke: #000000; stroke-width: 0.3"/>
      </g>
     </g>
     <g id="text_21">
      <!-- 0.165 -->
      <g transform="translate(299.529134 75.102495) scale(0.08 -0.08)">
       <use xlink:href="#ArialMT-2212"/>
       <use xlink:href="#ArialMT-30" transform="translate(58.398438 0)"/>
       <use xlink:href="#ArialMT-2e" transform="translate(114.013672 0)"/>
       <use xlink:href="#ArialMT-31" transform="translate(141.796875 0)"/>
       <use xlink:href="#ArialMT-36" transform="translate(197.412109 0)"/>
       <use xlink:href="#ArialMT-35" transform="translate(253.027344 0)"/>
      </g>
     </g>
    </g>
    <g id="ytick_9">
     <g id="line2d_31">
      <g>
       <use xlink:href="#m46da037c9e" x="296.029134" y="54.601575" style="stroke: #000000; stroke-width: 0.3"/>
      </g>
     </g>
     <g id="text_22">
      <!-- 0.090 -->
      <g transform="translate(299.529134 57.4647) scale(0.08 -0.08)">
       <use xlink:href="#ArialMT-2212"/>
       <use xlink:href="#ArialMT-30" transform="translate(58.398438 0)"/>
       <use xlink:href="#ArialMT-2e" transform="translate(114.013672 0)"/>
       <use xlink:href="#ArialMT-30" transform="translate(141.796875 0)"/>
       <use xlink:href="#ArialMT-39" transform="translate(197.412109 0)"/>
       <use xlink:href="#ArialMT-30" transform="translate(253.027344 0)"/>
      </g>
     </g>
    </g>
    <g id="ytick_10">
     <g id="line2d_32">
      <g>
       <use xlink:href="#m46da037c9e" x="296.029134" y="36.96378" style="stroke: #000000; stroke-width: 0.3"/>
      </g>
     </g>
     <g id="text_23">
      <!-- 0.015 -->
      <g transform="translate(299.529134 39.826905) scale(0.08 -0.08)">
       <use xlink:href="#ArialMT-2212"/>
       <use xlink:href="#ArialMT-30" transform="translate(58.398438 0)"/>
       <use xlink:href="#ArialMT-2e" transform="translate(114.013672 0)"/>
       <use xlink:href="#ArialMT-30" transform="translate(141.796875 0)"/>
       <use xlink:href="#ArialMT-31" transform="translate(197.412109 0)"/>
       <use xlink:href="#ArialMT-35" transform="translate(253.027344 0)"/>
      </g>
     </g>
    </g>
    <g id="text_24">
     <!-- Formation Energy (eV/atom) -->
     <g transform="translate(335.498821 179.408077) rotate(-90) scale(0.1 -0.1)">
      <defs>
       <path id="ArialMT-46" d="M 525 0 
L 525 4581 
L 3616 4581 
L 3616 4041 
L 1131 4041 
L 1131 2622 
L 3281 2622 
L 3281 2081 
L 1131 2081 
L 1131 0 
L 525 0 
z
" transform="scale(0.015625)"/>
       <path id="ArialMT-6f" d="M 213 1659 
Q 213 2581 725 3025 
Q 1153 3394 1769 3394 
Q 2453 3394 2887 2945 
Q 3322 2497 3322 1706 
Q 3322 1066 3130 698 
Q 2938 331 2570 128 
Q 2203 -75 1769 -75 
Q 1072 -75 642 372 
Q 213 819 213 1659 
z
M 791 1659 
Q 791 1022 1069 705 
Q 1347 388 1769 388 
Q 2188 388 2466 706 
Q 2744 1025 2744 1678 
Q 2744 2294 2464 2611 
Q 2184 2928 1769 2928 
Q 1347 2928 1069 2612 
Q 791 2297 791 1659 
z
" transform="scale(0.015625)"/>
       <path id="ArialMT-72" d="M 416 0 
L 416 3319 
L 922 3319 
L 922 2816 
Q 1116 3169 1280 3281 
Q 1444 3394 1641 3394 
Q 1925 3394 2219 3213 
L 2025 2691 
Q 1819 2813 1613 2813 
Q 1428 2813 1281 2702 
Q 1134 2591 1072 2394 
Q 978 2094 978 1738 
L 978 0 
L 416 0 
z
" transform="scale(0.015625)"/>
       <path id="ArialMT-6d" d="M 422 0 
L 422 3319 
L 925 3319 
L 925 2853 
Q 1081 3097 1340 3245 
Q 1600 3394 1931 3394 
Q 2300 3394 2536 3241 
Q 2772 3088 2869 2813 
Q 3263 3394 3894 3394 
Q 4388 3394 4653 3120 
Q 4919 2847 4919 2278 
L 4919 0 
L 4359 0 
L 4359 2091 
Q 4359 2428 4304 2576 
Q 4250 2725 4106 2815 
Q 3963 2906 3769 2906 
Q 3419 2906 3187 2673 
Q 2956 2441 2956 1928 
L 2956 0 
L 2394 0 
L 2394 2156 
Q 2394 2531 2256 2718 
Q 2119 2906 1806 2906 
Q 1569 2906 1367 2781 
Q 1166 2656 1075 2415 
Q 984 2175 984 1722 
L 984 0 
L 422 0 
z
" transform="scale(0.015625)"/>
       <path id="ArialMT-61" d="M 2588 409 
Q 2275 144 1986 34 
Q 1697 -75 1366 -75 
Q 819 -75 525 192 
Q 231 459 231 875 
Q 231 1119 342 1320 
Q 453 1522 633 1644 
Q 813 1766 1038 1828 
Q 1203 1872 1538 1913 
Q 2219 1994 2541 2106 
Q 2544 2222 2544 2253 
Q 2544 2597 2384 2738 
Q 2169 2928 1744 2928 
Q 1347 2928 1158 2789 
Q 969 2650 878 2297 
L 328 2372 
Q 403 2725 575 2942 
Q 747 3159 1072 3276 
Q 1397 3394 1825 3394 
Q 2250 3394 2515 3294 
Q 2781 3194 2906 3042 
Q 3031 2891 3081 2659 
Q 3109 2516 3109 2141 
L 3109 1391 
Q 3109 606 3145 398 
Q 3181 191 3288 0 
L 2700 0 
Q 2613 175 2588 409 
z
M 2541 1666 
Q 2234 1541 1622 1453 
Q 1275 1403 1131 1340 
Q 988 1278 909 1158 
Q 831 1038 831 891 
Q 831 666 1001 516 
Q 1172 366 1500 366 
Q 1825 366 2078 508 
Q 2331 650 2450 897 
Q 2541 1088 2541 1459 
L 2541 1666 
z
" transform="scale(0.015625)"/>
       <path id="ArialMT-74" d="M 1650 503 
L 1731 6 
Q 1494 -44 1306 -44 
Q 1000 -44 831 53 
Q 663 150 594 308 
Q 525 466 525 972 
L 525 2881 
L 113 2881 
L 113 3319 
L 525 3319 
L 525 4141 
L 1084 4478 
L 1084 3319 
L 1650 3319 
L 1650 2881 
L 1084 2881 
L 1084 941 
Q 1084 700 1114 631 
Q 1144 563 1211 522 
Q 1278 481 1403 481 
Q 1497 481 1650 503 
z
" transform="scale(0.015625)"/>
       <path id="ArialMT-69" d="M 425 3934 
L 425 4581 
L 988 4581 
L 988 3934 
L 425 3934 
z
M 425 0 
L 425 3319 
L 988 3319 
L 988 0 
L 425 0 
z
" transform="scale(0.015625)"/>
       <path id="ArialMT-6e" d="M 422 0 
L 422 3319 
L 928 3319 
L 928 2847 
Q 1294 3394 1984 3394 
Q 2284 3394 2536 3286 
Q 2788 3178 2913 3003 
Q 3038 2828 3088 2588 
Q 3119 2431 3119 2041 
L 3119 0 
L 2556 0 
L 2556 2019 
Q 2556 2363 2490 2533 
Q 2425 2703 2258 2804 
Q 2091 2906 1866 2906 
Q 1506 2906 1245 2678 
Q 984 2450 984 1813 
L 984 0 
L 422 0 
z
" transform="scale(0.015625)"/>
       <path id="ArialMT-20" transform="scale(0.015625)"/>
       <path id="ArialMT-45" d="M 506 0 
L 506 4581 
L 3819 4581 
L 3819 4041 
L 1113 4041 
L 1113 2638 
L 3647 2638 
L 3647 2100 
L 1113 2100 
L 1113 541 
L 3925 541 
L 3925 0 
L 506 0 
z
" transform="scale(0.015625)"/>
       <path id="ArialMT-65" d="M 2694 1069 
L 3275 997 
Q 3138 488 2766 206 
Q 2394 -75 1816 -75 
Q 1088 -75 661 373 
Q 234 822 234 1631 
Q 234 2469 665 2931 
Q 1097 3394 1784 3394 
Q 2450 3394 2872 2941 
Q 3294 2488 3294 1666 
Q 3294 1616 3291 1516 
L 816 1516 
Q 847 969 1125 678 
Q 1403 388 1819 388 
Q 2128 388 2347 550 
Q 2566 713 2694 1069 
z
M 847 1978 
L 2700 1978 
Q 2663 2397 2488 2606 
Q 2219 2931 1791 2931 
Q 1403 2931 1139 2672 
Q 875 2413 847 1978 
z
" transform="scale(0.015625)"/>
       <path id="ArialMT-67" d="M 319 -275 
L 866 -356 
Q 900 -609 1056 -725 
Q 1266 -881 1628 -881 
Q 2019 -881 2231 -725 
Q 2444 -569 2519 -288 
Q 2563 -116 2559 434 
Q 2191 0 1641 0 
Q 956 0 581 494 
Q 206 988 206 1678 
Q 206 2153 378 2554 
Q 550 2956 876 3175 
Q 1203 3394 1644 3394 
Q 2231 3394 2613 2919 
L 2613 3319 
L 3131 3319 
L 3131 450 
Q 3131 -325 2973 -648 
Q 2816 -972 2473 -1159 
Q 2131 -1347 1631 -1347 
Q 1038 -1347 672 -1080 
Q 306 -813 319 -275 
z
M 784 1719 
Q 784 1066 1043 766 
Q 1303 466 1694 466 
Q 2081 466 2343 764 
Q 2606 1063 2606 1700 
Q 2606 2309 2336 2618 
Q 2066 2928 1684 2928 
Q 1309 2928 1046 2623 
Q 784 2319 784 1719 
z
" transform="scale(0.015625)"/>
       <path id="ArialMT-79" d="M 397 -1278 
L 334 -750 
Q 519 -800 656 -800 
Q 844 -800 956 -737 
Q 1069 -675 1141 -563 
Q 1194 -478 1313 -144 
Q 1328 -97 1363 -6 
L 103 3319 
L 709 3319 
L 1400 1397 
Q 1534 1031 1641 628 
Q 1738 1016 1872 1384 
L 2581 3319 
L 3144 3319 
L 1881 -56 
Q 1678 -603 1566 -809 
Q 1416 -1088 1222 -1217 
Q 1028 -1347 759 -1347 
Q 597 -1347 397 -1278 
z
" transform="scale(0.015625)"/>
       <path id="ArialMT-28" d="M 1497 -1347 
Q 1031 -759 709 28 
Q 388 816 388 1659 
Q 388 2403 628 3084 
Q 909 3875 1497 4659 
L 1900 4659 
Q 1522 4009 1400 3731 
Q 1209 3300 1100 2831 
Q 966 2247 966 1656 
Q 966 153 1900 -1347 
L 1497 -1347 
z
" transform="scale(0.015625)"/>
       <path id="ArialMT-56" d="M 1803 0 
L 28 4581 
L 684 4581 
L 1875 1253 
Q 2019 853 2116 503 
Q 2222 878 2363 1253 
L 3600 4581 
L 4219 4581 
L 2425 0 
L 1803 0 
z
" transform="scale(0.015625)"/>
       <path id="ArialMT-2f" d="M 0 -78 
L 1328 4659 
L 1778 4659 
L 453 -78 
L 0 -78 
z
" transform="scale(0.015625)"/>
       <path id="ArialMT-29" d="M 791 -1347 
L 388 -1347 
Q 1322 153 1322 1656 
Q 1322 2244 1188 2822 
Q 1081 3291 891 3722 
Q 769 4003 388 4659 
L 791 4659 
Q 1378 3875 1659 3084 
Q 1900 2403 1900 1659 
Q 1900 816 1576 28 
Q 1253 -759 791 -1347 
z
" transform="scale(0.015625)"/>
      </defs>
      <use xlink:href="#ArialMT-46"/>
      <use xlink:href="#ArialMT-6f" transform="translate(61.083984 0)"/>
      <use xlink:href="#ArialMT-72" transform="translate(116.699219 0)"/>
      <use xlink:href="#ArialMT-6d" transform="translate(150 0)"/>
      <use xlink:href="#ArialMT-61" transform="translate(233.300781 0)"/>
      <use xlink:href="#ArialMT-74" transform="translate(288.916016 0)"/>
      <use xlink:href="#ArialMT-69" transform="translate(316.699219 0)"/>
      <use xlink:href="#ArialMT-6f" transform="translate(338.916016 0)"/>
      <use xlink:href="#ArialMT-6e" transform="translate(394.53125 0)"/>
      <use xlink:href="#ArialMT-20" transform="translate(450.146484 0)"/>
      <use xlink:href="#ArialMT-45" transform="translate(477.929688 0)"/>
      <use xlink:href="#ArialMT-6e" transform="translate(544.628906 0)"/>
      <use xlink:href="#ArialMT-65" transform="translate(600.244141 0)"/>
      <use xlink:href="#ArialMT-72" transform="translate(655.859375 0)"/>
      <use xlink:href="#ArialMT-67" transform="translate(689.160156 0)"/>
      <use xlink:href="#ArialMT-79" transform="translate(744.775391 0)"/>
      <use xlink:href="#ArialMT-20" transform="translate(794.775391 0)"/>
      <use xlink:href="#ArialMT-28" transform="translate(822.558594 0)"/>
      <use xlink:href="#ArialMT-65" transform="translate(855.859375 0)"/>
      <use xlink:href="#ArialMT-56" transform="translate(911.474609 0)"/>
      <use xlink:href="#ArialMT-2f" transform="translate(978.173828 0)"/>
      <use xlink:href="#ArialMT-61" transform="translate(1005.957031 0)"/>
      <use xlink:href="#ArialMT-74" transform="translate(1061.572266 0)"/>
      <use xlink:href="#ArialMT-6f" transform="translate(1089.355469 0)"/>
      <use xlink:href="#ArialMT-6d" transform="translate(1144.970703 0)"/>
      <use xlink:href="#ArialMT-29" transform="translate(1228.271484 0)"/>
     </g>
    </g>
   </g>
   <g id="LineCollection_1"/>
   <g id="patch_6">
    <path d="M 287.298425 195.703937 
L 291.66378 203.640945 
L 296.029134 195.703937 
L 296.029134 36.96378 
L 291.66378 29.026772 
L 287.298425 36.96378 
L 287.298425 195.703937 
z
" style="fill: none; stroke: #000000; stroke-width: 0.8; stroke-linejoin: miter; stroke-linecap: square"/>
   </g>
  </g>
 </g>
 <defs>
  <clipPath id="pa1d137cb76">
   <rect x="7.2" y="7.2" width="263.622047" height="218.267717"/>
  </clipPath>
  <clipPath id="p0d12a455d9">
   <rect x="287.298425" y="36.96378" width="8.730709" height="158.740157"/>
  </clipPath>
 </defs>
</svg>
