<?xml version="1.0" encoding="utf-8" standalone="no"?>
<!DOCTYPE svg PUBLIC "-//W3C//DTD SVG 1.1//EN"
  "http://www.w3.org/Graphics/SVG/1.1/DTD/svg11.dtd">
<svg xmlns:xlink="http://www.w3.org/1999/xlink" width="340.354759pt" height="232.667717pt" viewBox="0 0 340.354759 232.667717" xmlns="http://www.w3.org/2000/svg" version="1.1">
 <metadata>
  <rdf:RDF xmlns:dc="http://purl.org/dc/elements/1.1/" xmlns:cc="http://creativecommons.org/ns#" xmlns:rdf="http://www.w3.org/1999/02/22-rdf-syntax-ns#">
   <cc:Work>
    <dc:type rdf:resource="http://purl.org/dc/dcmitype/StillImage"/>
    <dc:date>2026-01-27T21:37:52.545360</dc:date>
    <dc:format>image/svg+xml</dc:format>
    <dc:creator>
     <cc:Agent>
      <dc:title>Matplotlib v3.10.8, https://matplotlib.org/</dc:title>
     </cc:Agent>
    </dc:creator>
   </cc:Work>
  </rdf:RDF>
 </metadata>
 <defs>
  <style type="text/css">*{stroke-linejoin: round; stroke-linecap: butt}</style>
 </defs>
 <g id="figure_1">
  <g id="patch_1">
   <path d="M 0 232.667717 
L 340.354759 232.667717 
L 340.354759 0 
L 0 0 
L 0 232.667717 
z
" style="fill: none"/>
  </g>
  <g id="axes_1">
   <g id="patch_2">
    <path d="M 7.2 225.467717 
L 270.822047 225.467717 
L 270.822047 7.2 
L 7.2 7.2 
L 7.2 225.467717 
z
" style="fill: none"/>
   </g>
   <g id="TriContourSet_1">
    <path d="M 93.211181 97.776817 
L 100.907869 91.23201 
L 101.026696 91.008869 
L 100.769171 89.87895 
L 99.49351 87.866634 
L 99.068289 88.537406 
z
" clip-path="url(#pab4afadba9)" style="fill: #440154; fill-opacity: 0.7"/>
    <path d="M 99.49351 87.866634 
L 100.769171 89.87895 
L 101.026696 91.008869 
L 100.907869 91.23201 
L 93.211181 97.776817 
L 79.934946 118.719679 
L 105.077622 97.339837 
L 105.465794 96.610903 
L 104.624538 92.919813 
L 100.457351 86.346202 
z
" clip-path="url(#pab4afadba9)" style="fill: #450559; fill-opacity: 0.7"/>
    <path d="M 100.457351 86.346202 
L 104.624538 92.919813 
L 105.465794 96.610903 
L 105.077622 97.339837 
L 79.934946 118.719679 
L 66.65871 139.662542 
L 109.247374 103.447664 
L 109.904892 102.212938 
L 108.479905 95.960676 
L 101.421193 84.825771 
z
" clip-path="url(#pab4afadba9)" style="fill: #470e61; fill-opacity: 0.7"/>
    <path d="M 101.421193 84.825771 
L 108.479905 95.960676 
L 109.904892 102.212938 
L 109.247374 103.447664 
L 66.65871 139.662542 
L 53.382475 160.605404 
L 113.417127 109.555491 
L 114.34399 107.814973 
L 112.335272 99.001539 
L 102.385035 83.305339 
z
" clip-path="url(#pab4afadba9)" style="fill: #481769; fill-opacity: 0.7"/>
    <path d="M 42.977073 177.019612 
L 43.808206 177.195279 
L 44.531202 177.294561 
L 45.129435 177.276838 
L 117.58688 115.663318 
L 118.783088 113.417008 
L 116.190639 102.042402 
L 103.348877 81.784908 
L 102.385035 83.305339 
L 112.335272 99.001539 
L 114.34399 107.814973 
L 113.417127 109.555491 
L 53.382475 160.605404 
L 43.148461 176.749253 
z
" clip-path="url(#pab4afadba9)" style="fill: #482071; fill-opacity: 0.7"/>
    <path d="M 42.229138 178.199458 
L 46.687328 179.141735 
L 50.565473 179.674281 
L 53.774392 179.579216 
L 121.756633 121.771145 
L 123.222186 119.019043 
L 120.046007 105.083265 
L 104.312719 80.264476 
L 103.348877 81.784908 
L 116.190639 102.042402 
L 118.783088 113.417008 
L 117.58688 115.663318 
L 45.129435 177.276838 
L 44.531202 177.294561 
L 43.808206 177.195279 
L 42.977073 177.019612 
z
" clip-path="url(#pab4afadba9)" style="fill: #482878; fill-opacity: 0.7"/>
    <path d="M 41.481203 179.379303 
L 49.566451 181.08819 
L 56.599744 182.054002 
L 62.41935 181.881594 
L 125.926386 127.878971 
L 127.661284 124.621078 
L 123.901374 108.124128 
L 105.27656 78.744045 
L 104.312719 80.264476 
L 120.046007 105.083265 
L 123.222186 119.019043 
L 121.756633 121.771145 
L 53.774392 179.579216 
L 50.565473 179.674281 
L 46.687328 179.141735 
L 42.229138 178.199458 
z
" clip-path="url(#pab4afadba9)" style="fill: #46307e; fill-opacity: 0.7"/>
    <path d="M 40.733268 180.559148 
L 52.445573 183.034645 
L 62.634015 184.433722 
L 71.064308 184.183972 
L 130.096139 133.986798 
L 132.100382 130.223113 
L 127.756741 111.164991 
L 106.240402 77.223613 
L 105.27656 78.744045 
L 123.901374 108.124128 
L 127.661284 124.621078 
L 125.926386 127.878971 
L 62.41935 181.881594 
L 56.599744 182.054002 
L 49.566451 181.08819 
L 41.481203 179.379303 
z
" clip-path="url(#pab4afadba9)" style="fill: #453882; fill-opacity: 0.7"/>
    <path d="M 39.985332 181.738993 
L 55.324696 184.981101 
L 68.668286 186.813442 
L 79.709265 186.486349 
L 134.265892 140.094625 
L 136.53948 135.825148 
L 131.612108 114.205854 
L 107.204244 75.703182 
L 106.240402 77.223613 
L 127.756741 111.164991 
L 132.100382 130.223113 
L 130.096139 133.986798 
L 71.064308 184.183972 
L 62.634015 184.433722 
L 52.445573 183.034645 
L 40.733268 180.559148 
z
" clip-path="url(#pab4afadba9)" style="fill: #424086; fill-opacity: 0.7"/>
    <path d="M 39.237397 182.918839 
L 58.203818 186.927556 
L 74.702557 189.193163 
L 88.354223 188.788727 
L 138.435644 146.202452 
L 140.978578 141.427182 
L 135.467476 117.246717 
L 108.168086 74.18275 
L 107.204244 75.703182 
L 131.612108 114.205854 
L 136.53948 135.825148 
L 134.265892 140.094625 
L 79.709265 186.486349 
L 68.668286 186.813442 
L 55.324696 184.981101 
L 39.985332 181.738993 
z
" clip-path="url(#pab4afadba9)" style="fill: #3f4788; fill-opacity: 0.7"/>
    <path d="M 38.489462 184.098684 
L 61.082941 188.874011 
L 80.736829 191.572883 
L 96.999181 191.091105 
L 142.605397 152.310279 
L 145.417676 147.029217 
L 139.322843 120.28758 
L 109.131928 72.662319 
L 108.168086 74.18275 
L 135.467476 117.246717 
L 140.978578 141.427182 
L 138.435644 146.202452 
L 88.354223 188.788727 
L 74.702557 189.193163 
L 58.203818 186.927556 
L 39.237397 182.918839 
z
" clip-path="url(#pab4afadba9)" style="fill: #3d4e8a; fill-opacity: 0.7"/>
    <path d="M 37.741527 185.278529 
L 63.962063 190.820467 
L 86.7711 193.952603 
L 105.644138 193.393483 
L 146.77515 158.418106 
L 149.856774 152.631252 
L 143.17821 123.328443 
L 110.095769 71.141887 
L 109.131928 72.662319 
L 139.322843 120.28758 
L 145.417676 147.029217 
L 142.605397 152.310279 
L 96.999181 191.091105 
L 80.736829 191.572883 
L 61.082941 188.874011 
L 38.489462 184.098684 
z
" clip-path="url(#pab4afadba9)" style="fill: #39558c; fill-opacity: 0.7"/>
    <path d="M 36.993592 186.458374 
L 66.841186 192.766922 
L 92.805371 196.332324 
L 114.289096 195.69586 
L 150.944903 164.525933 
L 154.295872 158.233287 
L 147.033577 126.369306 
L 111.059611 69.621456 
L 110.095769 71.141887 
L 143.17821 123.328443 
L 149.856774 152.631252 
L 146.77515 158.418106 
L 105.644138 193.393483 
L 86.7711 193.952603 
L 63.962063 190.820467 
L 37.741527 185.278529 
z
" clip-path="url(#pab4afadba9)" style="fill: #365c8d; fill-opacity: 0.7"/>
    <path d="M 36.245656 187.63822 
L 69.720308 194.713378 
L 98.839642 198.712044 
L 122.934053 197.998238 
L 155.114656 170.63376 
L 158.73497 163.835322 
L 150.888945 129.410169 
L 112.023453 68.101024 
L 111.059611 69.621456 
L 147.033577 126.369306 
L 154.295872 158.233287 
L 150.944903 164.525933 
L 114.289096 195.69586 
L 92.805371 196.332324 
L 66.841186 192.766922 
L 36.993592 186.458374 
z
" clip-path="url(#pab4afadba9)" style="fill: #33638d; fill-opacity: 0.7"/>
    <path d="M 35.497721 188.818065 
L 72.599431 196.659833 
L 104.873913 201.091764 
L 131.579011 200.300616 
L 159.284409 176.741587 
L 163.174068 169.437357 
L 154.744312 132.451031 
L 112.987295 66.580593 
L 112.023453 68.101024 
L 150.888945 129.410169 
L 158.73497 163.835322 
L 155.114656 170.63376 
L 122.934053 197.998238 
L 98.839642 198.712044 
L 69.720308 194.713378 
L 36.245656 187.63822 
z
" clip-path="url(#pab4afadba9)" style="fill: #30698e; fill-opacity: 0.7"/>
    <path d="M 34.749786 189.99791 
L 75.478553 198.606288 
L 110.908185 203.471485 
L 140.223969 202.602994 
L 163.454162 182.849414 
L 167.613166 175.039392 
L 158.599679 135.491894 
L 113.951137 65.060162 
L 112.987295 66.580593 
L 154.744312 132.451031 
L 163.174068 169.437357 
L 159.284409 176.741587 
L 131.579011 200.300616 
L 104.873913 201.091764 
L 72.599431 196.659833 
L 35.497721 188.818065 
z
" clip-path="url(#pab4afadba9)" style="fill: #2e6f8e; fill-opacity: 0.7"/>
    <path d="M 34.001851 191.177756 
L 78.357676 200.552744 
L 116.942456 205.851205 
L 148.868926 204.905372 
L 167.623914 188.95724 
L 172.052264 180.641427 
L 162.455046 138.532757 
L 114.914978 63.53973 
L 113.951137 65.060162 
L 158.599679 135.491894 
L 167.613166 175.039392 
L 163.454162 182.849414 
L 140.223969 202.602994 
L 110.908185 203.471485 
L 75.478553 198.606288 
L 34.749786 189.99791 
z
" clip-path="url(#pab4afadba9)" style="fill: #2b758e; fill-opacity: 0.7"/>
    <path d="M 33.253916 192.357601 
L 81.236798 202.499199 
L 122.976727 208.230925 
L 157.513884 207.207749 
L 171.793667 195.065067 
L 176.491362 186.243462 
L 166.310413 141.57362 
L 115.87882 62.019299 
L 114.914978 63.53973 
L 162.455046 138.532757 
L 172.052264 180.641427 
L 167.623914 188.95724 
L 148.868926 204.905372 
L 116.942456 205.851205 
L 78.357676 200.552744 
L 34.001851 191.177756 
z
" clip-path="url(#pab4afadba9)" style="fill: #297b8e; fill-opacity: 0.7"/>
    <path d="M 32.505981 193.537446 
L 84.115921 204.445654 
L 129.010998 210.610646 
L 166.158842 209.510127 
L 175.96342 201.172894 
L 180.93046 191.845496 
L 170.165781 144.614483 
L 116.842662 60.498867 
L 115.87882 62.019299 
L 166.310413 141.57362 
L 176.491362 186.243462 
L 171.793667 195.065067 
L 157.513884 207.207749 
L 122.976727 208.230925 
L 81.236798 202.499199 
L 33.253916 192.357601 
z
" clip-path="url(#pab4afadba9)" style="fill: #26818e; fill-opacity: 0.7"/>
    <path d="M 31.758045 194.717291 
L 86.995043 206.39211 
L 135.045269 212.990366 
L 174.803799 211.812505 
L 180.133173 207.280721 
L 185.369558 197.447531 
L 174.021148 147.655346 
L 117.806504 58.978436 
L 116.842662 60.498867 
L 170.165781 144.614483 
L 180.93046 191.845496 
L 175.96342 201.172894 
L 166.158842 209.510127 
L 129.010998 210.610646 
L 84.115921 204.445654 
L 32.505981 193.537446 
z
" clip-path="url(#pab4afadba9)" style="fill: #24878e; fill-opacity: 0.7"/>
    <path d="M 31.01011 195.897137 
L 89.874166 208.338565 
L 135.138994 214.554331 
L 139.011024 214.554331 
L 168.615255 214.554331 
L 183.448757 214.114883 
L 184.302926 213.388548 
L 189.808656 203.049566 
L 177.876515 150.696209 
L 118.770346 57.458004 
L 117.806504 58.978436 
L 174.021148 147.655346 
L 185.369558 197.447531 
L 180.133173 207.280721 
L 174.803799 211.812505 
L 135.045269 212.990366 
L 86.995043 206.39211 
L 31.758045 194.717291 
z
" clip-path="url(#pab4afadba9)" style="fill: #228d8d; fill-opacity: 0.7"/>
    <path d="M 30.262175 197.076982 
L 92.753288 210.28502 
L 123.843521 214.554331 
L 135.138994 214.554331 
L 89.874166 208.338565 
L 31.01011 195.897137 
z
M 191.104424 214.554331 
L 194.247754 208.651601 
L 181.731882 153.737072 
L 119.734187 55.937573 
L 118.770346 57.458004 
L 177.876515 150.696209 
L 189.808656 203.049566 
L 184.302926 213.388548 
L 183.448757 214.114883 
L 168.615255 214.554331 
L 185.098794 214.554331 
z
" clip-path="url(#pab4afadba9)" style="fill: #20938c; fill-opacity: 0.7"/>
    <path d="M 29.51424 198.256827 
L 95.632411 212.231476 
L 112.548047 214.554331 
L 123.843521 214.554331 
L 92.753288 210.28502 
L 30.262175 197.076982 
z
M 198.526726 214.554331 
L 198.686852 214.253636 
L 185.58725 156.777935 
L 120.698029 54.417141 
L 119.734187 55.937573 
L 181.731882 153.737072 
L 194.247754 208.651601 
L 191.104424 214.554331 
z
" clip-path="url(#pab4afadba9)" style="fill: #1f998a; fill-opacity: 0.7"/>
    <path d="M 28.766305 199.436673 
L 98.511533 214.177931 
L 101.252574 214.554331 
L 112.548047 214.554331 
L 95.632411 212.231476 
L 29.51424 198.256827 
z
M 201.917693 214.554331 
L 189.442617 159.818798 
L 121.661871 52.89671 
L 120.698029 54.417141 
L 185.58725 156.777935 
L 198.686852 214.253636 
L 198.526726 214.554331 
L 198.925125 214.554331 
z
" clip-path="url(#pab4afadba9)" style="fill: #1f9f88; fill-opacity: 0.7"/>
    <path d="M 28.131521 200.438025 
L 95.449554 214.554331 
L 99.068289 214.554331 
L 101.252574 214.554331 
L 98.511533 214.177931 
L 28.766305 199.436673 
L 28.400374 200.013916 
z
M 205.08 214.554331 
L 193.297984 162.859661 
L 122.625713 51.376278 
L 121.661871 52.89671 
L 189.442617 159.818798 
L 201.917693 214.554331 
z
" clip-path="url(#pab4afadba9)" style="fill: #21a585; fill-opacity: 0.7"/>
    <path d="M 27.605126 201.268396 
L 90.963275 214.554331 
L 95.449554 214.554331 
L 28.131521 200.438025 
z
M 208.242308 214.554331 
L 197.153351 165.900524 
L 123.589555 49.855847 
L 122.625713 51.376278 
L 193.297984 162.859661 
L 205.08 214.554331 
z
" clip-path="url(#pab4afadba9)" style="fill: #25ab82; fill-opacity: 0.7"/>
    <path d="M 27.078732 202.098767 
L 86.476997 214.554331 
L 90.963275 214.554331 
L 27.605126 201.268396 
z
M 211.404615 214.554331 
L 201.008718 168.941387 
L 124.553397 48.335415 
L 123.589555 49.855847 
L 197.153351 165.900524 
L 208.242308 214.554331 
z
" clip-path="url(#pab4afadba9)" style="fill: #2cb17e; fill-opacity: 0.7"/>
    <path d="M 26.552338 202.929138 
L 81.990718 214.554331 
L 86.476997 214.554331 
L 27.078732 202.098767 
z
M 214.566923 214.554331 
L 204.864086 171.98225 
L 125.517238 46.814984 
L 124.553397 48.335415 
L 201.008718 168.941387 
L 211.404615 214.554331 
z
" clip-path="url(#pab4afadba9)" style="fill: #34b679; fill-opacity: 0.7"/>
    <path d="M 26.025944 203.759509 
L 77.50444 214.554331 
L 81.990718 214.554331 
L 26.552338 202.929138 
z
M 217.72923 214.554331 
L 208.719453 175.023113 
L 126.48108 45.294552 
L 125.517238 46.814984 
L 204.864086 171.98225 
L 214.566923 214.554331 
z
" clip-path="url(#pab4afadba9)" style="fill: #3fbc73; fill-opacity: 0.7"/>
    <path d="M 25.49955 204.58988 
L 73.018162 214.554331 
L 77.50444 214.554331 
L 26.025944 203.759509 
z
M 220.891537 214.554331 
L 212.57482 178.063975 
L 127.444922 43.774121 
L 126.48108 45.294552 
L 208.719453 175.023113 
L 217.72923 214.554331 
z
" clip-path="url(#pab4afadba9)" style="fill: #4ac16d; fill-opacity: 0.7"/>
    <path d="M 24.973156 205.420251 
L 68.531883 214.554331 
L 73.018162 214.554331 
L 25.49955 204.58988 
z
M 224.053845 214.554331 
L 216.430187 181.104838 
L 128.408764 42.25369 
L 127.444922 43.774121 
L 212.57482 178.063975 
L 220.891537 214.554331 
z
" clip-path="url(#pab4afadba9)" style="fill: #56c667; fill-opacity: 0.7"/>
    <path d="M 24.446762 206.250622 
L 64.045605 214.554331 
L 68.531883 214.554331 
L 24.973156 205.420251 
z
M 227.216152 214.554331 
L 220.285555 184.145701 
L 129.372606 40.733258 
L 128.408764 42.25369 
L 216.430187 181.104838 
L 224.053845 214.554331 
z
" clip-path="url(#pab4afadba9)" style="fill: #65cb5e; fill-opacity: 0.7"/>
    <path d="M 23.920368 207.080992 
L 59.559326 214.554331 
L 64.045605 214.554331 
L 24.446762 206.250622 
z
M 230.37846 214.554331 
L 224.140922 187.186564 
L 130.336447 39.212827 
L 129.372606 40.733258 
L 220.285555 184.145701 
L 227.216152 214.554331 
z
" clip-path="url(#pab4afadba9)" style="fill: #73d056; fill-opacity: 0.7"/>
    <path d="M 23.393973 207.911363 
L 55.073048 214.554331 
L 59.559326 214.554331 
L 23.920368 207.080992 
z
M 233.540767 214.554331 
L 227.996289 190.227427 
L 131.300289 37.692395 
L 130.336447 39.212827 
L 224.140922 187.186564 
L 230.37846 214.554331 
z
" clip-path="url(#pab4afadba9)" style="fill: #84d44b; fill-opacity: 0.7"/>
    <path d="M 22.867579 208.741734 
L 50.586769 214.554331 
L 55.073048 214.554331 
L 23.393973 207.911363 
z
M 236.703075 214.554331 
L 231.851656 193.26829 
L 132.264131 36.171964 
L 131.300289 37.692395 
L 227.996289 190.227427 
L 233.540767 214.554331 
z
" clip-path="url(#pab4afadba9)" style="fill: #93d741; fill-opacity: 0.7"/>
    <path d="M 22.341185 209.572105 
L 46.100491 214.554331 
L 50.586769 214.554331 
L 22.867579 208.741734 
z
M 239.865382 214.554331 
L 235.707024 196.309153 
L 133.227973 34.651532 
L 132.264131 36.171964 
L 231.851656 193.26829 
L 236.703075 214.554331 
z
" clip-path="url(#pab4afadba9)" style="fill: #a2da37; fill-opacity: 0.7"/>
    <path d="M 21.814791 210.402476 
L 41.614213 214.554331 
L 46.100491 214.554331 
L 22.341185 209.572105 
z
M 243.02769 214.554331 
L 239.562391 199.350016 
L 134.191815 33.131101 
L 133.227973 34.651532 
L 235.707024 196.309153 
L 239.865382 214.554331 
z
" clip-path="url(#pab4afadba9)" style="fill: #b5de2b; fill-opacity: 0.7"/>
    <path d="M 21.288397 211.232847 
L 37.127934 214.554331 
L 41.614213 214.554331 
L 21.814791 210.402476 
z
M 246.189997 214.554331 
L 243.417758 202.390879 
L 135.155656 31.610669 
L 134.191815 33.131101 
L 239.562391 199.350016 
L 243.02769 214.554331 
z
" clip-path="url(#pab4afadba9)" style="fill: #c5e021; fill-opacity: 0.7"/>
    <path d="M 20.762003 212.063218 
L 32.641656 214.554331 
L 37.127934 214.554331 
L 21.288397 211.232847 
z
M 249.352305 214.554331 
L 247.273125 205.431742 
L 136.119498 30.090238 
L 135.155656 31.610669 
L 243.417758 202.390879 
L 246.189997 214.554331 
z
" clip-path="url(#pab4afadba9)" style="fill: #d8e219; fill-opacity: 0.7"/>
    <path d="M 20.235609 212.893589 
L 28.155377 214.554331 
L 32.641656 214.554331 
L 20.762003 212.063218 
z
M 252.514612 214.554331 
L 251.128492 208.472605 
L 137.08334 28.569806 
L 136.119498 30.090238 
L 247.273125 205.431742 
L 249.352305 214.554331 
z
" clip-path="url(#pab4afadba9)" style="fill: #e7e419; fill-opacity: 0.7"/>
    <path d="M 19.709214 213.72396 
L 23.669099 214.554331 
L 28.155377 214.554331 
L 20.235609 212.893589 
z
M 255.676919 214.554331 
L 254.98386 211.513468 
L 138.047182 27.049375 
L 137.08334 28.569806 
L 251.128492 208.472605 
L 252.514612 214.554331 
z
" clip-path="url(#pab4afadba9)" style="fill: #f6e620; fill-opacity: 0.7"/>
    <path d="M 23.669099 214.554331 
L 19.709214 213.72396 
L 19.18282 214.554331 
z
M 138.047182 27.049375 
L 254.98386 211.513468 
L 255.676919 214.554331 
L 258.839227 214.554331 
L 139.011024 25.528943 
z
" clip-path="url(#pab4afadba9)" style="fill: #fde725; fill-opacity: 0.7"/>
   </g>
   <g id="matplotlib.axis_1"/>
   <g id="matplotlib.axis_2"/>
   <g id="line2d_1">
    <path d="M 43.148461 176.749253 
L 28.400374 200.013916 
" clip-path="url(#pab4afadba9)" style="fill: none; stroke: #555555; stroke-opacity: 0.9; stroke-width: 0.5; stroke-linecap: square"/>
   </g>
   <g id="line2d_2">
    <path d="M 99.068289 214.554331 
L 28.400374 200.013916 
" clip-path="url(#pab4afadba9)" style="fill: none; stroke: #555555; stroke-opacity: 0.9; stroke-width: 0.5; stroke-linecap: square"/>
   </g>
   <g id="line2d_3">
    <path d="M 43.148461 176.749253 
L 185.098794 214.554331 
" clip-path="url(#pab4afadba9)" style="fill: none; stroke: #555555; stroke-opacity: 0.9; stroke-width: 0.5; stroke-linecap: square"/>
   </g>
   <g id="line2d_4">
    <path d="M 99.068289 88.537406 
L 43.148461 176.749253 
" clip-path="url(#pab4afadba9)" style="fill: none; stroke: #555555; stroke-opacity: 0.9; stroke-width: 0.5; stroke-linecap: square"/>
   </g>
   <g id="line2d_5">
    <path d="M 99.068289 88.537406 
L 139.011024 25.528943 
" clip-path="url(#pab4afadba9)" style="fill: none; stroke: #555555; stroke-opacity: 0.9; stroke-width: 0.5; stroke-linecap: square"/>
   </g>
   <g id="line2d_6">
    <path d="M 198.925125 214.554331 
L 258.839227 214.554331 
" clip-path="url(#pab4afadba9)" style="fill: none; stroke: #555555; stroke-opacity: 0.9; stroke-width: 0.5; stroke-linecap: square"/>
   </g>
   <g id="line2d_7">
    <path d="M 198.925125 214.554331 
L 185.098794 214.554331 
" clip-path="url(#pab4afadba9)" style="fill: none; stroke: #555555; stroke-opacity: 0.9; stroke-width: 0.5; stroke-linecap: square"/>
   </g>
   <g id="line2d_8">
    <path d="M 139.011024 214.554331 
L 43.148461 176.749253 
" clip-path="url(#pab4afadba9)" style="fill: none; stroke: #555555; stroke-opacity: 0.9; stroke-width: 0.5; stroke-linecap: square"/>
   </g>
   <g id="line2d_9">
    <path d="M 99.068289 88.537406 
L 198.925125 214.554331 
" clip-path="url(#pab4afadba9)" style="fill: none; stroke: #555555; stroke-opacity: 0.9; stroke-width: 0.5; stroke-linecap: square"/>
   </g>
   <g id="line2d_10">
    <path d="M 99.068289 214.554331 
L 19.18282 214.554331 
" clip-path="url(#pab4afadba9)" style="fill: none; stroke: #555555; stroke-opacity: 0.9; stroke-width: 0.5; stroke-linecap: square"/>
   </g>
   <g id="line2d_11">
    <path d="M 99.068289 88.537406 
L 185.098794 214.554331 
" clip-path="url(#pab4afadba9)" style="fill: none; stroke: #555555; stroke-opacity: 0.9; stroke-width: 0.5; stroke-linecap: square"/>
   </g>
   <g id="line2d_12">
    <path d="M 99.068289 214.554331 
L 43.148461 176.749253 
" clip-path="url(#pab4afadba9)" style="fill: none; stroke: #555555; stroke-opacity: 0.9; stroke-width: 0.5; stroke-linecap: square"/>
   </g>
   <g id="line2d_13">
    <path d="M 139.011024 214.554331 
L 99.068289 214.554331 
" clip-path="url(#pab4afadba9)" style="fill: none; stroke: #555555; stroke-opacity: 0.9; stroke-width: 0.5; stroke-linecap: square"/>
   </g>
   <g id="line2d_14">
    <path d="M 28.400374 200.013916 
L 19.18282 214.554331 
" clip-path="url(#pab4afadba9)" style="fill: none; stroke: #555555; stroke-opacity: 0.9; stroke-width: 0.5; stroke-linecap: square"/>
   </g>
   <g id="line2d_15">
    <path d="M 139.011024 214.554331 
L 185.098794 214.554331 
" clip-path="url(#pab4afadba9)" style="fill: none; stroke: #555555; stroke-opacity: 0.9; stroke-width: 0.5; stroke-linecap: square"/>
   </g>
   <g id="line2d_16">
    <path d="M 139.011024 25.528943 
L 258.839227 214.554331 
" clip-path="url(#pab4afadba9)" style="fill: none; stroke: #555555; stroke-opacity: 0.9; stroke-width: 0.5; stroke-linecap: square"/>
   </g>
   <g id="line2d_17">
    <path d="M 99.068289 88.537406 
L 258.839227 214.554331 
" clip-path="url(#pab4afadba9)" style="fill: none; stroke: #555555; stroke-opacity: 0.9; stroke-width: 0.5; stroke-linecap: square"/>
   </g>
   <g id="PathCollection_1">
    <defs>
     <path id="m0869cc6ed8" d="M 0 2.738613 
C 0.726289 2.738613 1.422928 2.450055 1.936492 1.936492 
C 2.450055 1.422928 2.738613 0.726289 2.738613 0 
C 2.738613 -0.726289 2.450055 -1.422928 1.936492 -1.936492 
C 1.422928 -2.450055 0.726289 -2.738613 0 -2.738613 
C -0.726289 -2.738613 -1.422928 -2.450055 -1.936492 -1.936492 
C -2.450055 -1.422928 -2.738613 -0.726289 -2.738613 0 
C -2.738613 0.726289 -2.450055 1.422928 -1.936492 1.936492 
C -1.422928 2.450055 -0.726289 2.738613 0 2.738613 
z
" style="stroke: #008000"/>
    </defs>
    <g clip-path="url(#pab4afadba9)">
     <use xlink:href="#m0869cc6ed8" x="43.148461" y="176.749253" style="fill: #008000; stroke: #008000"/>
     <use xlink:href="#m0869cc6ed8" x="28.400374" y="200.013916" style="fill: #008000; stroke: #008000"/>
     <use xlink:href="#m0869cc6ed8" x="99.068289" y="214.554331" style="fill: #008000; stroke: #008000"/>
     <use xlink:href="#m0869cc6ed8" x="185.098794" y="214.554331" style="fill: #008000; stroke: #008000"/>
     <use xlink:href="#m0869cc6ed8" x="99.068289" y="88.537406" style="fill: #008000; stroke: #008000"/>
     <use xlink:href="#m0869cc6ed8" x="139.011024" y="25.528943" style="fill: #008000; stroke: #008000"/>
     <use xlink:href="#m0869cc6ed8" x="198.925125" y="214.554331" style="fill: #008000; stroke: #008000"/>
     <use xlink:href="#m0869cc6ed8" x="258.839227" y="214.554331" style="fill: #008000; stroke: #008000"/>
     <use xlink:href="#m0869cc6ed8" x="139.011024" y="214.554331" style="fill: #008000; stroke: #008000"/>
     <use xlink:href="#m0869cc6ed8" x="19.18282" y="214.554331" style="fill: #008000; stroke: #008000"/>
    </g>
   </g>
   <g id="PathCollection_2">
    <defs>
     <path id="mdd643610ec" d="M -0 2.236068 
L 1.341641 0 
L 0 -2.236068 
L -1.341641 -0 
z
" style="stroke: #d3d3d3"/>
    </defs>
    <g clip-path="url(#pab4afadba9)">
     <use xlink:href="#mdd643610ec" x="139.011024" y="25.528943" style="fill: #d3d3d3; stroke: #d3d3d3"/>
     <use xlink:href="#mdd643610ec" x="139.011024" y="25.528943" style="fill: #d3d3d3; stroke: #d3d3d3"/>
     <use xlink:href="#mdd643610ec" x="258.839227" y="214.554331" style="fill: #d3d3d3; stroke: #d3d3d3"/>
     <use xlink:href="#mdd643610ec" x="258.839227" y="214.554331" style="fill: #d3d3d3; stroke: #d3d3d3"/>
     <use xlink:href="#mdd643610ec" x="258.839227" y="214.554331" style="fill: #d3d3d3; stroke: #d3d3d3"/>
     <use xlink:href="#mdd643610ec" x="258.839227" y="214.554331" style="fill: #d3d3d3; stroke: #d3d3d3"/>
     <use xlink:href="#mdd643610ec" x="258.839227" y="214.554331" style="fill: #d3d3d3; stroke: #d3d3d3"/>
     <use xlink:href="#mdd643610ec" x="258.839227" y="214.554331" style="fill: #d3d3d3; stroke: #d3d3d3"/>
     <use xlink:href="#mdd643610ec" x="258.839227" y="214.554331" style="fill: #d3d3d3; stroke: #d3d3d3"/>
     <use xlink:href="#mdd643610ec" x="19.18282" y="214.554331" style="fill: #d3d3d3; stroke: #d3d3d3"/>
     <use xlink:href="#mdd643610ec" x="19.18282" y="214.554331" style="fill: #d3d3d3; stroke: #d3d3d3"/>
     <use xlink:href="#mdd643610ec" x="19.18282" y="214.554331" style="fill: #d3d3d3; stroke: #d3d3d3"/>
     <use xlink:href="#mdd643610ec" x="19.18282" y="214.554331" style="fill: #d3d3d3; stroke: #d3d3d3"/>
     <use xlink:href="#mdd643610ec" x="19.18282" y="214.554331" style="fill: #d3d3d3; stroke: #d3d3d3"/>
     <use xlink:href="#mdd643610ec" x="19.18282" y="214.554331" style="fill: #d3d3d3; stroke: #d3d3d3"/>
     <use xlink:href="#mdd643610ec" x="19.18282" y="214.554331" style="fill: #d3d3d3; stroke: #d3d3d3"/>
     <use xlink:href="#mdd643610ec" x="19.18282" y="214.554331" style="fill: #d3d3d3; stroke: #d3d3d3"/>
     <use xlink:href="#mdd643610ec" x="19.18282" y="214.554331" style="fill: #d3d3d3; stroke: #d3d3d3"/>
     <use xlink:href="#mdd643610ec" x="109.053973" y="72.78529" style="fill: #d3d3d3; stroke: #d3d3d3"/>
     <use xlink:href="#mdd643610ec" x="139.011024" y="214.554331" style="fill: #d3d3d3; stroke: #d3d3d3"/>
     <use xlink:href="#mdd643610ec" x="198.925125" y="214.554331" style="fill: #d3d3d3; stroke: #d3d3d3"/>
     <use xlink:href="#mdd643610ec" x="198.925125" y="214.554331" style="fill: #d3d3d3; stroke: #d3d3d3"/>
     <use xlink:href="#mdd643610ec" x="198.925125" y="214.554331" style="fill: #d3d3d3; stroke: #d3d3d3"/>
     <use xlink:href="#mdd643610ec" x="210.907946" y="214.554331" style="fill: #d3d3d3; stroke: #d3d3d3"/>
     <use xlink:href="#mdd643610ec" x="99.068289" y="214.554331" style="fill: #d3d3d3; stroke: #d3d3d3"/>
     <use xlink:href="#mdd643610ec" x="99.068289" y="214.554331" style="fill: #d3d3d3; stroke: #d3d3d3"/>
     <use xlink:href="#mdd643610ec" x="109.053973" y="167.297984" style="fill: #d3d3d3; stroke: #d3d3d3"/>
     <use xlink:href="#mdd643610ec" x="49.139871" y="167.297984" style="fill: #d3d3d3; stroke: #d3d3d3"/>
     <use xlink:href="#mdd643610ec" x="67.114102" y="138.944176" style="fill: #d3d3d3; stroke: #d3d3d3"/>
     <use xlink:href="#mdd643610ec" x="79.096922" y="214.554331" style="fill: #d3d3d3; stroke: #d3d3d3"/>
     <use xlink:href="#mdd643610ec" x="79.096922" y="214.554331" style="fill: #d3d3d3; stroke: #d3d3d3"/>
     <use xlink:href="#mdd643610ec" x="115.045383" y="214.554331" style="fill: #d3d3d3; stroke: #d3d3d3"/>
     <use xlink:href="#mdd643610ec" x="208.385247" y="214.554331" style="fill: #d3d3d3; stroke: #d3d3d3"/>
     <use xlink:href="#mdd643610ec" x="36.301135" y="187.550704" style="fill: #d3d3d3; stroke: #d3d3d3"/>
     <use xlink:href="#mdd643610ec" x="102.140807" y="200.013916" style="fill: #d3d3d3; stroke: #d3d3d3"/>
    </g>
   </g>
   <g id="PathCollection_3">
    <defs>
     <path id="m4fdc7924d6" d="M 0 -5 
L -1.12257 -1.545085 
L -4.755283 -1.545085 
L -1.816356 0.59017 
L -2.938926 4.045085 
L -0 1.90983 
L 2.938926 4.045085 
L 1.816356 0.59017 
L 4.755283 -1.545085 
L 1.12257 -1.545085 
z
" style="stroke: #0000ff"/>
    </defs>
    <g clip-path="url(#pab4afadba9)">
     <use xlink:href="#m4fdc7924d6" x="102.140807" y="200.013916" style="fill: #0000ff; stroke: #0000ff"/>
    </g>
   </g>
   <g id="text_1">
    <!-- $\mathrm{Al_{4}Tc}$ -->
    <g transform="translate(18.991807 185.647136) scale(0.1 -0.1)">
     <defs>
      <path id="DejaVuSans-41" d="M 2188 4044 
L 1331 1722 
L 3047 1722 
L 2188 4044 
z
M 1831 4666 
L 2547 4666 
L 4325 0 
L 3669 0 
L 3244 1197 
L 1141 1197 
L 716 0 
L 50 0 
L 1831 4666 
z
" transform="scale(0.015625)"/>
      <path id="DejaVuSans-6c" d="M 603 4863 
L 1178 4863 
L 1178 0 
L 603 0 
L 603 4863 
z
" transform="scale(0.015625)"/>
      <path id="DejaVuSans-34" d="M 2419 4116 
L 825 1625 
L 2419 1625 
L 2419 4116 
z
M 2253 4666 
L 3047 4666 
L 3047 1625 
L 3713 1625 
L 3713 1100 
L 3047 1100 
L 3047 0 
L 2419 0 
L 2419 1100 
L 313 1100 
L 313 1709 
L 2253 4666 
z
" transform="scale(0.015625)"/>
      <path id="DejaVuSans-54" d="M -19 4666 
L 3928 4666 
L 3928 4134 
L 2272 4134 
L 2272 0 
L 1638 0 
L 1638 4134 
L -19 4134 
L -19 4666 
z
" transform="scale(0.015625)"/>
      <path id="DejaVuSans-63" d="M 3122 3366 
L 3122 2828 
Q 2878 2963 2633 3030 
Q 2388 3097 2138 3097 
Q 1578 3097 1268 2742 
Q 959 2388 959 1747 
Q 959 1106 1268 751 
Q 1578 397 2138 397 
Q 2388 397 2633 464 
Q 2878 531 3122 666 
L 3122 134 
Q 2881 22 2623 -34 
Q 2366 -91 2075 -91 
Q 1284 -91 818 406 
Q 353 903 353 1747 
Q 353 2603 823 3093 
Q 1294 3584 2113 3584 
Q 2378 3584 2631 3529 
Q 2884 3475 3122 3366 
z
" transform="scale(0.015625)"/>
     </defs>
     <use xlink:href="#DejaVuSans-41" transform="translate(0 0.015625)"/>
     <use xlink:href="#DejaVuSans-6c" transform="translate(68.408203 0.015625)"/>
     <use xlink:href="#DejaVuSans-34" transform="translate(97.148438 -16.390625) scale(0.7)"/>
     <use xlink:href="#DejaVuSans-54" transform="translate(144.418945 0.015625)"/>
     <use xlink:href="#DejaVuSans-63" transform="translate(205.50293 0.015625)"/>
    </g>
   </g>
   <g id="text_2">
    <!-- $\mathrm{Al_{12}Tc}$ -->
    <g transform="translate(29.891425 200.182263) scale(0.1 -0.1)">
     <defs>
      <path id="DejaVuSans-31" d="M 794 531 
L 1825 531 
L 1825 4091 
L 703 3866 
L 703 4441 
L 1819 4666 
L 2450 4666 
L 2450 531 
L 3481 531 
L 3481 0 
L 794 0 
L 794 531 
z
" transform="scale(0.015625)"/>
      <path id="DejaVuSans-32" d="M 1228 531 
L 3431 531 
L 3431 0 
L 469 0 
L 469 531 
Q 828 903 1448 1529 
Q 2069 2156 2228 2338 
Q 2531 2678 2651 2914 
Q 2772 3150 2772 3378 
Q 2772 3750 2511 3984 
Q 2250 4219 1831 4219 
Q 1534 4219 1204 4116 
Q 875 4013 500 3803 
L 500 4441 
Q 881 4594 1212 4672 
Q 1544 4750 1819 4750 
Q 2544 4750 2975 4387 
Q 3406 4025 3406 3419 
Q 3406 3131 3298 2873 
Q 3191 2616 2906 2266 
Q 2828 2175 2409 1742 
Q 1991 1309 1228 531 
z
" transform="scale(0.015625)"/>
     </defs>
     <use xlink:href="#DejaVuSans-41" transform="translate(0 0.015625)"/>
     <use xlink:href="#DejaVuSans-6c" transform="translate(68.408203 0.015625)"/>
     <use xlink:href="#DejaVuSans-31" transform="translate(97.148438 -16.390625) scale(0.7)"/>
     <use xlink:href="#DejaVuSans-32" transform="translate(141.68457 -16.390625) scale(0.7)"/>
     <use xlink:href="#DejaVuSans-54" transform="translate(188.955078 0.015625)"/>
     <use xlink:href="#DejaVuSans-63" transform="translate(250.039062 0.015625)"/>
    </g>
   </g>
   <g id="text_3">
    <!-- $\mathrm{Al_{2}Cu}$ -->
    <g transform="translate(91.406492 210.544971) scale(0.1 -0.1)">
     <defs>
      <path id="DejaVuSans-43" d="M 4122 4306 
L 4122 3641 
Q 3803 3938 3442 4084 
Q 3081 4231 2675 4231 
Q 1875 4231 1450 3742 
Q 1025 3253 1025 2328 
Q 1025 1406 1450 917 
Q 1875 428 2675 428 
Q 3081 428 3442 575 
Q 3803 722 4122 1019 
L 4122 359 
Q 3791 134 3420 21 
Q 3050 -91 2638 -91 
Q 1578 -91 968 557 
Q 359 1206 359 2328 
Q 359 3453 968 4101 
Q 1578 4750 2638 4750 
Q 3056 4750 3426 4639 
Q 3797 4528 4122 4306 
z
" transform="scale(0.015625)"/>
      <path id="DejaVuSans-75" d="M 544 1381 
L 544 3500 
L 1119 3500 
L 1119 1403 
Q 1119 906 1312 657 
Q 1506 409 1894 409 
Q 2359 409 2629 706 
Q 2900 1003 2900 1516 
L 2900 3500 
L 3475 3500 
L 3475 0 
L 2900 0 
L 2900 538 
Q 2691 219 2414 64 
Q 2138 -91 1772 -91 
Q 1169 -91 856 284 
Q 544 659 544 1381 
z
M 1991 3584 
L 1991 3584 
z
" transform="scale(0.015625)"/>
     </defs>
     <use xlink:href="#DejaVuSans-41" transform="translate(0 0.015625)"/>
     <use xlink:href="#DejaVuSans-6c" transform="translate(68.408203 0.015625)"/>
     <use xlink:href="#DejaVuSans-32" transform="translate(97.148438 -16.390625) scale(0.7)"/>
     <use xlink:href="#DejaVuSans-43" transform="translate(144.418945 0.015625)"/>
     <use xlink:href="#DejaVuSans-75" transform="translate(214.243164 0.015625)"/>
    </g>
   </g>
   <g id="text_4">
    <!-- $\mathrm{Al_{4}Cu_{9}}$ -->
    <g transform="translate(164.871521 210.594971) scale(0.1 -0.1)">
     <defs>
      <path id="DejaVuSans-39" d="M 703 97 
L 703 672 
Q 941 559 1184 500 
Q 1428 441 1663 441 
Q 2288 441 2617 861 
Q 2947 1281 2994 2138 
Q 2813 1869 2534 1725 
Q 2256 1581 1919 1581 
Q 1219 1581 811 2004 
Q 403 2428 403 3163 
Q 403 3881 828 4315 
Q 1253 4750 1959 4750 
Q 2769 4750 3195 4129 
Q 3622 3509 3622 2328 
Q 3622 1225 3098 567 
Q 2575 -91 1691 -91 
Q 1453 -91 1209 -44 
Q 966 3 703 97 
z
M 1959 2075 
Q 2384 2075 2632 2365 
Q 2881 2656 2881 3163 
Q 2881 3666 2632 3958 
Q 2384 4250 1959 4250 
Q 1534 4250 1286 3958 
Q 1038 3666 1038 3163 
Q 1038 2656 1286 2365 
Q 1534 2075 1959 2075 
z
" transform="scale(0.015625)"/>
     </defs>
     <use xlink:href="#DejaVuSans-41" transform="translate(0 0.015625)"/>
     <use xlink:href="#DejaVuSans-6c" transform="translate(68.408203 0.015625)"/>
     <use xlink:href="#DejaVuSans-34" transform="translate(97.148438 -16.390625) scale(0.7)"/>
     <use xlink:href="#DejaVuSans-43" transform="translate(144.418945 0.015625)"/>
     <use xlink:href="#DejaVuSans-75" transform="translate(214.243164 0.015625)"/>
     <use xlink:href="#DejaVuSans-39" transform="translate(278.579102 -16.390625) scale(0.7)"/>
    </g>
   </g>
   <g id="text_5">
    <!-- $\mathrm{AlTc_{2}}$ -->
    <g transform="translate(78.818289 97.435289) scale(0.1 -0.1)">
     <use xlink:href="#DejaVuSans-41" transform="translate(0 0.015625)"/>
     <use xlink:href="#DejaVuSans-6c" transform="translate(68.408203 0.015625)"/>
     <use xlink:href="#DejaVuSans-54" transform="translate(96.191406 0.015625)"/>
     <use xlink:href="#DejaVuSans-63" transform="translate(157.275391 0.015625)"/>
     <use xlink:href="#DejaVuSans-32" transform="translate(213.212891 -16.390625) scale(0.7)"/>
    </g>
   </g>
   <g id="text_6">
    <!-- $\mathrm{Tc}$ -->
    <g transform="translate(139.706478 32.478868) scale(0.1 -0.1)">
     <use xlink:href="#DejaVuSans-54" transform="translate(0 0.09375)"/>
     <use xlink:href="#DejaVuSans-63" transform="translate(61.083984 0.09375)"/>
    </g>
   </g>
   <g id="text_7">
    <!-- $\mathrm{AlCu_{3}}$ -->
    <g transform="translate(198.116034 210.594971) scale(0.1 -0.1)">
     <defs>
      <path id="DejaVuSans-33" d="M 2597 2516 
Q 3050 2419 3304 2112 
Q 3559 1806 3559 1356 
Q 3559 666 3084 287 
Q 2609 -91 1734 -91 
Q 1441 -91 1130 -33 
Q 819 25 488 141 
L 488 750 
Q 750 597 1062 519 
Q 1375 441 1716 441 
Q 2309 441 2620 675 
Q 2931 909 2931 1356 
Q 2931 1769 2642 2001 
Q 2353 2234 1838 2234 
L 1294 2234 
L 1294 2753 
L 1863 2753 
Q 2328 2753 2575 2939 
Q 2822 3125 2822 3475 
Q 2822 3834 2567 4026 
Q 2313 4219 1838 4219 
Q 1578 4219 1281 4162 
Q 984 4106 628 3988 
L 628 4550 
Q 988 4650 1302 4700 
Q 1616 4750 1894 4750 
Q 2613 4750 3031 4423 
Q 3450 4097 3450 3541 
Q 3450 3153 3228 2886 
Q 3006 2619 2597 2516 
z
" transform="scale(0.015625)"/>
     </defs>
     <use xlink:href="#DejaVuSans-41" transform="translate(0 0.015625)"/>
     <use xlink:href="#DejaVuSans-6c" transform="translate(68.408203 0.015625)"/>
     <use xlink:href="#DejaVuSans-43" transform="translate(96.191406 0.015625)"/>
     <use xlink:href="#DejaVuSans-75" transform="translate(166.015625 0.015625)"/>
     <use xlink:href="#DejaVuSans-33" transform="translate(230.351562 -16.390625) scale(0.7)"/>
    </g>
   </g>
   <g id="text_8">
    <!-- $\mathrm{Cu}$ -->
    <g transform="translate(245.859482 211.527642) scale(0.1 -0.1)">
     <use xlink:href="#DejaVuSans-43" transform="translate(0 0.78125)"/>
     <use xlink:href="#DejaVuSans-75" transform="translate(69.824219 0.78125)"/>
    </g>
   </g>
   <g id="text_9">
    <!-- $\mathrm{AlCu}$ -->
    <g transform="translate(132.092842 211.215873) scale(0.1 -0.1)">
     <use xlink:href="#DejaVuSans-41" transform="translate(0 0.015625)"/>
     <use xlink:href="#DejaVuSans-6c" transform="translate(68.408203 0.015625)"/>
     <use xlink:href="#DejaVuSans-43" transform="translate(96.191406 0.015625)"/>
     <use xlink:href="#DejaVuSans-75" transform="translate(166.015625 0.015625)"/>
    </g>
   </g>
   <g id="text_10">
    <!-- $\mathrm{Al}$ -->
    <g transform="translate(19.586902 211.839411) scale(0.1 -0.1)">
     <use xlink:href="#DejaVuSans-41" transform="translate(0 0.015625)"/>
     <use xlink:href="#DejaVuSans-6c" transform="translate(68.408203 0.015625)"/>
    </g>
   </g>
   <g id="text_11">
    <!-- $\mathrm{Al_{8}Cu_{4}Tc}$ -->
    <g style="fill: #0000ff" transform="translate(94.400765 195.867495) scale(0.1 -0.1)">
     <defs>
      <path id="DejaVuSans-38" d="M 2034 2216 
Q 1584 2216 1326 1975 
Q 1069 1734 1069 1313 
Q 1069 891 1326 650 
Q 1584 409 2034 409 
Q 2484 409 2743 651 
Q 3003 894 3003 1313 
Q 3003 1734 2745 1975 
Q 2488 2216 2034 2216 
z
M 1403 2484 
Q 997 2584 770 2862 
Q 544 3141 544 3541 
Q 544 4100 942 4425 
Q 1341 4750 2034 4750 
Q 2731 4750 3128 4425 
Q 3525 4100 3525 3541 
Q 3525 3141 3298 2862 
Q 3072 2584 2669 2484 
Q 3125 2378 3379 2068 
Q 3634 1759 3634 1313 
Q 3634 634 3220 271 
Q 2806 -91 2034 -91 
Q 1263 -91 848 271 
Q 434 634 434 1313 
Q 434 1759 690 2068 
Q 947 2378 1403 2484 
z
M 1172 3481 
Q 1172 3119 1398 2916 
Q 1625 2713 2034 2713 
Q 2441 2713 2670 2916 
Q 2900 3119 2900 3481 
Q 2900 3844 2670 4047 
Q 2441 4250 2034 4250 
Q 1625 4250 1398 4047 
Q 1172 3844 1172 3481 
z
" transform="scale(0.015625)"/>
     </defs>
     <use xlink:href="#DejaVuSans-41" transform="translate(0 0.015625)"/>
     <use xlink:href="#DejaVuSans-6c" transform="translate(68.408203 0.015625)"/>
     <use xlink:href="#DejaVuSans-38" transform="translate(97.148438 -16.390625) scale(0.7)"/>
     <use xlink:href="#DejaVuSans-43" transform="translate(144.418945 0.015625)"/>
     <use xlink:href="#DejaVuSans-75" transform="translate(214.243164 0.015625)"/>
     <use xlink:href="#DejaVuSans-34" transform="translate(278.579102 -16.390625) scale(0.7)"/>
     <use xlink:href="#DejaVuSans-54" transform="translate(325.849609 0.015625)"/>
     <use xlink:href="#DejaVuSans-63" transform="translate(386.933594 0.015625)"/>
    </g>
   </g>
  </g>
  <g id="axes_2">
   <g id="patch_3">
    <path d="M 287.298425 195.703937 
L 296.029134 195.703937 
L 296.029134 36.96378 
L 287.298425 36.96378 
L 287.298425 195.703937 
z
" style="fill: none"/>
   </g>
   <g id="patch_4">
    <path d="M 287.298425 195.703937 
L 291.66378 203.640945 
L 296.029134 195.703937 
" style="fill: #440154; opacity: 0.7"/>
   </g>
   <g id="patch_5">
    <path d="M 287.298425 36.96378 
L 291.66378 29.026772 
L 296.029134 36.96378 
" style="fill: #fde725; opacity: 0.7"/>
   </g>
   <g id="QuadMesh_1">
    <path d="M 287.298425 195.703937 
L 296.029134 195.703937 
L 296.029134 191.735433 
L 287.298425 191.735433 
L 287.298425 195.703937 
" clip-path="url(#p2d71208a41)" style="fill: #450559; fill-opacity: 0.7"/>
    <path d="M 287.298425 191.735433 
L 296.029134 191.735433 
L 296.029134 187.766929 
L 287.298425 187.766929 
L 287.298425 191.735433 
" clip-path="url(#p2d71208a41)" style="fill: #470e61; fill-opacity: 0.7"/>
    <path d="M 287.298425 187.766929 
L 296.029134 187.766929 
L 296.029134 183.798425 
L 287.298425 183.798425 
L 287.298425 187.766929 
" clip-path="url(#p2d71208a41)" style="fill: #481769; fill-opacity: 0.7"/>
    <path d="M 287.298425 183.798425 
L 296.029134 183.798425 
L 296.029134 179.829921 
L 287.298425 179.829921 
L 287.298425 183.798425 
" clip-path="url(#p2d71208a41)" style="fill: #482071; fill-opacity: 0.7"/>
    <path d="M 287.298425 179.829921 
L 296.029134 179.829921 
L 296.029134 175.861417 
L 287.298425 175.861417 
L 287.298425 179.829921 
" clip-path="url(#p2d71208a41)" style="fill: #482878; fill-opacity: 0.7"/>
    <path d="M 287.298425 175.861417 
L 296.029134 175.861417 
L 296.029134 171.892913 
L 287.298425 171.892913 
L 287.298425 175.861417 
" clip-path="url(#p2d71208a41)" style="fill: #46307e; fill-opacity: 0.7"/>
    <path d="M 287.298425 171.892913 
L 296.029134 171.892913 
L 296.029134 167.924409 
L 287.298425 167.924409 
L 287.298425 171.892913 
" clip-path="url(#p2d71208a41)" style="fill: #453882; fill-opacity: 0.7"/>
    <path d="M 287.298425 167.924409 
L 296.029134 167.924409 
L 296.029134 163.955906 
L 287.298425 163.955906 
L 287.298425 167.924409 
" clip-path="url(#p2d71208a41)" style="fill: #424086; fill-opacity: 0.7"/>
    <path d="M 287.298425 163.955906 
L 296.029134 163.955906 
L 296.029134 159.987402 
L 287.298425 159.987402 
L 287.298425 163.955906 
" clip-path="url(#p2d71208a41)" style="fill: #3f4788; fill-opacity: 0.7"/>
    <path d="M 287.298425 159.987402 
L 296.029134 159.987402 
L 296.029134 156.018898 
L 287.298425 156.018898 
L 287.298425 159.987402 
" clip-path="url(#p2d71208a41)" style="fill: #3d4e8a; fill-opacity: 0.7"/>
    <path d="M 287.298425 156.018898 
L 296.029134 156.018898 
L 296.029134 152.050394 
L 287.298425 152.050394 
L 287.298425 156.018898 
" clip-path="url(#p2d71208a41)" style="fill: #39558c; fill-opacity: 0.7"/>
    <path d="M 287.298425 152.050394 
L 296.029134 152.050394 
L 296.029134 148.08189 
L 287.298425 148.08189 
L 287.298425 152.050394 
" clip-path="url(#p2d71208a41)" style="fill: #365c8d; fill-opacity: 0.7"/>
    <path d="M 287.298425 148.08189 
L 296.029134 148.08189 
L 296.029134 144.113386 
L 287.298425 144.113386 
L 287.298425 148.08189 
" clip-path="url(#p2d71208a41)" style="fill: #33638d; fill-opacity: 0.7"/>
    <path d="M 287.298425 144.113386 
L 296.029134 144.113386 
L 296.029134 140.144882 
L 287.298425 140.144882 
L 287.298425 144.113386 
" clip-path="url(#p2d71208a41)" style="fill: #30698e; fill-opacity: 0.7"/>
    <path d="M 287.298425 140.144882 
L 296.029134 140.144882 
L 296.029134 136.176378 
L 287.298425 136.176378 
L 287.298425 140.144882 
" clip-path="url(#p2d71208a41)" style="fill: #2e6f8e; fill-opacity: 0.7"/>
    <path d="M 287.298425 136.176378 
L 296.029134 136.176378 
L 296.029134 132.207874 
L 287.298425 132.207874 
L 287.298425 136.176378 
" clip-path="url(#p2d71208a41)" style="fill: #2b758e; fill-opacity: 0.7"/>
    <path d="M 287.298425 132.207874 
L 296.029134 132.207874 
L 296.029134 128.23937 
L 287.298425 128.23937 
L 287.298425 132.207874 
" clip-path="url(#p2d71208a41)" style="fill: #297b8e; fill-opacity: 0.7"/>
    <path d="M 287.298425 128.23937 
L 296.029134 128.23937 
L 296.029134 124.270866 
L 287.298425 124.270866 
L 287.298425 128.23937 
" clip-path="url(#p2d71208a41)" style="fill: #26818e; fill-opacity: 0.7"/>
    <path d="M 287.298425 124.270866 
L 296.029134 124.270866 
L 296.029134 120.302362 
L 287.298425 120.302362 
L 287.298425 124.270866 
" clip-path="url(#p2d71208a41)" style="fill: #24878e; fill-opacity: 0.7"/>
    <path d="M 287.298425 120.302362 
L 296.029134 120.302362 
L 296.029134 116.333858 
L 287.298425 116.333858 
L 287.298425 120.302362 
" clip-path="url(#p2d71208a41)" style="fill: #228d8d; fill-opacity: 0.7"/>
    <path d="M 287.298425 116.333858 
L 296.029134 116.333858 
L 296.029134 112.365354 
L 287.298425 112.365354 
L 287.298425 116.333858 
" clip-path="url(#p2d71208a41)" style="fill: #20938c; fill-opacity: 0.7"/>
    <path d="M 287.298425 112.365354 
L 296.029134 112.365354 
L 296.029134 108.39685 
L 287.298425 108.39685 
L 287.298425 112.365354 
" clip-path="url(#p2d71208a41)" style="fill: #1f998a; fill-opacity: 0.7"/>
    <path d="M 287.298425 108.39685 
L 296.029134 108.39685 
L 296.029134 104.428346 
L 287.298425 104.428346 
L 287.298425 108.39685 
" clip-path="url(#p2d71208a41)" style="fill: #1f9f88; fill-opacity: 0.7"/>
    <path d="M 287.298425 104.428346 
L 296.029134 104.428346 
L 296.029134 100.459843 
L 287.298425 100.459843 
L 287.298425 104.428346 
" clip-path="url(#p2d71208a41)" style="fill: #21a585; fill-opacity: 0.7"/>
    <path d="M 287.298425 100.459843 
L 296.029134 100.459843 
L 296.029134 96.491339 
L 287.298425 96.491339 
L 287.298425 100.459843 
" clip-path="url(#p2d71208a41)" style="fill: #25ab82; fill-opacity: 0.7"/>
    <path d="M 287.298425 96.491339 
L 296.029134 96.491339 
L 296.029134 92.522835 
L 287.298425 92.522835 
L 287.298425 96.491339 
" clip-path="url(#p2d71208a41)" style="fill: #2cb17e; fill-opacity: 0.7"/>
    <path d="M 287.298425 92.522835 
L 296.029134 92.522835 
L 296.029134 88.554331 
L 287.298425 88.554331 
L 287.298425 92.522835 
" clip-path="url(#p2d71208a41)" style="fill: #34b679; fill-opacity: 0.7"/>
    <path d="M 287.298425 88.554331 
L 296.029134 88.554331 
L 296.029134 84.585827 
L 287.298425 84.585827 
L 287.298425 88.554331 
" clip-path="url(#p2d71208a41)" style="fill: #3fbc73; fill-opacity: 0.7"/>
    <path d="M 287.298425 84.585827 
L 296.029134 84.585827 
L 296.029134 80.617323 
L 287.298425 80.617323 
L 287.298425 84.585827 
" clip-path="url(#p2d71208a41)" style="fill: #4ac16d; fill-opacity: 0.7"/>
    <path d="M 287.298425 80.617323 
L 296.029134 80.617323 
L 296.029134 76.648819 
L 287.298425 76.648819 
L 287.298425 80.617323 
" clip-path="url(#p2d71208a41)" style="fill: #56c667; fill-opacity: 0.7"/>
    <path d="M 287.298425 76.648819 
L 296.029134 76.648819 
L 296.029134 72.680315 
L 287.298425 72.680315 
L 287.298425 76.648819 
" clip-path="url(#p2d71208a41)" style="fill: #65cb5e; fill-opacity: 0.7"/>
    <path d="M 287.298425 72.680315 
L 296.029134 72.680315 
L 296.029134 68.711811 
L 287.298425 68.711811 
L 287.298425 72.680315 
" clip-path="url(#p2d71208a41)" style="fill: #73d056; fill-opacity: 0.7"/>
    <path d="M 287.298425 68.711811 
L 296.029134 68.711811 
L 296.029134 64.743307 
L 287.298425 64.743307 
L 287.298425 68.711811 
" clip-path="url(#p2d71208a41)" style="fill: #84d44b; fill-opacity: 0.7"/>
    <path d="M 287.298425 64.743307 
L 296.029134 64.743307 
L 296.029134 60.774803 
L 287.298425 60.774803 
L 287.298425 64.743307 
" clip-path="url(#p2d71208a41)" style="fill: #93d741; fill-opacity: 0.7"/>
    <path d="M 287.298425 60.774803 
L 296.029134 60.774803 
L 296.029134 56.806299 
L 287.298425 56.806299 
L 287.298425 60.774803 
" clip-path="url(#p2d71208a41)" style="fill: #a2da37; fill-opacity: 0.7"/>
    <path d="M 287.298425 56.806299 
L 296.029134 56.806299 
L 296.029134 52.837795 
L 287.298425 52.837795 
L 287.298425 56.806299 
" clip-path="url(#p2d71208a41)" style="fill: #b5de2b; fill-opacity: 0.7"/>
    <path d="M 287.298425 52.837795 
L 296.029134 52.837795 
L 296.029134 48.869291 
L 287.298425 48.869291 
L 287.298425 52.837795 
" clip-path="url(#p2d71208a41)" style="fill: #c5e021; fill-opacity: 0.7"/>
    <path d="M 287.298425 48.869291 
L 296.029134 48.869291 
L 296.029134 44.900787 
L 287.298425 44.900787 
L 287.298425 48.869291 
" clip-path="url(#p2d71208a41)" style="fill: #d8e219; fill-opacity: 0.7"/>
    <path d="M 287.298425 44.900787 
L 296.029134 44.900787 
L 296.029134 40.932283 
L 287.298425 40.932283 
L 287.298425 44.900787 
" clip-path="url(#p2d71208a41)" style="fill: #e7e419; fill-opacity: 0.7"/>
    <path d="M 287.298425 40.932283 
L 296.029134 40.932283 
L 296.029134 36.96378 
L 287.298425 36.96378 
L 287.298425 40.932283 
" clip-path="url(#p2d71208a41)" style="fill: #f6e620; fill-opacity: 0.7"/>
   </g>
   <g id="matplotlib.axis_3"/>
   <g id="matplotlib.axis_4">
    <g id="ytick_1">
     <g id="line2d_18">
      <defs>
       <path id="m6a79dc48f1" d="M 0 0 
L -2 0 
" style="stroke: #000000; stroke-width: 0.3"/>
      </defs>
      <g>
       <use xlink:href="#m6a79dc48f1" x="296.029134" y="195.703937" style="stroke: #000000; stroke-width: 0.3"/>
      </g>
     </g>
     <g id="text_12">
      <!-- −0.41 -->
      <g transform="translate(299.529134 198.567062) scale(0.08 -0.08)">
       <defs>
        <path id="ArialMT-2212" d="M 3381 1997 
L 356 1997 
L 356 2522 
L 3381 2522 
L 3381 1997 
z
" transform="scale(0.015625)"/>
        <path id="ArialMT-30" d="M 266 2259 
Q 266 3072 433 3567 
Q 600 4063 929 4331 
Q 1259 4600 1759 4600 
Q 2128 4600 2406 4451 
Q 2684 4303 2865 4023 
Q 3047 3744 3150 3342 
Q 3253 2941 3253 2259 
Q 3253 1453 3087 958 
Q 2922 463 2592 192 
Q 2263 -78 1759 -78 
Q 1097 -78 719 397 
Q 266 969 266 2259 
z
M 844 2259 
Q 844 1131 1108 757 
Q 1372 384 1759 384 
Q 2147 384 2411 759 
Q 2675 1134 2675 2259 
Q 2675 3391 2411 3762 
Q 2147 4134 1753 4134 
Q 1366 4134 1134 3806 
Q 844 3388 844 2259 
z
" transform="scale(0.015625)"/>
        <path id="ArialMT-2e" d="M 581 0 
L 581 641 
L 1222 641 
L 1222 0 
L 581 0 
z
" transform="scale(0.015625)"/>
        <path id="ArialMT-34" d="M 2069 0 
L 2069 1097 
L 81 1097 
L 81 1613 
L 2172 4581 
L 2631 4581 
L 2631 1613 
L 3250 1613 
L 3250 1097 
L 2631 1097 
L 2631 0 
L 2069 0 
z
M 2069 1613 
L 2069 3678 
L 634 1613 
L 2069 1613 
z
" transform="scale(0.015625)"/>
        <path id="ArialMT-31" d="M 2384 0 
L 1822 0 
L 1822 3584 
Q 1619 3391 1289 3197 
Q 959 3003 697 2906 
L 697 3450 
Q 1169 3672 1522 3987 
Q 1875 4303 2022 4600 
L 2384 4600 
L 2384 0 
z
" transform="scale(0.015625)"/>
       </defs>
       <use xlink:href="#ArialMT-2212"/>
       <use xlink:href="#ArialMT-30" transform="translate(58.398438 0)"/>
       <use xlink:href="#ArialMT-2e" transform="translate(114.013672 0)"/>
       <use xlink:href="#ArialMT-34" transform="translate(141.796875 0)"/>
       <use xlink:href="#ArialMT-31" transform="translate(197.412109 0)"/>
      </g>
     </g>
    </g>
    <g id="ytick_2">
     <g id="line2d_19">
      <g>
       <use xlink:href="#m6a79dc48f1" x="296.029134" y="175.861417" style="stroke: #000000; stroke-width: 0.3"/>
      </g>
     </g>
     <g id="text_13">
      <!-- −0.36 -->
      <g transform="translate(299.529134 178.724542) scale(0.08 -0.08)">
       <defs>
        <path id="ArialMT-33" d="M 269 1209 
L 831 1284 
Q 928 806 1161 595 
Q 1394 384 1728 384 
Q 2125 384 2398 659 
Q 2672 934 2672 1341 
Q 2672 1728 2419 1979 
Q 2166 2231 1775 2231 
Q 1616 2231 1378 2169 
L 1441 2663 
Q 1497 2656 1531 2656 
Q 1891 2656 2178 2843 
Q 2466 3031 2466 3422 
Q 2466 3731 2256 3934 
Q 2047 4138 1716 4138 
Q 1388 4138 1169 3931 
Q 950 3725 888 3313 
L 325 3413 
Q 428 3978 793 4289 
Q 1159 4600 1703 4600 
Q 2078 4600 2393 4439 
Q 2709 4278 2876 4000 
Q 3044 3722 3044 3409 
Q 3044 3113 2884 2869 
Q 2725 2625 2413 2481 
Q 2819 2388 3044 2092 
Q 3269 1797 3269 1353 
Q 3269 753 2831 336 
Q 2394 -81 1725 -81 
Q 1122 -81 723 278 
Q 325 638 269 1209 
z
" transform="scale(0.015625)"/>
        <path id="ArialMT-36" d="M 3184 3459 
L 2625 3416 
Q 2550 3747 2413 3897 
Q 2184 4138 1850 4138 
Q 1581 4138 1378 3988 
Q 1113 3794 959 3422 
Q 806 3050 800 2363 
Q 1003 2672 1297 2822 
Q 1591 2972 1913 2972 
Q 2475 2972 2870 2558 
Q 3266 2144 3266 1488 
Q 3266 1056 3080 686 
Q 2894 316 2569 119 
Q 2244 -78 1831 -78 
Q 1128 -78 684 439 
Q 241 956 241 2144 
Q 241 3472 731 4075 
Q 1159 4600 1884 4600 
Q 2425 4600 2770 4297 
Q 3116 3994 3184 3459 
z
M 888 1484 
Q 888 1194 1011 928 
Q 1134 663 1356 523 
Q 1578 384 1822 384 
Q 2178 384 2434 671 
Q 2691 959 2691 1453 
Q 2691 1928 2437 2201 
Q 2184 2475 1800 2475 
Q 1419 2475 1153 2201 
Q 888 1928 888 1484 
z
" transform="scale(0.015625)"/>
       </defs>
       <use xlink:href="#ArialMT-2212"/>
       <use xlink:href="#ArialMT-30" transform="translate(58.398438 0)"/>
       <use xlink:href="#ArialMT-2e" transform="translate(114.013672 0)"/>
       <use xlink:href="#ArialMT-33" transform="translate(141.796875 0)"/>
       <use xlink:href="#ArialMT-36" transform="translate(197.412109 0)"/>
      </g>
     </g>
    </g>
    <g id="ytick_3">
     <g id="line2d_20">
      <g>
       <use xlink:href="#m6a79dc48f1" x="296.029134" y="156.018898" style="stroke: #000000; stroke-width: 0.3"/>
      </g>
     </g>
     <g id="text_14">
      <!-- −0.31 -->
      <g transform="translate(299.529134 158.882023) scale(0.08 -0.08)">
       <use xlink:href="#ArialMT-2212"/>
       <use xlink:href="#ArialMT-30" transform="translate(58.398438 0)"/>
       <use xlink:href="#ArialMT-2e" transform="translate(114.013672 0)"/>
       <use xlink:href="#ArialMT-33" transform="translate(141.796875 0)"/>
       <use xlink:href="#ArialMT-31" transform="translate(197.412109 0)"/>
      </g>
     </g>
    </g>
    <g id="ytick_4">
     <g id="line2d_21">
      <g>
       <use xlink:href="#m6a79dc48f1" x="296.029134" y="136.176378" style="stroke: #000000; stroke-width: 0.3"/>
      </g>
     </g>
     <g id="text_15">
      <!-- −0.26 -->
      <g transform="translate(299.529134 139.039503) scale(0.08 -0.08)">
       <defs>
        <path id="ArialMT-32" d="M 3222 541 
L 3222 0 
L 194 0 
Q 188 203 259 391 
Q 375 700 629 1000 
Q 884 1300 1366 1694 
Q 2113 2306 2375 2664 
Q 2638 3022 2638 3341 
Q 2638 3675 2398 3904 
Q 2159 4134 1775 4134 
Q 1369 4134 1125 3890 
Q 881 3647 878 3216 
L 300 3275 
Q 359 3922 746 4261 
Q 1134 4600 1788 4600 
Q 2447 4600 2831 4234 
Q 3216 3869 3216 3328 
Q 3216 3053 3103 2787 
Q 2991 2522 2730 2228 
Q 2469 1934 1863 1422 
Q 1356 997 1212 845 
Q 1069 694 975 541 
L 3222 541 
z
" transform="scale(0.015625)"/>
       </defs>
       <use xlink:href="#ArialMT-2212"/>
       <use xlink:href="#ArialMT-30" transform="translate(58.398438 0)"/>
       <use xlink:href="#ArialMT-2e" transform="translate(114.013672 0)"/>
       <use xlink:href="#ArialMT-32" transform="translate(141.796875 0)"/>
       <use xlink:href="#ArialMT-36" transform="translate(197.412109 0)"/>
      </g>
     </g>
    </g>
    <g id="ytick_5">
     <g id="line2d_22">
      <g>
       <use xlink:href="#m6a79dc48f1" x="296.029134" y="116.333858" style="stroke: #000000; stroke-width: 0.3"/>
      </g>
     </g>
     <g id="text_16">
      <!-- −0.21 -->
      <g transform="translate(299.529134 119.196983) scale(0.08 -0.08)">
       <use xlink:href="#ArialMT-2212"/>
       <use xlink:href="#ArialMT-30" transform="translate(58.398438 0)"/>
       <use xlink:href="#ArialMT-2e" transform="translate(114.013672 0)"/>
       <use xlink:href="#ArialMT-32" transform="translate(141.796875 0)"/>
       <use xlink:href="#ArialMT-31" transform="translate(197.412109 0)"/>
      </g>
     </g>
    </g>
    <g id="ytick_6">
     <g id="line2d_23">
      <g>
       <use xlink:href="#m6a79dc48f1" x="296.029134" y="96.491339" style="stroke: #000000; stroke-width: 0.3"/>
      </g>
     </g>
     <g id="text_17">
      <!-- −0.16 -->
      <g transform="translate(299.529134 99.354464) scale(0.08 -0.08)">
       <use xlink:href="#ArialMT-2212"/>
       <use xlink:href="#ArialMT-30" transform="translate(58.398438 0)"/>
       <use xlink:href="#ArialMT-2e" transform="translate(114.013672 0)"/>
       <use xlink:href="#ArialMT-31" transform="translate(141.796875 0)"/>
       <use xlink:href="#ArialMT-36" transform="translate(197.412109 0)"/>
      </g>
     </g>
    </g>
    <g id="ytick_7">
     <g id="line2d_24">
      <g>
       <use xlink:href="#m6a79dc48f1" x="296.029134" y="76.648819" style="stroke: #000000; stroke-width: 0.3"/>
      </g>
     </g>
     <g id="text_18">
      <!-- −0.11 -->
      <g transform="translate(299.529134 79.511944) scale(0.08 -0.08)">
       <use xlink:href="#ArialMT-2212"/>
       <use xlink:href="#ArialMT-30" transform="translate(58.398438 0)"/>
       <use xlink:href="#ArialMT-2e" transform="translate(114.013672 0)"/>
       <use xlink:href="#ArialMT-31" transform="translate(141.796875 0)"/>
       <use xlink:href="#ArialMT-31" transform="translate(190.037109 0)"/>
      </g>
     </g>
    </g>
    <g id="ytick_8">
     <g id="line2d_25">
      <g>
       <use xlink:href="#m6a79dc48f1" x="296.029134" y="56.806299" style="stroke: #000000; stroke-width: 0.3"/>
      </g>
     </g>
     <g id="text_19">
      <!-- −0.06 -->
      <g transform="translate(299.529134 59.669424) scale(0.08 -0.08)">
       <use xlink:href="#ArialMT-2212"/>
       <use xlink:href="#ArialMT-30" transform="translate(58.398438 0)"/>
       <use xlink:href="#ArialMT-2e" transform="translate(114.013672 0)"/>
       <use xlink:href="#ArialMT-30" transform="translate(141.796875 0)"/>
       <use xlink:href="#ArialMT-36" transform="translate(197.412109 0)"/>
      </g>
     </g>
    </g>
    <g id="ytick_9">
     <g id="line2d_26">
      <g>
       <use xlink:href="#m6a79dc48f1" x="296.029134" y="36.96378" style="stroke: #000000; stroke-width: 0.3"/>
      </g>
     </g>
     <g id="text_20">
      <!-- −0.01 -->
      <g transform="translate(299.529134 39.826905) scale(0.08 -0.08)">
       <use xlink:href="#ArialMT-2212"/>
       <use xlink:href="#ArialMT-30" transform="translate(58.398438 0)"/>
       <use xlink:href="#ArialMT-2e" transform="translate(114.013672 0)"/>
       <use xlink:href="#ArialMT-30" transform="translate(141.796875 0)"/>
       <use xlink:href="#ArialMT-31" transform="translate(197.412109 0)"/>
      </g>
     </g>
    </g>
    <g id="text_21">
     <!-- Formation Energy (eV/atom) -->
     <g transform="translate(331.050071 179.408077) rotate(-90) scale(0.1 -0.1)">
      <defs>
       <path id="ArialMT-46" d="M 525 0 
L 525 4581 
L 3616 4581 
L 3616 4041 
L 1131 4041 
L 1131 2622 
L 3281 2622 
L 3281 2081 
L 1131 2081 
L 1131 0 
L 525 0 
z
" transform="scale(0.015625)"/>
       <path id="ArialMT-6f" d="M 213 1659 
Q 213 2581 725 3025 
Q 1153 3394 1769 3394 
Q 2453 3394 2887 2945 
Q 3322 2497 3322 1706 
Q 3322 1066 3130 698 
Q 2938 331 2570 128 
Q 2203 -75 1769 -75 
Q 1072 -75 642 372 
Q 213 819 213 1659 
z
M 791 1659 
Q 791 1022 1069 705 
Q 1347 388 1769 388 
Q 2188 388 2466 706 
Q 2744 1025 2744 1678 
Q 2744 2294 2464 2611 
Q 2184 2928 1769 2928 
Q 1347 2928 1069 2612 
Q 791 2297 791 1659 
z
" transform="scale(0.015625)"/>
       <path id="ArialMT-72" d="M 416 0 
L 416 3319 
L 922 3319 
L 922 2816 
Q 1116 3169 1280 3281 
Q 1444 3394 1641 3394 
Q 1925 3394 2219 3213 
L 2025 2691 
Q 1819 2813 1613 2813 
Q 1428 2813 1281 2702 
Q 1134 2591 1072 2394 
Q 978 2094 978 1738 
L 978 0 
L 416 0 
z
" transform="scale(0.015625)"/>
       <path id="ArialMT-6d" d="M 422 0 
L 422 3319 
L 925 3319 
L 925 2853 
Q 1081 3097 1340 3245 
Q 1600 3394 1931 3394 
Q 2300 3394 2536 3241 
Q 2772 3088 2869 2813 
Q 3263 3394 3894 3394 
Q 4388 3394 4653 3120 
Q 4919 2847 4919 2278 
L 4919 0 
L 4359 0 
L 4359 2091 
Q 4359 2428 4304 2576 
Q 4250 2725 4106 2815 
Q 3963 2906 3769 2906 
Q 3419 2906 3187 2673 
Q 2956 2441 2956 1928 
L 2956 0 
L 2394 0 
L 2394 2156 
Q 2394 2531 2256 2718 
Q 2119 2906 1806 2906 
Q 1569 2906 1367 2781 
Q 1166 2656 1075 2415 
Q 984 2175 984 1722 
L 984 0 
L 422 0 
z
" transform="scale(0.015625)"/>
       <path id="ArialMT-61" d="M 2588 409 
Q 2275 144 1986 34 
Q 1697 -75 1366 -75 
Q 819 -75 525 192 
Q 231 459 231 875 
Q 231 1119 342 1320 
Q 453 1522 633 1644 
Q 813 1766 1038 1828 
Q 1203 1872 1538 1913 
Q 2219 1994 2541 2106 
Q 2544 2222 2544 2253 
Q 2544 2597 2384 2738 
Q 2169 2928 1744 2928 
Q 1347 2928 1158 2789 
Q 969 2650 878 2297 
L 328 2372 
Q 403 2725 575 2942 
Q 747 3159 1072 3276 
Q 1397 3394 1825 3394 
Q 2250 3394 2515 3294 
Q 2781 3194 2906 3042 
Q 3031 2891 3081 2659 
Q 3109 2516 3109 2141 
L 3109 1391 
Q 3109 606 3145 398 
Q 3181 191 3288 0 
L 2700 0 
Q 2613 175 2588 409 
z
M 2541 1666 
Q 2234 1541 1622 1453 
Q 1275 1403 1131 1340 
Q 988 1278 909 1158 
Q 831 1038 831 891 
Q 831 666 1001 516 
Q 1172 366 1500 366 
Q 1825 366 2078 508 
Q 2331 650 2450 897 
Q 2541 1088 2541 1459 
L 2541 1666 
z
" transform="scale(0.015625)"/>
       <path id="ArialMT-74" d="M 1650 503 
L 1731 6 
Q 1494 -44 1306 -44 
Q 1000 -44 831 53 
Q 663 150 594 308 
Q 525 466 525 972 
L 525 2881 
L 113 2881 
L 113 3319 
L 525 3319 
L 525 4141 
L 1084 4478 
L 1084 3319 
L 1650 3319 
L 1650 2881 
L 1084 2881 
L 1084 941 
Q 1084 700 1114 631 
Q 1144 563 1211 522 
Q 1278 481 1403 481 
Q 1497 481 1650 503 
z
" transform="scale(0.015625)"/>
       <path id="ArialMT-69" d="M 425 3934 
L 425 4581 
L 988 4581 
L 988 3934 
L 425 3934 
z
M 425 0 
L 425 3319 
L 988 3319 
L 988 0 
L 425 0 
z
" transform="scale(0.015625)"/>
       <path id="ArialMT-6e" d="M 422 0 
L 422 3319 
L 928 3319 
L 928 2847 
Q 1294 3394 1984 3394 
Q 2284 3394 2536 3286 
Q 2788 3178 2913 3003 
Q 3038 2828 3088 2588 
Q 3119 2431 3119 2041 
L 3119 0 
L 2556 0 
L 2556 2019 
Q 2556 2363 2490 2533 
Q 2425 2703 2258 2804 
Q 2091 2906 1866 2906 
Q 1506 2906 1245 2678 
Q 984 2450 984 1813 
L 984 0 
L 422 0 
z
" transform="scale(0.015625)"/>
       <path id="ArialMT-20" transform="scale(0.015625)"/>
       <path id="ArialMT-45" d="M 506 0 
L 506 4581 
L 3819 4581 
L 3819 4041 
L 1113 4041 
L 1113 2638 
L 3647 2638 
L 3647 2100 
L 1113 2100 
L 1113 541 
L 3925 541 
L 3925 0 
L 506 0 
z
" transform="scale(0.015625)"/>
       <path id="ArialMT-65" d="M 2694 1069 
L 3275 997 
Q 3138 488 2766 206 
Q 2394 -75 1816 -75 
Q 1088 -75 661 373 
Q 234 822 234 1631 
Q 234 2469 665 2931 
Q 1097 3394 1784 3394 
Q 2450 3394 2872 2941 
Q 3294 2488 3294 1666 
Q 3294 1616 3291 1516 
L 816 1516 
Q 847 969 1125 678 
Q 1403 388 1819 388 
Q 2128 388 2347 550 
Q 2566 713 2694 1069 
z
M 847 1978 
L 2700 1978 
Q 2663 2397 2488 2606 
Q 2219 2931 1791 2931 
Q 1403 2931 1139 2672 
Q 875 2413 847 1978 
z
" transform="scale(0.015625)"/>
       <path id="ArialMT-67" d="M 319 -275 
L 866 -356 
Q 900 -609 1056 -725 
Q 1266 -881 1628 -881 
Q 2019 -881 2231 -725 
Q 2444 -569 2519 -288 
Q 2563 -116 2559 434 
Q 2191 0 1641 0 
Q 956 0 581 494 
Q 206 988 206 1678 
Q 206 2153 378 2554 
Q 550 2956 876 3175 
Q 1203 3394 1644 3394 
Q 2231 3394 2613 2919 
L 2613 3319 
L 3131 3319 
L 3131 450 
Q 3131 -325 2973 -648 
Q 2816 -972 2473 -1159 
Q 2131 -1347 1631 -1347 
Q 1038 -1347 672 -1080 
Q 306 -813 319 -275 
z
M 784 1719 
Q 784 1066 1043 766 
Q 1303 466 1694 466 
Q 2081 466 2343 764 
Q 2606 1063 2606 1700 
Q 2606 2309 2336 2618 
Q 2066 2928 1684 2928 
Q 1309 2928 1046 2623 
Q 784 2319 784 1719 
z
" transform="scale(0.015625)"/>
       <path id="ArialMT-79" d="M 397 -1278 
L 334 -750 
Q 519 -800 656 -800 
Q 844 -800 956 -737 
Q 1069 -675 1141 -563 
Q 1194 -478 1313 -144 
Q 1328 -97 1363 -6 
L 103 3319 
L 709 3319 
L 1400 1397 
Q 1534 1031 1641 628 
Q 1738 1016 1872 1384 
L 2581 3319 
L 3144 3319 
L 1881 -56 
Q 1678 -603 1566 -809 
Q 1416 -1088 1222 -1217 
Q 1028 -1347 759 -1347 
Q 597 -1347 397 -1278 
z
" transform="scale(0.015625)"/>
       <path id="ArialMT-28" d="M 1497 -1347 
Q 1031 -759 709 28 
Q 388 816 388 1659 
Q 388 2403 628 3084 
Q 909 3875 1497 4659 
L 1900 4659 
Q 1522 4009 1400 3731 
Q 1209 3300 1100 2831 
Q 966 2247 966 1656 
Q 966 153 1900 -1347 
L 1497 -1347 
z
" transform="scale(0.015625)"/>
       <path id="ArialMT-56" d="M 1803 0 
L 28 4581 
L 684 4581 
L 1875 1253 
Q 2019 853 2116 503 
Q 2222 878 2363 1253 
L 3600 4581 
L 4219 4581 
L 2425 0 
L 1803 0 
z
" transform="scale(0.015625)"/>
       <path id="ArialMT-2f" d="M 0 -78 
L 1328 4659 
L 1778 4659 
L 453 -78 
L 0 -78 
z
" transform="scale(0.015625)"/>
       <path id="ArialMT-29" d="M 791 -1347 
L 388 -1347 
Q 1322 153 1322 1656 
Q 1322 2244 1188 2822 
Q 1081 3291 891 3722 
Q 769 4003 388 4659 
L 791 4659 
Q 1378 3875 1659 3084 
Q 1900 2403 1900 1659 
Q 1900 816 1576 28 
Q 1253 -759 791 -1347 
z
" transform="scale(0.015625)"/>
      </defs>
      <use xlink:href="#ArialMT-46"/>
      <use xlink:href="#ArialMT-6f" transform="translate(61.083984 0)"/>
      <use xlink:href="#ArialMT-72" transform="translate(116.699219 0)"/>
      <use xlink:href="#ArialMT-6d" transform="translate(150 0)"/>
      <use xlink:href="#ArialMT-61" transform="translate(233.300781 0)"/>
      <use xlink:href="#ArialMT-74" transform="translate(288.916016 0)"/>
      <use xlink:href="#ArialMT-69" transform="translate(316.699219 0)"/>
      <use xlink:href="#ArialMT-6f" transform="translate(338.916016 0)"/>
      <use xlink:href="#ArialMT-6e" transform="translate(394.53125 0)"/>
      <use xlink:href="#ArialMT-20" transform="translate(450.146484 0)"/>
      <use xlink:href="#ArialMT-45" transform="translate(477.929688 0)"/>
      <use xlink:href="#ArialMT-6e" transform="translate(544.628906 0)"/>
      <use xlink:href="#ArialMT-65" transform="translate(600.244141 0)"/>
      <use xlink:href="#ArialMT-72" transform="translate(655.859375 0)"/>
      <use xlink:href="#ArialMT-67" transform="translate(689.160156 0)"/>
      <use xlink:href="#ArialMT-79" transform="translate(744.775391 0)"/>
      <use xlink:href="#ArialMT-20" transform="translate(794.775391 0)"/>
      <use xlink:href="#ArialMT-28" transform="translate(822.558594 0)"/>
      <use xlink:href="#ArialMT-65" transform="translate(855.859375 0)"/>
      <use xlink:href="#ArialMT-56" transform="translate(911.474609 0)"/>
      <use xlink:href="#ArialMT-2f" transform="translate(978.173828 0)"/>
      <use xlink:href="#ArialMT-61" transform="translate(1005.957031 0)"/>
      <use xlink:href="#ArialMT-74" transform="translate(1061.572266 0)"/>
      <use xlink:href="#ArialMT-6f" transform="translate(1089.355469 0)"/>
      <use xlink:href="#ArialMT-6d" transform="translate(1144.970703 0)"/>
      <use xlink:href="#ArialMT-29" transform="translate(1228.271484 0)"/>
     </g>
    </g>
   </g>
   <g id="LineCollection_1"/>
   <g id="patch_6">
    <path d="M 287.298425 195.703937 
L 291.66378 203.640945 
L 296.029134 195.703937 
L 296.029134 36.96378 
L 291.66378 29.026772 
L 287.298425 36.96378 
L 287.298425 195.703937 
z
" style="fill: none; stroke: #000000; stroke-width: 0.8; stroke-linejoin: miter; stroke-linecap: square"/>
   </g>
  </g>
 </g>
 <defs>
  <clipPath id="pab4afadba9">
   <rect x="7.2" y="7.2" width="263.622047" height="218.267717"/>
  </clipPath>
  <clipPath id="p2d71208a41">
   <rect x="287.298425" y="36.96378" width="8.730709" height="158.740157"/>
  </clipPath>
 </defs>
</svg>
