<?xml version="1.0" encoding="utf-8" standalone="no"?>
<!DOCTYPE svg PUBLIC "-//W3C//DTD SVG 1.1//EN"
  "http://www.w3.org/Graphics/SVG/1.1/DTD/svg11.dtd">
<svg xmlns:xlink="http://www.w3.org/1999/xlink" width="340.354759pt" height="232.667717pt" viewBox="0 0 340.354759 232.667717" xmlns="http://www.w3.org/2000/svg" version="1.1">
 <metadata>
  <rdf:RDF xmlns:dc="http://purl.org/dc/elements/1.1/" xmlns:cc="http://creativecommons.org/ns#" xmlns:rdf="http://www.w3.org/1999/02/22-rdf-syntax-ns#">
   <cc:Work>
    <dc:type rdf:resource="http://purl.org/dc/dcmitype/StillImage"/>
    <dc:date>2026-01-27T21:37:54.866303</dc:date>
    <dc:format>image/svg+xml</dc:format>
    <dc:creator>
     <cc:Agent>
      <dc:title>Matplotlib v3.10.8, https://matplotlib.org/</dc:title>
     </cc:Agent>
    </dc:creator>
   </cc:Work>
  </rdf:RDF>
 </metadata>
 <defs>
  <style type="text/css">*{stroke-linejoin: round; stroke-linecap: butt}</style>
 </defs>
 <g id="figure_1">
  <g id="patch_1">
   <path d="M 0 232.667717 
L 340.354759 232.667717 
L 340.354759 0 
L 0 0 
L 0 232.667717 
z
" style="fill: none"/>
  </g>
  <g id="axes_1">
   <g id="patch_2">
    <path d="M 7.2 225.467717 
L 270.822047 225.467717 
L 270.822047 7.2 
L 7.2 7.2 
L 7.2 225.467717 
z
" style="fill: none"/>
   </g>
   <g id="TriContourSet_1">
    <path d="M 179.795772 214.554331 
L 178.934546 213.736048 
L 178.512408 213.510006 
L 176.67284 214.554331 
L 178.953758 214.554331 
z
" clip-path="url(#p56bc5ec746)" style="fill: #440154; fill-opacity: 0.7"/>
    <path d="M 176.67284 214.554331 
L 178.512408 213.510006 
L 178.934546 213.736048 
L 179.795772 214.554331 
L 185.826044 214.554331 
L 178.796953 207.875734 
L 175.35158 206.030839 
L 160.337532 214.554331 
z
" clip-path="url(#p56bc5ec746)" style="fill: #450559; fill-opacity: 0.7"/>
    <path d="M 160.337532 214.554331 
L 175.35158 206.030839 
L 178.796953 207.875734 
L 185.826044 214.554331 
L 191.856316 214.554331 
L 178.65936 202.01542 
L 172.190751 198.551671 
L 144.002225 214.554331 
z
" clip-path="url(#p56bc5ec746)" style="fill: #470e61; fill-opacity: 0.7"/>
    <path d="M 144.002225 214.554331 
L 172.190751 198.551671 
L 178.65936 202.01542 
L 191.856316 214.554331 
L 197.886588 214.554331 
L 178.521767 196.155106 
L 169.029923 191.072504 
L 139.011024 208.114269 
L 135.755033 214.554331 
L 139.011024 214.554331 
z
" clip-path="url(#p56bc5ec746)" style="fill: #481769; fill-opacity: 0.7"/>
    <path d="M 135.755033 214.554331 
L 139.011024 208.114269 
L 169.029923 191.072504 
L 178.521767 196.155106 
L 197.886588 214.554331 
L 198.925125 214.554331 
L 200.170378 214.554331 
L 199.675853 212.185831 
L 198.925125 210.321941 
L 197.922149 208.858537 
L 178.384174 190.294792 
L 165.869095 183.593337 
L 139.011024 198.840696 
L 131.066466 214.554331 
z
" clip-path="url(#p56bc5ec746)" style="fill: #481f70; fill-opacity: 0.7"/>
    <path d="M 131.066466 214.554331 
L 139.011024 198.840696 
L 165.869095 183.593337 
L 178.384174 190.294792 
L 197.922149 208.858537 
L 198.925125 210.321941 
L 199.675853 212.185831 
L 200.170378 214.554331 
L 201.674708 214.554331 
L 200.58277 209.324561 
L 198.925125 205.208997 
L 196.710502 201.977725 
L 178.246581 184.434478 
L 162.708267 176.11417 
L 139.011024 189.567123 
L 126.377899 214.554331 
z
" clip-path="url(#p56bc5ec746)" style="fill: #482677; fill-opacity: 0.7"/>
    <path d="M 126.377899 214.554331 
L 139.011024 189.567123 
L 162.708267 176.11417 
L 178.246581 184.434478 
L 196.710502 201.977725 
L 198.925125 205.208997 
L 200.58277 209.324561 
L 201.674708 214.554331 
L 203.179037 214.554331 
L 201.489687 206.463292 
L 198.925125 200.096053 
L 195.498855 195.096913 
L 178.108988 178.574165 
L 159.547439 168.635003 
L 139.011024 180.293549 
L 121.689332 214.554331 
z
" clip-path="url(#p56bc5ec746)" style="fill: #472e7c; fill-opacity: 0.7"/>
    <path d="M 121.689332 214.554331 
L 139.011024 180.293549 
L 159.547439 168.635003 
L 178.108988 178.574165 
L 195.498855 195.096913 
L 198.925125 200.096053 
L 201.489687 206.463292 
L 203.179037 214.554331 
L 204.683366 214.554331 
L 202.396604 203.602023 
L 198.925125 194.983109 
L 194.287208 188.216101 
L 177.971395 172.713851 
L 156.38661 161.155836 
L 139.011024 171.019976 
L 117.000765 214.554331 
z
" clip-path="url(#p56bc5ec746)" style="fill: #453581; fill-opacity: 0.7"/>
    <path d="M 117.000765 214.554331 
L 139.011024 171.019976 
L 156.38661 161.155836 
L 177.971395 172.713851 
L 194.287208 188.216101 
L 198.925125 194.983109 
L 202.396604 203.602023 
L 204.683366 214.554331 
L 206.187696 214.554331 
L 203.303522 200.740753 
L 198.925125 189.870165 
L 193.075561 181.335289 
L 177.833803 166.853537 
L 153.225782 153.676668 
L 139.011024 161.746403 
L 112.312198 214.554331 
z
" clip-path="url(#p56bc5ec746)" style="fill: #433d84; fill-opacity: 0.7"/>
    <path d="M 112.312198 214.554331 
L 139.011024 161.746403 
L 153.225782 153.676668 
L 177.833803 166.853537 
L 193.075561 181.335289 
L 198.925125 189.870165 
L 203.303522 200.740753 
L 206.187696 214.554331 
L 207.692025 214.554331 
L 204.210439 197.879484 
L 198.925125 184.75722 
L 191.863914 174.454477 
L 177.69621 160.993223 
L 150.064954 146.197501 
L 139.011024 152.47283 
L 107.623631 214.554331 
z
" clip-path="url(#p56bc5ec746)" style="fill: #414487; fill-opacity: 0.7"/>
    <path d="M 107.623631 214.554331 
L 139.011024 152.47283 
L 150.064954 146.197501 
L 177.69621 160.993223 
L 191.863914 174.454477 
L 198.925125 184.75722 
L 204.210439 197.879484 
L 207.692025 214.554331 
L 209.196355 214.554331 
L 205.117356 195.018214 
L 198.925125 179.644276 
L 190.652267 167.573665 
L 177.558617 155.132909 
L 146.904126 138.718334 
L 139.011024 143.199257 
L 102.935064 214.554331 
z
" clip-path="url(#p56bc5ec746)" style="fill: #3e4a89; fill-opacity: 0.7"/>
    <path d="M 102.935064 214.554331 
L 139.011024 143.199257 
L 146.904126 138.718334 
L 177.558617 155.132909 
L 190.652267 167.573665 
L 198.925125 179.644276 
L 205.117356 195.018214 
L 209.196355 214.554331 
L 210.700684 214.554331 
L 206.024274 192.156945 
L 198.925125 174.531332 
L 189.44062 160.692853 
L 177.421024 149.272595 
L 143.743298 131.239167 
L 139.011024 133.925684 
L 98.246496 214.554331 
z
" clip-path="url(#p56bc5ec746)" style="fill: #3b518b; fill-opacity: 0.7"/>
    <path d="M 98.246496 214.554331 
L 139.011024 133.925684 
L 143.743298 131.239167 
L 177.421024 149.272595 
L 189.44062 160.692853 
L 198.925125 174.531332 
L 206.024274 192.156945 
L 210.700684 214.554331 
L 212.205014 214.554331 
L 206.931191 189.295675 
L 198.925125 169.418388 
L 188.228973 153.812041 
L 177.283431 143.412281 
L 140.582469 123.76 
L 139.011024 124.652111 
L 93.557929 214.554331 
z
" clip-path="url(#p56bc5ec746)" style="fill: #38598c; fill-opacity: 0.7"/>
    <path d="M 93.557929 214.554331 
L 139.011024 124.652111 
L 140.582469 123.76 
L 177.283431 143.412281 
L 188.228973 153.812041 
L 198.925125 169.418388 
L 206.931191 189.295675 
L 212.205014 214.554331 
L 213.709343 214.554331 
L 207.838108 186.434406 
L 198.925125 164.305444 
L 187.017326 146.931229 
L 177.145838 137.551967 
L 140.923576 118.156015 
L 140.31449 117.985458 
L 139.011024 118.483601 
L 138.463255 118.745503 
L 137.570003 119.662776 
L 137.230707 120.041637 
L 127.366146 138.411082 
L 88.869362 214.554331 
z
" clip-path="url(#p56bc5ec746)" style="fill: #355f8d; fill-opacity: 0.7"/>
    <path d="M 88.869362 214.554331 
L 127.366146 138.411082 
L 137.230707 120.041637 
L 137.570003 119.662776 
L 138.463255 118.745503 
L 139.011024 118.483601 
L 140.31449 117.985458 
L 140.923576 118.156015 
L 177.145838 137.551967 
L 187.017326 146.931229 
L 198.925125 164.305444 
L 207.838108 186.434406 
L 213.709343 214.554331 
L 215.213673 214.554331 
L 208.745025 183.573136 
L 198.925125 159.1925 
L 185.805679 140.050417 
L 177.008245 131.691653 
L 144.727098 114.406052 
L 142.906712 113.896306 
L 139.011024 115.385113 
L 137.373898 116.167863 
L 134.704223 118.909329 
L 133.690165 120.041637 
L 104.207805 174.942667 
L 84.180795 214.554331 
z
" clip-path="url(#p56bc5ec746)" style="fill: #32658e; fill-opacity: 0.7"/>
    <path d="M 84.180795 214.554331 
L 104.207805 174.942667 
L 133.690165 120.041637 
L 134.704223 118.909329 
L 137.373898 116.167863 
L 139.011024 115.385113 
L 142.906712 113.896306 
L 144.727098 114.406052 
L 177.008245 131.691653 
L 185.805679 140.050417 
L 198.925125 159.1925 
L 208.745025 183.573136 
L 215.213673 214.554331 
L 216.718002 214.554331 
L 209.651943 180.711867 
L 198.925125 154.079555 
L 184.594032 133.169605 
L 176.870652 125.831339 
L 148.53062 110.656089 
L 145.498934 109.807153 
L 139.011024 112.286624 
L 136.284542 113.590222 
L 131.838444 118.155882 
L 130.149624 120.041637 
L 81.049465 211.474252 
L 79.492228 214.554331 
z
" clip-path="url(#p56bc5ec746)" style="fill: #2f6b8e; fill-opacity: 0.7"/>
    <path d="M 79.492228 214.554331 
L 81.049465 211.474252 
L 130.149624 120.041637 
L 131.838444 118.155882 
L 136.284542 113.590222 
L 139.011024 112.286624 
L 145.498934 109.807153 
L 148.53062 110.656089 
L 176.870652 125.831339 
L 184.594032 133.169605 
L 198.925125 154.079555 
L 209.651943 180.711867 
L 216.718002 214.554331 
L 218.222332 214.554331 
L 210.55886 177.850597 
L 198.925125 148.966611 
L 183.382385 126.288793 
L 176.733059 119.971025 
L 152.334142 106.906125 
L 148.091156 105.718001 
L 139.011024 109.188135 
L 135.195185 111.012581 
L 128.972664 117.402435 
L 126.609082 120.041637 
L 79.096922 208.517137 
L 77.964519 210.981669 
L 77.131626 214.554331 
L 79.096922 214.554331 
z
" clip-path="url(#p56bc5ec746)" style="fill: #2d718e; fill-opacity: 0.7"/>
    <path d="M 77.131626 214.554331 
L 77.964519 210.981669 
L 79.096922 208.517137 
L 126.609082 120.041637 
L 128.972664 117.402435 
L 135.195185 111.012581 
L 139.011024 109.188135 
L 148.091156 105.718001 
L 152.334142 106.906125 
L 176.733059 119.971025 
L 183.382385 126.288793 
L 198.925125 148.966611 
L 210.55886 177.850597 
L 218.222332 214.554331 
L 219.726661 214.554331 
L 211.465777 174.989328 
L 198.925125 143.853667 
L 182.170738 119.407981 
L 176.595466 114.110711 
L 156.137664 103.156162 
L 150.683379 101.628848 
L 139.011024 106.089647 
L 134.105829 108.434941 
L 126.106885 116.648989 
L 123.06854 120.041637 
L 79.096922 201.924063 
L 76.72785 207.080051 
L 74.985374 214.554331 
z
" clip-path="url(#p56bc5ec746)" style="fill: #2a768e; fill-opacity: 0.7"/>
    <path d="M 74.985374 214.554331 
L 76.72785 207.080051 
L 79.096922 201.924063 
L 123.06854 120.041637 
L 126.106885 116.648989 
L 134.105829 108.434941 
L 139.011024 106.089647 
L 150.683379 101.628848 
L 156.137664 103.156162 
L 176.595466 114.110711 
L 182.170738 119.407981 
L 198.925125 143.853667 
L 211.465777 174.989328 
L 219.726661 214.554331 
L 221.23099 214.554331 
L 212.372695 172.128058 
L 198.925125 138.740723 
L 180.959091 112.527169 
L 176.457874 108.250397 
L 159.941186 99.406199 
L 153.275601 97.539695 
L 139.011024 102.991158 
L 133.016472 105.8573 
L 123.241106 115.895542 
L 119.527999 120.041637 
L 79.096922 195.330989 
L 75.49118 203.178432 
L 72.839122 214.554331 
z
" clip-path="url(#p56bc5ec746)" style="fill: #287c8e; fill-opacity: 0.7"/>
    <path d="M 72.839122 214.554331 
L 75.49118 203.178432 
L 79.096922 195.330989 
L 119.527999 120.041637 
L 123.241106 115.895542 
L 133.016472 105.8573 
L 139.011024 102.991158 
L 153.275601 97.539695 
L 159.941186 99.406199 
L 176.457874 108.250397 
L 180.959091 112.527169 
L 198.925125 138.740723 
L 212.372695 172.128058 
L 221.23099 214.554331 
L 222.73532 214.554331 
L 213.279612 169.266789 
L 198.925125 133.627779 
L 179.747444 105.646357 
L 176.320281 102.390083 
L 163.744708 95.656235 
L 155.867823 93.450543 
L 139.011024 99.89267 
L 131.927116 103.27966 
L 120.375326 115.142095 
L 115.987457 120.041637 
L 79.096922 188.737914 
L 74.254511 199.276814 
L 70.69287 214.554331 
z
" clip-path="url(#p56bc5ec746)" style="fill: #26828e; fill-opacity: 0.7"/>
    <path d="M 70.69287 214.554331 
L 74.254511 199.276814 
L 79.096922 188.737914 
L 115.987457 120.041637 
L 120.375326 115.142095 
L 131.927116 103.27966 
L 139.011024 99.89267 
L 155.867823 93.450543 
L 163.744708 95.656235 
L 176.320281 102.390083 
L 179.747444 105.646357 
L 198.925125 133.627779 
L 213.279612 169.266789 
L 222.73532 214.554331 
L 224.239649 214.554331 
L 214.186529 166.405519 
L 198.925125 128.514835 
L 178.535797 98.765545 
L 176.182688 96.52977 
L 167.548229 91.906272 
L 158.460045 89.36139 
L 139.011024 96.794181 
L 130.837759 100.702019 
L 117.509547 114.388648 
L 112.446915 120.041637 
L 79.096922 182.14484 
L 73.017841 195.375196 
L 68.546618 214.554331 
z
" clip-path="url(#p56bc5ec746)" style="fill: #24878e; fill-opacity: 0.7"/>
    <path d="M 68.546618 214.554331 
L 73.017841 195.375196 
L 79.096922 182.14484 
L 112.446915 120.041637 
L 117.509547 114.388648 
L 130.837759 100.702019 
L 139.011024 96.794181 
L 158.460045 89.36139 
L 167.548229 91.906272 
L 176.182688 96.52977 
L 178.535797 98.765545 
L 198.925125 128.514835 
L 214.186529 166.405519 
L 224.239649 214.554331 
L 225.743979 214.554331 
L 215.093446 163.54425 
L 198.925125 123.401891 
L 177.32415 91.884733 
L 176.045095 90.669456 
L 171.351751 88.156309 
L 161.052268 85.272237 
L 139.011024 93.695693 
L 129.748403 98.124378 
L 114.643767 113.635201 
L 108.906374 120.041637 
L 79.096922 175.551766 
L 71.781171 191.473578 
L 66.400366 214.554331 
z
" clip-path="url(#p56bc5ec746)" style="fill: #228d8d; fill-opacity: 0.7"/>
    <path d="M 66.400366 214.554331 
L 71.781171 191.473578 
L 79.096922 175.551766 
L 108.906374 120.041637 
L 114.643767 113.635201 
L 129.748403 98.124378 
L 139.011024 93.695693 
L 161.052268 85.272237 
L 171.351751 88.156309 
L 176.045095 90.669456 
L 177.32415 91.884733 
L 198.925125 123.401891 
L 215.093446 163.54425 
L 225.743979 214.554331 
L 227.248308 214.554331 
L 216.000364 160.68298 
L 200.86114 123.095642 
L 198.925125 120.041637 
L 184.123009 96.691745 
L 176.112503 85.003921 
L 175.907502 84.809142 
L 175.155273 84.406345 
L 163.64449 81.183085 
L 139.011024 90.597204 
L 128.659046 95.546738 
L 111.777988 112.881755 
L 105.365832 120.041637 
L 79.096922 168.958692 
L 70.544502 187.57196 
L 64.254114 214.554331 
z
" clip-path="url(#p56bc5ec746)" style="fill: #20938c; fill-opacity: 0.7"/>
    <path d="M 64.254114 214.554331 
L 70.544502 187.57196 
L 79.096922 168.958692 
L 105.365832 120.041637 
L 111.777988 112.881755 
L 128.659046 95.546738 
L 139.011024 90.597204 
L 163.64449 81.183085 
L 175.155273 84.406345 
L 175.907502 84.809142 
L 176.112503 85.003921 
L 184.123009 96.691745 
L 175.88124 83.690601 
L 172.878425 78.953751 
L 166.236712 77.093932 
L 139.011024 87.498715 
L 127.56969 92.969097 
L 108.912209 112.128308 
L 101.82529 120.041637 
L 79.096922 162.365618 
L 69.307832 183.670341 
L 62.107862 214.554331 
z
M 228.752638 214.554331 
L 216.907281 157.821711 
L 206.508877 132.004777 
L 200.86114 123.095642 
L 216.000364 160.68298 
L 227.248308 214.554331 
z
" clip-path="url(#p56bc5ec746)" style="fill: #1f998a; fill-opacity: 0.7"/>
    <path d="M 62.107862 214.554331 
L 69.307832 183.670341 
L 79.096922 162.365618 
L 101.82529 120.041637 
L 108.912209 112.128308 
L 127.56969 92.969097 
L 139.011024 87.498715 
L 166.236712 77.093932 
L 172.878425 78.953751 
L 169.167274 73.099522 
L 168.828934 73.00478 
L 139.011024 84.400227 
L 126.480333 90.391457 
L 106.046429 111.374861 
L 98.284749 120.041637 
L 79.096922 155.772544 
L 68.071163 179.768723 
L 59.96161 214.554331 
z
M 230.256967 214.554331 
L 217.814198 154.960441 
L 212.156613 140.913912 
L 206.508877 132.004777 
L 216.907281 157.821711 
L 228.752638 214.554331 
z
" clip-path="url(#p56bc5ec746)" style="fill: #1f9f88; fill-opacity: 0.7"/>
    <path d="M 59.96161 214.554331 
L 68.071163 179.768723 
L 79.096922 155.772544 
L 98.284749 120.041637 
L 106.046429 111.374861 
L 126.480333 90.391457 
L 139.011024 84.400227 
L 168.828934 73.00478 
L 169.167274 73.099522 
L 168.968074 72.78529 
L 167.471791 70.424948 
L 139.011024 81.301738 
L 125.390977 87.813816 
L 103.18065 110.621414 
L 94.744207 120.041637 
L 79.096922 149.17947 
L 66.834493 175.867105 
L 57.815358 214.554331 
z
M 231.761297 214.554331 
L 218.721116 152.099172 
L 217.80435 149.823047 
L 212.156613 140.913912 
L 217.814198 154.960441 
L 230.256967 214.554331 
z
" clip-path="url(#p56bc5ec746)" style="fill: #20a486; fill-opacity: 0.7"/>
    <path d="M 57.815358 214.554331 
L 66.834493 175.867105 
L 79.096922 149.17947 
L 94.744207 120.041637 
L 103.18065 110.621414 
L 125.390977 87.813816 
L 139.011024 81.301738 
L 167.471791 70.424948 
L 165.890637 67.930725 
L 139.011024 78.20325 
L 124.301621 85.236176 
L 100.31487 109.867967 
L 91.203666 120.041637 
L 79.096922 142.586396 
L 65.597823 171.965487 
L 55.669106 214.554331 
z
M 233.265626 214.554331 
L 220.70586 154.400091 
L 218.896492 151.545868 
L 217.80435 149.823047 
L 218.721116 152.099172 
L 231.761297 214.554331 
z
" clip-path="url(#p56bc5ec746)" style="fill: #24aa83; fill-opacity: 0.7"/>
    <path d="M 55.669106 214.554331 
L 65.597823 171.965487 
L 79.096922 142.586396 
L 91.203666 120.041637 
L 100.31487 109.867967 
L 124.301621 85.236176 
L 139.011024 78.20325 
L 165.890637 67.930725 
L 164.309483 65.436503 
L 139.011024 75.104761 
L 123.212264 82.658535 
L 97.449091 109.114521 
L 87.663124 120.041637 
L 79.096922 135.993322 
L 64.361154 168.063869 
L 53.522854 214.554331 
z
M 234.769956 214.554331 
L 222.948999 157.938576 
L 220.70586 154.400091 
L 233.265626 214.554331 
z
" clip-path="url(#p56bc5ec746)" style="fill: #29af7f; fill-opacity: 0.7"/>
    <path d="M 53.522854 214.554331 
L 64.361154 168.063869 
L 79.096922 135.993322 
L 87.663124 120.041637 
L 97.449091 109.114521 
L 123.212264 82.658535 
L 139.011024 75.104761 
L 164.309483 65.436503 
L 162.72833 62.94228 
L 139.011024 72.006272 
L 122.122908 80.080894 
L 94.583311 108.361074 
L 84.122582 120.041637 
L 79.096922 129.400248 
L 63.124484 164.16225 
L 51.376601 214.554331 
z
M 236.274285 214.554331 
L 225.192139 161.477061 
L 222.948999 157.938576 
L 234.769956 214.554331 
z
" clip-path="url(#p56bc5ec746)" style="fill: #31b57b; fill-opacity: 0.7"/>
    <path d="M 51.376601 214.554331 
L 63.124484 164.16225 
L 79.096922 129.400248 
L 84.122582 120.041637 
L 94.583311 108.361074 
L 122.122908 80.080894 
L 139.011024 72.006272 
L 162.72833 62.94228 
L 161.147176 60.448058 
L 139.011024 68.907784 
L 121.033551 77.503254 
L 91.717532 107.607627 
L 80.582041 120.041637 
L 79.096922 122.807173 
L 61.887815 160.260632 
L 49.230349 214.554331 
z
M 237.778615 214.554331 
L 227.435278 165.015545 
L 225.192139 161.477061 
L 236.274285 214.554331 
z
" clip-path="url(#p56bc5ec746)" style="fill: #3aba76; fill-opacity: 0.7"/>
    <path d="M 72.706022 130.123089 
L 60.651145 156.359014 
L 47.084097 214.554331 
L 49.230349 214.554331 
L 61.887815 160.260632 
L 79.096922 122.807173 
L 80.582041 120.041637 
L 91.717532 107.607627 
L 121.033551 77.503254 
L 139.011024 68.907784 
L 161.147176 60.448058 
L 159.566022 57.953835 
L 139.011024 65.809295 
L 119.944195 74.925613 
L 88.851753 106.85418 
L 84.076986 112.185737 
L 79.096922 120.041637 
z
M 239.282944 214.554331 
L 229.678417 168.55403 
L 227.435278 165.015545 
L 237.778615 214.554331 
z
" clip-path="url(#p56bc5ec746)" style="fill: #44bf70; fill-opacity: 0.7"/>
    <path d="M 61.697464 147.488759 
L 59.414476 152.457396 
L 44.937845 214.554331 
L 47.084097 214.554331 
L 60.651145 156.359014 
L 72.706022 130.123089 
z
M 240.787273 214.554331 
L 231.921556 172.092515 
L 229.678417 168.55403 
L 239.282944 214.554331 
z
M 157.984868 55.459613 
L 139.011024 62.710807 
L 118.854838 72.347973 
L 91.568526 100.368057 
L 87.656079 106.539824 
L 84.076986 112.185737 
L 88.851753 106.85418 
L 119.944195 74.925613 
L 139.011024 65.809295 
L 159.566022 57.953835 
z
" clip-path="url(#p56bc5ec746)" style="fill: #50c46a; fill-opacity: 0.7"/>
    <path d="M 56.523989 155.64976 
L 42.791593 214.554331 
L 44.937845 214.554331 
L 59.414476 152.457396 
L 61.697464 147.488759 
L 59.125555 151.545868 
z
M 242.291603 214.554331 
L 234.164695 175.630999 
L 231.921556 172.092515 
L 240.787273 214.554331 
z
M 156.403715 52.96539 
L 139.011024 59.612318 
L 117.765482 69.770332 
L 98.281996 89.777759 
L 91.568526 100.368057 
L 118.854838 72.347973 
L 139.011024 62.710807 
L 157.984868 55.459613 
z
" clip-path="url(#p56bc5ec746)" style="fill: #5ec962; fill-opacity: 0.7"/>
    <path d="M 53.129337 161.004721 
L 40.645341 214.554331 
L 42.791593 214.554331 
L 56.523989 155.64976 
z
M 243.795932 214.554331 
L 236.407835 179.169484 
L 234.164695 175.630999 
L 242.291603 214.554331 
z
M 154.822561 50.471168 
L 139.011024 56.513829 
L 116.676125 67.192692 
L 104.995467 79.187461 
L 98.281996 89.777759 
L 117.765482 69.770332 
L 139.011024 59.612318 
L 156.403715 52.96539 
z
" clip-path="url(#p56bc5ec746)" style="fill: #6ccd5a; fill-opacity: 0.7"/>
    <path d="M 49.734686 166.359682 
L 38.499089 214.554331 
L 40.645341 214.554331 
L 53.129337 161.004721 
z
M 245.300262 214.554331 
L 238.650974 182.707969 
L 236.407835 179.169484 
L 243.795932 214.554331 
z
M 153.241407 47.976945 
L 139.011024 53.415341 
L 115.586769 64.615051 
L 111.708937 68.597164 
L 104.995467 79.187461 
L 116.676125 67.192692 
L 139.011024 56.513829 
L 154.822561 50.471168 
z
" clip-path="url(#p56bc5ec746)" style="fill: #7ad151; fill-opacity: 0.7"/>
    <path d="M 46.340034 171.714643 
L 36.352837 214.554331 
L 38.499089 214.554331 
L 49.734686 166.359682 
z
M 246.804591 214.554331 
L 240.894113 186.246453 
L 238.650974 182.707969 
L 245.300262 214.554331 
z
M 151.660253 45.482723 
L 139.011024 50.316852 
L 116.463144 61.097546 
L 115.045383 63.334021 
L 111.708937 68.597164 
L 115.586769 64.615051 
L 139.011024 53.415341 
L 153.241407 47.976945 
z
" clip-path="url(#p56bc5ec746)" style="fill: #89d548; fill-opacity: 0.7"/>
    <path d="M 42.945382 177.069604 
L 34.206585 214.554331 
L 36.352837 214.554331 
L 46.340034 171.714643 
z
M 248.308921 214.554331 
L 243.137252 189.784938 
L 240.894113 186.246453 
L 246.804591 214.554331 
z
M 150.0791 42.988501 
L 139.011024 47.218364 
L 119.281629 56.651471 
L 116.463144 61.097546 
L 139.011024 50.316852 
L 151.660253 45.482723 
z
" clip-path="url(#p56bc5ec746)" style="fill: #98d83e; fill-opacity: 0.7"/>
    <path d="M 39.550731 182.424565 
L 32.060333 214.554331 
L 34.206585 214.554331 
L 42.945382 177.069604 
z
M 249.81325 214.554331 
L 245.380392 193.323423 
L 243.137252 189.784938 
L 248.308921 214.554331 
z
M 148.497946 40.494278 
L 139.011024 44.119875 
L 122.100114 52.205395 
L 119.281629 56.651471 
L 139.011024 47.218364 
L 150.0791 42.988501 
z
" clip-path="url(#p56bc5ec746)" style="fill: #a8db34; fill-opacity: 0.7"/>
    <path d="M 36.156079 187.779526 
L 29.914081 214.554331 
L 32.060333 214.554331 
L 39.550731 182.424565 
z
M 251.31758 214.554331 
L 247.623531 196.861907 
L 245.380392 193.323423 
L 249.81325 214.554331 
z
M 146.916792 38.000056 
L 139.011024 41.021386 
L 124.918599 47.75932 
L 122.100114 52.205395 
L 139.011024 44.119875 
L 148.497946 40.494278 
z
" clip-path="url(#p56bc5ec746)" style="fill: #b8de29; fill-opacity: 0.7"/>
    <path d="M 32.761427 193.134487 
L 27.767829 214.554331 
L 29.914081 214.554331 
L 36.156079 187.779526 
z
M 252.821909 214.554331 
L 249.86667 200.400392 
L 247.623531 196.861907 
L 251.31758 214.554331 
z
M 145.335639 35.505833 
L 139.011024 37.922898 
L 127.737084 43.313245 
L 124.918599 47.75932 
L 139.011024 41.021386 
L 146.916792 38.000056 
z
" clip-path="url(#p56bc5ec746)" style="fill: #c8e020; fill-opacity: 0.7"/>
    <path d="M 29.366775 198.489448 
L 25.621577 214.554331 
L 27.767829 214.554331 
L 32.761427 193.134487 
z
M 254.326239 214.554331 
L 252.109809 203.938877 
L 249.86667 200.400392 
L 252.821909 214.554331 
z
M 143.754485 33.011611 
L 139.011024 34.824409 
L 130.555569 38.867169 
L 127.737084 43.313245 
L 139.011024 37.922898 
L 145.335639 35.505833 
z
" clip-path="url(#p56bc5ec746)" style="fill: #d8e219; fill-opacity: 0.7"/>
    <path d="M 25.972124 203.844409 
L 23.475324 214.554331 
L 25.621577 214.554331 
L 29.366775 198.489448 
z
M 255.830568 214.554331 
L 254.352948 207.477361 
L 252.109809 203.938877 
L 254.326239 214.554331 
z
M 142.173331 30.517388 
L 139.011024 31.725921 
L 133.374054 34.421094 
L 130.555569 38.867169 
L 139.011024 34.824409 
L 143.754485 33.011611 
z
" clip-path="url(#p56bc5ec746)" style="fill: #e7e419; fill-opacity: 0.7"/>
    <path d="M 22.577472 209.19937 
L 21.329072 214.554331 
L 23.475324 214.554331 
L 25.972124 203.844409 
z
M 257.334897 214.554331 
L 256.596088 211.015846 
L 254.352948 207.477361 
L 255.830568 214.554331 
z
M 140.592177 28.023166 
L 139.011024 28.627432 
L 136.192539 29.975019 
L 133.374054 34.421094 
L 139.011024 31.725921 
L 142.173331 30.517388 
z
" clip-path="url(#p56bc5ec746)" style="fill: #f6e620; fill-opacity: 0.7"/>
    <path d="M 21.329072 214.554331 
L 22.577472 209.19937 
L 19.18282 214.554331 
z
M 256.596088 211.015846 
L 257.334897 214.554331 
L 258.839227 214.554331 
z
M 136.192539 29.975019 
L 139.011024 28.627432 
L 140.592177 28.023166 
L 139.011024 25.528943 
z
" clip-path="url(#p56bc5ec746)" style="fill: #fde725; fill-opacity: 0.7"/>
   </g>
   <g id="matplotlib.axis_1"/>
   <g id="matplotlib.axis_2"/>
   <g id="line2d_1">
    <path d="M 59.125555 151.545868 
L 79.096922 214.554331 
" clip-path="url(#p56bc5ec746)" style="fill: none; stroke: #555555; stroke-opacity: 0.9; stroke-width: 0.5; stroke-linecap: square"/>
   </g>
   <g id="line2d_2">
    <path d="M 175.88124 83.690601 
L 178.953758 214.554331 
" clip-path="url(#p56bc5ec746)" style="fill: none; stroke: #555555; stroke-opacity: 0.9; stroke-width: 0.5; stroke-linecap: square"/>
   </g>
   <g id="line2d_3">
    <path d="M 218.896492 151.545868 
L 198.925125 214.554331 
" clip-path="url(#p56bc5ec746)" style="fill: none; stroke: #555555; stroke-opacity: 0.9; stroke-width: 0.5; stroke-linecap: square"/>
   </g>
   <g id="line2d_4">
    <path d="M 79.096922 214.554331 
L 19.18282 214.554331 
" clip-path="url(#p56bc5ec746)" style="fill: none; stroke: #555555; stroke-opacity: 0.9; stroke-width: 0.5; stroke-linecap: square"/>
   </g>
   <g id="line2d_5">
    <path d="M 139.011024 120.041637 
L 87.656079 106.539824 
" clip-path="url(#p56bc5ec746)" style="fill: none; stroke: #555555; stroke-opacity: 0.9; stroke-width: 0.5; stroke-linecap: square"/>
   </g>
   <g id="line2d_6">
    <path d="M 79.096922 120.041637 
L 59.125555 151.545868 
" clip-path="url(#p56bc5ec746)" style="fill: none; stroke: #555555; stroke-opacity: 0.9; stroke-width: 0.5; stroke-linecap: square"/>
   </g>
   <g id="line2d_7">
    <path d="M 168.968074 72.78529 
L 175.88124 83.690601 
" clip-path="url(#p56bc5ec746)" style="fill: none; stroke: #555555; stroke-opacity: 0.9; stroke-width: 0.5; stroke-linecap: square"/>
   </g>
   <g id="line2d_8">
    <path d="M 115.045383 63.334021 
L 139.011024 120.041637 
" clip-path="url(#p56bc5ec746)" style="fill: none; stroke: #555555; stroke-opacity: 0.9; stroke-width: 0.5; stroke-linecap: square"/>
   </g>
   <g id="line2d_9">
    <path d="M 115.045383 63.334021 
L 139.011024 25.528943 
" clip-path="url(#p56bc5ec746)" style="fill: none; stroke: #555555; stroke-opacity: 0.9; stroke-width: 0.5; stroke-linecap: square"/>
   </g>
   <g id="line2d_10">
    <path d="M 175.88124 83.690601 
L 139.011024 120.041637 
" clip-path="url(#p56bc5ec746)" style="fill: none; stroke: #555555; stroke-opacity: 0.9; stroke-width: 0.5; stroke-linecap: square"/>
   </g>
   <g id="line2d_11">
    <path d="M 59.125555 151.545868 
L 19.18282 214.554331 
" clip-path="url(#p56bc5ec746)" style="fill: none; stroke: #555555; stroke-opacity: 0.9; stroke-width: 0.5; stroke-linecap: square"/>
   </g>
   <g id="line2d_12">
    <path d="M 139.011024 214.554331 
L 178.953758 214.554331 
" clip-path="url(#p56bc5ec746)" style="fill: none; stroke: #555555; stroke-opacity: 0.9; stroke-width: 0.5; stroke-linecap: square"/>
   </g>
   <g id="line2d_13">
    <path d="M 139.011024 120.041637 
L 178.953758 214.554331 
" clip-path="url(#p56bc5ec746)" style="fill: none; stroke: #555555; stroke-opacity: 0.9; stroke-width: 0.5; stroke-linecap: square"/>
   </g>
   <g id="line2d_14">
    <path d="M 79.096922 120.041637 
L 139.011024 120.041637 
" clip-path="url(#p56bc5ec746)" style="fill: none; stroke: #555555; stroke-opacity: 0.9; stroke-width: 0.5; stroke-linecap: square"/>
   </g>
   <g id="line2d_15">
    <path d="M 218.896492 151.545868 
L 258.839227 214.554331 
" clip-path="url(#p56bc5ec746)" style="fill: none; stroke: #555555; stroke-opacity: 0.9; stroke-width: 0.5; stroke-linecap: square"/>
   </g>
   <g id="line2d_16">
    <path d="M 198.925125 120.041637 
L 198.925125 214.554331 
" clip-path="url(#p56bc5ec746)" style="fill: none; stroke: #555555; stroke-opacity: 0.9; stroke-width: 0.5; stroke-linecap: square"/>
   </g>
   <g id="line2d_17">
    <path d="M 79.096922 120.041637 
L 79.096922 214.554331 
" clip-path="url(#p56bc5ec746)" style="fill: none; stroke: #555555; stroke-opacity: 0.9; stroke-width: 0.5; stroke-linecap: square"/>
   </g>
   <g id="line2d_18">
    <path d="M 168.968074 72.78529 
L 139.011024 120.041637 
" clip-path="url(#p56bc5ec746)" style="fill: none; stroke: #555555; stroke-opacity: 0.9; stroke-width: 0.5; stroke-linecap: square"/>
   </g>
   <g id="line2d_19">
    <path d="M 115.045383 63.334021 
L 87.656079 106.539824 
" clip-path="url(#p56bc5ec746)" style="fill: none; stroke: #555555; stroke-opacity: 0.9; stroke-width: 0.5; stroke-linecap: square"/>
   </g>
   <g id="line2d_20">
    <path d="M 178.953758 214.554331 
L 198.925125 214.554331 
" clip-path="url(#p56bc5ec746)" style="fill: none; stroke: #555555; stroke-opacity: 0.9; stroke-width: 0.5; stroke-linecap: square"/>
   </g>
   <g id="line2d_21">
    <path d="M 168.968074 72.78529 
L 139.011024 25.528943 
" clip-path="url(#p56bc5ec746)" style="fill: none; stroke: #555555; stroke-opacity: 0.9; stroke-width: 0.5; stroke-linecap: square"/>
   </g>
   <g id="line2d_22">
    <path d="M 175.88124 83.690601 
L 198.925125 214.554331 
" clip-path="url(#p56bc5ec746)" style="fill: none; stroke: #555555; stroke-opacity: 0.9; stroke-width: 0.5; stroke-linecap: square"/>
   </g>
   <g id="line2d_23">
    <path d="M 198.925125 214.554331 
L 258.839227 214.554331 
" clip-path="url(#p56bc5ec746)" style="fill: none; stroke: #555555; stroke-opacity: 0.9; stroke-width: 0.5; stroke-linecap: square"/>
   </g>
   <g id="line2d_24">
    <path d="M 139.011024 214.554331 
L 139.011024 120.041637 
" clip-path="url(#p56bc5ec746)" style="fill: none; stroke: #555555; stroke-opacity: 0.9; stroke-width: 0.5; stroke-linecap: square"/>
   </g>
   <g id="line2d_25">
    <path d="M 139.011024 214.554331 
L 79.096922 214.554331 
" clip-path="url(#p56bc5ec746)" style="fill: none; stroke: #555555; stroke-opacity: 0.9; stroke-width: 0.5; stroke-linecap: square"/>
   </g>
   <g id="line2d_26">
    <path d="M 139.011024 120.041637 
L 79.096922 214.554331 
" clip-path="url(#p56bc5ec746)" style="fill: none; stroke: #555555; stroke-opacity: 0.9; stroke-width: 0.5; stroke-linecap: square"/>
   </g>
   <g id="line2d_27">
    <path d="M 198.925125 120.041637 
L 218.896492 151.545868 
" clip-path="url(#p56bc5ec746)" style="fill: none; stroke: #555555; stroke-opacity: 0.9; stroke-width: 0.5; stroke-linecap: square"/>
   </g>
   <g id="line2d_28">
    <path d="M 139.011024 120.041637 
L 139.011024 25.528943 
" clip-path="url(#p56bc5ec746)" style="fill: none; stroke: #555555; stroke-opacity: 0.9; stroke-width: 0.5; stroke-linecap: square"/>
   </g>
   <g id="line2d_29">
    <path d="M 198.925125 120.041637 
L 175.88124 83.690601 
" clip-path="url(#p56bc5ec746)" style="fill: none; stroke: #555555; stroke-opacity: 0.9; stroke-width: 0.5; stroke-linecap: square"/>
   </g>
   <g id="line2d_30">
    <path d="M 79.096922 120.041637 
L 87.656079 106.539824 
" clip-path="url(#p56bc5ec746)" style="fill: none; stroke: #555555; stroke-opacity: 0.9; stroke-width: 0.5; stroke-linecap: square"/>
   </g>
   <g id="PathCollection_1">
    <defs>
     <path id="ma5456e9958" d="M 0 2.738613 
C 0.726289 2.738613 1.422928 2.450055 1.936492 1.936492 
C 2.450055 1.422928 2.738613 0.726289 2.738613 0 
C 2.738613 -0.726289 2.450055 -1.422928 1.936492 -1.936492 
C 1.422928 -2.450055 0.726289 -2.738613 0 -2.738613 
C -0.726289 -2.738613 -1.422928 -2.450055 -1.936492 -1.936492 
C -2.450055 -1.422928 -2.738613 -0.726289 -2.738613 0 
C -2.738613 0.726289 -2.450055 1.422928 -1.936492 1.936492 
C -1.422928 2.450055 -0.726289 2.738613 0 2.738613 
z
" style="stroke: #008000"/>
    </defs>
    <g clip-path="url(#p56bc5ec746)">
     <use xlink:href="#ma5456e9958" x="59.125555" y="151.545868" style="fill: #008000; stroke: #008000"/>
     <use xlink:href="#ma5456e9958" x="79.096922" y="214.554331" style="fill: #008000; stroke: #008000"/>
     <use xlink:href="#ma5456e9958" x="175.88124" y="83.690601" style="fill: #008000; stroke: #008000"/>
     <use xlink:href="#ma5456e9958" x="178.953758" y="214.554331" style="fill: #008000; stroke: #008000"/>
     <use xlink:href="#ma5456e9958" x="218.896492" y="151.545868" style="fill: #008000; stroke: #008000"/>
     <use xlink:href="#ma5456e9958" x="198.925125" y="214.554331" style="fill: #008000; stroke: #008000"/>
     <use xlink:href="#ma5456e9958" x="19.18282" y="214.554331" style="fill: #008000; stroke: #008000"/>
     <use xlink:href="#ma5456e9958" x="139.011024" y="120.041637" style="fill: #008000; stroke: #008000"/>
     <use xlink:href="#ma5456e9958" x="87.656079" y="106.539824" style="fill: #008000; stroke: #008000"/>
     <use xlink:href="#ma5456e9958" x="79.096922" y="120.041637" style="fill: #008000; stroke: #008000"/>
     <use xlink:href="#ma5456e9958" x="168.968074" y="72.78529" style="fill: #008000; stroke: #008000"/>
     <use xlink:href="#ma5456e9958" x="115.045383" y="63.334021" style="fill: #008000; stroke: #008000"/>
     <use xlink:href="#ma5456e9958" x="139.011024" y="25.528943" style="fill: #008000; stroke: #008000"/>
     <use xlink:href="#ma5456e9958" x="139.011024" y="214.554331" style="fill: #008000; stroke: #008000"/>
     <use xlink:href="#ma5456e9958" x="258.839227" y="214.554331" style="fill: #008000; stroke: #008000"/>
     <use xlink:href="#ma5456e9958" x="198.925125" y="120.041637" style="fill: #008000; stroke: #008000"/>
    </g>
   </g>
   <g id="PathCollection_2">
    <defs>
     <path id="mce63ab9581" d="M -0 2.236068 
L 1.341641 0 
L 0 -2.236068 
L -1.341641 -0 
z
" style="stroke: #d3d3d3"/>
    </defs>
    <g clip-path="url(#p56bc5ec746)">
     <use xlink:href="#mce63ab9581" x="139.011024" y="25.528943" style="fill: #d3d3d3; stroke: #d3d3d3"/>
     <use xlink:href="#mce63ab9581" x="139.011024" y="25.528943" style="fill: #d3d3d3; stroke: #d3d3d3"/>
     <use xlink:href="#mce63ab9581" x="139.011024" y="25.528943" style="fill: #d3d3d3; stroke: #d3d3d3"/>
     <use xlink:href="#mce63ab9581" x="139.011024" y="25.528943" style="fill: #d3d3d3; stroke: #d3d3d3"/>
     <use xlink:href="#mce63ab9581" x="139.011024" y="25.528943" style="fill: #d3d3d3; stroke: #d3d3d3"/>
     <use xlink:href="#mce63ab9581" x="139.011024" y="25.528943" style="fill: #d3d3d3; stroke: #d3d3d3"/>
     <use xlink:href="#mce63ab9581" x="139.011024" y="25.528943" style="fill: #d3d3d3; stroke: #d3d3d3"/>
     <use xlink:href="#mce63ab9581" x="258.839227" y="214.554331" style="fill: #d3d3d3; stroke: #d3d3d3"/>
     <use xlink:href="#mce63ab9581" x="258.839227" y="214.554331" style="fill: #d3d3d3; stroke: #d3d3d3"/>
     <use xlink:href="#mce63ab9581" x="258.839227" y="214.554331" style="fill: #d3d3d3; stroke: #d3d3d3"/>
     <use xlink:href="#mce63ab9581" x="258.839227" y="214.554331" style="fill: #d3d3d3; stroke: #d3d3d3"/>
     <use xlink:href="#mce63ab9581" x="258.839227" y="214.554331" style="fill: #d3d3d3; stroke: #d3d3d3"/>
     <use xlink:href="#mce63ab9581" x="258.839227" y="214.554331" style="fill: #d3d3d3; stroke: #d3d3d3"/>
     <use xlink:href="#mce63ab9581" x="258.839227" y="214.554331" style="fill: #d3d3d3; stroke: #d3d3d3"/>
     <use xlink:href="#mce63ab9581" x="258.839227" y="214.554331" style="fill: #d3d3d3; stroke: #d3d3d3"/>
     <use xlink:href="#mce63ab9581" x="258.839227" y="214.554331" style="fill: #d3d3d3; stroke: #d3d3d3"/>
     <use xlink:href="#mce63ab9581" x="198.925125" y="120.041637" style="fill: #d3d3d3; stroke: #d3d3d3"/>
     <use xlink:href="#mce63ab9581" x="168.968074" y="72.78529" style="fill: #d3d3d3; stroke: #d3d3d3"/>
     <use xlink:href="#mce63ab9581" x="168.968074" y="72.78529" style="fill: #d3d3d3; stroke: #d3d3d3"/>
     <use xlink:href="#mce63ab9581" x="168.968074" y="72.78529" style="fill: #d3d3d3; stroke: #d3d3d3"/>
     <use xlink:href="#mce63ab9581" x="162.976664" y="63.334021" style="fill: #d3d3d3; stroke: #d3d3d3"/>
     <use xlink:href="#mce63ab9581" x="218.896492" y="151.545868" style="fill: #d3d3d3; stroke: #d3d3d3"/>
     <use xlink:href="#mce63ab9581" x="218.896492" y="151.545868" style="fill: #d3d3d3; stroke: #d3d3d3"/>
     <use xlink:href="#mce63ab9581" x="228.882176" y="167.297984" style="fill: #d3d3d3; stroke: #d3d3d3"/>
     <use xlink:href="#mce63ab9581" x="228.882176" y="167.297984" style="fill: #d3d3d3; stroke: #d3d3d3"/>
     <use xlink:href="#mce63ab9581" x="210.907946" y="138.944176" style="fill: #d3d3d3; stroke: #d3d3d3"/>
     <use xlink:href="#mce63ab9581" x="164.238014" y="65.323762" style="fill: #d3d3d3; stroke: #d3d3d3"/>
     <use xlink:href="#mce63ab9581" x="19.18282" y="214.554331" style="fill: #d3d3d3; stroke: #d3d3d3"/>
     <use xlink:href="#mce63ab9581" x="19.18282" y="214.554331" style="fill: #d3d3d3; stroke: #d3d3d3"/>
     <use xlink:href="#mce63ab9581" x="19.18282" y="214.554331" style="fill: #d3d3d3; stroke: #d3d3d3"/>
     <use xlink:href="#mce63ab9581" x="19.18282" y="214.554331" style="fill: #d3d3d3; stroke: #d3d3d3"/>
     <use xlink:href="#mce63ab9581" x="19.18282" y="214.554331" style="fill: #d3d3d3; stroke: #d3d3d3"/>
     <use xlink:href="#mce63ab9581" x="19.18282" y="214.554331" style="fill: #d3d3d3; stroke: #d3d3d3"/>
     <use xlink:href="#mce63ab9581" x="19.18282" y="214.554331" style="fill: #d3d3d3; stroke: #d3d3d3"/>
     <use xlink:href="#mce63ab9581" x="19.18282" y="214.554331" style="fill: #d3d3d3; stroke: #d3d3d3"/>
     <use xlink:href="#mce63ab9581" x="19.18282" y="214.554331" style="fill: #d3d3d3; stroke: #d3d3d3"/>
     <use xlink:href="#mce63ab9581" x="79.096922" y="120.041637" style="fill: #d3d3d3; stroke: #d3d3d3"/>
     <use xlink:href="#mce63ab9581" x="99.068289" y="88.537406" style="fill: #d3d3d3; stroke: #d3d3d3"/>
     <use xlink:href="#mce63ab9581" x="109.053973" y="72.78529" style="fill: #d3d3d3; stroke: #d3d3d3"/>
     <use xlink:href="#mce63ab9581" x="139.011024" y="214.554331" style="fill: #d3d3d3; stroke: #d3d3d3"/>
     <use xlink:href="#mce63ab9581" x="139.011024" y="214.554331" style="fill: #d3d3d3; stroke: #d3d3d3"/>
     <use xlink:href="#mce63ab9581" x="139.011024" y="151.545868" style="fill: #d3d3d3; stroke: #d3d3d3"/>
     <use xlink:href="#mce63ab9581" x="139.011024" y="120.041637" style="fill: #d3d3d3; stroke: #d3d3d3"/>
     <use xlink:href="#mce63ab9581" x="178.953758" y="214.554331" style="fill: #d3d3d3; stroke: #d3d3d3"/>
     <use xlink:href="#mce63ab9581" x="198.925125" y="214.554331" style="fill: #d3d3d3; stroke: #d3d3d3"/>
     <use xlink:href="#mce63ab9581" x="198.925125" y="214.554331" style="fill: #d3d3d3; stroke: #d3d3d3"/>
     <use xlink:href="#mce63ab9581" x="203.533902" y="156.392673" style="fill: #d3d3d3; stroke: #d3d3d3"/>
     <use xlink:href="#mce63ab9581" x="59.125555" y="151.545868" style="fill: #d3d3d3; stroke: #d3d3d3"/>
     <use xlink:href="#mce63ab9581" x="91.079742" y="101.139098" style="fill: #d3d3d3; stroke: #d3d3d3"/>
     <use xlink:href="#mce63ab9581" x="91.079742" y="101.139098" style="fill: #d3d3d3; stroke: #d3d3d3"/>
     <use xlink:href="#mce63ab9581" x="99.068289" y="214.554331" style="fill: #d3d3d3; stroke: #d3d3d3"/>
     <use xlink:href="#mce63ab9581" x="109.053973" y="167.297984" style="fill: #d3d3d3; stroke: #d3d3d3"/>
     <use xlink:href="#mce63ab9581" x="162.976664" y="214.554331" style="fill: #d3d3d3; stroke: #d3d3d3"/>
     <use xlink:href="#mce63ab9581" x="49.139871" y="167.297984" style="fill: #d3d3d3; stroke: #d3d3d3"/>
     <use xlink:href="#mce63ab9581" x="79.096922" y="214.554331" style="fill: #d3d3d3; stroke: #d3d3d3"/>
     <use xlink:href="#mce63ab9581" x="79.096922" y="214.554331" style="fill: #d3d3d3; stroke: #d3d3d3"/>
     <use xlink:href="#mce63ab9581" x="168.968074" y="214.554331" style="fill: #d3d3d3; stroke: #d3d3d3"/>
     <use xlink:href="#mce63ab9581" x="168.968074" y="214.554331" style="fill: #d3d3d3; stroke: #d3d3d3"/>
     <use xlink:href="#mce63ab9581" x="53.41945" y="160.547077" style="fill: #d3d3d3; stroke: #d3d3d3"/>
     <use xlink:href="#mce63ab9581" x="183.9466" y="214.554331" style="fill: #d3d3d3; stroke: #d3d3d3"/>
    </g>
   </g>
   <g id="PathCollection_3">
    <defs>
     <path id="m99f36c0c27" d="M 0 -5 
L -1.12257 -1.545085 
L -4.755283 -1.545085 
L -1.816356 0.59017 
L -2.938926 4.045085 
L -0 1.90983 
L 2.938926 4.045085 
L 1.816356 0.59017 
L 4.755283 -1.545085 
L 1.12257 -1.545085 
z
" style="stroke: #0000ff"/>
    </defs>
    <g clip-path="url(#p56bc5ec746)">
     <use xlink:href="#m99f36c0c27" x="203.533902" y="156.392673" style="fill: #0000ff; stroke: #0000ff"/>
    </g>
   </g>
   <g id="text_1">
    <!-- $\mathrm{Ti_{2}Cu}$ -->
    <g transform="translate(59.321009 154.831907) scale(0.1 -0.1)">
     <defs>
      <path id="DejaVuSans-54" d="M -19 4666 
L 3928 4666 
L 3928 4134 
L 2272 4134 
L 2272 0 
L 1638 0 
L 1638 4134 
L -19 4134 
L -19 4666 
z
" transform="scale(0.015625)"/>
      <path id="DejaVuSans-69" d="M 603 3500 
L 1178 3500 
L 1178 0 
L 603 0 
L 603 3500 
z
M 603 4863 
L 1178 4863 
L 1178 4134 
L 603 4134 
L 603 4863 
z
" transform="scale(0.015625)"/>
      <path id="DejaVuSans-32" d="M 1228 531 
L 3431 531 
L 3431 0 
L 469 0 
L 469 531 
Q 828 903 1448 1529 
Q 2069 2156 2228 2338 
Q 2531 2678 2651 2914 
Q 2772 3150 2772 3378 
Q 2772 3750 2511 3984 
Q 2250 4219 1831 4219 
Q 1534 4219 1204 4116 
Q 875 4013 500 3803 
L 500 4441 
Q 881 4594 1212 4672 
Q 1544 4750 1819 4750 
Q 2544 4750 2975 4387 
Q 3406 4025 3406 3419 
Q 3406 3131 3298 2873 
Q 3191 2616 2906 2266 
Q 2828 2175 2409 1742 
Q 1991 1309 1228 531 
z
" transform="scale(0.015625)"/>
      <path id="DejaVuSans-43" d="M 4122 4306 
L 4122 3641 
Q 3803 3938 3442 4084 
Q 3081 4231 2675 4231 
Q 1875 4231 1450 3742 
Q 1025 3253 1025 2328 
Q 1025 1406 1450 917 
Q 1875 428 2675 428 
Q 3081 428 3442 575 
Q 3803 722 4122 1019 
L 4122 359 
Q 3791 134 3420 21 
Q 3050 -91 2638 -91 
Q 1578 -91 968 557 
Q 359 1206 359 2328 
Q 359 3453 968 4101 
Q 1578 4750 2638 4750 
Q 3056 4750 3426 4639 
Q 3797 4528 4122 4306 
z
" transform="scale(0.015625)"/>
      <path id="DejaVuSans-75" d="M 544 1381 
L 544 3500 
L 1119 3500 
L 1119 1403 
Q 1119 906 1312 657 
Q 1506 409 1894 409 
Q 2359 409 2629 706 
Q 2900 1003 2900 1516 
L 2900 3500 
L 3475 3500 
L 3475 0 
L 2900 0 
L 2900 538 
Q 2691 219 2414 64 
Q 2138 -91 1772 -91 
Q 1169 -91 856 284 
Q 544 659 544 1381 
z
M 1991 3584 
L 1991 3584 
z
" transform="scale(0.015625)"/>
     </defs>
     <use xlink:href="#DejaVuSans-54" transform="translate(0 0.015625)"/>
     <use xlink:href="#DejaVuSans-69" transform="translate(61.083984 0.015625)"/>
     <use xlink:href="#DejaVuSans-32" transform="translate(89.824219 -16.390625) scale(0.7)"/>
     <use xlink:href="#DejaVuSans-43" transform="translate(137.094727 0.015625)"/>
     <use xlink:href="#DejaVuSans-75" transform="translate(206.918945 0.015625)"/>
    </g>
   </g>
   <g id="text_2">
    <!-- $\mathrm{Ti_{3}Al}$ -->
    <g transform="translate(71.97874 210.594971) scale(0.1 -0.1)">
     <defs>
      <path id="DejaVuSans-33" d="M 2597 2516 
Q 3050 2419 3304 2112 
Q 3559 1806 3559 1356 
Q 3559 666 3084 287 
Q 2609 -91 1734 -91 
Q 1441 -91 1130 -33 
Q 819 25 488 141 
L 488 750 
Q 750 597 1062 519 
Q 1375 441 1716 441 
Q 2309 441 2620 675 
Q 2931 909 2931 1356 
Q 2931 1769 2642 2001 
Q 2353 2234 1838 2234 
L 1294 2234 
L 1294 2753 
L 1863 2753 
Q 2328 2753 2575 2939 
Q 2822 3125 2822 3475 
Q 2822 3834 2567 4026 
Q 2313 4219 1838 4219 
Q 1578 4219 1281 4162 
Q 984 4106 628 3988 
L 628 4550 
Q 988 4650 1302 4700 
Q 1616 4750 1894 4750 
Q 2613 4750 3031 4423 
Q 3450 4097 3450 3541 
Q 3450 3153 3228 2886 
Q 3006 2619 2597 2516 
z
" transform="scale(0.015625)"/>
      <path id="DejaVuSans-41" d="M 2188 4044 
L 1331 1722 
L 3047 1722 
L 2188 4044 
z
M 1831 4666 
L 2547 4666 
L 4325 0 
L 3669 0 
L 3244 1197 
L 1141 1197 
L 716 0 
L 50 0 
L 1831 4666 
z
" transform="scale(0.015625)"/>
      <path id="DejaVuSans-6c" d="M 603 4863 
L 1178 4863 
L 1178 0 
L 603 0 
L 603 4863 
z
" transform="scale(0.015625)"/>
     </defs>
     <use xlink:href="#DejaVuSans-54" transform="translate(0 0.015625)"/>
     <use xlink:href="#DejaVuSans-69" transform="translate(61.083984 0.015625)"/>
     <use xlink:href="#DejaVuSans-33" transform="translate(89.824219 -16.390625) scale(0.7)"/>
     <use xlink:href="#DejaVuSans-41" transform="translate(137.094727 0.015625)"/>
     <use xlink:href="#DejaVuSans-6c" transform="translate(205.50293 0.015625)"/>
    </g>
   </g>
   <g id="text_3">
    <!-- $\mathrm{Al_{4}Cu_{9}}$ -->
    <g transform="translate(175.944876 87.026639) scale(0.1 -0.1)">
     <defs>
      <path id="DejaVuSans-34" d="M 2419 4116 
L 825 1625 
L 2419 1625 
L 2419 4116 
z
M 2253 4666 
L 3047 4666 
L 3047 1625 
L 3713 1625 
L 3713 1100 
L 3047 1100 
L 3047 0 
L 2419 0 
L 2419 1100 
L 313 1100 
L 313 1709 
L 2253 4666 
z
" transform="scale(0.015625)"/>
      <path id="DejaVuSans-39" d="M 703 97 
L 703 672 
Q 941 559 1184 500 
Q 1428 441 1663 441 
Q 2288 441 2617 861 
Q 2947 1281 2994 2138 
Q 2813 1869 2534 1725 
Q 2256 1581 1919 1581 
Q 1219 1581 811 2004 
Q 403 2428 403 3163 
Q 403 3881 828 4315 
Q 1253 4750 1959 4750 
Q 2769 4750 3195 4129 
Q 3622 3509 3622 2328 
Q 3622 1225 3098 567 
Q 2575 -91 1691 -91 
Q 1453 -91 1209 -44 
Q 966 3 703 97 
z
M 1959 2075 
Q 2384 2075 2632 2365 
Q 2881 2656 2881 3163 
Q 2881 3666 2632 3958 
Q 2384 4250 1959 4250 
Q 1534 4250 1286 3958 
Q 1038 3666 1038 3163 
Q 1038 2656 1286 2365 
Q 1534 2075 1959 2075 
z
" transform="scale(0.015625)"/>
     </defs>
     <use xlink:href="#DejaVuSans-41" transform="translate(0 0.015625)"/>
     <use xlink:href="#DejaVuSans-6c" transform="translate(68.408203 0.015625)"/>
     <use xlink:href="#DejaVuSans-34" transform="translate(97.148438 -16.390625) scale(0.7)"/>
     <use xlink:href="#DejaVuSans-43" transform="translate(144.418945 0.015625)"/>
     <use xlink:href="#DejaVuSans-75" transform="translate(214.243164 0.015625)"/>
     <use xlink:href="#DejaVuSans-39" transform="translate(278.579102 -16.390625) scale(0.7)"/>
    </g>
   </g>
   <g id="text_4">
    <!-- $\mathrm{TiAl_{2}}$ -->
    <g transform="translate(171.835576 210.544971) scale(0.1 -0.1)">
     <use xlink:href="#DejaVuSans-54" transform="translate(0 0.015625)"/>
     <use xlink:href="#DejaVuSans-69" transform="translate(61.083984 0.015625)"/>
     <use xlink:href="#DejaVuSans-41" transform="translate(88.867188 0.015625)"/>
     <use xlink:href="#DejaVuSans-6c" transform="translate(157.275391 0.015625)"/>
     <use xlink:href="#DejaVuSans-32" transform="translate(186.015625 -16.390625) scale(0.7)"/>
    </g>
   </g>
   <g id="text_5">
    <!-- $\mathrm{Al_{2}Cu}$ -->
    <g transform="translate(211.541947 147.420198) scale(0.1 -0.1)">
     <use xlink:href="#DejaVuSans-41" transform="translate(0 0.015625)"/>
     <use xlink:href="#DejaVuSans-6c" transform="translate(68.408203 0.015625)"/>
     <use xlink:href="#DejaVuSans-32" transform="translate(97.148438 -16.390625) scale(0.7)"/>
     <use xlink:href="#DejaVuSans-43" transform="translate(144.418945 0.015625)"/>
     <use xlink:href="#DejaVuSans-75" transform="translate(214.243164 0.015625)"/>
    </g>
   </g>
   <g id="text_6">
    <!-- $\mathrm{TiAl_{3}}$ -->
    <g transform="translate(195.734216 210.594971) scale(0.1 -0.1)">
     <use xlink:href="#DejaVuSans-54" transform="translate(0 0.015625)"/>
     <use xlink:href="#DejaVuSans-69" transform="translate(61.083984 0.015625)"/>
     <use xlink:href="#DejaVuSans-41" transform="translate(88.867188 0.015625)"/>
     <use xlink:href="#DejaVuSans-6c" transform="translate(157.275391 0.015625)"/>
     <use xlink:href="#DejaVuSans-33" transform="translate(186.015625 -16.390625) scale(0.7)"/>
    </g>
   </g>
   <g id="text_7">
    <!-- $\mathrm{Ti}$ -->
    <g transform="translate(19.654316 211.839411) scale(0.1 -0.1)">
     <use xlink:href="#DejaVuSans-54" transform="translate(0 0.015625)"/>
     <use xlink:href="#DejaVuSans-69" transform="translate(61.083984 0.015625)"/>
    </g>
   </g>
   <g id="text_8">
    <!-- $\mathrm{TiAlCu_{2}}$ -->
    <g transform="translate(108.879205 128.93952) scale(0.1 -0.1)">
     <use xlink:href="#DejaVuSans-54" transform="translate(0 0.015625)"/>
     <use xlink:href="#DejaVuSans-69" transform="translate(61.083984 0.015625)"/>
     <use xlink:href="#DejaVuSans-41" transform="translate(88.867188 0.015625)"/>
     <use xlink:href="#DejaVuSans-6c" transform="translate(157.275391 0.015625)"/>
     <use xlink:href="#DejaVuSans-43" transform="translate(185.058594 0.015625)"/>
     <use xlink:href="#DejaVuSans-75" transform="translate(254.882812 0.015625)"/>
     <use xlink:href="#DejaVuSans-32" transform="translate(319.21875 -16.390625) scale(0.7)"/>
    </g>
   </g>
   <g id="text_9">
    <!-- $\mathrm{Ti_{3}Cu_{4}}$ -->
    <g transform="translate(80.21517 102.393402) scale(0.1 -0.1)">
     <use xlink:href="#DejaVuSans-54" transform="translate(0 0.015625)"/>
     <use xlink:href="#DejaVuSans-69" transform="translate(61.083984 0.015625)"/>
     <use xlink:href="#DejaVuSans-33" transform="translate(89.824219 -16.390625) scale(0.7)"/>
     <use xlink:href="#DejaVuSans-43" transform="translate(137.094727 0.015625)"/>
     <use xlink:href="#DejaVuSans-75" transform="translate(206.918945 0.015625)"/>
     <use xlink:href="#DejaVuSans-34" transform="translate(271.254883 -16.390625) scale(0.7)"/>
    </g>
   </g>
   <g id="text_10">
    <!-- $\mathrm{TiCu}$ -->
    <g transform="translate(62.710558 128.238638) scale(0.1 -0.1)">
     <use xlink:href="#DejaVuSans-54" transform="translate(0 0.015625)"/>
     <use xlink:href="#DejaVuSans-69" transform="translate(61.083984 0.015625)"/>
     <use xlink:href="#DejaVuSans-43" transform="translate(88.867188 0.015625)"/>
     <use xlink:href="#DejaVuSans-75" transform="translate(158.691406 0.015625)"/>
    </g>
   </g>
   <g id="text_11">
    <!-- $\mathrm{AlCu_{3}}$ -->
    <g transform="translate(161.613529 68.638869) scale(0.1 -0.1)">
     <use xlink:href="#DejaVuSans-41" transform="translate(0 0.015625)"/>
     <use xlink:href="#DejaVuSans-6c" transform="translate(68.408203 0.015625)"/>
     <use xlink:href="#DejaVuSans-43" transform="translate(96.191406 0.015625)"/>
     <use xlink:href="#DejaVuSans-75" transform="translate(166.015625 0.015625)"/>
     <use xlink:href="#DejaVuSans-33" transform="translate(230.351562 -16.390625) scale(0.7)"/>
    </g>
   </g>
   <g id="text_12">
    <!-- $\mathrm{TiCu_{4}}$ -->
    <g transform="translate(93.640838 72.231904) scale(0.1 -0.1)">
     <use xlink:href="#DejaVuSans-54" transform="translate(0 0.015625)"/>
     <use xlink:href="#DejaVuSans-69" transform="translate(61.083984 0.015625)"/>
     <use xlink:href="#DejaVuSans-43" transform="translate(88.867188 0.015625)"/>
     <use xlink:href="#DejaVuSans-75" transform="translate(158.691406 0.015625)"/>
     <use xlink:href="#DejaVuSans-34" transform="translate(223.027344 -16.390625) scale(0.7)"/>
    </g>
   </g>
   <g id="text_13">
    <!-- $\mathrm{Cu}$ -->
    <g transform="translate(130.347387 33.102406) scale(0.1 -0.1)">
     <use xlink:href="#DejaVuSans-43" transform="translate(0 0.78125)"/>
     <use xlink:href="#DejaVuSans-75" transform="translate(69.824219 0.78125)"/>
    </g>
   </g>
   <g id="text_14">
    <!-- $\mathrm{TiAl}$ -->
    <g transform="translate(132.329205 211.215873) scale(0.1 -0.1)">
     <use xlink:href="#DejaVuSans-54" transform="translate(0 0.015625)"/>
     <use xlink:href="#DejaVuSans-69" transform="translate(61.083984 0.015625)"/>
     <use xlink:href="#DejaVuSans-41" transform="translate(88.867188 0.015625)"/>
     <use xlink:href="#DejaVuSans-6c" transform="translate(157.275391 0.015625)"/>
    </g>
   </g>
   <g id="text_15">
    <!-- $\mathrm{Al}$ -->
    <g transform="translate(249.389691 211.215873) scale(0.1 -0.1)">
     <use xlink:href="#DejaVuSans-41" transform="translate(0 0.015625)"/>
     <use xlink:href="#DejaVuSans-6c" transform="translate(68.408203 0.015625)"/>
    </g>
   </g>
   <g id="text_16">
    <!-- $\mathrm{AlCu}$ -->
    <g transform="translate(180.879671 127.6151) scale(0.1 -0.1)">
     <use xlink:href="#DejaVuSans-41" transform="translate(0 0.015625)"/>
     <use xlink:href="#DejaVuSans-6c" transform="translate(68.408203 0.015625)"/>
     <use xlink:href="#DejaVuSans-43" transform="translate(96.191406 0.015625)"/>
     <use xlink:href="#DejaVuSans-75" transform="translate(166.015625 0.015625)"/>
    </g>
   </g>
   <g id="text_17">
    <!-- $\mathrm{Ti(Al_{2}Cu)_{4}}$ -->
    <g style="fill: #0000ff" transform="translate(160.55663 165.914094) scale(0.1 -0.1)">
     <defs>
      <path id="DejaVuSans-28" d="M 1984 4856 
Q 1566 4138 1362 3434 
Q 1159 2731 1159 2009 
Q 1159 1288 1364 580 
Q 1569 -128 1984 -844 
L 1484 -844 
Q 1016 -109 783 600 
Q 550 1309 550 2009 
Q 550 2706 781 3412 
Q 1013 4119 1484 4856 
L 1984 4856 
z
" transform="scale(0.015625)"/>
      <path id="DejaVuSans-29" d="M 513 4856 
L 1013 4856 
Q 1481 4119 1714 3412 
Q 1947 2706 1947 2009 
Q 1947 1309 1714 600 
Q 1481 -109 1013 -844 
L 513 -844 
Q 928 -128 1133 580 
Q 1338 1288 1338 2009 
Q 1338 2731 1133 3434 
Q 928 4138 513 4856 
z
" transform="scale(0.015625)"/>
     </defs>
     <use xlink:href="#DejaVuSans-54" transform="translate(0 0.015625)"/>
     <use xlink:href="#DejaVuSans-69" transform="translate(61.083984 0.015625)"/>
     <use xlink:href="#DejaVuSans-28" transform="translate(88.867188 0.015625)"/>
     <use xlink:href="#DejaVuSans-41" transform="translate(127.880859 0.015625)"/>
     <use xlink:href="#DejaVuSans-6c" transform="translate(196.289062 0.015625)"/>
     <use xlink:href="#DejaVuSans-32" transform="translate(225.029297 -16.390625) scale(0.7)"/>
     <use xlink:href="#DejaVuSans-43" transform="translate(272.299805 0.015625)"/>
     <use xlink:href="#DejaVuSans-75" transform="translate(342.124023 0.015625)"/>
     <use xlink:href="#DejaVuSans-29" transform="translate(405.50293 0.015625)"/>
     <use xlink:href="#DejaVuSans-34" transform="translate(445.473633 -16.390625) scale(0.7)"/>
    </g>
   </g>
  </g>
  <g id="axes_2">
   <g id="patch_3">
    <path d="M 287.298425 195.703937 
L 296.029134 195.703937 
L 296.029134 36.96378 
L 287.298425 36.96378 
L 287.298425 195.703937 
z
" style="fill: none"/>
   </g>
   <g id="patch_4">
    <path d="M 287.298425 195.703937 
L 291.66378 203.640945 
L 296.029134 195.703937 
" style="fill: #440154; opacity: 0.7"/>
   </g>
   <g id="patch_5">
    <path d="M 287.298425 36.96378 
L 291.66378 29.026772 
L 296.029134 36.96378 
" style="fill: #fde725; opacity: 0.7"/>
   </g>
   <g id="QuadMesh_1">
    <path d="M 287.298425 195.703937 
L 296.029134 195.703937 
L 296.029134 191.924409 
L 287.298425 191.924409 
L 287.298425 195.703937 
" clip-path="url(#p4a22994cd9)" style="fill: #450559; fill-opacity: 0.7"/>
    <path d="M 287.298425 191.924409 
L 296.029134 191.924409 
L 296.029134 188.144882 
L 287.298425 188.144882 
L 287.298425 191.924409 
" clip-path="url(#p4a22994cd9)" style="fill: #470e61; fill-opacity: 0.7"/>
    <path d="M 287.298425 188.144882 
L 296.029134 188.144882 
L 296.029134 184.365354 
L 287.298425 184.365354 
L 287.298425 188.144882 
" clip-path="url(#p4a22994cd9)" style="fill: #481769; fill-opacity: 0.7"/>
    <path d="M 287.298425 184.365354 
L 296.029134 184.365354 
L 296.029134 180.585827 
L 287.298425 180.585827 
L 287.298425 184.365354 
" clip-path="url(#p4a22994cd9)" style="fill: #481f70; fill-opacity: 0.7"/>
    <path d="M 287.298425 180.585827 
L 296.029134 180.585827 
L 296.029134 176.806299 
L 287.298425 176.806299 
L 287.298425 180.585827 
" clip-path="url(#p4a22994cd9)" style="fill: #482677; fill-opacity: 0.7"/>
    <path d="M 287.298425 176.806299 
L 296.029134 176.806299 
L 296.029134 173.026772 
L 287.298425 173.026772 
L 287.298425 176.806299 
" clip-path="url(#p4a22994cd9)" style="fill: #472e7c; fill-opacity: 0.7"/>
    <path d="M 287.298425 173.026772 
L 296.029134 173.026772 
L 296.029134 169.247244 
L 287.298425 169.247244 
L 287.298425 173.026772 
" clip-path="url(#p4a22994cd9)" style="fill: #453581; fill-opacity: 0.7"/>
    <path d="M 287.298425 169.247244 
L 296.029134 169.247244 
L 296.029134 165.467717 
L 287.298425 165.467717 
L 287.298425 169.247244 
" clip-path="url(#p4a22994cd9)" style="fill: #433d84; fill-opacity: 0.7"/>
    <path d="M 287.298425 165.467717 
L 296.029134 165.467717 
L 296.029134 161.688189 
L 287.298425 161.688189 
L 287.298425 165.467717 
" clip-path="url(#p4a22994cd9)" style="fill: #414487; fill-opacity: 0.7"/>
    <path d="M 287.298425 161.688189 
L 296.029134 161.688189 
L 296.029134 157.908661 
L 287.298425 157.908661 
L 287.298425 161.688189 
" clip-path="url(#p4a22994cd9)" style="fill: #3e4a89; fill-opacity: 0.7"/>
    <path d="M 287.298425 157.908661 
L 296.029134 157.908661 
L 296.029134 154.129134 
L 287.298425 154.129134 
L 287.298425 157.908661 
" clip-path="url(#p4a22994cd9)" style="fill: #3b518b; fill-opacity: 0.7"/>
    <path d="M 287.298425 154.129134 
L 296.029134 154.129134 
L 296.029134 150.349606 
L 287.298425 150.349606 
L 287.298425 154.129134 
" clip-path="url(#p4a22994cd9)" style="fill: #38598c; fill-opacity: 0.7"/>
    <path d="M 287.298425 150.349606 
L 296.029134 150.349606 
L 296.029134 146.570079 
L 287.298425 146.570079 
L 287.298425 150.349606 
" clip-path="url(#p4a22994cd9)" style="fill: #355f8d; fill-opacity: 0.7"/>
    <path d="M 287.298425 146.570079 
L 296.029134 146.570079 
L 296.029134 142.790551 
L 287.298425 142.790551 
L 287.298425 146.570079 
" clip-path="url(#p4a22994cd9)" style="fill: #32658e; fill-opacity: 0.7"/>
    <path d="M 287.298425 142.790551 
L 296.029134 142.790551 
L 296.029134 139.011024 
L 287.298425 139.011024 
L 287.298425 142.790551 
" clip-path="url(#p4a22994cd9)" style="fill: #2f6b8e; fill-opacity: 0.7"/>
    <path d="M 287.298425 139.011024 
L 296.029134 139.011024 
L 296.029134 135.231496 
L 287.298425 135.231496 
L 287.298425 139.011024 
" clip-path="url(#p4a22994cd9)" style="fill: #2d718e; fill-opacity: 0.7"/>
    <path d="M 287.298425 135.231496 
L 296.029134 135.231496 
L 296.029134 131.451969 
L 287.298425 131.451969 
L 287.298425 135.231496 
" clip-path="url(#p4a22994cd9)" style="fill: #2a768e; fill-opacity: 0.7"/>
    <path d="M 287.298425 131.451969 
L 296.029134 131.451969 
L 296.029134 127.672441 
L 287.298425 127.672441 
L 287.298425 131.451969 
" clip-path="url(#p4a22994cd9)" style="fill: #287c8e; fill-opacity: 0.7"/>
    <path d="M 287.298425 127.672441 
L 296.029134 127.672441 
L 296.029134 123.892913 
L 287.298425 123.892913 
L 287.298425 127.672441 
" clip-path="url(#p4a22994cd9)" style="fill: #26828e; fill-opacity: 0.7"/>
    <path d="M 287.298425 123.892913 
L 296.029134 123.892913 
L 296.029134 120.113386 
L 287.298425 120.113386 
L 287.298425 123.892913 
" clip-path="url(#p4a22994cd9)" style="fill: #24878e; fill-opacity: 0.7"/>
    <path d="M 287.298425 120.113386 
L 296.029134 120.113386 
L 296.029134 116.333858 
L 287.298425 116.333858 
L 287.298425 120.113386 
" clip-path="url(#p4a22994cd9)" style="fill: #228d8d; fill-opacity: 0.7"/>
    <path d="M 287.298425 116.333858 
L 296.029134 116.333858 
L 296.029134 112.554331 
L 287.298425 112.554331 
L 287.298425 116.333858 
" clip-path="url(#p4a22994cd9)" style="fill: #20938c; fill-opacity: 0.7"/>
    <path d="M 287.298425 112.554331 
L 296.029134 112.554331 
L 296.029134 108.774803 
L 287.298425 108.774803 
L 287.298425 112.554331 
" clip-path="url(#p4a22994cd9)" style="fill: #1f998a; fill-opacity: 0.7"/>
    <path d="M 287.298425 108.774803 
L 296.029134 108.774803 
L 296.029134 104.995276 
L 287.298425 104.995276 
L 287.298425 108.774803 
" clip-path="url(#p4a22994cd9)" style="fill: #1f9f88; fill-opacity: 0.7"/>
    <path d="M 287.298425 104.995276 
L 296.029134 104.995276 
L 296.029134 101.215748 
L 287.298425 101.215748 
L 287.298425 104.995276 
" clip-path="url(#p4a22994cd9)" style="fill: #20a486; fill-opacity: 0.7"/>
    <path d="M 287.298425 101.215748 
L 296.029134 101.215748 
L 296.029134 97.43622 
L 287.298425 97.43622 
L 287.298425 101.215748 
" clip-path="url(#p4a22994cd9)" style="fill: #24aa83; fill-opacity: 0.7"/>
    <path d="M 287.298425 97.43622 
L 296.029134 97.43622 
L 296.029134 93.656693 
L 287.298425 93.656693 
L 287.298425 97.43622 
" clip-path="url(#p4a22994cd9)" style="fill: #29af7f; fill-opacity: 0.7"/>
    <path d="M 287.298425 93.656693 
L 296.029134 93.656693 
L 296.029134 89.877165 
L 287.298425 89.877165 
L 287.298425 93.656693 
" clip-path="url(#p4a22994cd9)" style="fill: #31b57b; fill-opacity: 0.7"/>
    <path d="M 287.298425 89.877165 
L 296.029134 89.877165 
L 296.029134 86.097638 
L 287.298425 86.097638 
L 287.298425 89.877165 
" clip-path="url(#p4a22994cd9)" style="fill: #3aba76; fill-opacity: 0.7"/>
    <path d="M 287.298425 86.097638 
L 296.029134 86.097638 
L 296.029134 82.31811 
L 287.298425 82.31811 
L 287.298425 86.097638 
" clip-path="url(#p4a22994cd9)" style="fill: #44bf70; fill-opacity: 0.7"/>
    <path d="M 287.298425 82.31811 
L 296.029134 82.31811 
L 296.029134 78.538583 
L 287.298425 78.538583 
L 287.298425 82.31811 
" clip-path="url(#p4a22994cd9)" style="fill: #50c46a; fill-opacity: 0.7"/>
    <path d="M 287.298425 78.538583 
L 296.029134 78.538583 
L 296.029134 74.759055 
L 287.298425 74.759055 
L 287.298425 78.538583 
" clip-path="url(#p4a22994cd9)" style="fill: #5ec962; fill-opacity: 0.7"/>
    <path d="M 287.298425 74.759055 
L 296.029134 74.759055 
L 296.029134 70.979528 
L 287.298425 70.979528 
L 287.298425 74.759055 
" clip-path="url(#p4a22994cd9)" style="fill: #6ccd5a; fill-opacity: 0.7"/>
    <path d="M 287.298425 70.979528 
L 296.029134 70.979528 
L 296.029134 67.2 
L 287.298425 67.2 
L 287.298425 70.979528 
" clip-path="url(#p4a22994cd9)" style="fill: #7ad151; fill-opacity: 0.7"/>
    <path d="M 287.298425 67.2 
L 296.029134 67.2 
L 296.029134 63.420472 
L 287.298425 63.420472 
L 287.298425 67.2 
" clip-path="url(#p4a22994cd9)" style="fill: #89d548; fill-opacity: 0.7"/>
    <path d="M 287.298425 63.420472 
L 296.029134 63.420472 
L 296.029134 59.640945 
L 287.298425 59.640945 
L 287.298425 63.420472 
" clip-path="url(#p4a22994cd9)" style="fill: #98d83e; fill-opacity: 0.7"/>
    <path d="M 287.298425 59.640945 
L 296.029134 59.640945 
L 296.029134 55.861417 
L 287.298425 55.861417 
L 287.298425 59.640945 
" clip-path="url(#p4a22994cd9)" style="fill: #a8db34; fill-opacity: 0.7"/>
    <path d="M 287.298425 55.861417 
L 296.029134 55.861417 
L 296.029134 52.08189 
L 287.298425 52.08189 
L 287.298425 55.861417 
" clip-path="url(#p4a22994cd9)" style="fill: #b8de29; fill-opacity: 0.7"/>
    <path d="M 287.298425 52.08189 
L 296.029134 52.08189 
L 296.029134 48.302362 
L 287.298425 48.302362 
L 287.298425 52.08189 
" clip-path="url(#p4a22994cd9)" style="fill: #c8e020; fill-opacity: 0.7"/>
    <path d="M 287.298425 48.302362 
L 296.029134 48.302362 
L 296.029134 44.522835 
L 287.298425 44.522835 
L 287.298425 48.302362 
" clip-path="url(#p4a22994cd9)" style="fill: #d8e219; fill-opacity: 0.7"/>
    <path d="M 287.298425 44.522835 
L 296.029134 44.522835 
L 296.029134 40.743307 
L 287.298425 40.743307 
L 287.298425 44.522835 
" clip-path="url(#p4a22994cd9)" style="fill: #e7e419; fill-opacity: 0.7"/>
    <path d="M 287.298425 40.743307 
L 296.029134 40.743307 
L 296.029134 36.96378 
L 287.298425 36.96378 
L 287.298425 40.743307 
" clip-path="url(#p4a22994cd9)" style="fill: #f6e620; fill-opacity: 0.7"/>
   </g>
   <g id="matplotlib.axis_3"/>
   <g id="matplotlib.axis_4">
    <g id="ytick_1">
     <g id="line2d_31">
      <defs>
       <path id="mf409b1b380" d="M 0 0 
L -2 0 
" style="stroke: #000000; stroke-width: 0.3"/>
      </defs>
      <g>
       <use xlink:href="#mf409b1b380" x="296.029134" y="188.144882" style="stroke: #000000; stroke-width: 0.3"/>
      </g>
     </g>
     <g id="text_18">
      <!-- 0.41 -->
      <g transform="translate(299.529134 191.008007) scale(0.08 -0.08)">
       <defs>
        <path id="ArialMT-2212" d="M 3381 1997 
L 356 1997 
L 356 2522 
L 3381 2522 
L 3381 1997 
z
" transform="scale(0.015625)"/>
        <path id="ArialMT-30" d="M 266 2259 
Q 266 3072 433 3567 
Q 600 4063 929 4331 
Q 1259 4600 1759 4600 
Q 2128 4600 2406 4451 
Q 2684 4303 2865 4023 
Q 3047 3744 3150 3342 
Q 3253 2941 3253 2259 
Q 3253 1453 3087 958 
Q 2922 463 2592 192 
Q 2263 -78 1759 -78 
Q 1097 -78 719 397 
Q 266 969 266 2259 
z
M 844 2259 
Q 844 1131 1108 757 
Q 1372 384 1759 384 
Q 2147 384 2411 759 
Q 2675 1134 2675 2259 
Q 2675 3391 2411 3762 
Q 2147 4134 1753 4134 
Q 1366 4134 1134 3806 
Q 844 3388 844 2259 
z
" transform="scale(0.015625)"/>
        <path id="ArialMT-2e" d="M 581 0 
L 581 641 
L 1222 641 
L 1222 0 
L 581 0 
z
" transform="scale(0.015625)"/>
        <path id="ArialMT-34" d="M 2069 0 
L 2069 1097 
L 81 1097 
L 81 1613 
L 2172 4581 
L 2631 4581 
L 2631 1613 
L 3250 1613 
L 3250 1097 
L 2631 1097 
L 2631 0 
L 2069 0 
z
M 2069 1613 
L 2069 3678 
L 634 1613 
L 2069 1613 
z
" transform="scale(0.015625)"/>
        <path id="ArialMT-31" d="M 2384 0 
L 1822 0 
L 1822 3584 
Q 1619 3391 1289 3197 
Q 959 3003 697 2906 
L 697 3450 
Q 1169 3672 1522 3987 
Q 1875 4303 2022 4600 
L 2384 4600 
L 2384 0 
z
" transform="scale(0.015625)"/>
       </defs>
       <use xlink:href="#ArialMT-2212"/>
       <use xlink:href="#ArialMT-30" transform="translate(58.398438 0)"/>
       <use xlink:href="#ArialMT-2e" transform="translate(114.013672 0)"/>
       <use xlink:href="#ArialMT-34" transform="translate(141.796875 0)"/>
       <use xlink:href="#ArialMT-31" transform="translate(197.412109 0)"/>
      </g>
     </g>
    </g>
    <g id="ytick_2">
     <g id="line2d_32">
      <g>
       <use xlink:href="#mf409b1b380" x="296.029134" y="169.247244" style="stroke: #000000; stroke-width: 0.3"/>
      </g>
     </g>
     <g id="text_19">
      <!-- 0.36 -->
      <g transform="translate(299.529134 172.110369) scale(0.08 -0.08)">
       <defs>
        <path id="ArialMT-33" d="M 269 1209 
L 831 1284 
Q 928 806 1161 595 
Q 1394 384 1728 384 
Q 2125 384 2398 659 
Q 2672 934 2672 1341 
Q 2672 1728 2419 1979 
Q 2166 2231 1775 2231 
Q 1616 2231 1378 2169 
L 1441 2663 
Q 1497 2656 1531 2656 
Q 1891 2656 2178 2843 
Q 2466 3031 2466 3422 
Q 2466 3731 2256 3934 
Q 2047 4138 1716 4138 
Q 1388 4138 1169 3931 
Q 950 3725 888 3313 
L 325 3413 
Q 428 3978 793 4289 
Q 1159 4600 1703 4600 
Q 2078 4600 2393 4439 
Q 2709 4278 2876 4000 
Q 3044 3722 3044 3409 
Q 3044 3113 2884 2869 
Q 2725 2625 2413 2481 
Q 2819 2388 3044 2092 
Q 3269 1797 3269 1353 
Q 3269 753 2831 336 
Q 2394 -81 1725 -81 
Q 1122 -81 723 278 
Q 325 638 269 1209 
z
" transform="scale(0.015625)"/>
        <path id="ArialMT-36" d="M 3184 3459 
L 2625 3416 
Q 2550 3747 2413 3897 
Q 2184 4138 1850 4138 
Q 1581 4138 1378 3988 
Q 1113 3794 959 3422 
Q 806 3050 800 2363 
Q 1003 2672 1297 2822 
Q 1591 2972 1913 2972 
Q 2475 2972 2870 2558 
Q 3266 2144 3266 1488 
Q 3266 1056 3080 686 
Q 2894 316 2569 119 
Q 2244 -78 1831 -78 
Q 1128 -78 684 439 
Q 241 956 241 2144 
Q 241 3472 731 4075 
Q 1159 4600 1884 4600 
Q 2425 4600 2770 4297 
Q 3116 3994 3184 3459 
z
M 888 1484 
Q 888 1194 1011 928 
Q 1134 663 1356 523 
Q 1578 384 1822 384 
Q 2178 384 2434 671 
Q 2691 959 2691 1453 
Q 2691 1928 2437 2201 
Q 2184 2475 1800 2475 
Q 1419 2475 1153 2201 
Q 888 1928 888 1484 
z
" transform="scale(0.015625)"/>
       </defs>
       <use xlink:href="#ArialMT-2212"/>
       <use xlink:href="#ArialMT-30" transform="translate(58.398438 0)"/>
       <use xlink:href="#ArialMT-2e" transform="translate(114.013672 0)"/>
       <use xlink:href="#ArialMT-33" transform="translate(141.796875 0)"/>
       <use xlink:href="#ArialMT-36" transform="translate(197.412109 0)"/>
      </g>
     </g>
    </g>
    <g id="ytick_3">
     <g id="line2d_33">
      <g>
       <use xlink:href="#mf409b1b380" x="296.029134" y="150.349606" style="stroke: #000000; stroke-width: 0.3"/>
      </g>
     </g>
     <g id="text_20">
      <!-- 0.31 -->
      <g transform="translate(299.529134 153.212731) scale(0.08 -0.08)">
       <use xlink:href="#ArialMT-2212"/>
       <use xlink:href="#ArialMT-30" transform="translate(58.398438 0)"/>
       <use xlink:href="#ArialMT-2e" transform="translate(114.013672 0)"/>
       <use xlink:href="#ArialMT-33" transform="translate(141.796875 0)"/>
       <use xlink:href="#ArialMT-31" transform="translate(197.412109 0)"/>
      </g>
     </g>
    </g>
    <g id="ytick_4">
     <g id="line2d_34">
      <g>
       <use xlink:href="#mf409b1b380" x="296.029134" y="131.451969" style="stroke: #000000; stroke-width: 0.3"/>
      </g>
     </g>
     <g id="text_21">
      <!-- 0.26 -->
      <g transform="translate(299.529134 134.315094) scale(0.08 -0.08)">
       <defs>
        <path id="ArialMT-32" d="M 3222 541 
L 3222 0 
L 194 0 
Q 188 203 259 391 
Q 375 700 629 1000 
Q 884 1300 1366 1694 
Q 2113 2306 2375 2664 
Q 2638 3022 2638 3341 
Q 2638 3675 2398 3904 
Q 2159 4134 1775 4134 
Q 1369 4134 1125 3890 
Q 881 3647 878 3216 
L 300 3275 
Q 359 3922 746 4261 
Q 1134 4600 1788 4600 
Q 2447 4600 2831 4234 
Q 3216 3869 3216 3328 
Q 3216 3053 3103 2787 
Q 2991 2522 2730 2228 
Q 2469 1934 1863 1422 
Q 1356 997 1212 845 
Q 1069 694 975 541 
L 3222 541 
z
" transform="scale(0.015625)"/>
       </defs>
       <use xlink:href="#ArialMT-2212"/>
       <use xlink:href="#ArialMT-30" transform="translate(58.398438 0)"/>
       <use xlink:href="#ArialMT-2e" transform="translate(114.013672 0)"/>
       <use xlink:href="#ArialMT-32" transform="translate(141.796875 0)"/>
       <use xlink:href="#ArialMT-36" transform="translate(197.412109 0)"/>
      </g>
     </g>
    </g>
    <g id="ytick_5">
     <g id="line2d_35">
      <g>
       <use xlink:href="#mf409b1b380" x="296.029134" y="112.554331" style="stroke: #000000; stroke-width: 0.3"/>
      </g>
     </g>
     <g id="text_22">
      <!-- 0.21 -->
      <g transform="translate(299.529134 115.417456) scale(0.08 -0.08)">
       <use xlink:href="#ArialMT-2212"/>
       <use xlink:href="#ArialMT-30" transform="translate(58.398438 0)"/>
       <use xlink:href="#ArialMT-2e" transform="translate(114.013672 0)"/>
       <use xlink:href="#ArialMT-32" transform="translate(141.796875 0)"/>
       <use xlink:href="#ArialMT-31" transform="translate(197.412109 0)"/>
      </g>
     </g>
    </g>
    <g id="ytick_6">
     <g id="line2d_36">
      <g>
       <use xlink:href="#mf409b1b380" x="296.029134" y="93.656693" style="stroke: #000000; stroke-width: 0.3"/>
      </g>
     </g>
     <g id="text_23">
      <!-- 0.16 -->
      <g transform="translate(299.529134 96.519818) scale(0.08 -0.08)">
       <use xlink:href="#ArialMT-2212"/>
       <use xlink:href="#ArialMT-30" transform="translate(58.398438 0)"/>
       <use xlink:href="#ArialMT-2e" transform="translate(114.013672 0)"/>
       <use xlink:href="#ArialMT-31" transform="translate(141.796875 0)"/>
       <use xlink:href="#ArialMT-36" transform="translate(197.412109 0)"/>
      </g>
     </g>
    </g>
    <g id="ytick_7">
     <g id="line2d_37">
      <g>
       <use xlink:href="#mf409b1b380" x="296.029134" y="74.759055" style="stroke: #000000; stroke-width: 0.3"/>
      </g>
     </g>
     <g id="text_24">
      <!-- 0.11 -->
      <g transform="translate(299.529134 77.62218) scale(0.08 -0.08)">
       <use xlink:href="#ArialMT-2212"/>
       <use xlink:href="#ArialMT-30" transform="translate(58.398438 0)"/>
       <use xlink:href="#ArialMT-2e" transform="translate(114.013672 0)"/>
       <use xlink:href="#ArialMT-31" transform="translate(141.796875 0)"/>
       <use xlink:href="#ArialMT-31" transform="translate(190.037109 0)"/>
      </g>
     </g>
    </g>
    <g id="ytick_8">
     <g id="line2d_38">
      <g>
       <use xlink:href="#mf409b1b380" x="296.029134" y="55.861417" style="stroke: #000000; stroke-width: 0.3"/>
      </g>
     </g>
     <g id="text_25">
      <!-- 0.06 -->
      <g transform="translate(299.529134 58.724542) scale(0.08 -0.08)">
       <use xlink:href="#ArialMT-2212"/>
       <use xlink:href="#ArialMT-30" transform="translate(58.398438 0)"/>
       <use xlink:href="#ArialMT-2e" transform="translate(114.013672 0)"/>
       <use xlink:href="#ArialMT-30" transform="translate(141.796875 0)"/>
       <use xlink:href="#ArialMT-36" transform="translate(197.412109 0)"/>
      </g>
     </g>
    </g>
    <g id="ytick_9">
     <g id="line2d_39">
      <g>
       <use xlink:href="#mf409b1b380" x="296.029134" y="36.96378" style="stroke: #000000; stroke-width: 0.3"/>
      </g>
     </g>
     <g id="text_26">
      <!-- 0.01 -->
      <g transform="translate(299.529134 39.826905) scale(0.08 -0.08)">
       <use xlink:href="#ArialMT-2212"/>
       <use xlink:href="#ArialMT-30" transform="translate(58.398438 0)"/>
       <use xlink:href="#ArialMT-2e" transform="translate(114.013672 0)"/>
       <use xlink:href="#ArialMT-30" transform="translate(141.796875 0)"/>
       <use xlink:href="#ArialMT-31" transform="translate(197.412109 0)"/>
      </g>
     </g>
    </g>
    <g id="text_27">
     <!-- Formation Energy (eV/atom) -->
     <g transform="translate(331.050071 179.408077) rotate(-90) scale(0.1 -0.1)">
      <defs>
       <path id="ArialMT-46" d="M 525 0 
L 525 4581 
L 3616 4581 
L 3616 4041 
L 1131 4041 
L 1131 2622 
L 3281 2622 
L 3281 2081 
L 1131 2081 
L 1131 0 
L 525 0 
z
" transform="scale(0.015625)"/>
       <path id="ArialMT-6f" d="M 213 1659 
Q 213 2581 725 3025 
Q 1153 3394 1769 3394 
Q 2453 3394 2887 2945 
Q 3322 2497 3322 1706 
Q 3322 1066 3130 698 
Q 2938 331 2570 128 
Q 2203 -75 1769 -75 
Q 1072 -75 642 372 
Q 213 819 213 1659 
z
M 791 1659 
Q 791 1022 1069 705 
Q 1347 388 1769 388 
Q 2188 388 2466 706 
Q 2744 1025 2744 1678 
Q 2744 2294 2464 2611 
Q 2184 2928 1769 2928 
Q 1347 2928 1069 2612 
Q 791 2297 791 1659 
z
" transform="scale(0.015625)"/>
       <path id="ArialMT-72" d="M 416 0 
L 416 3319 
L 922 3319 
L 922 2816 
Q 1116 3169 1280 3281 
Q 1444 3394 1641 3394 
Q 1925 3394 2219 3213 
L 2025 2691 
Q 1819 2813 1613 2813 
Q 1428 2813 1281 2702 
Q 1134 2591 1072 2394 
Q 978 2094 978 1738 
L 978 0 
L 416 0 
z
" transform="scale(0.015625)"/>
       <path id="ArialMT-6d" d="M 422 0 
L 422 3319 
L 925 3319 
L 925 2853 
Q 1081 3097 1340 3245 
Q 1600 3394 1931 3394 
Q 2300 3394 2536 3241 
Q 2772 3088 2869 2813 
Q 3263 3394 3894 3394 
Q 4388 3394 4653 3120 
Q 4919 2847 4919 2278 
L 4919 0 
L 4359 0 
L 4359 2091 
Q 4359 2428 4304 2576 
Q 4250 2725 4106 2815 
Q 3963 2906 3769 2906 
Q 3419 2906 3187 2673 
Q 2956 2441 2956 1928 
L 2956 0 
L 2394 0 
L 2394 2156 
Q 2394 2531 2256 2718 
Q 2119 2906 1806 2906 
Q 1569 2906 1367 2781 
Q 1166 2656 1075 2415 
Q 984 2175 984 1722 
L 984 0 
L 422 0 
z
" transform="scale(0.015625)"/>
       <path id="ArialMT-61" d="M 2588 409 
Q 2275 144 1986 34 
Q 1697 -75 1366 -75 
Q 819 -75 525 192 
Q 231 459 231 875 
Q 231 1119 342 1320 
Q 453 1522 633 1644 
Q 813 1766 1038 1828 
Q 1203 1872 1538 1913 
Q 2219 1994 2541 2106 
Q 2544 2222 2544 2253 
Q 2544 2597 2384 2738 
Q 2169 2928 1744 2928 
Q 1347 2928 1158 2789 
Q 969 2650 878 2297 
L 328 2372 
Q 403 2725 575 2942 
Q 747 3159 1072 3276 
Q 1397 3394 1825 3394 
Q 2250 3394 2515 3294 
Q 2781 3194 2906 3042 
Q 3031 2891 3081 2659 
Q 3109 2516 3109 2141 
L 3109 1391 
Q 3109 606 3145 398 
Q 3181 191 3288 0 
L 2700 0 
Q 2613 175 2588 409 
z
M 2541 1666 
Q 2234 1541 1622 1453 
Q 1275 1403 1131 1340 
Q 988 1278 909 1158 
Q 831 1038 831 891 
Q 831 666 1001 516 
Q 1172 366 1500 366 
Q 1825 366 2078 508 
Q 2331 650 2450 897 
Q 2541 1088 2541 1459 
L 2541 1666 
z
" transform="scale(0.015625)"/>
       <path id="ArialMT-74" d="M 1650 503 
L 1731 6 
Q 1494 -44 1306 -44 
Q 1000 -44 831 53 
Q 663 150 594 308 
Q 525 466 525 972 
L 525 2881 
L 113 2881 
L 113 3319 
L 525 3319 
L 525 4141 
L 1084 4478 
L 1084 3319 
L 1650 3319 
L 1650 2881 
L 1084 2881 
L 1084 941 
Q 1084 700 1114 631 
Q 1144 563 1211 522 
Q 1278 481 1403 481 
Q 1497 481 1650 503 
z
" transform="scale(0.015625)"/>
       <path id="ArialMT-69" d="M 425 3934 
L 425 4581 
L 988 4581 
L 988 3934 
L 425 3934 
z
M 425 0 
L 425 3319 
L 988 3319 
L 988 0 
L 425 0 
z
" transform="scale(0.015625)"/>
       <path id="ArialMT-6e" d="M 422 0 
L 422 3319 
L 928 3319 
L 928 2847 
Q 1294 3394 1984 3394 
Q 2284 3394 2536 3286 
Q 2788 3178 2913 3003 
Q 3038 2828 3088 2588 
Q 3119 2431 3119 2041 
L 3119 0 
L 2556 0 
L 2556 2019 
Q 2556 2363 2490 2533 
Q 2425 2703 2258 2804 
Q 2091 2906 1866 2906 
Q 1506 2906 1245 2678 
Q 984 2450 984 1813 
L 984 0 
L 422 0 
z
" transform="scale(0.015625)"/>
       <path id="ArialMT-20" transform="scale(0.015625)"/>
       <path id="ArialMT-45" d="M 506 0 
L 506 4581 
L 3819 4581 
L 3819 4041 
L 1113 4041 
L 1113 2638 
L 3647 2638 
L 3647 2100 
L 1113 2100 
L 1113 541 
L 3925 541 
L 3925 0 
L 506 0 
z
" transform="scale(0.015625)"/>
       <path id="ArialMT-65" d="M 2694 1069 
L 3275 997 
Q 3138 488 2766 206 
Q 2394 -75 1816 -75 
Q 1088 -75 661 373 
Q 234 822 234 1631 
Q 234 2469 665 2931 
Q 1097 3394 1784 3394 
Q 2450 3394 2872 2941 
Q 3294 2488 3294 1666 
Q 3294 1616 3291 1516 
L 816 1516 
Q 847 969 1125 678 
Q 1403 388 1819 388 
Q 2128 388 2347 550 
Q 2566 713 2694 1069 
z
M 847 1978 
L 2700 1978 
Q 2663 2397 2488 2606 
Q 2219 2931 1791 2931 
Q 1403 2931 1139 2672 
Q 875 2413 847 1978 
z
" transform="scale(0.015625)"/>
       <path id="ArialMT-67" d="M 319 -275 
L 866 -356 
Q 900 -609 1056 -725 
Q 1266 -881 1628 -881 
Q 2019 -881 2231 -725 
Q 2444 -569 2519 -288 
Q 2563 -116 2559 434 
Q 2191 0 1641 0 
Q 956 0 581 494 
Q 206 988 206 1678 
Q 206 2153 378 2554 
Q 550 2956 876 3175 
Q 1203 3394 1644 3394 
Q 2231 3394 2613 2919 
L 2613 3319 
L 3131 3319 
L 3131 450 
Q 3131 -325 2973 -648 
Q 2816 -972 2473 -1159 
Q 2131 -1347 1631 -1347 
Q 1038 -1347 672 -1080 
Q 306 -813 319 -275 
z
M 784 1719 
Q 784 1066 1043 766 
Q 1303 466 1694 466 
Q 2081 466 2343 764 
Q 2606 1063 2606 1700 
Q 2606 2309 2336 2618 
Q 2066 2928 1684 2928 
Q 1309 2928 1046 2623 
Q 784 2319 784 1719 
z
" transform="scale(0.015625)"/>
       <path id="ArialMT-79" d="M 397 -1278 
L 334 -750 
Q 519 -800 656 -800 
Q 844 -800 956 -737 
Q 1069 -675 1141 -563 
Q 1194 -478 1313 -144 
Q 1328 -97 1363 -6 
L 103 3319 
L 709 3319 
L 1400 1397 
Q 1534 1031 1641 628 
Q 1738 1016 1872 1384 
L 2581 3319 
L 3144 3319 
L 1881 -56 
Q 1678 -603 1566 -809 
Q 1416 -1088 1222 -1217 
Q 1028 -1347 759 -1347 
Q 597 -1347 397 -1278 
z
" transform="scale(0.015625)"/>
       <path id="ArialMT-28" d="M 1497 -1347 
Q 1031 -759 709 28 
Q 388 816 388 1659 
Q 388 2403 628 3084 
Q 909 3875 1497 4659 
L 1900 4659 
Q 1522 4009 1400 3731 
Q 1209 3300 1100 2831 
Q 966 2247 966 1656 
Q 966 153 1900 -1347 
L 1497 -1347 
z
" transform="scale(0.015625)"/>
       <path id="ArialMT-56" d="M 1803 0 
L 28 4581 
L 684 4581 
L 1875 1253 
Q 2019 853 2116 503 
Q 2222 878 2363 1253 
L 3600 4581 
L 4219 4581 
L 2425 0 
L 1803 0 
z
" transform="scale(0.015625)"/>
       <path id="ArialMT-2f" d="M 0 -78 
L 1328 4659 
L 1778 4659 
L 453 -78 
L 0 -78 
z
" transform="scale(0.015625)"/>
       <path id="ArialMT-29" d="M 791 -1347 
L 388 -1347 
Q 1322 153 1322 1656 
Q 1322 2244 1188 2822 
Q 1081 3291 891 3722 
Q 769 4003 388 4659 
L 791 4659 
Q 1378 3875 1659 3084 
Q 1900 2403 1900 1659 
Q 1900 816 1576 28 
Q 1253 -759 791 -1347 
z
" transform="scale(0.015625)"/>
      </defs>
      <use xlink:href="#ArialMT-46"/>
      <use xlink:href="#ArialMT-6f" transform="translate(61.083984 0)"/>
      <use xlink:href="#ArialMT-72" transform="translate(116.699219 0)"/>
      <use xlink:href="#ArialMT-6d" transform="translate(150 0)"/>
      <use xlink:href="#ArialMT-61" transform="translate(233.300781 0)"/>
      <use xlink:href="#ArialMT-74" transform="translate(288.916016 0)"/>
      <use xlink:href="#ArialMT-69" transform="translate(316.699219 0)"/>
      <use xlink:href="#ArialMT-6f" transform="translate(338.916016 0)"/>
      <use xlink:href="#ArialMT-6e" transform="translate(394.53125 0)"/>
      <use xlink:href="#ArialMT-20" transform="translate(450.146484 0)"/>
      <use xlink:href="#ArialMT-45" transform="translate(477.929688 0)"/>
      <use xlink:href="#ArialMT-6e" transform="translate(544.628906 0)"/>
      <use xlink:href="#ArialMT-65" transform="translate(600.244141 0)"/>
      <use xlink:href="#ArialMT-72" transform="translate(655.859375 0)"/>
      <use xlink:href="#ArialMT-67" transform="translate(689.160156 0)"/>
      <use xlink:href="#ArialMT-79" transform="translate(744.775391 0)"/>
      <use xlink:href="#ArialMT-20" transform="translate(794.775391 0)"/>
      <use xlink:href="#ArialMT-28" transform="translate(822.558594 0)"/>
      <use xlink:href="#ArialMT-65" transform="translate(855.859375 0)"/>
      <use xlink:href="#ArialMT-56" transform="translate(911.474609 0)"/>
      <use xlink:href="#ArialMT-2f" transform="translate(978.173828 0)"/>
      <use xlink:href="#ArialMT-61" transform="translate(1005.957031 0)"/>
      <use xlink:href="#ArialMT-74" transform="translate(1061.572266 0)"/>
      <use xlink:href="#ArialMT-6f" transform="translate(1089.355469 0)"/>
      <use xlink:href="#ArialMT-6d" transform="translate(1144.970703 0)"/>
      <use xlink:href="#ArialMT-29" transform="translate(1228.271484 0)"/>
     </g>
    </g>
   </g>
   <g id="LineCollection_1"/>
   <g id="patch_6">
    <path d="M 287.298425 195.703937 
L 291.66378 203.640945 
L 296.029134 195.703937 
L 296.029134 36.96378 
L 291.66378 29.026772 
L 287.298425 36.96378 
L 287.298425 195.703937 
z
" style="fill: none; stroke: #000000; stroke-width: 0.8; stroke-linejoin: miter; stroke-linecap: square"/>
   </g>
  </g>
 </g>
 <defs>
  <clipPath id="p56bc5ec746">
   <rect x="7.2" y="7.2" width="263.622047" height="218.267717"/>
  </clipPath>
  <clipPath id="p4a22994cd9">
   <rect x="287.298425" y="36.96378" width="8.730709" height="158.740157"/>
  </clipPath>
 </defs>
</svg>
