<?xml version="1.0" encoding="utf-8" standalone="no"?>
<!DOCTYPE svg PUBLIC "-//W3C//DTD SVG 1.1//EN"
  "http://www.w3.org/Graphics/SVG/1.1/DTD/svg11.dtd">
<svg xmlns:xlink="http://www.w3.org/1999/xlink" width="340.354759pt" height="232.667717pt" viewBox="0 0 340.354759 232.667717" xmlns="http://www.w3.org/2000/svg" version="1.1">
 <metadata>
  <rdf:RDF xmlns:dc="http://purl.org/dc/elements/1.1/" xmlns:cc="http://creativecommons.org/ns#" xmlns:rdf="http://www.w3.org/1999/02/22-rdf-syntax-ns#">
   <cc:Work>
    <dc:type rdf:resource="http://purl.org/dc/dcmitype/StillImage"/>
    <dc:date>2026-01-27T21:37:18.385491</dc:date>
    <dc:format>image/svg+xml</dc:format>
    <dc:creator>
     <cc:Agent>
      <dc:title>Matplotlib v3.10.8, https://matplotlib.org/</dc:title>
     </cc:Agent>
    </dc:creator>
   </cc:Work>
  </rdf:RDF>
 </metadata>
 <defs>
  <style type="text/css">*{stroke-linejoin: round; stroke-linecap: butt}</style>
 </defs>
 <g id="figure_1">
  <g id="patch_1">
   <path d="M 0 232.667717 
L 340.354759 232.667717 
L 340.354759 0 
L 0 0 
L 0 232.667717 
z
" style="fill: none"/>
  </g>
  <g id="axes_1">
   <g id="patch_2">
    <path d="M 7.2 225.467717 
L 270.822047 225.467717 
L 270.822047 7.2 
L 7.2 7.2 
L 7.2 225.467717 
z
" style="fill: none"/>
   </g>
   <g id="TriContourSet_1">
    <path d="M 77.165345 123.088642 
L 81.080372 123.17047 
L 82.653933 121.911996 
L 80.282592 118.171278 
L 79.096922 120.041637 
z
" clip-path="url(#p2cd9a2fc59)" style="fill: #440154; fill-opacity: 0.7"/>
    <path d="M 80.282592 118.171278 
L 82.653933 121.911996 
L 81.080372 123.17047 
L 77.165345 123.088642 
L 75.129716 126.299785 
L 83.170669 126.467851 
L 86.402556 123.88311 
L 81.532133 116.200164 
z
" clip-path="url(#p2cd9a2fc59)" style="fill: #450457; fill-opacity: 0.7"/>
    <path d="M 81.532133 116.200164 
L 86.402556 123.88311 
L 83.170669 126.467851 
L 75.129716 126.299785 
L 73.094087 129.510929 
L 85.260966 129.765231 
L 90.151179 125.854223 
L 82.781674 114.229051 
z
" clip-path="url(#p2cd9a2fc59)" style="fill: #470d60; fill-opacity: 0.7"/>
    <path d="M 82.781674 114.229051 
L 90.151179 125.854223 
L 85.260966 129.765231 
L 73.094087 129.510929 
L 71.058458 132.722073 
L 87.351263 133.062611 
L 93.899802 127.825337 
L 84.031215 112.257937 
z
" clip-path="url(#p2cd9a2fc59)" style="fill: #481467; fill-opacity: 0.7"/>
    <path d="M 84.031215 112.257937 
L 93.899802 127.825337 
L 87.351263 133.062611 
L 71.058458 132.722073 
L 69.022829 135.933216 
L 89.441559 136.359992 
L 97.648426 129.79645 
L 85.280757 110.286824 
z
" clip-path="url(#p2cd9a2fc59)" style="fill: #481c6e; fill-opacity: 0.7"/>
    <path d="M 85.280757 110.286824 
L 97.648426 129.79645 
L 89.441559 136.359992 
L 69.022829 135.933216 
L 66.9872 139.14436 
L 91.531856 139.657372 
L 101.397049 131.767564 
L 86.530298 108.31571 
z
" clip-path="url(#p2cd9a2fc59)" style="fill: #482475; fill-opacity: 0.7"/>
    <path d="M 86.530298 108.31571 
L 101.397049 131.767564 
L 91.531856 139.657372 
L 66.9872 139.14436 
L 64.951571 142.355504 
L 93.622153 142.954752 
L 105.145672 133.738677 
L 87.779839 106.344597 
z
" clip-path="url(#p2cd9a2fc59)" style="fill: #472a7a; fill-opacity: 0.7"/>
    <path d="M 87.779839 106.344597 
L 105.145672 133.738677 
L 93.622153 142.954752 
L 64.951571 142.355504 
L 62.915941 145.566647 
L 95.71245 146.252133 
L 108.894296 135.709791 
L 89.02938 104.373483 
z
" clip-path="url(#p2cd9a2fc59)" style="fill: #46327e; fill-opacity: 0.7"/>
    <path d="M 89.02938 104.373483 
L 108.894296 135.709791 
L 95.71245 146.252133 
L 62.915941 145.566647 
L 60.880312 148.777791 
L 97.802747 149.549513 
L 112.642919 137.680904 
L 90.278921 102.40237 
z
" clip-path="url(#p2cd9a2fc59)" style="fill: #453882; fill-opacity: 0.7"/>
    <path d="M 90.278921 102.40237 
L 112.642919 137.680904 
L 97.802747 149.549513 
L 60.880312 148.777791 
L 58.844683 151.988935 
L 99.893043 152.846893 
L 116.391542 139.652018 
L 91.528462 100.431256 
z
" clip-path="url(#p2cd9a2fc59)" style="fill: #423f85; fill-opacity: 0.7"/>
    <path d="M 91.528462 100.431256 
L 116.391542 139.652018 
L 99.893043 152.846893 
L 58.844683 151.988935 
L 56.809054 155.200078 
L 101.98334 156.144274 
L 120.140165 141.623131 
L 92.778003 98.460143 
z
" clip-path="url(#p2cd9a2fc59)" style="fill: #404588; fill-opacity: 0.7"/>
    <path d="M 92.778003 98.460143 
L 120.140165 141.623131 
L 101.98334 156.144274 
L 56.809054 155.200078 
L 54.773425 158.411222 
L 104.073637 159.441654 
L 123.888789 143.594245 
L 94.027544 96.489029 
z
" clip-path="url(#p2cd9a2fc59)" style="fill: #3e4c8a; fill-opacity: 0.7"/>
    <path d="M 94.027544 96.489029 
L 123.888789 143.594245 
L 104.073637 159.441654 
L 54.773425 158.411222 
L 52.737796 161.622366 
L 106.163934 162.739034 
L 127.637412 145.565358 
L 95.277085 94.517916 
z
" clip-path="url(#p2cd9a2fc59)" style="fill: #3b518b; fill-opacity: 0.7"/>
    <path d="M 95.277085 94.517916 
L 127.637412 145.565358 
L 106.163934 162.739034 
L 52.737796 161.622366 
L 50.702167 164.833509 
L 108.254231 166.036415 
L 131.386035 147.536472 
L 96.526626 92.546802 
z
" clip-path="url(#p2cd9a2fc59)" style="fill: #38588c; fill-opacity: 0.7"/>
    <path d="M 48.867881 167.727041 
L 50.066121 167.785027 
L 109.86002 168.569499 
L 111.076572 168.554883 
L 111.352106 168.506396 
L 111.804864 168.165873 
L 135.134659 149.507585 
L 97.776167 90.575689 
L 96.526626 92.546802 
L 131.386035 147.536472 
L 108.254231 166.036415 
L 50.702167 164.833509 
L 49.139871 167.297984 
z
" clip-path="url(#p2cd9a2fc59)" style="fill: #355e8d; fill-opacity: 0.7"/>
    <path d="M 47.698152 169.572253 
L 54.049572 169.879619 
L 111.165565 170.628958 
L 114.352554 170.590668 
L 115.074367 170.463647 
L 116.260451 169.571584 
L 138.883282 151.478699 
L 99.025709 88.604575 
L 97.776167 90.575689 
L 135.134659 149.507585 
L 111.804864 168.165873 
L 111.352106 168.506396 
L 111.076572 168.554883 
L 109.86002 168.569499 
L 50.066121 167.785027 
L 48.867881 167.727041 
z
" clip-path="url(#p2cd9a2fc59)" style="fill: #33638d; fill-opacity: 0.7"/>
    <path d="M 46.528423 171.417466 
L 58.033023 171.974211 
L 112.471111 172.688416 
L 117.628535 172.626453 
L 118.796627 172.420899 
L 120.716037 170.977295 
L 142.631905 153.449812 
L 100.27525 86.633462 
L 99.025709 88.604575 
L 138.883282 151.478699 
L 116.260451 169.571584 
L 115.074367 170.463647 
L 114.352554 170.590668 
L 111.165565 170.628958 
L 54.049572 169.879619 
L 47.698152 169.572253 
z
" clip-path="url(#p2cd9a2fc59)" style="fill: #30698e; fill-opacity: 0.7"/>
    <path d="M 45.358693 173.262678 
L 62.016475 174.068802 
L 113.776656 174.747875 
L 120.904517 174.662238 
L 122.518888 174.37815 
L 125.171624 172.383006 
L 146.380528 155.420926 
L 101.524791 84.662348 
L 100.27525 86.633462 
L 142.631905 153.449812 
L 120.716037 170.977295 
L 118.796627 172.420899 
L 117.628535 172.626453 
L 112.471111 172.688416 
L 58.033023 171.974211 
L 46.528423 171.417466 
z
" clip-path="url(#p2cd9a2fc59)" style="fill: #2e6e8e; fill-opacity: 0.7"/>
    <path d="M 44.188964 175.10789 
L 65.999926 176.163394 
L 115.082201 176.807333 
L 124.180498 176.698024 
L 126.241148 176.335401 
L 129.627211 173.788717 
L 150.129152 157.392039 
L 102.774332 82.691235 
L 101.524791 84.662348 
L 146.380528 155.420926 
L 125.171624 172.383006 
L 122.518888 174.37815 
L 120.904517 174.662238 
L 113.776656 174.747875 
L 62.016475 174.068802 
L 45.358693 173.262678 
z
" clip-path="url(#p2cd9a2fc59)" style="fill: #2c738e; fill-opacity: 0.7"/>
    <path d="M 43.019235 176.953103 
L 69.983378 178.257985 
L 116.387747 178.866792 
L 127.45648 178.733809 
L 129.963409 178.292653 
L 134.082798 175.194428 
L 153.877775 159.363153 
L 104.023873 80.720121 
L 102.774332 82.691235 
L 150.129152 157.392039 
L 129.627211 173.788717 
L 126.241148 176.335401 
L 124.180498 176.698024 
L 115.082201 176.807333 
L 65.999926 176.163394 
L 44.188964 175.10789 
z
" clip-path="url(#p2cd9a2fc59)" style="fill: #2a788e; fill-opacity: 0.7"/>
    <path d="M 41.849506 178.798315 
L 73.966829 180.352577 
L 117.693292 180.92625 
L 130.732461 180.769594 
L 133.685669 180.249904 
L 138.538384 176.600138 
L 157.626398 161.334266 
L 105.273414 78.749008 
L 104.023873 80.720121 
L 153.877775 159.363153 
L 134.082798 175.194428 
L 129.963409 178.292653 
L 127.45648 178.733809 
L 116.387747 178.866792 
L 69.983378 178.257985 
L 43.019235 176.953103 
z
" clip-path="url(#p2cd9a2fc59)" style="fill: #277e8e; fill-opacity: 0.7"/>
    <path d="M 40.763989 180.510686 
L 41.800185 180.677314 
L 42.530163 180.733074 
L 77.95028 182.447169 
L 118.998838 182.985709 
L 134.008443 182.805379 
L 137.407929 182.207155 
L 142.993971 178.005849 
L 161.375021 163.30538 
L 106.522955 76.777894 
L 105.273414 78.749008 
L 157.626398 161.334266 
L 138.538384 176.600138 
L 133.685669 180.249904 
L 130.732461 180.769594 
L 117.693292 180.92625 
L 73.966829 180.352577 
L 41.849506 178.798315 
L 40.969766 180.186078 
z
" clip-path="url(#p2cd9a2fc59)" style="fill: #25838e; fill-opacity: 0.7"/>
    <path d="M 39.933944 181.820057 
L 45.149846 182.65881 
L 48.824335 182.939489 
L 81.933732 184.54176 
L 120.304383 185.045167 
L 137.284424 184.841164 
L 141.13019 184.164407 
L 147.449558 179.41156 
L 165.123645 165.276493 
L 107.772496 74.806781 
L 106.522955 76.777894 
L 161.375021 163.30538 
L 142.993971 178.005849 
L 137.407929 182.207155 
L 134.008443 182.805379 
L 118.998838 182.985709 
L 77.95028 182.447169 
L 42.530163 180.733074 
L 41.800185 180.677314 
L 40.763989 180.510686 
z
" clip-path="url(#p2cd9a2fc59)" style="fill: #23888e; fill-opacity: 0.7"/>
    <path d="M 39.103899 183.129428 
L 48.499506 184.640305 
L 55.118507 185.145903 
L 85.917183 186.636352 
L 121.609928 187.104626 
L 140.560406 186.876949 
L 144.85245 186.121658 
L 151.905145 180.817271 
L 168.872268 167.247607 
L 109.022037 72.835667 
L 107.772496 74.806781 
L 165.123645 165.276493 
L 147.449558 179.41156 
L 141.13019 184.164407 
L 137.284424 184.841164 
L 120.304383 185.045167 
L 81.933732 184.54176 
L 48.824335 182.939489 
L 45.149846 182.65881 
L 39.933944 181.820057 
z
" clip-path="url(#p2cd9a2fc59)" style="fill: #218e8d; fill-opacity: 0.7"/>
    <path d="M 38.273854 184.438799 
L 51.849167 186.621801 
L 61.412679 187.352318 
L 89.900635 188.730943 
L 122.915474 189.164085 
L 143.836387 188.912734 
L 148.574711 188.078909 
L 156.360731 182.222982 
L 172.620891 169.21872 
L 110.271578 70.864554 
L 109.022037 72.835667 
L 168.872268 167.247607 
L 151.905145 180.817271 
L 144.85245 186.121658 
L 140.560406 186.876949 
L 121.609928 187.104626 
L 85.917183 186.636352 
L 55.118507 185.145903 
L 48.499506 184.640305 
L 39.103899 183.129428 
z
" clip-path="url(#p2cd9a2fc59)" style="fill: #20928c; fill-opacity: 0.7"/>
    <path d="M 37.443809 185.74817 
L 55.198828 188.603297 
L 67.706851 189.558733 
L 93.884086 190.825535 
L 124.221019 191.223543 
L 147.112369 190.948519 
L 152.296971 190.03616 
L 160.816318 183.628693 
L 176.369515 171.189834 
L 111.52112 68.89344 
L 110.271578 70.864554 
L 172.620891 169.21872 
L 156.360731 182.222982 
L 148.574711 188.078909 
L 143.836387 188.912734 
L 122.915474 189.164085 
L 89.900635 188.730943 
L 61.412679 187.352318 
L 51.849167 186.621801 
L 38.273854 184.438799 
z
" clip-path="url(#p2cd9a2fc59)" style="fill: #1f988b; fill-opacity: 0.7"/>
    <path d="M 36.613764 187.057541 
L 58.548488 190.584793 
L 74.001023 191.765148 
L 97.867537 192.920127 
L 125.526564 193.283002 
L 150.38835 192.984305 
L 156.019232 191.993412 
L 165.271905 185.034403 
L 180.118138 173.160947 
L 112.770661 66.922327 
L 111.52112 68.89344 
L 176.369515 171.189834 
L 160.816318 183.628693 
L 152.296971 190.03616 
L 147.112369 190.948519 
L 124.221019 191.223543 
L 93.884086 190.825535 
L 67.706851 189.558733 
L 55.198828 188.603297 
L 37.443809 185.74817 
z
" clip-path="url(#p2cd9a2fc59)" style="fill: #1e9d89; fill-opacity: 0.7"/>
    <path d="M 35.783719 188.366912 
L 61.898149 192.566289 
L 80.295195 193.971563 
L 101.850989 195.014718 
L 126.83211 195.34246 
L 153.664332 195.02009 
L 159.741492 193.950663 
L 169.727492 186.440114 
L 183.866761 175.132061 
L 114.020202 64.951213 
L 112.770661 66.922327 
L 180.118138 173.160947 
L 165.271905 185.034403 
L 156.019232 191.993412 
L 150.38835 192.984305 
L 125.526564 193.283002 
L 97.867537 192.920127 
L 74.001023 191.765148 
L 58.548488 190.584793 
L 36.613764 187.057541 
z
" clip-path="url(#p2cd9a2fc59)" style="fill: #1fa287; fill-opacity: 0.7"/>
    <path d="M 34.953674 189.676283 
L 65.247809 194.547785 
L 86.589367 196.177978 
L 105.83444 197.10931 
L 128.137655 197.401919 
L 156.940313 197.055875 
L 163.463753 195.907914 
L 174.183078 187.845825 
L 187.615384 177.103174 
L 115.269743 62.9801 
L 114.020202 64.951213 
L 183.866761 175.132061 
L 169.727492 186.440114 
L 159.741492 193.950663 
L 153.664332 195.02009 
L 126.83211 195.34246 
L 101.850989 195.014718 
L 80.295195 193.971563 
L 61.898149 192.566289 
L 35.783719 188.366912 
z
" clip-path="url(#p2cd9a2fc59)" style="fill: #22a884; fill-opacity: 0.7"/>
    <path d="M 34.123629 190.985654 
L 68.59747 196.52928 
L 92.883539 198.384393 
L 109.817891 199.203901 
L 129.4432 199.461377 
L 160.216295 199.09166 
L 167.186013 197.865166 
L 178.638665 189.251536 
L 191.364008 179.074288 
L 116.519284 61.008986 
L 115.269743 62.9801 
L 187.615384 177.103174 
L 174.183078 187.845825 
L 163.463753 195.907914 
L 156.940313 197.055875 
L 128.137655 197.401919 
L 105.83444 197.10931 
L 86.589367 196.177978 
L 65.247809 194.547785 
L 34.953674 189.676283 
z
" clip-path="url(#p2cd9a2fc59)" style="fill: #26ad81; fill-opacity: 0.7"/>
    <path d="M 33.293584 192.295025 
L 71.947131 198.510776 
L 99.177711 200.590808 
L 113.801343 201.298493 
L 130.748746 201.520836 
L 163.492276 201.127445 
L 170.908274 199.822417 
L 183.094252 190.657247 
L 195.112631 181.045401 
L 117.768825 59.037873 
L 116.519284 61.008986 
L 191.364008 179.074288 
L 178.638665 189.251536 
L 167.186013 197.865166 
L 160.216295 199.09166 
L 129.4432 199.461377 
L 109.817891 199.203901 
L 92.883539 198.384393 
L 68.59747 196.52928 
L 34.123629 190.985654 
z
" clip-path="url(#p2cd9a2fc59)" style="fill: #2db27d; fill-opacity: 0.7"/>
    <path d="M 32.463539 193.604396 
L 75.296791 200.492272 
L 105.471883 202.797223 
L 117.784794 203.393085 
L 132.054291 203.580294 
L 166.768258 203.16323 
L 174.630534 201.779668 
L 187.549839 192.062957 
L 198.861254 183.016515 
L 119.018366 57.066759 
L 117.768825 59.037873 
L 195.112631 181.045401 
L 183.094252 190.657247 
L 170.908274 199.822417 
L 163.492276 201.127445 
L 130.748746 201.520836 
L 113.801343 201.298493 
L 99.177711 200.590808 
L 71.947131 198.510776 
L 33.293584 192.295025 
z
" clip-path="url(#p2cd9a2fc59)" style="fill: #34b679; fill-opacity: 0.7"/>
    <path d="M 31.633494 194.913767 
L 78.646452 202.473768 
L 111.766054 205.003637 
L 121.768246 205.487676 
L 133.359837 205.639753 
L 170.044239 205.199015 
L 178.352795 203.73692 
L 192.005425 193.468668 
L 202.609878 184.987628 
L 120.267907 55.095646 
L 119.018366 57.066759 
L 198.861254 183.016515 
L 187.549839 192.062957 
L 174.630534 201.779668 
L 166.768258 203.16323 
L 132.054291 203.580294 
L 117.784794 203.393085 
L 105.471883 202.797223 
L 75.296791 200.492272 
L 32.463539 193.604396 
z
" clip-path="url(#p2cd9a2fc59)" style="fill: #3dbc74; fill-opacity: 0.7"/>
    <path d="M 30.80345 196.223138 
L 81.996112 204.455264 
L 118.060226 207.210052 
L 125.751697 207.582268 
L 134.665382 207.699212 
L 173.320221 207.234801 
L 182.075055 205.694171 
L 196.461012 194.874379 
L 206.358501 186.958742 
L 121.517448 53.124532 
L 120.267907 55.095646 
L 202.609878 184.987628 
L 192.005425 193.468668 
L 178.352795 203.73692 
L 170.044239 205.199015 
L 133.359837 205.639753 
L 121.768246 205.487676 
L 111.766054 205.003637 
L 78.646452 202.473768 
L 31.633494 194.913767 
z
" clip-path="url(#p2cd9a2fc59)" style="fill: #46c06f; fill-opacity: 0.7"/>
    <path d="M 29.973405 197.532509 
L 85.345773 206.43676 
L 124.354398 209.416467 
L 129.735148 209.676859 
L 135.970927 209.75867 
L 176.596202 209.270586 
L 185.797316 207.651422 
L 200.916599 196.28009 
L 210.107124 188.929855 
L 122.766989 51.153419 
L 121.517448 53.124532 
L 206.358501 186.958742 
L 196.461012 194.874379 
L 182.075055 205.694171 
L 173.320221 207.234801 
L 134.665382 207.699212 
L 125.751697 207.582268 
L 118.060226 207.210052 
L 81.996112 204.455264 
L 30.80345 196.223138 
z
" clip-path="url(#p2cd9a2fc59)" style="fill: #52c569; fill-opacity: 0.7"/>
    <path d="M 29.14336 198.841879 
L 88.695434 208.418255 
L 130.64857 211.622882 
L 133.7186 211.771451 
L 137.276473 211.818129 
L 179.872183 211.306371 
L 189.519576 209.608674 
L 205.372186 197.685801 
L 213.855747 190.900969 
L 124.01653 49.182305 
L 122.766989 51.153419 
L 210.107124 188.929855 
L 200.916599 196.28009 
L 185.797316 207.651422 
L 176.596202 209.270586 
L 135.970927 209.75867 
L 129.735148 209.676859 
L 124.354398 209.416467 
L 85.345773 206.43676 
L 29.973405 197.532509 
z
" clip-path="url(#p2cd9a2fc59)" style="fill: #5cc863; fill-opacity: 0.7"/>
    <path d="M 28.313315 200.15125 
L 92.045094 210.399751 
L 136.942742 213.829297 
L 137.702051 213.866042 
L 138.582018 213.877587 
L 183.148165 213.342156 
L 193.241837 211.565925 
L 209.827773 199.091512 
L 217.604371 192.872082 
L 125.266072 47.211192 
L 124.01653 49.182305 
L 213.855747 190.900969 
L 205.372186 197.685801 
L 189.519576 209.608674 
L 179.872183 211.306371 
L 137.276473 211.818129 
L 133.7186 211.771451 
L 130.64857 211.622882 
L 88.695434 208.418255 
L 29.14336 198.841879 
z
" clip-path="url(#p2cd9a2fc59)" style="fill: #69cd5b; fill-opacity: 0.7"/>
    <path d="M 27.48327 201.460621 
L 95.394755 212.381247 
L 123.843521 214.554331 
L 139.011024 214.554331 
L 185.098794 214.554331 
L 191.104424 214.554331 
L 196.964097 213.523176 
L 214.283359 200.497222 
L 221.352994 194.843196 
L 126.515613 45.240078 
L 125.266072 47.211192 
L 217.604371 192.872082 
L 209.827773 199.091512 
L 193.241837 211.565925 
L 183.148165 213.342156 
L 138.582018 213.877587 
L 137.702051 213.866042 
L 136.942742 213.829297 
L 92.045094 210.399751 
L 28.313315 200.15125 
z
" clip-path="url(#p2cd9a2fc59)" style="fill: #77d153; fill-opacity: 0.7"/>
    <path d="M 26.653225 202.769992 
L 98.744416 214.362743 
L 101.252574 214.554331 
L 123.843521 214.554331 
L 95.394755 212.381247 
L 27.48327 201.460621 
z
M 201.917693 214.554331 
L 218.738946 201.902933 
L 225.101617 196.814309 
L 127.765154 43.268965 
L 126.515613 45.240078 
L 221.352994 194.843196 
L 214.283359 200.497222 
L 196.964097 213.523176 
L 191.104424 214.554331 
L 198.925125 214.554331 
z
" clip-path="url(#p2cd9a2fc59)" style="fill: #84d44b; fill-opacity: 0.7"/>
    <path d="M 25.82318 204.079363 
L 90.963275 214.554331 
L 99.068289 214.554331 
L 101.252574 214.554331 
L 98.744416 214.362743 
L 26.653225 202.769992 
z
M 208.242308 214.554331 
L 223.194533 203.308644 
L 228.850241 198.785423 
L 129.014695 41.297851 
L 127.765154 43.268965 
L 225.101617 196.814309 
L 218.738946 201.902933 
L 201.917693 214.554331 
z
" clip-path="url(#p2cd9a2fc59)" style="fill: #93d741; fill-opacity: 0.7"/>
    <path d="M 24.993135 205.388734 
L 81.990718 214.554331 
L 90.963275 214.554331 
L 25.82318 204.079363 
z
M 214.566923 214.554331 
L 227.65012 204.714355 
L 232.598864 200.756536 
L 130.264236 39.326738 
L 129.014695 41.297851 
L 228.850241 198.785423 
L 223.194533 203.308644 
L 208.242308 214.554331 
z
" clip-path="url(#p2cd9a2fc59)" style="fill: #a0da39; fill-opacity: 0.7"/>
    <path d="M 24.16309 206.698105 
L 73.018162 214.554331 
L 81.990718 214.554331 
L 24.993135 205.388734 
z
M 220.891537 214.554331 
L 232.105706 206.120066 
L 236.347487 202.72765 
L 131.513777 37.355624 
L 130.264236 39.326738 
L 232.598864 200.756536 
L 227.65012 204.714355 
L 214.566923 214.554331 
z
" clip-path="url(#p2cd9a2fc59)" style="fill: #b0dd2f; fill-opacity: 0.7"/>
    <path d="M 23.333045 208.007476 
L 64.045605 214.554331 
L 73.018162 214.554331 
L 24.16309 206.698105 
z
M 227.216152 214.554331 
L 236.561293 207.525777 
L 240.09611 204.698763 
L 132.763318 35.384511 
L 131.513777 37.355624 
L 236.347487 202.72765 
L 232.105706 206.120066 
L 220.891537 214.554331 
z
" clip-path="url(#p2cd9a2fc59)" style="fill: #bddf26; fill-opacity: 0.7"/>
    <path d="M 22.503 209.316847 
L 55.073048 214.554331 
L 64.045605 214.554331 
L 23.333045 208.007476 
z
M 233.540767 214.554331 
L 241.01688 208.931487 
L 243.844734 206.669877 
L 134.012859 33.413397 
L 132.763318 35.384511 
L 240.09611 204.698763 
L 236.561293 207.525777 
L 227.216152 214.554331 
z
" clip-path="url(#p2cd9a2fc59)" style="fill: #cde11d; fill-opacity: 0.7"/>
    <path d="M 21.672955 210.626218 
L 46.100491 214.554331 
L 55.073048 214.554331 
L 22.503 209.316847 
z
M 239.865382 214.554331 
L 245.472467 210.337198 
L 247.593357 208.64099 
L 135.2624 31.442284 
L 134.012859 33.413397 
L 243.844734 206.669877 
L 241.01688 208.931487 
L 233.540767 214.554331 
z
" clip-path="url(#p2cd9a2fc59)" style="fill: #dde318; fill-opacity: 0.7"/>
    <path d="M 20.84291 211.935589 
L 37.127934 214.554331 
L 46.100491 214.554331 
L 21.672955 210.626218 
z
M 246.189997 214.554331 
L 249.928053 211.742909 
L 251.34198 210.612104 
L 136.511941 29.47117 
L 135.2624 31.442284 
L 247.593357 208.64099 
L 245.472467 210.337198 
L 239.865382 214.554331 
z
" clip-path="url(#p2cd9a2fc59)" style="fill: #eae51a; fill-opacity: 0.7"/>
    <path d="M 20.012865 213.24496 
L 28.155377 214.554331 
L 37.127934 214.554331 
L 20.84291 211.935589 
z
M 252.514612 214.554331 
L 254.38364 213.14862 
L 255.090604 212.583217 
L 137.761483 27.500057 
L 136.511941 29.47117 
L 251.34198 210.612104 
L 249.928053 211.742909 
L 246.189997 214.554331 
z
" clip-path="url(#p2cd9a2fc59)" style="fill: #f8e621; fill-opacity: 0.7"/>
    <path d="M 28.155377 214.554331 
L 20.012865 213.24496 
L 19.18282 214.554331 
z
M 137.761483 27.500057 
L 255.090604 212.583217 
L 254.38364 213.14862 
L 252.514612 214.554331 
L 258.839227 214.554331 
L 139.011024 25.528943 
z
" clip-path="url(#p2cd9a2fc59)" style="fill: #fde725; fill-opacity: 0.7"/>
   </g>
   <g id="matplotlib.axis_1"/>
   <g id="matplotlib.axis_2"/>
   <g id="line2d_1">
    <path d="M 49.139871 167.297984 
L 40.969766 180.186078 
" clip-path="url(#p2cd9a2fc59)" style="fill: none; stroke: #555555; stroke-opacity: 0.9; stroke-width: 0.5; stroke-linecap: square"/>
   </g>
   <g id="line2d_2">
    <path d="M 99.068289 214.554331 
L 40.969766 180.186078 
" clip-path="url(#p2cd9a2fc59)" style="fill: none; stroke: #555555; stroke-opacity: 0.9; stroke-width: 0.5; stroke-linecap: square"/>
   </g>
   <g id="line2d_3">
    <path d="M 99.068289 214.554331 
L 19.18282 214.554331 
" clip-path="url(#p2cd9a2fc59)" style="fill: none; stroke: #555555; stroke-opacity: 0.9; stroke-width: 0.5; stroke-linecap: square"/>
   </g>
   <g id="line2d_4">
    <path d="M 79.096922 120.041637 
L 109.053973 167.297984 
" clip-path="url(#p2cd9a2fc59)" style="fill: none; stroke: #555555; stroke-opacity: 0.9; stroke-width: 0.5; stroke-linecap: square"/>
   </g>
   <g id="line2d_5">
    <path d="M 139.011024 214.554331 
L 49.139871 167.297984 
" clip-path="url(#p2cd9a2fc59)" style="fill: none; stroke: #555555; stroke-opacity: 0.9; stroke-width: 0.5; stroke-linecap: square"/>
   </g>
   <g id="line2d_6">
    <path d="M 198.925125 214.554331 
L 109.053973 167.297984 
" clip-path="url(#p2cd9a2fc59)" style="fill: none; stroke: #555555; stroke-opacity: 0.9; stroke-width: 0.5; stroke-linecap: square"/>
   </g>
   <g id="line2d_7">
    <path d="M 79.096922 120.041637 
L 258.839227 214.554331 
" clip-path="url(#p2cd9a2fc59)" style="fill: none; stroke: #555555; stroke-opacity: 0.9; stroke-width: 0.5; stroke-linecap: square"/>
   </g>
   <g id="line2d_8">
    <path d="M 139.011024 214.554331 
L 185.098794 214.554331 
" clip-path="url(#p2cd9a2fc59)" style="fill: none; stroke: #555555; stroke-opacity: 0.9; stroke-width: 0.5; stroke-linecap: square"/>
   </g>
   <g id="line2d_9">
    <path d="M 198.925125 214.554331 
L 258.839227 214.554331 
" clip-path="url(#p2cd9a2fc59)" style="fill: none; stroke: #555555; stroke-opacity: 0.9; stroke-width: 0.5; stroke-linecap: square"/>
   </g>
   <g id="line2d_10">
    <path d="M 139.011024 25.528943 
L 258.839227 214.554331 
" clip-path="url(#p2cd9a2fc59)" style="fill: none; stroke: #555555; stroke-opacity: 0.9; stroke-width: 0.5; stroke-linecap: square"/>
   </g>
   <g id="line2d_11">
    <path d="M 139.011024 214.554331 
L 40.969766 180.186078 
" clip-path="url(#p2cd9a2fc59)" style="fill: none; stroke: #555555; stroke-opacity: 0.9; stroke-width: 0.5; stroke-linecap: square"/>
   </g>
   <g id="line2d_12">
    <path d="M 109.053973 167.297984 
L 49.139871 167.297984 
" clip-path="url(#p2cd9a2fc59)" style="fill: none; stroke: #555555; stroke-opacity: 0.9; stroke-width: 0.5; stroke-linecap: square"/>
   </g>
   <g id="line2d_13">
    <path d="M 40.969766 180.186078 
L 19.18282 214.554331 
" clip-path="url(#p2cd9a2fc59)" style="fill: none; stroke: #555555; stroke-opacity: 0.9; stroke-width: 0.5; stroke-linecap: square"/>
   </g>
   <g id="line2d_14">
    <path d="M 109.053973 167.297984 
L 185.098794 214.554331 
" clip-path="url(#p2cd9a2fc59)" style="fill: none; stroke: #555555; stroke-opacity: 0.9; stroke-width: 0.5; stroke-linecap: square"/>
   </g>
   <g id="line2d_15">
    <path d="M 139.011024 214.554331 
L 109.053973 167.297984 
" clip-path="url(#p2cd9a2fc59)" style="fill: none; stroke: #555555; stroke-opacity: 0.9; stroke-width: 0.5; stroke-linecap: square"/>
   </g>
   <g id="line2d_16">
    <path d="M 79.096922 120.041637 
L 139.011024 25.528943 
" clip-path="url(#p2cd9a2fc59)" style="fill: none; stroke: #555555; stroke-opacity: 0.9; stroke-width: 0.5; stroke-linecap: square"/>
   </g>
   <g id="line2d_17">
    <path d="M 109.053973 167.297984 
L 258.839227 214.554331 
" clip-path="url(#p2cd9a2fc59)" style="fill: none; stroke: #555555; stroke-opacity: 0.9; stroke-width: 0.5; stroke-linecap: square"/>
   </g>
   <g id="line2d_18">
    <path d="M 139.011024 214.554331 
L 99.068289 214.554331 
" clip-path="url(#p2cd9a2fc59)" style="fill: none; stroke: #555555; stroke-opacity: 0.9; stroke-width: 0.5; stroke-linecap: square"/>
   </g>
   <g id="line2d_19">
    <path d="M 79.096922 120.041637 
L 49.139871 167.297984 
" clip-path="url(#p2cd9a2fc59)" style="fill: none; stroke: #555555; stroke-opacity: 0.9; stroke-width: 0.5; stroke-linecap: square"/>
   </g>
   <g id="line2d_20">
    <path d="M 198.925125 214.554331 
L 185.098794 214.554331 
" clip-path="url(#p2cd9a2fc59)" style="fill: none; stroke: #555555; stroke-opacity: 0.9; stroke-width: 0.5; stroke-linecap: square"/>
   </g>
   <g id="PathCollection_1">
    <defs>
     <path id="m59d0566f93" d="M 0 2.738613 
C 0.726289 2.738613 1.422928 2.450055 1.936492 1.936492 
C 2.450055 1.422928 2.738613 0.726289 2.738613 0 
C 2.738613 -0.726289 2.450055 -1.422928 1.936492 -1.936492 
C 1.422928 -2.450055 0.726289 -2.738613 0 -2.738613 
C -0.726289 -2.738613 -1.422928 -2.450055 -1.936492 -1.936492 
C -2.450055 -1.422928 -2.738613 -0.726289 -2.738613 0 
C -2.738613 0.726289 -2.450055 1.422928 -1.936492 1.936492 
C -1.422928 2.450055 -0.726289 2.738613 0 2.738613 
z
" style="stroke: #008000"/>
    </defs>
    <g clip-path="url(#p2cd9a2fc59)">
     <use xlink:href="#m59d0566f93" x="49.139871" y="167.297984" style="fill: #008000; stroke: #008000"/>
     <use xlink:href="#m59d0566f93" x="40.969766" y="180.186078" style="fill: #008000; stroke: #008000"/>
     <use xlink:href="#m59d0566f93" x="99.068289" y="214.554331" style="fill: #008000; stroke: #008000"/>
     <use xlink:href="#m59d0566f93" x="19.18282" y="214.554331" style="fill: #008000; stroke: #008000"/>
     <use xlink:href="#m59d0566f93" x="79.096922" y="120.041637" style="fill: #008000; stroke: #008000"/>
     <use xlink:href="#m59d0566f93" x="109.053973" y="167.297984" style="fill: #008000; stroke: #008000"/>
     <use xlink:href="#m59d0566f93" x="139.011024" y="214.554331" style="fill: #008000; stroke: #008000"/>
     <use xlink:href="#m59d0566f93" x="198.925125" y="214.554331" style="fill: #008000; stroke: #008000"/>
     <use xlink:href="#m59d0566f93" x="258.839227" y="214.554331" style="fill: #008000; stroke: #008000"/>
     <use xlink:href="#m59d0566f93" x="185.098794" y="214.554331" style="fill: #008000; stroke: #008000"/>
     <use xlink:href="#m59d0566f93" x="139.011024" y="25.528943" style="fill: #008000; stroke: #008000"/>
    </g>
   </g>
   <g id="PathCollection_2">
    <defs>
     <path id="md7d0697565" d="M -0 2.236068 
L 1.341641 0 
L 0 -2.236068 
L -1.341641 -0 
z
" style="stroke: #d3d3d3"/>
    </defs>
    <g clip-path="url(#p2cd9a2fc59)">
     <use xlink:href="#md7d0697565" x="139.011024" y="25.528943" style="fill: #d3d3d3; stroke: #d3d3d3"/>
     <use xlink:href="#md7d0697565" x="139.011024" y="25.528943" style="fill: #d3d3d3; stroke: #d3d3d3"/>
     <use xlink:href="#md7d0697565" x="139.011024" y="25.528943" style="fill: #d3d3d3; stroke: #d3d3d3"/>
     <use xlink:href="#md7d0697565" x="258.839227" y="214.554331" style="fill: #d3d3d3; stroke: #d3d3d3"/>
     <use xlink:href="#md7d0697565" x="258.839227" y="214.554331" style="fill: #d3d3d3; stroke: #d3d3d3"/>
     <use xlink:href="#md7d0697565" x="258.839227" y="214.554331" style="fill: #d3d3d3; stroke: #d3d3d3"/>
     <use xlink:href="#md7d0697565" x="258.839227" y="214.554331" style="fill: #d3d3d3; stroke: #d3d3d3"/>
     <use xlink:href="#md7d0697565" x="258.839227" y="214.554331" style="fill: #d3d3d3; stroke: #d3d3d3"/>
     <use xlink:href="#md7d0697565" x="258.839227" y="214.554331" style="fill: #d3d3d3; stroke: #d3d3d3"/>
     <use xlink:href="#md7d0697565" x="258.839227" y="214.554331" style="fill: #d3d3d3; stroke: #d3d3d3"/>
     <use xlink:href="#md7d0697565" x="19.18282" y="214.554331" style="fill: #d3d3d3; stroke: #d3d3d3"/>
     <use xlink:href="#md7d0697565" x="19.18282" y="214.554331" style="fill: #d3d3d3; stroke: #d3d3d3"/>
     <use xlink:href="#md7d0697565" x="19.18282" y="214.554331" style="fill: #d3d3d3; stroke: #d3d3d3"/>
     <use xlink:href="#md7d0697565" x="19.18282" y="214.554331" style="fill: #d3d3d3; stroke: #d3d3d3"/>
     <use xlink:href="#md7d0697565" x="19.18282" y="214.554331" style="fill: #d3d3d3; stroke: #d3d3d3"/>
     <use xlink:href="#md7d0697565" x="19.18282" y="214.554331" style="fill: #d3d3d3; stroke: #d3d3d3"/>
     <use xlink:href="#md7d0697565" x="19.18282" y="214.554331" style="fill: #d3d3d3; stroke: #d3d3d3"/>
     <use xlink:href="#md7d0697565" x="19.18282" y="214.554331" style="fill: #d3d3d3; stroke: #d3d3d3"/>
     <use xlink:href="#md7d0697565" x="19.18282" y="214.554331" style="fill: #d3d3d3; stroke: #d3d3d3"/>
     <use xlink:href="#md7d0697565" x="139.011024" y="214.554331" style="fill: #d3d3d3; stroke: #d3d3d3"/>
     <use xlink:href="#md7d0697565" x="198.925125" y="214.554331" style="fill: #d3d3d3; stroke: #d3d3d3"/>
     <use xlink:href="#md7d0697565" x="198.925125" y="214.554331" style="fill: #d3d3d3; stroke: #d3d3d3"/>
     <use xlink:href="#md7d0697565" x="198.925125" y="214.554331" style="fill: #d3d3d3; stroke: #d3d3d3"/>
     <use xlink:href="#md7d0697565" x="210.907946" y="214.554331" style="fill: #d3d3d3; stroke: #d3d3d3"/>
     <use xlink:href="#md7d0697565" x="99.068289" y="214.554331" style="fill: #d3d3d3; stroke: #d3d3d3"/>
     <use xlink:href="#md7d0697565" x="99.068289" y="214.554331" style="fill: #d3d3d3; stroke: #d3d3d3"/>
     <use xlink:href="#md7d0697565" x="109.053973" y="167.297984" style="fill: #d3d3d3; stroke: #d3d3d3"/>
     <use xlink:href="#md7d0697565" x="49.139871" y="167.297984" style="fill: #d3d3d3; stroke: #d3d3d3"/>
     <use xlink:href="#md7d0697565" x="79.096922" y="214.554331" style="fill: #d3d3d3; stroke: #d3d3d3"/>
     <use xlink:href="#md7d0697565" x="79.096922" y="214.554331" style="fill: #d3d3d3; stroke: #d3d3d3"/>
     <use xlink:href="#md7d0697565" x="115.045383" y="214.554331" style="fill: #d3d3d3; stroke: #d3d3d3"/>
     <use xlink:href="#md7d0697565" x="208.385247" y="214.554331" style="fill: #d3d3d3; stroke: #d3d3d3"/>
     <use xlink:href="#md7d0697565" x="102.140807" y="200.013916" style="fill: #d3d3d3; stroke: #d3d3d3"/>
    </g>
   </g>
   <g id="PathCollection_3">
    <defs>
     <path id="m6f432fd2eb" d="M 0 -5 
L -1.12257 -1.545085 
L -4.755283 -1.545085 
L -1.816356 0.59017 
L -2.938926 4.045085 
L -0 1.90983 
L 2.938926 4.045085 
L 1.816356 0.59017 
L 4.755283 -1.545085 
L 1.12257 -1.545085 
z
" style="stroke: #0000ff"/>
    </defs>
    <g clip-path="url(#p2cd9a2fc59)">
     <use xlink:href="#m6f432fd2eb" x="102.140807" y="200.013916" style="fill: #0000ff; stroke: #0000ff"/>
    </g>
   </g>
   <g id="text_1">
    <!-- $\mathrm{Al_{3}Ir}$ -->
    <g transform="translate(44.23078 163.151563) scale(0.1 -0.1)">
     <defs>
      <path id="DejaVuSans-41" d="M 2188 4044 
L 1331 1722 
L 3047 1722 
L 2188 4044 
z
M 1831 4666 
L 2547 4666 
L 4325 0 
L 3669 0 
L 3244 1197 
L 1141 1197 
L 716 0 
L 50 0 
L 1831 4666 
z
" transform="scale(0.015625)"/>
      <path id="DejaVuSans-6c" d="M 603 4863 
L 1178 4863 
L 1178 0 
L 603 0 
L 603 4863 
z
" transform="scale(0.015625)"/>
      <path id="DejaVuSans-33" d="M 2597 2516 
Q 3050 2419 3304 2112 
Q 3559 1806 3559 1356 
Q 3559 666 3084 287 
Q 2609 -91 1734 -91 
Q 1441 -91 1130 -33 
Q 819 25 488 141 
L 488 750 
Q 750 597 1062 519 
Q 1375 441 1716 441 
Q 2309 441 2620 675 
Q 2931 909 2931 1356 
Q 2931 1769 2642 2001 
Q 2353 2234 1838 2234 
L 1294 2234 
L 1294 2753 
L 1863 2753 
Q 2328 2753 2575 2939 
Q 2822 3125 2822 3475 
Q 2822 3834 2567 4026 
Q 2313 4219 1838 4219 
Q 1578 4219 1281 4162 
Q 984 4106 628 3988 
L 628 4550 
Q 988 4650 1302 4700 
Q 1616 4750 1894 4750 
Q 2613 4750 3031 4423 
Q 3450 4097 3450 3541 
Q 3450 3153 3228 2886 
Q 3006 2619 2597 2516 
z
" transform="scale(0.015625)"/>
      <path id="DejaVuSans-49" d="M 628 4666 
L 1259 4666 
L 1259 0 
L 628 0 
L 628 4666 
z
" transform="scale(0.015625)"/>
      <path id="DejaVuSans-72" d="M 2631 2963 
Q 2534 3019 2420 3045 
Q 2306 3072 2169 3072 
Q 1681 3072 1420 2755 
Q 1159 2438 1159 1844 
L 1159 0 
L 581 0 
L 581 3500 
L 1159 3500 
L 1159 2956 
Q 1341 3275 1631 3429 
Q 1922 3584 2338 3584 
Q 2397 3584 2469 3576 
Q 2541 3569 2628 3553 
L 2631 2963 
z
" transform="scale(0.015625)"/>
     </defs>
     <use xlink:href="#DejaVuSans-41" transform="translate(0 0.015625)"/>
     <use xlink:href="#DejaVuSans-6c" transform="translate(68.408203 0.015625)"/>
     <use xlink:href="#DejaVuSans-33" transform="translate(97.148438 -16.390625) scale(0.7)"/>
     <use xlink:href="#DejaVuSans-49" transform="translate(144.418945 0.015625)"/>
     <use xlink:href="#DejaVuSans-72" transform="translate(173.911133 0.015625)"/>
    </g>
   </g>
   <g id="text_2">
    <!-- $\mathrm{Al_{9}Ir_{2}}$ -->
    <g transform="translate(21.224312 189.133961) scale(0.1 -0.1)">
     <defs>
      <path id="DejaVuSans-39" d="M 703 97 
L 703 672 
Q 941 559 1184 500 
Q 1428 441 1663 441 
Q 2288 441 2617 861 
Q 2947 1281 2994 2138 
Q 2813 1869 2534 1725 
Q 2256 1581 1919 1581 
Q 1219 1581 811 2004 
Q 403 2428 403 3163 
Q 403 3881 828 4315 
Q 1253 4750 1959 4750 
Q 2769 4750 3195 4129 
Q 3622 3509 3622 2328 
Q 3622 1225 3098 567 
Q 2575 -91 1691 -91 
Q 1453 -91 1209 -44 
Q 966 3 703 97 
z
M 1959 2075 
Q 2384 2075 2632 2365 
Q 2881 2656 2881 3163 
Q 2881 3666 2632 3958 
Q 2384 4250 1959 4250 
Q 1534 4250 1286 3958 
Q 1038 3666 1038 3163 
Q 1038 2656 1286 2365 
Q 1534 2075 1959 2075 
z
" transform="scale(0.015625)"/>
      <path id="DejaVuSans-32" d="M 1228 531 
L 3431 531 
L 3431 0 
L 469 0 
L 469 531 
Q 828 903 1448 1529 
Q 2069 2156 2228 2338 
Q 2531 2678 2651 2914 
Q 2772 3150 2772 3378 
Q 2772 3750 2511 3984 
Q 2250 4219 1831 4219 
Q 1534 4219 1204 4116 
Q 875 4013 500 3803 
L 500 4441 
Q 881 4594 1212 4672 
Q 1544 4750 1819 4750 
Q 2544 4750 2975 4387 
Q 3406 4025 3406 3419 
Q 3406 3131 3298 2873 
Q 3191 2616 2906 2266 
Q 2828 2175 2409 1742 
Q 1991 1309 1228 531 
z
" transform="scale(0.015625)"/>
     </defs>
     <use xlink:href="#DejaVuSans-41" transform="translate(0 0.015625)"/>
     <use xlink:href="#DejaVuSans-6c" transform="translate(68.408203 0.015625)"/>
     <use xlink:href="#DejaVuSans-39" transform="translate(97.148438 -16.390625) scale(0.7)"/>
     <use xlink:href="#DejaVuSans-49" transform="translate(144.418945 0.015625)"/>
     <use xlink:href="#DejaVuSans-72" transform="translate(173.911133 0.015625)"/>
     <use xlink:href="#DejaVuSans-32" transform="translate(215.981445 -16.390625) scale(0.7)"/>
    </g>
   </g>
   <g id="text_3">
    <!-- $\mathrm{Al_{2}Cu}$ -->
    <g transform="translate(83.551946 210.544971) scale(0.1 -0.1)">
     <defs>
      <path id="DejaVuSans-43" d="M 4122 4306 
L 4122 3641 
Q 3803 3938 3442 4084 
Q 3081 4231 2675 4231 
Q 1875 4231 1450 3742 
Q 1025 3253 1025 2328 
Q 1025 1406 1450 917 
Q 1875 428 2675 428 
Q 3081 428 3442 575 
Q 3803 722 4122 1019 
L 4122 359 
Q 3791 134 3420 21 
Q 3050 -91 2638 -91 
Q 1578 -91 968 557 
Q 359 1206 359 2328 
Q 359 3453 968 4101 
Q 1578 4750 2638 4750 
Q 3056 4750 3426 4639 
Q 3797 4528 4122 4306 
z
" transform="scale(0.015625)"/>
      <path id="DejaVuSans-75" d="M 544 1381 
L 544 3500 
L 1119 3500 
L 1119 1403 
Q 1119 906 1312 657 
Q 1506 409 1894 409 
Q 2359 409 2629 706 
Q 2900 1003 2900 1516 
L 2900 3500 
L 3475 3500 
L 3475 0 
L 2900 0 
L 2900 538 
Q 2691 219 2414 64 
Q 2138 -91 1772 -91 
Q 1169 -91 856 284 
Q 544 659 544 1381 
z
M 1991 3584 
L 1991 3584 
z
" transform="scale(0.015625)"/>
     </defs>
     <use xlink:href="#DejaVuSans-41" transform="translate(0 0.015625)"/>
     <use xlink:href="#DejaVuSans-6c" transform="translate(68.408203 0.015625)"/>
     <use xlink:href="#DejaVuSans-32" transform="translate(97.148438 -16.390625) scale(0.7)"/>
     <use xlink:href="#DejaVuSans-43" transform="translate(144.418945 0.015625)"/>
     <use xlink:href="#DejaVuSans-75" transform="translate(214.243164 0.015625)"/>
    </g>
   </g>
   <g id="text_4">
    <!-- $\mathrm{Al}$ -->
    <g transform="translate(19.586902 211.839411) scale(0.1 -0.1)">
     <use xlink:href="#DejaVuSans-41" transform="translate(0 0.015625)"/>
     <use xlink:href="#DejaVuSans-6c" transform="translate(68.408203 0.015625)"/>
    </g>
   </g>
   <g id="text_5">
    <!-- $\mathrm{AlIr}$ -->
    <g transform="translate(65.510558 127.6151) scale(0.1 -0.1)">
     <use xlink:href="#DejaVuSans-41" transform="translate(0 0.015625)"/>
     <use xlink:href="#DejaVuSans-6c" transform="translate(68.408203 0.015625)"/>
     <use xlink:href="#DejaVuSans-49" transform="translate(96.191406 0.015625)"/>
     <use xlink:href="#DejaVuSans-72" transform="translate(125.683594 0.015625)"/>
    </g>
   </g>
   <g id="text_6">
    <!-- $\mathrm{Al_{2}CuIr}$ -->
    <g transform="translate(81.131246 176.195867) scale(0.1 -0.1)">
     <use xlink:href="#DejaVuSans-41" transform="translate(0 0.015625)"/>
     <use xlink:href="#DejaVuSans-6c" transform="translate(68.408203 0.015625)"/>
     <use xlink:href="#DejaVuSans-32" transform="translate(97.148438 -16.390625) scale(0.7)"/>
     <use xlink:href="#DejaVuSans-43" transform="translate(144.418945 0.015625)"/>
     <use xlink:href="#DejaVuSans-75" transform="translate(214.243164 0.015625)"/>
     <use xlink:href="#DejaVuSans-49" transform="translate(277.62207 0.015625)"/>
     <use xlink:href="#DejaVuSans-72" transform="translate(307.114258 0.015625)"/>
    </g>
   </g>
   <g id="text_7">
    <!-- $\mathrm{AlCu}$ -->
    <g transform="translate(126.856478 211.215873) scale(0.1 -0.1)">
     <use xlink:href="#DejaVuSans-41" transform="translate(0 0.015625)"/>
     <use xlink:href="#DejaVuSans-6c" transform="translate(68.408203 0.015625)"/>
     <use xlink:href="#DejaVuSans-43" transform="translate(96.191406 0.015625)"/>
     <use xlink:href="#DejaVuSans-75" transform="translate(166.015625 0.015625)"/>
    </g>
   </g>
   <g id="text_8">
    <!-- $\mathrm{AlCu_{3}}$ -->
    <g transform="translate(194.843307 210.594971) scale(0.1 -0.1)">
     <use xlink:href="#DejaVuSans-41" transform="translate(0 0.015625)"/>
     <use xlink:href="#DejaVuSans-6c" transform="translate(68.408203 0.015625)"/>
     <use xlink:href="#DejaVuSans-43" transform="translate(96.191406 0.015625)"/>
     <use xlink:href="#DejaVuSans-75" transform="translate(166.015625 0.015625)"/>
     <use xlink:href="#DejaVuSans-33" transform="translate(230.351562 -16.390625) scale(0.7)"/>
    </g>
   </g>
   <g id="text_9">
    <!-- $\mathrm{Cu}$ -->
    <g transform="translate(245.859482 211.527642) scale(0.1 -0.1)">
     <use xlink:href="#DejaVuSans-43" transform="translate(0 0.78125)"/>
     <use xlink:href="#DejaVuSans-75" transform="translate(69.824219 0.78125)"/>
    </g>
   </g>
   <g id="text_10">
    <!-- $\mathrm{Al_{4}Cu_{9}}$ -->
    <g transform="translate(160.944249 210.594971) scale(0.1 -0.1)">
     <defs>
      <path id="DejaVuSans-34" d="M 2419 4116 
L 825 1625 
L 2419 1625 
L 2419 4116 
z
M 2253 4666 
L 3047 4666 
L 3047 1625 
L 3713 1625 
L 3713 1100 
L 3047 1100 
L 3047 0 
L 2419 0 
L 2419 1100 
L 313 1100 
L 313 1709 
L 2253 4666 
z
" transform="scale(0.015625)"/>
     </defs>
     <use xlink:href="#DejaVuSans-41" transform="translate(0 0.015625)"/>
     <use xlink:href="#DejaVuSans-6c" transform="translate(68.408203 0.015625)"/>
     <use xlink:href="#DejaVuSans-34" transform="translate(97.148438 -16.390625) scale(0.7)"/>
     <use xlink:href="#DejaVuSans-43" transform="translate(144.418945 0.015625)"/>
     <use xlink:href="#DejaVuSans-75" transform="translate(214.243164 0.015625)"/>
     <use xlink:href="#DejaVuSans-39" transform="translate(278.579102 -16.390625) scale(0.7)"/>
    </g>
   </g>
   <g id="text_11">
    <!-- $\mathrm{Ir}$ -->
    <g transform="translate(132.842842 33.102406) scale(0.1 -0.1)">
     <use xlink:href="#DejaVuSans-49" transform="translate(0 0.09375)"/>
     <use xlink:href="#DejaVuSans-72" transform="translate(29.492188 0.09375)"/>
    </g>
   </g>
   <g id="text_12">
    <!-- $\mathrm{Al_{8}Cu_{4}Ir}$ -->
    <g style="fill: #0000ff" transform="translate(94.032584 195.867495) scale(0.1 -0.1)">
     <defs>
      <path id="DejaVuSans-38" d="M 2034 2216 
Q 1584 2216 1326 1975 
Q 1069 1734 1069 1313 
Q 1069 891 1326 650 
Q 1584 409 2034 409 
Q 2484 409 2743 651 
Q 3003 894 3003 1313 
Q 3003 1734 2745 1975 
Q 2488 2216 2034 2216 
z
M 1403 2484 
Q 997 2584 770 2862 
Q 544 3141 544 3541 
Q 544 4100 942 4425 
Q 1341 4750 2034 4750 
Q 2731 4750 3128 4425 
Q 3525 4100 3525 3541 
Q 3525 3141 3298 2862 
Q 3072 2584 2669 2484 
Q 3125 2378 3379 2068 
Q 3634 1759 3634 1313 
Q 3634 634 3220 271 
Q 2806 -91 2034 -91 
Q 1263 -91 848 271 
Q 434 634 434 1313 
Q 434 1759 690 2068 
Q 947 2378 1403 2484 
z
M 1172 3481 
Q 1172 3119 1398 2916 
Q 1625 2713 2034 2713 
Q 2441 2713 2670 2916 
Q 2900 3119 2900 3481 
Q 2900 3844 2670 4047 
Q 2441 4250 2034 4250 
Q 1625 4250 1398 4047 
Q 1172 3844 1172 3481 
z
" transform="scale(0.015625)"/>
     </defs>
     <use xlink:href="#DejaVuSans-41" transform="translate(0 0.015625)"/>
     <use xlink:href="#DejaVuSans-6c" transform="translate(68.408203 0.015625)"/>
     <use xlink:href="#DejaVuSans-38" transform="translate(97.148438 -16.390625) scale(0.7)"/>
     <use xlink:href="#DejaVuSans-43" transform="translate(144.418945 0.015625)"/>
     <use xlink:href="#DejaVuSans-75" transform="translate(214.243164 0.015625)"/>
     <use xlink:href="#DejaVuSans-34" transform="translate(278.579102 -16.390625) scale(0.7)"/>
     <use xlink:href="#DejaVuSans-49" transform="translate(325.849609 0.015625)"/>
     <use xlink:href="#DejaVuSans-72" transform="translate(355.341797 0.015625)"/>
    </g>
   </g>
  </g>
  <g id="axes_2">
   <g id="patch_3">
    <path d="M 287.298425 195.703937 
L 296.029134 195.703937 
L 296.029134 36.96378 
L 287.298425 36.96378 
L 287.298425 195.703937 
z
" style="fill: none"/>
   </g>
   <g id="patch_4">
    <path d="M 287.298425 195.703937 
L 291.66378 203.640945 
L 296.029134 195.703937 
" style="fill: #440154; opacity: 0.7"/>
   </g>
   <g id="patch_5">
    <path d="M 287.298425 36.96378 
L 291.66378 29.026772 
L 296.029134 36.96378 
" style="fill: #fde725; opacity: 0.7"/>
   </g>
   <g id="QuadMesh_1">
    <path d="M 287.298425 195.703937 
L 296.029134 195.703937 
L 296.029134 192.253064 
L 287.298425 192.253064 
L 287.298425 195.703937 
" clip-path="url(#p372afc756c)" style="fill: #450457; fill-opacity: 0.7"/>
    <path d="M 287.298425 192.253064 
L 296.029134 192.253064 
L 296.029134 188.802191 
L 287.298425 188.802191 
L 287.298425 192.253064 
" clip-path="url(#p372afc756c)" style="fill: #470d60; fill-opacity: 0.7"/>
    <path d="M 287.298425 188.802191 
L 296.029134 188.802191 
L 296.029134 185.351318 
L 287.298425 185.351318 
L 287.298425 188.802191 
" clip-path="url(#p372afc756c)" style="fill: #481467; fill-opacity: 0.7"/>
    <path d="M 287.298425 185.351318 
L 296.029134 185.351318 
L 296.029134 181.900445 
L 287.298425 181.900445 
L 287.298425 185.351318 
" clip-path="url(#p372afc756c)" style="fill: #481c6e; fill-opacity: 0.7"/>
    <path d="M 287.298425 181.900445 
L 296.029134 181.900445 
L 296.029134 178.449572 
L 287.298425 178.449572 
L 287.298425 181.900445 
" clip-path="url(#p372afc756c)" style="fill: #482475; fill-opacity: 0.7"/>
    <path d="M 287.298425 178.449572 
L 296.029134 178.449572 
L 296.029134 174.998699 
L 287.298425 174.998699 
L 287.298425 178.449572 
" clip-path="url(#p372afc756c)" style="fill: #472a7a; fill-opacity: 0.7"/>
    <path d="M 287.298425 174.998699 
L 296.029134 174.998699 
L 296.029134 171.547826 
L 287.298425 171.547826 
L 287.298425 174.998699 
" clip-path="url(#p372afc756c)" style="fill: #46327e; fill-opacity: 0.7"/>
    <path d="M 287.298425 171.547826 
L 296.029134 171.547826 
L 296.029134 168.096953 
L 287.298425 168.096953 
L 287.298425 171.547826 
" clip-path="url(#p372afc756c)" style="fill: #453882; fill-opacity: 0.7"/>
    <path d="M 287.298425 168.096953 
L 296.029134 168.096953 
L 296.029134 164.64608 
L 287.298425 164.64608 
L 287.298425 168.096953 
" clip-path="url(#p372afc756c)" style="fill: #423f85; fill-opacity: 0.7"/>
    <path d="M 287.298425 164.64608 
L 296.029134 164.64608 
L 296.029134 161.195207 
L 287.298425 161.195207 
L 287.298425 164.64608 
" clip-path="url(#p372afc756c)" style="fill: #404588; fill-opacity: 0.7"/>
    <path d="M 287.298425 161.195207 
L 296.029134 161.195207 
L 296.029134 157.744334 
L 287.298425 157.744334 
L 287.298425 161.195207 
" clip-path="url(#p372afc756c)" style="fill: #3e4c8a; fill-opacity: 0.7"/>
    <path d="M 287.298425 157.744334 
L 296.029134 157.744334 
L 296.029134 154.293461 
L 287.298425 154.293461 
L 287.298425 157.744334 
" clip-path="url(#p372afc756c)" style="fill: #3b518b; fill-opacity: 0.7"/>
    <path d="M 287.298425 154.293461 
L 296.029134 154.293461 
L 296.029134 150.842588 
L 287.298425 150.842588 
L 287.298425 154.293461 
" clip-path="url(#p372afc756c)" style="fill: #38588c; fill-opacity: 0.7"/>
    <path d="M 287.298425 150.842588 
L 296.029134 150.842588 
L 296.029134 147.391715 
L 287.298425 147.391715 
L 287.298425 150.842588 
" clip-path="url(#p372afc756c)" style="fill: #355e8d; fill-opacity: 0.7"/>
    <path d="M 287.298425 147.391715 
L 296.029134 147.391715 
L 296.029134 143.940842 
L 287.298425 143.940842 
L 287.298425 147.391715 
" clip-path="url(#p372afc756c)" style="fill: #33638d; fill-opacity: 0.7"/>
    <path d="M 287.298425 143.940842 
L 296.029134 143.940842 
L 296.029134 140.489969 
L 287.298425 140.489969 
L 287.298425 143.940842 
" clip-path="url(#p372afc756c)" style="fill: #30698e; fill-opacity: 0.7"/>
    <path d="M 287.298425 140.489969 
L 296.029134 140.489969 
L 296.029134 137.039096 
L 287.298425 137.039096 
L 287.298425 140.489969 
" clip-path="url(#p372afc756c)" style="fill: #2e6e8e; fill-opacity: 0.7"/>
    <path d="M 287.298425 137.039096 
L 296.029134 137.039096 
L 296.029134 133.588223 
L 287.298425 133.588223 
L 287.298425 137.039096 
" clip-path="url(#p372afc756c)" style="fill: #2c738e; fill-opacity: 0.7"/>
    <path d="M 287.298425 133.588223 
L 296.029134 133.588223 
L 296.029134 130.13735 
L 287.298425 130.13735 
L 287.298425 133.588223 
" clip-path="url(#p372afc756c)" style="fill: #2a788e; fill-opacity: 0.7"/>
    <path d="M 287.298425 130.13735 
L 296.029134 130.13735 
L 296.029134 126.686477 
L 287.298425 126.686477 
L 287.298425 130.13735 
" clip-path="url(#p372afc756c)" style="fill: #277e8e; fill-opacity: 0.7"/>
    <path d="M 287.298425 126.686477 
L 296.029134 126.686477 
L 296.029134 123.235604 
L 287.298425 123.235604 
L 287.298425 126.686477 
" clip-path="url(#p372afc756c)" style="fill: #25838e; fill-opacity: 0.7"/>
    <path d="M 287.298425 123.235604 
L 296.029134 123.235604 
L 296.029134 119.784731 
L 287.298425 119.784731 
L 287.298425 123.235604 
" clip-path="url(#p372afc756c)" style="fill: #23888e; fill-opacity: 0.7"/>
    <path d="M 287.298425 119.784731 
L 296.029134 119.784731 
L 296.029134 116.333858 
L 287.298425 116.333858 
L 287.298425 119.784731 
" clip-path="url(#p372afc756c)" style="fill: #218e8d; fill-opacity: 0.7"/>
    <path d="M 287.298425 116.333858 
L 296.029134 116.333858 
L 296.029134 112.882985 
L 287.298425 112.882985 
L 287.298425 116.333858 
" clip-path="url(#p372afc756c)" style="fill: #20928c; fill-opacity: 0.7"/>
    <path d="M 287.298425 112.882985 
L 296.029134 112.882985 
L 296.029134 109.432112 
L 287.298425 109.432112 
L 287.298425 112.882985 
" clip-path="url(#p372afc756c)" style="fill: #1f988b; fill-opacity: 0.7"/>
    <path d="M 287.298425 109.432112 
L 296.029134 109.432112 
L 296.029134 105.981239 
L 287.298425 105.981239 
L 287.298425 109.432112 
" clip-path="url(#p372afc756c)" style="fill: #1e9d89; fill-opacity: 0.7"/>
    <path d="M 287.298425 105.981239 
L 296.029134 105.981239 
L 296.029134 102.530366 
L 287.298425 102.530366 
L 287.298425 105.981239 
" clip-path="url(#p372afc756c)" style="fill: #1fa287; fill-opacity: 0.7"/>
    <path d="M 287.298425 102.530366 
L 296.029134 102.530366 
L 296.029134 99.079493 
L 287.298425 99.079493 
L 287.298425 102.530366 
" clip-path="url(#p372afc756c)" style="fill: #22a884; fill-opacity: 0.7"/>
    <path d="M 287.298425 99.079493 
L 296.029134 99.079493 
L 296.029134 95.62862 
L 287.298425 95.62862 
L 287.298425 99.079493 
" clip-path="url(#p372afc756c)" style="fill: #26ad81; fill-opacity: 0.7"/>
    <path d="M 287.298425 95.62862 
L 296.029134 95.62862 
L 296.029134 92.177747 
L 287.298425 92.177747 
L 287.298425 95.62862 
" clip-path="url(#p372afc756c)" style="fill: #2db27d; fill-opacity: 0.7"/>
    <path d="M 287.298425 92.177747 
L 296.029134 92.177747 
L 296.029134 88.726874 
L 287.298425 88.726874 
L 287.298425 92.177747 
" clip-path="url(#p372afc756c)" style="fill: #34b679; fill-opacity: 0.7"/>
    <path d="M 287.298425 88.726874 
L 296.029134 88.726874 
L 296.029134 85.276001 
L 287.298425 85.276001 
L 287.298425 88.726874 
" clip-path="url(#p372afc756c)" style="fill: #3dbc74; fill-opacity: 0.7"/>
    <path d="M 287.298425 85.276001 
L 296.029134 85.276001 
L 296.029134 81.825128 
L 287.298425 81.825128 
L 287.298425 85.276001 
" clip-path="url(#p372afc756c)" style="fill: #46c06f; fill-opacity: 0.7"/>
    <path d="M 287.298425 81.825128 
L 296.029134 81.825128 
L 296.029134 78.374255 
L 287.298425 78.374255 
L 287.298425 81.825128 
" clip-path="url(#p372afc756c)" style="fill: #52c569; fill-opacity: 0.7"/>
    <path d="M 287.298425 78.374255 
L 296.029134 78.374255 
L 296.029134 74.923382 
L 287.298425 74.923382 
L 287.298425 78.374255 
" clip-path="url(#p372afc756c)" style="fill: #5cc863; fill-opacity: 0.7"/>
    <path d="M 287.298425 74.923382 
L 296.029134 74.923382 
L 296.029134 71.472509 
L 287.298425 71.472509 
L 287.298425 74.923382 
" clip-path="url(#p372afc756c)" style="fill: #69cd5b; fill-opacity: 0.7"/>
    <path d="M 287.298425 71.472509 
L 296.029134 71.472509 
L 296.029134 68.021636 
L 287.298425 68.021636 
L 287.298425 71.472509 
" clip-path="url(#p372afc756c)" style="fill: #77d153; fill-opacity: 0.7"/>
    <path d="M 287.298425 68.021636 
L 296.029134 68.021636 
L 296.029134 64.570763 
L 287.298425 64.570763 
L 287.298425 68.021636 
" clip-path="url(#p372afc756c)" style="fill: #84d44b; fill-opacity: 0.7"/>
    <path d="M 287.298425 64.570763 
L 296.029134 64.570763 
L 296.029134 61.11989 
L 287.298425 61.11989 
L 287.298425 64.570763 
" clip-path="url(#p372afc756c)" style="fill: #93d741; fill-opacity: 0.7"/>
    <path d="M 287.298425 61.11989 
L 296.029134 61.11989 
L 296.029134 57.669017 
L 287.298425 57.669017 
L 287.298425 61.11989 
" clip-path="url(#p372afc756c)" style="fill: #a0da39; fill-opacity: 0.7"/>
    <path d="M 287.298425 57.669017 
L 296.029134 57.669017 
L 296.029134 54.218144 
L 287.298425 54.218144 
L 287.298425 57.669017 
" clip-path="url(#p372afc756c)" style="fill: #b0dd2f; fill-opacity: 0.7"/>
    <path d="M 287.298425 54.218144 
L 296.029134 54.218144 
L 296.029134 50.767271 
L 287.298425 50.767271 
L 287.298425 54.218144 
" clip-path="url(#p372afc756c)" style="fill: #bddf26; fill-opacity: 0.7"/>
    <path d="M 287.298425 50.767271 
L 296.029134 50.767271 
L 296.029134 47.316398 
L 287.298425 47.316398 
L 287.298425 50.767271 
" clip-path="url(#p372afc756c)" style="fill: #cde11d; fill-opacity: 0.7"/>
    <path d="M 287.298425 47.316398 
L 296.029134 47.316398 
L 296.029134 43.865526 
L 287.298425 43.865526 
L 287.298425 47.316398 
" clip-path="url(#p372afc756c)" style="fill: #dde318; fill-opacity: 0.7"/>
    <path d="M 287.298425 43.865526 
L 296.029134 43.865526 
L 296.029134 40.414653 
L 287.298425 40.414653 
L 287.298425 43.865526 
" clip-path="url(#p372afc756c)" style="fill: #eae51a; fill-opacity: 0.7"/>
    <path d="M 287.298425 40.414653 
L 296.029134 40.414653 
L 296.029134 36.96378 
L 287.298425 36.96378 
L 287.298425 40.414653 
" clip-path="url(#p372afc756c)" style="fill: #f8e621; fill-opacity: 0.7"/>
   </g>
   <g id="matplotlib.axis_3"/>
   <g id="matplotlib.axis_4">
    <g id="ytick_1">
     <g id="line2d_21">
      <defs>
       <path id="m0579b62bd0" d="M 0 0 
L -2 0 
" style="stroke: #000000; stroke-width: 0.3"/>
      </defs>
      <g>
       <use xlink:href="#m0579b62bd0" x="296.029134" y="192.253064" style="stroke: #000000; stroke-width: 0.3"/>
      </g>
     </g>
     <g id="text_13">
      <!-- 0.92 -->
      <g transform="translate(299.529134 195.116189) scale(0.08 -0.08)">
       <defs>
        <path id="ArialMT-2212" d="M 3381 1997 
L 356 1997 
L 356 2522 
L 3381 2522 
L 3381 1997 
z
" transform="scale(0.015625)"/>
        <path id="ArialMT-30" d="M 266 2259 
Q 266 3072 433 3567 
Q 600 4063 929 4331 
Q 1259 4600 1759 4600 
Q 2128 4600 2406 4451 
Q 2684 4303 2865 4023 
Q 3047 3744 3150 3342 
Q 3253 2941 3253 2259 
Q 3253 1453 3087 958 
Q 2922 463 2592 192 
Q 2263 -78 1759 -78 
Q 1097 -78 719 397 
Q 266 969 266 2259 
z
M 844 2259 
Q 844 1131 1108 757 
Q 1372 384 1759 384 
Q 2147 384 2411 759 
Q 2675 1134 2675 2259 
Q 2675 3391 2411 3762 
Q 2147 4134 1753 4134 
Q 1366 4134 1134 3806 
Q 844 3388 844 2259 
z
" transform="scale(0.015625)"/>
        <path id="ArialMT-2e" d="M 581 0 
L 581 641 
L 1222 641 
L 1222 0 
L 581 0 
z
" transform="scale(0.015625)"/>
        <path id="ArialMT-39" d="M 350 1059 
L 891 1109 
Q 959 728 1153 556 
Q 1347 384 1650 384 
Q 1909 384 2104 503 
Q 2300 622 2425 820 
Q 2550 1019 2634 1356 
Q 2719 1694 2719 2044 
Q 2719 2081 2716 2156 
Q 2547 1888 2255 1720 
Q 1963 1553 1622 1553 
Q 1053 1553 659 1965 
Q 266 2378 266 3053 
Q 266 3750 677 4175 
Q 1088 4600 1706 4600 
Q 2153 4600 2523 4359 
Q 2894 4119 3086 3673 
Q 3278 3228 3278 2384 
Q 3278 1506 3087 986 
Q 2897 466 2520 194 
Q 2144 -78 1638 -78 
Q 1100 -78 759 220 
Q 419 519 350 1059 
z
M 2653 3081 
Q 2653 3566 2395 3850 
Q 2138 4134 1775 4134 
Q 1400 4134 1122 3828 
Q 844 3522 844 3034 
Q 844 2597 1108 2323 
Q 1372 2050 1759 2050 
Q 2150 2050 2401 2323 
Q 2653 2597 2653 3081 
z
" transform="scale(0.015625)"/>
        <path id="ArialMT-32" d="M 3222 541 
L 3222 0 
L 194 0 
Q 188 203 259 391 
Q 375 700 629 1000 
Q 884 1300 1366 1694 
Q 2113 2306 2375 2664 
Q 2638 3022 2638 3341 
Q 2638 3675 2398 3904 
Q 2159 4134 1775 4134 
Q 1369 4134 1125 3890 
Q 881 3647 878 3216 
L 300 3275 
Q 359 3922 746 4261 
Q 1134 4600 1788 4600 
Q 2447 4600 2831 4234 
Q 3216 3869 3216 3328 
Q 3216 3053 3103 2787 
Q 2991 2522 2730 2228 
Q 2469 1934 1863 1422 
Q 1356 997 1212 845 
Q 1069 694 975 541 
L 3222 541 
z
" transform="scale(0.015625)"/>
       </defs>
       <use xlink:href="#ArialMT-2212"/>
       <use xlink:href="#ArialMT-30" transform="translate(58.398438 0)"/>
       <use xlink:href="#ArialMT-2e" transform="translate(114.013672 0)"/>
       <use xlink:href="#ArialMT-39" transform="translate(141.796875 0)"/>
       <use xlink:href="#ArialMT-32" transform="translate(197.412109 0)"/>
      </g>
     </g>
    </g>
    <g id="ytick_2">
     <g id="line2d_22">
      <g>
       <use xlink:href="#m0579b62bd0" x="296.029134" y="174.998699" style="stroke: #000000; stroke-width: 0.3"/>
      </g>
     </g>
     <g id="text_14">
      <!-- 0.82 -->
      <g transform="translate(299.529134 177.861824) scale(0.08 -0.08)">
       <defs>
        <path id="ArialMT-38" d="M 1131 2484 
Q 781 2613 612 2850 
Q 444 3088 444 3419 
Q 444 3919 803 4259 
Q 1163 4600 1759 4600 
Q 2359 4600 2725 4251 
Q 3091 3903 3091 3403 
Q 3091 3084 2923 2848 
Q 2756 2613 2416 2484 
Q 2838 2347 3058 2040 
Q 3278 1734 3278 1309 
Q 3278 722 2862 322 
Q 2447 -78 1769 -78 
Q 1091 -78 675 323 
Q 259 725 259 1325 
Q 259 1772 486 2073 
Q 713 2375 1131 2484 
z
M 1019 3438 
Q 1019 3113 1228 2906 
Q 1438 2700 1772 2700 
Q 2097 2700 2305 2904 
Q 2513 3109 2513 3406 
Q 2513 3716 2298 3927 
Q 2084 4138 1766 4138 
Q 1444 4138 1231 3931 
Q 1019 3725 1019 3438 
z
M 838 1322 
Q 838 1081 952 856 
Q 1066 631 1291 507 
Q 1516 384 1775 384 
Q 2178 384 2440 643 
Q 2703 903 2703 1303 
Q 2703 1709 2433 1975 
Q 2163 2241 1756 2241 
Q 1359 2241 1098 1978 
Q 838 1716 838 1322 
z
" transform="scale(0.015625)"/>
       </defs>
       <use xlink:href="#ArialMT-2212"/>
       <use xlink:href="#ArialMT-30" transform="translate(58.398438 0)"/>
       <use xlink:href="#ArialMT-2e" transform="translate(114.013672 0)"/>
       <use xlink:href="#ArialMT-38" transform="translate(141.796875 0)"/>
       <use xlink:href="#ArialMT-32" transform="translate(197.412109 0)"/>
      </g>
     </g>
    </g>
    <g id="ytick_3">
     <g id="line2d_23">
      <g>
       <use xlink:href="#m0579b62bd0" x="296.029134" y="157.744334" style="stroke: #000000; stroke-width: 0.3"/>
      </g>
     </g>
     <g id="text_15">
      <!-- 0.72 -->
      <g transform="translate(299.529134 160.607459) scale(0.08 -0.08)">
       <defs>
        <path id="ArialMT-37" d="M 303 3981 
L 303 4522 
L 3269 4522 
L 3269 4084 
Q 2831 3619 2401 2847 
Q 1972 2075 1738 1259 
Q 1569 684 1522 0 
L 944 0 
Q 953 541 1156 1306 
Q 1359 2072 1739 2783 
Q 2119 3494 2547 3981 
L 303 3981 
z
" transform="scale(0.015625)"/>
       </defs>
       <use xlink:href="#ArialMT-2212"/>
       <use xlink:href="#ArialMT-30" transform="translate(58.398438 0)"/>
       <use xlink:href="#ArialMT-2e" transform="translate(114.013672 0)"/>
       <use xlink:href="#ArialMT-37" transform="translate(141.796875 0)"/>
       <use xlink:href="#ArialMT-32" transform="translate(197.412109 0)"/>
      </g>
     </g>
    </g>
    <g id="ytick_4">
     <g id="line2d_24">
      <g>
       <use xlink:href="#m0579b62bd0" x="296.029134" y="140.489969" style="stroke: #000000; stroke-width: 0.3"/>
      </g>
     </g>
     <g id="text_16">
      <!-- 0.62 -->
      <g transform="translate(299.529134 143.353094) scale(0.08 -0.08)">
       <defs>
        <path id="ArialMT-36" d="M 3184 3459 
L 2625 3416 
Q 2550 3747 2413 3897 
Q 2184 4138 1850 4138 
Q 1581 4138 1378 3988 
Q 1113 3794 959 3422 
Q 806 3050 800 2363 
Q 1003 2672 1297 2822 
Q 1591 2972 1913 2972 
Q 2475 2972 2870 2558 
Q 3266 2144 3266 1488 
Q 3266 1056 3080 686 
Q 2894 316 2569 119 
Q 2244 -78 1831 -78 
Q 1128 -78 684 439 
Q 241 956 241 2144 
Q 241 3472 731 4075 
Q 1159 4600 1884 4600 
Q 2425 4600 2770 4297 
Q 3116 3994 3184 3459 
z
M 888 1484 
Q 888 1194 1011 928 
Q 1134 663 1356 523 
Q 1578 384 1822 384 
Q 2178 384 2434 671 
Q 2691 959 2691 1453 
Q 2691 1928 2437 2201 
Q 2184 2475 1800 2475 
Q 1419 2475 1153 2201 
Q 888 1928 888 1484 
z
" transform="scale(0.015625)"/>
       </defs>
       <use xlink:href="#ArialMT-2212"/>
       <use xlink:href="#ArialMT-30" transform="translate(58.398438 0)"/>
       <use xlink:href="#ArialMT-2e" transform="translate(114.013672 0)"/>
       <use xlink:href="#ArialMT-36" transform="translate(141.796875 0)"/>
       <use xlink:href="#ArialMT-32" transform="translate(197.412109 0)"/>
      </g>
     </g>
    </g>
    <g id="ytick_5">
     <g id="line2d_25">
      <g>
       <use xlink:href="#m0579b62bd0" x="296.029134" y="123.235604" style="stroke: #000000; stroke-width: 0.3"/>
      </g>
     </g>
     <g id="text_17">
      <!-- 0.52 -->
      <g transform="translate(299.529134 126.098729) scale(0.08 -0.08)">
       <defs>
        <path id="ArialMT-35" d="M 266 1200 
L 856 1250 
Q 922 819 1161 601 
Q 1400 384 1738 384 
Q 2144 384 2425 690 
Q 2706 997 2706 1503 
Q 2706 1984 2436 2262 
Q 2166 2541 1728 2541 
Q 1456 2541 1237 2417 
Q 1019 2294 894 2097 
L 366 2166 
L 809 4519 
L 3088 4519 
L 3088 3981 
L 1259 3981 
L 1013 2750 
Q 1425 3038 1878 3038 
Q 2478 3038 2890 2622 
Q 3303 2206 3303 1553 
Q 3303 931 2941 478 
Q 2500 -78 1738 -78 
Q 1113 -78 717 272 
Q 322 622 266 1200 
z
" transform="scale(0.015625)"/>
       </defs>
       <use xlink:href="#ArialMT-2212"/>
       <use xlink:href="#ArialMT-30" transform="translate(58.398438 0)"/>
       <use xlink:href="#ArialMT-2e" transform="translate(114.013672 0)"/>
       <use xlink:href="#ArialMT-35" transform="translate(141.796875 0)"/>
       <use xlink:href="#ArialMT-32" transform="translate(197.412109 0)"/>
      </g>
     </g>
    </g>
    <g id="ytick_6">
     <g id="line2d_26">
      <g>
       <use xlink:href="#m0579b62bd0" x="296.029134" y="105.981239" style="stroke: #000000; stroke-width: 0.3"/>
      </g>
     </g>
     <g id="text_18">
      <!-- 0.42 -->
      <g transform="translate(299.529134 108.844364) scale(0.08 -0.08)">
       <defs>
        <path id="ArialMT-34" d="M 2069 0 
L 2069 1097 
L 81 1097 
L 81 1613 
L 2172 4581 
L 2631 4581 
L 2631 1613 
L 3250 1613 
L 3250 1097 
L 2631 1097 
L 2631 0 
L 2069 0 
z
M 2069 1613 
L 2069 3678 
L 634 1613 
L 2069 1613 
z
" transform="scale(0.015625)"/>
       </defs>
       <use xlink:href="#ArialMT-2212"/>
       <use xlink:href="#ArialMT-30" transform="translate(58.398438 0)"/>
       <use xlink:href="#ArialMT-2e" transform="translate(114.013672 0)"/>
       <use xlink:href="#ArialMT-34" transform="translate(141.796875 0)"/>
       <use xlink:href="#ArialMT-32" transform="translate(197.412109 0)"/>
      </g>
     </g>
    </g>
    <g id="ytick_7">
     <g id="line2d_27">
      <g>
       <use xlink:href="#m0579b62bd0" x="296.029134" y="88.726874" style="stroke: #000000; stroke-width: 0.3"/>
      </g>
     </g>
     <g id="text_19">
      <!-- 0.32 -->
      <g transform="translate(299.529134 91.589999) scale(0.08 -0.08)">
       <defs>
        <path id="ArialMT-33" d="M 269 1209 
L 831 1284 
Q 928 806 1161 595 
Q 1394 384 1728 384 
Q 2125 384 2398 659 
Q 2672 934 2672 1341 
Q 2672 1728 2419 1979 
Q 2166 2231 1775 2231 
Q 1616 2231 1378 2169 
L 1441 2663 
Q 1497 2656 1531 2656 
Q 1891 2656 2178 2843 
Q 2466 3031 2466 3422 
Q 2466 3731 2256 3934 
Q 2047 4138 1716 4138 
Q 1388 4138 1169 3931 
Q 950 3725 888 3313 
L 325 3413 
Q 428 3978 793 4289 
Q 1159 4600 1703 4600 
Q 2078 4600 2393 4439 
Q 2709 4278 2876 4000 
Q 3044 3722 3044 3409 
Q 3044 3113 2884 2869 
Q 2725 2625 2413 2481 
Q 2819 2388 3044 2092 
Q 3269 1797 3269 1353 
Q 3269 753 2831 336 
Q 2394 -81 1725 -81 
Q 1122 -81 723 278 
Q 325 638 269 1209 
z
" transform="scale(0.015625)"/>
       </defs>
       <use xlink:href="#ArialMT-2212"/>
       <use xlink:href="#ArialMT-30" transform="translate(58.398438 0)"/>
       <use xlink:href="#ArialMT-2e" transform="translate(114.013672 0)"/>
       <use xlink:href="#ArialMT-33" transform="translate(141.796875 0)"/>
       <use xlink:href="#ArialMT-32" transform="translate(197.412109 0)"/>
      </g>
     </g>
    </g>
    <g id="ytick_8">
     <g id="line2d_28">
      <g>
       <use xlink:href="#m0579b62bd0" x="296.029134" y="71.472509" style="stroke: #000000; stroke-width: 0.3"/>
      </g>
     </g>
     <g id="text_20">
      <!-- 0.22 -->
      <g transform="translate(299.529134 74.335634) scale(0.08 -0.08)">
       <use xlink:href="#ArialMT-2212"/>
       <use xlink:href="#ArialMT-30" transform="translate(58.398438 0)"/>
       <use xlink:href="#ArialMT-2e" transform="translate(114.013672 0)"/>
       <use xlink:href="#ArialMT-32" transform="translate(141.796875 0)"/>
       <use xlink:href="#ArialMT-32" transform="translate(197.412109 0)"/>
      </g>
     </g>
    </g>
    <g id="ytick_9">
     <g id="line2d_29">
      <g>
       <use xlink:href="#m0579b62bd0" x="296.029134" y="54.218144" style="stroke: #000000; stroke-width: 0.3"/>
      </g>
     </g>
     <g id="text_21">
      <!-- 0.12 -->
      <g transform="translate(299.529134 57.081269) scale(0.08 -0.08)">
       <defs>
        <path id="ArialMT-31" d="M 2384 0 
L 1822 0 
L 1822 3584 
Q 1619 3391 1289 3197 
Q 959 3003 697 2906 
L 697 3450 
Q 1169 3672 1522 3987 
Q 1875 4303 2022 4600 
L 2384 4600 
L 2384 0 
z
" transform="scale(0.015625)"/>
       </defs>
       <use xlink:href="#ArialMT-2212"/>
       <use xlink:href="#ArialMT-30" transform="translate(58.398438 0)"/>
       <use xlink:href="#ArialMT-2e" transform="translate(114.013672 0)"/>
       <use xlink:href="#ArialMT-31" transform="translate(141.796875 0)"/>
       <use xlink:href="#ArialMT-32" transform="translate(197.412109 0)"/>
      </g>
     </g>
    </g>
    <g id="ytick_10">
     <g id="line2d_30">
      <g>
       <use xlink:href="#m0579b62bd0" x="296.029134" y="36.96378" style="stroke: #000000; stroke-width: 0.3"/>
      </g>
     </g>
     <g id="text_22">
      <!-- 0.02 -->
      <g transform="translate(299.529134 39.826905) scale(0.08 -0.08)">
       <use xlink:href="#ArialMT-2212"/>
       <use xlink:href="#ArialMT-30" transform="translate(58.398438 0)"/>
       <use xlink:href="#ArialMT-2e" transform="translate(114.013672 0)"/>
       <use xlink:href="#ArialMT-30" transform="translate(141.796875 0)"/>
       <use xlink:href="#ArialMT-32" transform="translate(197.412109 0)"/>
      </g>
     </g>
    </g>
    <g id="text_23">
     <!-- Formation Energy (eV/atom) -->
     <g transform="translate(331.050071 179.408077) rotate(-90) scale(0.1 -0.1)">
      <defs>
       <path id="ArialMT-46" d="M 525 0 
L 525 4581 
L 3616 4581 
L 3616 4041 
L 1131 4041 
L 1131 2622 
L 3281 2622 
L 3281 2081 
L 1131 2081 
L 1131 0 
L 525 0 
z
" transform="scale(0.015625)"/>
       <path id="ArialMT-6f" d="M 213 1659 
Q 213 2581 725 3025 
Q 1153 3394 1769 3394 
Q 2453 3394 2887 2945 
Q 3322 2497 3322 1706 
Q 3322 1066 3130 698 
Q 2938 331 2570 128 
Q 2203 -75 1769 -75 
Q 1072 -75 642 372 
Q 213 819 213 1659 
z
M 791 1659 
Q 791 1022 1069 705 
Q 1347 388 1769 388 
Q 2188 388 2466 706 
Q 2744 1025 2744 1678 
Q 2744 2294 2464 2611 
Q 2184 2928 1769 2928 
Q 1347 2928 1069 2612 
Q 791 2297 791 1659 
z
" transform="scale(0.015625)"/>
       <path id="ArialMT-72" d="M 416 0 
L 416 3319 
L 922 3319 
L 922 2816 
Q 1116 3169 1280 3281 
Q 1444 3394 1641 3394 
Q 1925 3394 2219 3213 
L 2025 2691 
Q 1819 2813 1613 2813 
Q 1428 2813 1281 2702 
Q 1134 2591 1072 2394 
Q 978 2094 978 1738 
L 978 0 
L 416 0 
z
" transform="scale(0.015625)"/>
       <path id="ArialMT-6d" d="M 422 0 
L 422 3319 
L 925 3319 
L 925 2853 
Q 1081 3097 1340 3245 
Q 1600 3394 1931 3394 
Q 2300 3394 2536 3241 
Q 2772 3088 2869 2813 
Q 3263 3394 3894 3394 
Q 4388 3394 4653 3120 
Q 4919 2847 4919 2278 
L 4919 0 
L 4359 0 
L 4359 2091 
Q 4359 2428 4304 2576 
Q 4250 2725 4106 2815 
Q 3963 2906 3769 2906 
Q 3419 2906 3187 2673 
Q 2956 2441 2956 1928 
L 2956 0 
L 2394 0 
L 2394 2156 
Q 2394 2531 2256 2718 
Q 2119 2906 1806 2906 
Q 1569 2906 1367 2781 
Q 1166 2656 1075 2415 
Q 984 2175 984 1722 
L 984 0 
L 422 0 
z
" transform="scale(0.015625)"/>
       <path id="ArialMT-61" d="M 2588 409 
Q 2275 144 1986 34 
Q 1697 -75 1366 -75 
Q 819 -75 525 192 
Q 231 459 231 875 
Q 231 1119 342 1320 
Q 453 1522 633 1644 
Q 813 1766 1038 1828 
Q 1203 1872 1538 1913 
Q 2219 1994 2541 2106 
Q 2544 2222 2544 2253 
Q 2544 2597 2384 2738 
Q 2169 2928 1744 2928 
Q 1347 2928 1158 2789 
Q 969 2650 878 2297 
L 328 2372 
Q 403 2725 575 2942 
Q 747 3159 1072 3276 
Q 1397 3394 1825 3394 
Q 2250 3394 2515 3294 
Q 2781 3194 2906 3042 
Q 3031 2891 3081 2659 
Q 3109 2516 3109 2141 
L 3109 1391 
Q 3109 606 3145 398 
Q 3181 191 3288 0 
L 2700 0 
Q 2613 175 2588 409 
z
M 2541 1666 
Q 2234 1541 1622 1453 
Q 1275 1403 1131 1340 
Q 988 1278 909 1158 
Q 831 1038 831 891 
Q 831 666 1001 516 
Q 1172 366 1500 366 
Q 1825 366 2078 508 
Q 2331 650 2450 897 
Q 2541 1088 2541 1459 
L 2541 1666 
z
" transform="scale(0.015625)"/>
       <path id="ArialMT-74" d="M 1650 503 
L 1731 6 
Q 1494 -44 1306 -44 
Q 1000 -44 831 53 
Q 663 150 594 308 
Q 525 466 525 972 
L 525 2881 
L 113 2881 
L 113 3319 
L 525 3319 
L 525 4141 
L 1084 4478 
L 1084 3319 
L 1650 3319 
L 1650 2881 
L 1084 2881 
L 1084 941 
Q 1084 700 1114 631 
Q 1144 563 1211 522 
Q 1278 481 1403 481 
Q 1497 481 1650 503 
z
" transform="scale(0.015625)"/>
       <path id="ArialMT-69" d="M 425 3934 
L 425 4581 
L 988 4581 
L 988 3934 
L 425 3934 
z
M 425 0 
L 425 3319 
L 988 3319 
L 988 0 
L 425 0 
z
" transform="scale(0.015625)"/>
       <path id="ArialMT-6e" d="M 422 0 
L 422 3319 
L 928 3319 
L 928 2847 
Q 1294 3394 1984 3394 
Q 2284 3394 2536 3286 
Q 2788 3178 2913 3003 
Q 3038 2828 3088 2588 
Q 3119 2431 3119 2041 
L 3119 0 
L 2556 0 
L 2556 2019 
Q 2556 2363 2490 2533 
Q 2425 2703 2258 2804 
Q 2091 2906 1866 2906 
Q 1506 2906 1245 2678 
Q 984 2450 984 1813 
L 984 0 
L 422 0 
z
" transform="scale(0.015625)"/>
       <path id="ArialMT-20" transform="scale(0.015625)"/>
       <path id="ArialMT-45" d="M 506 0 
L 506 4581 
L 3819 4581 
L 3819 4041 
L 1113 4041 
L 1113 2638 
L 3647 2638 
L 3647 2100 
L 1113 2100 
L 1113 541 
L 3925 541 
L 3925 0 
L 506 0 
z
" transform="scale(0.015625)"/>
       <path id="ArialMT-65" d="M 2694 1069 
L 3275 997 
Q 3138 488 2766 206 
Q 2394 -75 1816 -75 
Q 1088 -75 661 373 
Q 234 822 234 1631 
Q 234 2469 665 2931 
Q 1097 3394 1784 3394 
Q 2450 3394 2872 2941 
Q 3294 2488 3294 1666 
Q 3294 1616 3291 1516 
L 816 1516 
Q 847 969 1125 678 
Q 1403 388 1819 388 
Q 2128 388 2347 550 
Q 2566 713 2694 1069 
z
M 847 1978 
L 2700 1978 
Q 2663 2397 2488 2606 
Q 2219 2931 1791 2931 
Q 1403 2931 1139 2672 
Q 875 2413 847 1978 
z
" transform="scale(0.015625)"/>
       <path id="ArialMT-67" d="M 319 -275 
L 866 -356 
Q 900 -609 1056 -725 
Q 1266 -881 1628 -881 
Q 2019 -881 2231 -725 
Q 2444 -569 2519 -288 
Q 2563 -116 2559 434 
Q 2191 0 1641 0 
Q 956 0 581 494 
Q 206 988 206 1678 
Q 206 2153 378 2554 
Q 550 2956 876 3175 
Q 1203 3394 1644 3394 
Q 2231 3394 2613 2919 
L 2613 3319 
L 3131 3319 
L 3131 450 
Q 3131 -325 2973 -648 
Q 2816 -972 2473 -1159 
Q 2131 -1347 1631 -1347 
Q 1038 -1347 672 -1080 
Q 306 -813 319 -275 
z
M 784 1719 
Q 784 1066 1043 766 
Q 1303 466 1694 466 
Q 2081 466 2343 764 
Q 2606 1063 2606 1700 
Q 2606 2309 2336 2618 
Q 2066 2928 1684 2928 
Q 1309 2928 1046 2623 
Q 784 2319 784 1719 
z
" transform="scale(0.015625)"/>
       <path id="ArialMT-79" d="M 397 -1278 
L 334 -750 
Q 519 -800 656 -800 
Q 844 -800 956 -737 
Q 1069 -675 1141 -563 
Q 1194 -478 1313 -144 
Q 1328 -97 1363 -6 
L 103 3319 
L 709 3319 
L 1400 1397 
Q 1534 1031 1641 628 
Q 1738 1016 1872 1384 
L 2581 3319 
L 3144 3319 
L 1881 -56 
Q 1678 -603 1566 -809 
Q 1416 -1088 1222 -1217 
Q 1028 -1347 759 -1347 
Q 597 -1347 397 -1278 
z
" transform="scale(0.015625)"/>
       <path id="ArialMT-28" d="M 1497 -1347 
Q 1031 -759 709 28 
Q 388 816 388 1659 
Q 388 2403 628 3084 
Q 909 3875 1497 4659 
L 1900 4659 
Q 1522 4009 1400 3731 
Q 1209 3300 1100 2831 
Q 966 2247 966 1656 
Q 966 153 1900 -1347 
L 1497 -1347 
z
" transform="scale(0.015625)"/>
       <path id="ArialMT-56" d="M 1803 0 
L 28 4581 
L 684 4581 
L 1875 1253 
Q 2019 853 2116 503 
Q 2222 878 2363 1253 
L 3600 4581 
L 4219 4581 
L 2425 0 
L 1803 0 
z
" transform="scale(0.015625)"/>
       <path id="ArialMT-2f" d="M 0 -78 
L 1328 4659 
L 1778 4659 
L 453 -78 
L 0 -78 
z
" transform="scale(0.015625)"/>
       <path id="ArialMT-29" d="M 791 -1347 
L 388 -1347 
Q 1322 153 1322 1656 
Q 1322 2244 1188 2822 
Q 1081 3291 891 3722 
Q 769 4003 388 4659 
L 791 4659 
Q 1378 3875 1659 3084 
Q 1900 2403 1900 1659 
Q 1900 816 1576 28 
Q 1253 -759 791 -1347 
z
" transform="scale(0.015625)"/>
      </defs>
      <use xlink:href="#ArialMT-46"/>
      <use xlink:href="#ArialMT-6f" transform="translate(61.083984 0)"/>
      <use xlink:href="#ArialMT-72" transform="translate(116.699219 0)"/>
      <use xlink:href="#ArialMT-6d" transform="translate(150 0)"/>
      <use xlink:href="#ArialMT-61" transform="translate(233.300781 0)"/>
      <use xlink:href="#ArialMT-74" transform="translate(288.916016 0)"/>
      <use xlink:href="#ArialMT-69" transform="translate(316.699219 0)"/>
      <use xlink:href="#ArialMT-6f" transform="translate(338.916016 0)"/>
      <use xlink:href="#ArialMT-6e" transform="translate(394.53125 0)"/>
      <use xlink:href="#ArialMT-20" transform="translate(450.146484 0)"/>
      <use xlink:href="#ArialMT-45" transform="translate(477.929688 0)"/>
      <use xlink:href="#ArialMT-6e" transform="translate(544.628906 0)"/>
      <use xlink:href="#ArialMT-65" transform="translate(600.244141 0)"/>
      <use xlink:href="#ArialMT-72" transform="translate(655.859375 0)"/>
      <use xlink:href="#ArialMT-67" transform="translate(689.160156 0)"/>
      <use xlink:href="#ArialMT-79" transform="translate(744.775391 0)"/>
      <use xlink:href="#ArialMT-20" transform="translate(794.775391 0)"/>
      <use xlink:href="#ArialMT-28" transform="translate(822.558594 0)"/>
      <use xlink:href="#ArialMT-65" transform="translate(855.859375 0)"/>
      <use xlink:href="#ArialMT-56" transform="translate(911.474609 0)"/>
      <use xlink:href="#ArialMT-2f" transform="translate(978.173828 0)"/>
      <use xlink:href="#ArialMT-61" transform="translate(1005.957031 0)"/>
      <use xlink:href="#ArialMT-74" transform="translate(1061.572266 0)"/>
      <use xlink:href="#ArialMT-6f" transform="translate(1089.355469 0)"/>
      <use xlink:href="#ArialMT-6d" transform="translate(1144.970703 0)"/>
      <use xlink:href="#ArialMT-29" transform="translate(1228.271484 0)"/>
     </g>
    </g>
   </g>
   <g id="LineCollection_1"/>
   <g id="patch_6">
    <path d="M 287.298425 195.703937 
L 291.66378 203.640945 
L 296.029134 195.703937 
L 296.029134 36.96378 
L 291.66378 29.026772 
L 287.298425 36.96378 
L 287.298425 195.703937 
z
" style="fill: none; stroke: #000000; stroke-width: 0.8; stroke-linejoin: miter; stroke-linecap: square"/>
   </g>
  </g>
 </g>
 <defs>
  <clipPath id="p2cd9a2fc59">
   <rect x="7.2" y="7.2" width="263.622047" height="218.267717"/>
  </clipPath>
  <clipPath id="p372afc756c">
   <rect x="287.298425" y="36.96378" width="8.730709" height="158.740157"/>
  </clipPath>
 </defs>
</svg>
